<?xml version="1.0" encoding="UTF-8" standalone="no"?>
<!-- Created with Inkscape (http://www.inkscape.org/) -->

<svg
   width="256mm"
   height="256mm"
   viewBox="0 0 256 256"
   version="1.1"
   id="svg1"
   inkscape:version="1.4.3 (0d15f75042, 2025-12-25)"
   sodipodi:docname="audio-headphones.svg"
   xml:space="preserve"
   xmlns:inkscape="http://www.inkscape.org/namespaces/inkscape"
   xmlns:sodipodi="http://sodipodi.sourceforge.net/DTD/sodipodi-0.dtd"
   xmlns:xlink="http://www.w3.org/1999/xlink"
   xmlns="http://www.w3.org/2000/svg"
   xmlns:svg="http://www.w3.org/2000/svg"
   xmlns:rdf="http://www.w3.org/1999/02/22-rdf-syntax-ns#"
   xmlns:cc="http://creativecommons.org/ns#"><sodipodi:namedview
     id="namedview1"
     pagecolor="#ffffff"
     bordercolor="#000000"
     borderopacity="0.25"
     inkscape:showpageshadow="2"
     inkscape:pageopacity="0.0"
     inkscape:pagecheckerboard="0"
     inkscape:deskcolor="#d1d1d1"
     inkscape:document-units="mm"
     inkscape:zoom="0.32137521"
     inkscape:cx="-91.793017"
     inkscape:cy="978.60691"
     inkscape:current-layer="g10" /><defs
     id="defs1"><linearGradient
       id="linearGradient72"
       inkscape:collect="always"><stop
         style="stop-color:#837b9d;stop-opacity:0.99215698;"
         offset="0"
         id="stop73" /><stop
         style="stop-color:#4a4069;stop-opacity:0.99607843;"
         offset="0.5"
         id="stop75" /><stop
         style="stop-color:#322758;stop-opacity:0.99808115;"
         offset="1"
         id="stop74" /></linearGradient><linearGradient
       id="linearGradient68"
       inkscape:collect="always"><stop
         style="stop-color:#332b50;stop-opacity:0.67856163;"
         offset="0"
         id="stop69" /><stop
         style="stop-color:#332b50;stop-opacity:0.25882353;"
         offset="0.5"
         id="stop71" /><stop
         style="stop-color:#332b50;stop-opacity:0.12941176;"
         offset="0.75"
         id="stop72" /><stop
         style="stop-color:#332b50;stop-opacity:0;"
         offset="1"
         id="stop70" /></linearGradient><linearGradient
       id="linearGradient63"
       inkscape:collect="always"><stop
         style="stop-color:#a899db;stop-opacity:1;"
         offset="0"
         id="stop63" /><stop
         style="stop-color:#bdb1e3;stop-opacity:1;"
         offset="0.37180787"
         id="stop68" /><stop
         style="stop-color:#d2c9eb;stop-opacity:1;"
         offset="0.55823386"
         id="stop65" /><stop
         style="stop-color:#f8f7fc;stop-opacity:1;"
         offset="0.7438938"
         id="stop66" /><stop
         style="stop-color:#c8c4d6;stop-opacity:1"
         offset="0.85224324"
         id="stop67" /><stop
         style="stop-color:#8685aa;stop-opacity:1"
         offset="1"
         id="stop64" /></linearGradient><linearGradient
       id="linearGradient52"
       inkscape:collect="always"><stop
         style="stop-color:#fcfbfe;stop-opacity:1;"
         offset="0"
         id="stop53" /><stop
         style="stop-color:#d9d5f0;stop-opacity:0.95633125;"
         offset="0.5"
         id="stop55" /><stop
         style="stop-color:#c8c4d6;stop-opacity:1;"
         offset="0.625"
         id="stop58" /><stop
         style="stop-color:#bec0d2;stop-opacity:1"
         offset="0.75"
         id="stop56" /><stop
         style="stop-color:#a3a5bb;stop-opacity:1"
         offset="0.875"
         id="stop57" /><stop
         style="stop-color:#8685aa;stop-opacity:1"
         offset="1"
         id="stop54" /></linearGradient><linearGradient
       id="linearGradient48"
       inkscape:collect="always"><stop
         style="stop-color:#eee6fc;stop-opacity:1;"
         offset="0"
         id="stop48" /><stop
         style="stop-color:#cecfea;stop-opacity:0.84027451;"
         offset="0.25948742"
         id="stop50" /><stop
         style="stop-color:#2a2d63;stop-opacity:0.15878564;"
         offset="0.70341069"
         id="stop51" /><stop
         style="stop-color:#2a2d63;stop-opacity:0.44762295;"
         offset="0.875"
         id="stop52" /><stop
         style="stop-color:#2a2d63;stop-opacity:0.48666587;"
         offset="1"
         id="stop49" /></linearGradient><linearGradient
       id="linearGradient29"
       inkscape:collect="always"><stop
         style="stop-color:#aa91e6;stop-opacity:1;"
         offset="0"
         id="stop30" /><stop
         style="stop-color:#9192c8;stop-opacity:1"
         offset="0.67374796"
         id="stop32" /><stop
         style="stop-color:#dbdbfc;stop-opacity:1"
         offset="0.80966586"
         id="stop33" /><stop
         style="stop-color:#e3e4fb;stop-opacity:1;"
         offset="0.82695591"
         id="stop44" /><stop
         style="stop-color:#e7e8fb;stop-opacity:1;"
         offset="0.8922801"
         id="stop45" /><stop
         style="stop-color:#361878;stop-opacity:0.66073877;"
         offset="1"
         id="stop31" /></linearGradient><linearGradient
       id="linearGradient26"
       inkscape:collect="always"><stop
         style="stop-color:#f2f3fc;stop-opacity:1;"
         offset="0"
         id="stop26" /><stop
         style="stop-color:#e7e6ed;stop-opacity:1;"
         offset="0.49002033"
         id="stop29" /><stop
         style="stop-color:#e0dbe8;stop-opacity:1;"
         offset="0.64099145"
         id="stop28" /><stop
         style="stop-color:#4e2191;stop-opacity:1;"
         offset="1"
         id="stop27" /></linearGradient><linearGradient
       id="linearGradient20"
       inkscape:collect="always"><stop
         style="stop-color:#1d0061;stop-opacity:0;"
         offset="0"
         id="stop21" /><stop
         style="stop-color:#19004d;stop-opacity:0;"
         offset="0.5"
         id="stop23" /><stop
         style="stop-color:#170043;stop-opacity:0.12242521;"
         offset="0.75"
         id="stop24" /><stop
         style="stop-color:#160039;stop-opacity:0.6758253;"
         offset="1"
         id="stop22" /></linearGradient><linearGradient
       id="linearGradient11"
       inkscape:collect="always"><stop
         style="stop-color:#a6a7c3;stop-opacity:1"
         offset="0"
         id="stop11" /><stop
         style="stop-color:#b2b0d3;stop-opacity:1"
         offset="0.3836371"
         id="stop18" /><stop
         style="stop-color:#f9f9fc;stop-opacity:1;"
         offset="0.47555053"
         id="stop17" /><stop
         style="stop-color:#f9fafc;stop-opacity:1"
         offset="0.50071168"
         id="stop13" /><stop
         style="stop-color:#b3b1dc;stop-opacity:1;"
         offset="0.60568285"
         id="stop15" /><stop
         style="stop-color:#bab9df;stop-opacity:1;"
         offset="0.68359554"
         id="stop20" /><stop
         style="stop-color:#d4d5ea;stop-opacity:1"
         offset="0.73017645"
         id="stop16" /><stop
         style="stop-color:#f2f2fd;stop-opacity:1"
         offset="0.78431481"
         id="stop19" /><stop
         style="stop-color:#9898c0;stop-opacity:1"
         offset="0.93462104"
         id="stop14" /><stop
         style="stop-color:#fefefe;stop-opacity:1"
         offset="1"
         id="stop12" /></linearGradient><linearGradient
       id="linearGradient10"
       inkscape:collect="always"><stop
         style="stop-color:#343d5c;stop-opacity:1;"
         offset="0"
         id="stop6" /><stop
         style="stop-color:#545671;stop-opacity:1;"
         offset="0.4481"
         id="stop7" /><stop
         style="stop-color:#69697b;stop-opacity:1;"
         offset="0.74427438"
         id="stop8" /><stop
         style="stop-color:#797c8d;stop-opacity:1;"
         offset="0.88060987"
         id="stop9" /><stop
         style="stop-color:#b3b4bf;stop-opacity:1;"
         offset="1"
         id="stop10" /></linearGradient><linearGradient
       id="linearGradient1"
       inkscape:collect="always"><stop
         style="stop-color:#343d5c;stop-opacity:1;"
         offset="0"
         id="stop1" /><stop
         style="stop-color:#4c4e6f;stop-opacity:1;"
         offset="0.75734949"
         id="stop5" /><stop
         style="stop-color:#626271;stop-opacity:1;"
         offset="0.86287558"
         id="stop3" /><stop
         style="stop-color:#838594;stop-opacity:1"
         offset="0.92635822"
         id="stop4" /><stop
         style="stop-color:#aeb0c4;stop-opacity:1;"
         offset="1"
         id="stop2" /></linearGradient><radialGradient
       inkscape:collect="always"
       xlink:href="#linearGradient10"
       id="radialGradient2"
       cx="80.164841"
       cy="217.71707"
       fx="80.164841"
       fy="217.71707"
       r="22.446157"
       gradientTransform="matrix(1.4789077,-0.7926862,0.60183279,1.8612977,-175.93184,-112.50778)"
       gradientUnits="userSpaceOnUse" /><radialGradient
       inkscape:collect="always"
       xlink:href="#linearGradient1"
       id="radialGradient5"
       gradientUnits="userSpaceOnUse"
       gradientTransform="matrix(1.2563059,-1.4875751,1.1069748,1.7225116,-284.21141,-49.150882)"
       cx="80.164841"
       cy="217.71707"
       fx="80.164841"
       fy="217.71707"
       r="22.446157" /><radialGradient
       inkscape:collect="always"
       xlink:href="#linearGradient11"
       id="radialGradient12"
       cx="21.902153"
       cy="217.90227"
       fx="21.902153"
       fy="217.90227"
       r="19.423351"
       gradientTransform="matrix(1.626628,-1.2869537,0.77187699,2.6436786,-185.81807,-330.86285)"
       gradientUnits="userSpaceOnUse" /><radialGradient
       inkscape:collect="always"
       xlink:href="#linearGradient20"
       id="radialGradient22"
       cx="41.648746"
       cy="217.74869"
       fx="41.648746"
       fy="217.74869"
       r="19.423351"
       gradientTransform="matrix(2.3372084,-0.5608918,-0.65365499,3.2406551,100.04809,-475.06915)"
       gradientUnits="userSpaceOnUse" /><radialGradient
       inkscape:collect="always"
       xlink:href="#linearGradient26"
       id="radialGradient27"
       cx="35.395004"
       cy="220.92183"
       fx="35.395004"
       fy="220.92183"
       r="14.58481"
       gradientTransform="matrix(1.533764,-0.55165283,0.06128865,3.4653081,-33.537452,-522.99139)"
       gradientUnits="userSpaceOnUse" /><radialGradient
       inkscape:collect="always"
       xlink:href="#linearGradient29"
       id="radialGradient31"
       cx="117.34183"
       cy="211.13683"
       fx="117.34183"
       fy="211.13683"
       r="27.411438"
       gradientTransform="matrix(0.7163645,-0.60315804,0.69058457,1.1904065,-54.096021,-30.086863)"
       gradientUnits="userSpaceOnUse" /><radialGradient
       inkscape:collect="always"
       xlink:href="#linearGradient48"
       id="radialGradient49"
       cx="142.5921"
       cy="135.88632"
       fx="142.5921"
       fy="135.88632"
       r="63.748334"
       gradientTransform="matrix(1.3708261,-1.130248,0.75666022,0.91771855,-104.84657,131.92722)"
       gradientUnits="userSpaceOnUse" /><radialGradient
       inkscape:collect="always"
       xlink:href="#linearGradient52"
       id="radialGradient54"
       cx="95.867668"
       cy="51.819538"
       fx="95.867668"
       fy="51.819538"
       r="76.898992"
       gradientTransform="matrix(1.5480753,0.32849157,-0.20723525,0.9766332,-41.80386,-25.522286)"
       gradientUnits="userSpaceOnUse" /><radialGradient
       inkscape:collect="always"
       xlink:href="#linearGradient63"
       id="radialGradient64"
       cx="104.40855"
       cy="204.57938"
       fx="104.40855"
       fy="204.57938"
       r="62.895437"
       gradientTransform="matrix(1.1641844,0.09924849,-0.03547476,0.4161186,4.2901714,114.29813)"
       gradientUnits="userSpaceOnUse" /><radialGradient
       inkscape:collect="always"
       xlink:href="#linearGradient68"
       id="radialGradient70"
       cx="116.48669"
       cy="252.52713"
       fx="116.48669"
       fy="252.52713"
       r="64.013334"
       gradientTransform="matrix(1.5274399,0.02058848,-0.00882159,0.65446569,-55.894315,60.752065)"
       gradientUnits="userSpaceOnUse" /><linearGradient
       inkscape:collect="always"
       xlink:href="#linearGradient72"
       id="linearGradient74"
       x1="84.981102"
       y1="262.93732"
       x2="87.517181"
       y2="277.60114"
       gradientUnits="userSpaceOnUse" /></defs><metadata
     id="metadata1"><rdf:RDF><cc:Work
         rdf:about=""><cc:license
           rdf:resource="http://creativecommons.org/publicdomain/zero/1.0/" /></cc:Work><cc:License
         rdf:about="http://creativecommons.org/publicdomain/zero/1.0/"><cc:permits
           rdf:resource="http://creativecommons.org/ns#Reproduction" /><cc:permits
           rdf:resource="http://creativecommons.org/ns#Distribution" /><cc:permits
           rdf:resource="http://creativecommons.org/ns#DerivativeWorks" /></cc:License></rdf:RDF></metadata><g
     id="g10"
     style="display:inline"
     transform="matrix(1.1097407,0,0,1.1097407,-17.832897,-13.0241)"><g
       id="g62"
       inkscape:label="se"><path
         id="rect58"
         style="display:inline;fill:#000000;fill-opacity:0.0336992;fill-rule:evenodd;stroke-width:2.236;stroke-linecap:square;stroke-opacity:0.522012;paint-order:stroke fill markers"
         d="M 128.36389,13.898848 C 81.193553,16.64648 45.356831,57.977309 45.698807,96.418784 c 0.116763,13.125286 5.110896,25.567966 8.387465,36.749106 -12.150413,0.12029 -11.993266,28.01619 -11.418592,43.42443 0.549935,14.74498 5.544193,33.15645 12.727905,42.39638 5.707397,7.34105 9.039289,13.66807 14.753622,16.49098 19.687118,9.72554 34.178163,-10.20806 36.917293,-15.40635 4.89302,-9.28592 0.12482,-31.66522 -5.18999,-44.26394 -5.564642,-13.19121 -26.415483,-32.30911 -26.415483,-32.30911 0,0 4.217341,-2.22013 4.875671,-4.65759 0.65833,-2.43746 2.79231,-6.23606 3.331543,-10.23815 6.310784,-46.837551 90.923509,-152.555962 84.864109,-39.389831 l 10.47895,7.640361 -2.03761,5.60328 -14.60169,1.10122 -1.02836,20.41426 c -16.50257,11.30707 -17.45435,40.05935 5.60173,61.95487 22.44836,21.3184 51.23364,7.89932 40.29211,-39.30974 0,0 2.24575,-13.19277 0.61495,-19.48202 -1.22574,-4.72711 -7.51944,-12.57339 -7.51944,-12.57339 l -7.51944,-9.9534 11.44826,-1.86076 4.14824,-10.478643 c 7.53414,-41.563284 -19.96286,-81.8717 -80.04616,-78.371899 z m 41.624,94.963412 c 15.04805,-1.91848 15.95127,8.13175 21.83039,13.9716 l 1.74645,9.60528 c -6.95164,-7.51281 -13.942,-14.81274 -22.41254,-13.97161 z m -114.974817,36.67528 8.441315,0.58215 3.201826,11.93399 -11.06099,-1.1643 z"
         sodipodi:nodetypes="sscsssssczscccccscsccccscccccccccc" /><path
         id="path60"
         style="display:inline;fill:#000000;fill-opacity:0.0556484;fill-rule:evenodd;stroke-width:2.236;stroke-linecap:square;stroke-opacity:0.522012;paint-order:stroke fill markers"
         d="m 128.36389,13.898848 c -47.14659,3.12877 -83.007059,44.078461 -82.665083,82.519936 0.116763,13.125286 6.857347,27.896566 10.133916,39.077706 -12.150413,0.12029 -11.993266,24.81436 -11.418592,40.2226 0.549935,14.74498 5.980805,33.44753 13.164517,42.68746 5.707397,7.34105 7.438376,12.21269 13.152709,15.0356 19.687118,9.72554 31.283793,-11.0226 33.644843,-16.40317 3.94702,-8.99485 -0.38671,-28.19425 -5.701519,-40.79297 -5.564639,-13.19121 -25.542255,-31.8725 -25.542255,-31.8725 0,0 3.707472,-3.3611 4.293521,-5.53082 0.730674,-2.70516 4.265221,-5.02269 4.492814,-8.07703 5.663021,-75.998929 106.509469,-138.5838344 88.157249,-42.477146 -0.21878,1.14572 8.93529,8.566556 8.93529,8.566556 0.50604,1.7831 1.18834,3.55361 -2.03761,5.60328 0,0 -11.05436,-0.28682 -13.88132,1.9245 -2.73441,2.13894 -1.74873,19.59098 -1.74873,19.59098 -16.50257,11.30707 -13.80713,38.18936 7.63926,61.66379 15.75363,17.24335 46.13982,3.09658 37.23581,-40.03743 0,0 0.77206,-12.71348 -0.69488,-18.39048 -1.36028,-5.26423 -7.22837,-13.51939 -7.22837,-13.51939 l -5.48191,-9.08017 c 0,0 8.24655,-1.68872 10.79334,-3.89829 2.26165,-1.962174 3.56609,-8.804956 3.56609,-8.804956 3.72446,-37.661591 -19.15559,-81.9668175 -78.80909,-78.008056 z m 41.624,94.963412 c 15.04805,-1.91848 15.95127,8.13175 21.83039,13.9716 l 1.74645,9.60528 c -6.95164,-7.51281 -13.942,-14.81274 -22.41254,-13.97161 z m -114.974817,36.67528 8.441315,0.58215 3.201826,11.93399 -11.06099,-1.1643 z"
         sodipodi:nodetypes="sscssssscsssccscscsccscscccccccccc" /><path
         id="path61"
         style="display:inline;fill:#000000;fill-opacity:0.090465;fill-rule:evenodd;stroke-width:2.236;stroke-linecap:square;stroke-opacity:0.522012;paint-order:stroke fill markers"
         d="m 128.36389,13.898848 c -47.170667,2.741954 -80.969533,48.299051 -81.06417,84.266387 -0.03454,13.125755 6.129659,29.643015 9.842841,39.077705 -11.859338,5.65072 -11.265578,23.50452 -10.690904,38.91276 0.549935,14.74498 5.68973,31.11893 12.873442,40.35886 5.707397,7.34105 6.935607,11.47524 12.570559,14.45345 13.720077,7.2514 27.017457,-6.46592 29.183112,-11.92806 4.1029,-10.3482 0.78063,-29.52782 -4.534183,-42.12654 -5.564639,-13.19121 -24.094192,-33.07942 -24.094192,-33.07942 0,0 3.589046,-4.49526 4.175095,-6.66498 0.730674,-2.70516 2.255893,-5.31182 2.255893,-5.31182 C 74.207373,74.668368 177.48788,-27.600204 169.9731,88.185603 l 9.0382,8.669467 c 1.07322,2.823626 -0.11028,4.41632 -2.03761,5.60328 0,0 -12.78487,2.05453 -13.26385,3.15943 -1.47103,3.39333 -2.3662,18.35605 -2.3662,18.35605 -16.50257,11.30707 -14.89866,35.13307 6.54773,58.6075 15.75363,17.24335 45.55767,6.22564 36.65366,-36.90837 0,0 1.16666,-13.04102 -0.04,-18.82709 -1.10998,-5.32264 -6.20961,-13.15555 -6.20961,-13.15555 l -5.48191,-9.08017 c 0,0 7.20535,-1.82945 9.92011,-4.3349 2.22674,-2.05505 1.74687,-6.330821 1.74687,-6.330821 6.79835,-40.962682 -22.72167,-83.149344 -76.11664,-80.045581 z m 41.624,94.963412 c 15.04805,-1.91848 15.95127,8.13175 21.83039,13.9716 l 1.74645,9.60528 c -6.95164,-7.51281 -13.942,-14.81274 -22.41254,-13.97161 z m -114.974817,36.67528 8.441315,0.58215 3.201826,11.93399 -11.06099,-1.1643 z"
         sodipodi:nodetypes="cscssssscsccccscscsccscsccccccccccc" /><path
         id="path62"
         style="display:inline;fill:#000000;fill-opacity:0.090465;fill-rule:evenodd;stroke-width:2.236;stroke-linecap:square;stroke-opacity:0.522012;paint-order:stroke fill markers"
         d="m 128.36389,13.898848 c -47.195929,2.265909 -80.969533,48.299051 -81.06417,84.266387 -0.03454,13.125755 6.129659,29.643015 9.842841,39.077705 -11.859338,5.65072 -11.265578,23.50452 -10.690904,38.91276 0.549935,14.74498 5.68973,31.11893 12.873442,40.35886 5.707397,7.34105 6.935607,11.47524 12.570559,14.45345 13.720077,7.2514 25.196874,-9.99362 27.433633,-15.42703 3.073799,-7.4667 0.368982,-24.69101 -4.945826,-37.28973 -5.564639,-13.19121 -23.57964,-34.31435 -23.57964,-34.31435 0,0 3.634703,-2.1968 4.220752,-4.36652 0.730674,-2.70516 -0.07985,-7.4503 0.291136,-10.55117 10.77378,-90.052762 128.442637,-152.921399 95.480667,-41.34816 10.02191,5.736262 8.21492,9.18402 8.21492,9.18402 1.96445,4.71477 -0.69024,4.45508 -2.03761,5.60328 0,0 -13.29942,1.02542 -13.7784,2.13032 -1.47103,3.39333 -1.85165,19.38516 -1.85165,19.38516 -16.50257,11.30707 -16.49958,33.45939 4.94681,56.93382 15.75363,17.24335 45.63045,7.75378 36.72644,-35.38023 0,0 1.35526,-12.321 0.39664,-18.17217 -0.87905,-5.36561 -5.11807,-13.66493 -5.11807,-13.66493 l -5.48191,-9.08017 c 0,0 7.20535,-1.82945 9.92011,-4.3349 2.22674,-2.05505 0.81552,-4.37836 0.9828,-6.585512 3.14371,-41.479569 -22.6483,-82.321258 -75.35257,-79.79089 z m 41.624,94.963412 c 15.04805,-1.91848 15.95127,8.13175 21.83039,13.9716 l 1.74645,9.60528 c -6.95164,-7.51281 -13.942,-14.81274 -22.41254,-13.97161 z m -114.974817,36.67528 8.441315,0.58215 3.201826,11.93399 -11.06099,-1.1643 z"
         sodipodi:nodetypes="sscssssscsscccscscsccssscccccccccc" /></g><g
       id="g25"
       style="display:inline"><path
         id="path29"
         style="display:inline;fill:url(#radialGradient31);fill-rule:evenodd;stroke:#323349;stroke-width:3.34658;stroke-linecap:round;stroke-linejoin:round;stroke-opacity:0.601214;paint-order:stroke fill markers"
         d="m 197.72658,139.34889 a 34.319947,23.186216 75.441947 0 1 -6.65626,44.1073 34.319947,23.186216 75.441947 0 1 -33.34368,-18.14816 34.319947,23.186216 75.441947 0 1 6.65627,-44.10732 34.319947,23.186216 75.441947 0 1 33.34367,18.14818 z" /><g
         id="path37"
         style="display:inline;opacity:1"
         inkscape:label="br"><path
           style="baseline-shift:baseline;display:inline;overflow:visible;vector-effect:none;fill:#bbbde2;fill-opacity:1;fill-rule:evenodd;stroke-linecap:square;paint-order:stroke fill markers;enable-background:accumulate;stop-color:#000000;stop-opacity:1"
           d="m 178.24917,78.389228 h 9.16301 l 0.94599,28.228432 12.49408,17.88071 -0.31615,21.89007 c -1.97823,-0.98742 -4.106,3.90406 -5.22985,5.19035 l -0.14954,-9.32351 -0.78663,-13.79878 -14.53168,-18.72344 -7.98962,0.0427 -6.59122,1.16203 5.9705,-0.25697 -1.60883,7.00731 c 0,0 -4.34217,1.95085 -5.41735,3.12741 -1.44418,1.58033 -4.18697,3.11736 -4.18697,3.11736 l 1.67503,-10.7778 1.3014,-6.88881 4.04013,-3.56567 11.21803,-0.57484 z"
           id="path39"
           sodipodi:nodetypes="cccccccccccccscccccc" /><path
           id="path40"
           style="display:inline;opacity:1;fill:#8e8abe;fill-opacity:1;fill-rule:evenodd;stroke:none;stroke-width:0.802184;stroke-linecap:square;stroke-opacity:0.522012;paint-order:stroke fill markers"
           d="m 197.53826,127.9906 c 2.76516,0.26405 2.47638,-2.28201 3.03394,-3.33246 l -0.0638,21.03241 c -1.2253,-0.21259 -3.79613,3.45558 -3.70983,1.24515 z"
           sodipodi:nodetypes="cccsc" /><path
           style="baseline-shift:baseline;display:inline;overflow:visible;opacity:1;vector-effect:none;fill:#323349;fill-opacity:0.522012;fill-rule:evenodd;stroke-linecap:square;paint-order:stroke fill markers;enable-background:accumulate;stop-color:#000000;stop-opacity:1"
           d="m 177.75,77.888672 v 23.742188 l -10.86027,0.57138 -4.40352,3.78355 -1.29776,7.1621 -1.67342,10.76509 0.96875,0.19336 c 0,0 0.25236,-0.28657 1.27199,-1.0295 0.88468,-0.6446 2.17451,-1.22205 2.81519,-1.92314 0.40432,-0.44243 1.76743,-1.27326 2.97266,-1.90039 1.20523,-0.62712 2.2793,-1.10937 2.2793,-1.10937 l 0.29297,-0.13086 1.74988,-7.5584 7.72159,-0.11184 14.88527,18.12745 0.60793,13.85207 -0.002,9.67945 c 2.08966,-2.1075 3.75274,-7.10391 5.57405,-5.39513 l 0.62096,-22.34931 -12.42036,-17.80815 -0.95704,-28.560548 z m 1,1 h 8.17773 l 0.93555,27.898438 12.42036,17.8062 0.28402,21.77868 c -1.63824,-1.36024 -3.84671,3.74766 -5.28322,5.33193 -0.0148,-0.96783 -0.12527,-9.38919 -0.12527,-9.38919 l -0.29983,-14.05106 -14.89815,-18.99555 -8.64905,0.59067 -1.4746,0.4619 -4.29337,0.49776 5.64318,-0.0399 -2.06564,6.59607 c -0.22772,0.10349 -0.95952,0.43046 -2.03907,0.99218 -1.23465,0.64244 -2.57913,1.37721 -3.25,2.11133 -0.73913,0.80882 -1.5708,0.97227 -2.81714,1.90361 l 1.17486,-9.21996 1.30557,-6.61523 3.67697,-3.34801 11.57706,-0.57919 z"
           id="path38"
           sodipodi:nodetypes="cccccccsssccccccccccccccccccccccccccsscccccc" /><path
           id="path41"
           style="display:inline;opacity:1;fill:#463985;fill-opacity:0.381338;fill-rule:evenodd;stroke:none;stroke-width:0.802184;stroke-linecap:square;stroke-opacity:0.522012;paint-order:stroke fill markers"
           d="m 165.98412,110.83556 c 2.76516,-0.027 4.4728,0.0675 5.35782,-0.14614 l -2.0021,6.90152 c -1.2253,-0.21259 -3.08672,1.16337 -4.43752,2.47919 z"
           sodipodi:nodetypes="ccccc" /><path
           id="path42"
           style="display:inline;opacity:1;fill:#8e8abe;fill-opacity:0.722303;fill-rule:evenodd;stroke:none;stroke-width:0.802184;stroke-linecap:square;stroke-opacity:0.522012;paint-order:stroke fill markers"
           d="m 183.13004,81.564113 c 2.76516,0.26405 3.93176,2.520732 4.48932,1.470282 l 0.63782,23.945115 c -1.44361,-1.1222 -2.4318,-2.18401 -5.12882,-2.50548 z"
           sodipodi:nodetypes="ccccc" /><path
           id="path43"
           style="display:inline;opacity:1;fill:#e5e4fe;fill-opacity:1;fill-rule:evenodd;stroke:none;stroke-width:0.836001;stroke-linecap:square;stroke-opacity:0.522012;paint-order:stroke fill markers"
           d="m 178.48872,81.575822 c 2.16408,-0.63246 1.04138,-0.69095 3.7836,0.21831 l 0.17192,21.403248 -0.70631,2.95465 15.10501,21.94361 -0.52262,1.07208 -0.0775,13.29069 -0.74644,5.31512 -0.30943,-19.36821 -16.70591,-22.41672 -12.36628,0.45033 -3.82232,14.80989 -0.43937,-1.31064 2.09189,-13.16701 3.37834,-3.24607 11.43296,-0.63644 z"
           sodipodi:nodetypes="ccccccccccccccccc" /></g><ellipse
         style="display:inline;fill:url(#radialGradient2);fill-rule:evenodd;stroke:#323349;stroke-width:3.82138;stroke-linecap:round;stroke-linejoin:round;stroke-dasharray:none;stroke-opacity:0.522012;paint-order:stroke fill markers"
         id="path1"
         cx="90.354485"
         cy="227.78938"
         rx="18.905588"
         ry="30.933191"
         transform="matrix(0.82798319,-0.56075292,0.43056632,0.90255894,0,0)" /><path
         id="ellipse5"
         style="display:inline;fill:url(#radialGradient5);fill-rule:evenodd;stroke:#323349;stroke-width:3.40885;stroke-linecap:round;stroke-linejoin:round;stroke-opacity:0.591927;paint-order:stroke fill markers"
         d="m 89.492522,179.1452 c 8.720272,18.13494 8.173589,40.1464 -1.474675,47.33374 -9.648264,7.18735 -23.408089,-3.06513 -32.128364,-21.20007 -4.360139,-9.06748 -6.518326,-20.62087 -4.814451,-27.34832 -1.380166,-7.78722 -1.002238,-16.81567 3.821894,-20.40934 9.648266,-7.18735 25.875322,3.48904 34.595596,21.62399 z"
         sodipodi:nodetypes="ssscss" /></g><g
       id="g24"
       transform="matrix(0.83151731,-0.06448885,0.06304285,1.0262285,-35.434783,8.1713178)"
       style="display:inline"><path
         id="path10"
         style="display:inline;fill:url(#radialGradient12);fill-rule:evenodd;stroke-width:1.7474;stroke-linecap:round;stroke-linejoin:round;paint-order:stroke fill markers"
         transform="matrix(0.84595467,-0.53325482,0.37664872,0.92635615,0,0)"
         d="m 51.360205,220.34935 c 0.878414,20.77762 -8.696131,37.15299 -19.423352,37.15299 -10.72722,0 -19.42335,-16.63396 -19.423351,-37.15299 10e-7,-20.51903 8.493451,-37.72971 19.423351,-37.15299 6.411181,0.33829 18.855776,23.72779 19.423352,37.15299 z"
         sodipodi:nodetypes="sssss" /><path
         id="ellipse25"
         style="display:inline;fill:#aeb0c8;fill-opacity:1;fill-rule:evenodd;stroke-width:0.866689;stroke-linecap:round;stroke-linejoin:round;paint-order:stroke fill markers"
         d="m 64.423112,189.58358 a 21.96033,8.1299885 76.318033 0 1 0.430913,27.15416 21.96033,8.1299885 76.318033 0 1 -13.363155,-13.43865 21.96033,8.1299885 76.318033 0 1 -0.430914,-27.15416 21.96033,8.1299885 76.318033 0 1 13.363156,13.43865 z"
         transform="matrix(1.1969182,0.0752151,-0.07352859,0.96982128,43.013363,-5.259487)" /><path
         id="ellipse26"
         style="display:inline;fill:url(#radialGradient27);fill-rule:evenodd;stroke-width:1.74693;stroke-linecap:round;stroke-linejoin:round;paint-order:stroke fill markers"
         transform="matrix(0.84595468,-0.53325481,0.37664873,0.92635614,-3.5262438e-7,2.4532864e-8)"
         d="m 50.342588,232.82571 c -0.950135,7.28029 -7.315464,21.85762 -14.891765,24.06503 -1.163857,0.3391 -6.140698,2.66437 -12.713385,-3.66283 10.096605,2.30223 14.427756,-6.65953 17.914806,-15.52519 1.772857,-4.5074 7.055198,-22.98302 0.122762,-40.67702 -4.355724,-11.11733 -9.939434,-11.54669 -12.254594,-13.56527 3.645454,-0.81718 3.329102,-1.31217 5.940795,0.47483 3.730325,2.55241 9.134754,8.5527 11.415483,14.505 4.455809,11.62888 6.433454,19.3093 4.465898,34.38545 z"
         sodipodi:nodetypes="sscsscsss" /><path
         id="ellipse20"
         style="display:inline;fill:url(#radialGradient22);fill-rule:evenodd;stroke-width:1.7474;stroke-linecap:round;stroke-linejoin:round;paint-order:stroke fill markers"
         transform="matrix(0.84595467,-0.53325481,0.37664872,0.92635616,0,0)"
         d="m 51.766022,220.34935 c 0,20.62491 -8.877822,37.3447 -19.829169,37.3447 -5.475674,0 -10.370435,-4.50037 -13.958808,-11.25844 -0.897094,-1.68951 -1.998592,-4.22811 -2.587952,-6.45396 -0.58936,-2.22585 -1.157899,-4.43036 -2.965826,-6.45816 -3.3776771,-3.78844 -2.8025139,-8.52195 -2.8025139,-13.67817 0,-5.15623 0.7940149,-16.45778 6.3367819,-22.31888 0.62874,-0.66485 0.716022,-1.14132 1.660517,-1.28276 -0.297835,-0.9485 0.288997,-2.69976 1.672301,-4.57332 4.517654,-6.11877 7.169826,-8.66571 12.6455,-8.66571 10.951348,0 19.829169,16.71979 19.829169,37.3447 z"
         sodipodi:nodetypes="ssssssscsss" /></g><g
       id="rect33"
       style="display:inline;opacity:1"
       inkscape:label="bl"><path
         style="baseline-shift:baseline;display:inline;overflow:visible;vector-effect:none;fill:#bbbde2;fill-opacity:1;fill-rule:evenodd;stroke-linecap:square;paint-order:stroke fill markers;enable-background:accumulate;stop-color:#000000;stop-opacity:1"
         d="m 58.872875,114.61376 h 9.163004 l 0.945994,28.22843 13.359986,22.42643 0.676568,22.4196 c -3.342633,-0.49622 -4.494082,0.10315 -5.872623,0.58898 l -3.115229,-6.81298 -0.78663,-13.79878 -13.073275,-20.76185 -3.758871,-0.67766 -6.591215,0.17965 6.725473,0.54349 0.134259,10.18308 c 0,0 -3.004321,1.64212 -4.079508,2.81868 -1.444174,1.58033 -2.877126,5.44597 -2.877126,5.44597 l -0.78814,-18.98894 -0.107687,-5.89427 3.312445,-2.69245 6.732579,-0.14553 z"
         id="path35"
         sodipodi:nodetypes="cccccccccccccscccccc" /><path
         id="rect34"
         style="opacity:1;fill:#e5e4fe;fill-opacity:1;fill-rule:evenodd;stroke:none;stroke-width:0.836001;stroke-linecap:square;stroke-opacity:0.522012;paint-order:stroke fill markers"
         d="m 61.540533,143.6632 c 2.164075,-0.63246 5.043672,-1.34587 7.785892,-0.43661 l 13.051991,21.69433 c -1.573724,1.01649 -3.473598,1.12133 -6.23492,0.92835 z"
         sodipodi:nodetypes="ccccc" /><path
         style="baseline-shift:baseline;display:inline;overflow:visible;opacity:1;vector-effect:none;fill:#323349;fill-opacity:0.522012;fill-rule:evenodd;stroke-linecap:square;paint-order:stroke fill markers;enable-background:accumulate;stop-color:#000000;stop-opacity:1"
         d="m 58.445312,114.18555 v 23.02409 l -6.408143,0.17299 -3.642638,2.89081 0.113281,6.13672 1.12131,19.01099 0.319431,-0.63121 2.284689,-4.49891 4.365486,-3.27952 0.371975,-10.24784 2.9375,0.52735 12.902344,20.49023 0.728924,13.68351 3.62292,6.82324 c 2.057301,-0.63237 4.142668,-0.88583 6.296593,-0.21378 L 82.767578,165.14453 69.40625,142.7168 68.449219,114.18555 Z m 0.598192,0.70305 8.886322,-0.10291 0.626815,28.18111 13.361328,22.42578 1.151345,22.29219 c -3.443709,-0.48558 -4.484797,0.12095 -5.886112,0.56373 L 74.01229,181.70059 73.317547,167.80806 60.22582,146.7729 l -3.808189,-0.51293 -6.480399,-0.12904 c -0.578082,0.36311 -0.267056,0.38681 -0.152078,0.62392 l 6.646623,0.35735 -0.183732,9.67686 -4.051638,3.54138 -2.264155,3.92013 -0.980614,-17.79481 -0.103515,-6.06204 3.394123,-2.54578 6.595436,-0.1183 z"
         id="path34"
         sodipodi:nodetypes="cccccccccccccccccccccccccccccccccccccccc" /><path
         id="path44"
         style="display:inline;opacity:1;fill:#8e8abe;fill-opacity:0.722303;fill-rule:evenodd;stroke:none;stroke-width:0.802184;stroke-linecap:square;stroke-opacity:0.522012;paint-order:stroke fill markers"
         d="m 50.800959,146.9696 5.435315,0.0149 -0.235405,10.55565 c -3.405833,1.462 -3.117542,1.32799 -4.54667,3.8254 z"
         sodipodi:nodetypes="ccccc" /><path
         id="path36"
         style="display:inline;opacity:1;fill:#010007;fill-opacity:0.149095;fill-rule:evenodd;stroke:none;stroke-width:0.836001;stroke-linecap:square;stroke-opacity:0.522012;paint-order:stroke fill markers"
         d="m 76.232514,166.15241 c 2.894585,0.27396 3.811088,0.0484 5.537373,-0.51303 l 0.972373,21.76709 c -1.282649,-0.22057 -3.059814,-0.17085 -5.311754,0.36386 z"
         sodipodi:nodetypes="ccccc" /><path
         id="path45"
         style="display:inline;opacity:1;fill:#8e8abe;fill-opacity:0.722303;fill-rule:evenodd;stroke:none;stroke-width:0.802184;stroke-linecap:square;stroke-opacity:0.522012;paint-order:stroke fill markers"
         d="m 52.257222,137.70765 6.649556,-0.25852 -0.06197,-22.48701 1.247866,0.0713 -0.280277,24.30333 -1.444579,1.01731 c -3.611654,-0.18457 -6.570846,0.007 -9.02908,-0.0684 z"
         sodipodi:nodetypes="cccccccc" /></g><g
       id="rect45"
       style="display:inline;opacity:1"><path
         style="baseline-shift:baseline;display:inline;overflow:visible;vector-effect:none;fill:url(#radialGradient54);fill-rule:evenodd;stroke-linecap:square;paint-order:stroke fill markers;enable-background:accumulate;stop-color:#000000;stop-opacity:1"
         d="M 49.397089,114.84823 C 38.001736,68.108033 68.288854,39.366304 98.794176,22.22869 113.08042,14.202809 156.22007,12.623926 177.82952,31.902287 199.88438,51.578014 203.25334,90.737763 199.23493,97.970895 187.5198,96.732271 179.00144,91.497679 171.65489,84.798336 184.12045,-24.289266 64.524024,54.669249 73.683991,136.45946 c 0,0 -20.619314,-6.56792 -24.286902,-21.61123 z"
         id="path47"
         sodipodi:nodetypes="ssscccs" /><path
         style="baseline-shift:baseline;display:inline;overflow:visible;opacity:1;vector-effect:none;fill:url(#radialGradient49);fill-rule:evenodd;stroke-linecap:square;paint-order:stroke fill markers;enable-background:accumulate;stop-color:#000000;stop-opacity:1"
         d="M 72.243243,108.67359 C 80.887021,72.447968 101.96736,44.821742 124.83056,34.577962 127.97752,33.167978 152.49685,21.778273 173.7131,38.282744 195.86276,55.513336 202.01841,90.737763 198,97.970895 186.28487,96.732271 179.00144,91.497679 171.65489,84.798336 183.29717,-23.054339 64.524024,54.669249 73.683991,136.45946 l -2.313687,-1.27006 c -2.527623,-1.95316 -0.234307,-21.8754 0.872939,-26.51581 z"
         id="path48"
         sodipodi:nodetypes="sssccccs" /><path
         style="baseline-shift:baseline;display:inline;overflow:visible;opacity:1;vector-effect:none;fill:#323349;fill-opacity:0.522012;fill-rule:evenodd;stroke-linecap:square;paint-order:stroke fill markers;enable-background:accumulate;stop-color:#000000;stop-opacity:1"
         d="M 125.76722,15.322742 C 115.46424,15.946258 107.24043,16.576478 98.279297,21.236328 82.638046,29.369882 70.072765,40.048694 61.026164,56.165956 52.15203,71.975953 42.546916,91.472659 48.310547,115.11328 c 1.939127,7.9537 8.269916,13.52586 14.011719,17.12891 5.741802,3.60304 11.021484,5.2832 11.021484,5.2832 l 1.642578,0.52148 -0.191406,-1.71093 C 70.279265,96.015209 97.696267,56.090434 124.48438,40.007812 c 13.39405,-8.04131 26.37774,-10.047301 35.18359,-3.751953 8.80585,6.295349 13.97218,21.329347 10.87695,48.416016 l -0.0664,0.568359 0.42382,0.384766 c 7.45024,6.793895 16.22854,12.189737 28.21485,13.457031 l 0.73633,0.07813 0.35937,-0.646484 c 1.24445,-2.24 1.69484,-6.089502 1.60547,-11.185547 -0.0894,-5.096045 -0.82268,-11.361847 -2.38281,-18.021484 -3.12027,-13.31928 -9.6704,-29.035103 -21.884,-37.951118 C 161.01295,19.282233 141.4799,14.371841 125.76722,15.322742 Z m 0.11133,2.203125 c 16.60589,-1.080927 35.0985,3.226096 51.21129,15.214367 11.58047,8.616125 17.11894,24.060984 20.16797,37.076172 1.52452,6.507595 2.23806,12.63808 2.32422,17.550781 0.0775,4.417914 -0.46621,7.654157 -1.12695,9.314454 -10.74934,-1.358534 -18.69331,-6.127445 -25.63867,-12.375 C 175.79964,57.247036 170.71717,41.4067 160.96875,34.4375 151.14245,27.412626 137.13585,29.805653 123.33398,38.091797 96.128995,54.424699 68.796902,93.954259 72.457031,134.79102 70.804652,134.18724 67.651763,132.94681 63.509766,130.34766 58.025014,126.90591 52.210883,121.67359 50.482422,114.58398 44.8507,91.48441 54.901442,72.450921 62.903118,57.3808 71.320017,41.52866 83.908516,31.229861 99.310547,23.220703 c 8.700013,-4.524061 16.604473,-5.04628 26.568003,-5.694836 z"
         id="path46"
         sodipodi:nodetypes="ssssscccssccccccssssssssccsscsssss" /></g><g
       id="g75"
       inkscape:label="mic"
       transform="matrix(0.94130742,0,0,0.94130742,14.891913,11.650732)"
       style="display:none"><g
         id="g80"
         inkscape:label="sh"
         style="display:inline"
         transform="matrix(1.0623522,0,0,1.0623522,-15.820456,-12.377181)"><path
           id="rect75"
           style="fill:#000000;fill-opacity:0.101116;fill-rule:evenodd;stroke:none;stroke-width:2.10476;stroke-linecap:square;stroke-opacity:0.522012;paint-order:stroke fill markers"
           d="m 65.458319,202.09816 c 38.229051,17.58983 64.676341,31.73378 103.070231,16.46799 0,0 12.5015,-10.30789 18.01791,-10.36515 4.91686,-0.051 13.21583,1.45812 15.30554,5.9091 2.67751,5.70296 -1.8334,13.46155 -7.5559,17.33982 -7.12143,4.82637 -22.08647,3.58421 -22.08647,3.58421 -34.84031,10.84086 -69.39479,1.34185 -104.62016,-21.89274 z"
           sodipodi:nodetypes="ccsssccc" /><path
           id="path77"
           style="fill:#000000;fill-opacity:0.101116;fill-rule:evenodd;stroke:none;stroke-width:2.10476;stroke-linecap:square;stroke-opacity:0.522012;paint-order:stroke fill markers"
           d="m 65.458319,202.09816 c 38.229051,17.58983 64.676341,31.73378 103.070231,16.46799 0,0 14.43891,-8.17674 19.95532,-8.234 4.91686,-0.051 9.34101,1.07064 11.43072,5.52162 2.67751,5.70296 -2.84054,10.24605 -6.78094,13.27126 -5.50069,4.22312 -20.3428,4.35917 -20.3428,4.35917 -34.84031,10.84086 -69.97601,2.89178 -105.20138,-20.34281 z"
           sodipodi:nodetypes="ccssaccc" /><path
           id="path78"
           style="fill:#000000;fill-opacity:0.101116;fill-rule:evenodd;stroke:none;stroke-width:2.10476;stroke-linecap:square;stroke-opacity:0.522012;paint-order:stroke fill markers"
           d="m 65.458319,202.09816 c 38.229051,17.58983 64.482601,33.08997 102.876491,17.82418 0,0 14.63265,-9.53293 20.14906,-9.59019 4.91686,-0.051 8.63656,2.23309 9.49331,6.68407 1.19084,6.18666 -0.85637,7.83498 -5.81224,11.33385 -4.95586,3.49886 -20.3428,3.5842 -20.3428,3.5842 -34.84031,10.84086 -69.0073,4.44171 -104.23267,-18.79288 z"
           sodipodi:nodetypes="ccsszccc" /><path
           id="path79"
           style="fill:#000000;fill-opacity:0.101116;fill-rule:evenodd;stroke:none;stroke-width:2.10476;stroke-linecap:square;stroke-opacity:0.522012;paint-order:stroke fill markers"
           d="m 65.458319,202.09816 c 38.229051,17.58983 64.482601,33.08997 102.876491,17.82418 0,0 14.63265,-9.53293 20.14906,-9.59019 4.91686,-0.051 8.17549,2.05954 8.60284,6.95806 0.48558,5.56597 -4.9063,8.43282 -9.86217,11.93169 -4.95586,3.49886 -16.66172,2.03428 -16.66172,2.03428 -34.84031,10.84086 -67.74798,5.1198 -102.97335,-18.11479 z"
           sodipodi:nodetypes="ccsszccc" /><path
           id="path80"
           style="fill:#000000;fill-opacity:0.101116;fill-rule:evenodd;stroke:none;stroke-width:2.10476;stroke-linecap:square;stroke-opacity:0.522012;paint-order:stroke fill markers"
           d="m 65.458319,202.09816 c 38.229051,17.58983 64.482601,33.08997 102.876491,17.82418 0,0 14.63265,-9.53293 20.14906,-9.59019 4.91686,-0.051 7.95847,2.03935 8.81522,6.49033 1.19084,6.18666 -1.4376,6.47879 -6.39347,9.97766 -4.95586,3.49886 -20.92402,4.2623 -20.92402,4.2623 -31.35297,9.09719 -67.16676,5.31354 -102.39213,-17.92105 z"
           sodipodi:nodetypes="ccsszccc" /></g><path
         id="rect62"
         style="fill:url(#radialGradient64);fill-opacity:0.992157;fill-rule:evenodd;stroke:url(#radialGradient70);stroke-width:2.236;stroke-linecap:square;stroke-opacity:0.522012;paint-order:stroke fill markers"
         d="m 49.397091,196.76508 c -0.344453,0.59049 30.825711,19.57863 49.397089,25.93347 23.78675,8.13946 66.79241,0.3601 66.68607,-1.23493 7.36708,3.25884 5.94683,6.51767 -0.10291,9.7765 0,1.33096 -43.7083,9.52974 -66.994802,1.74948 -26.867625,-8.97675 -47.477036,-23.0875 -49.397089,-25.93347 -3.741752,-5.54615 -7.618901,-11.16615 0.411642,-10.29105 z"
         sodipodi:nodetypes="csccssc" /><ellipse
         style="fill:url(#linearGradient74);fill-opacity:0.992157;fill-rule:evenodd;stroke:none;stroke-width:2.236;stroke-linecap:square;stroke-linejoin:miter;stroke-dasharray:none;stroke-opacity:0.522012;paint-order:stroke fill markers"
         id="path63"
         cx="85.340149"
         cy="270.91174"
         rx="16.882359"
         ry="9.532711"
         transform="rotate(-21.055603)" /></g></g></svg>
