<?xml version="1.0" encoding="UTF-8" standalone="no"?>
<!-- Created with Inkscape (http://www.inkscape.org/) -->

<svg
   width="256mm"
   height="256mm"
   viewBox="0 0 256 256"
   version="1.1"
   id="svg1"
   inkscape:version="1.3.2 (091e20ef0f, 2023-11-25)"
   xml:space="preserve"
   sodipodi:docname="drive-harddisk-scsi-symbolic.svg"
   xmlns:inkscape="http://www.inkscape.org/namespaces/inkscape"
   xmlns:sodipodi="http://sodipodi.sourceforge.net/DTD/sodipodi-0.dtd"
   xmlns:xlink="http://www.w3.org/1999/xlink"
   xmlns="http://www.w3.org/2000/svg"
   xmlns:svg="http://www.w3.org/2000/svg"
   xmlns:rdf="http://www.w3.org/1999/02/22-rdf-syntax-ns#"
   xmlns:cc="http://creativecommons.org/ns#"
   xmlns:dc="http://purl.org/dc/elements/1.1/"><defs
     id="defs1"><linearGradient
       id="linearGradient112"
       inkscape:collect="always"><stop
         style="stop-color:#62666b;stop-opacity:1;"
         offset="0"
         id="stop111" /><stop
         style="stop-color:#d6d8db;stop-opacity:1;"
         offset="1"
         id="stop112" /></linearGradient><linearGradient
       id="linearGradient107"
       inkscape:collect="always"><stop
         style="stop-color:#c9c9c9;stop-opacity:1"
         offset="0"
         id="stop99" /><stop
         style="stop-color:#c9c9c9;stop-opacity:1"
         offset="0.91589206"
         id="stop100" /><stop
         style="stop-color:#aeaeb0;stop-opacity:1;"
         offset="0.93626177"
         id="stop101" /><stop
         style="stop-color:#9d9d9d;stop-opacity:1;"
         offset="0.95048851"
         id="stop102" /><stop
         style="stop-color:#70707f;stop-opacity:1;"
         offset="0.97265571"
         id="stop103" /><stop
         style="stop-color:#686873;stop-opacity:1;"
         offset="0.98323566"
         id="stop104" /><stop
         style="stop-color:#54545d;stop-opacity:1;"
         offset="1"
         id="stop107" /></linearGradient><linearGradient
       id="linearGradient73"
       inkscape:collect="always"><stop
         style="stop-color:#a6abb2;stop-opacity:1;"
         offset="0"
         id="stop79" /><stop
         style="stop-color:#d6d8db;stop-opacity:1;"
         offset="1"
         id="stop80" /></linearGradient><linearGradient
       id="linearGradient47"
       inkscape:collect="always"><stop
         style="stop-color:#3d393f;stop-opacity:1"
         offset="0"
         id="stop52" /><stop
         style="stop-color:#302c33;stop-opacity:1"
         offset="1"
         id="stop53" /></linearGradient><inkscape:path-effect
       effect="perspective-envelope"
       up_left_point="6.494751,58.816717"
       up_right_point="253.09259,58.816717"
       down_left_point="6.494751,195.88287"
       down_right_point="253.09259,195.88287"
       id="path-effect46"
       is_visible="true"
       lpeversion="1"
       deform_type="perspective"
       horizontal_mirror="false"
       vertical_mirror="false"
       overflow_perspective="false" /><linearGradient
       id="linearGradient48"
       inkscape:collect="always"><stop
         style="stop-color:#3e3a41;stop-opacity:1"
         offset="0"
         id="stop48" /><stop
         style="stop-color:#7f7f88;stop-opacity:1;"
         offset="0.5"
         id="stop50" /><stop
         style="stop-color:#b5b5c2;stop-opacity:1;"
         offset="1"
         id="stop49" /></linearGradient><linearGradient
       id="linearGradient41"
       inkscape:collect="always"><stop
         style="stop-color:#3e3a41;stop-opacity:1"
         offset="0"
         id="stop42" /><stop
         style="stop-color:#3c363f;stop-opacity:1"
         offset="1"
         id="stop43" /></linearGradient><linearGradient
       id="linearGradient33"
       inkscape:collect="always"><stop
         style="stop-color:#7a7a92;stop-opacity:1;"
         offset="0"
         id="stop33" /><stop
         style="stop-color:#acacc8;stop-opacity:1;"
         offset="0.11605406"
         id="stop40" /><stop
         style="stop-color:#a7a7bd;stop-opacity:1;"
         offset="0.19085623"
         id="stop41" /><stop
         style="stop-color:#71717e;stop-opacity:1;"
         offset="0.32973102"
         id="stop35" /><stop
         style="stop-color:#686879;stop-opacity:1;"
         offset="0.4458985"
         id="stop38" /><stop
         style="stop-color:#6e6e82;stop-opacity:1;"
         offset="0.56998158"
         id="stop39" /><stop
         style="stop-color:#7a7a91;stop-opacity:1"
         offset="0.64874643"
         id="stop36" /><stop
         style="stop-color:#aaaacd;stop-opacity:1"
         offset="0.87858027"
         id="stop37" /><stop
         style="stop-color:#c2c2f1;stop-opacity:1"
         offset="1"
         id="stop34" /></linearGradient><linearGradient
       id="linearGradient27"
       inkscape:collect="always"><stop
         style="stop-color:#eeeeee;stop-opacity:1"
         offset="0"
         id="stop28" /><stop
         style="stop-color:#d0d0d3;stop-opacity:1"
         offset="0.26728588"
         id="stop30" /><stop
         style="stop-color:#ffffff;stop-opacity:1"
         offset="0.47617084"
         id="stop31" /><stop
         style="stop-color:#d0d0d3;stop-opacity:1"
         offset="0.73808539"
         id="stop32" /><stop
         style="stop-color:#e2e2e9;stop-opacity:1"
         offset="1"
         id="stop29" /></linearGradient><linearGradient
       id="linearGradient14"
       inkscape:collect="always"><stop
         style="stop-color:#eeeeee;stop-opacity:1"
         offset="0"
         id="stop14" /><stop
         style="stop-color:#dfdfdf;stop-opacity:1"
         offset="0.32297277"
         id="stop16" /><stop
         style="stop-color:#c1c1c1;stop-opacity:1;"
         offset="0.43731418"
         id="stop18" /><stop
         style="stop-color:#bababc;stop-opacity:1;"
         offset="0.55927795"
         id="stop19" /><stop
         style="stop-color:#e2e1e8;stop-opacity:1"
         offset="0.70415044"
         id="stop17" /><stop
         style="stop-color:#b4b3cf;stop-opacity:1;"
         offset="1"
         id="stop15" /></linearGradient><radialGradient
       id="SVGID_path125302_1__3"
       gradientUnits="userSpaceOnUse"
       gradientTransform="matrix(0.017,0,0,-0.017,-110.605,-119.9735)"
       cx="2233.1721"
       cy="-328.13577"
       r="17925.004"
       fx="2233.1721"
       fy="-328.13577">
<stop
   offset="0%"
   style="stop-color:rgb(1,161,255);stop-opacity: 1"
   id="stop1" />
<stop
   offset="100%"
   style="stop-color:rgb(66,102,170);stop-opacity: 1"
   id="stop2-6" />
</radialGradient><linearGradient
       id="SVGID_linearGradient279_4"
       gradientUnits="userSpaceOnUse"
       gradientTransform="matrix(0.017,0,0,-0.017,-110.605,-119.9735)"
       x1="4032.1331"
       y1="1356.1727"
       x2="12738.493"
       y2="-21803.039">
<stop
   offset="0"
   style="stop-color:#1890ff;stop-opacity:1;"
   id="stop3-0" />
<stop
   offset="1"
   style="stop-color:#003984;stop-opacity:1;"
   id="stop4-6" />
</linearGradient><radialGradient
       id="SVGID_radialGradient10_5"
       gradientUnits="userSpaceOnUse"
       gradientTransform="matrix(2.363,1.326,-0.816,1.4535,-1537.3715,-2374.4585)"
       cx="896.6864"
       cy="705.14777"
       r="83.244499"
       fx="896.6864"
       fy="705.14777">
<stop
   offset="0%"
   style="stop-color:rgb(237,237,237);stop-opacity: 1"
   id="stop371" />
<stop
   offset="100%"
   style="stop-color:rgb(237,237,237);stop-opacity: 0"
   id="stop372" />
</radialGradient><radialGradient
       id="SVGID_radialGradient12_6"
       gradientUnits="userSpaceOnUse"
       gradientTransform="matrix(0.5185,-0.68,1.598,1.207,-2289.0835,-639.5435)"
       cx="739.13629"
       cy="1110.2391"
       r="131.2"
       fx="739.13629"
       fy="1110.2391">
<stop
   offset="0%"
   style="stop-color:rgb(0,109,0);stop-opacity: 1"
   id="stop373" />
<stop
   offset="25%"
   style="stop-color:rgb(0,116,0);stop-opacity: 0.89411765"
   id="stop374" />
<stop
   offset="61.164187999999996%"
   style="stop-color:rgb(0,161,0);stop-opacity: 0.79151291"
   id="stop375" />
<stop
   offset="100%"
   style="stop-color:rgb(0,186,0);stop-opacity: 0"
   id="stop376" />
</radialGradient><radialGradient
       id="SVGID_radialGradient16_7"
       gradientUnits="userSpaceOnUse"
       gradientTransform="matrix(1.037,0.442,-0.8245,1.9465,-258.0775,-1931.0125)"
       cx="749.99298"
       cy="777.77173"
       r="128.9615"
       fx="749.99298"
       fy="777.77173">
<stop
   offset="0%"
   style="stop-color:rgb(0,168,0);stop-opacity: 1"
   id="stop377" />
<stop
   offset="12.5%"
   style="stop-color:rgb(0,170,0);stop-opacity: 1"
   id="stop378" />
<stop
   offset="32.941052%"
   style="stop-color:rgb(0,173,0);stop-opacity: 1"
   id="stop379" />
<stop
   offset="48.928455%"
   style="stop-color:rgb(0,179,0);stop-opacity: 0.49803922"
   id="stop380" />
<stop
   offset="100%"
   style="stop-color:rgb(0,190,0);stop-opacity: 0"
   id="stop381" />
</radialGradient><linearGradient
       id="SVGID_linearGradient282_10"
       gradientUnits="userSpaceOnUse"
       x1="895.25104"
       y1="859.62811"
       x2="1216.1501"
       y2="1038.5518"
       gradientTransform="matrix(0.85,0,0,0.85,-765.802,-764.1885)">
<stop
   offset="0%"
   style="stop-color:rgb(0,237,0);stop-opacity: 0"
   id="stop389" />
<stop
   offset="100%"
   style="stop-color:rgb(0,133,0);stop-opacity: 1"
   id="stop390" />
</linearGradient><radialGradient
       id="SVGID_polygon8_1__12"
       gradientUnits="userSpaceOnUse"
       gradientTransform="matrix(0.017,0,0,-0.017,-108.8495,-131.8565)"
       cx="7553.0029"
       cy="-7131.8633"
       r="16567.537"
       fx="7553.0029"
       fy="-7131.8633">
<stop
   offset="0%"
   style="stop-color:rgb(1,1,255);stop-opacity: 1"
   id="stop395" />
<stop
   offset="100%"
   style="stop-color:rgb(0,0,128);stop-opacity: 1"
   id="stop396" />
</radialGradient><radialGradient
       id="SVGID_radialGradient25_9"
       gradientUnits="userSpaceOnUse"
       gradientTransform="matrix(0.90389443,-0.10145356,0.10444941,0.9245093,-877.03325,-748.53182)"
       cx="819.43304"
       cy="718.97656"
       r="284.62247"
       fx="819.43304"
       fy="718.97656">
<stop
   offset="0%"
   style="stop-color:rgb(255,255,255);stop-opacity: 0.95940959"
   id="stop384" />
<stop
   offset="0.20281267"
   style="stop-color:#effaff;stop-opacity:0.66697419;"
   id="stop385" />
<stop
   offset="0.31218511"
   style="stop-color:#e0f5ff;stop-opacity:0.61254615;"
   id="stop386" />
<stop
   offset="0.5"
   style="stop-color:#d8f0ff;stop-opacity:0.44557196;"
   id="stop387" />
<stop
   offset="100%"
   style="stop-color:rgb(255,255,255);stop-opacity: 0"
   id="stop388" />
</radialGradient><radialGradient
       id="SVGID_radialGradient21_11"
       gradientUnits="userSpaceOnUse"
       gradientTransform="matrix(2.4465617,-0.13478003,0.05000968,0.91937032,-2578.4314,-678.43373)"
       cx="1123.8925"
       cy="1044.1923"
       r="147.22652"
       fx="1123.8925"
       fy="1044.1923">
<stop
   offset="0%"
   style="stop-color:rgb(0,106,0);stop-opacity: 1"
   id="stop391" />
<stop
   offset="25%"
   style="stop-color:rgb(0,131,0);stop-opacity: 1"
   id="stop392" />
<stop
   offset="0.703861"
   style="stop-color:#009d00;stop-opacity:1;"
   id="stop393" />
<stop
   offset="1"
   style="stop-color:#b4b4b4;stop-opacity:0;"
   id="stop394" />
</radialGradient><radialGradient
       id="SVGID_radialGradient279_13"
       gradientUnits="userSpaceOnUse"
       cx="643.51404"
       cy="1173.4269"
       r="348.30591"
       fx="643.51404"
       fy="1173.4269"
       gradientTransform="matrix(0.85,0,0,0.85,-765.8225,-764.113)">
<stop
   offset="0%"
   style="stop-color:rgb(255,255,255);stop-opacity: 0.25738007"
   id="stop397" />
<stop
   offset="100%"
   style="stop-color:rgb(255,255,255);stop-opacity: 0"
   id="stop398" />
</radialGradient><linearGradient
       id="linearGradient2849"><stop
         id="stop2851"
         offset="0.0000000"
         style="stop-color:#858584;stop-opacity:1.0000000;" /><stop
         id="stop2853"
         offset="1.0000000"
         style="stop-color:#858584;stop-opacity:0.0000000;" /></linearGradient><linearGradient
       inkscape:collect="always"
       xlink:href="#linearGradient47"
       id="linearGradient53"
       x1="40.968838"
       y1="129.4921"
       x2="200.37669"
       y2="129.62573"
       gradientUnits="userSpaceOnUse" /><linearGradient
       inkscape:collect="always"
       xlink:href="#linearGradient33"
       id="linearGradient67"
       gradientUnits="userSpaceOnUse"
       x1="160.07062"
       y1="91.049187"
       x2="242.47173"
       y2="135.97693" /><linearGradient
       inkscape:collect="always"
       xlink:href="#linearGradient48"
       id="linearGradient68"
       gradientUnits="userSpaceOnUse"
       x1="139.02655"
       y1="142.11989"
       x2="212.58626"
       y2="139.56854" /><linearGradient
       inkscape:collect="always"
       xlink:href="#linearGradient41"
       id="linearGradient71"
       gradientUnits="userSpaceOnUse"
       x1="140.55373"
       y1="137.4445"
       x2="219.86087"
       y2="135.46013" /><linearGradient
       inkscape:collect="always"
       xlink:href="#linearGradient73"
       id="linearGradient81"
       x1="39.687504"
       y1="72.098953"
       x2="44.223217"
       y2="72.098953"
       gradientUnits="userSpaceOnUse" /><linearGradient
       inkscape:collect="always"
       xlink:href="#linearGradient112"
       id="linearGradient83"
       gradientUnits="userSpaceOnUse"
       x1="42.83408"
       y1="71.42205"
       x2="38.113892"
       y2="70.957306"
       gradientTransform="matrix(-1,0,0,1,241.64675,0.56696429)" /><linearGradient
       inkscape:collect="always"
       xlink:href="#linearGradient14"
       id="linearGradient98"
       gradientUnits="userSpaceOnUse"
       x1="30.805061"
       y1="89.769348"
       x2="228.29761"
       y2="96.383926" /><linearGradient
       inkscape:collect="always"
       xlink:href="#linearGradient27"
       id="linearGradient99"
       gradientUnits="userSpaceOnUse"
       x1="48.149368"
       y1="78.978981"
       x2="196.16965"
       y2="86.556549" /><radialGradient
       inkscape:collect="always"
       xlink:href="#linearGradient107"
       id="radialGradient99"
       gradientUnits="userSpaceOnUse"
       gradientTransform="matrix(1.3157705,0.58487394,-0.50854896,0.56960195,-164.8425,124.4657)"
       cx="104.32749"
       cy="-240.1207"
       fx="104.32749"
       fy="-240.1207"
       r="86.357172" /><linearGradient
       inkscape:collect="always"
       xlink:href="#linearGradient25"
       id="linearGradient10"
       x1="165.87614"
       y1="49.011925"
       x2="142.18738"
       y2="72.162773"
       gradientUnits="userSpaceOnUse" /><linearGradient
       id="linearGradient25"
       inkscape:collect="always"><stop
         style="stop-color:#ffffff;stop-opacity:1;"
         offset="0"
         id="stop22-4" /><stop
         style="stop-color:#c0c0c0;stop-opacity:1;"
         offset="0.35581324"
         id="stop23-8" /><stop
         style="stop-color:#696969;stop-opacity:1;"
         offset="0.69336647"
         id="stop24-7" /><stop
         style="stop-color:#4c4c4c;stop-opacity:1;"
         offset="1"
         id="stop25-1" /></linearGradient><linearGradient
       inkscape:collect="always"
       xlink:href="#linearGradient25"
       id="linearGradient12-9"
       gradientUnits="userSpaceOnUse"
       x1="165.90692"
       y1="49.567539"
       x2="141.28706"
       y2="75.646545"
       gradientTransform="rotate(-89.421557,131.88417,101.62179)" /><linearGradient
       inkscape:collect="always"
       xlink:href="#linearGradient25"
       id="linearGradient13"
       gradientUnits="userSpaceOnUse"
       gradientTransform="rotate(179.83199,124.79377,119.02358)"
       x1="167.19254"
       y1="47.556229"
       x2="142.18738"
       y2="72.162773" /><linearGradient
       inkscape:collect="always"
       xlink:href="#linearGradient25"
       id="linearGradient14-7"
       gradientUnits="userSpaceOnUse"
       gradientTransform="matrix(0.9999957,0.00293232,0.00293232,-0.9999957,0.64086012,256.12232)"
       x1="163.88095"
       y1="49.604095"
       x2="142.18738"
       y2="72.162773" /><linearGradient
       inkscape:collect="always"
       xlink:href="#linearGradient4-0"
       id="linearGradient5-5"
       x1="188.60414"
       y1="115.46043"
       x2="188.60414"
       y2="140.58376"
       gradientUnits="userSpaceOnUse" /><linearGradient
       id="linearGradient4-0"
       inkscape:collect="always"><stop
         style="stop-color:#ffffff;stop-opacity:1;"
         offset="0"
         id="stop4-9" /><stop
         style="stop-color:#c0c0c0;stop-opacity:1;"
         offset="0.3191489"
         id="stop6-1" /><stop
         style="stop-color:#7f7f7f;stop-opacity:1;"
         offset="0.61170208"
         id="stop7-77" /><stop
         style="stop-color:#676767;stop-opacity:1;"
         offset="0.80585104"
         id="stop8-1" /><stop
         style="stop-color:#757575;stop-opacity:1;"
         offset="1"
         id="stop5-1" /></linearGradient></defs><sodipodi:namedview
     id="base"
     pagecolor="#ffffff"
     bordercolor="#000000"
     borderopacity="0.3"
     inkscape:pageopacity="0.0"
     inkscape:pageshadow="2"
     inkscape:zoom="0.98994949"
     inkscape:cx="505.07627"
     inkscape:cy="476.792"
     inkscape:document-units="mm"
     inkscape:showpageshadow="2"
     inkscape:pagecheckerboard="0"
     inkscape:deskcolor="#d1d1d1"
     inkscape:current-layer="svg1"
     showguides="true"><sodipodi:guide
       position="132.29166,225.00595"
       orientation="0,-1"
       id="guide73"
       inkscape:locked="false" /></sodipodi:namedview><metadata
     id="metadata1"><rdf:RDF><cc:Work
         rdf:about=""><dc:format>image/svg+xml</dc:format><dc:type
           rdf:resource="http://purl.org/dc/dcmitype/StillImage" /><cc:license
           rdf:resource="http://creativecommons.org/publicdomain/zero/1.0/" /></cc:Work><cc:License
         rdf:about="http://creativecommons.org/publicdomain/zero/1.0/"><cc:permits
           rdf:resource="http://creativecommons.org/ns#Reproduction" /><cc:permits
           rdf:resource="http://creativecommons.org/ns#Distribution" /><cc:permits
           rdf:resource="http://creativecommons.org/ns#DerivativeWorks" /></cc:License></rdf:RDF></metadata><g
     id="g120"><path
       id="rect51"
       style="display:inline;fill:#545455;fill-opacity:0.1983;stroke-width:3.16478;stroke-linecap:round"
       d="M 44.95925,50.238377 224.76633,40.0071 c 5.06454,1.402064 19.78257,14.780043 20.6768,26.080857 5.22442,66.023883 5.7804,82.348143 8.61663,151.597913 0.31263,7.63331 -8.73304,26.93246 -19.94053,32.52219 -12.03747,6.00368 -53.00813,3.54763 -83.82584,4.03184 -30.81769,0.48421 -94.432962,0.87519 -94.432962,0.87519 C 34.99207,254.89787 19.86553,242.31522 17.546405,229.85331 15.42799,219.36131 45.996224,60.707651 44.95925,50.238377 Z"
       sodipodi:nodetypes="ccssszccc" /><path
       id="path117"
       style="display:inline;fill:#545455;fill-opacity:0.1983;stroke-width:3.16478;stroke-linecap:round"
       d="M 44.95925,50.238377 224.76633,40.0071 c 5.06454,1.402064 15.43584,15.347007 16.33007,26.647821 5.22442,66.023879 4.83546,81.875679 7.67169,151.125449 0.31263,7.63331 -8.49973,25.84655 -20.88547,27.70299 -56.78495,8.51122 -114.35185,4.72861 -172.589156,5.09602 C 34.425106,250.36216 22.88934,242.31522 20.570215,229.85331 18.4518,219.36131 45.996224,60.707651 44.95925,50.238377 Z"
       sodipodi:nodetypes="ccsssccc" /><path
       id="path118"
       style="display:inline;fill:#545455;fill-opacity:0.1983;stroke-width:3.16478;stroke-linecap:round"
       d="m 44.95925,50.238377 176.21631,-8.530384 c 5.06454,1.402064 14.4909,12.701174 15.38513,24.001988 5.22442,66.023879 6.06388,81.970169 8.90011,151.219939 0.31263,7.63331 -8.02726,21.9723 -20.413,23.82874 -56.78495,8.51122 -108.49322,4.53962 -166.730526,4.90703 C 37.448916,245.44847 26.291126,242.88218 23.972001,230.42027 21.853586,219.92827 45.996224,60.707651 44.95925,50.238377 Z"
       sodipodi:nodetypes="ccsssccc" /><path
       id="path119"
       style="display:inline;fill:#545455;fill-opacity:0.1983;stroke-width:3.16478;stroke-linecap:round"
       d="m 44.95925,50.238377 176.34994,-4.521341 c 5.06454,1.402064 10.6155,8.692131 11.50973,19.992945 5.22442,66.023879 6.93725,82.371069 9.77348,151.620839 0.31263,7.63331 -7.16338,16.62691 -19.54912,18.48335 -56.78495,8.51122 -98.36221,4.75941 -156.599518,5.12682 C 45.575404,240.72377 30.259876,242.88218 27.940751,230.42027 25.822336,219.92827 45.996224,60.707651 44.95925,50.238377 Z"
       sodipodi:nodetypes="ccsssccc" /><path
       id="path120"
       style="display:inline;fill:#545455;fill-opacity:0.1983;stroke-width:3.16478;stroke-linecap:round"
       d="m 44.95925,50.238377 175.31051,-0.552591 c 5.06454,1.402064 7.04767,5.063146 8.48592,16.307677 7.58677,59.314797 7.99568,77.055797 10.17045,146.683547 0.2385,7.63598 -3.36348,17.80622 -21.09461,20.46446 -56.78466,8.51315 -91.27956,1.28491 -149.516871,1.65232 C 47.446291,234.57657 36.407075,236.06681 34.08795,223.6049 31.969535,213.1129 45.996224,60.707651 44.95925,50.238377 Z"
       sodipodi:nodetypes="ccsssccc" /></g><g
     id="rect46"
     transform="matrix(1.375988,0,0,1.375988,-46.693237,13.971266)"><path
       style="color:#000000;fill:#8e9192;stroke-linecap:round;stroke-linejoin:round;-inkscape-stroke:none"
       d="M 45.83418,107.11441 198.314,105.83874 c 2.01899,8.01808 1.70752,10.38752 1.80371,23.58653 0.0962,13.19901 0.16359,15.7689 -1.80371,23.72017 H 42.763123 c -2.217243,-8.1744 -0.880283,-10.28469 -1.174099,-22.05425 -0.293816,-11.76957 2.936957,-15.47432 4.245156,-23.97678 z"
       id="path71"
       sodipodi:nodetypes="ccsccsc" /><path
       id="path57"
       style="display:inline;fill:url(#linearGradient67);stroke-width:7.2;stroke-linecap:round;stroke-linejoin:round"
       d="M 129.11786,135.84199 242.66071,96.950882 c 1.18155,13.670138 2.67343,32.551368 0.88563,46.221508 l -115.92193,38.67395 c -2.92021,-14.79287 0.36121,-41.64299 1.49345,-46.00435 z"
       sodipodi:nodetypes="ccccc"
       transform="matrix(1.3427472,0.33445932,-0.02822845,0.99318966,-124.48655,-71.205026)" /><g
       id="g65"
       style="display:inline"
       transform="matrix(1.3427472,0.33445932,-0.02822845,0.99318966,-124.48655,-71.205026)"
       inkscape:label="front"><path
         style="color:#000000;display:inline;fill:url(#linearGradient68);stroke-linecap:round;-inkscape-stroke:none"
         d="m 135.27584,138.88398 83.71812,-27.80009 0.64521,32.97425 -83.84262,28.26863 z"
         id="path59"
         sodipodi:nodetypes="ccccc" /><path
         style="color:#000000;fill:url(#linearGradient71);stroke-linecap:round;-inkscape-stroke:none"
         d="m 220.13805,109.08941 -86.02477,28.96918 0.55859,35.93555 86.11611,-29.14816 z m -2.29625,3.58832 -0.008,2.00198 -24.79325,8.38431 0.4574,25.95665 24.99876,-8.25397 -0.008,2.50311 c 0,0 -9.42105,3.30946 -22.58846,7.74363 -13.16741,4.43416 -35.46893,9.60949 -59.09645,8.91485 l -0.3648,-20.21931 z"
         id="path65"
         sodipodi:nodetypes="ccccccccccczccc" /></g><g
       id="g86"><path
         id="rect73"
         style="fill:url(#linearGradient81);stroke-width:3.4;stroke-linecap:round;stroke-linejoin:round"
         inkscape:label="r1"
         d="M 45.18193,31.561011 C 45.797609,24.7637 46.269544,17.914118 49.575904,12.095237 l -4.879067,93.023393 -5.503583,28.59784 z"
         sodipodi:nodetypes="ccccc" /><path
         id="path83"
         style="fill:url(#linearGradient83);stroke-width:3.4;stroke-linecap:round;stroke-linejoin:round"
         inkscape:label="l1"
         d="m 195.83191,31.125714 c -0.32568,-9.498045 -2.29642,-14.820202 -4.92851,-18.463513 l 6.04652,93.023389 c 3.39074,12.29166 2.13438,22.2878 3.80744,35.61006 7.8627,-11.10181 -4.68996,-71.568046 -4.92545,-110.169936 z"
         sodipodi:nodetypes="ccccc" /></g><g
       id="g98"
       inkscape:label="top"
       style="display:inline"
       transform="matrix(0.63349923,0.36747992,-1.7003041,1.08494,195.28364,-90.805878)"><path
         id="path88"
         style="display:inline;fill:url(#linearGradient98);stroke-width:7.2;stroke-linecap:round;stroke-linejoin:round"
         d="M 131.41133,51.552548 253.69983,92.940057 130.02295,136.08971 13.367416,89.812441 Z"
         sodipodi:nodetypes="ccccc" /><g
         id="g92"
         inkscape:label="screw"
         transform="matrix(1,-0.06898603,0,1,0,8.6781113)"><ellipse
           style="fill:#494950;fill-opacity:1;stroke:none;stroke-width:3.4;stroke-linecap:round;stroke-linejoin:round;stroke-dasharray:none;stroke-opacity:1"
           id="path108"
           cx="62.885788"
           cy="95.486237"
           rx="5.3741202"
           ry="3.2359641"
           transform="matrix(0.8268501,-0.22302121,1.2958289,0.57219398,-43.801415,86.832858)" /><path
           id="rect110"
           style="fill:#000000;fill-opacity:1;stroke:none;stroke-width:3.4;stroke-linecap:round;stroke-linejoin:round;stroke-dasharray:none;stroke-opacity:1"
           d="m 61.095432,93.744172 0.779002,1.363528 -1.798386,1.027443 0.646293,1.13124 1.798386,-1.027443 0.795449,1.392313 1.276439,-0.729247 -0.795449,-1.392314 1.827214,-1.043913 -0.646293,-1.131239 -1.827214,1.043913 -0.779003,-1.363529 z"
           sodipodi:nodetypes="ccccccccccccc"
           transform="matrix(0.8268501,-0.22302121,1.2958289,0.57219398,-43.801415,86.832858)" /></g><g
         id="g111"
         inkscape:label="screw"
         transform="matrix(1,-0.06898603,0,1,98.783349,-24.780788)"
         style="display:inline"><ellipse
           style="fill:#494950;fill-opacity:1;stroke:none;stroke-width:3.4;stroke-linecap:round;stroke-linejoin:round;stroke-dasharray:none;stroke-opacity:1"
           id="ellipse111"
           cx="62.885788"
           cy="95.486237"
           rx="5.3741202"
           ry="3.2359641"
           transform="matrix(0.8268501,-0.22302121,1.2958289,0.57219398,-43.801415,86.832858)" /><path
           id="path111"
           style="fill:#000000;fill-opacity:1;stroke:none;stroke-width:3.4;stroke-linecap:round;stroke-linejoin:round;stroke-dasharray:none;stroke-opacity:1"
           d="m 61.095432,93.744172 0.779002,1.363528 -1.798386,1.027443 0.646293,1.13124 1.798386,-1.027443 0.795449,1.392313 1.276439,-0.729247 -0.795449,-1.392314 1.827214,-1.043913 -0.646293,-1.131239 -1.827214,1.043913 -0.779003,-1.363529 z"
           sodipodi:nodetypes="ccccccccccccc"
           transform="matrix(0.8268501,-0.22302121,1.2958289,0.57219398,-43.801415,86.832858)" /></g><g
         id="g97"><path
           id="path95"
           style="fill:url(#linearGradient99);stroke-width:7.2;stroke-linecap:round;stroke-linejoin:round"
           d="m 128.10558,52.599373 5.5736,-0.290872 88.92128,29.649025 C 211.49543,130.45883 75.379071,110.04112 42.103104,81.358003 Z"
           sodipodi:nodetypes="ccccc" /><path
           id="path96"
           style="fill:url(#radialGradient99);stroke-width:7.2;stroke-linecap:round;stroke-linejoin:round"
           d="M 36.003609,83.032015 C 123.51611,121.4712 218.26892,106.61877 219.65928,80.568309 l 9.54127,3.359888 C 205.92036,127.74729 87.978752,112.89486 31.852746,84.202802 Z"
           sodipodi:nodetypes="ccccc" /><path
           id="rect99"
           style="stroke-width:3.4;stroke-linecap:round;stroke-linejoin:round"
           transform="matrix(0.8268501,-0.28006232,1.2958289,0.48279988,-43.801415,98.532655)"
           d="m 70.600828,16.725447 40.146202,0 3.21279,14.646577 -45.059885,0 z"
           sodipodi:nodetypes="ccccc" /></g></g><path
       id="path72"
       style="color:#000000;fill:url(#linearGradient53);stroke-linecap:round;stroke-linejoin:round;-inkscape-stroke:none"
       d="m 48.67158,10.73149 c -0.839545,-6.31e-4 -1.561295,1.810265 -2.248515,3.5632 -0.68722,1.752935 -2.829963,5.266366 -3.675553,17.730915 -0.377869,19.881279 -5.81039,79.317655 -6.099533,99.608085 0.579483,4.85561 2.014654,14.1645 3.205562,19.01594 1.142911,1.97958 2.944379,4.19622 5.248865,4.19622 H 193.90456 c 5.01959,0.317 6.47649,-1.6533 7.12958,-5.03317 1.98996,-8.04292 3.16521,-16.8839 3.67999,-21.37996 -0.24117,-18.57567 -6.70251,-76.59869 -7.35188,-97.038706 -0.74387,-9.195224 -1.61336,-16.187906 -3.67703,-19.405008 -0.19016,-0.755452 -1.76715,-1.190562 -2.54617,-1.190699 z m 3.26446,3.528031 136.90045,-0.110292 5.27709,88.276931 -148.660093,1.14095 z m -2.546681,-0.140414 -5.728487,90.170253 c -1.166473,6.46657 -3.646603,16.78407 -4.279501,29.11998 L 45.83101,31.871897 c 0.50746,-6.10102 1.938983,-13.257857 3.558349,-17.75279 z m 142.111771,0.38137 c 1.94827,1.154507 2.8372,7.471631 3.36847,16.404215 l 7.17678,77.879378 c -0.51767,2.25537 -1.12372,2.87061 -1.30245,3.17826 -0.54831,-2.75232 -1.01671,-4.28617 -1.32384,-6.24342 z M 45.47408,107.53917 h 151.46945 c 1.59985,6.77559 1.38399,9.50521 1.47433,21.89841 0.0449,6.15967 0.0537,13.99558 -0.14482,17.1201 -0.19849,3.12452 -1.53969,4.74486 -4.86292,4.88786 H 46.416383 c -2.426758,-0.1328 -3.279187,-1.19411 -3.261911,-3.75746 0.01976,-2.9315 0.282933,-10.68764 0.134359,-16.63923 -0.274322,-10.98867 1.106996,-16.02224 2.185249,-23.50968 z"
       sodipodi:nodetypes="czcccccccccccccccccccccccccccccssccssc"
       inkscape:label="frame" /><path
       id="rect86"
       style="fill:#f6fbff;stroke-width:3.4;stroke-linecap:round;stroke-linejoin:round"
       d="m 49.310419,13.917585 c 1.625437,-5.4273443 2.065909,-1.819335 2.734765,0.04725 l -5.406652,89.602105 c -0.600629,1.73289 -0.558744,4.15773 -3.34087,3.54132 z"
       sodipodi:nodetypes="ccccc" /></g><g
     id="g24"
     transform="matrix(0.59975635,0,0,0.59975635,53.37764,3.7263976)"><g
       id="rect1-73"
       style="display:inline"
       transform="matrix(1.0127777,0,0,1.0127777,-2.9794055,-2.1720304)"
       inkscape:label="scsiv2"><path
         style="color:#000000;fill:#c0c0c0;stroke-linejoin:bevel;-inkscape-stroke:none"
         d="m 132.56569,11.759856 73.56593,70.826425 0.33409,13.096207 -45.30218,-0.267269 -29.26602,-31.337353 -55.458426,57.930664 -0.801808,10.28987 58.732484,57.73023 28.53102,-29.13238 42.56267,0.66817 -0.63477,12.49485 -71.99573,69.15599 -111.718658,-109.24641 0.267269,-11.96032 z"
         id="path8-6" /><g
         id="g14"><path
           id="rect8-5"
           style="display:inline;fill:url(#linearGradient10);stroke-width:6.00001;stroke-linejoin:bevel"
           d="m 132.71946,13.047569 72.67717,69.805984 0.13363,12.294399 -43.8322,-0.80181 L 132.077,63.734284 Z"
           sodipodi:nodetypes="cccccc" /><path
           id="path12"
           style="display:inline;fill:url(#linearGradient12-9);stroke-width:6.00001;stroke-linejoin:bevel"
           d="M 22.210427,121.43636 132.67426,12.984043 l -0.39383,51.003421 -55.012333,57.845846 -1.558428,5.99555 -53.443165,-0.45673 z"
           sodipodi:nodetypes="ccccccc" /><path
           id="path13-6"
           style="display:inline;fill:url(#linearGradient13);stroke-width:6.00001;stroke-linejoin:bevel"
           d="M 132.76787,244.02148 22.44802,133.91459 l -0.102859,-6.54766 53.589697,0.005 0.11025,4.36756 57.877782,58.84958 z"
           sodipodi:nodetypes="ccccccc" /><path
           id="path14-3"
           style="display:inline;fill:url(#linearGradient14-7);stroke-width:6.00001;stroke-linejoin:bevel"
           d="m 132.64457,243.65876 73.63501,-69.78738 0.16967,-12.29395 -43.83436,0.67328 -28.76298,27.97574 z"
           sodipodi:nodetypes="cccccc" /></g><path
         style="color:#000000;fill:#000000;stroke-linejoin:bevel;-inkscape-stroke:none"
         d="m 133.98828,3.6014648 -2.86523,0.02149 -119.827583,116.9297852 -0.605469,1.41016 -0.267578,11.96093 0.617188,1.50976 120.360782,115.5957 2.85352,0.0117 78.32524,-75.5039 0.6289,-1.37305 -0.12118,-12.49609 -1.25968,-2.15235 -48.8936,-0.66992 -1.49804,0.61524 -27.09375,27.66601 -56.585941,-55.62109 0.669922,-8.60742 53.453129,-55.835935 27.78711,29.751953 1.48632,0.650391 48.50801,0.267578 3.26522,-2.235198 0.0669,-13.632195 -0.62891,-1.423828 z M 132.58789,14.625 l 71.51563,68.855469 0.25781,10.140625 -42.30274,-0.25 -28.66211,-30.69336 -2.98046,-0.01758 -55.457036,57.931646 -0.564453,1.25781 -0.800781,10.28906 0.607422,1.6211 58.732418,57.73046 2.90039,-0.0273 27.91602,-28.50391 39.55859,0.6211 -0.48632,9.56445 -69.97657,67.2168 L 23.183594,133.125 23.412109,122.88086 Z"
         id="path9-9"
         sodipodi:nodetypes="cccccccccccccccccccccccccccccccccccccccccccc" /><path
         id="rect2-4"
         style="display:inline;fill:url(#linearGradient5-5);stroke:#000000;stroke-width:6;stroke-linecap:square;stroke-dasharray:none"
         d="m 140.04924,115.19317 h 96.21703 v 25.65787 h -96.21703 z"
         sodipodi:nodetypes="ccccc" /></g><g
       id="g29"
       inkscape:label="scsi1"
       style="display:none"><path
         id="rect25"
         style="display:inline;fill:#ffffff;fill-opacity:1;stroke:none;stroke-width:6.00001;stroke-linecap:butt;stroke-linejoin:bevel;stroke-dasharray:none;stroke-opacity:1"
         d="m 127.10542,16.479097 v 7.931816 h -7.77575 v 7.924581 h -7.92665 v 7.995894 h -8.12664 v 7.764384 h -7.860499 v 7.929232 h -8.197432 l 0.02362,8.090979 h -7.737365 l -0.04725,8.04292 h -7.924875 v 7.716842 H 63.74546 v 7.928198 h -7.993827 v 7.91838 h -7.947319 v 8.092017 H 39.95208 v 7.90649 h -7.932332 v 8.06307 h -8.153791 v 15.91634 h 8.139322 v 7.90391 h 7.83363 v 7.96541 h 7.871354 v 7.95662 h 7.984526 v 8.10752 h 7.892024 v 7.75198 h 7.831564 v 8.0238 h 8.230505 v 7.98504 h 7.857402 v 7.88996 h 7.885306 v 7.99434 h 7.87394 v 7.88841 h 7.90081 v 8.00106 h 7.9158 v 7.97987 h 7.95455 v 7.90702 h 8.20932 v -8.0853 h 7.99848 v -8.07599 h 7.89254 v -7.97523 h 7.95197 v -7.90442 h 7.88737 v -7.80056 h 7.95662 v -8.04137 h 7.88531 v -8.01811 h 7.91373 v -7.89926 h 7.8481 v -8.16591 h -8.00933 v 7.89977 h -7.84759 v 8.0176 h -7.91373 v 8.04189 h -7.88582 v 7.80004 h -7.9561 v 7.90494 h -7.88789 v 7.97523 h -7.95197 v 8.07599 h -7.89203 v 8.08529 h -8.14472 v -7.90752 h -7.91528 v -7.97936 h -7.90081 v -8.00106 h -7.87394 v -7.88893 H 95.5151 v -7.99383 h -7.856885 v -7.89047 h -7.923547 v -7.98453 H 71.59563 v -7.77368 h -7.892025 v -8.0021 H 55.71908 v -8.10751 h -7.871355 v -7.95662 h -7.83363 v -7.96593 h -7.905461 v -15.5515 h 8.087362 v -7.90701 h 7.764901 v -8.0915 h 7.85275 v -7.918894 h 7.994345 v -7.927682 h 7.946801 v -7.716841 h 8.023283 v -8.043437 h 7.901327 v -8.090979 h 7.878589 v -7.929232 h 7.867218 v -7.763867 h 8.04396 v -7.996411 h 7.94266 v -7.924064 h 7.92717 v -7.932332 h 7.398 v 7.83208 h 8.14058 v 7.873421 h 7.79333 v 7.890474 h 8.0176 v 7.945769 h 7.72924 v 7.99331 h 8.07031 v 7.83363 h 8.07444 v 7.96799 H 190.5 v 8.084187 h 8.40982 v -8.456775 h -7.9375 v -7.65948 h -8.07392 v -7.967989 h -8.07083 v -7.833114 h -7.72924 v -8.194332 h -8.0176 v -7.745264 h -7.99331 v -7.890474 h -7.9406 v -7.873421 h -8.03207 v -7.965406 z m 14.0131,100.585073 v 11.22516 h 93.00982 v -11.22516 z"
         inkscape:label="white"
         sodipodi:nodetypes="cccccccccccccccccccccccccccccccccccccccccccccccccccccccccccccccccccccccccccccccccccccccccccccccccccccccccccccccccccccccccccccccccccccccccccccccccccccccccccccccccccccccccccccccccc" /><path
         id="rect27-8"
         style="fill:#808080;fill-opacity:1;stroke:none;stroke-width:6;stroke-linecap:butt;stroke-linejoin:bevel;stroke-dasharray:none;stroke-opacity:1"
         d="m 134.85482,32.406807 -7.48688,0.06873 0.0186,7.732345 -7.999,0.115238 0.0853,7.86567 -7.99899,0.24908 -0.19741,7.982459 -7.614,-0.101803 0.003,7.849134 -8.134907,-0.03772 -0.04961,7.980391 -7.86722,-0.03772 -0.04961,8.113717 -7.733895,0.02894 -0.183451,7.846549 -8.001062,-0.238228 -0.179834,7.841751 -7.70754,0.231141 0.03359,7.814879 -7.993827,0.16758 -0.04703,7.99073 -7.795907,0.006 -0.114205,8.01295 -7.715291,-0.0729 v 15.57114 l 7.81141,0.14056 -0.03927,7.89151 7.853267,0.0532 -0.14211,8.08013 8.032068,-0.0465 0.04754,7.93853 8.079093,0.0476 -0.283703,7.98556 8.268229,0.18965 -0.236161,7.79694 8.126635,0.18965 -0.141593,7.66 8.005713,0.0269 0.08268,7.82019 7.900291,-0.0646 -0.0512,8.08684 7.96695,0.002 -0.25114,8.08736 8.23412,0.13591 -0.31833,7.68635 7.96747,-0.0646 0.077,8.16177 8.03724,-0.26406 0.25735,-7.96489 7.83724,-0.16485 -0.10025,-7.67705 7.88427,-0.16433 0.0315,-7.99589 h 7.92251 l -0.0207,-7.79798 7.98143,-0.0196 0.0248,-8.18606 7.78299,0.0599 -0.0212,-8.0207 8.01915,0.1018 0.0941,-8.01336 -24.30779,0.27721 0.17725,8.05108 -7.62204,0.1362 -0.72274,7.79266 -7.36049,0.0918 -0.37338,7.93366 -7.429,0.19629 -0.30294,7.78986 -7.41801,0.0169 -0.19299,-8.02866 -7.92465,-0.22259 -0.20039,-7.53428 -7.93647,-0.0486 -0.0512,-8.00002 -8.00313,-0.0486 -0.0517,-7.93337 -7.869284,-0.0486 -0.05116,-7.86619 -7.93595,-0.0486 -0.05168,-7.93337 -7.700822,0.0827 -0.09457,-8.08529 -7.890475,0.18293 v -8.08529 l -8.079093,-0.006 0.09457,-16.16439 7.890474,-0.19482 0.04725,-7.18764 7.842711,-0.52572 0.299354,-7.20503 7.620576,-0.79603 0.200947,-7.395269 7.895716,-0.649203 -0.133399,-7.558564 7.943475,-0.181975 0.7407,-7.425682 7.35725,-0.70745 -0.0315,-8.086623 7.91631,0.284737 0.0987,-8.067208 7.91631,0.218074 -0.003,-8.049637 8.13904,-0.163815 0.0777,8.052463 7.72698,0.135925 -0.0977,7.803349 8.05429,-0.08108 0.077,7.95507 7.96127,-0.06305 -0.0413,8.586822 23.66203,-0.17604 -0.0382,-8.057315 -7.72253,0.05168 0.017,-8.30957 -8.40155,0.242362 0.0501,-7.85275 -7.90546,0.04134 0.046,-7.709607 -8.10545,-0.292489 0.37982,-8.043953 -8.21914,0.0677 0.13281,-8.017599 -7.8853,0.133842 z m 6.23476,95.104793 v 9.33018 h 93.03876 v -9.33018 z"
         inkscape:label="gray"
         sodipodi:nodetypes="cccccccccccccccccccccccccccccccccccccccccccccccccccccccccccccccccccccccccccccccccccccccccccccccccccccccccccccccccccccccccccccccccc" /><path
         id="rect28"
         style="fill:#c0c0c0;fill-opacity:1;stroke:none;stroke-width:6.00001;stroke-linecap:butt;stroke-linejoin:bevel;stroke-dasharray:none;stroke-opacity:1"
         inkscape:label="lgray"
         d="m 127.09302,24.289473 v 7.981425 h -7.89151 v 8.054289 h -7.9499 v 7.782471 h -8.107 v 7.851717 h -7.847584 v 8.022766 h -8.097697 v 8.079094 h -7.663615 v 7.928198 h -8.06049 v 7.81451 h -7.823812 v 7.871354 h -7.928198 v 8.038783 H 47.74799 v 7.99021 H 39.8663 v 8.04344 h -7.870837 v 15.95872 h 7.805208 v 7.90442 h 7.93285 v 7.94215 h 8.041369 v 7.97471 h 7.833631 v 8.1256 h 7.847583 v 7.72305 h 8.192781 v 8.10183 h 7.852751 v 7.9375 h 7.856885 v 7.92664 h 7.828979 v 7.97316 h 8.00985 v 7.92407 h 7.86773 v 7.96282 h 7.97626 v 8.05118 h 8.27805 v -8.31473 h 7.95248 V 215.006 h 7.97316 v -7.97626 h 7.91735 v -7.65328 h 7.91786 v -8.18503 h 7.90701 v -7.97781 h 7.86567 v -7.90132 h 7.95145 v -8.16333 h -8.27753 v 7.90133 h -7.95145 v 7.9778 h -7.86567 v 8.01812 h -7.79022 v 7.82019 h -8.03465 v 7.97626 h -7.91787 v 7.93285 h -7.97264 v 8.05532 h -7.65173 v -7.79125 h -7.86773 v -7.96282 h -8.00985 v -7.92407 h -7.82898 v -7.97367 h -7.856883 v -7.92665 h -7.852234 v -7.9375 h -8.192782 v -8.10131 h -7.8481 v -7.72305 h -7.83363 v -8.12612 h -8.040853 v -7.97419 h -7.932849 v -7.94266 h -7.923547 v -15.57993 h 7.855334 v -7.99021 h 8.015015 v -8.03879 h 7.975224 v -7.871351 h 7.928198 v -7.815027 h 7.823812 v -7.927681 h 8.06049 v -7.890475 h 7.855334 V 64.31132 h 8.098211 v -7.851717 h 7.84707 v -7.782471 h 8.107 V 40.62336 h 7.9499 v -7.992794 h 7.2099 v 7.678601 h 7.92199 v 8.048088 h 7.9096 v 7.938017 h 7.85843 v 7.976257 h 8.0331 v 7.906494 h 8.19072 v 7.869287 h 7.58352 v 7.995083 h 8.41912 v -8.128925 h -8.21862 v -8.018115 h -7.50549 v -7.86877 h -8.0331 v -7.906494 h -8.22585 v -7.976774 h -7.74268 v -7.9375 h -7.98091 v -7.77627 h -8.00881 v -8.140072 z"
         sodipodi:nodetypes="ccccccccccccccccccccccccccccccccccccccccccccccccccccccccccccccccccccccccccccccccccccccccccccccccccccccccccccccccccccccccccccccccccccccccccccccccccccccccccccc" /><path
         id="path31"
         style="color:#000000;fill:#000000;stroke-linecap:square;-inkscape-stroke:none"
         d="m 127.03307,8.2351562 v 7.9349158 h -8.07082 v 7.901844 h -7.87342 v 8.103381 h -7.95817 v 7.81451 h -8.154545 v 7.786605 H 87.20863 v 8.102865 h -7.828979 v 8.059973 h -8.012948 v 7.863086 h -8.089945 v 7.848099 h -7.719426 v 7.890475 h -7.985559 v 8.085811 h -7.987109 v 7.997959 h -7.826396 v 8.02949 H 23.8125 v 7.85171 h -8.101831 v 16.30599 h 0.06666 v 0.0723 h 7.968505 v 7.85172 h 7.945769 v 8.02948 h 7.826395 v 7.99796 h 7.98711 v 8.08582 h 7.985559 v 7.89047 h 7.719425 v 7.8481 h 8.089946 v 7.86309 h 8.012947 v 8.05997 h 7.82898 v 8.10286 h 7.767484 v 7.78661 h 8.154541 v 7.81451 h 7.95817 v 8.10338 h 7.87343 v 7.90184 h 8.07082 v 7.93492 h 8.2212 v -7.94577 h 7.999 v -8.06566 h 8.00416 v -7.82484 h 7.88944 v -7.90908 h 7.89048 v -8.0176 h 8.07444 v -7.97626 h 8.00933 v -7.77678 h 7.72356 v -7.97006 h 8.11268 v -7.97522 h 7.87601 v -0.0429 h 0.0667 l -0.0661,-16.37471 h -47.87563 v 0.0429 h -0.0667 v 7.96489 h -8.06979 v 8.11681 h -7.77679 v 7.96593 h -8.10751 v 7.97522 h -7.6445 v -8.06979 H 119.232 v -7.81451 h -7.96592 v -8.04137 h -8.11682 v -7.98453 h -7.946802 v -7.96592 h -7.947319 v -7.9282 H 79.12902 v -7.9375 H 71.495378 V 119.7901 h 7.700305 v -7.9375 h 8.126119 v -7.92819 h 7.947318 v -7.965926 h 7.9468 v -7.984526 h 8.11682 v -8.041369 h 7.96592 v -7.81451 h 7.99435 v -8.069792 h 7.64449 v 7.975224 h 8.10752 v 7.965922 h 7.77678 v 8.116817 h 8.00313 v 8.00778 h 47.87563 v -0.04289 h 0.0667 l 0.0661,-16.374712 h -7.87601 v -7.975223 h -8.11268 v -7.970057 h -7.72356 v -7.776786 h -8.00933 v -7.976257 h -8.07444 v -8.017599 h -7.89048 v -7.909078 h -7.88944 v -7.824845 h -8.00416 v -8.065658 h -7.99899 V 8.2351562 Z m 0.15038,8.2212038 h 7.84913 v 7.945768 h 8.00417 v 8.065658 h 7.88892 v 7.824328 h 7.89048 v 7.909078 h 8.07444 v 8.017599 h 8.00985 v 7.976257 h 7.72355 v 7.777303 h 8.11217 v 7.969539 h 7.77834 v 8.032068 H 159.04301 V 79.60186 h -7.77679 v -7.833631 h -8.10752 v -7.965922 h -7.76748 v -7.975224 h -8.2212 v 8.069792 h -8.09822 v 7.81451 h -7.99383 v 8.04137 h -7.96592 v 7.985042 h -8.117332 v 7.965922 h -7.946801 v 7.927681 h -7.946802 v 7.9375 h -8.126636 v 7.68429 h -7.766968 v 16.70699 h 0.06666 v 0.17673 h 7.633643 v 7.68429 h 8.126635 v 7.9375 h 7.946802 v 7.92768 h 7.946802 v 7.96592 h 8.117337 v 7.98504 h 7.96592 v 8.04137 h 7.99383 v 7.81451 h 8.09821 v 8.06979 h 8.22121 v -7.97522 h 7.76748 v -7.96592 h 8.10752 v -7.83363 h 7.77678 v -8.3721 h 39.53816 v 8.03207 h -7.845 v 7.96953 h -8.11217 v 7.77731 h -7.72356 v 7.97626 h -8.00984 v 8.01759 h -8.07445 v 7.90908 h -7.89047 v 7.82433 h -7.88893 v 8.06566 h -8.00416 v 7.94577 h -7.84913 v -7.93492 h -7.87342 v -7.90133 h -7.95817 v -8.10338 h -8.15506 v -7.81502 H 95.362655 V 199.393 h -8.04137 v -8.10287 h -7.800557 v -8.06049 h -8.089429 v -7.86308 h -7.719942 v -7.84759 h -7.985559 v -7.89099 h -7.98711 v -8.08581 h -7.826396 v -7.99744 h -7.945251 v -8.03 h -7.968506 v -15.63936 h 8.035169 v -8.03 h 7.945251 v -7.99745 h 7.826396 v -8.085807 h 7.987109 v -7.890991 h 7.985559 v -7.847583 h 7.719942 v -7.863086 h 8.089429 v -8.06049 h 7.800558 v -8.102864 h 8.041369 v -7.786088 h 7.767483 v -7.815027 h 8.15506 v -8.103381 h 7.95817 v -7.901327 h 7.87342 z m 7.45536,94.9141 v 32.62695 h 103.98642 v -32.62695 z m 7.40007,7.40058 h 89.18628 v 17.82631 h -89.18628 z"
         inkscape:label="black" /></g></g></svg>
