<?xml version="1.0" encoding="UTF-8" standalone="no"?>
<!-- Created with Inkscape (http://www.inkscape.org/) -->

<svg
   width="256mm"
   height="256mm"
   viewBox="0 0 256 256"
   version="1.1"
   id="svg1"
   inkscape:version="1.3.2 (091e20ef0f, 2023-11-25)"
   xml:space="preserve"
   sodipodi:docname="drive-removable-media.svg"
   xmlns:inkscape="http://www.inkscape.org/namespaces/inkscape"
   xmlns:sodipodi="http://sodipodi.sourceforge.net/DTD/sodipodi-0.dtd"
   xmlns:xlink="http://www.w3.org/1999/xlink"
   xmlns="http://www.w3.org/2000/svg"
   xmlns:svg="http://www.w3.org/2000/svg"
   xmlns:rdf="http://www.w3.org/1999/02/22-rdf-syntax-ns#"
   xmlns:cc="http://creativecommons.org/ns#"
   xmlns:dc="http://purl.org/dc/elements/1.1/"
   xmlns:a="http://ns.adobe.com/AdobeSVGViewerExtensions/3.0/"><defs
     id="defs1"><linearGradient
       id="linearGradient1"
       inkscape:collect="always"><stop
         style="stop-color:#000000;stop-opacity:0.20859873;"
         offset="0"
         id="stop2" /><stop
         style="stop-color:#0a0b0b;stop-opacity:0.35191083;"
         offset="0.11603349"
         id="stop4" /><stop
         style="stop-color:#161717;stop-opacity:1;"
         offset="0.28392744"
         id="stop5" /><stop
         style="stop-color:#4a5151;stop-opacity:0.72929937;"
         offset="0.60815537"
         id="stop6" /><stop
         style="stop-color:#111313;stop-opacity:0.35509554;"
         offset="1"
         id="stop3" /></linearGradient><linearGradient
       inkscape:collect="always"
       xlink:href="#XMLID_40_"
       id="linearGradient80"
       gradientUnits="userSpaceOnUse"
       x1="52.519501"
       y1="82.547401"
       x2="52.519501"
       y2="17.1397"
       gradientTransform="matrix(1,0,0,-0.93425136,-3.9277822,31.934576)" /><linearGradient
       id="XMLID_40_"
       gradientUnits="userSpaceOnUse"
       x1="52.519501"
       y1="82.547401"
       x2="52.519501"
       y2="17.1397">
					<stop
   offset="0.0112"
   style="stop-color:rgb(0,149,0)"
   id="stop112" />
					<stop
   offset="0.2978"
   style="stop-color:rgb(0,144,0)"
   id="stop113" />
					<stop
   offset="1"
   style="stop-color:rgb(0,91,0)"
   id="stop114" />
					<a:midPointStop
   offset="0.0112"
   style="stop-color:#009500" />
					<a:midPointStop
   offset="0.5"
   style="stop-color:#009500" />
					<a:midPointStop
   offset="0.2978"
   style="stop-color:#009000" />
					<a:midPointStop
   offset="0.5"
   style="stop-color:#009000" />
					<a:midPointStop
   offset="1"
   style="stop-color:#005B00" />
				</linearGradient><linearGradient
       inkscape:collect="always"
       xlink:href="#XMLID_41_"
       id="linearGradient79"
       gradientUnits="userSpaceOnUse"
       x1="14.0342"
       y1="38.7593"
       x2="90.792"
       y2="38.7593"
       gradientTransform="matrix(1,0,0,-0.93425136,-3.9277822,31.934576)" /><linearGradient
       id="XMLID_41_"
       gradientUnits="userSpaceOnUse"
       x1="14.0342"
       y1="38.7593"
       x2="90.792"
       y2="38.7593">
					<stop
   offset="0"
   style="stop-color:rgb(255,255,255)"
   id="stop115" />
					<stop
   offset="0.4045"
   style="stop-color:rgb(0,205,0)"
   id="stop116" />
					<stop
   offset="1"
   style="stop-color:rgb(0,111,0)"
   id="stop117" />
					<a:midPointStop
   offset="0"
   style="stop-color:#FFFFFF" />
					<a:midPointStop
   offset="0.5"
   style="stop-color:#FFFFFF" />
					<a:midPointStop
   offset="0.4045"
   style="stop-color:#00CD00" />
					<a:midPointStop
   offset="0.5"
   style="stop-color:#00CD00" />
					<a:midPointStop
   offset="1"
   style="stop-color:#006F00" />
				</linearGradient><linearGradient
       inkscape:collect="always"
       xlink:href="#linearGradient14-7"
       id="linearGradient78"
       gradientUnits="userSpaceOnUse"
       x1="4.2514949"
       y1="50.229206"
       x2="70.659439"
       y2="57.986542"
       gradientTransform="matrix(-1,0,0,0.93425136,99.922933,-42.348773)" /><linearGradient
       id="linearGradient14-7"
       gradientUnits="userSpaceOnUse"
       x1="51.835899"
       y1="7.7974"
       x2="51.835899"
       y2="51.1852">
					<stop
   offset="0.36564887"
   style="stop-color:rgb(255,255,255)"
   id="stop13-5" />
					<stop
   offset="100%"
   style="stop-opacity:0;stop-color:rgb(255,255,255)"
   id="stop14-3" />
				</linearGradient><linearGradient
       inkscape:collect="always"
       xlink:href="#linearGradient63"
       id="linearGradient64"
       x1="83.655357"
       y1="158.22356"
       x2="170.51796"
       y2="159.55991"
       gradientUnits="userSpaceOnUse" /><linearGradient
       id="linearGradient63"
       inkscape:collect="always"><stop
         style="stop-color:#44403c;stop-opacity:1;"
         offset="0"
         id="stop63" /><stop
         style="stop-color:#847d76;stop-opacity:1;"
         offset="0.13975157"
         id="stop65" /><stop
         style="stop-color:#5b5751;stop-opacity:1;"
         offset="0.15372673"
         id="stop66-3" /><stop
         style="stop-color:#f4e6d9;stop-opacity:1;"
         offset="0.19487578"
         id="stop67" /><stop
         style="stop-color:#a59c91;stop-opacity:1;"
         offset="0.25480437"
         id="stop1" /><stop
         style="stop-color:#f4e6d9;stop-opacity:1;"
         offset="1"
         id="stop64" /></linearGradient><linearGradient
       inkscape:collect="always"
       xlink:href="#linearGradient74"
       id="linearGradient75-5"
       x1="167.25447"
       y1="174.814"
       x2="169.7113"
       y2="174.814"
       gradientUnits="userSpaceOnUse" /><linearGradient
       id="linearGradient74"
       inkscape:collect="always"><stop
         style="stop-color:#444647;stop-opacity:0;"
         offset="0"
         id="stop74-6" /><stop
         style="stop-color:#444647;stop-opacity:1;"
         offset="1"
         id="stop75-2" /></linearGradient><linearGradient
       inkscape:collect="always"
       xlink:href="#linearGradient76"
       id="linearGradient77"
       x1="84.430428"
       y1="175.35732"
       x2="86.367554"
       y2="175.35732"
       gradientUnits="userSpaceOnUse" /><linearGradient
       id="linearGradient76"
       inkscape:collect="always"><stop
         style="stop-color:#e8f1f4;stop-opacity:1;"
         offset="0"
         id="stop76" /><stop
         style="stop-color:#e8f1f4;stop-opacity:0;"
         offset="1"
         id="stop77" /></linearGradient><linearGradient
       inkscape:collect="always"
       xlink:href="#linearGradient67"
       id="linearGradient69"
       x1="69.83094"
       y1="125.35899"
       x2="171.6707"
       y2="126.74521"
       gradientUnits="userSpaceOnUse" /><linearGradient
       id="linearGradient67"
       inkscape:collect="always"><stop
         style="stop-color:#e8f1f4;stop-opacity:1;"
         offset="0"
         id="stop68-9" /><stop
         style="stop-color:#d9e1e4;stop-opacity:1;"
         offset="0.13497652"
         id="stop73-1" /><stop
         style="stop-color:#a5acae;stop-opacity:1;"
         offset="0.15492958"
         id="stop70-2" /><stop
         style="stop-color:#464849;stop-opacity:1;"
         offset="0.24248964"
         id="stop71-7" /><stop
         style="stop-color:#dee5e8;stop-opacity:1;"
         offset="0.30903983"
         id="stop72-0" /><stop
         style="stop-color:#aeb4b8;stop-opacity:1;"
         offset="1"
         id="stop69" /></linearGradient><linearGradient
       inkscape:collect="always"
       xlink:href="#linearGradient88"
       id="linearGradient89"
       x1="74.033653"
       y1="95.682487"
       x2="182.54507"
       y2="95.682487"
       gradientUnits="userSpaceOnUse" /><linearGradient
       id="linearGradient88"
       inkscape:collect="always"><stop
         style="stop-color:#404242;stop-opacity:1;"
         offset="0"
         id="stop88" /><stop
         style="stop-color:#a9a9a9;stop-opacity:1;"
         offset="1"
         id="stop89" /></linearGradient><linearGradient
       inkscape:collect="always"
       xlink:href="#linearGradient84"
       id="linearGradient85"
       x1="78.16275"
       y1="114.16084"
       x2="80.667358"
       y2="107.74638"
       gradientUnits="userSpaceOnUse" /><linearGradient
       id="linearGradient84"
       inkscape:collect="always"><stop
         style="stop-color:#dbe4e4;stop-opacity:0.65647697;"
         offset="0"
         id="stop84" /><stop
         style="stop-color:#939999;stop-opacity:0;"
         offset="1"
         id="stop85" /></linearGradient><linearGradient
       inkscape:collect="always"
       xlink:href="#linearGradient82"
       id="linearGradient83"
       x1="132.63318"
       y1="107.10113"
       x2="133.43498"
       y2="117.52464"
       gradientUnits="userSpaceOnUse" /><linearGradient
       id="linearGradient82"
       inkscape:collect="always"><stop
         style="stop-color:#939999;stop-opacity:0;"
         offset="0"
         id="stop82" /><stop
         style="stop-color:#a0a7a7;stop-opacity:0.52648473;"
         offset="1"
         id="stop83" /></linearGradient><linearGradient
       inkscape:collect="always"
       xlink:href="#linearGradient86"
       id="linearGradient87"
       x1="81.82859"
       y1="103.3253"
       x2="80.895485"
       y2="112.5461"
       gradientUnits="userSpaceOnUse" /><linearGradient
       id="linearGradient86"
       inkscape:collect="always"><stop
         style="stop-color:#000000;stop-opacity:0.78651685;"
         offset="0"
         id="stop86" /><stop
         style="stop-color:#939999;stop-opacity:0;"
         offset="1"
         id="stop87" /></linearGradient><linearGradient
       inkscape:collect="always"
       xlink:href="#linearGradient80-9"
       id="linearGradient81"
       x1="146.80283"
       y1="104.333"
       x2="146.80283"
       y2="108.80976"
       gradientUnits="userSpaceOnUse" /><linearGradient
       id="linearGradient80-9"
       inkscape:collect="always"><stop
         style="stop-color:#000000;stop-opacity:0.65647697;"
         offset="0"
         id="stop80" /><stop
         style="stop-color:#000000;stop-opacity:0;"
         offset="1"
         id="stop81" /></linearGradient><linearGradient
       inkscape:collect="always"
       xlink:href="#linearGradient90"
       id="linearGradient91"
       x1="69.65712"
       y1="134.10249"
       x2="73.799797"
       y2="134.10249"
       gradientUnits="userSpaceOnUse" /><linearGradient
       id="linearGradient90"
       inkscape:collect="always"><stop
         style="stop-color:#959b9b;stop-opacity:1;"
         offset="0"
         id="stop90" /><stop
         style="stop-color:#959b9b;stop-opacity:0;"
         offset="1"
         id="stop91" /></linearGradient><linearGradient
       inkscape:collect="always"
       xlink:href="#linearGradient1"
       id="linearGradient3"
       x1="17.026124"
       y1="98.549267"
       x2="238.378"
       y2="98.549267"
       gradientUnits="userSpaceOnUse" /><linearGradient
       inkscape:collect="always"
       xlink:href="#linearGradient145"
       id="linearGradient146"
       x1="321.18591"
       y1="210.73346"
       x2="340.74026"
       y2="209.78851"
       gradientUnits="userSpaceOnUse" /><linearGradient
       id="linearGradient145"
       inkscape:collect="always"><stop
         style="stop-color:#000000;stop-opacity:1;"
         offset="0"
         id="stop145" /><stop
         style="stop-color:#000000;stop-opacity:1;"
         offset="0.5"
         id="stop147" /><stop
         style="stop-color:#965a00;stop-opacity:1;"
         offset="0.59030449"
         id="stop148" /><stop
         style="stop-color:#482d00;stop-opacity:1;"
         offset="0.83193135"
         id="stop150" /><stop
         style="stop-color:#000000;stop-opacity:1;"
         offset="0.875"
         id="stop149" /><stop
         style="stop-color:#000000;stop-opacity:1;"
         offset="1"
         id="stop146" /></linearGradient><linearGradient
       inkscape:collect="always"
       xlink:href="#linearGradient139"
       id="linearGradient141"
       x1="338.49777"
       y1="205.54561"
       x2="325.03384"
       y2="213.10744"
       gradientUnits="userSpaceOnUse" /><linearGradient
       id="linearGradient139"
       inkscape:collect="always"><stop
         style="stop-color:#ad7700;stop-opacity:1;"
         offset="0"
         id="stop140" /><stop
         style="stop-color:#ad6d00;stop-opacity:0;"
         offset="1"
         id="stop141" /></linearGradient><linearGradient
       inkscape:collect="always"
       xlink:href="#linearGradient145"
       id="linearGradient151"
       gradientUnits="userSpaceOnUse"
       x1="321.18591"
       y1="210.73346"
       x2="340.74026"
       y2="209.78851"
       gradientTransform="translate(36.883195,-1.9377041)" /><linearGradient
       inkscape:collect="always"
       xlink:href="#linearGradient139"
       id="linearGradient152"
       gradientUnits="userSpaceOnUse"
       x1="338.49777"
       y1="205.54561"
       x2="325.03384"
       y2="213.10744"
       gradientTransform="translate(36.883195,-1.9377041)" /></defs><sodipodi:namedview
     id="base"
     pagecolor="#ffffff"
     bordercolor="#000000"
     borderopacity="0.3"
     inkscape:pageopacity="0.0"
     inkscape:pageshadow="2"
     inkscape:zoom="0.98994949"
     inkscape:cx="505.07627"
     inkscape:cy="476.792"
     inkscape:document-units="mm"
     inkscape:showpageshadow="2"
     inkscape:pagecheckerboard="0"
     inkscape:deskcolor="#d1d1d1"
     inkscape:current-layer="svg1" /><metadata
     id="metadata1"><rdf:RDF><cc:Work
         rdf:about=""><dc:format>image/svg+xml</dc:format><dc:type
           rdf:resource="http://purl.org/dc/dcmitype/StillImage" /><cc:license
           rdf:resource="http://creativecommons.org/publicdomain/zero/1.0/" /></cc:Work><cc:License
         rdf:about="http://creativecommons.org/publicdomain/zero/1.0/"><cc:permits
           rdf:resource="http://creativecommons.org/ns#Reproduction" /><cc:permits
           rdf:resource="http://creativecommons.org/ns#Distribution" /><cc:permits
           rdf:resource="http://creativecommons.org/ns#DerivativeWorks" /></cc:License></rdf:RDF></metadata><g
     id="g93"
     transform="matrix(1.9515791,0,0,1.9515791,-120.32195,-173.95515)"
     style="overflow:visible"><g
       id="g67"
       style="display:inline"><path
         id="rect63"
         style="fill:url(#linearGradient64);stroke-width:4.99999;stroke-linecap:round;stroke-linejoin:round;stroke-miterlimit:5"
         d="m 84.457169,127.75483 h 84.991711 v 83.92263 c -0.078,1.7751 -0.79377,1.95441 -2.00452,2.13816 l -67.752832,4.27631 -4.142676,-0.53454 -11.091683,-4.00904 z"
         sodipodi:nodetypes="cccccccc" /><path
         id="rect73"
         style="fill:url(#linearGradient75-5);fill-opacity:1;stroke-width:4.99999;stroke-linecap:round;stroke-linejoin:round;stroke-miterlimit:5"
         d="m 168.01042,136.26042 h 1.70089 l -0.75595,77.10715 h -1.70089 z"
         sodipodi:nodetypes="ccccc" /><path
         id="rect74"
         style="fill:url(#linearGradient77);stroke-width:4.99999;stroke-linecap:round;stroke-linejoin:round;stroke-miterlimit:5"
         d="m 84.430429,136.54389 1.937128,3.30729 -0.188988,74.31956 -1.74814,-0.66146 z"
         sodipodi:nodetypes="ccccc" /></g><g
       id="g152"
       transform="matrix(0.99435744,0,0,0.99435744,-211.27269,-31.686156)"
       style="display:inline"><path
         id="rect139"
         style="fill:url(#linearGradient146);stroke:url(#linearGradient141);stroke-width:0.799999;stroke-linecap:round;stroke-linejoin:round;stroke-miterlimit:5;stroke-opacity:1"
         d="m 324.73248,202.79076 12.36122,-0.50113 c 2.27708,-0.0577 2.63807,0.80094 2.90655,1.70384 0.38144,3.37914 0.46448,6.83289 0.13364,10.3901 -2.02427,3.65652 -11.33298,2.65042 -15.13414,2.90656 -1.80101,-0.0209 -2.05161,-1.58776 -2.07134,-2.80633 l -0.0668,-9.28762 c 0.23218,-1.08142 0.42526,-2.19075 1.87089,-2.40542 z"
         sodipodi:nodetypes="cccccccc" /><path
         id="path151"
         style="fill:url(#linearGradient151);stroke:url(#linearGradient152);stroke-width:0.799999;stroke-linecap:round;stroke-linejoin:round;stroke-miterlimit:5;stroke-opacity:1"
         d="m 361.61567,200.85306 12.36122,-0.50113 c 2.27708,-0.0577 2.63807,0.80094 2.90655,1.70384 0.38144,3.37914 0.46448,6.83289 0.13364,10.3901 -2.02427,3.65652 -11.33298,2.65042 -15.13414,2.90656 -1.80101,-0.0209 -2.05161,-1.58776 -2.07134,-2.80633 l -0.0668,-9.28762 c 0.23218,-1.08142 0.42526,-2.19075 1.87089,-2.40542 z"
         sodipodi:nodetypes="cccccccc" /></g><g
       id="g91"
       inkscape:label="head"><path
         id="rect67"
         style="display:inline;fill:url(#linearGradient69);stroke-width:4.99999;stroke-linecap:round;stroke-linejoin:round;stroke-miterlimit:5"
         d="m 69.693891,129.61829 2.508026,0.17348 13.946653,4.07946 10.958051,0.26727 86.841639,-4.31234 -0.0554,5.80919 c 0.0298,0.51616 -0.23997,1.99422 -1.67043,2.0045 -24.63339,0.17718 -78.31228,4.66544 -78.31228,4.66544 -6.74679,0.48664 -13.525786,0.41027 -18.328584,-0.83424 l -13.190701,-3.41799 c -1.180411,-0.36463 -2.272039,-0.88463 -2.460779,-2.98468 z"
         sodipodi:nodetypes="ccccccscsccc" /><path
         id="rect87"
         style="fill:url(#linearGradient89);stroke-width:4.99999;stroke-linecap:round;stroke-linejoin:round;stroke-miterlimit:5"
         d="m 74.033653,95.147954 89.936197,-4.009043 16.67093,3.942226 -88.700068,5.144933 z"
         sodipodi:nodetypes="ccccc"
         inkscape:label="top" /><path
         id="rect77"
         style="fill:#383a3a;fill-opacity:1;stroke-width:4.99999;stroke-linecap:round;stroke-linejoin:round;stroke-miterlimit:5"
         d="m 74.130576,95.06101 15.237159,4.204986 c 1.040975,0.340227 1.987062,0.397562 3.614391,0.283482 l 87.205384,-4.601141 c 2.64077,1.631156 3.74335,2.81342 4.07586,4.915894 0.37657,2.381059 -2.71607,2.814799 -2.6727,6.719969 0.0378,3.40037 2.34468,4.14808 2.6727,6.18542 1.02231,6.34951 0,16.87621 0,16.87621 -0.0281,0.76606 -0.5575,1.37786 -2.88444,1.43657 -28.70965,1.47403 -53.2236,3.8057 -81.674367,4.71258 -3.129611,0.0386 -10.74953,-0.17958 -14.381136,-1.47968 l -15.586824,-4.66947 c 0,0 -0.135224,-11.43508 0.850446,-16.96168 0.221648,-1.24277 1.001536,-1.99503 1.795387,-2.97656 1.738737,-2.1498 1.343732,-5.8767 -0.283482,-7.41778 -0.741608,-0.70236 -1.505025,-1.69906 -1.417411,-2.716708 0.162386,-1.886133 3.449033,-4.512092 3.449033,-4.512092 z"
         sodipodi:nodetypes="ccccasscccccsssac"
         inkscape:label="headside" /><path
         id="rect78"
         style="fill:url(#linearGradient85);stroke-width:4.99999;stroke-linecap:round;stroke-linejoin:round;stroke-miterlimit:5"
         d="m 73.421872,106.77827 16.81994,3.87426 c 1.829149,1.54334 2.203769,4.61535 1.249963,6.7482 l -20.810227,-4.19687 c -0.09451,-3.00809 2.692156,-2.31674 2.740327,-6.42559 z"
         sodipodi:nodetypes="cccccc" /><path
         id="path78"
         style="fill:url(#linearGradient83);stroke-width:4.99999;stroke-linecap:round;stroke-linejoin:round;stroke-miterlimit:5"
         d="m 181.47347,106.21131 -88.25744,4.25224 -1.517182,7.28274 92.514992,-3.10487 c 0.0945,-3.00809 -2.69215,-4.32126 -2.74032,-8.43011 z"
         sodipodi:nodetypes="cccccc" /><path
         id="path79"
         style="fill:url(#linearGradient87);stroke-width:4.99999;stroke-linecap:round;stroke-linejoin:round;stroke-miterlimit:5"
         d="m 73.61086,106.92001 16.772693,3.77975 -0.09449,-5.2444 -19.418526,-4.96094 c 0.850431,1.73242 2.692156,2.31674 2.740327,6.42559 z"
         sodipodi:nodetypes="cccccc" /><path
         id="path80"
         style="fill:url(#linearGradient81);fill-opacity:0.656477;stroke-width:4.99999;stroke-linecap:round;stroke-linejoin:round;stroke-miterlimit:5"
         d="m 181.23723,106.87275 -88.068447,4.34672 4.7e-5,-4.81918 90.38355,-4.67746 c -1.18117,2.39388 -1.36923,1.56079 -2.07886,4.39397 z"
         sodipodi:nodetypes="cccccc" /><path
         id="rect89"
         style="fill:#404242;stroke-width:4.99999;stroke-linecap:round;stroke-linejoin:round;stroke-miterlimit:5"
         d="m 158.59106,93.043205 10.3567,-0.601357 5.11152,1.353052 -12.22757,0.885331 c -4.72223,0.226295 -6.09024,-1.586879 -3.24065,-1.637026 z"
         sodipodi:nodetypes="ccccc" /><path
         id="rect90"
         style="fill:url(#linearGradient91);stroke-width:4.99999;stroke-linecap:round;stroke-linejoin:round;stroke-miterlimit:5"
         d="m 69.753959,129.6049 4.118468,1.35574 c 0,0 3.463667,7.97073 0.97129,7.53049 -0.731771,-0.12925 -1.595387,-0.15568 -2.346859,-0.413 -0.643302,-0.22028 -1.389042,-0.41353 -1.80407,-0.95215 -0.722167,-0.93723 -0.647509,-2.28472 -0.801808,-3.4578 -0.176732,-1.34362 -0.137022,-3.70013 -0.137021,-4.06328 z"
         sodipodi:nodetypes="ccsaaac" /><path
         id="rect1"
         style="fill:url(#linearGradient3);stroke-width:4.99999;stroke-linecap:round;stroke-linejoin:round;stroke-miterlimit:5"
         d="m 238.378,91.715623 -0.0945,0.708705 c -0.43758,0.983375 -0.10712,2.132172 -4.45255,2.273857 L 77.384971,105.26944 c -9.916025,0.43629 -20.633859,-0.35765 -30.549884,-2.86715 -9.518181,-2.707086 -27.705312,-6.736554 -28.554543,-8.121258 l -1.25442,-1.533154 29.878053,8.085222 c 9.337044,2.78345 20.789799,2.83465 30.999324,2.47717 L 234.11385,92.868762 c 2.59064,-0.09207 3.38688,-0.632731 4.26415,-1.153139 z"
         sodipodi:nodetypes="ccccccccccc"
         transform="matrix(0.51240557,0,0,0.51240557,61.653637,89.135588)" /></g></g><g
     id="g75"
     transform="matrix(-1.7465148,0,-0.13714287,1.9175065,260.3319,84.377824)"
     style="overflow:visible">
				<linearGradient
   id="linearGradient70"
   gradientUnits="userSpaceOnUse"
   x1="52.519501"
   y1="82.547401"
   x2="52.519501"
   y2="17.1397">
					<stop
   offset="0.0112"
   style="stop-color:rgb(0,149,0)"
   id="stop66" />
					<stop
   offset="0.2978"
   style="stop-color:rgb(0,144,0)"
   id="stop68" />
					<stop
   offset="1"
   style="stop-color:rgb(0,91,0)"
   id="stop70" />
					<a:midPointStop
   offset="0.0112"
   style="stop-color:#009500" />
					<a:midPointStop
   offset="0.5"
   style="stop-color:#009500" />
					<a:midPointStop
   offset="0.2978"
   style="stop-color:#009000" />
					<a:midPointStop
   offset="0.5"
   style="stop-color:#009000" />
					<a:midPointStop
   offset="1"
   style="stop-color:#005B00" />
				</linearGradient>
				<path
   d="m 31.651218,31.934577 c -3.365,0 -6.104,-2.557981 -6.104,-5.701737 0,0 0,-20.4787898 0,-23.3572179 -2.629,0 -11.104,0 -11.104,0 -2.478,0 -4.6900002,-1.3817578 -5.6400002,-3.52119373 -0.308,-0.69321477 -0.464,-1.42846997 -0.464,-2.18241117 0,-1.523764 0.636,-2.9550374 1.7880002,-4.0322292 l 34.207,-31.957937 c 2.381,-2.224453 6.252,-2.224453 8.631,0 l 34.208,31.9588717 c 1.752,1.6368081 2.271,4.0761381 1.323,6.21277086 v 9.3481e-4 c -0.947,2.13850123 -3.162,3.52119373 -5.639,3.52119373 0,0 -8.476,0 -11.105,0 0,2.8784281 0,23.3572179 0,23.3572179 0,3.143756 -2.739,5.701737 -6.104,5.701737 z m 15.181,-68.418032 -34.207,31.9570027 c -0.485,0.4540462 -0.753,1.0585071 -0.753,1.6994032 0,0.3167115 0.065,0.6268829 0.196,0.9183692 0.398,0.901553 1.331,1.48265734 2.374,1.48265734 h 14.638 V 26.23284 c 0,1.3229 1.154,2.400093 2.571,2.400093 h 33.997 c 1.418,0 2.57,-1.077193 2.57,-2.400093 V -0.42602256 h 14.639 c 1.043,0 1.975,-0.58110434 2.374,-1.48265734 0.134,-0.2980255 0.197,-0.6100664 0.197,-0.9202378 0,-0.6240795 -0.262,-1.2360145 -0.755,-1.6975346 l -34.206,-31.9570027 c -1.001,-0.936121 -2.633,-0.936121 -3.635,0 z"
   style="fill:url(#linearGradient80);stroke-width:0.966567"
   id="path70" />
				<linearGradient
   id="linearGradient73"
   gradientUnits="userSpaceOnUse"
   x1="14.0342"
   y1="38.7593"
   x2="90.792"
   y2="38.7593">
					<stop
   offset="0"
   style="stop-color:rgb(255,255,255)"
   id="stop71" />
					<stop
   offset="0.4045"
   style="stop-color:rgb(0,205,0)"
   id="stop72" />
					<stop
   offset="1"
   style="stop-color:rgb(0,111,0)"
   id="stop73" />
					<a:midPointStop
   offset="0"
   style="stop-color:#FFFFFF" />
					<a:midPointStop
   offset="0.5"
   style="stop-color:#FFFFFF" />
					<a:midPointStop
   offset="0.4045"
   style="stop-color:#00CD00" />
					<a:midPointStop
   offset="0.5"
   style="stop-color:#00CD00" />
					<a:midPointStop
   offset="1"
   style="stop-color:#006F00" />
				</linearGradient>
				<path
   d="m 86.864218,-1.2771252 c -0.671,1.51348676 -2.253,2.501925 -4.007,2.501925 0,0 -8.02,0 -12.873,0 0,6.0006967 0,25.0089752 0,25.0089752 0,2.235664 -1.94,4.050914 -4.336,4.050914 h -33.997 c -2.396,0 -4.337,-1.81525 -4.337,-4.050914 0,0 0,-19.0082785 0,-25.0089752 -4.853,0 -12.872,0 -12.872,0 -1.754,0 -3.335,-0.98843824 -4.007,-2.501925 -0.223,-0.4998245 -0.329,-1.0276775 -0.329,-1.5499239 0,-1.054769 0.44,-2.0899206 1.269,-2.8644141 l 34.209,-31.9588728 c 1.692,-1.581687 4.439,-1.581687 6.133,0 l 34.207,31.9588728 c 1.24,1.1594055 1.611,2.8999164 0.94,4.414338 z"
   style="fill:url(#linearGradient79);stroke-width:0.966567"
   id="path73" />
				<linearGradient
   id="linearGradient75"
   gradientUnits="userSpaceOnUse"
   x1="51.835899"
   y1="7.7974"
   x2="51.835899"
   y2="51.1852">
					<stop
   offset="5.74713%"
   style="stop-color:rgb(255,255,255)"
   id="stop74" />
					<stop
   offset="100%"
   style="stop-opacity:0;stop-color:rgb(255,255,255)"
   id="stop75" />
				</linearGradient>
				<path
   a:adobe-blending-mode="screen"
   d="m 46.015041,-38.04928 c 1.470793,-1.235137 3.900878,-1.05693 5.213475,0.144723 8.029288,7.350633 5.845223,5.908076 17.18816,16.518556 2.410845,2.120212 7.752573,7.412222 10.229238,9.628623 C 98.573146,5.6050475 70.984842,-0.10787102 69.39836,1.4759784 67.93267,7.7147428 69.566974,19.751857 67.852552,29.138295 31.171503,29.528606 66.362328,-26.625759 26.661338,-19.780696 c 0,0 11.193767,-11.416065 19.353703,-18.268584 z"
   style="fill:url(#linearGradient78);stroke-width:0.966567"
   id="path75"
   sodipodi:nodetypes="sscccccs" />
			</g></svg>
