<?xml version="1.0" encoding="UTF-8" standalone="no"?>
<!-- Created with Inkscape (http://www.inkscape.org/) -->

<svg
   width="256mm"
   height="256mm"
   viewBox="0 0 256 256"
   version="1.1"
   id="svg1"
   inkscape:version="1.3.2 (091e20ef0f, 2023-11-25)"
   sodipodi:docname="drive-removable-media-usb-pendrive-01.svg"
   xmlns:inkscape="http://www.inkscape.org/namespaces/inkscape"
   xmlns:sodipodi="http://sodipodi.sourceforge.net/DTD/sodipodi-0.dtd"
   xmlns:xlink="http://www.w3.org/1999/xlink"
   xmlns="http://www.w3.org/2000/svg"
   xmlns:svg="http://www.w3.org/2000/svg"
   xmlns:rdf="http://www.w3.org/1999/02/22-rdf-syntax-ns#"
   xmlns:cc="http://creativecommons.org/ns#"
   xmlns:dc="http://purl.org/dc/elements/1.1/">
  <defs
     id="defs1">
    <linearGradient
       inkscape:collect="always"
       xlink:href="#linearGradient128"
       id="linearGradient130"
       x1="87.869301"
       y1="32.776318"
       x2="94.723061"
       y2="43.801186"
       gradientUnits="userSpaceOnUse" />
    <linearGradient
       id="linearGradient128"
       inkscape:collect="always">
      <stop
         style="stop-color:#000000;stop-opacity:1;"
         offset="0"
         id="stop129" />
      <stop
         style="stop-color:#000000;stop-opacity:0.49803922;"
         offset="0.43895447"
         id="stop131" />
      <stop
         style="stop-color:#000000;stop-opacity:0.24705882;"
         offset="0.53033584"
         id="stop132" />
      <stop
         style="stop-color:#000000;stop-opacity:0.12156863;"
         offset="0.68305093"
         id="stop133" />
      <stop
         style="stop-color:#000000;stop-opacity:0;"
         offset="1"
         id="stop130" />
    </linearGradient>
    <linearGradient
       inkscape:collect="always"
       xlink:href="#linearGradient136"
       id="linearGradient137"
       x1="83.343895"
       y1="33.687202"
       x2="89.107956"
       y2="43.136608"
       gradientUnits="userSpaceOnUse" />
    <linearGradient
       id="linearGradient136"
       inkscape:collect="always">
      <stop
         style="stop-color:#000000;stop-opacity:1;"
         offset="0"
         id="stop136" />
      <stop
         style="stop-color:#f5fcff;stop-opacity:1;"
         offset="1"
         id="stop137" />
    </linearGradient>
    <linearGradient
       inkscape:collect="always"
       xlink:href="#linearGradient124"
       id="linearGradient125"
       x1="85.797958"
       y1="33.444492"
       x2="90.446754"
       y2="42.865742"
       gradientUnits="userSpaceOnUse" />
    <linearGradient
       id="linearGradient124"
       inkscape:collect="always">
      <stop
         style="stop-color:#000000;stop-opacity:1;"
         offset="0"
         id="stop124" />
      <stop
         style="stop-color:#000000;stop-opacity:0.49803922;"
         offset="0.5"
         id="stop126" />
      <stop
         style="stop-color:#000000;stop-opacity:0.24705882;"
         offset="0.59229904"
         id="stop127" />
      <stop
         style="stop-color:#000000;stop-opacity:0.12156863;"
         offset="0.72238618"
         id="stop128" />
      <stop
         style="stop-color:#000000;stop-opacity:0;"
         offset="1"
         id="stop125" />
    </linearGradient>
    <linearGradient
       inkscape:collect="always"
       xlink:href="#linearGradient133"
       id="linearGradient135"
       x1="82.471428"
       y1="33.025745"
       x2="88.752007"
       y2="42.286163"
       gradientUnits="userSpaceOnUse" />
    <linearGradient
       id="linearGradient133"
       inkscape:collect="always">
      <stop
         style="stop-color:#000000;stop-opacity:1;"
         offset="0"
         id="stop134" />
      <stop
         style="stop-color:#ecf5ff;stop-opacity:1;"
         offset="1"
         id="stop135" />
    </linearGradient>
    <linearGradient
       inkscape:collect="always"
       xlink:href="#linearGradient15"
       id="linearGradient41"
       x1="83.190926"
       y1="6.5392928"
       x2="121.1849"
       y2="59.134426"
       gradientUnits="userSpaceOnUse" />
    <linearGradient
       id="linearGradient15"
       inkscape:collect="always">
      <stop
         style="stop-color:#000000;stop-opacity:0.05190311;"
         offset="0"
         id="stop40" />
      <stop
         style="stop-color:#000000;stop-opacity:0.40625;"
         offset="1"
         id="stop41" />
    </linearGradient>
    <linearGradient
       inkscape:collect="always"
       xlink:href="#linearGradient5"
       id="linearGradient8"
       x1="80.156197"
       y1="98.378189"
       x2="158.31177"
       y2="175.29156"
       gradientUnits="userSpaceOnUse" />
    <linearGradient
       id="linearGradient5"
       inkscape:collect="always">
      <stop
         style="stop-color:#ffffff;stop-opacity:0.72664362;"
         offset="0"
         id="stop7" />
      <stop
         style="stop-color:#ffffff;stop-opacity:0.43529412;"
         offset="0.42528614"
         id="stop138" />
      <stop
         style="stop-color:#ffffff;stop-opacity:0.21568627;"
         offset="0.63453072"
         id="stop139" />
      <stop
         style="stop-color:#ffffff;stop-opacity:0;"
         offset="1"
         id="stop8" />
    </linearGradient>
  </defs>
  <sodipodi:namedview
     id="base"
     pagecolor="#ffffff"
     bordercolor="#000000"
     borderopacity="0.3"
     inkscape:pageopacity="0.0"
     inkscape:pageshadow="2"
     inkscape:zoom="0.98994949"
     inkscape:cx="505.07627"
     inkscape:cy="476.792"
     inkscape:document-units="mm"
     inkscape:showpageshadow="2"
     inkscape:pagecheckerboard="0"
     inkscape:deskcolor="#d1d1d1"
     inkscape:current-layer="svg1" />
  <metadata
     id="metadata1">
    <rdf:RDF>
      <cc:Work
         rdf:about="">
        <dc:format>image/svg+xml</dc:format>
        <dc:type
           rdf:resource="http://purl.org/dc/dcmitype/StillImage" />
        <cc:license
           rdf:resource="http://creativecommons.org/publicdomain/zero/1.0/" />
      </cc:Work>
      <cc:License
         rdf:about="http://creativecommons.org/publicdomain/zero/1.0/">
        <cc:permits
           rdf:resource="http://creativecommons.org/ns#Reproduction" />
        <cc:permits
           rdf:resource="http://creativecommons.org/ns#Distribution" />
        <cc:permits
           rdf:resource="http://creativecommons.org/ns#DerivativeWorks" />
      </cc:License>
    </rdf:RDF>
  </metadata>
  <g
     id="g5"
     style="display:inline"
     transform="matrix(0.85149101,-0.85097892,0.85097892,0.85149101,-72.921007,104.07822)">
    <g
       id="g44"
       inkscape:label="plug">
      <path
         id="rect12"
         style="fill:#eff1f3;stroke-width:1.9;stroke-linecap:round;stroke-linejoin:round;stroke-miterlimit:5"
         inkscape:label="headcolor"
         d="M 78.309975,7.8844509 H 128.42301 V 67.218283 H 78.309975 Z" />
      <g
         id="g43">
        <path
           id="rect41"
           style="fill:#000000;fill-opacity:0.181303;stroke-width:1.9;stroke-linecap:round;stroke-linejoin:round;stroke-miterlimit:5"
           d="m 77.909065,8.15172 h 1.603617 v 60.135643 h -1.603617 z" />
        <path
           id="path41"
           style="fill:#000000;fill-opacity:0.385269;stroke-width:1.9;stroke-linecap:round;stroke-linejoin:round;stroke-miterlimit:5"
           d="m 127.48756,8.15172 h 1.60362 v 60.135643 h -1.60362 z" />
        <path
           id="path42"
           style="fill:#000000;fill-opacity:0.385269;stroke-width:1.9;stroke-linecap:round;stroke-linejoin:round;stroke-miterlimit:5"
           d="m 102.89876,8.15172 h 1.60362 v 10.918741 l 6.37835,0.0047 v 8.461896 l -6.37835,0.09917 v 26.840988 l 6.4256,-0.04257 -0.10024,8.052885 -6.51435,-0.105136 v 5.904986 h -1.41463 v -7.433103 l 6.54301,-0.08385 0.0139,-4.823875 -6.55686,0.04257 V 26.171569 l 6.52009,-0.240913 v -5.39084 l -6.52009,0.04257 z"
           sodipodi:nodetypes="ccccccccccccccccccccc" />
      </g>
      <g
         id="g46"
         inkscape:label="smalplwin"
         transform="translate(-0.1889881)"
         style="display:inline">
        <g
           id="g94">
          <path
             style="fill:#ffffff;fill-opacity:1;stroke-width:1.9;stroke-linecap:round;stroke-linejoin:round;stroke-miterlimit:5"
             d="m 84.194344,34.584969 v 8.409823 h 13.134599 v -8.409823 z"
             id="rect45"
             inkscape:label="colhead" />
          <path
             style="fill:url(#linearGradient130);fill-opacity:1;stroke:url(#linearGradient137);stroke-width:0.8;stroke-linecap:round;stroke-linejoin:round;stroke-miterlimit:5;stroke-dasharray:none"
             d="m 84.194344,34.584969 v 8.409823 h 13.134599 v -8.409823 z"
             id="path46" />
        </g>
        <g
           id="g95"
           transform="translate(25.513393)">
          <path
             style="fill:#ffffff;fill-opacity:1;stroke-width:1.9;stroke-linecap:round;stroke-linejoin:round;stroke-miterlimit:5"
             d="m 84.194344,34.584969 v 8.409823 h 13.134599 v -8.409823 z"
             id="path94"
             inkscape:label="colhead" />
          <path
             style="fill:url(#linearGradient125);fill-opacity:1;stroke:url(#linearGradient135);stroke-width:0.8;stroke-linecap:round;stroke-linejoin:round;stroke-miterlimit:5;stroke-dasharray:none;stroke-opacity:1"
             d="m 84.194344,34.584969 v 8.409823 h 13.134599 v -8.409823 z"
             id="path95" />
        </g>
      </g>
      <path
         id="rect13"
         style="fill:url(#linearGradient41);stroke-width:1.9;stroke-linecap:round;stroke-linejoin:round;stroke-miterlimit:5"
         inkscape:label="shadow"
         d="M 78.176338,8.2853556 H 128.55664 V 65.080129 H 78.176338 Z" />
    </g>
    <path
       id="rect3"
       style="fill:#0365ae;fill-opacity:1;stroke-width:1.9;stroke-linecap:round;stroke-linejoin:round;stroke-miterlimit:5"
       d="M 62.808338,64.946495 H 144.05827 V 234.66264 c 0,7.16421 -4.27879,12.42803 -11.09168,12.42803 l -56.794777,-0.13363 c -7.63087,0 -13.363475,-4.3129 -13.363475,-12.2944 z"
       sodipodi:nodetypes="ccccccc"
       inkscape:label="colorhead" />
    <path
       id="path12"
       style="display:inline;fill:#eff1f3;fill-opacity:1;stroke-width:0.825191;stroke-miterlimit:2.1"
       d="m 104.68425,106.47448 -1.29805,9.5e-4 -7.429425,19.45158 h 5.322135 v 43.12901 l -3.183984,0.1031 c -0.543432,-0.18926 -1.928424,-1.21434 -3.152743,-2.59639 -1.20421,-1.35938 -2.303876,-3.05404 -2.76946,-4.37381 l 0.03124,-5.78082 c 2.118661,-1.36893 3.491402,-4.10234 3.497543,-7.13202 v -0.002 -0.003 c 1.3e-5,-4.4418 -2.89462,-8.06748 -6.440357,-8.06747 -3.545672,1e-4 -6.439989,3.62575 -6.439976,8.06747 v 9.7e-4 c 0.0013,2.86127 1.251811,5.43088 3.189318,6.87236 l 0.01295,6.45905 0.04343,0.17085 c 0.490934,1.92395 1.901064,4.85216 3.937594,7.70285 2.036533,2.85068 4.684714,5.5597 7.72279,6.45236 l 0.08115,0.0238 3.470495,0.22479 v 1.02569 c -1.16257,0.39593 -2.318403,0.99876 -3.262852,2.05229 -1.149309,1.2821 -1.957938,3.18124 -1.957938,5.54076 0,2.83134 1.170007,4.96831 2.682211,6.24522 1.512209,1.27691 3.339139,1.81783 4.947619,1.86856 1.73078,0.0546 3.73333,-0.48704 5.40214,-1.77071 1.66882,-1.28367 3.00987,-3.45831 3.00987,-6.34307 0,-2.1037 -0.71419,-3.86416 -1.74839,-5.12217 -0.85577,-1.04098 -1.92792,-1.70964 -3.03121,-2.19215 v -12.19978 l 4.07247,0.0372 h 0.003 c 2.86039,0 5.59903,-2.56974 7.71098,-5.59229 2.11196,-3.02257 3.65865,-6.47814 3.58212,-9.36473 l 7.6e-4,0.0334 -0.0312,-9.71888 h 2.16368 V 128.4907 h -10.96773 v 13.18679 h 2.2795 v 9.59717 c 0,0.18461 -0.16592,0.92294 -0.52235,1.72824 -0.35643,0.80531 -0.86995,1.72307 -1.43407,2.56491 -0.56412,0.84184 -1.18272,1.61174 -1.72286,2.13678 -0.54015,0.52505 -1.03793,0.72547 -1.05879,0.72547 l 0.0141,9.6e-4 -4.08962,-0.0754 v -32.43076 h 5.21165 z m 0.78676,17.13485 h 4.0538 l 3.8e-4,9.7e-4 h -4.05418 v -4.8e-4 z m -6.579803,9.7e-4 h 4.237433 v 4.7e-4 h -4.237433 z m 16.812213,15.75218 h 2.27988 v 4.7e-4 4.7e-4 h -2.27988 z m 5.09849,0 h 2.17091 v 9.4e-4 h -2.17091 v -4.7e-4 z M 93.645654,147.555 c 0.04455,0.18015 0.08227,0.36433 0.112774,0.55173 0.05814,0.35723 0.08794,0.72723 0.09106,1.10587 -0.0015,-0.17964 -0.0076,-0.35791 -0.02172,-0.53314 v -4.6e-4 c -0.01566,-0.19372 -0.03888,-0.38438 -0.06934,-0.57179 v -4.8e-4 c -0.03047,-0.1874 -0.06825,-0.37158 -0.112774,-0.55173 z m -0.05906,3.5987 c -0.133152,0.47662 -0.307944,0.93177 -0.533395,1.34545 0.126733,-0.2325 0.239928,-0.47681 0.338325,-0.73072 v -4.6e-4 c 0.07665,-0.19783 0.136677,-0.4057 0.19507,-0.61427 z m 27.254556,0.28829 c 0.0106,0.40025 -0.06,0.91433 -0.20154,1.50294 0.0709,-0.29433 0.1237,-0.5702 0.15773,-0.82236 v -4.7e-4 c 0.034,-0.25194 0.0491,-0.48008 0.0438,-0.68011 z m -35.666568,0.42286 c 0.06838,0.16849 0.135324,0.33814 0.216406,0.49732 v 4.8e-4 c -0.08116,-0.15938 -0.148106,-0.32899 -0.216406,-0.4978 z m 0.216406,0.49827 c 0.115115,0.22595 0.243035,0.4417 0.38252,0.64577 v 4.7e-4 c -0.139542,-0.20418 -0.267373,-0.42016 -0.38252,-0.64624 z m 35.248622,0.58277 c -0.0708,0.29436 -0.1597,0.60726 -0.2648,0.93404 v -4.8e-4 c 0.10507,-0.32665 0.19397,-0.6393 0.2648,-0.93356 z m -34.866097,0.064 c 0.139521,0.20407 0.291222,0.39585 0.453385,0.57463 0.3246,0.35787 0.692748,0.6617 1.09765,0.89777 l 0.533013,0.31023 v 4.9e-4 4.6e-4 l -0.533013,-0.31022 c -0.607355,-0.35409 -1.132175,-0.86057 -1.551035,-1.47336 z m 6.859453,0.15034 c -0.0034,0.005 -0.0073,0.009 -0.01067,0.0129 0.0034,-0.005 0.0073,-0.009 0.01067,-0.0129 z m -0.443099,0.51785 c -0.04886,0.0507 -0.09983,0.0977 -0.150493,0.14605 0.05054,-0.0482 0.101742,-0.0954 0.150493,-0.14605 z m 28.184943,0.20236 c -0.21028,0.65375 -0.48678,1.36257 -0.81914,2.08714 v -4.6e-4 c 0.16617,-0.36222 0.31838,-0.72064 0.45529,-1.07007 v -4.8e-4 c 0.13684,-0.34927 0.25875,-0.68943 0.36385,-1.01613 z m -28.701192,0.25774 c -0.05568,0.0431 -0.110246,0.0872 -0.167639,0.12742 0.05726,-0.0402 0.112084,-0.0844 0.167639,-0.12742 z m -0.712843,0.45818 c -0.0058,0.002 -0.01093,0.008 -0.01677,0.01 l -0.58178,0.28732 v -4.6e-4 l 0.58178,-0.28732 c 0.0058,-0.003 0.01101,-0.006 0.01677,-0.01 z m 28.594895,1.37171 c -0.16617,0.36224 -0.34658,0.7282 -0.53949,1.09345 v -4.8e-4 c 0.19285,-0.36512 0.37336,-0.73084 0.53949,-1.09297 z m -0.53949,1.09393 c -0.19292,0.36525 -0.39855,0.72927 -0.61569,1.08772 v -4.8e-4 c 0.21709,-0.35835 0.42282,-0.72209 0.61569,-1.08724 z m -0.61569,1.0882 c -0.21716,0.35846 -0.44617,0.71101 -0.68503,1.05288 v -4.7e-4 c 0.2388,-0.34178 0.46793,-0.69406 0.68503,-1.05241 z m -0.68503,1.05336 c -0.26788,0.38338 -0.54912,0.74927 -0.83705,1.10252 0.0312,-0.0383 0.0639,-0.073 0.0949,-0.11162 0.25503,-0.31816 0.50336,-0.64907 0.74218,-0.99084 z m -4.79636,0.92115 c -0.0835,0.0658 -0.16849,0.13069 -0.25374,0.18805 0.0855,-0.0576 0.1699,-0.12201 0.25374,-0.18805 z m -0.42062,0.29591 c -0.14353,0.0844 -0.29099,0.15569 -0.44386,0.20906 0.15294,-0.0534 0.30029,-0.1244 0.44386,-0.20906 z m -0.50596,0.23483 c -0.18511,0.0581 -0.37889,0.0903 -0.58445,0.0916 0.20554,-0.001 0.39935,-0.0334 0.58445,-0.0916 z m 4.25001,0.39042 c -0.0953,0.10435 -0.19237,0.19904 -0.2888,0.29925 0.0963,-0.1 0.19365,-0.19509 0.2888,-0.29925 z m -0.76389,0.77749 c -0.10709,0.10172 -0.21423,0.19477 -0.32195,0.29066 0.10751,-0.0957 0.21508,-0.18919 0.32195,-0.29066 z m -27.606981,0.37418 c 0.09143,0.32927 0.242011,0.75361 0.444622,1.24569 v 4.9e-4 c -0.202642,-0.4922 -0.353237,-0.91694 -0.444622,-1.24618 z m 26.829361,0.30593 c -0.11281,0.0909 -0.22479,0.17542 -0.33756,0.25917 0.11252,-0.0836 0.22499,-0.16845 0.33756,-0.25917 z m -0.77914,0.56797 c -0.11327,0.0744 -0.22547,0.14658 -0.33794,0.21286 0.11224,-0.0661 0.22491,-0.13854 0.33794,-0.21286 z m -25.605599,0.37276 c 0.202697,0.49224 0.457904,1.05167 0.758944,1.65043 v 4.9e-4 c -0.301085,-0.59888 -0.556248,-1.15863 -0.758944,-1.65092 z m 24.825699,0.0759 c -0.10736,0.0531 -0.21451,0.10861 -0.32042,0.1532 0.10569,-0.0446 0.21328,-0.10022 0.32042,-0.1532 z m -22.488669,0.096 c 0.06277,0.154 0.135894,0.30597 0.206118,0.45866 -0.07032,-0.15264 -0.143354,-0.3047 -0.206118,-0.45866 z m 21.707249,0.21716 c -0.0906,0.0276 -0.18274,0.0636 -0.27165,0.0841 0.0888,-0.0204 0.18115,-0.0565 0.27165,-0.0841 z m -6.88955,0.11688 5.92487,0.0544 c 0.0202,0 0.0422,-0.006 0.0625,-0.008 -0.0202,4.5e-4 -0.0424,0.008 -0.0625,0.008 l -5.92487,-0.0544 v -4.9e-4 z m -16.395785,1.14546 c 0.301098,0.59885 0.648595,1.23627 1.035166,1.88527 v 4.7e-4 c -0.386624,-0.64909 -0.734048,-1.28682 -1.035166,-1.88574 z m 1.035166,1.88622 c 0.193246,0.32441 0.396644,0.65157 0.608832,0.97795 v 4.7e-4 c -0.212248,-0.32647 -0.415539,-0.65391 -0.608832,-0.97842 z m 0.608832,0.97891 c 0.212207,0.32638 0.433773,0.65139 0.663314,0.97269 v 4.8e-4 c -0.229601,-0.32141 -0.451057,-0.6467 -0.663314,-0.97317 z m 0.663314,0.97365 c 0.23406,0.32761 0.477225,0.65056 0.727321,0.96745 0.03755,0.0476 0.07756,0.0926 0.115443,0.13984 -0.290209,-0.3621 -0.573561,-0.73047 -0.842764,-1.10729 z m 4.386788,1.38364 c 0.333738,0.2712 0.663093,0.50586 0.987161,0.69635 -0.0012,-6.9e-4 -0.0023,-0.001 -0.0034,-0.003 -0.321958,-0.18952 -0.649567,-0.42286 -0.981064,-0.69205 -8.77e-4,-7.1e-4 -0.0018,-0.001 -0.0027,-0.002 z m -2.942051,0.44769 c 0.0974,0.11186 0.198432,0.21776 0.297558,0.32693 -0.09923,-0.10924 -0.200057,-0.21499 -0.297558,-0.32693 z m 0.756658,0.82044 c 0.112835,0.11613 0.227891,0.22683 0.342515,0.33887 -0.114741,-0.11212 -0.229568,-0.22257 -0.342515,-0.33887 z m 0.792091,0.76556 c 0.119026,0.10823 0.239507,0.21201 0.360041,0.315 -0.120748,-0.1031 -0.240806,-0.20662 -0.360041,-0.315 z m 0.821809,0.693 c 0.120367,0.0943 0.240838,0.18695 0.362327,0.2754 -0.121598,-0.0886 -0.241852,-0.18094 -0.362327,-0.2754 z m 0.843906,0.60425 c 0.120587,0.0787 0.24099,0.15931 0.362327,0.23148 -0.121482,-0.0723 -0.241596,-0.15268 -0.362327,-0.23148 z m 0.886197,0.51354 c 0.107905,0.0549 0.215236,0.1165 0.323465,0.16562 -0.108282,-0.0491 -0.215506,-0.11074 -0.323465,-0.16562 z m 1.080504,0.45629 c 0.03141,0.01 0.0627,0.0258 0.09411,0.0353 l 5.026101,0.32598 v 4.9e-4 4.6e-4 l -5.026101,-0.32598 c -0.03142,-0.01 -0.06269,-0.0262 -0.09411,-0.0363 z m 12.061961,9.67353 c 0.0228,0.0882 0.0393,0.18187 0.0579,0.27349 -0.0187,-0.0917 -0.0351,-0.18532 -0.0579,-0.27349 z m 0.029,2.90426 c -0.0494,0.21337 -0.11067,0.41739 -0.1825,0.61283 v -4.8e-4 c 0.0718,-0.1953 0.13307,-0.39914 0.1825,-0.61235 z m -0.1825,0.6133 c -0.14373,0.39099 -0.33091,0.747 -0.55511,1.07341 v -4.8e-4 c 0.11208,-0.16314 0.21473,-0.33346 0.30746,-0.51212 v -4.9e-4 c 0.0927,-0.17854 0.17583,-0.36504 0.24765,-0.56032 z m -0.55511,1.07388 c -0.33643,0.48972 -0.75668,0.9123 -1.23976,1.28389 -0.21902,0.16848 -0.45395,0.31639 -0.69456,0.45533 0.2406,-0.13888 0.47554,-0.2878 0.69456,-0.45628 0.32205,-0.24773 0.61597,-0.51788 0.87591,-0.81568 0.12983,-0.14874 0.2518,-0.3042 0.36385,-0.46726 z m -10.65303,0.0306 c 0.09304,0.14761 0.192183,0.28929 0.298701,0.42382 0.227703,0.28756 0.484827,0.5466 0.766183,0.78418 0.284066,0.23985 0.594396,0.44937 0.920486,0.63 -0.32587,-0.18057 -0.63659,-0.38933 -0.920486,-0.62905 -0.413209,-0.34892 -0.773022,-0.74532 -1.064884,-1.20895 z m 8.56022,1.79791 c -0.4625,0.2508 -0.95001,0.44396 -1.44284,0.58801 0.49213,-0.1438 0.98096,-0.33772 1.44284,-0.58801 z m -5.58959,0.48397 c 0.69043,0.24672 1.40311,0.37891 2.05547,0.39948 0.004,1.1e-4 0.007,-1e-4 0.0107,0 0.33584,0.01 0.6932,-0.0125 1.06031,-0.0649 0.0366,-0.005 0.0745,-0.017 0.11125,-0.0229 -0.40953,0.0655 -0.80992,0.10047 -1.18223,0.0888 -0.65256,-0.0205 -1.36485,-0.15357 -2.05547,-0.40043 z" />
    <path
       id="path5"
       style="fill:url(#linearGradient8);stroke-width:1.9;stroke-linecap:round;stroke-linejoin:round;stroke-miterlimit:5"
       d="M 65.265183,67.592328 H 141.9794 l -0.75595,166.503352 c 0,4.70736 -6.54665,9.7822 -10.90269,9.7822 l -53.959959,0.0554 c -6.307953,0 -10.90663,-5.06886 -10.90663,-9.64857 z"
       sodipodi:nodetypes="ccccccc" />
  </g>
</svg>
