<?xml version="1.0" encoding="UTF-8" standalone="no"?>
<!-- Created with Inkscape (http://www.inkscape.org/) -->

<svg
   width="256mm"
   height="256mm"
   viewBox="0 0 256 256"
   version="1.1"
   id="svg1"
   inkscape:version="1.3.2 (091e20ef0f, 2023-11-25)"
   sodipodi:docname="input-keyboard-virtual-w2k.svg"
   xmlns:inkscape="http://www.inkscape.org/namespaces/inkscape"
   xmlns:sodipodi="http://sodipodi.sourceforge.net/DTD/sodipodi-0.dtd"
   xmlns="http://www.w3.org/2000/svg"
   xmlns:svg="http://www.w3.org/2000/svg"
   xmlns:rdf="http://www.w3.org/1999/02/22-rdf-syntax-ns#"
   xmlns:cc="http://creativecommons.org/ns#"
   xmlns:dc="http://purl.org/dc/elements/1.1/">
  <defs
     id="defs1" />
  <sodipodi:namedview
     id="base"
     pagecolor="#ffffff"
     bordercolor="#000000"
     borderopacity="0.3"
     inkscape:pageopacity="0.0"
     inkscape:pageshadow="2"
     inkscape:zoom="0.98994949"
     inkscape:cx="505.07627"
     inkscape:cy="476.792"
     inkscape:document-units="mm"
     inkscape:showpageshadow="2"
     inkscape:pagecheckerboard="0"
     inkscape:deskcolor="#d1d1d1"
     inkscape:current-layer="svg1" />
  <metadata
     id="metadata1">
    <rdf:RDF>
      <cc:Work
         rdf:about="">
        <dc:format>image/svg+xml</dc:format>
        <dc:type
           rdf:resource="http://purl.org/dc/dcmitype/StillImage" />
        <cc:license
           rdf:resource="http://creativecommons.org/publicdomain/zero/1.0/" />
      </cc:Work>
      <cc:License
         rdf:about="http://creativecommons.org/publicdomain/zero/1.0/">
        <cc:permits
           rdf:resource="http://creativecommons.org/ns#Reproduction" />
        <cc:permits
           rdf:resource="http://creativecommons.org/ns#Distribution" />
        <cc:permits
           rdf:resource="http://creativecommons.org/ns#DerivativeWorks" />
      </cc:License>
    </rdf:RDF>
  </metadata>
  <g
     id="g1"
     transform="matrix(0.86563897,0,0,0.86563897,18.640486,17.362668)"
     inkscape:label="virkbw2k">
    <path
       d="M -4.9061217,68.710747 H 10.588678 m 15.49471,30.98948 h 15.4948 m 15.4947,0 h 15.4947 m 15.4948,0 h 15.494702 m 15.4947,0 h 15.4948 m 15.4947,0 h 15.4948 m 15.4947,0 h 15.4947 m 15.4948,0 h 15.4947 M 26.083388,130.68971 h 15.4948 m 15.4947,0 h 15.4947 m 15.4948,0 h 15.494702 m 15.4947,0 h 15.4948 m 15.4947,0 h 15.4948 m 15.4947,0 h 15.4947 m 15.4948,0 h 15.4947 M 26.083388,161.67919 h 15.4948 m 30.9894,0 h 15.4948 m 108.463102,0 h 15.4948 M 10.588678,68.710747 H 243.00979 M -4.9061217,84.205487 H 10.588678 M -4.9061217,99.700227 H 10.588678 M -4.9061217,115.19497 H 10.588678 M -4.9061217,130.68971 H 10.588678 M -4.9061217,146.18445 H 10.588678 M -4.9061217,161.67919 H 10.588678 m 30.98951,0 h 15.4947 m 30.9895,0 h 92.968402 m 30.9895,0 h 15.4947 M 258.5045,68.710747 h 15.4947 m -46.48421,15.49474 h 15.4948 m 15.49471,0 h 15.4947 M 41.578188,99.700227 h 15.4947 m 15.4947,0 h 15.4948 m 15.494702,0 h 15.4947 m 15.4948,0 h 15.4947 m 15.4948,0 h 15.4947 m 15.4947,0 h 15.4948 m 15.4947,0 h 15.4948 m 15.49471,0 h 15.4947 M 26.083388,115.19497 H 243.00979 m 15.49471,0 h 15.4947 M 41.578188,130.68971 h 15.4947 m 15.4947,0 h 15.4948 m 15.494702,0 h 15.4947 m 15.4948,0 h 15.4947 m 15.4948,0 h 15.4947 m 15.4947,0 h 15.4948 m 15.4947,0 h 15.4948 m 15.49471,0 h 15.4947 M 26.083388,146.18445 H 243.00979 m 15.49471,0 h 15.4947 M 57.072888,161.67919 h 15.4947 m 108.463202,0 h 15.4947 m 30.9895,0 h 15.4948 m 15.49471,0 h 15.4947 m -15.4947,15.49474 h 15.4947 M -4.9061217,192.66867 H 258.5045 M -4.9061217,53.216007 H 258.5045 m -278.905322,15.49474 h 15.4947003 m 247.9159117,0 h 15.49471 m -278.905322,15.49474 h 15.4947003 m 15.4947997,0 H 227.51499 m 15.4948,0 h 15.49471 m -278.905322,15.49474 h 15.4947003 m 15.4947997,0 h 15.49471 m 216.926402,0 H 258.5045 M -20.400822,115.19497 h 15.4947003 m 15.4947997,0 h 15.49471 m 216.926402,0 h 15.49471 m -278.905322,15.49474 h 15.4947003 m 15.4947997,0 h 15.49471 m 216.926402,0 h 15.49471 m -278.905322,15.49474 h 15.4947003 m 15.4947997,0 h 15.49471 m 216.926402,0 h 15.49471 m -278.905322,15.49474 h 15.4947003 m 15.4947997,0 h 15.49471 m 216.926402,0 H 258.5045 M -20.400822,177.17393 H 258.5045"
       style="display:inline;stroke:#000000;stroke-width:15.4947;shape-rendering:crispEdges"
       id="path1" />
    <path
       stroke="#ffffff"
       d="M -4.8896574,68.816036 H 10.605143 m 15.4947,30.98948 h 15.4948 m 15.4947,0 h 15.4947 m 15.4948,0 h 15.494697 m 15.4947,0 h 15.4948 m 15.4947,0 h 15.4948 m 15.4947,0 h 15.4947 m 15.4948,0 h 15.4947 M 26.099843,130.795 h 15.4948 m 15.4947,0 h 15.4947 m 15.4948,0 h 15.494697 m 15.4947,0 h 15.4948 m 15.4947,0 h 15.4948 m 15.4947,0 h 15.4947 m 15.4948,0 h 15.4947 M 26.099843,161.78448 h 15.4948 m 30.9894,0 h 15.4948 m 108.463097,0 h 15.4948"
       id="path13781"
       style="stroke-width:15.4947;shape-rendering:crispEdges"
       sodipodi:nodetypes="cccccccccccccccccccccccccccccccccccc" />
    <path
       stroke="#c0c0c0"
       d="M 10.565948,68.729317 H 242.98705 M -4.9288517,84.224057 H 10.565948 M -4.9288517,99.718797 H 10.565948 M -4.9288517,115.21353 H 10.565948 M -4.9288517,130.70827 H 10.565948 M -4.9288517,146.20301 H 10.565948 M -4.9288517,161.69775 H 10.565948 m 30.9895,0 h 15.4947 m 30.9895,0 h 92.968402 m 30.9895,0 h 15.4947"
       id="path13779"
       style="stroke-width:15.4947;shape-rendering:crispEdges"
       sodipodi:nodetypes="cccccccccccccccccccc" />
    <path
       stroke="#808080"
       d="M -4.8947446,53.238923 H 258.51586 m -278.905304,15.49474 h 15.4946994 m 247.9159046,0 h 15.4947 m -278.905304,15.49474 h 15.4946994 m 15.4948006,0 H 227.52636 m 15.4948,0 h 15.4947 m -278.905304,15.49474 h 15.4946994 m 15.4948006,0 h 15.4947 m 216.926404,0 h 15.4947 M -20.389444,115.21788 h 15.4946994 m 15.4948006,0 h 15.4947 m 216.926404,0 h 15.4947 m -278.905304,15.49474 h 15.4946994 m 15.4948006,0 h 15.4947 m 216.926404,0 h 15.4947 m -278.905304,15.49474 h 15.4946994 m 15.4948006,0 h 15.4947 m 216.926404,0 h 15.4947 M -20.389444,161.7021 h 15.4946994 m 15.4948006,0 h 15.4947 m 216.926404,0 h 15.4947 M -20.389444,177.19684 H 258.51586"
       id="path13777"
       style="stroke-width:15.4947;shape-rendering:crispEdges"
       sodipodi:nodetypes="cccccccccccccccccccccccccccccccccccccccccccc" />
  </g>
</svg>
