<?xml version="1.0" encoding="UTF-8" standalone="no"?>
<!-- Created with Inkscape (http://www.inkscape.org/) -->

<svg
   width="256mm"
   height="256mm"
   viewBox="0 0 256 256"
   version="1.1"
   id="svg1"
   inkscape:version="1.3.2 (091e20ef0f, 2023-11-25)"
   sodipodi:docname="joystick.svg"
   xmlns:inkscape="http://www.inkscape.org/namespaces/inkscape"
   xmlns:sodipodi="http://sodipodi.sourceforge.net/DTD/sodipodi-0.dtd"
   xmlns:xlink="http://www.w3.org/1999/xlink"
   xmlns="http://www.w3.org/2000/svg"
   xmlns:svg="http://www.w3.org/2000/svg"
   xmlns:rdf="http://www.w3.org/1999/02/22-rdf-syntax-ns#"
   xmlns:cc="http://creativecommons.org/ns#"
   xmlns:dc="http://purl.org/dc/elements/1.1/">
  <defs
     id="defs1">
    <linearGradient
       id="linearGradient15"
       inkscape:collect="always">
      <stop
         style="stop-color:#1b1b1b;stop-opacity:1;"
         offset="0"
         id="stop15" />
      <stop
         style="stop-color:#1b1b1b;stop-opacity:1;"
         offset="0.5"
         id="stop17" />
      <stop
         style="stop-color:#8d8d8d;stop-opacity:1;"
         offset="0.75"
         id="stop18" />
      <stop
         style="stop-color:#1b1b1b;stop-opacity:1;"
         offset="1"
         id="stop16" />
    </linearGradient>
    <linearGradient
       id="linearGradient12"
       inkscape:collect="always">
      <stop
         style="stop-color:#656565;stop-opacity:1;"
         offset="0"
         id="stop13" />
      <stop
         style="stop-color:#343434;stop-opacity:1;"
         offset="1"
         id="stop14" />
    </linearGradient>
    <linearGradient
       id="linearGradient7"
       inkscape:collect="always">
      <stop
         style="stop-color:#2c2c2c;stop-opacity:1;"
         offset="0"
         id="stop8" />
      <stop
         style="stop-color:#2c2c2c;stop-opacity:1;"
         offset="0.5"
         id="stop10" />
      <stop
         style="stop-color:#7c7c7c;stop-opacity:1;"
         offset="0.75"
         id="stop11" />
      <stop
         style="stop-color:#2c2c2c;stop-opacity:1;"
         offset="0.875"
         id="stop12" />
      <stop
         style="stop-color:#2c2c2c;stop-opacity:1;"
         offset="1"
         id="stop9" />
    </linearGradient>
    <linearGradient
       id="linearGradient2"
       inkscape:collect="always">
      <stop
         style="stop-color:#2d2d2d;stop-opacity:1;"
         offset="0"
         id="stop2" />
      <stop
         style="stop-color:#2d2d2d;stop-opacity:1;"
         offset="0.5"
         id="stop4" />
      <stop
         style="stop-color:#696969;stop-opacity:1;"
         offset="0.75"
         id="stop5" />
      <stop
         style="stop-color:#2d2d2d;stop-opacity:1;"
         offset="1"
         id="stop3" />
    </linearGradient>
    <filter
       inkscape:collect="always"
       x="-0.1484134"
       width="1.2968263"
       y="-0.24646763"
       height="1.4929353"
       id="filter4348">
      <feGaussianBlur
         inkscape:collect="always"
         stdDeviation="7.4419318"
         id="feGaussianBlur4350" />
    </filter>
    <filter
       inkscape:collect="always"
       x="-0.4438375"
       width="1.887675"
       y="-0.45917523"
       height="1.9183505"
       id="filter4803">
      <feGaussianBlur
         inkscape:collect="always"
         stdDeviation="10.573543"
         id="feGaussianBlur4805" />
    </filter>
    <filter
       inkscape:collect="always"
       x="-0.62925527"
       width="2.2585105"
       y="-0.51590856"
       height="2.0318171"
       id="filter6428">
      <feGaussianBlur
         inkscape:collect="always"
         stdDeviation="9.2761242"
         id="feGaussianBlur6430" />
    </filter>
    <filter
       inkscape:collect="always"
       x="-0.33476303"
       width="1.6695261"
       y="-0.16403807"
       height="1.3280761"
       id="filter6394">
      <feGaussianBlur
         inkscape:collect="always"
         stdDeviation="6.4697238"
         id="feGaussianBlur6396" />
    </filter>
    <linearGradient
       inkscape:collect="always"
       xlink:href="#linearGradient4815"
       id="linearGradient5966"
       gradientUnits="userSpaceOnUse"
       gradientTransform="translate(-277.66895,115.96349)"
       x1="486.61325"
       y1="349.93835"
       x2="540.17181"
       y2="349.93835" />
    <linearGradient
       id="linearGradient4815">
      <stop
         style="stop-color:#222222;stop-opacity:1;"
         offset="0"
         id="stop4817" />
      <stop
         id="stop4823"
         offset="0.5"
         style="stop-color:#3c3c3c;stop-opacity:1;" />
      <stop
         style="stop-color:#272727;stop-opacity:1;"
         offset="1"
         id="stop4819" />
    </linearGradient>
    <linearGradient
       inkscape:collect="always"
       xlink:href="#linearGradient4849"
       id="linearGradient5962"
       gradientUnits="userSpaceOnUse"
       gradientTransform="translate(-277.66895,115.96349)"
       x1="446.28607"
       y1="265.48898"
       x2="633.42169"
       y2="265.48898" />
    <linearGradient
       id="linearGradient4849">
      <stop
         id="stop4851"
         offset="0"
         style="stop-color:#646464;stop-opacity:1;" />
      <stop
         style="stop-color:#3f3f3f;stop-opacity:1;"
         offset="0.10714286"
         id="stop4855" />
      <stop
         id="stop4859"
         offset="0.4419643"
         style="stop-color:#2f2f2f;stop-opacity:1;" />
      <stop
         id="stop4857"
         offset="0.77678573"
         style="stop-color:#414141;stop-opacity:1;" />
      <stop
         id="stop4853"
         offset="1"
         style="stop-color:#5c5c5c;stop-opacity:1;" />
    </linearGradient>
    <radialGradient
       inkscape:collect="always"
       xlink:href="#linearGradient4263"
       id="radialGradient5886"
       gradientUnits="userSpaceOnUse"
       gradientTransform="matrix(-1.7307741,-0.2294745,0.08673396,-0.630445,1082.8931,1382.6471)"
       cx="420.35132"
       cy="788.74188"
       fx="420.35132"
       fy="788.74188"
       r="12.734222" />
    <linearGradient
       id="linearGradient4263">
      <stop
         style="stop-color:#a80000;stop-opacity:1;"
         offset="0"
         id="stop4265" />
      <stop
         style="stop-color:#ff0000;stop-opacity:1;"
         offset="1"
         id="stop4267" />
    </linearGradient>
    <radialGradient
       inkscape:collect="always"
       xlink:href="#linearGradient4263"
       id="radialGradient5888"
       gradientUnits="userSpaceOnUse"
       gradientTransform="matrix(-1.4160593,-0.8495626,0.3639617,-0.4842825,703.94293,1531.5669)"
       cx="411.51947"
       cy="797.64575"
       fx="411.51947"
       fy="797.64575"
       r="12.734222" />
    <linearGradient
       inkscape:collect="always"
       xlink:href="#linearGradient5739"
       id="linearGradient5953"
       gradientUnits="userSpaceOnUse"
       x1="532.85498"
       y1="475.04446"
       x2="649.21539"
       y2="475.04446"
       gradientTransform="translate(-456.81194,150.41406)" />
    <linearGradient
       id="linearGradient5739">
      <stop
         style="stop-color:#e5bc00;stop-opacity:1;"
         offset="0"
         id="stop5741" />
      <stop
         style="stop-color:#b39300;stop-opacity:1;"
         offset="1"
         id="stop5743" />
    </linearGradient>
    <radialGradient
       inkscape:collect="always"
       xlink:href="#linearGradient4951"
       id="radialGradient5950"
       gradientUnits="userSpaceOnUse"
       gradientTransform="matrix(-2.559583,-1.2328375,0.76982935,-1.5983031,1385.0272,2021.8854)"
       cx="602.22821"
       cy="398.90161"
       fx="602.22821"
       fy="398.90161"
       r="49.225674" />
    <linearGradient
       id="linearGradient4951">
      <stop
         id="stop4953"
         offset="0"
         style="stop-color:#4e4e4e;stop-opacity:1;" />
      <stop
         id="stop6"
         offset="0.5"
         style="stop-color:#0a0a0a;stop-opacity:1;" />
      <stop
         id="stop7"
         offset="0.75"
         style="stop-color:#8b8b8b;stop-opacity:1;" />
      <stop
         id="stop4955"
         offset="1"
         style="stop-color:#1a1a1a;stop-opacity:1;" />
    </linearGradient>
    <filter
       inkscape:collect="always"
       x="-0.19352797"
       width="1.3870559"
       y="-0.048111227"
       height="1.0962225"
       id="filter4437">
      <feGaussianBlur
         inkscape:collect="always"
         stdDeviation="5.450357"
         id="feGaussianBlur4439" />
    </filter>
    <filter
       inkscape:collect="always"
       x="-0.26669836"
       width="1.5333967"
       y="-0.16963841"
       height="1.3392768"
       id="filter4365">
      <feGaussianBlur
         inkscape:collect="always"
         stdDeviation="14.271207"
         id="feGaussianBlur4367" />
    </filter>
    <linearGradient
       inkscape:collect="always"
       xlink:href="#linearGradient4443"
       id="linearGradient5938"
       gradientUnits="userSpaceOnUse"
       x1="543.00781"
       y1="122.59393"
       x2="699.45233"
       y2="122.59393"
       gradientTransform="translate(-456.81194,150.41406)" />
    <linearGradient
       id="linearGradient4443">
      <stop
         style="stop-color:#494949;stop-opacity:1;"
         offset="0"
         id="stop4445" />
      <stop
         style="stop-color:#0c0c0c;stop-opacity:1;"
         offset="1"
         id="stop4447" />
    </linearGradient>
    <radialGradient
       inkscape:collect="always"
       xlink:href="#linearGradient3286"
       id="radialGradient5896"
       gradientUnits="userSpaceOnUse"
       gradientTransform="matrix(1,0,0,0.645164,0,189.28838)"
       cx="342.21497"
       cy="533.45312"
       fx="342.21497"
       fy="533.45312"
       r="8.0551605" />
    <linearGradient
       inkscape:collect="always"
       id="linearGradient3286">
      <stop
         style="stop-color:#000000;stop-opacity:1;"
         offset="0"
         id="stop3288" />
      <stop
         style="stop-color:#000000;stop-opacity:0;"
         offset="1"
         id="stop3290" />
    </linearGradient>
    <radialGradient
       inkscape:collect="always"
       xlink:href="#linearGradient4263"
       id="radialGradient5898"
       gradientUnits="userSpaceOnUse"
       gradientTransform="matrix(-1.7741757,0.2853047,-0.3277277,-1.1715107,1128.6087,1064.3078)"
       cx="342.81323"
       cy="534.9505"
       fx="342.81323"
       fy="534.9505"
       r="8.0551605" />
    <radialGradient
       inkscape:collect="always"
       xlink:href="#linearGradient4263"
       id="radialGradient5932"
       gradientUnits="userSpaceOnUse"
       gradientTransform="matrix(1.5242869,2.6503787,-1.504356,0.8651857,-235.14023,-548.29192)"
       cx="250.34624"
       cy="-66.201515"
       fx="250.34624"
       fy="-66.201515"
       r="18.193584" />
    <linearGradient
       inkscape:collect="always"
       xlink:href="#linearGradient668"
       id="linearGradient5902"
       gradientUnits="userSpaceOnUse"
       gradientTransform="scale(1.172603,0.852803)"
       spreadMethod="pad"
       x1="296.4418"
       y1="486.10043"
       x2="270.52515"
       y2="505.45798" />
    <linearGradient
       id="linearGradient668">
      <stop
         style="stop-color:#126900;stop-opacity:1;"
         offset="0"
         id="stop669" />
      <stop
         id="stop4502"
         offset="1"
         style="stop-color:#8bc47f;stop-opacity:1;" />
    </linearGradient>
    <radialGradient
       inkscape:collect="always"
       xlink:href="#linearGradient2"
       id="radialGradient5"
       cx="144.81039"
       cy="642.15802"
       fx="144.81039"
       fy="642.15802"
       r="49.167923"
       gradientTransform="matrix(2.2745191,0.74363278,-0.51124317,1.5637185,161.06233,-467.60173)"
       gradientUnits="userSpaceOnUse" />
    <radialGradient
       inkscape:collect="always"
       xlink:href="#linearGradient7"
       id="radialGradient9"
       cx="253.50931"
       cy="598.60431"
       fx="253.50931"
       fy="598.60431"
       r="223.19242"
       gradientTransform="matrix(1.5251067,0.24354206,-0.19809755,1.2405246,-8.550326,-198.41727)"
       gradientUnits="userSpaceOnUse" />
    <linearGradient
       inkscape:collect="always"
       xlink:href="#linearGradient12"
       id="linearGradient14"
       x1="145.03568"
       y1="435.72586"
       x2="358.88742"
       y2="574.8949"
       gradientUnits="userSpaceOnUse" />
    <radialGradient
       inkscape:collect="always"
       xlink:href="#linearGradient15"
       id="radialGradient16"
       cx="278.99905"
       cy="374.11621"
       fx="278.99905"
       fy="374.11621"
       r="92.363907"
       gradientTransform="matrix(1.6782342,0.34745535,-0.25510326,1.232167,-82.171604,-180.06296)"
       gradientUnits="userSpaceOnUse" />
    <filter
       inkscape:collect="always"
       style="color-interpolation-filters:sRGB"
       id="filter18"
       x="-0.17560882"
       y="-0.50089505"
       width="1.3512176"
       height="2.0017901">
      <feGaussianBlur
         inkscape:collect="always"
         stdDeviation="8.0455783"
         id="feGaussianBlur18" />
    </filter>
  </defs>
  <sodipodi:namedview
     id="base"
     pagecolor="#ffffff"
     bordercolor="#000000"
     borderopacity="0.3"
     inkscape:pageopacity="0.0"
     inkscape:pageshadow="2"
     inkscape:zoom="0.98994949"
     inkscape:cx="505.07627"
     inkscape:cy="476.792"
     inkscape:document-units="mm"
     inkscape:showpageshadow="2"
     inkscape:pagecheckerboard="0"
     inkscape:deskcolor="#d1d1d1"
     inkscape:current-layer="svg1" />
  <metadata
     id="metadata1">
    <rdf:RDF>
      <cc:Work
         rdf:about="">
        <dc:format>image/svg+xml</dc:format>
        <dc:type
           rdf:resource="http://purl.org/dc/dcmitype/StillImage" />
        <cc:license
           rdf:resource="http://creativecommons.org/publicdomain/zero/1.0/" />
      </cc:Work>
      <cc:License
         rdf:about="http://creativecommons.org/publicdomain/zero/1.0/">
        <cc:permits
           rdf:resource="http://creativecommons.org/ns#Reproduction" />
        <cc:permits
           rdf:resource="http://creativecommons.org/ns#Distribution" />
        <cc:permits
           rdf:resource="http://creativecommons.org/ns#DerivativeWorks" />
      </cc:License>
    </rdf:RDF>
  </metadata>
  <g
     id="g5982"
     transform="matrix(0.33625932,0,0,0.33625932,45.315937,0.43266289)"
     style="display:inline"><path
   style="font-style:normal;font-weight:normal;font-size:20.688px;font-family:Aharoni;fill:#5b5b5b;fill-opacity:1;stroke:none;stroke-width:1px;stroke-linecap:butt;stroke-linejoin:miter;stroke-opacity:1"
   d="m 274.32106,510.26429 c -0.83894,0.92108 -1.74933,1.48557 -2.73117,1.69348 -1.27455,0.26924 -2.56404,-0.19019 -3.86847,-1.37829 l -1.65793,-1.51007 -3.07454,3.3756 -2.65119,-2.41474 9.28486,-10.19399 4.21948,3.84318 c 1.19987,1.09287 1.79128,2.27372 1.77425,3.54257 -0.011,1.09218 -0.44278,2.10626 -1.29529,3.04226 z m -2.78295,-2.48008 c 0.34463,-0.37839 0.50933,-0.78174 0.49413,-1.21007 -0.0152,-0.42833 -0.28922,-0.8851 -0.82194,-1.37032 l -0.88869,-0.80945 -2.30592,2.5317 0.88124,0.80263 c 0.57254,0.5215 1.07924,0.75527 1.52007,0.70133 0.39823,-0.0472 0.77192,-0.26247 1.12111,-0.64582 z m 9.82631,9.79531 c -0.33219,0.40692 -0.75174,0.63601 -1.25866,0.68727 -0.50697,0.0513 -0.9639,-0.0892 -1.3708,-0.42137 -0.4017,-0.32791 -0.62711,-0.74664 -0.67624,-1.25621 -0.0491,-0.50953 0.0903,-0.96515 0.41816,-1.36686 0.32791,-0.40168 0.74534,-0.62816 1.2523,-0.67944 0.50692,-0.0512 0.96124,0.0871 1.36294,0.41498 0.4017,0.32792 0.62947,0.74642 0.68336,1.25548 0.0539,0.50908 -0.0832,0.96446 -0.41106,1.36615 z m -8.37287,9.92133 -2.5667,-2.09525 5.92803,-7.26185 2.56669,2.09524 z m 19.53664,5.27177 c -0.75694,1.05658 -1.75365,1.71358 -2.99013,1.97098 -1.50196,0.31574 -3.01116,-0.0696 -4.52759,-1.15593 -1.52192,-1.09029 -2.37498,-2.39729 -2.55916,-3.92096 -0.15406,-1.25358 0.16307,-2.43054 0.95137,-3.53092 0.70986,-0.99089 1.6897,-1.61855 2.93951,-1.88299 1.51134,-0.3173 3.04987,0.0849 4.61559,1.20655 1.43979,1.03146 2.25804,2.31765 2.45475,3.85858 0.1595,1.25749 -0.13528,2.40905 -0.88434,3.45469 z m -2.80022,-2.00605 c 0.35296,-0.49271 0.47818,-1.03467 0.37568,-1.62585 -0.10252,-0.5912 -0.40013,-1.06329 -0.89283,-1.41627 -0.55841,-0.40003 -1.16183,-0.51752 -1.81025,-0.35244 -0.52391,0.12999 -0.93883,0.4085 -1.24472,0.83552 -0.30984,0.43249 -0.44204,0.91767 -0.39659,1.45555 0.0523,0.66706 0.35764,1.20062 0.91605,1.60066 0.49818,0.35688 1.04228,0.48779 1.6323,0.39271 0.59,-0.0951 1.06345,-0.39171 1.42036,-0.88988 z m 19.76294,20.86932 -3.11773,-1.77187 3.03605,-7.40703 -6.82124,5.25584 -1.23831,-0.70376 1.15663,-8.47513 -4.94182,6.32393 -3.10015,-1.76188 8.85045,-10.82994 3.07381,1.74691 -1.20086,7.77609 6.2068,-4.93111 3.10016,1.76187 z"
   id="path5904" />
<path
   id="path4807"
   d="m 211.68419,448.889 c -13.64121,3.38106 -26.34574,10.72447 -36.18269,21.89265 -19.49569,22.13406 -22.3465,53.17126 -9.8116,78.63885 -0.37549,-1.21224 -0.73127,-2.442 -1.04069,-3.68918 -8.78344,-35.40426 12.83994,-71.27562 48.2848,-80.04901 35.44485,-8.77337 71.3351,12.86206 80.11855,48.26633 6.79262,27.37963 -4.61214,54.99843 -26.52289,70.18318 7.89295,-3.95116 15.14375,-9.38852 21.28071,-16.35599 26.23189,-29.78184 22.38477,-75.69085 -8.61018,-102.4582 -19.37183,-16.7296 -44.78066,-22.06374 -67.51601,-16.42863 z m 54.84548,135.24282 c -2.23004,1.11635 -4.49689,2.09892 -6.8202,2.97242 l 1.25398,0.50402 c 1.92742,-1.07027 3.77399,-2.23437 5.56622,-3.47644 z M 165.6899,549.4205 c 0.0121,0.0389 0.0172,0.0792 0.0293,0.11804 l 0.0369,0.0222 c -0.0228,-0.0461 -0.0434,-0.0941 -0.0661,-0.14024 z"
   style="fill:#202020;fill-opacity:1;stroke:none;stroke-width:0.620467;stroke-linecap:round;stroke-miterlimit:4;stroke-dasharray:none;stroke-dashoffset:0;stroke-opacity:1" />
<ellipse
   transform="matrix(1.397251,0.236763,0,1.183813,-199.9734,-363.43367)"
   id="path675"
   style="fill:#333333;fill-opacity:1;fill-rule:evenodd;stroke:#242424;stroke-width:1pt;stroke-linecap:butt;stroke-linejoin:miter;stroke-opacity:1"
   cx="243.54156"
   cy="848.61499"
   rx="26.529572"
   ry="16.978943" />
<ellipse
   transform="matrix(1.2005225,-0.7211276,0.5395515,1.0537065,-339.07148,-90.05113)"
   id="path677"
   style="fill:#333333;fill-opacity:1;fill-rule:evenodd;stroke:#242424;stroke-width:1pt;stroke-linecap:butt;stroke-linejoin:miter;stroke-opacity:1"
   cx="243.54156"
   cy="848.61499"
   rx="26.529572"
   ry="16.978943" />
<path
   style="font-size:12px;fill:#bc0000;fill-opacity:1;fill-rule:evenodd;stroke:none;stroke-width:1"
   d="m 82.94759,113.78948 c -4.15617,7.58534 -5.84958,36.82759 -18.36897,49.11008 -1.52549,22.39037 30.26767,26.15729 36.10022,23.82187 8.52216,-10.6846 1.46472,-53.61435 0.19123,-59.99414 -1.10923,-5.55658 -16.44996,-15.62525 -17.92248,-12.93781 z"
   id="path608"
   sodipodi:nodetypes="ccccc" />
<circle
   transform="translate(-152.66259,98.246079)"
   id="path2113"
   style="fill:#2a2a2a;fill-opacity:1;stroke:none;stroke-width:0.577;stroke-linecap:round;stroke-miterlimit:4;stroke-dasharray:none;stroke-dashoffset:0;stroke-opacity:1"
   cx="381.90924"
   cy="431.90408"
   r="67.916847" />
<path
   transform="matrix(0.9440308,0,0,0.8401107,-247.90583,176.35429)"
   id="path2109"
   d="m 505.51118,353.2571 c -30.93217,-0.0922 -57.53243,23.27207 -60.82057,54.69638 -0.67512,6.45179 -0.32882,12.79191 0.92705,18.82208 h 0.0562 c 6.29252,-30.31 34.71578,-51.55321 66.15818,-48.26317 27.00751,2.82599 48.04746,22.87466 53.37603,48.09461 0.39619,-1.93989 0.68866,-3.91773 0.89896,-5.92755 3.50736,-33.51927 -20.83998,-63.57788 -54.35927,-67.08524 -2.09495,-0.21921 -4.17442,-0.33097 -6.23657,-0.33711 z m 59.69688,73.3499 c -0.0114,0.0557 -0.0166,0.1129 -0.0281,0.16856 h 0.0562 c -0.0115,-0.0554 -0.0164,-0.11324 -0.0281,-0.16856 z"
   style="fill:#ffffff;fill-opacity:1;stroke:#000000;stroke-width:0.518703;stroke-linecap:round;stroke-miterlimit:4;stroke-dasharray:none;stroke-dashoffset:0;stroke-opacity:1;filter:url(#filter4348)" />
<path
   id="path4352"
   d="m 224.46255,490.94386 c -24.07282,33.12543 47.82768,79.05509 52.25769,29.95096 -1.86093,-22.9233 -31.28336,-42.25968 -52.25769,-29.95096 z"
   style="fill:#191919;fill-opacity:1;fill-rule:evenodd;stroke:none;stroke-width:1px;stroke-linecap:butt;stroke-linejoin:miter;stroke-opacity:1;filter:url(#filter4803)" />
<path
   sodipodi:nodetypes="ccc"
   id="path4890"
   d="m 51.64571,677.93888 c 9.79582,-2.51138 29.94263,-7.08907 48.02446,2.08802 63.56047,0.70272 -61.73822,-67.45769 -48.02446,-2.08802 z"
   style="fill:#333333;fill-opacity:1;fill-rule:evenodd;stroke:none;stroke-width:1px;stroke-linecap:butt;stroke-linejoin:miter;stroke-opacity:1" />
<path
   style="font-style:normal;font-variant:normal;font-weight:normal;font-stretch:normal;font-size:12px;line-height:125%;font-family:'Bitstream Vera Sans';text-align:start;writing-mode:lr-tb;text-anchor:start;fill:#808080;fill-opacity:1;stroke:none;stroke-width:1px;stroke-linecap:butt;stroke-linejoin:miter;stroke-opacity:1"
   d="m 197.5616,644.11926 v -2.34961 h -1.93359 V 640.797 h 3.10546 v 3.75586 c -0.45703,0.32422 -0.96094,0.56933 -1.51171,0.73535 -0.55079,0.16601 -1.13868,0.24902 -1.76368,0.24902 -1.36719,0 -2.43652,-0.39941 -3.208,-1.19824 -0.77149,-0.79883 -1.15723,-1.91113 -1.15723,-3.33691 0,-1.42969 0.38574,-2.54394 1.15723,-3.34278 0.77148,-0.79882 1.84081,-1.19823 3.208,-1.19824 0.57031,10e-6 1.1123,0.0703 1.62598,0.21094 0.51367,0.14063 0.9873,0.34766 1.4209,0.62109 v 1.25977 c -0.43751,-0.37109 -0.90235,-0.65039 -1.39453,-0.83789 -0.4922,-0.1875 -1.00977,-0.28125 -1.55274,-0.28125 -1.07031,0 -1.87402,0.29883 -2.41113,0.89648 -0.53711,0.59766 -0.80567,1.48829 -0.80566,2.67188 -1e-5,1.17969 0.26855,2.06836 0.80566,2.66601 0.53711,0.59766 1.34082,0.89649 2.41113,0.89649 0.41797,0 0.79101,-0.0361 1.11914,-0.1084 0.32812,-0.0723 0.62304,-0.18457 0.88477,-0.33692 z m 3.33984,-7.5 h 1.59375 l 3.87891,7.31836 v -7.31836 h 1.14844 v 8.74805 h -1.59375 l -3.87891,-7.31836 v 7.31836 h -1.14844 z m 8.8418,0 h 1.18945 v 5.31446 c 0,0.9375 0.16992,1.6123 0.50977,2.02441 0.33984,0.41211 0.89062,0.61816 1.65234,0.61816 0.75781,0 1.30664,-0.20605 1.64649,-0.61816 0.33983,-0.41211 0.50976,-1.08691 0.50976,-2.02441 v -5.31446 h 1.18946 v 5.46094 c -1e-5,1.14063 -0.28224,2.00195 -0.84668,2.58398 -0.56446,0.58204 -1.39747,0.87305 -2.49903,0.87305 -1.10547,0 -1.94043,-0.29101 -2.50488,-0.87305 -0.56445,-0.58203 -0.84668,-1.44335 -0.84668,-2.58398 z m 8.92383,0 h 5.02734 v 0.9961 h -3.84375 v 2.57812 h 3.46875 v 0.9961 h -3.46875 v 4.17773 h -1.18359 z m 8.09765,0.97266 v 6.80273 h 1.42969 c 1.20703,0 2.09082,-0.27343 2.65137,-0.82031 0.56054,-0.54687 0.84081,-1.41015 0.84082,-2.58984 -1e-5,-1.17187 -0.28028,-2.03027 -0.84082,-2.5752 -0.56055,-0.54491 -1.44434,-0.81737 -2.65137,-0.81738 z m -1.18359,-0.97266 h 2.43164 c 1.69531,10e-6 2.93945,0.35255 3.73242,1.05762 0.79296,0.70508 1.18945,1.80762 1.18946,3.30762 -1e-5,1.50781 -0.39845,2.61523 -1.19532,3.32226 -0.79688,0.70703 -2.03906,1.06055 -3.72656,1.06055 h -2.43164 z m 9.23438,0 h 1.18359 v 7.75196 h 4.25977 v 0.99609 h -5.44336 z m 10.45312,-0.36914 h 1.07813 v 9.11719 h -1.07813 z m 3.32813,2.55469 h 1.07812 v 6.5625 h -1.07812 z m 0,-2.55469 h 1.07812 v 1.36524 h -1.07812 z m 8.05078,2.80664 v 1.00782 c -0.3047,-0.16797 -0.61036,-0.29394 -0.91699,-0.37793 -0.30665,-0.084 -0.61622,-0.12598 -0.92872,-0.12598 -0.69922,0 -1.24219,0.22168 -1.6289,0.66504 -0.38672,0.44336 -0.58008,1.06543 -0.58008,1.86621 0,0.80078 0.19336,1.42285 0.58008,1.86621 0.38671,0.44336 0.92968,0.66504 1.6289,0.66504 0.3125,0 0.62207,-0.042 0.92872,-0.12598 0.30663,-0.084 0.61229,-0.20996 0.91699,-0.37793 v 0.9961 c -0.30079,0.14062 -0.61231,0.24609 -0.93457,0.3164 -0.32227,0.0703 -0.66505,0.10547 -1.02832,0.10547 -0.98829,0 -1.77344,-0.31055 -2.35547,-0.93164 -0.58203,-0.62109 -0.87305,-1.45898 -0.87305,-2.51367 0,-1.07031 0.29395,-1.91211 0.88184,-2.52539 0.58789,-0.61328 1.39355,-0.91992 2.41699,-0.91992 0.33203,0 0.65624,0.0342 0.97266,0.10254 0.3164,0.0684 0.62304,0.1709 0.91992,0.30761 z m 7.5,2.75977 v 0.52734 h -4.95703 c 0.0469,0.74219 0.2705,1.30762 0.67089,1.69629 0.40039,0.38867 0.95801,0.58301 1.67286,0.58301 0.41405,0 0.81542,-0.0508 1.2041,-0.15234 0.38866,-0.10157 0.77441,-0.25391 1.15722,-0.45704 v 1.01954 c -0.38672,0.16406 -0.7832,0.28906 -1.18945,0.375 -0.40625,0.0859 -0.81836,0.1289 -1.23633,0.1289 -1.04688,0 -1.87598,-0.30469 -2.4873,-0.91406 -0.61133,-0.60937 -0.91699,-1.43359 -0.91699,-2.47266 0,-1.07421 0.29003,-1.92675 0.87011,-2.55761 0.58008,-0.63086 1.3623,-0.94629 2.34668,-0.94629 0.88281,0 1.58105,0.28418 2.09473,0.85254 0.51366,0.56836 0.7705,1.34082 0.77051,2.31738 z m -1.07813,-0.31641 c -0.008,-0.58984 -0.17285,-1.06054 -0.49511,-1.41211 -0.32228,-0.35155 -0.74903,-0.52734 -1.28028,-0.52734 -0.60156,0 -1.08301,0.16993 -1.44433,0.50976 -0.36133,0.33985 -0.56934,0.81837 -0.62403,1.43555 z m 8.30274,-0.0937 v 3.96094 h -1.07813 v -3.92578 c 0,-0.62109 -0.1211,-1.08593 -0.36328,-1.39453 -0.24219,-0.30859 -0.60547,-0.46289 -1.08984,-0.46289 -0.58204,0 -1.04102,0.18555 -1.37696,0.55664 -0.33594,0.3711 -0.5039,0.87695 -0.5039,1.51758 v 3.70898 h -1.08399 v -6.5625 h 1.08399 v 1.01953 c 0.25781,-0.39452 0.56152,-0.68945 0.91113,-0.88476 0.34961,-0.19531 0.75293,-0.29297 1.20996,-0.29297 0.7539,0 1.32421,0.2334 1.71094,0.70019 0.38671,0.4668 0.58007,1.15333 0.58008,2.05957 z m 6.3457,-2.4082 v 1.01953 c -0.30469,-0.15624 -0.6211,-0.27343 -0.94922,-0.35156 -0.32813,-0.0781 -0.66797,-0.11718 -1.01953,-0.11719 -0.53516,10e-6 -0.93653,0.082 -1.2041,0.24609 -0.26758,0.16407 -0.40137,0.41017 -0.40137,0.73829 0,0.25 0.0957,0.44629 0.28711,0.58886 0.1914,0.14258 0.57617,0.27833 1.1543,0.40723 l 0.36914,0.082 c 0.76562,0.16407 1.30956,0.39551 1.63183,0.69434 0.32226,0.29883 0.4834,0.71582 0.4834,1.25097 0,0.60938 -0.24121,1.0918 -0.72363,1.44727 -0.48243,0.35547 -1.14551,0.5332 -1.98926,0.5332 -0.35156,0 -0.71777,-0.0342 -1.09863,-0.10254 -0.38086,-0.0684 -0.78223,-0.1709 -1.2041,-0.30761 v -1.11329 c 0.39843,0.20704 0.79101,0.36231 1.17773,0.46582 0.38672,0.10352 0.76953,0.15528 1.14844,0.15528 0.50781,0 0.89843,-0.0869 1.17187,-0.26074 0.27344,-0.17383 0.41016,-0.41895 0.41016,-0.73536 0,-0.29296 -0.0986,-0.51757 -0.2959,-0.67382 -0.19727,-0.15625 -0.62988,-0.30664 -1.29785,-0.45118 l -0.375,-0.0879 c -0.66797,-0.14062 -1.15039,-0.35644 -1.44727,-0.64746 -0.29687,-0.29101 -0.44531,-0.69042 -0.44531,-1.19824 0,-0.61718 0.21875,-1.09374 0.65625,-1.42969 0.4375,-0.33593 1.05859,-0.5039 1.86328,-0.5039 0.39844,0 0.77344,0.0293 1.125,0.0879 0.35156,0.0586 0.67578,0.14649 0.97266,0.26367 z m 7.6875,2.81836 v 0.52734 h -4.95703 c 0.0469,0.74219 0.2705,1.30762 0.6709,1.69629 0.40038,0.38867 0.958,0.58301 1.67285,0.58301 0.41406,0 0.81542,-0.0508 1.2041,-0.15234 0.38867,-0.10157 0.77441,-0.25391 1.15723,-0.45704 v 1.01954 c -0.38673,0.16406 -0.78321,0.28906 -1.18946,0.375 -0.40625,0.0859 -0.81836,0.1289 -1.23632,0.1289 -1.04688,0 -1.87598,-0.30469 -2.48731,-0.91406 -0.61133,-0.60937 -0.91699,-1.43359 -0.91699,-2.47266 0,-1.07421 0.29004,-1.92675 0.87012,-2.55761 0.58007,-0.63086 1.3623,-0.94629 2.34668,-0.94629 0.8828,0 1.58104,0.28418 2.09472,0.85254 0.51367,0.56836 0.7705,1.34082 0.77051,2.31738 z m -1.07813,-0.31641 c -0.008,-0.58984 -0.17285,-1.06054 -0.49511,-1.41211 -0.32227,-0.35155 -0.74903,-0.52734 -1.28028,-0.52734 -0.60156,0 -1.08301,0.16993 -1.44433,0.50976 -0.36133,0.33985 -0.56934,0.81837 -0.62403,1.43555 z m -87.9082,10.16602 c 0.59375,10e-6 1.14746,0.10743 1.66113,0.32226 0.51367,0.21486 0.98339,0.53517 1.40918,0.96094 0.42578,0.42579 0.74413,0.89454 0.95508,1.40625 0.21093,0.51173 0.3164,1.06837 0.31641,1.66992 -1e-5,0.59376 -0.10548,1.14551 -0.31641,1.65528 -0.21095,0.50976 -0.5293,0.97754 -0.95508,1.40332 -0.42579,0.42578 -0.89551,0.74609 -1.40918,0.96093 -0.51367,0.21485 -1.06738,0.32227 -1.66113,0.32227 -0.59375,0 -1.14746,-0.10742 -1.66113,-0.32227 -0.51368,-0.21484 -0.9834,-0.53515 -1.40918,-0.96093 -0.42578,-0.42578 -0.74414,-0.89356 -0.95508,-1.40332 -0.21094,-0.50977 -0.31641,-1.06152 -0.31641,-1.65528 0,-0.60155 0.10547,-1.15819 0.31641,-1.66992 0.21094,-0.51171 0.5293,-0.98046 0.95508,-1.40625 0.42578,-0.42577 0.8955,-0.74608 1.40918,-0.96094 0.51367,-0.21483 1.06738,-0.32225 1.66113,-0.32226 z m 0,0.60351 c -0.51172,1e-5 -0.98828,0.0918 -1.42969,0.27539 -0.44141,0.18361 -0.8457,0.459 -1.21289,0.82618 -0.36719,0.36719 -0.64453,0.77442 -0.83203,1.22168 -0.1875,0.44727 -0.28125,0.92481 -0.28125,1.43261 0,0.50391 0.0937,0.97755 0.28125,1.4209 0.1875,0.44336 0.46484,0.84864 0.83203,1.21582 0.36719,0.36719 0.77148,0.64356 1.21289,0.8291 0.44141,0.18555 0.91797,0.27832 1.42969,0.27832 0.51562,0 0.99511,-0.0928 1.43848,-0.27832 0.44335,-0.18554 0.84862,-0.46191 1.21582,-0.8291 0.36327,-0.36328 0.63573,-0.76562 0.81738,-1.20703 0.18163,-0.4414 0.27245,-0.91796 0.27246,-1.42969 -1e-5,-0.51952 -0.0918,-1.00097 -0.27539,-1.44433 -0.1836,-0.44336 -0.45509,-0.84668 -0.81445,-1.20996 -0.3672,-0.36718 -0.77247,-0.64257 -1.21582,-0.82618 -0.44337,-0.18358 -0.92286,-0.27538 -1.43848,-0.27539 z m 1.75195,1.43555 v 0.75586 c -0.25782,-0.1289 -0.51367,-0.2246 -0.76757,-0.28711 -0.25392,-0.0625 -0.50978,-0.0937 -0.76758,-0.0937 -0.58204,1e-5 -1.03614,0.1709 -1.36231,0.5127 -0.32617,0.3418 -0.48926,0.81934 -0.48925,1.43261 -1e-5,0.6211 0.16698,1.10157 0.50097,1.44141 0.33398,0.33985 0.80371,0.50977 1.40918,0.50976 0.25,1e-5 0.49414,-0.0303 0.73242,-0.0908 0.23828,-0.0605 0.48632,-0.15722 0.74414,-0.29003 v 0.74414 c -0.26172,0.11328 -0.52637,0.19726 -0.79394,0.25195 -0.26759,0.0547 -0.53809,0.082 -0.81152,0.082 -0.84376,0 -1.51075,-0.23828 -2.00098,-0.71484 -0.49024,-0.47656 -0.73536,-1.12109 -0.73535,-1.9336 -1e-5,-0.8164 0.24511,-1.46093 0.73535,-1.93359 0.49023,-0.47265 1.15722,-0.70898 2.00098,-0.70899 0.28515,10e-6 0.56054,0.0274 0.82617,0.082 0.26562,0.0547 0.52538,0.13477 0.77929,0.24023 z m 6.55079,5.66602 h 4.13086 v 0.99609 h -5.55469 v -0.99609 c 0.44922,-0.46485 1.06152,-1.08887 1.83691,-1.87207 0.77539,-0.7832 1.26269,-1.28809 1.46192,-1.51465 0.3789,-0.42578 0.64355,-0.78613 0.79394,-1.08106 0.15039,-0.29491 0.22558,-0.58495 0.22559,-0.87011 -1e-5,-0.46484 -0.16309,-0.84375 -0.48926,-1.13672 -0.32618,-0.29296 -0.75098,-0.43945 -1.27441,-0.43946 -0.3711,1e-5 -0.7627,0.0645 -1.17481,0.19336 -0.41211,0.12892 -0.85254,0.32423 -1.32129,0.58594 v -1.19531 c 0.47656,-0.1914 0.92187,-0.33593 1.33594,-0.4336 0.41406,-0.0976 0.79296,-0.14647 1.13672,-0.14648 0.90624,1e-5 1.6289,0.22657 2.16797,0.67969 0.53905,0.45313 0.80858,1.0586 0.80859,1.8164 -10e-6,0.35938 -0.0674,0.7002 -0.20215,1.02246 -0.13477,0.32227 -0.37989,0.70216 -0.73535,1.13965 -0.0977,0.11329 -0.40821,0.44044 -0.93164,0.98145 -0.52344,0.54102 -1.26172,1.29785 -2.21484,2.27051 z m 9.15234,-6.97266 c -0.60938,1e-5 -1.06739,0.29981 -1.37402,0.89941 -0.30665,0.59962 -0.45997,1.50099 -0.45996,2.70411 -1e-5,1.19922 0.15331,2.09863 0.45996,2.69824 0.30663,0.59961 0.76464,0.89941 1.37402,0.89941 0.61328,0 1.07324,-0.2998 1.37988,-0.89941 0.30664,-0.59961 0.45996,-1.49902 0.45996,-2.69824 0,-1.20312 -0.15332,-2.10449 -0.45996,-2.70411 -0.30664,-0.5996 -0.7666,-0.8994 -1.37988,-0.89941 z m 0,-0.9375 c 0.98046,1e-5 1.72949,0.3877 2.24707,1.16309 0.51757,0.77539 0.77636,1.90137 0.77637,3.37793 -1e-5,1.47265 -0.2588,2.59668 -0.77637,3.37207 -0.51758,0.77539 -1.26661,1.16308 -2.24707,1.16308 -0.98047,0 -1.72949,-0.38769 -2.24707,-1.16308 -0.51758,-0.77539 -0.77637,-1.89942 -0.77637,-3.37207 0,-1.47656 0.25879,-2.60254 0.77637,-3.37793 0.51758,-0.77539 1.2666,-1.16308 2.24707,-1.16309 z m 7.64062,0.9375 c -0.60937,1e-5 -1.06738,0.29981 -1.37402,0.89941 -0.30664,0.59962 -0.45996,1.50099 -0.45996,2.70411 0,1.19922 0.15332,2.09863 0.45996,2.69824 0.30664,0.59961 0.76465,0.89941 1.37402,0.89941 0.61328,0 1.07324,-0.2998 1.37989,-0.89941 0.30663,-0.59961 0.45995,-1.49902 0.45996,-2.69824 -1e-5,-1.20312 -0.15333,-2.10449 -0.45996,-2.70411 -0.30665,-0.5996 -0.76661,-0.8994 -1.37989,-0.89941 z m 0,-0.9375 c 0.98047,1e-5 1.72949,0.3877 2.24708,1.16309 0.51757,0.77539 0.77636,1.90137 0.77636,3.37793 0,1.47265 -0.25879,2.59668 -0.77636,3.37207 -0.51759,0.77539 -1.26661,1.16308 -2.24708,1.16308 -0.98047,0 -1.72949,-0.38769 -2.24707,-1.16308 -0.51757,-0.77539 -0.77636,-1.89942 -0.77636,-3.37207 0,-1.47656 0.25879,-2.60254 0.77636,-3.37793 0.51758,-0.77539 1.2666,-1.16308 2.24707,-1.16309 z m 4.81055,0.1582 h 5.625 v 0.50391 l -3.17578,8.24414 h -1.23633 l 2.98828,-7.75195 h -4.20117 z m 16.31836,5.47266 c 0,-0.79297 -0.16309,-1.41504 -0.48926,-1.86621 -0.32617,-0.45117 -0.77442,-0.67675 -1.34472,-0.67676 -0.57032,10e-6 -1.01856,0.22559 -1.34473,0.67676 -0.32617,0.45117 -0.48926,1.07324 -0.48926,1.86621 0,0.79297 0.16309,1.41504 0.48926,1.86621 0.32617,0.45117 0.77441,0.67676 1.34473,0.67676 0.5703,0 1.01855,-0.22559 1.34472,-0.67676 0.32617,-0.45117 0.48926,-1.07324 0.48926,-1.86621 z m -3.66797,-2.29102 c 0.22656,-0.39062 0.51269,-0.68065 0.8584,-0.87011 0.3457,-0.18945 0.75879,-0.28418 1.23926,-0.28418 0.79687,0 1.44433,0.31641 1.94238,0.94922 0.49804,0.63281 0.74706,1.46484 0.74707,2.49609 -1e-5,1.03125 -0.24903,1.86328 -0.74707,2.49609 -0.49805,0.63282 -1.14551,0.94922 -1.94238,0.94922 -0.48047,0 -0.89356,-0.0947 -1.23926,-0.28418 -0.34571,-0.18945 -0.63184,-0.47949 -0.8584,-0.87012 v 0.98438 h -1.08398 v -9.11719 h 1.08398 z m 9.30469,6.17578 c -0.30469,0.78125 -0.60157,1.29102 -0.89063,1.5293 -0.28906,0.23828 -0.67578,0.35742 -1.16015,0.35742 h -0.86133 v -0.90234 h 0.63281 c 0.29688,0 0.52734,-0.0703 0.69141,-0.21094 0.16406,-0.14062 0.3457,-0.47266 0.54492,-0.99609 l 0.19336,-0.49219 -2.6543,-6.45703 h 1.14258 l 2.05078,5.13281 2.05078,-5.13281 h 1.14258 z m 9.42187,-8.38476 v 3.28711 h 1.48829 c 0.55077,0 0.97655,-0.14258 1.27734,-0.42774 0.30078,-0.28515 0.45117,-0.6914 0.45117,-1.21875 0,-0.52343 -0.15039,-0.92772 -0.45117,-1.21289 -0.30079,-0.28515 -0.72657,-0.42772 -1.27734,-0.42773 z m -1.18359,-0.97266 h 2.67188 c 0.98046,10e-6 1.72167,0.22169 2.22363,0.66504 0.50195,0.44337 0.75292,1.09278 0.75293,1.94824 -1e-5,0.86329 -0.25098,1.51563 -0.75293,1.95704 -0.50196,0.44141 -1.24317,0.66211 -2.22363,0.6621 h -1.48829 v 3.51563 h -1.18359 z m 7.19531,2.18555 h 1.07813 v 6.5625 h -1.07813 z m 0,-2.55469 h 1.07813 v 1.36524 h -1.07813 z m 5.8711,3.31055 c -0.57813,0 -1.03516,0.22559 -1.3711,0.67676 -0.33594,0.45117 -0.5039,1.06934 -0.5039,1.85449 0,0.78516 0.16699,1.40332 0.50097,1.85449 0.33399,0.45117 0.79199,0.67676 1.37403,0.67676 0.57421,0 1.02929,-0.22656 1.36523,-0.67969 0.33593,-0.45312 0.5039,-1.07031 0.50391,-1.85156 -1e-5,-0.77734 -0.16798,-1.39355 -0.50391,-1.84863 -0.33594,-0.45508 -0.79102,-0.68262 -1.36523,-0.68262 z m 0,-0.91406 c 0.93749,0 1.67382,0.30469 2.20898,0.91406 0.53515,0.60938 0.80273,1.45313 0.80274,2.53125 -1e-5,1.07422 -0.26759,1.91699 -0.80274,2.52832 -0.53516,0.61133 -1.27149,0.91699 -2.20898,0.91699 -0.94141,0 -1.67872,-0.30566 -2.21192,-0.91699 -0.5332,-0.61133 -0.7998,-1.4541 -0.7998,-2.52832 0,-1.07812 0.2666,-1.92187 0.7998,-2.53125 0.5332,-0.60937 1.27051,-0.91406 2.21192,-0.91406 z m 5.85937,-1.70508 v 1.86328 h 2.22071 v 0.83789 h -2.22071 v 3.5625 c 0,0.53516 0.0732,0.87891 0.21973,1.03125 0.14648,0.15234 0.44433,0.22852 0.89355,0.22852 h 1.10743 v 0.90234 h -1.10743 c -0.83203,0 -1.40625,-0.15527 -1.72265,-0.46582 -0.31641,-0.31055 -0.47461,-0.87598 -0.47461,-1.69629 v -3.5625 h -0.79102 v -0.83789 h 0.79102 v -1.86328 z m 7.44727,2.87109 c -0.1211,-0.0703 -0.25294,-0.12206 -0.39551,-0.15527 -0.14258,-0.0332 -0.29981,-0.0498 -0.47168,-0.0498 -0.60938,10e-6 -1.07715,0.19825 -1.40332,0.59473 -0.32617,0.39649 -0.48926,0.96583 -0.48926,1.70801 v 3.45703 h -1.08398 v -6.5625 h 1.08398 v 1.01953 c 0.22656,-0.39843 0.52148,-0.69433 0.88477,-0.88769 0.36328,-0.19336 0.80468,-0.29004 1.32422,-0.29004 0.0742,0 0.15624,0.005 0.24609,0.0146 0.0898,0.01 0.18945,0.0244 0.29883,0.0439 z m 5.00976,-3.19336 h 1.76368 l 2.23242,5.95313 2.24414,-5.95313 h 1.76367 v 8.74805 h -1.1543 v -7.68164 l -2.25586,6 h -1.18945 l -2.25586,-6 v 7.68164 h -1.14844 z m 10.3125,2.18555 h 1.07813 v 6.5625 h -1.07813 z m 0,-2.55469 h 1.07813 v 1.36524 h -1.07813 z m 8.05078,2.80664 v 1.00782 c -0.30469,-0.16797 -0.61035,-0.29394 -0.91699,-0.37793 -0.30664,-0.084 -0.61621,-0.12598 -0.92871,-0.12598 -0.69922,0 -1.24219,0.22168 -1.6289,0.66504 -0.38673,0.44336 -0.58008,1.06543 -0.58008,1.86621 0,0.80078 0.19335,1.42285 0.58008,1.86621 0.38671,0.44336 0.92968,0.66504 1.6289,0.66504 0.3125,0 0.62207,-0.042 0.92871,-0.12598 0.30664,-0.084 0.6123,-0.20996 0.91699,-0.37793 v 0.9961 c -0.30078,0.14062 -0.61231,0.24609 -0.93457,0.3164 -0.32227,0.0703 -0.66504,0.10547 -1.02832,0.10547 -0.98828,0 -1.77344,-0.31055 -2.35546,-0.93164 -0.58204,-0.62109 -0.87305,-1.45898 -0.87305,-2.51367 0,-1.07031 0.29394,-1.91211 0.88183,-2.52539 0.58789,-0.61328 1.39356,-0.91992 2.417,-0.91992 0.33202,0 0.65624,0.0342 0.97265,0.10254 0.3164,0.0684 0.62304,0.1709 0.91992,0.30761 z m 7.3418,2.34961 v 3.96094 h -1.07812 v -3.92578 c -10e-6,-0.62109 -0.1211,-1.08593 -0.36328,-1.39453 -0.2422,-0.30859 -0.60548,-0.46289 -1.08985,-0.46289 -0.58203,0 -1.04102,0.18555 -1.37695,0.55664 -0.33594,0.3711 -0.50391,0.87695 -0.50391,1.51758 v 3.70898 h -1.08398 v -9.11719 h 1.08398 v 3.57422 c 0.25781,-0.39452 0.56152,-0.68945 0.91114,-0.88476 0.3496,-0.19531 0.75292,-0.29297 1.20996,-0.29297 0.7539,0 1.32421,0.2334 1.71093,0.70019 0.38672,0.4668 0.58008,1.15333 0.58008,2.05957 z m 5.14453,0.66211 c -0.87109,0 -1.47461,0.0996 -1.81054,0.29883 -0.33594,0.19922 -0.50391,0.53906 -0.50391,1.01953 0,0.38281 0.12597,0.68653 0.37793,0.91113 0.25195,0.22461 0.59472,0.33692 1.02832,0.33692 0.59765,0 1.07714,-0.21192 1.43848,-0.63574 0.36132,-0.42383 0.54198,-0.98731 0.54199,-1.69043 v -0.24024 z m 2.15039,-0.44531 v 3.74414 h -1.07812 v -0.99609 c -0.2461,0.39843 -0.55274,0.69238 -0.91992,0.88183 -0.36719,0.18945 -0.81641,0.28418 -1.34766,0.28418 -0.67188,0 -1.20606,-0.18848 -1.60254,-0.56543 -0.39648,-0.37695 -0.59473,-0.88183 -0.59473,-1.51465 0,-0.73828 0.24707,-1.29492 0.74122,-1.66992 0.49413,-0.37499 1.23144,-0.56249 2.21191,-0.5625 h 1.51172 v -0.10547 c -1e-5,-0.49609 -0.16309,-0.87987 -0.48926,-1.15136 -0.32618,-0.27148 -0.78418,-0.40723 -1.37402,-0.40723 -0.37501,0 -0.74024,0.0449 -1.09571,0.13476 -0.35547,0.0898 -0.69726,0.22462 -1.02539,0.4043 v -0.99609 c 0.39453,-0.15234 0.77735,-0.2666 1.14844,-0.34278 0.37109,-0.0762 0.73242,-0.11425 1.08399,-0.11425 0.94921,0 1.65819,0.2461 2.12695,0.73828 0.46874,0.49219 0.70312,1.23828 0.70312,2.23828 z m 2.26172,-5.37305 h 1.07813 v 3.52735 l 0.73242,-0.52735 0.44531,0.6211 -1.17773,0.82617 v 4.66992 h -1.07813 v -3.90234 l -0.7207,0.51562 -0.43359,-0.62109 1.15429,-0.82617 z m 7.25391,0.36914 h 1.18359 v 8.13867 c 0,1.05469 -0.2002,1.82032 -0.60058,2.29688 -0.4004,0.47656 -1.04395,0.71484 -1.93067,0.71484 h -0.45117 v -0.99609 h 0.36914 c 0.52344,0 0.89258,-0.14649 1.10742,-0.43945 0.21485,-0.29297 0.32227,-0.81836 0.32227,-1.57618 z m 6.47461,5.44922 c -0.8711,0 -1.47461,0.0996 -1.81055,0.29883 -0.33594,0.19922 -0.50391,0.53906 -0.50391,1.01953 0,0.38281 0.12598,0.68653 0.37793,0.91113 0.25196,0.22461 0.59473,0.33692 1.02832,0.33692 0.59766,0 1.07715,-0.21192 1.43848,-0.63574 0.36132,-0.42383 0.54199,-0.98731 0.54199,-1.69043 v -0.24024 z m 2.15039,-0.44531 v 3.74414 h -1.07813 v -0.99609 c -0.2461,0.39843 -0.55274,0.69238 -0.91992,0.88183 -0.36719,0.18945 -0.81641,0.28418 -1.34765,0.28418 -0.67188,0 -1.20606,-0.18848 -1.60254,-0.56543 -0.39649,-0.37695 -0.59473,-0.88183 -0.59473,-1.51465 0,-0.73828 0.24707,-1.29492 0.74121,-1.66992 0.49414,-0.37499 1.23144,-0.56249 2.21191,-0.5625 h 1.51172 v -0.10547 c 0,-0.49609 -0.16309,-0.87987 -0.48925,-1.15136 -0.32618,-0.27148 -0.78419,-0.40723 -1.37403,-0.40723 -0.375,0 -0.74023,0.0449 -1.0957,0.13476 -0.35547,0.0898 -0.69727,0.22462 -1.02539,0.4043 v -0.99609 c 0.39453,-0.15234 0.77734,-0.2666 1.14844,-0.34278 0.37109,-0.0762 0.73241,-0.11425 1.08398,-0.11425 0.94921,0 1.6582,0.2461 2.12695,0.73828 0.46875,0.49219 0.70312,1.23828 0.70313,2.23828 z m 1.59961,-2.81836 h 1.07812 l 1.34766,5.12109 1.3418,-5.12109 h 1.27148 l 1.34766,5.12109 1.34179,-5.12109 h 1.07813 l -1.7168,6.5625 h -1.27148 l -1.41211,-5.37891 -1.41797,5.37891 h -1.27149 z m 12.99023,0.75586 c -0.57813,0 -1.03516,0.22559 -1.37109,0.67676 -0.33594,0.45117 -0.50391,1.06934 -0.50391,1.85449 0,0.78516 0.16699,1.40332 0.50098,1.85449 0.33398,0.45117 0.79199,0.67676 1.37402,0.67676 0.57422,0 1.02929,-0.22656 1.36524,-0.67969 0.33593,-0.45312 0.5039,-1.07031 0.5039,-1.85156 0,-0.77734 -0.16797,-1.39355 -0.5039,-1.84863 -0.33595,-0.45508 -0.79102,-0.68262 -1.36524,-0.68262 z m 0,-0.91406 c 0.9375,0 1.67383,0.30469 2.20899,0.91406 0.53515,0.60938 0.80272,1.45313 0.80273,2.53125 -10e-6,1.07422 -0.26758,1.91699 -0.80273,2.52832 -0.53516,0.61133 -1.27149,0.91699 -2.20899,0.91699 -0.94141,0 -1.67871,-0.30566 -2.21191,-0.91699 -0.53321,-0.61133 -0.79981,-1.4541 -0.79981,-2.52832 0,-1.07812 0.2666,-1.92187 0.79981,-2.53125 0.5332,-0.60937 1.2705,-0.91406 2.21191,-0.91406 z m 8.59571,1.16601 c -0.1211,-0.0703 -0.25294,-0.12206 -0.39551,-0.15527 -0.14258,-0.0332 -0.29981,-0.0498 -0.47168,-0.0498 -0.60938,10e-6 -1.07715,0.19825 -1.40332,0.59473 -0.32618,0.39649 -0.48926,0.96583 -0.48926,1.70801 v 3.45703 h -1.08398 v -6.5625 h 1.08398 v 1.01953 c 0.22656,-0.39843 0.52148,-0.69433 0.88477,-0.88769 0.36327,-0.19336 0.80468,-0.29004 1.32421,-0.29004 0.0742,0 0.15625,0.005 0.2461,0.0146 0.0898,0.01 0.18945,0.0244 0.29883,0.0439 z m 5.32617,-0.81445 v 1.01953 c -0.3047,-0.15624 -0.6211,-0.27343 -0.94922,-0.35156 -0.32813,-0.0781 -0.66797,-0.11718 -1.01953,-0.11719 -0.53516,10e-6 -0.93653,0.082 -1.2041,0.24609 -0.26758,0.16407 -0.40137,0.41017 -0.40137,0.73829 0,0.25 0.0957,0.44629 0.28711,0.58886 0.1914,0.14258 0.57617,0.27833 1.15429,0.40723 l 0.36915,0.082 c 0.76562,0.16407 1.30956,0.39551 1.63183,0.69434 0.32226,0.29883 0.48339,0.71582 0.4834,1.25097 -10e-6,0.60938 -0.24122,1.0918 -0.72363,1.44727 -0.48243,0.35547 -1.14551,0.5332 -1.98926,0.5332 -0.35157,0 -0.71778,-0.0342 -1.09863,-0.10254 -0.38086,-0.0684 -0.78223,-0.1709 -1.20411,-0.30761 v -1.11329 c 0.39844,0.20704 0.79102,0.36231 1.17774,0.46582 0.38672,0.10352 0.76953,0.15528 1.14844,0.15528 0.50781,0 0.89843,-0.0869 1.17187,-0.26074 0.27343,-0.17383 0.41015,-0.41895 0.41016,-0.73536 -1e-5,-0.29296 -0.0986,-0.51757 -0.2959,-0.67382 -0.19727,-0.15625 -0.62989,-0.30664 -1.29785,-0.45118 l -0.375,-0.0879 c -0.66797,-0.14062 -1.15039,-0.35644 -1.44727,-0.64746 -0.29687,-0.29101 -0.44531,-0.69042 -0.44531,-1.19824 0,-0.61718 0.21875,-1.09374 0.65625,-1.42969 0.4375,-0.33593 1.05859,-0.5039 1.86328,-0.5039 0.39843,0 0.77343,0.0293 1.125,0.0879 0.35156,0.0586 0.67578,0.14649 0.97266,0.26367 z m 2.0332,-2.74805 h 1.08398 v 5.38477 l 3.2168,-2.83008 h 1.37695 l -3.48046,3.07031 3.62695,3.49219 h -1.40625 l -3.33399,-3.20508 v 3.20508 h -1.08398 z m 7.00195,2.55469 h 1.07813 v 6.5625 h -1.07813 z m 0,-2.55469 h 1.07813 v 1.36524 h -1.07813 z m -183.99609,23.13281 v 3.48047 h -1.08398 v -9.05859 h 1.08398 v 0.99609 c 0.22656,-0.39062 0.51269,-0.68065 0.8584,-0.87011 0.3457,-0.18945 0.75878,-0.28418 1.23926,-0.28418 0.79687,0 1.44433,0.31641 1.94238,0.94922 0.49804,0.63281 0.74706,1.46484 0.74707,2.49609 -1e-5,1.03125 -0.24903,1.86328 -0.74707,2.49609 -0.49805,0.63282 -1.14551,0.94922 -1.94238,0.94922 -0.48048,0 -0.89356,-0.0947 -1.23926,-0.28418 -0.34571,-0.18945 -0.63184,-0.47949 -0.8584,-0.87012 z m 3.66797,-2.29101 c -1e-5,-0.79297 -0.16309,-1.41504 -0.48926,-1.86621 -0.32618,-0.45117 -0.77442,-0.67675 -1.34473,-0.67676 -0.57031,10e-6 -1.01855,0.22559 -1.34472,0.67676 -0.32618,0.45117 -0.48926,1.07324 -0.48926,1.86621 0,0.79297 0.16308,1.41504 0.48926,1.86621 0.32617,0.45117 0.77441,0.67676 1.34472,0.67676 0.57031,0 1.01855,-0.22559 1.34473,-0.67676 0.32617,-0.45117 0.48925,-1.07324 0.48926,-1.86621 z m 2.90625,-3.28711 h 1.07812 v 6.5625 h -1.07812 z m 0,-2.55469 h 1.07812 v 1.36524 h -1.07812 z m 5.87109,3.31055 c -0.57813,0 -1.03516,0.22559 -1.37109,0.67676 -0.33594,0.45117 -0.50391,1.06934 -0.50391,1.85449 0,0.78516 0.16699,1.40332 0.50098,1.85449 0.33398,0.45117 0.79199,0.67676 1.37402,0.67676 0.57422,0 1.02929,-0.22656 1.36524,-0.67969 0.33593,-0.45312 0.5039,-1.07031 0.5039,-1.85156 0,-0.77734 -0.16797,-1.39355 -0.5039,-1.84863 -0.33595,-0.45508 -0.79102,-0.68262 -1.36524,-0.68262 z m 0,-0.91406 c 0.9375,0 1.67383,0.30469 2.20899,0.91406 0.53515,0.60938 0.80272,1.45313 0.80273,2.53125 -1e-5,1.07422 -0.26758,1.91699 -0.80273,2.52832 -0.53516,0.61133 -1.27149,0.91699 -2.20899,0.91699 -0.94141,0 -1.67871,-0.30566 -2.21191,-0.91699 -0.53321,-0.61133 -0.79981,-1.4541 -0.79981,-2.52832 0,-1.07812 0.2666,-1.92187 0.79981,-2.53125 0.5332,-0.60937 1.2705,-0.91406 2.21191,-0.91406 z m 9.90235,1.41797 c 0.26952,-0.48437 0.59179,-0.8418 0.96679,-1.07227 0.375,-0.23046 0.8164,-0.3457 1.32422,-0.3457 0.68359,0 1.21093,0.23926 1.58203,0.71777 0.37109,0.47852 0.55663,1.15918 0.55664,2.04199 v 3.96094 h -1.08398 v -3.92578 c -1e-5,-0.6289 -0.11134,-1.0957 -0.33399,-1.40039 -0.22266,-0.30468 -0.5625,-0.45703 -1.01953,-0.45703 -0.5586,0 -1,0.18555 -1.32422,0.55664 -0.32422,0.3711 -0.48633,0.87695 -0.48632,1.51758 v 3.70898 h -1.08399 v -3.92578 c 0,-0.63281 -0.11133,-1.10058 -0.33398,-1.40332 -0.22266,-0.30273 -0.56641,-0.4541 -1.03125,-0.4541 -0.55079,0 -0.98829,0.18653 -1.3125,0.55957 -0.32422,0.37305 -0.48633,0.87793 -0.48633,1.51465 v 3.70898 h -1.08398 v -6.5625 h 1.08398 v 1.01953 c 0.24609,-0.40234 0.54101,-0.69921 0.88477,-0.89062 0.34374,-0.1914 0.75194,-0.28711 1.2246,-0.28711 0.47656,0 0.88184,0.1211 1.21583,0.36328 0.33397,0.24219 0.58104,0.59375 0.74121,1.05469 z m 10.38867,-0.25196 c -0.1211,-0.0703 -0.25294,-0.12206 -0.39551,-0.15527 -0.14258,-0.0332 -0.29981,-0.0498 -0.47168,-0.0498 -0.60938,10e-6 -1.07715,0.19825 -1.40332,0.59473 -0.32617,0.39649 -0.48926,0.96583 -0.48926,1.70801 v 3.45703 h -1.08398 v -6.5625 h 1.08398 v 1.01953 c 0.22656,-0.39843 0.52148,-0.69433 0.88477,-0.88769 0.36328,-0.19336 0.80468,-0.29004 1.32422,-0.29004 0.0742,0 0.15624,0.005 0.24609,0.0146 0.0898,0.01 0.18945,0.0244 0.29883,0.0439 z m 6.75586,2.00391 v 0.52734 h -4.95703 c 0.0469,0.74219 0.2705,1.30762 0.67089,1.69629 0.40039,0.38867 0.95801,0.58301 1.67286,0.58301 0.41405,0 0.81542,-0.0508 1.2041,-0.15234 0.38866,-0.10157 0.77441,-0.25391 1.15722,-0.45704 v 1.01954 c -0.38672,0.16406 -0.7832,0.28906 -1.18945,0.375 -0.40625,0.0859 -0.81836,0.1289 -1.23633,0.1289 -1.04688,0 -1.87598,-0.30469 -2.4873,-0.91406 -0.61133,-0.60937 -0.91699,-1.43359 -0.91699,-2.47266 0,-1.07421 0.29003,-1.92675 0.87011,-2.55761 0.58008,-0.63086 1.3623,-0.94629 2.34668,-0.94629 0.88281,0 1.58105,0.28418 2.09473,0.85254 0.51366,0.56836 0.7705,1.34082 0.77051,2.31738 z m -1.07813,-0.31641 c -0.008,-0.58984 -0.17285,-1.06054 -0.49511,-1.41211 -0.32228,-0.35155 -0.74903,-0.52734 -1.28028,-0.52734 -0.60156,0 -1.08301,0.16993 -1.44433,0.50976 -0.36133,0.33985 -0.56934,0.81837 -0.62403,1.43555 z m 8.30274,-2.69531 -2.37305,3.19336 2.49609,3.36914 h -1.27148 l -1.91016,-2.57813 -1.91015,2.57813 h -1.27149 l 2.54883,-3.43359 -2.33203,-3.12891 h 1.27148 l 1.74024,2.33789 1.74023,-2.33789 z m 4.98047,3.41602 c -1e-5,0.55859 0.13866,0.99707 0.41601,1.31542 0.27734,0.31837 0.6582,0.47755 1.14258,0.47754 0.48046,1e-5 0.85839,-0.16015 1.13379,-0.48046 0.27538,-0.32032 0.41308,-0.75781 0.41308,-1.3125 0,-0.54688 -0.14063,-0.98145 -0.42187,-1.30372 -0.28126,-0.32226 -0.66016,-0.48339 -1.13672,-0.48339 -0.47266,0 -0.84864,0.16016 -1.12793,0.48046 -0.2793,0.32032 -0.41895,0.75587 -0.41894,1.30665 z m 3.19335,1.75195 c -0.23438,0.30078 -0.50293,0.52246 -0.80566,0.66504 -0.30274,0.14258 -0.65528,0.21387 -1.05762,0.21386 -0.67188,10e-6 -1.21777,-0.24316 -1.63769,-0.72949 -0.41993,-0.48632 -0.62989,-1.12011 -0.62988,-1.90136 -1e-5,-0.78125 0.21093,-1.41602 0.63281,-1.9043 0.42187,-0.48828 0.96679,-0.73242 1.63476,-0.73242 0.40234,0 0.75586,0.0732 1.06055,0.21972 0.30468,0.14649 0.57226,0.36817 0.80273,0.66504 v -0.76758 h 0.8379 v 4.3125 c 0.5703,-0.0859 1.01659,-0.34667 1.33886,-0.78222 0.32226,-0.43555 0.48339,-0.99902 0.4834,-1.69043 -1e-5,-0.41797 -0.0615,-0.81054 -0.18457,-1.17774 -0.12306,-0.36718 -0.30958,-0.70702 -0.55957,-1.01953 -0.40626,-0.51171 -0.90138,-0.90331 -1.48535,-1.1748 -0.58399,-0.27148 -1.21973,-0.40722 -1.90723,-0.40723 -0.48047,10e-6 -0.94141,0.0635 -1.38281,0.19043 -0.44141,0.12696 -0.84961,0.31544 -1.22461,0.56543 -0.61328,0.39844 -1.09278,0.9209 -1.43848,1.56738 -0.3457,0.64649 -0.51855,1.34669 -0.51855,2.10059 0,0.6211 0.1123,1.20313 0.33691,1.74609 0.22461,0.54297 0.54981,1.02149 0.97559,1.43555 0.41015,0.40625 0.88476,0.71582 1.42383,0.92871 0.53905,0.21289 1.11523,0.31934 1.72851,0.31934 0.5039,0 0.99902,-0.085 1.48535,-0.25489 0.48632,-0.16992 0.93261,-0.41308 1.33887,-0.72949 l 0.52735,0.65039 c -0.48829,0.37891 -1.02052,0.66895 -1.59668,0.87012 -0.57618,0.20117 -1.16114,0.30175 -1.75489,0.30176 -0.72266,-10e-6 -1.4043,-0.12793 -2.04492,-0.38379 -0.64063,-0.25586 -1.21094,-0.62793 -1.71094,-1.11621 -0.5,-0.48828 -0.88086,-1.05371 -1.14257,-1.69629 -0.26172,-0.64258 -0.39258,-1.33301 -0.39258,-2.07129 0,-0.71093 0.13281,-1.38867 0.39843,-2.0332 0.26563,-0.64453 0.64453,-1.21094 1.13672,-1.69922 0.50391,-0.49609 1.08594,-0.87597 1.7461,-1.13965 0.66015,-0.26366 1.35937,-0.3955 2.09765,-0.39551 0.82812,10e-6 1.59668,0.16993 2.30567,0.50977 0.70897,0.33985 1.3037,0.82227 1.78418,1.44726 0.29296,0.38282 0.51659,0.79884 0.6709,1.24805 0.15428,0.44922 0.23143,0.91407 0.23144,1.39453 -1e-5,1.02735 -0.31056,1.83789 -0.93164,2.43164 -0.6211,0.59375 -1.47852,0.90235 -2.57227,0.92578 z m 5.43165,-7.72266 h 1.08398 v 5.38477 l 3.2168,-2.83008 h 1.37695 l -3.48047,3.07031 3.62695,3.49219 h -1.40625 l -3.33398,-3.20508 v 3.20508 h -1.08398 z m 9.54492,3.31055 c -0.57813,0 -1.03516,0.22559 -1.3711,0.67676 -0.33594,0.45117 -0.5039,1.06934 -0.5039,1.85449 0,0.78516 0.16699,1.40332 0.50097,1.85449 0.33399,0.45117 0.79199,0.67676 1.37403,0.67676 0.57421,0 1.02929,-0.22656 1.36523,-0.67969 0.33593,-0.45312 0.5039,-1.07031 0.50391,-1.85156 -1e-5,-0.77734 -0.16798,-1.39355 -0.50391,-1.84863 -0.33594,-0.45508 -0.79102,-0.68262 -1.36523,-0.68262 z m 0,-0.91406 c 0.93749,0 1.67382,0.30469 2.20898,0.91406 0.53515,0.60938 0.80273,1.45313 0.80274,2.53125 -1e-5,1.07422 -0.26759,1.91699 -0.80274,2.52832 -0.53516,0.61133 -1.27149,0.91699 -2.20898,0.91699 -0.94141,0 -1.67872,-0.30566 -2.21192,-0.91699 -0.5332,-0.61133 -0.7998,-1.4541 -0.7998,-2.52832 0,-1.07812 0.2666,-1.92187 0.7998,-2.53125 0.5332,-0.60937 1.27051,-0.91406 2.21192,-0.91406 z m 10.24804,2.75976 v 3.96094 h -1.07812 v -3.92578 c -10e-6,-0.62109 -0.1211,-1.08593 -0.36328,-1.39453 -0.24219,-0.30859 -0.60548,-0.46289 -1.08985,-0.46289 -0.58203,0 -1.04101,0.18555 -1.37695,0.55664 -0.33594,0.3711 -0.50391,0.87695 -0.50391,1.51758 v 3.70898 h -1.08398 v -6.5625 h 1.08398 v 1.01953 c 0.25781,-0.39452 0.56153,-0.68945 0.91114,-0.88476 0.3496,-0.19531 0.75292,-0.29297 1.20996,-0.29297 0.7539,0 1.32421,0.2334 1.71094,0.70019 0.38671,0.4668 0.58007,1.15333 0.58007,2.05957 z m 2.16211,-2.60156 h 1.07813 v 6.5625 h -1.07813 z m 0,-2.55469 h 1.07813 v 1.36524 h -1.07813 z m 8.78321,5.15625 v 3.96094 h -1.07813 v -3.92578 c 0,-0.62109 -0.1211,-1.08593 -0.36328,-1.39453 -0.24219,-0.30859 -0.60547,-0.46289 -1.08984,-0.46289 -0.58204,0 -1.04102,0.18555 -1.37696,0.55664 -0.33594,0.3711 -0.5039,0.87695 -0.5039,1.51758 v 3.70898 h -1.08399 v -6.5625 h 1.08399 v 1.01953 c 0.25781,-0.39452 0.56152,-0.68945 0.91113,-0.88476 0.34961,-0.19531 0.75293,-0.29297 1.20996,-0.29297 0.7539,0 1.32421,0.2334 1.71094,0.70019 0.38671,0.4668 0.58007,1.15333 0.58008,2.05957 z m 2.31445,2.47266 h 1.23633 v 1.48828 h -1.23633 z m 3.66797,-7.62891 h 1.07812 v 9.11719 h -1.07812 z m 8.4375,3.81446 c 0.26952,-0.48437 0.59179,-0.8418 0.9668,-1.07227 0.37499,-0.23046 0.81639,-0.3457 1.32421,-0.3457 0.68359,0 1.21093,0.23926 1.58204,0.71777 0.37108,0.47852 0.55663,1.15918 0.55664,2.04199 v 3.96094 h -1.08399 v -3.92578 c -10e-6,-0.6289 -0.11134,-1.0957 -0.33398,-1.40039 -0.22267,-0.30468 -0.56251,-0.45703 -1.01953,-0.45703 -0.55861,0 -1.00001,0.18555 -1.32422,0.55664 -0.32423,0.3711 -0.48634,0.87695 -0.48633,1.51758 v 3.70898 h -1.08399 v -3.92578 c 0,-0.63281 -0.11133,-1.10058 -0.33398,-1.40332 -0.22266,-0.30273 -0.56641,-0.4541 -1.03125,-0.4541 -0.55078,0 -0.98828,0.18653 -1.3125,0.55957 -0.32422,0.37305 -0.48633,0.87793 -0.48633,1.51465 v 3.70898 h -1.08398 v -6.5625 h 1.08398 v 1.01953 c 0.24609,-0.40234 0.54102,-0.69921 0.88477,-0.89062 0.34374,-0.1914 0.75195,-0.28711 1.22461,-0.28711 0.47655,0 0.88183,0.1211 1.21582,0.36328 0.33398,0.24219 0.58105,0.59375 0.74121,1.05469 z m 6.73828,3.81445 h 1.23633 v 1.48828 h -1.23633 z m 4.71094,0.5039 v 3.48047 h -1.08399 v -9.05859 h 1.08399 v 0.99609 c 0.22656,-0.39062 0.51269,-0.68065 0.8584,-0.87011 0.3457,-0.18945 0.75878,-0.28418 1.23925,-0.28418 0.79687,0 1.44433,0.31641 1.94239,0.94922 0.49804,0.63281 0.74706,1.46484 0.74707,2.49609 -10e-6,1.03125 -0.24903,1.86328 -0.74707,2.49609 -0.49806,0.63282 -1.14552,0.94922 -1.94239,0.94922 -0.48047,0 -0.89355,-0.0947 -1.23925,-0.28418 -0.34571,-0.18945 -0.63184,-0.47949 -0.8584,-0.87012 z m 3.66797,-2.29101 c -1e-5,-0.79297 -0.1631,-1.41504 -0.48926,-1.86621 -0.32618,-0.45117 -0.77442,-0.67675 -1.34473,-0.67676 -0.57031,10e-6 -1.01856,0.22559 -1.34472,0.67676 -0.32618,0.45117 -0.48926,1.07324 -0.48926,1.86621 0,0.79297 0.16308,1.41504 0.48926,1.86621 0.32616,0.45117 0.77441,0.67676 1.34472,0.67676 0.57031,0 1.01855,-0.22559 1.34473,-0.67676 0.32616,-0.45117 0.48925,-1.07324 0.48926,-1.86621 z m 2.90625,-5.8418 h 1.07812 v 9.11719 h -1.07812 z"
   id="text5906" />

<path
   sodipodi:nodetypes="csscscscsscs"
   id="path4886"
   d="M 459.82341,554.53292 C 455.3724,481.24697 330.8736,423.44272 265.39018,414.32612 218.34339,407.76147 53.78377,433.75593 21.91271,527.03015 3.23509,581.69231 19.77257,652.1604 51.88566,678.15416 c -2.6295,-65.30188 64.73181,51.96384 173.65833,73.16953 109.13684,21.24663 151.64312,-25.72727 196.41396,-64.94305 -27.80789,-34.53462 40.06046,-95.70703 37.86546,-131.84772 z m -214.47404,17.65696 c -60.88109,-5.67291 -93.57241,-37.63461 -100.66954,-75.03778 -7.09717,-37.40319 29.45992,-68.73448 85.7315,-65.18936 56.27159,3.54516 100.00161,36.44677 107.09875,73.84994 4.91126,47.90961 -52.78591,70.04615 -92.16071,66.3772 z"
   style="fill:url(#radialGradient9);stroke:#1d1d1d;stroke-width:0.577;stroke-linecap:round;stroke-miterlimit:4;stroke-dasharray:none;stroke-dashoffset:0;stroke-opacity:1" />
<path
   sodipodi:nodetypes="cssssccsscc"
   id="path4861"
   d="m 301.84862,442.1236 c 26.35817,13.95325 44.48281,48.4033 29.96022,79.13241 -13.13658,27.79639 -52.42732,48.85447 -120.55734,42.44371 -30.93311,-2.93186 -79.095,-32.48711 -79.16581,-77.17182 -0.0618,-38.99472 53.8859,-66.9557 114.68237,-64.98944 38.62273,1.24912 44.31404,14.5883 55.08056,20.58514 z m -45.61223,12.72728 c -36.00388,-10.93249 -74.83172,4.39811 -85.46936,28.1687 -10.63767,23.77058 9.94063,51.94603 45.94452,62.87854 36.0039,10.9325 68.95676,-1.08702 79.5944,-24.8576 12.01864,-31.52952 -13.15802,-57.39424 -40.06956,-66.18964 z"
   style="fill:#808080;fill-opacity:1;stroke:none;stroke-width:0.577;stroke-linecap:round;stroke-miterlimit:4;stroke-dasharray:none;stroke-dashoffset:0;stroke-opacity:1" />
<path
   id="path6398"
   d="m 322.01958,467.74484 c -3.13092,1.71711 -9.08306,5.02524 -13.92013,6.96007 -1.16001,0.464 -2.32002,0.928 -3.48003,1.39201 -6.54224,2.61689 -6.23842,6.98571 -2.08802,11.13611 3.39606,3.39606 3.48003,12.15625 3.48003,16.00815 0,5.09659 -1.22564,7.65607 4.17604,7.65607 1.34586,0 10.93182,-10.33795 15.31215,-12.52812 13.97517,-6.98758 8.76773,-3.77015 6.96006,-14.61614 -0.27767,-1.66602 -0.928,-3.24803 -1.39201,-4.87204 -0.9731,-3.40585 -6.30866,-8.39668 -9.04809,-11.13611 z"
   style="opacity:0.486239;fill:#ffffff;fill-opacity:1;fill-rule:evenodd;stroke:none;stroke-width:1px;stroke-linecap:butt;stroke-linejoin:miter;stroke-opacity:1;filter:url(#filter6428)" />
<path
   id="path5203"
   d="m 159.15401,451.73669 c -2.19565,1.87414 -5.66067,6.35667 -7.65607,8.35208 -3.43261,3.4326 -3.5628,7.04283 -6.96007,10.4401 -1.68284,1.68284 -2.63723,7.36248 -3.48003,9.04809 -1.28258,2.56516 -2.06173,6.21147 -3.48004,9.04808 -1.09679,2.19358 0,7.92297 0,10.4401 0,4.18993 1.35445,8.27694 2.78403,11.13611 1.53282,3.06564 2.10167,8.40667 2.78403,11.13611 0.99435,3.9774 6.13249,8.64065 9.04809,12.52812 2.12142,2.82856 4.1165,4.65339 6.26406,6.26406 2.41289,1.80967 4.74924,2.37462 6.96006,3.48003 3.03939,1.5197 3.0101,2.78403 7.65608,2.78403 7.78943,0 2.78402,-3.37309 2.78402,-10.4401 0,-1.66844 14.50294,-3.50834 3.48004,-6.26406 -4.58981,-1.14745 -7.30239,-10.42873 -9.04809,-13.92013 -2.80683,-5.61366 -2.19314,-12.94863 -3.48003,-18.09618 -1.14497,-4.57986 -1.07634,-10.3108 0,-14.61614 1.2615,-5.04603 4.17604,-7.80503 4.17604,-10.4401 0,-4.72784 -6.23397,-12.43786 -7.65608,-16.70416 -0.62252,-1.86759 -2.78402,-2.78403 -4.17604,-4.17604 z"
   style="opacity:0.362385;fill:#ffffff;fill-opacity:1;fill-rule:evenodd;stroke:none;stroke-width:1px;stroke-linecap:butt;stroke-linejoin:miter;stroke-opacity:1;filter:url(#filter6394)" />
<path
   sodipodi:nodetypes="ccccccccccc"
   transform="matrix(0.9353393,0,0,1,-407.7537,150.41406)"
   id="path5139"
   d="m 819.93714,316.74073 c -20.76269,-1.35225 -44.82641,-1.42718 -26.88489,23.95224 7.82659,13.79976 2.37513,30.97575 -6.77087,42.71529 -6.23778,9.77532 -12.48784,20.15806 -22.66016,26.33266 -6.07999,5.1261 -7.49427,17.57219 1.37325,20.55475 17.28896,8.34883 36.76234,13.31462 51.22539,26.62144 16.56546,12.38903 28.01022,11.29474 48.11132,8.37312 9.94587,-3.24157 14.04467,-13.97482 21.70359,-20.24268 9.07035,-10.16905 13.53772,-22.04472 15.39809,-35.1905 0.71925,-30.18411 -12.46978,-55.64102 -36.84582,-73.2723 -9.27089,-7.56634 -34.55741,-13.43698 -44.6499,-19.84402 z"
   style="opacity:0.697248;fill:#ffffff;fill-opacity:0.459082;fill-rule:evenodd;stroke:none;stroke-width:1px;stroke-linecap:butt;stroke-linejoin:miter;stroke-opacity:1" />
<path
   sodipodi:nodetypes="csssscsscs"
   id="path4876"
   d="m 367.26171,503.56068 c -11.4083,-48.81867 -62.85815,-73.68853 -138.90286,-85.96961 -46.65135,-7.53412 -119.37151,36.50004 -110.78141,98.22334 5.30551,38.12209 63.66233,78.24123 115.78402,84.15275 72.93063,8.2716 149.68493,-28.8604 133.90025,-96.40648 z m -121.06557,60.23288 c -60.82378,-0.64779 -95.55386,-29.86545 -103.5918,-60.71699 -8.47944,-32.54611 21.35369,-76.70801 77.4349,-77.80172 56.08122,-1.09367 102.10241,28.09976 112.16559,64.79132 8.74589,47.34172 -46.67095,74.14635 -86.00869,73.72739 z"
   style="fill:url(#linearGradient14);stroke:none;stroke-width:0.577;stroke-linecap:round;stroke-miterlimit:4;stroke-dasharray:none;stroke-dashoffset:0;stroke-opacity:1" />
<path
   sodipodi:nodetypes="cccccc"
   id="path2083"
   d="m 210.54492,433.68852 -1.58208,49.50685 c -1.16976,17.70825 53.36371,29.04081 53.17679,-1.62702 l 0.36324,-50.46584 c -15.03415,1.43498 -35.65425,0.70873 -50.86714,1.73147 z"
   style="fill:url(#linearGradient5966);fill-opacity:1;fill-rule:evenodd;stroke:none;stroke-width:1px;stroke-linecap:butt;stroke-linejoin:miter;stroke-opacity:1" />
<path
   sodipodi:nodetypes="cccc"
   id="path2081"
   d="m 214.77367,337.27963 c -29.741,18.56076 -57.36426,78.6329 -10.7104,109.36466 58.74581,35.87244 139.57713,-17.03155 115.16452,-115.11365 -37.18707,-6.64283 -75.59772,-7.62444 -104.45412,5.74899 z"
   style="fill:#1d1d1d;fill-opacity:1;fill-rule:evenodd;stroke:none;stroke-width:0.80199px;stroke-linecap:butt;stroke-linejoin:miter;stroke-opacity:1" />
<path
   sodipodi:nodetypes="cccc"
   id="path2079"
   d="m 217.73237,320.51448 c -53.70484,18.98065 -67.04423,88.37553 -21.56209,111.54058 72.3952,42.47061 179.15451,-4.79924 156.48391,-105.22262 -47.25939,-10.89697 -96.59791,-16.30101 -134.92182,-6.31796 z"
   style="fill:url(#linearGradient5962);fill-opacity:1;fill-rule:evenodd;stroke:none;stroke-width:0.911187px;stroke-linecap:butt;stroke-linejoin:miter;stroke-opacity:1" />
<path
   sodipodi:nodetypes="cccc"
   id="path2054"
   d="m 219.59161,313.1215 c -38.82554,14.02829 -78.47626,67.13496 -22.58747,101.12627 70.611,40.15856 176.33876,-0.26873 153.96619,-94.78075 C 304.926,309.07743 256.87388,303.8475 219.59161,313.1215 Z"
   style="fill:url(#radialGradient16);fill-rule:evenodd;stroke:none;stroke-width:0.871898px;stroke-linecap:butt;stroke-linejoin:miter;stroke-opacity:1" />
<path
   sodipodi:nodetypes="ccssccssccccc"
   id="path5747"
   d="m 203.00248,358.47178 c 2.89618,8.28229 1.3307,20.54249 -5.73693,27.12619 -5.50603,5.11739 -10.07877,6.02786 -14.88864,-0.5855 -4.63931,-6.37884 -5.76105,-15.00331 -4.34071,-22.00953 4.92467,-24.29235 30.04515,-41.22938 50.32859,-43.7787 21.36807,-3.10689 36.26751,3.82561 57.12078,-2.80011 11.02129,-2.63464 34.28001,2.77733 45.12961,6.64315 6.76389,2.41004 11.16144,11.2592 10.47495,18.36341 -1.31658,13.62481 -1.24512,28.91623 -8.45887,40.18415 -4.48669,7.04763 -17.49646,9.44374 -21.91082,1.7919 -6.2817,-7.53856 -15.78753,-20.46354 -26.10737,-21.67918 -13.24456,-2.64618 -25.72201,-19.51105 -37.98107,-14.95355 -15.10705,4.78574 -29.75634,3.90302 -43.62952,11.69777 z"
   style="opacity:0.550459;fill:#717171;fill-opacity:1;fill-rule:evenodd;stroke:none;stroke-width:1px;stroke-linecap:butt;stroke-linejoin:miter;stroke-opacity:1" />
<ellipse
   transform="matrix(-0.7713844,1.1063022,-1.0994945,-0.7761605,1595.6774,675.59722)"
   id="path941"
   style="fill:url(#radialGradient5886);fill-opacity:1;fill-rule:evenodd;stroke:#890d0d;stroke-width:1pt;stroke-linecap:butt;stroke-linejoin:miter;stroke-opacity:0.647368"
   cx="418.10638"
   cy="792.90277"
   rx="12.734222"
   ry="7.4282837" />
<ellipse
   inkscape:transform-center-x="8.3520807"
   transform="matrix(1.0575766,-1.2960125,1.4505434,1.1836774,-1181.211,170.60369)"
   id="path4893"
   style="fill:url(#radialGradient5888);fill-opacity:1;fill-rule:evenodd;stroke:#890d0d;stroke-width:1pt;stroke-linecap:butt;stroke-linejoin:miter;stroke-opacity:0.647368"
   cx="418.10638"
   cy="792.90277"
   rx="12.734222"
   ry="7.4282837" />
<path
   sodipodi:nodetypes="csccccc"
   id="path4914"
   d="m 75.86626,600.20142 c -3.69781,22.16197 7.29198,49.17779 29.31665,67.36134 22.60107,18.65947 50.02523,22.38257 68.3135,11.21735 -39.63394,-14.72634 -70.24709,-42.76758 -97.53666,-78.48468 -0.06368,-0.0547 -0.05936,-0.0597 -0.09349,-0.094 z m 97.63015,78.57869 c -0.006,0.0153 -0.0471,0.0209 0,0 z"
   style="fill:url(#radialGradient5);stroke:none;stroke-width:0.577;stroke-linecap:round;stroke-miterlimit:4;stroke-dasharray:none;stroke-dashoffset:0;stroke-opacity:1" />
<path
   id="path5021"
   d="m 95.38138,607.2696 c -6.03724,4.3589 -11.51894,9.57067 -15.46965,17.1593 0.99922,1.39885 2.06358,2.82825 3.20404,4.28714 3.69826,-6.46435 8.82358,-12.03428 14.67317,-17.13967 -0.82092,-1.39598 -1.61144,-2.83488 -2.40756,-4.30677 z m 76.58003,67.20394 c -1.42032,-0.87377 -2.83392,-1.73431 -4.24225,-2.58544 -1.83396,1.79207 -3.5272,3.79356 -5.15944,5.86779 1.85015,0.29081 3.72606,0.52742 5.62233,0.72334 1.17768,-1.36334 2.43874,-2.70812 3.77936,-4.00569 z m -8.62027,-5.20438 c -1.48576,-0.88883 -2.95604,-1.78121 -4.42553,-2.6594 -2.71566,2.72504 -5.07686,5.74394 -7.33565,8.85792 1.78197,0.47286 3.5931,0.90653 5.42431,1.29348 2.01723,-2.58046 4.0679,-5.12585 6.33687,-7.492 z m -62.27031,-52.43649 c -5.43756,4.73717 -10.3992,9.98877 -13.85033,16.89624 1.03997,1.20653 2.11173,2.39906 3.23907,3.61928 2.69534,-5.44481 7.92628,-10.85717 13.52365,-16.27145 -0.97877,-1.36943 -1.96242,-2.79184 -2.91239,-4.24407 z m 52.58027,46.60868 c -1.56641,-0.94699 -3.13998,-1.88355 -4.68381,-2.83823 -3.53991,3.34615 -6.53711,7.05983 -9.11113,11.04006 1.82843,0.70785 3.67887,1.3704 5.56896,1.99118 2.60453,-3.51763 5.23913,-7.00086 8.22598,-10.19301 z m -46.04516,-37.55689 c -5.0204,4.49153 -9.86254,9.19254 -12.69728,16.07207 1.12609,1.11553 2.28605,2.22504 3.48216,3.33374 2.9597,-6.18472 7.56283,-10.95898 12.35998,-15.57944 -1.06408,-1.23165 -2.10873,-2.52068 -3.14486,-3.82637 z m 36.66695,31.7483 c -1.33973,-0.85783 -2.65835,-1.72796 -3.97793,-2.60668 -3.79441,3.88994 -7.298,7.94116 -10.20508,12.32495 1.51172,0.74775 3.04553,1.46552 4.60695,2.1572 2.9676,-4.0737 6.06204,-8.07271 9.57606,-11.87547 z m -8.80899,-5.89857 c -1.42412,-1.00608 -2.82059,-2.04762 -4.21697,-3.09745 -4.01809,3.95057 -7.86552,8.16381 -10.76065,13.4115 1.40026,0.85229 2.82749,1.68554 4.2793,2.49386 3.22017,-4.56645 6.90219,-8.73177 10.69832,-12.80791 z m -20.38554,-17.27225 c -4.46276,4.41456 -8.78608,8.97028 -11.96192,15.01543 1.19057,1.01033 2.4289,2.01767 3.67765,3.00769 3.60307,-5.11667 7.72719,-9.77988 11.92334,-14.39163 -1.22739,-1.17158 -2.44193,-2.38858 -3.63907,-3.63149 z m 11.72336,10.71889 c -1.29147,-1.04703 -2.56364,-2.11472 -3.8275,-3.21733 -4.30232,4.28908 -8.45271,8.69684 -11.36478,14.16945 1.26771,0.91806 2.55706,1.83863 3.87665,2.72565 3.14972,-4.80752 7.18379,-9.26652 11.31563,-13.67777 z"
   style="fill:#4d4d4d;fill-opacity:1;stroke:none;stroke-width:0.577;stroke-linecap:round;stroke-miterlimit:4;stroke-dasharray:none;stroke-dashoffset:0;stroke-opacity:1" />
<path
   sodipodi:nodetypes="cccsccsc"
   id="path4903"
   d="m 82.16313,584.18627 c -3.10074,4.89482 -5.11998,10.38551 -6.12007,16.21099 27.36889,35.82085 58.09628,63.9275 97.89776,78.61895 4.51115,-2.81224 8.46006,-6.51946 11.61975,-11.16541 3.51611,-5.17003 5.76643,-11.04671 6.84291,-17.31713 -34.97617,-18.65198 -68.34959,-42.4862 -97.91506,-78.63286 -4.50348,2.81092 -8.44706,6.53968 -11.60246,11.17932 -0.24949,0.36686 -0.48599,0.73228 -0.72283,1.10614 z"
   style="fill:url(#linearGradient5953);fill-opacity:1;stroke:none;stroke-width:0.577;stroke-linecap:round;stroke-miterlimit:4;stroke-dasharray:none;stroke-dashoffset:0;stroke-opacity:1" />
<path
   sodipodi:nodetypes="ccsccsccc"
   id="path4935"
   d="m 117.86912,565.49476 c -8.70208,0.0165 -16.82512,2.15355 -23.67364,6.37305 0.0014,0.1069 -5.6e-4,0.2042 -8.5e-4,0.31249 -3.7e-4,0.0967 0.02733,0.21022 0.03034,0.31259 29.4923,35.98724 62.7628,59.75432 97.63075,78.35993 3.93872,-22.2525 -7.00927,-49.54825 -29.19028,-67.861 -14.16879,-11.69765 -30.26858,-17.52461 -44.79632,-17.49706 z m 73.9866,85.35806 c 0.0632,0.0805 0.11532,0.0696 0,0 z"
   style="fill:url(#radialGradient5950);fill-opacity:1;stroke:none;stroke-width:0.577;stroke-linecap:round;stroke-miterlimit:4;stroke-dasharray:none;stroke-dashoffset:0;stroke-opacity:1" />
<path
   d="m 96.83763,577.27765 3.50873,3.09003 c -8.8784,6.36703 -13.56389,15.13536 -18.44882,23.89172 l -3.50872,-3.09004 c 3.33682,-8.01271 8.12113,-18.18521 18.44881,-23.89171 z m 6.73815,8.27728 3.50872,3.09003 c -8.8784,6.36702 -13.56389,15.13535 -18.44881,23.89171 l -3.50873,-3.09004 c 3.33682,-8.01271 8.12114,-18.18521 18.44882,-23.8917 z m 7.07673,7.83028 3.50872,3.09004 c -8.87839,6.36703 -13.56388,15.13535 -18.44881,23.89171 l -3.50873,-3.09003 c 3.33682,-8.01271 8.12114,-18.18522 18.44882,-23.89172 z m 7.07673,7.83029 3.50873,3.09004 c -8.8784,6.36702 -13.56389,15.13536 -18.44881,23.89172 l -3.50873,-3.09004 c 3.33682,-8.01271 8.12114,-18.18523 18.44881,-23.89172 z m 7.5225,7.24184 3.50871,3.09004 c -8.87838,6.36702 -13.56388,15.13535 -18.4488,23.89171 l -3.50872,-3.09004 c 3.3368,-8.01271 8.12112,-18.18521 18.44881,-23.89171 z m 8.01575,6.99809 3.50872,3.09002 c -8.8784,6.36703 -13.56389,15.13536 -18.44881,23.89172 l -3.50873,-3.09004 c 3.33682,-8.01271 8.12114,-18.18521 18.44882,-23.8917 z m 7.92066,6.30861 3.50872,3.09004 c -8.87839,6.36703 -13.56389,15.13536 -18.44881,23.89172 l -3.50872,-3.09004 c 3.33681,-8.01271 8.12113,-18.18522 18.44881,-23.89172 z m 7.29415,5.66524 3.72905,2.8202 c -8.37962,7.01046 -12.39927,16.10329 -16.61871,25.19903 l -3.72904,-2.8202 c 2.73097,-8.2389 6.74458,-18.73941 16.6187,-25.19903 z m 8.45716,5.25756 3.81188,2.70722 c -8.16591,7.2583 -11.9113,16.46752 -15.85632,25.68559 l -3.81187,-2.70723 c 2.48292,-8.31702 6.18019,-18.93302 15.85631,-25.68558 z m 9.26437,5.73645 3.7696,2.76584 c -8.27713,7.1312 -12.16438,16.28145 -16.25136,25.43748 l -3.7696,-2.76583 c 2.61117,-8.27765 6.47199,-18.8353 16.25136,-25.43749 z m 9.49959,4.99549 3.72906,2.8202 c -8.37962,7.01047 -12.39927,16.1033 -16.61871,25.19904 l -3.72905,-2.8202 c 2.73098,-8.23891 6.74459,-18.73941 16.6187,-25.19904 z m 9.24413,4.78274 3.65733,2.91258 c -8.55238,6.79864 -12.79819,15.7881 -17.24378,24.77549 l -3.65732,-2.91258 c 2.93612,-8.16805 7.21115,-18.56487 17.24377,-24.77549 z"
   style="fill:#cca300;fill-opacity:1;stroke:none;stroke-width:0.577;stroke-linecap:round;stroke-miterlimit:4;stroke-dashoffset:0;stroke-opacity:1"
   id="path5137" />
<path
   id="text5187"
   d="m 132.662,588.03389 c -0.83894,0.92108 -1.74933,1.48557 -2.73117,1.69348 -1.27455,0.26924 -2.56404,-0.19019 -3.86847,-1.37829 l -1.65793,-1.51007 -3.07454,3.3756 -2.65119,-2.41474 9.28486,-10.19399 4.21948,3.84318 c 1.19987,1.09287 1.79128,2.27372 1.77425,3.54257 -0.011,1.09218 -0.44278,2.10626 -1.29529,3.04226 z m -2.78295,-2.48008 c 0.34463,-0.37839 0.50933,-0.78174 0.49413,-1.21007 -0.0152,-0.42833 -0.28922,-0.8851 -0.82194,-1.37032 l -0.88869,-0.80945 -2.30592,2.5317 0.88124,0.80263 c 0.57254,0.5215 1.07924,0.75527 1.52007,0.70133 0.39823,-0.0472 0.77192,-0.26247 1.12111,-0.64582 z m 9.82631,9.79531 c -0.33219,0.40692 -0.75174,0.63601 -1.25866,0.68727 -0.50697,0.0513 -0.9639,-0.0892 -1.3708,-0.42137 -0.4017,-0.32791 -0.62711,-0.74664 -0.67624,-1.25621 -0.0491,-0.50953 0.0902,-0.96515 0.41816,-1.36686 0.32791,-0.40168 0.74534,-0.62816 1.2523,-0.67944 0.50692,-0.0512 0.96124,0.0871 1.36294,0.41498 0.4017,0.32792 0.62947,0.74642 0.68336,1.25548 0.0539,0.50908 -0.0832,0.96446 -0.41106,1.36615 z m -8.37287,9.92133 -2.5667,-2.09525 5.92803,-7.26185 2.56669,2.09524 z m 19.53664,5.27177 c -0.75694,1.05658 -1.75365,1.71358 -2.99013,1.97098 -1.50196,0.31574 -3.01116,-0.0696 -4.52759,-1.15593 -1.52192,-1.09029 -2.37498,-2.39729 -2.55916,-3.92096 -0.15406,-1.25358 0.16307,-2.43054 0.95137,-3.53092 0.70986,-0.99089 1.6897,-1.61855 2.93951,-1.88299 1.51134,-0.3173 3.04987,0.0849 4.61559,1.20655 1.43979,1.03146 2.25804,2.31765 2.45475,3.85858 0.1595,1.25749 -0.13528,2.40905 -0.88434,3.45469 z m -2.80022,-2.00605 c 0.35296,-0.49271 0.47818,-1.03467 0.37568,-1.62585 -0.10252,-0.5912 -0.40013,-1.06329 -0.89283,-1.41627 -0.55841,-0.40003 -1.16183,-0.51752 -1.81025,-0.35244 -0.52391,0.12999 -0.93883,0.4085 -1.24472,0.83552 -0.30984,0.43249 -0.44204,0.91767 -0.39659,1.45555 0.0523,0.66706 0.35764,1.20062 0.91605,1.60066 0.49818,0.35688 1.04228,0.48779 1.6323,0.39271 0.59,-0.0951 1.06345,-0.39171 1.42036,-0.88988 z m 19.76294,20.86932 -3.11773,-1.77187 3.03605,-7.40703 -6.82124,5.25584 -1.23831,-0.70376 1.15663,-8.47513 -4.94182,6.32393 -3.10015,-1.76188 8.85045,-10.82994 3.07381,1.74691 -1.20086,7.77609 6.2068,-4.93111 3.10016,1.76187 z"
   style="font-style:normal;font-weight:normal;font-size:20.688px;font-family:Aharoni;fill:#5b5b5b;fill-opacity:1;stroke:none;stroke-width:1px;stroke-linecap:butt;stroke-linejoin:miter;stroke-opacity:1" />
<path
   sodipodi:nodetypes="cccccccccs"
   id="path6442"
   d="m 193.25831,354.29574 c 0.54826,19.85889 11.07417,28.94349 23.38836,36.53274 14.88948,8.1022 32.52265,15.80734 49.78266,12.23797 20.21912,-2.03572 32.33806,-34.44622 24.09353,-50.31347 C 271.6375,260.44182 286.50119,139.4307 229.88007,101.67144 193.64048,82.708642 165.80014,118.86113 125.83939,96.699529 112.18094,85.049834 89.09476,89.204111 89.18863,109.92551 c -1.95804,17.80936 4.42108,35.54123 1.68837,53.46837 -4.63654,17.35405 12.78142,27.81317 21.88004,39.51685 35.57003,40.19395 79.10674,100.87283 80.50127,151.38501 z"
   style="fill:#181818;fill-opacity:1;fill-rule:evenodd;stroke:none;stroke-width:1px;stroke-linecap:butt;stroke-linejoin:miter;stroke-opacity:1" />
<path
   sodipodi:nodetypes="ccccccccccccc"
   id="path4369"
   d="m 234.32276,111.38939 c -8.70941,9.6632 -4.8091,24.2308 1.49659,34.07465 6.49508,27.92912 12.79129,55.92992 21.13637,83.37556 6.35876,23.59933 12.10842,47.51615 13.43056,72.00575 2.80871,17.55808 9.44966,34.46738 9.48615,52.45707 1.33731,8.57514 -1.67587,18.20087 2.67586,25.95273 8.01731,9.01365 18.95949,-2.50811 12.19566,-11.32392 -5.08258,-11.14813 -8.67986,-22.67592 -10.01592,-34.81808 -7.92849,-36.73994 -5.56571,-74.63509 -11.52554,-111.63583 -5.55592,-27.14531 -3.14542,-56.12232 -15.3646,-81.68184 -7.76584,-14.59816 -15.51472,-29.06062 -21.46736,-29.15314 z"
   style="opacity:0.178899;fill:#ffffff;fill-opacity:1;fill-rule:evenodd;stroke:none;stroke-width:1px;stroke-linecap:butt;stroke-linejoin:miter;stroke-opacity:1;filter:url(#filter4437)" />
<path
   sodipodi:nodetypes="cscccc"
   id="path6447"
   d="M 214.13856,130.18158 C 161.01598,132.4119 36.44946,129.16361 55.16779,85.569189 80.62955,26.26953 154.82209,19.09754 205.63218,14.5849 c 10.13642,-1.19116 36.95926,15.76484 37.80508,25.28373 -44.65408,18.870517 -19.35243,49.515723 -28.34041,86.91286 -0.25326,1.15027 -0.54707,2.29478 -0.95829,3.40009 z"
   style="fill:#151515;fill-opacity:1;fill-rule:evenodd;stroke:none;stroke-width:1px;stroke-linecap:butt;stroke-linejoin:miter;stroke-opacity:1" />
<path
   sodipodi:nodetypes="cccccc"
   id="path4512"
   d="m 193.81177,27.17172 c -20.21561,-0.57167 -18.30274,24.708668 -28.49086,35.124857 -14.22803,-6.181556 4.75744,-26.326277 -75.80295,-1.791706 6.43081,-9.60002 59.31035,-25.528041 70.18111,-31.888601 12.1015,-0.68689 33.9511,-5.93353 39.77571,-4.67548 -1.85425,1.14 -3.94602,1.86163 -5.66301,3.23093 z"
   style="opacity:0.394495;mix-blend-mode:normal;fill:#ffffff;fill-opacity:1;fill-rule:evenodd;stroke:none;stroke-width:1px;stroke-linecap:butt;stroke-linejoin:miter;stroke-opacity:1;filter:url(#filter18)" />
<ellipse
   transform="matrix(-1.0831156,0.6559667,-0.6618617,-1.1291276,895.00966,619.04197)"
   id="path4897"
   style="fill:#5e5e5e;fill-opacity:1;stroke:none;stroke-width:0.577;stroke-linecap:round;stroke-miterlimit:4;stroke-dasharray:none;stroke-dashoffset:0;stroke-opacity:1"
   cx="248.4744"
   cy="627.74976"
   rx="53.592518"
   ry="42.456409" />
<path
   sodipodi:nodetypes="ccccccc"
   id="path4271"
   d="m 117.39364,174.726 c 0.24929,10.38361 15.7741,8.10689 24.0216,9.35108 54.08393,18.73231 81.8939,100.49331 95.79493,150.96067 -7.42957,7.81781 11.26422,49.13856 8.28413,36.10135 -0.80537,-10.94631 -0.0765,-52.61781 -1.35116,-63.50286 -4.2361,-17.83389 -15.47333,-33.06734 -19.63906,-50.93676 C 208.3747,218.23834 165.69666,157.63887 117.39364,174.726 Z"
   style="opacity:0.307339;fill:#ffffff;fill-opacity:1;fill-rule:evenodd;stroke:none;stroke-width:1px;stroke-linecap:butt;stroke-linejoin:miter;stroke-opacity:1;filter:url(#filter4365)" />
<path
   sodipodi:nodetypes="ccccccccc"
   id="path4451"
   d="M 242.04261,368.72458 C 237.87643,382.46619 174.8222,253.17231 130.95197,230.59944 107.23491,218.47906 91.78978,203.18089 91.32522,197.27161 c 0.14798,-11.14294 19.57226,3.35767 24.83459,6.91178 12.04047,7.834 23.43568,16.76619 33.9366,26.51134 9.39142,6.71286 21.08218,9.76406 29.37217,18.13717 14.56265,12.37944 22.64608,30.12094 29.50429,47.51697 7.41198,17.2629 13.31016,35.17409 22.28118,51.74348 3.82862,6.79735 8.08769,13.24536 10.78856,20.63223 z"
   style="fill:#5c5c5c;fill-opacity:1;fill-rule:evenodd;stroke:none;stroke-width:1px;stroke-linecap:butt;stroke-linejoin:miter;stroke-opacity:1" />
<path
   sodipodi:nodetypes="ccccc"
   id="path6515"
   d="m 110.19556,174.73213 c -44.46598,6.24 -18.76274,33.09504 9.80055,41.60618 62.56541,33.86483 70.38381,63.20242 106.43995,125.97833 4.30833,9.69369 15.86722,40.75803 16.20339,29.31693 0.26947,-71.77336 -56.17991,-204.96046 -132.44389,-196.90144 z"
   style="fill:url(#linearGradient5938);fill-opacity:1;fill-rule:evenodd;stroke:none;stroke-width:1px;stroke-linecap:butt;stroke-linejoin:miter;stroke-opacity:1" />
<ellipse
   style="font-size:12px;fill:#999999;fill-rule:evenodd;stroke:url(#radialGradient5896)"
   id="path2315"
   transform="matrix(2.8030381,0.3241441,0,2.1352539,-834.53992,-1055.0746)"
   cx="342.21497"
   cy="533.45312"
   rx="8.0551605"
   ry="5.1968994" />
<ellipse
   style="font-size:12px;fill:url(#radialGradient5898);fill-opacity:1;fill-rule:evenodd;stroke:none"
   id="path612"
   transform="matrix(1.8222262,0.1984723,0,1.3074082,-498.65307,-571.29585)"
   cx="342.21497"
   cy="533.45312"
   rx="8.0551605"
   ry="5.1968994" />
<ellipse
   transform="matrix(-0.9816598,0.5945221,-0.5998649,-1.0233618,832.53296,567.10465)"
   id="path5722"
   style="fill:#8a8a8a;fill-opacity:1;stroke:none;stroke-width:0.577;stroke-linecap:round;stroke-miterlimit:4;stroke-dasharray:none;stroke-dashoffset:0;stroke-opacity:1"
   cx="248.4744"
   cy="627.74976"
   rx="53.592518"
   ry="42.456409" />
<path
   style="font-size:12px;fill:url(#radialGradient5932);fill-opacity:1;fill-rule:evenodd;stroke:#890d0d;stroke-width:1;stroke-opacity:0.647368"
   d="m 229.81948,39.2868 c 1.7929,2.82022 4.44652,5.45977 6.41143,8.53646 3.54812,5.555432 5.71353,7.889009 7.58754,14.758934 2.00959,7.367038 4.05827,18.274811 11.05382,18.196799 6.28746,-0.07011 10.27807,-1.842856 11.04746,-11.368501 0.51546,-6.380728 -3.3835,-24.806352 -6.18728,-29.612922 -2.66156,-4.56271 -11.09943,-7.98943 -15.1704,-9.48911 -8.14535,-3.00039 -6.20826,-4.93108 -13.26289,3.25324 -1.66641,1.93327 -2.0341,3.48433 -1.47968,5.7251 z"
   id="path651" />
<g
   transform="translate(-448.45986,152.50208)"
   id="g5733">
  <ellipse
     transform="matrix(0.7907262,-0.8229134,1.1055105,1.1505374,-74.277198,-300.22928)"
     id="path646"
     style="font-size:12px;fill:url(#linearGradient5902);fill-rule:evenodd;stroke:#1a6b0b;stroke-opacity:1"
     cx="338.04147"
     cy="419.42548"
     rx="16.508118"
     ry="12.00592" />
  <ellipse
     transform="matrix(0.4771542,-0.3978264,0.6241819,0.7153946,234.36357,-264.27429)"
     id="path647"
     style="font-size:12px;fill:#009c00;fill-opacity:1;fill-rule:evenodd;stroke:#1a6b0b;stroke-width:1.9103;stroke-opacity:1"
     cx="338.04147"
     cy="419.42548"
     rx="16.508118"
     ry="12.00592" />
</g>
<g
   transform="translate(-448.45986,154.5901)"
   id="g5724"><rect
   transform="matrix(0.8910067,-0.4539902,0.4859211,0.8740027,0,0)"
   y="219.37119"
   x="570.83618"
   height="24.915062"
   width="16.691759"
   id="rect652"
   style="font-size:12px;fill:#5f5fd3;fill-opacity:1;fill-rule:evenodd;stroke:#4c4c4c;stroke-width:1.50753;stroke-opacity:1" />
<path
   transform="matrix(0.9414651,-0.3371105,0.5157427,0.8567435,0,0)"
   style="font-size:12px;fill:#5f5fd3;fill-opacity:1;fill-rule:evenodd;stroke:#4c4c4c;stroke-width:1.1381;stroke-opacity:1"
   d="m 573.03958,155.42198 15.92325,-2.16015 c 8.26787,4.73411 3.54944,16.59328 -0.0428,16.21044 l -16.54746,2.34536 c 7.02226,-2.38494 10.32604,-14.97218 0.667,-16.39565 z"
   id="rect4506"
   sodipodi:nodetypes="ccccc" />
<path
   transform="matrix(0.8910067,-0.4539902,0.4859211,0.8740027,0,0)"
   style="font-size:12px;opacity:1;fill:#3f3f3f;fill-opacity:1;fill-rule:evenodd;stroke:none;stroke-width:1.50753;stroke-opacity:1"
   d="m 570.74804,219.48188 h 16.69176 l -0.14264,8.16753 -16.52695,0.23492 z"
   id="rect4509"
   sodipodi:nodetypes="ccccc" />
<path
   transform="matrix(0.8955085,-0.3969048,0.4136714,0.9333377,0,0)"
   style="font-weight:normal;font-size:10.3437px;font-family:'Luxi Sans'"
   d="m 601.81654,176.61962 c 0,-1.22898 0.32998,-2.19113 0.98993,-2.88644 0.65995,-0.6953 1.51182,-1.04295 2.55563,-1.04296 0.68351,1e-5 1.29969,0.16331 1.84853,0.48991 0.54883,0.32662 0.9672,0.78202 1.25509,1.3662 0.28788,0.5842 0.43182,1.24667 0.43183,1.98743 -10e-6,0.75087 -0.15153,1.4226 -0.45456,2.01521 -0.30304,0.59261 -0.73235,1.04128 -1.28791,1.346 -0.55558,0.30472 -1.15492,0.45708 -1.79803,0.45708 -0.697,0 -1.31991,-0.16835 -1.86874,-0.50506 -0.54884,-0.33671 -0.96468,-0.79632 -1.24751,-1.37883 -0.28284,-0.58251 -0.42426,-1.19869 -0.42426,-1.84854 z m 1.01013,0.0152 c 0,0.89229 0.23991,1.59517 0.71972,2.10865 0.47981,0.51348 1.08168,0.77022 1.80561,0.77022 0.73739,0 1.3443,-0.25926 1.82075,-0.7778 0.47644,-0.51853 0.71466,-1.25424 0.71467,-2.20713 -10e-6,-0.60271 -0.10186,-1.12881 -0.30556,-1.57833 -0.20372,-0.4495 -0.50171,-0.79799 -0.89397,-1.04548 -0.39227,-0.24748 -0.83252,-0.37122 -1.32074,-0.37122 -0.69363,0 -1.29045,0.23822 -1.79046,0.71466 -0.50001,0.47645 -0.75002,1.27193 -0.75002,2.38643 z m 7.31839,3.59101 v -7.40424 h 1.00508 l 3.889,5.81329 v -5.81329 h 0.93942 v 7.40424 h -1.00508 l -3.889,-5.81834 v 5.81834 z"
   id="text656" />

<path
   transform="matrix(0.8767637,-0.4367542,0.4552041,0.9138012,0,0)"
   style="font-weight:normal;font-size:10.3437px;font-family:'Luxi Sans'"
   d="m 593.56746,240.43609 c 0,-1.22899 0.32997,-2.19113 0.98992,-2.88645 0.65995,-0.69529 1.51183,-1.04295 2.55563,-1.04295 0.68352,0 1.2997,0.16331 1.84854,0.48991 0.54883,0.32661 0.96719,0.78201 1.25509,1.3662 0.28787,0.5842 0.43182,1.24667 0.43183,1.98743 -10e-6,0.75086 -0.15153,1.4226 -0.45456,2.01521 -0.30305,0.59261 -0.73235,1.04127 -1.28792,1.34599 -0.55557,0.30473 -1.15492,0.45709 -1.79803,0.45709 -0.69699,0 -1.3199,-0.16836 -1.86874,-0.50507 -0.54884,-0.33671 -0.96467,-0.79631 -1.24751,-1.37882 -0.28283,-0.58251 -0.42425,-1.19869 -0.42425,-1.84854 z m 1.01013,0.0152 c 0,0.89228 0.2399,1.59517 0.71971,2.10865 0.47981,0.51348 1.08168,0.77022 1.80561,0.77022 0.73739,0 1.34431,-0.25927 1.82076,-0.7778 0.47644,-0.51853 0.71466,-1.25424 0.71467,-2.20713 -10e-6,-0.60271 -0.10186,-1.12882 -0.30557,-1.57833 -0.20371,-0.4495 -0.5017,-0.798 -0.89396,-1.04548 -0.39227,-0.24748 -0.83252,-0.37122 -1.32075,-0.37123 -0.69362,1e-5 -1.29044,0.23823 -1.79045,0.71467 -0.50002,0.47645 -0.75002,1.27193 -0.75002,2.38643 z m 7.37899,3.59101 v -7.4043 h 4.99509 v 0.87376 h -4.01526 v 2.293 h 3.47485 v 0.87376 h -3.47485 v 3.36373 z m 6.32341,0 v -7.4043 h 4.9951 v 0.87376 h -4.01527 v 2.293 h 3.47485 v 0.87376 h -3.47485 v 3.36373 z"
   id="text659" />

</g>
</g>
</svg>
