<?xml version="1.0" encoding="UTF-8" standalone="no"?>
<!-- Created with Inkscape (http://www.inkscape.org/) -->

<svg
   width="256mm"
   height="256mm"
   viewBox="0 0 256 256"
   version="1.1"
   id="svg1"
   inkscape:version="1.3.2 (091e20ef0f, 2023-11-25)"
   sodipodi:docname="applications-utilities.svg"
   xml:space="preserve"
   xmlns:inkscape="http://www.inkscape.org/namespaces/inkscape"
   xmlns:sodipodi="http://sodipodi.sourceforge.net/DTD/sodipodi-0.dtd"
   xmlns:xlink="http://www.w3.org/1999/xlink"
   xmlns="http://www.w3.org/2000/svg"
   xmlns:svg="http://www.w3.org/2000/svg"
   xmlns:rdf="http://www.w3.org/1999/02/22-rdf-syntax-ns#"
   xmlns:cc="http://creativecommons.org/ns#"
   xmlns:dc="http://purl.org/dc/elements/1.1/"><defs
     id="defs1"><linearGradient
       id="linearGradient90"
       inkscape:collect="always"><stop
         style="stop-color:#000000;stop-opacity:0.22182468;"
         offset="0"
         id="stop88" /><stop
         style="stop-color:#000000;stop-opacity:0.05656566;"
         offset="0.77967769"
         id="stop89" /><stop
         style="stop-color:#000000;stop-opacity:0;"
         offset="1"
         id="stop90" /></linearGradient><linearGradient
       id="linearGradient87"
       inkscape:collect="always"><stop
         style="stop-color:#000000;stop-opacity:0.14141414;"
         offset="0"
         id="stop85" /><stop
         style="stop-color:#000000;stop-opacity:0.01010101;"
         offset="0.19920997"
         id="stop86" /><stop
         style="stop-color:#000000;stop-opacity:0;"
         offset="1"
         id="stop87" /></linearGradient><linearGradient
       id="linearGradient81"
       inkscape:collect="always"><stop
         style="stop-color:#000000;stop-opacity:0.22182468;"
         offset="0"
         id="stop82" /><stop
         style="stop-color:#000000;stop-opacity:0.06262626;"
         offset="0.81487113"
         id="stop84" /><stop
         style="stop-color:#000000;stop-opacity:0;"
         offset="1"
         id="stop83" /></linearGradient><linearGradient
       id="linearGradient77"
       inkscape:collect="always"><stop
         style="stop-color:#ffffff;stop-opacity:1;"
         offset="0"
         id="stop78" /><stop
         style="stop-color:#bfbfbf;stop-opacity:1;"
         offset="0.39802799"
         id="stop80" /><stop
         style="stop-color:#a8a8a8;stop-opacity:1;"
         offset="0.75"
         id="stop81" /><stop
         style="stop-color:#808080;stop-opacity:1;"
         offset="1"
         id="stop79" /></linearGradient><linearGradient
       id="linearGradient73"
       inkscape:collect="always"><stop
         style="stop-color:#808080;stop-opacity:1;"
         offset="0.75"
         id="stop77" /><stop
         style="stop-color:#808080;stop-opacity:1;"
         offset="1"
         id="stop75" /></linearGradient><linearGradient
       id="linearGradient70"
       inkscape:collect="always"><stop
         style="stop-color:#ffffff;stop-opacity:1;"
         offset="0"
         id="stop70" /><stop
         style="stop-color:#bdbdbd;stop-opacity:1;"
         offset="0.5"
         id="stop72" /><stop
         style="stop-color:#a6a6a6;stop-opacity:1;"
         offset="0.75"
         id="stop73" /><stop
         style="stop-color:#808080;stop-opacity:1;"
         offset="1"
         id="stop71" /></linearGradient><linearGradient
       id="linearGradient66"
       inkscape:collect="always"><stop
         style="stop-color:#000000;stop-opacity:0.02828283;"
         offset="0"
         id="stop66" /><stop
         style="stop-color:#000000;stop-opacity:0.59797978;"
         offset="0.5"
         id="stop68" /><stop
         style="stop-color:#000000;stop-opacity:0.30505049;"
         offset="1"
         id="stop67" /></linearGradient><linearGradient
       id="linearGradient51"
       inkscape:collect="always"><stop
         style="stop-color:#f0f0f0;stop-opacity:1;"
         offset="0"
         id="stop52" /><stop
         style="stop-color:#818286;stop-opacity:1;"
         offset="1"
         id="stop53" /></linearGradient><linearGradient
       id="linearGradient46"
       inkscape:collect="always"><stop
         style="stop-color:#97999a;stop-opacity:1;"
         offset="0"
         id="stop46" /><stop
         style="stop-color:#97999a;stop-opacity:1;"
         offset="0.60093623"
         id="stop48" /><stop
         style="stop-color:#666868;stop-opacity:1;"
         offset="0.69494385"
         id="stop49" /><stop
         style="stop-color:#666767;stop-opacity:1;"
         offset="1"
         id="stop47" /></linearGradient><linearGradient
       id="linearGradient43"
       inkscape:collect="always"><stop
         style="stop-color:#9ea0a2;stop-opacity:1;"
         offset="0"
         id="stop43" /><stop
         style="stop-color:#b0b3b5;stop-opacity:1;"
         offset="0.29694766"
         id="stop50" /><stop
         style="stop-color:#edf0f2;stop-opacity:1;"
         offset="0.75"
         id="stop51" /><stop
         style="stop-color:#f2f6f8;stop-opacity:1;"
         offset="1"
         id="stop44" /></linearGradient><linearGradient
       id="linearGradient37"
       inkscape:collect="always"><stop
         style="stop-color:#e1e9ef;stop-opacity:1;"
         offset="0"
         id="stop37" /><stop
         style="stop-color:#c6cdd2;stop-opacity:1;"
         offset="0.28148335"
         id="stop39" /><stop
         style="stop-color:#767a7d;stop-opacity:1;"
         offset="0.57371908"
         id="stop40" /><stop
         style="stop-color:#8e9397;stop-opacity:1;"
         offset="1"
         id="stop38" /></linearGradient><linearGradient
       id="linearGradient34"
       inkscape:collect="always"><stop
         style="stop-color:#fbfbfb;stop-opacity:1;"
         offset="0"
         id="stop34" /><stop
         style="stop-color:#a3a8ac;stop-opacity:1;"
         offset="0.56573588"
         id="stop36" /><stop
         style="stop-color:#9ba0a4;stop-opacity:1;"
         offset="1"
         id="stop35" /></linearGradient><linearGradient
       id="linearGradient28"
       inkscape:collect="always"><stop
         style="stop-color:#f5feff;stop-opacity:1;"
         offset="0"
         id="stop28" /><stop
         style="stop-color:#989d9e;stop-opacity:1;"
         offset="0.6172303"
         id="stop30" /><stop
         style="stop-color:#939899;stop-opacity:1;"
         offset="0.75"
         id="stop31" /><stop
         style="stop-color:#959a9c;stop-opacity:1;"
         offset="1"
         id="stop29" /></linearGradient><linearGradient
       id="linearGradient26"
       inkscape:collect="always"><stop
         style="stop-color:#000000;stop-opacity:0.10707071;"
         offset="0"
         id="stop26" /><stop
         style="stop-color:#000000;stop-opacity:0.27070707;"
         offset="1"
         id="stop27" /></linearGradient><linearGradient
       id="linearGradient24"
       inkscape:collect="always"><stop
         style="stop-color:#010000;stop-opacity:0.06464647;"
         offset="0"
         id="stop24" /><stop
         style="stop-color:#010000;stop-opacity:0.18585859;"
         offset="1"
         id="stop25" /></linearGradient><linearGradient
       id="linearGradient22"
       inkscape:collect="always"><stop
         style="stop-color:#fcfcfc;stop-opacity:0.1959596;"
         offset="0"
         id="stop22" /><stop
         style="stop-color:#fcfcfc;stop-opacity:0.32525253;"
         offset="1"
         id="stop23" /></linearGradient><linearGradient
       id="linearGradient20"
       inkscape:collect="always"><stop
         style="stop-color:#fcfcfc;stop-opacity:0.12323232;"
         offset="0"
         id="stop20" /><stop
         style="stop-color:#fcfcfc;stop-opacity:0.33333334;"
         offset="1"
         id="stop21" /></linearGradient><linearGradient
       id="linearGradient15"
       inkscape:collect="always"><stop
         style="stop-color:#ffffff;stop-opacity:0.23030303;"
         offset="0"
         id="stop15" /><stop
         style="stop-color:#ffffff;stop-opacity:0;"
         offset="0.34131816"
         id="stop17" /><stop
         style="stop-color:#000000;stop-opacity:0;"
         offset="0.69051683"
         id="stop18" /><stop
         style="stop-color:#000000;stop-opacity:0.17575757;"
         offset="1"
         id="stop16" /></linearGradient><linearGradient
       id="linearGradient5"
       inkscape:collect="always"><stop
         style="stop-color:#fbfbfb;stop-opacity:1;"
         offset="0"
         id="stop6" /><stop
         style="stop-color:#f9feff;stop-opacity:0.54949492;"
         offset="0.66798121"
         id="stop8" /><stop
         style="stop-color:#f3f9fa;stop-opacity:0.47878787;"
         offset="0.74307108"
         id="stop11" /><stop
         style="stop-color:#f3fafc;stop-opacity:0.16767679;"
         offset="0.84134865"
         id="stop10" /><stop
         style="stop-color:#f5f5f5;stop-opacity:0;"
         offset="0.94334549"
         id="stop9" /><stop
         style="stop-color:#fb0d0d;stop-opacity:0;"
         offset="1"
         id="stop7" /></linearGradient><linearGradient
       id="linearGradient3"
       inkscape:collect="always"><stop
         style="stop-color:#832121;stop-opacity:1;"
         offset="0"
         id="stop3" /><stop
         style="stop-color:#c83432;stop-opacity:1;"
         offset="0.7815243"
         id="stop5" /><stop
         style="stop-color:#c83432;stop-opacity:1;"
         offset="1"
         id="stop4" /></linearGradient><linearGradient
       inkscape:collect="always"
       xlink:href="#linearGradient3"
       id="linearGradient4"
       x1="154.68356"
       y1="178.11385"
       x2="205.86299"
       y2="199.49541"
       gradientUnits="userSpaceOnUse" /><radialGradient
       inkscape:collect="always"
       xlink:href="#linearGradient5"
       id="radialGradient7"
       cx="9.403904"
       cy="-204.97624"
       fx="9.403904"
       fy="-204.97624"
       r="95.214619"
       gradientTransform="matrix(1.6751127,0.40357064,-0.02361804,0.09803206,-6.2066295,143.83009)"
       gradientUnits="userSpaceOnUse" /><linearGradient
       inkscape:collect="always"
       xlink:href="#linearGradient15"
       id="linearGradient16"
       x1="15.367433"
       y1="173.83307"
       x2="165.35323"
       y2="207.09497"
       gradientUnits="userSpaceOnUse" /><linearGradient
       inkscape:collect="always"
       xlink:href="#linearGradient20"
       id="linearGradient21"
       x1="16.06958"
       y1="164.96668"
       x2="205.56877"
       y2="164.96668"
       gradientUnits="userSpaceOnUse" /><linearGradient
       inkscape:collect="always"
       xlink:href="#linearGradient22"
       id="linearGradient23"
       x1="16.06958"
       y1="167.83983"
       x2="205.56877"
       y2="167.83983"
       gradientUnits="userSpaceOnUse" /><linearGradient
       inkscape:collect="always"
       xlink:href="#linearGradient24"
       id="linearGradient25"
       x1="16.169806"
       y1="166.57304"
       x2="205.61602"
       y2="166.57304"
       gradientUnits="userSpaceOnUse" /><linearGradient
       inkscape:collect="always"
       xlink:href="#linearGradient26"
       id="linearGradient27"
       x1="16.06958"
       y1="166.36985"
       x2="205.56877"
       y2="166.36985"
       gradientUnits="userSpaceOnUse" /><radialGradient
       inkscape:collect="always"
       xlink:href="#linearGradient28"
       id="radialGradient29"
       cx="43.768444"
       cy="151.24533"
       fx="43.768444"
       fy="151.24533"
       r="3.0875743"
       gradientTransform="matrix(1.230739,0.03314312,-0.04936959,1.8332921,-3.1667989,-127.76042)"
       gradientUnits="userSpaceOnUse" /><radialGradient
       inkscape:collect="always"
       xlink:href="#linearGradient34"
       id="radialGradient35"
       cx="53.836456"
       cy="152.85179"
       fx="53.836456"
       fy="152.85179"
       r="2.8749631"
       gradientTransform="matrix(0.99922539,-0.03935255,0.09860375,2.50371,-15.028528,-227.82835)"
       gradientUnits="userSpaceOnUse" /><linearGradient
       inkscape:collect="always"
       xlink:href="#linearGradient37"
       id="linearGradient38"
       x1="50.882114"
       y1="158.82979"
       x2="45.784897"
       y2="181.6145"
       gradientUnits="userSpaceOnUse" /><linearGradient
       inkscape:collect="always"
       xlink:href="#linearGradient43"
       id="linearGradient44"
       x1="48.677139"
       y1="170.81865"
       x2="50.212582"
       y2="176.36449"
       gradientUnits="userSpaceOnUse" /><linearGradient
       inkscape:collect="always"
       xlink:href="#linearGradient46"
       id="linearGradient47"
       x1="45.870811"
       y1="160.6624"
       x2="53.152549"
       y2="160.6624"
       gradientUnits="userSpaceOnUse" /><linearGradient
       inkscape:collect="always"
       xlink:href="#linearGradient51"
       id="linearGradient53"
       x1="46.680061"
       y1="162.90775"
       x2="49.514881"
       y2="166.68752"
       gradientUnits="userSpaceOnUse" /><linearGradient
       inkscape:collect="always"
       xlink:href="#linearGradient37"
       id="linearGradient62"
       gradientUnits="userSpaceOnUse"
       x1="50.882114"
       y1="158.82979"
       x2="45.784897"
       y2="181.6145" /><radialGradient
       inkscape:collect="always"
       xlink:href="#linearGradient28"
       id="radialGradient62"
       gradientUnits="userSpaceOnUse"
       gradientTransform="matrix(1.230739,0.03314312,-0.04936959,1.8332921,-3.1667989,-127.76042)"
       cx="43.768444"
       cy="151.24533"
       fx="43.768444"
       fy="151.24533"
       r="3.0875743" /><radialGradient
       inkscape:collect="always"
       xlink:href="#linearGradient34"
       id="radialGradient63"
       gradientUnits="userSpaceOnUse"
       gradientTransform="matrix(0.99922539,-0.03935255,0.09860375,2.50371,-15.028528,-227.82835)"
       cx="53.836456"
       cy="152.85179"
       fx="53.836456"
       fy="152.85179"
       r="2.8749631" /><linearGradient
       inkscape:collect="always"
       xlink:href="#linearGradient43"
       id="linearGradient63"
       gradientUnits="userSpaceOnUse"
       x1="48.677139"
       y1="170.81865"
       x2="50.212582"
       y2="176.36449" /><linearGradient
       inkscape:collect="always"
       xlink:href="#linearGradient46"
       id="linearGradient64"
       gradientUnits="userSpaceOnUse"
       x1="45.870811"
       y1="160.6624"
       x2="53.152549"
       y2="160.6624" /><linearGradient
       inkscape:collect="always"
       xlink:href="#linearGradient51"
       id="linearGradient65"
       gradientUnits="userSpaceOnUse"
       x1="46.680061"
       y1="162.90775"
       x2="49.514881"
       y2="166.68752" /><linearGradient
       inkscape:collect="always"
       xlink:href="#linearGradient66"
       id="linearGradient67"
       x1="90.99131"
       y1="144.72612"
       x2="97.801331"
       y2="127.7172"
       gradientUnits="userSpaceOnUse" /><radialGradient
       inkscape:collect="always"
       xlink:href="#linearGradient70"
       id="radialGradient71"
       cx="78.100929"
       cy="120.94865"
       fx="78.100929"
       fy="120.94865"
       r="3.9421656"
       gradientTransform="matrix(1.3898386,-0.01694714,0.01440367,1.1812477,-31.512158,-20.921161)"
       gradientUnits="userSpaceOnUse" /><radialGradient
       inkscape:collect="always"
       xlink:href="#linearGradient73"
       id="radialGradient75"
       cx="142.06541"
       cy="132.72554"
       fx="142.06541"
       fy="132.72554"
       r="5.560155"
       gradientTransform="matrix(1.3210093,-0.0640272,0.04628164,0.95488295,-51.734307,15.500817)"
       gradientUnits="userSpaceOnUse" /><radialGradient
       inkscape:collect="always"
       xlink:href="#linearGradient77"
       id="radialGradient79"
       cx="142.06544"
       cy="132.72554"
       fx="142.06544"
       fy="132.72554"
       r="5.560155"
       gradientTransform="matrix(1.3210061,-0.06403224,0.04628539,0.95488257,-51.734379,15.501584)"
       gradientUnits="userSpaceOnUse" /><linearGradient
       inkscape:collect="always"
       xlink:href="#linearGradient81"
       id="linearGradient83"
       x1="14.741072"
       y1="197.805"
       x2="247.87314"
       y2="173.23653"
       gradientUnits="userSpaceOnUse"
       gradientTransform="translate(1.1339286,1.5119048)" /><linearGradient
       inkscape:collect="always"
       xlink:href="#linearGradient90"
       id="linearGradient84"
       gradientUnits="userSpaceOnUse"
       gradientTransform="translate(1.1453926,0.42186551)"
       x1="14.741072"
       y1="197.805"
       x2="247.87314"
       y2="173.23653" /><linearGradient
       inkscape:collect="always"
       xlink:href="#linearGradient87"
       id="linearGradient85"
       gradientUnits="userSpaceOnUse"
       gradientTransform="translate(1.0785752,-0.71402999)"
       x1="223.2113"
       y1="196.46864"
       x2="215.8008"
       y2="118.98081" /></defs><sodipodi:namedview
     id="base"
     pagecolor="#ffffff"
     bordercolor="#000000"
     borderopacity="0.3"
     inkscape:pageopacity="0.0"
     inkscape:pageshadow="2"
     inkscape:zoom="0.98994949"
     inkscape:cx="505.07627"
     inkscape:cy="476.792"
     inkscape:document-units="mm"
     inkscape:showpageshadow="2"
     inkscape:pagecheckerboard="0"
     inkscape:deskcolor="#d1d1d1"
     inkscape:current-layer="svg1" /><metadata
     id="metadata1"><rdf:RDF><cc:Work
         rdf:about=""><dc:format>image/svg+xml</dc:format><dc:type
           rdf:resource="http://purl.org/dc/dcmitype/StillImage" /><cc:license
           rdf:resource="http://creativecommons.org/publicdomain/zero/1.0/" /></cc:Work><cc:License
         rdf:about="http://creativecommons.org/publicdomain/zero/1.0/"><cc:permits
           rdf:resource="http://creativecommons.org/ns#Reproduction" /><cc:permits
           rdf:resource="http://creativecommons.org/ns#Distribution" /><cc:permits
           rdf:resource="http://creativecommons.org/ns#DerivativeWorks" /></cc:License></rdf:RDF></metadata><g
     id="g1"
     style="display:inline"
     transform="matrix(1.0851629,0,0,1.0851629,-15.410013,-68.9389)"><g
       id="g90"
       inkscape:label="headshadow"
       style="display:inline"><path
         id="rect81"
         style="fill:url(#linearGradient83);stroke-width:0.600001;stroke-linecap:round;stroke-linejoin:round;stroke-miterlimit:9.6"
         d="m 19.276787,160.63989 131.063243,9.63839 29.67113,-12.7567 c 0,0 82.49653,16.00573 68.31919,25.4189 -29.84349,19.81485 -81.83184,54.80654 -81.83184,54.80654 -3.10235,1.92482 -5.679,4.73681 -11.24479,3.2128 L 18.709822,207.31994 15.875001,200.51637 Z"
         sodipodi:nodetypes="cccsccccc" /><path
         id="path84"
         style="fill:url(#linearGradient84);stroke-width:0.600001;stroke-linecap:round;stroke-linejoin:round;stroke-miterlimit:9.6"
         d="m 19.288251,159.54985 131.063239,9.63839 30.27249,-4.80543 c 0,0 81.89517,8.05446 67.71783,17.46763 -29.84349,19.81485 -81.83184,54.80654 -81.83184,54.80654 -3.10235,1.92482 -5.679,4.73681 -11.24479,3.2128 L 18.721286,206.2299 15.886465,199.42633 Z"
         sodipodi:nodetypes="cccsccccc" /><path
         id="path85"
         style="fill:url(#linearGradient85);stroke-width:0.600001;stroke-linecap:round;stroke-linejoin:round;stroke-miterlimit:9.6"
         d="m 19.221434,158.41396 131.063246,9.63839 32.07656,18.04611 c 0,0 80.0911,-14.79708 65.91376,-5.38391 -29.84349,19.81485 -81.83184,54.80654 -81.83184,54.80654 -3.10235,1.92482 -5.679,4.73681 -11.24479,3.2128 L 18.654469,205.09401 15.819648,198.29044 Z"
         sodipodi:nodetypes="cccsccccc" /></g><path
       style="color:#000000;fill:#c83432;stroke-linecap:round;stroke-linejoin:round;stroke-miterlimit:9.6;-inkscape-stroke:none"
       d="m 27.810397,120.23608 26.695877,-9.51968 c 3.212259,-1.14549 6.18196,-0.55865 9.25421,0.0334 0,0 89.933206,17.33588 135.221666,26.05877 3.12271,0.60146 6.54034,2.29186 6.54811,6.98242 l 0.10023,60.50314 c 0.005,3.23073 0.85453,2.97371 -1.33635,4.37653 l -43.93243,28.13013 c -0.83682,0.79037 -1.94273,1.23628 -6.25791,0.18898 L 17.305703,202.85756 c -1.938777,-0.48374 -1.943617,-2.1059 -1.937704,-3.54131 l 0.26727,-64.87968 c 0.433525,-4.21001 6.515044,-12.15856 12.175128,-14.20049 z"
       id="path2"
       inkscape:label="colorhead" /><path
       style="color:#000000;display:inline;fill:url(#radialGradient7);fill-opacity:0.822898;stroke-linecap:round;stroke-linejoin:round;stroke-miterlimit:9.6;-inkscape-stroke:none"
       d="m 27.810397,120.23608 26.695877,-9.51968 c 3.212259,-1.14549 6.18196,-0.55865 9.25421,0.0334 0,0 89.933206,17.33588 135.221666,26.05877 3.12271,0.60146 6.54034,2.29186 6.54811,6.98242 l 0.10023,60.50314 c 0.005,3.23073 0.85453,2.97371 -1.33635,4.37653 l -43.93243,28.13013 c -0.83682,0.79037 -1.94273,1.23628 -6.25791,0.18898 L 17.305703,202.85756 c -1.938777,-0.48374 -1.943617,-2.1059 -1.937704,-3.54131 l 0.26727,-64.87968 c 0.433525,-4.21001 6.515044,-12.15856 12.175128,-14.20049 z"
       id="path5"
       inkscape:label="white-shadow" /><path
       style="color:#000000;display:inline;fill:url(#linearGradient16);fill-opacity:1;stroke-linecap:round;stroke-linejoin:round;stroke-miterlimit:9.6;-inkscape-stroke:none"
       d="m 27.810397,120.23608 26.695877,-9.51968 c 3.212259,-1.14549 6.18196,-0.55865 9.25421,0.0334 0,0 89.933206,17.33588 135.221666,26.05877 3.12271,0.60146 6.54034,2.29186 6.54811,6.98242 l 0.10023,60.50314 c 0.005,3.23073 0.85453,2.97371 -1.33635,4.37653 l -43.93243,28.13013 c -0.83682,0.79037 -1.94273,1.23628 -6.25791,0.18898 L 17.305703,202.85756 c -1.938777,-0.48374 -1.943617,-2.1059 -1.937704,-3.54131 l 0.26727,-64.87968 c 0.433525,-4.21001 6.515044,-12.15856 12.175128,-14.20049 z"
       id="path15"
       inkscape:label="darkshadow" /><g
       id="g3"
       inkscape:label="rside"
       style="display:inline"><path
         id="rect3"
         style="fill:url(#linearGradient4);stroke:#a70000;stroke-width:1.2;stroke-linecap:round;stroke-linejoin:round;stroke-miterlimit:9.6;stroke-dasharray:none"
         d="m 167.17708,150.47274 26.45969,-12.09394 c 6.99182,-3.19576 11.89959,1.68275 11.89349,7.14945 l -0.0668,59.83497 c -0.002,1.35304 -0.7658,2.41529 -1.51318,2.88628 l -45.4126,28.6186 c -0.86665,0.43785 -1.0814,-0.0556 -1.07105,-0.8706 l -0.0449,-66.68226 c -0.003,-4.82817 1.26246,-14.96066 9.75532,-18.8425 z"
         sodipodi:nodetypes="sssssccss" /></g><g
       id="g11"
       inkscape:label="vertb"><path
         id="path11"
         style="fill:#fffcfc;fill-opacity:0.21288;stroke-width:1.2;stroke-linecap:round;stroke-linejoin:round;stroke-miterlimit:9.6"
         d="m 20.296271,138.44331 c 0.08896,-5.24961 4.932322,-12.70594 10.347197,-14.74025 12.106486,-4.54828 24.108869,-8.37571 36.492151,-12.28937 l 1.183802,0.56755 c -12.04797,4.23066 -25.472359,8.24763 -37.151632,13.05352 -5.301588,2.18154 -9.364463,9.9837 -9.40698,13.77605 l -0.991696,64.67672 -1.566935,-0.48442 z"
         sodipodi:nodetypes="ssccssccs"
         inkscape:label="wvbandl" /><path
         id="rect11"
         style="fill:#000000;fill-opacity:0.246869;stroke-width:1.2;stroke-linecap:round;stroke-linejoin:round;stroke-miterlimit:9.6"
         d="m 18.784366,138.44331 c 0.02763,-5.25029 4.598235,-13.00662 10.01311,-15.04093 12.106486,-4.54828 23.741373,-8.07503 36.124655,-11.98869 l 1.183802,0.56755 c -12.04797,4.23066 -24.252738,7.70834 -36.099054,12.28037 -5.348375,2.06418 -9.691607,9.01748 -9.757975,14.5492 l -0.770283,64.20258 -1.032396,-0.31738 z"
         sodipodi:nodetypes="ssccssccs"
         inkscape:label="rvbandl" /><path
         id="path12"
         style="display:inline;fill:#fffcfc;fill-opacity:0.336315;stroke-width:1.2;stroke-linecap:round;stroke-linejoin:round;stroke-miterlimit:9.6"
         d="m 26.643922,140.91556 c 0.02771,-6.22131 3.276926,-12.40679 8.402083,-15.08859 12.484462,-6.53265 18.296451,-8.89925 30.797851,-13.7106 l 1.183802,0.56755 c -11.339264,4.79763 -19.636319,7.82623 -31.055733,13.78967 -5.081687,2.65375 -7.851963,11.0169 -7.863465,14.80947 l -0.21965,72.42417 -1.566935,-0.48442 z"
         sodipodi:nodetypes="ssccssccs"
         inkscape:label="wvbandr"
         transform="translate(124.76345,22.11852)" /><path
         id="path13"
         style="display:inline;fill:#000000;fill-opacity:0.221825;stroke-width:1.2;stroke-linecap:round;stroke-linejoin:round;stroke-miterlimit:9.6"
         d="m 24.706794,140.91556 c -0.02651,-5.2503 3.645282,-13.64501 8.894818,-16.07435 11.87025,-5.49322 18.844829,-8.71431 30.897382,-12.9587 l 1.183802,0.56755 c -10.866794,4.44327 -19.497936,7.85153 -30.25757,13.53386 -5.069369,2.67722 -8.905194,10.61746 -8.899542,16.14959 l 0.07263,71.09958 -1.52849,-0.41187 z"
         sodipodi:nodetypes="ssccssccs"
         inkscape:label="rvbandr"
         transform="translate(124.76345,22.11852)" /></g><g
       id="g14"
       inkscape:label="hoband"><path
         id="path19"
         style="display:inline;fill:url(#linearGradient21);stroke-width:1.2;stroke-linecap:round;stroke-linejoin:round;stroke-miterlimit:9.6"
         d="M 16.102989,149.06957 153.68167,179.7442 c 2.07886,0.4635 4.50737,0.90935 6.26866,-0.13908 l 45.61844,-27.15488 -0.0236,0.66469 -45.23641,27.02235 c -1.76241,1.05279 -4.56941,0.77979 -6.68984,0.31353 L 16.06958,150.20546 Z"
         sodipodi:nodetypes="cssccsscc"
         inkscape:label="whtop" /><path
         id="path20"
         style="display:inline;fill:url(#linearGradient23);stroke-width:1.2;stroke-linecap:round;stroke-linejoin:round;stroke-miterlimit:9.6"
         d="m 16.102989,151.94272 137.578681,30.67463 c 2.07886,0.4635 4.50737,0.90935 6.26866,-0.13908 l 45.61844,-27.15488 -0.0236,0.66469 -45.23641,27.02235 c -1.76241,1.05279 -4.56941,0.77979 -6.68984,0.31353 L 16.06958,153.07861 Z"
         sodipodi:nodetypes="cssccsscc"
         inkscape:label="whbot" /><path
         id="rect14"
         style="fill:url(#linearGradient25);stroke-width:1.2;stroke-linecap:round;stroke-linejoin:round;stroke-miterlimit:9.6"
         d="m 16.169806,149.80457 138.078124,30.43532 c 2.07999,0.45847 3.88822,0.6602 5.65278,-0.38273 l 45.71531,-27.01956 v 2.67269 l -45.38122,27.11979 c -1.76222,1.0531 -3.86667,0.74983 -5.98687,0.2825 L 16.169806,152.47726 Z"
         sodipodi:nodetypes="cssccsscc"
         inkscape:label="darksh01" /><path
         id="path14"
         style="fill:url(#linearGradient27);stroke-width:1.2;stroke-linecap:round;stroke-linejoin:round;stroke-miterlimit:9.6"
         d="m 16.102989,150.47274 137.578681,30.67463 c 2.07886,0.4635 4.50737,0.90935 6.26866,-0.13908 l 45.61844,-27.15488 -0.0236,0.66469 -45.23641,27.02235 c -1.76241,1.05279 -4.56941,0.77979 -6.68984,0.31353 L 16.06958,151.60863 Z"
         sodipodi:nodetypes="cssccsscc"
         inkscape:label="darksh02" /></g><path
       style="color:#000000;fill:#a70000;stroke-linecap:round;stroke-linejoin:round;stroke-miterlimit:9.6;-inkscape-stroke:none"
       d="m 59.212891,109.33203 c -1.599967,-0.0796 -3.24582,0.0668 -4.958985,0.67774 l -26.695312,9.51953 a 0.750075,0.750075 0 0 0 -0.002,0.002 c -3.041597,1.09729 -6.031005,3.67425 -8.373047,6.51563 -2.342043,2.84137 -4.046482,5.89987 -4.294922,8.31249 a 0.750075,0.750075 0 0 0 -0.0039,0.0742 l -0.267578,64.87891 c -0.003,0.71971 -0.02254,1.56627 0.289062,2.39453 0.311598,0.82826 1.058448,1.5894 2.21875,1.87891 l 136.796871,34.13086 a 0.750075,0.750075 0 0 0 0.006,0.002 c 2.19557,0.53287 3.60982,0.70502 4.67383,0.61328 1.06402,-0.0917 1.78827,-0.52624 2.27539,-0.98633 l -0.11133,0.0859 43.9336,-28.12891 c 0.5575,-0.35696 0.94302,-0.6135 1.2539,-0.91796 0.31089,-0.30447 0.53076,-0.72809 0.57813,-1.12891 0.0947,-0.80165 -0.14799,-1.4133 -0.15039,-2.96289 L 206.2794,143.7891 c -0.004,-2.52728 -0.97112,-4.37634 -2.36328,-5.58789 -1.39217,-1.21154 -3.15338,-1.81311 -4.79297,-2.1289 -45.28827,-8.72286 -135.220707,-26.0586 -135.220707,-26.0586 -1.535003,-0.29581 -3.089487,-0.60202 -4.689453,-0.68164 z m -0.05273,1.5 c 1.456009,0.0754 2.92174,0.35806 4.458985,0.6543 0,0 89.932134,17.33568 135.220694,26.05859 1.48312,0.28566 2.99253,0.83046 4.0918,1.78711 1.09927,0.95666 1.84407,2.29767 1.84766,4.46094 l 0.10156,60.50195 c 0.003,1.68113 0.18713,2.55693 0.16016,2.78516 -0.0135,0.11411 0.007,0.0915 -0.13868,0.23437 -0.14585,0.14285 -0.47377,0.38017 -1.01172,0.72461 l -43.93359,28.13086 a 0.750075,0.750075 0 0 0 -0.10937,0.0859 c -0.3497,0.33028 -0.59806,0.51504 -1.375,0.58203 -0.77623,0.0669 -2.07134,-0.0629 -4.1875,-0.57617 h -0.004 L 17.486328,202.12891 c -0.778473,-0.19424 -1.003697,-0.48661 -1.177734,-0.94922 -0.174038,-0.46261 -0.194355,-1.14368 -0.191407,-1.85938 l 0.267579,-64.8164 c 0.18877,-1.79831 1.738133,-4.81193 3.957031,-7.50391 2.221477,-2.69511 5.102821,-5.11142 7.720703,-6.05664 l 26.695312,-9.52148 c 1.499091,-0.53458 2.946336,-0.66529 4.402344,-0.58985 z"
       id="path3"
       inkscape:label="frame" /><g
       id="g69"
       style="display:inline"><path
         id="rect65"
         style="display:inline;fill:url(#linearGradient67);fill-opacity:0.27907;stroke-width:0.600001;stroke-linecap:round;stroke-linejoin:round;stroke-miterlimit:9.6"
         d="m 84.855653,126.24405 c -0.09841,3.36339 0.371795,4.92009 1.410522,7.09684 1.10137,2.30802 2.453677,5.02435 4.908769,5.89609 9.229256,3.27706 29.942796,6.18936 29.942796,6.18936 3.45097,0.57766 6.78004,0.72868 9.2368,-2.17337 2.09408,-1.42165 4.26125,-2.25871 6.11849,-5.57514 l 7.91387,2.17336 c 0,0 -7.58575,9.33187 -12.94568,11.43378 -4.89116,1.91808 -10.5397,0.99716 -15.75689,0.37798 -11.0619,-1.31282 -22.305873,-3.66544 -32.293335,-8.59896 -1.525131,-0.75337 -4.03962,-3.1183 -4.03962,-3.1183 -3.426942,-2.64536 -2.011177,-8.49894 -1.67727,-13.41816 z"
         sodipodi:nodetypes="casccccsssscc"
         inkscape:label="shadowgrip" /><path
         id="rect68"
         style="fill:#000000;fill-opacity:1;stroke-width:0.600001;stroke-linecap:round;stroke-linejoin:round;stroke-miterlimit:9.6"
         d="m 78.808028,118.49553 c 1.114639,0.1882 2.01196,0.81103 3.531716,0.18899 0.871317,0.14411 1.427742,-0.34156 1.925317,-0.94494 0,0 3.612881,-6.5514 6.177549,-8.31547 1.980651,-1.36237 4.104121,-1.42636 6.083055,-1.6064 15.444625,-1.40518 30.794305,3.85311 37.360585,7.9375 1.93625,1.20439 3.53172,5.85863 3.53172,5.85863 l 2.30329,7.55952 c 0.32085,1.8499 2.235,3.08476 3.80472,4.50607 l -0.3675,4.47086 h -4.09868 c 0,0 -2.9677,-0.3143 -3.89597,-1.62429 -1.02479,-1.44619 -0.12362,-3.1462 -1.42013,-5.48233 -2.29708,-4.13904 -2.75678,-5.64966 -4.58111,-7.60776 -1.1203,-1.20245 -1.93332,-1.522 -3.49732,-1.83829 -9.89018,-2.00008 -18.93904,-4.16469 -28.60605,-4.74092 -2.616587,-0.15596 -5.072395,-0.0167 -7.066153,2.22872 -1.87788,2.11494 -2.706013,3.14971 -3.837142,5.56646 -0.443344,0.94724 -1.619034,3.03417 -3.597142,2.40011 -1.421319,-0.45559 -4.412213,-0.61896 -4.412213,-0.61896 z"
         sodipodi:nodetypes="cccssscccccsssssssscc"
         inkscape:label="grip" /><path
         id="rect69"
         style="fill:#949494;fill-opacity:0.68873;stroke-width:0.600001;stroke-linecap:round;stroke-linejoin:round;stroke-miterlimit:9.6"
         d="m 96.751572,109.51369 c 14.244588,-1.38817 29.737898,3.61951 35.814118,8.68626 -11.86408,-3.78351 -24.38632,-5.76351 -35.814118,-8.68626 z"
         sodipodi:nodetypes="ccc"
         inkscape:label="preshad" /><path
         id="path69"
         style="fill:#f7f7f7;fill-opacity:0.68873;stroke-width:0.600001;stroke-linecap:round;stroke-linejoin:round;stroke-miterlimit:9.6"
         d="m 100.35971,109.58051 c 9.23328,-0.45273 21.11846,2.01589 26.86059,5.94675 -8.25594,-1.51173 -20.04319,-5.36261 -26.86059,-5.94675 z"
         sodipodi:nodetypes="ccc"
         inkscape:label="whheadshad" /><path
         id="path70"
         style="fill:url(#radialGradient71);stroke:#808080;stroke-width:0.600001;stroke-linecap:round;stroke-linejoin:round;stroke-miterlimit:9.6;stroke-opacity:1"
         d="m 79.312236,122.10877 c -0.141581,3.63233 0.804016,5.16069 0.804016,5.16069 0,0 -1.049237,-0.0492 -2.340816,-0.0492 -2.583157,0 -5.41221,-1.96141 -5.412207,-4.71063 2e-6,-2.74921 2.009778,-3.92586 4.525978,-4.51017 0.755038,-0.17534 2.851277,-0.15504 5.106442,0.38654 0,0 -2.553818,0.3979 -2.683413,3.72273 z"
         sodipodi:nodetypes="scssscs" /><path
         id="path73"
         style="display:inline;fill:url(#radialGradient79);stroke:url(#radialGradient75);stroke-width:0.600001;stroke-linecap:round;stroke-linejoin:round;stroke-miterlimit:9.6"
         d="m 149.67857,136.49666 c -0.16473,1.84532 -2.34801,3.35454 -5.24442,3.35454 -2.89641,0 -5.12742,-1.50558 -5.24442,-3.35454 -0.18899,-2.98659 2.53699,-5.33892 5.43341,-5.33892 2.89641,0 5.33891,2.16334 5.05543,5.33892 z"
         sodipodi:nodetypes="sssss" /></g><g
       id="path27"
       style="display:inline"
       transform="translate(0,0.85044643)"><path
         id="rect37"
         style="fill:url(#linearGradient38);stroke:#606060;stroke-width:0.600001;stroke-linecap:round;stroke-linejoin:round;stroke-miterlimit:9.6"
         d="m 42.691559,157.40078 14.069807,3.02774 0.300678,11.82668 c 0.273953,2.00962 -0.659072,1.95013 -1.603617,1.87089 v 5.87993 c -4.329794,3.7052 -9.243603,0.0146 -10.857825,-2.20497 l 0.100226,-5.7463 c -1.119408,-0.0465 -1.570059,-0.89553 -1.804069,-2.00452 z"
         sodipodi:nodetypes="ccccccccc" /><g
         id="g36"><path
           style="color:#000000;fill:url(#radialGradient29);stroke-linecap:round;stroke-linejoin:round;stroke-miterlimit:9.6;-inkscape-stroke:none"
           d="m 47.468437,151.30118 a 2.7875743,2.8348215 0 0 1 -2.787575,2.83482 2.7875743,2.8348215 0 0 1 -2.787574,-2.83482 2.7875743,2.8348215 0 0 1 2.787574,-2.83482 2.7875743,2.8348215 0 0 1 2.787575,2.83482 z"
           id="path32" /><path
           id="path31"
           style="fill:#5a5d5f;stroke-width:0.600001;stroke-linecap:round;stroke-linejoin:round;stroke-miterlimit:9.6"
           d="m 47.152528,151.23772 c -10e-7,1.46125 -0.518254,2.64583 -1.157552,2.64583 -0.319649,0 -0.582684,0.49509 -0.676771,-0.019 -0.142659,-0.77948 -0.246921,-1.8962 -0.246921,-2.62683 0,-0.73063 -0.05942,-2.16999 -0.08381,-2.81583 -0.01972,-0.52225 0.687852,0.16999 1.007502,0.16999 0.639299,0 1.157554,1.18458 1.157552,2.64584 z"
           sodipodi:nodetypes="ssssssss" /><path
           style="color:#000000;fill:#3f3f3f;stroke-linecap:round;stroke-linejoin:round;stroke-miterlimit:9.6;-inkscape-stroke:none"
           d="m 44.681641,148.16602 c -1.704413,0 -3.087891,1.4097 -3.087891,3.13476 0,1.72506 1.383478,3.13477 3.087891,3.13477 1.704413,0 3.085937,-1.40971 3.085937,-3.13477 0,-1.72506 -1.381524,-3.13476 -3.085937,-3.13476 z m 0,0.5996 c 1.374653,0 2.486328,1.12896 2.486328,2.53516 0,1.4062 -1.111675,2.53516 -2.486328,2.53516 -1.374654,0 -2.488282,-1.12896 -2.488282,-2.53516 0,-1.4062 1.113628,-2.53516 2.488282,-2.53516 z"
           id="path33" /></g><g
         id="g37"><path
           id="path34"
           style="fill:url(#radialGradient35);stroke:#3f3f3f;stroke-width:0.600001;stroke-linecap:round;stroke-linejoin:round;stroke-miterlimit:9.6"
           d="m 57.405136,153.45833 a 2.5749626,3.2127976 0 0 1 -2.574963,3.2128 2.5749626,3.2127976 0 0 1 -2.574962,-3.2128 2.5749626,3.2127976 0 0 1 2.574962,-3.2128 2.5749626,3.2127976 0 0 1 2.574963,3.2128 z" /><rect
           style="fill:#424345;fill-opacity:1;stroke:none;stroke-width:0.600001;stroke-linecap:round;stroke-linejoin:round;stroke-miterlimit:9.6;stroke-dasharray:none;stroke-opacity:1"
           id="rect40"
           width="0.78629524"
           height="5.3258209"
           x="52.655453"
           y="150.80682" /></g><path
         id="rect41"
         style="fill:url(#linearGradient44);fill-opacity:1;stroke:#606060;stroke-width:0.600001;stroke-linecap:round;stroke-linejoin:round;stroke-miterlimit:9.6"
         d="m 47.039438,166.97664 5.078121,0.60136 c 0,3.0736 0.519717,1.67197 0.519717,9.64602 -1.562194,0.15648 -4.326273,-0.0167 -5.597838,-1.4518 z"
         sodipodi:nodetypes="ccccc" /><g
         id="rect44"
         style="display:inline"><path
           style="color:#000000;fill:url(#linearGradient47);stroke-linecap:round;stroke-linejoin:round;stroke-miterlimit:9.6;-inkscape-stroke:none"
           d="m 46.170811,151.20773 4.246957,0.22338 1.014911,0.64525 h 1.41987 v 9.02035 9.02035 h -1.41987 l -1.219417,-0.33409 -4.042451,-0.53454 v -9.02035 z"
           id="path49"
           sodipodi:nodetypes="ccccccccccc" /><path
           style="color:#000000;fill:#606060;stroke-linecap:round;stroke-linejoin:round;stroke-miterlimit:9.6;-inkscape-stroke:none"
           d="m 46.212891,150.91016 c -0.180443,-0.0254 -0.341652,0.11465 -0.341797,0.29687 v 9.02149 9.01953 c 2.23e-4,0.14997 -0.05421,0.37123 0.0944,0.39136 l 0.196429,0.32059 5.191593,0.44625 c 0.02604,0.007 0.05298,0.0114 0.08008,0.0117 h 1.419922 c 0.165525,-6.6e-4 0.299243,-0.13525 0.298828,-0.30078 v -9.01953 -9.02149 c 4.15e-4,-0.16553 0.117262,-0.4254 -0.04826,-0.42606 l -0.197164,-0.15915 -2.01648,-0.46947 z m 0.257812,0.64257 4.030971,0.12557 0.859654,0.68889 c 0.02359,0.006 0.04786,0.01 0.07227,0.01 h 1.11914 v 8.72071 8.71875 H 51.47266 l -1.179687,-0.32227 c -0.01347,-0.004 -0.02718,-0.006 -0.04102,-0.008 l -3.734003,-0.21652 -0.04725,-9.04129 z"
           id="path50"
           sodipodi:nodetypes="ccccccccccccccccccccccccccccc" /><path
           id="rect51"
           style="fill:url(#linearGradient53);fill-opacity:1;stroke:#606060;stroke-width:0.600001;stroke-linecap:round;stroke-linejoin:round;stroke-miterlimit:9.6;stroke-opacity:1"
           d="m 45.845828,161.55715 4.435488,0.33408 v 5.48065 l -4.435488,-0.33408 z"
           sodipodi:nodetypes="ccccc" /></g></g><g
       id="g62"
       style="display:inline"
       transform="translate(67.964743,15.912034)"><path
         id="path53"
         style="fill:url(#linearGradient62);stroke:#606060;stroke-width:0.600001;stroke-linecap:round;stroke-linejoin:round;stroke-miterlimit:9.6"
         d="m 43.164029,157.40078 13.597337,3.02774 0.300678,11.82668 c 0.273953,2.00962 -0.659072,1.95013 -1.603617,1.87089 v 5.87993 c -4.329794,3.7052 -9.243603,0.0146 -10.857825,-2.20497 l 0.100226,-5.7463 c -1.119408,-0.0465 -1.570059,-0.89553 -1.804069,-2.00452 z"
         sodipodi:nodetypes="ccccccccc" /><g
         id="g56"><path
           style="color:#000000;fill:url(#radialGradient62);stroke-linecap:round;stroke-linejoin:round;stroke-miterlimit:9.6;-inkscape-stroke:none"
           d="m 47.468437,151.30118 a 2.7875743,2.8348215 0 0 1 -2.787575,2.83482 2.7875743,2.8348215 0 0 1 -2.787574,-2.83482 2.7875743,2.8348215 0 0 1 2.787574,-2.83482 2.7875743,2.8348215 0 0 1 2.787575,2.83482 z"
           id="path54" /><path
           id="path55"
           style="fill:#5a5d5f;stroke-width:0.600001;stroke-linecap:round;stroke-linejoin:round;stroke-miterlimit:9.6"
           d="m 47.152528,151.23772 c -10e-7,1.46125 -0.518254,2.64583 -1.157552,2.64583 -0.319649,0 -0.582684,0.49509 -0.676771,-0.019 -0.142659,-0.77948 -0.246921,-1.8962 -0.246921,-2.62683 0,-0.73063 -0.05942,-2.16999 -0.08381,-2.81583 -0.01972,-0.52225 0.687852,0.16999 1.007502,0.16999 0.639299,0 1.157554,1.18458 1.157552,2.64584 z"
           sodipodi:nodetypes="ssssssss" /><path
           style="color:#000000;fill:#3f3f3f;stroke-linecap:round;stroke-linejoin:round;stroke-miterlimit:9.6;-inkscape-stroke:none"
           d="m 44.681641,148.16602 c -1.704413,0 -3.087891,1.4097 -3.087891,3.13476 0,1.72506 1.383478,3.13477 3.087891,3.13477 1.704413,0 3.085937,-1.40971 3.085937,-3.13477 0,-1.72506 -1.381524,-3.13476 -3.085937,-3.13476 z m 0,0.5996 c 1.374653,0 2.486328,1.12896 2.486328,2.53516 0,1.4062 -1.111675,2.53516 -2.486328,2.53516 -1.374654,0 -2.488282,-1.12896 -2.488282,-2.53516 0,-1.4062 1.113628,-2.53516 2.488282,-2.53516 z"
           id="path56" /></g><g
         id="g57"><path
           id="path57"
           style="fill:url(#radialGradient63);stroke:#3f3f3f;stroke-width:0.600001;stroke-linecap:round;stroke-linejoin:round;stroke-miterlimit:9.6"
           d="m 57.405136,153.45833 a 2.5749626,3.2127976 0 0 1 -2.574963,3.2128 2.5749626,3.2127976 0 0 1 -2.574962,-3.2128 2.5749626,3.2127976 0 0 1 2.574962,-3.2128 2.5749626,3.2127976 0 0 1 2.574963,3.2128 z" /><rect
           style="fill:#424345;fill-opacity:1;stroke:none;stroke-width:0.600001;stroke-linecap:round;stroke-linejoin:round;stroke-miterlimit:9.6;stroke-dasharray:none;stroke-opacity:1"
           id="rect57"
           width="0.78629524"
           height="5.3258209"
           x="52.655453"
           y="150.80682" /></g><path
         id="path58"
         style="fill:url(#linearGradient63);fill-opacity:1;stroke:#606060;stroke-width:0.600001;stroke-linecap:round;stroke-linejoin:round;stroke-miterlimit:9.6"
         d="m 47.039438,166.97664 5.078121,0.60136 c 0,3.0736 0.519717,1.67197 0.519717,9.64602 -1.562194,0.15648 -4.326273,-0.0167 -5.597838,-1.4518 z"
         sodipodi:nodetypes="ccccc" /><g
         id="g61"
         style="display:inline"><path
           style="color:#000000;fill:url(#linearGradient64);stroke-linecap:round;stroke-linejoin:round;stroke-miterlimit:9.6;-inkscape-stroke:none"
           d="m 46.170811,151.20773 4.246957,0.22338 1.014911,0.64525 h 1.41987 v 9.02035 9.02035 h -1.41987 l -1.219417,-0.33409 -4.042451,-0.53454 v -9.02035 z"
           id="path59"
           sodipodi:nodetypes="ccccccccccc" /><path
           style="color:#000000;fill:#606060;stroke-linecap:round;stroke-linejoin:round;stroke-miterlimit:9.6;-inkscape-stroke:none"
           d="m 46.212891,150.91016 c -0.180443,-0.0254 -0.341652,0.11465 -0.341797,0.29687 v 9.02149 9.01953 c 2.23e-4,0.14997 -0.05421,0.37123 0.0944,0.39136 l 0.196429,0.32059 5.191593,0.44625 c 0.02604,0.007 0.05298,0.0114 0.08008,0.0117 h 1.419922 c 0.165525,-6.6e-4 0.299243,-0.13525 0.298828,-0.30078 v -9.01953 -9.02149 c 4.15e-4,-0.16553 0.117262,-0.4254 -0.04826,-0.42606 l -0.197164,-0.15915 -2.01648,-0.46947 z m 0.257812,0.64257 4.030971,0.12557 0.859654,0.68889 c 0.02359,0.006 0.04786,0.01 0.07227,0.01 h 1.11914 v 8.72071 8.71875 H 51.47266 l -1.179687,-0.32227 c -0.01347,-0.004 -0.02718,-0.006 -0.04102,-0.008 l -3.734003,-0.21652 -0.04725,-9.04129 z"
           id="path60"
           sodipodi:nodetypes="ccccccccccccccccccccccccccccc" /><path
           id="path61"
           style="fill:url(#linearGradient65);fill-opacity:1;stroke:#606060;stroke-width:0.600001;stroke-linecap:round;stroke-linejoin:round;stroke-miterlimit:9.6;stroke-opacity:1"
           d="m 45.845828,161.55715 4.435488,0.33408 v 5.48065 l -4.435488,-0.33408 z"
           sodipodi:nodetypes="ccccc" /></g></g></g></svg>
