<?xml version="1.0" encoding="UTF-8" standalone="no"?>
<!-- Created with Inkscape (http://www.inkscape.org/) -->

<svg
   width="256mm"
   height="256mm"
   viewBox="0 0 256 256"
   version="1.1"
   id="svg1"
   inkscape:version="1.3.2 (091e20ef0f, 2023-11-25)"
   xml:space="preserve"
   sodipodi:docname="audio-volume-high.svg"
   xmlns:inkscape="http://www.inkscape.org/namespaces/inkscape"
   xmlns:sodipodi="http://sodipodi.sourceforge.net/DTD/sodipodi-0.dtd"
   xmlns:xlink="http://www.w3.org/1999/xlink"
   xmlns="http://www.w3.org/2000/svg"
   xmlns:svg="http://www.w3.org/2000/svg"
   xmlns:rdf="http://www.w3.org/1999/02/22-rdf-syntax-ns#"
   xmlns:cc="http://creativecommons.org/ns#"
   xmlns:dc="http://purl.org/dc/elements/1.1/"><defs
     id="defs1"><linearGradient
       id="linearGradient34"
       inkscape:collect="always"><stop
         style="stop-color:#7171d4;stop-opacity:1;"
         offset="0"
         id="stop34" /><stop
         style="stop-color:#40407b;stop-opacity:1;"
         offset="0.14548855"
         id="stop36" /><stop
         style="stop-color:#353566;stop-opacity:1;"
         offset="0.77884656"
         id="stop37" /><stop
         style="stop-color:#1d1d33;stop-opacity:1;"
         offset="1"
         id="stop35" /></linearGradient><linearGradient
       id="linearGradient30"
       inkscape:collect="always"><stop
         style="stop-color:#5e5470;stop-opacity:1;"
         offset="0"
         id="stop30" /><stop
         style="stop-color:#646464;stop-opacity:1;"
         offset="0.16719587"
         id="stop32" /><stop
         style="stop-color:#454545;stop-opacity:1;"
         offset="1"
         id="stop31" /></linearGradient><linearGradient
       id="linearGradient29"
       inkscape:collect="always"><stop
         style="stop-color:#2f2f2f;stop-opacity:1;"
         offset="0"
         id="stop25" /><stop
         style="stop-color:#3f3f3f;stop-opacity:0.43828714;"
         offset="0.54159796"
         id="stop26" /><stop
         style="stop-color:#636363;stop-opacity:0.23425692;"
         offset="0.72338831"
         id="stop27" /><stop
         style="stop-color:#ffffff;stop-opacity:0;"
         offset="0.88264096"
         id="stop28" /><stop
         style="stop-color:#ffffff;stop-opacity:0;"
         offset="1"
         id="stop29" /></linearGradient><linearGradient
       id="linearGradient15"
       inkscape:collect="always"><stop
         style="stop-color:#3a3a3a;stop-opacity:1"
         offset="0"
         id="stop16" /><stop
         style="stop-color:#3a3a3a;stop-opacity:1"
         offset="1"
         id="stop17" /></linearGradient><linearGradient
       id="linearGradient14"
       inkscape:collect="always"><stop
         style="stop-color:#f9f4f4;stop-opacity:1"
         offset="0"
         id="stop14" /><stop
         style="stop-color:#9f9d9b;stop-opacity:1"
         offset="0.34180781"
         id="stop18" /><stop
         style="stop-color:#70706a;stop-opacity:1;"
         offset="0.47061172"
         id="stop19" /><stop
         style="stop-color:#656561;stop-opacity:1;"
         offset="0.53044158"
         id="stop23" /><stop
         style="stop-color:#626260;stop-opacity:1;"
         offset="0.59264034"
         id="stop20" /><stop
         style="stop-color:#696878;stop-opacity:1;"
         offset="0.66862851"
         id="stop22" /><stop
         style="stop-color:#737287;stop-opacity:1;"
         offset="0.72458875"
         id="stop24" /><stop
         style="stop-color:#827fa7;stop-opacity:1;"
         offset="0.82136834"
         id="stop21" /><stop
         style="stop-color:#8584c0;stop-opacity:1"
         offset="1"
         id="stop15" /></linearGradient><linearGradient
       id="linearGradient11"
       inkscape:collect="always"><stop
         style="stop-color:#323232;stop-opacity:1"
         offset="0"
         id="stop12" /><stop
         style="stop-color:#585858;stop-opacity:0.581864;"
         offset="1"
         id="stop13" /></linearGradient><linearGradient
       id="linearGradient7"
       inkscape:collect="always"><stop
         style="stop-color:#2f2f2f;stop-opacity:1;"
         offset="0"
         id="stop7" /><stop
         style="stop-color:#5b5b5b;stop-opacity:1"
         offset="0.54159796"
         id="stop11" /><stop
         style="stop-color:#ababab;stop-opacity:1"
         offset="0.72338831"
         id="stop10" /><stop
         style="stop-color:#bababa;stop-opacity:1"
         offset="0.88264096"
         id="stop9" /><stop
         style="stop-color:#c4c4c4;stop-opacity:1"
         offset="1"
         id="stop8" /></linearGradient><linearGradient
       id="linearGradient1"
       inkscape:collect="always"><stop
         style="stop-color:#737270;stop-opacity:1"
         offset="0"
         id="stop1" /><stop
         style="stop-color:#b7b4b0;stop-opacity:1"
         offset="0.19821422"
         id="stop5" /><stop
         style="stop-color:#f5f1f9;stop-opacity:1"
         offset="0.5"
         id="stop3" /><stop
         style="stop-color:#b4b2d4;stop-opacity:1"
         offset="0.75"
         id="stop4" /><stop
         style="stop-color:#8c8bbb;stop-opacity:1"
         offset="1"
         id="stop2" /></linearGradient><linearGradient
       inkscape:collect="always"
       xlink:href="#linearGradient1"
       id="linearGradient2"
       x1="40.855495"
       y1="33.219395"
       x2="23.767143"
       y2="111.36597"
       gradientUnits="userSpaceOnUse" /><radialGradient
       inkscape:collect="always"
       xlink:href="#linearGradient7"
       id="radialGradient8"
       cx="75.066833"
       cy="62.583637"
       fx="75.066833"
       fy="62.583637"
       r="81.176338"
       gradientTransform="matrix(1.7091642,0.49195636,-0.68645194,2.384884,-52.333075,-98.519916)"
       gradientUnits="userSpaceOnUse" /><linearGradient
       inkscape:collect="always"
       xlink:href="#linearGradient11"
       id="linearGradient13"
       x1="57.146889"
       y1="32.59795"
       x2="120.64204"
       y2="163.81026"
       gradientUnits="userSpaceOnUse"
       gradientTransform="matrix(0.98953141,0,0,0.98578952,31.453389,-24.213489)" /><radialGradient
       inkscape:collect="always"
       xlink:href="#linearGradient14"
       id="radialGradient15"
       cx="103.74718"
       cy="71.381584"
       fx="103.74718"
       fy="71.381584"
       r="39.809394"
       gradientTransform="matrix(1.4629689,-0.96750998,0.76145987,1.9422981,-118.06491,25.049056)"
       gradientUnits="userSpaceOnUse" /><linearGradient
       inkscape:collect="always"
       xlink:href="#linearGradient15"
       id="linearGradient17"
       x1="76.210083"
       y1="49.267609"
       x2="121.13515"
       y2="137.17094"
       gradientUnits="userSpaceOnUse" /><radialGradient
       inkscape:collect="always"
       xlink:href="#linearGradient29"
       id="radialGradient25"
       gradientUnits="userSpaceOnUse"
       gradientTransform="matrix(0.90944546,1.6466476,-2.5916957,1.4313964,108.39062,-161.49398)"
       cx="76.695152"
       cy="30.607498"
       fx="76.695152"
       fy="30.607498"
       r="81.176338" /><linearGradient
       inkscape:collect="always"
       xlink:href="#linearGradient30"
       id="linearGradient31"
       x1="87.072815"
       y1="-5.4579496"
       x2="197.85429"
       y2="145.68925"
       gradientUnits="userSpaceOnUse" /><linearGradient
       inkscape:collect="always"
       xlink:href="#linearGradient34"
       id="linearGradient35"
       x1="18.121307"
       y1="30.868353"
       x2="40.289219"
       y2="112.5192"
       gradientUnits="userSpaceOnUse" /><radialGradient
       inkscape:collect="always"
       xlink:href="#linearGradient16"
       id="radialGradient21"
       cx="194.85895"
       cy="189.83578"
       fx="194.85895"
       fy="189.83578"
       r="54.65662"
       gradientUnits="userSpaceOnUse"
       gradientTransform="matrix(1.2457902,0.27403186,-0.24894633,1.1317477,-1.3366005,-75.243624)" /><linearGradient
       id="linearGradient16"
       inkscape:collect="always"><stop
         style="stop-color:#000000;stop-opacity:0;"
         offset="0.33200106"
         id="stop22-2" /><stop
         style="stop-color:#fbfbfb;stop-opacity:0.12250713;"
         offset="0.61641854"
         id="stop23-9" /><stop
         style="stop-color:#777777;stop-opacity:0.39173788;"
         offset="0.77212185"
         id="stop24-1" /><stop
         style="stop-color:#0f0000;stop-opacity:0.48005697;"
         offset="0.90423191"
         id="stop25-2" /><stop
         style="stop-color:#000000;stop-opacity:0.89316237;"
         offset="1"
         id="stop21-7" /></linearGradient></defs><sodipodi:namedview
     id="base"
     pagecolor="#ffffff"
     bordercolor="#000000"
     borderopacity="0.3"
     inkscape:pageopacity="0.0"
     inkscape:pageshadow="2"
     inkscape:zoom="0.98994949"
     inkscape:cx="505.07627"
     inkscape:cy="476.792"
     inkscape:document-units="mm"
     inkscape:showpageshadow="2"
     inkscape:pagecheckerboard="0"
     inkscape:deskcolor="#d1d1d1"
     inkscape:current-layer="svg1" /><metadata
     id="metadata1"><rdf:RDF><cc:Work
         rdf:about=""><dc:format>image/svg+xml</dc:format><dc:type
           rdf:resource="http://purl.org/dc/dcmitype/StillImage" /><cc:license
           rdf:resource="http://creativecommons.org/publicdomain/zero/1.0/" /></cc:Work><cc:License
         rdf:about="http://creativecommons.org/publicdomain/zero/1.0/"><cc:permits
           rdf:resource="http://creativecommons.org/ns#Reproduction" /><cc:permits
           rdf:resource="http://creativecommons.org/ns#Distribution" /><cc:permits
           rdf:resource="http://creativecommons.org/ns#DerivativeWorks" /></cc:License></rdf:RDF></metadata><g
     id="g24"
     style="display:inline"
     inkscape:label="xpspeaker"><g
       id="g34"
       inkscape:label="shadow"><path
         id="rect32"
         style="fill:#404040;fill-opacity:0.130536;stroke-width:4.50001;stroke-linecap:square;stroke-linejoin:round"
         d="m 50.022082,26.44351 23.107966,3.034698 c 0,0 19.39567,-25.972003 60.673522,-24.9424952 30.12108,0.7512474 61.70004,22.1506502 70.39807,64.6339292 5.61083,27.404684 0.72862,60.134888 -12.56771,85.800598 -10.59691,20.45505 -28.90739,38.55053 -50.08185,47.625 -20.20156,8.65753 -41.36794,16.39742 -65.854817,3.26259 C 39.30281,186.33575 34.653804,147.53072 34.77381,126.24405 L 19.087798,115.94419 C -26.624769,85.928099 21.914383,21.670036 50.022082,26.44351 Z"
         sodipodi:nodetypes="ccssaascsc" /><path
         id="path32"
         style="fill:#757575;fill-opacity:0.56993;stroke-width:4.45875;stroke-linecap:square;stroke-linejoin:round"
         d="m 49.13753,27.645932 23.325512,1.582518 c 0,0 19.216089,-25.807551 60.115438,-24.7874833 29.84489,0.7443588 61.13602,22.0212383 69.75429,64.1149663 5.55938,27.153396 0.72194,59.583477 -12.45247,85.013847 -10.49974,20.26749 -28.36713,38.86847 -49.62262,47.1883 -19.49382,7.63028 -41.150226,11.22098 -62.795632,-0.88432 C 41.74686,179.89988 34.008878,143.41091 34.222277,124.06757 L 20.9371,115.38358 C -24.417948,85.736816 20.059142,23.246957 49.13753,27.645932 Z"
         sodipodi:nodetypes="ccssaascsc" /><path
         id="path33"
         style="fill:#7b7b7b;fill-opacity:0.604895;stroke-width:4.42161;stroke-linecap:square;stroke-linejoin:round"
         d="m 49.656263,27.782801 22.206474,1.220867 c 0,0 19.432441,-25.3855116 59.991143,-24.37394 29.59632,0.7381591 60.25042,21.630735 68.79691,63.373867 5.51307,26.927237 0.71593,59.087215 -12.34876,84.305775 -10.41228,20.09868 -28.07298,38.69414 -49.20931,46.79527 -19.08329,7.31424 -43.200672,8.3518 -61.286491,-1.73111 -35.44414,-19.7602 -43.654905,-57.38225 -43.064521,-74.23482 0,0 -12.927573,-7.23833 -18.442725,-12.1011 -31.151311,-27.466436 0.06963,-83.125923 33.35728,-83.254809 z"
         sodipodi:nodetypes="ccssaascsc" /><path
         id="path34"
         style="fill:#686868;fill-opacity:0.60606062;stroke-width:4.3886;stroke-linecap:square;stroke-linejoin:round"
         d="m 47.210257,27.202452 24.118876,1.60141 c 0,0 18.154847,-25.1783551 58.410747,-24.1743356 29.37537,0.7326483 60.93313,21.4516106 69.41582,62.8831016 5.47191,26.726207 0.71058,58.646092 -12.25657,83.676372 -10.33455,19.94863 -27.80442,38.56085 -48.84193,46.44591 -18.71404,7.0142 -41.949692,7.42731 -59.900488,-2.58033 C 42.977186,175.44191 35.978835,139.20897 35.481658,122.32356 L 21.27444,113.06039 C -17.337585,87.885176 18.192041,29.350729 47.210257,27.202452 Z"
         sodipodi:nodetypes="ccssaascsc" /></g><path
       id="rect1"
       style="display:inline;fill:url(#linearGradient2);stroke:url(#linearGradient35);stroke-width:5;stroke-linecap:square;stroke-linejoin:round;stroke-dasharray:none;stroke-opacity:1"
       d="m 48.576236,29.566689 c 11.045189,1.062353 20.815449,4.3103 30.105275,8.381845 L 51.467226,124.93583 28.56443,113.68977 C -10.685587,92.518215 13.817359,28.142127 48.576236,29.566689 Z"
       sodipodi:nodetypes="ccccc" /><path
       style="color:#000000;display:inline;fill:url(#radialGradient8);stroke-linecap:square;stroke-linejoin:round;-inkscape-stroke:none"
       d="M 194.24857,121.48684 A 78.176338,97.553383 12.748807 0 1 96.471715,199.38351 78.176338,97.553383 12.748807 0 1 41.750469,86.983385 78.176338,97.553383 12.748807 0 1 139.52732,9.0867231 78.176338,97.553383 12.748807 0 1 194.24857,121.48684 Z"
       id="path29"
       inkscape:label="innershadow1" /><ellipse
       style="display:inline;fill:url(#radialGradient25);stroke:none;stroke-width:6;stroke-linecap:square;stroke-linejoin:round;stroke-dasharray:none;stroke-opacity:1"
       id="ellipse24"
       cx="138.09277"
       cy="75.625603"
       rx="78.176338"
       ry="97.553383"
       transform="rotate(12.748807)"
       inkscape:label="innershadow2" /><path
       style="color:#000000;fill:url(#linearGradient13);stroke-linecap:square;stroke-linejoin:round;-inkscape-stroke:none"
       d="m 127.58789,-9.0292969 c -34.328479,-7e-7 -61.578124,34.7937279 -61.578124,77.0312499 10e-7,42.237517 27.249646,77.031247 61.578124,77.031247 34.32848,0 61.58008,-34.79373 61.58008,-77.031247 0,-42.237521 -27.2516,-77.0312484 -61.58008,-77.0312499 z m 0,4.9375 c 30.9619,1.3e-6 56.64063,31.9719679 56.64063,72.0937499 -1e-5,40.121777 -25.67873,72.093747 -56.64063,72.093747 -30.961898,0 -56.63867,-31.97196 -56.638671,-72.093747 0,-40.121783 25.676773,-72.0937505 56.638671,-72.0937499 z"
       id="path11"
       transform="matrix(0.9726351,0.23233804,-0.27152068,0.96243261,0,0)" /><ellipse
       style="display:inline;fill:url(#radialGradient15);fill-opacity:1;stroke:url(#linearGradient17);stroke-width:4.51032;stroke-linecap:square;stroke-linejoin:round;stroke-dasharray:none"
       id="path13"
       cx="104.4964"
       cy="94.833054"
       rx="37.554234"
       ry="48.128498"
       transform="matrix(1,0,-0.09550912,0.99542855,0,0)" /><path
       style="color:#000000;fill:url(#linearGradient31);stroke-linecap:square;stroke-linejoin:round;-inkscape-stroke:none"
       d="m 137.69605,-26.071306 c -45.198743,2e-6 -79.612673,44.051052 -79.557453,99.22749 0.05425,54.205106 34.681867,100.133456 79.880613,100.133456 45.19874,0 78.19517,-42.5761 79.72811,-97.731269 1.54594,-55.623129 -34.85253,-101.629679 -80.05127,-101.629677 z m -1.83714,6.963713 c 41.15237,-2e-6 76.51271,41.849914 75.88841,94.665964 C 211.12588,128.13262 174.66634,165.79002 138.35157,165.7612 97.199206,165.72854 63.935082,121.80679 64.138597,73.156184 64.358539,20.57873 94.706531,-19.107591 135.85891,-19.107593 Z"
       id="path30"
       inkscape:label="framehead"
       transform="rotate(12.748807)"
       sodipodi:nodetypes="ssssssssss" /></g><g
     id="g37"
     inkscape:label="loud1"
     style="display:inline"><g
       id="g41"
       inkscape:label="shadow"><path
         style="color:#000000;fill:#65656d;fill-opacity:0.149184;stroke-width:1.06278;stroke-linecap:round;stroke-linejoin:round;-inkscape-stroke:none"
         d="m 216.59706,121.79441 c -3.1315,-0.72477 -8.25674,0.18083 -8.97525,3.34176 -15.26087,48.70519 -30.38758,71.40272 -78.86004,83.01742 -3.15959,0.59074 -5.24643,3.65529 -4.66093,6.84465 0.58525,3.18843 2.28342,11.70911 9.05037,9.78303 53.6457,-9.79988 80.65536,-38.65388 90.08725,-90.87016 1.922,-7.30442 -3.50903,-11.39144 -6.6414,-12.1167 z"
         id="path41"
         sodipodi:nodetypes="ccccccc" /><path
         style="color:#000000;fill:#65656d;fill-opacity:0.278555;stroke-width:1.06278;stroke-linecap:round;stroke-linejoin:round;-inkscape-stroke:none"
         d="m 216.59706,121.79441 c -3.1315,-0.72477 -7.3213,0.58173 -8.03981,3.74266 -15.26087,48.70519 -30.78848,72.0709 -79.26094,83.6856 -3.15959,0.59074 -5.78097,2.58621 -5.19547,5.77557 0.58525,3.18843 3.21886,10.77367 9.98581,8.84759 53.28307,-9.95853 76.16819,-38.95494 87.81546,-90.20199 1.922,-7.30442 -2.17268,-11.12417 -5.30505,-11.84943 z"
         id="path42"
         sodipodi:nodetypes="ccccccc" /><path
         style="color:#000000;fill:#65656d;fill-opacity:0.440559;stroke-width:1.06278;stroke-linecap:round;stroke-linejoin:round;-inkscape-stroke:none"
         d="m 216.73069,122.59622 c -3.1315,-0.72477 -7.05403,0.0472 -7.77254,3.20812 -15.26087,48.70519 -29.58576,71.80363 -78.05822,83.41833 -3.15959,0.59074 -7.38459,2.58621 -6.79909,5.77557 0.58525,3.18843 4.1543,9.57096 10.92125,7.64488 52.6149,-12.49759 74.43094,-37.75223 86.07821,-88.99928 1.922,-7.30442 -1.23724,-10.32236 -4.36961,-11.04762 z"
         id="path43"
         sodipodi:nodetypes="ccccccc" /><path
         style="color:#000000;fill:#65656d;fill-opacity:0.505827;stroke-width:1.06278;stroke-linecap:round;stroke-linejoin:round;-inkscape-stroke:none"
         d="m 216.44721,123.25768 c -3.1315,-0.72477 -6.25116,-0.50396 -7.20558,2.59391 -15.02784,48.77759 -29.86924,71.75638 -78.3417,83.37108 -3.15959,0.59074 -6.62864,2.82245 -6.04314,6.01181 0.58525,3.18843 4.1543,8.72051 10.92125,6.79443 52.16831,-12.83253 71.97905,-37.84302 84.56631,-88.38507 1.922,-7.30442 -0.76477,-9.6609 -3.89714,-10.38616 z"
         id="path44"
         sodipodi:nodetypes="csccccc" /><path
         style="color:#000000;fill:#68686f;fill-opacity:0.268065;stroke-width:1.06278;stroke-linecap:round;stroke-linejoin:round;-inkscape-stroke:none"
         d="m 216.44721,123.25768 c -3.1315,-0.72477 -5.82594,-0.31497 -6.78036,2.7829 -15.02784,48.77759 -30.05822,71.94537 -78.53068,83.56007 -3.15959,0.59074 -6.86488,2.44447 -6.27938,5.63383 0.58525,3.18843 4.65543,7.98552 11.42238,6.05944 51.85963,-12.90427 70.00747,-39.63323 83.82894,-87.69733 1.922,-7.30442 -0.52853,-9.61365 -3.6609,-10.33891 z"
         id="path45"
         sodipodi:nodetypes="csccccc" /></g><path
       style="color:#000000;fill:#605dd4;stroke-linecap:round;stroke-linejoin:round;-inkscape-stroke:none"
       d="m 215.9082,123.29688 a 5.5,5.5 0 0 0 -6.58984,4.13085 c -10.43143,45.46838 -32.72278,73.78546 -79.30469,82.41016 a 5.5,5.5 0 0 0 -4.40625,6.41016 5.5,5.5 0 0 0 6.4082,4.40625 c 50.37166,-9.32638 77.01258,-42.77164 88.02344,-90.76563 a 5.5,5.5 0 0 0 -4.13086,-6.59179 z"
       id="path37" /><path
       style="color:#000000;fill:#cbcaff;fill-opacity:1;stroke-linecap:round;stroke-linejoin:round;-inkscape-stroke:none"
       d="m 215.9082,123.29688 c -2.96039,-0.67876 -5.91059,1.17057 -6.58984,4.13085 -10.43143,45.46838 -32.72278,73.78546 -79.30469,82.41016 -2.98695,0.55325 -4.95975,3.42326 -4.40625,6.41016 0.55328,2.98603 0.94974,-0.45366 3.93596,-1.00596 50.37166,-9.32638 74.13943,-40.43303 85.15029,-88.42702 0.67999,-2.96105 4.17576,-2.83897 1.21453,-3.51819 z"
       id="path39"
       sodipodi:nodetypes="ccccccc" /></g><g
     id="g38"
     style="display:inline"
     inkscape:label="loud2"><g
       id="g46"
       inkscape:label="shadow"
       style="display:inline"><path
         style="color:#000000;fill:#565658;fill-opacity:0.10373;stroke-linecap:round;stroke-linejoin:round;-inkscape-stroke:none"
         d="m 242.875,124.56268 c -3.564,-0.43161 -9.34878,0.58377 -10.25819,7.56177 -4.00255,30.71188 -21.05099,60.62944 -36.36718,74.29482 -18.68591,16.67191 -44.07701,26.54492 -62.00018,27.53078 -3.58448,0.19736 -10.22996,1.84054 -10.10157,9.49349 0.0843,5.02541 4.20812,10.58249 11.19438,10.76302 24.61221,-0.59138 55.66696,-8.20029 77.62874,-25.95591 21.96177,-17.75561 38.9409,-52.05222 40.67855,-93.57152 0.80959,-6.58781 -7.21052,-9.6851 -10.77455,-10.11645 z"
         id="path46"
         sodipodi:nodetypes="csscscscc" /><path
         style="color:#000000;fill:#565658;fill-opacity:0.106061;stroke-linecap:round;stroke-linejoin:round;-inkscape-stroke:none"
         d="m 242.74137,125.56494 c -3.564,-0.43161 -8.07925,0.78422 -8.98866,7.76222 -4.00255,30.71188 -21.66717,60.18268 -36.98336,73.84806 -18.68591,16.67191 -44.59673,26.35593 -62.5199,27.34179 -3.58448,0.19736 -9.00154,1.03734 -8.87315,8.69029 0.0843,5.02541 3.26318,9.6848 10.24944,9.86533 20.87043,-0.72502 53.25679,-7.91819 75.21857,-25.67381 21.96177,-17.75561 39.39715,-49.86404 41.93661,-91.38334 0.80959,-6.58781 -6.47552,-10.01919 -10.03955,-10.45054 z"
         id="path47"
         sodipodi:nodetypes="csscscscc" /><path
         style="color:#000000;fill:#565658;fill-opacity:0.2331;stroke-linecap:round;stroke-linejoin:round;-inkscape-stroke:none"
         d="m 242.70796,126.09948 c -3.564,-0.43161 -7.44448,0.81763 -8.35389,7.79563 -4.00255,30.71188 -21.79606,60.18169 -37.11225,73.84707 -18.68591,16.67191 -44.43137,26.09608 -62.35454,27.08194 -3.58448,0.19736 -8.55269,0.73023 -8.4243,8.38318 0.0843,5.02541 2.48361,8.59812 9.46987,8.77865 21.1377,-0.19048 52.05674,-8.63026 74.01852,-26.38588 21.96177,-17.75561 38.78669,-47.86484 41.92751,-89.38414 0.80959,-6.58781 -5.60689,-9.6851 -9.17092,-10.11645 z"
         id="path48"
         sodipodi:nodetypes="csscscscc" /><path
         style="color:#000000;fill:#565658;fill-opacity:0.2331;stroke-linecap:round;stroke-linejoin:round;-inkscape-stroke:none"
         d="m 242.64114,126.63402 c -3.564,-0.43161 -6.7763,0.41672 -7.68571,7.39472 -4.00255,30.71188 -21.89629,60.74964 -37.21248,74.41502 -18.68591,16.67191 -44.9325,25.3945 -62.85567,26.38036 -3.58448,0.19736 -7.44842,1.40077 -7.05414,9.04464 0.1788,3.46626 2.34187,6.75548 9.32813,6.93601 20.46953,-1.12592 49.69242,-8.65179 71.6542,-26.40741 21.96177,-17.75561 39.35465,-47.12985 42.49547,-88.64915 0.80959,-6.58781 -5.10577,-8.68284 -8.6698,-9.11419 z"
         id="path49"
         sodipodi:nodetypes="csscscscc" /><path
         style="color:#000000;fill:#565658;fill-opacity:0.2331;stroke-linecap:round;stroke-linejoin:round;-inkscape-stroke:none"
         d="m 242.64114,126.63402 c -3.564,-0.43161 -6.7763,0.41672 -7.68571,7.39472 -4.00255,30.71188 -17.01862,56.13924 -37.21248,74.41502 -18.56739,16.8038 -44.9325,25.3945 -62.85567,26.38036 -3.58448,0.19736 -8.45808,2.76854 -5.92021,9.98958 1.21823,3.46626 2.81434,4.29864 9.8006,4.47917 20.46953,-1.12592 46.95012,-10.07985 68.9119,-27.83547 21.96177,-17.75561 38.82012,-44.25671 41.96094,-85.77601 0.80959,-6.58781 -3.43534,-8.61602 -6.99937,-9.04737 z"
         id="path50"
         sodipodi:nodetypes="csscscscc" /></g><path
       style="color:#000000;fill:#605dd4;stroke-linecap:round;stroke-linejoin:round;-inkscape-stroke:none"
       d="m 242.875,127.01953 a 6.5,6.5 0 0 0 -7.23438,5.67188 c -4.67354,38.57161 -20.862,63.27528 -40.33593,79.01953 -19.47394,15.74425 -42.56511,22.38718 -60.48828,23.37304 a 6.5,6.5 0 0 0 -6.13282,6.84766 6.5,6.5 0 0 0 6.84766,6.13281 c 20.46953,-1.12592 45.98549,-8.48852 67.94727,-26.24414 21.96177,-17.75561 40.03765,-46.0471 45.06835,-87.5664 a 6.5,6.5 0 0 0 -5.67187,-7.23438 z"
       id="path38" /><path
       style="color:#000000;fill:#cbcaff;fill-opacity:1;stroke-linecap:round;stroke-linejoin:round;-inkscape-stroke:none"
       d="m 242.875,127.01953 c -3.56401,-0.43162 -6.80304,2.10784 -7.23438,5.67188 -4.67354,38.57161 -20.862,63.27528 -40.33593,79.01953 -19.47394,15.74425 -42.56511,22.38718 -60.48828,23.37304 -3.58448,0.19736 -6.33026,3.26318 -6.13282,6.84766 0.19736,3.58448 2.03477,-1.41826 5.61924,-1.6157 20.46953,-1.12592 42.01674,-6.31516 63.97852,-24.07078 21.96177,-17.75561 37.34457,-42.9288 42.37527,-84.4481 0.43161,-3.564 5.78241,-4.34618 2.21838,-4.77753 z"
       id="path40"
       sodipodi:nodetypes="ccscccscc" /></g><g
     id="g54"
     inkscape:label="off"
     style="display:none"><g
       id="g55"
       inkscape:label="shadow"><circle
         style="fill:#7d7d7d;fill-opacity:0.282051;stroke:none;stroke-width:22.5745;stroke-linecap:round;stroke-linejoin:round;stroke-dasharray:none;stroke-opacity:1"
         id="circle54"
         cx="181.47601"
         cy="186.55412"
         r="68.420998" /><circle
         style="fill:#7d7d7d;fill-opacity:0.282051;stroke:none;stroke-width:22.31;stroke-linecap:round;stroke-linejoin:round;stroke-dasharray:none;stroke-opacity:1"
         id="circle55"
         cx="180.67421"
         cy="185.75232"
         r="67.619186" /><circle
         style="fill:#616161;fill-opacity:0.282051;stroke:none;stroke-width:22.0014;stroke-linecap:round;stroke-linejoin:round;stroke-dasharray:none;stroke-opacity:1"
         id="circle56"
         cx="179.73877"
         cy="184.81688"
         r="66.683746" /><circle
         style="fill:#595959;fill-opacity:0.282051;stroke:none;stroke-width:21.7148;stroke-linecap:round;stroke-linejoin:round;stroke-dasharray:none;stroke-opacity:1"
         id="circle57"
         cx="178.87015"
         cy="183.94826"
         r="65.815117" /><circle
         style="fill:#545454;fill-opacity:0.438228;stroke:none;stroke-width:21.4282;stroke-linecap:round;stroke-linejoin:round;stroke-dasharray:none;stroke-opacity:1"
         id="circle58"
         cx="178.00153"
         cy="183.07964"
         r="64.946487" /><circle
         style="fill:#464646;fill-opacity:0.282051;stroke:none;stroke-width:21.2739;stroke-linecap:round;stroke-linejoin:round;stroke-dasharray:none;stroke-opacity:1"
         id="circle59"
         cx="177.5338"
         cy="182.61191"
         r="64.478767" /></g><circle
       style="display:inline;fill:#ffffff;fill-opacity:1;stroke:none;stroke-width:19.4;stroke-linecap:round;stroke-linejoin:round;stroke-dasharray:none;stroke-opacity:1"
       id="path54"
       cx="175.32881"
       cy="181.476"
       r="58.799297"
       inkscape:label="wbackground" /><path
       id="path53"
       style="color:#000000;display:inline;fill:#a51f0d;fill-opacity:1;stroke-linecap:round;stroke-linejoin:round;-inkscape-stroke:none"
       d="m 177.46669,120.19318 c -14.5184,0 -27.89974,5.02967 -38.52117,13.41572 a 9.6999998,9.6999998 0 0 0 -3.05872,1.96319 9.6999998,9.6999998 0 0 0 -1.39268,1.90272 c -11.91847,11.37093 -19.37867,27.37845 -19.37867,45.07012 0,34.32116 28.03008,62.35176 62.35124,62.35175 17.14094,0 32.71201,-6.99262 44.00661,-18.26762 a 9.6999998,9.6999998 0 0 0 2.9192,-1.92185 9.6999998,9.6999998 0 0 0 2.50114,-4.26485 c 8.09224,-10.51938 12.9248,-23.66292 12.9248,-37.89743 0,-34.32116 -28.03061,-62.35175 -62.35175,-62.35175 z m 0,19.40037 c 23.83663,0 42.95345,19.11474 42.95345,42.95138 0,7.09624 -1.7053,13.76765 -4.71393,19.64738 l -57.61405,-58.02437 c 5.81293,-2.92195 12.38778,-4.57439 19.37453,-4.57439 z m -34.32917,17.04702 59.99168,60.41905 c -7.14584,5.30644 -16.01703,8.43824 -25.66251,8.43824 -23.83664,0 -42.95087,-19.11629 -42.95087,-42.95293 0,-9.75562 3.20492,-18.71733 8.6217,-25.90436 z" /><path
       id="path51"
       style="color:#000000;display:inline;fill:#f52e14;stroke-linecap:round;stroke-linejoin:round;-inkscape-stroke:none"
       d="m 173.23333,117.54733 c -14.5184,0 -27.89974,5.02967 -38.52117,13.41572 a 9.6999998,9.6999998 0 0 0 -3.05872,1.96319 9.6999998,9.6999998 0 0 0 -1.39268,1.90272 c -11.91847,11.37093 -19.37867,27.37845 -19.37867,45.07012 0,34.32116 28.03008,62.35176 62.35124,62.35175 17.14094,0 32.71201,-6.99262 44.00661,-18.26762 a 9.6999998,9.6999998 0 0 0 2.9192,-1.92185 9.6999998,9.6999998 0 0 0 2.50114,-4.26485 c 8.09224,-10.51938 12.9248,-23.66292 12.9248,-37.89743 0,-34.32116 -28.03061,-62.35175 -62.35175,-62.35175 z m 0,19.40037 c 23.83663,0 42.95345,19.11474 42.95345,42.95138 0,7.09624 -1.7053,13.76765 -4.71393,19.64738 L 153.8588,141.52209 c 5.81293,-2.92195 12.38778,-4.57439 19.37453,-4.57439 z m -34.32917,17.04702 59.99168,60.41905 c -7.14584,5.30644 -16.01703,8.43824 -25.66251,8.43824 -23.83664,0 -42.95087,-19.11629 -42.95087,-42.95293 0,-9.75562 3.20492,-18.71733 8.6217,-25.90436 z" /></g><path
     id="rect59"
     style="display:none;fill:#ff4c00;fill-opacity:1;stroke-width:19.4;stroke-linecap:round;stroke-linejoin:round"
     d="m 198.4375,1.8898809 h 44.22321 L 45.735118,229.80953 H 1.5119047 Z"
     sodipodi:nodetypes="ccccc"
     inkscape:label="disable" /><g
     id="g25"
     inkscape:label="statusbutton"
     style="display:none"
     transform="matrix(1.1794049,0,0.17943504,1.1794049,-73.330581,-45.472858)"><circle
       style="fill:#49ff15;fill-opacity:1;stroke-width:5.597"
       id="path14-3"
       cx="191.76587"
       cy="198.85321"
       r="54.65662"
       inkscape:label="color" /><circle
       style="fill:url(#radialGradient21);fill-opacity:1;stroke-width:5.597"
       id="circle21"
       cx="191.76587"
       cy="198.85321"
       r="54.65662"
       inkscape:label="shadow" /><path
       id="path15"
       style="display:inline;fill:#ffffff;stroke-width:1.44579"
       inkscape:label="star"
       inkscape:transform-center-x="0.0074904368"
       inkscape:transform-center-y="-3.1529094"
       d="m 224.41748,216.43452 -25.68753,-14.86733 -21.86845,11.62742 0.49671,-27.74902 -22.10111,-21.18164 26.53046,1.5629 7.67327,-28.5638 16.10473,30.18376 26.63874,2.05942 -16.37248,18.5605 z"
       sodipodi:nodetypes="ccccccccccc"
       transform="matrix(1,0,-0.15214033,1,28.321411,12.700002)" /></g></svg>
