<?xml version="1.0" encoding="UTF-8" standalone="no"?>
<!-- Created with Inkscape (http://www.inkscape.org/) -->

<svg
   width="256mm"
   height="256mm"
   viewBox="0 0 256 256"
   version="1.1"
   id="svg1"
   inkscape:version="1.4.2 (ebf0e940d0, 2025-05-08)"
   sodipodi:docname="camera-off.svg"
   xml:space="preserve"
   xmlns:inkscape="http://www.inkscape.org/namespaces/inkscape"
   xmlns:sodipodi="http://sodipodi.sourceforge.net/DTD/sodipodi-0.dtd"
   xmlns:xlink="http://www.w3.org/1999/xlink"
   xmlns="http://www.w3.org/2000/svg"
   xmlns:svg="http://www.w3.org/2000/svg"
   xmlns:rdf="http://www.w3.org/1999/02/22-rdf-syntax-ns#"
   xmlns:cc="http://creativecommons.org/ns#"
   xmlns:dc="http://purl.org/dc/elements/1.1/"><defs
     id="defs1"><linearGradient
       id="linearGradient16"
       inkscape:collect="always"><stop
         style="stop-color:#000000;stop-opacity:0;"
         offset="0.33200106"
         id="stop22" /><stop
         style="stop-color:#fbfbfb;stop-opacity:0.12250713;"
         offset="0.61641854"
         id="stop23" /><stop
         style="stop-color:#777777;stop-opacity:0.39173788;"
         offset="0.77212185"
         id="stop24" /><stop
         style="stop-color:#0f0000;stop-opacity:0.48005697;"
         offset="0.90423191"
         id="stop25" /><stop
         style="stop-color:#000000;stop-opacity:0.89316237;"
         offset="1"
         id="stop21" /></linearGradient><radialGradient
       inkscape:collect="always"
       xlink:href="#linearGradient16"
       id="radialGradient21"
       cx="194.85895"
       cy="189.83578"
       fx="194.85895"
       fy="189.83578"
       r="54.65662"
       gradientUnits="userSpaceOnUse"
       gradientTransform="matrix(1.2457902,0.27403186,-0.24894633,1.1317477,-1.3366005,-75.243624)" /><linearGradient
       id="linearGradient52-7"
       inkscape:collect="always"><stop
         style="stop-color:#989898;stop-opacity:1;"
         offset="0"
         id="stop53-5" /><stop
         style="stop-color:#ffffff;stop-opacity:1;"
         offset="1"
         id="stop54-3" /></linearGradient><linearGradient
       id="linearGradient50-5"
       inkscape:collect="always"><stop
         style="stop-color:#12467d;stop-opacity:1;"
         offset="0"
         id="stop51-6" /><stop
         style="stop-color:#1e7bd9;stop-opacity:1;"
         offset="1"
         id="stop52-2" /></linearGradient><linearGradient
       id="linearGradient48"
       inkscape:collect="always"><stop
         style="stop-color:#184c7a;stop-opacity:0;"
         offset="0"
         id="stop45" /><stop
         style="stop-color:#00538f;stop-opacity:0;"
         offset="0.40878835"
         id="stop46-9" /><stop
         style="stop-color:#004b81;stop-opacity:0.02553191;"
         offset="0.51720196"
         id="stop50-1" /><stop
         style="stop-color:#004374;stop-opacity:0.47446808;"
         offset="0.55219966"
         id="stop49-2" /><stop
         style="stop-color:#003459;stop-opacity:1;"
         offset="0.61184508"
         id="stop47-7" /><stop
         style="stop-color:#000f1a;stop-opacity:1"
         offset="1"
         id="stop48-0" /></linearGradient><linearGradient
       id="linearGradient44"
       inkscape:collect="always"><stop
         style="stop-color:#184c7a;stop-opacity:1"
         offset="0"
         id="stop41-9" /><stop
         style="stop-color:#00538f;stop-opacity:1"
         offset="0.40878835"
         id="stop42-3" /><stop
         style="stop-color:#003459;stop-opacity:1"
         offset="0.66176134"
         id="stop43-6" /><stop
         style="stop-color:#000f1a;stop-opacity:1"
         offset="1"
         id="stop44-0" /></linearGradient><linearGradient
       id="linearGradient37"
       inkscape:collect="always"><stop
         style="stop-color:#017cd7;stop-opacity:1"
         offset="0"
         id="stop37" /><stop
         style="stop-color:#00538f;stop-opacity:1"
         offset="0.40878835"
         id="stop39-6" /><stop
         style="stop-color:#003459;stop-opacity:1"
         offset="0.66176134"
         id="stop40-2" /><stop
         style="stop-color:#000f1a;stop-opacity:1"
         offset="1"
         id="stop38-6" /></linearGradient><linearGradient
       id="linearGradient32-1"
       inkscape:collect="always"><stop
         style="stop-color:#1c456e;stop-opacity:1;"
         offset="0"
         id="stop32-8" /><stop
         style="stop-color:#1c4874;stop-opacity:1;"
         offset="0.25584817"
         id="stop35-7" /><stop
         style="stop-color:#1d4c7b;stop-opacity:1;"
         offset="0.51169634"
         id="stop34-9" /><stop
         style="stop-color:#065eb8;stop-opacity:1"
         offset="0.72618747"
         id="stop36-2" /><stop
         style="stop-color:#0661bc;stop-opacity:1;"
         offset="1"
         id="stop33-0" /></linearGradient><linearGradient
       id="linearGradient31-2"
       inkscape:collect="always"><stop
         style="stop-color:#555252;stop-opacity:1"
         offset="0"
         id="stop30-3" /><stop
         style="stop-color:#777675;stop-opacity:1"
         offset="1"
         id="stop31-7" /></linearGradient><linearGradient
       id="linearGradient27"
       inkscape:collect="always"><stop
         style="stop-color:#7a7370;stop-opacity:1"
         offset="0"
         id="stop27-5" /><stop
         style="stop-color:#cecece;stop-opacity:1"
         offset="1"
         id="stop28-9" /></linearGradient><linearGradient
       id="linearGradient25-2"
       inkscape:collect="always"><stop
         style="stop-color:#5b5855;stop-opacity:1"
         offset="0"
         id="stop25-2" /><stop
         style="stop-color:#777675;stop-opacity:1"
         offset="1"
         id="stop26-8" /></linearGradient><linearGradient
       id="linearGradient24"
       inkscape:collect="always"><stop
         style="stop-color:#a3a39e;stop-opacity:1"
         offset="0"
         id="stop23-9" /><stop
         style="stop-color:#c2c3c0;stop-opacity:1"
         offset="1"
         id="stop24-73" /></linearGradient><linearGradient
       id="linearGradient19-6"
       inkscape:collect="always"><stop
         style="stop-color:#989794;stop-opacity:1"
         offset="0"
         id="stop20-1" /><stop
         style="stop-color:#a8a9a6;stop-opacity:1"
         offset="1"
         id="stop21-2" /></linearGradient><linearGradient
       id="linearGradient17"
       inkscape:collect="always"><stop
         style="stop-color:#797877;stop-opacity:1"
         offset="0"
         id="stop17-9" /><stop
         style="stop-color:#4e4b4e;stop-opacity:1"
         offset="0.37779841"
         id="stop19-3" /><stop
         style="stop-color:#1c181e;stop-opacity:1"
         offset="1"
         id="stop18-1" /></linearGradient><linearGradient
       id="linearGradient15-9"
       inkscape:collect="always"><stop
         style="stop-color:#767372;stop-opacity:1;"
         offset="0"
         id="stop14-4" /><stop
         style="stop-color:#8f8d8c;stop-opacity:1;"
         offset="0.26600236"
         id="stop16-7" /><stop
         style="stop-color:#bbb8ba;stop-opacity:1;"
         offset="0.57563895"
         id="stop55-8" /><stop
         style="stop-color:#d1ced3;stop-opacity:1"
         offset="1"
         id="stop15-4" /></linearGradient><linearGradient
       id="linearGradient12"
       inkscape:collect="always"><stop
         style="stop-color:#7e7c7b;stop-opacity:1"
         offset="0"
         id="stop12" /><stop
         style="stop-color:#94908f;stop-opacity:1"
         offset="1"
         id="stop13-5" /></linearGradient><linearGradient
       id="linearGradient9-0"
       inkscape:collect="always"><stop
         style="stop-color:#b0b3b8;stop-opacity:1"
         offset="0"
         id="stop10-3" /><stop
         style="stop-color:#ebeae9;stop-opacity:1"
         offset="1"
         id="stop11-6" /></linearGradient><linearGradient
       id="linearGradient8"
       inkscape:collect="always"><stop
         style="stop-color:#7a7a79;stop-opacity:1;"
         offset="0"
         id="stop7-1" /><stop
         style="stop-color:#bcbbbc;stop-opacity:1"
         offset="0.53065872"
         id="stop9-0" /><stop
         style="stop-color:#f9fafb;stop-opacity:1;"
         offset="1"
         id="stop8-6" /></linearGradient><linearGradient
       id="linearGradient3"
       inkscape:collect="always"><stop
         style="stop-color:#fffefd;stop-opacity:1;"
         offset="0"
         id="stop4-3" /><stop
         style="stop-color:#c5c8ce;stop-opacity:1;"
         offset="1"
         id="stop5-2" /></linearGradient><linearGradient
       id="linearGradient1"
       inkscape:collect="always"><stop
         style="stop-color:#84868b;stop-opacity:1;"
         offset="0"
         id="stop1" /><stop
         style="stop-color:#5e6062;stop-opacity:1;"
         offset="0.45229554"
         id="stop3-0" /><stop
         style="stop-color:#595a5c;stop-opacity:1"
         offset="1"
         id="stop2-6" /></linearGradient><linearGradient
       inkscape:collect="always"
       xlink:href="#linearGradient1"
       id="linearGradient2-1"
       x1="128.7796"
       y1="214.19917"
       x2="142.08411"
       y2="145.40752"
       gradientUnits="userSpaceOnUse" /><linearGradient
       inkscape:collect="always"
       xlink:href="#linearGradient3"
       id="linearGradient5"
       x1="120.28791"
       y1="158.36957"
       x2="129.63591"
       y2="195.22223"
       gradientUnits="userSpaceOnUse" /><radialGradient
       inkscape:collect="always"
       xlink:href="#linearGradient8"
       id="radialGradient8"
       cx="139.75925"
       cy="146.66815"
       fx="139.75925"
       fy="146.66815"
       r="95.427147"
       gradientTransform="matrix(1.0802866,-0.14428551,0.08103211,0.60669926,-21.740817,107.884)"
       gradientUnits="userSpaceOnUse" /><linearGradient
       inkscape:collect="always"
       xlink:href="#linearGradient9-0"
       id="linearGradient11"
       x1="45.202978"
       y1="107.62872"
       x2="216.92352"
       y2="107.62872"
       gradientUnits="userSpaceOnUse" /><linearGradient
       inkscape:collect="always"
       xlink:href="#linearGradient12"
       id="linearGradient13-5"
       x1="69.582588"
       y1="53.388348"
       x2="199.72591"
       y2="154.30798"
       gradientUnits="userSpaceOnUse" /><radialGradient
       inkscape:collect="always"
       xlink:href="#linearGradient15-9"
       id="radialGradient13"
       cx="93.319366"
       cy="132.72314"
       fx="93.319366"
       fy="132.72314"
       r="71.62648"
       gradientTransform="matrix(0.96157294,-0.33339764,0.54911236,1.5837291,-81.726394,-43.771365)"
       gradientUnits="userSpaceOnUse" /><linearGradient
       inkscape:collect="always"
       xlink:href="#linearGradient17"
       id="linearGradient18"
       x1="132.51547"
       y1="20.788691"
       x2="149.45476"
       y2="82.398811"
       gradientUnits="userSpaceOnUse" /><linearGradient
       inkscape:collect="always"
       xlink:href="#linearGradient19-6"
       id="linearGradient21"
       x1="103.22232"
       y1="31.372025"
       x2="129.989"
       y2="72.193451"
       gradientUnits="userSpaceOnUse" /><linearGradient
       inkscape:collect="always"
       xlink:href="#linearGradient24"
       id="linearGradient23-5"
       gradientUnits="userSpaceOnUse"
       x1="113.42768"
       y1="28.159227"
       x2="149.45477"
       y2="76.540176" /><linearGradient
       inkscape:collect="always"
       xlink:href="#linearGradient25-2"
       id="linearGradient26"
       x1="79.34285"
       y1="159.22249"
       x2="130.24493"
       y2="226.31326"
       gradientUnits="userSpaceOnUse"
       gradientTransform="translate(37.230655,-55.940476)" /><linearGradient
       inkscape:collect="always"
       xlink:href="#linearGradient27"
       id="linearGradient28"
       x1="86.713394"
       y1="164.70314"
       x2="128.73303"
       y2="217.24184"
       gradientUnits="userSpaceOnUse"
       gradientTransform="translate(37.230655,-55.940476)" /><linearGradient
       inkscape:collect="always"
       xlink:href="#linearGradient27"
       id="linearGradient29-4"
       gradientUnits="userSpaceOnUse"
       gradientTransform="translate(41.577381,-52.916666)"
       x1="86.713394"
       y1="164.70314"
       x2="128.73303"
       y2="217.24184" /><linearGradient
       inkscape:collect="always"
       xlink:href="#linearGradient31-2"
       id="linearGradient30"
       gradientUnits="userSpaceOnUse"
       gradientTransform="translate(41.577381,-52.916666)"
       x1="79.34285"
       y1="159.22249"
       x2="130.24493"
       y2="226.31326" /><radialGradient
       inkscape:collect="always"
       xlink:href="#linearGradient32-1"
       id="radialGradient33-7"
       cx="134.77142"
       cy="132.83025"
       fx="134.77142"
       fy="132.83025"
       r="32.67983"
       gradientUnits="userSpaceOnUse"
       gradientTransform="matrix(1.2784187,0.73454145,-0.63497821,1.1051357,44.29444,-111.65634)" /><linearGradient
       inkscape:collect="always"
       xlink:href="#linearGradient37"
       id="linearGradient38"
       x1="123.65997"
       y1="118.44857"
       x2="164.54538"
       y2="165.97908"
       gradientUnits="userSpaceOnUse" /><linearGradient
       inkscape:collect="always"
       xlink:href="#linearGradient44"
       id="linearGradient40"
       gradientUnits="userSpaceOnUse"
       x1="126.21131"
       y1="120.99991"
       x2="164.54538"
       y2="165.97908" /><radialGradient
       inkscape:collect="always"
       xlink:href="#linearGradient48"
       id="radialGradient44"
       cx="146.40028"
       cy="141.87354"
       fx="146.40028"
       fy="141.87354"
       r="32.679684"
       gradientUnits="userSpaceOnUse"
       gradientTransform="matrix(1.4481867,0,0,1.4481868,-63.709254,-61.922055)" /><radialGradient
       inkscape:collect="always"
       xlink:href="#linearGradient50-5"
       id="radialGradient52-6"
       cx="125.98593"
       cy="134.00157"
       fx="125.98593"
       fy="134.00157"
       r="11.24479"
       gradientUnits="userSpaceOnUse"
       gradientTransform="matrix(1.2983208,0,0,1.29832,-37.562503,-40.409591)" /><radialGradient
       inkscape:collect="always"
       xlink:href="#linearGradient52-7"
       id="radialGradient54-5"
       cx="122.9511"
       cy="130.29671"
       fx="122.9511"
       fy="130.29671"
       r="11.244792"
       gradientUnits="userSpaceOnUse"
       gradientTransform="matrix(1.6344538,0,0,1.6344542,-78.777075,-82.703973)" /></defs><sodipodi:namedview
     id="base"
     pagecolor="#ffffff"
     bordercolor="#000000"
     borderopacity="0.3"
     inkscape:pageopacity="0.0"
     inkscape:pageshadow="2"
     inkscape:zoom="0.175"
     inkscape:cx="-640"
     inkscape:cy="2637.1429"
     inkscape:document-units="mm"
     inkscape:showpageshadow="2"
     inkscape:pagecheckerboard="0"
     inkscape:deskcolor="#d1d1d1"
     inkscape:current-layer="svg1"
     showguides="true"><sodipodi:guide
       position="127.48756,120.76162"
       orientation="1,0"
       id="guide12"
       inkscape:locked="false" /><sodipodi:guide
       position="164.63802,167.80105"
       orientation="1,0"
       id="guide22"
       inkscape:locked="false" /></sodipodi:namedview><metadata
     id="metadata1"><rdf:RDF><cc:Work
         rdf:about=""><dc:format>image/svg+xml</dc:format><dc:type
           rdf:resource="http://purl.org/dc/dcmitype/StillImage" /><cc:license
           rdf:resource="http://creativecommons.org/publicdomain/zero/1.0/" /></cc:Work><cc:License
         rdf:about="http://creativecommons.org/publicdomain/zero/1.0/"><cc:permits
           rdf:resource="http://creativecommons.org/ns#Reproduction" /><cc:permits
           rdf:resource="http://creativecommons.org/ns#Distribution" /><cc:permits
           rdf:resource="http://creativecommons.org/ns#DerivativeWorks" /></cc:License></rdf:RDF></metadata><g
     id="g2"
     transform="matrix(1.097308,0,0,1.097308,-18.289583,-18.868784)"><g
       id="g55"
       style="display:inline"
       transform="matrix(1,0,0,1.0747893,5.2160717,-8.0876486)"><path
         id="path55"
         style="color:#000000;fill:#797772;fill-opacity:0.149813;stroke-width:1.08132;stroke-linecap:round;stroke-linejoin:round;-inkscape-stroke:none"
         d="m 136.38807,26.771641 a 88.427834,88.427834 0 0 0 -88.427835,88.427839 88.427834,88.427834 0 0 0 26.04924,62.35884 c -24.522713,13.32223 -60.435296,36.27277 -56.207824,52.09536 3.724507,13.94009 29.487336,8.71132 44.345229,6.94823 36.064554,-4.27955 66.18906,-13.68567 102.80066,-15.88561 17.62165,-1.05886 26.41237,4.07726 58.84598,0.76342 8.73352,-0.89233 19.2383,-9.6627 18.59604,-19.41408 -1.12781,-17.12374 -17.41392,-26.78985 -34.94137,-34.2388 a 88.427834,88.427834 0 0 0 17.36773,-52.62736 88.427834,88.427834 0 0 0 -88.42785,-88.427839 z" /><path
         id="path56"
         style="color:#000000;fill:#797772;fill-opacity:0.247191;stroke-width:1.05925;stroke-linecap:round;stroke-linejoin:round;-inkscape-stroke:none"
         d="M 135.7894,29.627762 A 87.272174,85.978281 0 0 0 48.517217,115.60605 87.272174,85.978281 0 0 0 74.22602,176.23747 c -24.202226,12.95319 -59.645469,35.26798 -55.473246,50.65226 3.675832,13.55394 29.101967,8.47001 43.765683,6.75576 35.593228,-4.161 65.324043,-13.30656 101.457163,-15.44556 17.39136,-1.02953 26.06719,3.96431 58.07693,0.74227 8.61938,-0.86761 18.98687,-9.39503 18.35301,-18.87629 -1.11307,-16.64939 -17.18634,-26.04774 -34.48473,-33.29034 A 87.272174,85.978281 0 0 0 223.06159,115.60605 87.272174,85.978281 0 0 0 135.7894,29.627762 Z" /><path
         id="path57"
         style="color:#000000;fill:#797772;fill-opacity:0.357678;stroke-width:1.05588;stroke-linecap:round;stroke-linejoin:round;-inkscape-stroke:none"
         d="m 134.81896,26.850998 a 86.347753,86.347753 0 0 0 -86.347761,86.347762 86.347753,86.347753 0 0 0 25.436486,60.89197 c -23.945867,13.00885 -59.013681,35.41953 -54.885652,50.86993 3.636896,13.61218 28.793708,8.5064 43.3021,6.78478 35.21621,-4.17888 64.632107,-13.36374 100.382487,-15.51193 17.20714,-1.03395 25.79108,3.98135 57.46175,0.74546 8.52809,-0.87134 18.78576,-9.4354 18.15861,-18.9574 -1.10128,-16.72094 -17.00429,-26.15968 -34.11945,-33.4334 a 86.347753,86.347753 0 0 0 16.95919,-51.38941 86.347753,86.347753 0 0 0 -86.34776,-86.347762 z" /><path
         id="path58"
         style="color:#000000;fill:#605e5a;fill-opacity:0.456929;stroke-width:1.04226;stroke-linecap:round;stroke-linejoin:round;-inkscape-stroke:none"
         d="m 133.32026,27.730457 a 85.233423,85.233423 0 0 0 -85.233414,85.233423 85.233423,85.233423 0 0 0 25.108225,60.10616 c -23.636843,12.84097 -58.252102,34.96244 -54.177345,50.21344 3.589961,13.43651 28.422121,8.39663 42.74328,6.69723 34.76174,-4.12495 63.798004,-13.19128 99.087034,-15.31175 16.98507,-1.02061 25.45823,3.92997 56.7202,0.73584 8.41802,-0.86009 18.54332,-9.31364 17.92426,-18.71275 -1.08706,-16.50516 -16.78485,-25.82208 -33.67913,-33.00194 A 85.233423,85.233423 0 0 0 218.5537,112.96388 85.233423,85.233423 0 0 0 133.32026,27.730457 Z" /><path
         id="path59"
         style="color:#000000;fill:#615f5b;fill-opacity:0.456929;stroke-width:1.02878;stroke-linecap:round;stroke-linejoin:round;-inkscape-stroke:none"
         d="M 131.83783,27.730457 A 84.13118,84.13118 0 0 0 47.706662,111.86164 84.13118,84.13118 0 0 0 72.490186,171.1905 c -23.33117,12.67491 -57.498783,34.51031 -53.476721,49.56408 3.543535,13.26275 28.054565,8.28804 42.190522,6.61062 34.312199,-4.07161 62.972963,-13.02069 97.805633,-15.11374 16.76542,-1.00741 25.12901,3.87915 55.98669,0.72633 8.30916,-0.84897 18.30352,-9.1932 17.69247,-18.47076 -1.07301,-16.29171 -16.56779,-25.48815 -33.24359,-32.57516 a 84.13118,84.13118 0 0 0 16.52384,-50.07023 84.13118,84.13118 0 0 0 -84.1312,-84.131183 z" /><path
         id="path60-3"
         style="color:#000000;fill:#5a5955;fill-opacity:0.456929;stroke-width:1.01672;stroke-linecap:round;stroke-linejoin:round;-inkscape-stroke:none"
         d="m 129.8423,28.799535 a 83.144237,83.144237 0 0 0 -83.144227,83.144245 83.144237,83.144237 0 0 0 24.492789,58.63287 c -23.057473,12.52622 -56.824266,34.10547 -52.849386,48.98265 3.501966,13.10715 27.725457,8.1908 41.695584,6.53306 33.909683,-4.02384 62.23423,-12.86794 96.65828,-14.93644 16.56875,-0.99559 24.83422,3.83365 55.32991,0.71782 8.21169,-0.83901 18.0888,-9.08536 17.48492,-18.25409 -1.06043,-16.10059 -16.37343,-25.18914 -32.85361,-32.19301 a 83.144237,83.144237 0 0 0 16.33,-49.48286 83.144237,83.144237 0 0 0 -83.14426,-83.144245 z" /></g><g
       id="path9"
       style="display:inline"><g
         id="rect1"
         style="display:inline"><g
           id="g9"><path
             style="color:#000000;fill:url(#linearGradient5);stroke-linecap:round;stroke-linejoin:round;-inkscape-stroke:none"
             d="m 80.508927,167.63245 c 17.589632,-9.20648 35.567513,-20.34206 55.373513,-22.48959 13.34394,-1.44686 27.33535,1.55206 39.6875,6.80357 21.23102,9.02636 54.19014,17.30425 55.75149,41.01041 0.59395,9.01804 -9.20871,19.39853 -17.19792,17.95387 -16.06528,-2.90503 -32.65149,-2.68012 -48.94792,-1.70089 -33.85824,2.03449 -67.189317,11.7283 -100.541662,15.68601 -13.740516,1.6305 -37.56601,6.46614 -41.010417,-6.4256 -4.193828,-15.69666 34.495704,-39.11893 56.885416,-50.83778 z"
             id="path5"
             sodipodi:nodetypes="sssssssss" /><path
             style="color:#000000;display:inline;fill:url(#radialGradient8);stroke-width:0.917398;stroke-linecap:round;stroke-linejoin:round;-inkscape-stroke:none"
             d="m 86.644112,172.54834 c 16.136698,-8.446 32.629578,-18.66177 50.799568,-20.63191 12.24171,-1.32734 25.07741,1.42386 36.40925,6.24159 19.4773,8.28076 50.47365,15.66304 49.44543,37.43389 -0.29547,6.25625 -7.82413,16.29043 -14.07645,16.65984 -12.38903,0.73198 -29.76543,-5.67154 -44.71575,-4.7732 -31.06149,1.86644 -62.7733,12.46043 -93.370685,16.09122 -12.605526,1.49582 -28.528948,6.86593 -36.677947,1.28671 -13.521926,-9.2578 31.6463,-41.55728 52.186584,-52.30814 z"
             id="path7-7"
             sodipodi:nodetypes="sssssssss" /><path
             style="color:#000000;fill:url(#linearGradient2-1);stroke-linecap:round;stroke-linejoin:round;-inkscape-stroke:none"
             d="m 146.10547,142.05664 c -3.51414,-0.16444 -7.03422,-0.0758 -10.52539,0.30273 -20.65672,2.23978 -38.906906,13.65317 -56.369143,22.79297 -11.286804,5.90755 -26.648282,14.72876 -38.832031,24.19532 -6.091874,4.73328 -11.395943,9.61089 -15.037109,14.54101 -3.641166,4.93012 -5.794235,10.17553 -4.423828,15.30469 1.080157,4.04282 3.992841,6.9142 7.474609,8.49805 3.481768,1.58385 7.541905,2.13174 11.806641,2.23632 8.52947,0.20917 18.028965,-1.45255 24.765625,-2.25195 33.666824,-3.99503 66.942436,-13.66273 100.378906,-15.67187 7.621,-0.45794 15.84171,1.27751 24.24219,2.53515 8.40048,1.25765 16.8842,1.44047 25.48633,-0.99414 4.20047,-1.18883 8.54574,-2.61029 12.26274,-6.20926 3.717,-3.59898 6.55843,-9.467 6.78413,-14.24582 0.31355,-6.63894 -2.03016,-12.39487 -5.89258,-17.0664 -3.86241,-4.67154 -9.17192,-8.37138 -15.07031,-11.55078 -11.79679,-6.35882 -26.11115,-10.69085 -36.49023,-15.10352 -9.52466,-4.0494 -20.01812,-6.81918 -30.56055,-7.3125 z m -0.25977,5.60156 c 9.74468,0.46511 19.62536,3.03738 28.62891,6.86524 10.85191,4.61368 24.97401,8.92188 36.02539,14.8789 5.52569,2.97851 10.2416,6.35713 13.41016,10.18946 3.16855,3.83232 4.86208,8.00584 4.61523,13.23242 -0.0964,2.04073 -1.88914,7.3937 -5.08491,10.488 -3.19577,3.0943 -7.28851,4.40588 -10.26665,4.96512 -7.25892,1.3631 -14.5981,1.94426 -22.75781,0.72266 -8.15972,-1.2216 -16.73279,-3.10723 -25.40821,-2.58594 -34.27994,2.05983 -67.665324,11.78079 -100.703123,15.70117 -7.003842,0.83111 -16.289259,2.40317 -23.96875,2.21485 -3.839745,-0.0942 -7.241363,-0.65202 -9.625,-1.73633 -2.383636,-1.08431 -3.740767,-2.44266 -4.382812,-4.8457 -0.726505,-2.71917 0.384299,-6.28881 3.517578,-10.53125 3.133279,-4.24245 8.113768,-8.8961 13.96875,-13.44532 11.709965,-9.09843 26.889302,-17.84691 37.992188,-23.6582 17.716992,-9.27314 35.421709,-20.13221 54.376949,-22.1875 3.1808,-0.34489 6.41389,-0.42261 9.66211,-0.26758 z"
             id="path6"
             sodipodi:nodetypes="scssssssssssssssssssssssssssssssssss" /></g></g><path
         style="color:#000000;display:inline;fill:url(#linearGradient11);stroke-linecap:round;stroke-linejoin:round;-inkscape-stroke:none"
         d="M 214.12351,107.62872 A 83.060265,83.060265 0 0 1 131.06325,190.68899 83.060265,83.060265 0 0 1 48.002983,107.62872 83.060265,83.060265 0 0 1 131.06325,24.568459 83.060265,83.060265 0 0 1 214.12351,107.62872 Z"
         id="path11-4" /><path
         style="color:#000000;display:inline;fill:url(#radialGradient13);stroke-linecap:round;stroke-linejoin:round;-inkscape-stroke:none"
         d="m 204.86309,106.3058 c 1e-5,45.87292 -27.9693,82.41173 -73.79984,84.38319 -30.75387,1.32292 -69.453127,-37.37634 -69.453124,-83.24926 2e-6,-45.872915 43.045984,-84.572165 69.453124,-82.871271 45.77805,2.948581 73.79984,35.86443 73.79984,81.737341 z"
         id="path13"
         sodipodi:nodetypes="sssss" /><path
         style="color:#000000;display:inline;fill:url(#linearGradient13-5);stroke-linecap:round;stroke-linejoin:round;-inkscape-stroke:none"
         d="m 131.0625,21.767578 c -47.386104,-1e-6 -85.859373,38.475224 -85.859375,85.861332 -3e-6,47.3861 38.473267,85.85937 85.859375,85.85937 47.38611,0 85.86133,-38.47327 85.86133,-85.85937 0,-47.386105 -38.47523,-85.861329 -85.86133,-85.861332 z m 0,5.601563 c 44.35963,2e-6 80.26172,35.90013 80.26172,80.259769 0,44.35963 -35.90208,80.25976 -80.26172,80.25976 -44.359641,0 -80.259768,-35.90012 -80.259766,-80.25976 3e-6,-44.359641 35.900128,-80.25977 80.259766,-80.259769 z"
         id="path12" /><path
         id="rect16"
         style="display:inline;fill:#dad6cc;stroke-width:5.60001;stroke-linecap:round;stroke-linejoin:round"
         d="M 93.501853,41.057663 C 120.43221,20.192239 140.70834,33.604802 162.71874,33.828869 l 0.75595,28.348214 C 163.92163,80.757544 124.94505,109.15456 115.47172,80.319941 110.65427,65.656742 103.35043,53.205302 93.501853,41.057663 Z"
         sodipodi:nodetypes="cccsc" /><g
         id="rect17"
         style="display:inline"><path
           style="color:#000000;fill:url(#linearGradient21);stroke-linecap:round;stroke-linejoin:round;-inkscape-stroke:none"
           d="m 95.438985,30.238094 c 6.793855,-9.287708 48.372665,-13.348845 62.933035,-3.96875 11.33958,16.498485 6.44497,38.348709 3.40179,44.223216 C 150.55113,92.156613 128.2676,89.123304 123.40922,78.619048 110.76628,51.283845 101.88788,42.67963 95.438985,30.238094 Z"
           id="path21" /><path
           style="color:#000000;display:inline;fill:url(#linearGradient23-5);stroke-linecap:round;stroke-linejoin:round;-inkscape-stroke:none"
           d="m 104.88839,26.836308 c 22.66885,-5.12997 38.92326,-9.947059 53.48363,-0.566964 11.33958,16.498485 6.44497,38.348709 3.40179,44.223216 -11.22268,21.664053 -30.7614,8.088758 -34.58483,-2.834822 -10.08032,-28.799555 -15.10546,-28.806317 -22.30059,-40.82143 z"
           id="path23"
           sodipodi:nodetypes="ccssc" /><path
           style="color:#000000;fill:url(#linearGradient18);stroke-linecap:round;stroke-linejoin:round;-inkscape-stroke:none"
           d="m 133.88672,18.113281 c -3.35312,-0.0375 -6.75617,0.09017 -10.10742,0.347656 -6.70251,0.51497 -13.15464,1.619813 -18.5,3.240235 -5.34537,1.620422 -9.655062,3.542882 -12.099613,6.884765 -0.627734,0.857976 -0.715499,1.997419 -0.226562,2.941407 7.939595,11.863584 17.142205,19.719709 27.914065,48.267578 5.16487,13.688077 31.42449,15.089298 43.39258,-8.013672 1.89175,-3.651817 3.80993,-10.681545 4.00585,-19.353516 0.19593,-8.67197 -1.4828,-18.86441 -7.58593,-27.74414 -0.21022,-0.305737 -0.4791,-0.56665 -0.79102,-0.767578 -6.34117,-4.085117 -15.9426,-5.690237 -26.00195,-5.802735 z m -0.0684,5.681641 c 9.28088,0.222059 17.87511,1.822258 22.55664,4.623047 4.94217,7.499707 6.46604,16.222626 6.29297,23.882812 -0.17728,7.846374 -2.22944,14.681613 -3.38086,16.904297 -10.47725,20.225093 -29.76074,15.968191 -33.33594,8.238281 C 115.2252,50.704118 106.91446,41.094763 99.066406,30.869141 c 1.548644,-1.22947 4.063924,-2.665127 7.835934,-3.808594 4.81644,-1.460078 10.94324,-2.52686 17.30469,-3.015625 3.18073,-0.244383 6.43118,-0.32609 9.61133,-0.25 z"
           id="path22"
           sodipodi:nodetypes="sssccsssccsccssccsscc" /></g><ellipse
         style="fill:#3b3839;fill-opacity:1;stroke:none;stroke-width:5.60001;stroke-linecap:round;stroke-linejoin:round;stroke-dasharray:none;stroke-opacity:1"
         id="path24"
         cx="144.67038"
         cy="60.948662"
         rx="10.677828"
         ry="5.5751491" /><circle
         style="fill:url(#linearGradient28);stroke:url(#linearGradient26);stroke-width:4.6;stroke-linecap:round;stroke-linejoin:round;stroke-dasharray:none;stroke-opacity:1"
         id="path25"
         cx="143.91443"
         cy="136.54391"
         r="42.427826" /><circle
         style="display:inline;fill:url(#linearGradient29-4);stroke:url(#linearGradient30);stroke-width:4.6;stroke-linecap:round;stroke-linejoin:round;stroke-dasharray:none;stroke-opacity:1"
         id="circle28"
         cx="148.26115"
         cy="139.56772"
         r="42.427826" /><g
         id="path31-5"
         style="display:inline"><path
           style="color:#000000;display:inline;fill:url(#radialGradient33-7);stroke-linecap:round;stroke-linejoin:round;-inkscape-stroke:none"
           d="m 178.31027,139.61496 a 30.379835,30.379835 0 0 1 -30.37983,30.37983 30.379835,30.379835 0 0 1 -30.37984,-30.37983 30.379835,30.379835 0 0 1 30.37984,-30.37984 30.379835,30.379835 0 0 1 30.37983,30.37984 z"
           id="path36-2" /><g
           id="g49"
           style="display:inline"><circle
             style="display:inline;fill:#081a2a;fill-opacity:1;stroke:none;stroke-width:4.59999;stroke-linecap:round;stroke-linejoin:round;stroke-dasharray:none;stroke-opacity:1"
             id="path49"
             cx="132.29167"
             cy="133.3689"
             r="11.528275" /><circle
             style="display:inline;fill:url(#radialGradient54-5);fill-opacity:1;stroke:none;stroke-width:4.48688;stroke-linecap:round;stroke-linejoin:round;stroke-dasharray:none;stroke-opacity:1"
             id="circle49"
             cx="132.00819"
             cy="134.65401"
             r="11.244792" /><path
             id="circle50"
             style="display:inline;fill:url(#radialGradient52-6);fill-opacity:1;stroke:none;stroke-width:4.48688;stroke-linecap:round;stroke-linejoin:round;stroke-dasharray:none;stroke-opacity:1"
             d="m 132.00796,124.35417 a 11.244792,11.244792 0 0 0 -3.72949,0.66456 4.6774554,4.6774554 0 0 1 3.72949,4.58008 4.6774554,4.6774554 0 0 1 -4.67723,4.67723 4.6774554,4.6774554 0 0 1 -4.67723,-4.67723 4.6774554,4.6774554 0 0 1 0.0171,-0.24236 11.244792,11.244792 0 0 0 -1.90738,6.24251 11.244792,11.244792 0 0 0 11.24479,11.24479 11.244792,11.244792 0 0 0 11.24479,-11.24479 11.244792,11.244792 0 0 0 -11.24479,-11.24479 z" /></g><path
           style="color:#000000;display:inline;fill:url(#radialGradient44);stroke-linecap:round;stroke-linejoin:round;-inkscape-stroke:none"
           d="m 147.92969,106.93555 c -18.02132,-1e-5 -32.67969,14.65837 -32.67969,32.67968 0,18.02132 14.65838,32.67969 32.67969,32.67969 18.0213,0 32.67968,-14.65838 32.67968,-32.67969 10e-6,-18.02131 -14.65837,-32.67968 -32.67968,-32.67968 z m 4.8192,11.49768 c 8.16475,0.85044 23.26088,5.64671 23.26088,21.182 -1e-5,15.5353 -12.54479,28.08008 -28.08008,28.08008 -15.5353,1e-5 -22.77861,-9.83823 -24.77084,-25.24526 -1.98437,-15.3463 14.13833,-25.62628 29.59004,-24.01682 z"
           id="path44-5"
           sodipodi:nodetypes="ssssssssss" /><path
           style="color:#000000;display:inline;fill:url(#linearGradient40);stroke-linecap:round;stroke-linejoin:round;-inkscape-stroke:none"
           d="m 147.92969,106.93555 c -18.02132,-1e-5 -32.67969,14.65837 -32.67969,32.67968 0,18.02132 14.65838,32.67969 32.67969,32.67969 18.0213,0 32.67968,-14.65838 32.67968,-32.67969 10e-6,-18.02131 -14.65837,-32.67968 -32.67968,-32.67968 z m 0,4.59961 c 15.53529,0 28.08008,12.54478 28.08008,28.08007 -1e-5,15.5353 -12.54479,28.08008 -28.08008,28.08008 -15.5353,1e-5 -28.07812,-12.54478 -28.07813,-28.08008 0,-15.53529 12.54283,-28.08008 28.07813,-28.08007 z"
           id="path37-4" /><path
           style="color:#000000;display:inline;fill:url(#linearGradient38);stroke-linecap:round;stroke-linejoin:round;-inkscape-stroke:none"
           d="m 148.11868,105.99061 c -21.5176,-0.189 -33.62463,13.52444 -33.43564,33.53013 0.17023,18.02051 15.22534,32.77418 33.24665,32.77418 18.0213,0 32.67968,-14.65838 32.67968,-32.67969 10e-6,-18.02131 -14.47008,-33.46634 -32.49069,-33.62462 z m -0.18899,3.65467 c 19.49887,0.20811 28.08008,14.43466 28.08008,29.96995 -1e-5,15.5353 -12.54479,28.08008 -28.08008,28.08008 -15.5353,1e-5 -30.157,-12.54478 -30.157,-28.08008 0,-17.33068 11.40387,-30.1701 30.157,-29.96995 z"
           id="path40"
           sodipodi:nodetypes="ssssssssss" /><path
           id="rect2"
           style="display:inline;fill:#ffffff;fill-opacity:0.498634;stroke-width:4.10001;stroke-linecap:round;stroke-linejoin:round"
           d="m 162.2521,157.55765 c 13.9059,-12.64141 9.07143,-28.72619 9.07143,-28.72619 0,0 8.28144,13.61 -5.66964,29.29315 -13.95109,15.68315 -34.86831,2.26786 -34.86831,2.26786 0,0 17.56062,9.80658 31.46652,-2.83482 z"
           sodipodi:nodetypes="zczcz" /></g></g></g><path
     id="rect14"
     style="display:none;fill:#ff3115;stroke-width:4.02135"
     d="M 9.6217025,18.263545 23.821778,17.814867 250.0665,246.23077 250.30742,264.04324 236.51129,263.70408 9.6217025,33.799389 Z"
     sodipodi:nodetypes="ccccccc"
     inkscape:label="offline"
     transform="translate(0,-12.700002)" /><g
     id="g7"
     transform="matrix(3.7034746,0,0,3.7034746,-391.87384,-365.49859)"
     inkscape:label="muted"><g
       id="g3"
       inkscape:label="shadow"><path
         id="path1"
         style="display:inline;fill:#2a2a2a;fill-opacity:0.09375;stroke-width:4.46891;stroke-linecap:round;stroke-linejoin:round"
         d="m 126.34325,119.28235 c 0.72882,-2.52607 5.11021,-0.62068 6.15051,0.44416 5.80283,5.93969 8.82776,9.19211 15.1354,17.06965 1.09392,1.36619 2.56884,1.89237 3.91553,0.22973 0,0 9.31784,-7.38099 14.23959,-10.87667 0.85506,-0.6073 3.05687,-1.15985 3.9858,-0.20746 1.0408,1.0671 0.7132,3.55319 -0.34378,4.45865 -4.57784,3.9216 -12.21297,9.74126 -13.00736,10.69393 -0.81314,0.97515 -2.44625,2.2155 -1.01801,3.57929 5.96887,5.69951 10.91696,11.06744 18.49051,17.18477 0,0 1.58634,2.46982 0.2485,4.37842 -0.82655,1.17919 -3.63832,0.0417 -3.63832,0.0417 -7.59002,-4.67115 -14.51187,-10.48748 -20.72819,-17.41463 -0.62545,-0.69698 -1.75832,0.92319 -1.75832,0.92319 -4.70337,4.78177 -8.87567,9.12406 -10.08557,11.39897 -1.19302,2.24316 -0.81341,3.01807 -2.47267,5.00366 -0.75256,0.90057 -4.96704,0.91824 -6.73189,-0.47672 -1.0999,-0.86938 -1.57332,-2.50903 -1.25805,-4.01343 0.25374,-1.21079 0.95057,-1.21738 1.57561,-2.35882 3.06723,-5.60136 8.33913,-10.45639 13.56963,-14.77864 1.51454,-1.20939 2.12713,-1.43979 0.80816,-2.68041 -4.91935,-6.08243 -9.37418,-9.93575 -12.2164,-12.75636 -3.75182,-3.70412 -6.44831,-4.34038 -4.86068,-9.843 z"
         sodipodi:nodetypes="ssscsassscscscssasscccss" /><path
         id="path2"
         style="display:inline;fill:#2a2a2a;fill-opacity:0.294118;stroke-width:4.46891;stroke-linecap:round;stroke-linejoin:round"
         d="m 126.60311,119.25873 c 0.9703,-2.44351 4.73223,-0.36082 5.77253,0.70402 5.80283,5.93969 7.39238,7.60281 13.70002,15.48035 1.09392,1.36619 2.71918,4.71542 5.65278,1.83336 0,0 9.13409,-7.63156 14.05584,-11.12724 0.85506,-0.6073 3.0228,-0.64896 3.79681,0.35951 0.69495,0.90546 0.24108,2.64226 -0.56974,3.37651 -4.61974,4.18362 -12.80609,10.30861 -13.65547,11.32722 -0.81314,0.97515 -1.95016,2.2155 -0.52191,3.57929 5.96887,5.6995 11.11642,11.04955 18.68997,17.16688 0,0 1.35248,1.90187 0.0146,3.81047 -0.82655,1.17919 -3.07512,-0.18168 -3.07512,-0.18168 -9.36068,-5.47296 -17.57498,-14.51412 -20.78452,-17.43223 -0.69289,-0.62998 -3.034,1.83269 -3.034,1.83269 -4.70337,4.78177 -7.29596,7.73774 -8.50586,10.01265 -1.19302,2.24316 -1.44447,3.43571 -2.64879,5.3122 -1.19422,1.86075 -4.86921,1.468 -6.63168,0.13299 -1.0468,-0.79291 -1.30605,-2.30858 -0.99078,-3.81298 0.25374,-1.21079 0.49224,-1.18395 1.17471,-2.292 3.17354,-5.15251 8.94544,-10.63015 14.49332,-14.98581 1.51454,-1.20939 1.26309,-1.55356 -0.0559,-2.79418 -4.91935,-6.08243 -9.24484,-10.04003 -12.08706,-12.86064 -2.84233,-2.46629 -6.66415,-4.72106 -4.78975,-9.44138 z"
         sodipodi:nodetypes="ssscsassscscscssasscccs" /><path
         id="path3"
         style="display:inline;fill:#2a2a2a;fill-opacity:0.262868;stroke-width:4.46891;stroke-linecap:round;stroke-linejoin:round"
         d="m 126.6976,119.57765 c 1.00621,-2.42894 4.63774,-0.67974 5.67804,0.3851 5.80283,5.93969 8.9268,10.20529 13.69646,16.08982 1.80319,2.22467 2.50573,3.67352 5.17206,1.74361 1.28882,-0.93286 9.61837,-8.15128 14.54012,-11.64696 0.85506,-0.6073 2.80475,-0.59637 3.46272,0.35951 0.61162,0.88853 0.007,2.43019 -0.837,3.12594 -4.95383,4.08339 -13.1812,10.68686 -14.1408,11.83765 -0.81314,0.97515 -1.07609,2.121 0.35216,3.48479 5.96887,5.6995 10.72767,10.66703 18.30122,16.78436 0,0 1.58634,1.38404 0.24846,3.29264 -0.82655,1.17919 -2.56923,-0.008 -2.56923,-0.008 -7.59002,-4.67115 -14.54123,-10.4867 -20.75755,-17.41385 -0.62545,-0.69698 -2.65602,0.99406 -2.65602,0.99406 -4.70337,4.78177 -8.38293,9.10253 -9.59283,11.37744 -1.19302,2.24316 -1.05501,1.9995 -2.15528,4.16844 -0.92835,1.83002 -4.67244,2.4095 -6.5225,1.19949 -1.06551,-0.69689 -1.18793,-2.21409 -0.87266,-3.71849 0.25374,-1.21079 0.33052,-1.17457 0.99753,-2.292 4.69725,-7.86921 9.12918,-10.69696 14.35968,-15.01921 0.92989,-0.79179 1.46079,-1.4659 0.28657,-2.84431 -5.0729,-5.95497 -9.38278,-10.19274 -12.225,-13.01335 -3.73226,-3.23849 -6.3339,-5.10221 -4.76615,-8.88668 z"
         sodipodi:nodetypes="sssssassscscscssasscscs" /></g><path
       id="rect1-0"
       style="fill:#df0029;stroke-width:4.2;stroke-linecap:round;stroke-linejoin:round"
       d="m 132.35561,120.12556 c 5.88231,5.48702 14.73627,17.92882 14.98422,18.28174 0.81266,1.15668 1.97363,1.80168 3.23929,0.23909 0,0 10.39204,-9.37686 15.01763,-12.6622 0.80361,-0.57076 2.41794,-1.3692 3.08965,-0.37367 0.5926,0.87829 0.3964,3.01034 -0.44381,3.703 -4.53854,3.74153 -13.66682,10.97693 -14.3726,11.82333 -0.76421,0.91648 -1.40434,1.82456 -0.13219,3.17601 0.84838,0.90126 11.44423,11.20396 18.38601,16.25298 0.74888,0.54468 1.29006,2.37225 0.66838,3.44903 -0.78009,1.35117 -2.77193,0.42907 -3.63109,-0.0945 -7.17283,-4.37119 -13.66018,-11.1848 -19.36437,-16.86718 -0.59986,-0.59757 -1.3781,-0.12758 -2.14973,0.51833 -4.83371,4.04614 -9.42523,10.20783 -10.64148,12.30185 -1.92304,3.31089 -2.08369,3.5849 -2.66429,4.6301 -0.9197,1.65565 -4.23127,1.68959 -5.66391,0.45082 -1.09273,-0.94487 -0.57979,-2.9106 -0.28349,-4.32448 0.23848,-1.13794 0.81716,-2.16171 1.6064,-3.09605 4.25919,-5.04228 8.92524,-9.20554 13.84101,-13.26771 1.42341,-1.13662 0.91124,-1.97481 -0.32836,-3.14078 -4.62083,-5.71795 -9.37315,-10.33683 -14.83556,-15.79153 -0.39525,-0.39469 -3.08586,-1.69561 -2.07986,-5.15661 1.09821,-3.77823 5.72342,-0.084 5.75815,-0.0516 z"
       sodipodi:nodetypes="sscssssssssssssassccssss"
       inkscape:label="colorheadcross" /><g
       id="g6"
       inkscape:label="shadows"><path
         id="rect3"
         style="fill:#5f5f5f;fill-opacity:0.610294;stroke-width:4.2;stroke-linecap:round;stroke-linejoin:round"
         d="m 133.35472,164.32516 c 3.02596,-7.14215 10.3218,-14.58715 13.74889,-17.30422 2.29893,-1.18921 2.1068,-0.41577 2.90569,-0.0472 -0.54499,-0.18089 -1.07666,-0.26845 -1.55915,-0.0118 0,0 -1.99437,1.24147 -6.54371,6.37835 -5.321,6.0082 -5.20599,7.65055 -6.87444,9.99275 -0.64492,0.90533 -0.99779,2.06214 -2.14975,2.24423 v -0.37798 z"
         sodipodi:nodetypes="ccccssccc" /><path
         id="path4"
         style="fill:#5f5f5f;fill-opacity:0.610294;stroke-width:4.2;stroke-linecap:round;stroke-linejoin:round"
         d="m 157.40265,147.90305 c 4.7468,4.47574 10.35865,9.43674 14.05916,12.05041 2.16785,1.65908 1.53129,3.39886 1.16614,4.19931 0.17857,-0.54576 0.26386,-1.07779 0.005,-1.55919 0,0 -1.93505,-1.70558 -7.09128,-6.23297 -6.03083,-5.29534 -9.6098,-8.78773 -11.8646,-10.8714 -0.81635,-0.75439 -2.52703,-3.2096 -1.03676,-4.07729 0,0 13.464,-10.89199 14.65594,-11.95077 2.11242,-1.8764 1.2242,-3.78263 1.40951,-3.60501 0.18531,0.17762 0.9953,2.20287 -0.84277,3.74818 -1.92969,1.62234 -13.96545,11.47012 -14.24976,11.83718 -0.61325,0.79172 -0.62037,1.44439 -0.59496,1.53939 0.36802,1.3756 2.33175,2.9867 4.38442,4.92216 z"
         sodipodi:nodetypes="scccsscsssssss" /><path
         id="rect4"
         style="fill:#5f5f5f;fill-opacity:0.610294;stroke-width:4.2;stroke-linecap:round;stroke-linejoin:round"
         d="m 128.06305,118.5664 c 0.75279,-0.0957 1.27811,-0.41132 3.85064,1.25205 5.75118,5.35187 10.66548,11.63511 15.1663,18.23735 0.56545,0.89284 1.18269,1.44586 2.12612,1.58277 -0.0148,0.25241 -1.69389,0.65562 -3.26005,-2.03162 -1.56616,-2.68725 -10.58334,-13.44178 -10.58334,-13.44178 -2.10104,-2.47023 -3.88391,-5.51894 -7.29967,-5.59877 z"
         sodipodi:nodetypes="cccczcc" /><path
         id="path5-7"
         style="fill:#fefefe;fill-opacity:0.610294;stroke-width:4.2;stroke-linecap:round;stroke-linejoin:round"
         d="m 127.8398,118.62056 c -1.48836,0.49546 -2.62525,4.73194 0.72466,6.57669 5.40039,5.21824 6.61468,6.74074 12.01753,12.57458 l -0.86666,-1.18385 c -2.86909,-3.15497 -11.5856,-12.32258 -11.5856,-12.32258 -2.10104,-2.47023 -0.62429,-4.51263 -0.28993,-5.64484 z"
         sodipodi:nodetypes="cccccc" /><path
         id="rect5"
         style="fill:#fefefe;fill-opacity:0.610294;stroke-width:4.2;stroke-linecap:round;stroke-linejoin:round"
         d="m 144.7332,143.43352 c 0.58512,-0.5282 0.81558,-0.31273 1.20594,-0.25986 -3.15114,3.10333 -19.32918,15.40532 -17.24516,21.81236 -0.62553,-0.46188 -0.79098,-1.61899 -0.49667,-3.37816 0,0 0.22204,-1.07695 0.59002,-2.17336 0.45545,-1.35705 2.58023,-3.50359 3.0911,-4.05781 4.73059,-5.13202 9.63058,-9.03264 12.85477,-11.94317 z"
         sodipodi:nodetypes="scccsss" /><path
         id="path6-5"
         style="fill:#fefefe;fill-opacity:0.610294;stroke-width:4.2;stroke-linecap:round;stroke-linejoin:round"
         d="m 166.44885,125.40953 c 0.68534,-0.41127 1.52561,-0.31965 1.88054,-0.14867 -2.68342,0.89836 -4.72193,2.79276 -10.50709,7.69195 -2.49394,2.11202 -3.59055,2.65492 -5.32017,4.43374 -2.22143,2.28464 -3.26511,2.60619 -2.45017,1.78558 1.14032,-1.14825 2.923,-2.70844 4.43437,-4.00602 3.9041,-3.35186 8.23809,-7.52159 11.96252,-9.75658 z"
         sodipodi:nodetypes="scsssas" /></g></g><g
     id="g25"
     inkscape:label="statusbutton"
     style="display:none"
     transform="matrix(1,0,0.15214033,1,-30.253593,-12.700002)"><circle
       style="fill:#ff1521;fill-opacity:1;stroke-width:5.597"
       id="path14"
       cx="191.76587"
       cy="198.85321"
       r="54.65662"
       inkscape:label="color" /><circle
       style="fill:url(#radialGradient21);fill-opacity:1;stroke-width:5.597"
       id="circle21"
       cx="191.76587"
       cy="198.85321"
       r="54.65662"
       inkscape:label="shadow" /><path
       id="path15"
       style="display:inline;fill:#ffffff;stroke-width:1.44579"
       inkscape:label="star"
       inkscape:transform-center-x="0.0074904368"
       inkscape:transform-center-y="-3.1529094"
       d="m 224.41748,216.43452 -25.68753,-14.86733 -21.86845,11.62742 0.49671,-27.74902 -22.10111,-21.18164 26.53046,1.5629 7.67327,-28.5638 16.10473,30.18376 26.63874,2.05942 -16.37248,18.5605 z"
       sodipodi:nodetypes="ccccccccccc"
       transform="matrix(1,0,-0.15214033,1,28.321411,12.700002)" /></g></svg>
