<?xml version="1.0" encoding="UTF-8" standalone="no"?>
<!-- Created with Inkscape (http://www.inkscape.org/) -->

<svg
   width="256mm"
   height="256mm"
   viewBox="0 0 256 256"
   version="1.1"
   id="svg1"
   inkscape:version="1.3.2 (091e20ef0f, 2023-11-25)"
   xml:space="preserve"
   sodipodi:docname="dialog-password-01.svg"
   xmlns:inkscape="http://www.inkscape.org/namespaces/inkscape"
   xmlns:sodipodi="http://sodipodi.sourceforge.net/DTD/sodipodi-0.dtd"
   xmlns:xlink="http://www.w3.org/1999/xlink"
   xmlns="http://www.w3.org/2000/svg"
   xmlns:svg="http://www.w3.org/2000/svg"
   xmlns:rdf="http://www.w3.org/1999/02/22-rdf-syntax-ns#"
   xmlns:cc="http://creativecommons.org/ns#"
   xmlns:dc="http://purl.org/dc/elements/1.1/"><defs
     id="defs1"><linearGradient
       id="linearGradient111"
       inkscape:collect="always"><stop
         style="stop-color:#f9b500;stop-opacity:0;"
         offset="0"
         id="stop105" /><stop
         style="stop-color:#f9b500;stop-opacity:0;"
         offset="0.34116343"
         id="stop107" /><stop
         style="stop-color:#ffb900;stop-opacity:1;"
         offset="0.69502145"
         id="stop109" /><stop
         style="stop-color:#b68300;stop-opacity:0;"
         offset="0.8475107"
         id="stop112" /><stop
         style="stop-color:#be8c00;stop-opacity:1;"
         offset="1"
         id="stop111" /></linearGradient><linearGradient
       id="linearGradient100"
       inkscape:collect="always"><stop
         style="stop-color:#6e511b;stop-opacity:1;"
         offset="0"
         id="stop102" /><stop
         style="stop-color:#c99630;stop-opacity:1;"
         offset="1"
         id="stop104" /></linearGradient><linearGradient
       id="linearGradient95"
       inkscape:collect="always"><stop
         style="stop-color:#f9f9f9;stop-opacity:1;"
         offset="0"
         id="stop97" /><stop
         style="stop-color:#f9f9f9;stop-opacity:0.73702425;"
         offset="0.5"
         id="stop100" /><stop
         style="stop-color:#f9f9f9;stop-opacity:0;"
         offset="1"
         id="stop98" /></linearGradient><linearGradient
       id="linearGradient88"
       inkscape:collect="always"><stop
         style="stop-color:#f9f9f9;stop-opacity:0;"
         offset="0"
         id="stop89" /><stop
         style="stop-color:#f9f9f9;stop-opacity:0;"
         offset="0.5"
         id="stop93" /><stop
         style="stop-color:#f9f9f9;stop-opacity:0;"
         offset="0.81932437"
         id="stop95" /><stop
         style="stop-color:#f9f9f9;stop-opacity:0.9584775;"
         offset="1"
         id="stop91" /></linearGradient><linearGradient
       id="linearGradient82"
       inkscape:collect="always"><stop
         style="stop-color:#f9f9f9;stop-opacity:1;"
         offset="0"
         id="stop82" /><stop
         style="stop-color:#f9f9f9;stop-opacity:0.92733562;"
         offset="0.34116343"
         id="stop86" /><stop
         style="stop-color:#f9f9f9;stop-opacity:0.24705882;"
         offset="0.69502145"
         id="stop88" /><stop
         style="stop-color:#f9f9f9;stop-opacity:0;"
         offset="1"
         id="stop84" /></linearGradient><linearGradient
       id="linearGradient64"
       inkscape:collect="always"><stop
         style="stop-color:#6e511b;stop-opacity:1;"
         offset="0"
         id="stop64" /><stop
         style="stop-color:#31220b;stop-opacity:1;"
         offset="1"
         id="stop66" /></linearGradient><linearGradient
       id="linearGradient10"
       inkscape:collect="always"><stop
         style="stop-color:#9f7d3a;stop-opacity:1"
         offset="0"
         id="stop16" /><stop
         style="stop-color:#a98541;stop-opacity:1"
         offset="0.03626707"
         id="stop54" /><stop
         style="stop-color:#e7bb66;stop-opacity:1"
         offset="0.04979378"
         id="stop50" /><stop
         style="stop-color:#ddac45;stop-opacity:1;"
         offset="0.12867203"
         id="stop55" /><stop
         style="stop-color:#d39d25;stop-opacity:1"
         offset="0.14123029"
         id="stop52" /><stop
         style="stop-color:#8c671f;stop-opacity:1"
         offset="0.18830703"
         id="stop46" /><stop
         style="stop-color:#e8a53a;stop-opacity:1;"
         offset="0.25305673"
         id="stop47" /><stop
         style="stop-color:#a85e1f;stop-opacity:1"
         offset="0.27016577"
         id="stop41" /><stop
         style="stop-color:#7f541d;stop-opacity:1"
         offset="0.33037233"
         id="stop42" /><stop
         style="stop-color:#a35d1e;stop-opacity:1"
         offset="0.39474201"
         id="stop45" /><stop
         style="stop-color:#e8a53a;stop-opacity:1;"
         offset="0.41750425"
         id="stop48" /><stop
         style="stop-color:#d69a36;stop-opacity:1;"
         offset="0.45031473"
         id="stop49" /><stop
         style="stop-color:#916925;stop-opacity:1"
         offset="0.47231552"
         id="stop44" /><stop
         style="stop-color:#9b7027;stop-opacity:1;"
         offset="0.50100386"
         id="stop57" /><stop
         style="stop-color:#e8a53a;stop-opacity:1;"
         offset="0.51888257"
         id="stop23" /><stop
         style="stop-color:#e8a53a;stop-opacity:1;"
         offset="0.64193583"
         id="stop31" /><stop
         style="stop-color:#e8a53a;stop-opacity:1;"
         offset="0.78410417"
         id="stop40" /><stop
         style="stop-color:#9d6e27;stop-opacity:1;"
         offset="1"
         id="stop22" /></linearGradient><linearGradient
       id="linearGradient32"
       inkscape:collect="always"><stop
         style="stop-color:#f7dbac;stop-opacity:1;"
         offset="0"
         id="stop32" /><stop
         style="stop-color:#eea937;stop-opacity:1;"
         offset="0.5"
         id="stop34" /><stop
         style="stop-color:#cc922d;stop-opacity:1;"
         offset="0.75"
         id="stop35" /><stop
         style="stop-color:#c28b2c;stop-opacity:1;"
         offset="1"
         id="stop33" /></linearGradient><linearGradient
       id="linearGradient26"
       inkscape:collect="always"><stop
         style="stop-color:#8f6622;stop-opacity:1;"
         offset="0"
         id="stop27" /><stop
         style="stop-color:#e19d00;stop-opacity:1;"
         offset="0.34468582"
         id="stop29" /><stop
         style="stop-color:#e1d9cc;stop-opacity:1;"
         offset="0.65805387"
         id="stop30" /><stop
         style="stop-color:#bc8f58;stop-opacity:1;"
         offset="1"
         id="stop28" /></linearGradient><linearGradient
       id="linearGradient24"
       inkscape:collect="always"><stop
         style="stop-color:#ff9933;stop-opacity:1;"
         offset="0"
         id="stop24" /><stop
         style="stop-color:#ff9933;stop-opacity:1;"
         offset="0.5"
         id="stop26" /><stop
         style="stop-color:#ffa74e;stop-opacity:0.03985507;"
         offset="1"
         id="stop25" /></linearGradient><linearGradient
       id="linearGradient19"
       inkscape:collect="always"><stop
         style="stop-color:#99ccff;stop-opacity:1;"
         offset="0"
         id="stop20" /><stop
         style="stop-color:#99ccff;stop-opacity:1;"
         offset="0.29781011"
         id="stop38" /><stop
         style="stop-color:#f5fbff;stop-opacity:1;"
         offset="0.53446352"
         id="stop39" /><stop
         style="stop-color:#d4fcff;stop-opacity:1;"
         offset="1"
         id="stop21" /></linearGradient><linearGradient
       id="linearGradient17"
       inkscape:collect="always"><stop
         style="stop-color:#dddddd;stop-opacity:1;"
         offset="0"
         id="stop17" /><stop
         style="stop-color:#4aa84a;stop-opacity:1;"
         offset="0.78551883"
         id="stop19" /><stop
         style="stop-color:#006600;stop-opacity:1;"
         offset="1"
         id="stop18" /></linearGradient><linearGradient
       id="linearGradient14"
       inkscape:collect="always"><stop
         style="stop-color:#ffff99;stop-opacity:1;"
         offset="0"
         id="stop14" /><stop
         style="stop-color:#ffcc66;stop-opacity:1;"
         offset="0.5"
         id="stop36" /><stop
         style="stop-color:#ff9933;stop-opacity:1;"
         offset="0.75"
         id="stop37" /><stop
         style="stop-color:#996600;stop-opacity:1;"
         offset="1"
         id="stop15" /></linearGradient><linearGradient
       id="linearGradient12"
       inkscape:collect="always"><stop
         style="stop-color:#d7b600;stop-opacity:1;"
         offset="0"
         id="stop12" /><stop
         style="stop-color:#d7ab00;stop-opacity:1;"
         offset="1"
         id="stop13" /></linearGradient><linearGradient
       id="linearGradient9"
       inkscape:collect="always"><stop
         style="stop-color:#ae9f00;stop-opacity:1;"
         offset="0"
         id="stop10" /><stop
         style="stop-color:#7a6200;stop-opacity:1;"
         offset="1"
         id="stop11" /></linearGradient><linearGradient
       id="linearGradient7"
       inkscape:collect="always"><stop
         style="stop-color:#d7b900;stop-opacity:1;"
         offset="0"
         id="stop7" /><stop
         style="stop-color:#d7aa00;stop-opacity:1;"
         offset="0.5"
         id="stop9" /><stop
         style="stop-color:#fbcf00;stop-opacity:1;"
         offset="1"
         id="stop8" /></linearGradient><linearGradient
       id="linearGradient2"
       inkscape:collect="always"><stop
         style="stop-color:#ffc500;stop-opacity:1;"
         offset="0"
         id="stop2" /><stop
         style="stop-color:#fff800;stop-opacity:1;"
         offset="0.17692801"
         id="stop4" /><stop
         style="stop-color:#f9d600;stop-opacity:1;"
         offset="0.43076083"
         id="stop6" /><stop
         style="stop-color:#8e8800;stop-opacity:1;"
         offset="0.86709207"
         id="stop5" /><stop
         style="stop-color:#ffa400;stop-opacity:1;"
         offset="1"
         id="stop3" /></linearGradient><linearGradient
       id="swatch1"
       inkscape:swatch="solid"><stop
         style="stop-color:#ff0707;stop-opacity:1;"
         offset="0"
         id="stop1" /></linearGradient><radialGradient
       cx="0"
       cy="0"
       gradientTransform="matrix(0.0208,0,0,0.0208,14.255824,22.4)"
       gradientUnits="userSpaceOnUse"
       id="gradient6"
       r="819.20001"
       spreadMethod="pad"><stop
         offset="0.0"
         stop-color="#99ccff"
         id="stop99" /><stop
         offset="0.6235294117647059"
         stop-color="#5465fd"
         id="stop101" /><stop
         offset="1.0"
         stop-color="#0236b0"
         id="stop103" /></radialGradient><linearGradient
       gradientTransform="matrix(7e-4,0.0076,0.0063,-5e-4,14.105824,26.85)"
       gradientUnits="userSpaceOnUse"
       id="gradient7"
       spreadMethod="pad"
       x1="-819.20001"
       x2="819.20001"><stop
         offset="0.0"
         stop-color="#5465fd"
         id="stop106" /><stop
         offset="0.30980392156862746"
         stop-color="#99ccff"
         id="stop108" /><stop
         offset="1.0"
         stop-color="#ccffff"
         id="stop110" /></linearGradient><radialGradient
       cx="0"
       cy="0"
       gradientTransform="matrix(0.0274,0,0,0.0274,14.155824,2.75)"
       gradientUnits="userSpaceOnUse"
       id="gradient8"
       r="819.20001"
       spreadMethod="pad"><stop
         offset="0.0"
         stop-color="#ffcc66"
         id="stop113" /><stop
         offset="0.34509803921568627"
         stop-color="#ff9933"
         id="stop115" /><stop
         offset="1.0"
         stop-color="#660000"
         id="stop117" /></radialGradient><linearGradient
       gradientTransform="matrix(4e-4,0.002,0.0096,-0.0019,14.005824,7.75)"
       gradientUnits="userSpaceOnUse"
       id="gradient9"
       spreadMethod="pad"
       x1="-819.20001"
       x2="819.20001"><stop
         offset="0.0"
         stop-color="#990000"
         id="stop120" /><stop
         offset="0.9254901960784314"
         stop-color="#ff9933"
         id="stop122" /><stop
         offset="1.0"
         stop-color="#ff9933"
         id="stop124" /></linearGradient><linearGradient
       gradientTransform="matrix(0,0.0139,0.0111,0,12.905824,12)"
       gradientUnits="userSpaceOnUse"
       id="gradient10"
       spreadMethod="pad"
       x1="-819.20001"
       x2="819.20001"><stop
         offset="0.0"
         stop-color="#996600"
         id="stop127" /><stop
         offset="1.0"
         stop-color="#660000"
         id="stop129" /></linearGradient><radialGradient
       cx="0"
       cy="0"
       gradientTransform="matrix(0.0264,0,0,0.0264,10.905824,2.05)"
       gradientUnits="userSpaceOnUse"
       id="gradient11"
       r="819.20001"
       spreadMethod="pad"><stop
         offset="0.0"
         stop-color="#999999"
         id="stop132" /><stop
         offset="0.1803921568627451"
         stop-color="#666666"
         id="stop134" /><stop
         offset="0.8784313725490196"
         stop-color="#000000"
         id="stop136" /><stop
         offset="1.0"
         stop-color="#000000"
         id="stop138" /></radialGradient><linearGradient
       gradientTransform="matrix(-0.0082,0.0011,2e-4,0.0016,12.355824,4.8)"
       gradientUnits="userSpaceOnUse"
       id="gradient12"
       spreadMethod="pad"
       x1="-819.20001"
       x2="819.20001"><stop
         offset="0"
         stop-color="#333333"
         id="stop141"
         style="stop-color:#fff900;stop-opacity:1;" /><stop
         offset="0.40784314"
         stop-color="#bdbdbd"
         id="stop143"
         style="stop-color:#bdb000;stop-opacity:1;" /><stop
         offset="0.58431375"
         stop-color="#999999"
         id="stop145"
         style="stop-color:#999300;stop-opacity:1;" /><stop
         offset="1"
         stop-color="#333333"
         id="stop147"
         style="stop-color:#fffa00;stop-opacity:1;" /></linearGradient><linearGradient
       inkscape:collect="always"
       xlink:href="#linearGradient2"
       id="linearGradient3"
       x1="5.3881922"
       y1="6.2465925"
       x2="20.799934"
       y2="4.7692442"
       gradientUnits="userSpaceOnUse" /><linearGradient
       inkscape:collect="always"
       xlink:href="#linearGradient7"
       id="linearGradient8"
       x1="128.95869"
       y1="48.35886"
       x2="136.842"
       y2="67.929298"
       gradientUnits="userSpaceOnUse" /><linearGradient
       inkscape:collect="always"
       xlink:href="#linearGradient9"
       id="linearGradient11"
       x1="-0.25639229"
       y1="10.844685"
       x2="21.46894"
       y2="10.844685"
       gradientUnits="userSpaceOnUse" /><linearGradient
       inkscape:collect="always"
       xlink:href="#linearGradient12"
       id="linearGradient13"
       x1="-0.25639229"
       y1="10.844685"
       x2="21.46894"
       y2="10.844685"
       gradientUnits="userSpaceOnUse" /><radialGradient
       inkscape:collect="always"
       xlink:href="#linearGradient14"
       id="radialGradient15"
       cx="197.9054"
       cy="93.765251"
       fx="197.9054"
       fy="93.765251"
       r="64.560769"
       gradientTransform="matrix(0.04556457,-2.5783746,1.8581486,0.03283677,-35.209106,533.1438)"
       gradientUnits="userSpaceOnUse" /><radialGradient
       inkscape:collect="always"
       xlink:href="#linearGradient17"
       id="radialGradient18"
       cx="143.64648"
       cy="180.87654"
       fx="143.64648"
       fy="180.87654"
       r="64.620612"
       gradientTransform="matrix(2.0203911,-0.43689101,0.29327249,1.3562309,-204.55094,-12.652216)"
       gradientUnits="userSpaceOnUse" /><radialGradient
       cx="0"
       cy="0"
       gradientTransform="matrix(0.0208,0,0,0.0208,11.718027,21.957457)"
       gradientUnits="userSpaceOnUse"
       id="gradient0"
       r="819.20001"
       spreadMethod="pad"><stop
         offset="0"
         stop-color="#ccffcc"
         id="stop51"
         style="stop-color:#ccd9ff;stop-opacity:1;" /><stop
         offset="1"
         stop-color="#009900"
         id="stop53"
         style="stop-color:#0045bc;stop-opacity:1;" /></radialGradient><linearGradient
       gradientTransform="matrix(-7e-4,0.0077,0.0063,5e-4,13.318027,27.107457)"
       gradientUnits="userSpaceOnUse"
       id="gradient1"
       spreadMethod="pad"
       x1="-819.20001"
       x2="819.20001"><stop
         offset="0"
         stop-color="#99ccff"
         id="stop56"
         style="stop-color:#f6ff2f;stop-opacity:1;" /><stop
         offset="0.09411765"
         stop-color="#99ccff"
         id="stop58"
         style="stop-color:#f8ff43;stop-opacity:1;" /><stop
         offset="0.39607844"
         stop-color="#ffffff"
         id="stop60"
         style="stop-color:#fffba8;stop-opacity:1;" /><stop
         offset="1"
         stop-color="#ccffff"
         id="stop62"
         style="stop-color:#feffcc;stop-opacity:1;" /></linearGradient><radialGradient
       cx="0"
       cy="0"
       gradientTransform="matrix(0.0277,0,0,0.0277,12.468027,2.257457)"
       gradientUnits="userSpaceOnUse"
       id="gradient2"
       r="819.20001"
       spreadMethod="pad"><stop
         offset="0.0"
         stop-color="#ffff99"
         id="stop65" /><stop
         offset="0.24313726"
         stop-color="#ffcc66"
         id="stop67"
         style="stop-color:#ffae60;stop-opacity:1;" /><stop
         offset="0.71372551"
         stop-color="#ff9933"
         id="stop69"
         style="stop-color:#ffc58c;stop-opacity:1;" /><stop
         offset="1"
         stop-color="#996600"
         id="stop71"
         style="stop-color:#c09469;stop-opacity:1;" /></radialGradient><linearGradient
       gradientTransform="matrix(0,0.0022,0.0096,0,14.168027,7.657457)"
       gradientUnits="userSpaceOnUse"
       id="gradient3"
       spreadMethod="pad"
       x1="-819.20001"
       x2="819.20001"><stop
         offset="0"
         stop-color="#ff9933"
         id="stop74"
         style="stop-color:#ffecd6;stop-opacity:1;" /><stop
         offset="0.48627451"
         stop-color="#ff9933"
         id="stop76"
         style="stop-color:#ffc695;stop-opacity:1;" /><stop
         offset="1"
         stop-color="#ffcc66"
         id="stop78"
         style="stop-color:#ffb00e;stop-opacity:1;" /></linearGradient><radialGradient
       cx="0"
       cy="0"
       gradientTransform="matrix(0.016,0,0,0.016,13.068027,1.307457)"
       gradientUnits="userSpaceOnUse"
       id="gradient4"
       r="819.20001"
       spreadMethod="pad"><stop
         offset="0"
         stop-color="#f0ddbd"
         id="stop81"
         style="stop-color:#7c7c7c;stop-opacity:1;" /><stop
         offset="0.38039216"
         stop-color="#d8a650"
         id="stop83"
         style="stop-color:#323232;stop-opacity:1;" /><stop
         offset="0.81960785"
         stop-color="#996600"
         id="stop85"
         style="stop-color:#515151;stop-opacity:1;" /><stop
         offset="1"
         stop-color="#926821"
         id="stop87"
         style="stop-color:#040301;stop-opacity:1;" /></radialGradient><linearGradient
       gradientTransform="matrix(-0.0075,0.0035,0.0026,0.0056,14.468027,6.057457)"
       gradientUnits="userSpaceOnUse"
       id="gradient5"
       spreadMethod="pad"
       x1="-819.20001"
       x2="819.20001"><stop
         offset="0"
         stop-color="#996600"
         id="stop90"
         style="stop-color:#787878;stop-opacity:1;" /><stop
         offset="0.34117648"
         stop-color="#f0ddbd"
         id="stop92"
         style="stop-color:#3c372f;stop-opacity:1;" /><stop
         offset="0.67843139"
         stop-color="#d8a650"
         id="stop94"
         style="stop-color:#555555;stop-opacity:1;" /><stop
         offset="1"
         stop-color="#996600"
         id="stop96"
         style="stop-color:#3c2800;stop-opacity:1;" /></linearGradient><linearGradient
       inkscape:collect="always"
       xlink:href="#linearGradient24"
       id="linearGradient25"
       x1="133.36749"
       y1="50.002434"
       x2="131.87691"
       y2="73.014473"
       gradientUnits="userSpaceOnUse" /><linearGradient
       inkscape:collect="always"
       xlink:href="#linearGradient26"
       id="linearGradient28"
       x1="85.772217"
       y1="53.722202"
       x2="188.75713"
       y2="25.940952"
       gradientUnits="userSpaceOnUse" /><radialGradient
       inkscape:collect="always"
       xlink:href="#linearGradient32"
       id="radialGradient33"
       cx="123.93391"
       cy="1.3087579"
       fx="123.93391"
       fy="1.3087579"
       r="62.075912"
       gradientTransform="matrix(1,0,0,0.64462492,0,15.25968)"
       gradientUnits="userSpaceOnUse" /><linearGradient
       inkscape:collect="always"
       xlink:href="#linearGradient19"
       id="linearGradient37"
       x1="157.45766"
       y1="135.50427"
       x2="150.4454"
       y2="236.4239"
       gradientUnits="userSpaceOnUse" /><linearGradient
       inkscape:collect="always"
       xlink:href="#linearGradient10"
       id="linearGradient22"
       x1="67.222565"
       y1="243.22144"
       x2="245.41832"
       y2="101.30132"
       gradientUnits="userSpaceOnUse"
       gradientTransform="translate(0.46772165,0.33408691)" /><linearGradient
       inkscape:collect="always"
       xlink:href="#linearGradient64"
       id="linearGradient66"
       x1="65.552198"
       y1="159.36536"
       x2="246.30946"
       y2="159.36536"
       gradientUnits="userSpaceOnUse" /><radialGradient
       inkscape:collect="always"
       xlink:href="#linearGradient82"
       id="radialGradient84"
       cx="202.38141"
       cy="122.49223"
       fx="202.38141"
       fy="122.49223"
       r="47.607035"
       gradientTransform="matrix(0.68595559,-0.30877419,0.24013893,0.53347931,30.814289,118.56616)"
       gradientUnits="userSpaceOnUse" /><radialGradient
       inkscape:collect="always"
       xlink:href="#linearGradient88"
       id="radialGradient91"
       cx="197.73967"
       cy="127.4884"
       fx="197.73967"
       fy="127.4884"
       r="47.607035"
       gradientTransform="matrix(0.86540351,-0.6000547,0.69009873,0.99526574,-60.050092,120.54277)"
       gradientUnits="userSpaceOnUse" /><linearGradient
       inkscape:collect="always"
       xlink:href="#linearGradient95"
       id="linearGradient98"
       x1="105.28071"
       y1="168.78072"
       x2="117.36238"
       y2="180.80785"
       gradientUnits="userSpaceOnUse" /><linearGradient
       inkscape:collect="always"
       xlink:href="#linearGradient100"
       id="linearGradient104"
       x1="221.65193"
       y1="147.68201"
       x2="186.77852"
       y2="77.000458"
       gradientUnits="userSpaceOnUse" /><radialGradient
       inkscape:collect="always"
       xlink:href="#linearGradient111"
       id="radialGradient104"
       gradientUnits="userSpaceOnUse"
       gradientTransform="matrix(1.1196969,0.63830158,-0.61195408,1.0734785,35.468801,-127.52339)"
       cx="193.86534"
       cy="108.70963"
       fx="193.86534"
       fy="108.70963"
       r="47.607035" /></defs><sodipodi:namedview
     id="base"
     pagecolor="#ffffff"
     bordercolor="#000000"
     borderopacity="0.3"
     inkscape:pageopacity="0.0"
     inkscape:pageshadow="2"
     inkscape:zoom="0.7"
     inkscape:cx="670"
     inkscape:cy="638.57143"
     inkscape:document-units="mm"
     inkscape:showpageshadow="2"
     inkscape:pagecheckerboard="0"
     inkscape:deskcolor="#d1d1d1"
     inkscape:current-layer="svg1" /><metadata
     id="metadata1"><rdf:RDF><cc:Work
         rdf:about=""><dc:format>image/svg+xml</dc:format><dc:type
           rdf:resource="http://purl.org/dc/dcmitype/StillImage" /><cc:license
           rdf:resource="http://creativecommons.org/publicdomain/zero/1.0/" /></cc:Work><cc:License
         rdf:about="http://creativecommons.org/publicdomain/zero/1.0/"><cc:permits
           rdf:resource="http://creativecommons.org/ns#Reproduction" /><cc:permits
           rdf:resource="http://creativecommons.org/ns#Distribution" /><cc:permits
           rdf:resource="http://creativecommons.org/ns#DerivativeWorks" /></cc:License></rdf:RDF></metadata><g
     id="g6"
     style="display:inline"
     transform="matrix(-0.75940844,0,0,0.75940844,189.37424,0.81517756)"><path
       id="rect15"
       style="opacity:1;fill:url(#radialGradient18);stroke:#006600;stroke-width:6.743;stroke-linecap:round;stroke-linejoin:round;stroke-dasharray:none;stroke-opacity:1"
       d="m 68.035715,176.89287 c 24.415925,-24.16608 74.079995,-38.45558 111.167675,-28.9339 25.07705,6.43814 56.11533,29.76703 56.44633,53.35342 0.18576,13.23745 2.38777,22.55147 -6.38306,26.77229 -16.39512,7.8899 -63.86285,18.57331 -86.58065,21.37961 -10.03502,1.23962 -64.288158,6.44086 -87.612192,-2.68775 -9.359006,-3.66295 -9.716675,-22.25867 -9.716675,-22.25867 0,0 -1.523326,-23.67076 22.678572,-47.625 z"
       sodipodi:nodetypes="sasssscs"
       inkscape:label="body" /><path
       id="rect19"
       style="display:inline;opacity:1;fill:url(#linearGradient37);fill-opacity:1;stroke:#006600;stroke-width:6.74301;stroke-linecap:round;stroke-linejoin:round;stroke-opacity:1"
       d="m 94.683029,159.88393 40.254451,-10.96131 42.0725,2.9013 c 2.45814,29.9233 -7.85898,64.04643 -19.39392,91.97072 -17.39582,-28.65465 -41.5663,-62.22035 -62.933031,-83.91071 z"
       sodipodi:nodetypes="ccccc"
       inkscape:label="bodyfront" /><g
       id="g21"
       inkscape:label="girl"
       style="display:none"><path
         id="rect7"
         style="display:inline;fill:url(#linearGradient8);stroke:none;stroke-width:5.64301;stroke-linecap:round;stroke-linejoin:round"
         d="M 131.22933,52.384827 C 158.88419,39.201145 178.80958,36.90078 190.83044,60.670183 173.54586,54.244208 159.65015,56.049025 143.791,63.877418 112.8922,76.304599 92.140309,67.714808 74.835465,62.80834 87.268472,63.311928 101.91373,62.432862 131.22933,52.384827 Z"
         sodipodi:nodetypes="ccccc"
         inkscape:label="hearshadow" /><path
         id="rect2"
         style="display:inline;fill:url(#linearGradient13);stroke:url(#linearGradient11);stroke-width:0.7798;stroke-linecap:round;stroke-linejoin:round;stroke-dasharray:none;stroke-opacity:1"
         d="M 8.5908475,21.402249 C 7.7349705,21.279156 4.2336921,20.522297 2.7091552,18.899991 -0.28939898,15.709137 -1.0034179,11.408589 2.3675184,5.7238921 3.9607044,3.0371671 7.0370901,0.98744818 10.114363,0.45160598 c 3.116036,-0.54259213 6.781516,0.19498695 9.00259,2.44685782 2.560858,2.5963676 1.883618,4.7644476 1.883618,4.7644476 C 17.822475,3.5022202 12.873579,8.3716828 9.5186618,8.1171803 8.0198762,8.356986 5.6174232,15.939682 7.8891068,18.189017 c 0.5637801,0.558233 1.8092739,1.488522 2.4816652,1.643861 1.482149,0.342412 -1.1684894,1.657308 -1.7799245,1.569371 z"
         transform="matrix(7.2364671,0,0,7.2364671,35.920532,1.7432714)"
         sodipodi:nodetypes="sssssccsss"
         inkscape:label="peruk-girl" /><path
         id="rect1"
         style="fill:url(#linearGradient3);stroke-width:0.517243;stroke-linecap:square"
         d="m 10.418545,4.3294115 c 2.135039,-1.0688251 6.179087,-3.0632002 8.017633,0.3133929 0,0 -2.128379,-0.7795035 -4.674777,0.1566965 C 10.968323,5.8263953 10.340995,7.6085972 4.908054,5.948608 6.8212672,5.606573 8.6443304,5.1579424 10.418545,4.3294115 Z"
         sodipodi:nodetypes="ccscc"
         transform="matrix(7.2364671,0,0,7.2364671,35.920532,1.7432714)"
         inkscape:label="hairswing" /></g><g
       id="g26"
       inkscape:label="male"
       transform="matrix(-1,0,0,1,258.93224,0)"><path
         id="path6"
         style="display:inline;fill:url(#radialGradient15);fill-opacity:1;stroke:#996600;stroke-width:5.42736;stroke-linecap:round;stroke-linejoin:round;stroke-opacity:1"
         inkscape:label="face"
         d="m 193.61096,89.000755 c 0,43.604175 -26.35354,81.357765 -61.84709,78.952335 -34.079034,-2.30956 -62.792029,-35.72614 -62.792028,-79.330311 0,-43.604169 22.810567,-77.420354 62.792028,-78.574355 42.11956,-1.2157139 61.84709,35.348161 61.84709,78.952331 z"
         sodipodi:nodetypes="sssss"
         transform="matrix(-1,0,0,1,258.93224,0)" /><path
         id="rect21"
         style="opacity:1;fill:url(#linearGradient25);stroke-width:6.74301;stroke-linecap:round;stroke-linejoin:round"
         d="m 134.97111,49.712133 c 40.71582,-15.292894 45.35305,9.409177 55.63236,25.93627 -17.7722,-9.205361 -30.62198,-19.519944 -51.12119,-9.49526 -24.80734,12.131474 -43.683681,1.847831 -58.232345,-17.777358 11.675621,4.495883 15.228009,14.271868 53.721175,1.336348 z"
         sodipodi:nodetypes="ccscc" /><path
         id="path21"
         style="opacity:1;fill:url(#radialGradient33);stroke:#996600;stroke-width:6.74301;stroke-linecap:round;stroke-linejoin:round;stroke-opacity:1"
         d="m 190.76789,77.72008 c -2.60645,10.379385 5.14799,-24.482107 -31.23648,-24.768287 -16.99008,-0.133635 -34.43434,10.694481 -49.99817,10.695838 -15.563835,0.0014 -30.877727,-13.750575 -35.421309,-17.765049 0,-10.701644 24.719197,-44.194526 63.535799,-39.0577111 44.3359,5.8672131 57.08891,55.0908871 53.12016,70.8952091 z"
         sodipodi:nodetypes="ssscss" /><path
         id="rect26"
         style="opacity:1;fill:url(#linearGradient28);stroke-width:6.74301;stroke-linecap:round;stroke-linejoin:round"
         d="m 77.078768,44.486945 c 22.03528,8.001565 31.248762,0.158968 54.792952,-6.425596 44.56985,-8.263192 54.93225,7.441561 60.2872,33.77582 C 176.33383,35.337112 142.98196,46.40249 114.6874,60.308895 102.17571,66.458228 82.506315,51.540177 77.078768,44.486945 Z"
         sodipodi:nodetypes="cccsc" /></g></g><g
     id="g3"
     inkscape:label="key"
     style="display:inline"
     transform="matrix(1.0285983,0,0,1.0285983,-8.9191285,0.94613199)"><g
       id="g4"
       inkscape:label="shadow"
       style="display:inline"><path
         id="rect3"
         style="fill:#000000;fill-opacity:0.147929;stroke:none;stroke-width:1.99744;stroke-linecap:round;stroke-linejoin:round;stroke-dasharray:none;stroke-opacity:1"
         inkscape:label="shadow"
         d="m 218.25748,85.372567 c -25.4305,-1.871206 -59.8563,57.875023 -59.8563,57.875023 l -89.802266,93.5085 4.944401,5.86218 c 1.357748,1.56424 2.325396,2.2893 4.940783,2.39985 l 21.332032,-0.0196 c 2.97698,0.19439 5.05339,-1.4463 5.13199,-4.06538 l 0.0744,-15.15463 c 0.22925,-3.6002 3.1097,-4.5163 5.24619,-4.562 l 13.55938,0.0279 c 4.22796,-0.0362 4.86331,-1.60666 5.06532,-4.39457 l 0.37001,-15.26625 c -0.17365,-3.08807 1.7152,-4.13035 4.19819,-4.07365 l 14.30662,-0.0439 c 3.07927,0.31391 5.00008,-1.15561 4.99608,-4.07107 l -0.0155,-10.70529 c -0.11921,-5.06002 0.20612,-6.80955 4.54907,-6.82645 l 19.23449,0.49351 4.9723,-4.08606 c 0,0 37.83163,12.75674 56.13353,-11.15126 14.46854,-18.90044 14.32644,-47.3552 -9.15965,-70.818412 -3.13921,-3.136144 -6.58815,-4.661066 -10.22108,-4.928381 z m -16.47054,23.875843 c 6.62048,2e-5 11.98742,5.11385 11.98739,11.42204 3e-5,6.30819 -5.36691,11.42202 -11.98739,11.42204 -6.62048,-3e-5 -11.98741,-5.11385 -11.98738,-11.42204 -3e-5,-6.30819 5.3669,-11.42201 11.98738,-11.42204 z"
         sodipodi:nodetypes="sccccccccccccccccccsssccccc" /><path
         id="path4"
         style="fill:#000000;fill-opacity:0.147929;stroke:none;stroke-width:1.99744;stroke-linecap:round;stroke-linejoin:round;stroke-dasharray:none;stroke-opacity:1"
         inkscape:label="shadow"
         d="m 217.59602,84.333354 c -25.4305,-1.871205 -59.85629,57.875016 -59.85629,57.875016 l -89.329952,93.50851 4.944401,5.86166 c 1.357749,1.56424 2.325913,2.2893 4.9413,2.39985 l 20.859192,-0.0196 c 2.976979,0.19439 5.053389,-1.44578 5.131989,-4.06487 l 0.0744,-15.15514 c 0.22925,-3.6002 3.10971,-4.51578 5.24619,-4.56148 l 13.55938,0.0279 c 4.22796,-0.0362 4.86332,-1.60717 5.06533,-4.39508 l 0.37,-15.26625 c -0.17365,-3.08807 1.71521,-4.12983 4.19819,-4.07314 l 14.30662,-0.0439 c 3.07927,0.31391 5.00008,-1.15561 4.99608,-4.07107 l -0.0155,-10.70529 c -0.11921,-5.06002 0.20612,-6.80956 4.54907,-6.82646 l 19.23449,0.49351 4.97231,-4.08605 c 0,0 37.83162,12.75622 56.13352,-11.15178 14.46855,-18.90044 14.32644,-47.35468 -9.15965,-70.817895 -3.1392,-3.136144 -6.58815,-4.661066 -10.22108,-4.928381 z m -16.65989,23.970116 c 6.62048,3e-5 11.98741,5.11385 11.98738,11.42204 3e-5,6.30819 -5.3669,11.42201 -11.98738,11.42204 -6.62048,-3e-5 -11.98742,-5.11385 -11.98739,-11.42204 -3e-5,-6.3082 5.36691,-11.42202 11.98739,-11.42204 z"
         sodipodi:nodetypes="sccccccccccccccccccsssccccc" /><path
         id="path5"
         style="fill:#000000;fill-opacity:0.147929;stroke:none;stroke-width:1.99744;stroke-linecap:round;stroke-linejoin:round;stroke-dasharray:none;stroke-opacity:1"
         inkscape:label="shadow"
         d="m 217.21775,83.766463 c -25.4305,-1.871203 -59.85578,57.875017 -59.85578,57.875017 l -89.04676,93.50799 4.944401,5.86218 c 1.357749,1.56424 2.325913,2.2893 4.9413,2.39985 l 20.576006,-0.0196 c 2.976973,0.19439 5.053383,-1.44578 5.131983,-4.06487 l 0.0744,-15.15514 c 0.22925,-3.6002 3.10918,-4.51578 5.24567,-4.56148 l 13.55938,0.0279 c 4.22796,-0.0362 4.86383,-1.60717 5.06584,-4.39508 l 0.37,-15.26625 c -0.17365,-3.08807 1.71521,-4.12984 4.1982,-4.07314 l 14.30662,-0.0439 c 3.07927,0.31391 5.00008,-1.15561 4.99608,-4.07107 l -0.016,-10.70529 c -0.11921,-5.06002 0.20612,-6.80956 4.54907,-6.82646 l 19.235,0.49351 4.97179,-4.08605 c 0,0 37.83163,12.75622 56.13353,-11.15178 14.46854,-18.90044 14.32695,-47.35519 -9.15913,-70.818412 -3.13921,-3.136144 -6.58867,-4.66055 -10.2216,-4.927865 z m -17.32076,23.970327 c 6.62048,3e-5 11.98742,5.11386 11.98738,11.42205 3e-5,6.30819 -5.3669,11.42201 -11.98738,11.42204 -6.62048,-3e-5 -11.98741,-5.11385 -11.98738,-11.42204 -3e-5,-6.30819 5.3669,-11.42202 11.98738,-11.42205 z"
         sodipodi:nodetypes="sccccccccccccccccccsssccccc" /><path
         id="path7"
         style="fill:#000000;fill-opacity:0.147929;stroke:none;stroke-width:1.99744;stroke-linecap:round;stroke-linejoin:round;stroke-dasharray:none;stroke-opacity:1"
         inkscape:label="shadow"
         d="M 216.74543,83.293624 C 191.31492,81.42242 156.88965,141.16916 156.88965,141.16916 l -88.101601,93.50799 4.943885,5.86217 c 1.357748,1.56425 2.325913,2.28931 4.9413,2.39986 l 19.63136,-0.0196 c 2.976966,0.19439 5.052866,-1.4463 5.131466,-4.06539 l 0.0749,-15.15463 c 0.22925,-3.60019 3.10919,-4.51629 5.24568,-4.56199 l 13.55938,0.0284 c 4.22795,-0.0362 4.86383,-1.60717 5.06584,-4.39508 l 0.37,-15.26625 c -0.17365,-3.08807 1.71469,-4.13035 4.19768,-4.07365 l 14.30662,-0.0434 c 3.07927,0.31391 5.00059,-1.15562 4.99659,-4.07107 l -0.016,-10.70581 c -0.11921,-5.06002 0.20612,-6.80956 4.54908,-6.82646 l 19.23448,0.49403 4.97231,-4.08605 c 0,0 37.83162,12.75622 56.13353,-11.15178 14.46854,-18.90044 14.32695,-47.35519 -9.15914,-70.818415 -3.1392,-3.136144 -6.58866,-4.661066 -10.22159,-4.928381 z m -16.56496,23.498086 c 6.62048,3e-5 11.98741,5.11385 11.98738,11.42204 3e-5,6.30819 -5.3669,11.42201 -11.98738,11.42204 -6.62047,-3e-5 -11.98741,-5.11385 -11.98738,-11.42204 -3e-5,-6.30819 5.36691,-11.42201 11.98738,-11.42204 z"
         sodipodi:nodetypes="sccccccccccccccccccsssccccc" /><path
         id="path8"
         style="fill:#000000;fill-opacity:0.147929;stroke:none;stroke-width:1.99744;stroke-linecap:round;stroke-linejoin:round;stroke-dasharray:none;stroke-opacity:1"
         inkscape:label="shadow"
         d="m 216.36715,82.679708 c -25.4305,-1.871204 -59.85577,57.875022 -59.85577,57.875022 l -87.723331,93.5085 4.943885,5.86166 c 1.357748,1.56425 2.325913,2.2893 4.9413,2.39985 l 19.253088,-0.0196 c 2.976968,0.19439 5.053388,-1.44578 5.131988,-4.06487 l 0.0744,-15.15515 c 0.22925,-3.6002 3.10919,-4.51578 5.24568,-4.56148 l 13.55989,0.0279 c 4.22796,-0.0362 4.86332,-1.60718 5.06533,-4.39508 l 0.37,-15.26625 c -0.17365,-3.08807 1.71521,-4.12984 4.19819,-4.07314 l 14.30662,-0.0439 c 3.07927,0.31391 5.00008,-1.15561 4.99608,-4.07107 l -0.0155,-10.70528 c -0.11921,-5.06003 0.20612,-6.80956 4.54908,-6.82646 l 19.23448,0.49351 4.97231,-4.08606 c 0,0 37.83162,12.75622 56.13352,-11.15177 14.46855,-18.90044 14.32644,-47.35468 -9.15965,-70.817901 -3.1392,-3.136144 -6.58867,-4.661066 -10.2216,-4.928381 z m -17.41524,22.883432 c 6.62047,3e-5 11.98741,5.11385 11.98738,11.42204 3e-5,6.30819 -5.36691,11.42202 -11.98738,11.42204 -6.62048,-2e-5 -11.98742,-5.11384 -11.98739,-11.42204 -3e-5,-6.30819 5.36691,-11.42201 11.98739,-11.42204 z"
         sodipodi:nodetypes="sccccccccccccccccccsssccccc" /></g><path
       id="path3"
       style="display:inline;fill:url(#linearGradient22);stroke:url(#linearGradient66);stroke-width:2.04;stroke-linecap:round;stroke-linejoin:round;stroke-dasharray:none"
       inkscape:label="bottomkey"
       d="M 216.08914,77.864498 C 190.1169,75.953424 154.95798,136.97252 154.95798,136.97252 l -88.385816,95.50011 5.049821,5.98723 c 1.386663,1.59757 2.375105,2.33811 5.046203,2.45102 l 18.456755,-0.0202 c 3.040384,0.19853 5.160827,-1.47679 5.241027,-4.15168 l 0.0765,-15.47761 c 0.23412,-3.67688 3.17529,-4.61245 5.35729,-4.65915 l 13.84877,0.0289 c 4.31804,-0.037 4.96702,-1.64131 5.17333,-4.48861 l 0.37775,-15.59182 c -0.17735,-3.15384 1.75171,-4.21785 4.2876,-4.15995 l 14.61151,-0.045 c 3.14485,0.32061 5.10653,-1.17981 5.10253,-4.15737 l -0.016,-10.9337 c -0.12175,-5.1678 0.21023,-6.95488 4.64571,-6.97218 l 19.64428,0.50436 5.07824,-4.17287 c 0,0 32.54267,14.7287 55.62843,-12.8069 15.61828,-18.62876 16.03214,-46.77939 -7.95426,-70.742395 -3.20608,-3.202952 -6.42816,-4.927317 -10.13847,-5.200327 z m -16.75918,27.509872 c 6.62047,1e-5 10.66449,4.3579 10.66446,10.66609 3e-5,6.30819 -5.3669,11.42201 -11.98738,11.42204 -6.62048,-2e-5 -9.47489,-2.54276 -10.2865,-9.72115 -0.7087,-6.26825 4.98894,-12.36698 11.60942,-12.36698 z"
       sodipodi:nodetypes="cccccccccccccccccccssccsccss" /><g
       id="rect64"
       inkscape:label="top"
       transform="translate(1.5119048,1.1339286)"><path
         style="color:#000000;fill:#f9c417;stroke-linecap:round;stroke-linejoin:round;-inkscape-stroke:none"
         d="m 190.57235,69.051599 c -11.03175,-0.06902 -30.07538,9.544161 -33.99586,14.669906 -10.4257,13.630864 -14.35876,28.684745 -9.92188,46.680355 L 67.765658,209.0074 c -1.181837,1.13805 -1.962622,2.57688 -1.725373,4.77924 l 0.003,16.1452 c 0.459966,3.10098 3.98673,4.1125 6.88516,4.18489 l 16.827215,0.13453 c 4.055443,-0.19759 5.053234,-2.10145 5.223635,-4.2244 l 0.36267,-15.80051 c -0.0988,-1.65636 1.561937,-3.99204 3.834132,-4.11263 l 14.523593,-0.11734 c 4.73173,0.23795 6.12976,-2.3729 5.97687,-6.30909 l -0.0563,-13.9379 c -0.0892,-3.71253 3.25713,-4.08523 5.21987,-4.02017 l 12.8043,0.22141 c 4.76347,0.49268 6.23157,-1.67629 6.38243,-4.90918 l -0.0989,-13.32817 c 0.23005,-2.72866 1.58553,-4.70702 5.95291,-4.67745 0,0 13.82279,1.07722 17.05618,0.61465 2.86908,-0.41046 6.17593,-4.33359 6.17593,-4.33359 22.07604,9.8231 38.74433,2.70096 53.29494,-11.05566 22.51306,-28.55964 9.1129,-56.767422 -5.10305,-69.075366 -9.21292,-5.862172 -19.70074,-10.065243 -30.73249,-10.134265 z m 4.97799,31.031181 c 6.82916,1.5e-4 12.36518,5.2752 12.36513,11.78223 -2.5e-4,6.50682 -5.53619,11.78156 -12.36513,11.78171 -6.82915,1.3e-4 -12.36541,-5.27469 -12.36566,-11.78171 -5e-5,-6.50722 5.5363,-11.78236 12.36566,-11.78223 z"
         id="path80"
         inkscape:label="bottom"
         sodipodi:nodetypes="sscccccccccccccccccscccssscscs" /><path
         id="rect95"
         style="display:inline;fill:url(#linearGradient98);stroke-width:2.04;stroke-linecap:round;stroke-linejoin:round"
         d="m 147.82354,130.7626 10.1638,12.69001 -91.727984,87.935 0.259702,-21.50991 z"
         sodipodi:nodetypes="ccccc"
         inkscape:label="keybackwhite" /><path
         id="rect112"
         style="display:inline;fill:#eab00b;fill-opacity:1;stroke-width:2.04;stroke-linecap:round;stroke-linejoin:round"
         d="m 74.835469,229.58451 1.202717,-9.88897 75.770914,-79.91359 8.55262,11.75986 c 2.59722,9.22056 -5.32968,10.42275 -17.63979,8.28536 -2.96579,1.31813 -3.53693,18.3345 -4.91107,20.24567 -3.61072,5.02182 -16.89433,0.0116 -21.21452,5.27857 -2.07783,2.53319 0.16704,7.95127 0.16704,7.95127 0,0 -1.04373,8.39363 -3.842,11.1585 -4.63935,4.58397 -13.987107,0.59475 -18.575235,6.1472 -1.897727,7.23923 -1.028244,14.80896 -6.414469,15.76889 -3.495275,4.98465 -8.192501,4.56053 -13.096207,3.20724 z"
         sodipodi:nodetypes="cccccsscaccc" /><path
         id="rect104"
         style="display:inline;fill:#be821b;stroke-width:2.04;stroke-linecap:round;stroke-linejoin:round"
         d="m 150.8125,138.33928 2.83482,5.66965 -81.642859,81.26488 0.377977,-7.74851 z"
         sodipodi:nodetypes="ccccc"
         inkscape:label="brstripe" /><path
         id="ellipse70"
         style="display:inline;fill:url(#radialGradient104);stroke:none;stroke-width:1.87581;stroke-linecap:round;stroke-linejoin:round;stroke-dasharray:none;stroke-opacity:1"
         d="m 191.25603,69.547472 c -24.85748,-10e-7 -47.55979,19.050552 -47.55979,42.900288 0,11.92488 6.69139,29.47715 15.8285,38.28406 9.13712,8.80692 22.13737,11.6088 34.56611,11.6088 24.85748,0 44.81946,-22.92481 44.81946,-46.77455 0,-23.849743 -22.7968,-46.018599 -47.65428,-46.018598 z m 4.79511,30.910258 c 6.27953,1.4e-4 11.37001,4.85065 11.36996,10.83396 -1.2e-4,2.99157 -1.94094,6.50171 -3.99849,8.46218 -2.05754,1.96046 -4.89998,3.17305 -8.03964,3.17312 -3.13975,7e-5 -5.9823,-1.21247 -8.03994,-3.17295 -2.05764,-1.96048 -4.13218,-5.33705 -4.13229,-8.32871 -5e-5,-5.98349 6.5607,-10.96772 12.8404,-10.9676 z"
         sodipodi:nodetypes="ssssssscssscs"
         inkscape:label="orangering" /><path
         id="path104"
         style="display:inline;fill:url(#radialGradient84);stroke:none;stroke-width:1.87581;stroke-linecap:round;stroke-linejoin:round;stroke-dasharray:none;stroke-opacity:1"
         d="m 191.25603,69.547472 c -24.85748,-10e-7 -47.55979,19.050552 -47.55979,42.900288 0,11.92488 6.69139,29.47715 15.8285,38.28406 9.13712,8.80692 22.13737,11.6088 34.56611,11.6088 24.85748,0 44.81946,-22.92481 44.81946,-46.77455 0,-23.849743 -22.7968,-46.018599 -47.65428,-46.018598 z m 4.79511,30.910258 c 6.27953,1.4e-4 11.37001,4.85065 11.36996,10.83396 -1.2e-4,2.99157 -1.94094,6.50171 -3.99849,8.46218 -2.05754,1.96046 -4.89998,3.17305 -8.03964,3.17312 -3.13975,7e-5 -5.9823,-1.21247 -8.03994,-3.17295 -2.05764,-1.96048 -4.13218,-5.33705 -4.13229,-8.32871 -5e-5,-5.98349 6.5607,-10.96772 12.8404,-10.9676 z"
         sodipodi:nodetypes="ssssssscssscs"
         inkscape:label="innerwhite" /><path
         id="path82"
         style="display:inline;fill:url(#radialGradient91);stroke:none;stroke-width:1.87581;stroke-linecap:round;stroke-linejoin:round;stroke-dasharray:none;stroke-opacity:1"
         d="m 191.25603,69.547472 c -24.85748,-10e-7 -47.55979,19.050552 -47.55979,42.900288 0,11.92488 4.73748,34.01751 11.98946,23.60323 17.68974,-25.40358 28.91637,4.6408 39.47423,15.59885 17.24698,17.90073 43.75038,-12.23403 43.75038,-36.08377 0,-23.849743 -22.7968,-46.018599 -47.65428,-46.018598 z m 4.79511,30.910258 c 6.27953,1.4e-4 11.37001,4.85065 11.36996,10.83396 -1.2e-4,2.99157 -1.94094,6.50171 -3.99849,8.46218 -2.05754,1.96046 -4.89998,3.17305 -8.03964,3.17312 -3.13975,7e-5 -5.9823,-1.21247 -8.03994,-3.17295 -2.05764,-1.96048 -4.13218,-5.33705 -4.13229,-8.32871 -5e-5,-5.98349 6.5607,-10.96772 12.8404,-10.9676 z"
         sodipodi:nodetypes="ssssssscssscs"
         inkscape:label="outherwhite" /><path
         style="color:#000000;fill:url(#linearGradient104);stroke-linecap:round;stroke-linejoin:round;-inkscape-stroke:none"
         d="m 190.57227,68.03125 c -11.28504,-0.06916 -21.07069,2.802798 -32.61449,13.622395 -13.13982,12.315473 -18.28091,32.456765 -12.45192,48.453775 l -78.447266,78.16602 c -1.329568,1.28031 -2.301043,3.13671 -2.033203,5.62304 l -0.0059,-0.10937 0.0039,16.14453 c 1.9e-4,0.0504 0.0041,0.10062 0.01172,0.15039 0.283136,1.90883 1.579967,3.24156 3.080078,3.99024 1.500112,0.74868 3.229674,1.02555 4.78711,1.06445 0.0059,5e-5 0.01172,5e-5 0.01758,0 l 16.828125,0.13476 c 0.0189,-1.4e-4 0.03778,-8.1e-4 0.05664,-0.002 2.182708,-0.10634 3.731317,-0.69168 4.736329,-1.68164 1.005011,-0.98996 1.359119,-2.28301 1.455078,-3.47852 0.0019,-0.0195 0.0032,-0.039 0.0039,-0.0585 L 96.361328,214.25 c 4.87e-4,-0.028 -1.8e-4,-0.056 -0.002,-0.084 -0.02748,-0.46065 0.246055,-1.27523 0.787109,-1.91016 0.541054,-0.63494 1.282783,-1.08053 2.083985,-1.12305 l 14.417968,-0.11719 c 2.55779,0.12863 4.49583,-0.55309 5.6582,-1.95898 1.16237,-1.40589 1.47014,-3.31088 1.38867,-5.4082 l 0.002,0.0352 -0.0566,-13.9375 c 8e-5,-0.007 8e-5,-0.0143 0,-0.0215 -0.0372,-1.54925 0.4845,-2.08356 1.28515,-2.49414 0.80065,-0.41059 1.98313,-0.51218 2.88086,-0.48242 0.005,7.1e-4 0.0104,10e-4 0.0156,0.002 l 12.80468,0.2207 -0.0879,-0.006 c 2.54476,0.26321 4.44789,-0.17743 5.70899,-1.31445 1.26109,-1.13702 1.71476,-2.80082 1.79687,-4.56055 0.001,-0.0188 0.002,-0.0377 0.002,-0.0566 l -0.0996,-13.24609 c 0.10391,-1.21082 0.4261,-2.08711 1.09179,-2.69336 0.66761,-0.608 1.80414,-1.05011 3.83008,-1.03711 h 0.004 c 0.0672,0.005 3.43179,0.26835 7.26757,0.47852 3.8739,0.21225 8.01312,0.40086 9.94141,0.125 1.83115,-0.26197 3.43989,-1.47255 4.68945,-2.56055 0.94494,-0.82276 1.30406,-1.26945 1.60352,-1.60742 10.92684,4.71203 20.67976,5.40949 29.46484,3.12695 8.97042,-2.33069 16.9168,-7.66568 24.26953,-14.61719 0.0358,-0.034 0.0691,-0.0705 0.0996,-0.10937 11.4185,-14.48529 13.31862,-27.23425 11.51637,-41.45313 C 237.32276,96.372641 231.03921,85.043148 222.06727,78.414022 211.35511,70.499091 202.2602,68.03125 190.57812,68.03125 Z m -0.006,2.041016 c 0.002,6e-6 0.004,6e-6 0.006,0 10.74605,0.0687 21.0273,4.164414 30.11132,9.93164 6.91992,6.009655 13.68579,15.946924 15.94336,27.816404 2.25946,11.87941 0.0765,25.69462 -10.97656,39.74805 -7.18175,6.77888 -14.82574,11.8681 -23.32422,14.07617 -8.52037,2.21376 -17.93159,1.57579 -28.79883,-3.25976 -0.41477,-0.18377 -0.90106,-0.0716 -1.19336,0.27539 0,0 -0.78121,0.92421 -1.90234,1.90039 -1.12113,0.97617 -2.60074,1.93159 -3.63867,2.08007 -1.3051,0.18671 -5.69517,0.0681 -9.54102,-0.14257 -3.84584,-0.21072 -7.29101,-0.47852 -7.29101,-0.47852 -0.024,-0.002 -0.0482,-0.004 -0.0723,-0.004 -2.3384,-0.0158 -4.0637,0.51485 -5.22265,1.57032 -1.15896,1.05547 -1.62653,2.53014 -1.75391,4.04101 -0.003,0.0312 -0.004,0.0624 -0.004,0.0937 l 0.0996,13.27539 c -0.069,1.47198 -0.42381,2.50648 -1.125,3.13868 -0.70154,0.63251 -1.91411,1.03025 -4.13281,0.80078 -0.0292,-0.003 -0.0586,-0.004 -0.0879,-0.004 l -12.78906,-0.22266 h -0.0156 c -1.06392,-0.0344 -2.52612,0.0223 -3.86133,0.70704 -1.34089,0.68763 -2.44846,2.19414 -2.39648,4.35742 l 0.0566,13.91797 c 4.6e-4,0.0117 0.001,0.0235 0.002,0.0352 0.0714,1.83887 -0.24247,3.20716 -0.92382,4.03125 -0.68136,0.8241 -1.81044,1.33003 -3.98438,1.22071 -0.0195,-0.001 -0.0391,-0.002 -0.0586,-0.002 l -14.523441,0.11719 c -0.01564,3.1e-4 -0.03126,9.7e-4 -0.04687,0.002 -1.470991,0.0781 -2.694682,0.8588 -3.527344,1.83594 -0.832662,0.97714 -1.340854,2.15976 -1.269531,3.35547 l -0.002,-0.084 -0.361329,15.75 c -0.07524,0.92289 -0.303089,1.64139 -0.851562,2.18165 -0.54864,0.54042 -1.529197,1.00244 -3.390625,1.0957 l -16.765625,-0.13281 c -1.340991,-0.0335 -2.822914,-0.29919 -3.925781,-0.84961 -1.094155,-0.54608 -1.781296,-1.26797 -1.964844,-2.44336 l -0.002,-16.01758 c -6e-6,-0.0365 -0.002,-0.0731 -0.0059,-0.10938 -0.206657,-1.91838 0.383866,-2.93975 1.417969,-3.93554 0.0046,-0.004 0.0091,-0.008 0.01367,-0.0117 L 147.375,131.125 c 0.27907,-0.27857 0.37261,-0.69302 0.24023,-1.06445 -5.6709,-16.05458 -1.08488,-34.901068 11.73708,-46.918623 11.23107,-10.526483 20.43737,-13.137086 31.2141,-13.069661 z m 4.98437,28.990234 c -7.35461,-1.4e-4 -13.38677,5.71697 -13.38672,12.80273 2.7e-4,7.08555 6.03234,12.80093 13.38672,12.80079 7.35416,-1.7e-4 13.38449,-5.71546 13.38477,-12.80079 5e-5,-7.08555 -6.03038,-12.802568 -13.38477,-12.80273 z m 0,2.04102 c 6.30391,1.3e-4 11.3438,4.83322 11.34375,10.76171 -2.3e-4,5.9283 -5.04004,10.76158 -11.34375,10.76172 -6.3039,1.2e-4 -11.34547,-4.83323 -11.3457,-10.76172 -5e-5,-5.92866 5.0416,-10.76183 11.3457,-10.76171 z"
         id="path81"
         sodipodi:nodetypes="ssccccccsccccsccccsccsccccsccccscccsscssscsccsssscccscsccsscccscccsccccscccsccccscccsccscccccccsccscscsscscs"
         inkscape:label="frame" /></g></g></svg>
