<?xml version="1.0" encoding="UTF-8" standalone="no"?>
<!-- Generator: Adobe Illustrator 27.5.0, SVG Export Plug-In . SVG Version: 6.00 Build 0)  -->

<svg
   version="1.1"
   x="0px"
   y="0px"
   viewBox="0 0 256 256"
   xml:space="preserve"
   id="svg12"
   sodipodi:docname="hands-free.svg"
   inkscape:version="1.3.2 (091e20ef0f, 2023-11-25)"
   width="256"
   height="256"
   xmlns:inkscape="http://www.inkscape.org/namespaces/inkscape"
   xmlns:sodipodi="http://sodipodi.sourceforge.net/DTD/sodipodi-0.dtd"
   xmlns:xlink="http://www.w3.org/1999/xlink"
   xmlns="http://www.w3.org/2000/svg"
   xmlns:svg="http://www.w3.org/2000/svg"
   xmlns:rdf="http://www.w3.org/1999/02/22-rdf-syntax-ns#"
   xmlns:cc="http://creativecommons.org/ns#"><defs
   id="defs12"><linearGradient
   id="linearGradient2"
   inkscape:collect="always"><stop
     style="stop-color:#2f2f2f;stop-opacity:1;"
     offset="0"
     id="stop6" /><stop
     style="stop-color:#e5ebee;stop-opacity:1;"
     offset="0.26368564"
     id="stop8" /><stop
     style="stop-color:#2f2f2f;stop-opacity:1;"
     offset="0.4193958"
     id="stop10" /><stop
     style="stop-color:#f4f4f4;stop-opacity:1;"
     offset="0.85943753"
     id="stop9" /><stop
     style="stop-color:#2f2f2f;stop-opacity:1;"
     offset="1"
     id="stop7" /></linearGradient><linearGradient
   id="linearGradient1"
   inkscape:collect="always"><stop
     style="stop-color:#a1a1a1;stop-opacity:1;"
     offset="0"
     id="stop4" /><stop
     style="stop-color:#000000;stop-opacity:1;"
     offset="1"
     id="stop5" /></linearGradient><linearGradient
   id="linearGradient20"
   inkscape:collect="always"><stop
     style="stop-color:#bbd4f5;stop-opacity:1;"
     offset="0"
     id="stop20" /><stop
     style="stop-color:#5a9ce9;stop-opacity:1;"
     offset="1"
     id="stop21" /></linearGradient><linearGradient
   id="linearGradient18"
   inkscape:collect="always"><stop
     style="stop-color:#ffffff;stop-opacity:0.67860425;"
     offset="0"
     id="stop18" /><stop
     style="stop-color:#ffffff;stop-opacity:1;"
     offset="0.066095"
     id="stop1" /><stop
     style="stop-color:#ffffff;stop-opacity:0.97231835;"
     offset="0.11113122"
     id="stop3" /><stop
     style="stop-color:#ffffff;stop-opacity:0.82698959;"
     offset="0.22077753"
     id="stop2" /><stop
     style="stop-color:#ffffff;stop-opacity:0.17301038;"
     offset="1"
     id="stop19" /></linearGradient><linearGradient
   id="linearGradient12"
   inkscape:collect="always"><stop
     style="stop-color:#ffffff;stop-opacity:1;"
     offset="0"
     id="stop12" /><stop
     style="stop-color:#9b9b9b;stop-opacity:1;"
     offset="0.13253701"
     id="stop14" /><stop
     style="stop-color:#ffffff;stop-opacity:1;"
     offset="0.4013125"
     id="stop15" /><stop
     style="stop-color:#959595;stop-opacity:1;"
     offset="0.59068555"
     id="stop16" /><stop
     style="stop-color:#ffffff;stop-opacity:1;"
     offset="0.86239809"
     id="stop17" /><stop
     style="stop-color:#bababa;stop-opacity:1;"
     offset="1"
     id="stop13" /></linearGradient>
	
<linearGradient
   inkscape:collect="always"
   xlink:href="#linearGradient12"
   id="linearGradient13"
   x1="178.66075"
   y1="81.152992"
   x2="424"
   y2="300"
   gradientUnits="userSpaceOnUse" /><linearGradient
   inkscape:collect="always"
   xlink:href="#linearGradient18"
   id="linearGradient19"
   x1="293.14694"
   y1="67.723877"
   x2="287.33072"
   y2="329.51126"
   gradientUnits="userSpaceOnUse" /><radialGradient
   inkscape:collect="always"
   xlink:href="#linearGradient20"
   id="radialGradient21"
   cx="342.60822"
   cy="390.92496"
   fx="342.60822"
   fy="390.92496"
   r="112"
   gradientTransform="matrix(1.7715224,-0.5515401,1.5403353,4.9474891,-825.27993,-1215.6448)"
   gradientUnits="userSpaceOnUse" /><linearGradient
   inkscape:collect="always"
   xlink:href="#linearGradient1"
   id="linearGradient5"
   x1="197.57983"
   y1="211.97527"
   x2="428"
   y2="300"
   gradientUnits="userSpaceOnUse" /><linearGradient
   inkscape:collect="always"
   xlink:href="#linearGradient2"
   id="linearGradient7"
   x1="160.59177"
   y1="514.18823"
   x2="320.42313"
   y2="99.068314"
   gradientUnits="userSpaceOnUse" /></defs><sodipodi:namedview
   id="namedview12"
   pagecolor="#ffffff"
   bordercolor="#000000"
   borderopacity="0.25"
   inkscape:showpageshadow="2"
   inkscape:pageopacity="0.0"
   inkscape:pagecheckerboard="0"
   inkscape:deskcolor="#d1d1d1"
   inkscape:current-layer="svg12" />

<g
   id="g12"
   transform="matrix(0.46042636,0,0,0.46042636,-72.417916,-4.2370933)">
		<path
   style="fill:url(#linearGradient13);fill-opacity:1"
   d="M 388,553.5 H 212 c -19.882,0 -36,-16.118 -36,-36 v -435 c 0,-19.882 16.118,-36 36,-36 h 176 c 19.882,0 36,16.118 36,36 v 435 c 0,19.882 -16.118,36 -36,36 z"
   id="path1" />
		<path
   d="m 212.36,549.54 c -17.645,0 -32,-14.355 -32,-32 v -435 c 0,-17.645 14.355,-32 32,-32 h 176 c 17.645,0 32,14.355 32,32 v 435 c 0,17.645 -14.355,32 -32,32 z"
   id="path2"
   style="fill:#ffffff;fill-opacity:1" />
		<path
   style="fill:url(#radialGradient21);fill-opacity:1"
   d="m 412,82.5 v 435 c 0,13.23 -10.77,24 -24,24 H 212 c -5.67,0 -10.89,-1.98 -15,-5.28 -5.48,-4.4 -9,-11.16 -9,-18.72 v -435 c 0,-13.23 10.77,-24 24,-24 h 39 c 1.49,0 2.72,1.08 2.95,2.5 0.04,0.16 0.05,0.33 0.05,0.5 v 3 c 0,7.18 5.82,13 13,13 h 66 c 7.18,0 13,-5.82 13,-13 v -3 c 0,-1.66 1.34,-3 3,-3 h 39 c 6.12,0 11.7,2.3 15.94,6.08 4.94,4.39 8.06,10.8 8.06,17.92 z"
   id="path3"
   sodipodi:nodetypes="ssssssssscsssssssscs" />
		<circle
   style="fill:#1e1e1e"
   cx="266.37399"
   cy="65.425003"
   r="3.721"
   id="circle3" />
		<path
   style="fill:#1e1e1e"
   d="m 309.967,69.146 h -19.935 c -2.055,0 -3.721,-1.666 -3.721,-3.721 v 0 c 0,-2.055 1.666,-3.721 3.721,-3.721 h 19.935 c 2.055,0 3.721,1.666 3.721,3.721 v 0 c 0,2.055 -1.666,3.721 -3.721,3.721 z"
   id="path4" /><path
   style="fill:url(#linearGradient19);fill-opacity:0.678604"
   d="m 390.71397,64.49436 c 11.15805,1.89114 13.75951,5.845044 15.1619,17.491848 L 405.34212,260.45787 C 329.35938,88.284923 246.185,480.30991 192.99973,260.79047 l 0.42991,-164.966745 c 0.004,-1.512872 -3.13108,-24.906313 13.88078,-32.159387 z"
   id="path6"
   sodipodi:nodetypes="ccccscc" /><path
   id="path17"
   style="fill:url(#linearGradient7);fill-opacity:1"
   d="m 212.35938,50.539062 c -17.64499,0 -32,14.355018 -32,32 V 517.53906 c 0,17.64498 14.35501,32 32,32 h 176 c 17.64498,0 32,-14.35502 32,-32 V 82.539062 c 0,-17.644982 -14.35502,-32 -32,-32 z m 199.7242,29.949552 c 1.13779,109.169946 7.8e-4,417.075826 0.001,436.363116 -8e-5,4.82182 -5.15245,24.46068 -22.59516,24.46758 -63.39496,0.025 -128.41242,-1.93055 -166.00924,0.31583 -20.98095,1.2536 -36.12683,-8.07165 -36.05921,-25.86241 0.17959,-47.24509 -0.75032,-289.34051 -0.50294,-434.286856 0.0178,-10.432611 12.94617,-22.395217 19.03631,-22.313345 6.17609,0.08303 28.27561,-0.808648 42.10851,-0.72502 13.83291,0.08363 5.37988,-1.574296 5.48003,5.459397 0.0225,1.579823 2.33008,3.974294 2.33008,8.247322 0,3.651262 7.63066,5.362123 19.24004,5.271923 5.80468,-0.0451 50.88333,0.0629 56.32332,-0.135207 5.43999,-0.198107 13.22015,-2.31296 13.22015,-6.675445 0,-4.284621 1.79555,-5.317227 1.7847,-6.363869 -0.0205,-1.978223 1.20219,-6.372639 7.70731,-6.372639 6.7845,0 19.15927,0.712616 24.12808,0.481988 23.29095,-1.211223 30.87219,8.798776 33.80702,22.127635 z"
   sodipodi:nodetypes="sssssssssccssssssssssssscc" />
		
		
		
		
		<g
   id="g7">
			<path
   d="m 388,46.5 c 19.882,0 36,16.118 36,36 v 435 c 0,19.882 -16.118,36 -36,36 H 212 c -19.882,0 -36,-16.118 -36,-36 v -435 c 0,-19.882 16.118,-36 36,-36 h 176 m 0,-4 H 212 c -22.056,0 -40,17.944 -40,40 v 435 c 0,22.056 17.944,40 40,40 h 176 c 22.056,0 40,-17.944 40,-40 v -435 c 0,-22.056 -17.944,-40 -40,-40 z"
   id="path7"
   style="fill:url(#linearGradient5);fill-opacity:1" />
		</g>
		<path
   style="fill:none;stroke:#000000;stroke-width:2;stroke-miterlimit:10"
   d="m 212,549.5 c -17.645,0 -32,-14.355 -32,-32 v -435 c 0,-17.645 14.355,-32 32,-32 h 176 c 17.645,0 32,14.355 32,32 v 435 c 0,17.645 -14.355,32 -32,32 z"
   id="path8" />
		<path
   style="fill:none;stroke:#000000;stroke-width:2;stroke-miterlimit:10"
   d="m 412,82.5 v 435 c 0,13.23 -10.77,24 -24,24 H 212 c -13.23,0 -24,-10.77 -24,-24 v -435 c 0,-13.23 10.77,-24 24,-24 h 39 c 1.66,0 3,1.34 3,3 v 3 c 0,7.18 5.82,13 13,13 h 66 c 7.18,0 13,-5.82 13,-13 v -3 c 0,-1.66 1.34,-3 3,-3 h 39 c 13.23,0 24,10.77 24,24 z"
   id="path9" />
		<path
   style="fill:none;stroke:#000000;stroke-width:2;stroke-miterlimit:10"
   d="m 251,58.5 c 1.66,0 3,1.34 3,3 v 3 c 0,7.18 5.82,13 13,13 h 66 c 7.18,0 13,-5.82 13,-13 v -3 c 0,-1.66 1.34,-3 3,-3"
   id="path10" />
		<rect
   x="170"
   y="148.5"
   width="2.4159999"
   height="19"
   id="rect10" />
		<rect
   x="170"
   y="186.5"
   width="2.4159999"
   height="37"
   id="rect11" />
		<rect
   x="427.58301"
   y="197.533"
   width="2.4159999"
   height="58.966999"
   id="rect12" />
		<circle
   style="fill:#d2d2d2;stroke:#f2f2f2;stroke-width:2;stroke-miterlimit:10;fill-opacity:1;stroke-opacity:1"
   cx="266.37399"
   cy="65.425003"
   r="3.721"
   id="circle12" />
		<path
   style="fill:#d2d2d2;stroke:#f2f2f2;stroke-width:2;stroke-miterlimit:10;fill-opacity:1;stroke-opacity:1"
   d="m 309.967,69.146 h -19.935 c -2.055,0 -3.721,-1.666 -3.721,-3.721 v 0 c 0,-2.055 1.666,-3.721 3.721,-3.721 h 19.935 c 2.055,0 3.721,1.666 3.721,3.721 v 0 c 0,2.055 -1.666,3.721 -3.721,3.721 z"
   id="path12" />
	</g>
<metadata
   id="metadata1"><rdf:RDF><cc:Work
       rdf:about=""><cc:license
         rdf:resource="http://creativecommons.org/publicdomain/zero/1.0/" /></cc:Work><cc:License
       rdf:about="http://creativecommons.org/publicdomain/zero/1.0/"><cc:permits
         rdf:resource="http://creativecommons.org/ns#Reproduction" /><cc:permits
         rdf:resource="http://creativecommons.org/ns#Distribution" /><cc:permits
         rdf:resource="http://creativecommons.org/ns#DerivativeWorks" /></cc:License></rdf:RDF></metadata><g
   id="g13"
   transform="translate(28.86133)"><path
     id="path5"
     style="fill:#0a6cff;stroke:#000000;stroke-linecap:round;stroke-linejoin:round;stroke-miterlimit:2.1"
     d="M 143.72943,73.59639 A 17.605412,17.605412 0 0 1 126.12402,91.201801 17.605412,17.605412 0 0 1 108.51861,73.59639 17.605412,17.605412 0 0 1 126.12402,55.990978 17.605412,17.605412 0 0 1 143.72943,73.59639 Z" /><path
     style="color:#000000;fill:#096bff;fill-opacity:1;stroke:#000000;stroke-linecap:round;stroke-linejoin:round;stroke-miterlimit:2.1;stroke-opacity:1;-inkscape-stroke:none"
     d="m 125.33203,30.537109 a 7.9155002,7.9155002 0 0 0 -7.76953,8.060547 7.9155002,7.9155002 0 0 0 8.06055,7.767578 c 9.83182,-0.180907 18.96645,4.927749 23.96093,13.398438 4.99449,8.470688 5.04253,18.937526 0.125,27.453125 -4.91752,8.515601 -14.00678,13.705093 -23.83984,13.613283 a 7.9155002,7.9155002 0 0 0 -7.98828,7.8418 7.9155002,7.9155002 0 0 0 7.8418,7.98828 c 15.51449,0.14485 29.9365,-8.09153 37.69531,-21.527348 7.75881,-13.435815 7.68493,-30.0452 -0.19531,-43.410156 C 155.34241,38.3577 140.84457,30.251676 125.33203,30.537109 Z"
     id="circle5" /><path
     style="color:#000000;fill:#096bff;fill-opacity:1;stroke:#000000;stroke-linecap:round;stroke-linejoin:round;stroke-miterlimit:2.1;stroke-opacity:1;-inkscape-stroke:none"
     d="m 129.28516,5.1484375 a 8.3660002,8.3660002 0 0 0 -8.21094,8.5195315 8.3660002,8.3660002 0 0 0 8.51953,8.210937 c 19.11706,-0.351758 36.84181,9.809207 46.19727,26.484375 9.35545,16.675167 8.79101,37.100376 -1.47266,53.232419 -10.26367,16.13205 -28.52543,25.29753 -47.59375,23.88868 a 8.3660002,8.3660002 0 0 0 -8.95898,7.72656 8.3660002,8.3660002 0 0 0 7.72656,8.96093 c 25.18246,1.8606 49.38871,-10.28906 62.94336,-31.59374 C 201.9902,89.273439 202.73999,62.19969 190.38477,40.177734 178.02954,18.155778 154.53199,4.6838903 129.28516,5.1484375 Z"
     id="path11" /></g></svg>
