<?xml version="1.0" encoding="UTF-8" standalone="no"?>
<!-- Created with Inkscape (http://www.inkscape.org/) -->

<svg
   width="256mm"
   height="256mm"
   viewBox="0 0 256 256"
   version="1.1"
   id="svg1"
   inkscape:version="1.4.2 (ebf0e940d0, 2025-05-08)"
   xml:space="preserve"
   sodipodi:docname="network-wireless-0.svg"
   xmlns:inkscape="http://www.inkscape.org/namespaces/inkscape"
   xmlns:sodipodi="http://sodipodi.sourceforge.net/DTD/sodipodi-0.dtd"
   xmlns:xlink="http://www.w3.org/1999/xlink"
   xmlns="http://www.w3.org/2000/svg"
   xmlns:svg="http://www.w3.org/2000/svg"
   xmlns:rdf="http://www.w3.org/1999/02/22-rdf-syntax-ns#"
   xmlns:cc="http://creativecommons.org/ns#"
   xmlns:dc="http://purl.org/dc/elements/1.1/"><defs
     id="defs1"><linearGradient
       id="linearGradient115"
       inkscape:collect="always"><stop
         style="stop-color:#000000;stop-opacity:0.17690417;"
         offset="0"
         id="stop114" /><stop
         style="stop-color:#000000;stop-opacity:1;"
         offset="1"
         id="stop115" /></linearGradient><linearGradient
       id="linearGradient113"
       inkscape:collect="always"><stop
         style="stop-color:#000000;stop-opacity:0.35135135;"
         offset="0"
         id="stop112" /><stop
         style="stop-color:#000000;stop-opacity:0.89434892;"
         offset="1"
         id="stop113" /></linearGradient><linearGradient
       id="linearGradient111"
       inkscape:collect="always"><stop
         style="stop-color:#000000;stop-opacity:0.17690417;"
         offset="0"
         id="stop110" /><stop
         style="stop-color:#000000;stop-opacity:0.92137593;"
         offset="1"
         id="stop111" /></linearGradient><linearGradient
       id="linearGradient109"
       inkscape:collect="always"><stop
         style="stop-color:#000000;stop-opacity:0.17690417;"
         offset="0"
         id="stop108" /><stop
         style="stop-color:#000000;stop-opacity:0.85503685;"
         offset="1"
         id="stop109" /></linearGradient><linearGradient
       id="linearGradient59"
       inkscape:collect="always"><stop
         style="stop-color:#8181b8;stop-opacity:0.69778872;"
         offset="0"
         id="stop59" /><stop
         style="stop-color:#61618c;stop-opacity:0.66830468;"
         offset="1"
         id="stop60" /></linearGradient><linearGradient
       id="linearGradient57"
       inkscape:collect="always"><stop
         style="stop-color:#000000;stop-opacity:0.17690417;"
         offset="0"
         id="stop57" /><stop
         style="stop-color:#000000;stop-opacity:0.36363637;"
         offset="1"
         id="stop58" /></linearGradient><linearGradient
       id="linearGradient10"
       inkscape:collect="always"><stop
         style="stop-color:#18bd00;stop-opacity:0.63057299;"
         offset="0"
         id="stop10" /><stop
         style="stop-color:#1fff00;stop-opacity:1;"
         offset="1"
         id="stop11" /></linearGradient><linearGradient
       id="linearGradient7"
       inkscape:collect="always"><stop
         style="stop-color:#7272a6;stop-opacity:1"
         offset="0"
         id="stop7" /><stop
         style="stop-color:#4d4d65;stop-opacity:1"
         offset="1"
         id="stop8" /></linearGradient><linearGradient
       inkscape:collect="always"
       xlink:href="#linearGradient7"
       id="linearGradient8"
       x1="123.93777"
       y1="110.12251"
       x2="123.9462"
       y2="148.94342"
       gradientUnits="userSpaceOnUse" /><linearGradient
       inkscape:collect="always"
       xlink:href="#linearGradient10"
       id="linearGradient11"
       x1="123.51553"
       y1="112.17033"
       x2="123.51553"
       y2="148.36156"
       gradientUnits="userSpaceOnUse" /><linearGradient
       inkscape:collect="always"
       xlink:href="#linearGradient57"
       id="linearGradient58"
       x1="126.0844"
       y1="114.479"
       x2="125.7837"
       y2="150.35994"
       gradientUnits="userSpaceOnUse" /><linearGradient
       inkscape:collect="always"
       xlink:href="#linearGradient59"
       id="linearGradient60"
       x1="123.94827"
       y1="109.3131"
       x2="123.0983"
       y2="148.86899"
       gradientUnits="userSpaceOnUse" /><linearGradient
       inkscape:collect="always"
       xlink:href="#linearGradient109"
       id="linearGradient69"
       gradientUnits="userSpaceOnUse"
       x1="125.7837"
       y1="118.08714"
       x2="125.7837"
       y2="150.35994" /><linearGradient
       inkscape:collect="always"
       xlink:href="#linearGradient59"
       id="linearGradient70"
       gradientUnits="userSpaceOnUse"
       x1="123.0983"
       y1="114.99258"
       x2="123.0983"
       y2="148.86899" /><linearGradient
       inkscape:collect="always"
       xlink:href="#linearGradient7"
       id="linearGradient71"
       gradientUnits="userSpaceOnUse"
       x1="123.9462"
       y1="116.40334"
       x2="123.9462"
       y2="148.94342" /><linearGradient
       inkscape:collect="always"
       xlink:href="#linearGradient10"
       id="linearGradient72"
       gradientUnits="userSpaceOnUse"
       x1="123.51553"
       y1="117.91662"
       x2="123.51553"
       y2="148.36156" /><linearGradient
       inkscape:collect="always"
       xlink:href="#linearGradient111"
       id="linearGradient81"
       gradientUnits="userSpaceOnUse"
       x1="125.7837"
       y1="125.70432"
       x2="125.7837"
       y2="150.35994" /><linearGradient
       inkscape:collect="always"
       xlink:href="#linearGradient59"
       id="linearGradient82"
       gradientUnits="userSpaceOnUse"
       x1="123.0983"
       y1="121.54068"
       x2="123.0983"
       y2="148.86899" /><linearGradient
       inkscape:collect="always"
       xlink:href="#linearGradient7"
       id="linearGradient83"
       gradientUnits="userSpaceOnUse"
       x1="123.9462"
       y1="122.01601"
       x2="123.9462"
       y2="148.94342" /><linearGradient
       inkscape:collect="always"
       xlink:href="#linearGradient10"
       id="linearGradient84"
       gradientUnits="userSpaceOnUse"
       x1="123.51553"
       y1="124.99926"
       x2="123.51553"
       y2="148.36156" /><linearGradient
       inkscape:collect="always"
       xlink:href="#linearGradient113"
       id="linearGradient93"
       gradientUnits="userSpaceOnUse"
       x1="125.7837"
       y1="132.65332"
       x2="125.7837"
       y2="150.35994" /><linearGradient
       inkscape:collect="always"
       xlink:href="#linearGradient59"
       id="linearGradient94"
       gradientUnits="userSpaceOnUse"
       x1="123.0983"
       y1="128.89059"
       x2="123.0983"
       y2="148.86899" /><linearGradient
       inkscape:collect="always"
       xlink:href="#linearGradient7"
       id="linearGradient95"
       gradientUnits="userSpaceOnUse"
       x1="123.9462"
       y1="127.96275"
       x2="123.9462"
       y2="148.94342" /><linearGradient
       inkscape:collect="always"
       xlink:href="#linearGradient10"
       id="linearGradient96"
       gradientUnits="userSpaceOnUse"
       x1="123.51553"
       y1="130.21101"
       x2="123.51553"
       y2="148.36156" /><linearGradient
       inkscape:collect="always"
       xlink:href="#linearGradient115"
       id="linearGradient105"
       gradientUnits="userSpaceOnUse"
       x1="125.7837"
       y1="136.59555"
       x2="125.7837"
       y2="150.35994" /><linearGradient
       inkscape:collect="always"
       xlink:href="#linearGradient59"
       id="linearGradient106"
       gradientUnits="userSpaceOnUse"
       x1="123.0983"
       y1="133.70145"
       x2="123.0983"
       y2="148.86899" /><linearGradient
       inkscape:collect="always"
       xlink:href="#linearGradient7"
       id="linearGradient107"
       gradientUnits="userSpaceOnUse"
       x1="123.9462"
       y1="134.24359"
       x2="123.9462"
       y2="148.94342" /><linearGradient
       inkscape:collect="always"
       xlink:href="#linearGradient10"
       id="linearGradient108"
       gradientUnits="userSpaceOnUse"
       x1="123.51553"
       y1="136.42503"
       x2="123.51553"
       y2="148.36156" /><linearGradient
       id="linearGradient42"
       inkscape:collect="always"><stop
         style="stop-color:#000000;stop-opacity:0.29287598;"
         offset="0"
         id="stop41" /><stop
         style="stop-color:#000000;stop-opacity:0;"
         offset="1"
         id="stop42" /></linearGradient><linearGradient
       id="linearGradient40"
       inkscape:collect="always"><stop
         style="stop-color:#000000;stop-opacity:0.3166227;"
         offset="0"
         id="stop39" /><stop
         style="stop-color:#000000;stop-opacity:0;"
         offset="1"
         id="stop40" /></linearGradient><linearGradient
       id="linearGradient38-3"
       inkscape:collect="always"><stop
         style="stop-color:#000000;stop-opacity:0.29551452;"
         offset="0"
         id="stop37" /><stop
         style="stop-color:#000000;stop-opacity:0;"
         offset="1"
         id="stop38" /></linearGradient><linearGradient
       id="linearGradient33-2"
       inkscape:collect="always"><stop
         style="stop-color:#000000;stop-opacity:0.21108179;"
         offset="0"
         id="stop33-7" /><stop
         style="stop-color:#000000;stop-opacity:0;"
         offset="1"
         id="stop34-0" /></linearGradient><linearGradient
       id="linearGradient35-5"
       inkscape:collect="always"><stop
         style="stop-color:#ffffff;stop-opacity:0.78742516;"
         offset="0"
         id="stop36-2" /><stop
         style="stop-color:#ffffff;stop-opacity:0.41017964;"
         offset="0.60000056"
         id="stop38-9" /><stop
         style="stop-color:#ffffff;stop-opacity:0;"
         offset="1"
         id="stop37-2" /></linearGradient><linearGradient
       id="linearGradient34-2"
       inkscape:collect="always"><stop
         style="stop-color:#ffffff;stop-opacity:0.68113774;"
         offset="0"
         id="stop34-8" /><stop
         style="stop-color:#ffffff;stop-opacity:0.54191619;"
         offset="0.5"
         id="stop1-9" /><stop
         style="stop-color:#ffffff;stop-opacity:0;"
         offset="1"
         id="stop35-6" /></linearGradient><linearGradient
       id="linearGradient3-9"
       inkscape:collect="always"><stop
         style="stop-color:#fafdff;stop-opacity:1;"
         offset="0"
         id="stop9-2" /><stop
         style="stop-color:#ffffff;stop-opacity:0.2;"
         offset="0.65457755"
         id="stop14-9" /><stop
         style="stop-color:#101010;stop-opacity:0.40163934;"
         offset="1"
         id="stop11-1" /></linearGradient><linearGradient
       id="linearGradient18"
       inkscape:collect="always"><stop
         style="stop-color:#fafafa;stop-opacity:1;"
         offset="0"
         id="stop21-75" /><stop
         style="stop-color:#fafafa;stop-opacity:1;"
         offset="0.51512533"
         id="stop23-3" /><stop
         style="stop-color:#000000;stop-opacity:1;"
         offset="1"
         id="stop22-56" /></linearGradient><linearGradient
       id="linearGradient29"
       inkscape:collect="always"><stop
         style="stop-color:#060606;stop-opacity:0.49480969;"
         offset="0"
         id="stop29-2" /><stop
         style="stop-color:#ffffff;stop-opacity:0;"
         offset="1"
         id="stop30-7" /></linearGradient><linearGradient
       id="linearGradient4"
       inkscape:collect="always"
       gradientTransform="scale(0.39730535,2.5169558)"
       x1="112.25922"
       y1="44.061803"
       x2="162.20506"
       y2="44.061803"
       gradientUnits="userSpaceOnUse"><stop
         style="stop-color:#060606;stop-opacity:0.49480969;"
         offset="0"
         id="stop3" /><stop
         style="stop-color:#ffffff;stop-opacity:0;"
         offset="1"
         id="stop4" /></linearGradient><linearGradient
       id="linearGradient6"
       inkscape:collect="always"
       gradientTransform="scale(0.62035371,1.6119836)"
       x1="201.44497"
       y1="86.757204"
       x2="240.36847"
       y2="86.757204"
       gradientUnits="userSpaceOnUse"><stop
         style="stop-color:#060606;stop-opacity:0.49480969;"
         offset="0"
         id="stop5" /><stop
         style="stop-color:#ffffff;stop-opacity:0;"
         offset="1"
         id="stop6" /></linearGradient><linearGradient
       id="linearGradient8-7"
       inkscape:collect="always"
       gradientTransform="scale(0.90169373,1.109024)"
       x1="23.818506"
       y1="1.5511186"
       x2="250.74363"
       y2="1.5511186"
       gradientUnits="userSpaceOnUse"><stop
         style="stop-color:#060606;stop-opacity:0.49480969;"
         offset="0"
         id="stop7-5" /><stop
         style="stop-color:#ffffff;stop-opacity:0;"
         offset="1"
         id="stop8-3" /></linearGradient><linearGradient
       id="linearGradient10-5"
       inkscape:collect="always"
       gradientTransform="scale(0.7181981,1.3923735)"
       x1="171.71363"
       y1="40.100313"
       x2="310.39534"
       y2="40.100313"
       gradientUnits="userSpaceOnUse"><stop
         style="stop-color:#060606;stop-opacity:0.49480969;"
         offset="0"
         id="stop9" /><stop
         style="stop-color:#ffffff;stop-opacity:0;"
         offset="1"
         id="stop10-6" /></linearGradient><linearGradient
       id="linearGradient2-6"
       inkscape:collect="always"><stop
         style="stop-color:#ffffa5;stop-opacity:1;"
         offset="0"
         id="stop2-0" /><stop
         style="stop-color:#efd564;stop-opacity:1;"
         offset="0.29516914"
         id="stop4-6" /><stop
         style="stop-color:#e0ac24;stop-opacity:1"
         offset="1"
         id="stop3-2" /></linearGradient><linearGradient
       id="linearGradient13"
       inkscape:collect="always"
       gradientTransform="scale(1.6840593,0.59380333)"
       x1="43.190228"
       y1="131.67409"
       x2="115.61677"
       y2="131.67409"
       gradientUnits="userSpaceOnUse"><stop
         style="stop-color:#fefeb3;stop-opacity:1;"
         offset="0"
         id="stop5-0" /><stop
         style="stop-color:#fee78d;stop-opacity:1;"
         offset="0.49422145"
         id="stop7-9" /><stop
         style="stop-color:#fec344;stop-opacity:1;"
         offset="1"
         id="stop6-3" /></linearGradient><linearGradient
       inkscape:collect="always"
       xlink:href="#linearGradient14"
       id="linearGradient14"
       gradientUnits="userSpaceOnUse"
       x1="71.795692"
       y1="99.333733"
       x2="194.70551"
       y2="99.333733" /><linearGradient
       id="linearGradient18-3"
       inkscape:collect="always"><stop
         style="stop-color:#937c4e;stop-opacity:1"
         offset="0"
         id="stop19-5" /><stop
         style="stop-color:#e0bf53;stop-opacity:1"
         offset="1"
         id="stop20-6" /></linearGradient><linearGradient
       id="linearGradient17-2"
       inkscape:collect="always"><stop
         style="stop-color:#fffcbb;stop-opacity:1;"
         offset="0"
         id="stop17-9" /><stop
         style="stop-color:#d3a00d;stop-opacity:1"
         offset="1"
         id="stop18-1" /></linearGradient><linearGradient
       inkscape:collect="always"
       xlink:href="#linearGradient14"
       id="linearGradient7-1"
       gradientUnits="userSpaceOnUse"
       x1="132.29167"
       y1="145.80431"
       x2="134.55951"
       y2="196.16963" /><linearGradient
       id="linearGradient24-7"
       inkscape:collect="always"><stop
         style="stop-color:#000000;stop-opacity:0;"
         offset="0"
         id="stop24-9" /><stop
         style="stop-color:#000000;stop-opacity:0;"
         offset="0.56008774"
         id="stop26-3" /><stop
         style="stop-color:#000000;stop-opacity:0.43007916;"
         offset="1"
         id="stop25-6" /></linearGradient><linearGradient
       id="linearGradient16-0"
       inkscape:collect="always"><stop
         style="stop-color:#8188b5;stop-opacity:1"
         offset="0"
         id="stop16-6" /><stop
         style="stop-color:#979dc2;stop-opacity:1"
         offset="0.25"
         id="stop20-2" /><stop
         style="stop-color:#b4b9d4;stop-opacity:1"
         offset="0.5"
         id="stop18-6" /><stop
         style="stop-color:#d4d7e7;stop-opacity:1"
         offset="0.75"
         id="stop19-1" /><stop
         style="stop-color:#eaecf4;stop-opacity:1"
         offset="1"
         id="stop17-8" /></linearGradient><linearGradient
       id="linearGradient1-3"
       inkscape:collect="always"><stop
         style="stop-color:#f6f7f8;stop-opacity:1"
         offset="0"
         id="stop1-7" /><stop
         style="stop-color:#c8d2ed;stop-opacity:1"
         offset="0.25815535"
         id="stop6-5" /><stop
         style="stop-color:#aebbe3;stop-opacity:1"
         offset="0.45344773"
         id="stop3-9" /><stop
         style="stop-color:#adb8d4;stop-opacity:1"
         offset="0.68595153"
         id="stop4-2" /><stop
         style="stop-color:#afb8ca;stop-opacity:1"
         offset="0.78069699"
         id="stop5-2" /><stop
         style="stop-color:#b7b8bc;stop-opacity:1"
         offset="1"
         id="stop2-8" /></linearGradient><radialGradient
       inkscape:collect="always"
       xlink:href="#linearGradient35-5"
       id="radialGradient37-6-2"
       cx="365.28375"
       cy="573.56195"
       fx="365.28375"
       fy="573.56195"
       r="17.218542"
       gradientUnits="userSpaceOnUse"
       gradientTransform="matrix(0.80722521,0,0,0.80722637,68.969972,109.18901)" /><radialGradient
       inkscape:collect="always"
       xlink:href="#linearGradient34-2"
       id="radialGradient35-3"
       cx="372.6871"
       cy="486.49179"
       fx="372.6871"
       fy="486.49179"
       r="17.773516"
       gradientTransform="matrix(0.57421878,0.06514634,-0.31933971,2.8147535,307.79791,-903.63415)"
       gradientUnits="userSpaceOnUse" /><radialGradient
       inkscape:collect="always"
       xlink:href="#linearGradient3-9"
       id="radialGradient11-2"
       cx="123.66079"
       cy="181.52841"
       fx="123.66079"
       fy="181.52841"
       r="12.378719"
       gradientUnits="userSpaceOnUse"
       gradientTransform="matrix(1.1374039,0,0,1.1374046,-16.116827,-24.192242)" /><radialGradient
       inkscape:collect="always"
       xlink:href="#linearGradient18"
       id="radialGradient22-7"
       cx="124.07912"
       cy="103.30688"
       fx="124.07912"
       fy="103.30688"
       r="35.340771"
       gradientTransform="matrix(1.5211023,0.0472892,-0.03115237,1.002046,-60.938119,-8.6838364)"
       gradientUnits="userSpaceOnUse" /><linearGradient
       inkscape:collect="always"
       xlink:href="#linearGradient29"
       id="linearGradient11-9"
       gradientUnits="userSpaceOnUse"
       gradientTransform="scale(0.39730535,2.5169558)"
       x1="112.25922"
       y1="44.061802"
       x2="162.20506"
       y2="44.061802" /><radialGradient
       inkscape:collect="always"
       xlink:href="#linearGradient17-2"
       id="radialGradient18-0"
       cx="106.54351"
       cy="22.706797"
       fx="106.54351"
       fy="22.706797"
       r="49.958729"
       gradientTransform="matrix(2.0781221,-0.03404598,0.03376703,2.061095,-119.01388,-24.899082)"
       gradientUnits="userSpaceOnUse" /><linearGradient
       id="linearGradient20-5"
       inkscape:collect="always"
       gradientTransform="scale(0.52954721,1.8884058)"
       x1="249.01721"
       y1="74.120354"
       x2="282.16809"
       y2="74.120354"
       gradientUnits="userSpaceOnUse"><stop
         style="stop-color:#ffffa5;stop-opacity:1;"
         offset="0"
         id="stop24" /><stop
         style="stop-color:#efd564;stop-opacity:1;"
         offset="0.29516914"
         id="stop25" /><stop
         style="stop-color:#e0ac24;stop-opacity:1"
         offset="1"
         id="stop26" /></linearGradient><radialGradient
       inkscape:collect="always"
       xlink:href="#linearGradient17-2"
       id="radialGradient18-1-4"
       cx="106.54351"
       cy="22.706797"
       fx="106.54351"
       fy="22.706797"
       r="49.958729"
       gradientTransform="matrix(2.0781221,-0.03404598,0.03376703,2.061095,-119.01388,-24.899082)"
       gradientUnits="userSpaceOnUse" /><radialGradient
       inkscape:collect="always"
       xlink:href="#linearGradient24-7"
       id="radialGradient27-7"
       gradientUnits="userSpaceOnUse"
       gradientTransform="matrix(5.3362793,1.4141261,-2.4604308,9.2845648,-387.88976,-652.84643)"
       cx="117.75292"
       cy="56.668503"
       fx="117.75292"
       fy="56.668503"
       r="22.773064" /><linearGradient
       inkscape:collect="always"
       xlink:href="#linearGradient42"
       id="linearGradient2"
       gradientUnits="userSpaceOnUse"
       x1="74.904533"
       y1="130.78049"
       x2="82.083931"
       y2="137.95988" /><linearGradient
       inkscape:collect="always"
       xlink:href="#linearGradient40"
       id="linearGradient3"
       gradientUnits="userSpaceOnUse"
       x1="92.865051"
       y1="126.10326"
       x2="87.064156"
       y2="132.60548" /><linearGradient
       inkscape:collect="always"
       xlink:href="#linearGradient38-3"
       id="linearGradient9"
       gradientUnits="userSpaceOnUse"
       x1="124.93738"
       y1="134.72768"
       x2="131.38023"
       y2="141.71918" /><linearGradient
       inkscape:collect="always"
       xlink:href="#linearGradient33-2"
       id="linearGradient15"
       gradientUnits="userSpaceOnUse"
       x1="185.66103"
       y1="90.462875"
       x2="180.23431"
       y2="97.432816" /><linearGradient
       inkscape:collect="always"
       xlink:href="#linearGradient29"
       id="linearGradient16"
       gradientUnits="userSpaceOnUse"
       x1="91.251221"
       y1="132.4325"
       x2="97.860336"
       y2="139.10335" /><linearGradient
       inkscape:collect="always"
       xlink:href="#linearGradient29"
       id="linearGradient17"
       gradientUnits="userSpaceOnUse"
       gradientTransform="matrix(-1,0,0,1,240.31789,3.210483e-8)"
       x1="91.251221"
       y1="132.4325"
       x2="97.860336"
       y2="139.10335" /><linearGradient
       inkscape:collect="always"
       xlink:href="#linearGradient29"
       id="linearGradient19"
       gradientUnits="userSpaceOnUse"
       gradientTransform="matrix(0,1,1,0,0.7147759,-0.76857872)"
       x1="91.251221"
       y1="132.4325"
       x2="97.860336"
       y2="139.10335" /><linearGradient
       inkscape:collect="always"
       xlink:href="#linearGradient29"
       id="linearGradient21"
       gradientUnits="userSpaceOnUse"
       gradientTransform="rotate(90,120.14277,119.1852)"
       x1="91.251221"
       y1="132.4325"
       x2="96.507286"
       y2="137.767" /><linearGradient
       inkscape:collect="always"
       xlink:href="#linearGradient29"
       id="linearGradient22"
       gradientUnits="userSpaceOnUse"
       gradientTransform="translate(11.198214,-44.088274)"
       x1="66.68277"
       y1="121.56569"
       x2="71.65535"
       y2="127.08917" /><linearGradient
       inkscape:collect="always"
       xlink:href="#linearGradient29"
       id="linearGradient23"
       gradientUnits="userSpaceOnUse"
       gradientTransform="matrix(-1,0,0,1,228.98994,-44.149714)"
       x1="66.799698"
       y1="122.24389"
       x2="73.596397"
       y2="128.67943" /><linearGradient
       inkscape:collect="always"
       xlink:href="#linearGradient4"
       id="linearGradient24"
       gradientUnits="userSpaceOnUse"
       gradientTransform="scale(0.39730535,2.5169558)"
       x1="112.25922"
       y1="44.061803"
       x2="162.20506"
       y2="44.061803" /><linearGradient
       inkscape:collect="always"
       xlink:href="#linearGradient29"
       id="linearGradient25"
       gradientUnits="userSpaceOnUse"
       x1="192.23677"
       y1="108.24416"
       x2="119.3995"
       y2="254.03969" /><linearGradient
       inkscape:collect="always"
       xlink:href="#linearGradient6"
       id="linearGradient26"
       gradientUnits="userSpaceOnUse"
       gradientTransform="scale(0.62035371,1.6119836)"
       x1="201.44497"
       y1="86.757204"
       x2="240.36847"
       y2="86.757204" /><linearGradient
       inkscape:collect="always"
       xlink:href="#linearGradient18-3"
       id="linearGradient28"
       gradientUnits="userSpaceOnUse"
       x1="141.50484"
       y1="147.55246"
       x2="138.90625"
       y2="194.23253" /><linearGradient
       inkscape:collect="always"
       xlink:href="#linearGradient2-6"
       id="linearGradient30"
       gradientUnits="userSpaceOnUse"
       x1="45.847015"
       y1="114.90472"
       x2="59.797321"
       y2="231.1324" /><linearGradient
       inkscape:collect="always"
       xlink:href="#linearGradient2-6"
       id="linearGradient31"
       gradientUnits="userSpaceOnUse"
       x1="45.847015"
       y1="114.90472"
       x2="59.797321"
       y2="231.1324" /><linearGradient
       inkscape:collect="always"
       xlink:href="#linearGradient13"
       id="linearGradient32"
       gradientUnits="userSpaceOnUse"
       gradientTransform="scale(1.6840593,0.59380333)"
       x1="43.190228"
       y1="131.67409"
       x2="115.61677"
       y2="131.67409" /><linearGradient
       inkscape:collect="always"
       xlink:href="#linearGradient16-0"
       id="linearGradient33"
       gradientUnits="userSpaceOnUse"
       x1="138.35028"
       y1="25.188238"
       x2="123.16091"
       y2="228.58035" /><linearGradient
       inkscape:collect="always"
       xlink:href="#linearGradient1-3"
       id="linearGradient34"
       gradientUnits="userSpaceOnUse"
       x1="124.70325"
       y1="14.833455"
       x2="123.85739"
       y2="244.41798" /><linearGradient
       inkscape:collect="always"
       xlink:href="#linearGradient10-5"
       id="linearGradient35"
       gradientUnits="userSpaceOnUse"
       gradientTransform="scale(0.7181981,1.3923735)"
       x1="171.71363"
       y1="40.100313"
       x2="310.39534"
       y2="40.100313" /><linearGradient
       inkscape:collect="always"
       xlink:href="#linearGradient8-7"
       id="linearGradient36"
       gradientUnits="userSpaceOnUse"
       gradientTransform="scale(0.90169373,1.109024)"
       x1="23.818506"
       y1="1.5511186"
       x2="250.74363"
       y2="1.5511186" /></defs><sodipodi:namedview
     id="base"
     pagecolor="#ffffff"
     bordercolor="#000000"
     borderopacity="0.3"
     inkscape:pageopacity="0.0"
     inkscape:pageshadow="2"
     inkscape:zoom="0.49497475"
     inkscape:cx="391.93919"
     inkscape:cy="869.74134"
     inkscape:document-units="mm"
     inkscape:showpageshadow="2"
     inkscape:pagecheckerboard="0"
     inkscape:deskcolor="#d1d1d1"
     inkscape:current-layer="svg1" /><metadata
     id="metadata1"><rdf:RDF><cc:Work
         rdf:about=""><dc:format>image/svg+xml</dc:format><dc:type
           rdf:resource="http://purl.org/dc/dcmitype/StillImage" /><cc:license
           rdf:resource="http://creativecommons.org/publicdomain/zero/1.0/" /></cc:Work><cc:License
         rdf:about="http://creativecommons.org/publicdomain/zero/1.0/"><cc:permits
           rdf:resource="http://creativecommons.org/ns#Reproduction" /><cc:permits
           rdf:resource="http://creativecommons.org/ns#Distribution" /><cc:permits
           rdf:resource="http://creativecommons.org/ns#DerivativeWorks" /></cc:License></rdf:RDF></metadata><g
     id="g115"
     transform="matrix(4.0153813,0,0,4.0153813,-269.98927,-359.10776)"><g
       id="g13"><g
         id="g5"
         style="display:inline"
         inkscape:label="shadow"><path
           id="rect1"
           style="fill-opacity:0.330789;stroke-width:4.99999;stroke-linecap:square"
           d="m 121.51934,110.27455 h 8.40997 v 42.14435 h -8.40997 z" /><path
           id="rect2"
           style="fill:url(#linearGradient58);fill-opacity:0.330789;stroke-width:5.00694;stroke-linecap:square"
           d="m 121.474,112.24712 h 2.1131 l 0.0407,-2.03162 4.19847,0.0709 -0.013,1.96075 h 2.1131 v 38.19221 h -2.1131 v 1.97112 l -4.22202,0.008 -0.004,-1.97947 h -2.1131 z"
           sodipodi:nodetypes="ccccccccccccc" /></g><g
         id="g12"><path
           id="rect5"
           style="fill:url(#linearGradient60);fill-opacity:1;stroke-width:4.99999;stroke-linecap:square"
           d="m 119.20424,108.1012 h 8.50446 v 42.38058 h -8.50446 z" /><path
           id="rect6"
           style="fill:url(#linearGradient8);fill-opacity:0.648855;stroke-width:4.99999;stroke-linecap:square"
           d="m 119.26092,110.19738 h 2.12347 l -10e-4,-2.03162 4.25092,-0.0236 -0.003,2.05525 h 2.12348 v 38.20402 h -2.12348 l 0.0147,2.03793 -4.26898,0.0167 0.007,-2.05463 h -2.12347 z"
           sodipodi:nodetypes="ccccccccccccc" /><path
           id="rect8"
           style="fill:#ffffff;stroke-width:4.99999;stroke-linecap:square"
           d="m 121.38023,110.20253 h 4.2563 v 38.19611 h -4.2563 z" /><g
           id="g11"
           style="display:none"><path
             id="rect9"
             style="fill:#20ff00;fill-opacity:0.29724;stroke-width:5.14114;stroke-linecap:square"
             d="m 121.38351,110.19186 h 2.14472 v 1.87671 h -2.14472 z" /><path
             id="path9"
             style="fill:#18bd00;fill-opacity:0.630573;stroke-width:5.12012;stroke-linecap:square"
             d="m 123.53039,110.19186 h 2.13594 v 1.86904 h -2.13594 z" /><path
             id="rect10"
             style="fill:url(#linearGradient11);stroke-width:4.99999;stroke-linecap:square"
             d="m 121.34217,112.04632 h 4.32311 v 36.43926 h -4.32311 z" /></g></g></g><g
       id="g69"
       transform="translate(-12.695303)"><g
         id="g61"
         style="display:inline"
         inkscape:label="shadow"><path
           id="path60"
           style="fill-opacity:0.330789;stroke-width:4.99999;stroke-linecap:square"
           d="m 121.51934,116.48857 h 8.40997 v 35.93033 h -8.40997 z"
           sodipodi:nodetypes="ccccc" /><path
           id="path61"
           style="fill:url(#linearGradient69);fill-opacity:0.330789;stroke-width:5.00694;stroke-linecap:square"
           d="m 121.474,118.46114 h 2.1131 l 0.0407,-2.03162 4.19847,0.0709 -0.013,1.96075 h 2.1131 v 31.97819 h -2.1131 v 1.97112 l -4.22202,0.008 -0.004,-1.97947 h -2.1131 z"
           sodipodi:nodetypes="ccccccccccccc" /></g><g
         id="g68"><path
           id="path62"
           style="fill:url(#linearGradient70);fill-opacity:1;stroke-width:4.99999;stroke-linecap:square"
           d="m 119.20424,114.31522 h 8.50446 v 36.16656 h -8.50446 z"
           sodipodi:nodetypes="ccccc" /><path
           id="path63"
           style="fill:url(#linearGradient71);fill-opacity:0.648855;stroke-width:4.99999;stroke-linecap:square"
           d="m 119.26092,116.4114 h 2.12347 l -10e-4,-2.03162 4.25092,-0.0236 -0.003,2.05525 h 2.12348 v 31.99 h -2.12348 l 0.0147,2.03793 -4.26898,0.0167 0.007,-2.05463 h -2.12347 z"
           sodipodi:nodetypes="ccccccccccccc" /><path
           id="path64"
           style="fill:#ffffff;stroke-width:4.99999;stroke-linecap:square"
           d="m 121.38023,116.41655 h 4.2563 v 31.98209 h -4.2563 z"
           sodipodi:nodetypes="ccccc" /><g
           id="g67"
           style="display:none"><path
             id="path65"
             style="fill:#20ff00;fill-opacity:0.29724;stroke-width:5.14114;stroke-linecap:square"
             d="m 121.38351,116.40588 h 2.14472 v 1.87671 h -2.14472 z"
             sodipodi:nodetypes="ccccc" /><path
             id="path66"
             style="fill:#18bd00;fill-opacity:0.630573;stroke-width:5.12012;stroke-linecap:square"
             d="m 123.53039,116.40588 h 2.13594 v 1.86904 h -2.13594 z"
             sodipodi:nodetypes="ccccc" /><path
             id="path67"
             style="fill:url(#linearGradient72);stroke-width:4.99999;stroke-linecap:square"
             d="m 121.34217,118.26034 h 4.32311 v 30.22524 h -4.32311 z"
             sodipodi:nodetypes="ccccc" /></g></g></g><g
       id="g81"
       transform="translate(-25.457423)"><g
         id="g73"
         style="display:inline"
         inkscape:label="shadow"><path
           id="path72"
           style="fill-opacity:0.330789;stroke-width:4.99999;stroke-linecap:square"
           d="m 121.51934,122.90304 h 8.40997 v 29.51586 h -8.40997 z"
           sodipodi:nodetypes="ccccc" /><path
           id="path73"
           style="fill:url(#linearGradient81);fill-opacity:0.330789;stroke-width:5.00694;stroke-linecap:square"
           d="m 121.474,124.87561 h 2.1131 l 0.0407,-2.03162 4.19847,0.0709 -0.013,1.96075 h 2.1131 v 25.56372 h -2.1131 v 1.97112 l -4.22202,0.008 -0.004,-1.97947 h -2.1131 z"
           sodipodi:nodetypes="ccccccccccccc" /></g><g
         id="g80"><path
           id="path74"
           style="fill:url(#linearGradient82);fill-opacity:1;stroke-width:4.99999;stroke-linecap:square"
           d="m 119.20424,120.72969 h 8.50446 v 29.75209 h -8.50446 z"
           sodipodi:nodetypes="ccccc" /><path
           id="path75"
           style="fill:url(#linearGradient83);fill-opacity:0.648855;stroke-width:4.99999;stroke-linecap:square"
           d="m 119.26092,122.82587 h 2.12347 l -10e-4,-2.03162 4.25092,-0.0236 -0.003,2.05525 h 2.12348 v 25.57553 h -2.12348 l 0.0147,2.03793 -4.26898,0.0167 0.007,-2.05463 h -2.12347 z"
           sodipodi:nodetypes="ccccccccccccc" /><path
           id="path76"
           style="fill:#ffffff;stroke-width:4.99999;stroke-linecap:square"
           d="m 121.38023,122.83102 h 4.2563 v 25.56762 h -4.2563 z"
           sodipodi:nodetypes="ccccc" /><g
           id="g79"
           style="display:none"><path
             id="path77"
             style="fill:#20ff00;fill-opacity:0.29724;stroke-width:5.14114;stroke-linecap:square"
             d="m 121.38351,122.82035 h 2.14472 v 1.87671 h -2.14472 z"
             sodipodi:nodetypes="ccccc" /><path
             id="path78"
             style="fill:#18bd00;fill-opacity:0.630573;stroke-width:5.12012;stroke-linecap:square"
             d="m 123.53039,122.82035 h 2.13594 v 1.86904 h -2.13594 z"
             sodipodi:nodetypes="ccccc" /><path
             id="path79"
             style="fill:url(#linearGradient84);stroke-width:4.99999;stroke-linecap:square"
             d="m 121.34217,124.67481 h 4.32311 v 23.81077 h -4.32311 z"
             sodipodi:nodetypes="ccccc" /></g></g></g><g
       id="g93"
       transform="translate(-38.219543)"><g
         id="g85"
         style="display:inline"
         inkscape:label="shadow"><path
           id="path84"
           style="fill-opacity:0.330789;stroke-width:4.99999;stroke-linecap:square"
           d="m 121.51934,129.3175 h 8.40997 v 23.1014 h -8.40997 z"
           sodipodi:nodetypes="ccccc" /><path
           id="path85"
           style="fill:url(#linearGradient93);fill-opacity:0.330789;stroke-width:5.00694;stroke-linecap:square"
           d="m 121.474,131.29007 h 2.1131 l 0.0407,-2.03162 4.19847,0.0709 -0.013,1.96075 h 2.1131 v 19.14926 h -2.1131 v 1.97112 l -4.22202,0.008 -0.004,-1.97947 h -2.1131 z"
           sodipodi:nodetypes="ccccccccccccc" /></g><g
         id="g92"><path
           id="path86"
           style="fill:url(#linearGradient94);fill-opacity:1;stroke-width:4.99999;stroke-linecap:square"
           d="m 119.20424,127.14415 h 8.50446 v 23.33763 h -8.50446 z"
           sodipodi:nodetypes="ccccc" /><path
           id="path87"
           style="fill:url(#linearGradient95);fill-opacity:0.648855;stroke-width:4.99999;stroke-linecap:square"
           d="m 119.26092,129.24033 h 2.12347 l -10e-4,-2.03162 4.25092,-0.0236 -0.003,2.05525 h 2.12348 v 19.16107 h -2.12348 l 0.0147,2.03793 -4.26898,0.0167 0.007,-2.05463 h -2.12347 z"
           sodipodi:nodetypes="ccccccccccccc" /><path
           id="path88"
           style="fill:#ffffff;stroke-width:4.99999;stroke-linecap:square"
           d="m 121.38023,129.24548 h 4.2563 v 19.15316 h -4.2563 z"
           sodipodi:nodetypes="ccccc" /><g
           id="g91"
           style="display:none"><path
             id="path89"
             style="fill:#20ff00;fill-opacity:0.29724;stroke-width:5.14114;stroke-linecap:square"
             d="m 121.38351,129.23481 h 2.14472 v 1.87671 h -2.14472 z"
             sodipodi:nodetypes="ccccc" /><path
             id="path90"
             style="fill:#18bd00;fill-opacity:0.630573;stroke-width:5.12012;stroke-linecap:square"
             d="m 123.53039,129.23481 h 2.13594 v 1.86904 h -2.13594 z"
             sodipodi:nodetypes="ccccc" /><path
             id="path91"
             style="fill:url(#linearGradient96);stroke-width:4.99999;stroke-linecap:square"
             d="m 121.34217,131.08927 h 4.32311 v 17.39631 h -4.32311 z"
             sodipodi:nodetypes="ccccc" /></g></g></g><g
       id="g105"
       transform="translate(-50.848028)"><g
         id="g97"
         style="display:inline"
         inkscape:label="shadow"><path
           id="path96"
           style="fill-opacity:0.330789;stroke-width:4.99999;stroke-linecap:square"
           d="m 121.51934,135.59834 h 8.40997 v 16.82056 h -8.40997 z"
           sodipodi:nodetypes="ccccc" /><path
           id="path97"
           style="fill:url(#linearGradient105);fill-opacity:0.330789;stroke-width:5.00694;stroke-linecap:square"
           d="m 121.474,137.57091 h 2.1131 l 0.0407,-2.03162 4.19847,0.0709 -0.013,1.96075 h 2.1131 v 12.86842 h -2.1131 v 1.97112 l -4.22202,0.008 -0.004,-1.97947 h -2.1131 z"
           sodipodi:nodetypes="ccccccccccccc" /></g><g
         id="g104"><path
           id="path98"
           style="fill:url(#linearGradient106);fill-opacity:1;stroke-width:4.99999;stroke-linecap:square"
           d="m 119.20424,133.42499 h 8.50446 v 17.05679 h -8.50446 z"
           sodipodi:nodetypes="ccccc" /><path
           id="path99"
           style="fill:url(#linearGradient107);fill-opacity:0.648855;stroke-width:4.99999;stroke-linecap:square"
           d="m 119.26092,135.52117 h 2.12347 l -10e-4,-2.03162 4.25092,-0.0236 -0.003,2.05525 h 2.12348 v 12.88023 h -2.12348 l 0.0147,2.03793 -4.26898,0.0167 0.007,-2.05463 h -2.12347 z"
           sodipodi:nodetypes="ccccccccccccc" /><path
           id="path100"
           style="fill:#ffffff;stroke-width:4.99999;stroke-linecap:square"
           d="m 121.38023,135.52632 h 4.2563 v 12.87232 h -4.2563 z"
           sodipodi:nodetypes="ccccc" /><g
           id="g103"
           style="display:none"><path
             id="path101"
             style="fill:#20ff00;fill-opacity:0.29724;stroke-width:5.14114;stroke-linecap:square"
             d="m 121.38351,135.51565 h 2.14472 v 1.87671 h -2.14472 z"
             sodipodi:nodetypes="ccccc" /><path
             id="path102"
             style="fill:#18bd00;fill-opacity:0.630573;stroke-width:5.12012;stroke-linecap:square"
             d="m 123.53039,135.51565 h 2.13594 v 1.86904 h -2.13594 z"
             sodipodi:nodetypes="ccccc" /><path
             id="path103"
             style="fill:url(#linearGradient108);stroke-width:4.99999;stroke-linecap:square"
             d="m 121.34217,137.37011 h 4.32311 v 11.11547 h -4.32311 z"
             sodipodi:nodetypes="ccccc" /></g></g></g></g><g
     id="g12-3"
     transform="matrix(0.92509397,0,0,0.92509397,-58.556542,-46.15284)"
     style="display:none"><circle
       style="display:inline;fill:#ffe71c;fill-opacity:1;stroke:#000000;stroke-width:4.00392;stroke-linecap:square;stroke-dasharray:none;stroke-opacity:1"
       id="path2-6"
       cx="135.40996"
       cy="120.85789"
       r="67.752228" /><path
       id="rect12"
       style="fill:#f8f4fd;fill-opacity:1;stroke-width:2.3;stroke-linecap:square"
       d="m 124.2833,64.633926 23.12741,0.04725 -0.0709,26.222099 -5.40127,55.173055 -12.16008,-0.13363 -5.51882,-55.086672 z m 0.25986,88.162944 h 21.73363 v 21.73363 h -21.73363 z"
       sodipodi:nodetypes="cccccccccccc" /></g><g
     id="g1"
     transform="translate(2.749099,2.0373438)"><g
       id="g12-3-6"
       transform="matrix(0.92509397,0,0,0.92509397,-60.17891,-46.729031)"
       style="display:none"><circle
         style="display:inline;fill:#ffe71c;fill-opacity:1;stroke:#000000;stroke-width:4.00392;stroke-linecap:square;stroke-dasharray:none;stroke-opacity:1"
         id="path2-6-8"
         cx="135.40996"
         cy="120.85789"
         r="67.752228" /><path
         id="rect12-8"
         style="fill:#f8f4fd;fill-opacity:1;stroke-width:2.3;stroke-linecap:square"
         d="m 124.2833,64.633926 23.12741,0.04725 -0.0709,26.222099 -5.40127,55.173055 -12.16008,-0.13363 -5.51882,-55.086672 z m 0.25986,88.162944 h 21.73363 v 21.73363 h -21.73363 z"
         sodipodi:nodetypes="cccccccccccc" /></g><g
       id="g26-8-4"
       style="display:none"
       transform="matrix(0.59828353,0,0,0.59828353,-12.246318,-1.2776639)"
       inkscape:label="shild"><g
         id="g24-2-3"
         inkscape:label="inner"><path
           id="path26-4-1"
           style="display:inline;opacity:1;fill:#42b82c;fill-opacity:1;stroke-width:0.499999;stroke-linecap:square"
           inkscape:label="color"
           d="M 29.671119,57.64137 C 98.735357,43.710631 90.507314,11.008768 123.12573,10.394346 c 32.61841,-0.6144219 37.80816,39.007814 95.72246,45.735119 3.43847,84.905965 -27.18594,154.338995 -82.02083,184.735865 -8.21668,6.60668 -19.28001,6.94735 -27.02529,0 C 71.543774,203.8439 29.996786,172.47333 29.671119,57.64137 Z"
           sodipodi:nodetypes="czcccc"
           transform="translate(0.00310059)" /><g
           id="g30"
           inkscape:label="colormix"
           style="display:none"
           transform="translate(-0.8183356)"><path
             d="M 124.35365,128.13636 V 245.8837 c 4.36019,-0.30181 8.71476,-1.99593 12.47366,-5.0183 38.27977,-21.2198 64.74102,-61.47819 76.07184,-112.72904 z"
             style="display:inline;opacity:1;fill:#0aff00;fill-opacity:1;stroke-width:0.499999;stroke-linecap:square"
             id="path32-4" /><path
             d="m 36.655644,128.13636 c 13.459661,59.97642 44.23568,84.75295 73.146436,112.72904 4.20105,3.76825 9.37831,5.37522 14.54795,5.0183 V 128.13636 Z"
             style="display:inline;opacity:1;fill:#0012fd;fill-opacity:1;stroke-width:0.499999;stroke-linecap:square"
             id="path31-9" /><path
             d="M 124.35365,10.418486 V 128.13326 h 88.54602 c 4.89977,-22.16372 6.98652,-46.371489 5.94847,-72.00387 -57.16847,-6.64067 -62.98021,-45.306629 -94.49449,-45.710904 z"
             style="display:inline;opacity:1;fill:#ffff00;fill-opacity:1;stroke-width:0.499999;stroke-linecap:square"
             id="path30-2" /><path
             d="m 123.12582,10.394198 c -32.618326,0.614419 -24.390732,33.316548 -93.454763,47.247245 0.07956,28.054733 2.632712,51.100897 6.98407,70.491817 H 124.35003 V 10.417969 c -0.40985,-0.0052 -0.80549,-0.03166 -1.22421,-0.02377 z"
             style="display:inline;opacity:1;fill:#ff0000;fill-opacity:1;stroke-width:0.499999;stroke-linecap:square"
             id="path29-5-0" /></g><g
           id="g32-6"
           style="display:none"
           inkscape:label="ok"
           transform="translate(0.00310059)"><path
             id="rect32-0-8"
             style="opacity:1;fill:#ffffff;stroke-width:0.499999;stroke-linecap:square"
             d="m 86.506787,119.15846 27.161623,27.06945 64.39323,-63.300861 15.38805,15.481587 -79.62962,79.653004 -43.122276,-43.05545 z"
             sodipodi:nodetypes="ccccccc" /><path
             id="path33-9"
             style="display:inline;opacity:1;fill:url(#linearGradient2);stroke-width:0.499999;stroke-linecap:square"
             d="M 86.506787,119.15846 86.392053,150.96722 70.697794,135.00619 Z"
             sodipodi:nodetypes="cccc" /><path
             id="path34-2"
             style="display:inline;opacity:1;fill:url(#linearGradient3);stroke-width:0.499999;stroke-linecap:square"
             d="m 86.506787,119.15846 27.161623,27.06945 0.15166,31.83373 -27.441996,-26.99146 z"
             sodipodi:nodetypes="ccccc" /><path
             id="path35-3-6"
             style="display:inline;opacity:1;fill:url(#linearGradient9);stroke-width:0.499999;stroke-linecap:square"
             d="m 113.66841,146.22791 64.39323,-63.300861 15.38805,15.481587 -79.62962,79.653004 z"
             sodipodi:nodetypes="ccccc" /><path
             id="path36-6-6"
             style="display:inline;opacity:1;fill:url(#linearGradient15);stroke-width:0.499999;stroke-linecap:square"
             d="m 86.506787,119.15846 27.161623,27.06945 64.39323,-63.300861 15.38805,15.481587 -79.62962,79.653004 -43.122276,-43.05545 z"
             sodipodi:nodetypes="ccccccc" /></g><g
           id="g16-4"
           style="display:none"
           transform="matrix(0.79702404,0,0,0.79702404,-161.79969,-266.92759)"
           inkscape:label="warning"><g
             id="g17-9"
             style="fill:#000000;fill-opacity:0.394809"><circle
               style="fill:#000000;fill-opacity:1;stroke-width:10.2047;stroke-linecap:square"
               id="path16-1-5"
               cx="357.77484"
               cy="566.41058"
               r="17.218542" /><path
               id="rect16-0"
               style="fill:#000000;fill-opacity:1;stroke-width:10.2047;stroke-linecap:square"
               d="m 340.15739,449.51182 c 2.29401,-21.64531 33.08579,-22.30173 35.54703,-0.10596 -1.91766,28.7783 -14.69262,56.60361 -15.36424,84.5874 l -4.7126,-0.31788 c -2.29665,-27.41816 -13.19878,-54.08932 -15.47019,-84.16356 z"
               sodipodi:nodetypes="ccccc" /></g><g
             id="g18-4"
             style="fill:#ffffff;fill-opacity:0.394809"
             inkscape:label="whiteshadow"><circle
               style="fill:url(#radialGradient37-6-2);fill-opacity:1;stroke-width:10.2047;stroke-linecap:square"
               id="circle17-8"
               cx="357.77484"
               cy="566.41058"
               r="17.218542" /><path
               id="path17-7"
               style="fill:url(#radialGradient35-3);fill-opacity:1;stroke-width:10.2047;stroke-linecap:square"
               d="m 340.15739,449.51182 c 2.29401,-21.64531 33.08579,-22.30173 35.54703,-0.10596 -1.91766,28.7783 -14.69262,56.60361 -15.36424,84.5874 l -4.7126,-0.31788 c -2.29665,-27.41816 -13.19878,-54.08932 -15.47019,-84.16356 z"
               sodipodi:nodetypes="ccccc" /></g></g><g
           id="g29-1"
           inkscape:label="question"
           transform="translate(0.00310059)"
           style="display:none"><g
             id="g2-7"><circle
               style="fill:#ffffff;fill-opacity:1;stroke-width:0.499999;stroke-linecap:square"
               id="path2-3-2"
               cx="123.49601"
               cy="181.0506"
               r="12.378719" /><circle
               style="fill:url(#radialGradient11-2);fill-opacity:1;stroke-width:0.499999;stroke-linecap:square"
               id="circle2-7"
               cx="123.49601"
               cy="181.0506"
               r="12.378719" /></g><path
             id="rect2-2-2"
             style="display:inline;fill:#fafafa;fill-opacity:1;stroke-width:0.499999;stroke-linecap:square"
             d="m 150.48455,128.16484 c -4.44037,4.63614 -13.13746,12.58404 -13.13746,12.58404 -3.27356,3.18709 -3.88256,6.05534 -4.25223,10.11086 l 0.0472,8.1265 -19.25533,-0.0211 0.0609,-12.38625 c 0.25449,-3.44011 1.04461,-6.92183 4.59509,-10.67288 l 17.29027,-17.99875 c 1.3795,-1.43603 2.70738,-5.55814 2.76819,-7.60047 0.3071,-10.31356 -6.77,-15.660388 -15.05536,-15.368001 -9.57324,0.309885 -14.71775,9.037451 -15.07818,15.642121 L 88.257438,109.04613 C 90.60476,88.867101 102.46924,76.80516 123.43569,76.289596 c 20.64493,-0.507657 34.68345,9.961701 35.50329,31.622604 0.22752,6.01113 -3.11279,14.6755 -8.45443,20.25264 z"
             sodipodi:nodetypes="sscccccsscccsss" /><g
             id="g27-2"><path
               id="path18-6"
               style="display:inline;fill:url(#radialGradient22-7);stroke-width:0.499999;stroke-linecap:square"
               d="m 111.65233,90.127937 c -8.39528,4.611102 -14.985024,17.590073 -3.18469,20.452973 L 88.257438,109.04613 C 90.60476,88.867101 102.46924,76.80516 123.43569,76.289596 c 20.64493,-0.507657 34.68345,9.961701 35.50329,31.622604 0.25915,-27.45057 -33.16551,-25.540291 -47.28665,-17.784263 z"
               sodipodi:nodetypes="sccscs"
               inkscape:label="shtop" /><path
               id="path14-1"
               style="display:inline;fill:#2c2c2c;fill-opacity:0.0398551;stroke-width:0.499999;stroke-linecap:square"
               d="m 133.93188,127.0653 c -4.44037,4.63614 -11.60934,11.7937 -11.60934,11.7937 -3.27356,3.18709 -4.44953,5.96084 -4.8192,10.01636 l -0.14179,10.11088 -3.47482,-0.0211 0.0609,-12.38625 c 0.25449,-3.44011 1.04461,-6.92183 4.59509,-10.67288 l 17.29027,-17.99875 c 1.3795,-1.43603 2.65854,-5.56018 2.76819,-7.60047 0.17717,-3.29669 -0.32687,-4.99288 -2.29799,-9.31089 2.58774,3.22672 7.71211,6.00291 7.0978,12.70174 -0.48873,5.32943 -4.12747,7.79052 -9.46911,13.36766 z"
               sodipodi:nodetypes="sscccccsscss" /><path
               id="path24-0"
               style="display:inline;fill:#000000;fill-opacity:0.067029;stroke-width:0.499999;stroke-linecap:square"
               d="m 132.89245,126.73457 c -4.44037,4.63614 -11.27862,11.7937 -11.27862,11.7937 -3.27356,3.18709 -4.63851,6.48056 -5.00818,10.53608 l -0.14179,9.92189 -2.57713,-0.0211 0.0609,-12.38625 c 0.25449,-3.44011 1.04461,-6.92183 4.59509,-10.67288 l 17.29027,-17.99875 c 1.3795,-1.43603 2.71974,-5.55781 2.76819,-7.60047 0.0827,-3.48568 -0.30325,-4.9102 -2.27437,-9.22821 2.58774,3.22672 6.41282,5.82574 5.79851,12.52457 -0.48873,5.32943 -3.89123,7.55428 -9.23287,13.13142 z"
               sodipodi:nodetypes="sscccccsscss" /><path
               id="path25-6"
               style="display:inline;fill:#1f1f1f;fill-opacity:0.115942;stroke-width:0.499999;stroke-linecap:square"
               d="m 132.08925,126.30935 c -4.44037,4.63614 -11.32587,11.74645 -11.32587,11.74645 -3.27356,3.18709 -4.30778,6.85854 -4.67745,10.91406 l -0.23628,9.96913 -1.96292,0.0262 0.0609,-12.38625 c 0.25449,-3.44011 1.04461,-6.92183 4.59509,-10.67288 l 17.29027,-17.99875 c 1.3795,-1.43603 2.87202,-5.55987 2.76819,-7.60047 -0.20081,-3.94634 -0.44499,-6.04413 -2.28618,-9.31089 2.58774,3.22672 5.52694,6.05016 4.91263,12.74899 -0.48873,5.32943 -3.79674,6.98732 -9.13838,12.56446 z"
               sodipodi:nodetypes="sscccccsscsss" /><path
               id="path27-0-1"
               style="display:inline;fill:#0b0b0b;fill-opacity:0.0778986;stroke-width:0.499999;stroke-linecap:square"
               d="m 130.67184,126.16761 c -4.14998,4.20656 -10.71166,11.36847 -10.71166,11.36847 -3.27356,3.18709 -4.07154,7.33101 -4.44121,11.38653 l -0.14179,10.20537 -1.49045,-0.16279 0.0609,-12.38625 c 0.25449,-3.44011 1.04461,-6.92183 4.59509,-10.67288 l 17.29027,-17.99875 c 1.3795,-1.43603 2.68197,-5.55905 2.76819,-7.60047 0.14174,-3.35575 -0.35049,-5.06375 -2.32161,-9.38176 2.58774,3.22672 4.96474,6.15536 4.05037,12.81986 -0.59328,4.32416 -3.2359,5.91291 -9.6581,12.42267 z"
               sodipodi:nodetypes="sscccccsscss" /></g></g><g
           id="g45-5"
           inkscape:label="cross"
           transform="translate(3.7072674)"
           style="display:none"><path
             id="rect28-9"
             style="display:inline;fill:#ffffff;stroke-width:0.499999;stroke-linecap:square"
             d="m 86.226158,69.693892 33.935122,33.920298 33.74613,-33.870964 15.47871,15.551543 -33.76305,33.848981 34.05394,33.89484 -15.69062,15.52783 -33.87236,-33.98523 -34.021513,34.05037 -15.466542,-15.48611 33.994535,-34.006 -33.951338,-33.930373 z"
             sodipodi:nodetypes="ccccccccccccc" /><path
             id="rect29-4"
             style="display:inline;fill:url(#linearGradient16);stroke-width:0.499999;stroke-linecap:square"
             d="m 104.57199,119.17844 c 0,0 4.21591,6.27242 0.78887,9.99491 -8.510283,9.24398 -28.91518,29.67114 -28.91518,29.67114 l -5.953124,-5.57515 z"
             sodipodi:nodetypes="csccc" /><path
             id="path37-6-9"
             style="display:inline;fill:url(#linearGradient17);stroke-width:0.499999;stroke-linecap:square"
             d="m 135.7459,119.17844 c 0,0 -4.21591,6.27242 -0.78887,9.99491 8.51028,9.24398 28.91518,29.67114 28.91518,29.67114 l 5.95313,-5.57515 z"
             sodipodi:nodetypes="csccc" /><path
             id="path39-3-0"
             style="display:inline;fill:url(#linearGradient19);stroke-width:0.499999;stroke-linecap:square"
             d="m 120.15898,103.61442 1.20993,9.9648 32.5777,-33.832936 -0.0326,-10.010616 z"
             sodipodi:nodetypes="ccccc" /><path
             id="path41-2-9"
             style="display:inline;fill:url(#linearGradient21);stroke-width:0.499999;stroke-linecap:square"
             d="m 120.16724,103.62033 1.21687,9.92859 -35.156419,-33.991084 -0.0015,-9.864237 z"
             sodipodi:nodetypes="ccccc" /><path
             id="path43-1"
             style="display:inline;fill:url(#linearGradient22);stroke-width:0.499999;stroke-linecap:square"
             d="m 86.226897,69.693542 0.0075,9.870713 -8.731648,12.266044 -6.707031,-6.612108 z"
             sodipodi:nodetypes="ccccc" /><path
             id="path44-7"
             style="display:inline;fill:url(#linearGradient23);stroke-width:0.499999;stroke-linecap:square"
             d="m 153.91992,69.747852 0.0285,9.993204 8.82845,12.209699 6.65116,-6.653692 z"
             sodipodi:nodetypes="ccccc" /></g><g
           id="g1-0-7"
           transform="matrix(0.52373301,0,0,0.52373301,65.054807,63.828694)"><g
             id="g7-7-1"
             style="display:none"
             transform="matrix(1.0148003,0,0,1.0148003,-8.1602246,4.9568114)"><g
               id="g22-1"
               inkscape:label="shadow"
               style="display:inline"><path
                 style="fill:#504c48;fill-opacity:0.0764873;stroke-width:2.80001;stroke-linecap:round;stroke-linejoin:round"
                 d="m 172.98531,67.688892 c 25.01327,53.140888 -25.34114,57.854378 -70.5146,55.684288 l -4.209496,1.34473 -28.015111,-0.80181 v 0.43718 c -2.330758,0.46566 -25.136955,91.17623 -27.111745,91.92211 0.212631,3.04155 -0.191394,6.16018 2.730911,8.86302 l 20.15034,18.87874 c 2.604106,2.35757 5.832731,2.05659 9.354467,2.13785 45.187174,1.0426 84.707744,-6.55807 123.473004,-36.27383 3.21807,-3.22305 6.69198,-7.49642 6.59539,-14.23988 l -1.38064,-96.397735 c 0.20241,-10.199952 -2.21989,-12.511402 -6.14221,-15.664103 0,0 -10.64779,-9.3448 -15.96616,-13.581448 -2.85424,-2.273705 -4.40308,-2.420173 -8.96415,-2.309112 z"
                 id="path23-2-5"
                 sodipodi:nodetypes="ccccccccscscssc" /><path
                 style="fill:#7b7b7b;fill-opacity:0.373938;stroke-width:2.80001;stroke-linecap:round;stroke-linejoin:round"
                 d="m 172.98531,67.688892 c 25.01327,53.140888 -25.34114,57.854378 -70.5146,55.684288 l -4.209496,1.34473 -28.015111,-0.80181 v 0.43718 c -2.330758,0.46566 -24.239262,90.08955 -26.214052,90.83543 0.212631,3.04155 -0.191394,6.16018 2.730911,8.86302 l 17.067006,16.3681 c 2.604106,2.35757 6.534313,3.35954 10.05605,3.44079 45.187172,1.0426 84.858042,-5.73387 123.286632,-35.88374 3.58333,-2.81137 6.71563,-7.49681 6.59539,-14.23988 l -1.71473,-96.16388 c 0.20241,-10.199952 -1.91498,-10.648493 -5.67449,-13.993668 L 182.01628,70.799813 c -2.46414,-2.335377 -4.4699,-3.221982 -9.03097,-3.110921 z"
                 id="path26-0-9"
                 sodipodi:nodetypes="ccccccccssscscc" /><path
                 style="fill:#565656;fill-opacity:0.373938;stroke-width:2.80001;stroke-linecap:round;stroke-linejoin:round"
                 d="m 171.51533,68.089796 c 25.01327,53.140884 -23.87116,57.453474 -69.04462,55.283384 l -4.209496,1.34473 -28.015111,-0.80181 v 0.43718 c -2.330758,0.46566 -23.814038,89.3336 -25.788828,90.07948 0.212631,3.04155 -0.191394,6.16018 2.730911,8.86302 l 13.96098,13.53982 c 2.604106,2.35757 7.23791,5.49711 10.760582,5.50107 44.903682,0.0504 87.101572,-6.64876 125.530162,-36.79863 3.58333,-2.81137 4.94651,-6.46063 4.85814,-13.20421 l -1.247,-95.161614 c 0.20241,-10.199952 -3.24761,-11.264032 -7.07766,-14.528207 L 180.5463,71.200717 c -2.46414,-2.335377 -4.4699,-3.221982 -9.03097,-3.110921 z"
                 id="path27-2-7"
                 sodipodi:nodetypes="ccccccccssscscc" /><path
                 style="fill:#484646;fill-opacity:0.373938;stroke-width:2.80001;stroke-linecap:round;stroke-linejoin:round"
                 d="m 171.44851,68.624335 c 25.01327,53.140885 -23.80434,56.918935 -68.9778,54.748845 l -4.209496,1.34473 -28.015111,-0.80181 v 0.43718 c -2.330758,0.46566 -22.931981,89.57261 -24.906771,90.31849 0.212631,3.04155 -0.191394,6.16018 2.730911,8.86302 l 14.671314,13.53335 c 2.604106,2.35757 6.416071,3.2369 9.97302,3.561 45.246953,2.01902 90.067653,-10.57743 124.090573,-37.59675 3.44104,-2.73271 3.73239,-4.62302 3.65543,-11.36673 l -1.07997,-94.627079 c 0.20241,-10.199952 -2.13084,-10.840809 -5.94176,-14.127303 L 180.47948,71.735256 c -2.46414,-2.335377 -4.4699,-3.221982 -9.03097,-3.110921 z"
                 id="path28-76"
                 sodipodi:nodetypes="cccccccccsscscc" /></g><path
               style="color:#000000;fill:#ffffa5;stroke-linecap:round;stroke-linejoin:round;-inkscape-stroke:none"
               d="M 44.435131,110.74702 C 60.469004,81.25375 138.07685,69.920973 174.89348,69.358632 l 21.79019,20.410714 V 197.75093 c -49.70299,37.03805 -81.19131,37.62426 -130.647333,39.75689 L 44.435131,217.66407 v -59.22266 z"
               id="path12-7" /><path
               style="color:#000000;fill:url(#linearGradient24);stroke-linecap:round;stroke-linejoin:round;-inkscape-stroke:none"
               d="M 44.601189,110.90161 64.444938,127.31312 63.688985,236.61308 44.601189,217.90326 Z"
               id="path10-3-3" /><path
               style="color:#000000;fill:url(#linearGradient25);stroke-linecap:round;stroke-linejoin:round;-inkscape-stroke:none"
               d="m 64.829072,127.75483 c 48.605458,3.3733 91.962188,-8.18896 131.501928,-38.560283 l 1.18118,108.451263 c -55.06579,37.74803 -101.385594,40.6482 -133.400903,39.05476 z"
               id="path8-5-6" /><path
               id="rect9-7-5"
               style="fill:#fefefe;stroke-width:2.80001;stroke-linecap:round;stroke-linejoin:round"
               d="m 64.633926,128.13393 c 50.801714,1.81772 94.372434,-10.82656 131.063244,-37.230659 l -0.42523,10.394349 c -44.36944,33.5518 -80.4918,36.37447 -120.243672,37.41964 v 97.51786 H 64.633926 Z"
               sodipodi:nodetypes="ccccccc"
               inkscape:label="whiteband" /><path
               id="path14-7-6"
               style="display:inline;fill:url(#linearGradient11-9);stroke-width:2.61499;stroke-linecap:round;stroke-linejoin:round"
               d="m 194.70541,88.384278 c -0.0346,2.314672 -9.50996,9.528032 -19.55425,14.803732 -10.04428,5.27569 -22.4432,11.5466 -38.97374,14.53846 -33.0611,5.98372 -60.868719,4.3338 -63.275698,-5.78336 -2.406967,-10.11715 21.498156,-23.547455 54.559238,-29.531172 16.53055,-2.991859 42.19045,-5.171687 53.81097,-3.80761 6.70797,0.787417 13.46136,7.916358 13.43348,9.77995 z"
               sodipodi:nodetypes="sssssss" /><path
               id="path13-3"
               style="color:#000000;display:inline;fill:#dfb32d;stroke-linecap:round;stroke-linejoin:round;-inkscape-stroke:none"
               inkscape:label="framehead"
               d="m 174.87305,67.959159 c -18.53684,0.283134 -47.19799,3.261205 -73.34591,9.886735 -26.147929,6.625532 -49.510364,16.435432 -57.944049,31.948666 -0.11148,0.20507 -0.169924,0.43476 -0.170016,0.66817 l -0.377976,107.2015 c -0.0071,0.52779 0.239252,0.9057 0.586003,1.23816 l 19.749182,16.72662 c 1.02842,1.35155 1.936194,2.12294 3.103391,2.14335 48.423225,1.08538 92.982625,-9.34528 131.831005,-38.97163 0.38487,-0.26431 0.61245,-0.7031 0.6072,-1.16996 -0.50962,-35.95338 -0.39355,-71.57079 -0.39355,-107.526969 0,-0.623173 -0.2797,-1.036084 -0.74548,-1.505148 -7.00893,-6.534386 -14.73735,-13.531516 -21.92312,-20.262772 -0.26461,-0.247131 -0.61466,-0.382152 -0.97668,-0.376722 z m -0.50798,2.824117 19.58278,18.343067 c -39.6481,27.740207 -80.41511,37.993307 -126.403726,37.209767 -1.149963,-0.0328 -1.676706,-0.34042 -2.52491,-1.05871 L 46.659389,110.18988 c 8.113427,-13.494173 30.282074,-23.225461 55.555561,-29.629423 25.63847,-6.496442 53.85295,-9.452993 72.15012,-9.777181 z m 20.59564,21.0783 c 0.21462,35.149074 0.32246,70.102304 0.32246,105.153784 -55.62992,39.47996 -117.059091,38.16082 -129.151585,37.62177 l -0.230477,-0.21187 0.317589,-105.22798 c 46.199363,0.92721 89.123633,-9.75344 128.742013,-37.335704 z m -148.580891,21.731714 15.338377,12.24952 0.46029,105.40428 -16.176643,-14.04588 z"
               sodipodi:nodetypes="cssccccccccccccccccscccccccccccc" /><path
               id="path15-5-9"
               style="fill:#8a611e;stroke-width:2.80001;stroke-linecap:round;stroke-linejoin:round"
               d="m 174.05803,93.454613 c -0.0344,6.252893 -7.54475,12.945677 -17.76488,12.189727 -8.11908,-0.60054 -12.80247,-5.10709 -13.41815,-8.787941 -1.60101,-9.571693 10.94652,-13.701637 19.08779,-13.701638 8.14127,1e-6 12.12709,4.510308 12.09524,10.299852 z"
               sodipodi:nodetypes="sssss" /><path
               id="path16-9-4"
               style="fill:#8a611e;stroke-width:2.92448;stroke-linecap:round;stroke-linejoin:round"
               d="m 95.438296,109.55751 c -0.05202,6.60657 -6.908184,13.50813 -18.302694,12.90677 -8.376072,-0.44206 -12.930354,-4.9905 -13.824372,-9.30488 -2.084796,-10.06086 11.277915,-14.507614 19.665655,-14.507615 8.387739,10e-7 12.505752,5.274635 12.461411,10.905725 z"
               sodipodi:nodetypes="sssss" /><path
               id="rect20-8"
               style="display:inline;fill:url(#linearGradient26);stroke-width:2.80001;stroke-linecap:round;stroke-linejoin:round"
               d="m 132.29167,144.3869 c 3.63396,-0.80362 7.35927,-2.22141 11.2448,-4.53571 v 22.06436 c 0,0 5.69453,0.66993 5.57515,6.75632 -0.17865,9.10804 -5.57515,10.91406 -5.57515,10.91406 v 17.52865 c -3.49609,3.0559 -7.46639,4.68915 -11.71727,5.48066 l 0.11812,-20.59971 c 0,0 -6.87445,2e-4 -6.96894,-6.70907 -0.11093,-7.87613 7.20517,-10.39435 7.20517,-10.39435 z"
               sodipodi:nodetypes="cccsccccscc" /><path
               id="rect18-12"
               style="display:inline;fill:url(#linearGradient28);stroke-width:2.80001;stroke-linecap:round;stroke-linejoin:round"
               d="m 140.30003,141.6702 3.2128,-1.70089 0.0236,21.0958 c 0.0508,-0.0508 6.33981,2.86155 5.85863,7.89025 -0.90229,9.42963 -5.85863,10.53609 -5.85863,10.53609 l 0.0472,17.55226 c -3.31344,3.24515 -9.20071,5.34351 -11.71726,5.52791 v -3.54353 c 2.89159,-0.15537 5.6597,-1.2574 8.36272,-2.85844 l -0.0945,-18.35547 c 0,0 5.29166,-1.77964 5.29166,-8.15011 0,-8.63833 -5.76413,-9.9455 -5.76413,-9.9455 z"
               sodipodi:nodetypes="cccsccccccscc" /><g
               id="g23-22-9"><g
                 id="g24-8-3"
                 inkscape:label="shadow"><path
                   style="display:inline;fill:#716b66;fill-opacity:0.121813;stroke-width:2.80001;stroke-linecap:round;stroke-linejoin:round"
                   d="m 114.55334,-0.49503982 c 2.90103,0 -12.46509,9.35777262 -14.575887,10.38289962 C 81.325886,18.946133 77.561215,36.89442 77.012501,58.397174 l -1.511905,59.247846 c 0,0 6.223688,0.25539 15.024701,-0.94494 6.312418,-0.86092 6.765935,-7.42561 6.765935,-7.42561 L 97.895833,70.114583 C 98.170169,52.345864 127.07427,8.2965641 145.87363,30.390344 c 2.08748,2.453294 3.78733,43.302294 3.78733,43.302294 7.74228,4.831623 19.94575,0.342153 22.43382,-5.764056 0,0 0.2502,-18.446313 -0.0507,-27.39511 C 171.6733,29.505938 173.2123,23.19211 170.10771,17.296938 165.80145,9.1199877 144.91099,3.9361377 137.42994,0.72987469 132.14101,-1.5368813 101.98222,-0.49503982 114.55333,-0.49503982 Z"
                   id="rect22-9"
                   sodipodi:nodetypes="ssscscssccsssss" /><path
                   style="display:inline;fill:#71706e;fill-opacity:0.229462;stroke-width:2.80001;stroke-linecap:round;stroke-linejoin:round"
                   d="m 114.55334,-0.49503985 c 2.90103,0 -14.27455,6.50071925 -16.385354,7.52584625 C 79.516419,16.089079 77.561215,36.89442 77.012501,58.397174 l -1.511905,59.247846 c 0,0 5.15461,0.52266 13.955623,-0.67767 6.312418,-0.86092 6.765935,-7.42561 6.765935,-7.42561 0,0 -0.118714,-26.125089 0.604601,-39.159887 1.38142,-24.894457 30.078585,-63.4120749 49.147105,-41.093996 2.09246,2.449047 3.6871,44.404781 3.6871,44.404781 7.74228,4.831623 19.14394,-0.726925 21.63201,-6.833134 0,0 0.2502,-18.446313 -0.0507,-27.39511 C 170.87149,28.43686 172.41049,22.123032 169.3059,16.22786 164.99964,8.0509097 144.91099,3.9361377 137.42994,0.72987469 132.14101,-1.5368813 101.98222,-0.49503985 114.55333,-0.49503985 Z"
                   id="path29-9-0"
                   sodipodi:nodetypes="ssscscssccsssss" /><path
                   style="display:inline;fill:#716b66;fill-opacity:0.373938;stroke-width:2.80001;stroke-linecap:round;stroke-linejoin:round"
                   d="m 114.55334,-0.49503985 c 2.90103,0 -14.27455,6.50071925 -16.385354,7.52584625 C 79.516419,16.089079 77.561215,36.89442 77.012501,58.397174 l -1.511905,59.247846 c 0,0 4.085532,-0.81369 12.886545,-2.01402 6.312418,-0.86092 6.765935,-7.42561 6.765935,-7.42561 0,0 1.222035,-14.63893 0.604601,-39.159885 C 95.140243,44.52455 124.47466,3.344186 145.94045,28.252188 c 2.10289,2.440103 3.72051,45.44045 3.72051,45.44045 7.74228,4.831623 17.94123,-1.528734 20.4293,-7.634943 0,0 0.2502,-18.446313 -0.0507,-27.39511 -0.37078,-11.027534 1.16822,-17.341362 -1.93637,-23.236534 C 163.79693,7.2491007 144.91099,3.9361377 137.42994,0.72987469 132.14101,-1.5368813 101.98222,-0.49503986 114.55333,-0.49503985 Z"
                   id="path30-7-8"
                   sodipodi:nodetypes="ssscsczsccsssss" /><path
                   style="display:inline;fill:#716b66;fill-opacity:0.373938;stroke-width:2.80001;stroke-linecap:round;stroke-linejoin:round"
                   d="m 114.55334,-0.49503985 c 2.90103,0 -14.27455,6.50071925 -16.385354,7.52584625 C 79.516419,16.089079 77.561215,36.89442 77.012501,58.397174 l -1.511905,59.247846 c 0,0 2.34828,-9.49995 11.149293,-10.70028 6.312418,-0.86092 6.765935,-7.425608 6.765935,-7.425608 0,0 0.516886,-8.922099 1.271988,-32.738738 0.755102,-23.816638 21.721038,-65.236117 51.453088,-39.296606 2.42728,2.117667 3.52006,46.20885 3.52006,46.20885 7.74228,4.831623 16.60488,0.342153 19.09295,-5.764056 0,0 0.2502,-18.446313 -0.0507,-27.39511 -0.37078,-11.027534 1.83639,-17.207727 -1.2682,-23.102899 C 163.12875,9.2536227 144.91099,3.9361377 137.42994,0.72987469 132.14101,-1.5368813 101.98222,-0.49503985 114.55333,-0.49503985 Z"
                   id="path31-3-8"
                   sodipodi:nodetypes="ssscsczsccsssss" /><path
                   style="display:inline;fill:#716b66;fill-opacity:0.373938;stroke-width:2.80001;stroke-linecap:round;stroke-linejoin:round"
                   d="m 114.55334,-0.49503985 c 2.90103,0 -14.27455,6.50071925 -16.385354,7.52584625 C 79.516419,16.089079 77.561215,36.89442 77.012501,58.397174 l -1.511905,59.247846 c 0,0 -0.45805,-0.68005 8.342963,-1.88038 6.312418,-0.86092 6.765935,-7.42561 6.765935,-7.42561 0,0 0.997037,-26.241452 2.033128,-39.255125 3.180144,-39.943771 25.961098,-68.97529796 52.763288,-42.368517 2.28606,2.269394 4.25505,46.97725 4.25505,46.97725 7.74228,4.831623 15.1349,-0.726925 17.62297,-6.833134 0,0 0.2502,-18.446313 -0.0507,-27.39511 -0.37078,-11.027534 2.37093,-16.673188 -0.73366,-22.56836 C 162.19331,8.7190837 144.91099,3.9361377 137.42994,0.72987469 132.14101,-1.5368813 101.98222,-0.49503986 114.55333,-0.49503985 Z"
                   id="path32-6-5"
                   sodipodi:nodetypes="ssscscssccsssss" /></g><path
                 id="rect16-1-0"
                 style="display:inline;fill:url(#radialGradient18-0);stroke:#dfb32d;stroke-width:2.80001;stroke-linecap:round;stroke-linejoin:round"
                 d="m 71.54014,77.345325 c 0,-51.098525 5.453649,-58.253922 28.248204,-74.2321391 18.619866,-13.0519017 65.384366,-3.39384397 65.384366,18.8526511 l -0.46066,47.316457 c 0.52892,8.985515 -15.19504,8.602485 -19.89695,1.52969 l 0.9036,-40.701873 C 145.43299,12.329295 118.3271,17.142782 108.51569,22.519084 91.447019,31.872107 91.055775,68.509205 90.492731,81.942756 v 30.127174 c -1.889879,5.35603 -17.732322,5.95435 -20.000177,0 z"
                 sodipodi:nodetypes="csccccscccc" /></g></g><g
             id="g7-9-9"
             style="display:inline"
             transform="matrix(1.0148003,0,0,1.0148003,-7.7651738,5.5791479)"><g
               id="g22-2-6"
               inkscape:label="shadow"
               style="display:inline"><path
                 style="fill:#504c48;fill-opacity:0.0764873;stroke-width:2.80001;stroke-linecap:round;stroke-linejoin:round"
                 d="m 172.98531,67.688892 c 25.01327,53.140888 -25.34114,57.854378 -70.5146,55.684288 l -4.209496,1.34473 -28.015111,-0.80181 v 0.43718 c -2.330758,0.46566 -25.136955,91.17623 -27.111745,91.92211 0.212631,3.04155 -0.191394,6.16018 2.730911,8.86302 l 20.15034,18.87874 c 2.604106,2.35757 5.832731,2.05659 9.354467,2.13785 45.187174,1.0426 84.707744,-6.55807 123.473004,-36.27383 3.21807,-3.22305 6.69198,-7.49642 6.59539,-14.23988 l -1.38064,-96.397735 c 0.20241,-10.199952 -2.21989,-12.511402 -6.14221,-15.664103 0,0 -10.64779,-9.3448 -15.96616,-13.581448 -2.85424,-2.273705 -4.40308,-2.420173 -8.96415,-2.309112 z"
                 id="path23-0-3"
                 sodipodi:nodetypes="ccccccccscscssc" /><path
                 style="fill:#7b7b7b;fill-opacity:0.373938;stroke-width:2.80001;stroke-linecap:round;stroke-linejoin:round"
                 d="m 172.98531,67.688892 c 25.01327,53.140888 -25.34114,57.854378 -70.5146,55.684288 l -4.209496,1.34473 -28.015111,-0.80181 v 0.43718 c -2.330758,0.46566 -24.239262,90.08955 -26.214052,90.83543 0.212631,3.04155 -0.191394,6.16018 2.730911,8.86302 l 17.067006,16.3681 c 2.604106,2.35757 6.534313,3.35954 10.05605,3.44079 45.187172,1.0426 84.858042,-5.73387 123.286632,-35.88374 3.58333,-2.81137 6.71563,-7.49681 6.59539,-14.23988 l -1.71473,-96.16388 c 0.20241,-10.199952 -1.91498,-10.648493 -5.67449,-13.993668 L 182.01628,70.799813 c -2.46414,-2.335377 -4.4699,-3.221982 -9.03097,-3.110921 z"
                 id="path26-2-8"
                 sodipodi:nodetypes="ccccccccssscscc" /><path
                 style="fill:#565656;fill-opacity:0.373938;stroke-width:2.80001;stroke-linecap:round;stroke-linejoin:round"
                 d="m 171.51533,68.089796 c 25.01327,53.140884 -23.87116,57.453474 -69.04462,55.283384 l -4.209496,1.34473 -28.015111,-0.80181 v 0.43718 c -2.330758,0.46566 -23.814038,89.3336 -25.788828,90.07948 0.212631,3.04155 -0.191394,6.16018 2.730911,8.86302 l 13.96098,13.53982 c 2.604106,2.35757 7.23791,5.49711 10.760582,5.50107 44.903682,0.0504 87.101572,-6.64876 125.530162,-36.79863 3.58333,-2.81137 4.94651,-6.46063 4.85814,-13.20421 l -1.247,-95.161614 c 0.20241,-10.199952 -3.24761,-11.264032 -7.07766,-14.528207 L 180.5463,71.200717 c -2.46414,-2.335377 -4.4699,-3.221982 -9.03097,-3.110921 z"
                 id="path27-3-5"
                 sodipodi:nodetypes="ccccccccssscscc" /><path
                 style="fill:#484646;fill-opacity:0.373938;stroke-width:2.80001;stroke-linecap:round;stroke-linejoin:round"
                 d="m 171.44851,68.624335 c 25.01327,53.140885 -23.80434,56.918935 -68.9778,54.748845 l -4.209496,1.34473 -28.015111,-0.80181 v 0.43718 c -2.330758,0.46566 -22.931981,89.57261 -24.906771,90.31849 0.212631,3.04155 -0.191394,6.16018 2.730911,8.86302 l 14.671314,13.53335 c 2.604106,2.35757 6.416071,3.2369 9.97302,3.561 45.246953,2.01902 90.067653,-10.57743 124.090573,-37.59675 3.44104,-2.73271 3.73239,-4.62302 3.65543,-11.36673 l -1.07997,-94.627079 c 0.20241,-10.199952 -2.13084,-10.840809 -5.94176,-14.127303 L 180.47948,71.735256 c -2.46414,-2.335377 -4.4699,-3.221982 -9.03097,-3.110921 z"
                 id="path28-7-6"
                 sodipodi:nodetypes="cccccccccsscscc" /></g><path
               style="color:#000000;fill:#ffffa5;stroke-linecap:round;stroke-linejoin:round;-inkscape-stroke:none"
               d="M 44.435131,110.74702 C 60.469004,81.25375 138.07685,69.920973 174.89348,69.358632 l 21.79019,20.410714 V 197.75093 c -49.70299,37.03805 -81.19131,37.62426 -130.647333,39.75689 L 44.435131,217.66407 v -59.22266 z"
               id="path12-5-1" /><path
               style="color:#000000;fill:url(#linearGradient30);stroke-linecap:round;stroke-linejoin:round;-inkscape-stroke:none"
               d="M 44.601189,110.90161 64.444938,127.31312 63.688985,236.61308 44.601189,217.90326 Z"
               id="path10-9-1" /><path
               style="color:#000000;fill:url(#linearGradient31);stroke-linecap:round;stroke-linejoin:round;-inkscape-stroke:none"
               d="m 64.829072,127.75483 c 48.605458,3.3733 91.962188,-8.18896 131.501928,-38.560283 l 1.18118,108.451263 c -55.06579,37.74803 -101.385594,40.6482 -133.400903,39.05476 z"
               id="path8-2-5" /><path
               id="rect9-2-9"
               style="fill:#fefefe;stroke-width:2.80001;stroke-linecap:round;stroke-linejoin:round"
               d="m 64.633926,128.13393 c 50.801714,1.81772 94.372434,-10.82656 131.063244,-37.230659 l -0.42523,10.394349 c -44.36944,33.5518 -80.4918,36.37447 -120.243672,37.41964 v 97.51786 H 64.633926 Z"
               sodipodi:nodetypes="ccccccc"
               inkscape:label="whiteband" /><path
               id="path14-8-8"
               style="display:inline;fill:url(#linearGradient32);stroke-width:2.61499;stroke-linecap:round;stroke-linejoin:round"
               d="m 194.70541,88.384278 c -0.0346,2.314672 -9.50996,9.528032 -19.55425,14.803732 -10.04428,5.27569 -22.4432,11.5466 -38.97374,14.53846 -33.0611,5.98372 -60.868719,4.3338 -63.275698,-5.78336 -2.406967,-10.11715 21.498156,-23.547455 54.559238,-29.531172 16.53055,-2.991859 42.19045,-5.171687 53.81097,-3.80761 6.70797,0.787417 13.46136,7.916358 13.43348,9.77995 z"
               sodipodi:nodetypes="sssssss" /><path
               id="path13-9-4"
               style="color:#000000;display:inline;fill:#dfb32d;stroke-linecap:round;stroke-linejoin:round;-inkscape-stroke:none"
               inkscape:label="framehead"
               d="m 174.87305,67.959159 c -18.53684,0.283134 -47.19799,3.261205 -73.34591,9.886735 -26.147929,6.625532 -49.510364,16.435432 -57.944049,31.948666 -0.11148,0.20507 -0.169924,0.43476 -0.170016,0.66817 l -0.377976,107.2015 c -0.0071,0.52779 0.239252,0.9057 0.586003,1.23816 l 19.749182,16.72662 c 1.02842,1.35155 1.936194,2.12294 3.103391,2.14335 48.423225,1.08538 92.982625,-9.34528 131.831005,-38.97163 0.38487,-0.26431 0.61245,-0.7031 0.6072,-1.16996 -0.50962,-35.95338 -0.39355,-71.57079 -0.39355,-107.526969 0,-0.623173 -0.2797,-1.036084 -0.74548,-1.505148 -7.00893,-6.534386 -14.73735,-13.531516 -21.92312,-20.262772 -0.26461,-0.247131 -0.61466,-0.382152 -0.97668,-0.376722 z m -0.50798,2.824117 19.58278,18.343067 c -39.6481,27.740207 -80.41511,37.993307 -126.403726,37.209767 -1.149963,-0.0328 -1.676706,-0.34042 -2.52491,-1.05871 L 46.659389,110.18988 c 8.113427,-13.494173 30.282074,-23.225461 55.555561,-29.629423 25.63847,-6.496442 53.85295,-9.452993 72.15012,-9.777181 z m 20.59564,21.0783 c 0.21462,35.149074 0.32246,70.102304 0.32246,105.153784 -55.62992,39.47996 -117.059091,38.16082 -129.151585,37.62177 l -0.230477,-0.21187 0.317589,-105.22798 c 46.199363,0.92721 89.123633,-9.75344 128.742013,-37.335704 z m -148.580891,21.731714 15.338377,12.24952 0.46029,105.40428 -16.176643,-14.04588 z"
               sodipodi:nodetypes="cssccccccccccccccccscccccccccccc" /><path
               id="path15-7-8"
               style="fill:#8a611e;stroke-width:2.80001;stroke-linecap:round;stroke-linejoin:round"
               d="m 174.05803,93.454613 c -0.0344,6.252893 -7.54475,12.945677 -17.76488,12.189727 -8.11908,-0.60054 -12.80247,-5.10709 -13.41815,-8.787941 -1.60101,-9.571693 10.94652,-13.701637 19.08779,-13.701638 8.14127,1e-6 12.12709,4.510308 12.09524,10.299852 z"
               sodipodi:nodetypes="sssss" /><path
               id="path16-3-1"
               style="fill:#8a611e;stroke-width:2.92448;stroke-linecap:round;stroke-linejoin:round"
               d="m 95.438296,109.55751 c -0.05202,6.60657 -6.908184,13.50813 -18.302694,12.90677 -8.376072,-0.44206 -12.930354,-4.9905 -13.824372,-9.30488 -2.084796,-10.06086 11.277915,-14.507614 19.665655,-14.507615 8.387739,10e-7 12.505752,5.274635 12.461411,10.905725 z"
               sodipodi:nodetypes="sssss" /><path
               id="rect20-6-0"
               style="display:inline;fill:url(#linearGradient7-1);stroke-width:2.80001;stroke-linecap:round;stroke-linejoin:round"
               d="m 132.29167,144.3869 c 3.63396,-0.80362 7.35927,-2.22141 11.2448,-4.53571 v 22.06436 c 0,0 5.69453,0.66993 5.57515,6.75632 -0.17865,9.10804 -5.57515,10.91406 -5.57515,10.91406 v 17.52865 c -3.49609,3.0559 -7.46639,4.68915 -11.71727,5.48066 l 0.11812,-20.59971 c 0,0 -6.87445,2e-4 -6.96894,-6.70907 -0.11093,-7.87613 7.20517,-10.39435 7.20517,-10.39435 z"
               sodipodi:nodetypes="cccsccccscc" /><path
               id="rect18-1-3"
               style="display:inline;fill:url(#linearGradient20-5);stroke-width:2.80001;stroke-linecap:round;stroke-linejoin:round"
               d="m 140.30003,141.6702 3.2128,-1.70089 0.0236,21.0958 c 0.0508,-0.0508 6.33981,2.86155 5.85863,7.89025 -0.90229,9.42963 -5.85863,10.53609 -5.85863,10.53609 l 0.0472,17.55226 c -3.31344,3.24515 -9.20071,5.34351 -11.71726,5.52791 v -3.54353 c 2.89159,-0.15537 5.6597,-1.2574 8.36272,-2.85844 l -0.0945,-18.35547 c 0,0 5.29166,-1.77964 5.29166,-8.15011 0,-8.63833 -5.76413,-9.9455 -5.76413,-9.9455 z"
               sodipodi:nodetypes="cccsccccccscc" /><g
               id="g23-2-0"><g
                 id="g24-9-4"
                 inkscape:label="shadow"><path
                   style="display:inline;fill:#716b66;fill-opacity:0.121813;stroke-width:2.80001;stroke-linecap:round;stroke-linejoin:round"
                   d="m 128.92215,11.313152 c -2.8986,-0.118613 -16.5602,2.024669 -18.671,3.049796 C 91.599583,23.421221 77.561215,36.89442 77.012501,58.397174 l -1.511905,59.247846 c 0,0 6.223688,0.25539 15.024701,-0.94494 6.312418,-0.86092 6.765935,-7.42561 6.765935,-7.42561 l 0.604601,-39.159887 c 0.274336,-17.768719 31.602727,-46.598864 50.402087,-24.505084 2.08748,2.453294 3.78733,53.672868 3.78733,53.672868 7.74228,4.831623 19.94575,0.342153 22.43382,-5.764056 0,0 0.2502,-18.446313 -0.0507,-27.39511 -0.37078,-11.027534 0.40634,-27.313495 -2.69825,-33.208667 -4.30626,-8.17695 -11.72844,-13.3608 -19.20949,-16.567063 -5.28893,-2.266756 -11.07789,-4.520328 -23.63849,-5.034319 z"
                   id="rect22-3-4"
                   sodipodi:nodetypes="ssscscssccssss" /><path
                   style="display:inline;fill:#71706e;fill-opacity:0.229462;stroke-width:2.80001;stroke-linecap:round;stroke-linejoin:round"
                   d="m 128.92215,11.313152 c -2.8986,-0.118613 -16.5602,2.024669 -18.671,3.049796 C 91.599583,23.421221 77.561215,36.89442 77.012501,58.397174 l -1.511905,59.247846 c 0,0 5.15461,0.52266 13.955623,-0.67767 6.312418,-0.86092 6.765935,-7.42561 6.765935,-7.42561 l 0.604601,-39.159887 c 0.288586,-18.691656 32.502875,-48.19292 51.571395,-25.874841 2.09246,2.449047 3.6871,54.775355 3.6871,54.775355 7.74228,4.831623 19.14394,-0.726925 21.63201,-6.833134 0,0 0.2502,-18.446313 -0.0507,-27.39511 -0.37078,-11.027534 0.40634,-27.313495 -2.69825,-33.208667 -4.30626,-8.17695 -10.92663,-12.291722 -18.40768,-15.497985 -5.28893,-2.266756 -11.07789,-4.520328 -23.63849,-5.034319 z"
                   id="path29-1-4"
                   sodipodi:nodetypes="ssscscssccsssss" /><path
                   style="display:inline;fill:#716b66;fill-opacity:0.373938;stroke-width:2.80001;stroke-linecap:round;stroke-linejoin:round"
                   d="m 128.92215,11.313152 c -2.8986,-0.118613 -16.5602,2.024669 -18.671,3.049796 C 91.599583,23.421221 77.561215,36.89442 77.012501,58.397174 l -1.511905,59.247846 c 0,0 4.085532,-0.81369 12.886545,-2.01402 6.312418,-0.86092 6.765935,-7.42561 6.765935,-7.42561 l 0.604601,-39.159885 c 0.274336,-17.768719 33.807703,-47.667942 52.607063,-25.574162 2.08748,2.453294 3.72051,55.811024 3.72051,55.811024 7.74228,4.831623 17.94123,-1.528734 20.4293,-7.634943 0,0 0.2502,-18.446313 -0.0507,-27.39511 -0.37078,-11.027534 0.40634,-27.313495 -2.69825,-33.208667 -4.30626,-8.17695 -9.72392,-11.489913 -17.20497,-14.696176 -5.28893,-2.266756 -11.07789,-4.520328 -23.63849,-5.034319 z"
                   id="path30-9-4"
                   sodipodi:nodetypes="ssscscssccsssss" /><path
                   style="display:inline;fill:#716b66;fill-opacity:0.373938;stroke-width:2.80001;stroke-linecap:round;stroke-linejoin:round"
                   d="m 128.92215,11.313152 c -2.8986,-0.118613 -16.5602,2.024669 -18.671,3.049796 C 91.599583,23.421221 77.561215,36.89442 77.012501,58.397174 l -1.511905,59.247846 c 0,0 2.34828,-9.49995 11.149293,-10.70028 6.312418,-0.86092 6.765935,-7.425608 6.765935,-7.425608 l 0.510107,-32.167327 c 0.343877,-21.684851 35.839899,-46.742642 54.639259,-24.648862 2.08748,2.453294 3.52006,56.579424 3.52006,56.579424 7.74228,4.831623 16.60488,0.342153 19.09295,-5.764056 0,0 0.2502,-18.446313 -0.0507,-27.39511 -0.37078,-11.027534 1.07451,-27.17986 -2.03008,-33.075032 -4.30626,-8.17695 -9.05574,-13.494435 -16.53679,-16.700698 -5.28893,-2.266756 -11.07789,-4.520328 -23.63849,-5.034319 z"
                   id="path31-4-7"
                   sodipodi:nodetypes="ssscscssccsssss" /><path
                   style="display:inline;fill:#716b66;fill-opacity:0.373938;stroke-width:2.80001;stroke-linecap:round;stroke-linejoin:round"
                   d="m 128.92215,11.313152 c -2.8986,-0.118613 -16.5602,2.024669 -18.671,3.049796 C 91.599583,23.421221 77.561215,36.89442 77.012501,58.397174 l -1.511905,59.247846 c 0,0 -0.45805,-0.68005 8.342963,-1.88038 6.312418,-0.86092 6.765935,-7.42561 6.765935,-7.42561 L 91.214095,69.17914 C 91.631493,42.144357 129.03084,19.840763 147.8302,41.934543 c 2.08748,2.453294 4.25505,57.347824 4.25505,57.347824 7.74228,4.831623 15.1349,-0.726925 17.62297,-6.833134 0,0 0.2502,-18.446313 -0.0507,-27.39511 -0.37078,-11.027534 1.60905,-26.645321 -1.49554,-32.540493 -4.30626,-8.17695 -8.1203,-12.959896 -15.60135,-16.166159 -5.28893,-2.266756 -11.07789,-4.520328 -23.63849,-5.034319 z"
                   id="path32-7-6"
                   sodipodi:nodetypes="ssscscssccsssss" /></g><path
                 id="rect16-8-3"
                 style="display:inline;fill:url(#radialGradient18-1-4);stroke:#dfb32d;stroke-width:2.80001;stroke-linecap:round;stroke-linejoin:round"
                 d="M 70.492554,68.224701 C 69.763586,39.101608 100.06995,12.032976 117.78682,9.071427 c 25.37624,-4.2418865 49.81018,9.503505 49.81018,31.75 l -0.46066,54.050596 c -4.48629,7.137807 -15.01856,5.820477 -18.37319,-0.755953 l 0.9036,-47.436012 c 0,-14.542822 -19.92532,-21.077396 -32.21066,-15.686012 C 96.912247,40.00965 90.517044,58.003948 89.954,71.437499 v 40.632431 c -1.889879,5.35603 -17.193591,5.95435 -19.461446,0 z"
                 sodipodi:nodetypes="csccccscccc" /></g></g></g><path
           id="rect24-1"
           style="display:none;opacity:1;fill:url(#radialGradient27-7);stroke-width:0.499999;stroke-linecap:square"
           inkscape:label="innershadowshadow"
           d="M 29.671119,57.64137 C 98.735357,43.710631 90.507314,11.008768 123.12573,10.394346 c 32.61841,-0.6144219 37.80816,39.007814 95.72246,45.735119 3.43847,84.905965 -27.18594,154.338995 -82.02083,184.735865 -8.21668,6.60668 -19.28001,6.94735 -27.02529,0 C 71.543774,203.8439 29.996786,172.47333 29.671119,57.64137 Z"
           sodipodi:nodetypes="czcccc" /></g><g
         id="rect1-6-7"
         style="display:inline"
         inkscape:label="frame"><g
           id="g23-9-5"
           inkscape:label="innersh"
           style="display:inline"><path
             style="color:#000000;display:inline;fill:#000000;fill-opacity:0.0564334;stroke-linecap:square;-inkscape-stroke:none"
             d="M 123.87254,4.4813802 C 97.407559,3.7052727 78.739368,46.054408 27.996741,51.650077 24.122486,52.077312 24.700512,54.533157 24.601082,56.449268 18.854694,167.191 80.573444,236.80919 113.38894,247.35803 c 4.36666,1.4037 8.2176,3.34412 10.25674,3.27422 2.03914,-0.0699 4.93997,-1.74105 7.96179,-2.64739 43.83628,-13.14784 98.63986,-102.68566 90.08753,-190.449354 -0.25575,-2.62444 1.84162,-5.739649 -3.5941,-5.973279 C 172.84319,49.61703 150.33753,5.2574877 123.87254,4.4813802 Z M 113.44589,30.37271 c -0.18679,33.013807 6.00639,36.664711 9.75298,39.989181 7.71685,-7.733688 9.62334,-23.292466 9.60045,-39.246541 9.61768,-5.515136 16.23011,30.291719 71.09479,35.550855 C 204.52834,173.46544 166.94843,203.60766 130.50167,221.43372 87.868694,206.78061 47.190119,164.21192 43.789999,67.269208 91.615565,62.935356 102.00404,32.801098 113.44589,30.37271 Z"
             id="path21-2-9"
             sodipodi:nodetypes="sscssssssccccccc" /><path
             style="color:#000000;display:inline;fill:#000000;fill-opacity:0.14447;stroke-linecap:square;-inkscape-stroke:none"
             d="M 123.87254,4.4813802 C 97.407559,3.7052727 78.739368,46.054408 27.996741,51.650077 24.122486,52.077312 24.700512,54.533157 24.601082,56.449268 18.854694,167.191 80.573444,236.80919 113.38894,247.35803 c 4.36666,1.4037 8.2176,3.34412 10.25674,3.27422 2.03914,-0.0699 4.93997,-1.74105 7.96179,-2.64739 43.83628,-13.14784 98.63986,-102.68566 90.08753,-190.449354 -0.25575,-2.62444 1.84162,-5.739649 -3.5941,-5.973279 C 172.84319,49.61703 150.33753,5.2574877 123.87254,4.4813802 Z M 113.32778,28.812862 c -0.18679,33.013807 6.1245,38.224559 9.87109,41.549029 7.71685,-7.733688 9.76508,-25.040606 9.74219,-40.994681 9.61768,-5.515136 17.95926,30.503059 72.82394,35.762195 C 206.39923,171.92864 165.97316,204.64501 129.5264,222.47107 83.491628,208.10144 45.702533,164.46494 42.703317,65.851796 90.528883,61.517944 101.88593,31.24125 113.32778,28.812862 Z"
             id="path20-6"
             sodipodi:nodetypes="sscssssssccccccc" /><path
             style="color:#000000;display:inline;fill:#000000;fill-opacity:0.14447;stroke-linecap:square;-inkscape-stroke:none"
             d="M 123.87254,4.4813802 C 97.407559,3.7052727 78.739368,46.054408 27.996741,51.650077 24.122486,52.077312 24.700512,54.533157 24.601082,56.449268 18.854694,167.191 80.573444,236.80919 113.38894,247.35803 c 4.36666,1.4037 8.2176,3.34412 10.25674,3.27422 2.03914,-0.0699 4.93997,-1.74105 7.96179,-2.64739 43.83628,-13.14784 98.63986,-102.68566 90.08753,-190.449354 -0.25575,-2.62444 1.84162,-5.739649 -3.5941,-5.973279 C 172.84319,49.61703 150.33753,5.2574877 123.87254,4.4813802 Z M 113.60315,27.811297 c -0.18679,33.013807 5.84913,39.226124 9.59572,42.550594 7.71685,-7.733688 9.38711,-26.08004 9.36422,-42.034115 9.61768,-5.515136 18.90419,30.621176 73.76887,35.880312 C 206.96619,171.00732 164.50653,205.92739 128.05977,223.75345 82.025004,209.38382 41.97894,160.6688 41.251515,64.461079 87.840959,60.060409 101.62677,30.406729 113.60315,27.811297 Z"
             id="path22-2-2"
             sodipodi:nodetypes="sscssssssccccccc" /><path
             style="color:#000000;display:inline;fill:#000000;fill-opacity:0.14447;stroke-linecap:square;-inkscape-stroke:none"
             d="M 123.87254,4.4813802 C 97.407559,3.7052727 78.739368,46.054408 27.996741,51.650077 24.122486,52.077312 24.700512,54.533157 24.601082,56.449268 18.854694,167.191 80.573444,236.80919 113.38894,247.35803 c 4.36666,1.4037 8.2176,3.34412 10.25674,3.27422 2.03914,-0.0699 4.93997,-1.74105 7.96179,-2.64739 43.83628,-13.14784 98.63986,-102.68566 90.08753,-190.449354 -0.25575,-2.62444 1.84162,-5.739649 -3.5941,-5.973279 C 172.84319,49.61703 150.33753,5.2574877 123.87254,4.4813802 Z m -9.70243,22.3377288 c -0.18679,33.013807 5.28217,40.218312 9.02876,43.542782 7.71685,-7.733688 9.4816,-26.694251 9.45871,-42.648326 9.61768,-5.515136 21.56722,30.667439 73.97506,35.926575 0.63423,106.79923 -42.2206,142.85421 -78.66736,160.68027 C 81.93051,209.95078 39.606923,161.40379 40.61675,63.726088 84.199412,61.664026 105.76088,25.682026 114.17011,26.819109 Z"
             id="path23-8-1"
             sodipodi:nodetypes="sscssssssccccccc" /></g><path
           style="color:#000000;display:inline;fill:url(#linearGradient33);stroke:none;stroke-width:0.5;stroke-linecap:square;stroke-dasharray:none;stroke-opacity:1"
           d="M 123.87254,4.4813802 C 97.407559,3.7052727 78.739368,46.054408 27.996741,51.650077 24.122486,52.077312 24.700512,54.533157 24.601082,56.449268 18.854694,167.191 80.573444,236.80919 113.38894,247.35803 c 4.36666,1.4037 8.2176,3.34412 10.25674,3.27422 2.03914,-0.0699 4.93997,-1.74105 7.96179,-2.64739 43.83628,-13.14784 98.63986,-102.68566 90.08753,-190.449354 -0.25575,-2.62444 1.84162,-5.739649 -3.5941,-5.973279 C 172.84319,49.61703 150.33753,5.2574877 123.87254,4.4813802 Z M 113.34735,26.79491 c -0.18679,33.013807 6.36479,40.620487 10.11138,43.944957 7.71685,-7.733688 9.71783,-27.402957 9.69494,-43.357032 7.02622,-5.189155 23.58444,30.142111 73.70542,35.803303 C 207.49332,169.98538 161.04858,210.83552 123.53274,223.58346 77.497972,209.21383 37.185692,158.48716 39.665501,62.613528 94.294639,55.255867 100.03461,26.350151 113.34735,26.79491 Z"
           id="path15-1-7"
           sodipodi:nodetypes="sscssssssccccccc" /><path
           style="color:#000000;display:inline;fill:url(#linearGradient34);fill-opacity:0.988235;stroke-linecap:square;-inkscape-stroke:none"
           d="M 123.87254,4.4813802 C 97.407559,3.7052727 78.739368,46.054408 27.996741,51.650077 24.122486,52.077312 24.700512,54.533157 24.601082,56.449268 18.854694,167.191 80.573444,236.80919 113.38894,247.35803 c 4.36666,1.4037 8.2176,3.34412 10.25674,3.27422 2.03914,-0.0699 4.93997,-1.74105 7.96179,-2.64739 43.83628,-13.14784 98.63986,-102.68566 90.08753,-190.449354 -0.25575,-2.62444 1.84162,-5.739649 -3.5941,-5.973279 C 172.84319,49.61703 150.33753,5.2574877 123.87254,4.4813802 Z m -7.85249,13.0927308 c -0.75375,33.013807 3.43223,49.46331 7.17882,52.78778 7.71685,-7.733688 8.0474,-36.089217 8.02451,-52.043292 9.61768,-5.515136 27.527,35.221384 82.39168,40.48052 C 211.77704,171.81237 171.41674,219.05535 123.34375,235.6787 60.86702,212.04865 28.775722,142.51767 33.145412,58.361296 80.691907,56.48266 102.70731,17.129352 116.02005,17.574111 Z"
           id="path9-9-8"
           sodipodi:nodetypes="sscssssssccccccc" /><path
           id="path1-7-5"
           style="color:#000000;display:inline;fill:url(#linearGradient35);fill-opacity:0.988235;stroke-linecap:square;-inkscape-stroke:none"
           d="M 214.68501,56.988031 C 208.65044,189.43977 165.66786,216.06558 123.53536,235.89291 l -0.21096,13.03845 c 2.03914,-0.0699 5.60143,-1.74105 8.62325,-2.64739 43.83624,-13.14782 98.63984,-102.68575 90.08752,-190.449357 z"
           sodipodi:nodetypes="cccccc" /><path
           style="color:#000000;fill:url(#linearGradient36);stroke-linecap:square;-inkscape-stroke:none"
           d="M 123.95313,1.7324219 C 109.23676,1.3008522 97.565027,12.397153 83.345703,23.509766 69.12638,34.622379 52.35183,46.197006 27.695312,48.916016 c -2.522559,0.278176 -4.676758,1.782197 -5.375,3.580078 -0.698241,1.797881 -0.432571,3.188627 -0.464843,3.810547 -2.901139,55.909409 11.229026,101.538479 30.296875,134.544919 19.067848,33.00645 42.786999,53.4649 60.394536,59.125 2.05608,0.66095 4.06139,1.47425 5.89062,2.15039 1.82923,0.67614 3.35318,1.32074 5.30273,1.25391 3.44974,-0.11825 6.0635,-1.98349 8.65821,-2.76172 23.26145,-6.97682 50.2862,-32.52932 68.61358,-67.94511 18.32739,-35.41579 28.42099,-80.8685 24.08108,-125.404499 -0.0473,-0.48542 -0.17345,-1.848302 -0.53841,-4.064453 -0.18249,-1.108076 -0.94857,-2.526497 -2.15235,-3.296875 -1.20377,-0.770378 -2.55514,-1.023758 -4.18359,-1.09375 C 196.46637,47.879526 180.12267,36.766669 165.63477,25.417969 151.14686,14.069268 138.69727,2.1648061 123.95313,1.7324219 Z m -0.16211,5.4980468 c 17.44427,1.0856495 26.11206,14.3861193 38.45312,22.5175783 14.69557,11.511374 32.233,23.552232 55.73828,24.5625 0.84365,0.03626 0.9969,0.133356 1.12695,0.177734 -0.0564,0.314816 0.32255,1.399936 0.50912,3.314453 4.21241,43.227606 -5.59587,87.761056 -23.49123,122.341996 -17.89536,34.58094 -44.73411,59.03583 -65.3089,65.20683 -3.44893,1.03445 -6.63903,2.51166 -7.26758,2.53321 -0.0896,0.003 -1.50934,-0.2885 -3.20703,-0.91602 -1.69769,-0.62752 -3.80271,-1.48576 -6.11328,-2.22852 C 99.022538,239.85151 75.474782,220.22484 56.916016,188.09961 38.35725,155.97438 24.502413,111.424 27.347656,56.591797 c 0.06716,-1.294189 0.09344,-2.089593 0.09961,-2.105469 0.0062,-0.01588 -0.500129,0.04554 0.851562,-0.103516 C 54.384886,51.506159 72.315777,39.110573 86.732422,27.84375 101.14907,16.576927 112.06008,6.5003899 123.79102,7.2304687 Z"
           id="path10-5-7"
           sodipodi:nodetypes="sssscssssssssssssscsccsscssssccss" /></g></g></g></svg>
