<?xml version="1.0" encoding="UTF-8" standalone="no"?>
<!-- Created with Inkscape (http://www.inkscape.org/) -->

<svg
   width="256mm"
   height="256mm"
   viewBox="0 0 256 256"
   version="1.1"
   id="svg1"
   inkscape:version="1.3.2 (091e20ef0f, 2023-11-25)"
   sodipodi:docname="state-offline.svg"
   xml:space="preserve"
   xmlns:inkscape="http://www.inkscape.org/namespaces/inkscape"
   xmlns:sodipodi="http://sodipodi.sourceforge.net/DTD/sodipodi-0.dtd"
   xmlns:xlink="http://www.w3.org/1999/xlink"
   xmlns="http://www.w3.org/2000/svg"
   xmlns:svg="http://www.w3.org/2000/svg"
   xmlns:rdf="http://www.w3.org/1999/02/22-rdf-syntax-ns#"
   xmlns:cc="http://creativecommons.org/ns#"
   xmlns:dc="http://purl.org/dc/elements/1.1/"
   xmlns:a="http://ns.adobe.com/AdobeSVGViewerExtensions/3.0/"><defs
     id="defs1"><linearGradient
       id="linearGradient18"
       inkscape:collect="always"><stop
         style="stop-color:#000000;stop-opacity:0.48254604;"
         offset="0"
         id="stop18" /><stop
         style="stop-color:#000000;stop-opacity:0;"
         offset="1"
         id="stop19" /></linearGradient><linearGradient
       id="linearGradient16"
       inkscape:collect="always"><stop
         style="stop-color:#ffffff;stop-opacity:0;"
         offset="0"
         id="stop16" /><stop
         style="stop-color:#000000;stop-opacity:0;"
         offset="1"
         id="stop17" /></linearGradient><linearGradient
       id="linearGradient13"
       inkscape:collect="always"><stop
         style="stop-color:#000000;stop-opacity:0.10638298;"
         offset="0"
         id="stop11" /><stop
         style="stop-color:#000000;stop-opacity:0;"
         offset="0.5"
         id="stop12" /><stop
         style="stop-color:#000000;stop-opacity:0;"
         offset="1"
         id="stop13" /></linearGradient><linearGradient
       id="linearGradient6"
       inkscape:collect="always"><stop
         style="stop-color:#ffffff;stop-opacity:1;"
         offset="0"
         id="stop6" /><stop
         style="stop-color:#ffffff;stop-opacity:0.80378252;"
         offset="0.2333471"
         id="stop8" /><stop
         style="stop-color:#ffffff;stop-opacity:0.24705882;"
         offset="0.87161535"
         id="stop9" /><stop
         style="stop-color:#ffffff;stop-opacity:0;"
         offset="1"
         id="stop7" /></linearGradient><linearGradient
       id="linearGradient3"
       inkscape:collect="always"><stop
         style="stop-color:#fcfefe;stop-opacity:0.85626286;"
         offset="0"
         id="stop3" /><stop
         style="stop-color:#ffffff;stop-opacity:0.77068555;"
         offset="0.5"
         id="stop10" /><stop
         style="stop-color:#ffffff;stop-opacity:0;"
         offset="1"
         id="stop4" /></linearGradient><radialGradient
       inkscape:collect="always"
       xlink:href="#linearGradient3"
       id="radialGradient4"
       cx="58.286446"
       cy="126.16224"
       fx="58.286446"
       fy="126.16224"
       r="26.598434"
       gradientTransform="matrix(0.83889835,-0.03544227,0.02705181,0.6403009,17.063529,49.714326)"
       gradientUnits="userSpaceOnUse" /><radialGradient
       inkscape:collect="always"
       xlink:href="#linearGradient6"
       id="radialGradient7"
       cx="86.56498"
       cy="111.14995"
       fx="86.56498"
       fy="111.14995"
       r="26.598434"
       gradientTransform="matrix(0.89672082,-0.09239781,0.05411287,0.52516552,4.8448705,70.857739)"
       gradientUnits="userSpaceOnUse" /><radialGradient
       inkscape:collect="always"
       xlink:href="#linearGradient13"
       id="radialGradient10"
       gradientUnits="userSpaceOnUse"
       gradientTransform="matrix(0.83889835,-0.03544227,0.02705181,0.6403009,17.063529,49.714326)"
       cx="107.72797"
       cy="138.9373"
       fx="107.72797"
       fy="138.9373"
       r="26.598434" /><linearGradient
       inkscape:collect="always"
       xlink:href="#linearGradient16"
       id="linearGradient17"
       x1="95.22332"
       y1="149.94122"
       x2="91.257729"
       y2="134.25798"
       gradientUnits="userSpaceOnUse" /><radialGradient
       inkscape:collect="always"
       xlink:href="#linearGradient18"
       id="radialGradient19"
       cx="90.472771"
       cy="155.28856"
       fx="90.472771"
       fy="155.28856"
       r="26.395851"
       gradientTransform="matrix(1,0,0,0.29707766,0,109.1558)"
       gradientUnits="userSpaceOnUse" /><linearGradient
       id="linearGradient1"
       inkscape:collect="always"><stop
         style="stop-color:#750000;stop-opacity:1;"
         offset="0"
         id="stop1" /><stop
         style="stop-color:#ff4e4e;stop-opacity:1;"
         offset="1"
         id="stop2" /></linearGradient><linearGradient
       id="SVGID_XMLID_3__9"
       gradientUnits="userSpaceOnUse"
       gradientTransform="matrix(1.98,0,0,1.98,-126.43,-126.43)"
       x1="63.997601"
       y1="14.0005"
       x2="63.997601"
       y2="63.0005">
<stop
   offset="0%"
   style="stop-color:rgb(255,255,255);stop-opacity: 1"
   id="stop31" />
<stop
   offset="100%"
   style="stop-color:rgb(255,255,255);stop-opacity: 0"
   id="stop32" />
</linearGradient><linearGradient
       id="SVGID_XMLID_2__8"
       gradientUnits="userSpaceOnUse"
       gradientTransform="matrix(1.98,0,0,1.98,-126.43,-126.43)"
       x1="68.054878"
       y1="118.06909"
       x2="23.2307"
       y2="22.761999">
<stop
   offset="0%"
   style="stop-color:rgb(255,84,84);stop-opacity: 1"
   id="stop26" />
<stop
   offset="19.439999999999998%"
   style="stop-color:rgb(249,79,79);stop-opacity: 1"
   id="stop27" />
<stop
   offset="46.650000000000006%"
   style="stop-color:rgb(230,66,66);stop-opacity: 1"
   id="stop28" />
<stop
   offset="78.3%"
   style="stop-color:rgb(201,45,45);stop-opacity: 1"
   id="stop29" />
<stop
   offset="100%"
   style="stop-color:rgb(176,28,28);stop-opacity: 1"
   id="stop30" />
</linearGradient><linearGradient
       id="SVGID_XMLID_1__7"
       gradientUnits="userSpaceOnUse"
       gradientTransform="matrix(1.98,0,0,1.98,-126.43,-126.43)"
       x1="115.60217"
       y1="117.39095"
       x2="13.810602"
       y2="13.381392">
<stop
   offset="0"
   style="stop-color:#ff9090;stop-opacity:1;"
   id="stop21" />
<stop
   offset="0.1944"
   style="stop-color:#fa8080;stop-opacity:1;"
   id="stop22" />
<stop
   offset="0.46650001"
   style="stop-color:#e74f4f;stop-opacity:1;"
   id="stop23" />
<stop
   offset="0.63636678"
   style="stop-color:#9d2323;stop-opacity:1;"
   id="stop24" />
<stop
   offset="1"
   style="stop-color:#881515;stop-opacity:1;"
   id="stop25" />
</linearGradient><linearGradient
       inkscape:collect="always"
       xlink:href="#linearGradient1"
       id="linearGradient2"
       x1="45.729771"
       y1="55.055595"
       x2="-115.23827"
       y2="-115.23321"
       gradientUnits="userSpaceOnUse" /><radialGradient
       id="XMLID_5_"
       cx="64.176804"
       cy="109.55"
       r="54.283699"
       fx="64.176804"
       fy="109.55"
       gradientUnits="userSpaceOnUse"><stop
         offset="0"
         style="stop-color:rgb(0,0,0)"
         id="stop12-5" /><stop
         offset="1"
         style="stop-color:rgb(0,0,0)"
         id="stop13-6" /><a:midPointStop
         offset="0"
         style="stop-color:#000000" /><a:midPointStop
         offset="0.5"
         style="stop-color:#000000" /><a:midPointStop
         offset="1"
         style="stop-color:#000000" /></radialGradient><radialGradient
       id="XMLID_6_"
       cx="56.743698"
       cy="111.867"
       r="103.384"
       fx="56.743698"
       fy="111.867"
       gradientUnits="userSpaceOnUse"><stop
         offset="0"
         style="stop-color:rgb(45,88,164)"
         id="stop14" /><stop
         offset="1"
         style="stop-color:rgb(13,45,96)"
         id="stop15" /><a:midPointStop
         offset="0"
         style="stop-color:#2D58A4" /><a:midPointStop
         offset="0.5"
         style="stop-color:#2D58A4" /><a:midPointStop
         offset="1"
         style="stop-color:#0D2D60" /></radialGradient><radialGradient
       id="XMLID_7_"
       cx="54.6875"
       cy="130.196"
       r="89.127296"
       fx="54.6875"
       fy="130.196"
       gradientUnits="userSpaceOnUse"><stop
         offset="0"
         style="stop-color:rgb(222,225,255)"
         id="stop16-2" /><stop
         offset="0.6292"
         style="stop-color:rgb(43,114,194)"
         id="stop17-9" /><stop
         offset="1"
         style="stop-color:rgb(35,83,164)"
         id="stop18-1" /><a:midPointStop
         offset="0"
         style="stop-color:#DEE1FF" /><a:midPointStop
         offset="0.5"
         style="stop-color:#DEE1FF" /><a:midPointStop
         offset="0.6292"
         style="stop-color:#2B72C2" /><a:midPointStop
         offset="0.5"
         style="stop-color:#2B72C2" /><a:midPointStop
         offset="1"
         style="stop-color:#2353A4" /></radialGradient><radialGradient
       id="XMLID_8_"
       cx="56.745602"
       cy="111.866"
       r="103.377"
       fx="56.745602"
       fy="111.866"
       gradientUnits="userSpaceOnUse"><stop
         offset="0"
         style="stop-color:rgb(45,88,164)"
         id="stop19-2" /><stop
         offset="1"
         style="stop-color:rgb(13,45,96)"
         id="stop20" /><a:midPointStop
         offset="0"
         style="stop-color:#2D58A4" /><a:midPointStop
         offset="0.5"
         style="stop-color:#2D58A4" /><a:midPointStop
         offset="1"
         style="stop-color:#0D2D60" /></radialGradient><radialGradient
       id="XMLID_9_"
       cx="54.6875"
       cy="130.194"
       r="89.125603"
       fx="54.6875"
       fy="130.194"
       gradientUnits="userSpaceOnUse"><stop
         offset="0.2247"
         style="stop-color:rgb(222,225,255)"
         id="stop21-7" /><stop
         offset="0.7472"
         style="stop-color:rgb(23,124,194)"
         id="stop22-0" /><stop
         offset="1"
         style="stop-color:rgb(58,109,189)"
         id="stop23-9" /><a:midPointStop
         offset="0.2247"
         style="stop-color:#DEE1FF" /><a:midPointStop
         offset="0.5"
         style="stop-color:#DEE1FF" /><a:midPointStop
         offset="0.7472"
         style="stop-color:#177CC2" /><a:midPointStop
         offset="0.5"
         style="stop-color:#177CC2" /><a:midPointStop
         offset="1"
         style="stop-color:#3A6DBD" /></radialGradient><linearGradient
       id="XMLID_10_"
       gradientUnits="userSpaceOnUse"
       x1="53.243198"
       y1="29.5557"
       x2="53.243198"
       y2="71.083504"><stop
         offset="3.44828%"
         style="stop-color:rgb(255,255,255)"
         id="stop24-3" /><stop
         offset="100%"
         style="stop-opacity:0;stop-color:rgb(255,255,255)"
         id="stop25-6" /></linearGradient><linearGradient
       id="XMLID_11_"
       gradientUnits="userSpaceOnUse"
       x1="36.0093"
       y1="34.544899"
       x2="101.17"
       y2="164.541"><stop
         offset="0"
         style="stop-color:rgb(255,255,255)"
         id="stop26-0" /><stop
         offset="1"
         style="stop-color:rgb(0,0,0)"
         id="stop27-6" /><a:midPointStop
         offset="0"
         style="stop-color:#FFFFFF" /><a:midPointStop
         offset="0.5"
         style="stop-color:#FFFFFF" /><a:midPointStop
         offset="1"
         style="stop-color:#000000" /></linearGradient></defs><sodipodi:namedview
     id="base"
     pagecolor="#ffffff"
     bordercolor="#000000"
     borderopacity="0.3"
     inkscape:pageopacity="0.0"
     inkscape:pageshadow="2"
     inkscape:zoom="0.98994949"
     inkscape:cx="505.07627"
     inkscape:cy="476.792"
     inkscape:document-units="mm"
     inkscape:showpageshadow="2"
     inkscape:pagecheckerboard="0"
     inkscape:deskcolor="#d1d1d1"
     inkscape:current-layer="svg1" /><metadata
     id="metadata1"><rdf:RDF><cc:Work
         rdf:about=""><dc:format>image/svg+xml</dc:format><dc:type
           rdf:resource="http://purl.org/dc/dcmitype/StillImage" /><cc:license
           rdf:resource="http://creativecommons.org/publicdomain/zero/1.0/" /></cc:Work><cc:License
         rdf:about="http://creativecommons.org/publicdomain/zero/1.0/"><cc:permits
           rdf:resource="http://creativecommons.org/ns#Reproduction" /><cc:permits
           rdf:resource="http://creativecommons.org/ns#Distribution" /><cc:permits
           rdf:resource="http://creativecommons.org/ns#DerivativeWorks" /></cc:License></rdf:RDF></metadata><g
     id="g4"
     inkscape:label="cloud"
     style="display:inline;stroke:none"
     transform="matrix(4.7552179,0,0,4.7552179,-300.85173,-534.59071)"><path
       id="rect4"
       style="display:inline;fill:#7d7d7d;fill-opacity:1;stroke:none;stroke-width:0.1;stroke-linecap:round;stroke-linejoin:round;stroke-miterlimit:2.1;stroke-opacity:1"
       d="m 76.823659,122.93675 c 8.231318,-12.69355 26.269671,-8.42496 30.049111,4.8192 12.64595,1.5823 14.48472,20.69791 -1.32292,21.5919 l -28.962426,0.0709 c -18.978399,-1.8818 -15.401261,-26.88205 0.236235,-26.48197 z"
       sodipodi:nodetypes="ccccc"
       inkscape:label="colorhead" /><path
       id="path10"
       style="display:inline;fill:url(#radialGradient10);fill-opacity:0.856263;stroke:none;stroke-width:0.1;stroke-linecap:round;stroke-linejoin:round;stroke-miterlimit:2.1;stroke-opacity:1"
       d="m 76.823659,122.93675 c 8.231318,-12.69355 26.269671,-8.42496 30.049111,4.8192 12.64595,1.5823 14.48472,20.69791 -1.32292,21.5919 l -28.962426,0.0709 c -18.978399,-1.8818 -15.401261,-26.88205 0.236235,-26.48197 z"
       sodipodi:nodetypes="ccccc"
       inkscape:label="cloudy3" /><path
       id="path6"
       style="display:inline;fill:url(#radialGradient7);fill-opacity:1;stroke:none;stroke-width:0.1;stroke-linecap:round;stroke-linejoin:round;stroke-miterlimit:2.1;stroke-opacity:1"
       d="m 76.823659,122.93675 c 8.231318,-12.69355 26.269671,-8.42496 30.049111,4.8192 12.64595,1.5823 14.48472,20.69791 -1.32292,21.5919 l -28.962426,0.0709 c -18.978399,-1.8818 -15.401261,-26.88205 0.236235,-26.48197 z"
       sodipodi:nodetypes="ccccc"
       inkscape:label="cloudy2" /><path
       id="path1"
       style="display:inline;fill:url(#radialGradient4);fill-opacity:0.856263;stroke:none;stroke-width:0.1;stroke-linecap:round;stroke-linejoin:round;stroke-miterlimit:2.1;stroke-opacity:1"
       d="m 76.823659,122.93675 c 8.231318,-12.69355 26.269671,-8.42496 30.049111,4.8192 12.64595,1.5823 14.48472,20.69791 -1.32292,21.5919 l -28.962426,0.0709 c -18.978399,-1.8818 -15.401261,-26.88205 0.236235,-26.48197 z"
       sodipodi:nodetypes="ccccc"
       inkscape:label="cloudy1" /><path
       id="path13"
       style="display:inline;fill:url(#linearGradient17);stroke:none;stroke-width:0.1;stroke-linecap:round;stroke-linejoin:round;stroke-miterlimit:2.1;stroke-opacity:1"
       d="m 76.823659,122.93675 c 8.231318,-12.69355 26.269671,-8.42496 30.049111,4.8192 12.64595,1.5823 14.48472,20.69791 -1.32292,21.5919 l -28.962426,0.0709 c -18.978399,-1.8818 -15.401261,-26.88205 0.236235,-26.48197 z"
       sodipodi:nodetypes="ccccc"
       inkscape:label="bottomcloud" /><rect
       style="fill:url(#radialGradient19);stroke-width:2.1595;stroke-linecap:round;stroke-linejoin:round;stroke-miterlimit:2.1"
       id="rect17"
       width="52.791702"
       height="15.683235"
       x="64.07692"
       y="147.44695" /></g><g
     transform="matrix(0.42841807,0,0,0.42841807,198.17893,157.82124)"
     id="g37"
     style="display:none">
<path
   style="fill:url(#linearGradient2);fill-rule:nonzero;stroke:none;stroke-width:1.97544;stroke-linecap:butt;stroke-linejoin:miter;stroke-miterlimit:4;stroke-dasharray:none;stroke-dashoffset:0"
   vector-effect="non-scaling-stroke"
   d="m 126.43187,98.77562 c 0,15.27416 -12.38209,27.65625 -27.65625,27.65625 H -98.768973 c -15.274147,0 -27.656247,-12.38209 -27.656247,-27.65625 V -98.768973 c 0,-15.274147 12.3821,-27.656247 27.656247,-27.656247 H 98.77562 c 15.27416,0 27.65625,12.3821 27.65625,27.656247 z"
   stroke-linecap="round"
   id="path21" /><path
   style="fill:url(#SVGID_XMLID_1__7);fill-rule:nonzero;stroke:none;stroke-width:1.97544;stroke-linecap:butt;stroke-linejoin:miter;stroke-miterlimit:4;stroke-dasharray:none;stroke-dashoffset:0"
   vector-effect="non-scaling-stroke"
   d="m -98.768973,-118.52343 c -10.892607,0 -19.754457,8.86185 -19.754457,19.754457 V 98.77562 c 0,10.89261 8.86185,19.75446 19.754457,19.75446 H 98.77562 c 10.89261,0 19.75446,-8.86185 19.75446,-19.75446 V -98.768973 c 0,-10.892607 -8.86185,-19.754457 -19.75446,-19.754457 z"
   stroke-linecap="round"
   id="path25" /><path
   style="fill:url(#SVGID_XMLID_2__8);fill-rule:nonzero;stroke:none;stroke-width:1.97544;stroke-linecap:butt;stroke-linejoin:miter;stroke-miterlimit:4;stroke-dasharray:none;stroke-dashoffset:0"
   vector-effect="non-scaling-stroke"
   d="m -90.683472,-110.39842 c -10.892608,0 -19.752488,8.8579 -19.752488,19.74853 V 90.65259 c 0,10.88866 8.85988,19.74656 19.752488,19.74656 H 90.67827 c 10.89459,0 19.75446,-8.8579 19.75446,-19.74656 V -90.651865 c 0,-10.888655 -8.85987,-19.748535 -19.75446,-19.748535 H -90.683472 Z"
   stroke-linecap="round"
   id="path30" /><path
   style="opacity:0.604819;fill:url(#SVGID_XMLID_3__9);fill-rule:nonzero;stroke:none;stroke-width:1.97544;stroke-linecap:butt;stroke-linejoin:miter;stroke-miterlimit:4;stroke-dasharray:none;stroke-dashoffset:0"
   vector-effect="non-scaling-stroke"
   d="m -90.683472,-102.49664 c -6.534776,0 -11.850698,5.31395 -11.850698,11.84675 v 33.365282 c 0,2.680681 62.18111,59.251528 100.56007,61.238828 55.12878,2.85452 104.50505,-27.04979 104.50505,-33.582583 v -61.023502 c 0,-6.5328 -5.31593,-11.846755 -11.85268,-11.846755 H -90.683472 Z"
   stroke-linecap="round"
   id="path32" /><path
   id="path11"
   style="fill:#000000;fill-opacity:0.478421;fill-rule:evenodd;stroke:none;stroke-width:6.80258;stroke-linecap:round;stroke-linejoin:round;stroke-dasharray:none;stroke-opacity:1;paint-order:markers fill stroke"
   d="m -66.528471,-94.862134 -1.149399,1.149399 c -0.398846,0.153751 -0.817217,0.419034 -1.272039,0.833543 -0.520368,0.474236 -11.414496,11.644681 -20.055757,20.494253 l -11.931204,11.931209 1.905481,1.905484 c 0.198017,0.51359 0.468509,1.001769 0.81245,1.417059 1.29553,1.564253 63.531765,63.4545253 63.714866,63.6366253 L -60.870117,32.871898 c -18.885645,18.38327 -40.575273,39.39469 -40.355073,39.77543 0.26839,0.46406 0.70817,0.85353 1.20964,1.21179 L -66.528035,107.34664 0.16769132,40.651338 66.863431,107.34664 101.27226,72.938228 34.576531,6.2424983 101.27226,-60.45373 66.863861,-94.862134 C 43.255111,-70.932735 26.533181,-54.945924 0.49743132,-29.469422 -14.525999,-44.127877 -62.577572,-91.99301 -64.112621,-92.853373 c -0.306142,-0.171591 -0.584068,-0.314026 -0.865815,-0.458726 z"
   sodipodi:nodetypes="ccscccsccscccccccccscc" /><path
   id="rect1"
   style="fill:#ffffff;fill-opacity:1;fill-rule:evenodd;stroke:none;stroke-width:6.80258;stroke-linecap:round;stroke-linejoin:round;stroke-dasharray:none;stroke-opacity:1;paint-order:markers fill stroke"
   d="m -69.948583,-105.08046 -1.149399,1.1494 c -0.398846,0.15375 -0.817224,0.41904 -1.272046,0.83354 -0.520368,0.47424 -11.414496,11.644682 -20.05575,20.494261 l -11.931212,11.931202 1.90548,1.905486 c 0.19803,0.51359 0.46851,1.001769 0.81246,1.417058 1.29553,1.564254 63.531764,63.4544403 63.714865,63.6365303 L -64.290236,22.653487 c -18.885645,18.38327 -40.575274,39.39469 -40.355074,39.77542 0.26839,0.46407 0.70817,0.85353 1.20965,1.2118 l 33.487505,33.48752 66.6957163,-66.69531 66.6957297,66.69531 34.40883,-34.40841 -66.69573,-66.6957297 66.69573,-66.6961443 -34.4084,-34.408403 c -23.60875,23.929399 -40.33068,39.916211 -66.3664297,65.392687 -15.0234303,-14.658431 -63.0749823,-62.523567 -64.6100323,-63.383927 -0.306142,-0.17158 -0.584061,-0.31402 -0.865814,-0.45873 z"
   sodipodi:nodetypes="ccscccsccscccccccccscc" />
</g><g
     id="g39"
     transform="matrix(1.2626437,0,0,1.2626437,128.0104,74.689173)"><path
       d="m 87.164,106.396 c 0,3.313 -14.998,6 -33.5,6 -18.501,0 -33.5,-2.687 -33.5,-6 0,-3.313 14.999,-6 33.5,-6 18.502,0 33.5,2.687 33.5,6 z"
       style="opacity:0.1;fill:url(#XMLID_5_)"
       id="path13-1" /><g
       id="g29"><g
         id="g23"><radialGradient
           id="radialGradient2"
           cx="56.743698"
           cy="111.867"
           r="103.384"
           fx="56.743698"
           fy="111.867"
           gradientUnits="userSpaceOnUse"><stop
             offset="0"
             style="stop-color:rgb(45,88,164)"
             id="stop1-8" /><stop
             offset="1"
             style="stop-color:rgb(13,45,96)"
             id="stop2-7" /><a:midPointStop
             offset="0"
             style="stop-color:#2D58A4" /><a:midPointStop
             offset="0.5"
             style="stop-color:#2D58A4" /><a:midPointStop
             offset="1"
             style="stop-color:#0D2D60" /></radialGradient><path
           d="m 55.175,24.479 c -23.497,0 -42.61,19.115 -42.61,42.611 0,23.498 19.114,42.612 42.61,42.612 23.498,0 42.612,-19.114 42.612,-42.612 0,-23.496 -19.114,-42.611 -42.612,-42.611 z m 0,83.287 c -22.465,0 -40.674,-18.208 -40.674,-40.676 0,-22.463 18.209,-40.674 40.674,-40.674 22.464,0 40.676,18.211 40.676,40.674 0,22.468 -18.212,40.676 -40.676,40.676 z"
           style="fill:url(#XMLID_6_)"
           id="path15" /><radialGradient
           id="radialGradient5"
           cx="54.6875"
           cy="130.196"
           r="89.127296"
           fx="54.6875"
           fy="130.196"
           gradientUnits="userSpaceOnUse"><stop
             offset="0"
             style="stop-color:rgb(222,225,255)"
             id="stop3-9" /><stop
             offset="0.6292"
             style="stop-color:rgb(43,114,194)"
             id="stop4-2" /><stop
             offset="1"
             style="stop-color:rgb(35,83,164)"
             id="stop5" /><a:midPointStop
             offset="0"
             style="stop-color:#DEE1FF" /><a:midPointStop
             offset="0.5"
             style="stop-color:#DEE1FF" /><a:midPointStop
             offset="0.6292"
             style="stop-color:#2B72C2" /><a:midPointStop
             offset="0.5"
             style="stop-color:#2B72C2" /><a:midPointStop
             offset="1"
             style="stop-color:#2353A4" /></radialGradient><path
           d="m 55.175,28.352 c -21.36,0 -38.737,17.379 -38.737,38.738 0,21.36 17.376,38.739 38.737,38.739 21.361,0 38.739,-17.379 38.739,-38.739 0,-21.359 -17.379,-38.738 -38.739,-38.738 z"
           style="fill:url(#XMLID_7_)"
           id="path18" /><radialGradient
           id="radialGradient7-0"
           cx="56.745602"
           cy="111.866"
           r="103.377"
           fx="56.745602"
           fy="111.866"
           gradientUnits="userSpaceOnUse"><stop
             offset="0"
             style="stop-color:rgb(45,88,164)"
             id="stop6-2" /><stop
             offset="1"
             style="stop-color:rgb(13,45,96)"
             id="stop7-3" /><a:midPointStop
             offset="0"
             style="stop-color:#2D58A4" /><a:midPointStop
             offset="0.5"
             style="stop-color:#2D58A4" /><a:midPointStop
             offset="1"
             style="stop-color:#0D2D60" /></radialGradient><path
           d="m 55.175,26.416 c -22.465,0 -40.674,18.211 -40.674,40.674 0,22.468 18.209,40.676 40.674,40.676 22.464,0 40.676,-18.208 40.676,-40.676 0,-22.463 -18.212,-40.674 -40.676,-40.674 z m 0,79.413 c -21.36,0 -38.737,-17.379 -38.737,-38.739 0,-21.359 17.376,-38.738 38.737,-38.738 21.361,0 38.739,17.379 38.739,38.738 0,21.36 -17.379,38.739 -38.739,38.739 z"
           style="fill:url(#XMLID_8_)"
           id="path20" /><radialGradient
           id="radialGradient10-7"
           cx="54.6875"
           cy="130.194"
           r="89.125603"
           fx="54.6875"
           fy="130.194"
           gradientUnits="userSpaceOnUse"><stop
             offset="0.2247"
             style="stop-color:rgb(222,225,255)"
             id="stop8-5" /><stop
             offset="0.7472"
             style="stop-color:rgb(23,124,194)"
             id="stop9-9" /><stop
             offset="1"
             style="stop-color:rgb(58,109,189)"
             id="stop10-2" /><a:midPointStop
             offset="0.2247"
             style="stop-color:#DEE1FF" /><a:midPointStop
             offset="0.5"
             style="stop-color:#DEE1FF" /><a:midPointStop
             offset="0.7472"
             style="stop-color:#177CC2" /><a:midPointStop
             offset="0.5"
             style="stop-color:#177CC2" /><a:midPointStop
             offset="1"
             style="stop-color:#3A6DBD" /></radialGradient><path
           d="m 55.175,26.416 c -22.465,0 -40.674,18.211 -40.674,40.674 0,22.468 18.209,40.676 40.674,40.676 22.464,0 40.676,-18.208 40.676,-40.676 0,-22.463 -18.212,-40.674 -40.676,-40.674 z m 0,79.413 c -21.36,0 -38.737,-17.379 -38.737,-38.739 0,-21.359 17.376,-38.738 38.737,-38.738 21.361,0 38.739,17.379 38.739,38.738 0,21.36 -17.379,38.739 -38.739,38.739 z"
           style="fill:url(#XMLID_9_)"
           id="path23" /></g><linearGradient
         id="linearGradient28"
         gradientUnits="userSpaceOnUse"
         x1="53.243198"
         y1="29.5557"
         x2="53.243198"
         y2="71.083504"><stop
           offset="3.44828%"
           style="stop-color:rgb(255,255,255)"
           id="stop11-2" /><stop
           offset="100%"
           style="stop-opacity:0;stop-color:rgb(255,255,255)"
           id="stop28-8" /></linearGradient><path
         a:adobe-blending-mode="screen"
         d="M 54.651,68.404 C 70.036,56.834 84.502,52.912 90.842,51.668 84.735,37.658 70.957,27.882 54.928,27.882 c -21.696,0 -39.283,17.904 -39.283,39.986 0,3.469 0.436,6.835 1.251,10.045 6.366,1.195 21.927,2.394 37.755,-9.509 z"
         style="fill:url(#XMLID_10_)"
         id="path25-9" /><g
         id="g28"><linearGradient
           id="linearGradient30"
           gradientUnits="userSpaceOnUse"
           x1="36.0093"
           y1="34.544899"
           x2="101.17"
           y2="164.541"><stop
             offset="0"
             style="stop-color:rgb(255,255,255)"
             id="stop29-7" /><stop
             offset="1"
             style="stop-color:rgb(0,0,0)"
             id="stop30-3" /><a:midPointStop
             offset="0"
             style="stop-color:#FFFFFF" /><a:midPointStop
             offset="0.5"
             style="stop-color:#FFFFFF" /><a:midPointStop
             offset="1"
             style="stop-color:#000000" /></linearGradient><path
           a:adobe-blending-mode="multiply"
           d="M 68.837,96.854 H 45.231 v -2.695 c 0.643,-0.05 1.272,-0.112 1.89,-0.186 0.619,-0.075 1.15,-0.198 1.596,-0.375 0.791,-0.3 1.346,-0.729 1.668,-1.29 0.322,-0.561 0.482,-1.303 0.482,-2.228 V 68.31 c 0,-0.87 -0.2,-1.638 -0.598,-2.3 -0.398,-0.661 -0.898,-1.189 -1.495,-1.588 -0.448,-0.3 -1.128,-0.586 -2.037,-0.859 -0.909,-0.274 -1.738,-0.449 -2.486,-0.525 v -2.696 l 18.387,-0.981 0.563,0.562 V 89.6 c 0,0.871 0.186,1.615 0.557,2.226 0.369,0.609 0.903,1.064 1.595,1.364 0.493,0.223 1.037,0.422 1.63,0.597 0.595,0.175 1.212,0.299 1.854,0.373 v 2.694 M 63.446,45.905 c 0,1.895 -0.729,3.509 -2.188,4.843 -1.46,1.333 -3.187,1.999 -5.184,1.999 -2.023,0 -3.763,-0.666 -5.223,-1.999 -1.46,-1.334 -2.189,-2.949 -2.189,-4.843 0,-1.894 0.729,-3.514 2.189,-4.862 1.459,-1.344 3.2,-2.019 5.223,-2.019 2.021,0 3.754,0.674 5.203,2.019 1.445,1.348 2.169,2.968 2.169,4.862 z"
           style="clip-rule:evenodd;opacity:0.3;fill:url(#XMLID_11_);fill-rule:evenodd"
           id="path27" /><path
           d="M 66.1,95.157 H 42.493 v -2.695 c 0.642,-0.051 1.272,-0.113 1.89,-0.188 0.619,-0.074 1.149,-0.198 1.596,-0.375 0.792,-0.298 1.347,-0.728 1.668,-1.289 0.321,-0.561 0.482,-1.302 0.482,-2.226 v -21.77 c 0,-0.873 -0.2,-1.64 -0.599,-2.3 -0.397,-0.661 -0.897,-1.191 -1.494,-1.59 -0.45,-0.3 -1.128,-0.583 -2.037,-0.86 -0.91,-0.274 -1.739,-0.45 -2.486,-0.523 v -2.696 l 18.387,-0.98 0.563,0.56 V 87.9 c 0,0.874 0.184,1.616 0.557,2.225 0.37,0.611 0.902,1.067 1.593,1.365 0.496,0.225 1.039,0.423 1.632,0.598 0.593,0.175 1.211,0.301 1.854,0.374 v 2.695 m -5.391,-50.95 c 0,1.895 -0.73,3.509 -2.191,4.843 -1.458,1.333 -3.186,2 -5.182,2 -2.021,0 -3.762,-0.666 -5.223,-2 -1.46,-1.333 -2.188,-2.948 -2.188,-4.843 0,-1.893 0.729,-3.515 2.188,-4.861 1.461,-1.346 3.202,-2.02 5.223,-2.02 2.021,0 3.755,0.673 5.202,2.02 1.447,1.347 2.171,2.968 2.171,4.861 z"
           style="fill:#ffffff"
           id="path28" /></g></g></g><circle
     style="fill:#9a9a9a;fill-opacity:1;stroke-width:6.8;stroke-linecap:round;stroke-linejoin:round;stroke-miterlimit:2.1"
     id="path19"
     cx="197.2449"
     cy="158.7581"
     r="53.988441" /><circle
     style="fill:#fcfcfc;fill-opacity:1;stroke-width:6.8;stroke-linecap:round;stroke-linejoin:round;stroke-miterlimit:2.1"
     id="path22"
     cx="168.64706"
     cy="162.2326"
     r="9.8889723" /><circle
     style="fill:#fcfcfc;fill-opacity:1;stroke-width:6.8;stroke-linecap:round;stroke-linejoin:round;stroke-miterlimit:2.1"
     id="circle22"
     cx="199.9176"
     cy="162.2326"
     r="9.8889723" /><circle
     style="fill:#fcfcfc;fill-opacity:1;stroke-width:6.8;stroke-linecap:round;stroke-linejoin:round;stroke-miterlimit:2.1"
     id="circle23"
     cx="230.11906"
     cy="162.2326"
     r="9.8889723" /></svg>
