<?xml version="1.0" encoding="UTF-8" standalone="no"?>
<!-- Created with Inkscape (http://www.inkscape.org/) -->

<svg
   width="256mm"
   height="256mm"
   viewBox="0 0 256 256"
   version="1.1"
   id="svg1"
   inkscape:version="1.3.2 (091e20ef0f, 2023-11-25)"
   xml:space="preserve"
   sodipodi:docname="touchpad_disabled.svg"
   xmlns:inkscape="http://www.inkscape.org/namespaces/inkscape"
   xmlns:sodipodi="http://sodipodi.sourceforge.net/DTD/sodipodi-0.dtd"
   xmlns:xlink="http://www.w3.org/1999/xlink"
   xmlns="http://www.w3.org/2000/svg"
   xmlns:svg="http://www.w3.org/2000/svg"
   xmlns:rdf="http://www.w3.org/1999/02/22-rdf-syntax-ns#"
   xmlns:cc="http://creativecommons.org/ns#"
   xmlns:dc="http://purl.org/dc/elements/1.1/"><defs
     id="defs1"><linearGradient
       id="linearGradient1"
       inkscape:collect="always"><stop
         style="stop-color:#ff0000;stop-opacity:0.92156899;"
         offset="0"
         id="stop1" /><stop
         style="stop-color:#ce1414;stop-opacity:0.94117647;"
         offset="0.48357254"
         id="stop22" /><stop
         style="stop-color:#9e2828;stop-opacity:0.96078432;"
         offset="0.53708947"
         id="stop21" /><stop
         style="stop-color:#b32e2e;stop-opacity:1;"
         offset="1"
         id="stop2" /></linearGradient><linearGradient
       id="linearGradient18"
       inkscape:collect="always"><stop
         style="stop-color:#464646;stop-opacity:1;"
         offset="0"
         id="stop19" /><stop
         style="stop-color:#191919;stop-opacity:1;"
         offset="0.25"
         id="stop26" /><stop
         style="stop-color:#fcfcfc;stop-opacity:1;"
         offset="0.375"
         id="stop27" /><stop
         style="stop-color:#474747;stop-opacity:1;"
         offset="0.46936065"
         id="stop23" /><stop
         style="stop-color:#121212;stop-opacity:1;"
         offset="0.625"
         id="stop28" /><stop
         style="stop-color:#f8f8f8;stop-opacity:1;"
         offset="0.75"
         id="stop24" /><stop
         style="stop-color:#484848;stop-opacity:1;"
         offset="0.875"
         id="stop25" /><stop
         style="stop-color:#060606;stop-opacity:1;"
         offset="1"
         id="stop20" /></linearGradient><linearGradient
       id="linearGradient16"
       inkscape:collect="always"><stop
         style="stop-color:#f2f2f2;stop-opacity:0.16878049;"
         offset="0"
         id="stop17" /><stop
         style="stop-color:#f2f2f2;stop-opacity:0;"
         offset="1"
         id="stop18" /></linearGradient><linearGradient
       id="linearGradient15"
       inkscape:collect="always"><stop
         style="stop-color:#f2f2f2;stop-opacity:0.21853659;"
         offset="0"
         id="stop15" /><stop
         style="stop-color:#f2f2f2;stop-opacity:0;"
         offset="1"
         id="stop16" /></linearGradient><radialGradient
       inkscape:collect="always"
       xlink:href="#linearGradient15"
       id="radialGradient16"
       cx="82.505226"
       cy="195.60403"
       fx="82.505226"
       fy="195.60403"
       r="60.002894"
       gradientTransform="matrix(1.1113569,0.02227138,-0.01033469,0.51570804,-20.64277,82.158157)"
       gradientUnits="userSpaceOnUse" /><radialGradient
       inkscape:collect="always"
       xlink:href="#linearGradient16"
       id="radialGradient18"
       cx="175.20665"
       cy="195.17873"
       fx="175.20665"
       fy="195.17873"
       r="59.201084"
       gradientTransform="matrix(1.2212155,-0.03160224,0.01352427,0.52262269,-36.659397,88.402329)"
       gradientUnits="userSpaceOnUse" /><linearGradient
       inkscape:collect="always"
       xlink:href="#linearGradient18"
       id="linearGradient20"
       x1="-45.289433"
       y1="184.90234"
       x2="253.43277"
       y2="15.186195"
       gradientUnits="userSpaceOnUse" /><linearGradient
       id="light100to0"><stop
         style="stop-color:#ffffff;stop-opacity:0.79848868;"
         offset="0"
         id="stop2764" /><stop
         style="stop-color:#ffffff;stop-opacity:0.0000000;"
         offset="1.0000000"
         id="stop2765" /></linearGradient><linearGradient
       inkscape:collect="always"
       xlink:href="#linearGradient1"
       id="linearGradient2"
       x1="92.030617"
       y1="252.87943"
       x2="193.68213"
       y2="340.64301"
       gradientUnits="userSpaceOnUse" /></defs><sodipodi:namedview
     id="base"
     pagecolor="#ffffff"
     bordercolor="#000000"
     borderopacity="0.3"
     inkscape:pageopacity="0.0"
     inkscape:pageshadow="2"
     inkscape:zoom="0.49497475"
     inkscape:cx="850.54845"
     inkscape:cy="1031.3658"
     inkscape:document-units="mm"
     inkscape:showpageshadow="2"
     inkscape:pagecheckerboard="0"
     inkscape:deskcolor="#d1d1d1"
     inkscape:current-layer="svg1"
     showguides="true"><sodipodi:guide
       position="247.5744,226.13987"
       orientation="0,-1"
       id="guide1"
       inkscape:locked="false" /><sodipodi:guide
       position="122.08631,80.24107"
       orientation="0,-1"
       id="guide2"
       inkscape:locked="false" /><sodipodi:guide
       position="207.8869,50.002976"
       orientation="0,-1"
       id="guide3"
       inkscape:locked="false" /><sodipodi:guide
       position="9.4494044,237.47916"
       orientation="1,0"
       id="guide4"
       inkscape:locked="false" /><sodipodi:guide
       position="45.357141,231.05357"
       orientation="1,0"
       id="guide5"
       inkscape:locked="false" /><sodipodi:guide
       position="215.8244,25.812501"
       orientation="1,0"
       id="guide6"
       inkscape:locked="false" /><sodipodi:guide
       position="182.18452,197.79166"
       orientation="0,-1"
       id="guide7"
       inkscape:locked="false" /><sodipodi:guide
       position="247.5744,142.60714"
       orientation="1,0"
       id="guide8"
       inkscape:locked="false" /><sodipodi:guide
       position="128.88988,154.3244"
       orientation="1,0"
       id="guide9"
       inkscape:locked="false" /><sodipodi:guide
       position="106.21131,137.31547"
       orientation="0,-1"
       id="guide10"
       inkscape:locked="false" /></sodipodi:namedview><metadata
     id="metadata1"><rdf:RDF><cc:Work
         rdf:about=""><dc:format>image/svg+xml</dc:format><dc:type
           rdf:resource="http://purl.org/dc/dcmitype/StillImage" /><cc:license
           rdf:resource="http://creativecommons.org/publicdomain/zero/1.0/" /></cc:Work><cc:License
         rdf:about="http://creativecommons.org/publicdomain/zero/1.0/"><cc:permits
           rdf:resource="http://creativecommons.org/ns#Reproduction" /><cc:permits
           rdf:resource="http://creativecommons.org/ns#Distribution" /><cc:permits
           rdf:resource="http://creativecommons.org/ns#DerivativeWorks" /></cc:License></rdf:RDF></metadata><g
     id="rect1"
     transform="matrix(1.0350232,0,0,1.0350232,-5.5845329,-4.931141)"><path
       style="color:#000000;fill:#727272;fill-opacity:1;stroke-linecap:round;stroke-linejoin:round;-inkscape-stroke:none"
       d="m 44.60119,30.238092 h 171.26036 c 21.29684,0 32.16513,11.121052 32.16513,27.592262 V 176.67108 c 0,17.17469 -13.53596,29.26037 -32.12798,29.26037 H 45.394293 c -27.793191,0 -35.5669119,-10.71662 -35.5669119,-29.86012 V 58.364533 c 0,-24.300885 16.1011029,-28.126441 34.7738089,-28.126441 z"
       id="path12"
       inkscape:label="colorhead" /><rect
       style="fill:#c6c6c6;fill-opacity:1;stroke:none;stroke-width:2.26869;stroke-linecap:round;stroke-linejoin:round;stroke-dasharray:none;stroke-opacity:1"
       id="rect13"
       width="9.0027332"
       height="82.024971"
       x="125.34166"
       y="124.35003"
       inkscape:label="middlestroke" /><path
       style="color:#000000;fill:url(#radialGradient16);fill-opacity:1;stroke-linecap:round;stroke-linejoin:round;-inkscape-stroke:none"
       d="m 129.09174,151.10742 v 25.56366 c 0,17.17469 5.44018,29.26037 -13.15184,29.26037 H 45.394293 c -27.793191,0 -35.5669119,-10.71662 -35.5669119,-29.86012 v -26.30062 c 0,-7.55423 119.2643589,-8.18983 119.2643589,1.33671 z"
       id="path14"
       inkscape:label="left"
       sodipodi:nodetypes="sssssss" /><path
       style="color:#000000;fill:url(#radialGradient18);fill-opacity:1;stroke-linecap:round;stroke-linejoin:round;-inkscape-stroke:none"
       d="m 129.50376,151.10742 v 25.56366 c 0,17.17469 -5.44018,29.26037 13.15184,29.26037 h 68.94199 c 27.79319,0 35.56691,-10.71662 35.56691,-29.86012 v -26.30062 c 0,-7.55423 -117.66074,-8.18983 -117.66074,1.33671 z"
       id="path15"
       inkscape:label="right"
       sodipodi:nodetypes="sssssss" /><path
       style="color:#000000;display:inline;fill:url(#linearGradient20);stroke-linecap:round;stroke-linejoin:round;-inkscape-stroke:none"
       d="m 44.601562,27.238281 c -9.541217,0 -18.764882,0.875953 -25.984375,5.410156 C 11.397695,37.182641 6.828125,45.552232 6.828125,58.365234 V 176.07227 c 0,9.97781 2.0822022,18.46767 8.310547,24.29882 6.228345,5.83116 15.973694,8.56055 30.255859,8.56055 H 215.89844 c 19.89209,0 35.1289,-13.50883 35.1289,-32.25977 V 57.830078 c 0,-8.895432 -3.03025,-16.751856 -9.08984,-22.203125 -6.05959,-5.451269 -14.90557,-8.388672 -26.07617,-8.388672 z m 0,6 H 215.86133 c 10.12622,0 17.36374,2.62256 22.0625,6.84961 4.69875,4.227049 7.10351,10.166425 7.10351,17.742187 V 176.67187 c 0,15.59841 -11.83699,26.25977 -29.1289,26.25977 H 45.394531 c -13.510997,0 -21.549447,-2.62839 -26.15625,-6.94141 -4.606802,-4.31302 -6.410156,-10.7523 -6.410156,-19.91796 V 58.365234 c 0,-11.487858 3.479293,-17.18293 8.978516,-20.636718 5.499223,-3.453788 13.663452,-4.490235 22.794921,-4.490235 z"
       id="path11"
       inkscape:label="frame" /><path
       style="color:#000000;fill:#949494;fill-opacity:1;stroke-linecap:round;stroke-linejoin:round;-inkscape-stroke:none"
       d="m 44.601562,29.423724 c -9.455848,0.0099 -18.258757,0.976451 -25.11986,5.285568 C 12.620599,39.018409 8.9993026,45.828312 9.0135683,58.365234 L 9.1472031,175.805 c 0.011161,9.8086 1.8899039,17.13489 7.7804279,22.64977 5.890523,5.51488 14.345396,8.01846 28.4669,8.02416 l 170.503909,0.0688 c 19.35039,0.008 32.94832,-11.59269 32.93396,-29.68685 L 248.7379,57.830098 c -0.007,-8.620497 -2.52173,-15.132274 -8.29781,-20.328497 -5.77608,-5.196224 -13.43677,-8.268814 -24.38978,-8.257348 z m 0,2.564557 H 215.86133 c 10.3438,0 17.91617,2.687827 22.89844,7.169922 4.98226,4.482095 7.51757,10.821182 7.51757,18.671875 V 176.67187 c 0,16.25519 -12.54529,27.50977 -30.3789,27.50977 H 45.394531 c -13.671657,0 -22.065141,-2.65 -27.009765,-7.2793 -4.944624,-4.62929 -6.806641,-11.49521 -6.806641,-20.83007 V 58.365234 c 0,-11.76393 3.706841,-18.016438 9.564453,-21.695312 5.857613,-3.678875 14.242151,-4.681641 23.458984,-4.681641 z"
       id="path13"
       sodipodi:nodetypes="ssssssssssssssssssssssss" /></g><g
     id="g2"
     style="display:inline"
     transform="translate(-19.777945,-101.82969)"><g
       id="g1"
       inkscape:label="shadow"><path
         id="rect2"
         style="fill:#444444;fill-opacity:0.405797;stroke-width:7.2;stroke-linecap:round;stroke-linejoin:round"
         d="m 97.858043,247.23431 34.264867,-0.91252 -0.31203,9.0003 8.2406,-0.35413 -0.0448,8.73303 9.0424,0.1804 0.22252,8.19849 15.72414,0.71495 0.48978,-9.97584 8.77514,-0.35414 -0.061,-7.91596 7.79664,-0.37391 -0.14086,-7.64996 34.25497,-0.18493 -0.0856,8.85907 -8.49555,-0.0234 -0.0856,8.76457 -7.91076,0.0244 0.009,8.10312 -8.39215,0.0478 0.1979,8.52834 -9.05359,0.37849 -0.18008,8.3866 0.20682,8.26873 -7.67753,-0.40134 0.26919,8.72939 -0.46102,7.68996 7.77815,1.07538 0.50211,7.68996 7.30568,0.22493 -0.25384,7.6191 9.90427,0.13043 -0.25384,9.36724 8.50535,0.0985 0.0204,7.90914 7.91882,-0.15256 0.24824,9.837 -33.68155,0.056 -0.30529,-9.43211 -12.30556,0.18959 -0.30529,-8.09576 -9.66251,0.18959 -0.12695,-9.69938 -11.53847,0.1896 0.22251,9.00029 -9.13193,-0.0869 -0.57929,8.1985 -7.5283,0.98221 -0.84657,8.46576 -41.742065,0.0133 0.219327,-8.9402 9.23681,-0.0209 -0.08233,-8.20553 8.156858,-0.24804 -0.25986,-8.9415 9.04449,-0.54774 0.0742,-7.31889 8.95331,-0.0354 -0.21261,-8.49265 7.86663,0.22442 -0.0709,-9.50846 7.96112,-0.0591 0.11812,-7.80757 -8.29185,-0.15355 0.25985,-7.84301 -7.67764,-0.0945 0.16537,-9.6384 -9.75651,-0.0945 -0.0236,-7.9375 h -7.11071 l -0.21261,-8.12649 -9.095093,0.37798 z"
         sodipodi:nodetypes="ccccccccccccccccccccccccccccccccccccccccccccccccccccccccccccccccccccccccc" /><path
         id="path21"
         style="fill:#444444;fill-opacity:0.405797;stroke-width:7.2;stroke-linecap:round;stroke-linejoin:round"
         d="m 91.508039,243.00095 34.264831,-0.91252 -0.31203,9.0003 8.2406,-0.35413 -0.0448,8.73303 9.0424,0.1804 0.22252,8.19849 15.72414,0.71495 0.48978,-9.97584 8.77514,-0.35414 -0.061,-7.91596 7.79664,-0.37391 -0.14086,-7.64996 34.25497,-0.18493 -0.0856,8.85907 -8.49555,-0.0234 -0.0856,8.76457 -7.91076,0.0244 0.009,8.10312 -8.39215,0.0478 -0.0383,8.71733 0.0651,8.45773 -9.4405,0.11837 0.5848,8.26873 -7.67753,-0.40134 0.26919,8.72939 -0.46102,7.68996 7.77815,1.07538 0.50211,7.68996 7.30568,0.22493 -0.25384,7.6191 9.90427,0.13043 -0.25384,9.36724 8.50535,0.0985 -0.0464,7.3746 8.18609,0.0479 0.0478,8.96838 -33.68155,0.45687 -0.30529,-8.6303 -12.30556,0.18959 -0.30529,-8.09576 -9.66251,0.18959 -0.12695,-9.69938 -11.53847,0.1896 0.22251,9.00029 -9.13193,-0.0869 -0.57929,8.1985 -7.5283,0.98221 -0.84657,8.46576 -41.742029,0.0133 0.219327,-8.9402 9.23681,-0.0209 -0.08233,-8.20553 8.156825,-0.24804 -0.25986,-8.9415 9.044487,-0.54774 0.0742,-7.31889 8.95331,-0.0354 -0.21261,-8.49265 7.86663,0.22442 -0.0709,-9.50846 7.96112,-0.0591 0.11812,-7.80757 -8.29185,-0.15355 0.25985,-7.84301 -7.67764,-0.0945 0.16537,-9.6384 -9.75651,-0.0945 -0.0236,-7.9375 h -7.11071 l -0.21261,-8.12649 -9.095057,0.37798 z"
         sodipodi:nodetypes="ccccccccccccccccccccccccccccccccccccccccccccccccccccccccccccccccccccccccc" /></g><path
       id="path1"
       style="fill:url(#linearGradient2);stroke-width:7.2;stroke-linecap:round;stroke-linejoin:round"
       d="m 84.099701,234.53423 33.697829,-0.53454 0.25493,8.62232 8.14611,0.0239 0.0497,8.35505 9.0424,0.1804 0.22252,8.19849 15.72414,0.71495 0.48978,-9.97584 8.77514,-0.35414 -0.061,-7.91596 7.79664,-0.37391 -0.14086,-7.64996 34.25497,-0.18493 -0.0856,8.45817 0.45798,8.66286 -9.03913,0.47921 0.10733,8.44339 -8.00909,-0.31587 -1.24269,9.13496 -8.18002,-0.51157 0.19292,8.61656 -8.19817,0.10124 0.20682,8.06828 -8.21207,-0.20089 -0.0649,8.72939 0.40761,8.82586 7.77815,-0.0605 0.50211,7.68996 7.30568,0.22493 -0.25384,8.44592 9.38455,-0.34204 -0.25384,9.01289 8.64709,0.0985 -0.11725,7.3746 8.92039,0.51561 -0.23766,9.70337 -33.68155,-0.74584 0.26167,-8.6303 -9.09276,0.18959 0.26168,-8.09576 -10.08774,0.18959 -0.0797,-9.69938 -15.50722,0.1896 0.22251,10.13422 -9.13193,-0.0869 0.22391,8.104 -8.3315,-0.0572 -0.84657,8.46576 -41.741987,0.0133 0.219327,-8.9402 9.23681,-0.0209 -0.08233,-8.20553 8.156827,-0.24804 -0.259859,-8.9415 9.044442,-0.54774 0.0742,-7.31889 8.95331,-0.0354 -0.21261,-8.49265 7.86663,0.22442 -0.0709,-9.50846 7.96112,-0.0591 0.11812,-7.80757 -8.29185,-0.15355 0.25985,-7.84301 -7.67764,-0.0945 0.16537,-9.6384 -9.75651,-0.0945 -0.0236,-7.9375 -7.110671,-0.18899 -0.212612,-7.9375 -9.095052,0.37798 z"
       sodipodi:nodetypes="ccccccccccccccccccccccccccccccccccccccccccccccccccccccccccccccccccccccccc" /><g
       id="g20"><rect
         style="fill:#fa4040;fill-opacity:0.776471;stroke-width:7.2;stroke-linecap:round;stroke-linejoin:round"
         id="rect3"
         width="33.874439"
         height="8.2853546"
         x="84.062981"
         y="234.39537"
         rx="0"
         ry="0" /><rect
         style="fill:#ff8888;fill-opacity:1;stroke-width:7.2;stroke-linecap:round;stroke-linejoin:round"
         id="rect4"
         width="17.238884"
         height="8.6862545"
         x="100.62697"
         y="242.68073" /><rect
         style="fill:#fb6664;fill-opacity:1;stroke-width:7.2;stroke-linecap:round;stroke-linejoin:round"
         id="rect5"
         width="7.9303041"
         height="9.0480566"
         x="117.82"
         y="250.99852" /><rect
         style="fill:#ff6a6a;fill-opacity:1;stroke-width:7.2;stroke-linecap:round;stroke-linejoin:round"
         id="rect6"
         width="8.7321072"
         height="8.2853699"
         x="126.23899"
         y="259.25143" /><rect
         style="fill:#ff5858;fill-opacity:1;stroke-width:7.2;stroke-linecap:round;stroke-linejoin:round"
         id="rect7"
         width="8.5526199"
         height="8.2395039"
         x="117.73222"
         y="259.43094" /><rect
         style="fill:#fb5a59;fill-opacity:1;stroke-width:7.2;stroke-linecap:round;stroke-linejoin:round"
         id="rect8"
         width="9.7046833"
         height="8.8707418"
         x="126.01758"
         y="267.638" /><rect
         style="fill:#f97675;fill-opacity:1;stroke-width:7.2;stroke-linecap:round;stroke-linejoin:round"
         id="rect9"
         width="7.8844519"
         height="8.9535637"
         x="135.37201"
         y="267.26953" /><rect
         style="fill:#d67373;fill-opacity:1;stroke-width:7.2;stroke-linecap:round;stroke-linejoin:round"
         id="rect10"
         width="8.652688"
         height="8.2881279"
         x="134.89954"
         y="259.47006" /><rect
         style="fill:#fb8686;fill-opacity:1;stroke-width:7.2;stroke-linecap:round;stroke-linejoin:round"
         id="rect11"
         width="8.4190006"
         height="8.0180988"
         x="143.12283"
         y="259.65234" /><rect
         style="fill:#fd6a67;fill-opacity:1;stroke-width:7.2;stroke-linecap:round;stroke-linejoin:round"
         id="rect12"
         width="8.9859619"
         height="9.6406898"
         x="151.10849"
         y="249.87802" /><rect
         style="fill:#ff5252;fill-opacity:1;stroke-width:7.2;stroke-linecap:round;stroke-linejoin:round"
         id="rect14"
         width="8.8131733"
         height="8.428483"
         x="151.63632"
         y="259.35266" /><rect
         style="fill:#ff8888;fill-opacity:1;stroke-width:7.2;stroke-linecap:round;stroke-linejoin:round"
         id="rect15"
         width="8.3177605"
         height="9.3477192"
         x="159.88925"
         y="249.85509" /><rect
         style="fill:#ff5b5b;fill-opacity:1;stroke-width:7.2;stroke-linecap:round;stroke-linejoin:round"
         id="rect16"
         width="8.4351969"
         height="8.2070827"
         x="159.8501"
         y="241.6413" /><rect
         style="fill:#ff7979;fill-opacity:1;stroke-width:7.2;stroke-linecap:round;stroke-linejoin:round"
         id="rect17"
         width="7.8749499"
         height="8.5526142"
         x="168.23946"
         y="241.4523" /><rect
         style="fill:#fd7d7d;fill-opacity:0.996078;stroke-width:7.2;stroke-linecap:round;stroke-linejoin:round"
         id="rect18"
         width="9.2532091"
         height="8.6700459"
         x="175.98077"
         y="241.46852" /><rect
         style="fill:#f53e3e;fill-opacity:0.792157;stroke-width:7.2;stroke-linecap:round;stroke-linejoin:round"
         id="rect19"
         width="17.105255"
         height="8.2853632"
         x="176.46471"
         y="233.7272" /><rect
         style="fill:#ff8888;fill-opacity:1;stroke-width:7.2;stroke-linecap:round;stroke-linejoin:round"
         id="rect20"
         width="8.6194496"
         height="8.4857979"
         x="193.56995"
         y="233.59357" /></g></g></svg>
