<?xml version="1.0" encoding="UTF-8" standalone="no"?>
<svg
   version="1.1"
   width="1080"
   height="1080"
   viewBox="0 0 1080 1080"
   xml:space="preserve"
   id="svg10"
   sodipodi:docname="emblem-favorite.svg"
   inkscape:version="1.3.2 (091e20ef0f, 2023-11-25)"
   xmlns:inkscape="http://www.inkscape.org/namespaces/inkscape"
   xmlns:sodipodi="http://sodipodi.sourceforge.net/DTD/sodipodi-0.dtd"
   xmlns="http://www.w3.org/2000/svg"
   xmlns:svg="http://www.w3.org/2000/svg"><sodipodi:namedview
   id="namedview10"
   pagecolor="#ffffff"
   bordercolor="#000000"
   borderopacity="0.25"
   inkscape:showpageshadow="2"
   inkscape:pageopacity="0.0"
   inkscape:pagecheckerboard="0"
   inkscape:deskcolor="#d1d1d1"
   inkscape:zoom="1.137037"
   inkscape:cx="540"
   inkscape:cy="540"
   inkscape:current-layer="svg10" />
<desc
   id="desc1">Created with Fabric.js 5.2.4</desc>
<defs
   id="defs1">


		
		
		
		
		
		

<linearGradient
   id="SVGID_XMLID_13__5"
   gradientUnits="userSpaceOnUse"
   x1="62.527344"
   y1="37.891567"
   x2="98.008102"
   y2="104.11658"
   gradientTransform="matrix(12.93,0,0,12.93,-644.6107,-648.6774)">
<stop
   offset="0%"
   style="stop-color:rgb(255,255,255);stop-opacity: 1"
   id="stop5" />
<stop
   offset="100%"
   style="stop-color:rgb(255,255,255);stop-opacity: 0"
   id="stop6" />
</linearGradient>


<linearGradient
   id="SVGID_XMLID_14__6"
   gradientUnits="userSpaceOnUse"
   x1="93.111298"
   y1="144.1152"
   x2="91.600502"
   y2="98.790298"
   gradientTransform="matrix(12.93,0,0,12.93,-644.5592,-648.7688)">
<stop
   offset="0%"
   style="stop-color:rgb(255,255,255);stop-opacity: 1"
   id="stop7" />
<stop
   offset="100%"
   style="stop-color:rgb(255,255,255);stop-opacity: 0"
   id="stop8" />
</linearGradient>


<radialGradient
   id="SVGID_XMLID_11__3"
   gradientUnits="userSpaceOnUse"
   cx="94.323196"
   cy="50.379398"
   r="61.592602"
   fx="94.323196"
   fy="50.379398"
   gradientTransform="matrix(12.93,0,0,12.93,-644.5766,-648.7742)">
<stop
   offset="0%"
   style="stop-color:rgb(255,192,184);stop-opacity: 1"
   id="stop1" />
<stop
   offset="100%"
   style="stop-color:rgb(255,0,0);stop-opacity: 1"
   id="stop2" />
</radialGradient>


<linearGradient
   id="SVGID_XMLID_12__4"
   gradientUnits="userSpaceOnUse"
   x1="92.014603"
   y1="44.745602"
   x2="90.509804"
   y2="137.7296"
   gradientTransform="matrix(12.93,0,0,12.93,-644.6466,-648.7842)">
<stop
   offset="0%"
   style="stop-color:rgb(242,0,0);stop-opacity: 1"
   id="stop3" />
<stop
   offset="100%"
   style="stop-color:rgb(141,0,0);stop-opacity: 1"
   id="stop4" />
</linearGradient>


<radialGradient
   id="SVGID_radialGradient10_7"
   gradientUnits="userSpaceOnUse"
   gradientTransform="matrix(13.258666,15.677358,-20.928074,17.782782,1147.4942,-2368.2815)"
   cx="82.390617"
   cy="95.014931"
   r="35.417957"
   fx="82.390617"
   fy="95.014931">
<stop
   offset="0%"
   style="stop-color:rgb(0,0,0);stop-opacity: 0"
   id="stop9" />
<stop
   offset="51.891017%"
   style="stop-color:rgb(0,0,0);stop-opacity: 0"
   id="stop10" />
<stop
   offset="0.6754685"
   style="stop-color:#000000;stop-opacity:0.23652695;"
   id="stop11" />
<stop
   offset="0.84996825"
   style="stop-color:#000000;stop-opacity:0.29491019;"
   id="stop12" />
<stop
   offset="1"
   style="stop-color:#000000;stop-opacity:0.57634729;"
   id="stop13" />
</radialGradient>



</defs>



<g
   id="g1"
   transform="matrix(1.1489114,0,0,1.1489114,-81.979745,-87.47987)"><path
     style="display:inline;fill:url(#SVGID_XMLID_11__3);fill-rule:nonzero;stroke:none;stroke-width:12.93;stroke-linecap:butt;stroke-linejoin:miter;stroke-miterlimit:4;stroke-dasharray:none;stroke-dashoffset:0"
     vector-effect="non-scaling-stroke"
     d="M 862.11751,161.43253 C 767.05615,102.56224 647.10454,129.49543 543.949,188.74069 462.47707,130.96945 364.222,90.66664 273.15601,122.07361 107.47099,179.15956 26.749,398.14204 124.39636,583.95907 222.18595,770.09935 502.90918,965.6656 528.1744,968.83345 531.30346,969.20842 837.27898,771.49579 931.96537,618.65026 1042.5169,440.1904 1011.1228,253.7398 862.11751,161.43253 Z"
     stroke-linecap="round"
     id="path2" /><path
     style="display:inline;fill:url(#SVGID_XMLID_12__4);fill-rule:nonzero;stroke:none;stroke-width:12.93;stroke-linecap:butt;stroke-linejoin:miter;stroke-miterlimit:4;stroke-dasharray:none;stroke-dashoffset:0"
     vector-effect="non-scaling-stroke"
     d="m 269.8923,112.81866 c -77.15331,26.60994 -140.23878,89.28165 -173.05512,172.04658 -38.46675,96.98793 -31.58799,207.66873 18.83901,303.63519 99.18603,188.79093 379.96098,386.06394 411.19986,389.99466 16.36938,2.01708 321.76305,-206.95758 413.30745,-354.72162 59.59437,-96.22506 80.7091,-199.09614 59.45214,-289.632 -17.80461,-75.79566 -63.6156,-138.37686 -132.42906,-181.02 C 752.15544,81.86424 617.67051,136.29954 544.35741,177.46866 473.31999,128.07606 369.87999,78.38607 269.8923,112.81866 Z M 132.97653,579.42357 C 105.59079,527.3286 91.76862,470.72106 91.76862,414.64365 c 0,-41.84148 7.69335,-83.3985 23.23521,-122.58933 30.70875,-77.42484 89.4756,-136.01067 161.27589,-160.74576 94.37607,-32.53188 194.55771,17.5848 261.93594,65.39994 l 5.08149,3.6204 5.4306,-3.09027 c 68.30919,-39.25548 199.19958,-95.00964 308.19948,-27.50211 64.30089,39.86319 107.07333,98.25507 123.66252,168.89166 5.08149,21.51552 7.55112,43.81977 7.55112,66.5895 0,67.64976 -22.04565,139.61814 -64.59828,208.27644 C 836.16165,754.57335 557.89512,940.24815 527.16051,958.18206 493.40028,946.11837 228.28356,760.81854 132.97653,579.42357 Z"
     stroke-linecap="round"
     id="path4" /><path
     style="fill:url(#SVGID_XMLID_13__5);fill-rule:nonzero;stroke:none;stroke-width:12.93;stroke-linecap:butt;stroke-linejoin:miter;stroke-miterlimit:4;stroke-dasharray:none;stroke-dashoffset:0"
     vector-effect="non-scaling-stroke"
     d="M 851.97293,167.31282 C 761.66981,112.90338 637.53825,146.47567 539.52885,201.26008 469.0913,144.02044 382.75054,109.50929 303.52381,128.00756 169.21607,159.36644 4.5582163,366.27338 143.88793,576.11971 295.07809,803.82922 241.36932,683.66575 271.15325,739.51438 374.4241,417.21153 710.8369,260.46642 993.13568,451.75611 999.21278,351.7167 954.80082,237.71122 851.97293,167.31282 Z"
     stroke-linecap="round"
     id="path6"
     sodipodi:nodetypes="ccssccc" /><path
     style="display:inline;fill:url(#SVGID_radialGradient10_7);fill-rule:nonzero;stroke:none;stroke-width:12.93;stroke-linecap:butt;stroke-linejoin:miter;stroke-miterlimit:4;stroke-dasharray:none;stroke-dashoffset:0"
     vector-effect="non-scaling-stroke"
     d="M 862.11751,161.43253 C 767.05615,102.56224 647.10454,129.49543 543.949,188.74069 462.47707,130.96945 364.222,90.66664 273.15601,122.07361 107.47099,179.15956 26.749,398.14204 124.39636,583.95907 222.18595,770.09935 502.90918,965.6656 528.1744,968.83345 531.30346,969.20842 837.27898,771.49579 931.96537,618.65026 1042.5169,440.1904 1011.1228,253.7398 862.11751,161.43253 Z"
     stroke-linecap="round"
     id="path13" /></g></svg>
