<?xml version="1.0" encoding="UTF-8" standalone="no"?>
<!-- Created with Inkscape (http://www.inkscape.org/) -->

<svg
   width="256mm"
   height="256mm"
   viewBox="0 0 256 256"
   version="1.1"
   id="svg1"
   inkscape:version="1.3.2 (091e20ef0f, 2023-11-25)"
   xml:space="preserve"
   sodipodi:docname="dialog-cancel.svg"
   xmlns:inkscape="http://www.inkscape.org/namespaces/inkscape"
   xmlns:sodipodi="http://sodipodi.sourceforge.net/DTD/sodipodi-0.dtd"
   xmlns:xlink="http://www.w3.org/1999/xlink"
   xmlns="http://www.w3.org/2000/svg"
   xmlns:svg="http://www.w3.org/2000/svg"
   xmlns:rdf="http://www.w3.org/1999/02/22-rdf-syntax-ns#"
   xmlns:cc="http://creativecommons.org/ns#"
   xmlns:dc="http://purl.org/dc/elements/1.1/"><defs
     id="defs1"><linearGradient
       id="linearGradient60"
       inkscape:collect="always"><stop
         style="stop-color:#ce0606;stop-opacity:1;"
         offset="0"
         id="stop60" /><stop
         style="stop-color:#ce0606;stop-opacity:1;"
         offset="0.11019483"
         id="stop62" /><stop
         style="stop-color:#c10606;stop-opacity:1;"
         offset="0.13551673"
         id="stop63" /><stop
         style="stop-color:#b40505;stop-opacity:1;"
         offset="0.45861793"
         id="stop64" /><stop
         style="stop-color:#ce0606;stop-opacity:1;"
         offset="0.62936002"
         id="stop65" /><stop
         style="stop-color:#ce0606;stop-opacity:1;"
         offset="1"
         id="stop61" /></linearGradient><linearGradient
       id="linearGradient58"
       inkscape:collect="always"><stop
         style="stop-color:#ffffff;stop-opacity:0.31196055;"
         offset="0"
         id="stop58" /><stop
         style="stop-color:#ffffff;stop-opacity:0.21208385;"
         offset="1"
         id="stop59" /></linearGradient><linearGradient
       id="linearGradient57"
       inkscape:collect="always"><stop
         style="stop-color:#909090;stop-opacity:0;"
         offset="0"
         id="stop52" /><stop
         style="stop-color:#161616;stop-opacity:0.50431567;"
         offset="0.78165454"
         id="stop53" /><stop
         style="stop-color:#ffffff;stop-opacity:0.71763253;"
         offset="0.84179407"
         id="stop54" /><stop
         style="stop-color:#ffffff;stop-opacity:0.54870528;"
         offset="0.86177784"
         id="stop55" /><stop
         style="stop-color:#ffffff;stop-opacity:0;"
         offset="0.9039371"
         id="stop56" /><stop
         style="stop-color:#ffffff;stop-opacity:0;"
         offset="1"
         id="stop57" /></linearGradient><linearGradient
       id="linearGradient51"
       inkscape:collect="always"><stop
         style="stop-color:#000000;stop-opacity:0;"
         offset="0"
         id="stop47" /><stop
         style="stop-color:#131313;stop-opacity:0.75709003;"
         offset="0.73200405"
         id="stop48" /><stop
         style="stop-color:#000000;stop-opacity:0.47348952;"
         offset="0.77938837"
         id="stop49" /><stop
         style="stop-color:#000000;stop-opacity:0;"
         offset="0.83048606"
         id="stop50" /><stop
         style="stop-color:#000000;stop-opacity:0;"
         offset="1"
         id="stop51" /></linearGradient><linearGradient
       id="linearGradient41"
       inkscape:collect="always"><stop
         style="stop-color:#ffffff;stop-opacity:0;"
         offset="0"
         id="stop42" /><stop
         style="stop-color:#131313;stop-opacity:0.75709003;"
         offset="0.73200405"
         id="stop44" /><stop
         style="stop-color:#ffffff;stop-opacity:0.88162762;"
         offset="0.80218935"
         id="stop45" /><stop
         style="stop-color:#ffffff;stop-opacity:0;"
         offset="0.86497086"
         id="stop46" /><stop
         style="stop-color:#ffffff;stop-opacity:0;"
         offset="1"
         id="stop43" /></linearGradient><linearGradient
       id="linearGradient35"
       inkscape:collect="always"><stop
         style="stop-color:#909090;stop-opacity:0;"
         offset="0"
         id="stop36" /><stop
         style="stop-color:#161616;stop-opacity:0.50431567;"
         offset="0.80945247"
         id="stop38" /><stop
         style="stop-color:#000000;stop-opacity:0.71763253;"
         offset="0.84179407"
         id="stop39" /><stop
         style="stop-color:#000000;stop-opacity:0.54870528;"
         offset="0.86177784"
         id="stop40" /><stop
         style="stop-color:#000000;stop-opacity:0;"
         offset="0.9039371"
         id="stop41" /><stop
         style="stop-color:#010101;stop-opacity:0;"
         offset="1"
         id="stop37" /></linearGradient><linearGradient
       id="linearGradient25"
       inkscape:collect="always"><stop
         style="stop-color:#000000;stop-opacity:0;"
         offset="0"
         id="stop25" /><stop
         style="stop-color:#000000;stop-opacity:0.41060418;"
         offset="0.47304466"
         id="stop30" /><stop
         style="stop-color:#000000;stop-opacity:0.59802711;"
         offset="0.4765918"
         id="stop27" /><stop
         style="stop-color:#000000;stop-opacity:0.43279901;"
         offset="0.48982742"
         id="stop28" /><stop
         style="stop-color:#000000;stop-opacity:0.17016029;"
         offset="0.50103569"
         id="stop31" /><stop
         style="stop-color:#000000;stop-opacity:0;"
         offset="0.51224399"
         id="stop29" /><stop
         style="stop-color:#000000;stop-opacity:0.00123305;"
         offset="1"
         id="stop26" /></linearGradient><linearGradient
       id="linearGradient23"
       inkscape:collect="always"><stop
         style="stop-color:#feffff;stop-opacity:0;"
         offset="0"
         id="stop23" /><stop
         style="stop-color:#feffff;stop-opacity:0;"
         offset="0.45780307"
         id="stop32" /><stop
         style="stop-color:#feffff;stop-opacity:0.39704069;"
         offset="0.4785662"
         id="stop33" /><stop
         style="stop-color:#feffff;stop-opacity:0.33908755;"
         offset="0.52246851"
         id="stop34" /><stop
         style="stop-color:#feffff;stop-opacity:0.03529412;"
         offset="0.52844846"
         id="stop35" /><stop
         style="stop-color:#feffff;stop-opacity:0;"
         offset="1"
         id="stop24" /></linearGradient><linearGradient
       id="linearGradient10"
       inkscape:collect="always"><stop
         style="stop-color:#ffffff;stop-opacity:0;"
         offset="0"
         id="stop7" /><stop
         style="stop-color:#ffffff;stop-opacity:0;"
         offset="0.90651727"
         id="stop8" /><stop
         style="stop-color:#0a0a0a;stop-opacity:0.48195121;"
         offset="0.95400864"
         id="stop9" /><stop
         style="stop-color:#060606;stop-opacity:1;"
         offset="0.96325344"
         id="stop15" /><stop
         style="stop-color:#020202;stop-opacity:0.95609754;"
         offset="0.9821375"
         id="stop11" /><stop
         style="stop-color:#000000;stop-opacity:0.28;"
         offset="1"
         id="stop10" /></linearGradient><linearGradient
       id="linearGradient1"
       inkscape:collect="always"><stop
         style="stop-color:#ffffff;stop-opacity:0;"
         offset="0"
         id="stop1" /><stop
         style="stop-color:#ffffff;stop-opacity:0;"
         offset="0.93179882"
         id="stop5" /><stop
         style="stop-color:#ffffff;stop-opacity:0.8097561;"
         offset="0.95827198"
         id="stop6" /><stop
         style="stop-color:#010101;stop-opacity:0.31414634;"
         offset="1"
         id="stop2" /></linearGradient><radialGradient
       inkscape:collect="always"
       xlink:href="#linearGradient1"
       id="radialGradient2"
       cx="122.37395"
       cy="151.03073"
       fx="122.37395"
       fy="151.03073"
       r="122.40131"
       gradientTransform="matrix(0.71814993,-0.77751667,0.81157411,0.74960691,-77.943211,112.83108)"
       gradientUnits="userSpaceOnUse" /><radialGradient
       inkscape:collect="always"
       xlink:href="#linearGradient10"
       id="radialGradient6"
       gradientUnits="userSpaceOnUse"
       gradientTransform="matrix(0.71814993,-0.77751667,0.81157411,0.74960691,-77.943211,112.83108)"
       cx="122.81268"
       cy="134.34187"
       fx="122.81268"
       fy="134.34187"
       r="122.40131" /><linearGradient
       inkscape:collect="always"
       xlink:href="#linearGradient23"
       id="linearGradient24"
       x1="104.3447"
       y1="143.74478"
       x2="165.67195"
       y2="83.430801"
       gradientUnits="userSpaceOnUse" /><linearGradient
       inkscape:collect="always"
       xlink:href="#linearGradient25"
       id="linearGradient26"
       x1="85.33371"
       y1="178.50266"
       x2="155.88658"
       y2="107.86697"
       gradientUnits="userSpaceOnUse" /><radialGradient
       inkscape:collect="always"
       xlink:href="#linearGradient35"
       id="radialGradient37"
       cx="126.71858"
       cy="106.63187"
       fx="126.71858"
       fy="106.63187"
       r="71.751438"
       gradientTransform="matrix(0.91094424,-0.78941386,0.85552783,0.98723649,-77.155109,110.68107)"
       gradientUnits="userSpaceOnUse" /><radialGradient
       inkscape:collect="always"
       xlink:href="#linearGradient41"
       id="radialGradient43"
       cx="127.19841"
       cy="155.29956"
       fx="127.19841"
       fy="155.29956"
       r="72.424016"
       gradientTransform="matrix(1.1773445,-0.04406947,0.03512949,0.93850723,-28.240095,15.024816)"
       gradientUnits="userSpaceOnUse" /><radialGradient
       inkscape:collect="always"
       xlink:href="#linearGradient51"
       id="radialGradient47"
       gradientUnits="userSpaceOnUse"
       gradientTransform="matrix(1.0312371,0.96454624,-0.89136628,0.95299718,129.61922,-106.39007)"
       cx="106.67793"
       cy="138.26074"
       fx="106.67793"
       fy="138.26074"
       r="72.424016" /><radialGradient
       inkscape:collect="always"
       xlink:href="#linearGradient57"
       id="radialGradient51"
       gradientUnits="userSpaceOnUse"
       gradientTransform="matrix(0.96352775,-0.59141276,0.60644565,0.98801931,-59.281367,85.403963)"
       cx="130.09801"
       cy="123.29646"
       fx="130.09801"
       fy="123.29646"
       r="71.751438" /><linearGradient
       inkscape:collect="always"
       xlink:href="#linearGradient58"
       id="linearGradient59"
       x1="3.8492742"
       y1="91.603189"
       x2="240.62356"
       y2="91.603189"
       gradientUnits="userSpaceOnUse" /><linearGradient
       inkscape:collect="always"
       xlink:href="#linearGradient60"
       id="linearGradient61"
       x1="58.578434"
       y1="11.362649"
       x2="241.37454"
       y2="219.29834"
       gradientUnits="userSpaceOnUse" /></defs><sodipodi:namedview
     id="base"
     pagecolor="#ffffff"
     bordercolor="#000000"
     borderopacity="0.3"
     inkscape:pageopacity="0.0"
     inkscape:pageshadow="2"
     inkscape:zoom="0.98994949"
     inkscape:cx="505.07627"
     inkscape:cy="476.792"
     inkscape:document-units="mm"
     inkscape:showpageshadow="2"
     inkscape:pagecheckerboard="0"
     inkscape:deskcolor="#d1d1d1"
     inkscape:current-layer="g3"
     showguides="true"><sodipodi:guide
       position="164.79762,131.64583"
       orientation="0,-1"
       id="guide14"
       inkscape:locked="false" /><sodipodi:guide
       position="126.24404,-49.404762"
       orientation="1,0"
       id="guide15"
       inkscape:locked="false" /></sodipodi:namedview><metadata
     id="metadata1"><rdf:RDF><cc:Work
         rdf:about=""><dc:format>image/svg+xml</dc:format><dc:type
           rdf:resource="http://purl.org/dc/dcmitype/StillImage" /><cc:license
           rdf:resource="http://creativecommons.org/publicdomain/zero/1.0/" /></cc:Work><cc:License
         rdf:about="http://creativecommons.org/publicdomain/zero/1.0/"><cc:permits
           rdf:resource="http://creativecommons.org/ns#Reproduction" /><cc:permits
           rdf:resource="http://creativecommons.org/ns#Distribution" /><cc:permits
           rdf:resource="http://creativecommons.org/ns#DerivativeWorks" /></cc:License></rdf:RDF></metadata><g
     id="g3"
     style="display:inline"><path
       id="rect1"
       style="fill:url(#linearGradient61);stroke:#dbdbdb;stroke-width:0.799999;stroke-linecap:round;stroke-linejoin:round;stroke-miterlimit:5;stroke-opacity:0;fill-opacity:1"
       d="M 122.13439,2.4555129 C 65.861463,2.9256958 3.9209122,49.012918 3.9209122,125.05224 c 0,75.19438 63.0035288,122.65539 124.9827578,121.85743 C 185.307,246.1835 247.61172,200.95455 247.92234,125.69451 248.21387,55.05973 195.3699,1.8436009 122.13439,2.4555129 Z m 34.93394,46.3884041 c 21.66102,8.584161 39.86959,29.776051 46.62941,52.073863 6.71332,22.14445 3.80919,55.1193 -9.79601,68.72443 C 162.01439,138.18215 110.00454,84.972028 80.989899,55.394025 103.08313,37.647512 133.40543,39.466421 157.06833,48.843917 Z M 54.658996,82.259506 C 86.87451,113.3219 134.20507,161.34696 167.70447,195.03771 154.09945,208.64272 121.29359,212.00624 99.782366,204.29917 73.374573,194.83776 50.204563,169.56306 42.591199,142.56442 37.027326,122.83372 45.06303,97.735413 54.658996,82.259506 Z"
       sodipodi:nodetypes="sssssaaccaccaac"
       inkscape:label="colorhead" /><path
       id="path11"
       style="fill:url(#radialGradient2);fill-opacity:1;stroke:#dbdbdb;stroke-width:0.799999;stroke-linecap:round;stroke-linejoin:round;stroke-miterlimit:5;stroke-opacity:0"
       d="M 122.13439,2.4555129 C 65.861463,2.9256958 3.9209122,49.012918 3.9209122,125.05224 c 0,75.19438 63.0035288,122.65539 124.9827578,121.85743 C 185.307,246.1835 247.61172,200.95455 247.92234,125.69451 248.21387,55.05973 195.3699,1.8436009 122.13439,2.4555129 Z m 34.93394,46.3884041 c 21.66102,8.584161 39.86959,29.776051 46.62941,52.073863 6.71332,22.14445 3.80919,55.1193 -9.79601,68.72443 C 162.01439,138.18215 110.00454,84.972028 80.989899,55.394025 103.08313,37.647512 133.40543,39.466421 157.06833,48.843917 Z M 54.658996,82.259506 C 86.87451,113.3219 134.20507,161.34696 167.70447,195.03771 154.09945,208.64272 121.29359,212.00624 99.782366,204.29917 73.374573,194.83776 50.204563,169.56306 42.591199,142.56442 37.027326,122.83372 45.06303,97.735413 54.658996,82.259506 Z"
       sodipodi:nodetypes="sssssaaccaccaac"
       inkscape:label="whiteltsh" /><path
       id="path6"
       style="fill:url(#radialGradient6);fill-opacity:1;stroke:#dbdbdb;stroke-width:0.799999;stroke-linecap:round;stroke-linejoin:round;stroke-miterlimit:5;stroke-opacity:0"
       d="M 122.13439,2.4555129 C 65.861463,2.9256958 3.9209122,49.012918 3.9209122,125.05224 c 0,75.19438 63.0035288,122.65539 124.9827578,121.85743 C 185.307,246.1835 247.61172,200.95455 247.92234,125.69451 248.21387,55.05973 195.3699,1.8436009 122.13439,2.4555129 Z m 34.93394,46.3884041 c 21.66102,8.584161 39.86959,29.776051 46.62941,52.073863 6.71332,22.14445 3.80919,55.1193 -9.79601,68.72443 C 162.01439,138.18215 110.00454,84.972028 80.989899,55.394025 103.08313,37.647512 133.40543,39.466421 157.06833,48.843917 Z M 54.658996,82.259506 C 86.87451,113.3219 134.20507,161.34696 167.70447,195.03771 154.09945,208.64272 121.29359,212.00624 99.782366,204.29917 73.374573,194.83776 50.204563,169.56306 42.591199,142.56442 37.027326,122.83372 45.06303,97.735413 54.658996,82.259506 Z"
       sodipodi:nodetypes="sssssaaccaccaac"
       inkscape:label="darkbrsh" /><g
       id="g20"><g
         id="g51"><path
           style="fill:url(#linearGradient26);fill-opacity:1;stroke:#dbdbdb;stroke-width:0.799999;stroke-linecap:round;stroke-linejoin:round;stroke-miterlimit:5;stroke-opacity:0"
           d="m 50.982762,73.117638 c 0,0 1.990185,5.254233 3.659598,9.114923 32.11727,31.092439 80.4802,80.037089 113.06213,112.805149 l 10.46079,4.27496 z"
           id="path23"
           sodipodi:nodetypes="ccccc" /><path
           style="fill:url(#radialGradient47);fill-opacity:1;stroke:#dbdbdb;stroke-width:0.799999;stroke-linecap:round;stroke-linejoin:round;stroke-miterlimit:5;stroke-opacity:0"
           d="M 50.991203,73.125769 C 39.852444,89.256498 34.159155,108.14039 34.159155,125.05232 c 0,45.71208 40.697606,89.35165 91.720495,89.35165 19.59412,0 37.7114,-5.07517 52.32756,-15.06833 -1.93367,-1.92364 -7.86289,-3.73395 -10.53771,-4.22876 -15.92021,13.31652 -47.35898,16.54707 -67.88696,9.19228 C 73.374825,194.83778 50.204539,169.563 42.591199,142.56442 37.027341,122.83378 45.06326,97.73544 54.659196,82.259578 Z"
           id="path46"
           sodipodi:nodetypes="cssccsscc" /><path
           style="fill:url(#radialGradient43);fill-opacity:1;stroke:#dbdbdb;stroke-width:0.799999;stroke-linecap:round;stroke-linejoin:round;stroke-miterlimit:5;stroke-opacity:0"
           d="M 50.991203,73.125769 C 39.852444,89.256498 34.159155,108.14039 34.159155,125.05232 c 0,45.71208 40.697606,89.35165 91.720495,89.35165 19.59412,0 37.7114,-5.07517 52.32756,-15.06833 -1.93367,-1.92364 -7.86289,-3.73395 -10.53771,-4.22876 -15.92021,13.31652 -47.35898,16.54707 -67.88696,9.19228 C 73.374825,194.83778 50.204539,169.563 42.591199,142.56442 37.027341,122.83378 45.06326,97.73544 54.659196,82.259578 Z"
           id="path19"
           sodipodi:nodetypes="cssccsscc" /></g><g
         id="g57"><path
           style="fill:url(#linearGradient24);fill-opacity:1;stroke:#dbdbdb;stroke-width:0.799999;stroke-linecap:round;stroke-linejoin:round;stroke-miterlimit:5;stroke-opacity:0"
           d="M 70.833801,52.289787 197.4634,178.63044 c -1.33833,-3.18062 -2.18156,-5.862 -3.51981,-8.97873 C 162.02231,138.14216 109.88111,84.846225 80.989889,55.394035 Z"
           id="path22"
           sodipodi:nodetypes="ccccc" /><path
           style="fill:url(#radialGradient51);fill-opacity:1;stroke:#dbdbdb;stroke-width:0.799999;stroke-linecap:round;stroke-linejoin:round;stroke-miterlimit:5;stroke-opacity:0"
           d="m 125.53601,34.583419 c -22.59878,-0.487443 -46.638572,10.287948 -54.712426,17.712614 0,0 6.714405,2.065606 10.172657,3.095475 11.443305,-8.790935 25.984649,-13.280274 39.627919,-13.51086 0.93628,-0.01582 1.87308,-0.01533 2.80965,10e-4 8.25325,0 21.45662,2.097152 33.25666,6.773378 21.7315,8.611951 40.24737,29.965073 47.00717,52.262814 6.28054,20.71686 3.9678,54.65223 -9.76425,68.74461 1.38259,3.1537 2.10812,5.65715 3.49901,8.85579 12.98068,-17.27222 16.0941,-32.26868 16.0941,-54.33567 0,-46.579348 -36.29725,-89.599184 -87.99049,-89.599184 z"
           id="path20"
           sodipodi:nodetypes="cccscssccscc" /><path
           style="display:inline;fill:url(#radialGradient37);fill-opacity:1;stroke:#dbdbdb;stroke-width:0.799999;stroke-linecap:round;stroke-linejoin:round;stroke-miterlimit:5;stroke-opacity:0"
           d="m 125.53601,34.583419 c -22.59878,-0.487443 -46.638572,10.287948 -54.712426,17.712614 0,0 6.714405,2.065606 10.172657,3.095475 11.443305,-8.790935 25.984649,-13.280274 39.627919,-13.51086 0.93628,-0.01582 1.87308,-0.01533 2.80965,10e-4 8.25325,0 21.45662,2.097152 33.25666,6.773378 21.7315,8.611951 40.24737,29.965073 47.00717,52.262814 6.28054,20.71686 3.9678,54.65223 -9.76425,68.74461 1.38259,3.1537 2.10812,5.65715 3.49901,8.85579 12.98068,-17.27222 16.0941,-32.26868 16.0941,-54.33567 0,-46.579348 -36.29725,-89.599184 -87.99049,-89.599184 z"
           id="path47"
           sodipodi:nodetypes="cccscssccscc" /></g></g><path
       id="path3"
       style="display:inline;fill:url(#linearGradient59);fill-opacity:1;stroke:none;stroke-width:0.799999;stroke-linecap:round;stroke-linejoin:round;stroke-miterlimit:5;stroke-opacity:0.8742857"
       inkscape:label="whiteshadow"
       d="m 129.21485,1.9740397 c -4.2688,-0.063905 -8.17393,0.1344471 -11.61634,0.4816244 C 72.547031,6.9992415 52.175416,25.515425 35.012333,42.495597 2.2623958,74.896512 -6.1487599,140.63136 16.848584,181.24423 A 183.07962,106.10599 0 0 1 41.11532,134.89461 C 39.075318,116.67238 46.270119,95.789074 54.659196,82.259578 62.566574,89.88392 71.419021,98.569389 80.719621,107.77482 A 183.07962,106.10599 0 0 1 118.34988,93.455278 C 104.98488,79.84222 90.776922,65.371098 80.989889,55.394035 103.0831,37.64754 133.40557,39.46656 157.06845,48.844047 c 15.50906,6.14617 29.22123,18.768171 38.25554,33.619137 a 183.07962,106.10599 0 0 1 3.79202,-0.144178 183.07962,106.10599 0 0 1 41.50755,2.772441 c -0.60641,-1.485396 -1.25224,-2.947401 -1.95234,-4.37596 C 206.81674,15.715935 159.09644,2.4213747 129.21485,1.9740397 Z" /></g></svg>
