<?xml version="1.0" encoding="UTF-8" standalone="no"?>
<svg
   version="1.1"
   width="256"
   height="256"
   viewBox="0 0 256 256"
   xml:space="preserve"
   id="svg37"
   sodipodi:docname="emblem-checked.svg"
   inkscape:version="1.3.2 (091e20ef0f, 2023-11-25)"
   xmlns:inkscape="http://www.inkscape.org/namespaces/inkscape"
   xmlns:sodipodi="http://sodipodi.sourceforge.net/DTD/sodipodi-0.dtd"
   xmlns:xlink="http://www.w3.org/1999/xlink"
   xmlns="http://www.w3.org/2000/svg"
   xmlns:svg="http://www.w3.org/2000/svg"
   xmlns:rdf="http://www.w3.org/1999/02/22-rdf-syntax-ns#"
   xmlns:cc="http://creativecommons.org/ns#"><sodipodi:namedview
   id="namedview37"
   pagecolor="#ffffff"
   bordercolor="#000000"
   borderopacity="0.25"
   inkscape:showpageshadow="2"
   inkscape:pageopacity="0.0"
   inkscape:pagecheckerboard="0"
   inkscape:deskcolor="#d1d1d1"
   inkscape:current-layer="svg37"
   showguides="true"><sodipodi:guide
     position="128.23315,225.69035"
     orientation="1,0"
     id="guide1"
     inkscape:locked="false" /><sodipodi:guide
     position="56.888889,127.76685"
     orientation="0,-1"
     id="guide2"
     inkscape:locked="false" /></sodipodi:namedview>
<desc
   id="desc1">Created with Fabric.js 5.2.4</desc>
<defs
   id="defs1"><linearGradient
     id="linearGradient35"
     inkscape:collect="always"><stop
       style="stop-color:#d7d5d5;stop-opacity:0.41131106;"
       offset="0"
       id="stop34" /><stop
       style="stop-color:#d7d5d5;stop-opacity:0;"
       offset="1"
       id="stop35" /></linearGradient><linearGradient
     id="linearGradient17"
     inkscape:collect="always"><stop
       style="stop-color:#d7d5d5;stop-opacity:0.30591258;"
       offset="0"
       id="stop17" /><stop
       style="stop-color:#d7d5d5;stop-opacity:0;"
       offset="1"
       id="stop18" /></linearGradient><linearGradient
     id="linearGradient11"
     inkscape:collect="always"><stop
       style="stop-color:#fffdfd;stop-opacity:0.63753211;"
       offset="0.05200902"
       id="stop15" /><stop
       style="stop-color:#e1dfdf;stop-opacity:0.45244217;"
       offset="0.15942086"
       id="stop33" /><stop
       style="stop-color:#d7d5d5;stop-opacity:0.21336761;"
       offset="0.51568735"
       id="stop19" /><stop
       style="stop-color:#d7d5d5;stop-opacity:0.12339332;"
       offset="0.7890625"
       id="stop20" /><stop
       style="stop-color:#d7d5d5;stop-opacity:0;"
       offset="1"
       id="stop12" /></linearGradient><linearGradient
     id="linearGradient8"
     inkscape:collect="always"><stop
       style="stop-color:#010000;stop-opacity:0.45501286;"
       offset="0"
       id="stop8" /><stop
       style="stop-color:#010000;stop-opacity:0.11825193;"
       offset="0.69999999"
       id="stop10" /><stop
       style="stop-color:#010000;stop-opacity:0;"
       offset="1"
       id="stop9" /></linearGradient><linearGradient
     id="SVGID_XMLID_3__9"
     gradientUnits="userSpaceOnUse"
     gradientTransform="matrix(1.98,0,0,1.98,-126.43,-126.43)"
     x1="63.997601"
     y1="14.0005"
     x2="63.997601"
     y2="63.0005">
<stop
   offset="0%"
   style="stop-color:rgb(255,255,255);stop-opacity: 1"
   id="stop31" />
<stop
   offset="100%"
   style="stop-color:rgb(255,255,255);stop-opacity: 0"
   id="stop32" />
</linearGradient><linearGradient
     id="SVGID_XMLID_2__8"
     gradientUnits="userSpaceOnUse"
     gradientTransform="matrix(1.98,0,0,1.98,-126.43,-126.43)"
     x1="68.054878"
     y1="118.06909"
     x2="23.2307"
     y2="22.761999">
<stop
   offset="0%"
   style="stop-color:rgb(255,84,84);stop-opacity: 1"
   id="stop26" />
<stop
   offset="19.439999999999998%"
   style="stop-color:rgb(249,79,79);stop-opacity: 1"
   id="stop27" />
<stop
   offset="46.650000000000006%"
   style="stop-color:rgb(230,66,66);stop-opacity: 1"
   id="stop28" />
<stop
   offset="78.3%"
   style="stop-color:rgb(201,45,45);stop-opacity: 1"
   id="stop29" />
<stop
   offset="100%"
   style="stop-color:rgb(176,28,28);stop-opacity: 1"
   id="stop30" />
</linearGradient><linearGradient
     id="SVGID_XMLID_1__7"
     gradientUnits="userSpaceOnUse"
     gradientTransform="matrix(1.98,0,0,1.98,-126.43,-126.43)"
     x1="115.60217"
     y1="117.39095"
     x2="13.810602"
     y2="13.381392">
<stop
   offset="0"
   style="stop-color:#ff9090;stop-opacity:1;"
   id="stop21" />
<stop
   offset="0.1944"
   style="stop-color:#fa8080;stop-opacity:1;"
   id="stop22" />
<stop
   offset="0.46650001"
   style="stop-color:#e74f4f;stop-opacity:1;"
   id="stop23" />
<stop
   offset="0.63636678"
   style="stop-color:#9d2323;stop-opacity:1;"
   id="stop24" />
<stop
   offset="1"
   style="stop-color:#881515;stop-opacity:1;"
   id="stop25" />
</linearGradient><radialGradient
     inkscape:collect="always"
     xlink:href="#linearGradient8"
     id="radialGradient9"
     cx="216.19096"
     cy="53.194252"
     fx="216.19096"
     fy="53.194252"
     r="117.97452"
     gradientTransform="matrix(0.3201582,0,0,1.9189721,-130.76721,-37.495401)"
     gradientUnits="userSpaceOnUse" /><radialGradient
     inkscape:collect="always"
     xlink:href="#linearGradient8"
     id="radialGradient10"
     gradientUnits="userSpaceOnUse"
     gradientTransform="matrix(0.33596847,0,0,1.9189721,87.802759,103.56105)"
     cx="209.39677"
     cy="37.312599"
     fx="209.39677"
     fy="37.312599"
     r="117.97452" /><radialGradient
     inkscape:collect="always"
     xlink:href="#linearGradient11"
     id="radialGradient12"
     cx="-272.40479"
     cy="-50.081898"
     fx="-272.40479"
     fy="-50.081898"
     r="117.97452"
     gradientTransform="matrix(2.1985674,0,0,1.8333037,327.51234,43.553033)"
     gradientUnits="userSpaceOnUse" /><radialGradient
     inkscape:collect="always"
     xlink:href="#linearGradient17"
     id="radialGradient18"
     cx="-209.59885"
     cy="-565.81665"
     fx="-209.59885"
     fy="-565.81665"
     r="114.47723"
     gradientTransform="matrix(2.4912033,0,0,0.10565799,274.11718,0.74110347)"
     gradientUnits="userSpaceOnUse" /><radialGradient
     inkscape:collect="always"
     xlink:href="#linearGradient35"
     id="radialGradient33"
     gradientUnits="userSpaceOnUse"
     gradientTransform="matrix(1.7661524,0,0,0.19445226,263.20379,-169.79203)"
     cx="-92.593857"
     cy="-563.0498"
     fx="-92.593857"
     fy="-563.0498"
     r="114.47723" /><linearGradient
     id="linearGradient1"
     inkscape:collect="always"><stop
       style="stop-color:#ffffff;stop-opacity:0;"
       offset="0"
       id="stop1" /><stop
       style="stop-color:#ffffff;stop-opacity:0;"
       offset="0.48223397"
       id="stop3" /><stop
       style="stop-color:#000000;stop-opacity:0.08975609;"
       offset="0.55564779"
       id="stop6" /><stop
       style="stop-color:#000000;stop-opacity:0.14740369;"
       offset="0.6673246"
       id="stop4" /><stop
       style="stop-color:#000000;stop-opacity:0.10050251;"
       offset="0.78408319"
       id="stop7" /><stop
       style="stop-color:#000000;stop-opacity:0.20938024;"
       offset="0.875"
       id="stop5" /><stop
       style="stop-color:#000000;stop-opacity:0.2361809;"
       offset="1"
       id="stop2" /></linearGradient><linearGradient
     id="linearGradient2"><stop
       style="stop-color:#009b00;stop-opacity:0.92156899;"
       offset="0"
       id="stop37" /><stop
       style="stop-color:#006900;stop-opacity:1;"
       offset="1"
       id="stop38" /></linearGradient><linearGradient
     id="swatch32"><stop
       style="stop-color:#696969;stop-opacity:1;"
       offset="0"
       id="stop33-6" /><stop
       style="stop-color:#525252;stop-opacity:1;"
       offset="0.5"
       id="stop35-7" /><stop
       style="stop-color:#686868;stop-opacity:0.50251889;"
       offset="0.75"
       id="stop36" /><stop
       style="stop-color:#959595;stop-opacity:0.08942063;"
       offset="1"
       id="stop34-5" /></linearGradient><linearGradient
     id="linearGradient23"
     inkscape:swatch="gradient"><stop
       style="stop-color:#858585;stop-opacity:1;"
       offset="0"
       id="stop30-3" /><stop
       style="stop-color:#001500;stop-opacity:0.53904283;"
       offset="0.46318355"
       id="stop31-5" /><stop
       style="stop-color:#001500;stop-opacity:0.27959698;"
       offset="0.56815809"
       id="stop32-6" /></linearGradient><linearGradient
     id="linearGradient23-1"><stop
       style="stop-color:#858585;stop-opacity:1;"
       offset="0"
       id="stop23-2" /><stop
       style="stop-color:#001500;stop-opacity:0.53904283;"
       offset="0.46318355"
       id="stop26-7" /><stop
       style="stop-color:#001500;stop-opacity:0.27959698;"
       offset="0.56815809"
       id="stop25-0" /></linearGradient><radialGradient
     inkscape:collect="always"
     xlink:href="#linearGradient1"
     id="radialGradient2"
     cx="11.103888"
     cy="158.06476"
     fx="11.103888"
     fy="158.06476"
     r="117.14085"
     gradientTransform="matrix(4.8219007,-1.8701945,0.22517682,0.58057071,-101.86347,125.17025)"
     gradientUnits="userSpaceOnUse" /></defs>





<metadata
   id="metadata37"><rdf:RDF><cc:License
       rdf:about="http://creativecommons.org/publicdomain/zero/1.0/"><cc:permits
         rdf:resource="http://creativecommons.org/ns#Reproduction" /><cc:permits
         rdf:resource="http://creativecommons.org/ns#Distribution" /><cc:permits
         rdf:resource="http://creativecommons.org/ns#DerivativeWorks" /></cc:License><cc:Work
       rdf:about=""><cc:license
         rdf:resource="http://creativecommons.org/publicdomain/zero/1.0/" /></cc:Work></rdf:RDF></metadata><g
   id="g3"
   style="display:inline"
   transform="matrix(1.0693134,0,0,1.0693134,323.17493,84.39288)"><g
     id="g35"><rect
       style="display:none;fill:#f8fbfd;fill-opacity:1;stroke:#909faf;stroke-width:2;stroke-linecap:round;stroke-linejoin:round;stroke-miterlimit:2.5;stroke-dasharray:none;stroke-opacity:0.65098"
       id="rect1"
       width="256.34982"
       height="256.34973"
       x="-310.44083"
       y="-87.08197"
       ry="31.242258"
       inkscape:label="backwhite" /><rect
       style="display:inline;fill:#4bcc2a;fill-opacity:1;stroke:none;stroke-width:2;stroke-linecap:round;stroke-linejoin:round;stroke-miterlimit:2.5;stroke-dasharray:none;stroke-opacity:0.65098"
       id="rect2"
       width="235.94904"
       height="234.55009"
       x="-299.83243"
       y="-76.473587"
       ry="30.615946"
       inkscape:label="colorhead"
       rx="30.615946" /><g
       id="g5"
       inkscape:label="shadowdlb"><rect
         style="display:inline;fill:url(#radialGradient9);stroke:none;stroke-width:2;stroke-linecap:round;stroke-linejoin:round;stroke-miterlimit:2.5;stroke-dasharray:none;stroke-opacity:0.65098"
         id="rect3"
         width="235.94904"
         height="234.55009"
         x="-299.83243"
         y="-76.473587"
         ry="27.97814" /><rect
         style="display:inline;fill:url(#radialGradient10);stroke:none;stroke-width:2;stroke-linecap:round;stroke-linejoin:round;stroke-miterlimit:2.5;stroke-dasharray:none;stroke-opacity:0.65098"
         id="rect10"
         width="235.94904"
         height="234.55009"
         x="-77.173058"
         y="64.582863"
         ry="27.97814"
         transform="rotate(90)" /></g><rect
       style="display:inline;fill:url(#radialGradient12);stroke:none;stroke-width:2;stroke-linecap:round;stroke-linejoin:round;stroke-miterlimit:2.5;stroke-dasharray:none;stroke-opacity:0.65098"
       id="rect11"
       width="228.95447"
       height="228.48817"
       x="-296.5683"
       y="-73.209473"
       ry="27.97814" /><rect
       style="display:inline;fill:url(#radialGradient18);stroke:none;stroke-width:2;stroke-linecap:round;stroke-linejoin:round;stroke-miterlimit:2.5;stroke-dasharray:none;stroke-opacity:0.65098"
       id="rect15"
       width="228.95447"
       height="228.48817"
       x="-296.5683"
       y="-73.209473"
       ry="27.97814" /><rect
       style="display:inline;fill:url(#radialGradient33);stroke:none;stroke-width:2;stroke-linecap:round;stroke-linejoin:round;stroke-miterlimit:2.5;stroke-dasharray:none;stroke-opacity:0.65098"
       id="rect33"
       width="228.95447"
       height="228.48817"
       x="-155.51184"
       y="-296.33514"
       ry="27.97814"
       transform="rotate(-90)" /></g></g><g
   id="g1"
   style="display:inline"
   transform="matrix(0.77985094,0,0,0.77985094,28.452507,25.516686)"><g
     id="g10"><path
       id="path7"
       style="display:inline;fill:#010201;fill-opacity:0.146747;stroke-width:1.012;stroke-linecap:round;stroke-linejoin:round;stroke-miterlimit:5"
       d="m 23.578552,134.7297 c 5.673628,-2.92233 13.25702,-3.85339 18.607812,-0.48332 14.879762,9.37168 34.425469,27.78499 47.304924,43.37795 2.362594,2.86036 6.742531,2.70931 8.397681,-0.60415 C 128.67631,115.38681 152.90501,75.304373 206.61017,15.608526 c 4.15409,-4.617477 14.34568,-5.9686963 21.171,-2.494189 4.78406,2.435379 8.57317,6.232519 12.32465,11.78092 3.2794,4.850192 4.05285,9.453598 0.96664,14.862082 C 194.17581,103.46526 160.39417,145.30625 112.5094,236.71017 103.40688,247.81432 91.895006,248.35066 85.201824,239.12677 67.727601,215.04549 45.081797,192.27985 16.812075,165.17884 10.917062,159.52754 7.0409297,154.394 9.4793535,149.18783 12.328541,143.10465 17.543678,137.83809 23.578552,134.7297 Z"
       sodipodi:nodetypes="sssssssccssss"
       inkscape:label="shadow" /><path
       id="path8"
       style="display:inline;fill:#010201;fill-opacity:0.146747;stroke-width:1.012;stroke-linecap:round;stroke-linejoin:round;stroke-miterlimit:5"
       d="m 24.061871,137.62962 c 5.673628,-2.92233 13.25702,-3.85339 18.607812,-0.48332 14.879762,9.37168 34.425469,27.78499 47.304924,43.37795 2.362594,2.86036 6.742531,2.70931 8.397681,-0.60415 C 129.15963,118.28673 153.38833,78.204292 207.09349,18.508445 c 4.15409,-4.617477 14.34568,-5.968696 21.171,-2.494189 4.78406,2.435379 8.57317,6.232519 12.32465,11.78092 3.2794,4.850192 4.05285,9.453598 0.96664,14.862082 C 194.65913,106.36518 160.87749,148.20617 112.99272,239.61009 103.8902,250.71424 92.378325,251.25058 85.685143,242.02669 68.21092,217.94541 45.565116,195.17977 17.295394,168.07876 11.400381,162.42746 7.5242494,157.29392 9.9626735,152.08775 12.81186,146.00457 18.026997,140.73801 24.061871,137.62962 Z"
       sodipodi:nodetypes="sssssssccssss"
       inkscape:label="shadow" /><path
       id="path9"
       style="display:inline;fill:#010201;fill-opacity:0.146747;stroke-width:1.012;stroke-linecap:round;stroke-linejoin:round;stroke-miterlimit:5"
       d="m 25.75349,139.80456 c 5.673628,-2.92233 13.25702,-3.85339 18.607812,-0.48332 14.879762,9.37168 34.425469,27.78499 47.304924,43.37795 2.362594,2.86036 6.742531,2.70931 8.397684,-0.60415 30.78734,-61.63337 55.01604,-101.715809 108.7212,-161.411656 4.15409,-4.617477 14.34568,-5.968696 21.171,-2.494189 4.78406,2.435379 8.57317,6.232519 12.32465,11.78092 3.2794,4.850192 4.05285,9.453598 0.96664,14.862082 -46.89665,63.707923 -80.67829,105.548913 -128.56306,196.952833 -9.10252,11.10415 -20.614396,11.64049 -27.307578,2.4166 C 69.902539,220.12035 47.256735,197.35471 18.987013,170.2537 13.092,164.6024 9.2158686,159.46886 11.654293,154.26269 c 2.849186,-6.08318 8.064323,-11.34974 14.099197,-14.45813 z"
       sodipodi:nodetypes="sssssssccssss"
       inkscape:label="shadow" /><path
       id="path10"
       style="display:inline;fill:#010201;fill-opacity:0.146747;stroke-width:1.012;stroke-linecap:round;stroke-linejoin:round;stroke-miterlimit:5"
       d="m 26.961789,141.73784 c 5.673628,-2.92233 13.25702,-3.85339 18.607812,-0.48332 14.879762,9.37168 34.425469,27.78499 47.304924,43.37795 2.362594,2.86036 6.742531,2.70931 8.397685,-0.60415 30.78734,-61.63337 55.01604,-101.71581 108.7212,-161.411657 4.15409,-4.617477 14.34568,-5.968696 21.171,-2.494189 4.78406,2.435379 8.57317,6.232519 12.32465,11.78092 3.2794,4.850192 4.05285,9.453598 0.96664,14.862082 -46.89665,63.707924 -80.67829,105.548914 -128.56306,196.952834 -9.10252,11.10415 -20.614397,11.64049 -27.307579,2.4166 -17.474223,-24.08128 -40.120027,-46.84692 -68.389749,-73.94793 -5.895013,-5.6513 -9.771144,-10.78484 -7.33272,-15.99101 2.849186,-6.08318 8.064323,-11.34974 14.099197,-14.45813 z"
       sodipodi:nodetypes="sssssssccssss"
       inkscape:label="shadow" /></g><path
     id="rect1-9"
     style="display:inline;fill:#fefffe;fill-opacity:1;stroke-width:1.012;stroke-linecap:round;stroke-linejoin:round;stroke-miterlimit:5"
     d="m 21.749391,131.9463 c 5.673628,-2.92233 13.25702,-3.85339 18.607812,-0.48332 14.879762,9.37168 32.344284,28.58901 47.304924,43.37795 5.104897,5.04631 6.025189,4.08562 8.397681,-0.60415 C 128.08337,110.93491 151.07584,72.520996 204.781,12.825149 c 4.15409,-4.6174759 14.34568,-5.9686938 21.171,-2.494189 4.78406,2.435379 8.57317,6.232519 12.32465,11.78092 3.2794,4.850192 4.05285,9.453598 0.96664,14.862082 C 192.34664,100.68186 158.565,142.52285 110.68023,233.92677 101.57771,245.03092 90.065845,245.56726 83.372663,236.34337 65.89844,212.26209 43.252636,189.49645 14.982914,162.39544 9.0879021,156.74414 5.2117697,151.6106 7.6501931,146.40443 10.49938,140.32125 15.714517,135.05469 21.749391,131.9463 Z"
     sodipodi:nodetypes="sssssssccssss"
     inkscape:label="colorhead" /><path
     id="path1"
     style="display:inline;fill:url(#radialGradient2);stroke-width:1.012;stroke-linecap:round;stroke-linejoin:round;stroke-miterlimit:5"
     d="m 21.749391,131.9463 c 5.673628,-2.92233 13.25702,-3.85339 18.607812,-0.48332 14.879762,9.37168 34.997378,28.44036 47.304924,43.37795 3.421173,4.15225 4.934999,5.9288 8.397681,-0.60415 C 127.56591,114.79509 147.6926,74.937595 201.39776,15.241748 c 4.15409,-4.617476 17.72892,-8.3852928 24.55424,-4.910788 4.78406,2.435379 8.57317,6.232519 12.32465,11.78092 3.2794,4.850192 0.18629,8.970279 -2.89992,14.378763 -46.89665,63.707897 -78.74501,102.890627 -126.62978,194.294547 -9.102519,11.10415 -19.196119,8.2598 -24.607845,2.05766 C 65.652403,211.65606 44.059607,187.54122 15.345404,160.82465 10.74248,156.54195 5.2117697,151.6106 7.6501931,146.40443 10.49938,140.32125 15.714517,135.05469 21.749391,131.9463 Z"
     sodipodi:nodetypes="sssssssccssss" /><path
     id="rect7"
     style="fill:#000000;fill-opacity:0.369138;stroke-width:1.012;stroke-linecap:round;stroke-linejoin:round;stroke-miterlimit:5"
     d="m 7.612286,152.36657 9.062246,9.18308 c 9.595502,9.18227 37.783724,31.86106 66.577299,70.56468 7.017163,9.4323 21.561559,7.55249 26.473899,-3.40397 23.71128,-52.8856 74.52714,-128.48976 125.13506,-192.263149 5.27989,-8.898115 5.69177,-9.507553 4.35742,-13.083378 l 2.73303,7.176943 -2.87563,6.510585 C 228.38709,53.103902 155.16145,144.85122 111.88853,231.87267 103.89464,247.94831 88.777624,242.23666 84.94345,238.035 66.050116,214.54523 44.520821,190.0476 14.741253,162.39545 10.436827,158.31971 7.7782008,154.79786 7.612286,152.36657 Z"
     sodipodi:nodetypes="ccssccccsccc" /></g></svg>
