<?xml version="1.0" encoding="UTF-8" standalone="no"?>
<svg
   version="1.1"
   width="256"
   height="256"
   viewBox="0 0 256 256"
   xml:space="preserve"
   id="svg37"
   sodipodi:docname="package-new.svg"
   inkscape:version="1.3.2 (091e20ef0f, 2023-11-25)"
   xmlns:inkscape="http://www.inkscape.org/namespaces/inkscape"
   xmlns:sodipodi="http://sodipodi.sourceforge.net/DTD/sodipodi-0.dtd"
   xmlns:xlink="http://www.w3.org/1999/xlink"
   xmlns="http://www.w3.org/2000/svg"
   xmlns:svg="http://www.w3.org/2000/svg"
   xmlns:rdf="http://www.w3.org/1999/02/22-rdf-syntax-ns#"
   xmlns:cc="http://creativecommons.org/ns#"
   xmlns:a="http://ns.adobe.com/AdobeSVGViewerExtensions/3.0/"><sodipodi:namedview
   id="namedview37"
   pagecolor="#ffffff"
   bordercolor="#000000"
   borderopacity="0.25"
   inkscape:showpageshadow="2"
   inkscape:pageopacity="0.0"
   inkscape:pagecheckerboard="0"
   inkscape:deskcolor="#d1d1d1"
   inkscape:current-layer="g35"
   showguides="true"><sodipodi:guide
     position="128.23315,225.69035"
     orientation="1,0"
     id="guide1"
     inkscape:locked="false" /><sodipodi:guide
     position="56.888889,127.76685"
     orientation="0,-1"
     id="guide2"
     inkscape:locked="false" /></sodipodi:namedview>
<desc
   id="desc1">Created with Fabric.js 5.2.4</desc>
<defs
   id="defs1"><linearGradient
     id="linearGradient1"
     inkscape:collect="always"><stop
       style="stop-color:#ffffff;stop-opacity:1;"
       offset="0"
       id="stop1" /><stop
       style="stop-color:#6e6b6b;stop-opacity:1;"
       offset="1"
       id="stop2" /></linearGradient><linearGradient
     id="linearGradient35"
     inkscape:collect="always"><stop
       style="stop-color:#d7d5d5;stop-opacity:0.41131106;"
       offset="0"
       id="stop34" /><stop
       style="stop-color:#d7d5d5;stop-opacity:0;"
       offset="1"
       id="stop35" /></linearGradient><linearGradient
     id="linearGradient17"
     inkscape:collect="always"><stop
       style="stop-color:#d7d5d5;stop-opacity:0.30591258;"
       offset="0"
       id="stop17" /><stop
       style="stop-color:#d7d5d5;stop-opacity:0;"
       offset="1"
       id="stop18" /></linearGradient><linearGradient
     id="linearGradient11"
     inkscape:collect="always"><stop
       style="stop-color:#fffdfd;stop-opacity:0.63753211;"
       offset="0.05200902"
       id="stop15" /><stop
       style="stop-color:#e1dfdf;stop-opacity:0.45244217;"
       offset="0.15942086"
       id="stop33" /><stop
       style="stop-color:#d7d5d5;stop-opacity:0.21336761;"
       offset="0.51568735"
       id="stop19" /><stop
       style="stop-color:#d7d5d5;stop-opacity:0.12339332;"
       offset="0.7890625"
       id="stop20" /><stop
       style="stop-color:#d7d5d5;stop-opacity:0;"
       offset="1"
       id="stop12" /></linearGradient><linearGradient
     id="linearGradient8"
     inkscape:collect="always"><stop
       style="stop-color:#010000;stop-opacity:0.45501286;"
       offset="0"
       id="stop8" /><stop
       style="stop-color:#010000;stop-opacity:0.11825193;"
       offset="0.69999999"
       id="stop10" /><stop
       style="stop-color:#010000;stop-opacity:0;"
       offset="1"
       id="stop9" /></linearGradient><linearGradient
     id="SVGID_XMLID_3__9"
     gradientUnits="userSpaceOnUse"
     gradientTransform="matrix(1.98,0,0,1.98,-126.43,-126.43)"
     x1="63.997601"
     y1="14.0005"
     x2="63.997601"
     y2="63.0005">
<stop
   offset="0%"
   style="stop-color:rgb(255,255,255);stop-opacity: 1"
   id="stop31" />
<stop
   offset="100%"
   style="stop-color:rgb(255,255,255);stop-opacity: 0"
   id="stop32" />
</linearGradient><linearGradient
     id="SVGID_XMLID_2__8"
     gradientUnits="userSpaceOnUse"
     gradientTransform="matrix(1.98,0,0,1.98,-126.43,-126.43)"
     x1="68.054878"
     y1="118.06909"
     x2="23.2307"
     y2="22.761999">
<stop
   offset="0%"
   style="stop-color:rgb(255,84,84);stop-opacity: 1"
   id="stop26" />
<stop
   offset="19.439999999999998%"
   style="stop-color:rgb(249,79,79);stop-opacity: 1"
   id="stop27" />
<stop
   offset="46.650000000000006%"
   style="stop-color:rgb(230,66,66);stop-opacity: 1"
   id="stop28" />
<stop
   offset="78.3%"
   style="stop-color:rgb(201,45,45);stop-opacity: 1"
   id="stop29" />
<stop
   offset="100%"
   style="stop-color:rgb(176,28,28);stop-opacity: 1"
   id="stop30" />
</linearGradient><linearGradient
     id="SVGID_XMLID_1__7"
     gradientUnits="userSpaceOnUse"
     gradientTransform="matrix(1.98,0,0,1.98,-126.43,-126.43)"
     x1="115.60217"
     y1="117.39095"
     x2="13.810602"
     y2="13.381392">
<stop
   offset="0"
   style="stop-color:#ff9090;stop-opacity:1;"
   id="stop21" />
<stop
   offset="0.1944"
   style="stop-color:#fa8080;stop-opacity:1;"
   id="stop22" />
<stop
   offset="0.46650001"
   style="stop-color:#e74f4f;stop-opacity:1;"
   id="stop23" />
<stop
   offset="0.63636678"
   style="stop-color:#9d2323;stop-opacity:1;"
   id="stop24" />
<stop
   offset="1"
   style="stop-color:#881515;stop-opacity:1;"
   id="stop25" />
</linearGradient><radialGradient
     inkscape:collect="always"
     xlink:href="#linearGradient8"
     id="radialGradient9"
     cx="216.19096"
     cy="53.194252"
     fx="216.19096"
     fy="53.194252"
     r="117.97452"
     gradientTransform="matrix(0.3201582,0,0,1.9189721,-130.76721,-37.495401)"
     gradientUnits="userSpaceOnUse" /><radialGradient
     inkscape:collect="always"
     xlink:href="#linearGradient8"
     id="radialGradient10"
     gradientUnits="userSpaceOnUse"
     gradientTransform="matrix(0.33596847,0,0,1.9189721,87.802759,103.56105)"
     cx="209.39677"
     cy="37.312599"
     fx="209.39677"
     fy="37.312599"
     r="117.97452" /><radialGradient
     inkscape:collect="always"
     xlink:href="#linearGradient11"
     id="radialGradient12"
     cx="-272.40479"
     cy="-50.081898"
     fx="-272.40479"
     fy="-50.081898"
     r="117.97452"
     gradientTransform="matrix(2.1985674,0,0,1.8333037,327.51234,43.553033)"
     gradientUnits="userSpaceOnUse" /><radialGradient
     inkscape:collect="always"
     xlink:href="#linearGradient17"
     id="radialGradient18"
     cx="-209.59885"
     cy="-565.81665"
     fx="-209.59885"
     fy="-565.81665"
     r="114.47723"
     gradientTransform="matrix(2.4912033,0,0,0.10565799,274.11718,0.74110347)"
     gradientUnits="userSpaceOnUse" /><radialGradient
     inkscape:collect="always"
     xlink:href="#linearGradient35"
     id="radialGradient33"
     gradientUnits="userSpaceOnUse"
     gradientTransform="matrix(1.7661524,0,0,0.19445226,263.20379,-169.79203)"
     cx="-92.593857"
     cy="-563.0498"
     fx="-92.593857"
     fy="-563.0498"
     r="114.47723" /><linearGradient
     id="linearGradient2"><stop
       style="stop-color:#009b00;stop-opacity:0.92156899;"
       offset="0"
       id="stop37" /><stop
       style="stop-color:#006900;stop-opacity:1;"
       offset="1"
       id="stop38" /></linearGradient><linearGradient
     id="swatch32"><stop
       style="stop-color:#696969;stop-opacity:1;"
       offset="0"
       id="stop33-6" /><stop
       style="stop-color:#525252;stop-opacity:1;"
       offset="0.5"
       id="stop35-7" /><stop
       style="stop-color:#686868;stop-opacity:0.50251889;"
       offset="0.75"
       id="stop36" /><stop
       style="stop-color:#959595;stop-opacity:0.08942063;"
       offset="1"
       id="stop34-5" /></linearGradient><linearGradient
     id="linearGradient23"
     inkscape:swatch="gradient"><stop
       style="stop-color:#858585;stop-opacity:1;"
       offset="0"
       id="stop30-3" /><stop
       style="stop-color:#001500;stop-opacity:0.53904283;"
       offset="0.46318355"
       id="stop31-5" /><stop
       style="stop-color:#001500;stop-opacity:0.27959698;"
       offset="0.56815809"
       id="stop32-6" /></linearGradient><linearGradient
     id="linearGradient23-1"><stop
       style="stop-color:#858585;stop-opacity:1;"
       offset="0"
       id="stop23-2" /><stop
       style="stop-color:#001500;stop-opacity:0.53904283;"
       offset="0.46318355"
       id="stop26-7" /><stop
       style="stop-color:#001500;stop-opacity:0.27959698;"
       offset="0.56815809"
       id="stop25-0" /></linearGradient><linearGradient
     id="light100to0"><stop
       style="stop-color:#ffffff;stop-opacity:0.79848868;"
       offset="0"
       id="stop2764" /><stop
       style="stop-color:#ffffff;stop-opacity:0.0000000;"
       offset="1.0000000"
       id="stop2765" /></linearGradient><linearGradient
     inkscape:collect="always"
     xlink:href="#linearGradient1"
     id="linearGradient3"
     x1="-151.21037"
     y1="66.425949"
     x2="-229.71045"
     y2="-43.027233"
     gradientUnits="userSpaceOnUse" /><linearGradient
     id="XMLID_2_"
     gradientUnits="userSpaceOnUse"
     x1="63.921398"
     y1="37.0933"
     x2="63.921398"
     y2="139.7455">
					<stop
   offset="0"
   style="stop-color:#FFA700"
   id="stop9-6" />
					<stop
   offset="0.691"
   style="stop-color:#FFFF00"
   id="stop10-7" />
					<stop
   offset="0.792"
   style="stop-color:#FFFC00"
   id="stop11" />
					<stop
   offset="0.8546"
   style="stop-color:#FFF400"
   id="stop12-5" />
					<stop
   offset="0.9067"
   style="stop-color:#FFE500"
   id="stop13" />
					<stop
   offset="0.953"
   style="stop-color:#FFD100"
   id="stop14" />
					<stop
   offset="0.9952"
   style="stop-color:#FFB700"
   id="stop15-3" />
					<stop
   offset="1"
   style="stop-color:#FFB300"
   id="stop16" />
					<a:midPointStop
   offset="0"
   style="stop-color:#FFA700" />
					<a:midPointStop
   offset="0.5"
   style="stop-color:#FFA700" />
					<a:midPointStop
   offset="0.691"
   style="stop-color:#FFFF00" />
					<a:midPointStop
   offset="0.7952"
   style="stop-color:#FFFF00" />
					<a:midPointStop
   offset="1"
   style="stop-color:#FFB300" />
				</linearGradient><linearGradient
     id="XMLID_3_"
     gradientUnits="userSpaceOnUse"
     x1="63.921398"
     y1="23.105499"
     x2="63.921398"
     y2="90.603699">
					<stop
   offset="0.0056"
   style="stop-color:#FFFFFF"
   id="stop17-5" />
					<stop
   offset="0.1471"
   style="stop-color:#FFFAE1"
   id="stop18-6" />
					<stop
   offset="0.4562"
   style="stop-color:#FFEE94"
   id="stop19-2" />
					<stop
   offset="0.9069"
   style="stop-color:#FFDB1A"
   id="stop20-9" />
					<stop
   offset="1"
   style="stop-color:#FFD700"
   id="stop21-7" />
					<a:midPointStop
   offset="0.0056"
   style="stop-color:#FFFFFF" />
					<a:midPointStop
   offset="0.5311"
   style="stop-color:#FFFFFF" />
					<a:midPointStop
   offset="1"
   style="stop-color:#FFD700" />
				</linearGradient><linearGradient
     id="XMLID_6_"
     gradientUnits="userSpaceOnUse"
     x1="2.9863"
     y1="11.0728"
     x2="147.2142"
     y2="159.6219">
					<stop
   offset="0"
   style="stop-color:#D96A00"
   id="stop38-1" />
					<stop
   offset="1"
   style="stop-color:#A74200"
   id="stop39" />
					<a:midPointStop
   offset="0"
   style="stop-color:#D96A00" />
					<a:midPointStop
   offset="0.5"
   style="stop-color:#D96A00" />
					<a:midPointStop
   offset="1"
   style="stop-color:#A74200" />
				</linearGradient></defs>





<metadata
   id="metadata37"><rdf:RDF><cc:License
       rdf:about="http://creativecommons.org/publicdomain/zero/1.0/"><cc:permits
         rdf:resource="http://creativecommons.org/ns#Reproduction" /><cc:permits
         rdf:resource="http://creativecommons.org/ns#Distribution" /><cc:permits
         rdf:resource="http://creativecommons.org/ns#DerivativeWorks" /></cc:License><cc:Work
       rdf:about=""><cc:license
         rdf:resource="http://creativecommons.org/publicdomain/zero/1.0/" /></cc:Work></rdf:RDF></metadata><g
   id="g35"
   transform="matrix(1.0693134,0,0,1.0693134,323.17493,84.39288)"><rect
     style="display:none;fill:#f8fbfd;fill-opacity:1;stroke:#909faf;stroke-width:2;stroke-linecap:round;stroke-linejoin:round;stroke-miterlimit:2.5;stroke-dasharray:none;stroke-opacity:0.65098"
     id="rect1"
     width="256.34982"
     height="256.34973"
     x="-310.44083"
     y="-87.08197"
     ry="31.242258"
     inkscape:label="backwhite" /><rect
     style="display:inline;fill:url(#linearGradient3);fill-opacity:1;stroke:none;stroke-width:2;stroke-linecap:round;stroke-linejoin:round;stroke-miterlimit:2.5;stroke-dasharray:none;stroke-opacity:0.65098"
     id="rect2"
     width="235.94904"
     height="234.55009"
     x="-299.83243"
     y="-76.473587"
     ry="30.615946"
     inkscape:label="colorhead"
     rx="30.615946" /><g
     style="overflow:visible"
     id="g27"
     transform="matrix(0.81203392,0,0,0.81203392,-286.65174,-62.353396)"><g
       id="Layer_1">
		<g
   id="g39"
   transform="matrix(2.0608722,0,0,2.0608722,-4.0444746,-5.6356392)">
				<linearGradient
   id="linearGradient8-1"
   gradientUnits="userSpaceOnUse"
   x1="63.921398"
   y1="37.0933"
   x2="63.921398"
   y2="139.7455">
					<stop
   offset="0"
   style="stop-color:#FFA700"
   id="stop1-2" />
					<stop
   offset="0.691"
   style="stop-color:#FFFF00"
   id="stop2-7" />
					<stop
   offset="0.792"
   style="stop-color:#FFFC00"
   id="stop3" />
					<stop
   offset="0.8546"
   style="stop-color:#FFF400"
   id="stop4" />
					<stop
   offset="0.9067"
   style="stop-color:#FFE500"
   id="stop5" />
					<stop
   offset="0.953"
   style="stop-color:#FFD100"
   id="stop6" />
					<stop
   offset="0.9952"
   style="stop-color:#FFB700"
   id="stop7" />
					<stop
   offset="1"
   style="stop-color:#FFB300"
   id="stop8-0" />
					<a:midPointStop
   offset="0"
   style="stop-color:#FFA700" />
					<a:midPointStop
   offset="0.5"
   style="stop-color:#FFA700" />
					<a:midPointStop
   offset="0.691"
   style="stop-color:#FFFF00" />
					<a:midPointStop
   offset="0.7952"
   style="stop-color:#FFFF00" />
					<a:midPointStop
   offset="1"
   style="stop-color:#FFB300" />
				</linearGradient>
				<path
   fill="url(#XMLID_2_)"
   d="m 124.76,50.452 c -0.301,-0.96 -1.295,-2.602 -4.566,-2.803 L 85.52,45.593 c -1.984,-0.118 -4.42,-1.926 -5.113,-3.8 L 68.365,9.209 C 67.222,6.14 65.371,5.67 64.365,5.66 63.362,5.649 61.501,6.092 60.308,9.139 l -12.67,32.335 c -0.741,1.884 -3.17,3.613 -5.193,3.693 L 7.743,46.569 C 4.479,46.682 3.45,48.295 3.127,49.247 2.804,50.199 2.644,52.108 5.184,54.195 L 32.017,76.23 c 1.555,1.291 2.451,4.143 1.904,6.094 l -9.41,33.418 c -0.882,3.15 0.337,4.621 1.14,5.219 0.808,0.598 2.572,1.338 5.337,-0.424 l 29.254,-18.699 c 1.712,-1.098 4.696,-1.074 6.389,0.051 l 28.877,19.281 c 2.725,1.822 4.506,1.113 5.326,0.529 0.82,-0.584 2.068,-2.039 1.232,-5.207 L 93.312,82.885 c -0.5,-1.926 0.463,-4.797 2.021,-6.025 L 122.61,55.347 c 2.568,-2.027 2.451,-3.935 2.15,-4.895 z"
   id="path16"
   style="fill:url(#XMLID_2_)" />
				<linearGradient
   id="linearGradient25"
   gradientUnits="userSpaceOnUse"
   x1="63.921398"
   y1="23.105499"
   x2="63.921398"
   y2="90.603699">
					<stop
   offset="0.0056"
   style="stop-color:#FFFFFF"
   id="stop21-9" />
					<stop
   offset="0.1471"
   style="stop-color:#FFFAE1"
   id="stop22-36" />
					<stop
   offset="0.4562"
   style="stop-color:#FFEE94"
   id="stop23-0" />
					<stop
   offset="0.9069"
   style="stop-color:#FFDB1A"
   id="stop24-62" />
					<stop
   offset="1"
   style="stop-color:#FFD700"
   id="stop25-6" />
					<a:midPointStop
   offset="0.0056"
   style="stop-color:#FFFFFF" />
					<a:midPointStop
   offset="0.5311"
   style="stop-color:#FFFFFF" />
					<a:midPointStop
   offset="1"
   style="stop-color:#FFD700" />
				</linearGradient>
				<path
   fill="url(#XMLID_3_)"
   d="m 95.176,70.855 17.877,-14.1 c 2.15,-1.696 2.051,-3.294 1.799,-4.098 -0.25,-0.804 -1.082,-2.178 -3.822,-2.346 L 82.002,48.59 C 80.34,48.492 78.303,46.978 77.723,45.409 L 67.641,18.131 c -0.955,-2.569 -2.506,-2.962 -3.347,-2.971 -0.84,-0.009 -2.398,0.362 -3.396,2.912 L 50.29,45.142 c -0.62,1.577 -2.653,3.025 -4.347,3.091 l -29.051,1.174 c -2.732,0.094 -3.594,1.444 -3.864,2.242 -0.27,0.797 -0.405,2.395 1.722,4.142 l 22.462,18.447 c 1.302,1.08 2.052,3.469 1.594,5.102 l -0.251,0.895 c 3.124,0.234 6.295,0.369 9.517,0.369 17.594,0 33.858,-3.622 47.104,-9.749 z"
   id="path21-5"
   style="fill:url(#XMLID_3_)" />
				<path
   opacity="0.3"
   fill="#e89500"
   d="m 66.631,95.598 c -1.693,-1.252 -4.677,-1.277 -6.389,-0.057 l -29.254,24.795 c -2.765,1.959 -4.53,1.137 -5.337,0.471 -0.574,-0.475 -1.35,-1.463 -1.428,-3.262 -0.071,1.93 0.799,2.947 1.428,3.416 0.808,0.598 2.572,1.338 5.337,-0.424 l 29.254,-18.699 c 1.712,-1.098 4.696,-1.074 6.389,0.051 l 28.877,19.281 c 1.361,0.91 2.488,1.189 3.377,1.166 -0.889,0.025 -2.016,-0.285 -3.377,-1.297 z"
   id="path22" />
				<linearGradient
   id="XMLID_4_"
   gradientUnits="userSpaceOnUse"
   x1="29.0718"
   y1="27.5557"
   x2="29.0718"
   y2="141.6925">
					<stop
   offset="0"
   style="stop-color:#FFA700"
   id="stop22-3" />
					<stop
   offset="0.691"
   style="stop-color:#FFFF00"
   id="stop23-5" />
					<stop
   offset="0.792"
   style="stop-color:#FFFC00"
   id="stop24-6" />
					<stop
   offset="0.8546"
   style="stop-color:#FFF400"
   id="stop25-2" />
					<stop
   offset="0.9067"
   style="stop-color:#FFE500"
   id="stop26-9" />
					<stop
   offset="0.953"
   style="stop-color:#FFD100"
   id="stop27-1" />
					<stop
   offset="0.9952"
   style="stop-color:#FFB700"
   id="stop28-2" />
					<stop
   offset="1"
   style="stop-color:#FFB300"
   id="stop29-7" />
					<a:midPointStop
   offset="0"
   style="stop-color:#FFA700" />
					<a:midPointStop
   offset="0.5"
   style="stop-color:#FFA700" />
					<a:midPointStop
   offset="0.691"
   style="stop-color:#FFFF00" />
					<a:midPointStop
   offset="0.7952"
   style="stop-color:#FFFF00" />
					<a:midPointStop
   offset="1"
   style="stop-color:#FFB300" />
				</linearGradient>
				
				<linearGradient
   id="XMLID_5_"
   gradientUnits="userSpaceOnUse"
   x1="97.819298"
   y1="27.5557"
   x2="97.819298"
   y2="141.69611"
   gradientTransform="matrix(1.8090047,0,0,1,-75.383172,0)">
					<stop
   offset="0"
   style="stop-color:#FFA700"
   id="stop30-0" />
					<stop
   offset="0.691"
   style="stop-color:#FFFF00"
   id="stop31-9" />
					<stop
   offset="0.792"
   style="stop-color:#FFFC00"
   id="stop32-3" />
					<stop
   offset="0.8546"
   style="stop-color:#FFF400"
   id="stop33-6-1" />
					<stop
   offset="0.9067"
   style="stop-color:#FFE500"
   id="stop34-0" />
					<stop
   offset="0.953"
   style="stop-color:#FFD100"
   id="stop35-6" />
					<stop
   offset="0.9952"
   style="stop-color:#FFB700"
   id="stop36-2" />
					<stop
   offset="1"
   style="stop-color:#FFB300"
   id="stop37-6" />
					<a:midPointStop
   offset="0"
   style="stop-color:#FFA700" />
					<a:midPointStop
   offset="0.5"
   style="stop-color:#FFA700" />
					<a:midPointStop
   offset="0.691"
   style="stop-color:#FFFF00" />
					<a:midPointStop
   offset="0.7952"
   style="stop-color:#FFFF00" />
					<a:midPointStop
   offset="1"
   style="stop-color:#FFB300" />
				</linearGradient>
				
				<linearGradient
   id="linearGradient27"
   gradientUnits="userSpaceOnUse"
   x1="2.9863"
   y1="11.0728"
   x2="147.2142"
   y2="159.6219">
					<stop
   offset="0"
   style="stop-color:#D96A00"
   id="stop26-8" />
					<stop
   offset="1"
   style="stop-color:#A74200"
   id="stop27-7" />
					<a:midPointStop
   offset="0"
   style="stop-color:#D96A00" />
					<a:midPointStop
   offset="0.5"
   style="stop-color:#D96A00" />
					<a:midPointStop
   offset="1"
   style="stop-color:#A74200" />
				</linearGradient>
				<path
   fill="url(#XMLID_6_)"
   d="m 59.843,8.957 -12.67,32.334 c -0.667,1.695 -2.93,3.304 -4.747,3.376 L 7.723,46.069 c -3.564,0.123 -4.706,1.943 -5.069,3.018 -0.363,1.075 -0.56,3.217 2.213,5.494 l 26.832,22.036 c 1.401,1.162 2.231,3.818 1.74,5.572 l -9.41,33.418 c -0.962,3.436 0.416,5.08 1.323,5.754 0.91,0.676 2.887,1.52 5.904,-0.402 0,-0.002 29.254,-18.699 29.254,-18.699 1.539,-0.986 4.323,-0.965 5.842,0.045 l 28.877,19.281 c 2.973,1.988 4.969,1.18 5.895,0.521 0.713,-0.51 1.719,-1.594 1.719,-3.656 0,-0.607 -0.086,-1.299 -0.295,-2.086 L 93.795,82.76 c -0.078,-0.305 -0.115,-0.641 -0.115,-0.99 0,-1.635 0.812,-3.609 1.963,-4.518 L 122.92,55.739 c 1.996,-1.575 2.496,-3.115 2.496,-4.262 0,-0.464 -0.082,-0.864 -0.18,-1.175 -0.338,-1.083 -1.439,-2.933 -5.014,-3.152 L 85.548,45.094 C 83.767,44.988 81.495,43.3 80.874,41.619 L 68.834,9.036 C 67.588,5.689 65.503,5.172 64.371,5.161 63.24,5.148 61.148,5.625 59.843,8.957 Z M 25.949,120.559 c -0.701,-0.52 -1.757,-1.822 -0.956,-4.682 l 9.41,-33.416 C 35.007,80.305 34.061,77.275 32.337,75.846 32.334,75.844 5.502,53.809 5.502,53.809 3.194,51.913 3.32,50.238 3.601,49.408 c 0.281,-0.83 1.194,-2.236 4.159,-2.339 0.003,0 34.706,-1.402 34.706,-1.402 2.235,-0.088 4.817,-1.924 5.638,-4.009 L 60.774,9.323 C 61.859,6.55 63.486,6.152 64.36,6.162 65.236,6.17 66.859,6.6 67.896,9.385 l 12.041,32.582 c 0.764,2.068 3.357,3.996 5.553,4.126 l 34.674,2.056 c 2.973,0.183 3.855,1.615 4.117,2.453 v 0 c 0.262,0.835 0.354,2.511 -1.98,4.353 L 95.023,76.467 c -1.723,1.357 -2.748,4.414 -2.195,6.545 l 8.754,33.607 c 0.76,2.879 -0.324,4.162 -1.037,4.674 -0.715,0.508 -2.285,1.115 -4.76,-0.539 L 66.908,101.473 c -1.869,-1.242 -5.045,-1.268 -6.936,-0.055 l -29.253,18.697 c -2.512,1.6 -4.067,0.965 -4.77,0.444 z m 99.287,-70.257 z"
   id="path39"
   style="fill:url(#XMLID_6_)" />
			</g>
		
	</g></g><g
     id="g5"
     inkscape:label="shadowdlb"><rect
       style="display:inline;fill:url(#radialGradient9);stroke:none;stroke-width:2;stroke-linecap:round;stroke-linejoin:round;stroke-miterlimit:2.5;stroke-dasharray:none;stroke-opacity:0.65098"
       id="rect3"
       width="235.94904"
       height="234.55009"
       x="-299.83243"
       y="-76.473587"
       ry="27.97814" /><rect
       style="display:inline;fill:url(#radialGradient10);stroke:none;stroke-width:2;stroke-linecap:round;stroke-linejoin:round;stroke-miterlimit:2.5;stroke-dasharray:none;stroke-opacity:0.65098"
       id="rect10"
       width="235.94904"
       height="234.55009"
       x="-77.173058"
       y="64.582863"
       ry="27.97814"
       transform="rotate(90)" /></g><rect
     style="display:inline;fill:url(#radialGradient12);stroke:none;stroke-width:2;stroke-linecap:round;stroke-linejoin:round;stroke-miterlimit:2.5;stroke-dasharray:none;stroke-opacity:0.65098"
     id="rect11"
     width="228.95447"
     height="228.48817"
     x="-296.5683"
     y="-73.209473"
     ry="27.97814" /><rect
     style="display:inline;fill:url(#radialGradient18);stroke:none;stroke-width:2;stroke-linecap:round;stroke-linejoin:round;stroke-miterlimit:2.5;stroke-dasharray:none;stroke-opacity:0.65098"
     id="rect15"
     width="228.95447"
     height="228.48817"
     x="-296.5683"
     y="-73.209473"
     ry="27.97814" /><rect
     style="display:inline;fill:url(#radialGradient33);stroke:none;stroke-width:2;stroke-linecap:round;stroke-linejoin:round;stroke-miterlimit:2.5;stroke-dasharray:none;stroke-opacity:0.65098"
     id="rect33"
     width="228.95447"
     height="228.48817"
     x="-155.51184"
     y="-296.33514"
     ry="27.97814"
     transform="rotate(-90)" /></g></svg>
