<?xml version="1.0" encoding="UTF-8" standalone="no"?>
<svg
   version="1.1"
   width="256"
   height="256"
   viewBox="0 0 256 256"
   xml:space="preserve"
   id="svg37"
   sodipodi:docname="package-purge.svg"
   inkscape:version="1.3.2 (091e20ef0f, 2023-11-25)"
   xmlns:inkscape="http://www.inkscape.org/namespaces/inkscape"
   xmlns:sodipodi="http://sodipodi.sourceforge.net/DTD/sodipodi-0.dtd"
   xmlns:xlink="http://www.w3.org/1999/xlink"
   xmlns="http://www.w3.org/2000/svg"
   xmlns:svg="http://www.w3.org/2000/svg"
   xmlns:rdf="http://www.w3.org/1999/02/22-rdf-syntax-ns#"
   xmlns:cc="http://creativecommons.org/ns#"><sodipodi:namedview
   id="namedview37"
   pagecolor="#ffffff"
   bordercolor="#000000"
   borderopacity="0.25"
   inkscape:showpageshadow="2"
   inkscape:pageopacity="0.0"
   inkscape:pagecheckerboard="0"
   inkscape:deskcolor="#d1d1d1"
   inkscape:current-layer="svg37"
   showguides="true"><sodipodi:guide
     position="128.23315,225.69035"
     orientation="1,0"
     id="guide1"
     inkscape:locked="false" /><sodipodi:guide
     position="56.888889,127.76685"
     orientation="0,-1"
     id="guide2"
     inkscape:locked="false" /></sodipodi:namedview>
<desc
   id="desc1">Created with Fabric.js 5.2.4</desc>
<defs
   id="defs1"><linearGradient
     id="linearGradient35"
     inkscape:collect="always"><stop
       style="stop-color:#d7d5d5;stop-opacity:0.41131106;"
       offset="0"
       id="stop34" /><stop
       style="stop-color:#d7d5d5;stop-opacity:0;"
       offset="1"
       id="stop35" /></linearGradient><linearGradient
     id="linearGradient17"
     inkscape:collect="always"><stop
       style="stop-color:#d7d5d5;stop-opacity:0.30591258;"
       offset="0"
       id="stop17" /><stop
       style="stop-color:#d7d5d5;stop-opacity:0;"
       offset="1"
       id="stop18" /></linearGradient><linearGradient
     id="linearGradient11"
     inkscape:collect="always"><stop
       style="stop-color:#fffdfd;stop-opacity:0.63753211;"
       offset="0.05200902"
       id="stop15" /><stop
       style="stop-color:#e1dfdf;stop-opacity:0.45244217;"
       offset="0.15942086"
       id="stop33" /><stop
       style="stop-color:#d7d5d5;stop-opacity:0.21336761;"
       offset="0.51568735"
       id="stop19" /><stop
       style="stop-color:#d7d5d5;stop-opacity:0.12339332;"
       offset="0.7890625"
       id="stop20" /><stop
       style="stop-color:#d7d5d5;stop-opacity:0;"
       offset="1"
       id="stop12" /></linearGradient><linearGradient
     id="linearGradient8"
     inkscape:collect="always"><stop
       style="stop-color:#010000;stop-opacity:0.45501286;"
       offset="0"
       id="stop8" /><stop
       style="stop-color:#010000;stop-opacity:0.11825193;"
       offset="0.69999999"
       id="stop10" /><stop
       style="stop-color:#010000;stop-opacity:0;"
       offset="1"
       id="stop9" /></linearGradient><linearGradient
     id="SVGID_XMLID_3__9"
     gradientUnits="userSpaceOnUse"
     gradientTransform="matrix(1.98,0,0,1.98,-126.43,-126.43)"
     x1="63.997601"
     y1="14.0005"
     x2="63.997601"
     y2="63.0005">
<stop
   offset="0%"
   style="stop-color:rgb(255,255,255);stop-opacity: 1"
   id="stop31" />
<stop
   offset="100%"
   style="stop-color:rgb(255,255,255);stop-opacity: 0"
   id="stop32" />
</linearGradient><linearGradient
     id="SVGID_XMLID_2__8"
     gradientUnits="userSpaceOnUse"
     gradientTransform="matrix(1.98,0,0,1.98,-126.43,-126.43)"
     x1="68.054878"
     y1="118.06909"
     x2="23.2307"
     y2="22.761999">
<stop
   offset="0%"
   style="stop-color:rgb(255,84,84);stop-opacity: 1"
   id="stop26" />
<stop
   offset="19.439999999999998%"
   style="stop-color:rgb(249,79,79);stop-opacity: 1"
   id="stop27" />
<stop
   offset="46.650000000000006%"
   style="stop-color:rgb(230,66,66);stop-opacity: 1"
   id="stop28" />
<stop
   offset="78.3%"
   style="stop-color:rgb(201,45,45);stop-opacity: 1"
   id="stop29" />
<stop
   offset="100%"
   style="stop-color:rgb(176,28,28);stop-opacity: 1"
   id="stop30" />
</linearGradient><linearGradient
     id="SVGID_XMLID_1__7"
     gradientUnits="userSpaceOnUse"
     gradientTransform="matrix(1.98,0,0,1.98,-126.43,-126.43)"
     x1="115.60217"
     y1="117.39095"
     x2="13.810602"
     y2="13.381392">
<stop
   offset="0"
   style="stop-color:#ff9090;stop-opacity:1;"
   id="stop21" />
<stop
   offset="0.1944"
   style="stop-color:#fa8080;stop-opacity:1;"
   id="stop22" />
<stop
   offset="0.46650001"
   style="stop-color:#e74f4f;stop-opacity:1;"
   id="stop23" />
<stop
   offset="0.63636678"
   style="stop-color:#9d2323;stop-opacity:1;"
   id="stop24" />
<stop
   offset="1"
   style="stop-color:#881515;stop-opacity:1;"
   id="stop25" />
</linearGradient><radialGradient
     inkscape:collect="always"
     xlink:href="#linearGradient8"
     id="radialGradient9"
     cx="216.19096"
     cy="53.194252"
     fx="216.19096"
     fy="53.194252"
     r="117.97452"
     gradientTransform="matrix(0.3201582,0,0,1.9189721,-130.76721,-37.495401)"
     gradientUnits="userSpaceOnUse" /><radialGradient
     inkscape:collect="always"
     xlink:href="#linearGradient8"
     id="radialGradient10"
     gradientUnits="userSpaceOnUse"
     gradientTransform="matrix(0.33596847,0,0,1.9189721,87.802759,103.56105)"
     cx="209.39677"
     cy="37.312599"
     fx="209.39677"
     fy="37.312599"
     r="117.97452" /><radialGradient
     inkscape:collect="always"
     xlink:href="#linearGradient11"
     id="radialGradient12"
     cx="-272.40479"
     cy="-50.081898"
     fx="-272.40479"
     fy="-50.081898"
     r="117.97452"
     gradientTransform="matrix(2.1985674,0,0,1.8333037,327.51234,43.553033)"
     gradientUnits="userSpaceOnUse" /><radialGradient
     inkscape:collect="always"
     xlink:href="#linearGradient17"
     id="radialGradient18"
     cx="-209.59885"
     cy="-565.81665"
     fx="-209.59885"
     fy="-565.81665"
     r="114.47723"
     gradientTransform="matrix(2.4912033,0,0,0.10565799,274.11718,0.74110347)"
     gradientUnits="userSpaceOnUse" /><radialGradient
     inkscape:collect="always"
     xlink:href="#linearGradient35"
     id="radialGradient33"
     gradientUnits="userSpaceOnUse"
     gradientTransform="matrix(1.7661524,0,0,0.19445226,263.20379,-169.79203)"
     cx="-92.593857"
     cy="-563.0498"
     fx="-92.593857"
     fy="-563.0498"
     r="114.47723" /><linearGradient
     id="linearGradient2"><stop
       style="stop-color:#009b00;stop-opacity:0.92156899;"
       offset="0"
       id="stop37" /><stop
       style="stop-color:#006900;stop-opacity:1;"
       offset="1"
       id="stop38" /></linearGradient><linearGradient
     id="swatch32"><stop
       style="stop-color:#696969;stop-opacity:1;"
       offset="0"
       id="stop33-6" /><stop
       style="stop-color:#525252;stop-opacity:1;"
       offset="0.5"
       id="stop35-7" /><stop
       style="stop-color:#686868;stop-opacity:0.50251889;"
       offset="0.75"
       id="stop36" /><stop
       style="stop-color:#959595;stop-opacity:0.08942063;"
       offset="1"
       id="stop34-5" /></linearGradient><linearGradient
     id="linearGradient23"
     inkscape:swatch="gradient"><stop
       style="stop-color:#858585;stop-opacity:1;"
       offset="0"
       id="stop30-3" /><stop
       style="stop-color:#001500;stop-opacity:0.53904283;"
       offset="0.46318355"
       id="stop31-5" /><stop
       style="stop-color:#001500;stop-opacity:0.27959698;"
       offset="0.56815809"
       id="stop32-6" /></linearGradient><linearGradient
     id="linearGradient23-1"><stop
       style="stop-color:#858585;stop-opacity:1;"
       offset="0"
       id="stop23-2" /><stop
       style="stop-color:#001500;stop-opacity:0.53904283;"
       offset="0.46318355"
       id="stop26-7" /><stop
       style="stop-color:#001500;stop-opacity:0.27959698;"
       offset="0.56815809"
       id="stop25-0" /></linearGradient><linearGradient
     id="light100to0"><stop
       style="stop-color:#ffffff;stop-opacity:0.79848868;"
       offset="0"
       id="stop2764" /><stop
       style="stop-color:#ffffff;stop-opacity:0.0000000;"
       offset="1.0000000"
       id="stop2765" /></linearGradient></defs>





<metadata
   id="metadata37"><rdf:RDF><cc:License
       rdf:about="http://creativecommons.org/publicdomain/zero/1.0/"><cc:permits
         rdf:resource="http://creativecommons.org/ns#Reproduction" /><cc:permits
         rdf:resource="http://creativecommons.org/ns#Distribution" /><cc:permits
         rdf:resource="http://creativecommons.org/ns#DerivativeWorks" /></cc:License><cc:Work
       rdf:about=""><cc:license
         rdf:resource="http://creativecommons.org/publicdomain/zero/1.0/" /></cc:Work></rdf:RDF></metadata><g
   id="g35"
   transform="matrix(1.0693134,0,0,1.0693134,323.17493,84.39288)"
   style="display:inline"><rect
     style="display:none;fill:#f8fbfd;fill-opacity:1;stroke:#909faf;stroke-width:2;stroke-linecap:round;stroke-linejoin:round;stroke-miterlimit:2.5;stroke-dasharray:none;stroke-opacity:0.65098"
     id="rect1"
     width="256.34982"
     height="256.34973"
     x="-310.44083"
     y="-87.08197"
     ry="31.242258"
     inkscape:label="backwhite" /><rect
     style="display:inline;fill:#cf0007;fill-opacity:1;stroke:none;stroke-width:2;stroke-linecap:round;stroke-linejoin:round;stroke-miterlimit:2.5;stroke-dasharray:none;stroke-opacity:0.65098"
     id="rect2"
     width="235.94904"
     height="234.55009"
     x="-299.83243"
     y="-76.473587"
     ry="30.615946"
     inkscape:label="colorhead"
     rx="30.615946" /><g
     id="g5"
     inkscape:label="shadowdlb"><rect
       style="display:inline;fill:url(#radialGradient9);stroke:none;stroke-width:2;stroke-linecap:round;stroke-linejoin:round;stroke-miterlimit:2.5;stroke-dasharray:none;stroke-opacity:0.65098"
       id="rect3"
       width="235.94904"
       height="234.55009"
       x="-299.83243"
       y="-76.473587"
       ry="27.97814" /><rect
       style="display:inline;fill:url(#radialGradient10);stroke:none;stroke-width:2;stroke-linecap:round;stroke-linejoin:round;stroke-miterlimit:2.5;stroke-dasharray:none;stroke-opacity:0.65098"
       id="rect10"
       width="235.94904"
       height="234.55009"
       x="-77.173058"
       y="64.582863"
       ry="27.97814"
       transform="rotate(90)" /></g><rect
     style="display:inline;fill:url(#radialGradient12);stroke:none;stroke-width:2;stroke-linecap:round;stroke-linejoin:round;stroke-miterlimit:2.5;stroke-dasharray:none;stroke-opacity:0.65098"
     id="rect11"
     width="228.95447"
     height="228.48817"
     x="-296.5683"
     y="-73.209473"
     ry="27.97814" /><rect
     style="display:inline;fill:url(#radialGradient18);stroke:none;stroke-width:2;stroke-linecap:round;stroke-linejoin:round;stroke-miterlimit:2.5;stroke-dasharray:none;stroke-opacity:0.65098"
     id="rect15"
     width="228.95447"
     height="228.48817"
     x="-296.5683"
     y="-73.209473"
     ry="27.97814" /><rect
     style="display:inline;fill:url(#radialGradient33);stroke:none;stroke-width:2;stroke-linecap:round;stroke-linejoin:round;stroke-miterlimit:2.5;stroke-dasharray:none;stroke-opacity:0.65098"
     id="rect33"
     width="228.95447"
     height="228.48817"
     x="-155.51184"
     y="-296.33514"
     ry="27.97814"
     transform="rotate(-90)" /></g><g
   id="g1"
   transform="translate(0,-14.628571)"><g
     id="g8"
     inkscape:label="3points"
     transform="translate(119.65992,120.97564)"
     style="display:none"><g
       id="g9"
       inkscape:label="shadow"
       style="display:none;fill:#000000;fill-opacity:0.552801"
       transform="translate(6,8)"><circle
         style="fill:#000000;fill-opacity:0.552801;stroke-width:18.8976;stroke-linecap:round;stroke-linejoin:round;stroke-miterlimit:2.1"
         id="path3"
         cx="5.3875189"
         cy="85.64296"
         r="16.719883" /><circle
         style="fill:#000000;fill-opacity:0.552801;stroke-width:18.8976;stroke-linecap:round;stroke-linejoin:round;stroke-miterlimit:2.1"
         id="circle8"
         cx="44.400581"
         cy="85.64296"
         r="16.719883" /><circle
         style="fill:#000000;fill-opacity:0.552801;stroke-width:18.8976;stroke-linecap:round;stroke-linejoin:round;stroke-miterlimit:2.1"
         id="circle9"
         cx="83.042091"
         cy="85.64296"
         r="16.719883" /></g><g
       id="g12"
       inkscape:label="white"><circle
         style="fill:#ffffff;stroke-width:18.8976;stroke-linecap:round;stroke-linejoin:round;stroke-miterlimit:2.1"
         id="circle10"
         cx="5.3875189"
         cy="85.64296"
         r="16.719883" /><circle
         style="fill:#ffffff;stroke-width:18.8976;stroke-linecap:round;stroke-linejoin:round;stroke-miterlimit:2.1"
         id="circle11"
         cx="44.400581"
         cy="85.64296"
         r="16.719883" /><circle
         style="fill:#ffffff;stroke-width:18.8976;stroke-linecap:round;stroke-linejoin:round;stroke-miterlimit:2.1"
         id="circle12"
         cx="83.042091"
         cy="85.64296"
         r="16.719883" /></g></g><g
     id="g13"
     inkscape:label="cross"
     transform="matrix(1.1253598,0,0,1.1253598,147.45003,130.20556)"
     style="display:none"><path
       id="rect12"
       style="display:none;fill-opacity:0.552801;stroke-width:16.62;stroke-linecap:round;stroke-linejoin:round;stroke-miterlimit:2.1"
       d="m -19.252243,-85.829054 v 72.705953 h -72.707671 v 28.103624 h 72.707671 V 87.686476 H 8.8496639 V 14.980523 H 81.555616 V -13.123101 H 8.8496639 v -72.705953 z" /><path
       id="path12"
       style="fill:#ffffff;fill-opacity:1;stroke-width:16.62;stroke-linecap:round;stroke-linejoin:round;stroke-miterlimit:2.1"
       d="m -30.770385,-94.374772 v 72.705953 H -103.47806 V 6.4348046 h 72.707675 V 79.140758 H -2.6684783 V 6.4348046 H 70.037474 V -21.668819 H -2.6684783 v -72.705953 z" /></g><g
     id="g7"
     inkscape:label="arrow"
     transform="translate(129.44992,121.72134)"
     style="display:none"><path
       id="rect2-3"
       style="display:none;fill-opacity:0.478421;stroke-width:18.8976;stroke-linecap:round;stroke-linejoin:round;stroke-miterlimit:2.1"
       d="M -100.87663,40.685043 0.928875,-52.203201 102.73438,40.685043 V 75.239471 L 0.928875,-17.648773 -100.87663,75.239471 Z"
       sodipodi:nodetypes="ccccccc" /><path
       id="path2"
       style="fill:#ffffff;fill-opacity:1;stroke-width:18.8976;stroke-linecap:round;stroke-linejoin:round;stroke-miterlimit:2.1"
       d="M -106.44992,29.166901 -4.6444196,-63.721343 97.161085,29.166901 V 63.721329 L -4.6444196,-29.166915 -106.44992,63.721329 Z"
       sodipodi:nodetypes="ccccccc" /></g><g
     id="g27"
     inkscape:label="remove"
     transform="translate(-2.72424,38.62272)"><rect
       style="fill:#000000;fill-opacity:0.522498;stroke:none;stroke-width:26.498;stroke-linecap:butt;stroke-linejoin:bevel;stroke-miterlimit:2.1;stroke-dasharray:none;stroke-opacity:1"
       id="rect26"
       width="193.20753"
       height="40.499271"
       x="37.724236"
       y="110.72278" /><rect
       style="fill:#ffffff;fill-opacity:1;stroke:none;stroke-width:26.498;stroke-linecap:butt;stroke-linejoin:bevel;stroke-miterlimit:2.1;stroke-dasharray:none;stroke-opacity:1"
       id="rect27"
       width="193.20753"
       height="40.499271"
       x="29.724236"
       y="102.72278" /></g><path
     style="fill:#ffffff;fill-opacity:1;stroke-width:0.116496"
     d="m 94.649179,124.5992 c -0.607269,-0.20115 -1.030837,-0.54663 -1.433935,-1.1696 -0.353102,-0.54569 -0.45471,-0.95301 -0.596586,-2.39158 -0.07027,-0.71253 -0.16606,-1.51243 -0.212863,-1.77756 -0.04681,-0.26512 -0.0856,-0.49896 -0.08621,-0.51963 -6.16e-4,-0.0207 -0.605005,-0.61098 -1.343102,-1.31178 -1.700892,-1.61494 -2.012972,-2.06497 -2.125823,-3.06549 -0.08639,-0.76596 0.266478,-1.69337 0.876396,-2.30328 0.398295,-0.3983 0.682685,-0.52612 1.717707,-0.772 0.558847,-0.13276 0.804593,-0.15768 1.566656,-0.15885 0.843915,-0.001 0.961771,0.0133 1.777555,0.21935 1.122075,0.28349 1.376697,0.31271 1.993379,0.22876 1.183128,-0.16107 5.246857,-2.01483 10.134117,-4.62292 l 0.88973,-0.47481 0.0147,-0.67228 0.0147,-0.67227 -1.32623,-0.64499 c -4.99645,-2.42992 -7.466507,-3.61457 -11.388989,-5.462221 l -2.048705,-0.96503 -0.723073,-0.0266 c -0.589033,-0.0217 -0.901793,0.003 -1.68717,0.13282 -1.265042,0.20922 -2.347581,0.25468 -3.103903,0.13036 -2.207754,-0.36291 -3.408303,-1.23987 -3.533554,-2.58116 -0.107871,-1.15518 0.677004,-2.39548 2.585238,-4.08536 0.680481,-0.60261 0.82852,-0.76291 0.82852,-0.89712 0,-0.0899 0.02727,-0.52811 0.0606,-0.97385 0.169166,-2.26225 0.529254,-3.30563 1.440944,-4.17524 0.398653,-0.380248 0.728359,-0.552721 1.236001,-0.646563 0.917458,-0.169601 2.361461,0.462053 3.381169,1.479023 0.567546,0.56603 0.807789,0.93569 1.495743,2.30149 0.78784,1.56412 1.005012,1.79643 2.357918,2.52237 0.959315,0.51474 4.104781,2.08473 5.736371,2.86318 l 0.85562,0.40823 -0.31489,-0.37122 c -1.01648,-1.19831 -1.61678,-2.93211 -1.79574,-5.18653 -0.0894,-1.12605 -0.009,-2.19031 0.27188,-3.58513 l 0.21105,-1.049203 -0.39627,-0.42707 c -1.06277,-1.145376 -2.225052,-2.972915 -2.9733,-4.675121 -1.709184,-3.888261 -2.371112,-8.513151 -1.740237,-12.159033 0.872039,-5.039594 3.937887,-9.729356 8.159567,-12.481552 1.31331,-0.856169 3.42998,-1.814929 5.38989,-2.441397 5.32852,-1.703204 12.45314,-2.236314 17.78019,-1.330424 4.28571,0.72879 8.73721,2.174415 10.81434,3.51195 1.33199,0.857713 3.0468,2.408516 4.24921,3.842811 2.42132,2.888254 3.9023,6.325423 4.37098,10.144477 0.13246,1.079291 0.18148,3.428976 0.0915,4.384255 -0.31848,3.38051 -1.39397,6.293708 -3.3089,8.962919 -0.37515,0.522922 -1.30853,1.623747 -1.68007,1.981477 l -0.23648,0.227688 0.27046,1.338969 0.27046,1.338964 0.005,1.38589 c 0.006,1.56782 -0.0732,2.2089 -0.41982,3.41437 -0.31591,1.09853 -0.75867,1.9777 -1.36736,2.7151 l -0.23495,0.28462 2.03792,-0.9999 c 1.12086,-0.54994 2.72287,-1.33407 3.56004,-1.74249 1.31969,-0.64384 1.56232,-0.78387 1.82434,-1.05287 0.47157,-0.48414 0.7705,-0.97258 1.2337,-2.01585 0.54209,-1.22093 0.76458,-1.56862 1.3975,-2.1839 1.24059,-1.206004 2.23517,-1.701753 3.25921,-1.624547 0.74071,0.05584 1.46254,0.480239 1.90655,1.120937 0.46446,0.67022 1.05843,3.17806 1.05843,4.46891 v 0.41988 l 0.82118,0.79722 c 1.29337,1.25564 2.42555,2.64554 2.56102,3.144 0.0377,0.13861 0.0511,0.42663 0.0313,0.66602 -0.13433,1.61298 -1.28728,2.62836 -3.32307,2.92656 -0.29826,0.0437 -1.01682,0.081 -1.59678,0.0828 -1.00645,0.003 -1.09016,-0.006 -1.83781,-0.19885 -0.69323,-0.17899 -0.8457,-0.19866 -1.32563,-0.17107 -0.32587,0.0187 -0.69153,0.0833 -0.9162,0.16167 -0.20564,0.0718 -3.6086,1.65527 -7.56213,3.518861 l -7.18824,3.38836 -0.0168,0.75461 -0.0168,0.7546 5.04817,2.34094 c 2.77649,1.28751 5.22441,2.4083 5.43983,2.49064 0.32516,0.12429 0.49909,0.15006 1.02435,0.15179 0.53754,0.002 0.7369,-0.0276 1.32564,-0.19526 0.5725,-0.16305 0.83432,-0.20311 1.50639,-0.23048 0.99198,-0.0404 1.48235,0.029 2.42149,0.3425 1.52325,0.50857 2.37407,1.37911 2.44619,2.5029 0.0683,1.06389 -0.54014,2.02699 -2.13556,3.38049 -0.42475,0.36035 -0.91541,0.79075 -1.09033,0.95645 l -0.31806,0.30129 -0.0913,1.0846 c -0.14918,1.77235 -0.32357,2.60086 -0.7249,3.44388 -0.26986,0.56687 -0.77479,1.08208 -1.32681,1.35384 -0.37537,0.1848 -0.4607,0.20313 -0.92688,0.19912 -0.8508,-0.007 -1.58778,-0.38423 -2.76197,-1.41254 -0.71186,-0.62342 -1.01281,-1.03345 -1.50299,-2.04777 -0.50123,-1.03717 -0.81086,-1.51628 -1.32203,-2.04572 l -0.40975,-0.42439 -4.60308,-2.3894 -4.60309,-2.38941 -0.36283,0.41583 c -1.05956,1.21433 -2.3309,2.23395 -3.53201,2.8327 -0.95724,0.47718 -2.56842,1.0249 -3.78944,1.28822 -1.27262,0.27445 -2.03771,0.33206 -4.41007,0.33206 -3.21893,0 -4.37898,-0.16102 -6.79688,-0.94344 -2.05509,-0.66502 -3.39048,-1.59592 -5.10446,-3.55829 l -0.30051,-0.34406 -4.69073,2.48953 -4.69074,2.48952 -0.36202,0.5058 c -0.19911,0.27819 -0.6199,0.93965 -0.935097,1.4699 -0.657103,1.10544 -0.815406,1.32534 -1.591439,2.21069 -0.542187,0.61856 -0.794622,0.84109 -1.261876,1.11239 -0.692586,0.40214 -1.614589,0.53708 -2.244334,0.32849 z m 1.26222,-1.9645 c 0.294918,-0.14696 0.621946,-0.47572 1.317945,-1.32491 0.165705,-0.20217 0.566991,-0.81377 0.891748,-1.3591 0.658286,-1.10539 1.288915,-2.02311 1.611458,-2.34507 0.145982,-0.14572 1.70408,-1.00162 4.92812,-2.70714 2.59306,-1.37173 4.70657,-2.51057 4.69669,-2.53076 -0.72928,-1.49006 -0.91016,-1.97255 -1.13196,-3.01938 -0.0737,-0.34798 -0.15119,-0.67761 -0.17214,-0.73252 -0.0322,-0.0845 -0.15856,-0.035 -0.82141,0.32153 -3.64361,1.95992 -8.325325,4.11698 -9.614376,4.42974 -0.337151,0.0818 -0.680081,0.10811 -1.382354,0.10605 -0.882572,-0.003 -0.981127,-0.0152 -1.790918,-0.22895 -0.671985,-0.17739 -0.971116,-0.22662 -1.38589,-0.22808 -0.494707,-0.002 -1.454998,0.1556 -1.832426,0.30023 -0.22241,0.0852 -0.42456,0.39472 -0.459333,0.70323 -0.05405,0.47946 0.09772,0.67569 1.70296,2.20202 0.808187,0.76845 1.509989,1.48265 1.55956,1.58712 0.133342,0.281 0.325069,1.46916 0.462757,2.86778 0.13027,1.32328 0.208526,1.63981 0.476273,1.92643 0.217647,0.23299 0.519136,0.24315 0.943296,0.0318 z m 54.300501,0.001 c 0.40124,-0.33762 0.62395,-1.22271 0.79636,-3.16483 0.0691,-0.77882 0.15605,-1.51833 0.19313,-1.64337 0.0771,-0.26003 0.52897,-0.72146 1.46352,-1.4945 0.88505,-0.73209 1.76121,-1.63034 1.90306,-1.95102 0.10866,-0.24566 0.11164,-0.28738 0.0315,-0.44224 -0.12833,-0.24818 -0.50583,-0.48544 -1.07454,-0.6754 -1.09,-0.36407 -1.81485,-0.37741 -2.96904,-0.0547 -1.10068,0.30779 -2.3041,0.31291 -3.25383,0.0138 -0.27817,-0.0876 -2.20547,-0.96771 -7.9467,-3.62888 -1.2223,-0.56657 -2.23234,-1.03012 -2.24453,-1.03012 -0.0122,0 -0.0222,0.0562 -0.0222,0.12487 0,0.22661 -0.29733,1.42099 -0.48877,1.96338 -0.10344,0.29309 -0.32217,0.80011 -0.48607,1.12671 -0.16389,0.32659 -0.28824,0.60356 -0.27633,0.61547 0.0119,0.0119 2.08112,1.08957 4.59825,2.39479 l 4.57659,2.37312 0.54674,0.53638 c 0.71451,0.70097 1.06549,1.21253 1.7192,2.50577 0.51959,1.02791 0.55613,1.08189 1.0344,1.528 0.49151,0.45846 1.06043,0.88383 1.32333,0.98944 0.23117,0.0929 0.39099,0.0688 0.57583,-0.0867 z m -25.11658,-5.75968 c 1.42802,-0.14467 2.58879,-0.43499 4.179,-1.04519 1.54592,-0.59321 3.00851,-1.78773 4.26675,-3.48472 0.81667,-1.10144 1.29806,-2.16601 1.58721,-3.51005 0.23924,-1.11202 0.30097,-1.74251 0.29795,-3.04293 -0.002,-1.00784 -0.0282,-1.37946 -0.14038,-2.01857 -0.14785,-0.84223 -0.14386,-1.11059 0.0327,-2.19935 0.19771,-1.21898 0.64972,-2.747571 1.28179,-4.334701 0.15919,-0.39975 0.26669,-0.72681 0.23889,-0.72681 -0.0278,0 -0.22523,0.0699 -0.43872,0.1554 l -0.38817,0.15539 -0.26901,0.643 c -0.72317,1.72858 -1.48561,4.110791 -1.81453,5.669421 -0.15406,0.73007 -0.39612,2.22243 -0.5188,3.19853 -0.0797,0.63429 -0.17672,0.85 -0.62971,1.40024 -0.94779,1.15126 -3.01271,2.25478 -5.27232,2.81758 -1.89227,0.47131 -3.47999,0.60519 -5.77398,0.48688 -3.02046,-0.15578 -4.78594,-0.52338 -6.57603,-1.36923 -0.98515,-0.4655 -1.77741,-1.02122 -2.62914,-1.84418 l -0.7328,-0.70805 -0.0714,-0.58745 c -0.11135,-0.91548 -0.3564,-2.45757 -0.49071,-3.08808 -0.35891,-1.68484 -0.98891,-3.712491 -1.68496,-5.423051 -0.236,-0.57996 -0.44242,-1.09762 -0.45871,-1.15035 -0.0277,-0.0897 -0.66309,-0.33616 -0.71996,-0.2793 -0.0143,0.0143 0.12046,0.40283 0.29947,0.8634 1.01364,2.608091 1.50209,4.912521 1.28227,6.049551 -0.42304,2.18823 -0.17382,5.11836 0.58937,6.92945 0.82001,1.94593 2.58531,3.98963 4.32873,5.01142 0.83422,0.48891 2.95366,1.12621 4.472,1.34469 1.37944,0.1985 4.22782,0.2416 5.75322,0.0871 z m -2.84358,-8.19535 -0.0161,-1.45089 -0.76616,-0.0202 -0.76617,-0.0202 -0.0172,1.41087 c -0.009,0.77598 -0.0172,1.4143 -0.0172,1.41849 0,0.004 0.29827,0.0267 0.66282,0.0499 0.36455,0.0233 0.7243,0.0469 0.79946,0.0526 l 0.13665,0.0103 z m 2.22945,-0.0657 0.0161,-1.48643 -0.70905,0.0333 c -0.38998,0.0183 -0.71682,0.0397 -0.72632,0.0475 -0.009,0.008 -0.023,0.66923 -0.0301,1.46987 l -0.0129,1.45573 0.72307,-0.0168 0.72308,-0.0168 z m 1.62587,1.27003 0.43685,-0.074 v -1.44334 -1.44334 l -0.25608,0.0353 c -0.14085,0.0194 -0.42556,0.0531 -0.63269,0.0749 l -0.3766,0.0396 v 1.4752 1.47519 l 0.19583,-0.0327 c 0.10771,-0.018 0.39242,-0.066 0.63269,-0.10674 z m -6.19131,-1.34247 v -1.4081 l -0.3766,-0.0402 c -0.20713,-0.0221 -0.5054,-0.0562 -0.66282,-0.0758 l -0.28622,-0.0356 v 1.39093 1.39092 l 0.19584,0.034 c 0.44098,0.0764 0.86661,0.13861 0.99422,0.14524 l 0.13558,0.007 z m 8.42078,0.77532 0.49711,-0.16032 v -1.37363 -1.37363 l -0.49711,0.14111 c -0.27341,0.0776 -0.61451,0.15907 -0.75799,0.18102 -0.14349,0.022 -0.27557,0.0782 -0.29352,0.12495 -0.0179,0.0468 -0.0129,0.69149 0.0113,1.43271 l 0.0439,1.34767 0.24958,-0.0798 c 0.13726,-0.0439 0.47327,-0.15192 0.74668,-0.2401 z m -10.51769,-0.87349 c 0.007,-0.62968 0.0134,-1.24654 0.0151,-1.37083 0.003,-0.21265 -0.0112,-0.23006 -0.23801,-0.29577 -0.13256,-0.0384 -0.46372,-0.13658 -0.73589,-0.21817 -0.27218,-0.0816 -0.50757,-0.13564 -0.52309,-0.12013 -0.0155,0.0155 -0.0309,0.63461 -0.0343,1.37575 l -0.006,1.34754 0.61952,0.18782 c 0.34074,0.1033 0.64665,0.19712 0.67979,0.20848 0.20461,0.0701 0.2108,0.0392 0.22294,-1.11469 z m -2.24334,-0.97916 -0.002,-1.3407 -0.65866,-0.31147 -0.65867,-0.31146 -0.0174,1.24543 -0.0174,1.24544 0.14927,0.13369 c 0.1531,0.13712 1.08013,0.67976 1.1613,0.67976 0.0249,10e-6 0.0444,-0.60331 0.0434,-1.34069 z m 14.57864,1.09133 c 0.25138,-0.13715 0.53162,-0.30169 0.62276,-0.36564 l 0.16571,-0.11627 v -1.29643 c 0,-0.71303 -0.0208,-1.28738 -0.0462,-1.27633 -0.0254,0.011 -0.34058,0.16616 -0.70036,0.34469 l -0.65414,0.3246 0.037,0.30809 c 0.0204,0.16944 0.0373,0.76226 0.0375,1.31737 2.4e-4,0.5551 0.0186,1.00929 0.0406,1.00929 0.022,0 0.24573,-0.11221 0.49711,-0.24937 z m -16.61243,-5.9847 0.017,-0.66039 -0.30128,-0.16066 -0.30128,-0.16065 -0.0451,-0.53395 c -0.0563,-0.66641 -0.17525,-1.088251 -0.44852,-1.589971 -0.35797,-0.65722 -0.76319,-1.10889 -1.43236,-1.59656 -0.34124,-0.24868 -0.63475,-0.45215 -0.65225,-0.45215 -0.0175,0 0.11311,0.3768 0.29024,0.83734 0.93093,2.420381 1.52032,4.701291 1.87005,7.236971 l 0.16206,1.175 0.36895,0.37851 0.36895,0.37852 0.0432,-2.09581 c 0.0238,-1.1527 0.0509,-2.39299 0.0602,-2.7562 z m 18.73992,4.25339 c 0.0958,-0.15456 0.17376,-0.5363 0.32589,-1.59678 0.22058,-1.53765 0.34937,-2.19807 0.66543,-3.41224 0.23182,-0.89056 0.81923,-2.729291 1.14272,-3.576971 0.11288,-0.29581 0.19468,-0.54841 0.18176,-0.56133 -0.047,-0.047 -0.98269,0.69027 -1.20528,0.94957 -0.56453,0.65763 -0.84251,1.32292 -0.95085,2.275701 l -0.0679,0.59691 -0.35387,0.16914 -0.35387,0.16913 1.1e-4,1.02834 c 6e-5,0.56559 0.018,1.82252 0.0399,2.79319 l 0.0398,1.76485 0.20511,-0.1982 c 0.11282,-0.109 0.2618,-0.28959 0.33107,-0.40131 z m -10.0159,-1.99623 v -1.62691 h -0.50376 c -0.27707,0 -0.62957,-0.0173 -0.78333,-0.0383 l -0.27956,-0.0383 v 1.66523 1.66523 h 0.78333 0.78332 z m 1.64198,1.56749 0.5875,-8.6e-4 v -1.62877 -1.62877 l -0.72524,0.0169 -0.72524,0.0169 0.001,1.61185 c 5.6e-4,0.88652 0.002,1.62857 0.002,1.649 5.6e-4,0.0204 0.062,0.0208 0.13661,8.6e-4 0.0746,-0.02 0.39995,-0.0367 0.72307,-0.0372 z m -4.01002,-3.23254 c -0.011,-0.011 -0.29619,-0.0382 -0.63369,-0.0603 l -0.61363,-0.0402 -1.2e-4,0.44591 c -9e-5,0.24526 -0.0178,0.95124 -0.0394,1.56885 l -0.0392,1.12294 0.24591,0.0416 c 0.13526,0.0229 0.43093,0.0598 0.65704,0.0822 l 0.41113,0.0406 0.0161,-1.59076 c 0.009,-0.87492 0.007,-1.59979 -0.004,-1.61082 z m 6.60514,2.9829 c 0.007,-0.0123 0.004,-0.71967 -0.008,-1.57197 l -0.0217,-1.54963 -0.5822,0.0359 c -0.32021,0.0197 -0.59818,0.0527 -0.61771,0.0733 -0.0195,0.0206 -0.0232,0.74419 -0.008,1.60794 l 0.0274,1.57047 0.59836,-0.0719 c 0.3291,-0.0395 0.60449,-0.0819 0.61199,-0.0942 z m -8.63579,-1.64925 v -1.53653 l -0.19583,-8e-5 c -0.10771,-5e-5 -0.42631,-0.0407 -0.70801,-0.0903 -0.28169,-0.0496 -0.533,-0.0903 -0.55846,-0.0903 -0.0255,-5e-5 -0.039,0.64119 -0.0301,1.42496 l 0.0162,1.42506 0.24102,0.0841 c 0.2983,0.10407 1.058,0.31102 1.15993,0.31597 0.0584,0.003 0.0753,-0.34187 0.0753,-1.53287 z m 9.97238,1.40668 c 0.13256,-0.0316 0.41049,-0.11247 0.61762,-0.17964 l 0.3766,-0.12213 v -1.40106 c 0,-0.77059 -0.0123,-1.41338 -0.0274,-1.42843 -0.0151,-0.0151 -0.34721,0.0197 -0.73814,0.0773 -0.39092,0.0576 -0.7311,0.10604 -0.75596,0.10771 -0.0249,0.002 -0.0452,0.69498 -0.0452,1.54071 v 1.53768 l 0.1657,-0.0374 c 0.0911,-0.0205 0.27417,-0.0632 0.40673,-0.0948 z m -12.27967,-3.28214 c -0.0161,-0.0161 -0.60342,-0.19576 -1.20262,-0.3679 -0.0979,-0.0281 -0.10545,0.0556 -0.10545,1.17243 v 1.20273 l 0.64775,0.33731 0.64775,0.3373 0.0162,-1.33097 c 0.009,-0.73205 0.007,-1.33995 -0.004,-1.3509 z m 14.40695,2.50207 c 0.18877,-0.10276 0.4864,-0.27168 0.6614,-0.37538 l 0.31818,-0.18854 -0.006,-1.19127 c -0.003,-0.65521 -0.0111,-1.19038 -0.0169,-1.18927 -0.006,0.001 -0.30888,0.0911 -0.67343,0.19994 l -0.66281,0.19792 -0.0162,1.36672 c -0.009,0.7517 -6.7e-4,1.36672 0.0183,1.36672 0.019,0 0.18896,-0.0841 0.37773,-0.18684 z m -21.88308,-2.47949 c -0.0795,-0.99506 -0.31025,-2.00778 -0.75164,-3.299011 -0.42721,-1.24975 -0.50813,-1.44615 -0.59587,-1.44615 -0.20235,0 -8.369091,-3.98723 -10.34734,-5.05186 -0.931445,-0.50127 -1.145854,-0.64482 -1.54446,-1.034 -0.565243,-0.55188 -1.015187,-1.23272 -1.523971,-2.30603 -0.474046,-1.00003 -0.763491,-1.43359 -1.252467,-1.87609 -0.391995,-0.35473 -1.053115,-0.7267 -1.410923,-0.79382 -0.262192,-0.0492 -0.431025,0.0569 -0.673616,0.4231 -0.342232,0.51668 -0.514098,1.39767 -0.617239,3.16401 -0.04925,0.84333 -0.08544,1.1012 -0.182836,1.30238 -0.114901,0.23735 -0.558168,0.67404 -1.679546,1.6546 -0.901206,0.78804 -1.601534,1.76652 -1.561096,2.18113 0.02476,0.25386 0.367506,0.46641 1.103456,0.6843 0.837285,0.24789 1.927467,0.26781 3.163442,0.0578 1.220496,-0.20738 2.148644,-0.25102 2.898586,-0.13631 0.537811,0.0823 0.706092,0.14826 2.380115,0.93332 3.87484,1.81716 10.460555,4.978781 12.135295,5.825811 0.21542,0.10895 0.41601,0.20166 0.44575,0.20601 0.0309,0.005 0.0371,-0.20484 0.0144,-0.4892 z m 37.26018,-3.465221 c 3.16495,-1.49138 5.97938,-2.78259 6.25428,-2.86935 1.08035,-0.34099 1.85615,-0.35075 3.1084,-0.0391 0.39376,0.098 0.86828,0.19466 1.05448,0.21482 0.46465,0.0503 2.06235,-0.12719 2.52687,-0.28071 0.47572,-0.15722 0.82574,-0.47056 0.88631,-0.79344 0.0396,-0.21083 0.0176,-0.26055 -0.30586,-0.69239 -0.19165,-0.2559 -0.91555,-1.03218 -1.60866,-1.72509 -0.6931,-0.6929 -1.30387,-1.32649 -1.35726,-1.40798 -0.0753,-0.1149 -0.10619,-0.38656 -0.13771,-1.21067 -0.0446,-1.16622 -0.17491,-1.93299 -0.49058,-2.88672 -0.2346,-0.70876 -0.40962,-0.88412 -0.84101,-0.84267 -0.38364,0.0369 -0.81571,0.30733 -1.49133,0.93355 -0.48476,0.44931 -0.57758,0.57042 -0.81238,1.06004 -1.15549,2.4094 -1.29293,2.62979 -2.12648,3.40996 l -0.47128,0.4411 -5.2724,2.58115 c -2.89982,1.41963 -5.41864,2.65693 -5.59737,2.74955 -0.36486,0.18906 -0.33547,0.13315 -0.81687,1.55428 -0.42811,1.263791 -0.75623,2.761341 -0.75623,3.451441 v 0.24349 l 1.25031,-0.58984 c 0.68768,-0.32441 3.83982,-1.81005 7.00477,-3.301431 z m -18.93651,3.091591 c 1.65288,-0.15354 2.64567,-0.32506 3.7068,-0.6404 l 0.40672,-0.12087 v -0.38122 c 0,-1.243901 0.47918,-2.552221 1.31938,-3.602341 0.44248,-0.55303 0.7677,-0.8268 1.78381,-1.50161 0.97857,-0.64988 1.81984,-1.0495 3.26419,-1.55055 1.94007,-0.67301 2.81976,-1.10829 3.28859,-1.62724 0.8776,-0.97138 1.3792,-2.76118 1.37879,-4.91967 -2.3e-4,-1.00759 -0.006,-1.05444 -0.36211,-2.862164 -0.45868,-2.329143 -0.47016,-2.392893 -0.61199,-3.39995 -0.21283,-1.511125 -0.26947,-2.705731 -0.18589,-3.920173 0.0974,-1.415727 0.16251,-1.719581 0.72931,-3.405455 0.65966,-1.962071 0.6767,-2.042529 0.78132,-3.688225 0.0935,-1.470255 -0.0431,-2.275096 -0.46003,-2.710431 l -0.15528,-0.162156 0.18421,-0.229509 c 0.10132,-0.126228 0.39912,-0.441817 0.6618,-0.701309 l 0.4776,-0.4718 0.28285,0.321161 c 0.32274,0.366463 0.6517,0.997518 0.7956,1.526281 0.23735,0.872127 0.1367,3.574911 -0.18176,4.880741 -0.0808,0.331407 -0.30192,1.036404 -0.49134,1.566655 -0.48302,1.352156 -0.60434,1.827898 -0.69106,2.709843 -0.0854,0.868867 -0.0434,2.799712 0.0794,3.647172 l 0.0742,0.512176 0.38635,-0.482048 c 2.00719,-2.504359 3.17479,-5.610532 3.37488,-8.978151 0.059,-0.993132 0.005,-2.715081 -0.113,-3.608318 -0.36501,-2.761178 -1.21906,-5.137035 -2.64348,-7.353798 -1.16236,-1.808945 -3.11008,-3.818636 -4.89328,-5.048952 -2.38547,-1.645872 -8.68279,-3.421665 -13.22491,-3.729314 -1.30075,-0.08814 -4.90476,-0.03326 -6.14612,0.09348 -4.65786,0.475611 -8.16578,1.375214 -11.22663,2.879053 -4.43771,2.180326 -7.85901,6.766058 -8.802204,11.798043 -0.205331,1.09545 -0.259475,1.684847 -0.257274,2.800624 0.0072,3.639602 1.040589,7.500109 2.798508,10.454425 0.42701,0.717622 1.01415,1.525182 1.06573,1.465824 0.0626,-0.07205 0.17407,-1.012312 0.24637,-2.078353 0.0704,-1.037633 -3.5e-4,-2.419521 -0.16292,-3.183602 -0.0529,-0.248556 -0.28442,-0.994225 -0.51451,-1.657042 -0.50064,-1.442121 -0.67727,-2.158437 -0.78006,-3.163442 -0.1131,-1.105861 -0.0974,-2.817789 0.0306,-3.342545 0.14636,-0.599921 0.4729,-1.239031 0.82251,-1.609867 l 0.30169,-0.319993 0.65558,0.681598 0.65558,0.681598 -0.1528,0.161987 c -0.32618,0.345784 -0.45408,0.755067 -0.48475,1.551226 -0.032,0.831625 0.0703,2.309647 0.20568,2.971556 0.05,0.244284 0.28873,1.017593 0.53056,1.718466 0.24183,0.700873 0.4958,1.517826 0.56437,1.81545 0.19277,0.836707 0.27546,2.012088 0.23519,3.343042 -0.0503,1.663692 -0.16956,2.513989 -0.78144,5.573685 l -0.37356,1.867941 2.3e-4,1.26537 c 2.4e-4,1.06807 0.0212,1.36944 0.1345,1.93269 0.17323,0.86102 0.31995,1.30923 0.6593,2.01408 0.59366,1.23309 1.54847,1.82766 4.29584,2.67509 1.36842,0.42209 2.09743,0.76915 3.0697,1.46142 0.84223,0.59967 1.1889,0.92324 1.65896,1.54843 0.7598,1.01054 1.15938,2.13981 1.18122,3.338361 0.01,0.53629 0.0126,0.54588 0.16828,0.58064 0.0871,0.0194 0.36171,0.0905 0.61027,0.15796 0.89834,0.24374 2.66367,0.4852 4.12753,0.56455 1.01421,0.055 5.76575,-0.0231 6.70244,-0.11008 z m -7.12423,-3.995391 c -0.38205,-0.0852 -0.76207,-0.64949 -1.00547,-1.49299 -0.12504,-0.43331 -0.1384,-0.60284 -0.13753,-1.74531 10e-4,-1.49467 0.13191,-2.38987 0.48169,-3.29714 0.40196,-1.04265 1.09619,-2.17141 1.80037,-2.92724 0.41442,-0.44483 1.52557,-1.35523 1.59881,-1.30996 0.0264,0.0163 0.0383,1.98935 0.0266,4.38455 l -0.0214,4.35491 -0.8292,0.84647 c -0.9748,0.99509 -1.4505,1.29006 -1.91382,1.18671 z m 5.90076,-0.12985 c -0.41558,-0.20981 -1.15784,-0.87382 -1.66323,-1.48787 l -0.34194,-0.41546 -0.0362,-4.34899 c -0.0199,-2.39195 -0.0148,-4.36219 0.0112,-4.37831 0.0686,-0.0424 1.12518,0.81907 1.57085,1.2807 0.71253,0.73805 1.52343,2.07301 1.90623,3.13819 0.31829,0.88567 0.48185,2.16631 0.4405,3.44902 -0.0328,1.01729 -0.13606,1.55572 -0.4075,2.12477 -0.37379,0.78362 -0.81484,0.97375 -1.47995,0.63795 z m -13.22017,-8.38929 c -0.85235,-0.14134 -1.67623,-0.48763 -2.33086,-0.97972 -0.67154,-0.50481 -1.48558,-1.47618 -1.68385,-2.00929 -0.0586,-0.15758 -0.33449,-0.82881 -0.61307,-1.491627 -0.72888,-1.734206 -0.85722,-2.143305 -0.85722,-2.73251 0,-0.648635 0.0859,-1.029033 0.36256,-1.605927 0.41805,-0.871651 1.21876,-1.576953 2.17956,-1.919861 0.61863,-0.220792 1.92107,-0.426186 5.40899,-0.852999 1.94922,-0.238524 2.14494,-0.247027 2.59783,-0.112855 0.47258,0.140006 0.78878,0.344381 1.17017,0.75632 0.63604,0.687004 0.95071,1.565116 0.95741,2.6717 0.005,0.8511 -0.0733,1.15319 -0.54605,2.101736 -1.12447,2.256403 -3.44545,5.243553 -4.50808,5.802013 -0.65123,0.34225 -1.46571,0.48439 -2.13739,0.37302 z m 20.39497,0.012 c -0.98764,-0.1191 -1.6995,-0.55857 -2.59229,-1.60037 -1.33886,-1.56232 -2.44388,-3.179674 -3.19709,-4.679414 -0.37983,-0.756285 -0.44627,-0.998122 -0.48568,-1.767982 -0.10239,-1.999908 1.00909,-3.622468 2.56615,-3.746106 0.4145,-0.03291 4.30326,0.428328 6.23483,0.739507 1.43714,0.231525 2.12723,0.542817 2.86544,1.292576 0.59908,0.608456 1.01805,1.608603 1.02379,2.443935 0.003,0.504985 -0.10102,0.906316 -0.47627,1.829244 -0.19578,0.481492 -0.5315,1.30584 -0.74606,1.83188 -0.42728,1.04761 -0.69181,1.46256 -1.3721,2.15236 -1.03308,1.04753 -2.57488,1.6546 -3.82072,1.50437 z"
     id="path27"
     inkscape:label="scull" /></g></svg>
