<?xml version="1.0" encoding="UTF-8" standalone="no"?>
<svg
   version="1.1"
   width="256"
   height="256"
   viewBox="0 0 256 256"
   xml:space="preserve"
   id="svg37"
   sodipodi:docname="rating.svg"
   inkscape:version="1.3.2 (091e20ef0f, 2023-11-25)"
   xmlns:inkscape="http://www.inkscape.org/namespaces/inkscape"
   xmlns:sodipodi="http://sodipodi.sourceforge.net/DTD/sodipodi-0.dtd"
   xmlns="http://www.w3.org/2000/svg"
   xmlns:svg="http://www.w3.org/2000/svg"
   xmlns:rdf="http://www.w3.org/1999/02/22-rdf-syntax-ns#"
   xmlns:cc="http://creativecommons.org/ns#"
   xmlns:a="http://ns.adobe.com/AdobeSVGViewerExtensions/3.0/"><sodipodi:namedview
   id="namedview37"
   pagecolor="#ffffff"
   bordercolor="#000000"
   borderopacity="0.25"
   inkscape:showpageshadow="2"
   inkscape:pageopacity="0.0"
   inkscape:pagecheckerboard="0"
   inkscape:deskcolor="#d1d1d1"
   inkscape:current-layer="svg37"
   showguides="true"><sodipodi:guide
     position="107.00726,189.86357"
     orientation="1,0"
     id="guide2"
     inkscape:locked="false" /><sodipodi:guide
     position="136.35994,190.97823"
     orientation="1,0"
     id="guide3"
     inkscape:locked="false" /><sodipodi:guide
     position="22.664731,142.67634"
     orientation="0,-1"
     id="guide1"
     inkscape:locked="false" /><sodipodi:guide
     position="23.036284,111.09434"
     orientation="0,-1"
     id="guide4"
     inkscape:locked="false" /></sodipodi:namedview>
<desc
   id="desc1">Created with Fabric.js 5.2.4</desc>
<defs
   id="defs1"><linearGradient
   id="SVGID_XMLID_3__9"
   gradientUnits="userSpaceOnUse"
   gradientTransform="matrix(1.98,0,0,1.98,-126.43,-126.43)"
   x1="63.997601"
   y1="14.0005"
   x2="63.997601"
   y2="63.0005">
<stop
   offset="0%"
   style="stop-color:rgb(255,255,255);stop-opacity: 1"
   id="stop31" />
<stop
   offset="100%"
   style="stop-color:rgb(255,255,255);stop-opacity: 0"
   id="stop32" />
</linearGradient><linearGradient
   id="SVGID_XMLID_2__8"
   gradientUnits="userSpaceOnUse"
   gradientTransform="matrix(1.98,0,0,1.98,-126.43,-126.43)"
   x1="68.054878"
   y1="118.06909"
   x2="23.2307"
   y2="22.761999">
<stop
   offset="0"
   style="stop-color:#d9d9d9;stop-opacity:1;"
   id="stop26" />
<stop
   offset="0.1944"
   style="stop-color:#d9d9d9;stop-opacity:1;"
   id="stop27" />
<stop
   offset="0.46650001"
   style="stop-color:#dbdbdb;stop-opacity:1;"
   id="stop28" />
<stop
   offset="0.78299999"
   style="stop-color:#b2b2b2;stop-opacity:1;"
   id="stop29" />
<stop
   offset="1"
   style="stop-color:#666666;stop-opacity:1;"
   id="stop30" />
</linearGradient><linearGradient
   id="SVGID_XMLID_1__7"
   gradientUnits="userSpaceOnUse"
   gradientTransform="matrix(1.98,0,0,1.98,-126.43,-126.43)"
   x1="115.60217"
   y1="117.39095"
   x2="13.810602"
   y2="13.381392">
<stop
   offset="0"
   style="stop-color:#c7c7c7;stop-opacity:1;"
   id="stop21" />
<stop
   offset="0.1944"
   style="stop-color:#bdbdbd;stop-opacity:1;"
   id="stop22" />
<stop
   offset="0.46650001"
   style="stop-color:#9b9b9b;stop-opacity:1;"
   id="stop23" />
<stop
   offset="0.63636678"
   style="stop-color:#606060;stop-opacity:1;"
   id="stop24" />
<stop
   offset="1"
   style="stop-color:#4f4f4f;stop-opacity:1;"
   id="stop25" />
</linearGradient><linearGradient
   id="linearGradient2-5"><stop
     style="stop-color:#ffffff;stop-opacity:0.92156899;"
     offset="0"
     id="stop37" /><stop
     style="stop-color:#a2a2a2;stop-opacity:1;"
     offset="1"
     id="stop38" /></linearGradient><linearGradient
   id="swatch32"><stop
     style="stop-color:#696969;stop-opacity:1;"
     offset="0"
     id="stop33" /><stop
     style="stop-color:#525252;stop-opacity:1;"
     offset="0.5"
     id="stop35" /><stop
     style="stop-color:#686868;stop-opacity:0.50251889;"
     offset="0.75"
     id="stop36" /><stop
     style="stop-color:#959595;stop-opacity:0.08942063;"
     offset="1"
     id="stop34" /></linearGradient><linearGradient
   id="linearGradient23"
   inkscape:swatch="gradient"><stop
     style="stop-color:#858585;stop-opacity:1;"
     offset="0"
     id="stop30-3" /><stop
     style="stop-color:#001500;stop-opacity:0.53904283;"
     offset="0.46318355"
     id="stop31-5" /><stop
     style="stop-color:#001500;stop-opacity:0.27959698;"
     offset="0.56815809"
     id="stop32-6" /></linearGradient><linearGradient
   id="linearGradient23-1"><stop
     style="stop-color:#858585;stop-opacity:1;"
     offset="0"
     id="stop23-2" /><stop
     style="stop-color:#001500;stop-opacity:0.53904283;"
     offset="0.46318355"
     id="stop26-7" /><stop
     style="stop-color:#001500;stop-opacity:0.27959698;"
     offset="0.56815809"
     id="stop25-0" /></linearGradient><linearGradient
   id="XMLID_1_"
   gradientUnits="userSpaceOnUse"
   x1="100.6055"
   y1="37.1133"
   x2="100.6055"
   y2="139.7401">
				<stop
   offset="0"
   style="stop-color:#FFA700"
   id="stop1-3" />
				<stop
   offset="0.691"
   style="stop-color:#FFFF00"
   id="stop2-6" />
				<stop
   offset="0.792"
   style="stop-color:#FFFC00"
   id="stop3" />
				<stop
   offset="0.8546"
   style="stop-color:#FFF400"
   id="stop4" />
				<stop
   offset="0.9067"
   style="stop-color:#FFE500"
   id="stop5" />
				<stop
   offset="0.953"
   style="stop-color:#FFD100"
   id="stop6" />
				<stop
   offset="0.9952"
   style="stop-color:#FFB700"
   id="stop7" />
				<stop
   offset="1"
   style="stop-color:#FFB300"
   id="stop8" />
				<a:midPointStop
   offset="0"
   style="stop-color:#FFA700" />
				<a:midPointStop
   offset="0.5"
   style="stop-color:#FFA700" />
				<a:midPointStop
   offset="0.691"
   style="stop-color:#FFFF00" />
				<a:midPointStop
   offset="0.7952"
   style="stop-color:#FFFF00" />
				<a:midPointStop
   offset="1"
   style="stop-color:#FFB300" />
			</linearGradient>
		
		
	
				<linearGradient
   id="XMLID_2_"
   gradientUnits="userSpaceOnUse"
   x1="63.921398"
   y1="37.0933"
   x2="63.921398"
   y2="139.7455"
   gradientTransform="matrix(2.0608722,0,0,2.0608722,-4.0444746,-5.6356392)">
					<stop
   offset="0"
   style="stop-color:#FFA700"
   id="stop9" />
					<stop
   offset="0.691"
   style="stop-color:#FFFF00"
   id="stop10" />
					<stop
   offset="0.792"
   style="stop-color:#FFFC00"
   id="stop11" />
					<stop
   offset="0.8546"
   style="stop-color:#FFF400"
   id="stop12" />
					<stop
   offset="0.9067"
   style="stop-color:#FFE500"
   id="stop13" />
					<stop
   offset="0.953"
   style="stop-color:#FFD100"
   id="stop14" />
					<stop
   offset="0.9952"
   style="stop-color:#FFB700"
   id="stop15" />
					<stop
   offset="1"
   style="stop-color:#FFB300"
   id="stop16" />
					<a:midPointStop
   offset="0"
   style="stop-color:#FFA700" />
					<a:midPointStop
   offset="0.5"
   style="stop-color:#FFA700" />
					<a:midPointStop
   offset="0.691"
   style="stop-color:#FFFF00" />
					<a:midPointStop
   offset="0.7952"
   style="stop-color:#FFFF00" />
					<a:midPointStop
   offset="1"
   style="stop-color:#FFB300" />
				</linearGradient>
				
				<linearGradient
   id="XMLID_3_"
   gradientUnits="userSpaceOnUse"
   x1="63.921398"
   y1="23.105499"
   x2="63.921398"
   y2="90.603699"
   gradientTransform="matrix(2.0608722,0,0,2.0608722,-4.0444746,-5.6356392)">
					<stop
   offset="0.0056"
   style="stop-color:#FFFFFF"
   id="stop17" />
					<stop
   offset="0.1471"
   style="stop-color:#FFFAE1"
   id="stop18" />
					<stop
   offset="0.4562"
   style="stop-color:#FFEE94"
   id="stop19" />
					<stop
   offset="0.9069"
   style="stop-color:#FFDB1A"
   id="stop20" />
					<stop
   offset="1"
   style="stop-color:#FFD700"
   id="stop21-7" />
					<a:midPointStop
   offset="0.0056"
   style="stop-color:#FFFFFF" />
					<a:midPointStop
   offset="0.5311"
   style="stop-color:#FFFFFF" />
					<a:midPointStop
   offset="1"
   style="stop-color:#FFD700" />
				</linearGradient>
				
				
				<linearGradient
   id="XMLID_4_"
   gradientUnits="userSpaceOnUse"
   x1="29.0718"
   y1="27.5557"
   x2="29.0718"
   y2="141.6925">
					<stop
   offset="0"
   style="stop-color:#FFA700"
   id="stop22-3" />
					<stop
   offset="0.691"
   style="stop-color:#FFFF00"
   id="stop23-5" />
					<stop
   offset="0.792"
   style="stop-color:#FFFC00"
   id="stop24-6" />
					<stop
   offset="0.8546"
   style="stop-color:#FFF400"
   id="stop25-2" />
					<stop
   offset="0.9067"
   style="stop-color:#FFE500"
   id="stop26-9" />
					<stop
   offset="0.953"
   style="stop-color:#FFD100"
   id="stop27-1" />
					<stop
   offset="0.9952"
   style="stop-color:#FFB700"
   id="stop28-2" />
					<stop
   offset="1"
   style="stop-color:#FFB300"
   id="stop29-7" />
					<a:midPointStop
   offset="0"
   style="stop-color:#FFA700" />
					<a:midPointStop
   offset="0.5"
   style="stop-color:#FFA700" />
					<a:midPointStop
   offset="0.691"
   style="stop-color:#FFFF00" />
					<a:midPointStop
   offset="0.7952"
   style="stop-color:#FFFF00" />
					<a:midPointStop
   offset="1"
   style="stop-color:#FFB300" />
				</linearGradient>
				
				<linearGradient
   id="XMLID_5_"
   gradientUnits="userSpaceOnUse"
   x1="97.819298"
   y1="27.5557"
   x2="97.819298"
   y2="141.69611"
   gradientTransform="matrix(1.8090047,0,0,1,-75.383172,0)">
					<stop
   offset="0"
   style="stop-color:#FFA700"
   id="stop30-0" />
					<stop
   offset="0.691"
   style="stop-color:#FFFF00"
   id="stop31-9" />
					<stop
   offset="0.792"
   style="stop-color:#FFFC00"
   id="stop32-3" />
					<stop
   offset="0.8546"
   style="stop-color:#FFF400"
   id="stop33-6" />
					<stop
   offset="0.9067"
   style="stop-color:#FFE500"
   id="stop34-0" />
					<stop
   offset="0.953"
   style="stop-color:#FFD100"
   id="stop35-6" />
					<stop
   offset="0.9952"
   style="stop-color:#FFB700"
   id="stop36-2" />
					<stop
   offset="1"
   style="stop-color:#FFB300"
   id="stop37-6" />
					<a:midPointStop
   offset="0"
   style="stop-color:#FFA700" />
					<a:midPointStop
   offset="0.5"
   style="stop-color:#FFA700" />
					<a:midPointStop
   offset="0.691"
   style="stop-color:#FFFF00" />
					<a:midPointStop
   offset="0.7952"
   style="stop-color:#FFFF00" />
					<a:midPointStop
   offset="1"
   style="stop-color:#FFB300" />
				</linearGradient>
				
				<linearGradient
   id="XMLID_6_"
   gradientUnits="userSpaceOnUse"
   x1="2.9863"
   y1="11.0728"
   x2="147.2142"
   y2="159.6219"
   gradientTransform="matrix(2.0608722,0,0,2.0608722,-4.0444746,-5.6356392)">
					<stop
   offset="0"
   style="stop-color:#D96A00"
   id="stop38-1" />
					<stop
   offset="1"
   style="stop-color:#A74200"
   id="stop39" />
					<a:midPointStop
   offset="0"
   style="stop-color:#D96A00" />
					<a:midPointStop
   offset="0.5"
   style="stop-color:#D96A00" />
					<a:midPointStop
   offset="1"
   style="stop-color:#A74200" />
				</linearGradient>
				
			</defs>




<g
   style="display:inline;overflow:visible"
   id="g1"
   transform="matrix(0.99517384,0,0,0.99517384,1.1634067,1.1283878)"><path
     fill="url(#XMLID_2_)"
     d="M 253.06994,98.339485 C 252.44962,96.361048 250.40111,92.977096 243.66,92.56286 l -71.45868,-4.237153 c -4.08877,-0.243183 -9.10906,-3.96924 -10.53724,-7.831314 l -24.81703,-67.15146 c -2.35557,-6.3248169 -6.17025,-7.2934268 -8.24349,-7.3140355 -2.06705,-0.02267 -5.90233,0.8902967 -8.36095,7.1697745 L 94.131355,79.836974 c -1.527106,3.882684 -6.532965,7.445932 -10.702109,7.610801 l -71.516387,2.889343 c -6.726687,0.232879 -8.8473245,3.557066 -9.5129862,5.519016 -0.6656618,1.96195 -0.9954013,5.896156 4.2392141,10.197196 l 55.2993841,45.41132 c 3.204656,2.66058 5.051197,8.53819 3.9239,12.55895 l -19.392807,68.87023 c -1.817689,6.49175 0.694514,9.52329 2.349394,10.75569 1.665185,1.2324 5.300564,2.75745 10.998875,-0.87381 l 60.288757,-38.53625 c 3.52821,-2.26283 9.67785,-2.21337 13.16691,0.10511 l 59.51181,39.73568 c 5.61587,3.7549 9.28629,2.29375 10.9762,1.0902 1.68992,-1.20355 4.26189,-4.20212 2.539,-10.73096 l -18.04088,-69.25974 c -1.03043,-3.96924 0.95419,-9.886 4.16502,-12.41675 l 56.21442,-44.33555 c 5.29232,-4.17738 5.05119,-8.10953 4.43087,-10.087965 z"
     id="path16"
     style="display:inline;fill:url(#XMLID_2_);stroke-width:2.06087" /><path
     fill="url(#XMLID_3_)"
     d="m 192.1011,140.38746 36.84221,-29.0583 c 4.43088,-3.49524 4.22685,-6.78851 3.70751,-8.44545 -0.51522,-1.65694 -2.22986,-4.488581 -7.87665,-4.834808 l -59.823,-3.546761 C 161.526,94.300176 157.328,91.180015 156.1327,87.946507 L 135.35498,31.730035 c -1.96813,-5.294381 -5.16454,-6.104304 -6.89774,-6.122852 -1.73113,-0.01855 -4.94197,0.746036 -6.99872,6.00126 L 99.596788,87.396254 c -1.27774,3.249995 -5.467494,6.234138 -8.958611,6.370156 l -59.870398,2.419464 c -5.630303,0.193722 -7.406775,2.975899 -7.963211,4.620476 -0.556435,1.64251 -0.834653,4.93579 3.548822,8.53613 l 46.291312,38.01691 c 2.683255,2.22574 4.228909,7.14917 3.28503,10.51457 l -0.517279,1.84448 c 6.438165,0.48225 12.973191,0.76046 19.613321,0.76046 36.258986,0 69.777006,-7.46448 97.075326,-20.09144 z"
     id="path21-5"
     style="display:inline;fill:url(#XMLID_3_);stroke-width:2.06087" /><path
     opacity="0.3"
     fill="#e89500"
     d="m 133.2735,191.37962 c -3.48906,-2.58021 -9.6387,-2.63173 -13.16691,-0.11747 l -60.288757,51.09933 c -5.698311,4.03725 -9.335751,2.34321 -10.998875,0.97067 -1.18294,-0.97892 -2.782177,-3.01506 -2.942925,-6.72257 -0.146322,3.97749 1.646637,6.07339 2.942925,7.03994 1.665185,1.2324 5.300564,2.75745 10.998875,-0.87381 l 60.288757,-38.53625 c 3.52821,-2.26283 9.67785,-2.21337 13.16691,0.10511 l 59.51181,39.73568 c 2.80484,1.87539 5.12745,2.45037 6.95956,2.40297 -1.83211,0.0515 -4.15472,-0.58735 -6.95956,-2.67295 z"
     id="path22"
     style="display:inline;stroke-width:2.06087" /><path
     fill="url(#XMLID_6_)"
     d="M 119.2843,12.823593 93.17305,79.459835 c -1.374602,3.493178 -6.038356,6.809122 -9.782961,6.957504 L 11.871641,89.306682 C 4.5266929,89.560169 2.1731768,93.310957 1.4250802,95.526394 0.67698361,97.741832 0.27099179,102.15622 5.9857904,106.84883 l 55.2973226,45.41338 c 2.887282,2.39473 4.597806,7.86841 3.585918,11.48318 l -19.392808,68.87022 c -1.982559,7.08116 0.857323,10.46923 2.726534,11.85826 1.875394,1.39315 5.949738,3.13253 12.16739,-0.82847 0,-0.004 60.288753,-38.53625 60.288753,-38.53625 3.17168,-2.03202 8.90915,-1.98874 12.03962,0.0927 l 59.5118,39.73568 c 6.12698,4.09701 10.24048,2.43183 12.14885,1.07371 1.4694,-1.05104 3.54264,-3.28503 3.54264,-7.53455 0,-1.25095 -0.17724,-2.67707 -0.60796,-4.29898 L 189.25503,164.9221 c -0.16074,-0.62856 -0.237,-1.32102 -0.237,-2.04026 0,-3.36953 1.67343,-7.43769 4.0455,-9.31102 l 56.21441,-44.33554 c 4.1135,-3.24588 5.14393,-6.41962 5.14393,-8.78344 0,-0.956246 -0.16899,-1.780595 -0.37095,-2.421526 -0.69658,-2.231924 -2.9656,-6.044538 -10.33322,-6.495869 l -71.45868,-4.237153 c -3.67041,-0.218453 -8.35271,-3.697205 -9.63252,-7.161531 L 137.8136,12.986402 c -2.56784,-6.8977393 -6.86476,-7.9632102 -9.19767,-7.9858798 -2.33085,-0.026791 -6.64219,0.9562447 -9.33163,7.8230708 z M 49.433098,242.82105 c -1.444671,-1.07165 -3.620952,-3.75491 -1.970194,-9.649 l 19.392808,-68.86611 c 1.244767,-4.44324 -0.704819,-10.68768 -4.257762,-13.63267 -0.0062,-0.004 -55.3035058,-45.41544 -55.3035058,-45.41544 -4.756493,-3.90741 -4.4968231,-7.359372 -3.917718,-9.069896 0.5791051,-1.710523 2.4606814,-4.60811 8.5711678,-4.82038 0.0062,0 71.52463,-2.889342 71.52463,-2.889342 4.60605,-0.181357 9.927222,-3.965119 11.619198,-8.262037 L 121.20297,13.577872 c 2.23605,-5.7147983 5.58909,-6.5350254 7.39029,-6.5144167 1.80532,0.016487 5.15012,0.902662 7.28724,6.6421907 l 24.81497,67.147338 c 1.5745,4.261884 6.91834,8.235246 11.44402,8.503159 l 71.45868,4.237153 c 6.12698,0.37714 7.94466,3.328309 8.48461,5.05532 v 0 c 0.53995,1.720824 0.72955,5.174854 -4.08052,8.970974 l -56.21648,44.33349 c -3.55088,2.7966 -5.66327,9.09669 -4.52361,13.4884 l 18.04088,69.25974 c 1.56626,5.93325 -0.66773,8.57735 -2.13713,9.63251 -1.47352,1.04693 -4.70909,2.29788 -9.80975,-1.11081 l -59.51181,-39.73567 c -3.85177,-2.55961 -10.3971,-2.61319 -14.29421,-0.11335 l -60.286691,38.53213 c -5.176911,3.29739 -8.381568,1.98874 -9.830361,0.91502 z M 254.05092,98.030354 Z"
     id="path39"
     style="display:inline;fill:url(#XMLID_6_);stroke-width:2.06087" /></g>
<metadata
   id="metadata37"><rdf:RDF><cc:License
       rdf:about="http://creativecommons.org/publicdomain/zero/1.0/"><cc:permits
         rdf:resource="http://creativecommons.org/ns#Reproduction" /><cc:permits
         rdf:resource="http://creativecommons.org/ns#Distribution" /><cc:permits
         rdf:resource="http://creativecommons.org/ns#DerivativeWorks" /></cc:License><cc:Work
       rdf:about=""><cc:license
         rdf:resource="http://creativecommons.org/publicdomain/zero/1.0/" /></cc:Work></rdf:RDF></metadata></svg>
