<?xml version="1.0" encoding="UTF-8" standalone="no"?>
<!-- Created with Inkscape (http://www.inkscape.org/) -->

<svg
   width="256mm"
   height="256mm"
   viewBox="0 0 256 256"
   version="1.1"
   id="svg1"
   inkscape:version="1.3.2 (091e20ef0f, 2023-11-25)"
   sodipodi:docname="vcard.svg"
   xml:space="preserve"
   xmlns:inkscape="http://www.inkscape.org/namespaces/inkscape"
   xmlns:sodipodi="http://sodipodi.sourceforge.net/DTD/sodipodi-0.dtd"
   xmlns:xlink="http://www.w3.org/1999/xlink"
   xmlns="http://www.w3.org/2000/svg"
   xmlns:svg="http://www.w3.org/2000/svg"
   xmlns:rdf="http://www.w3.org/1999/02/22-rdf-syntax-ns#"
   xmlns:cc="http://creativecommons.org/ns#"
   xmlns:dc="http://purl.org/dc/elements/1.1/"><defs
     id="defs1"><linearGradient
       id="linearGradient3"
       inkscape:collect="always"><stop
         style="stop-color:#87d7ff;stop-opacity:1;"
         offset="0"
         id="stop5" /><stop
         style="stop-color:#916ec0;stop-opacity:1;"
         offset="1"
         id="stop8" /></linearGradient><linearGradient
       id="linearGradient20"
       inkscape:collect="always"><stop
         style="stop-color:#fdfefe;stop-opacity:1"
         offset="0"
         id="stop20" /><stop
         style="stop-color:#bbc8ed;stop-opacity:1;"
         offset="1"
         id="stop28" /></linearGradient><linearGradient
       id="linearGradient12"
       inkscape:collect="always"><stop
         style="stop-color:#cddae4;stop-opacity:0;"
         offset="0"
         id="stop12" /><stop
         style="stop-color:#87a5c0;stop-opacity:1;"
         offset="1"
         id="stop13" /></linearGradient><linearGradient
       inkscape:collect="always"
       xlink:href="#linearGradient1"
       id="linearGradient2"
       x1="107.95532"
       y1="88.376244"
       x2="193.89178"
       y2="152.05305"
       gradientUnits="userSpaceOnUse" /><linearGradient
       id="linearGradient1"
       inkscape:collect="always"><stop
         style="stop-color:#ffffff;stop-opacity:1;"
         offset="0"
         id="stop1" /><stop
         style="stop-color:#fbfcfd;stop-opacity:1"
         offset="1"
         id="stop2" /></linearGradient><linearGradient
       inkscape:collect="always"
       xlink:href="#linearGradient6"
       id="linearGradient7"
       x1="106.92001"
       y1="88.862404"
       x2="114.048"
       y2="115.9488"
       gradientUnits="userSpaceOnUse" /><linearGradient
       id="linearGradient6"
       inkscape:collect="always"><stop
         style="stop-color:#bde5ff;stop-opacity:1;"
         offset="0"
         id="stop6" /><stop
         style="stop-color:#8bd4ff;stop-opacity:1;"
         offset="1"
         id="stop7" /></linearGradient><linearGradient
       inkscape:collect="always"
       xlink:href="#linearGradient12"
       id="linearGradient13"
       x1="94.985428"
       y1="79.305397"
       x2="143.47824"
       y2="134.36391"
       gradientUnits="userSpaceOnUse" /><linearGradient
       inkscape:collect="always"
       xlink:href="#linearGradient20"
       id="linearGradient28"
       x1="73.299088"
       y1="89.714836"
       x2="189.9525"
       y2="147.1507"
       gradientUnits="userSpaceOnUse" /><radialGradient
       inkscape:collect="always"
       xlink:href="#linearGradient17"
       id="radialGradient18"
       cx="143.64648"
       cy="180.87654"
       fx="143.64648"
       fy="180.87654"
       r="64.620613"
       gradientTransform="matrix(2.0203911,-0.43689101,0.29327249,1.3562309,-204.55094,-12.652216)"
       gradientUnits="userSpaceOnUse" /><linearGradient
       id="linearGradient17"
       inkscape:collect="always"><stop
         style="stop-color:#dddddd;stop-opacity:1;"
         offset="0"
         id="stop17-7" /><stop
         style="stop-color:#4aa84a;stop-opacity:1;"
         offset="0.78551883"
         id="stop19-7" /><stop
         style="stop-color:#006600;stop-opacity:1;"
         offset="1"
         id="stop18-5" /></linearGradient><linearGradient
       inkscape:collect="always"
       xlink:href="#linearGradient19-5"
       id="linearGradient37-3"
       x1="157.45766"
       y1="135.50427"
       x2="150.4454"
       y2="236.4239"
       gradientUnits="userSpaceOnUse" /><linearGradient
       id="linearGradient19-5"
       inkscape:collect="always"><stop
         style="stop-color:#99ccff;stop-opacity:1;"
         offset="0"
         id="stop20-5" /><stop
         style="stop-color:#99ccff;stop-opacity:1;"
         offset="0.29781011"
         id="stop38-6" /><stop
         style="stop-color:#f5fbff;stop-opacity:1;"
         offset="0.53446352"
         id="stop39-2" /><stop
         style="stop-color:#d4fcff;stop-opacity:1;"
         offset="1"
         id="stop21-9" /></linearGradient><linearGradient
       inkscape:collect="always"
       xlink:href="#linearGradient7-12"
       id="linearGradient8"
       x1="128.95869"
       y1="48.35886"
       x2="136.842"
       y2="67.929298"
       gradientUnits="userSpaceOnUse" /><linearGradient
       id="linearGradient7-12"
       inkscape:collect="always"><stop
         style="stop-color:#d7b900;stop-opacity:1;"
         offset="0"
         id="stop7-7" /><stop
         style="stop-color:#d7aa00;stop-opacity:1;"
         offset="0.5"
         id="stop9" /><stop
         style="stop-color:#fbcf00;stop-opacity:1;"
         offset="1"
         id="stop8-0" /></linearGradient><linearGradient
       inkscape:collect="always"
       xlink:href="#linearGradient12-3"
       id="linearGradient13-9"
       x1="-0.2563923"
       y1="10.844685"
       x2="21.468941"
       y2="10.844685"
       gradientUnits="userSpaceOnUse" /><linearGradient
       id="linearGradient12-3"
       inkscape:collect="always"><stop
         style="stop-color:#d7b600;stop-opacity:1;"
         offset="0"
         id="stop12-3" /><stop
         style="stop-color:#d7ab00;stop-opacity:1;"
         offset="1"
         id="stop13-6" /></linearGradient><linearGradient
       inkscape:collect="always"
       xlink:href="#linearGradient9"
       id="linearGradient11"
       x1="-0.2563923"
       y1="10.844685"
       x2="21.468941"
       y2="10.844685"
       gradientUnits="userSpaceOnUse" /><linearGradient
       id="linearGradient9"
       inkscape:collect="always"><stop
         style="stop-color:#ae9f00;stop-opacity:1;"
         offset="0"
         id="stop10" /><stop
         style="stop-color:#7a6200;stop-opacity:1;"
         offset="1"
         id="stop11" /></linearGradient><linearGradient
       inkscape:collect="always"
       xlink:href="#linearGradient2-6"
       id="linearGradient3-0"
       x1="5.3881922"
       y1="6.2465925"
       x2="20.799934"
       y2="4.7692442"
       gradientUnits="userSpaceOnUse" /><linearGradient
       id="linearGradient2-6"
       inkscape:collect="always"><stop
         style="stop-color:#ffc500;stop-opacity:1;"
         offset="0"
         id="stop2-2" /><stop
         style="stop-color:#fff800;stop-opacity:1;"
         offset="0.17692801"
         id="stop4" /><stop
         style="stop-color:#f9d600;stop-opacity:1;"
         offset="0.43076083"
         id="stop6-6" /><stop
         style="stop-color:#8e8800;stop-opacity:1;"
         offset="0.86709207"
         id="stop5-1" /><stop
         style="stop-color:#ffa400;stop-opacity:1;"
         offset="1"
         id="stop3" /></linearGradient><radialGradient
       inkscape:collect="always"
       xlink:href="#linearGradient14-8"
       id="radialGradient15"
       cx="197.9054"
       cy="93.765251"
       fx="197.9054"
       fy="93.765251"
       r="64.560768"
       gradientTransform="matrix(0.04556457,-2.5783746,1.8581486,0.03283677,-35.209106,533.1438)"
       gradientUnits="userSpaceOnUse" /><linearGradient
       id="linearGradient14-8"
       inkscape:collect="always"><stop
         style="stop-color:#ffff99;stop-opacity:1;"
         offset="0"
         id="stop14-7" /><stop
         style="stop-color:#ffcc66;stop-opacity:1;"
         offset="0.5"
         id="stop36-9" /><stop
         style="stop-color:#ff9933;stop-opacity:1;"
         offset="0.75"
         id="stop37-2" /><stop
         style="stop-color:#996600;stop-opacity:1;"
         offset="1"
         id="stop15-0" /></linearGradient><linearGradient
       inkscape:collect="always"
       xlink:href="#linearGradient24"
       id="linearGradient25"
       x1="133.36749"
       y1="50.002434"
       x2="131.87691"
       y2="73.014473"
       gradientUnits="userSpaceOnUse" /><linearGradient
       id="linearGradient24"
       inkscape:collect="always"><stop
         style="stop-color:#ff9933;stop-opacity:1;"
         offset="0"
         id="stop24-2" /><stop
         style="stop-color:#ff9933;stop-opacity:1;"
         offset="0.5"
         id="stop26-3" /><stop
         style="stop-color:#ffa74e;stop-opacity:0.03985507;"
         offset="1"
         id="stop25-7" /></linearGradient><radialGradient
       inkscape:collect="always"
       xlink:href="#linearGradient32"
       id="radialGradient33"
       cx="123.93391"
       cy="1.3087579"
       fx="123.93391"
       fy="1.3087579"
       r="62.075912"
       gradientTransform="matrix(1,0,0,0.64462492,0,15.25968)"
       gradientUnits="userSpaceOnUse" /><linearGradient
       id="linearGradient32"
       inkscape:collect="always"><stop
         style="stop-color:#f7dbac;stop-opacity:1;"
         offset="0"
         id="stop32-5" /><stop
         style="stop-color:#eea937;stop-opacity:1;"
         offset="0.5"
         id="stop34" /><stop
         style="stop-color:#cc922d;stop-opacity:1;"
         offset="0.75"
         id="stop35-9" /><stop
         style="stop-color:#c28b2c;stop-opacity:1;"
         offset="1"
         id="stop33" /></linearGradient><linearGradient
       inkscape:collect="always"
       xlink:href="#linearGradient26"
       id="linearGradient28-2"
       x1="85.772217"
       y1="53.722202"
       x2="188.75713"
       y2="25.940952"
       gradientUnits="userSpaceOnUse" /><linearGradient
       id="linearGradient26"
       inkscape:collect="always"><stop
         style="stop-color:#8f6622;stop-opacity:1;"
         offset="0"
         id="stop27-2" /><stop
         style="stop-color:#e19d00;stop-opacity:1;"
         offset="0.34468582"
         id="stop29-8" /><stop
         style="stop-color:#e1d9cc;stop-opacity:1;"
         offset="0.65805387"
         id="stop30-9" /><stop
         style="stop-color:#bc8f58;stop-opacity:1;"
         offset="1"
         id="stop28-7" /></linearGradient><linearGradient
       inkscape:collect="always"
       xlink:href="#linearGradient3"
       id="linearGradient10"
       x1="83.169991"
       y1="95.503029"
       x2="128.15631"
       y2="141.30922"
       gradientUnits="userSpaceOnUse" /></defs><sodipodi:namedview
     id="base"
     pagecolor="#ffffff"
     bordercolor="#000000"
     borderopacity="0.3"
     inkscape:pageopacity="0.0"
     inkscape:pageshadow="2"
     inkscape:zoom="0.98994949"
     inkscape:cx="505.07627"
     inkscape:cy="476.792"
     inkscape:document-units="mm"
     inkscape:showpageshadow="2"
     inkscape:pagecheckerboard="0"
     inkscape:deskcolor="#d1d1d1"
     inkscape:current-layer="g32" /><metadata
     id="metadata1"><rdf:RDF><cc:Work
         rdf:about=""><dc:format>image/svg+xml</dc:format><dc:type
           rdf:resource="http://purl.org/dc/dcmitype/StillImage" /><cc:license
           rdf:resource="http://creativecommons.org/publicdomain/zero/1.0/" /></cc:Work><cc:License
         rdf:about="http://creativecommons.org/publicdomain/zero/1.0/"><cc:permits
           rdf:resource="http://creativecommons.org/ns#Reproduction" /><cc:permits
           rdf:resource="http://creativecommons.org/ns#Distribution" /><cc:permits
           rdf:resource="http://creativecommons.org/ns#DerivativeWorks" /></cc:License></rdf:RDF></metadata><g
     id="g32"
     transform="matrix(1.8486485,0,0,1.8486485,-117.06668,-78.257698)"><g
       id="rect1"><path
         style="color:#000000;fill:url(#linearGradient2);fill-rule:evenodd;stroke-linecap:round;stroke-linejoin:round;stroke-miterlimit:2.1;-inkscape-stroke:none"
         d="m 65.187325,78.944142 c 0,-5.229599 0.845682,-5.692402 6.075281,-5.692402 l 122.732904,0 c 4.87225,0 5.59867,-0.938184 5.59867,3.934064 v 73.229166 c 0,5.16321 -0.43547,5.833 -5.59868,5.833 l -124.030094,0 c -5.030601,0 -4.778081,-2.85386 -4.778081,-7.88446 z"
         id="path10"
         inkscape:label="background"
         sodipodi:nodetypes="sssssssss" /><path
         style="color:#000000;fill:url(#linearGradient28);fill-rule:evenodd;stroke-linecap:round;stroke-linejoin:round;stroke-miterlimit:2.1;-inkscape-stroke:none;fill-opacity:1;stroke:url(#linearGradient13);stroke-opacity:1"
         d="m 68.883513,82.116852 c 0,-5.2296 0.435388,-5.672951 5.664987,-5.672951 l 114.78566,0 c 4.87225,0 7.23587,0.515526 7.23587,5.387776 v 65.680283 c 0,5.16321 -0.08,5.20783 -5.2432,5.20783 H 74.865066 c -5.030601,0 -5.981553,-1.08004 -5.981553,-6.11064 z"
         id="path14"
         sodipodi:nodetypes="sssssssss"
         inkscape:label="innerbackg" /><path
         style="color:#000000;fill:#7c878d;fill-rule:evenodd;stroke-linecap:round;stroke-linejoin:round;stroke-miterlimit:2.1;-inkscape-stroke:none;fill-opacity:0.97254902"
         d="m 71.551181,72.111328 c -5.847184,0 -7.504306,0.926261 -7.504306,6.832431 v 71.589081 c 0,5.65373 0.364676,6.85583 6.062767,6.85583 H 194.14009 c 5.88477,0 6.5943,-1.96273 6.59428,-7.69567 V 77.76376 c 0,-2.259652 -1.02275,-5.652432 -5.43767,-5.652432 z m 0,2.28125 H 195.2967 c 3.2509,0 3.15642,2.573927 3.15642,3.371182 V 149.693 c 0,4.57154 0.12484,5.41442 -4.31303,5.41442 H 70.109642 c -4.351988,0 -3.781517,-0.17867 -3.781517,-4.57458 V 78.943759 c 0,-4.546255 0.627595,-4.551181 5.223056,-4.551181 z"
         id="path13"
         sodipodi:nodetypes="ssssscssssssssssss" /><g
         id="g31"
         transform="matrix(1.1056081,0,0,1.1056081,-24.105707,-8.788682)"><path
           style="color:#000000;fill:#5689c6;fill-opacity:1;fill-rule:evenodd;stroke-linecap:square;stroke-miterlimit:2.1;-inkscape-stroke:none"
           d="m 142.00977,106.15713 v 4.61719 h 50.65234 v -4.61719 z"
           id="rect28" /><path
           style="color:#000000;fill:#5689c6;fill-opacity:1;fill-rule:evenodd;stroke-linecap:square;stroke-miterlimit:2.1;-inkscape-stroke:none"
           d="m 142.00977,116.23721 v 4.61718 h 50.65234 v -4.61718 z"
           id="rect29" /><path
           style="color:#000000;fill:#5689c6;fill-opacity:1;fill-rule:evenodd;stroke-linecap:square;stroke-miterlimit:2.1;-inkscape-stroke:none"
           d="m 142.00977,126.82119 v 4.61914 h 50.65234 v -4.61914 z"
           id="rect30" /></g></g><g
       id="rect2"
       transform="matrix(0.81431171,0,0,0.81431171,14.065108,15.720586)"><path
         style="color:#000000;fill:url(#linearGradient7);fill-rule:evenodd;stroke-linecap:round;stroke-linejoin:round;stroke-miterlimit:2.1;-inkscape-stroke:none"
         d="M 79.833603,88.387199 H 128.7792 V 137.808 H 79.833603 Z"
         id="path5" /><g
         id="g6"
         style="display:inline"
         transform="matrix(-0.1893121,0,0,0.1893121,131.10533,91.097901)"><path
           id="rect15"
           style="opacity:1;fill:url(#radialGradient18);stroke:#006600;stroke-width:6.743;stroke-linecap:round;stroke-linejoin:round;stroke-dasharray:none;stroke-opacity:1"
           d="m 68.035715,176.89287 c 24.415925,-24.16608 74.079995,-38.45558 111.167675,-28.9339 25.07705,6.43814 56.11533,29.76703 56.44633,53.35342 0.18576,13.23745 2.38777,22.55147 -6.38306,26.77229 -16.39512,7.8899 -63.86285,18.57331 -86.58065,21.37961 -10.03502,1.23962 -64.288158,6.44086 -87.612192,-2.68775 -9.359006,-3.66295 -9.716675,-22.25867 -9.716675,-22.25867 0,0 -1.523326,-23.67076 22.678572,-47.625 z"
           sodipodi:nodetypes="sasssscs"
           inkscape:label="body" /><path
           id="rect19-3"
           style="display:inline;opacity:1;fill:url(#linearGradient37-3);fill-opacity:1;stroke:#006600;stroke-width:6.74301;stroke-linecap:round;stroke-linejoin:round;stroke-opacity:1"
           d="m 94.683029,159.88393 40.254451,-10.96131 42.0725,2.9013 c 2.45814,29.9233 -7.85898,64.04643 -19.39392,91.97072 -17.39582,-28.65465 -41.5663,-62.22035 -62.933031,-83.91071 z"
           sodipodi:nodetypes="ccccc"
           inkscape:label="bodyfront" /><g
           id="g21"
           inkscape:label="girl"
           style="display:none"><path
             id="rect7"
             style="display:inline;fill:url(#linearGradient8);stroke:none;stroke-width:5.64301;stroke-linecap:round;stroke-linejoin:round"
             d="M 131.22933,52.384827 C 158.88419,39.201145 178.80958,36.90078 190.83044,60.670183 173.54586,54.244208 159.65015,56.049025 143.791,63.877418 112.8922,76.304599 92.140309,67.714808 74.835465,62.80834 87.268472,63.311928 101.91373,62.432862 131.22933,52.384827 Z"
             sodipodi:nodetypes="ccccc"
             inkscape:label="hearshadow" /><path
             id="rect2-6"
             style="display:inline;fill:url(#linearGradient13-9);stroke:url(#linearGradient11);stroke-width:0.7798;stroke-linecap:round;stroke-linejoin:round;stroke-dasharray:none;stroke-opacity:1"
             d="M 8.5908475,21.402249 C 7.7349705,21.279156 4.2336921,20.522297 2.7091552,18.899991 -0.28939898,15.709137 -1.0034179,11.408589 2.3675184,5.7238921 3.9607044,3.0371671 7.0370901,0.98744818 10.114363,0.45160598 c 3.116036,-0.54259213 6.781516,0.19498695 9.00259,2.44685782 2.560858,2.5963676 1.883618,4.7644476 1.883618,4.7644476 C 17.822475,3.5022202 12.873579,8.3716828 9.5186618,8.1171803 8.0198762,8.356986 5.6174232,15.939682 7.8891068,18.189017 c 0.5637801,0.558233 1.8092739,1.488522 2.4816652,1.643861 1.482149,0.342412 -1.1684894,1.657308 -1.7799245,1.569371 z"
             transform="matrix(7.2364671,0,0,7.2364671,35.920532,1.7432714)"
             sodipodi:nodetypes="sssssccsss"
             inkscape:label="peruk-girl" /><path
             id="rect1-1"
             style="fill:url(#linearGradient3-0);stroke-width:0.517243;stroke-linecap:square"
             d="m 10.418545,4.3294115 c 2.135039,-1.0688251 6.179087,-3.0632002 8.017633,0.3133929 0,0 -2.128379,-0.7795035 -4.674777,0.1566965 C 10.968323,5.8263953 10.340995,7.6085972 4.908054,5.948608 6.8212672,5.606573 8.6443304,5.1579424 10.418545,4.3294115 Z"
             sodipodi:nodetypes="ccscc"
             transform="matrix(7.2364671,0,0,7.2364671,35.920532,1.7432714)"
             inkscape:label="hairswing" /></g><g
           id="g26"
           inkscape:label="male"
           transform="matrix(-1,0,0,1,258.93224,0)"><path
             id="path6-2"
             style="display:inline;fill:url(#radialGradient15);fill-opacity:1;stroke:#996600;stroke-width:5.42736;stroke-linecap:round;stroke-linejoin:round;stroke-opacity:1"
             inkscape:label="face"
             d="m 193.61096,89.000755 c 0,43.604175 -26.35354,81.357765 -61.84709,78.952335 -34.079034,-2.30956 -62.792029,-35.72614 -62.792028,-79.330311 0,-43.604169 22.810567,-77.420354 62.792028,-78.574355 42.11956,-1.2157139 61.84709,35.348161 61.84709,78.952331 z"
             sodipodi:nodetypes="sssss"
             transform="matrix(-1,0,0,1,258.93224,0)" /><path
             id="rect21"
             style="opacity:1;fill:url(#linearGradient25);stroke-width:6.74301;stroke-linecap:round;stroke-linejoin:round"
             d="m 134.97111,49.712133 c 40.71582,-15.292894 45.35305,9.409177 55.63236,25.93627 -17.7722,-9.205361 -30.62198,-19.519944 -51.12119,-9.49526 -24.80734,12.131474 -43.683681,1.847831 -58.232345,-17.777358 11.675621,4.495883 15.228009,14.271868 53.721175,1.336348 z"
             sodipodi:nodetypes="ccscc" /><path
             id="path21"
             style="opacity:1;fill:url(#radialGradient33);stroke:#996600;stroke-width:6.74301;stroke-linecap:round;stroke-linejoin:round;stroke-opacity:1"
             d="m 190.76789,77.72008 c -2.60645,10.379385 5.14799,-24.482107 -31.23648,-24.768287 -16.99008,-0.133635 -34.43434,10.694481 -49.99817,10.695838 -15.563835,0.0014 -30.877727,-13.750575 -35.421309,-17.765049 0,-10.701644 24.719197,-44.194526 63.535799,-39.0577111 44.3359,5.8672131 57.08891,55.0908871 53.12016,70.8952091 z"
             sodipodi:nodetypes="ssscss" /><path
             id="rect26"
             style="opacity:1;fill:url(#linearGradient28-2);stroke-width:6.74301;stroke-linecap:round;stroke-linejoin:round"
             d="m 77.078768,44.486945 c 22.03528,8.001565 31.248762,0.158968 54.792952,-6.425596 44.56985,-8.263192 54.93225,7.441561 60.2872,33.77582 C 176.33383,35.337112 142.98196,46.40249 114.6874,60.308895 102.17571,66.458228 82.506315,51.540177 77.078768,44.486945 Z"
             sodipodi:nodetypes="cccsc" /></g></g><path
         style="color:#000000;fill:#ffffff;fill-rule:evenodd;stroke-linecap:round;stroke-linejoin:round;stroke-miterlimit:2.1;-inkscape-stroke:none;fill-opacity:0.23613963"
         d="m 79.833603,109.61992 c 9.938739,6.09879 41.135267,1.82159 48.945597,0 l 0.71017,-20.813886 H 80.543776 Z"
         id="path9"
         sodipodi:nodetypes="ccccc" /><g
         id="path6"><path
           style="color:#000000;fill:url(#linearGradient10);fill-rule:evenodd;stroke-linecap:round;stroke-linejoin:round;stroke-miterlimit:2.1;-inkscape-stroke:none;fill-opacity:1"
           d="m 79.833984,86.246094 c -0.974716,0.261174 -1.87945,1.165908 -2.140625,2.140625 -1.860659,6.944074 -1.998271,41.964221 0,49.421871 0.261177,0.97472 1.165908,1.87946 2.140625,2.14063 4.525372,1.21257 43.071846,1.57379 48.945316,0 0.97473,-0.26118 1.96483,-1.14696 2.14062,-2.14063 1.14472,-6.47053 1.4207,-44.119735 0,-49.421871 -0.26117,-0.974712 -1.1659,-1.87945 -2.14062,-2.140625 -3.62977,-0.972595 -42.02333,-1.854741 -48.945316,0 z m 2.140625,4.28125 H 126.63867 V 135.66797 H 81.974609 Z"
           id="path33" /><path
           d="m 81.974386,90.027307 a 0.50005,0.50005 0 0 0 -0.500158,0.500158 v 45.140525 a 0.50005,0.50005 0 0 0 0.500158,0.49982 h 44.664054 a 0.50005,0.50005 0 0 0 0.50016,-0.49982 V 90.527465 a 0.50005,0.50005 0 0 0 -0.50016,-0.500158 z m 0.500158,0.999972 H 126.13863 V 135.16784 H 82.474544 Z"
           style="fill:#56a6c6;fill-rule:evenodd;stroke-linecap:round;stroke-linejoin:round;stroke-miterlimit:2.1"
           id="path37" /><path
           d="m 97.401354,84.674897 c -2.65529,0.02213 -5.207864,0.07143 -7.528457,0.153103 -4.641185,0.163336 -8.316249,0.439622 -10.16793,0.935779 -1.178838,0.315868 -2.178053,1.315086 -2.493923,2.493923 -0.491958,1.836014 -0.837994,5.316637 -1.082016,9.70519 -0.244022,4.388558 -0.374487,9.656338 -0.3831,14.941568 -0.0086,5.28524 0.104237,10.58577 0.343966,15.03907 0.239728,4.45329 0.595892,8.03359 1.12115,9.99388 0.315872,1.17884 1.31508,2.17841 2.493923,2.49427 0.648378,0.17373 1.740961,0.30401 3.250168,0.42773 1.509206,0.12373 3.414616,0.23225 5.589958,0.32233 4.350686,0.18016 9.780066,0.28979 15.253617,0.31239 5.47354,0.0226 10.98923,-0.0418 15.51004,-0.21077 4.52081,-0.16889 7.99441,-0.42161 9.59946,-0.85168 1.16595,-0.31242 2.28086,-1.27451 2.50387,-2.53512 0.30007,-1.69614 0.52439,-5.24568 0.68931,-9.77556 0.16493,-4.52988 0.26423,-10.01412 0.28149,-15.46095 0.0173,-5.44684 -0.0468,-10.85576 -0.20322,-15.241942 -0.15638,-4.386187 -0.38268,-7.688073 -0.77719,-9.160406 -0.31586,-1.178833 -1.31542,-2.178053 -2.49426,-2.493923 -0.55102,-0.147646 -1.52906,-0.256754 -2.94912,-0.371085 -1.42004,-0.11433 -3.25052,-0.221082 -5.36339,-0.316503 -4.22573,-0.190842 -9.58455,-0.335463 -15.04867,-0.390652 -2.73207,-0.0276 -5.49039,-0.03277 -8.145676,-0.01064 z m 0.0079,0.999286 c 2.648341,-0.02173 5.400871,-0.01621 8.127481,0.01133 5.45321,0.05508 10.80343,0.198451 15.01366,0.388592 2.10512,0.09507 3.92494,0.201617 5.32632,0.314444 1.40139,0.112827 2.41693,0.244344 2.77335,0.339847 0.77059,0.206478 1.58063,1.016526 1.78711,1.787111 0.31584,1.178731 0.58649,4.571166 0.74217,8.937618 0.15567,4.366447 0.22046,9.768187 0.20322,15.205207 -0.0172,5.43704 -0.11506,10.91074 -0.27943,15.4256 -0.16438,4.51486 -0.40328,8.09776 -0.67557,9.63687 -0.12856,0.72673 -0.994,1.53598 -1.7775,1.74592 -1.33168,0.35682 -4.87877,0.64821 -9.37873,0.81632 -4.49996,0.16812 -10.00593,0.23367 -15.46885,0.21112 -5.462902,-0.0225 -10.883811,-0.13296 -15.21688,-0.31239 -2.166533,-0.0897 -4.060838,-0.19658 -5.548765,-0.31856 -1.487925,-0.12198 -2.591101,-0.26708 -3.074065,-0.39649 -0.770588,-0.20648 -1.580629,-1.01651 -1.787112,-1.78711 -0.473874,-1.76853 -0.849516,-5.36152 -1.087851,-9.78895 -0.238337,-4.42744 -0.350495,-9.71449 -0.341906,-14.98448 0.0086,-5.27 0.138052,-10.52493 0.380696,-14.888706 0.242644,-4.36378 0.610692,-7.865952 1.049061,-9.501969 0.20648,-0.770592 1.016522,-1.580633 1.787112,-1.787111 1.609304,-0.431213 5.327315,-0.739624 9.945142,-0.902138 2.308914,-0.08126 4.852995,-0.130346 7.501337,-0.152073 z"
           style="fill:#2239b7;fill-rule:evenodd;stroke-linecap:round;stroke-linejoin:round;stroke-miterlimit:2.1;fill-opacity:1"
           id="path35" /></g></g></g></svg>
