<?xml version="1.0" encoding="UTF-8" standalone="no"?>
<!-- Created with Inkscape (http://www.inkscape.org/) -->

<svg
   width="256mm"
   height="256mm"
   viewBox="0 0 256 256"
   version="1.1"
   id="svg1"
   inkscape:version="1.3.2 (091e20ef0f, 2023-11-25)"
   xml:space="preserve"
   sodipodi:docname="application-metalink+xml.svg"
   xmlns:inkscape="http://www.inkscape.org/namespaces/inkscape"
   xmlns:sodipodi="http://sodipodi.sourceforge.net/DTD/sodipodi-0.dtd"
   xmlns:xlink="http://www.w3.org/1999/xlink"
   xmlns="http://www.w3.org/2000/svg"
   xmlns:svg="http://www.w3.org/2000/svg"
   xmlns:rdf="http://www.w3.org/1999/02/22-rdf-syntax-ns#"
   xmlns:cc="http://creativecommons.org/ns#"
   xmlns:dc="http://purl.org/dc/elements/1.1/"><defs
     id="defs1"><linearGradient
       id="linearGradient26"
       inkscape:collect="always"><stop
         style="stop-color:#7b91c4;stop-opacity:1;"
         offset="0"
         id="stop26" /><stop
         style="stop-color:#5c5e91;stop-opacity:1"
         offset="1"
         id="stop27" /></linearGradient><linearGradient
       id="linearGradient24"
       inkscape:collect="always"><stop
         style="stop-color:#c7fafe;stop-opacity:1;"
         offset="0"
         id="stop24" /><stop
         style="stop-color:#9acdff;stop-opacity:1"
         offset="1"
         id="stop25" /></linearGradient><linearGradient
       id="linearGradient22"
       inkscape:collect="always"><stop
         style="stop-color:#adaeae;stop-opacity:0.8253752;"
         offset="0"
         id="stop22" /><stop
         style="stop-color:#8ac5fe;stop-opacity:0.83628923;"
         offset="1"
         id="stop23" /></linearGradient><linearGradient
       id="linearGradient18"
       inkscape:collect="always"><stop
         style="stop-color:#9797ff;stop-opacity:1;"
         offset="0"
         id="stop18" /><stop
         style="stop-color:#ccccff;stop-opacity:1;"
         offset="0.30000001"
         id="stop20" /><stop
         style="stop-color:#ccccff;stop-opacity:1;"
         offset="1"
         id="stop19" /></linearGradient><linearGradient
       id="linearGradient16"
       inkscape:collect="always"><stop
         style="stop-color:#cdcdcd;stop-opacity:0.17462483;"
         offset="0"
         id="stop16" /><stop
         style="stop-color:#cdcdcd;stop-opacity:1;"
         offset="1"
         id="stop17" /></linearGradient><linearGradient
       id="linearGradient12"
       inkscape:collect="always"><stop
         style="stop-color:#fdfeff;stop-opacity:1;"
         offset="0"
         id="stop13" /><stop
         style="stop-color:#99ccff;stop-opacity:1;"
         offset="1"
         id="stop14" /></linearGradient><linearGradient
       id="linearGradient9"
       inkscape:collect="always"><stop
         style="stop-color:#97c9fc;stop-opacity:1;"
         offset="0"
         id="stop9" /><stop
         style="stop-color:#7788bb;stop-opacity:1"
         offset="0.25"
         id="stop12" /><stop
         style="stop-color:#57578a;stop-opacity:1"
         offset="0.5"
         id="stop11" /><stop
         style="stop-color:#444482;stop-opacity:1;"
         offset="1"
         id="stop10" /></linearGradient><linearGradient
       inkscape:collect="always"
       xlink:href="#linearGradient9"
       id="linearGradient10"
       x1="31.622168"
       y1="100.24049"
       x2="221.19499"
       y2="240.28973"
       gradientUnits="userSpaceOnUse" /><linearGradient
       inkscape:collect="always"
       xlink:href="#linearGradient12"
       id="linearGradient14"
       x1="73.583481"
       y1="62.020954"
       x2="207.02971"
       y2="229.59895"
       gradientUnits="userSpaceOnUse" /><linearGradient
       inkscape:collect="always"
       xlink:href="#linearGradient16"
       id="linearGradient17"
       x1="57.531055"
       y1="26.420616"
       x2="147.13231"
       y2="144.34076"
       gradientUnits="userSpaceOnUse" /><linearGradient
       inkscape:collect="always"
       xlink:href="#linearGradient18"
       id="linearGradient19"
       x1="209.82518"
       y1="58.53635"
       x2="210.58252"
       y2="194.57654"
       gradientUnits="userSpaceOnUse" /><linearGradient
       inkscape:collect="always"
       xlink:href="#linearGradient22"
       id="linearGradient23"
       x1="177.19191"
       y1="58.990749"
       x2="207.31994"
       y2="58.990749"
       gradientUnits="userSpaceOnUse" /><linearGradient
       inkscape:collect="always"
       xlink:href="#linearGradient24"
       id="linearGradient25"
       x1="176.32031"
       y1="20.126524"
       x2="176.32031"
       y2="56.695721"
       gradientUnits="userSpaceOnUse" /><linearGradient
       inkscape:collect="always"
       xlink:href="#linearGradient26"
       id="linearGradient27"
       x1="172.59729"
       y1="13.51158"
       x2="210.54449"
       y2="51.28627"
       gradientUnits="userSpaceOnUse" /></defs><sodipodi:namedview
     id="base"
     pagecolor="#ffffff"
     bordercolor="#000000"
     borderopacity="0.3"
     inkscape:pageopacity="0.0"
     inkscape:pageshadow="2"
     inkscape:zoom="0.98994949"
     inkscape:cx="505.07627"
     inkscape:cy="476.792"
     inkscape:document-units="mm"
     inkscape:showpageshadow="2"
     inkscape:pagecheckerboard="0"
     inkscape:deskcolor="#d1d1d1"
     inkscape:current-layer="g28"
     showguides="true" /><metadata
     id="metadata1"><rdf:RDF><cc:Work
         rdf:about=""><dc:format>image/svg+xml</dc:format><dc:type
           rdf:resource="http://purl.org/dc/dcmitype/StillImage" /><cc:license
           rdf:resource="http://creativecommons.org/publicdomain/zero/1.0/" /></cc:Work><cc:License
         rdf:about="http://creativecommons.org/publicdomain/zero/1.0/"><cc:permits
           rdf:resource="http://creativecommons.org/ns#Reproduction" /><cc:permits
           rdf:resource="http://creativecommons.org/ns#Distribution" /><cc:permits
           rdf:resource="http://creativecommons.org/ns#DerivativeWorks" /></cc:License></rdf:RDF></metadata><g
     id="g28"
     transform="matrix(1.0481261,0,0,1.0481261,-6.4074194,-6.1384097)"><g
       id="g7"
       inkscape:label="shadow"
       style="display:inline"><path
         id="rect1"
         style="fill:#000000;fill-opacity:0.0602258;stroke-width:3.72791;stroke-linecap:square"
         d="M 48.380952,13.418155 H 179.16071 l 43.46726,43.278274 V 244.17261 H 48.380952 Z"
         sodipodi:nodetypes="cccccc" /><path
         id="path1"
         style="fill:#000000;fill-opacity:0.0752823;stroke-width:3.72791;stroke-linecap:square"
         d="m 47.563027,12.60023 129.443423,-0.133635 43.46726,43.278274 1.33635,187.609821 H 47.563027 Z"
         sodipodi:nodetypes="cccccc" /><path
         id="path2"
         style="fill:#000000;fill-opacity:0.0602258;stroke-width:3.72791;stroke-linecap:square"
         d="m 46.493949,11.793049 128.975701,-0.868626 43.46726,43.278274 1.80407,188.344813 H 46.493949 Z"
         sodipodi:nodetypes="cccccc" /><path
         id="path3"
         style="fill:#000000;fill-opacity:0.0602258;stroke-width:3.72791;stroke-linecap:square"
         d="m 45.964782,12.33296 129.777508,0.467722 43.46726,42.209196 1.00226,187.008462 H 45.964782 Z"
         sodipodi:nodetypes="cccccc" /><path
         id="path4"
         style="fill:#000000;fill-opacity:0.0602258;stroke-width:3.72791;stroke-linecap:square"
         d="m 45.435615,12.338332 129.443415,0.935443 43.46726,41.674657 1.33635,186.540738 H 45.435615 Z"
         sodipodi:nodetypes="cccccc" /><path
         id="path5"
         style="fill:#000000;fill-opacity:0.0602258;stroke-width:3.72791;stroke-linecap:square"
         d="M 44.906448,12.744609 174.8844,13.412783 218.35166,54.151996 219.15347,240.96 H 44.906448 Z"
         sodipodi:nodetypes="cccccc" /><path
         id="path6"
         style="fill:#000000;fill-opacity:0.0602258;stroke-width:3.72791;stroke-linecap:square"
         d="m 44.377281,15.021772 129.911129,0.534539 43.46726,37.932883 0.86863,186.941636 H 44.377281 Z"
         sodipodi:nodetypes="cccccc" /><path
         id="path7"
         style="fill:#000000;fill-opacity:0.0602258;stroke-width:3.72791;stroke-linecap:square"
         d="m 43.848114,13.423527 129.710676,1.069078 43.46726,39.001961 1.06908,186.407094 H 43.848114 Z"
         sodipodi:nodetypes="cccccc" /></g><g
       id="g14"
       style="display:inline"><path
         style="color:#000000;fill:url(#linearGradient14);stroke-linecap:square;-inkscape-stroke:none"
         d="M 46.153822,14.648159 H 173.78301 l 40.90293,41.140298 V 236.0795 H 46.554726 Z"
         id="path15"
         inkscape:label="headbgground" /><path
         id="rect16"
         style="display:inline;fill:url(#linearGradient17);fill-opacity:1;stroke-width:4.99999;stroke-linecap:square"
         d="M 45.435818,14.165285 H 176.70315 l 0.20408,8.220982 H 53.433709 V 235.97952 h -7.997891 z"
         sodipodi:nodetypes="ccccccc" /><path
         id="rect17"
         style="fill:url(#linearGradient19);stroke-width:4.99999;stroke-linecap:square"
         d="M 47.058037,227.91965 H 207.27506 l -0.0668,-168.246312 7.31651,0.0667 0.0668,168.546562 -7.08265,0.0331 v 7.34846 H 47.058037 Z"
         sodipodi:nodetypes="ccccccccc" /><path
         style="color:#000000;fill:url(#linearGradient10);stroke-linecap:square;-inkscape-stroke:none"
         d="M 43.648437,12.148438 44.058594,238.58008 H 217.18555 V 54.757812 L 174.82227,12.148438 Z m 4.608862,4.999999 H 172.74414 l 39.44141,39.671875 V 233.58008 H 48.775405 Z"
         id="path16"
         inkscape:label="headframe"
         sodipodi:nodetypes="cccccccccccc" /></g><g
       id="g3"
       transform="matrix(0.33657953,0,0,0.33657953,61.484814,206.52432)"
       style="display:inline"><g
         id="#ff8200ff"
         transform="matrix(8.1031615,0,0,8.1031615,3.2291602,-563.28368)"><path
           fill="#ff8200"
           opacity="1"
           d="m 7.44,8.42 c 3.46,-5.3 12,-4 15.07,1.03 1.62,2.44 1.7,5.46 2.04,8.27 4.38,0.13 9.13,-0.72 13.11,1.58 3.52,1.88 6.55,5.53 6.22,9.72 -0.28,3.19 -2.83,5.58 -5.63,6.79 2.47,2.92 3.93,7.53 1.22,10.79 -3.4,4.67 -10.57,4.05 -14.56,0.51 C 21.67,44.54 20.85,40.28 20.17,36.44 14.23,36.96 7.03,35.84 4.09,29.93 1.5,25.57 4.76,20.21 9.32,19.02 6.65,16.33 4.84,11.77 7.44,8.42 m 1.48,5.56 c 2.9,4.71 9.17,4.19 13.95,3.85 -0.98,-5 -4.4,-10.1 -9.84,-10.67 -3.49,-0.35 -6.02,3.9 -4.11,6.82 M 6.34,28.64 c 3.19,4.11 8.92,3.52 13.53,3.22 C 18.88,26.87 15.45,21.67 9.96,21.21 6.17,20.88 3.84,25.84 6.34,28.64 m 12.59,-6.25 c 1.84,2.79 2.42,6.09 2.65,9.37 1.54,-0.06 3.09,-0.13 4.64,-0.19 -1.72,-2.79 -2.59,-5.95 -3.05,-9.17 -1.41,0 -2.83,0 -4.24,-0.01 m 5.79,-0.09 c 1.57,5.49 6.3,10.64 12.2,11.17 3.98,0.54 6.89,-4.49 4.16,-7.55 C 37.14,21.1 30.23,22.13 24.72,22.3 m -2.97,14.03 c 1.02,4.3 4.17,7.77 7.91,9.96 2.67,1.48 6.77,2.04 8.74,-0.83 1.83,-2.56 0.06,-6.1 -2.45,-7.45 -4.26,-2.6 -9.46,-1.79 -14.2,-1.68 z"
           id="path22" /></g><g
         id="g2"
         transform="matrix(1.8630433,0,0,1.8630433,-104.16721,-87.765161)"><g
           id="#0064b5ff"
           inkscape:label="#0064b5ff"><path
             fill="#0064b5"
             opacity="1"
             d="m 203.13,22.49 c 3.2,0.01 6.39,0.01 9.58,0.01 0.01,2.86 0.01,5.72 0.01,8.59 -3.2,0.01 -6.4,0.01 -9.6,0 0,-2.87 0,-5.73 0.01,-8.6 z"
             id="path25-3" /><path
             fill="#0064b5"
             opacity="1"
             d="m 251.59,22.51 c 3.2,-0.03 6.41,-0.02 9.61,0.02 -0.03,9.12 -0.01,18.24 -0.01,27.36 4.07,-4.8 8.1,-9.63 12.17,-14.43 3.63,0.01 7.27,0 10.9,0.01 -4.19,4.71 -8.45,9.35 -12.64,14.06 4.53,7.66 9.03,15.34 13.52,23.03 -3.79,0.01 -7.58,0.06 -11.36,-0.08 -2.8,-5.48 -5.84,-10.84 -8.75,-16.25 -1.28,1.39 -2.56,2.77 -3.84,4.16 0,4.06 0,8.12 -0.02,12.18 -3.2,0 -6.39,0 -9.58,-0.02 0.01,-16.68 0,-33.36 0,-50.04 z"
             id="path27-2" /><path
             fill="#0064b5"
             opacity="1"
             d="m 190.06,22.5 c 3.2,0 6.41,0 9.61,-0.01 0.04,16.69 0.02,33.38 0.02,50.07 -3.21,0 -6.42,0.01 -9.62,0.01 -0.03,-16.69 -0.01,-33.38 -0.01,-50.07 z"
             id="path29" /><path
             fill="#0064b5"
             opacity="1"
             d="m 225.47,40.8 c 3.94,-6.4 13.2,-7.57 19.19,-3.53 3.99,2.9 4.3,8.22 4.41,12.72 -0.03,7.53 0.06,15.07 -0.07,22.6 -3.19,-0.03 -6.38,-0.03 -9.56,-0.03 -0.05,-7.51 0.06,-15.03 -0.04,-22.55 0.01,-2.38 -0.62,-5.3 -3.07,-6.31 -3.12,-1.27 -7.15,-0.54 -9.32,2.13 -1.59,2.02 -1.46,4.74 -1.53,7.17 0.03,6.52 0.02,13.04 0.02,19.55 -3.23,0.04 -6.46,0.04 -9.69,-0.07 0.15,-12.33 0.02,-24.67 0.07,-37.01 3.21,-0.01 6.41,-0.01 9.62,0 0,1.78 -0.01,3.55 -0.03,5.33 z"
             id="path31" /><path
             fill="#0064b5"
             opacity="1"
             d="m 203.12,35.5 c 3.2,0 6.39,0 9.59,-0.01 0.02,12.36 0.01,24.72 0.01,37.07 -3.2,0.01 -6.4,0.01 -9.59,0.01 -0.02,-12.36 0,-24.71 -0.01,-37.07 z"
             id="path33" /></g><g
           id="#000000ff"><path
             fill="#000000"
             opacity="1"
             d="m 137.5,26.28 c 3.21,0 6.41,0 9.62,0 0,3.32 0.01,6.64 0.01,9.96 1.78,0.01 3.56,0.01 5.34,0.01 0,2.13 0,4.25 0,6.37 -1.78,0.01 -3.56,0.01 -5.34,0.01 0.12,7.4 -0.25,14.81 0.17,22.2 0.25,2.59 3.41,1.83 5.18,1.98 -0.01,2.19 -0.01,4.38 -0.01,6.57 -3.92,0.57 -8.4,1.44 -11.89,-0.98 -2.73,-1.83 -3.03,-5.4 -3.08,-8.39 -0.02,-7.13 0.01,-14.25 0,-21.38 -1.58,0 -3.15,-0.01 -4.72,-0.01 0,-2.12 0,-4.25 0,-6.37 1.57,0 3.14,0 4.71,-0.01 0.01,-3.32 0.01,-6.64 0.01,-9.96 z"
             id="path36" /><path
             fill="#000000"
             opacity="1"
             d="m 55.16,40.05 c 4.71,-6.67 15.96,-7.03 20.32,0.17 4.24,-5.91 13.3,-7.02 18.98,-2.62 3.05,2.53 3.63,6.68 3.66,10.4 0.02,8.19 0,16.38 0,24.57 -3.21,-0.01 -6.41,-0.01 -9.62,-0.01 -0.11,-8.49 0.2,-17.01 -0.14,-25.49 -0.4,-4.26 -6.16,-5.01 -9.04,-2.77 -2.11,1.48 -2.59,4.22 -2.61,6.63 -0.07,7.21 0.01,14.42 -0.02,21.63 -3.21,0 -6.42,0 -9.63,0.01 -0.11,-8.53 0.21,-17.07 -0.15,-25.59 -0.22,-3.27 -4.14,-4.51 -6.87,-3.66 -3.17,0.62 -4.78,3.98 -4.71,6.98 -0.13,7.42 -0.01,14.84 -0.05,22.26 -3.21,0.01 -6.42,0.01 -9.63,0 0.01,-12.37 0,-24.73 0.01,-37.09 3.18,0 6.35,0 9.53,0 0,1.52 -0.01,3.05 -0.03,4.58 z"
             id="path38" /><path
             fill="#000000"
             opacity="1"
             d="m 105,39.95 c 6.94,-7.72 21.21,-6.33 26.49,2.63 2.76,4.28 2.98,9.52 3.08,14.45 -8.32,0.01 -16.64,-0.01 -24.96,0.01 0.36,2.67 0.3,5.85 2.62,7.71 3.78,3.49 10.46,2.11 12.58,-2.61 3.11,-0.03 6.22,-0.02 9.34,-0.01 -3.11,10.25 -16.13,14.85 -25.38,10.09 -5.25,-2.62 -8.05,-8.45 -8.54,-14.09 -0.59,-6.31 0.38,-13.3 4.77,-18.18 m 4.73,10.7 c 4.97,0.01 9.93,0.03 14.9,-0.01 -0.04,-4.58 -3.81,-9.07 -8.67,-8.26 -4.17,0.34 -5.65,4.77 -6.23,8.27 z"
             id="path40" /><path
             fill="#000000"
             opacity="1"
             d="m 163.72,35.86 c 6.04,-1.2 13.13,-1.66 18.45,1.96 5.33,4.06 3.42,11.45 3.77,17.21 0.54,5.78 -1.7,12.57 2.62,17.33 -3.67,0.37 -7.37,0.17 -11.05,0.2 -0.36,-1.2 -0.69,-2.4 -1,-3.61 -3.27,3.27 -7.86,5.83 -12.63,4.95 -4.08,-0.43 -8.18,-3.12 -9.21,-7.25 -1.21,-4.56 -0.2,-10.32 4.09,-12.94 4.74,-3.01 10.67,-2.56 15.82,-4.36 2.45,-1.05 2.64,-4.96 0.09,-6.01 -3.92,-1.62 -10.2,-0.87 -10.6,4.37 -3.07,0.02 -6.13,0.02 -9.2,0 0.32,-5.25 3.45,-10.6 8.85,-11.85 m 0.11,25.05 c -1.15,5.3 5.97,6.77 9.37,4.24 3.35,-2.15 3.29,-6.54 3.46,-10.05 -4.13,1.89 -11.19,0.55 -12.83,5.81 z"
             id="path42" /></g></g><text
         xml:space="preserve"
         style="font-style:normal;font-variant:normal;font-weight:bold;font-stretch:normal;font-size:110px;line-height:1.1;font-family:'DejaVu Sans';-inkscape-font-specification:'DejaVu Sans Bold';letter-spacing:0.09px;word-spacing:0px;display:none;fill:#0064b5;fill-opacity:1;fill-rule:evenodd;stroke-width:22.6772;stroke-linecap:round;stroke-linejoin:round;stroke-miterlimit:2.1"
         x="208.92569"
         y="-66.169243"
         id="text2"><tspan
           sodipodi:role="line"
           id="tspan2"
           style="font-style:normal;font-variant:normal;font-weight:bold;font-stretch:normal;font-size:110px;font-family:'DejaVu Sans';-inkscape-font-specification:'DejaVu Sans Bold';fill:#0064b5;fill-opacity:1;stroke-width:22.6772"
           x="208.92569"
           y="-66.169243">4.0</tspan></text></g><g
       id="rect23"
       style="display:inline"><rect
         style="display:inline;fill:url(#linearGradient23);fill-opacity:0.834379;stroke:none;stroke-width:4.99999;stroke-linecap:square;stroke-dasharray:none;stroke-opacity:1"
         id="rect20"
         width="30.128031"
         height="11.286353"
         x="177.19191"
         y="53.347572" /><path
         style="color:#000000;display:inline;fill:url(#linearGradient25);stroke-linecap:square;stroke-linejoin:bevel;-inkscape-stroke:none"
         d="m 174.15254,15.119046 40.91592,41.955358 H 174.814 Z"
         id="path25" /><g
         id="g27"><path
           id="rect27"
           style="display:inline;fill:#0a6db5;fill-opacity:0.459222;stroke-width:4.99999;stroke-linecap:square;stroke-linejoin:bevel"
           d="m 182.94047,23.245534 33.07293,33.82887 -33.07293,-0.09449 z"
           sodipodi:nodetypes="cccc" /><path
           id="path27"
           style="display:inline;fill:#1882cf;fill-opacity:0.459222;stroke-width:4.99999;stroke-linecap:square;stroke-linejoin:bevel"
           d="m 175.28645,49.514879 34.91556,0.188989 4.67746,7.087054 -39.68751,-0.472471 z"
           sodipodi:nodetypes="ccccc" /></g><path
         style="color:#000000;display:inline;fill:url(#linearGradient27);stroke-linecap:square;stroke-linejoin:bevel;-inkscape-stroke:none"
         d="m 175.94141,13.373047 -4.28907,1.785156 6.5e-4,44.600911 c 0,0 29.8634,-0.184895 43.41537,-0.184895 l 1.78906,-4.246094 z m 1.4286,7.056744 34.22551,34.144428 h -34.32013 z"
         id="path26"
         sodipodi:nodetypes="cccccccccc" /></g></g></svg>
