<?xml version="1.0" encoding="UTF-8" standalone="no"?>
<!-- Created with Inkscape (http://www.inkscape.org/) -->

<svg
   width="256mm"
   height="256mm"
   viewBox="0 0 256 256"
   version="1.1"
   id="svg1"
   inkscape:version="1.3.2 (091e20ef0f, 2023-11-25)"
   xml:space="preserve"
   sodipodi:docname="application-zlib.svg"
   xmlns:inkscape="http://www.inkscape.org/namespaces/inkscape"
   xmlns:sodipodi="http://sodipodi.sourceforge.net/DTD/sodipodi-0.dtd"
   xmlns:xlink="http://www.w3.org/1999/xlink"
   xmlns="http://www.w3.org/2000/svg"
   xmlns:svg="http://www.w3.org/2000/svg"
   xmlns:rdf="http://www.w3.org/1999/02/22-rdf-syntax-ns#"
   xmlns:cc="http://creativecommons.org/ns#"
   xmlns:dc="http://purl.org/dc/elements/1.1/"
   xmlns:a="http://ns.adobe.com/AdobeSVGViewerExtensions/3.0/"><defs
     id="defs1"><linearGradient
       id="linearGradient12"
       inkscape:collect="always"><stop
         style="stop-color:#956300;stop-opacity:1;"
         offset="0"
         id="stop12" /><stop
         style="stop-color:#513600;stop-opacity:1;"
         offset="1"
         id="stop13" /></linearGradient><linearGradient
       id="linearGradient8"
       inkscape:collect="always"><stop
         style="stop-color:#744900;stop-opacity:0.65498155;"
         offset="0"
         id="stop9" /><stop
         style="stop-color:#5d3800;stop-opacity:0.41512915;"
         offset="0.50093067"
         id="stop11" /><stop
         style="stop-color:#774900;stop-opacity:0.22047971;"
         offset="1"
         id="stop10" /></linearGradient><linearGradient
       id="linearGradient7"
       inkscape:collect="always"><stop
         style="stop-color:#ffffff;stop-opacity:1;"
         offset="0"
         id="stop7" /><stop
         style="stop-color:#ffffff;stop-opacity:0;"
         offset="1"
         id="stop8" /></linearGradient><radialGradient
       inkscape:collect="always"
       xlink:href="#linearGradient7"
       id="radialGradient8"
       cx="96.371109"
       cy="52.985355"
       fx="96.371109"
       fy="52.985355"
       r="106.90794"
       gradientTransform="matrix(0.06475897,1.3960371,-1.1000662,0.05102957,171.24872,-60.267815)"
       gradientUnits="userSpaceOnUse" /><linearGradient
       inkscape:collect="always"
       xlink:href="#linearGradient8"
       id="linearGradient10"
       x1="126.30491"
       y1="216.68916"
       x2="254.08325"
       y2="91.72831"
       gradientUnits="userSpaceOnUse" /><linearGradient
       inkscape:collect="always"
       xlink:href="#linearGradient12"
       id="linearGradient13"
       x1="62.000706"
       y1="119.80061"
       x2="218.91676"
       y2="187.68706"
       gradientUnits="userSpaceOnUse" /><linearGradient
       id="linearGradient16"><stop
         id="stop15"
         style="stop-color:#ffffff;stop-opacity:0.78094059;"
         offset="0" /><stop
         id="stop16"
         style="stop-color:#ffffff;stop-opacity:0"
         offset="1" /></linearGradient><linearGradient
       id="linearGradient4222"><stop
         id="stop4224"
         style="stop-color:#ffffff;stop-opacity:0.83539605;"
         offset="0" /><stop
         id="stop4226"
         style="stop-color:#ffffff;stop-opacity:0"
         offset="1" /></linearGradient><linearGradient
       id="XMLID_5_"
       gradientUnits="userSpaceOnUse"
       x1="8.5775995"
       y1="-130.9097"
       x2="68.091003"
       y2="97.714798"><stop
         offset="0"
         style="stop-color:#FFFFFF"
         id="stop13-0" /><stop
         offset="1"
         style="stop-color:#000000"
         id="stop14-6" /><a:midPointStop
         offset="0"
         style="stop-color:#FFFFFF" /><a:midPointStop
         offset="0.5"
         style="stop-color:#FFFFFF" /><a:midPointStop
         offset="1"
         style="stop-color:#000000" /></linearGradient><linearGradient
       id="XMLID_4_"
       gradientUnits="userSpaceOnUse"
       x1="58.423302"
       y1="132.44901"
       x2="58.423302"
       y2="74.146004"><stop
         offset="0"
         style="stop-color:rgb(255,144,0)"
         id="stop12-0" /><stop
         offset="1"
         style="stop-color:rgb(255,0,0)"
         id="stop13-3" /></linearGradient><linearGradient
       id="XMLID_5_-6"
       gradientUnits="userSpaceOnUse"
       x1="56.2407"
       y1="8.8989"
       x2="56.2407"
       y2="89.401199"><stop
         offset="13.2184%"
         style="stop-color:rgb(255,255,255)"
         id="stop15-1" /><stop
         offset="100%"
         style="stop-opacity:0;stop-color:rgb(255,255,255)"
         id="stop16-0" /></linearGradient><linearGradient
       id="XMLID_5_-9"
       gradientUnits="userSpaceOnUse"
       x1="44.4263"
       y1="115.898"
       x2="44.4263"
       y2="69.396896"><stop
         offset="0"
         style="stop-color:rgb(255,144,0)"
         id="stop13-2" /><stop
         offset="1"
         style="stop-color:rgb(255,0,0)"
         id="stop14-0" /></linearGradient><linearGradient
       id="XMLID_6_"
       gradientUnits="userSpaceOnUse"
       x1="44.4263"
       y1="20.419399"
       x2="44.4263"
       y2="52.461899"><stop
         offset="0"
         style="stop-color:rgb(255,255,255)"
         id="stop15-7" /><stop
         offset="100%"
         style="stop-opacity:0;stop-color:rgb(255,255,255)"
         id="stop16-5" /></linearGradient><linearGradient
       id="XMLID_7_"
       gradientUnits="userSpaceOnUse"
       x1="68.790001"
       y1="105.856"
       x2="68.790001"
       y2="82.417999"><stop
         offset="0"
         style="stop-color:rgb(176,176,176)"
         id="stop17" /><stop
         offset="1"
         style="stop-color:rgb(0,0,0)"
         id="stop18-2" /><a:midPointStop
         offset="0"
         style="stop-color:#B0B0B0" /><a:midPointStop
         offset="0.5"
         style="stop-color:#B0B0B0" /><a:midPointStop
         offset="1"
         style="stop-color:#000000" /></linearGradient><linearGradient
       id="XMLID_8_-3"
       gradientUnits="userSpaceOnUse"
       x1="68.870102"
       y1="36.569801"
       x2="68.870102"
       y2="65.748001"><stop
         offset="0"
         style="stop-color:rgb(255,255,255)"
         id="stop19-7" /><stop
         offset="1"
         style="stop-color:rgb(0,0,0)"
         id="stop20-5" /><a:midPointStop
         offset="0"
         style="stop-color:#FFFFFF" /><a:midPointStop
         offset="0.5"
         style="stop-color:#FFFFFF" /><a:midPointStop
         offset="1"
         style="stop-color:#000000" /></linearGradient><clipPath
       id="A"><path
         d="m 49.91,52.76 h 168.6 v 51.02 c -43.95,52.89 -71.73,113.9 -74.31,187.4 H 86.52 c 2.27,-63.39 8.836,-125.7 57.68,-177.5 H 49.92 v -61 z"
         fill="#ffffff"
         class="B D E"
         id="path1" /></clipPath><filter
       id="B"
       x="-0.15485787"
       y="-0.082304527"
       width="1.3795815"
       height="1.1646741"><feGaussianBlur
         stdDeviation="4"
         id="feGaussianBlur1" /></filter><filter
       id="filter2"
       x="-0.15485787"
       y="-0.08230453"
       width="1.3795815"
       height="1.164674"><feGaussianBlur
         stdDeviation="4"
         id="feGaussianBlur2" /></filter><clipPath
       id="D"><path
         d="m 0,-0.0625 v 345.6 h 257.8 11.09 334.5 v -268.8 h -334.5 v -76.78 H 0.09 Z"
         fill="#000000"
         class="B D"
         id="path3-2" /></clipPath><filter
       id="filter3"
       x="-0.15485787"
       y="-0.08230453"
       width="1.3795815"
       height="1.164674"><feGaussianBlur
         stdDeviation="4"
         id="feGaussianBlur3" /></filter><filter
       id="filter4"
       x="-0.15485787"
       y="-0.08230453"
       width="1.3795815"
       height="1.164674"><feGaussianBlur
         stdDeviation="4"
         id="feGaussianBlur4" /></filter><clipPath
       id="C"><path
         d="m 415.9,112.7 v 175.2 h 36.59 V 112.7 Z M 285,113.794 v 39.94 h 56.56 l -58.78,96.5 v 38.81 h 107.6 v -38.81 H 321.6 l 71,-100.9 v -35.5 H 285 Z m 200.7,0.0625 v 176.2 h 39.94 v -62.06 h 26.59 c 42.59,-0.1455 43.72,-115.5 -2.25,-114.2 H 485.7 Z m 37.72,37.72 h 15.59 c 17.35,-0.5945 17.71,38.94 0,36.5 l -14.41,1.219 -1.188,-37.72 z"
         fill="#000000"
         class="B D E"
         id="path2" /></clipPath><filter
       id="filter5"
       x="-0.15485787"
       y="-0.08230453"
       width="1.3795815"
       height="1.164674"><feGaussianBlur
         stdDeviation="4"
         id="feGaussianBlur5" /></filter><filter
       id="filter6"
       x="-0.15485787"
       y="-0.08230453"
       width="1.3795815"
       height="1.164674"><feGaussianBlur
         stdDeviation="4"
         id="feGaussianBlur6" /></filter><clipPath
       clipPathUnits="userSpaceOnUse"
       id="clipPath21"><g
         id="g22"
         transform="rotate(-90,3.9993119e-6,-4.110788e-6)"><path
           d="m 598.4,80.59 v 261.1 H 262.7 V 80.59 Z"
           fill="#ffffff"
           class="B D"
           id="path21" /></g></clipPath><filter
       id="F"
       x="-0.055917273"
       y="-0.043491212"
       width="1.1118345"
       height="1.0869824"><feGaussianBlur
         stdDeviation="4"
         id="feGaussianBlur7" /></filter><filter
       id="filter8"
       x="-0.055917274"
       y="-0.043491211"
       width="1.1118345"
       height="1.0869824"><feGaussianBlur
         stdDeviation="4"
         id="feGaussianBlur8" /></filter><linearGradient
       id="aigrd1"
       gradientUnits="userSpaceOnUse"
       x1="63.559727"
       y1="118.07422"
       x2="123.6106"
       y2="53.465199">
			<stop
   offset="0"
   style="stop-color:#FFFFFF"
   id="stop3-9" />
			<stop
   offset="1"
   style="stop-color:#8C8C8C"
   id="stop4-2" />
		</linearGradient><linearGradient
       id="aigrd2"
       gradientUnits="userSpaceOnUse"
       x1="114.9795"
       y1="16.8501"
       x2="90.170303"
       y2="38.863499">
			<stop
   offset="0"
   style="stop-color:#000000"
   id="stop5-8" />
			<stop
   offset="0.2872"
   style="stop-color:#FFFFFF"
   id="stop6-8" />
			<stop
   offset="0.4468"
   style="stop-color:#FFFFFF"
   id="stop7-8" />
			<stop
   offset="0.4893"
   style="stop-color:#DDDDDD"
   id="stop8-6" />
			<stop
   offset="0.5678"
   style="stop-color:#A3A3A3"
   id="stop9-8" />
			<stop
   offset="0.6465"
   style="stop-color:#717171"
   id="stop10-3" />
			<stop
   offset="0.7234"
   style="stop-color:#484848"
   id="stop11-8" />
			<stop
   offset="0.7983"
   style="stop-color:#292929"
   id="stop12-3" />
			<stop
   offset="0.8706"
   style="stop-color:#121212"
   id="stop13-3-1" />
			<stop
   offset="0.9392"
   style="stop-color:#050505"
   id="stop14-3" />
			<stop
   offset="1"
   style="stop-color:#000000"
   id="stop15-8" />
		</linearGradient><linearGradient
       id="aigrd3"
       gradientUnits="userSpaceOnUse"
       x1="-9.5752001"
       y1="-40.622601"
       x2="111.4338"
       y2="127.9071">
			<stop
   offset="0"
   style="stop-color:#FFFFFF"
   id="stop16-0-8" />
			<stop
   offset="1"
   style="stop-color:#000000"
   id="stop17-4" />
		</linearGradient><linearGradient
       id="aigrd5"
       gradientUnits="userSpaceOnUse"
       x1="-11.9863"
       y1="-32.7383"
       x2="159.9639"
       y2="185.96539">
			<stop
   offset="0"
   style="stop-color:#FFFFFF"
   id="stop18-9" />
			<stop
   offset="1"
   style="stop-color:#000000"
   id="stop19-0" />
		</linearGradient><linearGradient
       id="aigrd6"
       gradientUnits="userSpaceOnUse"
       x1="83.591675"
       y1="100.54906"
       x2="69.423683"
       y2="104.22439">
			<stop
   offset="0"
   style="stop-color:#FFFFFF"
   id="stop20-6" />
			<stop
   offset="1"
   style="stop-color:#000000"
   id="stop21-8" />
		</linearGradient><linearGradient
       id="aigrd7"
       gradientUnits="userSpaceOnUse"
       x1="-21.0117"
       y1="-56.939899"
       x2="129.0739"
       y2="151.3105">
			<stop
   offset="0"
   style="stop-color:#FFFFFF"
   id="stop22-7" />
			<stop
   offset="1"
   style="stop-color:#000000"
   id="stop23-9" />
		</linearGradient><linearGradient
       id="aigrd8"
       gradientUnits="userSpaceOnUse"
       x1="164.51559"
       y1="191.96629"
       x2="101.1341"
       y2="1.1619999">
			<stop
   offset="0"
   style="stop-color:#FFFFFF"
   id="stop24-0" />
			<stop
   offset="1"
   style="stop-color:#000000"
   id="stop25-3" />
		</linearGradient><linearGradient
       id="aigrd9"
       gradientUnits="userSpaceOnUse"
       x1="140.9277"
       y1="109.0835"
       x2="114.0488"
       y2="28.167">
			<stop
   offset="0"
   style="stop-color:#FFFFFF"
   id="stop26-3" />
			<stop
   offset="1"
   style="stop-color:#000000"
   id="stop27-3" />
		</linearGradient><linearGradient
       id="aigrd10"
       gradientUnits="userSpaceOnUse"
       x1="108.9707"
       y1="22.1313"
       x2="113.887"
       y2="17.215099">
			<stop
   offset="0"
   style="stop-color:#FFFFFF"
   id="stop28-7" />
			<stop
   offset="0.4715"
   style="stop-color:#898989"
   id="stop29-3" />
			<stop
   offset="1"
   style="stop-color:#000000"
   id="stop30-2" />
		</linearGradient><linearGradient
       id="aigrd11"
       gradientUnits="userSpaceOnUse"
       x1="81.009804"
       y1="52.612801"
       x2="147.9156"
       y2="-19.6299">
			<stop
   offset="0"
   style="stop-color:#FFFFFF"
   id="stop31-6" />
			<stop
   offset="1"
   style="stop-color:#000000"
   id="stop32-5" />
		</linearGradient><linearGradient
       id="linear-gradient"
       x1="1334.8774"
       x2="1334.8774"
       y2="255.92612"
       gradientUnits="userSpaceOnUse"
       y1="126.83751"><stop
         offset="0.086"
         stop-color="#fdfdfd"
         id="stop1-2" /><stop
         offset="0.804"
         stop-color="#c3c3c3"
         id="stop2-9" /></linearGradient><linearGradient
       id="linear-gradient-2"
       x1="59.305359"
       x2="59.305359"
       y2="118.61072"
       gradientUnits="userSpaceOnUse"
       gradientTransform="matrix(0.26401067,0,0,0.26515724,117.90481,168.3045)"
       y1="0"><stop
         offset="0"
         stop-color="#0a91ca"
         id="stop3-3" /><stop
         offset="0.62"
         stop-color="#4f31a8"
         id="stop4-5" /><stop
         offset="0.994"
         stop-color="#5a22a3"
         id="stop5-6" /></linearGradient><linearGradient
       id="linear-gradient-3"
       x1="1640.4464"
       x2="1640.4464"
       y2="318.90393"
       gradientUnits="userSpaceOnUse"
       gradientTransform="scale(0.91788628,1.0894596)"
       y1="238.53668"><stop
         offset="0.227"
         stop-color="#fbfbfb"
         id="stop6-7" /><stop
         offset="1"
         stop-color="#d9d9d9"
         id="stop7-5" /></linearGradient><linearGradient
       id="SVGID_linearGradient2_3"
       gradientUnits="userSpaceOnUse"
       x1="62.7686"
       y1="84.872101"
       x2="32.630001"
       y2="82.484901"
       gradientTransform="matrix(11.16,0,0,11.16,-184.6312,-92.7364)">
<stop
   offset="0%"
   style="stop-color:rgb(149,149,149);stop-opacity: 1"
   id="stop3-5" />
<stop
   offset="100%"
   style="stop-color:rgb(255,255,255);stop-opacity: 1"
   id="stop4-4" />
</linearGradient><linearGradient
       id="SVGID_XMLID_7__5"
       gradientUnits="userSpaceOnUse"
       x1="79.637703"
       y1="54.167999"
       x2="43.782398"
       y2="77.397903"
       gradientTransform="matrix(11.16,0,0,11.16,-184.6628,-92.692)">
<stop
   offset="0%"
   style="stop-color:rgb(149,149,149);stop-opacity: 1"
   id="stop7-4" />
<stop
   offset="100%"
   style="stop-color:rgb(255,255,255);stop-opacity: 1"
   id="stop8-3" />
</linearGradient><linearGradient
       id="SVGID_XMLID_8_-9_6"
       gradientUnits="userSpaceOnUse"
       x1="58.4258"
       y1="55.084"
       x2="60.0168"
       y2="100.8378"
       gradientTransform="matrix(11.16,0,0,11.16,-184.6412,-92.688)">
<stop
   offset="0%"
   style="stop-color:rgb(255,255,255);stop-opacity: 1"
   id="stop9-0" />
<stop
   offset="100%"
   style="stop-color:rgb(0,0,0);stop-opacity: 1"
   id="stop10-7" />
</linearGradient><linearGradient
       id="SVGID_XMLID_9_-6_7"
       gradientUnits="userSpaceOnUse"
       x1="33.806198"
       y1="53.919899"
       x2="83.338898"
       y2="53.919899"
       gradientTransform="matrix(11.16,0,0,11.16,-184.6412,-92.7172)">
<stop
   offset="0%"
   style="stop-color:rgb(149,149,149);stop-opacity: 1"
   id="stop11-8-0" />
<stop
   offset="100%"
   style="stop-color:rgb(255,255,255);stop-opacity: 1"
   id="stop12-6" />
</linearGradient><radialGradient
       id="SVGID_XMLID_10_-9_8"
       gradientUnits="userSpaceOnUse"
       cx="48.204601"
       cy="46.631802"
       r="34.493599"
       fx="48.204601"
       fy="46.631802"
       gradientTransform="matrix(11.16,0,0,11.16,-184.6212,-92.7784)">
<stop
   offset="0%"
   style="stop-color:rgb(177,101,22);stop-opacity: 1"
   id="stop13-8" />
<stop
   offset="100%"
   style="stop-color:rgb(0,0,0);stop-opacity: 1"
   id="stop14-8" />
</radialGradient><radialGradient
       id="SVGID_XMLID_11_-9_9"
       gradientUnits="userSpaceOnUse"
       cx="48.204601"
       cy="46.633301"
       r="34.492401"
       fx="48.204601"
       fy="46.633301"
       gradientTransform="matrix(11.16,0,0,11.16,-184.6312,-92.7248)">
<stop
   offset="0%"
   style="stop-color:rgb(177,101,22);stop-opacity: 1"
   id="stop20-4" />
<stop
   offset="100%"
   style="stop-color:rgb(0,0,0);stop-opacity: 1"
   id="stop21-31" />
</radialGradient><linearGradient
       id="SVGID_XMLID_12_-8_10"
       gradientUnits="userSpaceOnUse"
       x1="60.105999"
       y1="38.918499"
       x2="58.2757"
       y2="63.018002"
       gradientTransform="matrix(11.16,0,0,11.16,-184.614,-92.7212)">
<stop
   offset="0%"
   style="stop-color:rgb(255,255,255);stop-opacity: 1"
   id="stop22-4" />
<stop
   offset="100%"
   style="stop-color:rgb(0,0,0);stop-opacity: 1"
   id="stop23-9-3" />
</linearGradient><linearGradient
       id="SVGID_XMLID_13_-0_11"
       gradientUnits="userSpaceOnUse"
       gradientTransform="matrix(11.16,0,0,-11.16,1964.1912,5024.7664)"
       x1="-112.5869"
       y1="373.15231"
       x2="-95.879601"
       y2="393.20169">
<stop
   offset="0%"
   style="stop-color:rgb(149,149,149);stop-opacity: 1"
   id="stop26-2" />
<stop
   offset="100%"
   style="stop-color:rgb(255,255,255);stop-opacity: 1"
   id="stop27-0" />
</linearGradient><linearGradient
       id="h"
       x1="296.55701"
       x2="345.31799"
       y1="92.613998"
       y2="157.64101"
       gradientUnits="userSpaceOnUse"
       xlink:href="#f" /><linearGradient
       id="f"><stop
         offset="0"
         stop-color="#0f1e0f"
         id="stop4-5-7" /><stop
         offset=".707"
         stop-color="#306b30"
         id="stop5-6-5" /><stop
         offset="1"
         stop-color="#152915"
         id="stop6-2" /></linearGradient><linearGradient
       id="i"
       x1="297.90399"
       x2="330.26501"
       y1="95.861"
       y2="162.26601"
       gradientUnits="userSpaceOnUse"
       xlink:href="#e" /><linearGradient
       id="e"><stop
         offset="0"
         stop-color="#041c04"
         id="stop7-9" /><stop
         offset="1"
         stop-color="#041c04"
         stop-opacity=".285"
         id="stop8-1" /></linearGradient><linearGradient
       id="j"
       x1="234.5"
       x2="314.741"
       y1="36.438"
       y2="188.28799"
       gradientUnits="userSpaceOnUse"
       xlink:href="#g" /><linearGradient
       id="g"><stop
         offset="0"
         stop-color="#043e04"
         id="stop1-7" /><stop
         offset=".426"
         stop-color="#0c7b0c"
         id="stop2-5" /><stop
         offset="1"
         stop-color="#040a04"
         id="stop3-3-3" /></linearGradient><linearGradient
       id="k"
       x1="6.329"
       x2="78.025002"
       y1="190.043"
       y2="190.043"
       gradientUnits="userSpaceOnUse"
       xlink:href="#c" /><linearGradient
       id="c"><stop
         offset="0"
         stop-color="#042304"
         id="stop11-0" /><stop
         offset="1"
         stop-color="#021a02"
         stop-opacity=".537"
         id="stop12-9" /></linearGradient><linearGradient
       id="l"
       x1="159.565"
       x2="156.58501"
       y1="179.45"
       y2="38.453999"
       gradientUnits="userSpaceOnUse"
       xlink:href="#d" /><linearGradient
       id="d"><stop
         offset="0"
         stop-color="#109810"
         id="stop9-2" /><stop
         offset="1"
         stop-color="#18b618"
         id="stop10-7-5" /></linearGradient><linearGradient
       id="m"
       x1="182.75"
       x2="231.5"
       y1="65.489998"
       y2="65.489998"
       gradientUnits="userSpaceOnUse"
       xlink:href="#b" /><linearGradient
       id="b"><stop
         offset="0"
         stop-color="#044704"
         id="stop13-3-6" /><stop
         offset="1"
         stop-color="#043304"
         id="stop14-6-2" /></linearGradient><radialGradient
       id="n"
       cx="192.05099"
       cy="11.977"
       r="181.58"
       fx="192.05099"
       fy="11.977"
       gradientTransform="matrix(-1.06333,0,0,-0.79928,396.265,63.137)"
       gradientUnits="userSpaceOnUse"
       xlink:href="#a" /><linearGradient
       id="a"><stop
         offset="0"
         stop-color="#2ce22c"
         id="stop15-9" /><stop
         offset="1"
         stop-color="#2f602f"
         stop-opacity=".752"
         id="stop16-1" /></linearGradient></defs><sodipodi:namedview
     id="base"
     pagecolor="#ffffff"
     bordercolor="#000000"
     borderopacity="0.3"
     inkscape:pageopacity="0.0"
     inkscape:pageshadow="2"
     inkscape:zoom="0.98994949"
     inkscape:cx="505.07627"
     inkscape:cy="476.792"
     inkscape:document-units="mm"
     inkscape:showpageshadow="2"
     inkscape:pagecheckerboard="0"
     inkscape:deskcolor="#d1d1d1"
     inkscape:current-layer="g1"
     showguides="true" /><metadata
     id="metadata1"><rdf:RDF><cc:Work
         rdf:about=""><dc:format>image/svg+xml</dc:format><dc:type
           rdf:resource="http://purl.org/dc/dcmitype/StillImage" /><cc:license
           rdf:resource="http://creativecommons.org/publicdomain/zero/1.0/" /></cc:Work><cc:License
         rdf:about="http://creativecommons.org/publicdomain/zero/1.0/"><cc:permits
           rdf:resource="http://creativecommons.org/ns#Reproduction" /><cc:permits
           rdf:resource="http://creativecommons.org/ns#Distribution" /><cc:permits
           rdf:resource="http://creativecommons.org/ns#DerivativeWorks" /></cc:License></rdf:RDF></metadata><g
     id="rect1"
     transform="matrix(1.0470847,0,0,1.0470847,-6.121957,-11.153119)"><g
       id="g6"
       inkscape:label="shadow"
       transform="matrix(1.0356867,0,0,1.0356867,-8.5900168,-5.8944615)"><path
         id="rect3"
         style="fill:#000000;fill-opacity:0.179443;stroke-width:4;stroke-linecap:square"
         d="m 31.270535,168.3798 199.917625,3.74177 c 0,0 16.6785,5.56099 5.87994,28.0633 -5.27804,10.99852 -57.06205,19.51068 -57.06205,19.51068 -3.84923,6.81265 -5.58023,5.24031 -10.82442,5.07812 0,0 -48.43471,25.63965 -56.39388,25.12334 -3.87039,-0.25107 -9.4168,-0.36523 -17.705034,-7.45351 -8.288228,-7.08829 -24.2053,-22.92853 -27.396707,-30.29832 -3.268882,-7.5487 -9.402186,-7.57701 -12.762121,-10.7576 -9.8741,-9.34703 -20.451583,-18.53068 -23.653353,-33.00778 z"
         sodipodi:nodetypes="ccsccssssc" /><path
         id="path3"
         style="fill:#000000;fill-opacity:0.179443;stroke-width:3.94755;stroke-linecap:square"
         d="m 31.344281,165.7071 197.295999,3.6927 c 0,0 16.45978,5.48807 5.80283,27.69529 -5.20882,10.85429 -56.31376,19.25483 -56.31376,19.25483 -3.79876,6.72331 -5.50706,5.17159 -10.68248,5.01153 0,0 -47.79956,25.30342 -55.65436,24.79388 -3.81963,-0.24777 -9.29331,-0.36044 -17.47285,-7.35577 -8.17954,-6.99533 -23.887883,-22.62785 -27.037439,-29.901 C 64.056205,201.44885 58.00333,201.42091 54.687456,198.28203 44.94284,189.05757 34.504065,179.99435 31.344281,165.7071 Z"
         sodipodi:nodetypes="ccsccssssc" /><path
         id="path4"
         style="fill:#000000;fill-opacity:0.179443;stroke-width:3.85571;stroke-linecap:square"
         d="m 33.215168,165.17256 192.703792,3.60683 c 0,0 16.07667,5.36045 5.66777,27.05128 -5.08759,10.60189 -55.00302,18.80708 -55.00302,18.80708 -3.71034,6.56697 -5.37888,5.05133 -10.43384,4.895 0,0 -46.68699,24.71502 -54.35896,24.21733 -3.73073,-0.24201 -9.07701,-0.35206 -17.066162,-7.18472 -7.989155,-6.83267 -23.331875,-22.10167 -26.408123,-29.2057 -3.150928,-7.27647 -9.062918,-7.30376 -12.301612,-10.36965 -9.517803,-9.00996 -19.713608,-17.86243 -22.799845,-31.81745 z"
         sodipodi:nodetypes="ccsccssssc" /><path
         id="path5"
         style="fill:#000000;fill-opacity:0.179443;stroke-width:3.74415;stroke-linecap:square"
         d="m 35.620594,165.17256 188.111576,3.48416 c 0,0 15.69356,5.17814 5.53271,26.13126 -4.96636,10.24132 -53.69228,18.16745 -53.69228,18.16745 -3.62192,6.34362 -5.2507,4.87953 -10.1852,4.72852 0,0 -45.57442,23.87445 -53.06356,23.39369 -3.64183,-0.23378 -8.8607,-0.34009 -16.659465,-6.94037 -7.79877,-6.60029 -22.775867,-21.34998 -25.778807,-28.2124 -3.07584,-7.029 -8.846945,-7.05536 -12.008459,-10.01698 -9.29099,-8.70353 -19.243825,-17.25492 -22.256515,-30.73533 z"
         sodipodi:nodetypes="ccsccssssc" /><path
         id="path6"
         style="fill:#000000;fill-opacity:0.179443;stroke-width:3.58596;stroke-linecap:square"
         d="m 40.472054,166.24164 180.164006,3.33696 c 0,0 15.03052,4.95936 5.29896,25.02723 -4.75653,9.80863 -51.42382,17.39989 -51.42382,17.39989 -3.4689,6.07561 -5.02886,4.67337 -9.75488,4.52874 0,0 -43.64894,22.86578 -50.82167,22.40533 -3.48797,-0.2239 -8.48634,-0.32572 -15.955624,-6.64715 -7.469273,-6.32143 -21.813599,-20.44796 -24.689667,-27.02044 -2.945888,-6.73203 -8.473168,-6.75728 -11.501111,-9.59377 -8.898453,-8.33582 -18.430788,-16.52592 -21.316194,-29.43679 z"
         sodipodi:nodetypes="ccsccssssc" /></g><path
       style="color:#000000;fill:#e6b334;stroke-linecap:square;-inkscape-stroke:none"
       d="m 19.654761,40.065474 c 0.245417,-3.613292 2.434584,-5.581872 5.953126,-6.425596 9.254453,-4.282355 58.332073,-9.339168 58.332073,-9.339168 2.317183,2.124303 4.429154,1.263241 7.341292,-1.244165 12.270008,-2.096149 23.506368,-6.560434 33.923368,-6.803572 11.60558,-4.173569 20.53049,-1.709569 27.30878,0.566964 13.78777,4.630709 21.45254,6.889589 31.19419,10.110049 2.75473,4.116527 8.82243,3.408187 15.03388,4.067993 13.99997,0.365586 23.13018,5.651914 32.20592,9.464465 6.63848,2.770585 5.76677,9.686081 6.51731,15.27561 2.4865,18.517759 -1.12685,38.971145 -4.25339,58.788726 0,0 -3.38151,5.40767 -3.19936,9.35769 0.11962,2.59409 1.98437,7.75408 1.98437,7.75408 l -3.13173,51.89019 c -0.19365,3.19612 0.49747,6.64502 -3.03216,8.888 -16.05737,9.74752 -34.96222,12.52773 -53.00605,16.08712 -3.13207,-1.28892 -6.33773,-1.84193 -9.9678,1.84911 -12.95274,10.80583 -31.33645,17.38758 -48.5776,24.85798 -5.95994,3.63623 -11.91988,3.79114 -17.879811,-0.13108 C 83.733245,225.03656 72.544565,213.30269 63.402314,199.23004 61.869943,193.22625 58.495316,193.3633 55.538877,192.1064 46.564104,184.80457 36.948524,178.14355 29.860119,168.95536 l -3.779762,-6.04762 C 21.585666,145.6891 22.431421,126.94462 24.946428,107.72321 v -5.66964 C 20.11754,82.61687 19.501429,61.495061 19.654761,40.065474 Z"
       id="path11"
       sodipodi:nodetypes="cccccscccscscccccccccccccc" /><g
       id="g1"
       transform="matrix(0.5150422,0.4376542,0,0.68332192,-25.441513,-103.25978)"><path
         style="font-weight:bold;font-size:110.09px;line-height:1;font-family:'Liberation Sans';-inkscape-font-specification:'Liberation Sans Bold';letter-spacing:-0.0957785px;word-spacing:0px;fill:#0a0a0a;fill-opacity:0.673165;fill-rule:evenodd;stroke-width:13.3331;stroke-linejoin:round"
         d="m 365.52358,177.49905 -103.25631,91.21719 v -17.14337 l 69.5679,-140.93959 -62.62937,55.32713 V 147.01248 L 361.78042,65.231549 V 82.04682 l -69.56791,141.2677 73.31107,-64.7634 z M 479.57278,76.747353 376.31647,167.96454 V 150.82117 L 445.88438,9.8815724 383.255,65.208714 V 46.260785 l 92.57462,-81.780934 v 16.815271 L 406.26171,122.56283 479.57278,57.799423 Z"
         id="text1-7"
         aria-label="ZZ" /><g
         id="g2"
         transform="matrix(0.37237638,-0.04483425,-0.02270881,0.44852111,103.03684,185.70491)"><path
           fill="#2f662f"
           d="M 107.634,167.421 78.025,197.61 c -34.457,2.294 -49.97,-0.194 -55.76,-4.51 -8.574,-6.391 9.532,-30.388 45.12,-65.812 C 4.425,130.366 7.329,116.503 49.11,90.624 l 3.817,1.966 c -6.002,13.314 34.003,6.86 48.808,4.395 l 2.314,5.205 c -39.796,40.762 -54.471,56.5 -50.594,63.936 4.19,8.035 28.94,5.39 54.179,1.296 z m 123.64,-110.86 -2.85,-3.962 c 32.67,-22.222 46.038,-36.43 49.373,-14.145 1.94,12.959 0.64,48.599 1.823,87.792 1.04,34.458 8.876,56.845 38.639,46.492 22.477,-22.292 -7.103,-69.994 -28.318,-61.193 l -1.247,-3.005 c 22.716,-17.666 38.087,-26.266 57.372,-0.091 9.146,12.413 9.757,33.05 -0.748,49.192 -6.958,10.693 -18.724,20.765 -30.577,30.647 -26.06,21.728 -64.252,5.318 -63.782,-38.04 0.226,-20.854 0.394,-66.012 -2.491,-85.204 -1.846,-12.276 -7.91,-13.98 -17.194,-8.483 z m -121.905,0 -2.976,-4.15 c 33.826,-21.99 46.857,-36.241 50.192,-13.957 1.94,12.959 2.295,101.79 2.98,140.996 l -33.888,20.587 c 1.442,-20.805 3.935,-114.982 0.285,-133.78 -2.245,-11.556 -7.216,-14.91 -16.593,-9.696 z m 74.022,13.706 27.065,-18.968 c 4.973,6.356 8.971,13.826 18.043,15.498 -16.127,12.614 -32.56,28.447 -45.108,3.47 z m -8.927,48.464 -1.85,-3.932 c 33.247,-22.8 43.208,-32.53 48.278,-14.467 3.541,12.616 3.682,40.838 4.368,80.043 L 192.875,200.5 c 1.16,-20.84 1.074,-54.633 -1.443,-73.355 -1.514,-11.257 -7.977,-12.481 -16.968,-8.414 z"
           id="path16" /><g
           id="g39"><path
             fill="url(#h)"
             d="m 335.818,169.641 c 20.255,-24.392 19.394,-48.78 10.248,-61.192 -19.285,-26.175 -34.656,-17.575 -57.372,0.091 l 7.863,-15.926 c 24.55,-19.093 41.162,-28.387 62.005,-0.099 9.884,13.416 10.544,35.72 -0.808,53.165 -5.851,9.198 -14.475,16.373 -21.936,23.961 z"
             id="path17"
             style="fill:url(#h)" /><path
             fill="#072f07"
             d="m 228,170.25 -35,21.75 -0.125,8.5 32.385,-20.125 z"
             id="path18" /><path
             fill="#1d3b1d"
             d="M 20.654,122.343 5.747,106.252 C 1.241,99.547 13.373,88.272 37.625,73.25 L 41.75,75.375 52.927,92.589 49.11,90.623 C 25.175,105.448 14,116.33 20.654,122.343 Z"
             id="path19" /><path
             fill="#043104"
             d="m 20.654,122.343 c 4.963,4.483 19.838,6.259 46.73,4.944 L 57.375,112.875 c -31.499,1.54 -47.744,-0.844 -51.628,-6.623 z"
             id="path20" /><path
             fill="#1e381e"
             d="M 6.329,181.653 C -3.726,169.332 18.914,151.159 57.375,112.875 l 10.01,14.412 c -35.588,35.424 -53.459,59.377 -45.12,65.812 z"
             id="path21-0" /><path
             fill="#041c04"
             fill-opacity="0.851"
             d="m 53.09,97.326 c -0.928,-1.188 -1.063,-2.74 -0.163,-4.737 L 41.75,75.375 c -1.006,2.232 -0.816,3.95 0.284,5.25 z"
             id="path22" /><path
             fill="#0d1d0d"
             d="m 42.034,80.625 c 5.99,7.079 38.948,1.75 52.466,-0.5 l 7.235,16.86 c -12.584,2.094 -43.377,7.072 -48.644,0.34 z"
             id="path23" /><path
             fill="#010601"
             fill-opacity="0.502"
             d="m 53.455,166.125 c -3.877,-7.436 10.798,-23.174 50.594,-63.936 L 97,85.75 c -43.01,44.053 -58.87,61.062 -54.679,69.099 z"
             id="path24" /><path
             fill="#2f5b2f"
             d="m 107.634,167.421 c -25.24,4.094 -49.99,6.739 -54.179,-1.296 L 42.321,154.849 c 4.528,8.683 31.277,5.826 58.554,1.401 z"
             id="path25" /><path
             fill="#041c04"
             fill-opacity="0.851"
             d="M 330.265,162.266 C 298.099,173.455 287.875,148.99 286.75,111.75 285.471,69.391 286.875,30.874 284.78,16.868 281.175,-7.216 266.807,8.108 231.5,32.125 l -3.076,20.224 c 32.67,-22.222 46.038,-36.18 49.373,-13.895 1.94,12.959 0.64,48.599 1.823,87.792 1.04,34.458 8.876,56.845 38.639,46.492 z"
             id="path26" /><path
             fill="url(#i)"
             d="m 330.265,162.266 -12.006,10.472 c 22.477,-22.292 -7.103,-69.994 -28.318,-61.193 l -1.247,-3.005 7.863,-15.926 1.347,3.247 c 22.929,-9.511 56.653,42.313 32.36,66.405 z"
             id="path27"
             style="fill:url(#i)" /><path
             fill="url(#j)"
             d="m 314.74,188.288 c -26.058,21.728 -64.251,5.318 -63.781,-38.04 0.226,-20.854 0.394,-66.012 -2.491,-85.204 -1.846,-12.276 -7.91,-13.98 -17.194,-8.483 l -2.85,-3.962 3.076,-20.474 3,4.313 c 10.033,-5.942 17.286,-3.175 19.933,9.978 4.083,20.29 2.936,69.546 2.692,92.084 -0.508,46.86 38.918,66.535 74.331,35.927"
             id="path28"
             style="fill:url(#j)" /><path
             fill="#041c04"
             fill-opacity="0.851"
             d="m 109.369,56.561 -2.976,-4.15 -5.643,-20.661 3,4.625"
             id="path29" /><path
             fill="#041c04"
             fill-opacity="0.851"
             d="M 106.393,52.411 C 140.219,30.421 153.25,16.17 156.585,38.454 L 153.779,16.868 C 150.175,-7.216 137.307,7.983 100.75,31.75 Z"
             id="path30" /><path
             fill="#0a370a"
             d="m 125.677,200.037 c 1.198,-19.045 5.088,-120.868 -1.103,-138.956 l -5.678,-20.502 c 6.678,12.752 3.479,104.829 1.479,150.921 z"
             id="path31-0" /><path
             fill="#041c04"
             fill-opacity="0.851"
             d="m 124.574,61.081 c -2.075,-7.464 -7.42,-8.848 -15.205,-4.52 L 103.75,36.375 c 8.142,-4.527 13.066,-3.307 15.146,4.204 z m 49.89,57.65 -1.85,-3.932 -0.364,-16.299 2,4.25 z"
             id="path32" /><path
             d="m 225.26,180.375 c -0.686,-39.205 -0.827,-67.427 -4.368,-80.043 -5.07,-18.062 -15.031,-8.334 -48.279,14.467 L 172.25,98.5 c 35.932,-24.642 45.55,-34.278 51.03,-14.757 3.826,13.635 3.979,44.136 4.72,86.507 z"
             id="path33" /><path
             fill="#043f04"
             d="m 192.875,200.5 c 0.285,-20.716 0.88,-54.608 -1.443,-73.355 -1.264,-10.194 -7.04,-13.013 -16.968,-8.414 L 174.25,102.75 c 10.798,-3.552 17.318,-0.726 18.683,10.291 2.51,20.262 2.007,55.873 1.254,78.522 z"
             id="path34" /><path
             fill="#021a02"
             fill-opacity="0.537"
             d="m 100.875,156.25 -32,32.625 9.15,8.734 29.609,-30.188 z"
             id="path35" /><path
             fill="url(#k)"
             d="m 68.875,188.875 c -37.24,2.48 -56.519,0.164 -62.546,-7.222 l 15.935,11.446 c 5.174,3.992 21.304,6.804 55.761,4.51 z"
             id="path36"
             style="fill:url(#k)" /><path
             fill="#062506"
             fill-opacity="0.509"
             d="M 159.565,179.45 125.677,200.037 120.375,191.5 157,169.25 Z"
             id="path37" /><path
             fill="url(#l)"
             d="m 153.78,16.868 c 2.095,14.006 2.479,110.01 3.22,152.382 l 2.565,10.2 c -0.685,-39.206 -1.04,-128.037 -2.98,-140.996 z"
             id="path38"
             style="fill:url(#l)" /><path
             fill="url(#m)"
             d="m 231.5,47.5 c -17.43,13.633 -35.19,30.744 -48.75,3.75 l 0.641,19.017 c 12.547,24.977 28.98,9.144 45.108,-3.47 z"
             id="path39"
             style="fill:url(#m)" /></g><path
           fill="url(#n)"
           d="m 100.875,156.25 -32,32.625 c -37.24,2.48 -59.603,-1.1 -64.046,-9.535 -5.305,-10.071 14.085,-28.18 52.546,-66.465 -68.043,3.326 -64.905,-11.656 -19.75,-39.625 l 4.125,2.125 c -6.486,14.39 36.75,7.413 52.75,4.75 L 97,85.75 c -43.01,44.053 -58.87,61.062 -54.679,69.099 4.528,8.683 31.277,5.826 58.554,1.401 z M 234.5,36.437 l -3,-4.312 c 35.307,-24.017 49.675,-39.34 53.28,-15.257 2.095,14.006 0.691,52.523 1.97,94.882 1.124,37.24 11.349,61.705 43.515,50.516 24.292,-24.092 -9.432,-75.916 -32.36,-66.405 l -1.348,-3.247 c 24.55,-19.093 41.162,-28.387 62.005,-0.099 9.884,13.416 10.544,35.72 -0.808,53.165 -7.52,11.556 -20.237,22.441 -33.048,33.122 -28.163,23.483 -68.089,6.558 -67.581,-40.302 0.244,-22.538 1.39,-71.795 -2.692,-92.084 -2.647,-13.153 -9.9,-15.92 -19.933,-9.978 z m -130.75,-0.062 -3,-4.625 c 36.557,-23.767 49.425,-38.966 53.03,-14.882 2.095,14.006 2.479,110.01 3.22,152.382 L 120.375,191.5 C 121.934,169.015 124.628,67.232 120.683,46.916 118.257,34.427 113.885,30.74 103.75,36.375 Z m 79,14.875 29.25,-20.5 c 5.375,6.87 9.696,14.943 19.5,16.75 -17.43,13.633 -35.19,30.744 -48.75,3.75 z m -8.5,51.5 -2,-4.25 c 35.932,-24.642 45.55,-34.278 51.03,-14.757 3.826,13.635 3.979,44.136 4.72,86.507 L 193,192 c 1.253,-22.524 1.694,-58.072 -0.817,-78.334 -1.365,-11.017 -7.135,-14.468 -17.933,-10.916 z"
           id="path40-6"
           style="fill:url(#n)" /></g></g><path
       id="rect6"
       style="display:inline;opacity:1;fill:url(#radialGradient8);stroke-width:4;stroke-linecap:square"
       d="m 20.579622,35.546667 v 5.613095 l 72.74392,34.794223 c 3.825767,1.674873 3.781717,5.674442 3.820806,9.372583 -3.010533,27.742352 -1.429276,47.321522 -0.03134,67.226592 l -0.03134,6.37243 c -9.372647,15.40546 -3.486088,47.65668 -0.06269,73.59902 l 8.285282,5.07825 c -0.91836,-24.49073 -3.42897,-49.49226 0.31663,-75.49121 l 0.31664,-9.34537 c -1.77185,-22.23125 -0.54055,-44.46249 0.63328,-66.693732 0.003,-5.567738 0.82393,-7.680742 2.70763,-8.15772 L 234.39551,47.841007 V 42.22843 L 107.76737,71.912991 c -5.42129,1.508568 -6.96738,0.684709 -11.120628,-1.211547 z"
       sodipodi:nodetypes="ccccccccccccccccc" /><path
       id="rect8"
       style="display:inline;opacity:1;fill:url(#linearGradient10);stroke-width:4;stroke-linecap:square"
       d="m 116.58273,72.714566 50.01027,-10.726465 9.73289,-2.267857 50.55432,-12.473215 c 3.14129,-1.515262 6.30219,-2.926004 10.48883,1.133929 1.89423,22.367908 1.54116,44.735817 -4.37128,67.103722 -2.01309,5.20459 -3.24271,10.94372 0,16.41558 l -3.74177,54.36785 -4.27631,7.32841 c -15.44287,7.88002 -33.33361,11.47625 -51.59002,14.43256 l -9.44249,1.7477 c -15.53109,12.69454 -34.72367,20.15836 -53.67262,27.97024 -3.35385,0.57515 -8.20235,0.60093 -8.22098,-6.4256 -1.58281,-20.06868 -4.405742,-38.01143 0.75595,-69.64211 l 0.18899,-8.40996 c -1.64541,-22.08216 -1.58936,-57.449944 -1.0157,-66.74441 0.57366,-9.294465 0.0702,-11.488263 14.59992,-13.810374 z"
       sodipodi:nodetypes="ccccccccccccccczc"
       inkscape:label="shadow" /><path
       style="color:#000000;display:inline;fill:url(#linearGradient13);stroke-linecap:square;-inkscape-stroke:none"
       d="m 131.84077,12.305863 c -14.43151,1.588082 -29.8153,4.902306 -40.895458,8.780074 l -0.548828,0.0918 -0.419922,0.363282 c -1.360688,1.171578 -2.431928,1.790147 -3.023437,1.921875 -0.591509,0.131728 -0.825842,0.129939 -1.662109,-0.636719 l -0.66211,-0.607422 -0.894531,0.0918 c 0,0 -12.292894,1.267842 -25.755859,3.072265 -6.731483,0.902212 -13.756188,1.937616 -19.710938,3.023438 -5.88046,1.072275 -10.558872,2.104708 -13.361328,3.373047 -1.91086,0.491325 -3.636304,1.301129 -4.9375,2.642578 -1.357368,1.399358 -2.160304,3.324537 -2.308594,5.507812 l -0.0059,0.06055 v 0.06055 c -0.152906,21.370082 0.45901,42.539587 5.292969,62.183597 v 5.375 c -2.514462,19.27926 -3.390818,38.22632 1.197265,55.80273 l 0.07813,0.29687 3.994141,6.39063 0.06055,0.0781 c 7.337161,9.51064 17.105822,16.24422 26,23.48047 l 0.21875,0.17774 0.259765,0.11133 c 1.754458,0.74589 3.197908,1.01981 4.19336,1.63867 0.995451,0.61886 1.837345,1.48119 2.515625,4.13867 l 0.08008,0.31836 0.179687,0.27734 c 9.271671,14.27187 20.620672,26.16791 33.433594,36.32617 l 0.07031,0.0547 0.07227,0.0488 c 6.491588,4.27211 13.577048,4.0998 20.021488,0.16797 l -0.2461,0.1289 c 17.15847,-7.43457 35.70369,-14.01198 49.06445,-25.1582 l 0.0742,-0.0625 0.0703,-0.0703 c 1.57364,-1.60007 2.78469,-2.09147 3.93945,-2.20508 1.15476,-0.11361 2.40278,0.21135 3.83984,0.80274 l 0.5586,0.22851 0.58984,-0.11523 c 17.97759,-3.54633 37.14982,-6.31854 53.6582,-16.33985 l 0.0176,-0.0117 0.0156,-0.01 c 2.20633,-1.40206 3.29913,-3.49979 3.66015,-5.40235 0.36103,-1.90255 0.21137,-3.64139 0.29688,-5.05273 l 3.15625,-52.30273 -0.14063,-0.38868 c 0,0 -0.44867,-1.242 -0.91211,-2.79687 -0.46343,-1.55487 -0.91448,-3.48885 -0.95507,-4.36914 -0.0629,-1.36416 0.59634,-3.54192 1.35937,-5.25391 0.76303,-1.71199 1.53711,-2.95117 1.53711,-2.95117 l 0.2168,-0.3457 0.0644,-0.4043 c 3.12258,-19.792496 6.80612,-40.401682 4.25977,-59.365232 -0.3472,-2.585718 -0.29811,-5.786759 -1.09571,-8.921875 -0.79719,-3.133516 -2.73909,-6.305812 -6.6289,-7.93164 l -0.006,-0.002 c -8.90718,-3.742331 -18.44647,-9.241088 -32.92383,-9.61914 l 0.16015,0.01172 c -3.2485,-0.34507 -6.3171,-0.34348 -8.71093,-0.72461 -2.39384,-0.38113 -3.90264,-1.016671 -4.87305,-2.466797 l -0.38086,-0.572265 -0.65234,-0.214844 c -8.57376,-4.99448 -26.73706,-9.168739 -41.07693,-11.859606 -3.26344,-0.612383 -5.95983,-1.466126 -11.41797,-0.865498 z m 11.33798,3.871745 c 13.67062,1.918032 30.57309,7.290035 39.39355,12.455204 1.79894,2.192284 4.40738,3.184207 7.04101,3.603516 2.88156,0.458782 5.95307,0.435264 8.91602,0.75 l 0.0801,0.0098 0.0801,0.002 c 13.5197,0.353044 22.23965,5.425876 31.48242,9.308594 h 0.004 l 0.002,0.002 c 2.74469,1.145502 3.68503,2.81586 4.29883,5.228515 0.6138,2.412656 0.60252,5.462992 1.00586,8.466797 2.41426,17.979729 -1.08068,38.160326 -4.19922,57.906256 -0.19206,0.31503 -0.79789,1.2757 -1.5664,3 -0.88219,1.97934 -1.82237,4.48054 -1.70313,7.0664 0.079,1.7138 0.6203,3.65448 1.11914,5.32813 0.42866,1.43819 0.73466,2.28316 0.84375,2.58984 l -3.10742,51.51367 c -0.10814,1.78478 -0.0101,3.36717 -0.23437,4.54883 -0.22373,1.17901 -0.55327,1.92701 -1.86915,2.76563 -15.45673,9.37262 -33.88266,12.197 -51.82421,15.7207 -1.54014,-0.58432 -3.22387,-1.05837 -5.10743,-0.87305 -2.1386,0.21041 -4.34396,1.2899 -6.40039,3.38086 l 0.14453,-0.13476 c -12.54469,10.46541 -30.76799,17.05238 -48.09179,24.55859 l -0.12891,0.0566 -0.11719,0.0723 c -5.45447,3.32784 -10.27671,3.46787 -15.679683,-0.0625 -12.485623,-9.91169 -23.485089,-21.45591 -32.476563,-35.29493 -0.891078,-2.93747 -2.339709,-4.91027 -4.023437,-5.95703 -1.72631,-1.07323 -3.340391,-1.38565 -4.53125,-1.85351 -8.954129,-7.26351 -18.273486,-13.80262 -25.041016,-22.55274 l -3.517578,-5.62304 c -4.320602,-16.75281 -3.530071,-35.15467 -1.041016,-54.17774 l 0.01758,-0.1289 v -6.04493 l -0.06055,-0.23632 c -4.7493,-19.116357 -5.382725,-40.045474 -5.232422,-61.392585 0.100336,-1.414645 0.51143,-2.277685 1.185547,-2.972656 0.678203,-0.699184 1.72663,-1.261499 3.234375,-1.623047 l 0.193359,-0.04492 0.179688,-0.08398 c 1.838325,-0.850657 6.687002,-2.04654 12.537109,-3.113281 5.850107,-1.066741 12.830675,-2.096857 19.525391,-2.994141 13.100699,-1.755869 24.570343,-2.937314 25.082031,-2.990234 1.321884,0.843259 2.813351,1.325355 4.230469,1.009765 1.596203,-0.355471 2.766975,-1.854363 4.308593,-2.447265 12.990533,-4.996125 27.247543,-8.000646 40.768393,-9.020823 4.61227,-0.348007 4.59777,-0.518751 10.27928,0.278385 z"
       id="path12"
       sodipodi:nodetypes="scccscccsscsccccccccccccscccccccccccsccccccscccssscccssccccscccsscsccccccsscsssccsccscccccccsccccccccscccsscscasc" /><path
       id="rect2"
       style="display:inline;opacity:1;fill:#2ba400;stroke-width:2.21860609;stroke-linecap:square;fill-opacity:1;stroke:#095d00;stroke-opacity:1;stroke-dasharray:none"
       d="m 85.987743,34.451391 c 0.229668,0.122429 -2.177405,-1.456434 -3.458052,-0.832973 -0.868088,0.422613 -1.628006,1.173131 -0.422457,1.973564 L 110.23762,56.875061 C 86.998574,53.723377 69.34179,53.184759 49.200636,55.496297 42.078648,55.03608 43.430374,62.234778 43.262611,65.809475 42.176364,88.955219 40.161006,134.41115 40.161006,134.41115 L 8.8232133,104.70336 c -2.6478793,-0.70827 -3.2525036,3.49812 -1.0113321,4.8537 l 31.7673708,28.98937 -9.23065,62.26558 c -1.144011,3.2085 1.62326,6.34606 3.815471,4.80469 l 9.158295,-63.81334 29.08457,27.22556 c 4.918738,4.73762 9.246913,5.78826 16.381732,3.89494 l 56.46633,-9.3351 -11.26293,69.37154 c -3.05953,1.15181 -0.74132,4.21384 3.45198,3.72398 3.64065,-0.4253 3.93076,-1.96401 4.36645,-3.65788 l 10.31316,-71.16011 61.19885,-3.28346 c 3.58776,-1.44828 3.05246,-5.07332 0.98509,-6.27216 l -61.60819,5.46066 12.7183,-70.058764 c 0.60478,-2.155146 0.7765,-4.240182 -2.0704,-5.836511 L 127.46077,61.997513 c 20.7285,-1.071478 57.12238,-6.342665 57.12238,-6.342665 l 2.12397,0.59358 c 0,0 -1.22056,-3.068866 -1.56031,-3.485407 -0.6795,-0.833082 -3.55762,-2.74383 -6.15296,-2.340733 -20.35388,3.949276 -39.3481,6.501465 -61.31309,6.342019 z m 30.449657,29.155349 43.5081,22.992551 -13.62762,72.291569 -57.842096,8.59241 c -4.903305,1.57989 -8.941098,0.51669 -13.432698,-2.84884 L 43.904191,137.66757 c 0,0 5.107898,-68.492091 5.595865,-73.033957 0.188532,-1.754806 1.846577,-3.677335 3.533669,-3.892549 23.229356,-2.963259 52.516145,0.06426 63.403675,2.865676 z"
       transform="matrix(0.98941046,-0.14514446,0.1344425,0.99092139,0,0)"
       sodipodi:nodetypes="cscccscccccccccccsccccccccccscccccccccssc" /></g></svg>
