<?xml version="1.0" encoding="UTF-8" standalone="no"?>
<!-- Created with Inkscape (http://www.inkscape.org/) -->

<svg
   width="256mm"
   height="256mm"
   viewBox="0 0 256 256"
   version="1.1"
   id="svg1"
   inkscape:version="1.3.2 (091e20ef0f, 2023-11-25)"
   xml:space="preserve"
   sodipodi:docname="application-x-python-bytecode.svg"
   xmlns:inkscape="http://www.inkscape.org/namespaces/inkscape"
   xmlns:sodipodi="http://sodipodi.sourceforge.net/DTD/sodipodi-0.dtd"
   xmlns:xlink="http://www.w3.org/1999/xlink"
   xmlns="http://www.w3.org/2000/svg"
   xmlns:svg="http://www.w3.org/2000/svg"
   xmlns:rdf="http://www.w3.org/1999/02/22-rdf-syntax-ns#"
   xmlns:cc="http://creativecommons.org/ns#"
   xmlns:dc="http://purl.org/dc/elements/1.1/"
   xmlns:a="http://ns.adobe.com/AdobeSVGViewerExtensions/3.0/"><defs
     id="defs1"><linearGradient
       id="linearGradient26"
       inkscape:collect="always"><stop
         style="stop-color:#7b91c4;stop-opacity:1;"
         offset="0"
         id="stop26" /><stop
         style="stop-color:#5c5e91;stop-opacity:1"
         offset="1"
         id="stop27" /></linearGradient><linearGradient
       id="linearGradient24"
       inkscape:collect="always"><stop
         style="stop-color:#c7fafe;stop-opacity:1;"
         offset="0"
         id="stop24" /><stop
         style="stop-color:#9acdff;stop-opacity:1"
         offset="1"
         id="stop25" /></linearGradient><linearGradient
       id="linearGradient22"
       inkscape:collect="always"><stop
         style="stop-color:#adaeae;stop-opacity:0.8253752;"
         offset="0"
         id="stop22" /><stop
         style="stop-color:#8ac5fe;stop-opacity:0.83628923;"
         offset="1"
         id="stop23" /></linearGradient><linearGradient
       id="linearGradient18"
       inkscape:collect="always"><stop
         style="stop-color:#9797ff;stop-opacity:1;"
         offset="0"
         id="stop18" /><stop
         style="stop-color:#ccccff;stop-opacity:1;"
         offset="0.30000001"
         id="stop20" /><stop
         style="stop-color:#ccccff;stop-opacity:1;"
         offset="1"
         id="stop19" /></linearGradient><linearGradient
       id="linearGradient16"
       inkscape:collect="always"><stop
         style="stop-color:#cdcdcd;stop-opacity:0.17462483;"
         offset="0"
         id="stop16" /><stop
         style="stop-color:#cdcdcd;stop-opacity:1;"
         offset="1"
         id="stop17" /></linearGradient><linearGradient
       id="linearGradient12"
       inkscape:collect="always"><stop
         style="stop-color:#fdfeff;stop-opacity:1;"
         offset="0"
         id="stop13" /><stop
         style="stop-color:#99ccff;stop-opacity:1;"
         offset="1"
         id="stop14" /></linearGradient><linearGradient
       id="linearGradient9"
       inkscape:collect="always"><stop
         style="stop-color:#97c9fc;stop-opacity:1;"
         offset="0"
         id="stop9" /><stop
         style="stop-color:#7788bb;stop-opacity:1"
         offset="0.25"
         id="stop12" /><stop
         style="stop-color:#57578a;stop-opacity:1"
         offset="0.5"
         id="stop11" /><stop
         style="stop-color:#444482;stop-opacity:1;"
         offset="1"
         id="stop10" /></linearGradient><linearGradient
       inkscape:collect="always"
       xlink:href="#linearGradient9"
       id="linearGradient10"
       x1="31.622168"
       y1="100.24049"
       x2="221.19499"
       y2="240.28973"
       gradientUnits="userSpaceOnUse" /><linearGradient
       inkscape:collect="always"
       xlink:href="#linearGradient12"
       id="linearGradient14"
       x1="73.583481"
       y1="62.020954"
       x2="207.02971"
       y2="229.59895"
       gradientUnits="userSpaceOnUse" /><linearGradient
       inkscape:collect="always"
       xlink:href="#linearGradient16"
       id="linearGradient17"
       x1="57.531055"
       y1="26.420616"
       x2="147.13231"
       y2="144.34076"
       gradientUnits="userSpaceOnUse" /><linearGradient
       inkscape:collect="always"
       xlink:href="#linearGradient18"
       id="linearGradient19"
       x1="209.82518"
       y1="58.53635"
       x2="210.58252"
       y2="194.57654"
       gradientUnits="userSpaceOnUse" /><linearGradient
       inkscape:collect="always"
       xlink:href="#linearGradient22"
       id="linearGradient23"
       x1="177.19191"
       y1="58.990749"
       x2="207.31994"
       y2="58.990749"
       gradientUnits="userSpaceOnUse" /><linearGradient
       inkscape:collect="always"
       xlink:href="#linearGradient24"
       id="linearGradient25"
       x1="176.32031"
       y1="20.126524"
       x2="176.32031"
       y2="56.695721"
       gradientUnits="userSpaceOnUse" /><linearGradient
       inkscape:collect="always"
       xlink:href="#linearGradient26"
       id="linearGradient27"
       x1="172.59729"
       y1="13.51158"
       x2="210.54449"
       y2="51.28627"
       gradientUnits="userSpaceOnUse" /><linearGradient
       id="linearGradient24-4"
       inkscape:collect="always"><stop
         style="stop-color:#cedce5;stop-opacity:1;"
         offset="0"
         id="stop25-5" /><stop
         style="stop-color:#c7d4da;stop-opacity:1;"
         offset="0.43541908"
         id="stop34" /><stop
         style="stop-color:#a9b1b5;stop-opacity:1;"
         offset="0.5"
         id="stop33" /><stop
         style="stop-color:#31383b;stop-opacity:1;"
         offset="1"
         id="stop32" /></linearGradient><linearGradient
       id="linearGradient20"
       inkscape:collect="always"><stop
         style="stop-color:#141414;stop-opacity:1;"
         offset="0"
         id="stop21" /><stop
         style="stop-color:#808080;stop-opacity:1;"
         offset="0.5"
         id="stop23-0" /><stop
         style="stop-color:#e6f7ff;stop-opacity:1;"
         offset="1"
         id="stop22-3" /></linearGradient><linearGradient
       id="linearGradient17-6"
       inkscape:collect="always"><stop
         style="stop-color:#e6f7ff;stop-opacity:1;"
         offset="0"
         id="stop18-1" /><stop
         style="stop-color:#adadac;stop-opacity:1;"
         offset="0.45238096"
         id="stop20-06" /><stop
         style="stop-color:#6b6b6b;stop-opacity:1;"
         offset="0.68015873"
         id="stop24-3" /><stop
         style="stop-color:#181818;stop-opacity:1;"
         offset="1"
         id="stop19-2" /></linearGradient><linearGradient
       id="linearGradient12-0"
       inkscape:collect="always"><stop
         style="stop-color:#8e5b1b;stop-opacity:1;"
         offset="0"
         id="stop13-6" /><stop
         style="stop-color:#b77624;stop-opacity:1;"
         offset="0.32944915"
         id="stop17-1" /><stop
         style="stop-color:#d28627;stop-opacity:1"
         offset="0.53276008"
         id="stop15" /><stop
         style="stop-color:#d38727;stop-opacity:0.73565573;"
         offset="0.71979231"
         id="stop16-5" /><stop
         style="stop-color:#d68b26;stop-opacity:0;"
         offset="1"
         id="stop14-5" /></linearGradient><linearGradient
       id="linearGradient9-4"
       inkscape:collect="always"><stop
         style="stop-color:#f7d577;stop-opacity:1"
         offset="0"
         id="stop9-7" /><stop
         style="stop-color:#f3ce62;stop-opacity:1"
         offset="0.37856829"
         id="stop11-6" /><stop
         style="stop-color:#ebc546;stop-opacity:1"
         offset="0.60857612"
         id="stop12-5" /><stop
         style="stop-color:#e9bd2c;stop-opacity:1"
         offset="1"
         id="stop10-6" /></linearGradient><linearGradient
       id="XMLID_1_-9"
       gradientUnits="userSpaceOnUse"
       x1="64.000504"
       y1="117.0137"
       x2="64.000504"
       y2="123.5619"
       gradientTransform="matrix(3.7278183,0,0,3.7278183,-169.30672,-355.72061)"><stop
   offset="0"
   style="stop-color:#FFFFFF"
   id="stop11-3" />
<stop
   offset="1"
   style="stop-color:#8a8585;stop-opacity:1;"
   id="stop13-7" />
<a:midPointStop
   offset="0"
   style="stop-color:#FFFFFF"
   id="midPointStop15" />
<a:midPointStop
   offset="0.5"
   style="stop-color:#FFFFFF"
   id="midPointStop17" />
<a:midPointStop
   offset="1"
   style="stop-color:#949494"
   id="midPointStop19" />
</linearGradient><linearGradient
       id="XMLID_1_"
       gradientUnits="userSpaceOnUse"
       x1="65.2314"
       y1="-24.0483"
       x2="58.715302"
       y2="122.3119">
				<stop
   offset="0.382"
   style="stop-color:#DCF0FF"
   id="stop1-4" />
				<stop
   offset="0.4435"
   style="stop-color:#C9E6FF"
   id="stop2-1" />
				<stop
   offset="0.6311"
   style="stop-color:#92CAFF"
   id="stop3-27" />
				<stop
   offset="0.793"
   style="stop-color:#6AB5FF"
   id="stop4-0" />
				<stop
   offset="0.9213"
   style="stop-color:#52A9FF"
   id="stop5-9-5" />
				<stop
   offset="1"
   style="stop-color:#49A4FF"
   id="stop6-3" />
				<a:midPointStop
   offset="0.382"
   style="stop-color:#DCF0FF" />
				<a:midPointStop
   offset="0.4"
   style="stop-color:#DCF0FF" />
				<a:midPointStop
   offset="1"
   style="stop-color:#49A4FF" />
			</linearGradient><linearGradient
       id="XMLID_2_"
       gradientUnits="userSpaceOnUse"
       x1="85.484398"
       y1="70.108902"
       x2="8.9447002"
       y2="40.5261">
				<stop
   offset="0"
   style="stop-color:#0032A4"
   id="stop7-6" />
				<stop
   offset="1"
   style="stop-color:#3995E5"
   id="stop8-0" />
				<a:midPointStop
   offset="0"
   style="stop-color:#0032A4" />
				<a:midPointStop
   offset="0.5"
   style="stop-color:#0032A4" />
				<a:midPointStop
   offset="1"
   style="stop-color:#3995E5" />
			</linearGradient><linearGradient
       id="XMLID_3_"
       gradientUnits="userSpaceOnUse"
       x1="5.9517002"
       y1="63.035599"
       x2="117.9541"
       y2="63.035599">
				<stop
   offset="0.0169"
   style="stop-color:#FFFFFF"
   id="stop9-6-2" />
				<stop
   offset="0.309"
   style="stop-color:#CFF0FF"
   id="stop10-2" />
				<stop
   offset="0.6348"
   style="stop-color:#6DB8FF"
   id="stop11-5" />
				<stop
   offset="1"
   style="stop-color:#1E65FF"
   id="stop12-61" />
				<a:midPointStop
   offset="0.0169"
   style="stop-color:#FFFFFF" />
				<a:midPointStop
   offset="0.5"
   style="stop-color:#FFFFFF" />
				<a:midPointStop
   offset="0.309"
   style="stop-color:#CFF0FF" />
				<a:midPointStop
   offset="0.5"
   style="stop-color:#CFF0FF" />
				<a:midPointStop
   offset="0.6348"
   style="stop-color:#6DB8FF" />
				<a:midPointStop
   offset="0.5"
   style="stop-color:#6DB8FF" />
				<a:midPointStop
   offset="1"
   style="stop-color:#1E65FF" />
			</linearGradient><linearGradient
       id="XMLID_4_"
       gradientUnits="userSpaceOnUse"
       x1="38.310501"
       y1="106.9429"
       x2="38.310501"
       y2="106.9429">
			<stop
   offset="0"
   style="stop-color:#FFFFFF"
   id="stop13-5" />
			<stop
   offset="1"
   style="stop-color:#B1B1C5"
   id="stop14-6-4" />
			<a:midPointStop
   offset="0"
   style="stop-color:#FFFFFF" />
			<a:midPointStop
   offset="0.5"
   style="stop-color:#FFFFFF" />
			<a:midPointStop
   offset="1"
   style="stop-color:#B1B1C5" />
		</linearGradient><linearGradient
       id="XMLID_5_"
       gradientUnits="userSpaceOnUse"
       x1="55.079601"
       y1="55.829601"
       x2="98.924797"
       y2="74.430603">
				<stop
   offset="0.1461"
   style="stop-color:#6AC5FF"
   id="stop15-2" />
				<stop
   offset="0.2539"
   style="stop-color:#61B3FA"
   id="stop16-9" />
				<stop
   offset="0.469"
   style="stop-color:#4886EC"
   id="stop17-7" />
				<stop
   offset="0.7682"
   style="stop-color:#213DD7"
   id="stop18-44" />
				<stop
   offset="1"
   style="stop-color:#0000C5"
   id="stop19-3" />
				<a:midPointStop
   offset="0.1461"
   style="stop-color:#6AC5FF" />
				<a:midPointStop
   offset="0.5526"
   style="stop-color:#6AC5FF" />
				<a:midPointStop
   offset="1"
   style="stop-color:#0000C5" />
			</linearGradient><linearGradient
       id="XMLID_6_"
       gradientUnits="userSpaceOnUse"
       x1="48.565399"
       y1="62.0425"
       x2="90.431099"
       y2="67.934402">
				<stop
   offset="0"
   style="stop-color:#CDF8FF"
   id="stop20-0" />
				<stop
   offset="1"
   style="stop-color:#0056FF"
   id="stop21-7" />
				<a:midPointStop
   offset="0"
   style="stop-color:#CDF8FF" />
				<a:midPointStop
   offset="0.5"
   style="stop-color:#CDF8FF" />
				<a:midPointStop
   offset="1"
   style="stop-color:#0056FF" />
			</linearGradient><linearGradient
       id="XMLID_7_"
       gradientUnits="userSpaceOnUse"
       x1="56.809601"
       y1="101.1333"
       x2="121.1883"
       y2="70.107399">
				<stop
   offset="0"
   style="stop-color:#FFFFFF"
   id="stop22-8" />
				<stop
   offset="1"
   style="stop-color:#B1B1C5"
   id="stop23-6" />
				<a:midPointStop
   offset="0"
   style="stop-color:#FFFFFF" />
				<a:midPointStop
   offset="0.5"
   style="stop-color:#FFFFFF" />
				<a:midPointStop
   offset="1"
   style="stop-color:#B1B1C5" />
			</linearGradient><linearGradient
       id="XMLID_8_"
       gradientUnits="userSpaceOnUse"
       x1="16.091801"
       y1="124.8345"
       x2="116.8589"
       y2="69.899002">
				<stop
   offset="0"
   style="stop-color:#FFFFFF"
   id="stop24-8" />
				<stop
   offset="1"
   style="stop-color:#B1B1C5"
   id="stop25-8" />
				<a:midPointStop
   offset="0"
   style="stop-color:#FFFFFF" />
				<a:midPointStop
   offset="0.5"
   style="stop-color:#FFFFFF" />
				<a:midPointStop
   offset="1"
   style="stop-color:#B1B1C5" />
			</linearGradient><linearGradient
       id="XMLID_9_"
       gradientUnits="userSpaceOnUse"
       x1="57.195801"
       y1="98.454597"
       x2="121.4817"
       y2="67.473396">
				<stop
   offset="0"
   style="stop-color:#FFFFFF"
   id="stop26-9" />
				<stop
   offset="1"
   style="stop-color:#B1B1C5"
   id="stop27-3" />
				<a:midPointStop
   offset="0"
   style="stop-color:#FFFFFF" />
				<a:midPointStop
   offset="0.5"
   style="stop-color:#FFFFFF" />
				<a:midPointStop
   offset="1"
   style="stop-color:#B1B1C5" />
			</linearGradient><linearGradient
       id="XMLID_10_"
       gradientUnits="userSpaceOnUse"
       x1="98.720703"
       y1="73.721199"
       x2="52.720901"
       y2="55.9422">
				<stop
   offset="0"
   style="stop-color:#0032A4"
   id="stop28" />
				<stop
   offset="1"
   style="stop-color:#3995E5"
   id="stop29" />
				<a:midPointStop
   offset="0"
   style="stop-color:#0032A4" />
				<a:midPointStop
   offset="0.5"
   style="stop-color:#0032A4" />
				<a:midPointStop
   offset="1"
   style="stop-color:#3995E5" />
			</linearGradient><linearGradient
       id="XMLID_11_"
       gradientUnits="userSpaceOnUse"
       x1="56.9995"
       y1="2.1143"
       x2="98.865196"
       y2="8.0060997">
				<stop
   offset="0"
   style="stop-color:#CDF8FF"
   id="stop30" />
				<stop
   offset="1"
   style="stop-color:#0056FF"
   id="stop31" />
				<a:midPointStop
   offset="0"
   style="stop-color:#CDF8FF" />
				<a:midPointStop
   offset="0.5"
   style="stop-color:#CDF8FF" />
				<a:midPointStop
   offset="1"
   style="stop-color:#0056FF" />
			</linearGradient><linearGradient
       inkscape:collect="always"
       xlink:href="#linearGradient9-4"
       id="linearGradient10-7"
       x1="83.68808"
       y1="69.044151"
       x2="191.56625"
       y2="104.3995"
       gradientUnits="userSpaceOnUse" /><linearGradient
       inkscape:collect="always"
       xlink:href="#linearGradient17-6"
       id="linearGradient19-4"
       x1="93.338097"
       y1="76.596308"
       x2="149.02277"
       y2="76.596308"
       gradientUnits="userSpaceOnUse" /><radialGradient
       inkscape:collect="always"
       xlink:href="#linearGradient20"
       id="radialGradient23"
       cx="136.84215"
       cy="34.700867"
       fx="136.84215"
       fy="34.700867"
       r="27.753942"
       gradientTransform="matrix(1.7889727,-0.05468597,0.03821656,1.2501997,-97.287032,0.56606774)"
       gradientUnits="userSpaceOnUse" /><linearGradient
       inkscape:collect="always"
       xlink:href="#linearGradient24-4"
       id="linearGradient32"
       x1="96.270378"
       y1="29.315733"
       x2="149.25001"
       y2="40.1875"
       gradientUnits="userSpaceOnUse" /><radialGradient
       inkscape:collect="always"
       xlink:href="#linearGradient12-0"
       id="radialGradient1"
       cx="132.12936"
       cy="103.60181"
       fx="132.12936"
       fy="103.60181"
       r="43.663849"
       gradientTransform="matrix(2.9035877,-0.02622752,0.00576492,0.63822194,-252.11708,39.21182)"
       gradientUnits="userSpaceOnUse" /><radialGradient
       cx="15.115"
       cy="63.965"
       r="12.289"
       fx="15.115"
       fy="63.965"
       id="rg1"
       xlink:href="#lg4"
       gradientUnits="userSpaceOnUse"
       gradientTransform="matrix(1.6,0,0,0.551754,-0.183975,4.83575)" /><linearGradient
       id="lg4"><stop
         stop-color="#000"
         offset="0"
         id="stop7-0" /><stop
         stop-color="#000"
         stop-opacity="0"
         offset="1"
         id="stop8-5" /></linearGradient><linearGradient
       x1="119.191"
       y1="89.129997"
       x2="116.965"
       y2="169.27901"
       id="lg8"
       xlink:href="#lg3"
       gradientUnits="userSpaceOnUse"
       gradientTransform="matrix(0.353878,0,0,0.353878,-16.3897,-17.997)" /><linearGradient
       id="lg3"><stop
         stop-color="#ffe253"
         offset="0"
         id="stop5-80" /><stop
         stop-color="#ffca1c"
         offset="1"
         id="stop6-21" /></linearGradient><linearGradient
       x1="94.693001"
       y1="112.511"
       x2="94.693001"
       y2="64.053001"
       id="lg7"
       xlink:href="#lg2"
       gradientUnits="userSpaceOnUse"
       gradientTransform="matrix(0.353878,0,0,0.353878,-6.29697,-7.94537)" /><linearGradient
       id="lg2"><stop
         stop-color="#fff"
         offset="0"
         id="stop3-89" /><stop
         stop-color="#fff"
         stop-opacity="0.165"
         offset="1"
         id="stop4-36" /></linearGradient><linearGradient
       x1="59.728001"
       y1="102"
       x2="142.62"
       y2="102"
       id="lg6"
       xlink:href="#lg1"
       gradientUnits="userSpaceOnUse"
       gradientTransform="matrix(0.353878,0,0,0.353878,-17.3795,-19.412)" /><linearGradient
       id="lg1"><stop
         stop-color="#3778ae"
         offset="0"
         id="stop1-1" /><stop
         stop-color="#366c99"
         offset="1"
         id="stop2-2" /></linearGradient><linearGradient
       x1="94.693001"
       y1="112.511"
       x2="94.693001"
       y2="64.053001"
       id="lg5"
       xlink:href="#lg2"
       gradientUnits="userSpaceOnUse"
       gradientTransform="matrix(0.353878,0,0,0.353878,-17.3795,-19.412)" /></defs><sodipodi:namedview
     id="base"
     pagecolor="#ffffff"
     bordercolor="#000000"
     borderopacity="0.3"
     inkscape:pageopacity="0.0"
     inkscape:pageshadow="2"
     inkscape:zoom="0.98994949"
     inkscape:cx="505.07627"
     inkscape:cy="476.792"
     inkscape:document-units="mm"
     inkscape:showpageshadow="2"
     inkscape:pagecheckerboard="0"
     inkscape:deskcolor="#d1d1d1"
     inkscape:current-layer="svg1"
     showguides="true"><sodipodi:guide
       position="92.475254,162.18839"
       orientation="0,-1"
       id="guide12"
       inkscape:locked="false" /><sodipodi:guide
       position="212.80059,201.33519"
       orientation="0,-1"
       id="guide27"
       inkscape:locked="false" /><sodipodi:guide
       position="177.33333,251.7905"
       orientation="1,0"
       id="guide28"
       inkscape:locked="false" /></sodipodi:namedview><metadata
     id="metadata1"><rdf:RDF><cc:Work
         rdf:about=""><dc:format>image/svg+xml</dc:format><dc:type
           rdf:resource="http://purl.org/dc/dcmitype/StillImage" /><cc:license
           rdf:resource="http://creativecommons.org/publicdomain/zero/1.0/" /></cc:Work><cc:License
         rdf:about="http://creativecommons.org/publicdomain/zero/1.0/"><cc:permits
           rdf:resource="http://creativecommons.org/ns#Reproduction" /><cc:permits
           rdf:resource="http://creativecommons.org/ns#Distribution" /><cc:permits
           rdf:resource="http://creativecommons.org/ns#DerivativeWorks" /></cc:License></rdf:RDF></metadata><g
     id="g28"
     transform="matrix(1.0481261,0,0,1.0481261,-6.4074194,-6.1384097)"><g
       id="g7"
       inkscape:label="shadow"
       style="display:inline"><path
         id="rect1"
         style="fill:#000000;fill-opacity:0.0602258;stroke-width:3.72791;stroke-linecap:square"
         d="M 48.380952,13.418155 H 179.16071 l 43.46726,43.278274 V 244.17261 H 48.380952 Z"
         sodipodi:nodetypes="cccccc" /><path
         id="path1"
         style="fill:#000000;fill-opacity:0.0752823;stroke-width:3.72791;stroke-linecap:square"
         d="m 47.563027,12.60023 129.443423,-0.133635 43.46726,43.278274 1.33635,187.609821 H 47.563027 Z"
         sodipodi:nodetypes="cccccc" /><path
         id="path2"
         style="fill:#000000;fill-opacity:0.0602258;stroke-width:3.72791;stroke-linecap:square"
         d="m 46.493949,11.793049 128.975701,-0.868626 43.46726,43.278274 1.80407,188.344813 H 46.493949 Z"
         sodipodi:nodetypes="cccccc" /><path
         id="path3"
         style="fill:#000000;fill-opacity:0.0602258;stroke-width:3.72791;stroke-linecap:square"
         d="m 45.964782,12.33296 129.777508,0.467722 43.46726,42.209196 1.00226,187.008462 H 45.964782 Z"
         sodipodi:nodetypes="cccccc" /><path
         id="path4"
         style="fill:#000000;fill-opacity:0.0602258;stroke-width:3.72791;stroke-linecap:square"
         d="m 45.435615,12.338332 129.443415,0.935443 43.46726,41.674657 1.33635,186.540738 H 45.435615 Z"
         sodipodi:nodetypes="cccccc" /><path
         id="path5"
         style="fill:#000000;fill-opacity:0.0602258;stroke-width:3.72791;stroke-linecap:square"
         d="M 44.906448,12.744609 174.8844,13.412783 218.35166,54.151996 219.15347,240.96 H 44.906448 Z"
         sodipodi:nodetypes="cccccc" /><path
         id="path6"
         style="fill:#000000;fill-opacity:0.0602258;stroke-width:3.72791;stroke-linecap:square"
         d="m 44.377281,15.021772 129.911129,0.534539 43.46726,37.932883 0.86863,186.941636 H 44.377281 Z"
         sodipodi:nodetypes="cccccc" /><path
         id="path7"
         style="fill:#000000;fill-opacity:0.0602258;stroke-width:3.72791;stroke-linecap:square"
         d="m 43.848114,13.423527 129.710676,1.069078 43.46726,39.001961 1.06908,186.407094 H 43.848114 Z"
         sodipodi:nodetypes="cccccc" /></g><g
       id="g14"
       style="display:inline"><path
         style="color:#000000;fill:url(#linearGradient14);stroke-linecap:square;-inkscape-stroke:none"
         d="M 46.153822,14.648159 H 173.78301 l 40.90293,41.140298 V 236.0795 H 46.554726 Z"
         id="path15"
         inkscape:label="headbgground" /><path
         id="rect16"
         style="display:inline;fill:url(#linearGradient17);fill-opacity:1;stroke-width:4.99999;stroke-linecap:square"
         d="M 45.435818,14.165285 H 176.70315 l 0.20408,8.220982 H 53.433709 V 235.97952 h -7.997891 z"
         sodipodi:nodetypes="ccccccc" /><path
         id="rect17"
         style="fill:url(#linearGradient19);stroke-width:4.99999;stroke-linecap:square"
         d="M 47.058037,227.91965 H 207.27506 l -0.0668,-168.246312 7.31651,0.0667 0.0668,168.546562 -7.08265,0.0331 v 7.34846 H 47.058037 Z"
         sodipodi:nodetypes="ccccccccc" /><path
         style="color:#000000;fill:url(#linearGradient10);stroke-linecap:square;-inkscape-stroke:none"
         d="M 43.648437,12.148438 44.058594,238.58008 H 217.18555 V 54.757812 L 174.82227,12.148438 Z m 4.608862,4.999999 H 172.74414 l 39.44141,39.671875 V 233.58008 H 48.775405 Z"
         id="path16"
         inkscape:label="headframe"
         sodipodi:nodetypes="cccccccccccc" /></g><g
       id="rect23"
       style="display:inline"><rect
         style="display:inline;fill:url(#linearGradient23);fill-opacity:0.834379;stroke:none;stroke-width:4.99999;stroke-linecap:square;stroke-dasharray:none;stroke-opacity:1"
         id="rect20"
         width="30.128031"
         height="11.286353"
         x="177.19191"
         y="53.347572" /><path
         style="color:#000000;display:inline;fill:url(#linearGradient25);stroke-linecap:square;stroke-linejoin:bevel;-inkscape-stroke:none"
         d="m 174.15254,15.119046 40.91592,41.955358 H 174.814 Z"
         id="path25" /><g
         id="g27"><path
           id="rect27"
           style="display:inline;fill:#0a6db5;fill-opacity:0.459222;stroke-width:4.99999;stroke-linecap:square;stroke-linejoin:bevel"
           d="m 182.94047,23.245534 33.07293,33.82887 -33.07293,-0.09449 z"
           sodipodi:nodetypes="cccc" /><path
           id="path27"
           style="display:inline;fill:#1882cf;fill-opacity:0.459222;stroke-width:4.99999;stroke-linecap:square;stroke-linejoin:bevel"
           d="m 175.28645,49.514879 34.91556,0.188989 4.67746,7.087054 -39.68751,-0.472471 z"
           sodipodi:nodetypes="ccccc" /></g><path
         style="color:#000000;display:inline;fill:url(#linearGradient27);stroke-linecap:square;stroke-linejoin:bevel;-inkscape-stroke:none"
         d="m 175.94141,13.373047 -4.28907,1.785156 6.5e-4,44.600911 c 0,0 29.8634,-0.184895 43.41537,-0.184895 l 1.78906,-4.246094 z m 1.4286,7.056744 34.22551,34.144428 h -34.32013 z"
         id="path26"
         sodipodi:nodetypes="cccccccccc" /></g></g><g
     id="g90"
     transform="matrix(2.9959335,0,0,2.9959335,58.441313,53.866055)"
     style="clip-rule:nonzero;display:inline;fill:#00009f;fill-rule:nonzero;stroke:#ffffff;stroke-width:0;stroke-miterlimit:4"><path
       d="m 43.6618,40.1289 a 19.6618,6.7805 0 0 1 -39.3236,0 19.6618,6.7805 0 1 1 39.3236,0 z"
       fill="url(#rg1)"
       id="path8-1"
       style="fill:url(#rg1)" /><path
       d="m 34.0804,37.5795 c 0,2.7319 -2.371,4.1156 -4.7774,4.8057 -3.6202,1.0404 -6.5255,0.8811 -9.5511,0 -2.5268,-0.7362 -4.7774,-2.2402 -4.7774,-4.8057 v -9.0132 c 0,-2.594 2.1621,-4.8092 4.7774,-4.8092 l 9.3984,-0.6111 c 3.1814,0 5.2606,-1.9858 5.2606,-5.245 l 0.8655,-4.3569 h 3.5813 c 2.7814,0 4.0909,2.0667 4.7774,4.8056 0.9555,3.8043 0.9978,6.6495 0,9.615 -0.9661,2.8805 -2,4.8056 -4.7774,4.8056 h -4.7773 -9.5512 v -0.02 c 8.2424,0.02 9.5512,-3.3164 9.5512,4.8281 z"
       fill="url(#lg8)"
       id="path9-1"
       style="fill:url(#lg8)" /><path
       d="m 28.1104,38.1776 c 0,-0.9944 0.8033,-1.8013 1.7906,-1.8013 1,0 1.7906,0.8069 1.7906,1.8013 0,0.9979 -0.7997,1.8047 -1.7906,1.8047 -0.9873,0 -1.7906,-0.8068 -1.7906,-1.8047 z"
       fill="#ffffff"
       id="path10-0" /><path
       d="m 35.2662,13.5436 v 4.2265 C 31.8551,23.767 25.375,23.7787 19.939,23.7787 l -2.017,0.2052 c -2.8342,2.4364 -2.9244,6.3463 -2.9223,9.7756 6.2502,-6.9742 12.9174,-7.5004 16.2436,-7.4854 6.6377,0.029 9.7638,-1.6029 12.9339,-5.1939 -0.016,-0.07 0.016,-0.132 0,-0.2037 -0.1222,-0.8 -0.3362,-1.6544 -0.5601,-2.546 -0.3218,-1.2839 -0.7428,-2.4141 -1.4257,-3.2589 -0.016,-0.016 -0.038,-0.034 -0.051,-0.05 0,0 -0.042,0 -0.05,0 -0.023,-0.028 -0.028,-0.075 -0.05,-0.1011 -0.047,-0.034 -0.052,-0.07 -0.101,-0.101 -0.016,-0.016 -0.039,0.016 -0.05,0 C 41.1653,14.3502 40.2858,14 39.3942,13.8519 38.5861,13.7183 37.775,13.6165 36.95,13.5464 h -0.5092 -1.1711 z"
       opacity="0.837"
       fill="url(#lg7)"
       id="path11-8"
       style="fill:url(#lg7)" /><path
       d="m 34.559,37.579 c 0,2.732 -2.8497,4.116 -5.256,4.806 -3.62,1.04 -6.525,0.881 -9.551,0 -2.527,-0.736 -4.801,-2.24 -4.805,-4.805 l -0.016,-9.258 c -0.01,-3.073 2.302,-5.01 4.849,-5 l 8.4667,0.015 c 3.25,0 6.41,-3.3 6.401,-6.55 V 13.55 h 4.21 c 2.7814,0 4.09,2.067 4.777,4.806 0.956,3.804 1,6.649 0,9.615 -0.966,2.88 -2,5.1476 -4.777,5.148 h -4.3 -10.03 v -0.02 l 10.03,0.034 z"
       fill="none"
       stroke="#bb9400"
       stroke-width="1.63"
       id="path12-5" /><path
       d="m 35.4653,14.3584 v 2.3933 c 0,3.7245 -3.4965,7.3757 -7.4809,7.3757 h -8.2491 c -2.8506,0 -4.0184,2.1569 -4.0042,4.4379 l 0.056,9.0129 c 0.01,1.0446 0.4,1.8235 1.148,2.4951 0.748,0.6715 1.8726,1.183 3.0553,1.5277 2.9164,0.8492 5.576,1.0022 9.0638,0 1.1327,-0.3248 2.6394,-0.9401 3.3976,-1.5964 0.7581,-0.6565 1.3077,-1.2961 1.3077,-2.4264 v -3.6298 h -10.052 v -1.6795 l 15.1743,0.05 c 1.2008,0 1.788,-0.4724 2.3844,-1.1633 0.5964,-0.691 1.1149,-2.0469 1.5874,-3.456 0.9456,-2.8096 0.9336,-5.4491 0,-9.1658 -0.3252,-1.2978 -0.7976,-2.3461 -1.4257,-3.0552 -0.628,-0.7091 -1.357,-1.1202 -2.5461,-1.1202 z m 1.6294,1.6294 h 1.7867 c 0.5202,0 1.1993,0.4194 1.324,0.5602 0.3625,0.4093 0.78,1.2386 1.0694,2.3932 0.8895,3.5416 0.8915,5.7515 0.05,8.2491 -0.4517,1.347 -0.9205,2.6142 -1.2729,3 -0.3184,0.3395 -1,0.5093 -1.1713,0.5093 l -4.7865,-0.051 H 22.0768 v 4.9384 h 10.052 v 2 c 0,0.727 -0.9733,1.1789 -1.1408,1.3239 -0.4872,0.4219 -1.3508,0.8359 -2.3423,1.1202 -3.223,0.9264 -5.5,0.7859 -8.1984,0 -1.0211,-0.2975 -1.9061,-0.7339 -2.4069,-1.1595 -0.5008,-0.4256 -0.5316,-0.7741 -0.6238,-1.285 l -0.056,-9.0129 c -0.013,-2.0224 0.6457,-2.8084 2.3748,-2.8084 h 8.2491 c 4.9233,0 9.1103,-4.3502 9.1103,-9.0052 1e-4,-0.2574 -10e-5,-0.5149 -10e-5,-0.7723 z"
       opacity="0.384"
       fill="#ffffff"
       id="path13-0" /><path
       d="m 13.9847,7.3199 c 0,-2.7319 0.7324,-4.2182 4.7772,-4.926 2.7462,-0.4813 6.2673,-0.5414 9.5513,0 2.5939,0.4282 4.7774,2.3604 4.7774,4.926 v 9.0134 c 0,2.6434 -2.1198,4.8091 -4.7774,4.8091 l -8.6621,0.4788 c -3.2414,0 -6.589,2.8321 -6.589,5.957 l -0.2736,3.777 h -3.284 c -2.7779,0 -4.3951,-2.0029 -5.0745,-4.8056 -0.9166,-3.7651 -0.8776,-6.0088 0,-9.6147 0.7608,-3.1461 3.192,-4.8058 5.7,-4.8058 h 3.5848 c 0,0 8.9448,-0.035 0,-0.032 V 7.32 v 0 z"
       fill="url(#lg6)"
       id="path14-6"
       style="fill:url(#lg6)" /><path
       d="m 16.3733,6.7218 c 0,-1 0.8,-1.8048 1.7906,-1.8048 0.9873,0 1.7907,0.8068 1.7907,1.8048 0,0.9944 -0.8034,1.8012 -1.7907,1.8012 -0.9908,0 -1.7906,-0.8068 -1.7906,-1.8012 z"
       fill="#ffffff"
       id="path15-4" /><path
       d="M 22.7173,1.9955 C 21.3039,2.0297 19.9469,2.1923 18.7455,2.4028 14.7007,3.1106 14.01,4.6102 14.01,7.3421 l -0.2952,4.787 -3.3203,-3e-4 c -2.7779,0 -5.1968,1.6406 -5.9576,4.7864 -0.5165,2.1225 -0.7504,3.7842 -0.6621,5.5504 6.2924,-7.1319 13.0442,-7.6531 16.3965,-7.638 6.6376,0.029 9.7637,-1.6029 12.9338,-5.1939 V 7.3423 c 0,-2.5655 -2.1926,-4.511 -4.7865,-4.9392 C 26.4714,2.0983 24.5345,1.9515 22.7173,1.9955 Z"
       opacity="0.377"
       fill="url(#lg5)"
       id="path16-6"
       style="fill:url(#lg5)" /><path
       d="m 18.696,2.6271 c 3.6201,-1.0404 6.5255,-0.8811 9.551,0 2.5268,0.7361 4.7787,2.24 4.7774,4.8057 v 9.7315 c 0,1.3662 -1.9746,4.5293 -4.7726,4.5293 H 19.353 c -2.4983,0 -5.997,2.7217 -5.997,5.981 v 3.7937 h -4.21 c -2.7815,0 -4.0909,-2.0667 -4.7774,-4.8058 -0.9555,-3.8041 -1,-6.6493 0,-9.6148 0.9661,-2.8806 2,-5.1477 4.7774,-5.1477 h 4.2985 10.03 v 0.019 l -10.03,-0.034 0.019,-4.8733 c -0.026,-1.9965 2.4146,-3.5524 5.2323,-4.3845 z"
       fill="none"
       stroke="#274e70"
       stroke-width="1.63"
       id="path17-2" /><path
       d="m 12.5337,30.6538 v -2.796 c 0,-3.7246 3.3953,-7.0287 7.0461,-7.0287 h 8.6839 c 2.1549,0 4.024,-2.2411 4.0042,-4.3821 L 32.1845,7.434 C 32.1748,6.3895 31.8123,5.6105 31.0642,4.9389 30.3163,4.2673 29.1916,3.7558 28.009,3.4113 c -2.9166,-0.8494 -5.5762,-1.0023 -9.0639,0 -1.1326,0.3248 -2.6396,0.94 -3.3976,1.5964 -0.7582,0.6564 -1.3076,1.296 -1.3076,2.4263 v 3.6298 h 10.0519 v 1.6804 L 9.1175,12.6932 c -1.2,0 -1.788,0.4724 -2.3844,1.1634 -0.5964,0.6908 -1.1149,2.0467 -1.5874,3.4559 -0.9456,2.8096 -0.9335,5.449 0,9.1657 0.3252,1.2978 0.7976,2.3461 1.4258,3.0552 0.628,0.7092 1.357,1.1203 2.546,1.1203 h 3.4162 z M 10.9042,29.0243 H 9.1175 c -0.52,0 -1.2,-0.4194 -1.3239,-0.56 C 7.431,28.0549 7.0135,27.2255 6.7241,26.0709 5.8346,22.5294 5.8327,20.3196 6.6736,17.8218 7.1253,16.475 7.5941,15.2077 7.9466,14.8319 8.265,14.4926 8.9375,14.3227 9.1178,14.3227 l 16.8038,0.051 V 9.4343 H 15.8697 v -2 c 0,-0.727 0.9732,-1.1789 1.1407,-1.3239 0.4873,-0.4219 1.3509,-0.8359 2.3424,-1.12 3.2229,-0.9262 5.5,-0.7858 8.1983,0 1.0212,0.2975 1.9061,0.7339 2.3932,1.1712 0.1733,0.1352 0.2646,0.2973 0.4078,0.4582 0.1987,0.237 0.1552,0.55023 0.2011,0.8147 v 9.013 c 0,1.2357 -1.0565,2.7527 -2.2913,2.7527 H 19.578 c -4.5897,0 -8.6756,4.0029 -8.6756,8.6581 0,0.3875 0,1.166 0,1.166 z"
       opacity="0.165"
       fill="#ffffff"
       id="path18-5" /></g><g
     style="overflow:visible"
     id="g1"
     transform="matrix(0.45375211,0,0,0.45375211,139.87973,144.78273)"><g
       id="g9"
       style="display:inline"><path
         id="rect1-5"
         style="display:inline;fill:#a4bfe4;stroke-width:38.0334;stroke-linecap:square;stroke-linejoin:round;stroke-opacity:0.849303"
         d="M 15.909904,152.02797 126.39535,42.072858 c -0.3554,-17.315184 35.39311,-12.507325 35.88567,0.353553 l -0.53033,19.798991 43.31029,-14.142136 25.1023,18.119612 -0.35356,39.686372 22.98097,0.17677 0.11838,61.87248 h -31.08973 l 8.11538,5.84188 -0.0947,33.96442 -28.13783,18.3526 -25.63259,-19.35704 c -7.95495,3.4847 -15.90991,5.53191 -23.86486,6.66226 l 0.7071,28.75937 -37.0789,0.0331 0.48613,-31.96343 c -9.32178,1.43603 -21.964745,-1.86051 -24.183501,-4.3361 l -28.906004,20.49916 -26.99034,-17.91975 12.374369,-41.24421 -32.17336,0.7955 z"
         sodipodi:nodetypes="cccccccccccccccccccccccc" /><path
         id="rect2"
         style="display:inline;fill:#ac4120;fill-opacity:1;stroke-width:38.0334;stroke-linecap:square;stroke-linejoin:round;stroke-opacity:0.849303"
         d="m 102.38226,202.00053 c -8.635593,-1.45934 -16.652685,-3.94951 -24.228297,-7.17548 l -26.815378,20.63259 -28.56363,-19.13435 0.2327,-33.74395 12.482701,-5.39039 -32.5692,-0.31158 L 3.1019569,122.81578 37.032756,100.0042 23.213555,88.692621 23.144364,54.88104 l 52.180801,8.18842 140.430805,-7.56158 0.7071,33.322409 -12.55114,10.429826 35.53212,23.511295 0.35355,33.76435 -31.87647,-0.0259 8.8955,6.38985 0.0884,33.94113 -28.19039,18.37942 -26.06851,-19.86742 c -8.01773,4.4202 -16.03545,5.53345 -24.05318,6.52613 l 0.17677,28.99138 -36.38745,0.53487 z"
         sodipodi:nodetypes="cccccccccccccccccccccccccc" /><path
         id="rect3"
         style="display:inline;fill:#b2591f;fill-opacity:1;stroke-width:38.0334;stroke-linecap:square;stroke-linejoin:round;stroke-opacity:0.849303"
         d="m 41.058058,123.30286 c 0,0 2.385858,5.73778 3.916369,8.57367 1.807541,3.34921 6.98268,9.33059 6.98268,9.33059 l -10.987437,7.77817 z"
         sodipodi:nodetypes="csccc" /><path
         id="path3-2"
         style="display:inline;fill:#b2591f;fill-opacity:1;stroke-width:38.0334;stroke-linecap:square;stroke-linejoin:round;stroke-opacity:0.849303"
         d="m 78.645147,160.77253 c 7.132327,2.98172 14.731704,5.5451 23.564113,7.71882 l 0.17593,33.58449 c -8.4436,-1.66233 -16.785762,-3.58549 -24.415518,-7.34055 z"
         sodipodi:nodetypes="ccccc" /><path
         id="path4-5"
         style="display:inline;fill:#b2591f;fill-opacity:1;stroke-width:38.0334;stroke-linecap:square;stroke-linejoin:round;stroke-opacity:0.849303"
         d="m 138.89255,168.58059 c 7.48588,-2.40997 23.52122,-6.73829 23.52122,-6.73829 l 0.17593,33.84966 c -5.25282,2.94213 -14.88935,6.19494 -23.13519,6.32106 z"
         sodipodi:nodetypes="ccccc" /><path
         id="path5-4"
         style="fill:#b2591f;fill-opacity:1;stroke-width:38.0334;stroke-linecap:square;stroke-linejoin:round;stroke-opacity:0.849303"
         d="m 189.98546,142.41856 11.05402,-19.7323 -0.34996,28.01695 z"
         sodipodi:nodetypes="cccc" /><path
         id="path6-7"
         style="fill:#84421b;stroke-width:38.0334;stroke-linecap:square;stroke-linejoin:round;stroke-opacity:0.849303"
         d="m 102.4355,196.64703 36.6848,0.45778 0.17593,33.53716 -36.79877,-0.0625 z"
         sodipodi:nodetypes="ccccc" /><path
         id="path7-4"
         style="fill:#b2591f;fill-opacity:1;stroke-width:38.0334;stroke-linecap:square;stroke-linejoin:round;stroke-opacity:0.849303"
         d="m 102.4355,196.64703 36.6848,0.45778 0.17593,33.53716 -36.79877,-0.0625 z"
         sodipodi:nodetypes="ccccc" /><path
         id="path8"
         style="fill:#b2591f;fill-opacity:1;stroke-width:38.0334;stroke-linecap:square;stroke-linejoin:round;stroke-opacity:0.849303"
         d="m 22.935496,162.39703 28.1848,19.70778 0.17593,33.53716 -28.29877,-19.3125 z"
         sodipodi:nodetypes="ccccc" /><path
         id="path9"
         style="fill:#b2591f;fill-opacity:1;stroke-width:38.0334;stroke-linecap:square;stroke-linejoin:round;stroke-opacity:0.849303"
         d="m 188.6855,180.89703 28.4348,-17.29222 0.17593,33.53716 -28.54877,17.6875 z"
         sodipodi:nodetypes="ccccc" /><path
         id="rect9"
         style="fill:url(#linearGradient10-7);stroke-width:38.0334;stroke-linecap:square;stroke-linejoin:round;stroke-opacity:0.849303"
         d="m 51.250004,36.249998 27.9375,21.000001 C 112.29156,41.480863 139.80268,47.808898 161.86996,55.918893 l 26.45811,-19.445437 28.60842,18.694137 c -10.60593,7.281015 -17.41976,12.994776 -27.23246,19.972245 6.12474,6.590289 9.01469,12.764615 11.55852,19.802517 l 38.33116,-0.0442 -0.0294,27.886525 -37.85961,-0.0442 c -2.40374,6.95036 -5.74954,13.54745 -11.90244,19.09188 l 26.10456,21.21321 -27.02644,18.81318 -26.12337,-20.13901 c -7.24402,4.36838 -14.51214,6.39849 -23.48132,6.98268 l 0.03,28.54944 -36.70642,-0.0884 0.0258,-28.53848 c -8.854419,-1.20783 -16.934254,-3.96483 -24.625001,-7.5 L 51.250008,181.5625 23.750006,162.75 50.648659,141.24784 C 45.863776,135.23162 41.858275,129.18151 40.875003,123 L 2.922336,122.60355 3.0000016,95.249998 41.250003,94.499999 c 1.936244,-6.874267 5.124814,-12.910386 9.750001,-17.9375 L 24.500003,55.187498 Z"
         sodipodi:nodetypes="ccccccccccccccccccccccccccccc" /><path
         id="rect12"
         style="display:inline;fill:url(#radialGradient1);stroke-width:38.0334;stroke-linecap:square;stroke-linejoin:round;stroke-opacity:0.849303"
         d="m 117.96552,70.042151 72.26399,5.360467 c 5.22645,5.697991 8.52397,12.272774 11.17284,19.142396 l 38.28063,-0.07053 -0.39351,28.048816 -37.00571,-0.16906 -8.7557,15.33094 c -26.8847,7.92789 -54.28344,0.47515 -79.73411,-13.66117 z"
         sodipodi:nodetypes="ccccccccc" /><path
         id="rect17-4"
         style="display:inline;fill:url(#linearGradient19-4);stroke:#000000;stroke-width:2;stroke-linecap:square;stroke-linejoin:round;stroke-dasharray:none;stroke-opacity:1"
         d="M 93.338097,32.637399 C 112.56823,29.07169 131.206,28.696404 149.02277,32.668619 v 79.054251 c -6.96133,18.73114 -52.166032,15.08386 -55.684673,1.06066 z"
         sodipodi:nodetypes="ccccc" /><ellipse
         style="fill:url(#radialGradient23);fill-opacity:1;stroke:#000000;stroke-width:2;stroke-linecap:square;stroke-linejoin:round;stroke-dasharray:none;stroke-opacity:1"
         id="path20"
         cx="121.26881"
         cy="31.515989"
         rx="26.72047"
         ry="14.378942" /><path
         id="rect24"
         style="fill:url(#linearGradient32);stroke-width:38.0334;stroke-linecap:square;stroke-linejoin:round;stroke-opacity:0.849303"
         d="m 94.060668,28.97833 c 0,0 2.433059,15.543118 27.683062,15.543118 25.25,0 26.80315,-15.608916 26.80315,-15.608916 l 1.38383,3.587166 c 0,0 -4.80575,14.875303 -28.80575,14.875303 -24.624951,0 -28.876252,-14.880205 -28.876252,-14.880205 z"
         sodipodi:nodetypes="csccscc" /></g></g></svg>
