<?xml version="1.0" encoding="UTF-8" standalone="no"?>
<!-- Created with Inkscape (http://www.inkscape.org/) -->

<svg
   width="256mm"
   height="256mm"
   viewBox="0 0 256 256"
   version="1.1"
   id="svg1"
   inkscape:version="1.3.2 (091e20ef0f, 2023-11-25)"
   xml:space="preserve"
   sodipodi:docname="application-x-fluid.svg"
   xmlns:inkscape="http://www.inkscape.org/namespaces/inkscape"
   xmlns:sodipodi="http://sodipodi.sourceforge.net/DTD/sodipodi-0.dtd"
   xmlns:xlink="http://www.w3.org/1999/xlink"
   xmlns="http://www.w3.org/2000/svg"
   xmlns:svg="http://www.w3.org/2000/svg"
   xmlns:rdf="http://www.w3.org/1999/02/22-rdf-syntax-ns#"
   xmlns:cc="http://creativecommons.org/ns#"
   xmlns:dc="http://purl.org/dc/elements/1.1/"><defs
     id="defs1"><linearGradient
       id="linearGradient26"
       inkscape:collect="always"><stop
         style="stop-color:#7b91c4;stop-opacity:1;"
         offset="0"
         id="stop26" /><stop
         style="stop-color:#5c5e91;stop-opacity:1"
         offset="1"
         id="stop27" /></linearGradient><linearGradient
       id="linearGradient24"
       inkscape:collect="always"><stop
         style="stop-color:#c7fafe;stop-opacity:1;"
         offset="0"
         id="stop24" /><stop
         style="stop-color:#9acdff;stop-opacity:1"
         offset="1"
         id="stop25" /></linearGradient><linearGradient
       id="linearGradient22"
       inkscape:collect="always"><stop
         style="stop-color:#adaeae;stop-opacity:0.8253752;"
         offset="0"
         id="stop22" /><stop
         style="stop-color:#8ac5fe;stop-opacity:0.83628923;"
         offset="1"
         id="stop23" /></linearGradient><linearGradient
       id="linearGradient18"
       inkscape:collect="always"><stop
         style="stop-color:#9797ff;stop-opacity:1;"
         offset="0"
         id="stop18" /><stop
         style="stop-color:#ccccff;stop-opacity:1;"
         offset="0.30000001"
         id="stop20" /><stop
         style="stop-color:#ccccff;stop-opacity:1;"
         offset="1"
         id="stop19" /></linearGradient><linearGradient
       id="linearGradient16"
       inkscape:collect="always"><stop
         style="stop-color:#cdcdcd;stop-opacity:0.17462483;"
         offset="0"
         id="stop16" /><stop
         style="stop-color:#cdcdcd;stop-opacity:1;"
         offset="1"
         id="stop17" /></linearGradient><linearGradient
       id="linearGradient12"
       inkscape:collect="always"><stop
         style="stop-color:#fdfeff;stop-opacity:1;"
         offset="0"
         id="stop13" /><stop
         style="stop-color:#99ccff;stop-opacity:1;"
         offset="1"
         id="stop14" /></linearGradient><linearGradient
       id="linearGradient9"
       inkscape:collect="always"><stop
         style="stop-color:#97c9fc;stop-opacity:1;"
         offset="0"
         id="stop9" /><stop
         style="stop-color:#7788bb;stop-opacity:1"
         offset="0.25"
         id="stop12" /><stop
         style="stop-color:#57578a;stop-opacity:1"
         offset="0.5"
         id="stop11" /><stop
         style="stop-color:#444482;stop-opacity:1;"
         offset="1"
         id="stop10" /></linearGradient><linearGradient
       inkscape:collect="always"
       xlink:href="#linearGradient9"
       id="linearGradient10"
       x1="31.622168"
       y1="100.24049"
       x2="221.19499"
       y2="240.28973"
       gradientUnits="userSpaceOnUse" /><linearGradient
       inkscape:collect="always"
       xlink:href="#linearGradient12"
       id="linearGradient14"
       x1="73.583481"
       y1="62.020954"
       x2="207.02971"
       y2="229.59895"
       gradientUnits="userSpaceOnUse" /><linearGradient
       inkscape:collect="always"
       xlink:href="#linearGradient16"
       id="linearGradient17"
       x1="57.531055"
       y1="26.420616"
       x2="147.13231"
       y2="144.34076"
       gradientUnits="userSpaceOnUse" /><linearGradient
       inkscape:collect="always"
       xlink:href="#linearGradient18"
       id="linearGradient19"
       x1="209.82518"
       y1="58.53635"
       x2="210.58252"
       y2="194.57654"
       gradientUnits="userSpaceOnUse" /><linearGradient
       inkscape:collect="always"
       xlink:href="#linearGradient22"
       id="linearGradient23"
       x1="177.19191"
       y1="58.990749"
       x2="207.31994"
       y2="58.990749"
       gradientUnits="userSpaceOnUse" /><linearGradient
       inkscape:collect="always"
       xlink:href="#linearGradient24"
       id="linearGradient25"
       x1="176.32031"
       y1="20.126524"
       x2="176.32031"
       y2="56.695721"
       gradientUnits="userSpaceOnUse" /><linearGradient
       inkscape:collect="always"
       xlink:href="#linearGradient26"
       id="linearGradient27"
       x1="172.59729"
       y1="13.51158"
       x2="210.54449"
       y2="51.28627"
       gradientUnits="userSpaceOnUse" /><linearGradient
       inkscape:collect="always"
       xlink:href="#linearGradient22-8"
       id="linearGradient23-7"
       x1="56.09259"
       y1="223.34523"
       x2="58.149296"
       y2="227.96547"
       gradientUnits="userSpaceOnUse" /><linearGradient
       id="linearGradient22-8"
       inkscape:collect="always"><stop
         style="stop-color:#b1b1ff;stop-opacity:1;"
         offset="0"
         id="stop22-5" /><stop
         style="stop-color:#b1b1ff;stop-opacity:0;"
         offset="1"
         id="stop23-7" /></linearGradient></defs><sodipodi:namedview
     id="base"
     pagecolor="#ffffff"
     bordercolor="#000000"
     borderopacity="0.3"
     inkscape:pageopacity="0.0"
     inkscape:pageshadow="2"
     inkscape:zoom="0.98994949"
     inkscape:cx="505.07627"
     inkscape:cy="476.792"
     inkscape:document-units="mm"
     inkscape:showpageshadow="2"
     inkscape:pagecheckerboard="0"
     inkscape:deskcolor="#d1d1d1"
     inkscape:current-layer="g28"
     showguides="true" /><metadata
     id="metadata1"><rdf:RDF><cc:Work
         rdf:about=""><dc:format>image/svg+xml</dc:format><dc:type
           rdf:resource="http://purl.org/dc/dcmitype/StillImage" /><cc:license
           rdf:resource="http://creativecommons.org/publicdomain/zero/1.0/" /></cc:Work><cc:License
         rdf:about="http://creativecommons.org/publicdomain/zero/1.0/"><cc:permits
           rdf:resource="http://creativecommons.org/ns#Reproduction" /><cc:permits
           rdf:resource="http://creativecommons.org/ns#Distribution" /><cc:permits
           rdf:resource="http://creativecommons.org/ns#DerivativeWorks" /></cc:License></rdf:RDF></metadata><g
     id="g28"
     transform="matrix(1.0481261,0,0,1.0481261,-6.4074194,-6.1384097)"><g
       id="g7"
       inkscape:label="shadow"
       style="display:inline"><path
         id="rect1"
         style="fill:#000000;fill-opacity:0.0602258;stroke-width:3.72791;stroke-linecap:square"
         d="M 48.380952,13.418155 H 179.16071 l 43.46726,43.278274 V 244.17261 H 48.380952 Z"
         sodipodi:nodetypes="cccccc" /><path
         id="path1"
         style="fill:#000000;fill-opacity:0.0752823;stroke-width:3.72791;stroke-linecap:square"
         d="m 47.563027,12.60023 129.443423,-0.133635 43.46726,43.278274 1.33635,187.609821 H 47.563027 Z"
         sodipodi:nodetypes="cccccc" /><path
         id="path2"
         style="fill:#000000;fill-opacity:0.0602258;stroke-width:3.72791;stroke-linecap:square"
         d="m 46.493949,11.793049 128.975701,-0.868626 43.46726,43.278274 1.80407,188.344813 H 46.493949 Z"
         sodipodi:nodetypes="cccccc" /><path
         id="path3"
         style="fill:#000000;fill-opacity:0.0602258;stroke-width:3.72791;stroke-linecap:square"
         d="m 45.964782,12.33296 129.777508,0.467722 43.46726,42.209196 1.00226,187.008462 H 45.964782 Z"
         sodipodi:nodetypes="cccccc" /><path
         id="path4"
         style="fill:#000000;fill-opacity:0.0602258;stroke-width:3.72791;stroke-linecap:square"
         d="m 45.435615,12.338332 129.443415,0.935443 43.46726,41.674657 1.33635,186.540738 H 45.435615 Z"
         sodipodi:nodetypes="cccccc" /><path
         id="path5"
         style="fill:#000000;fill-opacity:0.0602258;stroke-width:3.72791;stroke-linecap:square"
         d="M 44.906448,12.744609 174.8844,13.412783 218.35166,54.151996 219.15347,240.96 H 44.906448 Z"
         sodipodi:nodetypes="cccccc" /><path
         id="path6"
         style="fill:#000000;fill-opacity:0.0602258;stroke-width:3.72791;stroke-linecap:square"
         d="m 44.377281,15.021772 129.911129,0.534539 43.46726,37.932883 0.86863,186.941636 H 44.377281 Z"
         sodipodi:nodetypes="cccccc" /><path
         id="path7"
         style="fill:#000000;fill-opacity:0.0602258;stroke-width:3.72791;stroke-linecap:square"
         d="m 43.848114,13.423527 129.710676,1.069078 43.46726,39.001961 1.06908,186.407094 H 43.848114 Z"
         sodipodi:nodetypes="cccccc" /></g><g
       id="g14"
       style="display:inline"><path
         style="color:#000000;fill:url(#linearGradient14);stroke-linecap:square;-inkscape-stroke:none"
         d="M 46.153822,14.648159 H 173.78301 l 40.90293,41.140298 V 236.0795 H 46.554726 Z"
         id="path15"
         inkscape:label="headbgground" /><path
         id="rect16"
         style="display:inline;fill:url(#linearGradient17);fill-opacity:1;stroke-width:4.99999;stroke-linecap:square"
         d="M 45.435818,14.165285 H 176.70315 l 0.20408,8.220982 H 53.433709 V 235.97952 h -7.997891 z"
         sodipodi:nodetypes="ccccccc" /><path
         id="rect17"
         style="fill:url(#linearGradient19);stroke-width:4.99999;stroke-linecap:square"
         d="M 47.058037,227.91965 H 207.27506 l -0.0668,-168.246312 7.31651,0.0667 0.0668,168.546562 -7.08265,0.0331 v 7.34846 H 47.058037 Z"
         sodipodi:nodetypes="ccccccccc" /><path
         style="color:#000000;fill:url(#linearGradient10);stroke-linecap:square;-inkscape-stroke:none"
         d="M 43.648437,12.148438 44.058594,238.58008 H 217.18555 V 54.757812 L 174.82227,12.148438 Z m 4.608862,4.999999 H 172.74414 l 39.44141,39.671875 V 233.58008 H 48.775405 Z"
         id="path16"
         inkscape:label="headframe"
         sodipodi:nodetypes="cccccccccccc" /></g><g
       id="g43"
       style="display:inline"
       transform="matrix(0.96758663,0,0,0.96758663,2.3871297,-2.8427689)"><g
         id="g11"
         transform="matrix(0.78524778,0,0,0.78524778,21.001842,-19.871902)"
         style="clip-rule:nonzero;display:inline;fill:#000000;fill-rule:nonzero;stroke:#ffffff;stroke-width:0;stroke-miterlimit:4"><g
           id="g23"
           transform="matrix(1.3619667,0,0,1.3619667,-17.300626,3.4527002)"
           style="stroke:none"><path
             id="path13-8"
             style="fill:#000066;fill-opacity:1;fill-rule:evenodd;stroke:none;stroke-width:2.2;stroke-linecap:round;stroke-linejoin:round;stroke-miterlimit:2.1;stroke-dasharray:none;stroke-opacity:1"
             d="m 60.48313,220.42737 a 9.4084797,2.6881371 0 0 0 -9.408728,2.68821 9.4084797,2.6881371 0 0 0 0.106453,0.38241 13.608695,5.5442824 0 0 0 -11.866976,5.49785 13.608695,5.5442824 0 0 0 9.790617,5.31441 15.28878,5.5442824 0 0 0 15.242997,5.26996 15.28878,5.5442824 0 0 0 15.288473,-5.54437 15.28878,5.5442824 0 0 0 -7.116362,-4.6824 12.264626,2.8561459 0 0 0 8.460466,-2.70991 12.264626,2.8561459 0 0 0 -11.43186,-2.84892 9.4084797,2.6881371 0 0 0 0.343131,-0.67903 9.4084797,2.6881371 0 0 0 -9.408211,-2.68821 z" /><path
             id="path17"
             style="fill:#000066;fill-rule:evenodd;stroke:none;stroke-width:2.2;stroke-linecap:round;stroke-linejoin:round;stroke-miterlimit:2.1"
             d="m 66.27938,202.03031 c 2.573976,3.40482 -0.303096,8.90445 -4.200214,8.90445 -3.477097,0 -6.008363,-5.68273 -3.52818,-9.15646 1.428075,-2.00016 2.235194,-6.38432 3.192163,-12.01261 2.217032,5.79629 3.024152,10.26446 4.536231,12.26462 z"
             sodipodi:nodetypes="ssscs" /><path
             id="path20"
             style="fill:#b1b1ff;fill-rule:evenodd;stroke:none;stroke-width:2.2;stroke-linecap:round;stroke-linejoin:round;stroke-miterlimit:2.1"
             d="m 60.567087,203.64737 c 0,2.72566 1.853289,7.10355 0.77704,6.86735 -2.487935,-0.54603 -4.4005,-5.40917 -2.625134,-8.12741 1.254437,-1.92066 2.279308,-5.64929 3.129159,-11.7816 -0.07419,7.43438 -1.281065,10.316 -1.281065,13.04166 z"
             sodipodi:nodetypes="ssscs" /><path
             id="path22"
             style="fill:url(#linearGradient23-7);fill-rule:evenodd;stroke:none;stroke-width:2.2;stroke-linecap:round;stroke-linejoin:round;stroke-miterlimit:2.1"
             d="m 64.683298,223.82943 c -0.36931,2.82925 -10.800983,9.30989 -12.516638,9.36648 -14.570965,0.48053 -16.799902,-7.35881 -1.76409,-8.77845 2.840618,-0.2682 1.482288,-1.55558 3.024154,-2.31012 1.71659,-0.84005 11.760602,-2.13921 11.256574,1.72209 z"
             sodipodi:nodetypes="sssss" /></g><path
           id="rect12"
           style="display:inline;fill:#000066;fill-rule:evenodd;stroke:none;stroke-width:2.2;stroke-linecap:round;stroke-linejoin:round;stroke-miterlimit:2.1"
           transform="matrix(1.3619667,0,0,1.3619667,-17.300626,3.4527002)"
           d="M 37.633919,65.85936 H 188.04343 l 7.85457,6.205314 V 125.16639 L 62.163177,124.99837 c -13.973246,11.6067 14.086453,10.48551 19.825012,2.85615 3.245031,4.71651 -4.655691,16.23341 -22.889932,16.25897 2.370499,4.6484 28.410703,3.33158 35.727363,-14.78765 4.36447,8.50376 -1.1081,24.67587 -30.290966,28.53348 16.278516,5.62259 43.756436,-3.73656 51.133496,-27.93599 13.44502,41.34714 -90.560657,83.76297 -78.034231,-4.58893 z"
           sodipodi:nodetypes="cccccccccccc" /><path
           style="fill:#000066;fill-opacity:1"
           d="M 38.9459,130.16939 V 97.929054 h 105.01137 105.01138 v 32.240336 32.24033 H 143.95727 38.9459 Z m 13.817286,18.42305 V 136.61745 H 65.65932 78.555454 v -6.44806 -6.44807 H 65.617232 52.679011 l 0.272376,-6.21778 0.272375,-6.21778 19.113913,-0.24897 19.113912,-0.24898 v -5.50823 -5.508221 H 66.119896 40.788205 v 30.398031 30.39803 h 5.98749 5.987491 z m 89.351784,6.46754 v -5.50745 l -18.19276,-0.24976 -18.19276,-0.24976 -0.24533,-24.64082 -0.24534,-24.640831 H 98.805761 92.37274 v 30.398031 30.39803 h 24.87111 24.87112 z m 32.45558,-19.13339 0.24533,-24.64083 10.82354,-0.25952 10.82354,-0.25952 v -5.49768 -5.497681 h -29.0163 -29.0163 v 5.526911 5.52692 h 11.51441 11.5144 v 24.25701 c 0,13.34136 0.27635,24.53336 0.6141,24.87112 0.33776,0.33775 3.23262,0.6141 6.43302,0.6141 h 5.81892 z m 34.78855,13.587 c 0,-6.07961 0.31736,-11.05383 0.70526,-11.05383 0.38789,0 5.66653,4.97422 11.73029,11.05383 l 11.02503,11.05383 h 7.61391 c 4.18765,0 7.61391,-0.30632 7.61391,-0.6807 0,-0.37438 -6.73107,-7.42105 -14.95792,-15.65925 l -14.95792,-14.97856 14.03677,-14.05871 c 7.72022,-7.7323 14.03676,-14.36475 14.03676,-14.73878 0,-0.37403 -3.62055,-0.680061 -8.04567,-0.680061 h -8.04567 L 219.73647,110.1193 209.3591,120.46724 V 110.1193 99.771359 h -5.98749 -5.9875 v 30.398031 30.39803 h 5.9875 5.98749 z"
           id="path11" /><path
           id="rect11"
           style="fill:#bfbfbf;fill-opacity:1;fill-rule:evenodd;stroke:#939393;stroke-width:2.2;stroke-linecap:round;stroke-linejoin:round;stroke-miterlimit:2.1;stroke-dasharray:none;stroke-opacity:1"
           d="m 40.788208,99.771171 v 30.398149 30.39814 h 5.987231 5.987749 V 148.59248 136.6175 h 12.89637 12.895854 v -6.44818 -6.44819 H 65.617183 52.678955 l 0.272335,-6.21771 0.272335,-6.21771 19.114078,-0.24908 19.114079,-0.24908 v -5.50819 -5.508189 H 66.119995 Z m 51.584448,0 v 30.398149 30.39814 h 24.871354 24.87083 v -5.50767 -5.50716 l -18.19269,-0.25012 -18.19269,-0.24959 -0.24546,-24.64088 -0.24546,-24.640869 h -6.432685 z m 46.057654,0 v 5.527309 5.5268 h 11.51454 11.51455 v 24.25691 c 0,13.34135 0.27616,24.53359 0.61391,24.87135 0.33776,0.33775 3.2328,0.61392 6.4332,0.61392 h 5.81877 l 0.24546,-24.64087 0.24495,-24.64088 10.82362,-0.25941 10.82363,-0.25942 v -5.49785 -5.497859 h -29.01631 z m 58.95402,0 v 30.398149 30.39814 h 5.98724 5.98774 v -11.05411 c 0,-6.0796 0.31697,-11.05358 0.70487,-11.05358 0.38789,0 5.6668,4.97398 11.73055,11.05358 l 11.02517,11.05411 h 7.61349 c 4.18764,0 7.614,-0.3062 7.614,-0.68058 0,-0.37438 -6.7309,-7.42132 -14.95774,-15.65951 l -14.95774,-14.97841 14.03635,-14.05858 c 7.72021,-7.73229 14.03687,-14.36512 14.03687,-14.73915 0,-0.37403 -3.62039,-0.680059 -8.04551,-0.680059 h -8.04602 l -10.37714,10.348209 -10.37715,10.34769 V 110.11938 99.771171 h -5.98774 z" /></g><path
         style="font-weight:bold;font-size:52.9167px;line-height:1.15;font-family:'Liberation Sans';-inkscape-font-specification:'Liberation Sans Bold';letter-spacing:0.928688px;word-spacing:0px;fill-rule:evenodd;stroke-width:1.18926;stroke-linecap:round;stroke-linejoin:round;stroke-miterlimit:2.1;stroke-opacity:0.357798"
         d="m 109.91399,205.57807 v 12.04821 h 19.92374 v 6.30044 h -19.92374 v 14.28652 h -8.15189 v -38.9356 h 28.7112 v 6.30043 z m 27.41084,32.63517 v -38.9356 h 8.15189 v 32.63517 h 20.89093 v 6.30043 z"
         id="text12"
         aria-label="FL" /><path
         style="font-weight:bold;font-size:35.2778px;line-height:1.15;font-family:'Liberation Sans';-inkscape-font-specification:'Liberation Sans Bold';letter-spacing:0.928688px;word-spacing:0px;fill-rule:evenodd;stroke-width:1.18926;stroke-linecap:round;stroke-linejoin:round;stroke-miterlimit:2.1;stroke-opacity:0.357798"
         d="m 132.88706,165.56068 v 8.03214 h 13.2825 v 4.20029 h -13.2825 v 9.52436 h -5.4346 v -25.95708 h 19.14082 v 4.20029 z m 18.71549,21.75679 v -27.33875 h 5.17668 v 27.33875 z m 16.35746,-19.93297 v 11.18236 q 0,5.25036 3.53708,5.25036 1.87908,0 3.02126,-1.60274 1.16062,-1.62117 1.16062,-4.14502 V 167.3845 h 5.17667 v 15.47476 q 0,2.54229 0.14738,4.45821 h -4.93719 q -0.22106,-2.65282 -0.22106,-3.96081 h -0.0921 q -1.03166,2.26595 -2.6344,3.2976 -1.58432,1.03166 -3.77658,1.03166 -3.16863,0 -4.86349,-1.93435 -1.69485,-1.95277 -1.69485,-5.71092 V 167.3845 Z m 19.15764,-3.59236 v -3.81342 h 5.17668 v 3.81342 z m 0,23.52533 V 167.3845 h 5.17668 v 19.93297 z m 24.38959,0 q -0.0737,-0.27635 -0.18423,-1.38168 -0.0921,-1.12376 -0.0921,-1.86065 h -0.0737 q -1.67643,3.61078 -6.37412,3.61078 -3.48183,0 -5.37934,-2.70809 -1.89749,-2.7265 -1.89749,-7.60843 0,-4.95561 1.98961,-7.64527 2.00803,-2.70807 5.67408,-2.70807 2.11856,0 3.64762,0.88426 1.54748,0.88427 2.37649,2.63439 h 0.0368 l -0.0368,-3.27917 v -7.27682 h 5.17667 v 22.99107 q 0,1.84224 0.14738,4.34768 z m -0.2395,-10.07703 q 0,-3.22391 -1.08692,-4.9556 -1.06849,-1.75013 -3.16864,-1.75013 -2.08172,0 -3.09494,1.69485 -1.01324,1.67644 -1.01324,5.13984 0,6.77942 4.07134,6.77942 2.04487,0 3.16864,-1.78696 1.12376,-1.80539 1.12376,-5.12142 z"
         id="text13"
         aria-label="Fluid" /></g><g
       id="rect23"
       style="display:inline"><rect
         style="display:inline;fill:url(#linearGradient23);fill-opacity:0.834379;stroke:none;stroke-width:4.99999;stroke-linecap:square;stroke-dasharray:none;stroke-opacity:1"
         id="rect20"
         width="30.128031"
         height="11.286353"
         x="177.19191"
         y="53.347572" /><path
         style="color:#000000;display:inline;fill:url(#linearGradient25);stroke-linecap:square;stroke-linejoin:bevel;-inkscape-stroke:none"
         d="m 174.15254,15.119046 40.91592,41.955358 H 174.814 Z"
         id="path25" /><g
         id="g27"><path
           id="rect27"
           style="display:inline;fill:#0a6db5;fill-opacity:0.459222;stroke-width:4.99999;stroke-linecap:square;stroke-linejoin:bevel"
           d="m 182.94047,23.245534 33.07293,33.82887 -33.07293,-0.09449 z"
           sodipodi:nodetypes="cccc" /><path
           id="path27"
           style="display:inline;fill:#1882cf;fill-opacity:0.459222;stroke-width:4.99999;stroke-linecap:square;stroke-linejoin:bevel"
           d="m 175.28645,49.514879 34.91556,0.188989 4.67746,7.087054 -39.68751,-0.472471 z"
           sodipodi:nodetypes="ccccc" /></g><path
         style="color:#000000;display:inline;fill:url(#linearGradient27);stroke-linecap:square;stroke-linejoin:bevel;-inkscape-stroke:none"
         d="m 175.94141,13.373047 -4.28907,1.785156 6.5e-4,44.600911 c 0,0 29.8634,-0.184895 43.41537,-0.184895 l 1.78906,-4.246094 z m 1.4286,7.056744 34.22551,34.144428 h -34.32013 z"
         id="path26"
         sodipodi:nodetypes="cccccccccc" /></g></g></svg>
