<?xml version="1.0" encoding="UTF-8" standalone="no"?>
<!-- Created with Inkscape (http://www.inkscape.org/) -->

<svg
   width="256mm"
   height="256mm"
   viewBox="0 0 256 256"
   version="1.1"
   id="svg1"
   inkscape:version="1.3.2 (091e20ef0f, 2023-11-25)"
   xml:space="preserve"
   sodipodi:docname="application-x-bittorrent.svg"
   xmlns:inkscape="http://www.inkscape.org/namespaces/inkscape"
   xmlns:sodipodi="http://sodipodi.sourceforge.net/DTD/sodipodi-0.dtd"
   xmlns:xlink="http://www.w3.org/1999/xlink"
   xmlns="http://www.w3.org/2000/svg"
   xmlns:svg="http://www.w3.org/2000/svg"
   xmlns:rdf="http://www.w3.org/1999/02/22-rdf-syntax-ns#"
   xmlns:cc="http://creativecommons.org/ns#"
   xmlns:dc="http://purl.org/dc/elements/1.1/"><defs
     id="defs1"><linearGradient
       id="linearGradient26"
       inkscape:collect="always"><stop
         style="stop-color:#7b91c4;stop-opacity:1;"
         offset="0"
         id="stop26" /><stop
         style="stop-color:#5c5e91;stop-opacity:1"
         offset="1"
         id="stop27" /></linearGradient><linearGradient
       id="linearGradient24"
       inkscape:collect="always"><stop
         style="stop-color:#c7fafe;stop-opacity:1;"
         offset="0"
         id="stop24" /><stop
         style="stop-color:#9acdff;stop-opacity:1"
         offset="1"
         id="stop25" /></linearGradient><linearGradient
       id="linearGradient22"
       inkscape:collect="always"><stop
         style="stop-color:#adaeae;stop-opacity:0.8253752;"
         offset="0"
         id="stop22" /><stop
         style="stop-color:#8ac5fe;stop-opacity:0.83628923;"
         offset="1"
         id="stop23" /></linearGradient><linearGradient
       id="linearGradient18"
       inkscape:collect="always"><stop
         style="stop-color:#9797ff;stop-opacity:1;"
         offset="0"
         id="stop18" /><stop
         style="stop-color:#ccccff;stop-opacity:1;"
         offset="0.30000001"
         id="stop20" /><stop
         style="stop-color:#ccccff;stop-opacity:1;"
         offset="1"
         id="stop19" /></linearGradient><linearGradient
       id="linearGradient16"
       inkscape:collect="always"><stop
         style="stop-color:#cdcdcd;stop-opacity:0.17462483;"
         offset="0"
         id="stop16" /><stop
         style="stop-color:#cdcdcd;stop-opacity:1;"
         offset="1"
         id="stop17" /></linearGradient><linearGradient
       id="linearGradient12"
       inkscape:collect="always"><stop
         style="stop-color:#fdfeff;stop-opacity:1;"
         offset="0"
         id="stop13" /><stop
         style="stop-color:#99ccff;stop-opacity:1;"
         offset="1"
         id="stop14" /></linearGradient><linearGradient
       id="linearGradient9"
       inkscape:collect="always"><stop
         style="stop-color:#97c9fc;stop-opacity:1;"
         offset="0"
         id="stop9" /><stop
         style="stop-color:#7788bb;stop-opacity:1"
         offset="0.25"
         id="stop12" /><stop
         style="stop-color:#57578a;stop-opacity:1"
         offset="0.5"
         id="stop11" /><stop
         style="stop-color:#444482;stop-opacity:1;"
         offset="1"
         id="stop10" /></linearGradient><linearGradient
       inkscape:collect="always"
       xlink:href="#linearGradient9"
       id="linearGradient10"
       x1="31.622168"
       y1="100.24049"
       x2="221.19499"
       y2="240.28973"
       gradientUnits="userSpaceOnUse" /><linearGradient
       inkscape:collect="always"
       xlink:href="#linearGradient12"
       id="linearGradient14"
       x1="73.583481"
       y1="62.020954"
       x2="207.02971"
       y2="229.59895"
       gradientUnits="userSpaceOnUse" /><linearGradient
       inkscape:collect="always"
       xlink:href="#linearGradient16"
       id="linearGradient17"
       x1="57.531055"
       y1="26.420616"
       x2="147.13231"
       y2="144.34076"
       gradientUnits="userSpaceOnUse" /><linearGradient
       inkscape:collect="always"
       xlink:href="#linearGradient18"
       id="linearGradient19"
       x1="209.82518"
       y1="58.53635"
       x2="210.58252"
       y2="194.57654"
       gradientUnits="userSpaceOnUse" /><linearGradient
       inkscape:collect="always"
       xlink:href="#linearGradient22"
       id="linearGradient23"
       x1="177.19191"
       y1="58.990749"
       x2="207.31994"
       y2="58.990749"
       gradientUnits="userSpaceOnUse" /><linearGradient
       inkscape:collect="always"
       xlink:href="#linearGradient24"
       id="linearGradient25"
       x1="176.32031"
       y1="20.126524"
       x2="176.32031"
       y2="56.695721"
       gradientUnits="userSpaceOnUse" /><linearGradient
       inkscape:collect="always"
       xlink:href="#linearGradient26"
       id="linearGradient27"
       x1="172.59729"
       y1="13.51158"
       x2="210.54449"
       y2="51.28627"
       gradientUnits="userSpaceOnUse" /><clipPath
       id="clipPath3936-6"><path
         d="m 489.217,197.275 c -2.603,0 -3.953,-1.367 -3.953,-3.971 v 0 -1.034 c 0,-2.604 1.35,-3.971 3.953,-3.971 v 0 h 1.035 c 2.62,0 3.97,1.367 3.97,3.971 v 0 1.034 c 0,2.604 -1.35,3.971 -3.97,3.971 v 0 z"
         id="path3938-0" /></clipPath></defs><sodipodi:namedview
     id="base"
     pagecolor="#ffffff"
     bordercolor="#000000"
     borderopacity="0.3"
     inkscape:pageopacity="0.0"
     inkscape:pageshadow="2"
     inkscape:zoom="0.98994949"
     inkscape:cx="505.07627"
     inkscape:cy="476.792"
     inkscape:document-units="mm"
     inkscape:showpageshadow="2"
     inkscape:pagecheckerboard="0"
     inkscape:deskcolor="#d1d1d1"
     inkscape:current-layer="g28"
     showguides="true" /><metadata
     id="metadata1"><rdf:RDF><cc:Work
         rdf:about=""><dc:format>image/svg+xml</dc:format><dc:type
           rdf:resource="http://purl.org/dc/dcmitype/StillImage" /><cc:license
           rdf:resource="http://creativecommons.org/publicdomain/zero/1.0/" /></cc:Work><cc:License
         rdf:about="http://creativecommons.org/publicdomain/zero/1.0/"><cc:permits
           rdf:resource="http://creativecommons.org/ns#Reproduction" /><cc:permits
           rdf:resource="http://creativecommons.org/ns#Distribution" /><cc:permits
           rdf:resource="http://creativecommons.org/ns#DerivativeWorks" /></cc:License></rdf:RDF></metadata><g
     id="g28"
     transform="matrix(1.0481261,0,0,1.0481261,-6.4074194,-6.1384097)"><g
       id="g7"
       inkscape:label="shadow"
       style="display:inline"><path
         id="rect1"
         style="fill:#000000;fill-opacity:0.0602258;stroke-width:3.72791;stroke-linecap:square"
         d="M 48.380952,13.418155 H 179.16071 l 43.46726,43.278274 V 244.17261 H 48.380952 Z"
         sodipodi:nodetypes="cccccc" /><path
         id="path1"
         style="fill:#000000;fill-opacity:0.0752823;stroke-width:3.72791;stroke-linecap:square"
         d="m 47.563027,12.60023 129.443423,-0.133635 43.46726,43.278274 1.33635,187.609821 H 47.563027 Z"
         sodipodi:nodetypes="cccccc" /><path
         id="path2"
         style="fill:#000000;fill-opacity:0.0602258;stroke-width:3.72791;stroke-linecap:square"
         d="m 46.493949,11.793049 128.975701,-0.868626 43.46726,43.278274 1.80407,188.344813 H 46.493949 Z"
         sodipodi:nodetypes="cccccc" /><path
         id="path3"
         style="fill:#000000;fill-opacity:0.0602258;stroke-width:3.72791;stroke-linecap:square"
         d="m 45.964782,12.33296 129.777508,0.467722 43.46726,42.209196 1.00226,187.008462 H 45.964782 Z"
         sodipodi:nodetypes="cccccc" /><path
         id="path4"
         style="fill:#000000;fill-opacity:0.0602258;stroke-width:3.72791;stroke-linecap:square"
         d="m 45.435615,12.338332 129.443415,0.935443 43.46726,41.674657 1.33635,186.540738 H 45.435615 Z"
         sodipodi:nodetypes="cccccc" /><path
         id="path5"
         style="fill:#000000;fill-opacity:0.0602258;stroke-width:3.72791;stroke-linecap:square"
         d="M 44.906448,12.744609 174.8844,13.412783 218.35166,54.151996 219.15347,240.96 H 44.906448 Z"
         sodipodi:nodetypes="cccccc" /><path
         id="path6"
         style="fill:#000000;fill-opacity:0.0602258;stroke-width:3.72791;stroke-linecap:square"
         d="m 44.377281,15.021772 129.911129,0.534539 43.46726,37.932883 0.86863,186.941636 H 44.377281 Z"
         sodipodi:nodetypes="cccccc" /><path
         id="path7"
         style="fill:#000000;fill-opacity:0.0602258;stroke-width:3.72791;stroke-linecap:square"
         d="m 43.848114,13.423527 129.710676,1.069078 43.46726,39.001961 1.06908,186.407094 H 43.848114 Z"
         sodipodi:nodetypes="cccccc" /></g><g
       id="g14"
       style="display:inline"><path
         style="color:#000000;fill:url(#linearGradient14);stroke-linecap:square;-inkscape-stroke:none"
         d="M 46.153822,14.648159 H 173.78301 l 40.90293,41.140298 V 236.0795 H 46.554726 Z"
         id="path15"
         inkscape:label="headbgground" /><path
         id="rect16"
         style="display:inline;fill:url(#linearGradient17);fill-opacity:1;stroke-width:4.99999;stroke-linecap:square"
         d="M 45.435818,14.165285 H 176.70315 l 0.20408,8.220982 H 53.433709 V 235.97952 h -7.997891 z"
         sodipodi:nodetypes="ccccccc" /><path
         id="rect17"
         style="fill:url(#linearGradient19);stroke-width:4.99999;stroke-linecap:square"
         d="M 47.058037,227.91965 H 207.27506 l -0.0668,-168.246312 7.31651,0.0667 0.0668,168.546562 -7.08265,0.0331 v 7.34846 H 47.058037 Z"
         sodipodi:nodetypes="ccccccccc" /><path
         style="color:#000000;fill:url(#linearGradient10);stroke-linecap:square;-inkscape-stroke:none"
         d="M 43.648437,12.148438 44.058594,238.58008 H 217.18555 V 54.757812 L 174.82227,12.148438 Z m 4.608862,4.999999 H 172.74414 l 39.44141,39.671875 V 233.58008 H 48.775405 Z"
         id="path16"
         inkscape:label="headframe"
         sodipodi:nodetypes="cccccccccccc" /></g><g
       id="g2"
       transform="matrix(0.9540837,0,0,0.9540837,18.718562,5.6018188)"
       style="clip-rule:nonzero;display:inline;fill:#000000;fill-rule:nonzero;stroke:none;stroke-width:0;stroke-miterlimit:4"><path
         id="rect1-8"
         style="fill:#292929;fill-opacity:0.546341;fill-rule:evenodd;stroke:none;stroke-linecap:round;stroke-linejoin:round;stroke-miterlimit:2.1"
         d="M 40.994091,21.169081 H 66.195377 V 29.56951 H 40.994091 Z" /><path
         id="path1-8"
         style="fill:#292929;fill-opacity:0.546341;fill-rule:evenodd;stroke:none;stroke-width:1.9218;stroke-linecap:round;stroke-linejoin:round;stroke-miterlimit:2.1"
         d="M 72.579703,21.169081 H 165.65645 V 29.56951 H 72.579703 Z" /><path
         id="path5-4"
         style="fill:#292929;fill-opacity:0.546341;fill-rule:evenodd;stroke:none;stroke-width:1.08903;stroke-linecap:round;stroke-linejoin:round;stroke-miterlimit:2.1"
         d="m 40.994091,38.97799 h 29.888318 v 8.400429 H 40.994091 Z" /><path
         id="path6-3"
         style="fill:#292929;fill-opacity:0.546341;fill-rule:evenodd;stroke:none;stroke-width:2.0929;stroke-linecap:round;stroke-linejoin:round;stroke-miterlimit:2.1"
         d="M 78.454116,38.97799 H 188.84163 v 8.400429 H 78.454116 Z" /><path
         id="path7-1"
         style="fill:#292929;fill-opacity:0.546341;fill-rule:evenodd;stroke:none;stroke-width:1.08903;stroke-linecap:round;stroke-linejoin:round;stroke-miterlimit:2.1"
         d="m 40.994091,57.458933 h 29.888318 v 8.400429 H 40.994091 Z" /><path
         id="path8-4"
         style="fill:#292929;fill-opacity:0.546341;fill-rule:evenodd;stroke:none;stroke-width:2.0929;stroke-linecap:round;stroke-linejoin:round;stroke-miterlimit:2.1"
         d="M 78.454116,57.458933 H 188.84163 v 8.400429 H 78.454116 Z" /><path
         id="path9"
         style="fill:#292929;fill-opacity:0.546341;fill-rule:evenodd;stroke:none;stroke-width:1.08903;stroke-linecap:round;stroke-linejoin:round;stroke-miterlimit:2.1"
         d="m 40.994091,74.931824 h 29.888318 v 8.400429 H 40.994091 Z" /><path
         id="path10"
         style="fill:#292929;fill-opacity:0.546341;fill-rule:evenodd;stroke:none;stroke-width:2.0929;stroke-linecap:round;stroke-linejoin:round;stroke-miterlimit:2.1"
         d="M 78.454116,74.931824 H 188.84163 v 8.400429 H 78.454116 Z" /><path
         id="path11"
         style="fill:#292929;fill-opacity:0.546341;fill-rule:evenodd;stroke:none;stroke-width:1.08903;stroke-linecap:round;stroke-linejoin:round;stroke-miterlimit:2.1"
         d="M 40.994091,93.412767 H 70.882409 V 101.8132 H 40.994091 Z" /><path
         id="path12"
         style="fill:#292929;fill-opacity:0.546341;fill-rule:evenodd;stroke:none;stroke-width:2.0929;stroke-linecap:round;stroke-linejoin:round;stroke-miterlimit:2.1"
         d="M 78.454116,93.412767 H 188.84163 V 101.8132 H 78.454116 Z" /><path
         id="path13-9"
         style="fill:#292929;fill-opacity:0.546341;fill-rule:evenodd;stroke:none;stroke-width:1.08903;stroke-linecap:round;stroke-linejoin:round;stroke-miterlimit:2.1"
         d="m 40.994091,112.22973 h 29.888318 v 8.40043 H 40.994091 Z" /><path
         id="path14"
         style="fill:#292929;fill-opacity:0.546341;fill-rule:evenodd;stroke:none;stroke-width:2.0929;stroke-linecap:round;stroke-linejoin:round;stroke-miterlimit:2.1"
         d="M 78.454116,112.22973 H 188.84163 v 8.40043 H 78.454116 Z" /><path
         id="path16-0"
         style="fill:#292929;fill-opacity:0.546341;fill-rule:evenodd;stroke:none;stroke-width:1.08903;stroke-linecap:round;stroke-linejoin:round;stroke-miterlimit:2.1"
         d="m 40.994091,130.71067 h 29.888318 v 8.40043 H 40.994091 Z" /><path
         id="path17"
         style="fill:#292929;fill-opacity:0.546341;fill-rule:evenodd;stroke:none;stroke-width:2.0929;stroke-linecap:round;stroke-linejoin:round;stroke-miterlimit:2.1"
         d="M 78.454116,130.71067 H 188.84163 v 8.40043 H 78.454116 Z" /><path
         id="path20"
         style="fill:#292929;fill-opacity:0.546341;fill-rule:evenodd;stroke:none;stroke-width:1.08903;stroke-linecap:round;stroke-linejoin:round;stroke-miterlimit:2.1"
         d="m 40.994091,148.18356 h 29.888318 v 8.40043 H 40.994091 Z" /><path
         id="path22"
         style="fill:#292929;fill-opacity:0.546341;fill-rule:evenodd;stroke:none;stroke-width:2.0929;stroke-linecap:round;stroke-linejoin:round;stroke-miterlimit:2.1"
         d="M 78.454116,148.18356 H 188.84163 v 8.40043 H 78.454116 Z" /><path
         id="path24"
         style="fill:#292929;fill-opacity:0.546341;fill-rule:evenodd;stroke:none;stroke-width:1.08903;stroke-linecap:round;stroke-linejoin:round;stroke-miterlimit:2.1"
         d="m 40.994091,166.6645 h 29.888318 v 8.40044 H 40.994091 Z" /><path
         id="path26-6"
         style="fill:#292929;fill-opacity:0.546341;fill-rule:evenodd;stroke:none;stroke-width:2.0929;stroke-linecap:round;stroke-linejoin:round;stroke-miterlimit:2.1"
         d="M 78.454116,166.6645 H 188.84163 v 8.40044 H 78.454116 Z" /><path
         id="path27-1"
         style="fill:#292929;fill-opacity:0.546341;fill-rule:evenodd;stroke:none;stroke-width:1.08903;stroke-linecap:round;stroke-linejoin:round;stroke-miterlimit:2.1"
         d="m 40.994091,184.80943 h 29.888318 v 8.40043 H 40.994091 Z" /><path
         id="path29"
         style="fill:#292929;fill-opacity:0.546341;fill-rule:evenodd;stroke:none;stroke-width:2.0929;stroke-linecap:round;stroke-linejoin:round;stroke-miterlimit:2.1"
         d="M 78.454116,184.80943 H 188.84163 v 8.40043 H 78.454116 Z" /></g><g
       id="g3"
       transform="matrix(4.9423664,0,0,-4.9423664,-2394.0661,1164.1541)"
       style="clip-rule:nonzero;display:inline;fill:#000000;fill-rule:nonzero;stroke:#ffffff;stroke-width:0;stroke-miterlimit:4"><path
         d="m 497.6241,191.8972 c 0.508,0 0.739,-0.232 0.739,-0.448 v -0.244 c 0,-0.212 -0.231,-0.441 -0.739,-0.441 h -0.942 v 1.133 z m -0.101,1.956 c 0.739,0 0.739,-0.315 0.739,-0.434 v -0.149 c 0,-0.209 -0.232,-0.435 -0.739,-0.435 h -0.841 v 1.018 z m -1.706,0.939 c -0.091,0 -0.168,-0.077 -0.168,-0.168 v -4.63 c 0,-0.091 0.077,-0.168 0.168,-0.168 h 1.909 c 1.101,0 1.677,0.694 1.677,1.379 v 0.244 c 0,0.363 -0.166,0.706 -0.451,0.959 0.223,0.244 0.349,0.546 0.349,0.862 v 0.149 c 0,0.663 -0.44,1.373 -1.677,1.373 z"
         id="path3846"
         style="fill:#00853f;fill-opacity:1;fill-rule:nonzero;stroke:none" /><path
         d="m 500.0491,193.4784 c -0.091,0 -0.168,-0.077 -0.168,-0.168 l -0.004,-3.316 c 0,-0.092 0.078,-0.168 0.175,-0.168 h 0.695 c 0.091,0 0.168,0.077 0.168,0.168 l -10e-4,3.316 c 0,0.094 -0.074,0.168 -0.168,0.168 z m 0,1.313 c -0.091,0 -0.168,-0.077 -0.168,-0.168 v -0.602 c 0,-0.091 0.077,-0.168 0.168,-0.168 h 0.704 c 0.091,0 0.168,0.077 0.168,0.168 v 0.602 c 0,0.093 -0.079,0.168 -0.175,0.168 z"
         id="path3850"
         style="fill:#00853f;fill-opacity:1;fill-rule:nonzero;stroke:none" /><path
         d="m 501.7065,194.7918 c -0.091,0 -0.168,-0.077 -0.168,-0.168 v -3.127 c 0,-1.062 0.614,-1.671 1.684,-1.671 h 0.281 c 0.091,0 0.168,0.077 0.168,0.168 v 0.603 c 0,0.09 -0.077,0.167 -0.168,0.167 h -0.179 c -0.551,0 -0.746,0.194 -0.746,0.74 v 1.036 h 0.924 c 0.091,0 0.168,0.077 0.168,0.168 v 0.603 c 0,0.091 -0.077,0.168 -0.168,0.168 h -0.924 v 1.145 c 0,0.093 -0.072,0.168 -0.161,0.168 z"
         id="path3854"
         style="fill:#00853f;fill-opacity:1;fill-rule:nonzero;stroke:none" /><path
         d="m 503.5354,194.7918 c -0.091,0 -0.168,-0.077 -0.168,-0.168 v -0.602 c 0,-0.093 0.078,-0.168 0.175,-0.168 h 1.294 v -3.86 c 0,-0.091 0.077,-0.168 0.168,-0.168 h 0.704 c 0.091,0 0.168,0.077 0.168,0.168 v 3.86 h 1.287 c 0.091,0 0.168,0.077 0.168,0.168 v 0.602 c 0,0.093 -0.079,0.168 -0.175,0.168 z"
         id="path3858"
         style="fill:#5f6062;fill-opacity:1;fill-rule:nonzero;stroke:none" /><path
         d="m 507.4322,191.4492 v 0.406 c 0,0.539 0.201,0.74 0.739,0.74 h 0.203 c 0.546,0 0.739,-0.194 0.739,-0.74 v -0.406 c 0,-0.546 -0.193,-0.739 -0.739,-0.739 h -0.203 c -0.538,0 -0.739,0.2 -0.739,0.739 m 0.638,2.083 c -1.062,0 -1.671,-0.611 -1.671,-1.677 v -0.406 c 0,-1.066 0.609,-1.678 1.671,-1.678 h 0.406 c 1.066,0 1.677,0.612 1.677,1.678 v 0.406 c 0,1.066 -0.611,1.677 -1.677,1.677 z"
         id="path3862"
         style="fill:#5f6062;fill-opacity:1;fill-rule:nonzero;stroke:none" /><path
         d="m 511.8647,193.4784 c -0.741,0 -1.278,-0.492 -1.278,-1.169 0,-0.001 0.004,-2.315 0.004,-2.315 0,-0.091 0.077,-0.168 0.168,-0.168 l 0.698,-0.005 c 0.091,0 0.169,0.077 0.169,0.168 v 2.326 c 0,0.186 0.185,0.225 0.34,0.225 h 0.704 c 0.091,0 0.168,0.077 0.168,0.168 v 0.602 c 0,0.093 -0.078,0.168 -0.174,0.168 z"
         id="path3866"
         style="fill:#5f6062;fill-opacity:1;fill-rule:nonzero;stroke:none" /><path
         d="m 517.2874,192.5947 h 0.203 c 0.443,0 0.645,-0.14 0.713,-0.47 h -1.628 c 0.067,0.33 0.27,0.47 0.712,0.47 m -0.101,0.938 c -1.066,0 -1.677,-0.611 -1.677,-1.677 v -0.359 c 0,-1.062 0.611,-1.671 1.677,-1.671 h 1.414 c 0.091,0 0.168,0.077 0.168,0.168 v 0.603 c 0,0.091 -0.077,0.167 -0.168,0.167 h -1.313 c -0.418,0 -0.621,0.13 -0.695,0.423 h 2.516 c 0.091,0 0.168,0.077 0.168,0.168 v 0.501 c 0,1.05 -0.63,1.677 -1.685,1.677 z"
         id="path3870"
         style="fill:#5f6062;fill-opacity:1;fill-rule:nonzero;stroke:none" /><path
         d="m 521.3548,193.5327 c -0.27,0 -0.51,-0.047 -0.723,-0.131 -0.03,0.044 -0.073,0.077 -0.13,0.077 h -0.65 c -0.091,0 -0.167,-0.077 -0.167,-0.168 v -3.317 c 0,-0.091 0.076,-0.168 0.167,-0.168 h 0.704 c 0.091,0 0.168,0.077 0.168,0.168 v 1.862 c 0,0.545 0.192,0.739 0.733,0.739 h 0.062 c 0.666,0 0.739,-0.204 0.739,-0.638 v -1.963 c 0,-0.091 0.076,-0.168 0.167,-0.168 h 0.704 c 0.092,0 0.168,0.077 0.168,0.168 v 1.963 c 0,1.046 -0.564,1.576 -1.677,1.576 z"
         id="path3874"
         style="fill:#5f6062;fill-opacity:1;fill-rule:nonzero;stroke:none" /><path
         d="m 523.9005,194.7918 c -0.091,0 -0.168,-0.077 -0.168,-0.168 v -3.127 c 0,-1.062 0.614,-1.671 1.684,-1.671 h 0.281 c 0.091,0 0.168,0.077 0.168,0.168 v 0.603 c 0,0.09 -0.077,0.167 -0.168,0.167 h -0.18 c -0.55,0 -0.745,0.194 -0.745,0.74 v 1.036 h 0.926 c 0.091,0 0.168,0.077 0.168,0.168 v 0.603 c 0,0.091 -0.077,0.168 -0.168,0.168 h -0.926 v 1.145 c 0,0.093 -0.073,0.168 -0.161,0.168 z"
         id="path3878"
         style="fill:#5f6062;fill-opacity:1;fill-rule:nonzero;stroke:none" /><path
         d="m 514.3675,193.4784 c -0.741,0 -1.278,-0.492 -1.278,-1.169 0,-0.001 0.004,-2.315 0.004,-2.315 0,-0.091 0.077,-0.168 0.168,-0.168 l 0.698,-0.005 c 0.092,0 0.169,0.077 0.169,0.168 l 10e-4,2.326 c 0,0.186 0.185,0.225 0.339,0.225 h 0.704 c 0.091,0 0.168,0.077 0.168,0.168 v 0.602 c 0,0.093 -0.078,0.168 -0.174,0.168 z"
         id="path3882"
         style="fill:#5f6062;fill-opacity:1;fill-rule:nonzero;stroke:none" /></g><g
       clip-path="url(#clipPath3936-6)"
       id="g3934"
       transform="matrix(12.409564,0,0,-12.409564,-5948.0663,2501.9313)"
       style="clip-rule:nonzero;display:inline;fill:#000000;fill-rule:nonzero;stroke:#ffffff;stroke-width:0;stroke-miterlimit:4"><path
         d="m 490.2519,188.0272 h -1.035 c -2.764,0 -4.224,1.467 -4.224,4.242 v 1.035 c 0,2.775 1.46,4.242 4.224,4.242 h 1.035 c 2.775,0 4.242,-1.467 4.242,-4.242 v -1.035 c 0,-2.775 -1.467,-4.242 -4.242,-4.242"
         id="path3926"
         style="fill:#00853f;fill-opacity:1;fill-rule:nonzero;stroke:none" /><path
         d="m 490.252,197.6844 h -1.035 c -2.814,0 -4.363,-1.556 -4.363,-4.381 v -1.034 c 0,-2.825 1.549,-4.381 4.363,-4.381 h 1.035 c 2.825,0 4.38,1.556 4.38,4.381 v 1.034 c 0,2.825 -1.555,4.381 -4.38,4.381 m 0,-0.277 c 2.684,0 4.103,-1.419 4.103,-4.104 v -1.034 c 0,-2.685 -1.419,-4.104 -4.103,-4.104 h -1.035 c -2.673,0 -4.086,1.419 -4.086,4.104 v 1.034 c 0,2.685 1.413,4.104 4.086,4.104 h 1.035"
         id="path3930"
         style="fill:#ffffff;fill-opacity:1;fill-rule:nonzero;stroke:none" /><g
         transform="translate(487.1671,194.0072)"
         id="g3940"><path
           d="m 0,0 c -0.717,-0.719 -1.111,-1.678 -1.109,-2.702 0.003,-2.136 1.806,-3.942 3.936,-3.942 v 0.665 c -1.74,0 -3.269,1.532 -3.272,3.279 -0.001,0.846 0.323,1.638 0.915,2.231 0.595,0.596 1.393,0.925 2.247,0.925 V 1.12 C 1.685,1.12 0.721,0.722 0,0"
           id="path3942"
           style="fill:#99ceb2;fill-opacity:1;fill-rule:nonzero;stroke:none" /></g><g
         transform="translate(489.1375,194.1548)"
         id="g3944"><path
           d="m 0,0 c -0.764,-0.206 -1.394,-0.685 -1.774,-1.349 -0.798,-1.395 -0.374,-3.098 1.008,-4.049 2.051,-1.41 5.713,-0.519 5.867,-0.481 l -0.16,0.645 c -0.035,-0.009 -3.526,-0.856 -5.33,0.383 -1.091,0.75 -1.431,2.084 -0.808,3.172 0.292,0.509 0.778,0.878 1.37,1.037 0.607,0.164 1.235,0.084 1.769,-0.224 L 2.274,-0.29 C 1.586,0.107 0.778,0.21 0,0"
           id="path3946"
           style="fill:#cce7d9;fill-opacity:1;fill-rule:nonzero;stroke:none" /></g><g
         transform="translate(488.9109,193.0857)"
         id="g3948"><path
           d="m 0,0 c -0.663,-0.383 -1.034,-1.08 -1.034,-1.796 0,-0.332 0.083,-0.667 0.25,-0.977 l -0.002,-0.002 c 0,-10e-4 0.006,-0.011 0.008,-0.015 h -0.001 c 0,0 0.004,-0.006 0.007,-0.011 0.004,-0.008 0.014,-0.026 0.015,-0.027 v 0 c 0.104,-0.179 0.505,-0.782 1.384,-1.102 1.811,-0.661 4.878,0.003 5.008,0.032 L 5.492,-3.249 C 5.462,-3.256 2.483,-3.9 0.854,-3.306 0.162,-3.054 -0.127,-2.594 -0.18,-2.499 v 0 c 0,0 -0.002,0.003 -0.002,0.004 -0.127,0.221 -0.188,0.462 -0.188,0.7 0,0.486 0.252,0.959 0.702,1.22 0.325,0.187 0.704,0.237 1.067,0.14 0.362,-0.097 0.665,-0.33 0.853,-0.655 l 0.586,0.312 -0.011,0.02 C 2.551,-0.279 2.105,0.063 1.571,0.207 1.037,0.35 0.479,0.276 0,0"
           id="path3950"
           style="fill:#ffffff;fill-opacity:1;fill-rule:nonzero;stroke:none" /></g></g><g
       id="rect23"
       style="display:inline"><rect
         style="display:inline;fill:url(#linearGradient23);fill-opacity:0.834379;stroke:none;stroke-width:4.99999;stroke-linecap:square;stroke-dasharray:none;stroke-opacity:1"
         id="rect20"
         width="30.128031"
         height="11.286353"
         x="177.19191"
         y="53.347572" /><path
         style="color:#000000;display:inline;fill:url(#linearGradient25);stroke-linecap:square;stroke-linejoin:bevel;-inkscape-stroke:none"
         d="m 174.15254,15.119046 40.91592,41.955358 H 174.814 Z"
         id="path25" /><g
         id="g27"><path
           id="rect27"
           style="display:inline;fill:#0a6db5;fill-opacity:0.459222;stroke-width:4.99999;stroke-linecap:square;stroke-linejoin:bevel"
           d="m 182.94047,23.245534 33.07293,33.82887 -33.07293,-0.09449 z"
           sodipodi:nodetypes="cccc" /><path
           id="path27"
           style="display:inline;fill:#1882cf;fill-opacity:0.459222;stroke-width:4.99999;stroke-linecap:square;stroke-linejoin:bevel"
           d="m 175.28645,49.514879 34.91556,0.188989 4.67746,7.087054 -39.68751,-0.472471 z"
           sodipodi:nodetypes="ccccc" /></g><path
         style="color:#000000;display:inline;fill:url(#linearGradient27);stroke-linecap:square;stroke-linejoin:bevel;-inkscape-stroke:none"
         d="m 175.94141,13.373047 -4.28907,1.785156 6.5e-4,44.600911 c 0,0 29.8634,-0.184895 43.41537,-0.184895 l 1.78906,-4.246094 z m 1.4286,7.056744 34.22551,34.144428 h -34.32013 z"
         id="path26"
         sodipodi:nodetypes="cccccccccc" /></g></g></svg>
