<?xml version="1.0" encoding="UTF-8" standalone="no"?>
<!-- Created with Inkscape (http://www.inkscape.org/) -->

<svg
   width="256mm"
   height="256mm"
   viewBox="0 0 256 256"
   version="1.1"
   id="svg1"
   inkscape:version="1.3.2 (091e20ef0f, 2023-11-25)"
   sodipodi:docname="application-x-chm.svg"
   xml:space="preserve"
   xmlns:inkscape="http://www.inkscape.org/namespaces/inkscape"
   xmlns:sodipodi="http://sodipodi.sourceforge.net/DTD/sodipodi-0.dtd"
   xmlns:xlink="http://www.w3.org/1999/xlink"
   xmlns="http://www.w3.org/2000/svg"
   xmlns:svg="http://www.w3.org/2000/svg"
   xmlns:rdf="http://www.w3.org/1999/02/22-rdf-syntax-ns#"
   xmlns:cc="http://creativecommons.org/ns#"><sodipodi:namedview
     id="namedview1"
     pagecolor="#ffffff"
     bordercolor="#000000"
     borderopacity="0.25"
     inkscape:showpageshadow="2"
     inkscape:pageopacity="0.0"
     inkscape:pagecheckerboard="0"
     inkscape:deskcolor="#d1d1d1"
     inkscape:document-units="mm"
     inkscape:zoom="0.78741022"
     inkscape:cx="549.26897"
     inkscape:cy="527.04421"
     inkscape:current-layer="svg1" /><defs
     id="defs1"><linearGradient
       id="linearGradient398"
       gradientUnits="userSpaceOnUse"
       x1="54.349602"
       y1="43.6245"
       x2="240.2121"
       y2="328.12881"
       spreadMethod="pad">
			<stop
   offset="0"
   style="stop-color:#FFFFFF"
   id="stop397" />
			<stop
   offset="1"
   style="stop-color:#808080;stop-opacity:1;"
   id="stop398" />
		</linearGradient><linearGradient
       id="linearGradient386"
       gradientUnits="userSpaceOnUse"
       x1="81.009804"
       y1="52.612801"
       x2="147.9156"
       y2="-19.6299"
       spreadMethod="pad">
			<stop
   offset="0"
   style="stop-color:#fcfcfc;stop-opacity:1;"
   id="stop385" />
			<stop
   offset="1"
   style="stop-color:#000000"
   id="stop386" />
		</linearGradient><linearGradient
       id="linearGradient364"
       gradientUnits="userSpaceOnUse"
       x1="108.9707"
       y1="22.1313"
       x2="113.887"
       y2="17.215099"
       spreadMethod="pad">
			<stop
   offset="0"
   style="stop-color:#FFFFFF"
   id="stop362" />
			<stop
   offset="0.3976658"
   style="stop-color:#898989"
   id="stop363" />
			<stop
   offset="1"
   style="stop-color:#000000"
   id="stop364" />
		</linearGradient><linearGradient
       id="aigrd1"
       gradientUnits="userSpaceOnUse"
       x1="50.8936"
       y1="166.6958"
       x2="123.6106"
       y2="53.465199">
			<stop
   offset="0"
   style="stop-color:#FFFFFF"
   id="stop3-9" />
			<stop
   offset="1"
   style="stop-color:#8C8C8C"
   id="stop4-2" />
		</linearGradient><linearGradient
       id="aigrd2"
       gradientUnits="userSpaceOnUse"
       x1="114.9795"
       y1="16.8501"
       x2="90.170303"
       y2="38.863499">
			<stop
   offset="0"
   style="stop-color:#000000"
   id="stop5-8" />
			<stop
   offset="0.2872"
   style="stop-color:#FFFFFF"
   id="stop6-8" />
			<stop
   offset="0.4468"
   style="stop-color:#FFFFFF"
   id="stop7-8" />
			<stop
   offset="0.4893"
   style="stop-color:#DDDDDD"
   id="stop8-6" />
			<stop
   offset="0.5678"
   style="stop-color:#A3A3A3"
   id="stop9-8" />
			<stop
   offset="0.6465"
   style="stop-color:#717171"
   id="stop10-3" />
			<stop
   offset="0.7234"
   style="stop-color:#484848"
   id="stop11-8" />
			<stop
   offset="0.7983"
   style="stop-color:#292929"
   id="stop12-3" />
			<stop
   offset="0.8706"
   style="stop-color:#121212"
   id="stop13-3" />
			<stop
   offset="0.9392"
   style="stop-color:#050505"
   id="stop14-3" />
			<stop
   offset="1"
   style="stop-color:#000000"
   id="stop15-8" />
		</linearGradient><linearGradient
       id="aigrd3"
       gradientUnits="userSpaceOnUse"
       x1="-9.5752001"
       y1="-40.622601"
       x2="111.4338"
       y2="127.9071">
			<stop
   offset="0"
   style="stop-color:#FFFFFF"
   id="stop16-0" />
			<stop
   offset="1"
   style="stop-color:#000000"
   id="stop17-4" />
		</linearGradient><linearGradient
       id="aigrd5"
       gradientUnits="userSpaceOnUse"
       x1="-11.9863"
       y1="-32.7383"
       x2="159.9639"
       y2="185.96539">
			<stop
   offset="0"
   style="stop-color:#FFFFFF"
   id="stop18-9" />
			<stop
   offset="1"
   style="stop-color:#000000"
   id="stop19-0" />
		</linearGradient><linearGradient
       id="aigrd6"
       gradientUnits="userSpaceOnUse"
       x1="54.349602"
       y1="43.6245"
       x2="240.2121"
       y2="328.12881"
       xlink:href="#linearGradient398"
       gradientTransform="translate(3.2690505,2.9058226)">
			<stop
   offset="0"
   style="stop-color:#FFFFFF"
   id="stop20-6" />
			<stop
   offset="1"
   style="stop-color:#000000"
   id="stop21-8" />
		</linearGradient><linearGradient
       id="aigrd7"
       gradientUnits="userSpaceOnUse"
       x1="-21.0117"
       y1="-56.939899"
       x2="129.0739"
       y2="151.3105">
			<stop
   offset="0"
   style="stop-color:#FFFFFF"
   id="stop22-7" />
			<stop
   offset="1"
   style="stop-color:#000000"
   id="stop23-9" />
		</linearGradient><linearGradient
       id="aigrd8"
       gradientUnits="userSpaceOnUse"
       x1="164.51559"
       y1="191.96629"
       x2="101.1341"
       y2="1.1619999">
			<stop
   offset="0"
   style="stop-color:#FFFFFF"
   id="stop24-0" />
			<stop
   offset="1"
   style="stop-color:#000000"
   id="stop25-3" />
		</linearGradient><linearGradient
       id="aigrd9"
       gradientUnits="userSpaceOnUse"
       x1="140.9277"
       y1="109.0835"
       x2="114.0488"
       y2="28.167">
			<stop
   offset="0"
   style="stop-color:#FFFFFF"
   id="stop26-3" />
			<stop
   offset="1"
   style="stop-color:#000000"
   id="stop27-3" />
		</linearGradient><linearGradient
       id="aigrd10"
       gradientUnits="userSpaceOnUse"
       x1="108.9707"
       y1="22.1313"
       x2="113.887"
       y2="17.215099"
       xlink:href="#linearGradient364">
			<stop
   offset="0"
   style="stop-color:#FFFFFF"
   id="stop28-7" />
			<stop
   offset="0.4715"
   style="stop-color:#898989"
   id="stop29-3" />
			<stop
   offset="1"
   style="stop-color:#000000"
   id="stop30-2" />
		</linearGradient><linearGradient
       id="aigrd11"
       gradientUnits="userSpaceOnUse"
       x1="81.009804"
       y1="52.612801"
       x2="147.9156"
       y2="-19.6299"
       xlink:href="#linearGradient386">
			<stop
   offset="0"
   style="stop-color:#FFFFFF"
   id="stop31-6" />
			<stop
   offset="1"
   style="stop-color:#000000"
   id="stop32-5" />
		</linearGradient><linearGradient
       inkscape:collect="always"
       xlink:href="#linearGradient3"
       id="linearGradient4"
       x1="84.153725"
       y1="220.98613"
       x2="166.53329"
       y2="220.98613"
       gradientUnits="userSpaceOnUse" /><linearGradient
       id="linearGradient3"
       inkscape:collect="always"><stop
         style="stop-color:#ffee5a;stop-opacity:0.68463302;"
         offset="0"
         id="stop3" /><stop
         style="stop-color:#777700;stop-opacity:0.73762375;"
         offset="1"
         id="stop4" /></linearGradient><linearGradient
       inkscape:collect="always"
       xlink:href="#linearGradient1"
       id="linearGradient2"
       x1="83.157722"
       y1="205.75311"
       x2="166.91144"
       y2="205.75311"
       gradientUnits="userSpaceOnUse" /><linearGradient
       id="linearGradient1"
       inkscape:collect="always"><stop
         style="stop-color:#857800;stop-opacity:0.68463302;"
         offset="0"
         id="stop1" /><stop
         style="stop-color:#393800;stop-opacity:0.62623763;"
         offset="1"
         id="stop2" /></linearGradient><linearGradient
       inkscape:collect="always"
       xlink:href="#linearGradient12"
       id="linearGradient13"
       x1="195.82674"
       y1="51.843925"
       x2="202.46049"
       y2="67.151962"
       gradientUnits="userSpaceOnUse" /><linearGradient
       id="linearGradient12"
       inkscape:collect="always"><stop
         style="stop-color:#383838;stop-opacity:0.55445546;"
         offset="0"
         id="stop12-6" /><stop
         style="stop-color:#383838;stop-opacity:0;"
         offset="1"
         id="stop13-0" /></linearGradient><linearGradient
       inkscape:collect="always"
       xlink:href="#linearGradient14"
       id="linearGradient15"
       x1="207.78288"
       y1="67.284424"
       x2="188.4969"
       y2="22.494244"
       gradientUnits="userSpaceOnUse" /><linearGradient
       id="linearGradient14"
       inkscape:collect="always"><stop
         style="stop-color:#383838;stop-opacity:0.71287131;"
         offset="0"
         id="stop14-09" /><stop
         style="stop-color:#383838;stop-opacity:0.54702967;"
         offset="1"
         id="stop15-3" /></linearGradient><linearGradient
       inkscape:collect="always"
       xlink:href="#linearGradient8"
       id="linearGradient9"
       x1="186.34227"
       y1="48.617188"
       x2="202.68973"
       y2="32.08073"
       gradientUnits="userSpaceOnUse" /><linearGradient
       id="linearGradient8"
       inkscape:collect="always"><stop
         style="stop-color:#ffffff;stop-opacity:0;"
         offset="0"
         id="stop8" /><stop
         style="stop-color:#bfbfbf;stop-opacity:0.99742931;"
         offset="0.64586419"
         id="stop12" /><stop
         style="stop-color:#bbbbbb;stop-opacity:0.49803922;"
         offset="0.74531591"
         id="stop10" /><stop
         style="stop-color:#ffffff;stop-opacity:0.74901962;"
         offset="0.8154701"
         id="stop11" /><stop
         style="stop-color:#ffffff;stop-opacity:1;"
         offset="1"
         id="stop9" /></linearGradient></defs><g
     id="g2"
     style="display:inline"
     transform="matrix(0.75569368,0,0,0.75569368,-0.9268951,68.69219)"><path
       id="rect1-5"
       style="fill-opacity:0.139073;stroke-width:3;stroke-linecap:round;stroke-linejoin:round;stroke-miterlimit:5"
       d="m 42.851161,10.780032 c 0,-2.0298771 -1.581236,-2.0506039 1.540049,-2.0506039 l 119.5798,-1.513151 c 3.4715,0.2000897 11.33381,2.2063009 13.17254,4.2633819 0.98949,1.106987 32.71615,33.872301 42.79378,43.130117 4.81213,4.430166 6.94158,9.018878 9.11266,15.281204 v 170.28659 c 0,3.34277 -0.31955,6.24493 -5.10268,6.24493 H 44.500378 c -1.066079,0.0308 -2.806332,-1.38315 -2.806332,-3.74177 z"
       sodipodi:nodetypes="cccsscccccc"
       inkscape:label="shadow" /><path
       id="path1-0"
       style="display:inline;fill-opacity:0.139073;stroke-width:2.97256;stroke-linecap:round;stroke-linejoin:round;stroke-miterlimit:5"
       d="m 43.890578,11.489873 c 0,-2.0110934 -0.670238,-2.1336772 2.422842,-2.1336772 L 163.615,11.370237 c 3.44014,0.198238 11.2314,-0.331668 13.05351,1.706377 0.98056,1.096743 32.42052,33.558841 42.40708,42.730983 4.76865,4.389169 6.87886,8.935416 9.03032,15.13979 V 239.65811 c 0,3.31185 -0.31667,5.91966 -5.05657,5.91966 L 45.223959,245.31028 c -1.056446,0.0305 -2.733769,-0.58361 -2.733769,-2.92041 z"
       sodipodi:nodetypes="cccsscccccc"
       inkscape:label="shadow" /><path
       id="path2-2"
       style="display:inline;fill-opacity:0.139073;stroke-width:2.94004;stroke-linecap:round;stroke-linejoin:round;stroke-miterlimit:5"
       d="m 45.410055,15.424357 c 0,-1.994461 1.325516,-3.676487 4.376507,-3.676487 L 163.10794,8.9925245 c 3.39333,0.1965984 11.07856,2.6573535 12.87588,4.6785435 0.96721,1.087672 31.97934,33.281293 41.83,42.377578 4.70376,4.352867 6.78525,8.861515 8.90743,15.014576 V 241.14795 c 0,3.28444 -0.31236,3.36665 -4.98776,3.36665 H 46.32796 c -1.04207,0.0302 -2.617252,0.35606 -2.617252,-1.9614 z"
       sodipodi:nodetypes="cccsscccccc"
       inkscape:label="shadow" /><path
       id="path8-9"
       style="display:inline;fill-opacity:0.139073;stroke-width:2.94279;stroke-linecap:round;stroke-linejoin:round;stroke-miterlimit:5"
       d="m 45.095361,14.29835 c 0,-1.998199 1.325516,-3.683378 4.376507,-3.683378 L 162.2268,11.74787 c 3.39332,0.196967 11.07855,-1.100949 12.87588,0.92403 0.9672,1.089711 31.97934,33.343679 41.82999,42.457015 4.70376,4.361026 6.78526,8.878126 8.90744,15.04272 V 241.16792 c 0,3.29059 -0.31236,2.78023 -4.98775,2.78023 l -175.389807,0.28322 c -0.444513,7.2e-4 -2.522846,0.40072 -2.522846,-1.92109 z"
       sodipodi:nodetypes="cccsscccscc"
       inkscape:label="shadow" /><path
       style="color:#000000;fill:#f2f2f2;fill-opacity:1;stroke-linecap:round;stroke-linejoin:round;stroke-miterlimit:5;-inkscape-stroke:none"
       d="m 45.618092,10.86159 126.277328,0.4181 c 3.84707,0.453396 5.72599,2.199211 8.84675,4.98183 l 38.66971,38.713114 c 0,0 3.88443,3.388642 3.91475,7.655202 l 0.14174,179.498754 -178.506988,0.44479 z"
       id="path4-4"
       inkscape:label="whiteletter" /><path
       style="color:#000000;fill:#ffffff;stroke-linecap:round;stroke-linejoin:round;stroke-miterlimit:5;-inkscape-stroke:none"
       d="m 45.619141,10.261719 a 0.60006002,0.60006002 0 0 0 -0.601563,0.597656 l -0.65625,231.712895 a 0.60006002,0.60006002 0 0 0 0.601563,0.60156 L 223.4707,242.72852 a 0.60006002,0.60006002 0 0 0 0.59766,-0.59961 L 223.92578,62.628906 a 0.60006002,0.60006002 0 0 0 0,-0.0039 c -0.0329,-4.628445 -4.11914,-8.101563 -4.11914,-8.101563 l 0.0293,0.02734 -38.66992,-38.71289 a 0.60006002,0.60006002 0 0 0 -0.0254,-0.02344 c -3.117,-2.779267 -5.17346,-4.659167 -9.17578,-5.130859 a 0.60006002,0.60006002 0 0 0 -0.0684,-0.0039 z m 0.597656,1.201172 125.625003,0.416015 c 3.67366,0.438009 5.38041,2.047436 8.49218,4.822266 l 38.6543,38.697265 a 0.60006002,0.60006002 0 0 0 0.0293,0.0293 c 0,0 3.68123,3.302365 3.70898,7.207032 L 222.86719,241.5293 45.5625,241.9707 Z"
       id="path5-3"
       inkscape:label="whiteinnerframe" /><path
       style="color:#000000;fill:#a0a0a0;stroke-linecap:round;stroke-linejoin:round;stroke-miterlimit:5;-inkscape-stroke:none"
       d="M 44.5,9.7226563 A 0.30003001,0.30003001 0 0 0 44.201172,10.021484 L 44,243.28125 a 0.30003001,0.30003001 0 0 0 0.300781,0.30078 l 180.207029,-0.11328 a 0.30003001,0.30003001 0 0 0 0.30078,-0.30078 L 224.66602,62.345703 a 0.30003001,0.30003001 0 0 0 0,-0.002 c -0.0316,-4.4475 -4.01758,-7.878906 -4.01758,-7.878906 L 181.61719,15.011719 a 0.30003001,0.30003001 0 0 0 -0.0137,-0.01367 c -3.11888,-2.780942 -5.08703,-4.594097 -9.01172,-5.0566407 a 0.30003001,0.30003001 0 0 0 -0.0352,-0.00195 z m 0.300781,0.5996097 127.728519,0.21875 c 3.75893,0.445303 5.55071,2.120283 8.66406,4.896484 l 39.04492,39.464844 a 0.30003001,0.30003001 0 0 0 0.0156,0.01563 c 0,0 3.78346,3.344076 3.8125,7.429687 L 224.207,242.86719 44.599579,242.98242 Z"
       id="path3-5"
       inkscape:label="grayframe" /><g
       id="g8"><g
         id="g7"
         inkscape:label="shadowcorner"
         style="display:inline"><path
           id="rect6"
           style="fill:#a4a4a4;fill-opacity:0.156733;stroke-width:1.2;stroke-linecap:round;stroke-linejoin:round;stroke-miterlimit:5"
           d="m 168.1994,11.717261 c 8.04691,0.658981 12.90651,6.469761 12.90651,6.469761 l 18.96844,19.574366 18.11382,17.342227 c 0,0 3.03433,2.625088 3.79456,6.321449 -10.54907,-10.022114 -26.40565,-4.019815 -38.30367,-2.913105 -7.61269,1.136145 -8.25008,-0.2417 -7.74851,-9.071428 0.0547,-16.056876 6.53992,-23.998706 -7.73115,-37.72327 z"
           sodipodi:nodetypes="cccccccc" /><path
           id="path6-1"
           style="fill:#858585;fill-opacity:0.315673;stroke-width:1.2;stroke-linecap:round;stroke-linejoin:round;stroke-miterlimit:5"
           d="m 168.1994,11.717261 c 8.04691,0.658981 12.90651,6.469761 12.90651,6.469761 l 18.96844,19.574366 18.11382,17.342227 c 0,0 3.03433,2.625088 3.79456,6.321449 -10.54503,-10.021247 -23.04516,-8.023142 -35.94017,-7.541685 -6.99431,0.898519 -8.53217,0.236096 -7.39485,-7.104656 0.24065,-16.180843 3.64999,-27.636186 -10.44831,-35.061462 z"
           sodipodi:nodetypes="cccccccc" /><path
           id="path7"
           style="fill:#616161;fill-opacity:0.339956;stroke-width:1.2;stroke-linecap:round;stroke-linejoin:round;stroke-miterlimit:5"
           d="m 168.62462,11.859002 c 8.04691,0.658981 12.48129,5.666562 12.48129,5.666562 l 18.96844,20.235824 18.11382,17.342227 c 0,0 3.88478,3.428287 4.64501,7.124648 -9.83821,-8.546674 -17.43079,-10.289326 -40.30149,-9.8459 -1.06574,0.166885 -2.74141,-0.951796 -2.53814,-2.77299 0.83809,-20.759657 2.14671,-34.479665 -11.36893,-37.750371 z"
           sodipodi:nodetypes="cccccccc" /><path
           id="path13"
           style="fill:#616161;fill-opacity:0.339956;stroke-width:1.2;stroke-linecap:round;stroke-linejoin:round;stroke-miterlimit:5"
           d="m 168.62462,11.859002 c 8.04691,0.658981 12.48129,5.666562 12.48129,5.666562 l 18.96844,20.235824 18.11382,17.342227 c 0,0 3.88478,3.428287 4.64501,7.124648 -9.83821,-8.546674 -15.69354,-11.224769 -38.56424,-10.781343 -1.06574,0.166885 -2.74141,-0.951796 -2.53814,-2.77299 0.83809,-20.759657 0.40946,-33.544222 -13.10618,-36.814928 z"
           sodipodi:nodetypes="cccccccc" /></g><path
         id="rect7"
         style="fill:#ffffff;fill-opacity:0.790287;stroke-width:1.2;stroke-linecap:round;stroke-linejoin:round;stroke-miterlimit:5"
         d="m 169.41162,11.690569 c 1.94071,-0.126334 3.14983,-0.801365 7.434,0.829893 l 21.21293,21.170024 23.57724,23.100436 c 0.865,2.073512 1.73443,4.757654 1.37017,5.953123 -13.1235,-16.795799 -34.8009,-10.596818 -38.74256,-11.811756 0.0277,-10.518213 3.46247,-36.112658 -14.85178,-39.24172 z"
         sodipodi:nodetypes="ccccccc" /><path
         id="rect8"
         style="display:inline;fill:url(#linearGradient9);stroke-width:1.2;stroke-linecap:round;stroke-linejoin:round;stroke-miterlimit:5"
         d="m 181.42858,18.426339 35.81324,35.057292 c -13.02796,-5.736658 -21.88205,-5.460251 -32.69494,-2.834821 2.65343,-6.042481 1.59338,-24.081108 -3.1183,-32.222471 z"
         sodipodi:nodetypes="cccc" /></g></g><g
     id="g6"
     transform="matrix(1.04547,0,0,0.89921373,-0.42806192,26.480408)"
     style="clip-rule:nonzero;display:inline;fill:#000000;fill-rule:nonzero;stroke:#ffffff;stroke-width:0;stroke-miterlimit:4"><path
       id="rect1"
       style="fill:#292929;fill-opacity:0.546341;fill-rule:evenodd;stroke-linecap:round;stroke-linejoin:round;stroke-miterlimit:2.1"
       d="M 40.994092,111.5577 H 152.8878 v 20.16103 H 40.994092 Z" /><path
       id="path1"
       style="fill:#292929;fill-opacity:0.546341;fill-rule:evenodd;stroke-linecap:round;stroke-linejoin:round;stroke-miterlimit:2.1"
       d="M 40.994092,145.49543 H 152.8878 v 20.16103 H 40.994092 Z" /><path
       id="path5"
       style="fill:#292929;fill-opacity:0.546341;fill-rule:evenodd;stroke-linecap:round;stroke-linejoin:round;stroke-miterlimit:2.1"
       d="M 40.994092,176.74502 H 152.8878 v 20.16103 H 40.994092 Z" /><path
       id="path6"
       style="fill:#292929;fill-opacity:0.546341;fill-rule:evenodd;stroke-linecap:round;stroke-linejoin:round;stroke-miterlimit:2.1"
       d="M 40.994092,210.34673 H 152.8878 v 20.16103 H 40.994092 Z" /></g><g
     id="g20"
     transform="matrix(0.71285482,0,0,0.71285482,92.319023,-14.48569)"
     style="clip-rule:nonzero;display:inline;fill:#00009f;fill-rule:nonzero;stroke:#ffffff;stroke-width:0;stroke-miterlimit:4"><g
       id="path8"
       style="display:inline"
       transform="translate(1.8708867,-13.096207)"
       inkscape:label="point"><path
         style="color:#000000;display:inline;fill:url(#linearGradient4);fill-rule:evenodd;-inkscape-stroke:none"
         d="m 106.05064,182.83903 c -5.56905,10.85253 -18.660438,39.56065 -20.574314,45.55524 -1.646626,5.15752 -2.570651,11.09665 2.293325,18.38361 2.906429,4.35426 20.896829,19.59907 45.307879,8.77171 6.56663,-2.91259 11.17098,-7.68687 14.6835,-15.06578 3.58409,-7.52927 19.21485,-39.56158 18.76258,-50.30183 -0.13068,12.72474 -9.69346,18.97777 -14.50487,21.32593 -7.25015,3.53836 -16.80979,5.22539 -25.56189,3.02602 -12.03179,-3.02355 -18.52776,-9.3555 -20.9162,-14.72831 -4.51809,-10.1635 1.40282,-18.70648 0.50999,-16.96659 z"
         id="path17"
         sodipodi:nodetypes="ssssscssss" /><path
         style="color:#000000;display:inline;fill:#d0d000;fill-opacity:0.375;fill-rule:evenodd;-inkscape-stroke:none"
         d="m 166.24165,191.76587 a 31.270535,23.653353 0 0 1 -31.27054,23.65336 31.270535,23.653353 0 0 1 -31.27053,-23.65336 31.270535,23.653353 0 0 1 31.27053,-23.65335 31.270535,23.653353 0 0 1 31.27054,23.65335 z"
         id="path16-2" /><path
         style="color:#000000;display:inline;fill:#ffff19;fill-opacity:0.783257;fill-rule:evenodd;stroke:#7a7575;stroke-width:3.1;stroke-dasharray:none;stroke-opacity:0.816514"
         d="m 147.21735,233.74339 a 31.270535,23.653353 0 0 1 -31.27054,23.65336 31.270535,23.653353 0 0 1 -31.27053,-23.65336 31.270535,23.653353 0 0 1 31.27053,-23.65335 31.270535,23.653353 0 0 1 31.27054,23.65335 z"
         id="path18-6" /><path
         style="color:#000000;display:inline;fill:url(#linearGradient2);fill-rule:evenodd;-inkscape-stroke:none"
         d="m 147.76019,240.5454 c 5.56905,-10.85253 16.40082,-37.1642 18.3147,-43.15879 1.64662,-5.15752 1.09591,-10.60507 -3.76807,-17.89203 -2.90643,-4.35426 -20.12487,-18.357 -44.53592,-7.52964 -6.56663,2.91259 -10.64905,8.75729 -13.98072,15.66714 -3.14036,6.51306 -22.388817,36.22722 -20.502698,47.05437 2.65078,-12.81164 3.48211,-13.60021 8.550103,-17.70979 9.531335,-7.72886 23.077445,-10.0183 34.656135,-6.95866 11.99419,3.16943 18.06468,10.51967 20.30173,15.95726 3.47348,8.44297 0.0719,16.31003 0.96474,14.57014 z"
         id="path19-1"
         sodipodi:nodetypes="ssssscssss" /></g><g
       id="g15"
       style="display:inline"><path
         style="color:#000000;display:inline;fill:#c9c900;fill-opacity:0.873853;fill-rule:evenodd;-inkscape-stroke:none"
         d="m 160.14044,153.48896 c -9.04377,0 -26.62444,-0.52619 -41.45335,-0.52619 0,-13.63736 -0.77891,4.32854 -0.21124,-8.03696 0.8232,-17.93151 18.4187,-15.06637 30.99614,-45.501554 4.40118,-10.650075 0.91221,-26.227468 -6.86024,-35.392631 -5.57285,-6.571418 -16.44466,-12.684975 -24.23219,-8.997908 -6.69337,3.169027 -6.58245,16.734966 -7.21771,21.011912 -12.620231,-0.06148 -18.63528,1.455691 -32.967511,1.099063 L 40.8506,112.21797 c 0,0 1.052287,-32.708462 2.211168,-43.208096 C 44.786612,53.38254 54.630533,21.658041 91.205651,21.658041 l 66.807289,-1e-6 c 32.38209,0 40.25446,18.535558 40.25446,33.946986 0,15.411429 2.39134,33.926205 -10.11086,45.380764 -13.77543,12.6211 -25.46242,26.01845 -25.81112,45.02736 -0.24338,13.26755 -2.20498,-3.27789 -2.20498,7.47581 z"
         id="path20"
         sodipodi:nodetypes="ccssaacccssssssc" /><path
         style="color:#000000;fill:#ffff38;fill-opacity:0.833716;fill-rule:evenodd;stroke:#252323;stroke-width:2.4;stroke-dasharray:none;stroke-opacity:0.684633"
         d="M 96.753176,21.068058 C 77.695872,20.83079 56.661499,32.23969 48.98818,43.771949 41.314861,55.304208 39.296308,72.1059 39.296308,82.397972 c 0,19.939228 0.173799,27.216068 0.173799,27.216068 l -0.06445,3.31446 52.364807,0.66146 c 9.399206,-14.611512 17.280026,-18.477303 33.756846,-42.514616 4.76316,3.533253 6.43605,32.269256 -2.27451,45.607716 -3.32267,5.08801 -11.51099,12.10759 -17.519,18.61559 -7.618051,8.25202 -12.613919,11.66207 -13.069128,21.57775 -0.571877,12.45702 -0.38086,17.93845 -0.38086,31.54566 v 3.25 l 2.210223,0.0353 c 0,0 37.752085,-0.0717 55.320735,-0.0717 10.72913,-17.69613 15.48201,-33.24817 18.22946,-38.44844 0.42767,-5.37164 1.14623,-10.25702 1.71571,-12.4501 1.94658,-7.49638 6.41693,-18.88999 13.31082,-24.80553 7.17428,-6.15614 16.44017,-14.79527 17.45715,-23.212887 1.01697,-8.417623 0.92516,-17.026843 0.92516,-24.564453 0,-8.259087 -0.126,-19.544579 -5.09807,-28.156453 C 190.2907,29.494175 177.96427,22.079157 161.15444,21.86987 Z M 149.96149,35.56715 c 15.57093,0 25.41461,4.821593 30.72545,10.613095 5.31085,5.791502 7.79232,13.404315 7.79232,20.556641 0,7.873803 0.66365,17.549874 -0.24926,25.10612 -0.9129,7.556246 -1.3453,16.499104 -6.87721,21.567454 -14.1841,12.99552 -28.16145,23.49405 -29.47224,48.49919 -0.61488,11.7296 -1.24451,20.03772 -1.20271,28.21288 -10.43707,-0.0348 -42.78853,1.32344 -57.92661,1.28863 -0.02471,-11.36282 -0.525538,-22.59339 -0.01528,-33.70811 0.36799,-8.01581 4.319127,-12.74791 14.18387,-23.06705 5.68682,-5.94877 12.62564,-13.3783 16.02335,-18.10889 4.05754,-5.64925 6.04801,-16.39982 6.69326,-30.844431 0,-6.78228 -1.76718,-12.875139 -6.01078,-14.982254 l -0.68164,-0.339844 h -0.76367 c -5.78794,0 -15.66912,-0.471726 -21.35473,-0.471726 h -0.67578 l -0.619136,0.269531 c -2.559999,1.112045 -4.196469,1.367482 -5.953125,3.080078 -1.756655,1.712597 -2.433772,3.685635 -4.070312,7.632813 l -0.248047,0.597656 v 0.646485 c 0,7.550517 0.327012,25.843362 0.300595,30.171712 L 41.17234,111.43668 c 0.05354,-2.85372 0.347656,-10.70593 0.347656,-29.038711 0,-9.688144 1.804982,-23.686269 7.194383,-31.825334 5.3894,-8.139065 15.163586,-15.052735 32.679889,-15.052735 33.214702,0 45.843292,0.04725 68.567222,0.04725 z"
         id="path10"
         sodipodi:nodetypes="szsccccsssscsccsssssssssssssccssscccssccsccsccssss" /><path
         style="color:#000000;fill:#fff207;fill-opacity:0.575688;fill-rule:evenodd;-inkscape-stroke:none"
         d="m 150.53943,190.99344 c -9.04377,0 -42.72838,-0.11546 -57.557291,-0.11546 0,-13.63736 -0.1897,-20.92003 0.377976,-33.28553 0.8232,-17.93151 25.382805,-28.90009 32.292405,-46.44428 3.26502,-8.29022 4.0716,-17.483451 3.80433,-26.457879 0,-6.174891 -1.44554,-10.482921 -3.8636,-13.19222 -5.8231,0 -20.53614,0.128422 -26.185516,0.128422 -5.452948,2.368721 -5.053434,1.109204 -8.315476,8.976935 0,8.284929 -0.188988,19.194351 -0.188988,31.670062 H 40.065475 c 0,0 0.377976,-12.0678 0.377976,-32.048038 0,-19.980236 5.569226,-46.018602 42.144346,-46.018602 l 66.807293,-1e-6 c 32.38209,0 40.25446,18.535558 40.25446,33.946986 0,15.411429 2.39134,33.926205 -10.11086,45.380765 -13.77543,12.62109 -27.18295,24.91238 -27.53165,43.92129 -0.24338,13.26755 -1.46761,22.78385 -1.46761,33.53755 z"
         id="path9"
         sodipodi:nodetypes="ccsaccccccssssssc" /><path
         id="rect11"
         style="fill:#fefef0;fill-opacity:0.59744;fill-rule:evenodd;stroke:none;stroke-width:2.4;stroke-opacity:0.519495"
         d="m 62.006533,32.623094 c 5.406344,-4.202283 12.576805,-6.864583 19.443859,-8.635655 8.204717,-2.116067 25.323788,-2.204973 25.323788,-2.204973 32.98435,0.704812 44.28558,0.924169 56.05978,0.935438 3.62952,0.319689 6.77165,0.506194 10.1515,1.825031 9.66317,10.289256 16.69101,23.151512 -1.0722,14.354273 -11.92111,-6.445785 -61.12698,-4.15217 -74.493514,-4.15217 -8.265004,0 -17.328105,-0.736796 -24.789249,0.534539 -7.408947,1.262441 -34.177635,3.84407 -32.118951,52.074629 -0.263183,2.662315 0.332676,19.911334 0.220557,24.515284 -0.82085,-0.0263 0.355756,1.4422 -0.520792,1.56775 0.448817,-28.634774 -1.381738,-46.411134 4.374148,-57.2871 2.242572,-4.237426 0.242312,-10.174212 17.421074,-23.527046 z"
         sodipodi:nodetypes="saccccsscccss" /><path
         id="rect12"
         style="fill:url(#linearGradient13);fill-rule:evenodd;stroke:none;stroke-width:2.4;stroke-opacity:0.684633"
         d="m 172.12157,39.55589 c -19.28506,-17.200204 -15.6237,-19.758728 1.44706,-17.215957 18.67357,6.841052 21.75634,13.597013 26.99422,25.159695 2.17236,6.464301 1.6775,15.853399 1.80882,22.94882 0.1278,6.905579 0.36936,14.411124 -1.38499,21.091365 -1.88289,7.169697 -5.86652,14.595287 -12.21891,18.415887 -2.82477,1.69894 -6.28771,3.98606 -8.09358,1.22842 2.50674,-3.4227 4.98666,-11.68281 6.21599,-17.867915 1.21413,-6.10868 0.90409,-12.359245 1.07579,-18.653513 0.14942,-5.477712 -0.10372,-14.663907 -1.4012,-16.720558 -3.74382,-13.7186 -9.88097,-14.563739 -14.4432,-18.386244 z"
         sodipodi:nodetypes="cccccccaccc" /><path
         id="path12-8"
         style="fill:url(#linearGradient15);fill-rule:evenodd;stroke:none;stroke-width:2.4;stroke-opacity:0.684633"
         d="m 187.89447,63.469434 c -2.59217,-11.693806 9.15564,-18.821769 4.65259,-29.554021 9.56512,10.706963 9.96382,44.371457 8.95123,58.485496 -0.80379,11.203631 -16.30969,22.229441 -21.57251,28.341461 -6.10992,7.09579 -9.09996,20.66115 -9.85598,25.36292 -0.26118,2.02649 -0.57567,3.85648 -0.87149,7.46877 -1.8488,4.10232 -10.64876,25.28883 -18.92644,39.10336 -0.29315,-46.21064 3.71115,-48.37516 8.24188,-56.56567 5.74697,-10.38919 10.57165,-13.26029 16.22238,-18.28503 3.49028,-3.47319 10.90378,-4.28731 12.19614,-23.903422 1.01673,-15.432568 0.79446,-19.541179 0.9622,-30.453864 z"
         sodipodi:nodetypes="ccsscccscsc" /><path
         id="rect20"
         style="fill:#ffffff;fill-opacity:0.473624;fill-rule:evenodd;stroke:none;stroke-width:3.09999;stroke-opacity:1"
         transform="matrix(0.89385316,0,0,0.89385316,4.0438035,18.663448)"
         d="m 87.209805,23.714282 c 7.039253,-4.170167 -0.307601,-2.083517 7.941511,-2.106219 28.298364,-0.07788 49.305964,-0.861836 80.469664,1.66338 4.33349,0.351146 18.61999,6.072551 22.56331,14.478411 4.45682,9.500473 4.19278,31.353447 4.13875,46.953763 1.27336,18.978313 -8.31949,15.853833 -25.26272,38.678253 -13.84522,18.65107 -8.40082,23.79374 -12.54006,23.62484 -4.13924,-0.1689 -23.66289,3.31548 -34.70982,1.77496 -1.43072,-8.45225 5.62504,-20.46283 13.60688,-28.35076 24.4246,-24.13724 25.97724,-38.66977 18.1317,-60.519088 -5.88578,-16.391499 -41.97709,-41.668497 -43.60264,4.494784 -8.66746,0.55577 -21.776667,0.827737 -35.174231,1.537501 3.049287,-13.600541 -1.795163,-38.537403 4.437656,-42.229825 z"
         sodipodi:nodetypes="sssscsscssccs" /><path
         id="rect15"
         style="clip-rule:nonzero;display:inline;fill:#504c06;fill-rule:evenodd;stroke:none;stroke-width:2.4;stroke-miterlimit:4;fill-opacity:0.848624;stroke-opacity:0.684633"
         d="m 88.204697,84.284444 c 0.02063,-9.858245 5.673316,-15.67004 14.456773,-15.535041 8.09999,-0.247538 23.05927,-0.50767 23.17644,1.937704 -8.63401,12.749197 -29.456269,38.217313 -33.523944,43.651873 -1.288009,-0.10926 -2.473931,-0.23161 -3.662787,-0.23161 0,-8.17994 -0.446482,-23.055381 -0.446482,-29.822926 z"
         sodipodi:nodetypes="cccccc" /></g></g><metadata
     id="metadata1"><rdf:RDF><cc:Work
         rdf:about=""><cc:license
           rdf:resource="http://creativecommons.org/publicdomain/zero/1.0/" /></cc:Work><cc:License
         rdf:about="http://creativecommons.org/publicdomain/zero/1.0/"><cc:permits
           rdf:resource="http://creativecommons.org/ns#Reproduction" /><cc:permits
           rdf:resource="http://creativecommons.org/ns#Distribution" /><cc:permits
           rdf:resource="http://creativecommons.org/ns#DerivativeWorks" /></cc:License></rdf:RDF></metadata></svg>
