<?xml version="1.0" encoding="UTF-8" standalone="no"?>
<!-- Created with Inkscape (http://www.inkscape.org/) -->

<svg
   width="256mm"
   height="256mm"
   viewBox="0 0 256 256"
   version="1.1"
   id="svg1"
   inkscape:version="1.3.2 (091e20ef0f, 2023-11-25)"
   xml:space="preserve"
   sodipodi:docname="xsl.svg"
   xmlns:inkscape="http://www.inkscape.org/namespaces/inkscape"
   xmlns:sodipodi="http://sodipodi.sourceforge.net/DTD/sodipodi-0.dtd"
   xmlns:xlink="http://www.w3.org/1999/xlink"
   xmlns="http://www.w3.org/2000/svg"
   xmlns:svg="http://www.w3.org/2000/svg"
   xmlns:rdf="http://www.w3.org/1999/02/22-rdf-syntax-ns#"
   xmlns:cc="http://creativecommons.org/ns#"
   xmlns:dc="http://purl.org/dc/elements/1.1/"
   xmlns:a="http://ns.adobe.com/AdobeSVGViewerExtensions/3.0/"><defs
     id="defs1"><linearGradient
       id="linearGradient26"
       inkscape:collect="always"><stop
         style="stop-color:#7b91c4;stop-opacity:1;"
         offset="0"
         id="stop26" /><stop
         style="stop-color:#5c5e91;stop-opacity:1"
         offset="1"
         id="stop27" /></linearGradient><linearGradient
       id="linearGradient24"
       inkscape:collect="always"><stop
         style="stop-color:#c7fafe;stop-opacity:1;"
         offset="0"
         id="stop24" /><stop
         style="stop-color:#9acdff;stop-opacity:1"
         offset="1"
         id="stop25" /></linearGradient><linearGradient
       id="linearGradient22"
       inkscape:collect="always"><stop
         style="stop-color:#adaeae;stop-opacity:0.8253752;"
         offset="0"
         id="stop22" /><stop
         style="stop-color:#8ac5fe;stop-opacity:0.83628923;"
         offset="1"
         id="stop23" /></linearGradient><linearGradient
       id="linearGradient18"
       inkscape:collect="always"><stop
         style="stop-color:#9797ff;stop-opacity:1;"
         offset="0"
         id="stop18" /><stop
         style="stop-color:#ccccff;stop-opacity:1;"
         offset="0.30000001"
         id="stop20" /><stop
         style="stop-color:#ccccff;stop-opacity:1;"
         offset="1"
         id="stop19" /></linearGradient><linearGradient
       id="linearGradient16"
       inkscape:collect="always"><stop
         style="stop-color:#cdcdcd;stop-opacity:0.17462483;"
         offset="0"
         id="stop16" /><stop
         style="stop-color:#cdcdcd;stop-opacity:1;"
         offset="1"
         id="stop17" /></linearGradient><linearGradient
       id="linearGradient12"
       inkscape:collect="always"><stop
         style="stop-color:#fdfeff;stop-opacity:1;"
         offset="0"
         id="stop13" /><stop
         style="stop-color:#99ccff;stop-opacity:1;"
         offset="1"
         id="stop14" /></linearGradient><linearGradient
       id="linearGradient9"
       inkscape:collect="always"><stop
         style="stop-color:#97c9fc;stop-opacity:1;"
         offset="0"
         id="stop9" /><stop
         style="stop-color:#7788bb;stop-opacity:1"
         offset="0.25"
         id="stop12" /><stop
         style="stop-color:#57578a;stop-opacity:1"
         offset="0.5"
         id="stop11" /><stop
         style="stop-color:#444482;stop-opacity:1;"
         offset="1"
         id="stop10" /></linearGradient><linearGradient
       inkscape:collect="always"
       xlink:href="#linearGradient9"
       id="linearGradient10"
       x1="31.622168"
       y1="100.24049"
       x2="221.19499"
       y2="240.28973"
       gradientUnits="userSpaceOnUse" /><linearGradient
       inkscape:collect="always"
       xlink:href="#linearGradient12"
       id="linearGradient14"
       x1="73.583481"
       y1="62.020954"
       x2="207.02971"
       y2="229.59895"
       gradientUnits="userSpaceOnUse" /><linearGradient
       inkscape:collect="always"
       xlink:href="#linearGradient16"
       id="linearGradient17"
       x1="57.531055"
       y1="26.420616"
       x2="147.13231"
       y2="144.34076"
       gradientUnits="userSpaceOnUse" /><linearGradient
       inkscape:collect="always"
       xlink:href="#linearGradient18"
       id="linearGradient19"
       x1="209.82518"
       y1="58.53635"
       x2="210.58252"
       y2="194.57654"
       gradientUnits="userSpaceOnUse" /><linearGradient
       inkscape:collect="always"
       xlink:href="#linearGradient22"
       id="linearGradient23"
       x1="177.19191"
       y1="58.990749"
       x2="207.31994"
       y2="58.990749"
       gradientUnits="userSpaceOnUse" /><linearGradient
       inkscape:collect="always"
       xlink:href="#linearGradient24"
       id="linearGradient25"
       x1="176.32031"
       y1="20.126524"
       x2="176.32031"
       y2="56.695721"
       gradientUnits="userSpaceOnUse" /><linearGradient
       inkscape:collect="always"
       xlink:href="#linearGradient26"
       id="linearGradient27"
       x1="172.59729"
       y1="13.51158"
       x2="210.54449"
       y2="51.28627"
       gradientUnits="userSpaceOnUse" /><linearGradient
       id="linearGradient24-3"
       inkscape:collect="always"><stop
         style="stop-color:#cedce5;stop-opacity:1;"
         offset="0"
         id="stop25-6" /><stop
         style="stop-color:#c7d4da;stop-opacity:1;"
         offset="0.43541908"
         id="stop34" /><stop
         style="stop-color:#a9b1b5;stop-opacity:1;"
         offset="0.5"
         id="stop33" /><stop
         style="stop-color:#31383b;stop-opacity:1;"
         offset="1"
         id="stop32" /></linearGradient><linearGradient
       id="linearGradient20"
       inkscape:collect="always"><stop
         style="stop-color:#141414;stop-opacity:1;"
         offset="0"
         id="stop21" /><stop
         style="stop-color:#808080;stop-opacity:1;"
         offset="0.5"
         id="stop23-7" /><stop
         style="stop-color:#e6f7ff;stop-opacity:1;"
         offset="1"
         id="stop22-5" /></linearGradient><linearGradient
       id="linearGradient17-3"
       inkscape:collect="always"><stop
         style="stop-color:#e6f7ff;stop-opacity:1;"
         offset="0"
         id="stop18-5" /><stop
         style="stop-color:#adadac;stop-opacity:1;"
         offset="0.45238096"
         id="stop20-6" /><stop
         style="stop-color:#6b6b6b;stop-opacity:1;"
         offset="0.68015873"
         id="stop24-2" /><stop
         style="stop-color:#181818;stop-opacity:1;"
         offset="1"
         id="stop19-9" /></linearGradient><linearGradient
       id="linearGradient12-1"
       inkscape:collect="always"><stop
         style="stop-color:#8e5b1b;stop-opacity:1;"
         offset="0"
         id="stop13-2" /><stop
         style="stop-color:#b77624;stop-opacity:1;"
         offset="0.32944915"
         id="stop17-70" /><stop
         style="stop-color:#d28627;stop-opacity:1"
         offset="0.53276008"
         id="stop15" /><stop
         style="stop-color:#d38727;stop-opacity:0.73565573;"
         offset="0.71979231"
         id="stop16-93" /><stop
         style="stop-color:#d68b26;stop-opacity:0;"
         offset="1"
         id="stop14-6" /></linearGradient><linearGradient
       id="linearGradient9-0"
       inkscape:collect="always"><stop
         style="stop-color:#f7d577;stop-opacity:1"
         offset="0"
         id="stop9-6" /><stop
         style="stop-color:#f3ce62;stop-opacity:1"
         offset="0.37856829"
         id="stop11-2" /><stop
         style="stop-color:#ebc546;stop-opacity:1"
         offset="0.60857612"
         id="stop12-6" /><stop
         style="stop-color:#e9bd2c;stop-opacity:1"
         offset="1"
         id="stop10-1" /></linearGradient><linearGradient
       id="XMLID_1_-9"
       gradientUnits="userSpaceOnUse"
       x1="64.000504"
       y1="117.0137"
       x2="64.000504"
       y2="123.5619"
       gradientTransform="matrix(3.7278183,0,0,3.7278183,-169.30672,-355.72061)"><stop
   offset="0"
   style="stop-color:#FFFFFF"
   id="stop11-3" />
<stop
   offset="1"
   style="stop-color:#8a8585;stop-opacity:1;"
   id="stop13-7" />
<a:midPointStop
   offset="0"
   style="stop-color:#FFFFFF"
   id="midPointStop15" />
<a:midPointStop
   offset="0.5"
   style="stop-color:#FFFFFF"
   id="midPointStop17" />
<a:midPointStop
   offset="1"
   style="stop-color:#949494"
   id="midPointStop19" />
</linearGradient><linearGradient
       id="XMLID_1_"
       gradientUnits="userSpaceOnUse"
       x1="65.2314"
       y1="-24.0483"
       x2="58.715302"
       y2="122.3119">
				<stop
   offset="0.382"
   style="stop-color:#DCF0FF"
   id="stop1-4" />
				<stop
   offset="0.4435"
   style="stop-color:#C9E6FF"
   id="stop2-1" />
				<stop
   offset="0.6311"
   style="stop-color:#92CAFF"
   id="stop3-27" />
				<stop
   offset="0.793"
   style="stop-color:#6AB5FF"
   id="stop4-0" />
				<stop
   offset="0.9213"
   style="stop-color:#52A9FF"
   id="stop5-9-5" />
				<stop
   offset="1"
   style="stop-color:#49A4FF"
   id="stop6-3" />
				<a:midPointStop
   offset="0.382"
   style="stop-color:#DCF0FF" />
				<a:midPointStop
   offset="0.4"
   style="stop-color:#DCF0FF" />
				<a:midPointStop
   offset="1"
   style="stop-color:#49A4FF" />
			</linearGradient><linearGradient
       id="XMLID_2_"
       gradientUnits="userSpaceOnUse"
       x1="85.484398"
       y1="70.108902"
       x2="8.9447002"
       y2="40.5261">
				<stop
   offset="0"
   style="stop-color:#0032A4"
   id="stop7-6" />
				<stop
   offset="1"
   style="stop-color:#3995E5"
   id="stop8-0" />
				<a:midPointStop
   offset="0"
   style="stop-color:#0032A4" />
				<a:midPointStop
   offset="0.5"
   style="stop-color:#0032A4" />
				<a:midPointStop
   offset="1"
   style="stop-color:#3995E5" />
			</linearGradient><linearGradient
       id="XMLID_3_"
       gradientUnits="userSpaceOnUse"
       x1="5.9517002"
       y1="63.035599"
       x2="117.9541"
       y2="63.035599">
				<stop
   offset="0.0169"
   style="stop-color:#FFFFFF"
   id="stop9-6-2" />
				<stop
   offset="0.309"
   style="stop-color:#CFF0FF"
   id="stop10-2" />
				<stop
   offset="0.6348"
   style="stop-color:#6DB8FF"
   id="stop11-5" />
				<stop
   offset="1"
   style="stop-color:#1E65FF"
   id="stop12-61" />
				<a:midPointStop
   offset="0.0169"
   style="stop-color:#FFFFFF" />
				<a:midPointStop
   offset="0.5"
   style="stop-color:#FFFFFF" />
				<a:midPointStop
   offset="0.309"
   style="stop-color:#CFF0FF" />
				<a:midPointStop
   offset="0.5"
   style="stop-color:#CFF0FF" />
				<a:midPointStop
   offset="0.6348"
   style="stop-color:#6DB8FF" />
				<a:midPointStop
   offset="0.5"
   style="stop-color:#6DB8FF" />
				<a:midPointStop
   offset="1"
   style="stop-color:#1E65FF" />
			</linearGradient><linearGradient
       id="XMLID_4_"
       gradientUnits="userSpaceOnUse"
       x1="38.310501"
       y1="106.9429"
       x2="38.310501"
       y2="106.9429">
			<stop
   offset="0"
   style="stop-color:#FFFFFF"
   id="stop13-5" />
			<stop
   offset="1"
   style="stop-color:#B1B1C5"
   id="stop14-6-4" />
			<a:midPointStop
   offset="0"
   style="stop-color:#FFFFFF" />
			<a:midPointStop
   offset="0.5"
   style="stop-color:#FFFFFF" />
			<a:midPointStop
   offset="1"
   style="stop-color:#B1B1C5" />
		</linearGradient><linearGradient
       id="XMLID_5_"
       gradientUnits="userSpaceOnUse"
       x1="55.079601"
       y1="55.829601"
       x2="98.924797"
       y2="74.430603">
				<stop
   offset="0.1461"
   style="stop-color:#6AC5FF"
   id="stop15-2" />
				<stop
   offset="0.2539"
   style="stop-color:#61B3FA"
   id="stop16-9" />
				<stop
   offset="0.469"
   style="stop-color:#4886EC"
   id="stop17-7" />
				<stop
   offset="0.7682"
   style="stop-color:#213DD7"
   id="stop18-44" />
				<stop
   offset="1"
   style="stop-color:#0000C5"
   id="stop19-3" />
				<a:midPointStop
   offset="0.1461"
   style="stop-color:#6AC5FF" />
				<a:midPointStop
   offset="0.5526"
   style="stop-color:#6AC5FF" />
				<a:midPointStop
   offset="1"
   style="stop-color:#0000C5" />
			</linearGradient><linearGradient
       id="XMLID_6_"
       gradientUnits="userSpaceOnUse"
       x1="48.565399"
       y1="62.0425"
       x2="90.431099"
       y2="67.934402">
				<stop
   offset="0"
   style="stop-color:#CDF8FF"
   id="stop20-0" />
				<stop
   offset="1"
   style="stop-color:#0056FF"
   id="stop21-7" />
				<a:midPointStop
   offset="0"
   style="stop-color:#CDF8FF" />
				<a:midPointStop
   offset="0.5"
   style="stop-color:#CDF8FF" />
				<a:midPointStop
   offset="1"
   style="stop-color:#0056FF" />
			</linearGradient><linearGradient
       id="XMLID_7_"
       gradientUnits="userSpaceOnUse"
       x1="56.809601"
       y1="101.1333"
       x2="121.1883"
       y2="70.107399">
				<stop
   offset="0"
   style="stop-color:#FFFFFF"
   id="stop22-8" />
				<stop
   offset="1"
   style="stop-color:#B1B1C5"
   id="stop23-6" />
				<a:midPointStop
   offset="0"
   style="stop-color:#FFFFFF" />
				<a:midPointStop
   offset="0.5"
   style="stop-color:#FFFFFF" />
				<a:midPointStop
   offset="1"
   style="stop-color:#B1B1C5" />
			</linearGradient><linearGradient
       id="XMLID_8_"
       gradientUnits="userSpaceOnUse"
       x1="16.091801"
       y1="124.8345"
       x2="116.8589"
       y2="69.899002">
				<stop
   offset="0"
   style="stop-color:#FFFFFF"
   id="stop24-8" />
				<stop
   offset="1"
   style="stop-color:#B1B1C5"
   id="stop25-8" />
				<a:midPointStop
   offset="0"
   style="stop-color:#FFFFFF" />
				<a:midPointStop
   offset="0.5"
   style="stop-color:#FFFFFF" />
				<a:midPointStop
   offset="1"
   style="stop-color:#B1B1C5" />
			</linearGradient><linearGradient
       id="XMLID_9_"
       gradientUnits="userSpaceOnUse"
       x1="57.195801"
       y1="98.454597"
       x2="121.4817"
       y2="67.473396">
				<stop
   offset="0"
   style="stop-color:#FFFFFF"
   id="stop26-8" />
				<stop
   offset="1"
   style="stop-color:#B1B1C5"
   id="stop27-7" />
				<a:midPointStop
   offset="0"
   style="stop-color:#FFFFFF" />
				<a:midPointStop
   offset="0.5"
   style="stop-color:#FFFFFF" />
				<a:midPointStop
   offset="1"
   style="stop-color:#B1B1C5" />
			</linearGradient><linearGradient
       id="XMLID_10_"
       gradientUnits="userSpaceOnUse"
       x1="98.720703"
       y1="73.721199"
       x2="52.720901"
       y2="55.9422">
				<stop
   offset="0"
   style="stop-color:#0032A4"
   id="stop28" />
				<stop
   offset="1"
   style="stop-color:#3995E5"
   id="stop29" />
				<a:midPointStop
   offset="0"
   style="stop-color:#0032A4" />
				<a:midPointStop
   offset="0.5"
   style="stop-color:#0032A4" />
				<a:midPointStop
   offset="1"
   style="stop-color:#3995E5" />
			</linearGradient><linearGradient
       id="XMLID_11_"
       gradientUnits="userSpaceOnUse"
       x1="56.9995"
       y1="2.1143"
       x2="98.865196"
       y2="8.0060997">
				<stop
   offset="0"
   style="stop-color:#CDF8FF"
   id="stop30" />
				<stop
   offset="1"
   style="stop-color:#0056FF"
   id="stop31" />
				<a:midPointStop
   offset="0"
   style="stop-color:#CDF8FF" />
				<a:midPointStop
   offset="0.5"
   style="stop-color:#CDF8FF" />
				<a:midPointStop
   offset="1"
   style="stop-color:#0056FF" />
			</linearGradient><linearGradient
       inkscape:collect="always"
       xlink:href="#linearGradient9-0"
       id="linearGradient10-9"
       x1="83.68808"
       y1="69.044151"
       x2="191.56625"
       y2="104.3995"
       gradientUnits="userSpaceOnUse" /><linearGradient
       inkscape:collect="always"
       xlink:href="#linearGradient17-3"
       id="linearGradient19-2"
       x1="93.338097"
       y1="76.596308"
       x2="149.02277"
       y2="76.596308"
       gradientUnits="userSpaceOnUse" /><radialGradient
       inkscape:collect="always"
       xlink:href="#linearGradient20"
       id="radialGradient23"
       cx="136.84215"
       cy="34.700867"
       fx="136.84215"
       fy="34.700867"
       r="27.753942"
       gradientTransform="matrix(1.7889727,-0.05468597,0.03821656,1.2501997,-97.287032,0.56606774)"
       gradientUnits="userSpaceOnUse" /><linearGradient
       inkscape:collect="always"
       xlink:href="#linearGradient24-3"
       id="linearGradient32"
       x1="96.270378"
       y1="29.315733"
       x2="149.25001"
       y2="40.1875"
       gradientUnits="userSpaceOnUse" /><radialGradient
       inkscape:collect="always"
       xlink:href="#linearGradient12-1"
       id="radialGradient1"
       cx="132.12936"
       cy="103.60181"
       fx="132.12936"
       fy="103.60181"
       r="43.663849"
       gradientTransform="matrix(2.9035877,-0.02622752,0.00576492,0.63822194,-252.11708,39.21182)"
       gradientUnits="userSpaceOnUse" /><linearGradient
       gradientTransform="matrix(-0.06871152,-0.06871152,-0.06871152,0.06871152,78.983217,78.504249)"
       gradientUnits="userSpaceOnUse"
       id="gradient0"
       spreadMethod="pad"
       x1="-819.20001"
       x2="819.20001"><stop
         offset="0.0"
         stop-color="#003399"
         id="stop4093" /><stop
         offset="0.47058823529411764"
         stop-color="#0099ff"
         id="stop4095" /><stop
         offset="1.0"
         stop-color="#ccffff"
         id="stop4097" /></linearGradient><radialGradient
       cx="0"
       cy="0"
       gradientTransform="matrix(0.15259312,0,0,0.15259312,69.390374,39.686699)"
       gradientUnits="userSpaceOnUse"
       id="gradient1"
       r="819.20001"
       spreadMethod="pad"><stop
         offset="0.0"
         stop-color="#ffffff"
         id="stop4100" /><stop
         offset="0.0784313725490196"
         stop-color="#ccffff"
         id="stop4102" /><stop
         offset="0.2980392156862745"
         stop-color="#0099ff"
         id="stop4104" /><stop
         offset="0.5372549019607843"
         stop-color="#0066cc"
         id="stop4106" /><stop
         offset="0.7529411764705882"
         stop-color="#003399"
         id="stop4108" /><stop
         offset="1.0"
         stop-color="#9999ff"
         id="stop4110" /></radialGradient><radialGradient
       cx="0"
       cy="0"
       gradientTransform="matrix(0.00490797,0,0,0.00490797,47.304527,13.139065)"
       gradientUnits="userSpaceOnUse"
       id="gradient2"
       r="819.20001"
       spreadMethod="pad"><stop
         offset="0.0"
         stop-color="#00bf00"
         id="stop4113" /><stop
         offset="0.9294117647058824"
         stop-color="#006600"
         id="stop4115" /></radialGradient><radialGradient
       cx="0"
       cy="0"
       gradientTransform="matrix(0.01293919,0,0,0.01293919,56.89737,15.816137)"
       gradientUnits="userSpaceOnUse"
       id="gradient3"
       r="819.20001"
       spreadMethod="pad"><stop
         offset="0.0"
         stop-color="#00bf00"
         id="stop4118" /><stop
         offset="0.9294117647058824"
         stop-color="#006600"
         id="stop4120" /></radialGradient><radialGradient
       cx="0"
       cy="0"
       gradientTransform="matrix(4.4617873e-4,0,0,4.4617873e-4,53.997208,8.00801)"
       gradientUnits="userSpaceOnUse"
       id="gradient4"
       r="819.20001"
       spreadMethod="pad"><stop
         offset="0.0"
         stop-color="#00bf00"
         id="stop4123" /><stop
         offset="0.9294117647058824"
         stop-color="#006600"
         id="stop4125" /></radialGradient><radialGradient
       cx="0"
       cy="0"
       gradientTransform="matrix(0.00669268,0,0,0.00669268,59.797532,9.569635)"
       gradientUnits="userSpaceOnUse"
       id="gradient5"
       r="819.20001"
       spreadMethod="pad"><stop
         offset="0.0"
         stop-color="#00bf00"
         id="stop4128" /><stop
         offset="0.9294117647058824"
         stop-color="#006600"
         id="stop4130" /></radialGradient><radialGradient
       cx="0"
       cy="0"
       gradientTransform="matrix(0.03167869,0,0,0.03167869,85.452808,22.731907)"
       gradientUnits="userSpaceOnUse"
       id="gradient6"
       r="819.20001"
       spreadMethod="pad"><stop
         offset="0.0"
         stop-color="#00bf00"
         id="stop4133" /><stop
         offset="0.9294117647058824"
         stop-color="#006600"
         id="stop4135" /></radialGradient><radialGradient
       cx="0"
       cy="0"
       gradientTransform="matrix(0.00401561,0,0,0.00401561,39.942578,16.039227)"
       gradientUnits="userSpaceOnUse"
       id="gradient7"
       r="819.20001"
       spreadMethod="pad"><stop
         offset="0.0"
         stop-color="#00bf00"
         id="stop4138" /><stop
         offset="0.9294117647058824"
         stop-color="#006600"
         id="stop4140" /></radialGradient><radialGradient
       cx="0"
       cy="0"
       gradientTransform="matrix(0.00133854,0,0,0.00133854,59.128263,37.901985)"
       gradientUnits="userSpaceOnUse"
       id="gradient8"
       r="819.20001"
       spreadMethod="pad"><stop
         offset="0.0"
         stop-color="#00bf00"
         id="stop4143" /><stop
         offset="0.9294117647058824"
         stop-color="#006600"
         id="stop4145" /></radialGradient><radialGradient
       cx="0"
       cy="0"
       gradientTransform="matrix(0.01383154,0,0,0.01383154,67.159481,29.647678)"
       gradientUnits="userSpaceOnUse"
       id="gradient9"
       r="819.20001"
       spreadMethod="pad"><stop
         offset="0.0"
         stop-color="#00bf00"
         id="stop4148" /><stop
         offset="0.9294117647058824"
         stop-color="#006600"
         id="stop4150" /></radialGradient><radialGradient
       cx="0"
       cy="0"
       gradientTransform="matrix(0.00758504,0,0,0.00758504,107.76175,36.563448)"
       gradientUnits="userSpaceOnUse"
       id="gradient10"
       r="819.20001"
       spreadMethod="pad"><stop
         offset="0.0"
         stop-color="#00bf00"
         id="stop4153" /><stop
         offset="0.9294117647058824"
         stop-color="#006600"
         id="stop4155" /></radialGradient><radialGradient
       cx="0"
       cy="0"
       gradientTransform="matrix(0.05978795,0,0,0.05978795,130.29378,76.942623)"
       gradientUnits="userSpaceOnUse"
       id="gradient11"
       r="819.20001"
       spreadMethod="pad"><stop
         offset="0.0"
         stop-color="#00bf00"
         id="stop4158" /><stop
         offset="0.9294117647058824"
         stop-color="#006600"
         id="stop4160" /></radialGradient><radialGradient
       cx="0"
       cy="0"
       gradientTransform="matrix(8.9235746e-4,0,0,8.9235746e-4,123.378,68.019049)"
       gradientUnits="userSpaceOnUse"
       id="gradient12"
       r="819.20001"
       spreadMethod="pad"><stop
         offset="0.0"
         stop-color="#00bf00"
         id="stop4163" /><stop
         offset="0.9294117647058824"
         stop-color="#006600"
         id="stop4165" /></radialGradient><radialGradient
       cx="0"
       cy="0"
       gradientTransform="matrix(0.00178472,0,0,0.00178472,101.51524,82.966036)"
       gradientUnits="userSpaceOnUse"
       id="gradient13"
       r="819.20001"
       spreadMethod="pad"><stop
         offset="0.0"
         stop-color="#00bf00"
         id="stop4168" /><stop
         offset="0.9294117647058824"
         stop-color="#006600"
         id="stop4170" /></radialGradient><radialGradient
       cx="0"
       cy="0"
       gradientTransform="matrix(4.4617873e-4,0,0,4.4617873e-4,73.182894,83.412215)"
       gradientUnits="userSpaceOnUse"
       id="gradient14"
       r="819.20001"
       spreadMethod="pad"><stop
         offset="0.0"
         stop-color="#00bf00"
         id="stop4173" /><stop
         offset="0.9294117647058824"
         stop-color="#006600"
         id="stop4175" /></radialGradient><radialGradient
       cx="0"
       cy="0"
       gradientTransform="matrix(0.00223089,0,0,0.00223089,70.952,83.412215)"
       gradientUnits="userSpaceOnUse"
       id="gradient15"
       r="819.20001"
       spreadMethod="pad"><stop
         offset="0.0"
         stop-color="#00bf00"
         id="stop4178" /><stop
         offset="0.9294117647058824"
         stop-color="#006600"
         id="stop4180" /></radialGradient><radialGradient
       cx="0"
       cy="0"
       gradientTransform="matrix(0.00223089,0,0,0.00223089,74.07525,85.643108)"
       gradientUnits="userSpaceOnUse"
       id="gradient16"
       r="819.20001"
       spreadMethod="pad"><stop
         offset="0.0"
         stop-color="#00bf00"
         id="stop4183" /><stop
         offset="0.9294117647058824"
         stop-color="#006600"
         id="stop4185" /></radialGradient><radialGradient
       cx="0"
       cy="0"
       gradientTransform="matrix(4.4617873e-4,0,0,4.4617873e-4,74.07525,83.412215)"
       gradientUnits="userSpaceOnUse"
       id="gradient17"
       r="819.20001"
       spreadMethod="pad"><stop
         offset="0.0"
         stop-color="#00bf00"
         id="stop4188" /><stop
         offset="0.9294117647058824"
         stop-color="#006600"
         id="stop4190" /></radialGradient><radialGradient
       cx="0"
       cy="0"
       gradientTransform="matrix(0.00133854,0,0,0.00133854,64.259319,77.165712)"
       gradientUnits="userSpaceOnUse"
       id="gradient18"
       r="819.20001"
       spreadMethod="pad"><stop
         offset="0.0"
         stop-color="#00bf00"
         id="stop4193" /><stop
         offset="0.9294117647058824"
         stop-color="#006600"
         id="stop4195" /></radialGradient><radialGradient
       cx="0"
       cy="0"
       gradientTransform="matrix(8.9235746e-4,0,0,8.9235746e-4,62.251515,76.496444)"
       gradientUnits="userSpaceOnUse"
       id="gradient19"
       r="819.20001"
       spreadMethod="pad"><stop
         offset="0.0"
         stop-color="#00bf00"
         id="stop4198" /><stop
         offset="0.9294117647058824"
         stop-color="#006600"
         id="stop4200" /></radialGradient><radialGradient
       cx="0"
       cy="0"
       gradientTransform="matrix(0.00133854,0,0,0.00133854,63.59005,79.396606)"
       gradientUnits="userSpaceOnUse"
       id="gradient20"
       r="819.20001"
       spreadMethod="pad"><stop
         offset="0.0"
         stop-color="#00bf00"
         id="stop4203" /><stop
         offset="0.9294117647058824"
         stop-color="#006600"
         id="stop4205" /></radialGradient><radialGradient
       cx="0"
       cy="0"
       gradientTransform="matrix(0.00758504,0,0,0.00758504,62.697694,81.6275)"
       gradientUnits="userSpaceOnUse"
       id="gradient21"
       r="819.20001"
       spreadMethod="pad"><stop
         offset="0.0"
         stop-color="#00bf00"
         id="stop4208" /><stop
         offset="0.9294117647058824"
         stop-color="#006600"
         id="stop4210" /></radialGradient><radialGradient
       cx="0"
       cy="0"
       gradientTransform="matrix(0.00133854,0,0,0.00133854,65.597855,78.950428)"
       gradientUnits="userSpaceOnUse"
       id="gradient22"
       r="819.20001"
       spreadMethod="pad"><stop
         offset="0.0"
         stop-color="#00bf00"
         id="stop4213" /><stop
         offset="0.9294117647058824"
         stop-color="#006600"
         id="stop4215" /></radialGradient><radialGradient
       cx="0"
       cy="0"
       gradientTransform="matrix(0.12626858,0,0,0.12626858,62.697694,36.117269)"
       gradientUnits="userSpaceOnUse"
       id="gradient23"
       r="819.20001"
       spreadMethod="pad"><stop
         offset="0.0"
         stop-color="#00bf00"
         id="stop4218" /><stop
         offset="0.9294117647058824"
         stop-color="#006600"
         id="stop4220" /></radialGradient></defs><sodipodi:namedview
     id="base"
     pagecolor="#ffffff"
     bordercolor="#000000"
     borderopacity="0.3"
     inkscape:pageopacity="0.0"
     inkscape:pageshadow="2"
     inkscape:zoom="0.98994949"
     inkscape:cx="505.07627"
     inkscape:cy="476.792"
     inkscape:document-units="mm"
     inkscape:showpageshadow="2"
     inkscape:pagecheckerboard="0"
     inkscape:deskcolor="#d1d1d1"
     inkscape:current-layer="svg1"
     showguides="true"><sodipodi:guide
       position="92.475254,162.18839"
       orientation="0,-1"
       id="guide12"
       inkscape:locked="false" /><sodipodi:guide
       position="212.80059,201.33519"
       orientation="0,-1"
       id="guide27"
       inkscape:locked="false" /><sodipodi:guide
       position="177.33333,251.7905"
       orientation="1,0"
       id="guide28"
       inkscape:locked="false" /></sodipodi:namedview><metadata
     id="metadata1"><rdf:RDF><cc:Work
         rdf:about=""><dc:format>image/svg+xml</dc:format><dc:type
           rdf:resource="http://purl.org/dc/dcmitype/StillImage" /><cc:license
           rdf:resource="http://creativecommons.org/publicdomain/zero/1.0/" /></cc:Work><cc:License
         rdf:about="http://creativecommons.org/publicdomain/zero/1.0/"><cc:permits
           rdf:resource="http://creativecommons.org/ns#Reproduction" /><cc:permits
           rdf:resource="http://creativecommons.org/ns#Distribution" /><cc:permits
           rdf:resource="http://creativecommons.org/ns#DerivativeWorks" /></cc:License></rdf:RDF></metadata><g
     id="g28"
     transform="matrix(1.0481261,0,0,1.0481261,-6.4074194,-6.1384097)"><g
       id="g7"
       inkscape:label="shadow"
       style="display:inline"><path
         id="rect1"
         style="fill:#000000;fill-opacity:0.0602258;stroke-width:3.72791;stroke-linecap:square"
         d="M 48.380952,13.418155 H 179.16071 l 43.46726,43.278274 V 244.17261 H 48.380952 Z"
         sodipodi:nodetypes="cccccc" /><path
         id="path1"
         style="fill:#000000;fill-opacity:0.0752823;stroke-width:3.72791;stroke-linecap:square"
         d="m 47.563027,12.60023 129.443423,-0.133635 43.46726,43.278274 1.33635,187.609821 H 47.563027 Z"
         sodipodi:nodetypes="cccccc" /><path
         id="path2"
         style="fill:#000000;fill-opacity:0.0602258;stroke-width:3.72791;stroke-linecap:square"
         d="m 46.493949,11.793049 128.975701,-0.868626 43.46726,43.278274 1.80407,188.344813 H 46.493949 Z"
         sodipodi:nodetypes="cccccc" /><path
         id="path3"
         style="fill:#000000;fill-opacity:0.0602258;stroke-width:3.72791;stroke-linecap:square"
         d="m 45.964782,12.33296 129.777508,0.467722 43.46726,42.209196 1.00226,187.008462 H 45.964782 Z"
         sodipodi:nodetypes="cccccc" /><path
         id="path4"
         style="fill:#000000;fill-opacity:0.0602258;stroke-width:3.72791;stroke-linecap:square"
         d="m 45.435615,12.338332 129.443415,0.935443 43.46726,41.674657 1.33635,186.540738 H 45.435615 Z"
         sodipodi:nodetypes="cccccc" /><path
         id="path5"
         style="fill:#000000;fill-opacity:0.0602258;stroke-width:3.72791;stroke-linecap:square"
         d="M 44.906448,12.744609 174.8844,13.412783 218.35166,54.151996 219.15347,240.96 H 44.906448 Z"
         sodipodi:nodetypes="cccccc" /><path
         id="path6"
         style="fill:#000000;fill-opacity:0.0602258;stroke-width:3.72791;stroke-linecap:square"
         d="m 44.377281,15.021772 129.911129,0.534539 43.46726,37.932883 0.86863,186.941636 H 44.377281 Z"
         sodipodi:nodetypes="cccccc" /><path
         id="path7"
         style="fill:#000000;fill-opacity:0.0602258;stroke-width:3.72791;stroke-linecap:square"
         d="m 43.848114,13.423527 129.710676,1.069078 43.46726,39.001961 1.06908,186.407094 H 43.848114 Z"
         sodipodi:nodetypes="cccccc" /></g><g
       id="g14"
       style="display:inline"><path
         style="color:#000000;fill:url(#linearGradient14);stroke-linecap:square;-inkscape-stroke:none"
         d="M 46.153822,14.648159 H 173.78301 l 40.90293,41.140298 V 236.0795 H 46.554726 Z"
         id="path15"
         inkscape:label="headbgground" /><path
         id="rect16"
         style="display:inline;fill:url(#linearGradient17);fill-opacity:1;stroke-width:4.99999;stroke-linecap:square"
         d="M 45.435818,14.165285 H 176.70315 l 0.20408,8.220982 H 53.433709 V 235.97952 h -7.997891 z"
         sodipodi:nodetypes="ccccccc" /><path
         id="rect17"
         style="fill:url(#linearGradient19);stroke-width:4.99999;stroke-linecap:square"
         d="M 47.058037,227.91965 H 207.27506 l -0.0668,-168.246312 7.31651,0.0667 0.0668,168.546562 -7.08265,0.0331 v 7.34846 H 47.058037 Z"
         sodipodi:nodetypes="ccccccccc" /><path
         style="color:#000000;fill:url(#linearGradient10);stroke-linecap:square;-inkscape-stroke:none"
         d="M 43.648437,12.148438 44.058594,238.58008 H 217.18555 V 54.757812 L 174.82227,12.148438 Z m 4.608862,4.999999 H 172.74414 l 39.44141,39.671875 V 233.58008 H 48.775405 Z"
         id="path16"
         inkscape:label="headframe"
         sodipodi:nodetypes="cccccccccccc" /></g><g
       id="rect23"
       style="display:inline"><rect
         style="display:inline;fill:url(#linearGradient23);fill-opacity:0.834379;stroke:none;stroke-width:4.99999;stroke-linecap:square;stroke-dasharray:none;stroke-opacity:1"
         id="rect20"
         width="30.128031"
         height="11.286353"
         x="177.19191"
         y="53.347572" /><path
         style="color:#000000;display:inline;fill:url(#linearGradient25);stroke-linecap:square;stroke-linejoin:bevel;-inkscape-stroke:none"
         d="m 174.15254,15.119046 40.91592,41.955358 H 174.814 Z"
         id="path25" /><g
         id="g27"><path
           id="rect27"
           style="display:inline;fill:#0a6db5;fill-opacity:0.459222;stroke-width:4.99999;stroke-linecap:square;stroke-linejoin:bevel"
           d="m 182.94047,23.245534 33.07293,33.82887 -33.07293,-0.09449 z"
           sodipodi:nodetypes="cccc" /><path
           id="path27"
           style="display:inline;fill:#1882cf;fill-opacity:0.459222;stroke-width:4.99999;stroke-linecap:square;stroke-linejoin:bevel"
           d="m 175.28645,49.514879 34.91556,0.188989 4.67746,7.087054 -39.68751,-0.472471 z"
           sodipodi:nodetypes="ccccc" /></g><path
         style="color:#000000;display:inline;fill:url(#linearGradient27);stroke-linecap:square;stroke-linejoin:bevel;-inkscape-stroke:none"
         d="m 175.94141,13.373047 -4.28907,1.785156 6.5e-4,44.600911 c 0,0 29.8634,-0.184895 43.41537,-0.184895 l 1.78906,-4.246094 z m 1.4286,7.056744 34.22551,34.144428 h -34.32013 z"
         id="path26"
         sodipodi:nodetypes="cccccccccc" /></g></g><g
     id="g3"
     style="filter:url(#filter9)"
     transform="matrix(0.50412881,0,0,0.50412881,90.320897,51.927855)"><path
       inkscape:connector-curvature="0"
       style="fill:url(#gradient0);fill-rule:evenodd;stroke:none"
       id="path3998"
       d="m -0.6596868,78.504249 q 0,32.794131 23.2012938,56.218521 23.424384,23.20129 56.44161,23.20129 32.794143,0 56.218513,-23.20129 23.20131,-23.42439 23.20131,-56.218521 0,-33.017226 -23.20131,-56.218521 -23.42437,-23.2012929 -56.218513,-23.2012929 -33.017226,0 -56.44161,23.2012929 -23.2012938,23.201295 -23.2012938,56.218521" /><path
       inkscape:connector-curvature="0"
       style="fill:url(#gradient1);fill-rule:evenodd;stroke:none"
       id="path4000"
       d="m 3.8021006,78.504249 q 0,31.009421 21.8627574,53.095271 22.085848,22.08585 53.318359,22.08585 31.009423,0 53.318363,-22.08585 21.86275,-22.08585 21.86275,-53.095271 0,-31.232512 -21.86275,-53.318359 Q 109.99264,3.1000437 78.983217,3.1000437 47.750706,3.1000437 25.664858,25.18589 3.8021006,47.271737 3.8021006,78.504249" /><path
       inkscape:connector-curvature="0"
       style="fill:url(#gradient2);fill-rule:evenodd;stroke:none"
       id="path4002"
       d="m 46.189081,10.908172 h 1.561625 v 0.892357 h -0.446179 v 2.453982 h 0.446179 v -1.115446 h 3.123251 v 2.007804 h -0.892358 v 0.446179 H 47.304527 V 15.146869 H 45.742902 V 14.70069 h -0.446179 v -1.115446 h -0.446179 v -0.446179 h -0.892357 v -0.446179 h -0.446179 v -0.446179 h 0.892357 v -0.446179 h 0.892358 v -0.446177 h 0.892358 v -0.446179" /><path
       inkscape:connector-curvature="0"
       style="fill:url(#gradient3);fill-rule:evenodd;stroke:none"
       id="path4004"
       d="m 49.089242,9.569635 h 1.338536 V 9.123457 h 0.446179 v 0.892357 h 0.892358 v 0.446179 h 0.446178 v 0.446179 h 1.784715 v 0.892357 h 0.446179 v 0.892357 h 0.892357 v 0.446179 h 0.669268 v 0.446179 h 1.784715 v -0.446179 h 1.784715 v 0.446179 h 1.784715 v 0.669267 h 0.892358 v 3.123252 h 2.900162 v 0.892357 h 0.446178 v 1.338536 h -4.684877 v -1.784715 h -1.338536 v -0.446178 h -0.892357 v 0.446178 h -3.346341 v 0.446179 h -0.446179 v 1.338536 h -0.446178 v 0.446179 h -0.446179 v 0.446179 H 53.10485 v 0.446179 h -0.446178 v 1.338535 h -1.338536 v -3.12325 H 50.873957 V 18.27012 h 0.446179 v -0.446179 h 0.446179 v -0.892357 h 0.892357 v -3.792519 h -0.446179 v -0.446179 h -0.446178 v 0.446179 h -0.446179 v -0.446179 h -1.338537 v -1.784714 h -1.784714 v -0.892358 h 0.892357 V 9.569635" /><path
       inkscape:connector-curvature="0"
       style="fill:url(#gradient4);fill-rule:evenodd;stroke:none"
       id="path4006"
       d="M 53.997208,7.7849204 V 8.231099 H 53.551029 V 7.7849204 h 0.446179" /><path
       inkscape:connector-curvature="0"
       style="fill:url(#gradient5);fill-rule:evenodd;stroke:none"
       id="path4008"
       d="m 61.359157,6.8925629 h 1.338537 v 0.4461788 h 0.446178 V 7.7849204 H 63.59005 V 9.569635 h 1.115448 v 1.338537 h -0.446179 v 0.892357 H 63.59005 v 0.446178 h -0.446178 v 0.892358 h -3.123251 v -1.338536 h -0.446179 v -0.446178 h 0.446179 v -0.892358 h -0.892358 v -0.446179 h 0.446179 V 9.569635 H 59.128263 V 8.677278 H 58.682085 V 9.123457 H 57.343549 V 8.677278 H 56.451191 V 8.231099 H 56.005012 V 7.7849204 H 54.889565 V 7.3387417 h 1.561626 V 6.8925629 h 1.784715 v 0.8923575 h 0.892357 V 8.231099 h 0.446179 V 6.8925629 h 0.446179 V 6.0002054 h 1.338536 v 0.8923575" /><path
       inkscape:connector-curvature="0"
       style="fill:url(#gradient6);fill-rule:evenodd;stroke:none"
       id="path4010"
       d="m 66.490212,5.3309374 h 1.784716 V 4.8847587 h 1.784714 V 4.4385799 h 0.446179 V 3.9924012 h 2.453983 V 4.4385799 H 74.29834 V 3.9924012 h 3.123251 v 0.4461787 h 0.446179 v 0.4461788 h 0.446179 v 0.4461787 h 0.446179 v 2.0078043 h 0.446179 v 0.4461787 h 0.446178 V 8.231099 H 78.760128 V 8.677278 H 77.86777 v 0.446179 h 1.338537 V 8.677278 H 81.66029 V 8.231099 h 2.230893 V 7.7849204 h 2.230894 V 7.3387417 h 0.446178 V 6.8925629 h 1.338536 V 6.4463842 H 88.35297 V 6.0002054 h 1.561626 v -0.669268 h 0.892357 V 4.8847587 h 5.131055 v 0.4461787 h 1.784716 v 0.669268 h 1.784716 v 0.4461788 h 2.0078 v 0.4461787 h 0.44618 v 0.8923575 h -0.44618 V 8.231099 h 2.67708 v 1.338536 h -0.44618 v 0.446179 h -0.44618 v 0.446179 h -0.44618 v 0.446179 h 0.89236 v -0.446179 h 0.44618 v -0.446179 h 0.44617 V 8.677278 h 2.2309 v 0.446179 h 0.89236 v 0.892357 h -0.44618 v 1.338537 h -0.44618 v 0.446177 h -0.89236 v 0.446179 h -0.44618 v 0.892358 h -0.44618 v 0.446179 h 2.2309 v 0.669267 h -0.44618 v 0.446179 h -3.56943 v 0.446179 h -0.44618 v 1.338537 h 0.44618 v -0.446179 h 0.89236 v -0.892358 h 1.78471 v 0.446179 h 0.44618 v 0.892358 h -1.78472 v 1.338535 h -0.89235 v -0.446178 h -0.89236 v 1.338536 h -0.44618 v 0.446179 h 0.44618 v 1.784715 h 0.44618 v -0.892358 h 0.44618 V 18.27012 h 1.33853 v 0.446179 h 1.33854 v 0.892357 h 0.44618 v 0.892358 h 0.44618 v 0.446179 h 0.44618 v 0.892358 h -2.2309 v 0.446177 h 0.44618 v 0.669269 h 0.44618 v 1.338536 h -0.44618 v 0.446179 h -0.44618 v 0.446178 h -0.44618 v 0.446179 h -0.44618 v 0.446179 h -1.33853 v 1.784715 h 0.44618 v 0.446178 h 0.44618 v 1.784716 h -0.44618 v 1.115446 h -0.44618 v 0.446179 h -1.33854 v 0.446179 h -0.44618 v 0.446179 h -1.56162 v 0.446178 H 99.06126 V 32.54784 h -0.44618 v 0.446178 H 98.1689 v 0.446179 h -1.784713 v 0.892358 h -0.446179 v 0.446178 h -0.446179 v 0.446179 h -0.446178 v 0.446178 h -1.338536 v 0.446179 h -1.338536 v 0.892358 H 91.9224 v 1.338536 h -1.115447 v 1.561626 h -0.446179 v 1.338535 H 88.35297 V 40.802147 H 86.122077 V 40.355968 H 85.675898 V 39.909789 H 85.229719 V 38.794341 H 84.78354 V 38.348163 H 84.337362 V 37.455806 H 83.891183 V 36.563448 H 83.445004 V 35.67109 h -0.446179 v -1.784714 h -0.446179 v -0.446179 h 0.446179 v -0.446179 h 0.446179 v -0.892357 h 0.892358 v -0.446179 h 0.446178 v -0.446179 h -0.446178 v -0.669268 h -1.338537 v -0.446178 h -0.446179 v -0.446179 h 0.446179 V 29.201499 H 81.214111 V 28.75532 h 0.446179 v -0.446179 h 0.446177 V 24.739712 H 81.66029 v -0.446179 h -0.446179 v -1.338536 h -0.446179 v -0.669269 h -0.669269 v -0.446177 h -3.56943 v 0.446177 h -1.338535 v 0.669269 H 74.29834 V 21.839551 H 71.398178 V 20.947193 H 70.952 v -1.338537 h 2.007804 V 19.162478 H 72.513625 V 18.716299 H 71.398178 V 18.27012 h -0.892357 v -0.446179 h -0.446179 v -0.446178 h 0.446179 V 16.931584 H 70.952 v -0.446178 h 2.453983 v -0.446179 h 0.446178 v -0.446179 h 1.784716 v -0.446179 h 0.446178 V 14.70069 H 75.636877 V 13.585244 H 74.29834 v -0.892358 h 0.446179 V 11.800528 H 74.29834 v 0.446179 h -1.784715 v 0.446179 h -0.669268 v 0.892358 h -0.446179 v 0.669267 H 70.952 v 0.446179 h -0.446179 v 0.446179 h -0.892358 v 0.446179 h -0.446178 v 1.338536 h -0.892357 v 0.446179 H 66.490212 V 16.931584 H 64.705498 V 16.485406 H 63.59005 V 16.039227 H 63.143872 V 15.146869 H 63.59005 V 14.70069 h 0.669269 v -1.115446 h 0.446179 v -0.446179 h 0.446179 v -0.446179 h 0.446178 v -0.446179 h 0.892357 v -0.892356 h 0.446179 V 10.015814 H 66.490212 V 9.123457 h 1.784716 v 0.446178 h 0.446178 V 8.677278 H 70.952 V 8.231099 H 66.936391 V 7.7849204 h -0.892358 v -1.784715 h 0.446179 V 5.3309374 M 101.06906,30.093857 h 0.44618 v -0.446179 h -0.44618 v 0.446179" /><path
       inkscape:connector-curvature="0"
       style="fill:url(#gradient7);fill-rule:evenodd;stroke:none"
       id="path4012"
       d="m 37.934774,16.039227 v -0.446179 h 1.115446 v -0.446179 h 0.446179 V 14.70069 h 0.892358 v -0.446179 h 0.892358 v 0.446179 h 1.338535 v 0.446179 h 0.446179 v 0.892358 H 42.61965 v 0.892357 h -0.892357 v 0.446179 h -1.784715 v 0.446178 h -2.453983 v -0.892357 h -0.892358 v -0.446178 h 0.892358 v -0.446179 h 0.446179" /><path
       inkscape:connector-curvature="0"
       style="fill:url(#gradient8);fill-rule:evenodd;stroke:none"
       id="path4014"
       d="m 58.235906,37.455806 h 1.784715 v 0.892357 h -1.784715 v -0.892357" /><path
       inkscape:connector-curvature="0"
       style="fill:url(#gradient9);fill-rule:evenodd;stroke:none"
       id="path4016"
       d="m 60.020621,22.285728 v -1.338535 h 4.238698 v 0.892358 h 0.446179 v 0.446177 h -0.446179 v 0.669269 h 0.892358 v 0.446179 h 2.677072 v 0.446179 h 0.446179 v 0.892357 h 1.338535 v 0.892357 h 0.892358 v 0.446179 H 70.952 v 0.892358 h 0.892357 v 2.230893 H 70.952 v 0.446179 h 0.892357 v 0.446179 h 1.115447 v 0.446178 h 0.446179 v 1.115447 h 1.338536 v 1.338536 h 0.446179 v 0.892358 H 74.29834 v 0.446179 h -1.338536 v 0.446178 h -0.446179 v 0.446179 h 0.446179 v 0.892357 h 0.446179 v 1.784716 h -0.892358 v -0.446179 h -0.669268 v 0.892357 H 70.505821 V 37.901985 H 70.059642 V 37.455806 H 69.167285 V 37.009627 H 68.721106 V 36.117269 H 67.828749 V 35.67109 h -2.230894 v -0.446178 h -0.446178 v -0.892357 h 0.446178 v -0.892358 h 0.892357 v 0.446179 h 0.446179 v -0.446179 h 0.446179 v -1.338536 h 0.446179 V 29.647678 H 67.38257 V 29.201499 H 66.936391 V 28.75532 h -0.446179 v -0.446179 h -1.338535 v -0.446178 h -0.892358 v 1.784715 H 63.59005 v 0.446179 H 63.143872 V 29.647678 H 62.251515 V 27.862963 H 61.359157 V 27.416785 H 60.466799 V 26.078248 H 60.020621 V 25.18589 h -0.446179 v -0.446178 h -0.446179 v -0.892357 h 0.446179 v -1.561627 h 0.446179 m 2.677073,6.023413 v 0.892358 h 0.446178 v -0.892358 h -0.446178 m 8.700484,5.577235 V 32.994018 H 70.952 v 0.892358 h 0.446178" /><path
       inkscape:connector-curvature="0"
       style="fill:url(#gradient10);fill-rule:evenodd;stroke:none"
       id="path4018"
       d="m 113.78516,35.67109 v 1.338537 h -0.44618 v 0.446179 h -0.44618 v 0.446179 h -0.89236 v 0.446178 h -0.89236 v 0.446178 h -2.90015 v 0.669269 h -2.2309 v -0.669269 h -1.33854 v -0.446178 h -0.44617 v -0.446178 h -0.89236 v -0.446179 h -1.33854 v -0.892358 h 0.44618 v -0.446179 h 0.44618 V 35.67109 h -0.89236 v -0.892357 h 0.44618 v -0.892357 h 0.44618 v -0.446179 h 1.33854 v 0.446179 h 0.44617 v 0.446179 h 0.44618 v 0.446178 h 0.44618 v -0.446178 h 0.44618 v -0.446179 h 1.78472 v 0.446179 h 2.45398 v -0.446179 h 1.78471 v 0.446179 h 0.44618 v 0.446178 h 0.44618 v 0.446179 h 0.44618 v 0.446178 h 0.44618" /><path
       inkscape:connector-curvature="0"
       style="fill:url(#gradient11);fill-rule:evenodd;stroke:none"
       id="path4020"
       d="m 116.46223,48.164095 h 0.66927 v -1.561626 h 0.44618 v -0.446178 h 1.78472 v 0.892357 h -0.44618 v 0.669268 h 0.44618 v 0.446179 h 1.33853 v 3.792519 h 0.44618 v 0.446179 h 0.44617 v 0.892358 h 0.44618 v 0.446178 h 0.44618 v 0.446179 h 0.44618 v 1.784715 h 0.44618 v -0.446179 h 0.44618 v -0.446179 h 0.44618 v -0.892357 h 0.44617 v -0.892357 h 2.00781 v -0.446179 h 0.89236 v -1.784715 h -0.44618 v -2.007804 h 0.44618 v -0.446179 h 0.44618 v -0.446179 h -2.23089 v -0.446179 h -0.44618 v -1.561625 h -0.66928 v -0.892358 h 0.66928 v -1.784714 h -0.66928 v -1.338537 h 0.66928 v -0.446179 h -0.66928 v -0.446179 h 1.11546 v -0.446177 h 0.44618 v -0.446179 h 0.44617 v -0.446179 h 0.89236 V 39.46361 h 0.44618 v -0.669269 h 0.44618 v -0.446178 h 0.44618 v -0.446178 h 0.44618 v -0.446179 h 0.44618 v -0.446179 h 0.44618 v -0.892358 h 0.44617 v -0.892357 h 0.44618 v -0.892357 h 0.89236 v -1.338537 h 0.44618 v -0.892357 h 0.44618 v -0.892358 h 0.44618 v -1.561625 h 0.66926 V 28.75532 h 0.44618 v -0.446179 h 1.33854 v 0.446179 h 0.44618 v 0.446179 h 0.44617 v 0.446179 h 0.44618 v 0.446179 h 0.44618 v 1.115446 h 0.44618 v 0.446179 h 0.44618 v 0.446179 h 0.44618 v 0.446179 h 0.44618 v 0.892357 h 0.44618 v 0.446179 h 0.44618 v 0.892357 h 0.44617 v 0.446179 h 0.44618 v 0.446178 h 0.44618 v 0.892358 h 0.66927 v 0.446179 h 0.44617 v 0.892358 h 0.44618 v 0.446178 h 0.44618 v 1.115447 h 0.44618 v 0.892358 h 0.44618 v 0.446179 h 0.44618 v 0.892356 h 0.44618 v 0.892358 h 0.44618 v 0.892358 h 0.44618 v 0.892357 h 0.44618 v 0.892357 h 0.44617 v 0.892358 h 0.44618 v 0.892357 h 0.44618 v 1.115447 h 0.44618 v 1.338536 h 0.44618 v 0.892358 h 0.44618 v 1.561625 h 0.44618 v 0.892358 h 0.66926 v 1.338536 h 0.44618 v 1.338536 h 0.44618 v 1.338537 h 0.44618 v 1.784714 h 0.44618 v 2.007804 h 0.44618 v 1.784716 h 0.44617 v 2.230893 h 0.44618 v 2.230894 h 0.44618 v 22.978204 h -0.89236 v 0.446179 h 0.44618 v 2.453983 h -0.44618 v 2.230894 h -0.44617 v 1.784715 h -0.44618 v 1.784713 h -0.44618 v 1.78471 h -0.44618 v 1.11546 h -0.44618 v 0.44617 h -0.44618 v 0.89236 h -0.66926 v 0.89236 h 0.66926 v 0.89236 h -0.66926 v 0.89236 h -0.44618 v 1.33853 h -0.44618 v 0.89235 h -0.44618 v 1.56163 h -0.44618 v 0.89236 h -0.44618 v 0.89236 h -0.44618 v 0.89235 h -0.44617 v 0.89236 h -0.44618 v 0.89236 h -0.44618 v 0.89236 h -0.44618 v 0.89236 h -0.44618 v 0.89235 h -0.44618 v 0.44618 h -0.44618 v 1.11544 h -0.44618 v 0.89236 h -0.44618 v 0.44618 h -0.44618 v 0.89236 h -0.44617 v 0.44618 h -0.66927 v 0.89236 h -0.44618 v 0.44617 h -0.44618 v 0.44618 h -0.44617 v 0.89236 h -0.44618 v 0.44618 h -0.44618 v 0.89236 h -2.67708 v 0.66926 h -2.23089 v -0.66926 h -1.11544 v -2.2309 h -0.44618 v -0.89235 h -0.44618 v -0.44618 h -0.44618 v -0.44618 h -0.44618 v -1.78472 h -0.44618 v -0.89236 h -0.44618 v -1.56162 h -0.44617 v -1.33853 h -0.44618 v -1.33854 h -0.44618 v -0.89236 h -0.44618 v -0.89236 h -0.44618 v -1.33853 h 0.44618 v -2.00781 h 0.89236 v -0.89236 h -0.44618 v -0.44617 h 0.44618 v -0.44618 h 0.44618 v -1.33853 h -0.44618 v -0.89236 h -0.44618 v -0.44618 h -0.44618 v -1.78472 h -0.44618 v -0.44618 h -0.44618 V 100.367 h -0.89236 v -0.44618 h -0.44618 v -1.78471 h 0.44618 v -0.892354 h 0.44618 v -1.338537 h -0.44618 V 95.45904 h -2.90016 V 95.012862 H 123.378 v -0.446179 h -2.23089 v 0.446179 h -1.78471 v 0.446178 h -0.44618 v -0.446178 h -3.34635 v 0.446178 h -2.67707 v -0.446178 h -0.44618 v -0.446179 h -0.44618 v -0.446179 h -0.44618 v -0.446179 h -0.89236 v -0.892357 h -0.44617 v -1.115447 h -0.44618 v -0.446179 h -0.44618 v -0.446178 h -1.11544 v -0.446179 h -0.44618 v -0.446179 h -0.44618 v -0.446178 h -0.44618 v -0.446179 h -0.44618 v -2.677072 h 0.44618 v -0.446179 h 0.44618 V 84.97384 h -0.44618 v -2.007804 h -0.44618 v -0.446179 h 0.44618 V 81.6275 h 0.44618 v -0.446179 h 0.89236 v -2.230893 h 1.56162 V 78.05807 h 0.44618 v -0.446179 h 0.44617 v -0.446179 h 0.89236 v -0.446179 h 0.44618 v -0.446178 h 0.44618 v -0.446178 h 0.44618 v -1.115448 h 0.44618 v -0.892357 h 0.44618 v -0.446178 h 0.44618 v -0.446179 h 0.44617 v -1.338537 h 0.44618 v -0.446179 h -0.44618 v -0.892357 h -0.89235 v -6.469591 h 0.89235 v -0.446179 h 0.89236 v 0.446179 h 4.23871 v -2.677073 h -0.44618 v -0.446179 h -0.44618 V 60.21092 h -0.44618 v -0.446178 h -0.89236 v -1.561626 h 0.89236 v -0.446179 h 1.33854 v -0.446178 h -1.78472 v 0.446178 h -2.00781 v -0.892356 h 0.44618 v -0.446179 h 0.66927 v -0.446179 h 0.89236 v -0.446179 h -0.89236 v -0.446179 h -0.66927 v 0.446179 h -1.33854 v 0.446179 h -1.78471 v -2.677072 h -0.89236 v -0.892358 h 0.44618 v -0.446179 h 0.89236 v 0.446179 h 0.44618 v -1.338536 h 2.90016 V 49.94881 h -0.66927 v -1.784715 m 13.38537,-2.900162 v 0.446179 h -0.44618 v 0.446179 h -0.44618 v 0.892357 h -0.44618 v 0.669268 h -0.44618 v 0.446179 h 0.89236 v -0.446179 h 0.44618 v 1.338537 h 0.44618 v 0.892357 h -0.44618 v 2.007804 h 2.23089 v 0.446179 h 1.78472 v -0.446179 h 0.66926 v -0.446178 h 0.89236 v 0.446178 h 0.44618 v -0.446178 h 0.89236 v -1.115447 h 0.44617 v -1.338536 h 0.44618 v -0.446179 h 0.44618 v -0.446179 h 0.44618 v -0.446179 h 0.44618 v 0.446179 h 0.44618 v 0.446179 h 0.44618 v -0.892358 h -0.44618 v -2.007804 h 0.44618 v -0.446179 h -0.44618 v -0.446178 h -0.89236 v -0.446179 h -0.44618 v -4.461787 h -0.44618 v 0.446179 h -0.89235 v 0.446179 h -0.44618 v 0.446177 h -0.44618 v 2.677073 h 0.89236 v 1.784715 h -0.44618 v 0.446179 h -0.44618 v 0.892357 h -0.44618 v 1.115447 h -0.44618 v 1.338536 h -0.44618 v 0.892358 h -1.11544 v 0.669268 h -1.78472 v -0.669268 h -0.44618 v -0.892358 h -0.44617 v -1.338536 h -0.44618 v -1.115447 h 0.44618 v -1.784715 h -0.44618 m 10.4852,-8.700485 h -1.33854 v 0.446179 h -0.44618 v 0.446179 h -0.44618 v 2.007804 h 0.44618 v -0.669269 h 0.44618 v -0.446178 h 0.44618 v -0.446178 h 0.44618 v -0.446179 h 0.44618 v -0.892358 m 2.0078,8.700485 v -0.446178 h 0.44617 v -0.446179 h -1.11544 v 0.446179 h -1.33853 v 0.446178 h 2.0078 m -9.81593,18.962596 v 0.892358 h 0.89236 v 0.446178 h 0.66926 v 0.446179 h 0.89236 v 0.892358 h 0.44618 v 2.007804 h -0.44618 v 0.446179 h -0.89236 v 0.446179 h -1.11544 v 0.892357 h -0.44618 v -0.446179 h -1.78472 v -0.446178 h -0.44617 v -0.892358 h 1.33853 v -2.007804 h -0.89236 v -0.446179 h -0.44617 v -0.892358 h -0.89236 v -0.446178 h -0.44618 v 3.34634 h -0.44618 v 0.446179 h -1.33854 v -2.900162 h 0.44618 v -1.338536 h -0.89236 v 0.446179 h -2.00781 v -0.446179 h -0.44617 v 1.338536 h -0.44618 v 0.446179 h -1.33854 v 0.446179 h -0.89236 v 1.561625 h -0.44617 v 0.446179 h -0.44618 v 1.784715 h 0.89235 v -0.446179 h 3.12325 v -0.446178 h 4.23871 v 0.446178 h 0.44618 v 2.677073 h 0.44618 v 0.446179 h 1.33853 v 0.446178 h 1.33854 v 0.446179 h 0.44618 v 0.892357 h 0.44618 v 0.669269 h 1.11544 v 0.446178 h 1.33854 v -0.446178 h -0.44618 v -1.115448 h 0.44618 v -0.446178 h 3.12325 v 0.446178 h 2.23089 v 0.446179 h 5.13106 v -0.446179 h 0.44618 v -0.446178 h 0.44617 v -0.892357 h 0.44618 v -0.446179 h 0.44618 v -0.892358 h -0.44618 v -0.446179 h -2.23089 v -0.446179 h -0.44618 v 0.446179 h -1.78472 v -0.446179 h -0.89235 v -0.446178 h -0.66927 v -0.892357 h -0.44618 v -0.446179 h -0.44618 V 67.57287 h -0.44617 v 0.446179 h -0.44618 v 1.784715 h -0.44618 v 0.446178 h -0.44618 v 0.892357 h -1.33854 v -0.446178 h -0.44618 v -0.446179 h -0.44618 v -0.892357 h -0.44617 V 67.57287 h -0.44618 v -1.561626 h -0.44618 v -0.446179 h -0.89236 v -0.446178 h -0.44618 v -0.446179 h -0.66926 v -0.446179 h -0.89236 m 11.15446,14.27772 v 0.446179 h 0.89236 V 78.05807 h -0.44618 v -0.446179 h -0.44618 v -0.446179 h -0.44618 v -0.446179 h -0.44618 v 1.784716 h 0.89236 m -11.60064,-3.79252 v 0.446179 h 0.44618 v -0.446179 h -0.44618 m 15.17007,5.131056 h 0.44618 v 0.892357 h 0.44618 V 81.6275 h 0.44618 v 0.892357 h 0.44618 v 0.892358 h 0.44618 v 1.115446 h 0.44618 v 1.784716 h 1.11544 v 0.892356 h 0.44618 v 0.446179 h 0.44618 v 0.446179 h 0.89236 v 0.446179 h 0.44617 v -0.892358 h -0.44617 v -1.338535 h -0.44618 v -0.446179 h -0.44618 v -1.338537 h -0.44618 v -0.446178 h -0.44618 v -0.669268 h -0.44618 v -0.892358 h -0.66926 V 81.6275 h -0.44618 v -0.892358 h -0.44618 v -0.446178 h -0.44618 v -0.892358 h -0.44618 v -0.446178 h -0.44618 v -0.446179 h -0.89235 v 0.446179 h 0.44617 v 0.892357 M 117.57768,52.402793 v 0.446179 h -0.44618 v 0.446179 h 1.33854 v -0.892358 h -0.89236 m 1.33854,6.246502 v 1.115447 h 0.44618 v 0.446178 h 0.44618 v -1.561625 h -0.89236 m 4.0156,-1.784714 v 0.446178 h -0.89236 v 0.446178 h -0.89235 v 0.446179 h 3.12325 v -0.446179 h -0.44618 v -0.892356 h -0.89236 m -6.91577,14.277718 h 1.11545 v 0.446179 h 1.78472 v -0.446179 h 0.89236 v -0.892357 h -1.78472 v 0.446179 h -2.00781 v 0.446178" /><path
       inkscape:connector-curvature="0"
       style="fill:url(#gradient12);fill-rule:evenodd;stroke:none"
       id="path4022"
       d="m 123.82418,68.465227 h -1.33854 V 67.57287 h 1.33854 v 0.892357" /><path
       inkscape:connector-curvature="0"
       style="fill:url(#gradient13);fill-rule:evenodd;stroke:none"
       id="path4024"
       d="m 102.4076,82.519857 h -0.44618 v 0.892358 h -0.44618 v 0.669268 h -0.89236 v -1.561626 h 0.44618 V 81.6275 h 1.33854 v 0.892357" /><path
       inkscape:connector-curvature="0"
       style="fill:url(#gradient14);fill-rule:evenodd;stroke:none"
       id="path4026"
       d="m 73.405983,82.966036 v 0.446179 h -0.446179 v -0.446179 h 0.446179" /><path
       inkscape:connector-curvature="0"
       style="fill:url(#gradient15);fill-rule:evenodd;stroke:none"
       id="path4028"
       d="m 70.952,84.081483 h -1.784715 v -1.561626 h 3.34634 v 0.892358 H 70.952 v 0.669268" /><path
       inkscape:connector-curvature="0"
       style="fill:url(#gradient16);fill-rule:evenodd;stroke:none"
       id="path4030"
       d="m 73.405983,86.758556 v -2.230895 h 0.446178 v -0.446178 h 0.892358 v 3.12325 h -0.892358 v -0.446177 h -0.446178" /><path
       inkscape:connector-curvature="0"
       style="fill:url(#gradient17);fill-rule:evenodd;stroke:none"
       id="path4032"
       d="m 74.29834,82.966036 v 0.446179 h -0.446179 v -0.446179 h 0.446179" /><path
       inkscape:connector-curvature="0"
       style="fill:url(#gradient18);fill-rule:evenodd;stroke:none"
       id="path4034"
       d="M 64.259319,77.611891 V 78.05807 H 63.59005 v -1.784715 h 1.115448 v 1.338536 h -0.446179" /><path
       inkscape:connector-curvature="0"
       style="fill:url(#gradient19);fill-rule:evenodd;stroke:none"
       id="path4036"
       d="m 63.143872,76.719533 h -1.784715 v -0.446178 h 1.784715 v 0.446178" /><path
       inkscape:connector-curvature="0"
       style="fill:url(#gradient20);fill-rule:evenodd;stroke:none"
       id="path4038"
       d="m 63.143872,80.288964 v -0.892358 h -0.446178 v -0.892357 h 1.561625 v 1.784715 h -1.115447" /><path
       inkscape:connector-curvature="0"
       style="fill:url(#gradient21);fill-rule:evenodd;stroke:none"
       id="path4040"
       d="m 63.143872,80.288964 v 0.446178 h 1.115447 v 0.446179 h 0.892358 v -0.446179 h 1.784714 V 81.6275 h 0.892358 v 0.446178 h 0.892357 v 1.338537 H 67.38257 v 0.669268 h -1.784715 v -0.669268 h -1.338536 v -0.892358 h -1.115447 v 0.446179 h 0.446178 v 1.115447 H 62.697694 V 82.073678 H 61.359157 V 81.6275 h -0.892358 v -0.446179 h -0.446178 v -0.446179 h -1.338536 v -0.446178 h -0.446179 v 0.446178 H 56.89737 v -1.338536 h 0.892357 v -0.446178 h 1.784715 v 0.446178 h 1.338536 v 0.446179 h 1.338537 v 0.446179 h 0.892357" /><path
       inkscape:connector-curvature="0"
       style="fill:url(#gradient22);fill-rule:evenodd;stroke:none"
       id="path4042"
       d="m 66.490212,78.504249 v 0.892357 h -1.784714 v -0.892357 h 1.784714" /><path
       inkscape:connector-curvature="0"
       style="fill:url(#gradient23);fill-rule:evenodd;stroke:none"
       id="path4044"
       d="M 58.235906,37.455806 H 56.89737 v -0.892358 h -0.892358 v -1.338536 h 0.446179 v -0.892357 h 0.892358 v -0.446179 h 0.446178 v -0.446179 h 0.446179 v 0.892358 h 0.892357 v 0.446178 h 0.446179 v 0.446179 h 0.892357 v 0.892357 h 0.446179 v 0.446179 h 0.446179 v 0.446179 h 0.892358 v -0.446179 h 0.446179 v -0.446179 h 0.892356 v 1.784716 h -1.338535 v 0.446178 h 0.446179 v 0.446178 h 2.900161 v 0.669269 h 0.446178 v 0.446179 h 0.446179 v 0.446179 h 0.892358 v 3.123251 h 0.446179 v 0.446178 h 1.338536 v -0.446178 h 0.892357 v -1.338537 h 0.446179 v -0.446179 h 0.892357 v 0.892358 h 0.446179 v 0.892358 h 0.669268 v 0.892357 h 0.446179 v 1.338536 h 0.446179 v 0.892357 h 0.446178 v 0.446179 h 0.446179 v 1.561626 h 0.446179 v 0.446179 h 1.784714 v 0.446178 h 0.446179 v 0.446179 h 0.446179 v 1.115447 h 0.446179 v 1.784715 h -0.446179 v 0.446179 h -0.892358 v 0.446178 h -0.446178 v 0.446179 h -0.446178 v 0.446178 h -0.446179 v 0.446179 H 74.29834 v -0.446179 h -1.338536 v 0.446179 h -3.346341 v 0.446179 H 70.952 v 1.784715 h -0.446179 v 1.338536 H 70.952 v 0.669269 h 0.892357 v 0.446178 h 0.669268 v 0.446178 h 0.446179 v 0.892358 h -1.115447 v 0.446179 H 70.952 v 0.446179 h -1.784715 v -0.446179 h -0.892357 v 0.446179 h -0.446179 v 0.446179 H 67.38257 v 0.446178 h 0.446179 v 0.446179 h 0.446179 v 0.446179 h -0.446179 v 0.446178 h -3.123251 v 2.677073 H 63.59005 v 1.115447 h -0.892356 v 0.446178 h 0.446178 v 0.892358 h -0.446178 v 0.446179 h -0.446179 v 0.446178 h -0.892358 v 0.892357 h -0.446179 v 0.446179 h -0.446179 v 0.446179 h -0.892357 v 0.892358 h -0.446179 v 1.784714 h 0.446179 v 1.115448 h 0.446179 v 0.892356 h 0.446178 v 1.338537 h -0.446178 v 0.446179 H 58.682085 V 78.05807 H 58.235906 V 77.611891 H 57.789727 V 77.165712 H 57.343549 V 76.273355 H 56.89737 v -1.561626 h -0.446179 v -0.446178 h -4.238698 v 0.446178 h -4.015608 v 0.446179 h -0.892358 v 0.669269 h -0.669268 v 0.446178 h -0.446178 v 1.784715 h 0.446178 v 1.338536 h 0.669268 v 0.892358 h 0.446179 V 81.6275 h 0.446179 v 0.446178 h 1.338535 v 0.446179 h 1.338537 v -0.446179 h 0.892358 V 81.6275 h 0.446178 v -0.892358 h 1.338536 v -0.446178 h 2.453983 V 81.6275 h -0.669268 v 2.900161 h 2.900162 v 3.123251 h -0.446179 v 0.446179 h 0.446179 v 0.892358 h 0.446179 v 0.446179 h 0.892357 v 0.446178 h 0.892357 v -0.446178 h 1.784716 v 0.446178 h 0.446179 v -0.446178 h 0.446178 V 88.54327 h 0.446178 v -0.446179 h 1.561627 v -0.446179 h 0.892356 v -0.446179 h 2.230895 v 0.892358 h 0.892357 v 0.446179 h 0.446178 v 0.446179 h 0.446179 V 88.54327 h 2.900162 v 0.446179 h 0.892357 v 0.446179 h 0.446179 v 0.446178 h 0.446179 v 0.446179 h 0.446179 v 0.446179 h 0.446179 v 0.446178 h 0.446178 v 0.446179 h 0.892357 V 92.1127 h 1.784716 v 0.669268 h 0.446179 v 0.446178 h 0.892356 v 0.446179 h 0.669269 v 0.446179 h 0.446179 v 0.446179 h 0.446179 v 2.230894 h 4.015608 v 1.338533 h 1.338536 v 0.44618 h 1.784715 v 0.44618 h 1.561625 v 0.44617 h 0.446179 v 0.44618 H 91.9224 v 0.44618 h 0.892357 v 3.79253 h -0.446178 v 0.44618 H 91.9224 v 0.89236 h -0.669268 v 0.44617 h -0.446179 v 0.89236 h -0.446179 v 0.89235 h -0.446178 v 2.00781 h -0.446179 v 2.23089 h -0.669268 v 0.89236 H 88.35297 v 0.44618 h -0.446179 v 0.44618 h -0.446179 v 0.44618 h -0.446178 v 0.44618 h -0.892357 v 0.44618 h -1.784715 v 0.89235 h -0.892358 v 0.44618 h -0.446179 v 0.44618 h -0.446179 v 1.56162 h -0.446179 v 0.89236 H 81.66029 v 0.89236 h -0.446179 v 0.44618 h -0.446179 v 1.33853 h -0.669269 v 0.89236 h -0.446178 v 0.89236 h -0.446178 v 0.89236 h -0.446179 v 0.66926 h -2.677073 v 0.44618 h 0.446178 v 2.90017 h -0.446178 v 0.44618 h -0.892357 v 0.44618 H 74.29834 v -0.44618 h -1.338536 v 1.33853 h -0.446179 v 0.89236 H 70.952 v 0.44618 h 0.446178 v 1.33854 H 70.952 v 0.89235 h -0.446179 v 1.33853 h -0.446179 v 0.44618 h -0.892357 v 1.56163 h 0.892357 v 2.2309 h -0.446179 v 0.44617 h -0.446178 v 0.44618 h -0.446179 v 0.89236 h -0.446178 v 0.44618 h -0.446179 v 0.89236 h 0.446179 v 1.78471 h 0.446178 v 0.44618 h 0.446179 v 0.66927 h 1.338536 v 0.44617 H 70.952 v 0.44618 h 0.446178 v 1.33854 H 70.952 v 0.89236 h -0.892358 v -0.44618 h -0.892357 v 0.44618 h -0.892357 v -0.44618 h -1.784716 v -0.89236 h -0.892357 v -1.33854 h 0.892357 v -1.11544 h -0.446179 v -0.44618 h -0.892356 v 0.44618 H 64.259319 V 144.5387 H 63.59005 v -0.44618 h -0.446178 v -0.44617 h -0.446178 v -5.35415 h 0.446178 v -2.00781 h 0.446178 v -0.44618 h 0.669269 v -3.56942 H 63.59005 v -0.89236 h 0.669269 v -0.89236 h 0.446179 v -0.44618 h -0.446179 v -3.34634 h 0.446179 v -1.33854 h 0.446179 v -2.45398 h 0.446178 v -3.12325 h 0.446178 v -1.33854 h 0.446179 v -7.36194 h -0.446179 v -0.44618 h -0.446178 v -0.44618 h -0.446178 v -0.44618 h -0.892358 v -0.44618 h -1.115447 v -0.66927 h -0.446178 v -0.44618 h -0.446179 v -0.44618 h -0.446179 v -0.44617 h -0.446179 v -2.23089 h -0.446179 v -0.89236 h -0.446179 v -0.89236 h -0.446178 v -0.44618 h -0.446179 v -0.44618 h -0.446179 v -1.33853 h -0.446178 v -1.11546 h 0.446178 v -1.78471 h 0.446179 v -0.446176 h 0.892357 v -0.892357 h 0.446179 V 95.45904 h 0.446179 v -0.892357 h 0.446179 v -0.892358 h 0.446179 V 91.666521 H 61.805336 V 91.220342 H 60.020621 V 90.774164 H 56.89737 V 90.327985 H 56.005012 V 88.989449 H 55.335744 V 88.097091 H 54.889565 V 87.650912 H 53.997208 V 87.204733 H 52.658672 V 86.758556 H 52.212493 V 86.312377 H 51.766315 V 85.866198 H 51.320136 V 85.420019 H 46.189081 V 84.527661 H 43.958187 V 84.081483 H 43.065829 V 83.412215 H 41.281115 V 82.966036 H 40.388757 V 81.6275 H 39.942578 V 79.842785 H 39.496399 V 79.396606 H 39.05022 V 78.950428 H 37.934774 V 78.05807 h -0.892358 v -0.446179 h -0.446179 v -0.892358 h -0.892356 v 0.892358 h 0.446177 v 0.446179 h 0.446179 v 0.892358 h 0.446179 v 0.446178 h 0.446179 v 0.892358 H 36.150058 V 79.842785 H 35.257702 V 78.950428 H 34.811523 V 78.504249 H 34.365344 V 77.611891 H 33.919165 V 77.165712 H 33.472986 V 76.719533 H 32.580629 V 75.827177 H 32.13445 V 74.711729 H 31.688272 V 74.265551 H 31.242093 V 73.373194 H 30.795914 V 72.927015 H 30.126646 V 71.588478 H 29.680467 V 71.142299 H 28.341931 V 70.696121 H 27.895752 V 70.249942 H 27.449574 V 69.357585 H 26.557216 V 68.465227 H 26.111037 V 68.019049 H 25.664858 V 66.903602 H 25.21868 v -0.892358 h -0.446178 v -4.461787 h 0.446178 v -2.230893 h 0.446178 V 55.972223 H 25.21868 V 55.526044 H 24.772502 V 55.079865 H 23.880144 V 54.633686 H 23.433965 V 54.187508 H 22.541607 V 53.741329 H 21.87234 v -0.892357 h -0.446179 v -0.446179 h -0.446179 v -0.446179 h -0.446179 v -1.561625 h -0.446179 v -1.338536 h 0.446179 V 48.610274 H 19.641446 V 48.164095 H 19.195267 V 46.602469 H 18.30291 v -0.892357 h -0.446179 v -0.446179 h -0.446179 v -0.446178 h -1.338536 v -0.446179 h -2.007804 v -0.446179 h -0.446179 v -0.446178 h -0.446179 v -0.892358 h 0.446179 v -0.892358 h 0.446179 v -0.892356 h 0.446178 v -0.446179 h 0.446179 V 39.46361 h 0.446179 v -1.115447 h 0.669268 v -0.446178 h 0.446179 v -0.892358 h 0.446178 v -0.446179 h 0.446179 V 35.67109 h 0.446179 v -0.446178 h 0.446179 v -0.446179 h 0.446179 v -0.892357 h 0.446178 v -0.446179 h 0.446179 V 32.54784 h 0.446178 v -0.446179 h 0.446179 v -0.446179 h 0.446179 v -0.446179 h 0.446179 v -1.115446 h 0.446179 v -0.446179 h 0.669267 v -0.446179 h 0.446179 V 28.75532 h 0.446179 v -0.446179 h 0.446179 v -0.446178 h 0.446179 v -0.446178 h 0.446179 v -0.446179 h 0.446178 v -0.446179 h 0.446178 v -0.446179 h 0.446179 v -0.446179 h 2.230894 v 0.446179 h 0.892358 v 0.446179 h 0.892357 v 0.446179 h 0.669268 v 0.446179 h 0.446179 v 0.446178 h 0.446179 v -0.892357 h 0.892357 v 0.446179 h 0.446179 v 0.446178 h 0.446178 v 1.338536 h -0.446178 v 0.446179 h 2.230894 v -0.446179 h 0.892356 v 0.446179 h 0.446179 v 0.892357 h 0.446179 v -0.446178 h 0.446179 v -0.446179 h -0.446179 v -1.338537 h 0.446179 v -0.446178 h 2.007804 v -0.446178 h 0.446179 v 0.446178 h 0.446179 v 0.892357 h 1.338536 v 0.446179 h 0.446179 v 0.446179 h 0.446178 v 0.446179 h 0.446179 v -0.446179 h 1.784715 v -1.338537 h 2.900162 v 0.892358 h -0.446179 v 0.446179 h 1.338536 v -0.446179 h 0.446179 v -0.892358 h -0.446179 v -0.446178 h -0.446178 v -0.892357 h -0.446179 v -0.446179 h -1.115447 v 0.446179 H 45.742902 V 26.524427 H 44.850544 V 25.18589 h -0.446179 v 0.892358 h -0.446178 v 0.446179 h -2.230894 v -0.446179 h -1.338536 v 0.446179 h -2.453983 v 0.446179 h -2.230893 v -0.446179 h -0.446179 v -0.446179 h -1.338537 v -0.446179 h -0.446179 v -1.338536 h 3.56943 v -0.446178 h -0.892358 v -0.446179 h -0.892356 v 0.446179 H 33.472986 V 23.401176 H 32.580629 V 21.839551 H 32.13445 v -0.892358 h -0.446178 v 0.446179 h -0.892358 v -0.446179 h 0.446179 v -0.446179 h 0.892357 v -0.446179 h 0.446179 v -0.446179 h 0.446179 v -0.446178 h 0.446178 v -0.446179 h 0.446179 v 0.446179 h 0.446179 V 18.27012 h 0.446179 v -0.446179 h 0.446179 v 0.446179 h 0.892356 v 1.338536 h 0.446179 v -0.892357 h 1.338537 v 0.446179 h 2.007804 v 0.446178 h 0.446179 v -0.446178 h 1.338536 v 0.446178 h 0.446179 v 2.677072 h 0.446178 v 1.115448 h 1.338537 v 0.446179 h 1.338536 v 1.338535 h 0.892358 v -0.892357 h 1.115446 v -0.892357 h 0.446179 v -0.446179 h 0.446179 v -1.115446 h -0.446179 v 0.446177 h -2.453983 v -0.446177 h -0.892358 v -0.892358 h -0.446178 v -0.446179 h -0.446179 v -0.446179 h -0.446179 v -1.338536 h 1.338536 v -1.784715 h 0.446179 v -0.446178 h 2.900162 v 0.446178 h 0.446179 v 4.015609 h 2.230893 v 2.007804 h 0.446179 v 1.784715 h 0.446179 v 2.230894 h 1.338536 v 0.446179 h 0.446178 v -0.446179 h 0.892358 v 1.784714 h 0.446179 v 0.446179 h 0.446178 v -1.338536 h 0.446179 v -0.446178 h 0.669268 v -0.446179 h -0.669268 v -1.338537 h 2.453983 v 1.338537 h 0.892358 v 1.338535 h -0.446179 v 0.446179 h -0.446179 v 0.446179 h 0.892358 v 2.453983 h -0.446179 v 0.446179 h -0.446179 v 0.892357 h -1.784715 v 0.446179 h -1.115447 v -0.446179 h -1.338536 v 0.446179 h 0.892358 v 1.338536 h -0.446179 v 0.446179 h -0.446179 v 0.892357 H 53.10485 v 2.230894 h -2.230893 v 0.446178 h -0.892358 v 1.115448 H 49.53542 v 0.446179 h -0.446178 v 0.446179 h -0.446179 v 0.446177 h -0.446178 v 1.338537 h -0.446179 v 0.892358 h 0.446179 v 0.446178 h 0.446178 v 0.446179 h 0.446179 v -0.446179 h 0.446178 v 0.892358 h 0.446179 v 0.446178 h 0.892358 v 0.892358 h 0.446179 v 1.561625 h 0.446179 v 0.446179 h 0.446178 v 0.446179 h 4.238698 v 0.446179 h 0.446179 v 1.338536 h 0.446179 v 1.561625 h 0.446178 v 0.446179 h 0.446179 v 0.892358 h 0.446179 v 0.446178 h 0.446178 v -0.446178 h 0.446179 v -0.892358 h -0.446179 v -3.34634 h 0.446179 v -0.446179 h 0.446179 v -0.446179 h 0.446178 v -0.446179 h 0.446179 v -0.669268 h -0.446179 v -1.784715 h -0.446178 v -2.677072 h 0.446178 V 41.248324 H 60.020621 V 39.46361 h 0.446178 v -2.453983 h -0.892357 v -0.446179 h -0.892357 v 0.446179 h -0.446179 v 0.446179 m 22.978205,59.78795 v -0.446179 h -0.446179 v 0.446179 h 0.446179 m -1.115448,0 v 0.446178 h 0.669269 V 97.243756 H 80.098663 M 68.721106,55.972223 h -0.446178 v 0.446179 h 0.446178 v -0.446179 m 0.892357,-0.446179 h -0.446178 v 0.446179 h 0.446178 v -0.446179 m -1.784714,1.338537 V 56.418402 H 67.38257 v 0.446179 h 0.446179 m -12.939184,0.892356 h -0.892357 v -0.446178 h -0.446179 v -0.446178 h -1.338536 v 0.446178 h -0.446178 v 0.446178 h -0.446179 v 0.446179 h 1.784714 v -0.446179 h 0.446179 v 0.446179 h 1.338536 v -0.446179 m 1.561626,1.561627 v 0.446178 h 0.892358 v 1.338536 h 0.446178 v -1.338536 h 0.446179 v -0.446178 h -1.784715 m 4.461787,1.784714 h 0.446179 v -0.446179 h -0.892358 v 1.338537 h 0.446179 v -0.892358 m 1.338537,0 h 0.446179 v -0.446179 h -0.446179 v 0.446179 m -2.677073,-1.338536 h -0.446179 v 0.446178 h 0.446179 v -0.446178 m 0.446179,2.677073 h 0.446178 v -0.446179 h -1.784714 v 0.446179 h -0.446179 v 0.446178 h 1.784715 v -0.446178 m -1.784715,-2.677073 v 0.446178 h 0.446179 v -0.446178 h -0.446179 m -3.346341,0.892357 h -0.446178 v 0.446179 h -0.446179 v 1.338537 h -0.446179 v 0.446178 h 0.892358 v -1.338536 h 0.446178 v -0.892358 m -20.9704,13.608452 h -0.446179 v 0.446178 h 0.446179 v -0.446178" /></g><g
     id="g16"><path
       id="rect4"
       style="fill:#84a7db;fill-opacity:1;stroke-width:2.5;stroke-linecap:square"
       d="m 76.611048,64.752043 4.181362,3.779762 -18.613361,20.321255 18.718335,20.05943 -4.336245,3.71294 -21.87873,-23.939414 z"
       sodipodi:nodetypes="ccccccc" /><path
       id="path10"
       style="fill:#84a7db;fill-opacity:1;stroke-width:2.5;stroke-linecap:square"
       d="m 185.40178,64.752043 -4.18136,3.779762 18.61336,20.321255 -18.71833,20.05943 4.33624,3.71294 21.87873,-23.939414 z"
       sodipodi:nodetypes="ccccccc" /></g><g
     id="g15"><rect
       style="fill:#84a7db;fill-opacity:1;stroke-width:2.5;stroke-linecap:square"
       id="rect10"
       width="121.04688"
       height="6.8980713"
       x="76.351196"
       y="142.59152" /><rect
       style="fill:#84a7db;fill-opacity:1;stroke-width:2.5;stroke-linecap:square"
       id="rect11"
       width="121.04688"
       height="6.8980713"
       x="76.351196"
       y="158.08855" /><rect
       style="fill:#84a7db;fill-opacity:1;stroke-width:2.5;stroke-linecap:square"
       id="rect13"
       width="121.04688"
       height="6.8980713"
       x="76.351196"
       y="174.15254" /><rect
       style="fill:#84a7db;fill-opacity:1;stroke-width:2.5;stroke-linecap:square"
       id="rect14"
       width="121.04688"
       height="6.8980713"
       x="76.351196"
       y="189.64957" /></g><g
     style="overflow:visible"
     id="g1"
     transform="matrix(0.53166634,0,0,0.53166634,10.764102,121.06507)"><g
       id="g9"
       style="display:inline"><path
         id="rect1-0"
         style="display:inline;fill:#a4bfe4;stroke-width:38.0334;stroke-linecap:square;stroke-linejoin:round;stroke-opacity:0.849303"
         d="M 15.909904,152.02797 126.39535,42.072858 c -0.3554,-17.315184 35.39311,-12.507325 35.88567,0.353553 l -0.53033,19.798991 43.31029,-14.142136 25.1023,18.119612 -0.35356,39.686372 22.98097,0.17677 0.11838,61.87248 h -31.08973 l 8.11538,5.84188 -0.0947,33.96442 -28.13783,18.3526 -25.63259,-19.35704 c -7.95495,3.4847 -15.90991,5.53191 -23.86486,6.66226 l 0.7071,28.75937 -37.0789,0.0331 0.48613,-31.96343 c -9.32178,1.43603 -21.964745,-1.86051 -24.183501,-4.3361 l -28.906004,20.49916 -26.99034,-17.91975 12.374369,-41.24421 -32.17336,0.7955 z"
         sodipodi:nodetypes="cccccccccccccccccccccccc" /><path
         id="rect2"
         style="display:inline;fill:#ac4120;fill-opacity:1;stroke-width:38.0334;stroke-linecap:square;stroke-linejoin:round;stroke-opacity:0.849303"
         d="m 102.38226,202.00053 c -8.635593,-1.45934 -16.652685,-3.94951 -24.228297,-7.17548 l -26.815378,20.63259 -28.56363,-19.13435 0.2327,-33.74395 12.482701,-5.39039 -32.5692,-0.31158 L 3.1019569,122.81578 37.032756,100.0042 23.213555,88.692621 23.144364,54.88104 l 52.180801,8.18842 140.430805,-7.56158 0.7071,33.322409 -12.55114,10.429826 35.53212,23.511295 0.35355,33.76435 -31.87647,-0.0259 8.8955,6.38985 0.0884,33.94113 -28.19039,18.37942 -26.06851,-19.86742 c -8.01773,4.4202 -16.03545,5.53345 -24.05318,6.52613 l 0.17677,28.99138 -36.38745,0.53487 z"
         sodipodi:nodetypes="cccccccccccccccccccccccccc" /><path
         id="rect3"
         style="display:inline;fill:#b2591f;fill-opacity:1;stroke-width:38.0334;stroke-linecap:square;stroke-linejoin:round;stroke-opacity:0.849303"
         d="m 41.058058,123.30286 c 0,0 2.385858,5.73778 3.916369,8.57367 1.807541,3.34921 6.98268,9.33059 6.98268,9.33059 l -10.987437,7.77817 z"
         sodipodi:nodetypes="csccc" /><path
         id="path3-2"
         style="display:inline;fill:#b2591f;fill-opacity:1;stroke-width:38.0334;stroke-linecap:square;stroke-linejoin:round;stroke-opacity:0.849303"
         d="m 78.645147,160.77253 c 7.132327,2.98172 14.731704,5.5451 23.564113,7.71882 l 0.17593,33.58449 c -8.4436,-1.66233 -16.785762,-3.58549 -24.415518,-7.34055 z"
         sodipodi:nodetypes="ccccc" /><path
         id="path4-3"
         style="display:inline;fill:#b2591f;fill-opacity:1;stroke-width:38.0334;stroke-linecap:square;stroke-linejoin:round;stroke-opacity:0.849303"
         d="m 138.89255,168.58059 c 7.48588,-2.40997 23.52122,-6.73829 23.52122,-6.73829 l 0.17593,33.84966 c -5.25282,2.94213 -14.88935,6.19494 -23.13519,6.32106 z"
         sodipodi:nodetypes="ccccc" /><path
         id="path5-7"
         style="fill:#b2591f;fill-opacity:1;stroke-width:38.0334;stroke-linecap:square;stroke-linejoin:round;stroke-opacity:0.849303"
         d="m 189.98546,142.41856 11.05402,-19.7323 -0.34996,28.01695 z"
         sodipodi:nodetypes="cccc" /><path
         id="path6-5"
         style="fill:#84421b;stroke-width:38.0334;stroke-linecap:square;stroke-linejoin:round;stroke-opacity:0.849303"
         d="m 102.4355,196.64703 36.6848,0.45778 0.17593,33.53716 -36.79877,-0.0625 z"
         sodipodi:nodetypes="ccccc" /><path
         id="path7-9"
         style="fill:#b2591f;fill-opacity:1;stroke-width:38.0334;stroke-linecap:square;stroke-linejoin:round;stroke-opacity:0.849303"
         d="m 102.4355,196.64703 36.6848,0.45778 0.17593,33.53716 -36.79877,-0.0625 z"
         sodipodi:nodetypes="ccccc" /><path
         id="path8"
         style="fill:#b2591f;fill-opacity:1;stroke-width:38.0334;stroke-linecap:square;stroke-linejoin:round;stroke-opacity:0.849303"
         d="m 22.935496,162.39703 28.1848,19.70778 0.17593,33.53716 -28.29877,-19.3125 z"
         sodipodi:nodetypes="ccccc" /><path
         id="path9"
         style="fill:#b2591f;fill-opacity:1;stroke-width:38.0334;stroke-linecap:square;stroke-linejoin:round;stroke-opacity:0.849303"
         d="m 188.6855,180.89703 28.4348,-17.29222 0.17593,33.53716 -28.54877,17.6875 z"
         sodipodi:nodetypes="ccccc" /><path
         id="rect9"
         style="fill:url(#linearGradient10-9);stroke-width:38.0334;stroke-linecap:square;stroke-linejoin:round;stroke-opacity:0.849303"
         d="m 51.250004,36.249998 27.9375,21.000001 C 112.29156,41.480863 139.80268,47.808898 161.86996,55.918893 l 26.45811,-19.445437 28.60842,18.694137 c -10.60593,7.281015 -17.41976,12.994776 -27.23246,19.972245 6.12474,6.590289 9.01469,12.764615 11.55852,19.802517 l 38.33116,-0.0442 -0.0294,27.886525 -37.85961,-0.0442 c -2.40374,6.95036 -5.74954,13.54745 -11.90244,19.09188 l 26.10456,21.21321 -27.02644,18.81318 -26.12337,-20.13901 c -7.24402,4.36838 -14.51214,6.39849 -23.48132,6.98268 l 0.03,28.54944 -36.70642,-0.0884 0.0258,-28.53848 c -8.854419,-1.20783 -16.934254,-3.96483 -24.625001,-7.5 L 51.250008,181.5625 23.750006,162.75 50.648659,141.24784 C 45.863776,135.23162 41.858275,129.18151 40.875003,123 L 2.922336,122.60355 3.0000016,95.249998 41.250003,94.499999 c 1.936244,-6.874267 5.124814,-12.910386 9.750001,-17.9375 L 24.500003,55.187498 Z"
         sodipodi:nodetypes="ccccccccccccccccccccccccccccc" /><path
         id="rect12"
         style="display:inline;fill:url(#radialGradient1);stroke-width:38.0334;stroke-linecap:square;stroke-linejoin:round;stroke-opacity:0.849303"
         d="m 117.96552,70.042151 72.26399,5.360467 c 5.22645,5.697991 8.52397,12.272774 11.17284,19.142396 l 38.28063,-0.07053 -0.39351,28.048816 -37.00571,-0.16906 -8.7557,15.33094 c -26.8847,7.92789 -54.28344,0.47515 -79.73411,-13.66117 z"
         sodipodi:nodetypes="ccccccccc" /><path
         id="rect17-2"
         style="display:inline;fill:url(#linearGradient19-2);stroke:#000000;stroke-width:2;stroke-linecap:square;stroke-linejoin:round;stroke-dasharray:none;stroke-opacity:1"
         d="M 93.338097,32.637399 C 112.56823,29.07169 131.206,28.696404 149.02277,32.668619 v 79.054251 c -6.96133,18.73114 -52.166032,15.08386 -55.684673,1.06066 z"
         sodipodi:nodetypes="ccccc" /><ellipse
         style="fill:url(#radialGradient23);fill-opacity:1;stroke:#000000;stroke-width:2;stroke-linecap:square;stroke-linejoin:round;stroke-dasharray:none;stroke-opacity:1"
         id="path20"
         cx="121.26881"
         cy="31.515989"
         rx="26.72047"
         ry="14.378942" /><path
         id="rect24"
         style="fill:url(#linearGradient32);stroke-width:38.0334;stroke-linecap:square;stroke-linejoin:round;stroke-opacity:0.849303"
         d="m 94.060668,28.97833 c 0,0 2.433059,15.543118 27.683062,15.543118 25.25,0 26.80315,-15.608916 26.80315,-15.608916 l 1.38383,3.587166 c 0,0 -4.80575,14.875303 -28.80575,14.875303 -24.624951,0 -28.876252,-14.880205 -28.876252,-14.880205 z"
         sodipodi:nodetypes="csccscc" /></g></g></svg>
