<?xml version="1.0" encoding="UTF-8" standalone="no"?>
<!-- Created with Inkscape (http://www.inkscape.org/) -->

<svg
   width="256mm"
   height="256mm"
   viewBox="0 0 256 256"
   version="1.1"
   id="svg1"
   inkscape:version="1.3.2 (091e20ef0f, 2023-11-25)"
   xml:space="preserve"
   sodipodi:docname="application-x-vnd.akonadi.note.svg"
   xmlns:inkscape="http://www.inkscape.org/namespaces/inkscape"
   xmlns:sodipodi="http://sodipodi.sourceforge.net/DTD/sodipodi-0.dtd"
   xmlns:xlink="http://www.w3.org/1999/xlink"
   xmlns="http://www.w3.org/2000/svg"
   xmlns:svg="http://www.w3.org/2000/svg"
   xmlns:rdf="http://www.w3.org/1999/02/22-rdf-syntax-ns#"
   xmlns:cc="http://creativecommons.org/ns#"
   xmlns:dc="http://purl.org/dc/elements/1.1/"><defs
     id="defs1"><linearGradient
       id="linearGradient26"
       inkscape:collect="always"><stop
         style="stop-color:#7b91c4;stop-opacity:1;"
         offset="0"
         id="stop26" /><stop
         style="stop-color:#5c5e91;stop-opacity:1"
         offset="1"
         id="stop27" /></linearGradient><linearGradient
       id="linearGradient24"
       inkscape:collect="always"><stop
         style="stop-color:#c7fafe;stop-opacity:1;"
         offset="0"
         id="stop24" /><stop
         style="stop-color:#9acdff;stop-opacity:1"
         offset="1"
         id="stop25" /></linearGradient><linearGradient
       id="linearGradient22"
       inkscape:collect="always"><stop
         style="stop-color:#adaeae;stop-opacity:0.8253752;"
         offset="0"
         id="stop22" /><stop
         style="stop-color:#8ac5fe;stop-opacity:0.83628923;"
         offset="1"
         id="stop23" /></linearGradient><linearGradient
       id="linearGradient18"
       inkscape:collect="always"><stop
         style="stop-color:#9797ff;stop-opacity:1;"
         offset="0"
         id="stop18" /><stop
         style="stop-color:#ccccff;stop-opacity:1;"
         offset="0.30000001"
         id="stop20" /><stop
         style="stop-color:#ccccff;stop-opacity:1;"
         offset="1"
         id="stop19" /></linearGradient><linearGradient
       id="linearGradient16"
       inkscape:collect="always"><stop
         style="stop-color:#cdcdcd;stop-opacity:0.17462483;"
         offset="0"
         id="stop16" /><stop
         style="stop-color:#cdcdcd;stop-opacity:1;"
         offset="1"
         id="stop17" /></linearGradient><linearGradient
       id="linearGradient12"
       inkscape:collect="always"><stop
         style="stop-color:#fdfeff;stop-opacity:1;"
         offset="0"
         id="stop13" /><stop
         style="stop-color:#99ccff;stop-opacity:1;"
         offset="1"
         id="stop14" /></linearGradient><linearGradient
       id="linearGradient9"
       inkscape:collect="always"><stop
         style="stop-color:#97c9fc;stop-opacity:1;"
         offset="0"
         id="stop9" /><stop
         style="stop-color:#7788bb;stop-opacity:1"
         offset="0.25"
         id="stop12" /><stop
         style="stop-color:#57578a;stop-opacity:1"
         offset="0.5"
         id="stop11" /><stop
         style="stop-color:#444482;stop-opacity:1;"
         offset="1"
         id="stop10" /></linearGradient><linearGradient
       inkscape:collect="always"
       xlink:href="#linearGradient9"
       id="linearGradient10"
       x1="31.622168"
       y1="100.24049"
       x2="221.19499"
       y2="240.28973"
       gradientUnits="userSpaceOnUse" /><linearGradient
       inkscape:collect="always"
       xlink:href="#linearGradient12"
       id="linearGradient14"
       x1="73.583481"
       y1="62.020954"
       x2="207.02971"
       y2="229.59895"
       gradientUnits="userSpaceOnUse" /><linearGradient
       inkscape:collect="always"
       xlink:href="#linearGradient16"
       id="linearGradient17"
       x1="57.531055"
       y1="26.420616"
       x2="147.13231"
       y2="144.34076"
       gradientUnits="userSpaceOnUse" /><linearGradient
       inkscape:collect="always"
       xlink:href="#linearGradient18"
       id="linearGradient19"
       x1="209.82518"
       y1="58.53635"
       x2="210.58252"
       y2="194.57654"
       gradientUnits="userSpaceOnUse" /><linearGradient
       inkscape:collect="always"
       xlink:href="#linearGradient22"
       id="linearGradient23"
       x1="177.19191"
       y1="58.990749"
       x2="207.31994"
       y2="58.990749"
       gradientUnits="userSpaceOnUse" /><linearGradient
       inkscape:collect="always"
       xlink:href="#linearGradient24"
       id="linearGradient25"
       x1="176.32031"
       y1="20.126524"
       x2="176.32031"
       y2="56.695721"
       gradientUnits="userSpaceOnUse" /><linearGradient
       inkscape:collect="always"
       xlink:href="#linearGradient26"
       id="linearGradient27"
       x1="172.59729"
       y1="13.51158"
       x2="210.54449"
       y2="51.28627"
       gradientUnits="userSpaceOnUse" /><linearGradient
       inkscape:collect="always"
       xlink:href="#linearGradient2"
       id="linearGradient3"
       x1="142.38725"
       y1="173.94528"
       x2="142.38725"
       y2="175.78871"
       gradientUnits="userSpaceOnUse" /><linearGradient
       id="linearGradient2"
       inkscape:collect="always"><stop
         style="stop-color:#d3a826;stop-opacity:1;"
         offset="0"
         id="stop2-7" /><stop
         style="stop-color:#a5841e;stop-opacity:1;"
         offset="0.10527377"
         id="stop4-4" /><stop
         style="stop-color:#debb4f;stop-opacity:1;"
         offset="0.19013318"
         id="stop8-1" /><stop
         style="stop-color:#a3821d;stop-opacity:1;"
         offset="0.30103582"
         id="stop9-1" /><stop
         style="stop-color:#d3a826;stop-opacity:1;"
         offset="0.40079319"
         id="stop10-3" /><stop
         style="stop-color:#9b7c1c;stop-opacity:1;"
         offset="0.5272004"
         id="stop11-0" /><stop
         style="stop-color:#dab033;stop-opacity:1;"
         offset="0.62665439"
         id="stop12-3" /><stop
         style="stop-color:#a5841e;stop-opacity:1;"
         offset="0.76096553"
         id="stop13-2" /><stop
         style="stop-color:#d3a826;stop-opacity:1;"
         offset="0.88048279"
         id="stop14-1" /><stop
         style="stop-color:#d3a826;stop-opacity:1;"
         offset="1"
         id="stop3-7" /></linearGradient><linearGradient
       inkscape:collect="always"
       xlink:href="#linearGradient14-5"
       id="linearGradient55"
       x1="119.5381"
       y1="157.13257"
       x2="166.21754"
       y2="157.13257"
       gradientUnits="userSpaceOnUse" /><linearGradient
       id="linearGradient14-5"
       inkscape:collect="always"><stop
         style="stop-color:#a78f1c;stop-opacity:1;"
         offset="0"
         id="stop15" /><stop
         style="stop-color:#c3a71f;stop-opacity:1;"
         offset="0.5"
         id="stop17-6" /><stop
         style="stop-color:#dfc444;stop-opacity:1;"
         offset="1"
         id="stop16-5" /></linearGradient><radialGradient
       inkscape:collect="always"
       xlink:href="#linearGradient20"
       id="radialGradient55"
       cx="168.38019"
       cy="168.74524"
       fx="168.38019"
       fy="168.74524"
       r="23.218367"
       gradientTransform="matrix(0.43297533,0.08910225,-0.14749362,0.71671699,111.10932,31.010666)"
       gradientUnits="userSpaceOnUse" /><linearGradient
       id="linearGradient20"
       inkscape:collect="always"><stop
         style="stop-color:#d6b624;stop-opacity:1;"
         offset="0"
         id="stop20-4" /><stop
         style="stop-color:#bea21e;stop-opacity:0.9892683;"
         offset="0.24348666"
         id="stop55" /><stop
         style="stop-color:#d6b624;stop-opacity:0;"
         offset="1"
         id="stop21-2" /></linearGradient><linearGradient
       inkscape:collect="always"
       xlink:href="#linearGradient56"
       id="linearGradient58"
       x1="142.45242"
       y1="160.40047"
       x2="142.45242"
       y2="173.70607"
       gradientUnits="userSpaceOnUse" /><linearGradient
       id="linearGradient56"
       inkscape:collect="always"><stop
         style="stop-color:#e4cb5a;stop-opacity:1;"
         offset="0"
         id="stop56" /><stop
         style="stop-color:#ceab20;stop-opacity:1;"
         offset="1"
         id="stop57" /></linearGradient><radialGradient
       inkscape:collect="always"
       xlink:href="#linearGradient88"
       id="radialGradient87"
       cx="149.63246"
       cy="171.4491"
       fx="149.63246"
       fy="171.4491"
       r="12.763966"
       gradientTransform="matrix(4.208198,-0.03458765,0.02114178,2.5722744,-492.47495,-262.27278)"
       gradientUnits="userSpaceOnUse" /><linearGradient
       id="linearGradient88"
       inkscape:collect="always"><stop
         style="stop-color:#ceab20;stop-opacity:1;"
         offset="0"
         id="stop87" /><stop
         style="stop-color:#e4cb5a;stop-opacity:1;"
         offset="0.35227314"
         id="stop90" /></linearGradient><radialGradient
       inkscape:collect="always"
       xlink:href="#linearGradient100"
       id="radialGradient103"
       cx="160.68845"
       cy="167.81577"
       fx="160.68845"
       fy="167.81577"
       r="12.469951"
       gradientTransform="matrix(1.7258439,1.0664644,-1.4747188,2.3865161,130.21513,-402.4915)"
       gradientUnits="userSpaceOnUse" /><linearGradient
       id="linearGradient100"
       inkscape:collect="always"><stop
         style="stop-color:#eeeb96;stop-opacity:1;"
         offset="0"
         id="stop100" /><stop
         style="stop-color:#e4d25a;stop-opacity:0;"
         offset="1"
         id="stop101" /></linearGradient><linearGradient
       inkscape:collect="always"
       xlink:href="#linearGradient103"
       id="linearGradient114"
       x1="139.17419"
       y1="140.3622"
       x2="139.17419"
       y2="135.43199"
       gradientUnits="userSpaceOnUse" /><linearGradient
       id="linearGradient103"
       inkscape:collect="always"><stop
         style="stop-color:#665b11;stop-opacity:1;"
         offset="0"
         id="stop103" /><stop
         style="stop-color:#6e6313;stop-opacity:1;"
         offset="0.07831379"
         id="stop115" /><stop
         style="stop-color:#8a7a18;stop-opacity:1;"
         offset="0.1325309"
         id="stop116" /><stop
         style="stop-color:#b7a639;stop-opacity:1;"
         offset="0.21084423"
         id="stop117" /><stop
         style="stop-color:#ece096;stop-opacity:1;"
         offset="1"
         id="stop114" /></linearGradient><radialGradient
       id="SVGID_h_3"
       gradientUnits="userSpaceOnUse"
       gradientTransform="matrix(0.55,-0.09,0,0.171,-50.6525,11.2184)"
       cx="134.35028"
       cy="224.8873"
       r="89.095451"
       fx="99.609505"
       fy="272.82394">
<stop
   offset="0%"
   style="stop-color:rgb(13,61,80);stop-opacity: 1"
   id="stop2-1" />
<stop
   offset="100%"
   style="stop-color:rgb(217,240,249);stop-opacity: 0"
   id="stop3-2" />
</radialGradient><radialGradient
       id="SVGID_j_4"
       gradientUnits="userSpaceOnUse"
       gradientTransform="matrix(0.67,0,0,0.201,-79.1545,-2.1561)"
       cx="134.35028"
       cy="224.8873"
       r="89.095451"
       fx="119.16285"
       fy="261.78952">
<stop
   offset="0%"
   style="stop-color:rgb(13,61,80);stop-opacity: 1"
   id="stop4-2" />
<stop
   offset="100%"
   style="stop-color:rgb(217,240,249);stop-opacity: 0"
   id="stop5-1" />
</radialGradient><radialGradient
       id="SVGID_k_5"
       gradientUnits="userSpaceOnUse"
       gradientTransform="matrix(0.352,0,0,0.2365,-227.8475,-128.0045)"
       cx="534.78125"
       cy="640.61377"
       r="169.18765"
       fx="534.78125"
       fy="640.61377">
<stop
   offset="0%"
   style="stop-color:rgb(83,212,255);stop-opacity: 1"
   id="stop6-6" />
<stop
   offset="100%"
   style="stop-color:rgb(35,141,255);stop-opacity: 1"
   id="stop7-2" />
</radialGradient><radialGradient
       id="SVGID_l_6"
       gradientUnits="userSpaceOnUse"
       gradientTransform="matrix(0.352,0.0055,-0.0055,0.4455,33.7235,-78.718)"
       cx="-130.02814"
       cy="150.58395"
       r="159.82812"
       fx="-130.02814"
       fy="150.58395">
<stop
   offset="0%"
   style="stop-color:rgb(159,231,255);stop-opacity: 1"
   id="stop8-0" />
<stop
   offset="100%"
   style="stop-color:rgb(59,150,247);stop-opacity: 1"
   id="stop9-2" />
</radialGradient><radialGradient
       id="SVGID_p_7"
       gradientUnits="userSpaceOnUse"
       gradientTransform="matrix(0.2365,0.2365,-0.154,0.154,-70.0885,-239.299)"
       cx="534.78125"
       cy="640.61377"
       r="169.18765"
       fx="534.78125"
       fy="640.61377">
<stop
   offset="0%"
   style="stop-color:rgb(83,212,255);stop-opacity: 1"
   id="stop12-2" />
<stop
   offset="100%"
   style="stop-color:rgb(35,141,255);stop-opacity: 1"
   id="stop13-9" />
</radialGradient><radialGradient
       id="SVGID_q_8"
       gradientUnits="userSpaceOnUse"
       gradientTransform="matrix(0.231,0.2365,-0.297,0.2915,70.5255,-33.393)"
       cx="-130.02814"
       cy="150.58395"
       r="159.82812"
       fx="-130.02814"
       fy="150.58395">
<stop
   offset="0%"
   style="stop-color:rgb(159,231,255);stop-opacity: 1"
   id="stop14-7" />
<stop
   offset="100%"
   style="stop-color:rgb(59,150,247);stop-opacity: 1"
   id="stop15-4" />
</radialGradient><linearGradient
       id="SVGID_s_9"
       gradientUnits="userSpaceOnUse"
       x1="251.3718"
       y1="117.74638"
       x2="193.17014"
       y2="151.34912"
       gradientTransform="matrix(0.55,0,0,0.55,-68.0775,-67.9635)">
<stop
   offset="0%"
   style="stop-color:rgb(0,42,163);stop-opacity: 1"
   id="stop19-3" />
<stop
   offset="100%"
   style="stop-color:rgb(35,59,128);stop-opacity: 0"
   id="stop20-5" />
</linearGradient><linearGradient
       id="SVGID_u_10"
       gradientUnits="userSpaceOnUse"
       x1="85.635742"
       y1="38.646786"
       x2="53.621395"
       y2="52.510414"
       gradientTransform="matrix(0.55,0,0,0.55,-68.1245,-67.9135)">
<stop
   offset="0"
   style="stop-color:#1d2b7a;stop-opacity:0.73155737;"
   id="stop21-6" />
<stop
   offset="100%"
   style="stop-color:rgb(29,43,122);stop-opacity: 0"
   id="stop22-1" />
</linearGradient><radialGradient
       id="SVGID_w_11"
       gradientUnits="userSpaceOnUse"
       gradientTransform="matrix(0.51,0,0,0.5,-257.035,-336.655)"
       cx="494.20047"
       cy="635.53558"
       r="99.086052"
       fx="481.16693"
       fy="616.19745">
<stop
   offset="0%"
   style="stop-color:rgb(204,254,254);stop-opacity: 1"
   id="stop23-4" />
<stop
   offset="9.902876%"
   style="stop-color:rgb(195,252,253);stop-opacity: 1"
   id="stop24-0" />
<stop
   offset="15.62663%"
   style="stop-color:rgb(180,249,253);stop-opacity: 1"
   id="stop25-3" />
<stop
   offset="26.862594%"
   style="stop-color:rgb(118,239,251);stop-opacity: 1"
   id="stop26-1" />
<stop
   offset="62.711883%"
   style="stop-color:rgb(78,123,196);stop-opacity: 1"
   id="stop27-2" />
<stop
   offset="84.501731%"
   style="stop-color:rgb(41,58,163);stop-opacity: 1"
   id="stop28-7" />
<stop
   offset="100%"
   style="stop-color:rgb(26,35,112);stop-opacity: 1"
   id="stop29-7" />
</radialGradient><radialGradient
       id="SVGID_x_12"
       gradientUnits="userSpaceOnUse"
       gradientTransform="matrix(0.22,0.245,-0.305,0.275,130.605,-313.15)"
       cx="585.1864"
       cy="733.90356"
       r="99.086052"
       fx="585.1864"
       fy="733.90356">
<stop
   offset="0%"
   style="stop-color:rgb(99,161,201);stop-opacity: 1"
   id="stop30-9" />
<stop
   offset="100%"
   style="stop-color:rgb(22,31,107);stop-opacity: 0"
   id="stop31-81" />
</radialGradient><linearGradient
       id="SVGID_y_13"
       gradientUnits="userSpaceOnUse"
       x1="231.8717"
       y1="775.79938"
       x2="231.8717"
       y2="612.42719"
       gradientTransform="matrix(0.47,0,0,0.47,-89.5317,-304.0585)">
<stop
   offset="0%"
   style="stop-color:rgb(90,203,232);stop-opacity: 1"
   id="stop32-0" />
<stop
   offset="100%"
   style="stop-color:rgb(90,203,232);stop-opacity: 0"
   id="stop33-76" />
</linearGradient><radialGradient
       id="SVGID_C_14"
       gradientUnits="userSpaceOnUse"
       gradientTransform="matrix(1.551,0.418,-0.187,0.7205,-169.244,-147.235)"
       cx="112.43002"
       cy="113.82494"
       r="57.094601"
       fx="91.402313"
       fy="115.29401">
<stop
   offset="0%"
   style="stop-color:rgb(140,234,255);stop-opacity: 1"
   id="stop34-0" />
<stop
   offset="100%"
   style="stop-color:rgb(255,255,255);stop-opacity: 0"
   id="stop35-1" />
</radialGradient><linearGradient
       id="SVGID_D_15"
       gradientUnits="userSpaceOnUse"
       x1="-624.71625"
       y1="454.26801"
       x2="-305.15372"
       y2="454.26801"
       gradientTransform="matrix(0.23,0.23,-0.23,0.23,195.5184,15.551)">
<stop
   offset="0"
   style="stop-color:#253598;stop-opacity:0.67008197;"
   id="stop36-0" />
<stop
   offset="100%"
   style="stop-color:rgb(37,53,152);stop-opacity: 0"
   id="stop37-2" />
</linearGradient><linearGradient
       id="SVGID_G_16"
       gradientUnits="userSpaceOnUse"
       x1="-624.71625"
       y1="454.26801"
       x2="-305.15372"
       y2="454.26801"
       gradientTransform="matrix(0.23,0.23,-0.23,0.23,195.5238,15.5464)">
<stop
   offset="0%"
   style="stop-color:rgb(12,17,56);stop-opacity: 1"
   id="stop38-5" />
<stop
   offset="100%"
   style="stop-color:rgb(12,17,56);stop-opacity: 0"
   id="stop39-1" />
</linearGradient><linearGradient
       id="SVGID_I_17"
       gradientUnits="userSpaceOnUse"
       x1="-624.71625"
       y1="454.26801"
       x2="-305.15372"
       y2="454.26801"
       gradientTransform="matrix(0.23,0.23,-0.23,0.23,195.5224,15.525)">
<stop
   offset="0"
   style="stop-color:#192270;stop-opacity:0.59631145;"
   id="stop40-9" />
<stop
   offset="100%"
   style="stop-color:rgb(25,34,112);stop-opacity: 0"
   id="stop41-7" />
</linearGradient><radialGradient
       id="SVGID_K_18"
       gradientUnits="userSpaceOnUse"
       gradientTransform="matrix(0.2346,0.4048,-0.207,0.1196,126.5276,164.2984)"
       cx="-477.34705"
       cy="210.66304"
       r="65.553825"
       fx="-477.34705"
       fy="210.66304">
<stop
   offset="0%"
   style="stop-color:rgb(207,255,255);stop-opacity: 1"
   id="stop42-1" />
<stop
   offset="100%"
   style="stop-color:rgb(207,255,255);stop-opacity: 0"
   id="stop43-3" />
</radialGradient><radialGradient
       id="SVGID_M_19"
       gradientUnits="userSpaceOnUse"
       gradientTransform="matrix(0.2208,0.414,-0.1702,0.092,113.0859,173.3365)"
       cx="-477.34705"
       cy="210.66304"
       r="65.553825"
       fx="-477.34705"
       fy="210.66304">
<stop
   offset="0%"
   style="stop-color:rgb(207,255,255);stop-opacity: 1"
   id="stop44-1" />
<stop
   offset="100%"
   style="stop-color:rgb(207,255,255);stop-opacity: 0"
   id="stop45-2" />
</radialGradient><radialGradient
       id="SVGID_C_20"
       gradientUnits="userSpaceOnUse"
       gradientTransform="matrix(1.551,0.418,-0.187,0.7205,-169.244,-147.238)"
       cx="112.43002"
       cy="113.82494"
       r="57.094601"
       fx="91.402313"
       fy="115.29401">
<stop
   offset="0%"
   style="stop-color:rgb(140,234,255);stop-opacity: 1"
   id="stop47-0" />
<stop
   offset="100%"
   style="stop-color:rgb(255,255,255);stop-opacity: 0"
   id="stop48-6" />
</radialGradient><radialGradient
       id="SVGID_K_21"
       gradientUnits="userSpaceOnUse"
       gradientTransform="matrix(0.4865,0.1295,-0.0665,0.2485,227.04,28.318)"
       cx="-477.34705"
       cy="210.66304"
       r="65.553825"
       fx="-477.34705"
       fy="210.66304">
<stop
   offset="0%"
   style="stop-color:rgb(207,255,255);stop-opacity: 1"
   id="stop54-8" />
<stop
   offset="100%"
   style="stop-color:rgb(207,255,255);stop-opacity: 0"
   id="stop55-7" />
</radialGradient><radialGradient
       id="SVGID_M_22"
       gradientUnits="userSpaceOnUse"
       gradientTransform="matrix(0.483,0.147,-0.0595,0.1995,223.719,45.4235)"
       cx="-477.34705"
       cy="210.66304"
       r="65.553825"
       fx="-477.34705"
       fy="210.66304">
<stop
   offset="0%"
   style="stop-color:rgb(207,255,255);stop-opacity: 1"
   id="stop56-4" />
<stop
   offset="100%"
   style="stop-color:rgb(207,255,255);stop-opacity: 0"
   id="stop57-9" />
</radialGradient><radialGradient
       id="SVGID_Q_23"
       gradientUnits="userSpaceOnUse"
       gradientTransform="matrix(0.308,-0.253,0.2475,0.3025,-169.184,87.859)"
       cx="471.81332"
       cy="214.93324"
       r="102.87331"
       fx="471.81332"
       fy="214.93324">
<stop
   offset="0%"
   style="stop-color:rgb(96,235,254);stop-opacity: 1"
   id="stop59" />
<stop
   offset="100%"
   style="stop-color:rgb(187,246,254);stop-opacity: 0"
   id="stop60" />
</radialGradient><radialGradient
       id="SVGID_T_24"
       gradientUnits="userSpaceOnUse"
       gradientTransform="matrix(0.483,0.147,-0.0595,0.1995,312.74,26.103)"
       cx="-503.11032"
       cy="192.95184"
       r="65.553825"
       fx="-503.11032"
       fy="192.95184">
<stop
   offset="0%"
   style="stop-color:rgb(207,255,255);stop-opacity: 1"
   id="stop62" />
<stop
   offset="100%"
   style="stop-color:rgb(207,255,255);stop-opacity: 0"
   id="stop63" />
</radialGradient><radialGradient
       id="SVGID_T_25"
       gradientUnits="userSpaceOnUse"
       gradientTransform="matrix(0.483,0.147,-0.0595,0.1995,312.74,26.103)"
       cx="-503.11032"
       cy="192.95184"
       r="65.553825"
       fx="-503.11032"
       fy="192.95184">
<stop
   offset="0%"
   style="stop-color:rgb(207,255,255);stop-opacity: 1"
   id="stop66" />
<stop
   offset="100%"
   style="stop-color:rgb(207,255,255);stop-opacity: 0"
   id="stop67" />
</radialGradient><linearGradient
       id="SVGID_X_26"
       gradientUnits="userSpaceOnUse"
       x1="72.971855"
       y1="56.750366"
       x2="63.07082"
       y2="157.15953"
       gradientTransform="matrix(0.55,0,0,0.55,-68.1085,-67.9715)">
<stop
   offset="0%"
   style="stop-color:rgb(140,234,255);stop-opacity: 1"
   id="stop68" />
<stop
   offset="100%"
   style="stop-color:rgb(255,255,255);stop-opacity: 0"
   id="stop69" />
</linearGradient></defs><sodipodi:namedview
     id="base"
     pagecolor="#ffffff"
     bordercolor="#000000"
     borderopacity="0.3"
     inkscape:pageopacity="0.0"
     inkscape:pageshadow="2"
     inkscape:zoom="0.98994949"
     inkscape:cx="505.07627"
     inkscape:cy="476.792"
     inkscape:document-units="mm"
     inkscape:showpageshadow="2"
     inkscape:pagecheckerboard="0"
     inkscape:deskcolor="#d1d1d1"
     inkscape:current-layer="g28"
     showguides="true" /><metadata
     id="metadata1"><rdf:RDF><cc:Work
         rdf:about=""><dc:format>image/svg+xml</dc:format><dc:type
           rdf:resource="http://purl.org/dc/dcmitype/StillImage" /><cc:license
           rdf:resource="http://creativecommons.org/publicdomain/zero/1.0/" /></cc:Work><cc:License
         rdf:about="http://creativecommons.org/publicdomain/zero/1.0/"><cc:permits
           rdf:resource="http://creativecommons.org/ns#Reproduction" /><cc:permits
           rdf:resource="http://creativecommons.org/ns#Distribution" /><cc:permits
           rdf:resource="http://creativecommons.org/ns#DerivativeWorks" /></cc:License></rdf:RDF></metadata><g
     id="g28"
     transform="matrix(1.0481261,0,0,1.0481261,-6.4074194,-6.1384097)"><g
       id="g7"
       inkscape:label="shadow"
       style="display:inline"><path
         id="rect1"
         style="fill:#000000;fill-opacity:0.0602258;stroke-width:3.72791;stroke-linecap:square"
         d="M 48.380952,13.418155 H 179.16071 l 43.46726,43.278274 V 244.17261 H 48.380952 Z"
         sodipodi:nodetypes="cccccc" /><path
         id="path1"
         style="fill:#000000;fill-opacity:0.0752823;stroke-width:3.72791;stroke-linecap:square"
         d="m 47.563027,12.60023 129.443423,-0.133635 43.46726,43.278274 1.33635,187.609821 H 47.563027 Z"
         sodipodi:nodetypes="cccccc" /><path
         id="path2"
         style="fill:#000000;fill-opacity:0.0602258;stroke-width:3.72791;stroke-linecap:square"
         d="m 46.493949,11.793049 128.975701,-0.868626 43.46726,43.278274 1.80407,188.344813 H 46.493949 Z"
         sodipodi:nodetypes="cccccc" /><path
         id="path3"
         style="fill:#000000;fill-opacity:0.0602258;stroke-width:3.72791;stroke-linecap:square"
         d="m 45.964782,12.33296 129.777508,0.467722 43.46726,42.209196 1.00226,187.008462 H 45.964782 Z"
         sodipodi:nodetypes="cccccc" /><path
         id="path4"
         style="fill:#000000;fill-opacity:0.0602258;stroke-width:3.72791;stroke-linecap:square"
         d="m 45.435615,12.338332 129.443415,0.935443 43.46726,41.674657 1.33635,186.540738 H 45.435615 Z"
         sodipodi:nodetypes="cccccc" /><path
         id="path5"
         style="fill:#000000;fill-opacity:0.0602258;stroke-width:3.72791;stroke-linecap:square"
         d="M 44.906448,12.744609 174.8844,13.412783 218.35166,54.151996 219.15347,240.96 H 44.906448 Z"
         sodipodi:nodetypes="cccccc" /><path
         id="path6"
         style="fill:#000000;fill-opacity:0.0602258;stroke-width:3.72791;stroke-linecap:square"
         d="m 44.377281,15.021772 129.911129,0.534539 43.46726,37.932883 0.86863,186.941636 H 44.377281 Z"
         sodipodi:nodetypes="cccccc" /><path
         id="path7"
         style="fill:#000000;fill-opacity:0.0602258;stroke-width:3.72791;stroke-linecap:square"
         d="m 43.848114,13.423527 129.710676,1.069078 43.46726,39.001961 1.06908,186.407094 H 43.848114 Z"
         sodipodi:nodetypes="cccccc" /></g><g
       id="g14"
       style="display:inline"><path
         style="color:#000000;fill:url(#linearGradient14);stroke-linecap:square;-inkscape-stroke:none"
         d="M 46.153822,14.648159 H 173.78301 l 40.90293,41.140298 V 236.0795 H 46.554726 Z"
         id="path15"
         inkscape:label="headbgground" /><path
         id="rect16"
         style="display:inline;fill:url(#linearGradient17);fill-opacity:1;stroke-width:4.99999;stroke-linecap:square"
         d="M 45.435818,14.165285 H 176.70315 l 0.20408,8.220982 H 53.433709 V 235.97952 h -7.997891 z"
         sodipodi:nodetypes="ccccccc" /><path
         id="rect17"
         style="fill:url(#linearGradient19);stroke-width:4.99999;stroke-linecap:square"
         d="M 47.058037,227.91965 H 207.27506 l -0.0668,-168.246312 7.31651,0.0667 0.0668,168.546562 -7.08265,0.0331 v 7.34846 H 47.058037 Z"
         sodipodi:nodetypes="ccccccccc" /><path
         style="color:#000000;fill:url(#linearGradient10);stroke-linecap:square;-inkscape-stroke:none"
         d="M 43.648437,12.148438 44.058594,238.58008 H 217.18555 V 54.757812 L 174.82227,12.148438 Z m 4.608862,4.999999 H 172.74414 l 39.44141,39.671875 V 233.58008 H 48.775405 Z"
         id="path16"
         inkscape:label="headframe"
         sodipodi:nodetypes="cccccccccccc" /></g><g
       id="g3"
       transform="matrix(0.95408368,0,0,0.95408368,10.318372,6.0008047)"><g
         id="g2"
         style="display:inline"
         inkscape:label="yellow-notepad"
         transform="matrix(1.8522989,0,0,1.8522989,-134.18339,-107.3976)"><rect
           style="fill:#ae9551;fill-opacity:1;fill-rule:evenodd;stroke-width:13.0482;stroke-linecap:round;stroke-linejoin:round;stroke-miterlimit:2.1"
           id="rect1-1"
           width="43.1782"
           height="35.827827"
           x="121.21818"
           y="140.28716" /><path
           id="rect2"
           style="fill:url(#linearGradient3);fill-rule:evenodd;stroke-width:22.3123;stroke-linecap:round;stroke-linejoin:round;stroke-miterlimit:2.1"
           d="m 119.7061,173.97287 h 45.78233 l -1.13406,1.51208 -43.28207,0.10351 z"
           sodipodi:nodetypes="ccccc" /><path
           id="rect14"
           style="display:inline;fill:url(#linearGradient55);fill-rule:evenodd;stroke-width:12.882;stroke-linecap:round;stroke-linejoin:round;stroke-miterlimit:2.1"
           d="m 119.5381,140.20316 h 45.95035 c 1.22225,11.25657 0.57286,22.60225 0.42002,33.85882 l -46.37037,-0.0891 z"
           sodipodi:nodetypes="ccccc" /><path
           id="path17"
           style="display:inline;fill:url(#radialGradient55);fill-rule:evenodd;stroke-width:12.882;stroke-linecap:round;stroke-linejoin:round;stroke-miterlimit:2.1"
           d="m 119.5381,140.20316 h 45.95035 c 0.61113,5.62829 0.46731,13.67535 0.48043,18.62231 -1.01699,4.08571 -1.44737,6.91185 -2.75554,12.49217 -2.99219,1.38519 -5.39824,1.24951 -12.49022,2.84737 -6.96578,0.0693 -24.16217,-0.61505 -31.18502,-0.19213 z"
           sodipodi:nodetypes="ccccccc"
           inkscape:label="path17darker" /><path
           id="path55"
           style="display:inline;fill:url(#linearGradient58);fill-opacity:1;fill-rule:evenodd;stroke-width:12.882;stroke-linecap:round;stroke-linejoin:round;stroke-miterlimit:2.1"
           d="m 119.5381,140.38136 46.18795,0.2376 c 0.61113,5.62829 0.22971,13.25955 0.24283,18.20651 -1.62603,3.56068 -2.91745,5.7358 -5.9477,10.22405 -5.13429,3.54831 -7.09933,4.10566 -9.29806,5.11549 -6.96471,0.13999 -24.16217,-0.61505 -31.18502,-0.19213 z"
           sodipodi:nodetypes="ccccccc"
           inkscape:label="path18flet" /><path
           id="path75"
           style="display:inline;fill:url(#radialGradient87);fill-rule:evenodd;stroke-width:12.882;stroke-linecap:round;stroke-linejoin:round;stroke-miterlimit:2.1"
           d="m 141.03493,155.67249 24.45352,-5.72773 c 0.61113,5.62829 0.46731,3.93375 0.48043,8.88071 -1.62603,3.56068 -2.91745,5.7358 -5.9477,10.22405 -5.13429,3.54831 -7.09933,4.10566 -9.29806,5.11549 -6.96471,0.13999 -2.54057,-0.61505 -9.56342,-0.19213 z"
           sodipodi:nodetypes="ccccccc"
           inkscape:label="path19corner" /><path
           id="path100"
           style="display:inline;fill:url(#radialGradient103);fill-rule:evenodd;stroke-width:12.882;stroke-linecap:round;stroke-linejoin:round;stroke-miterlimit:2.1"
           d="m 127.76225,153.06836 c 12.69025,-11.73261 39.58829,-22.88485 37.7262,-3.1236 0.61113,5.62829 0.46731,3.93375 0.48043,8.88071 -1.62603,3.56068 -2.91745,5.7358 -5.9477,10.22405 -5.13429,3.54831 -6.92113,3.80866 -9.11986,4.81849 -3.60454,0.098 -5.67992,0.18598 -9.74162,0.10487 -21.95156,-0.84816 -11.65605,-12.9828 -13.39745,-20.90452 z"
           sodipodi:nodetypes="ccccccc"
           inkscape:label="path20toplighter" /><rect
           style="fill:url(#linearGradient114);fill-opacity:1;fill-rule:evenodd;stroke-width:12.882;stroke-linecap:round;stroke-linejoin:round;stroke-miterlimit:2.1"
           id="rect103"
           width="46.153801"
           height="4.9896002"
           x="119.6316"
           y="135.13499" /><path
           id="rect117"
           style="display:inline;fill:#ce515b;fill-opacity:1;fill-rule:evenodd;stroke:#ce3d54;stroke-width:0.382;stroke-linecap:round;stroke-linejoin:round;stroke-miterlimit:2.1;stroke-dasharray:none;stroke-opacity:1"
           d="m 156.36307,145.62109 c -2.11277,0.13143 -4.19205,1.23853 -5.71438,1.79937 l 1.30638,6.71328 1.12499,-0.12609 c 1.57424,-0.5735 4.68956,-1.59577 4.54443,-2.73058 -0.68633,0.219 -3.85815,0.7791 -4.72426,1.37873 -0.20198,0.13984 -0.51227,-0.77828 -0.53227,-1.22783 1.07966,-1.19921 3.37132,-1.98149 4.96042,-2.46342 l -0.0589,-0.32453 c -1.65088,0.28361 -2.99853,1.14487 -4.84518,1.33687 -0.64659,-0.40725 -0.58332,-1.16989 -0.62322,-1.8805 2.15083,-1.60916 3.28147,-1.64102 4.60489,-1.97146 z m -7.27656,1.72237 c -2.11277,0.13143 -3.53885,0.61532 -5.06119,1.17616 v 0.35708 l 2.78794,-0.12609 0.98185,5.85907 h 0.70849 l -1.0387,-6.27558 2.02055,-0.48679 z m -9.5865,1.22732 c -2.31906,0.053 -4.74096,2.74889 -4.32428,4.57905 0.71404,3.13617 1.94157,3.54718 4.42867,2.68614 1.85409,-0.6419 3.48075,-2.2643 3.33675,-4.26124 -0.10501,-1.45609 -1.03587,-2.71151 -2.97967,-2.97863 -0.15282,-0.021 -0.30686,-0.0289 -0.46147,-0.0253 z m 0.59118,1.00252 c 1.31125,1e-4 1.76586,1.10823 1.86759,2.00143 0.16849,1.47948 -1.2751,2.49252 -2.50114,3.19515 -1.53913,0.88206 -3.65663,-0.15219 -3.65663,-1.64124 0,-1.48904 1.00428,-3.38371 4.16047,-3.55172 0.0441,-0.002 0.0874,-0.004 0.12971,-0.004 z m -7.39335,0.12971 c -0.0805,0.0151 -0.12615,0.20357 -0.17621,0.37103 -0.27916,1.54612 0.91059,5.27773 -0.22686,4.47002 -0.93073,-0.66093 -4.5775,-3.13366 -4.5775,-3.13366 -0.37303,-0.0875 -0.70388,-0.11127 -0.68678,0.38654 0.16043,1.99256 0.42464,3.96105 1.09554,5.83582 0.1615,0.54008 0.23419,0.5041 0.23719,0.015 0,0 -0.56341,-3.02166 0.50902,-3.54914 1.03777,-0.51043 3.47666,2.44904 4.25038,2.15336 0.65832,-0.25159 1.06687,-1.23215 0.89504,-1.91564 -0.34744,-1.38196 -1.05058,-4.26228 -1.05058,-4.26228 -0.12287,-0.28948 -0.20661,-0.38274 -0.26924,-0.37103 z m 27.4743,7.33598 c -11.02773,1.28277 -21.46743,4.79219 -32.20114,6.17792 -2.82911,0.10032 -2.29799,0.85844 0,0.95033 10.50599,-1.61535 21.01198,-4.62586 31.51797,-6.34121 2.97699,-0.99363 1.2489,-0.79963 0.68317,-0.78704 z"
           sodipodi:nodetypes="cccccsccccccccccccccccssssssscssscccscsccccssscssccccc" /></g><g
         transform="matrix(1.0126947,0,0,1.0126947,125.33799,84.354698)"
         id="g71">
<path
   style="opacity:0.864865;fill:#000b45;fill-rule:nonzero;stroke:none;stroke-width:0.426615;stroke-linecap:butt;stroke-linejoin:miter;stroke-miterlimit:4;stroke-dasharray:none;stroke-dashoffset:0"
   vector-effect="non-scaling-stroke"
   d="m 14.86,51.4 c 0,1.353096 -5.0054576,2.45 -11.18,2.45 -6.1745424,0 -11.18,-1.096904 -11.18,-2.45 0,-1.353097 5.0054576,-2.45 11.18,-2.45 6.1745424,0 11.18,1.096903 11.18,2.45 z"
   stroke-linecap="round"
   id="path1-4" /><path
   style="opacity:0.864865;fill:#001474;fill-rule:nonzero;stroke:none;stroke-width:0.667458;stroke-linecap:butt;stroke-linejoin:miter;stroke-miterlimit:4;stroke-dasharray:none;stroke-dashoffset:0"
   vector-effect="non-scaling-stroke"
   d="m 21.095,51.4 c 0,2.126295 -7.796963,3.85 -17.415,3.85 -9.6180372,0 -17.415,-1.723705 -17.415,-3.85 0,-2.126294 7.7969628,-3.85 17.415,-3.85 9.618037,0 17.415,1.723706 17.415,3.85 z"
   stroke-linecap="round"
   id="path2-4" /><path
   style="opacity:0.63964;fill:url(#SVGID_h_3);fill-rule:nonzero;stroke:none;stroke-width:0.559911;stroke-linecap:butt;stroke-linejoin:miter;stroke-miterlimit:4;stroke-dasharray:none;stroke-dashoffset:0"
   vector-effect="non-scaling-stroke"
   d="m 72.242652,29.769845 c 0.0016,5.471975 -9.337565,12.057017 -24.49975,17.274392 -15.162186,5.21737 -33.84331,8.274281 -49.005496,8.019081 -15.162187,-0.255205 -24.501605,-3.783743 -24.49975,-9.256292 -0.0019,-5.471939 9.337563,-12.057016 24.49975,-17.274392 15.162186,-5.21737 33.84331,-8.274281 49.005496,-8.019081 15.162185,0.255206 24.501603,3.783744 24.49975,9.256292 z"
   stroke-linecap="round"
   id="path3-5" /><path
   style="fill:url(#SVGID_j_4);fill-rule:nonzero;stroke:none;stroke-width:0.67;stroke-linecap:butt;stroke-linejoin:miter;stroke-miterlimit:4;stroke-dasharray:none;stroke-dashoffset:0"
   vector-effect="non-scaling-stroke"
   d="m 70.554139,43.288191 c 0.002,6.432288 -11.374851,12.376253 -29.84515,15.592595 -18.470299,3.216335 -41.2273042,3.216335 -59.697604,0 -18.4703,-3.216342 -29.847409,-9.160307 -29.84515,-15.592595 -0.0023,-6.432288 11.37485,-12.376253 29.84515,-15.592595 18.4702998,-3.216335 41.227305,-3.216335 59.697604,0 18.470299,3.216342 29.847408,9.160307 29.84515,15.592595 z"
   stroke-linecap="round"
   id="path5-9" /><path
   style="fill:url(#SVGID_k_5);fill-rule:nonzero;stroke:none;stroke-width:0.55;stroke-linecap:butt;stroke-linejoin:miter;stroke-miterlimit:4;stroke-dasharray:none;stroke-dashoffset:0"
   vector-effect="non-scaling-stroke"
   d="m 3.50945,-27.169233 c -32.998488,2e-6 -59.780227,7.977282 -59.780218,19.6875035 v 0.993762 C -55.73436,26.058382 -29.16867,52.309519 3.498406,52.309524 c 32.799663,0 59.454164,-26.465577 59.780226,-59.195004 -0.02233,0.3426445 -0.07261,0.684893 -0.132511,1.0268995 0.05961,-0.341099 0.11028,-0.6851735 0.132511,-1.0268995 0.01298,-0.199837 0.01105,-0.3963135 0.01105,-0.5962605 0,-11.7169485 -26.781733,-19.6874915 -59.7802205,-19.6874925 z"
   stroke-linecap="round"
   id="path7-1" /><path
   style="fill:url(#SVGID_l_6);fill-rule:nonzero;stroke:none;stroke-width:0.55;stroke-linecap:butt;stroke-linejoin:miter;stroke-miterlimit:4;stroke-dasharray:none;stroke-dashoffset:0"
   vector-effect="non-scaling-stroke"
   d="m 3.595336,-24.719224 c -31.170573,-3e-6 -56.467683,7.264253 -56.467688,17.9318575 0.0034,0.125147 0.0074,0.250338 0.01105,0.3754245 0.119297,31.066728 25.362075,56.246839 56.4566297,56.246839 31.0354603,6e-6 56.2422793,-25.084922 56.4566363,-56.070179 0.01226,-0.18205 0.02211,-0.369952 0.02211,-0.55209 0,-10.673736 -25.308151,-17.93185 -56.4787133,-17.931852 z"
   stroke-linecap="round"
   id="path9" /><path
   style="opacity:0.63964;fill:#1a2370;fill-rule:nonzero;stroke:none;stroke-width:0.35;stroke-linecap:butt;stroke-linejoin:miter;stroke-miterlimit:4;stroke-dasharray:none;stroke-dashoffset:0"
   vector-effect="non-scaling-stroke"
   d="m 3.4256875,-29.039062 c -16.3800845,0 -31.2254815,1.967084 -42.0109375,5.414062 -5.39273,1.723491 -9.765668,4.870918 -12.829687,7.295313 -3.064019,2.424394 -4.834379,6.267285 -4.834376,9.3406245 v 0.984375 c -4.5e-5,0.00364 -4.5e-5,0.00728 0,0.01092 0.535353,32.4824325 27.061745,58.6906215 59.664063,58.6906245 32.719862,-1e-5 59.315088,-26.396131 59.664062,-59.0406245 8.1e-5,-0.00739 -7.7e-5,-0.01449 0,-0.021875 7.8e-5,-0.00739 -7.3e-5,-0.01449 0,-0.021875 0.0036,-0.032725 0.0036,-0.065723 0,-0.098437 0.0069,-0.173103 0.01092,-0.3456775 0.01092,-0.503125 0,-3.0749065 -1.759393,-6.9268285 -4.823437,-9.3515615 -3.064044,-2.424734 -7.447888,-5.561301 -12.840625,-7.284375 -10.785474,-3.446146 -25.619955,-5.414063 -42,-5.414063 z m 0,3.007812 c 16.3067795,0 31.0759335,1.967252 41.7265625,5.370312 5.325316,1.701532 9.61374,3.772287 12.545313,6.092188 2.931571,2.319902 4.484375,4.851448 4.484375,7.5796875 0,0.201012 3.49e-4,0.393008 -0.01092,0.56875 -3.49e-4,0.00703 3.5e-4,0.014805 0,0.021875 -0.02117,0.30807 -0.0637,0.6174315 -0.120312,0.940625 l 0.06562,0.01092 C 61.288968,26.283355 35.337651,51.789034 3.4147675,51.789045 -28.700035,51.789042 -54.814155,25.990804 -55.341483,-6.004705 V -6.98908 c 0,-2.726472 1.552782,-5.260076 4.484375,-7.579687 2.931593,-2.319611 7.230927,-4.379302 12.55625,-6.08125 10.650648,-3.403894 25.419807,-5.38125 41.726563,-5.38125 z"
   stroke-linecap="round"
   id="path10"
   clip-path="none" /><path
   style="opacity:0.63964;fill:#1a2370;fill-rule:nonzero;stroke:none;stroke-width:0.35;stroke-linecap:butt;stroke-linejoin:miter;stroke-miterlimit:4;stroke-dasharray:none;stroke-dashoffset:0"
   vector-effect="non-scaling-stroke"
   d="m 3.4256875,-29.039062 c -16.3800845,0 -31.2254815,1.967084 -42.0109375,5.414062 -5.39273,1.723491 -9.765668,4.870918 -12.829687,7.295313 -3.064019,2.424394 -4.834379,6.267285 -4.834376,9.3406245 v 0.984375 c -4.5e-5,0.00364 -4.5e-5,0.00728 0,0.01092 0.535353,32.4824325 27.061745,58.6906215 59.664063,58.6906245 32.719862,-1e-5 59.315088,-26.396131 59.664062,-59.0406245 8.1e-5,-0.00739 -7.7e-5,-0.01449 0,-0.021875 7.8e-5,-0.00739 -7.3e-5,-0.01449 0,-0.021875 0.0036,-0.032725 0.0036,-0.065723 0,-0.098437 0.0069,-0.173103 0.01092,-0.3456775 0.01092,-0.503125 0,-3.0749065 -1.759393,-6.9268285 -4.823437,-9.3515615 -3.064044,-2.424734 -7.447888,-5.561301 -12.840625,-7.284375 -10.785474,-3.446146 -25.619955,-5.414063 -42,-5.414063 z m 0,3.007812 c 16.3067795,0 31.0759335,1.967252 41.7265625,5.370312 5.325316,1.701532 9.61374,3.772287 12.545313,6.092188 2.931571,2.319902 4.484375,4.851448 4.484375,7.5796875 0,0.201012 3.49e-4,0.393008 -0.01092,0.56875 -3.49e-4,0.00703 3.5e-4,0.014805 0,0.021875 -0.02117,0.30807 -0.0637,0.6174315 -0.120312,0.940625 l 0.06562,0.01092 C 61.288968,26.283355 35.337651,51.789034 3.4147675,51.789045 -28.700035,51.789042 -54.814155,25.990804 -55.341483,-6.004705 V -6.98908 c 0,-2.726472 1.552782,-5.260076 4.484375,-7.579687 2.931593,-2.319611 7.230927,-4.379302 12.55625,-6.08125 10.650648,-3.403894 25.419807,-5.38125 41.726563,-5.38125 z"
   stroke-linecap="round"
   id="path12"
   clip-path="none" /><path
   style="fill:url(#SVGID_p_7);fill-rule:nonzero;stroke:none;stroke-width:0.55;stroke-linecap:butt;stroke-linejoin:miter;stroke-miterlimit:4;stroke-dasharray:none;stroke-dashoffset:0"
   vector-effect="non-scaling-stroke"
   d="M 16.365186,-19.256758 C -5.4926885,-41.114632 -28.516726,-53.57052 -36.273454,-45.813779 l -0.658255,0.658259 c -21.203073,21.913693 -20.994722,56.899043 0.643626,78.537396 21.726171,21.726177 56.912387,21.851318 78.808024,0.38764 -0.241741,0.21219 -0.501754,0.405575 -0.76797,0.592438 0.265413,-0.186456 0.526889,-0.380804 0.76797,-0.592438 0.140976,-0.123767 0.269819,-0.255206 0.402265,-0.38764 7.761198,-7.761193 -4.699156,-30.7807615 -26.55702,-52.638634 z"
   stroke-linecap="round"
   id="path13-2" /><path
   style="fill:url(#SVGID_q_8);fill-rule:nonzero;stroke:none;stroke-width:0.55;stroke-linecap:butt;stroke-linejoin:miter;stroke-miterlimit:4;stroke-dasharray:none;stroke-dashoffset:0"
   vector-effect="non-scaling-stroke"
   d="m 14.80319,-17.578353 c -20.6470765,-20.647081 -42.21541,-32.59187 -49.281528,-25.525752 -0.08069,0.0851 -0.160945,0.170701 -0.241356,0.255989 -20.499275,20.657319 -20.457768,54.056948 0.138962,74.653678 20.55758,20.557587 53.870333,20.638332 74.53666,0.255987 0.128722,-0.112454 0.259677,-0.230423 0.380325,-0.351065 C 47.406431,24.640305 35.450256,3.068722 14.80319,-17.578353 Z"
   stroke-linecap="round"
   id="path15-7" /><path
   style="opacity:0.63964;fill:#1a2370;fill-rule:nonzero;stroke:none;stroke-width:0.325269;stroke-linecap:butt;stroke-linejoin:miter;stroke-miterlimit:4;stroke-dasharray:none;stroke-dashoffset:0"
   vector-effect="non-scaling-stroke"
   d="M 17.45055,-20.333075 C 6.6864948,-31.09713 -4.361707,-39.560022 -13.71445,-44.38245 c -4.676374,-2.411214 -9.618329,-3.21655 -13.225,-3.636875 -3.606671,-0.420325 -7.295379,0.941625 -9.315,2.96125 l -0.646875,0.646875 c -0.0024,0.0024 -0.0048,0.0048 -0.0072,0.0072 -20.993795,21.697402 -20.784691,56.351555 0.639687,77.775938 21.501631,21.501616 56.324516,21.632456 78.005938,0.409687 0.0049,-0.0048 0.0095,-0.0096 0.01438,-0.01438 0.0049,-0.0048 0.0095,-0.0096 0.01437,-0.01438 0.02385,-0.01916 0.04554,-0.04084 0.06469,-0.06469 0.118307,-0.1092 0.234335,-0.219984 0.3378,-0.323449 2.020654,-2.020654 3.395743,-5.70809 2.975626,-9.315 -0.420119,-3.606911 -1.239758,-8.548896 -3.65125,-13.225 C 36.66975,1.4725074 28.21458,-9.5690681 17.45055,-20.333098 Z m -1.976563,1.976563 c 10.715884,10.7158835 19.128562,21.7140925 23.89125,30.949374 2.381345,4.617644 3.838671,8.796532 4.240625,12.247501 0.401955,3.450968 -0.241219,6.134969 -2.034062,7.927812 -0.132094,0.132094 -0.258032,0.258492 -0.380926,0.366574 -0.0049,0.0044 -0.0095,0.01 -0.01438,0.01438 -0.216361,0.188531 -0.447603,0.363878 -0.697188,0.539062 l 0.03595,0.0503 c -21.395,20.30761 -55.209597,20.014763 -76.1875,-0.963126 -21.104011,-21.104015 -20.365734,-54.407114 -0.6325,-76.589999 l 0.646875,-0.646875 c 1.791682,-1.791682 4.477022,-2.436223 7.927813,-2.034063 3.450791,0.40216 7.629578,1.873925 12.2475,4.255 9.2358409,4.762152 20.2406946,13.168195 30.956562,23.884063 z"
   stroke-linecap="round"
   id="path17-8"
   clip-path="none" /><path
   id="path86"
   d="M 15.799978,-18.796965 C -5.6799428,-40.276886 -28.305852,-52.517394 -35.92846,-44.894777 l -0.646874,0.646875 c -20.836441,21.534776 -20.631695,55.915175 0.6325,77.179375 21.350495,21.350495 55.92829,21.473476 77.445312,0.380937 -0.237553,0.208523 -0.493076,0.39856 -0.754687,0.582188 0.260826,-0.183221 0.517778,-0.374213 0.754687,-0.582188 0.13855,-0.121626 0.265167,-0.250792 0.395313,-0.380937 7.626995,-7.626996 -4.617899,-30.2485239 -26.097813,-51.728438 z"
   stroke-linecap="round"
   style="stroke-width:0.325269" /><path
   style="opacity:0.63964;fill:#1a2370;fill-rule:nonzero;stroke:none;stroke-width:0.325269;stroke-linecap:butt;stroke-linejoin:miter;stroke-miterlimit:4;stroke-dasharray:none;stroke-dashoffset:0"
   vector-effect="non-scaling-stroke"
   d="M 17.45055,-20.333075 C 6.6864948,-31.09713 -4.361707,-39.560022 -13.71445,-44.38245 c -4.676374,-2.411214 -9.618329,-3.21655 -13.225,-3.636875 -3.606671,-0.420325 -7.295379,0.941625 -9.315,2.96125 l -0.646875,0.646875 c -0.0024,0.0024 -0.0048,0.0048 -0.0072,0.0072 -20.993795,21.697402 -20.784691,56.351555 0.639687,77.775938 21.501631,21.501616 56.324516,21.632456 78.005938,0.409687 0.0049,-0.0048 0.0095,-0.0096 0.01438,-0.01438 0.0049,-0.0048 0.0095,-0.0096 0.01437,-0.01438 0.02385,-0.01916 0.04554,-0.04084 0.06469,-0.06469 0.118307,-0.1092 0.234335,-0.219984 0.3378,-0.323449 2.020654,-2.020654 3.395743,-5.70809 2.975626,-9.315 -0.420119,-3.606911 -1.239758,-8.548896 -3.65125,-13.225 C 36.66975,1.4725074 28.21458,-9.5690681 17.45055,-20.333098 Z m -1.976563,1.976563 c 10.715884,10.7158835 19.128562,21.7140925 23.89125,30.949374 2.381345,4.617644 3.838671,8.796532 4.240625,12.247501 0.401955,3.450968 -0.241219,6.134969 -2.034062,7.927812 -0.132094,0.132094 -0.258032,0.258492 -0.380926,0.366574 -0.0049,0.0044 -0.0095,0.01 -0.01438,0.01438 -0.216361,0.188531 -0.447603,0.363878 -0.697188,0.539062 l 0.03595,0.0503 c -21.395023,20.30761 -55.406252,20.209568 -76.187523,-0.963126 -20.713862,-21.104015 -19.043201,-55.50449 -0.632499,-76.589999 l 0.646875,-0.646875 c 1.791681,-1.791682 4.477021,-2.436223 7.927812,-2.034063 3.450791,0.40216 7.629578,1.873925 12.2475,4.255 9.2358409,4.762152 20.2406946,13.168195 30.956562,23.884063 z"
   stroke-linecap="round"
   id="path19"
   clip-path="none" /><path
   id="path94"
   d="M 15.799978,-18.796965 C -5.6799428,-40.276886 -28.305852,-52.517394 -35.92846,-44.894777 l -0.646874,0.646875 c -20.836441,21.534776 -20.631695,55.915175 0.6325,77.179375 21.350495,21.350495 55.92829,21.473476 77.445312,0.380937 -0.237553,0.208523 -0.493076,0.39856 -0.754687,0.582188 0.260826,-0.183221 0.517778,-0.374213 0.754687,-0.582188 0.13855,-0.121626 0.265167,-0.250792 0.395313,-0.380937 7.626995,-7.626996 -4.617899,-30.2485239 -26.097813,-51.728438 z"
   stroke-linecap="round"
   style="fill:#1a2370;fill-opacity:0.00543476;stroke-width:0.325269" /><path
   style="fill:url(#SVGID_s_9);fill-rule:nonzero;stroke:none;stroke-width:0.55;stroke-linecap:butt;stroke-linejoin:miter;stroke-miterlimit:4;stroke-dasharray:none;stroke-dashoffset:0"
   vector-effect="non-scaling-stroke"
   d="M 28.2275,-23.06975 V 44.184938 C 46.949885,35.083153 59.905383,15.943433 60.05875,-6.226 60.071015,-6.40805 60.07591,-6.6110495 60.07591,-6.7931875 60.075932,-14.443936 47.071787,-20.3438 28.2275,-23.06975 Z"
   stroke-linecap="round"
   id="path20" /><path
   style="fill:url(#SVGID_u_10);fill-rule:evenodd;stroke:none;stroke-width:0.55;stroke-linecap:butt;stroke-linejoin:miter;stroke-miterlimit:4;stroke-dasharray:none;stroke-dashoffset:0"
   vector-effect="non-scaling-stroke"
   d="m -37.084006,-39.032771 c 2.375903,-5.188295 5.833564,-6.583887 11.605421,-5.193314 l -0.740999,-0.921215 c -5.715102,-0.843964 -9.419313,0.878005 -10.864422,6.114529 z"
   stroke-linecap="round"
   id="path22" /><path
   style="fill:url(#SVGID_w_11);fill-rule:nonzero;stroke:none;stroke-width:0.5;stroke-linecap:butt;stroke-linejoin:miter;stroke-miterlimit:4;stroke-dasharray:none;stroke-dashoffset:0"
   vector-effect="non-scaling-stroke"
   d="m 53.084505,-5.798705 c 0,27.36186 -22.18117,49.543025 -49.543025,49.543025 -27.36186,0 -49.54303,-22.181165 -49.54303,-49.543025 0,-27.36186 22.18117,-49.54303 49.54303,-49.54303 27.361855,0 49.543025,22.18117 49.543025,49.54303 z"
   stroke-linecap="round"
   id="path29" /><path
   style="fill:url(#SVGID_x_12);fill-rule:nonzero;stroke:none;stroke-width:0.5;stroke-linecap:butt;stroke-linejoin:miter;stroke-miterlimit:4;stroke-dasharray:none;stroke-dashoffset:0"
   vector-effect="non-scaling-stroke"
   d="m 53.209505,-5.563705 c 0,17.70002 -9.44285,34.05551 -24.771515,42.905515 -15.328665,8.85001 -34.21436,8.85001 -49.543025,0 L 3.666475,-5.563705 Z"
   stroke-linecap="round"
   id="path31" /><path
   style="opacity:0.343324;fill:url(#SVGID_y_13);fill-rule:nonzero;stroke:none;stroke-width:0.47;stroke-linecap:butt;stroke-linejoin:miter;stroke-miterlimit:4;stroke-dasharray:none;stroke-dashoffset:0"
   vector-effect="non-scaling-stroke"
   d="m -45.293004,-8.1788125 c -0.02366,0.6243339 -0.02937,1.2499086 -0.02937,1.88 0,26.9933265 21.916046,48.8946925 48.9093726,48.8946875 26.9933264,0 48.8947014,-21.90137 48.8946874,-48.8946875 0,-0.6300914 -0.0057,-1.2556661 -0.02938,-1.88 C 51.462387,17.943581 29.950229,38.835875 3.5869936,38.835875 -22.776242,38.83588 -44.303071,17.94359 -45.293004,-8.1788125 Z"
   stroke-linecap="round"
   id="path33" /><path
   style="opacity:0.556164;fill:url(#SVGID_C_14);fill-rule:nonzero;stroke:none;stroke-width:0.55;stroke-linecap:butt;stroke-linejoin:miter;stroke-miterlimit:4;stroke-dasharray:none;stroke-dashoffset:0"
   vector-effect="non-scaling-stroke"
   d="M 47.672304,16.275138 C 38.305375,36.909086 19.601069,35.274426 -7.079173,8.5941845 -33.733954,-18.060599 -38.673768,-34.906568 -25.638913,-44.720939 c 15.125843,-11.388743 42.292785,-14.237201 59.801045,0.200717 17.685316,14.583913 22.993206,39.9056285 13.510172,60.79536 z"
   stroke-linecap="round"
   id="path35" /><path
   id="path37"
   clip-path="none"
   style="fill:url(#SVGID_D_15);fill-rule:nonzero;stroke:none;stroke-width:0.325269;stroke-linecap:butt;stroke-linejoin:miter;stroke-miterlimit:4;stroke-dasharray:none;stroke-dashoffset:0"
   d="m -31.078125,-45.568359 c -0.954172,-0.04564 -1.702233,0.233333 -2.216797,0.880859 -0.0048,0.0049 -0.01075,0.0088 -0.01563,0.01367 -0.0023,0.0024 -0.0036,0.0054 -0.0059,0.0078 -22.80098,22.800982 -23.1828,57.563294 -2.667969,78.078125 20.454002,20.454007 54.349095,23.361998 78.214844,-2.34375 0.0046,-0.005 0.0088,-0.0089 0.01367,-0.01367 0.0098,-0.0096 4.334003,-5.943512 4.34375,-5.953126 0.283833,-0.263961 0.301092,-0.708365 0.03711,-0.992187 l -6.199219,6.865234 c -20.87655,20.87655 -55.920836,19.575263 -74.734375,0.761719 -18.8259,-18.8259 -20.544619,-52.209285 1.320313,-74.074219 z"
   sodipodi:nodetypes="ccscssscccscc" /><path
   style="opacity:0.468468;fill:url(#SVGID_G_16);fill-rule:nonzero;stroke:none;stroke-width:0.325269;stroke-linecap:butt;stroke-linejoin:miter;stroke-miterlimit:4;stroke-dasharray:none;stroke-dashoffset:0"
   vector-effect="non-scaling-stroke"
   d="m -32.334325,-44.727975 c -0.278307,-0.241875 -0.696583,-0.226154 -0.955938,0.03594 -0.0048,0.0049 -0.0095,0.0095 -0.01437,0.01437 -0.0023,0.0024 -0.0049,0.0048 -0.0072,0.0072 -22.801004,22.801005 -23.181414,57.562961 -2.666562,78.077813 20.454022,20.454027 54.348602,23.362648 78.214375,-2.343125 0.0046,-0.005 0.0095,-0.0096 0.01438,-0.01438 0.0098,-0.0096 4.333605,-5.943738 4.343352,-5.953352 0.283834,-0.263962 0.299913,-0.708053 0.03594,-0.991875 -0.263984,-0.283811 -0.70805,-0.299911 -0.991872,-0.03594 -1.807639,1.579217 -7.021693,3.193228 -10.551805,3.024806 C 31.555864,26.92506 22.675336,32.049048 18.035677,30.137029 8.7563597,26.312989 -0.2346531,18.206073 -10.160885,8.279841 c -9.995563,-9.9955585 -19.048094,-19.983095 -22.849063,-29.303437 -1.900483,-4.660171 -1.565265,-12.145362 -1.696249,-15.66875 -0.130631,-3.513816 0.78444,-5.245806 2.414999,-7.015001 0.0044,-0.0048 0.0099,-0.0096 0.01438,-0.01437 0.129251,-0.139462 0.196177,-0.325523 0.185328,-0.515358 -0.01085,-0.189838 -0.09852,-0.367073 -0.242828,-0.490891 z m -4.443874,6.180709 c -0.31107,1.359668 -0.431832,3.305498 -0.409687,4.449063 -0.170619,13.416802 15.65727,32.1965799 26.042311,43.362728 9.9071557,9.252557 28.653388,23.174922 42.801562,25.307187 1.68475,0.08038 3.225189,-0.06496 4.635938,-0.380937 C 15.652944,54.829756 -16.410142,51.466213 -35.2237,32.65265 -54.049619,13.826731 -53.357351,-18.406632 -36.778199,-38.547266 Z"
   stroke-linecap="round"
   id="path40"
   clip-path="none" /><path
   style="fill:url(#SVGID_I_17);fill-rule:nonzero;stroke:none;stroke-width:0.325269;stroke-linecap:butt;stroke-linejoin:miter;stroke-miterlimit:4;stroke-dasharray:none;stroke-dashoffset:0"
   vector-effect="non-scaling-stroke"
   d="m -32.335725,-44.749375 c -0.278307,-0.241875 -0.696583,-0.226154 -0.955937,0.03594 -0.0048,0.0049 -0.0095,0.0095 -0.01438,0.01437 -0.0023,0.0024 -0.0049,0.0048 -0.0072,0.0072 -22.801003,22.801005 -21.916414,56.067961 -1.401562,76.582813 20.454022,20.454027 51.818602,22.672648 74.189375,0.301875 0.0048,-0.0048 0.0095,-0.0096 0.01438,-0.01438 0.0098,-0.0096 7.093605,-7.093738 7.103352,-7.103352 0.283834,-0.263962 0.299913,-0.708053 0.03594,-0.991875 -0.263984,-0.283811 -0.70805,-0.299911 -0.991872,-0.03594 -1.807639,1.579217 -9.781693,4.343228 -13.311805,4.174806 -3.530111,-0.168422 -9.650639,3.805566 -14.290297,1.893547 -9.2793183,-3.82404 -20.1103311,-11.010956 -30.036563,-20.937188 -9.995563,-9.9955585 -17.208094,-20.903095 -21.009062,-30.223437 -1.900484,-4.660171 -2.945266,-8.925362 -3.076251,-12.448751 -0.13063,-3.513815 2.164441,-8.465805 3.795,-10.235 0.0044,-0.0048 0.0099,-0.0096 0.01438,-0.01437 0.12925,-0.139462 0.196176,-0.325523 0.185327,-0.515358 -0.01085,-0.189838 -0.09852,-0.367073 -0.242827,-0.490891 z m -5.823874,9.400709 c -0.31107,1.359668 -0.78065,2.877841 -0.409687,4.449063 3.573873,15.137349 15.19727,29.8965799 25.582311,41.062728 9.9071557,9.252557 27.733388,23.404922 41.881562,25.537187 1.68475,0.08038 3.225189,-0.06496 4.635938,-0.380937 C 13.390412,51.864179 -15.146542,49.949813 -33.9601,31.13625 -52.786019,12.310331 -54.738751,-15.208032 -38.159599,-35.348666 Z"
   stroke-linecap="round"
   id="path42"
   clip-path="none" /><path
   style="opacity:0.554054;fill:url(#SVGID_K_18);fill-rule:evenodd;stroke:none;stroke-width:0.325269;stroke-linecap:butt;stroke-linejoin:miter;stroke-miterlimit:4;stroke-dasharray:none;stroke-dashoffset:0"
   vector-effect="non-scaling-stroke"
   d="M -36.138166,-19.947429 C -30.562027,-5.5737258 -14.860627,13.62471 6.6791425,27.904782 -22.119429,14.115597 -38.48981,-4.0612504 -36.138166,-19.947429 Z"
   stroke-linecap="round"
   id="path43" /><path
   style="opacity:0.702703;fill:url(#SVGID_M_19);fill-rule:evenodd;stroke:none;stroke-width:0.325269;stroke-linecap:butt;stroke-linejoin:miter;stroke-miterlimit:4;stroke-dasharray:none;stroke-dashoffset:0"
   vector-effect="non-scaling-stroke"
   d="m -32.809402,-13.578331 c -0.255896,1.302142 -0.762567,3.8289867 0.206448,5.7343366 1.203597,2.5613191 2.741708,4.9512353 4.407635,7.2332769 6.355944,7.891921 14.948071,13.7015635 23.0000712,19.7316195 C -11.628722,14.308624 -30.60013,-4.9511395 -32.809402,-13.578331 Z"
   stroke-linecap="round"
   id="path45" /><path
   style="fill:#f2fcfc;fill-opacity:0.68;fill-rule:evenodd;stroke:none;stroke-width:0.325269;stroke-linecap:butt;stroke-linejoin:miter;stroke-miterlimit:4;stroke-dasharray:none;stroke-dashoffset:0"
   vector-effect="non-scaling-stroke"
   d="m -31.758215,-10.648359 c 0.18995,0.9551419 0.259978,2.146098 0.76043,2.9897012 0.989127,1.8837805 2.121414,3.6916518 3.344278,5.4320112 1.611086,2.3270204 3.547776,4.4095577 5.600569,6.3509394 1.057235,1.0007415 2.159583,1.9549287 3.31025,2.8470757 0.489406,0.3769631 1.068725,0.6246828 1.596872,0.9453741 -6.942182,-7.2747395 -11.009413,-12.6371458 -14.612399,-18.5651016 z"
   stroke-linecap="round"
   id="path46" /><path
   style="fill:#f2fcfc;fill-opacity:0.68;fill-rule:evenodd;stroke:none;stroke-width:0.325269;stroke-linecap:butt;stroke-linejoin:miter;stroke-miterlimit:4;stroke-dasharray:none;stroke-dashoffset:0"
   vector-effect="non-scaling-stroke"
   d="m -30.269765,-8.4140088 c 0.29635,2.5707606 4.496693,7.47132 7.424899,9.9401009 -3.434682,-3.537239 -5.891913,-7.9796453 -7.424899,-9.9401009 z"
   stroke-linecap="round"
   id="path47" /><path
   style="opacity:0.556164;fill:url(#SVGID_C_20);fill-rule:nonzero;stroke:none;stroke-width:0.55;stroke-linecap:butt;stroke-linejoin:miter;stroke-miterlimit:4;stroke-dasharray:none;stroke-dashoffset:0"
   vector-effect="non-scaling-stroke"
   d="m 5.4027635,-54.326623 c -11.578732,-0.08165 -23.0102485,3.552004 -31.0458515,9.602274 -13.034855,9.814371 -8.096394,26.661132 18.5583875,53.315913 1.8193725,1.819372 3.6048595,3.506844 5.3496245,5.094166 C 20.205183,13.311224 57.279,10.933893 50.950992,-17.157717 48.580206,-27.682221 42.823801,-37.388243 34.164502,-44.528998 25.957507,-51.296771 15.619289,-54.254581 5.4027635,-54.326623 Z"
   stroke-linecap="round"
   id="path48" /><path
   style="fill:#192270;fill-opacity:0.259058;fill-rule:nonzero;stroke:none;stroke-width:0.35;stroke-linecap:butt;stroke-linejoin:miter;stroke-miterlimit:4;stroke-dasharray:none;stroke-dashoffset:0"
   vector-effect="non-scaling-stroke"
   d="m -52.92975,-9.857125 c -0.39579,0.02772 -0.702082,0.3579345 -0.7,0.7546875 2.1e-5,0.00739 -2.1e-5,0.01449 0,0.021875 1.37e-4,0.00357 -1.4e-4,0.00738 0,0.01092 0,34.6971795 25.984871,59.3359375 57.203125,59.3359375 31.125689,3e-6 56.678125,-22.17627 56.678125,-56.21875 0,-0.00735 -5.6e-5,-0.014525 0,-0.021875 1.12e-4,-0.014735 -0.06621,-7.621358 -0.06611,-7.63609 0.01512,-0.416801 -0.310541,-0.766931 -0.727345,-0.78203 -0.416801,-0.01508 -0.766927,0.310541 -0.78203,0.727342 -0.1738,2.576956 -0.501821,10.4827768 -3.315923,13.04058384 C 52.545989,1.9332828 47.342723,6.70498 42.35775,8.7803575 32.387804,12.931113 18.678511,15.703795 3.573375,15.703795 c -15.210636,3e-6 -28.997643,-2.811414 -38.98125,-7.0109375 -4.991801,-2.099762 -9.031998,-4.5500735 -11.8125,-7.13125 -2.772949,-2.5741625 -4.794517,-8.0882305 -4.9,-10.675 -2.87e-4,-0.00704 2.66e-4,-0.01484 0,-0.021875 -0.0078,-0.204456 -0.09842,-0.3969455 -0.251111,-0.5331305 -0.152694,-0.1361885 -0.354256,-0.2043335 -0.558264,-0.1887445 z m 2.721505,11.583922 c 0.797846,1.271214 1.595689,2.783634 3.073438,3.696875 14.236799,8.798297 34.310538,11.184257 50.708182,11.778578 14.578042,-0.498064 38.909584,-3.293399 51.296875,-12.4359375 1.343034,-1.220716 2.404521,-2.503375 3.2375,-3.8171875 -2.735562,27.912437 -25.905043,48.168753 -54.534375,48.16875 -28.648137,0 -51.071797,-19.452111 -53.78162,-47.391078 z"
   stroke-linecap="round"
   id="path50"
   clip-path="none"
   sodipodi:nodetypes="ssscssscscsssssssssscscccsc" /><path
   style="opacity:0.468468;fill:#0c1138;fill-opacity:0.82;fill-rule:nonzero;stroke:none;stroke-width:0.35;stroke-linecap:butt;stroke-linejoin:miter;stroke-miterlimit:4;stroke-dasharray:none;stroke-dashoffset:0"
   vector-effect="non-scaling-stroke"
   d="m -52.92675,-9.847125 c -0.39579,0.02772 -0.702082,0.3579345 -0.7,0.7546875 2.1e-5,0.00739 -2.1e-5,0.01449 0,0.021875 1.37e-4,0.00357 -1.4e-4,0.00738 0,0.01092 0,34.6971795 26.159871,61.4359375 57.378125,61.4359375 31.125689,3e-6 59.128125,-23.57627 57.728125,-61.29375 -2.76e-4,-0.00735 -5.6e-5,-0.014525 0,-0.021875 1.12e-4,-0.014735 -1.357325,-4.877749 -1.357223,-4.89248 0.01512,-0.416801 -0.310541,-0.766931 -0.727346,-0.78203 -0.4168,-0.01508 -0.766927,0.310541 -0.782029,0.727342 -0.1738,2.576956 1.185959,8.2680601 -1.628142,10.8258671 C 54.170658,-0.50282392 47.345723,6.71498 42.36075,8.7903575 32.390804,12.941113 19.38151,13.613795 4.276375,13.613795 c -15.210636,3e-6 -29.697643,-0.711414 -39.68125,-4.9109375 -4.991802,-2.099762 -10.431998,-8.0500735 -13.2125,-10.63125 -2.772949,-2.5741625 -3.394517,-4.5882305 -3.5,-7.175 -2.87e-4,-0.00704 2.66e-4,-0.01484 0,-0.021875 -0.0078,-0.204456 -0.09842,-0.3969455 -0.251111,-0.5331305 -0.152694,-0.1361885 -0.354256,-0.2043335 -0.558264,-0.1887445 z m 1.321505,8.083922 c 0.797846,1.271214 2.186486,2.8436205 3.073438,3.696875 10.078617,10.338254 36.410538,12.584257 52.808182,13.178578 14.578042,-0.498064 39.434584,-4.168399 51.821875,-13.3109375 1.343034,-1.220716 2.404521,-2.503375 3.2375,-3.8171875 0,31.407145 -26.955044,53.243753 -55.584375,53.24375 -28.648137,0 -52.646797,-25.052111 -55.35662,-52.991078 z"
   stroke-linecap="round"
   id="path52"
   clip-path="none"
   sodipodi:nodetypes="ssscssscscsssssssssscccccsc" /><path
   id="path54-9"
   clip-path="none"
   style="fill:#253598;fill-rule:nonzero;stroke:none;stroke-width:0.35;stroke-linecap:butt;stroke-linejoin:miter;stroke-miterlimit:4;stroke-dasharray:none;stroke-dashoffset:0"
   d="m 59.82094,-14.284114 0.212263,6.6688796 c 0,31.7686634 -27.655854,57.4433624 -56.2851561,57.4433594 -28.6481079,0 -55.3554689,-24.094464 -55.3554689,-57.3671875 l -2.021484,-1.5527344 c 2.1e-5,0.00739 -2.1e-5,0.014099 0,0.021484 1.37e-4,0.00357 -1.4e-4,0.00623 0,0.00977 0,34.6971449 26.158731,61.4374999 57.3769529,61.4374999 31.1256581,3e-6 59.1285141,-23.577479 57.7285151,-61.2949218 -2.75e-4,-0.00735 -5.5e-5,-0.014134 0,-0.021484 1.12e-4,-0.014735 -0.43137,-2.8608802 -0.927107,-4.5614582 0.01512,-0.4168 -0.311712,-0.768104 -0.728515,-0.783203 z"
   sodipodi:nodetypes="ccsccscsssccc" /><path
   style="opacity:0.554054;fill:url(#SVGID_K_21);fill-rule:evenodd;stroke:none;stroke-width:0.35;stroke-linecap:butt;stroke-linejoin:miter;stroke-miterlimit:4;stroke-dasharray:none;stroke-dashoffset:0"
   vector-effect="non-scaling-stroke"
   d="m -36.914474,11.898387 c 15.179227,6.693799 41.7334505,9.354586 68.987677,3.830904 -32.4037275,11.420185 -58.689662,10.0457 -68.987677,-3.830904 z"
   stroke-linecap="round"
   id="path55-6" /><path
   style="opacity:0.702703;fill:url(#SVGID_M_22);fill-rule:evenodd;stroke:none;stroke-width:0.35;stroke-linecap:butt;stroke-linejoin:miter;stroke-miterlimit:4;stroke-dasharray:none;stroke-dashoffset:0"
   vector-effect="non-scaling-stroke"
   d="m -29.506101,14.212988 c 0.796057,1.185464 2.333145,3.493575 4.520162,4.206003 2.86461,1.03305 5.853327,1.681162 8.857216,2.149945 10.8407665,1.168678 21.7986344,-0.94843 32.513242,-2.486865 -8.5565503,1.233519 -37.645485,1.014117 -45.89062,-3.869083 z"
   stroke-linecap="round"
   id="path57-0" /><path
   style="fill:#f2fcfc;fill-opacity:0.68;fill-rule:evenodd;stroke:none;stroke-width:0.35;stroke-linecap:butt;stroke-linejoin:miter;stroke-miterlimit:4;stroke-dasharray:none;stroke-dashoffset:0"
   vector-effect="non-scaling-stroke"
   d="m -26.410219,15.639673 c 0.871265,0.582211 1.83071,1.435091 2.853361,1.696185 2.185907,0.680714 4.422985,1.194746 6.677611,1.588492 2.996385,0.544733 6.054493,0.655704 9.093539,0.570934 1.565851,-0.04298 3.1306065,-0.155715 4.6849215,-0.352415 0.6591935,-0.08555 1.2884627,-0.337858 1.9343177,-0.495705 C -11.983692,18.394132 -19.158415,17.408672 -26.410219,15.639673 Z"
   stroke-linecap="round"
   id="path58" /><path
   style="fill:#f2fcfc;fill-opacity:0.68;fill-rule:evenodd;stroke:none;stroke-width:0.35;stroke-linecap:butt;stroke-linejoin:miter;stroke-miterlimit:4;stroke-dasharray:none;stroke-dashoffset:0"
   vector-effect="non-scaling-stroke"
   d="m -23.557219,16.212423 c 2.181497,1.73053 9.106097,2.263303 13.2125,1.913741 -5.304723,-0.07803 -10.554446,-1.588493 -13.2125,-1.913741 z"
   stroke-linecap="round"
   id="path59" /><path
   style="fill:url(#SVGID_Q_23);fill-rule:nonzero;stroke:none;stroke-width:0.55;stroke-linecap:butt;stroke-linejoin:miter;stroke-miterlimit:4;stroke-dasharray:none;stroke-dashoffset:0"
   vector-effect="non-scaling-stroke"
   d="m -56.187664,-6.8332295 c 0.0869,32.3077815 26.322333,58.5069655 58.650359,58.5069655 32.243678,0 58.42765,-26.057328 58.650361,-58.2488395 C 60.789232,-1.7737245 56.37578,2.975542 49.13921,6.9474605 42.889158,26.779151 24.350127,41.176887 2.462695,41.176898 c -21.885654,0 -40.425234,-14.400287 -46.676508,-34.2294375 -7.355491,-4.0405695 -11.788965,-8.8962775 -11.973851,-13.78069 z"
   stroke-linecap="round"
   id="path60" /><path
   style="opacity:0.581081;fill:#f2fcfc;fill-opacity:0.68;fill-rule:evenodd;stroke:none;stroke-width:0.367696;stroke-linecap:butt;stroke-linejoin:miter;stroke-miterlimit:4;stroke-dasharray:none;stroke-dashoffset:0"
   vector-effect="non-scaling-stroke"
   d="m -27.680392,-46.14541 c -3.067264,-1.09024 -9.544857,-1.119932 -11.743144,7.503324 2.975856,-6.968852 7.805639,-7.717348 11.743144,-7.503324 z"
   stroke-linecap="round"
   id="path61" /><path
   style="opacity:0.581081;fill:#f2fcfc;fill-opacity:0.68;fill-rule:evenodd;stroke:none;stroke-width:0.367696;stroke-linecap:butt;stroke-linejoin:miter;stroke-miterlimit:4;stroke-dasharray:none;stroke-dashoffset:0"
   vector-effect="non-scaling-stroke"
   d="m -30.691675,-46.375125 c -0.476,-0.01081 -0.918876,0.13118 -1.405625,0.186875 -0.983562,0.172606 -1.954469,0.463629 -2.798273,1.012713 -1.148327,0.705193 -2.088323,1.729211 -2.742977,2.903537 1.227821,-1.623427 2.913976,-2.915016 4.846111,-3.578892 0.757035,-0.283522 1.546863,-0.474919 2.352639,-0.516108 -0.08396,-0.0027 -0.167916,-0.0054 -0.251875,-0.0081 z"
   stroke-linecap="round"
   id="path62" /><path
   style="opacity:0.702703;fill:url(#SVGID_T_24);fill-rule:evenodd;stroke:none;stroke-width:0.35;stroke-linecap:butt;stroke-linejoin:miter;stroke-miterlimit:4;stroke-dasharray:none;stroke-dashoffset:0"
   vector-effect="non-scaling-stroke"
   d="m 56.995171,2.07711 c 9.984664,-10.5265825 -0.309431,-17.748661 -5.69564,-19.693755 7.51521,1.914528 15.711398,10.3779625 5.69564,19.693755 z"
   stroke-linecap="round"
   id="path63" /><path
   style="opacity:0.702703;fill:url(#SVGID_T_25);fill-rule:evenodd;stroke:none;stroke-width:0.35;stroke-linecap:butt;stroke-linejoin:miter;stroke-miterlimit:4;stroke-dasharray:none;stroke-dashoffset:0"
   vector-effect="non-scaling-stroke"
   d="m 56.995171,2.07711 c 9.984664,-10.5265825 -0.309431,-17.748661 -5.69564,-19.693755 7.51521,1.914528 15.711398,10.3779625 5.69564,19.693755 z"
   stroke-linecap="round"
   id="path67" /><path
   style="fill:url(#SVGID_X_26);fill-rule:evenodd;stroke:none;stroke-width:0.55;stroke-linecap:butt;stroke-linejoin:miter;stroke-miterlimit:4;stroke-dasharray:none;stroke-dashoffset:0"
   vector-effect="non-scaling-stroke"
   d="m -38.141595,-42.582859 c -8.545572,11.286017 -13.567422,24.774147 -13.141861,37.21127 8.124595,11.023364 25.352847,16.218032 35.752863,16.438999 -12.18955,-14.188113 -28.731096,-33.767966 -22.611002,-53.650269 z"
   stroke-linecap="round"
   id="path69" />
</g></g><g
       id="rect23"
       style="display:inline"><rect
         style="display:inline;fill:url(#linearGradient23);fill-opacity:0.834379;stroke:none;stroke-width:4.99999;stroke-linecap:square;stroke-dasharray:none;stroke-opacity:1"
         id="rect20"
         width="30.128031"
         height="11.286353"
         x="177.19191"
         y="53.347572" /><path
         style="color:#000000;display:inline;fill:url(#linearGradient25);stroke-linecap:square;stroke-linejoin:bevel;-inkscape-stroke:none"
         d="m 174.15254,15.119046 40.91592,41.955358 H 174.814 Z"
         id="path25" /><g
         id="g27"><path
           id="rect27"
           style="display:inline;fill:#0a6db5;fill-opacity:0.459222;stroke-width:4.99999;stroke-linecap:square;stroke-linejoin:bevel"
           d="m 182.94047,23.245534 33.07293,33.82887 -33.07293,-0.09449 z"
           sodipodi:nodetypes="cccc" /><path
           id="path27"
           style="display:inline;fill:#1882cf;fill-opacity:0.459222;stroke-width:4.99999;stroke-linecap:square;stroke-linejoin:bevel"
           d="m 175.28645,49.514879 34.91556,0.188989 4.67746,7.087054 -39.68751,-0.472471 z"
           sodipodi:nodetypes="ccccc" /></g><path
         style="color:#000000;display:inline;fill:url(#linearGradient27);stroke-linecap:square;stroke-linejoin:bevel;-inkscape-stroke:none"
         d="m 175.94141,13.373047 -4.28907,1.785156 6.5e-4,44.600911 c 0,0 29.8634,-0.184895 43.41537,-0.184895 l 1.78906,-4.246094 z m 1.4286,7.056744 34.22551,34.144428 h -34.32013 z"
         id="path26"
         sodipodi:nodetypes="cccccccccc" /></g></g></svg>
