<?xml version="1.0" encoding="UTF-8" standalone="no"?>
<!-- Created with Inkscape (http://www.inkscape.org/) -->

<svg
   width="256mm"
   height="256mm"
   viewBox="0 0 256 256"
   version="1.1"
   id="svg1"
   inkscape:version="1.3.2 (091e20ef0f, 2023-11-25)"
   xml:space="preserve"
   sodipodi:docname="application-x-e-theme.svg"
   xmlns:inkscape="http://www.inkscape.org/namespaces/inkscape"
   xmlns:sodipodi="http://sodipodi.sourceforge.net/DTD/sodipodi-0.dtd"
   xmlns:xlink="http://www.w3.org/1999/xlink"
   xmlns="http://www.w3.org/2000/svg"
   xmlns:svg="http://www.w3.org/2000/svg"
   xmlns:rdf="http://www.w3.org/1999/02/22-rdf-syntax-ns#"
   xmlns:cc="http://creativecommons.org/ns#"
   xmlns:dc="http://purl.org/dc/elements/1.1/"
   xmlns:a="http://ns.adobe.com/AdobeSVGViewerExtensions/3.0/"><defs
     id="defs1"><linearGradient
       id="linearGradient12"
       inkscape:collect="always"><stop
         style="stop-color:#956300;stop-opacity:1;"
         offset="0"
         id="stop12" /><stop
         style="stop-color:#513600;stop-opacity:1;"
         offset="1"
         id="stop13" /></linearGradient><linearGradient
       id="linearGradient8"
       inkscape:collect="always"><stop
         style="stop-color:#744900;stop-opacity:0.65498155;"
         offset="0"
         id="stop9" /><stop
         style="stop-color:#5d3800;stop-opacity:0.41512915;"
         offset="0.50093067"
         id="stop11" /><stop
         style="stop-color:#774900;stop-opacity:0.22047971;"
         offset="1"
         id="stop10" /></linearGradient><linearGradient
       id="linearGradient7"
       inkscape:collect="always"><stop
         style="stop-color:#ffffff;stop-opacity:1;"
         offset="0"
         id="stop7" /><stop
         style="stop-color:#ffffff;stop-opacity:0;"
         offset="1"
         id="stop8" /></linearGradient><radialGradient
       inkscape:collect="always"
       xlink:href="#linearGradient7"
       id="radialGradient8"
       cx="96.371109"
       cy="52.985355"
       fx="96.371109"
       fy="52.985355"
       r="106.90794"
       gradientTransform="matrix(0.06475897,1.3960371,-1.1000662,0.05102957,171.24872,-60.267815)"
       gradientUnits="userSpaceOnUse" /><linearGradient
       inkscape:collect="always"
       xlink:href="#linearGradient8"
       id="linearGradient10"
       x1="126.30491"
       y1="216.68916"
       x2="254.08325"
       y2="91.72831"
       gradientUnits="userSpaceOnUse" /><linearGradient
       inkscape:collect="always"
       xlink:href="#linearGradient12"
       id="linearGradient13"
       x1="62.000706"
       y1="119.80061"
       x2="218.91676"
       y2="187.68706"
       gradientUnits="userSpaceOnUse" /><linearGradient
       id="linearGradient16"><stop
         id="stop15"
         style="stop-color:#ffffff;stop-opacity:0.78094059;"
         offset="0" /><stop
         id="stop16"
         style="stop-color:#ffffff;stop-opacity:0"
         offset="1" /></linearGradient><linearGradient
       id="linearGradient4222"><stop
         id="stop4224"
         style="stop-color:#ffffff;stop-opacity:0.83539605;"
         offset="0" /><stop
         id="stop4226"
         style="stop-color:#ffffff;stop-opacity:0"
         offset="1" /></linearGradient><linearGradient
       id="XMLID_5_"
       gradientUnits="userSpaceOnUse"
       x1="8.5775995"
       y1="-130.9097"
       x2="68.091003"
       y2="97.714798"><stop
         offset="0"
         style="stop-color:#FFFFFF"
         id="stop13-0" /><stop
         offset="1"
         style="stop-color:#000000"
         id="stop14-6" /><a:midPointStop
         offset="0"
         style="stop-color:#FFFFFF" /><a:midPointStop
         offset="0.5"
         style="stop-color:#FFFFFF" /><a:midPointStop
         offset="1"
         style="stop-color:#000000" /></linearGradient><linearGradient
       id="XMLID_4_"
       gradientUnits="userSpaceOnUse"
       x1="58.423302"
       y1="132.44901"
       x2="58.423302"
       y2="74.146004"><stop
         offset="0"
         style="stop-color:rgb(255,144,0)"
         id="stop12-0" /><stop
         offset="1"
         style="stop-color:rgb(255,0,0)"
         id="stop13-3" /></linearGradient><linearGradient
       id="XMLID_5_-6"
       gradientUnits="userSpaceOnUse"
       x1="56.2407"
       y1="8.8989"
       x2="56.2407"
       y2="89.401199"><stop
         offset="13.2184%"
         style="stop-color:rgb(255,255,255)"
         id="stop15-1" /><stop
         offset="100%"
         style="stop-opacity:0;stop-color:rgb(255,255,255)"
         id="stop16-0" /></linearGradient><linearGradient
       id="XMLID_5_-9"
       gradientUnits="userSpaceOnUse"
       x1="44.4263"
       y1="115.898"
       x2="44.4263"
       y2="69.396896"><stop
         offset="0"
         style="stop-color:rgb(255,144,0)"
         id="stop13-2" /><stop
         offset="1"
         style="stop-color:rgb(255,0,0)"
         id="stop14-0" /></linearGradient><linearGradient
       id="XMLID_6_"
       gradientUnits="userSpaceOnUse"
       x1="44.4263"
       y1="20.419399"
       x2="44.4263"
       y2="52.461899"><stop
         offset="0"
         style="stop-color:rgb(255,255,255)"
         id="stop15-7" /><stop
         offset="100%"
         style="stop-opacity:0;stop-color:rgb(255,255,255)"
         id="stop16-5" /></linearGradient><linearGradient
       id="XMLID_7_"
       gradientUnits="userSpaceOnUse"
       x1="68.790001"
       y1="105.856"
       x2="68.790001"
       y2="82.417999"><stop
         offset="0"
         style="stop-color:rgb(176,176,176)"
         id="stop17" /><stop
         offset="1"
         style="stop-color:rgb(0,0,0)"
         id="stop18-2" /><a:midPointStop
         offset="0"
         style="stop-color:#B0B0B0" /><a:midPointStop
         offset="0.5"
         style="stop-color:#B0B0B0" /><a:midPointStop
         offset="1"
         style="stop-color:#000000" /></linearGradient><linearGradient
       id="XMLID_8_-3"
       gradientUnits="userSpaceOnUse"
       x1="68.870102"
       y1="36.569801"
       x2="68.870102"
       y2="65.748001"><stop
         offset="0"
         style="stop-color:rgb(255,255,255)"
         id="stop19-7" /><stop
         offset="1"
         style="stop-color:rgb(0,0,0)"
         id="stop20-5" /><a:midPointStop
         offset="0"
         style="stop-color:#FFFFFF" /><a:midPointStop
         offset="0.5"
         style="stop-color:#FFFFFF" /><a:midPointStop
         offset="1"
         style="stop-color:#000000" /></linearGradient><clipPath
       id="A"><path
         d="m 49.91,52.76 h 168.6 v 51.02 c -43.95,52.89 -71.73,113.9 -74.31,187.4 H 86.52 c 2.27,-63.39 8.836,-125.7 57.68,-177.5 H 49.92 v -61 z"
         fill="#ffffff"
         class="B D E"
         id="path1" /></clipPath><filter
       id="B"
       x="-0.15485787"
       y="-0.082304527"
       width="1.3795815"
       height="1.1646741"><feGaussianBlur
         stdDeviation="4"
         id="feGaussianBlur1" /></filter><filter
       id="filter2"
       x="-0.15485787"
       y="-0.08230453"
       width="1.3795815"
       height="1.164674"><feGaussianBlur
         stdDeviation="4"
         id="feGaussianBlur2" /></filter><clipPath
       id="D"><path
         d="m 0,-0.0625 v 345.6 h 257.8 11.09 334.5 v -268.8 h -334.5 v -76.78 H 0.09 Z"
         fill="#000000"
         class="B D"
         id="path3-2" /></clipPath><filter
       id="filter3"
       x="-0.15485787"
       y="-0.08230453"
       width="1.3795815"
       height="1.164674"><feGaussianBlur
         stdDeviation="4"
         id="feGaussianBlur3" /></filter><filter
       id="filter4"
       x="-0.15485787"
       y="-0.08230453"
       width="1.3795815"
       height="1.164674"><feGaussianBlur
         stdDeviation="4"
         id="feGaussianBlur4" /></filter><clipPath
       id="C"><path
         d="m 415.9,112.7 v 175.2 h 36.59 V 112.7 Z M 285,113.794 v 39.94 h 56.56 l -58.78,96.5 v 38.81 h 107.6 v -38.81 H 321.6 l 71,-100.9 v -35.5 H 285 Z m 200.7,0.0625 v 176.2 h 39.94 v -62.06 h 26.59 c 42.59,-0.1455 43.72,-115.5 -2.25,-114.2 H 485.7 Z m 37.72,37.72 h 15.59 c 17.35,-0.5945 17.71,38.94 0,36.5 l -14.41,1.219 -1.188,-37.72 z"
         fill="#000000"
         class="B D E"
         id="path2" /></clipPath><filter
       id="filter5"
       x="-0.15485787"
       y="-0.08230453"
       width="1.3795815"
       height="1.164674"><feGaussianBlur
         stdDeviation="4"
         id="feGaussianBlur5" /></filter><filter
       id="filter6"
       x="-0.15485787"
       y="-0.08230453"
       width="1.3795815"
       height="1.164674"><feGaussianBlur
         stdDeviation="4"
         id="feGaussianBlur6" /></filter><clipPath
       clipPathUnits="userSpaceOnUse"
       id="clipPath21"><g
         id="g22"
         transform="rotate(-90,3.9993119e-6,-4.110788e-6)"><path
           d="m 598.4,80.59 v 261.1 H 262.7 V 80.59 Z"
           fill="#ffffff"
           class="B D"
           id="path21" /></g></clipPath><filter
       id="F"
       x="-0.055917273"
       y="-0.043491212"
       width="1.1118345"
       height="1.0869824"><feGaussianBlur
         stdDeviation="4"
         id="feGaussianBlur7" /></filter><filter
       id="filter8"
       x="-0.055917274"
       y="-0.043491211"
       width="1.1118345"
       height="1.0869824"><feGaussianBlur
         stdDeviation="4"
         id="feGaussianBlur8" /></filter><linearGradient
       id="aigrd1"
       gradientUnits="userSpaceOnUse"
       x1="63.559727"
       y1="118.07422"
       x2="123.6106"
       y2="53.465199">
			<stop
   offset="0"
   style="stop-color:#FFFFFF"
   id="stop3-9" />
			<stop
   offset="1"
   style="stop-color:#8C8C8C"
   id="stop4-2" />
		</linearGradient><linearGradient
       id="aigrd2"
       gradientUnits="userSpaceOnUse"
       x1="114.9795"
       y1="16.8501"
       x2="90.170303"
       y2="38.863499">
			<stop
   offset="0"
   style="stop-color:#000000"
   id="stop5-8" />
			<stop
   offset="0.2872"
   style="stop-color:#FFFFFF"
   id="stop6-8" />
			<stop
   offset="0.4468"
   style="stop-color:#FFFFFF"
   id="stop7-8" />
			<stop
   offset="0.4893"
   style="stop-color:#DDDDDD"
   id="stop8-6" />
			<stop
   offset="0.5678"
   style="stop-color:#A3A3A3"
   id="stop9-8" />
			<stop
   offset="0.6465"
   style="stop-color:#717171"
   id="stop10-3" />
			<stop
   offset="0.7234"
   style="stop-color:#484848"
   id="stop11-8" />
			<stop
   offset="0.7983"
   style="stop-color:#292929"
   id="stop12-3" />
			<stop
   offset="0.8706"
   style="stop-color:#121212"
   id="stop13-3-1" />
			<stop
   offset="0.9392"
   style="stop-color:#050505"
   id="stop14-3" />
			<stop
   offset="1"
   style="stop-color:#000000"
   id="stop15-8" />
		</linearGradient><linearGradient
       id="aigrd3"
       gradientUnits="userSpaceOnUse"
       x1="-9.5752001"
       y1="-40.622601"
       x2="111.4338"
       y2="127.9071">
			<stop
   offset="0"
   style="stop-color:#FFFFFF"
   id="stop16-0-8" />
			<stop
   offset="1"
   style="stop-color:#000000"
   id="stop17-4" />
		</linearGradient><linearGradient
       id="aigrd5"
       gradientUnits="userSpaceOnUse"
       x1="-11.9863"
       y1="-32.7383"
       x2="159.9639"
       y2="185.96539">
			<stop
   offset="0"
   style="stop-color:#FFFFFF"
   id="stop18-9" />
			<stop
   offset="1"
   style="stop-color:#000000"
   id="stop19-0" />
		</linearGradient><linearGradient
       id="aigrd6"
       gradientUnits="userSpaceOnUse"
       x1="83.591675"
       y1="100.54906"
       x2="69.423683"
       y2="104.22439">
			<stop
   offset="0"
   style="stop-color:#FFFFFF"
   id="stop20-6" />
			<stop
   offset="1"
   style="stop-color:#000000"
   id="stop21-8" />
		</linearGradient><linearGradient
       id="aigrd7"
       gradientUnits="userSpaceOnUse"
       x1="-21.0117"
       y1="-56.939899"
       x2="129.0739"
       y2="151.3105">
			<stop
   offset="0"
   style="stop-color:#FFFFFF"
   id="stop22-7" />
			<stop
   offset="1"
   style="stop-color:#000000"
   id="stop23-9" />
		</linearGradient><linearGradient
       id="aigrd8"
       gradientUnits="userSpaceOnUse"
       x1="164.51559"
       y1="191.96629"
       x2="101.1341"
       y2="1.1619999">
			<stop
   offset="0"
   style="stop-color:#FFFFFF"
   id="stop24-0" />
			<stop
   offset="1"
   style="stop-color:#000000"
   id="stop25-3" />
		</linearGradient><linearGradient
       id="aigrd9"
       gradientUnits="userSpaceOnUse"
       x1="140.9277"
       y1="109.0835"
       x2="114.0488"
       y2="28.167">
			<stop
   offset="0"
   style="stop-color:#FFFFFF"
   id="stop26-3" />
			<stop
   offset="1"
   style="stop-color:#000000"
   id="stop27-3" />
		</linearGradient><linearGradient
       id="aigrd10"
       gradientUnits="userSpaceOnUse"
       x1="108.9707"
       y1="22.1313"
       x2="113.887"
       y2="17.215099">
			<stop
   offset="0"
   style="stop-color:#FFFFFF"
   id="stop28-7" />
			<stop
   offset="0.4715"
   style="stop-color:#898989"
   id="stop29-3" />
			<stop
   offset="1"
   style="stop-color:#000000"
   id="stop30-2" />
		</linearGradient><linearGradient
       id="aigrd11"
       gradientUnits="userSpaceOnUse"
       x1="81.009804"
       y1="52.612801"
       x2="147.9156"
       y2="-19.6299">
			<stop
   offset="0"
   style="stop-color:#FFFFFF"
   id="stop31-6" />
			<stop
   offset="1"
   style="stop-color:#000000"
   id="stop32-5" />
		</linearGradient><filter
       id="g"
       x="-0.0023883333"
       y="-0.068358866"
       width="1.0047767"
       height="1.1367177"><feGaussianBlur
         stdDeviation=".11145486"
         id="feGaussianBlur18" /></filter><linearGradient
       xlink:href="#linearGradient65"
       id="h"
       x1="69.913002"
       x2="70.019997"
       y1="-96.5"
       y2="-67.843002"
       gradientTransform="translate(0,131.41)"
       gradientUnits="userSpaceOnUse" /><linearGradient
       id="linearGradient65"><stop
         offset="0"
         stop-color="#fff"
         id="stop64"
         style="stop-color:#cee0fc;stop-opacity:1;" /><stop
         offset="1"
         stop-color="#fff"
         stop-opacity="0"
         id="stop65"
         style="stop-color:#767676;stop-opacity:0;" /></linearGradient><filter
       id="filter1"
       x="-0.0023883332"
       y="-0.068358868"
       width="1.0047767"
       height="1.1367177"><feGaussianBlur
         stdDeviation=".11145486"
         id="feGaussianBlur1-4" /></filter><linearGradient
       xlink:href="#linearGradient7"
       id="i"
       x1="107.06"
       x2="107.06"
       y1="-26.263"
       y2="134.55"
       gradientTransform="matrix(-2.2435525,0,0,-2.1856905,249.84766,263.96655)"
       gradientUnits="userSpaceOnUse" /><linearGradient
       xlink:href="#a"
       id="j"
       x1="47.609001"
       x2="47.609001"
       y1="104.35"
       y2="176.35001"
       gradientUnits="userSpaceOnUse" /><linearGradient
       id="a"><stop
         offset="0"
         id="stop15-9" /><stop
         offset="1"
         stop-opacity="0"
         id="stop16-2" /></linearGradient><clipPath
       id="k"><path
         fill-opacity="0.12832"
         d="m 18.19,132.42 c -1.4192,0 -2.5625,1.1433 -2.5625,2.5625 v 37.183 h 72 v -37.183 c 0,-1.4192 -1.1433,-2.5625 -2.5625,-2.5625 z"
         id="path36" /></clipPath><filter
       id="l"
       width="1.1232667"
       height="1.1948216"
       x="-0.061633327"
       y="-0.097410806"><feGaussianBlur
         stdDeviation="1.9228365"
         id="feGaussianBlur7-0" /></filter><radialGradient
       xlink:href="#linearGradient7"
       id="m"
       cx="84"
       cy="91.983002"
       r="32"
       gradientTransform="matrix(-2.2435525,0,0,-1.3573794,270.93706,182.49057)"
       gradientUnits="userSpaceOnUse" /><linearGradient
       xlink:href="#a"
       id="n"
       x1="68"
       x2="36"
       y1="120"
       y2="84"
       gradientUnits="userSpaceOnUse" /><filter
       id="o"
       width="1.2476923"
       height="1.1857692"
       x="-0.12384615"
       y="-0.092884612"><feGaussianBlur
         stdDeviation="1.2384615"
         id="feGaussianBlur8-6" /></filter><linearGradient
       xlink:href="#linearGradient7"
       id="p"
       x1="-37.195"
       x2="-12.625"
       y1="42.335999"
       y2="106.8"
       gradientTransform="translate(126.8)"
       gradientUnits="userSpaceOnUse" /><filter
       id="q"
       x="-0.01636923"
       y="-0.0074140351"
       width="1.0327385"
       height="1.0183421"><feGaussianBlur
         stdDeviation=".0231875"
         id="feGaussianBlur4-8" /></filter><linearGradient
       id="r"
       x1="64"
       x2="56"
       y1="120.07"
       y2="96.316002"
       gradientTransform="matrix(-2.2435525,0,0,-2.2084218,270.93706,268.14121)"
       gradientUnits="userSpaceOnUse"><stop
         offset="0"
         stop-color="#8a8a8a"
         id="stop19-3" /><stop
         offset="1"
         stop-color="#c6c6c6"
         id="stop20-6-9" /></linearGradient><clipPath
       id="s"><rect
         width="78.124001"
         height="55.396"
         x="24.681"
         y="-68.245003"
         fill="none"
         stroke="#000000"
         stroke-dashoffset="4.15"
         stroke-linecap="round"
         stroke-linejoin="round"
         stroke-width="0.4"
         opacity="0.26562"
         rx="1.1339"
         ry="1.1339"
         id="rect37" /></clipPath><filter
       id="t"
       x="-0.024996538"
       y="-0.034457597"
       width="1.0499931"
       height="1.0689152"><feGaussianBlur
         stdDeviation=".66759571"
         id="feGaussianBlur11" /></filter><radialGradient
       id="u"
       cx="100.31"
       cy="42.449001"
       r="38"
       gradientTransform="matrix(10.254156,0,0,4.0586089,-1205.646,-450.44968)"
       gradientUnits="userSpaceOnUse"><stop
         offset="0"
         stop-color="#d0ced9"
         id="stop32" /><stop
         offset=".25"
         stop-color="#ecf1f9"
         id="stop33" /><stop
         offset=".5"
         stop-color="#fff"
         id="stop34" /><stop
         offset="1"
         stop-color="#c6d5e3"
         id="stop35" /></radialGradient><radialGradient
       id="v"
       cx="64.802002"
       cy="63.780998"
       r="34.041"
       gradientTransform="matrix(1.1398,0,0,0.0107,-9.08,63.1)"
       gradientUnits="userSpaceOnUse"><stop
         offset="0"
         stop-color="#fff"
         id="stop29-0" /><stop
         offset=".5"
         stop-color="#fff"
         stop-opacity=".69818"
         id="stop30-6" /><stop
         offset="1"
         stop-color="#fff"
         stop-opacity="0"
         id="stop31-2" /></radialGradient><filter
       id="w"
       width="1.0121165"
       height="2.2481989"
       x="-0.0060582329"
       y="-0.62409946"><feGaussianBlur
         stdDeviation=".18955201"
         id="feGaussianBlur10" /></filter><clipPath
       id="x"><path
         fill="url(#linearGradient3219)"
         d="m 11.375,-167.68 c -2.9534,0 -3.375,0.36407 -3.375,3.3438 v 0.78125 c 0,-2.9797 0.42155,-3.3125 3.375,-3.3125 h 105.25 c 2.9534,0 3.375,0.33282 3.375,3.3125 v -0.78125 c 0,-2.9797 -0.42155,-3.3438 -3.375,-3.3438 z"
         id="path37" /></clipPath><filter
       id="y"
       width="1.0142819"
       height="1.3877715"
       x="-0.0071409683"
       y="-0.19388576"><feGaussianBlur
         stdDeviation=".33324519"
         id="feGaussianBlur9" /></filter><radialGradient
       xlink:href="#linearGradient7"
       id="z"
       cx="104.09"
       cy="9"
       r="0.46875"
       gradientTransform="matrix(1,0,0,0.8,-0.5,1.91)"
       gradientUnits="userSpaceOnUse" /><filter
       id="A-9"
       x="-0.066461544"
       y="-0.08307693"
       width="1.1329231"
       height="1.1661539"><feGaussianBlur
         stdDeviation=".02596154"
         id="feGaussianBlur5-5" /></filter><radialGradient
       xlink:href="#linearGradient7"
       id="B-0"
       cx="104.09"
       cy="9"
       r="0.46875"
       gradientTransform="matrix(1,0,0,0.8,-80.464,1.9105)"
       gradientUnits="userSpaceOnUse" /><filter
       id="filter12"
       x="-0.066461541"
       y="-0.083076932"
       width="1.1329231"
       height="1.1661539"><feGaussianBlur
         stdDeviation=".02596154"
         id="feGaussianBlur12" /></filter><radialGradient
       xlink:href="#linearGradient7"
       id="K"
       cx="118.17"
       cy="9.1196003"
       r="1.2844"
       gradientTransform="matrix(1.2088,0.95832,-1.4021,1.7686,-11.096,-120.71)"
       gradientUnits="userSpaceOnUse" /><filter
       id="L"
       x="-0.15990919"
       y="-0.22590349"
       width="1.3198184"
       height="1.451807"><feGaussianBlur
         stdDeviation=".10453397"
         id="feGaussianBlur21" /></filter><radialGradient
       xlink:href="#linearGradient7"
       id="M"
       cx="118.17"
       cy="9.1196003"
       r="1.2844"
       gradientTransform="matrix(1.2088,0.95832,-1.4021,1.7686,-11.996,-120.41)"
       gradientUnits="userSpaceOnUse" /><filter
       id="filter17"
       x="-0.15990919"
       y="-0.2259035"
       width="1.3198184"
       height="1.451807"><feGaussianBlur
         stdDeviation=".10453397"
         id="feGaussianBlur17" /></filter><clipPath
       id="C-2"><rect
         width="8"
         height="12"
         x="12"
         y="12"
         opacity="0.18359"
         rx="1.0793"
         ry="1.0793"
         id="rect35" /></clipPath><filter
       id="D-6"
       width="1.455"
       height="1.3033333"
       x="-0.2275"
       y="-0.15166667"><feGaussianBlur
         stdDeviation=".55"
         id="feGaussianBlur37" /></filter><radialGradient
       id="E"
       cx="16"
       cy="18"
       r="4"
       gradientTransform="matrix(1,0,0,1.5,0,-9)"
       gradientUnits="userSpaceOnUse"><stop
         offset="0"
         stop-color="#7a7a7a"
         id="stop25-2" /><stop
         offset="1"
         stop-opacity=".49091"
         id="stop26-3-1" /></radialGradient><linearGradient
       xlink:href="#a"
       id="F-0"
       x1="16"
       x2="16"
       y1="1.5953"
       y2="18.754999"
       gradientUnits="userSpaceOnUse" /><clipPath
       id="G"><rect
         width="8"
         height="12"
         x="12"
         y="12"
         opacity="0.18359"
         rx="1.0793"
         ry="1.0793"
         id="rect36" /></clipPath><filter
       id="filter19"
       width="1.455"
       height="1.3033333"
       x="-0.22750001"
       y="-0.15166667"><feGaussianBlur
         stdDeviation=".55"
         id="feGaussianBlur19" /></filter><radialGradient
       id="H"
       cx="14"
       cy="19.700001"
       r="2.1500001"
       fy="18.836"
       gradientTransform="matrix(1.1063,0,0,1.1063,0.54709,-2.2994)"
       gradientUnits="userSpaceOnUse"><stop
         offset="0"
         stop-color="#868385"
         id="stop28-9" /><stop
         offset="1"
         stop-color="#4a4949"
         id="stop36" /></radialGradient><linearGradient
       id="I"
       x1="11.918"
       x2="11.918"
       y1="17.561001"
       y2="20.038"
       gradientTransform="matrix(1.1063,0,0,1.1063,0.54709,-2.2994)"
       gradientUnits="userSpaceOnUse"><stop
         offset="0"
         stop-color="#fff"
         id="stop37" /><stop
         offset="1"
         id="stop38" /></linearGradient><filter
       id="J"
       x="-0.061195649"
       y="-0.072421264"
       width="1.1223913"
       height="1.1448425"><feGaussianBlur
         stdDeviation=".04177847"
         id="feGaussianBlur3-6" /></filter><radialGradient
       inkscape:collect="always"
       xlink:href="#linearGradient41"
       id="radialGradient42"
       cx="186.1727"
       cy="171.87349"
       fx="186.1727"
       fy="171.87349"
       r="32.88393"
       gradientUnits="userSpaceOnUse"
       gradientTransform="matrix(0.44356331,-0.15919016,0.23163838,0.64543114,54.596639,91.080494)" /><linearGradient
       id="linearGradient41"
       inkscape:collect="always"><stop
         style="stop-color:#333333;stop-opacity:0.78594774;"
         offset="0"
         id="stop41" /><stop
         style="stop-color:#333333;stop-opacity:0;"
         offset="1"
         id="stop42" /></linearGradient><linearGradient
       inkscape:collect="always"
       xlink:href="#linearGradient35"
       id="linearGradient37"
       x1="313.44815"
       y1="321.27185"
       x2="680.81116"
       y2="321.27185"
       gradientUnits="userSpaceOnUse"
       gradientTransform="matrix(1.0126082,0,0,1.01862,-2.9671278,-11.945008)" /><linearGradient
       id="linearGradient35"
       inkscape:collect="always"><stop
         style="stop-color:#333333;stop-opacity:0.54585805;"
         offset="0"
         id="stop36-3" /><stop
         style="stop-color:#333333;stop-opacity:1;"
         offset="1"
         id="stop37-0" /></linearGradient><linearGradient
       inkscape:collect="always"
       xlink:href="#linearGradient38"
       id="linearGradient39"
       x1="313.52844"
       y1="686.18512"
       x2="676.29089"
       y2="686.18512"
       gradientUnits="userSpaceOnUse"
       gradientTransform="matrix(1.01862,0,0,1.01862,-7.0600475,-11.945008)" /><linearGradient
       id="linearGradient38"
       inkscape:collect="always"><stop
         style="stop-color:#333333;stop-opacity:0.91013074;"
         offset="0"
         id="stop38-4" /><stop
         style="stop-color:#333333;stop-opacity:0.58660132;"
         offset="1"
         id="stop39" /></linearGradient><radialGradient
       inkscape:collect="always"
       xlink:href="#linearGradient7-4"
       id="radialGradient16"
       cx="485.65424"
       cy="483.20627"
       fx="485.65424"
       fy="483.20627"
       r="183.6815"
       gradientTransform="matrix(1,0,0,0.97616417,0,11.917913)"
       gradientUnits="userSpaceOnUse" /><linearGradient
       id="linearGradient7-4"
       inkscape:collect="always"><stop
         style="stop-color:#ffffff;stop-opacity:1;"
         offset="0"
         id="stop15-4" /><stop
         style="stop-color:#ffffff;stop-opacity:1;"
         offset="0.08678571"
         id="stop71" /><stop
         style="stop-color:#ffffff;stop-opacity:1;"
         offset="0.17357142"
         id="stop35-4" /><stop
         style="stop-color:#f2d943;stop-opacity:1;"
         offset="0.34714285"
         id="stop33-7" /><stop
         style="stop-color:#f2d443;stop-opacity:1;"
         offset="0.62071425"
         id="stop34-6" /><stop
         style="stop-color:#f2d043;stop-opacity:1;"
         offset="0.70571423"
         id="stop17-3" /><stop
         style="stop-color:#f2bb43;stop-opacity:1;"
         offset="0.88142854"
         id="stop32-1" /><stop
         style="stop-color:#f2a943;stop-opacity:1;"
         offset="1"
         id="stop16-7" /></linearGradient><linearGradient
       inkscape:collect="always"
       xlink:href="#linearGradient69"
       id="linearGradient62"
       x1="206.68584"
       y1="292.78827"
       x2="747.20459"
       y2="342.99316"
       gradientUnits="userSpaceOnUse" /><linearGradient
       id="linearGradient69"
       inkscape:collect="always"><stop
         style="stop-color:#f8eca1;stop-opacity:1;"
         offset="0.26035714"
         id="stop70" /><stop
         style="stop-color:#f2d943;stop-opacity:1;"
         offset="0.34714285"
         id="stop65-5" /><stop
         style="stop-color:#f2d443;stop-opacity:1;"
         offset="0.62071425"
         id="stop66" /><stop
         style="stop-color:#f2d043;stop-opacity:1;"
         offset="0.70571423"
         id="stop67" /><stop
         style="stop-color:#f2bb43;stop-opacity:1;"
         offset="0.88142854"
         id="stop68" /><stop
         style="stop-color:#f2a943;stop-opacity:1;"
         offset="1"
         id="stop69" /></linearGradient><radialGradient
       inkscape:collect="always"
       xlink:href="#linearGradient79"
       id="radialGradient71"
       gradientUnits="userSpaceOnUse"
       gradientTransform="matrix(1,0,0,0.97616417,0,11.917913)"
       cx="485.65424"
       cy="483.20627"
       fx="485.65424"
       fy="483.20627"
       r="183.6815" /><linearGradient
       id="linearGradient79"
       inkscape:collect="always"><stop
         style="stop-color:#ffffff;stop-opacity:1;"
         offset="0"
         id="stop72" /><stop
         style="stop-color:#ffffff;stop-opacity:1;"
         offset="0.13411729"
         id="stop73" /><stop
         style="stop-color:#ffffff;stop-opacity:0.77124184;"
         offset="0.24456879"
         id="stop74" /><stop
         style="stop-color:#f2d943;stop-opacity:1;"
         offset="0.34714285"
         id="stop75" /><stop
         style="stop-color:#f2d443;stop-opacity:1;"
         offset="0.62071425"
         id="stop76" /><stop
         style="stop-color:#f2d043;stop-opacity:1;"
         offset="0.70571423"
         id="stop77" /><stop
         style="stop-color:#f2bb43;stop-opacity:1;"
         offset="0.88142854"
         id="stop78" /><stop
         style="stop-color:#f2a943;stop-opacity:1;"
         offset="1"
         id="stop79" /></linearGradient><radialGradient
       inkscape:collect="always"
       xlink:href="#linearGradient56"
       id="radialGradient57"
       cx="519.83936"
       cy="358.9183"
       fx="519.83936"
       fy="358.9183"
       r="175.0977"
       gradientTransform="matrix(1,0,0,0.99863827,0,0.68155004)"
       gradientUnits="userSpaceOnUse" /><linearGradient
       id="linearGradient56"
       inkscape:collect="always"><stop
         style="stop-color:#ffffff;stop-opacity:0.56535947;"
         offset="0"
         id="stop56" /><stop
         style="stop-color:#ffffff;stop-opacity:0.57189542;"
         offset="0.24804094"
         id="stop58" /><stop
         style="stop-color:#ffffff;stop-opacity:0;"
         offset="0.55077654"
         id="stop59" /><stop
         style="stop-color:#ffffff;stop-opacity:0.42810458;"
         offset="0.63378483"
         id="stop62" /><stop
         style="stop-color:#ffffff;stop-opacity:0;"
         offset="0.71679312"
         id="stop60" /><stop
         style="stop-color:#fffcfa;stop-opacity:0.42156863;"
         offset="0.87304538"
         id="stop61" /><stop
         style="stop-color:#ffffff;stop-opacity:0;"
         offset="1"
         id="stop57" /></linearGradient><radialGradient
       inkscape:collect="always"
       xlink:href="#linearGradient7-4"
       id="radialGradient88"
       gradientUnits="userSpaceOnUse"
       gradientTransform="matrix(1,0,0,0.97616417,0,11.917913)"
       cx="485.65424"
       cy="483.20627"
       fx="485.65424"
       fy="483.20627"
       r="183.6815" /><radialGradient
       inkscape:collect="always"
       xlink:href="#linearGradient50"
       id="radialGradient70"
       cx="384.10574"
       cy="505.76648"
       fx="384.10574"
       fy="505.76648"
       r="139.52229"
       gradientTransform="matrix(0.9619424,-0.27325229,0.73435581,2.585186,-349.16891,-658.10367)"
       gradientUnits="userSpaceOnUse" /><linearGradient
       id="linearGradient50"
       inkscape:collect="always"><stop
         style="stop-color:#593500;stop-opacity:0.54585803;"
         offset="0"
         id="stop50" /><stop
         style="stop-color:#ffa508;stop-opacity:0.76960784;"
         offset="1"
         id="stop51" /></linearGradient><linearGradient
       inkscape:collect="always"
       xlink:href="#linearGradient53"
       id="linearGradient54"
       x1="428.87717"
       y1="344.73819"
       x2="566.07117"
       y2="719.30194"
       gradientUnits="userSpaceOnUse" /><linearGradient
       id="linearGradient53"
       inkscape:collect="always"><stop
         style="stop-color:#ffa008;stop-opacity:0.54585805;"
         offset="0"
         id="stop53" /><stop
         style="stop-color:#653c00;stop-opacity:0.41503268;"
         offset="1"
         id="stop54" /></linearGradient></defs><sodipodi:namedview
     id="base"
     pagecolor="#ffffff"
     bordercolor="#000000"
     borderopacity="0.3"
     inkscape:pageopacity="0.0"
     inkscape:pageshadow="2"
     inkscape:zoom="0.98994949"
     inkscape:cx="505.07627"
     inkscape:cy="476.792"
     inkscape:document-units="mm"
     inkscape:showpageshadow="2"
     inkscape:pagecheckerboard="0"
     inkscape:deskcolor="#d1d1d1"
     inkscape:current-layer="g1"
     showguides="true" /><metadata
     id="metadata1"><rdf:RDF><cc:Work
         rdf:about=""><dc:format>image/svg+xml</dc:format><dc:type
           rdf:resource="http://purl.org/dc/dcmitype/StillImage" /><cc:license
           rdf:resource="http://creativecommons.org/publicdomain/zero/1.0/" /></cc:Work><cc:License
         rdf:about="http://creativecommons.org/publicdomain/zero/1.0/"><cc:permits
           rdf:resource="http://creativecommons.org/ns#Reproduction" /><cc:permits
           rdf:resource="http://creativecommons.org/ns#Distribution" /><cc:permits
           rdf:resource="http://creativecommons.org/ns#DerivativeWorks" /></cc:License></rdf:RDF></metadata><g
     id="rect1"
     transform="matrix(1.0470847,0,0,1.0470847,-6.121957,-11.153119)"><g
       id="g6"
       inkscape:label="shadow"
       transform="matrix(1.0356867,0,0,1.0356867,-8.5900168,-5.8944615)"><path
         id="rect3"
         style="fill:#000000;fill-opacity:0.179443;stroke-width:4;stroke-linecap:square"
         d="m 31.270535,168.3798 199.917625,3.74177 c 0,0 16.6785,5.56099 5.87994,28.0633 -5.27804,10.99852 -57.06205,19.51068 -57.06205,19.51068 -3.84923,6.81265 -5.58023,5.24031 -10.82442,5.07812 0,0 -48.43471,25.63965 -56.39388,25.12334 -3.87039,-0.25107 -9.4168,-0.36523 -17.705034,-7.45351 -8.288228,-7.08829 -24.2053,-22.92853 -27.396707,-30.29832 -3.268882,-7.5487 -9.402186,-7.57701 -12.762121,-10.7576 -9.8741,-9.34703 -20.451583,-18.53068 -23.653353,-33.00778 z"
         sodipodi:nodetypes="ccsccssssc" /><path
         id="path3"
         style="fill:#000000;fill-opacity:0.179443;stroke-width:3.94755;stroke-linecap:square"
         d="m 31.344281,165.7071 197.295999,3.6927 c 0,0 16.45978,5.48807 5.80283,27.69529 -5.20882,10.85429 -56.31376,19.25483 -56.31376,19.25483 -3.79876,6.72331 -5.50706,5.17159 -10.68248,5.01153 0,0 -47.79956,25.30342 -55.65436,24.79388 -3.81963,-0.24777 -9.29331,-0.36044 -17.47285,-7.35577 -8.17954,-6.99533 -23.887883,-22.62785 -27.037439,-29.901 C 64.056205,201.44885 58.00333,201.42091 54.687456,198.28203 44.94284,189.05757 34.504065,179.99435 31.344281,165.7071 Z"
         sodipodi:nodetypes="ccsccssssc" /><path
         id="path4"
         style="fill:#000000;fill-opacity:0.179443;stroke-width:3.85571;stroke-linecap:square"
         d="m 33.215168,165.17256 192.703792,3.60683 c 0,0 16.07667,5.36045 5.66777,27.05128 -5.08759,10.60189 -55.00302,18.80708 -55.00302,18.80708 -3.71034,6.56697 -5.37888,5.05133 -10.43384,4.895 0,0 -46.68699,24.71502 -54.35896,24.21733 -3.73073,-0.24201 -9.07701,-0.35206 -17.066162,-7.18472 -7.989155,-6.83267 -23.331875,-22.10167 -26.408123,-29.2057 -3.150928,-7.27647 -9.062918,-7.30376 -12.301612,-10.36965 -9.517803,-9.00996 -19.713608,-17.86243 -22.799845,-31.81745 z"
         sodipodi:nodetypes="ccsccssssc" /><path
         id="path5"
         style="fill:#000000;fill-opacity:0.179443;stroke-width:3.74415;stroke-linecap:square"
         d="m 35.620594,165.17256 188.111576,3.48416 c 0,0 15.69356,5.17814 5.53271,26.13126 -4.96636,10.24132 -53.69228,18.16745 -53.69228,18.16745 -3.62192,6.34362 -5.2507,4.87953 -10.1852,4.72852 0,0 -45.57442,23.87445 -53.06356,23.39369 -3.64183,-0.23378 -8.8607,-0.34009 -16.659465,-6.94037 -7.79877,-6.60029 -22.775867,-21.34998 -25.778807,-28.2124 -3.07584,-7.029 -8.846945,-7.05536 -12.008459,-10.01698 -9.29099,-8.70353 -19.243825,-17.25492 -22.256515,-30.73533 z"
         sodipodi:nodetypes="ccsccssssc" /><path
         id="path6"
         style="fill:#000000;fill-opacity:0.179443;stroke-width:3.58596;stroke-linecap:square"
         d="m 40.472054,166.24164 180.164006,3.33696 c 0,0 15.03052,4.95936 5.29896,25.02723 -4.75653,9.80863 -51.42382,17.39989 -51.42382,17.39989 -3.4689,6.07561 -5.02886,4.67337 -9.75488,4.52874 0,0 -43.64894,22.86578 -50.82167,22.40533 -3.48797,-0.2239 -8.48634,-0.32572 -15.955624,-6.64715 -7.469273,-6.32143 -21.813599,-20.44796 -24.689667,-27.02044 -2.945888,-6.73203 -8.473168,-6.75728 -11.501111,-9.59377 -8.898453,-8.33582 -18.430788,-16.52592 -21.316194,-29.43679 z"
         sodipodi:nodetypes="ccsccssssc" /></g><path
       style="color:#000000;fill:#e6b334;stroke-linecap:square;-inkscape-stroke:none"
       d="m 19.654761,40.065474 c 0.245417,-3.613292 2.434584,-5.581872 5.953126,-6.425596 9.254453,-4.282355 58.332073,-9.339168 58.332073,-9.339168 2.317183,2.124303 4.429154,1.263241 7.341292,-1.244165 12.270008,-2.096149 23.506368,-6.560434 33.923368,-6.803572 11.60558,-4.173569 20.53049,-1.709569 27.30878,0.566964 13.78777,4.630709 21.45254,6.889589 31.19419,10.110049 2.75473,4.116527 8.82243,3.408187 15.03388,4.067993 13.99997,0.365586 23.13018,5.651914 32.20592,9.464465 6.63848,2.770585 5.76677,9.686081 6.51731,15.27561 2.4865,18.517759 -1.12685,38.971145 -4.25339,58.788726 0,0 -3.38151,5.40767 -3.19936,9.35769 0.11962,2.59409 1.98437,7.75408 1.98437,7.75408 l -3.13173,51.89019 c -0.19365,3.19612 0.49747,6.64502 -3.03216,8.888 -16.05737,9.74752 -34.96222,12.52773 -53.00605,16.08712 -3.13207,-1.28892 -6.33773,-1.84193 -9.9678,1.84911 -12.95274,10.80583 -31.33645,17.38758 -48.5776,24.85798 -5.95994,3.63623 -11.91988,3.79114 -17.879811,-0.13108 C 83.733245,225.03656 72.544565,213.30269 63.402314,199.23004 61.869943,193.22625 58.495316,193.3633 55.538877,192.1064 46.564104,184.80457 36.948524,178.14355 29.860119,168.95536 l -3.779762,-6.04762 C 21.585666,145.6891 22.431421,126.94462 24.946428,107.72321 v -5.66964 C 20.11754,82.61687 19.501429,61.495061 19.654761,40.065474 Z"
       id="path11"
       sodipodi:nodetypes="cccccscccscscccccccccccccc" /><g
       id="g1"
       transform="matrix(0.5150422,0.45703056,0,0.68332192,-25.696764,-108.45093)"><g
         id="g88"
         style="display:inline"
         inkscape:label="gold"
         transform="matrix(1.8309742,-0.63386634,0,1.9507328,-116.12266,-6.6718103)"><g
           id="g81"
           transform="matrix(0.18445238,0,0,0.18445238,63.490721,77.976487)"
           style="display:inline;overflow:visible;fill:#333333;fill-opacity:0.545858"><circle
             style="fill:url(#radialGradient42);fill-opacity:0.655325;fill-rule:evenodd;stroke-width:2.54772"
             id="circle79"
             cx="154.78127"
             cy="171.03423"
             r="32.88393"
             transform="matrix(5.4214536,0,0,5.4214536,-344.21199,-422.7459)" /><path
             style="clip-rule:evenodd;fill:url(#linearGradient37);fill-opacity:0.545858;fill-rule:evenodd;stroke-width:1.01561"
             d="m 500.07954,245.63226 c 2.44848,4.14476 0.84755,10.96137 2.11027,16.26939 3.25959,13.7147 6.41487,42.506 20.3909,43.85872 1.23842,-1.21928 2.69151,-1.07158 4.22054,-2.1228 6.75308,-4.64593 12.75582,-15.482 16.17337,-23.34371 3.10568,-7.1446 6.40881,-23.74505 10.54834,-29.00215 -1.42271,26.69701 -5.39921,44.02577 7.03256,62.95682 16.84171,-6.24617 23.52898,-17.72195 32.34677,-31.83187 2.73404,-4.37599 6.89789,-8.59512 8.43806,-14.14863 h 0.70478 v 2.83176 c -1.99281,2.50683 -1.68498,5.62991 -2.81303,9.19508 -2.78872,8.79986 -15.33595,50.13648 3.51477,50.22408 3.50667,-2.46302 8.34491,-2.70545 11.95282,-4.95151 3.80336,-2.36727 7.55304,-5.69307 11.25311,-8.48816 7.91556,-5.9793 12.85708,-16.36515 21.09567,-21.92783 v 1.41384 c -6.53841,6.93477 -15.37038,29.41265 -18.28365,40.32004 -1.36196,5.09819 -1.50068,14.79036 2.11028,16.97835 4.91621,3.24125 14.48435,-0.81184 17.57887,-2.1228 9.09728,-3.85242 17.01688,-7.3799 24.61347,-12.73275 4.42206,-3.11494 8.41173,-7.24239 13.36035,-9.902 v 1.41384 c -7.45381,5.08291 -23.6849,27.71359 -27.4265,36.78339 -1.60903,3.90233 -0.79792,13.74322 -2.81302,16.97632 v -0.70693 c -6.7946,-6.45703 -11.16603,-15.82222 -18.28366,-21.92783 -19.68206,-16.88668 -40.18332,-32.40739 -66.10103,-43.14976 -11.8708,-4.92197 -24.9304,-7.31267 -37.97179,-10.61096 -7.89833,-1.99854 -27.51054,-3.4297 -34.45703,-2.12281 h -13.36035 c -8.67198,1.17855 -17.34699,2.35811 -26.01896,3.53563 -24.54461,6.98264 -47.15211,14.92075 -66.10104,27.58729 -7.60772,5.08699 -14.00234,12.28354 -21.09567,17.68528 -10.31747,7.85763 -22.11131,18.49406 -28.12924,30.41599 h -0.70274 v -1.41384 c 3.58868,-5.58917 -1.83283,-15.11734 -3.51781,-18.39221 -4.337,-8.43111 -8.67602,-15.37301 -14.0631,-22.63679 -3.42869,-4.61842 -13.36349,-12.07969 -15.50111,-17.76665 l 17.56093,12.55626 c 10.71416,7.5307 23.96522,20.10567 42.94454,16.53032 0.2339,-0.23531 0.46883,-0.47163 0.70274,-0.70896 2.79785,-19.26007 -5.29795,-35.1699 -12.65558,-48.8082 -1.75384,-3.25042 -4.90195,-7.02912 -6.08365,-11.01294 l 0.44384,0.29353 c 7.59457,11.61838 32.39394,36.75126 50.64519,36.89183 10.38329,-21.2973 -2.02522,-42.02418 -4.92228,-61.54094 l 8.43805,14.14659 c 5.69694,9.07896 12.50166,18.48082 21.09567,24.7596 2.40089,1.75202 8.45123,7.659 11.95586,5.65843 10.58074,-7.31165 9.00411,-30.05845 8.43806,-46.68743 -0.14784,-4.29042 -2.70872,-12.1939 -0.70477,-15.56247 1.46828,13.35105 13.59426,38.93063 21.09567,46.68743 3.27275,3.3808 5.33746,6.96532 11.25311,7.78123 2.34216,-2.3581 4.68839,-4.71621 7.03054,-7.07431 7.2766,-11.15695 11.53158,-35.56716 11.95688,-53.0538 z"
             id="path79"
             sodipodi:nodetypes="ccccccccccccccccccccccccccccccccccccccccccccccccccccccccc" /><path
             style="clip-rule:evenodd;fill:#333333;fill-opacity:0.75;fill-rule:evenodd;stroke-width:1.01862"
             d="m 491.99142,331.50248 c 99.29609,-1.97205 159.65442,55.04928 182.50308,129.4503 15.02363,48.91922 1.92418,105.98843 -18.3922,138.64538 -4.28635,6.89097 -13.98973,25.93814 -21.92783,27.58627 -77.80423,-52.10445 -155.63189,-104.22316 -233.43408,-156.32761 3.8677,-5.02587 5.14606,-12.36197 8.48816,-17.68528 11.62347,-18.51851 29.38209,-35.34407 50.22407,-44.56462 7.1334,-3.1567 15.52988,-4.96679 23.34372,-7.07228 13.41318,-3.61712 33.42194,-1.37616 44.56462,2.12077 35.94608,11.28529 60.6578,28.31356 74.98164,60.83402 5.35182,12.15315 12.01156,37.5667 7.78123,55.88251 -0.92083,3.98586 -6.36739,26.17344 -6.36739,26.17344 3.57332,3.64971 17.40618,13.8461 22.63679,14.85555 2.55877,-10.69143 6.49676,-21.96552 9.19508,-33.95468 3.37673,-14.9951 0.45635,-36.19054 -2.82972,-48.10127 -11.10805,-40.27419 -27.90102,-65.3516 -59.41814,-84.88466 -12.95787,-8.02978 -28.91353,-13.40911 -45.27155,-17.68528 -8.44028,-2.20531 -16.93456,-2.12076 -26.88036,-2.1228 -41.49552,-0.002 -67.89408,15.13771 -89.83719,34.6616 -4.69889,4.18042 -10.45817,8.37204 -14.14863,13.44273 -9.93155,13.64238 -19.05533,28.99603 -24.75756,46.68539 -8.08275,25.07639 -6.26757,60.67715 2.1228,83.46878 16.22968,44.10013 46.22498,74.77179 93.37282,87.71642 24.34095,6.68214 62.83459,2.1554 82.05595,-5.65844 7.78532,-3.1679 16.26736,-9.20628 24.75756,-10.61096 4.13865,13.74729 16.65546,23.90905 21.22091,37.49031 -0.2353,0 -0.47162,0 -0.70692,0 -6.10765,5.6238 -15.92001,7.81179 -24.05064,11.31788 -33.50954,14.44811 -82.32181,20.42028 -122.37598,7.07228 -58.58695,-19.52185 -97.48193,-60.93283 -116.71653,-120.25318 -7.7242,-23.82145 -11.25881,-62.4577 -3.53563,-89.83719 16.93659,-60.05987 50.47873,-101.34861 103.98378,-124.49777 12.62681,-5.46286 26.69497,-8.4576 41.02696,-12.02379 4.92502,-1.22642 14.74859,0.15993 18.39118,-2.12382 z"
             id="path80" /><path
             style="clip-rule:evenodd;overflow:visible;fill:url(#linearGradient39);fill-opacity:0.655325;fill-rule:evenodd;stroke-width:1.0183"
             d="m 341.70099,616.63463 c 7.98154,7.62864 12.91455,18.9327 21.69428,25.72276 6.61908,5.11903 12.2223,11.61685 18.8958,16.43436 13.79743,9.95817 29.7404,18.80101 46.19027,25.72477 11.38683,4.79083 23.94766,6.88576 36.39163,10.00245 3.96464,0.2398 7.9312,0.47845 11.89578,0.71613 12.63649,2.8183 41.53133,2.41701 53.88865,-0.71613 16.83387,-4.26397 32.93202,-8.43533 47.58906,-15.00416 19.4994,-8.74196 38.90813,-22.62452 53.18725,-37.15639 4.80808,-4.89164 10.64413,-10.20103 14.69736,-15.7203 2.32493,-3.16713 3.84767,-6.99893 6.99892,-9.28839 -0.3417,21.87038 11.16413,32.53135 20.29354,45.01452 2.49025,3.40688 6.81561,5.68293 8.39983,10.00452 h -1.40084 c -3.2309,-4.62516 -9.30369,-6.81784 -13.9959,-10.00452 -10.33572,-7.01434 -22.56006,-17.74731 -40.59215,-14.29004 v 1.43024 c -2.87208,3.98822 -1.40079,14.66458 0,19.29281 8.74661,28.8946 12.05837,28.3565 17.49701,38.58462 -15.57519,-12.74962 -28.85426,-27.45291 -49.68926,-35.72722 -11.16918,19.13849 2.0982,43.82918 4.89879,62.88119 l -7.69843,-13.57903 c -5.77148,-9.34803 -12.81985,-20.14477 -21.69428,-26.43888 -2.44483,-1.73171 -8.39779,-7.74285 -11.89883,-5.71583 -13.36302,9.01464 -9.25633,43.97634 -6.99898,62.88119 h -0.69934 v -1.43019 c -2.90442,-4.03043 -2.89635,-10.02201 -4.89884,-15.00417 -4.81307,-11.9739 -13.81952,-37.461 -27.99187,-38.58669 -1.46526,2.00751 -4.18222,3.01693 -5.59818,5.00177 -4.80409,6.73652 -7.45853,16.72557 -9.79859,25.72477 -1.40078,10.0024 -2.79962,20.00898 -4.20037,30.01034 -0.24589,-18.33381 -4.57127,-39.48391 -11.89577,-51.44752 -2.51239,-4.10345 -3.59979,-8.27172 -9.09917,-9.29033 -1.7354,1.72756 -4.29308,2.06195 -6.29759,3.57456 -4.63977,3.4902 -11.5168,15.6081 -13.99795,21.43607 -3.08181,7.23868 -6.37318,23.97766 -10.49803,29.29629 0.57247,-26.73832 4.79606,-44.13989 -6.99692,-62.8812 -17.17951,6.21177 -23.98399,18.39971 -32.89371,32.86878 -2.72101,4.42038 -6.86491,8.68227 -8.39778,14.29213 h -0.6994 v -2.14432 c 2.29873,-2.93976 2.18387,-7.41568 3.498,-11.43271 2.9397,-8.97343 14.68018,-49.86292 -3.498,-50.01927 -2.44682,1.66585 -5.60521,1.55372 -8.39773,2.85837 -4.87767,2.27815 -9.72507,6.71704 -13.99801,10.00453 -7.46355,7.86014 -14.93017,15.72029 -22.39372,23.58044 v -1.43024 c 6.32782,-6.76228 15.1549,-28.87339 18.19639,-39.30075 1.56001,-5.35263 2.1193,-14.72222 -0.70144,-18.57668 -3.77512,-3.43977 -15.00174,-0.92091 -18.89575,0.71406 -10.01429,4.2064 -19.29482,10.48403 -27.99188,16.43444 -3.31462,2.26576 -5.62437,5.65406 -9.79856,7.14401 v -0.71412 h 0.69939 c 10.244,-16.18536 31.53317,-29.06373 28.69532,-55.73104 z"
             id="path81"
             sodipodi:nodetypes="csccccccccccccccccccccccccccccccsccscccccccccccccccccccc" /></g><g
           id="g87"
           transform="matrix(0.18445238,0,0,0.18445238,62.432387,77.976487)"
           style="display:inline;overflow:visible;fill:url(#radialGradient16);fill-opacity:1"><path
             style="clip-rule:evenodd;fill:url(#linearGradient62);fill-opacity:1;fill-rule:evenodd"
             d="m 499.652,250 c 2.418,4.069 0.837,10.761 2.084,15.972 3.219,13.464 6.335,41.729 20.137,43.057 1.223,-1.197 2.658,-1.052 4.168,-2.084 6.669,-4.561 12.597,-15.199 15.972,-22.917 3.067,-7.014 6.329,-23.311 10.417,-28.472 -1.405,26.209 -5.332,43.221 6.945,61.806 16.632,-6.132 23.236,-17.398 31.944,-31.25 2.7,-4.296 6.812,-8.438 8.333,-13.89 h 0.696 v 2.78 c -1.968,2.461 -1.664,5.527 -2.778,9.027 -2.754,8.639 -15.145,49.22 3.471,49.306 3.463,-2.418 8.241,-2.656 11.804,-4.861 3.756,-2.324 7.459,-5.589 11.113,-8.333 7.817,-5.87 12.697,-16.066 20.833,-21.527 v 1.388 c -6.457,6.808 -15.179,28.875 -18.056,39.583 -1.345,5.005 -1.482,14.52 2.084,16.668 4.855,3.182 14.304,-0.797 17.36,-2.084 8.984,-3.782 16.805,-7.245 24.307,-12.5 4.367,-3.058 8.307,-7.11 13.194,-9.721 v 1.388 c -7.361,4.99 -23.39,27.207 -27.085,36.111 -1.589,3.831 -0.788,13.492 -2.778,16.666 v -0.694 c -6.71,-6.339 -11.027,-15.533 -18.056,-21.527 -19.437,-16.578 -39.683,-31.815 -65.278,-42.361 -11.723,-4.832 -24.62,-7.179 -37.499,-10.417 -7.8,-1.962 -27.168,-3.367 -34.028,-2.084 h -13.194 c -8.564,1.157 -17.131,2.315 -25.695,3.471 -24.239,6.855 -46.565,14.648 -65.278,27.083 -7.513,4.994 -13.828,12.059 -20.833,17.362 -10.189,7.714 -21.836,18.156 -27.779,29.86 h -0.694 v -1.388 c 3.544,-5.487 -1.81,-14.841 -3.474,-18.056 -4.283,-8.277 -8.568,-15.092 -13.888,-22.223 -3.386,-4.534 -8.19873,-9.16534 -11.804,-13.888 l 13.194,9.029 c 10.774,7.329 24.311,19.482 43.054,15.972 0.231,-0.231 0.463,-0.463 0.694,-0.696 2.763,-18.908 -5.232,-34.527 -12.498,-47.916 -1.732,-3.191 -4.39,-5.812 -5.557,-9.723 l 0.37582,0.32018 c 7.5,11.406 31.60218,34.95882 49.62618,35.09682 10.254,-20.908 -2,-41.256 -4.861,-60.416 l 8.333,13.888 c 5.626,8.913 12.346,18.143 20.833,24.307 2.371,1.72 8.346,7.519 11.807,5.555 10.449,-7.178 8.892,-29.509 8.333,-45.834 -0.146,-4.212 -2.675,-11.971 -0.696,-15.278 1.45,13.107 13.425,38.219 20.833,45.834 3.232,3.319 5.271,6.838 11.113,7.639 2.313,-2.315 4.63,-4.63 6.943,-6.945 7.186,-10.953 11.388,-34.917 11.808,-52.084 z"
             id="path82"
             sodipodi:nodetypes="ccccccccccccccccccccccccccccccccccccccccccccccccccccccccc" /><path
             style="clip-rule:evenodd;fill:url(#radialGradient71);fill-opacity:1;fill-rule:evenodd"
             d="m 489.929,325.694 c 97.481,-1.936 156.736,54.043 179.167,127.084 14.749,48.025 1.889,104.051 -18.056,136.111 -4.208,6.765 -13.734,25.464 -21.527,27.082 -76.382,-51.152 -152.787,-102.318 -229.167,-153.47 3.797,-4.934 5.052,-12.136 8.333,-17.362 11.411,-18.18 28.845,-34.698 49.306,-43.75 7.003,-3.099 15.246,-4.876 22.917,-6.943 13.168,-3.551 32.811,-1.351 43.75,2.082 35.289,11.079 59.549,27.796 73.611,59.722 5.254,11.931 11.792,36.88 7.639,54.861 -0.904,3.913 -6.251,25.695 -6.251,25.695 3.508,3.583 17.088,13.593 22.223,14.584 2.512,-10.496 6.378,-21.564 9.027,-33.334 3.315,-14.721 0.448,-35.529 -2.778,-47.222 -10.905,-39.538 -27.391,-64.157 -58.332,-83.333 -12.721,-7.883 -28.385,-13.164 -44.444,-17.362 -8.286,-2.165 -16.625,-2.082 -26.389,-2.084 -40.737,-0.002 -66.653,14.861 -88.195,34.028 -4.613,4.104 -10.267,8.219 -13.89,13.197 -9.75,13.393 -18.707,28.466 -24.305,45.832 -7.935,24.618 -6.153,59.568 2.084,81.943 15.933,43.294 45.38,73.405 91.666,86.113 23.896,6.56 61.686,2.116 80.556,-5.555 7.643,-3.11 15.97,-9.038 24.305,-10.417 4.063,13.496 16.351,23.472 20.833,36.805 -0.231,0 -0.463,0 -0.694,0 -5.996,5.521 -15.629,7.669 -23.611,11.111 -32.897,14.184 -80.817,20.047 -120.139,6.943 C 390.052,648.89 351.868,608.236 332.985,550 c -7.583,-23.386 -11.053,-61.316 -3.471,-88.195 16.627,-58.962 49.556,-99.496 102.083,-122.222 12.396,-5.363 26.207,-8.303 40.277,-11.804 4.835,-1.204 14.479,0.157 18.055,-2.085 z"
             id="path83" /><path
             style="clip-rule:evenodd;display:inline;overflow:visible;fill:url(#radialGradient57);fill-opacity:0.545858;fill-rule:evenodd"
             d="m 489.929,325.694 c 97.481,-1.936 156.736,54.043 179.167,127.084 14.749,48.025 1.889,104.051 -18.056,136.111 -4.208,6.765 -13.734,25.464 -21.527,27.082 -76.382,-51.152 -152.787,-102.318 -229.167,-153.47 3.797,-4.934 5.052,-12.136 8.333,-17.362 11.411,-18.18 28.845,-34.698 49.306,-43.75 7.003,-3.099 15.246,-4.876 22.917,-6.943 13.168,-3.551 32.811,-1.351 43.75,2.082 35.289,11.079 59.549,27.796 73.611,59.722 5.254,11.931 11.792,36.88 7.639,54.861 -0.904,3.913 -6.251,25.695 -6.251,25.695 3.508,3.583 17.088,13.593 22.223,14.584 2.512,-10.496 6.378,-21.564 9.027,-33.334 3.315,-14.721 0.448,-35.529 -2.778,-47.222 -10.905,-39.538 -27.391,-64.157 -58.332,-83.333 -12.721,-7.883 -28.385,-13.164 -44.444,-17.362 -8.286,-2.165 -16.625,-2.082 -26.389,-2.084 -40.737,-0.002 -66.653,14.861 -88.195,34.028 -4.613,4.104 -10.267,8.219 -13.89,13.197 -9.75,13.393 -18.707,28.466 -24.305,45.832 -7.935,24.618 -6.153,59.568 2.084,81.943 15.933,43.294 45.38,73.405 91.666,86.113 23.896,6.56 61.686,2.116 80.556,-5.555 7.643,-3.11 15.97,-9.038 24.305,-10.417 4.063,13.496 16.351,23.472 20.833,36.805 -0.231,0 -0.463,0 -0.694,0 -5.996,5.521 -15.629,7.669 -23.611,11.111 -32.897,14.184 -80.817,20.047 -120.139,6.943 C 390.052,648.89 351.868,608.236 332.985,550 c -7.583,-23.386 -11.053,-61.316 -3.471,-88.195 16.627,-58.962 49.556,-99.496 102.083,-122.222 12.396,-5.363 26.207,-8.303 40.277,-11.804 4.835,-1.204 14.479,0.157 18.055,-2.085 z"
             id="path84"
             transform="translate(3.9531431e-6)" /><path
             style="clip-rule:evenodd;display:inline;fill:url(#radialGradient88);fill-opacity:1;fill-rule:evenodd"
             d="m 346.18,613.196 c 7.92,7.414 12.815,18.4 21.527,24.999 6.568,4.975 12.128,11.29 18.75,15.972 13.691,9.678 29.511,18.272 45.834,25.001 11.299,4.656 23.763,6.692 36.111,9.721 3.934,0.233 7.87,0.465 11.804,0.696 12.539,2.739 41.211,2.349 53.473,-0.696 16.704,-4.144 32.678,-8.198 47.222,-14.582 19.349,-8.496 38.608,-21.988 52.777,-36.111 4.771,-4.754 10.562,-9.914 14.584,-15.278 2.307,-3.078 3.818,-6.802 6.945,-9.027 -0.339,21.255 11.078,31.616 20.137,43.748 2.471,3.311 6.763,5.523 8.335,9.723 h -1.39 c -3.206,-4.495 -9.232,-6.626 -13.888,-9.723 -10.256,-6.817 -22.386,-17.248 -40.279,-13.888 v 1.39 c -2.85,3.876 -1.39,14.252 0,18.75 8.67917,28.08159 11.96528,27.55864 17.362,37.499 -15.45505,-12.39091 -28.63167,-26.6805 -49.306,-34.722 -11.083,18.6 2.082,42.596 4.861,61.112 L 593.4,714.583 c -5.727,-9.085 -12.721,-19.578 -21.527,-25.695 -2.426,-1.683 -8.333,-7.525 -11.807,-5.555 -13.26,8.761 -9.185,42.739 -6.945,61.112 h -0.694 v -1.39 c -2.882,-3.917 -2.874,-9.74 -4.861,-14.582 -4.776,-11.637 -13.713,-36.407 -27.776,-37.501 -1.454,1.951 -4.15,2.932 -5.555,4.861 -4.767,6.547 -7.401,16.255 -9.723,25.001 -1.39,9.721 -2.778,19.446 -4.168,29.166 -0.244,-17.818 -4.536,-38.373 -11.804,-50 -2.493,-3.988 -3.572,-8.039 -9.029,-9.029 -1.722,1.679 -4.26,2.004 -6.249,3.474 -4.604,3.392 -11.428,15.169 -13.89,20.833 -3.058,7.035 -6.324,23.303 -10.417,28.472 0.568,-25.986 4.759,-42.898 -6.943,-61.112 -17.047,6.037 -23.799,17.882 -32.64,31.944 -2.7,4.296 -6.812,8.438 -8.333,13.89 h -0.694 v -2.084 c 2.281,-2.857 2.167,-7.207 3.471,-11.111 2.917,-8.721 14.567,-48.46 -3.471,-48.612 -2.428,1.619 -5.562,1.51 -8.333,2.778 -4.84,2.214 -9.65,6.528 -13.89,9.723 -7.406,7.639 -14.815,15.278 -22.221,22.917 v -1.39 c 6.279,-6.572 15.038,-28.061 18.056,-38.195 1.548,-5.202 2.103,-14.308 -0.696,-18.054 -3.746,-3.343 -14.886,-0.895 -18.75,0.694 -9.937,4.088 -19.146,10.189 -27.776,15.972 -3.289,2.202 -5.581,5.495 -9.723,6.943 v -0.694 h 0.694 c 10.165,-15.73 31.29,-28.246 28.474,-54.163 z"
             id="path85"
             sodipodi:nodetypes="csccccccccccccccccccccccccccccccsccscccccccccccccccccccc" /><path
             style="clip-rule:evenodd;display:inline;overflow:visible;fill:url(#radialGradient70);fill-opacity:0.545858;fill-rule:evenodd"
             d="m 495.56425,363.09154 c 97.481,-1.936 125.22985,66.33808 135.36577,91.73564 14.749,48.025 7.01195,50.00387 6.02187,66.69502 -2.15882,8.30188 -5.53728,24.43941 -9.23192,33.99798 L 621.874,551.39 c 2.512,-10.496 6.378,-21.564 9.027,-33.334 3.315,-14.721 0.448,-35.529 -2.778,-47.222 -10.905,-39.538 -27.391,-64.157 -58.332,-83.333 -12.721,-7.883 -28.385,-13.164 -44.444,-17.362 -8.286,-2.165 -16.625,-2.082 -26.389,-2.084 -40.737,-0.002 -66.653,14.861 -88.195,34.028 -4.613,4.104 -10.267,8.219 -13.89,13.197 -9.75,13.393 -18.707,28.466 -24.305,45.832 -7.935,24.618 -6.153,59.568 2.084,81.943 15.933,43.294 45.38,73.405 91.666,86.113 23.896,6.56 61.686,2.116 80.556,-5.555 7.643,-3.11 16.78506,-8.49463 24.305,-10.417 0.16884,1.90409 1.13661,4.09177 1.99614,6.01398 l -1.78074,1.08674 c -7.62612,3.80032 -12.64046,5.85776 -20.62246,9.29976 -27.55385,10.10872 -56.88535,15.12294 -97.40798,3.32053 -53.69495,-15.63891 -79.90614,-66.30711 -86.32771,-90.5242 -5.82737,-21.97623 -8.28413,-50.33491 -4.1955,-71.16938 7.01419,-35.74222 26.61119,-64.90834 60.06231,-87.44626 12.38788,-8.34641 26.89933,-13.50908 41.36375,-17.23771 10.16335,-2.61989 14.49941,-3.3794 31.29744,-3.44792 z"
             id="path86"
             transform="translate(3.9531431e-6)"
             sodipodi:nodetypes="ccccccccccccccccccccssssac" /><path
             style="clip-rule:evenodd;display:inline;overflow:visible;fill:url(#linearGradient54);fill-rule:evenodd"
             d="m 489.929,325.694 c 94.47242,-2.46311 156.736,54.043 179.167,127.084 14.749,48.025 1.889,104.051 -18.056,136.111 -4.208,6.765 -13.734,25.464 -21.527,27.082 -76.382,-51.152 -152.787,-102.318 -229.167,-153.47 3.797,-4.934 -0.0195,0.18041 3.26154,-5.04559 44.97022,30.90047 104.0281,70.12398 163.4412,110.14161 3.508,3.583 56.57296,42.21054 61.70796,43.20154 8.6702,-7.59802 16.03515,-17.57986 20.80003,-28.26253 21.42422,-48.03216 26.31026,-83.28488 16.78336,-123.83732 -8.87872,-37.79338 -34.09648,-73.40604 -65.39582,-96.3739 -30.54626,-22.41524 -74.63288,-33.44224 -108.86897,-32.66803 -36.97167,0.83608 -81.86739,21.01921 -103.40939,40.18621 -4.613,4.104 -23.3079,25.96912 -26.9309,30.94712 -9.75,13.393 -20.88048,38.97117 -26.47848,56.33717 -7.935,24.618 -8.32649,48.33833 3.89523,98.24413 15.933,43.294 62.93988,94.63906 110.14062,107.84784 34.38756,9.6231 67.826,9.66079 107.00005,-3.91201 10.36685,-3.59185 24.66394,-8.86975 31.91219,-13.14673 3.70076,5.16431 -1.03687,-1.52307 3.80738,3.84049 h -0.694 c -5.996,5.521 -15.629,7.669 -23.611,11.111 -32.897,14.184 -80.817,20.047 -120.139,6.943 C 390.052,648.89 351.868,608.236 332.985,550 c -7.583,-23.386 -11.053,-61.316 -3.471,-88.195 16.627,-58.962 49.556,-99.496 102.083,-122.222 12.396,-5.363 26.207,-8.303 40.277,-11.804 6.82736,-1.204 11.99873,-1.9271 18.055,-2.085 z"
             id="path87"
             transform="translate(3.9531431e-6)"
             sodipodi:nodetypes="scccccccsaasccccsscccccscscs" /></g></g><g
         id="text91"
         style="font-weight:bold;font-size:80.7796px;line-height:0;font-family:'Liberation Sans';-inkscape-font-specification:'Liberation Sans Bold';letter-spacing:-0.0702783px;word-spacing:0px;display:inline;fill:#0a0a0a;fill-opacity:0.673165;fill-rule:evenodd;stroke-width:6.07718;stroke-linejoin:round"
         transform="matrix(1.7550855,-1.6731097,0,1.7133394,20.87543,108.08442)"
         aria-label="  e&#10;Theme"><path
           style="line-height:1;stroke-width:6.07717"
           d="m 197.48739,193.3163 q -9.62413,0 -14.79119,-5.67982 -5.16705,-5.71926 -5.16705,-16.64501 0,-10.57077 5.24594,-16.25059 5.24594,-5.67981 14.87007,-5.67981 9.19026,0 14.04177,6.11369 4.85151,6.07425 4.85151,17.82831 v 0.31554 h -27.37356 q 0,6.23202 2.28771,9.42692 2.32714,3.15545 6.587,3.15545 5.87704,0 7.41532,-5.08816 l 10.45244,0.90719 q -4.53597,11.59629 -18.41996,11.59629 z m 0,-37.27379 q -3.90487,0 -6.0348,2.72158 -2.09049,2.72157 -2.20882,7.61253 h 16.56613 q -0.31555,-5.16706 -2.48492,-7.73086 -2.16938,-2.60325 -5.83759,-2.60325 z"
           id="path91" /><path
           style="font-size:44.0972px;line-height:0.4;stroke-width:6.07717"
           d="m 146.27204,207.48814 v 25.4291 h -6.35189 v -25.4291 h -9.79699 v -4.90926 h 25.9674 v 4.90926 z m 19.26531,6.78253 q 1.22731,-2.66995 3.07905,-3.87573 1.85174,-1.20579 4.41403,-1.20579 3.70347,0 5.6844,2.28238 1.98093,2.28237 1.98093,6.67487 v 14.77084 h -6.02891 v -13.0483 q 0,-6.13657 -4.15565,-6.13657 -2.19625,0 -3.55275,1.8948 -1.33498,1.87327 -1.33498,4.82313 v 12.46694 h -6.05044 v -31.95325 h 6.05044 v 8.7204 q 0,2.34697 -0.17225,4.58628 z m 30.44033,19.0772 q -5.25377,0 -8.07444,-3.10058 -2.82067,-3.12212 -2.82067,-9.08644 0,-5.77053 2.86373,-8.87111 2.86374,-3.10059 8.11751,-3.10059 5.01691,0 7.66533,3.33744 2.64842,3.3159 2.64842,9.73239 v 0.17225 h -14.9431 q 0,3.40203 1.24885,5.14611 1.27038,1.72255 3.59581,1.72255 3.20825,0 4.04799,-2.77761 l 5.70594,0.49523 q -2.47617,6.33036 -10.05537,6.33036 z m 0,-20.34758 q -2.13165,0 -3.29437,1.4857 -1.14119,1.48569 -1.20578,4.15564 h 9.04337 q -0.17226,-2.82067 -1.35651,-4.22024 -1.18425,-1.4211 -3.18671,-1.4211 z m 28.63166,19.91695 v -13.06983 q 0,-6.13657 -3.53122,-6.13657 -1.83021,0 -2.99293,1.87327 -1.14119,1.87327 -1.14119,4.84466 v 12.48847 h -6.05044 v -18.08675 q 0,-1.87326 -0.0646,-3.05752 -0.0431,-1.20578 -0.10766,-2.15318 h 5.77054 q 0.0646,0.40911 0.17225,2.19625 0.10766,1.76561 0.10766,2.4331 h 0.0861 q 1.11965,-2.66995 2.7776,-3.87574 1.67949,-1.20578 4.00493,-1.20578 5.33989,0 6.48108,5.08152 h 0.12919 q 1.18425,-2.71302 2.8422,-3.89727 1.65795,-1.18425 4.22024,-1.18425 3.40203,0 5.18917,2.32544 1.78715,2.30391 1.78715,6.63181 v 14.79237 h -6.00739 v -13.06983 q 0,-6.13657 -3.53122,-6.13657 -1.76561,0 -2.9068,1.72255 -1.11965,1.70101 -1.22731,4.71547 v 12.76838 z m 34.96201,0.43063 q -5.25377,0 -8.07444,-3.10058 -2.82067,-3.12212 -2.82067,-9.08644 0,-5.77053 2.86374,-8.87111 2.86373,-3.10059 8.1175,-3.10059 5.01692,0 7.66533,3.33744 2.64842,3.3159 2.64842,9.73239 v 0.17225 h -14.94309 q 0,3.40203 1.24884,5.14611 1.27038,1.72255 3.59582,1.72255 3.20824,0 4.04798,-2.77761 l 5.70594,0.49523 q -2.47616,6.33036 -10.05537,6.33036 z m 0,-20.34758 q -2.13165,0 -3.29437,1.4857 -1.14119,1.48569 -1.20578,4.15564 h 9.04337 q -0.17225,-2.82067 -1.35651,-4.22024 -1.18425,-1.4211 -3.18671,-1.4211 z"
           id="path92" /></g></g><path
       id="rect6"
       style="display:inline;opacity:1;fill:url(#radialGradient8);stroke-width:4;stroke-linecap:square"
       d="m 20.579622,35.546667 v 5.613095 l 72.74392,34.794223 c 3.825767,1.674873 3.781717,5.674442 3.820806,9.372583 -3.010533,27.742352 -1.429276,47.321522 -0.03134,67.226592 l -0.03134,6.37243 c -9.372647,15.40546 -3.486088,47.65668 -0.06269,73.59902 l 8.285282,5.07825 c -0.91836,-24.49073 -3.42897,-49.49226 0.31663,-75.49121 l 0.31664,-9.34537 c -1.77185,-22.23125 -0.54055,-44.46249 0.63328,-66.693732 0.003,-5.567738 0.82393,-7.680742 2.70763,-8.15772 L 234.39551,47.841007 V 42.22843 L 107.76737,71.912991 c -5.42129,1.508568 -6.96738,0.684709 -11.120628,-1.211547 z"
       sodipodi:nodetypes="ccccccccccccccccc" /><path
       id="rect8"
       style="display:inline;opacity:1;fill:url(#linearGradient10);stroke-width:4;stroke-linecap:square"
       d="m 116.58273,72.714566 50.01027,-10.726465 9.73289,-2.267857 50.55432,-12.473215 c 3.14129,-1.515262 6.30219,-2.926004 10.48883,1.133929 1.89423,22.367908 1.54116,44.735817 -4.37128,67.103722 -2.01309,5.20459 -3.24271,10.94372 0,16.41558 l -3.74177,54.36785 -4.27631,7.32841 c -15.44287,7.88002 -33.33361,11.47625 -51.59002,14.43256 l -9.44249,1.7477 c -15.53109,12.69454 -34.72367,20.15836 -53.67262,27.97024 -3.35385,0.57515 -8.20235,0.60093 -8.22098,-6.4256 -1.58281,-20.06868 -4.405742,-38.01143 0.75595,-69.64211 l 0.18899,-8.40996 c -1.64541,-22.08216 -1.58936,-57.449944 -1.0157,-66.74441 0.57366,-9.294465 0.0702,-11.488263 14.59992,-13.810374 z"
       sodipodi:nodetypes="ccccccccccccccczc"
       inkscape:label="shadow" /><path
       style="color:#000000;display:inline;fill:url(#linearGradient13);stroke-linecap:square;-inkscape-stroke:none"
       d="m 131.84077,12.305863 c -14.43151,1.588082 -29.8153,4.902306 -40.895458,8.780074 l -0.548828,0.0918 -0.419922,0.363282 c -1.360688,1.171578 -2.431928,1.790147 -3.023437,1.921875 -0.591509,0.131728 -0.825842,0.129939 -1.662109,-0.636719 l -0.66211,-0.607422 -0.894531,0.0918 c 0,0 -12.292894,1.267842 -25.755859,3.072265 -6.731483,0.902212 -13.756188,1.937616 -19.710938,3.023438 -5.88046,1.072275 -10.558872,2.104708 -13.361328,3.373047 -1.91086,0.491325 -3.636304,1.301129 -4.9375,2.642578 -1.357368,1.399358 -2.160304,3.324537 -2.308594,5.507812 l -0.0059,0.06055 v 0.06055 c -0.152906,21.370082 0.45901,42.539587 5.292969,62.183597 v 5.375 c -2.514462,19.27926 -3.390818,38.22632 1.197265,55.80273 l 0.07813,0.29687 3.994141,6.39063 0.06055,0.0781 c 7.337161,9.51064 17.105822,16.24422 26,23.48047 l 0.21875,0.17774 0.259765,0.11133 c 1.754458,0.74589 3.197908,1.01981 4.19336,1.63867 0.995451,0.61886 1.837345,1.48119 2.515625,4.13867 l 0.08008,0.31836 0.179687,0.27734 c 9.271671,14.27187 20.620672,26.16791 33.433594,36.32617 l 0.07031,0.0547 0.07227,0.0488 c 6.491588,4.27211 13.577048,4.0998 20.021488,0.16797 l -0.2461,0.1289 c 17.15847,-7.43457 35.70369,-14.01198 49.06445,-25.1582 l 0.0742,-0.0625 0.0703,-0.0703 c 1.57364,-1.60007 2.78469,-2.09147 3.93945,-2.20508 1.15476,-0.11361 2.40278,0.21135 3.83984,0.80274 l 0.5586,0.22851 0.58984,-0.11523 c 17.97759,-3.54633 37.14982,-6.31854 53.6582,-16.33985 l 0.0176,-0.0117 0.0156,-0.01 c 2.20633,-1.40206 3.29913,-3.49979 3.66015,-5.40235 0.36103,-1.90255 0.21137,-3.64139 0.29688,-5.05273 l 3.15625,-52.30273 -0.14063,-0.38868 c 0,0 -0.44867,-1.242 -0.91211,-2.79687 -0.46343,-1.55487 -0.91448,-3.48885 -0.95507,-4.36914 -0.0629,-1.36416 0.59634,-3.54192 1.35937,-5.25391 0.76303,-1.71199 1.53711,-2.95117 1.53711,-2.95117 l 0.2168,-0.3457 0.0644,-0.4043 c 3.12258,-19.792496 6.80612,-40.401682 4.25977,-59.365232 -0.3472,-2.585718 -0.29811,-5.786759 -1.09571,-8.921875 -0.79719,-3.133516 -2.73909,-6.305812 -6.6289,-7.93164 l -0.006,-0.002 c -8.90718,-3.742331 -18.44647,-9.241088 -32.92383,-9.61914 l 0.16015,0.01172 c -3.2485,-0.34507 -6.3171,-0.34348 -8.71093,-0.72461 -2.39384,-0.38113 -3.90264,-1.016671 -4.87305,-2.466797 l -0.38086,-0.572265 -0.65234,-0.214844 c -8.57376,-4.99448 -26.73706,-9.168739 -41.07693,-11.859606 -3.26344,-0.612383 -5.95983,-1.466126 -11.41797,-0.865498 z m 11.33798,3.871745 c 13.67062,1.918032 30.57309,7.290035 39.39355,12.455204 1.79894,2.192284 4.40738,3.184207 7.04101,3.603516 2.88156,0.458782 5.95307,0.435264 8.91602,0.75 l 0.0801,0.0098 0.0801,0.002 c 13.5197,0.353044 22.23965,5.425876 31.48242,9.308594 h 0.004 l 0.002,0.002 c 2.74469,1.145502 3.68503,2.81586 4.29883,5.228515 0.6138,2.412656 0.60252,5.462992 1.00586,8.466797 2.41426,17.979729 -1.08068,38.160326 -4.19922,57.906256 -0.19206,0.31503 -0.79789,1.2757 -1.5664,3 -0.88219,1.97934 -1.82237,4.48054 -1.70313,7.0664 0.079,1.7138 0.6203,3.65448 1.11914,5.32813 0.42866,1.43819 0.73466,2.28316 0.84375,2.58984 l -3.10742,51.51367 c -0.10814,1.78478 -0.0101,3.36717 -0.23437,4.54883 -0.22373,1.17901 -0.55327,1.92701 -1.86915,2.76563 -15.45673,9.37262 -33.88266,12.197 -51.82421,15.7207 -1.54014,-0.58432 -3.22387,-1.05837 -5.10743,-0.87305 -2.1386,0.21041 -4.34396,1.2899 -6.40039,3.38086 l 0.14453,-0.13476 c -12.54469,10.46541 -30.76799,17.05238 -48.09179,24.55859 l -0.12891,0.0566 -0.11719,0.0723 c -5.45447,3.32784 -10.27671,3.46787 -15.679683,-0.0625 -12.485623,-9.91169 -23.485089,-21.45591 -32.476563,-35.29493 -0.891078,-2.93747 -2.339709,-4.91027 -4.023437,-5.95703 -1.72631,-1.07323 -3.340391,-1.38565 -4.53125,-1.85351 -8.954129,-7.26351 -18.273486,-13.80262 -25.041016,-22.55274 l -3.517578,-5.62304 c -4.320602,-16.75281 -3.530071,-35.15467 -1.041016,-54.17774 l 0.01758,-0.1289 v -6.04493 l -0.06055,-0.23632 c -4.7493,-19.116357 -5.382725,-40.045474 -5.232422,-61.392585 0.100336,-1.414645 0.51143,-2.277685 1.185547,-2.972656 0.678203,-0.699184 1.72663,-1.261499 3.234375,-1.623047 l 0.193359,-0.04492 0.179688,-0.08398 c 1.838325,-0.850657 6.687002,-2.04654 12.537109,-3.113281 5.850107,-1.066741 12.830675,-2.096857 19.525391,-2.994141 13.100699,-1.755869 24.570343,-2.937314 25.082031,-2.990234 1.321884,0.843259 2.813351,1.325355 4.230469,1.009765 1.596203,-0.355471 2.766975,-1.854363 4.308593,-2.447265 12.990533,-4.996125 27.247543,-8.000646 40.768393,-9.020823 4.61227,-0.348007 4.59777,-0.518751 10.27928,0.278385 z"
       id="path12"
       sodipodi:nodetypes="scccscccsscsccccccccccccscccccccccccsccccccscccssscccssccccscccsscsccccccsscsssccsccscccccccsccccccccscccsscscasc" /><path
       id="rect2"
       style="display:inline;opacity:1;fill:#030200;stroke-width:3.93791;stroke-linecap:square"
       d="m 85.987743,34.451391 c 0.229668,0.122429 -2.177405,-1.456434 -3.458052,-0.832973 -0.868088,0.422613 -1.628006,1.173131 -0.422457,1.973564 L 110.23762,56.875061 C 86.998574,53.723377 69.34179,53.184759 49.200636,55.496297 42.078648,55.03608 43.430374,62.234778 43.262611,65.809475 42.176364,88.955219 40.161006,134.41115 40.161006,134.41115 L 8.8232133,104.70336 c -2.6478793,-0.70827 -3.2525036,3.49812 -1.0113321,4.8537 l 31.7673708,28.98937 -9.23065,62.26558 c -1.144011,3.2085 1.62326,6.34606 3.815471,4.80469 l 9.158295,-63.81334 29.08457,27.22556 c 4.918738,4.73762 9.246913,5.78826 16.381732,3.89494 l 56.46633,-9.3351 -11.26293,69.37154 c -3.05953,1.15181 -0.74132,4.21384 3.45198,3.72398 3.64065,-0.4253 3.93076,-1.96401 4.36645,-3.65788 l 10.31316,-71.16011 61.19885,-3.28346 c 3.58776,-1.44828 3.05246,-5.07332 0.98509,-6.27216 l -61.60819,5.46066 12.7183,-70.058764 c 0.60478,-2.155146 0.7765,-4.240182 -2.0704,-5.836511 L 127.46077,61.997513 c 20.7285,-1.071478 57.12238,-6.342665 57.12238,-6.342665 l 2.12397,0.59358 c 0,0 -1.22056,-3.068866 -1.56031,-3.485407 -0.6795,-0.833082 -3.55762,-2.74383 -6.15296,-2.340733 -20.35388,3.949276 -39.3481,6.501465 -61.31309,6.342019 z m 30.449657,29.155349 43.5081,22.992551 -13.62762,72.291569 -57.842096,8.59241 c -4.903305,1.57989 -8.941098,0.51669 -13.432698,-2.84884 L 43.904191,137.66757 c 0,0 5.107898,-68.492091 5.595865,-73.033957 0.188532,-1.754806 1.846577,-3.677335 3.533669,-3.892549 23.229356,-2.963259 52.516145,0.06426 63.403675,2.865676 z"
       sodipodi:nodetypes="cscccscccccccccccsccccccccccscccccccccssc"
       transform="matrix(0.98941046,-0.14514446,0.1344425,0.99092139,0,0)" /></g></svg>
