<?xml version="1.0" encoding="UTF-8" standalone="no"?>
<!-- Created with Inkscape (http://www.inkscape.org/) -->

<svg
   width="256mm"
   height="256mm"
   viewBox="0 0 256 256"
   version="1.1"
   id="svg1"
   inkscape:version="1.3.2 (091e20ef0f, 2023-11-25)"
   xml:space="preserve"
   sodipodi:docname="application-x-vbs.svg"
   xmlns:inkscape="http://www.inkscape.org/namespaces/inkscape"
   xmlns:sodipodi="http://sodipodi.sourceforge.net/DTD/sodipodi-0.dtd"
   xmlns:xlink="http://www.w3.org/1999/xlink"
   xmlns="http://www.w3.org/2000/svg"
   xmlns:svg="http://www.w3.org/2000/svg"
   xmlns:rdf="http://www.w3.org/1999/02/22-rdf-syntax-ns#"
   xmlns:cc="http://creativecommons.org/ns#"
   xmlns:dc="http://purl.org/dc/elements/1.1/"><defs
     id="defs1"><linearGradient
       id="linearGradient1"
       inkscape:collect="always"><stop
         style="stop-color:#ffffff;stop-opacity:1;"
         offset="0"
         id="stop1" /><stop
         style="stop-color:#d2d2d2;stop-opacity:1;"
         offset="1"
         id="stop2" /></linearGradient><linearGradient
       inkscape:collect="always"
       xlink:href="#linearGradient1"
       id="linearGradient2"
       x1="86.910767"
       y1="76.225304"
       x2="217.36191"
       y2="242.69786"
       gradientUnits="userSpaceOnUse" /><radialGradient
       inkscape:collect="always"
       xlink:href="#linearGradient11"
       id="radialGradient7-5"
       cx="111.83923"
       cy="180.8036"
       fx="111.83923"
       fy="180.8036"
       r="65.355339"
       gradientTransform="matrix(2.0818339,0.03763459,-0.01086117,0.60080768,-82.654733,65.501254)"
       gradientUnits="userSpaceOnUse" /><linearGradient
       id="linearGradient11"
       inkscape:collect="always"><stop
         style="stop-color:#777777;stop-opacity:1;"
         offset="0"
         id="stop9-2" /><stop
         style="stop-color:#336161;stop-opacity:0.32975611;"
         offset="0.6181702"
         id="stop12-2" /><stop
         style="stop-color:#000000;stop-opacity:0;"
         offset="0.83419019"
         id="stop10-6" /><stop
         style="stop-color:#000000;stop-opacity:0;"
         offset="1"
         id="stop11-1" /></linearGradient><radialGradient
       inkscape:collect="always"
       xlink:href="#linearGradient25"
       id="radialGradient7-9"
       cx="79.701073"
       cy="80.938721"
       fx="79.701073"
       fy="80.938721"
       r="65.355339"
       gradientTransform="matrix(2.1242376,0.03306325,-0.01318739,0.84725967,-87.881144,24.326504)"
       gradientUnits="userSpaceOnUse" /><linearGradient
       id="linearGradient25"
       inkscape:collect="always"><stop
         style="stop-color:#ffffff;stop-opacity:1;"
         offset="0"
         id="stop23" /><stop
         style="stop-color:#ffffff;stop-opacity:0;"
         offset="0.83419019"
         id="stop24" /><stop
         style="stop-color:#ffffff;stop-opacity:0;"
         offset="1"
         id="stop25" /></linearGradient><linearGradient
       inkscape:collect="always"
       xlink:href="#linearGradient1-2"
       id="linearGradient2-1"
       x1="99.867813"
       y1="77.439163"
       x2="141.96323"
       y2="86.860428"
       gradientUnits="userSpaceOnUse" /><linearGradient
       id="linearGradient1-2"
       inkscape:collect="always"><stop
         style="stop-color:#747474;stop-opacity:1;"
         offset="0"
         id="stop1-0" /><stop
         style="stop-color:#000000;stop-opacity:1;"
         offset="1"
         id="stop2-6" /></linearGradient><radialGradient
       inkscape:collect="always"
       xlink:href="#linearGradient25"
       id="radialGradient12"
       gradientUnits="userSpaceOnUse"
       gradientTransform="matrix(2.1398144,0.01980865,-0.01328409,0.50760489,-95.700072,146.41558)"
       cx="80.643898"
       cy="55.747223"
       fx="80.643898"
       fy="55.747223"
       r="65.355339" /><radialGradient
       inkscape:collect="always"
       xlink:href="#linearGradient18"
       id="radialGradient12-0"
       gradientUnits="userSpaceOnUse"
       gradientTransform="matrix(5.0873507,-0.16651595,0.00205304,0.3361149,-353.67827,186.35053)"
       cx="87.779022"
       cy="131.23613"
       fx="87.779022"
       fy="131.23613"
       r="65.355339" /><linearGradient
       id="linearGradient18"
       inkscape:collect="always"><stop
         style="stop-color:#545454;stop-opacity:1;"
         offset="0"
         id="stop16" /><stop
         style="stop-color:#000000;stop-opacity:0;"
         offset="0.97958046"
         id="stop17" /><stop
         style="stop-color:#000000;stop-opacity:0;"
         offset="1"
         id="stop18" /></linearGradient><radialGradient
       inkscape:collect="always"
       xlink:href="#linearGradient29"
       id="radialGradient30"
       cx="167.61699"
       cy="71.059105"
       fx="167.61699"
       fy="71.059105"
       r="25.941788"
       gradientTransform="matrix(4.6907959,0.01734977,-0.00651721,1.7620381,-628.83868,-62.068185)"
       gradientUnits="userSpaceOnUse" /><linearGradient
       id="linearGradient29"
       inkscape:collect="always"><stop
         style="stop-color:#414141;stop-opacity:1;"
         offset="0"
         id="stop29" /><stop
         style="stop-color:#4f4f4f;stop-opacity:0;"
         offset="1"
         id="stop30" /></linearGradient></defs><sodipodi:namedview
     id="base"
     pagecolor="#ffffff"
     bordercolor="#000000"
     borderopacity="0.3"
     inkscape:pageopacity="0.0"
     inkscape:pageshadow="2"
     inkscape:zoom="0.98994949"
     inkscape:cx="505.07627"
     inkscape:cy="476.792"
     inkscape:document-units="mm"
     inkscape:showpageshadow="2"
     inkscape:pagecheckerboard="0"
     inkscape:deskcolor="#d1d1d1"
     inkscape:current-layer="svg1"
     showguides="true" /><metadata
     id="metadata1"><rdf:RDF><cc:Work
         rdf:about=""><dc:format>image/svg+xml</dc:format><dc:type
           rdf:resource="http://purl.org/dc/dcmitype/StillImage" /><cc:license
           rdf:resource="http://creativecommons.org/publicdomain/zero/1.0/" /></cc:Work><cc:License
         rdf:about="http://creativecommons.org/publicdomain/zero/1.0/"><cc:permits
           rdf:resource="http://creativecommons.org/ns#Reproduction" /><cc:permits
           rdf:resource="http://creativecommons.org/ns#Distribution" /><cc:permits
           rdf:resource="http://creativecommons.org/ns#DerivativeWorks" /></cc:License></rdf:RDF></metadata><g
     id="g2"
     style="display:inline"
     transform="matrix(0.99219098,0,0,0.99219098,-0.00294705,1.0686325)"
     inkscape:label="body"><path
       id="rect2"
       style="fill:url(#linearGradient2);stroke-width:0.447;stroke-linecap:round;stroke-linejoin:round;stroke-opacity:0.923077"
       d="M 28.726189,2.6458333 H 178.97172 L 228.67559,53.672619 V 253.24405 H 28.726189 Z"
       sodipodi:nodetypes="cccccc"
       inkscape:label="bg" /><path
       id="rect3"
       style="fill:#c0c0c0;stroke-width:0.447;stroke-linecap:round;stroke-linejoin:round;stroke-opacity:0.923077"
       d="M 30.521576,240.67635 H 216.43698 l -0.0402,-190.983269 8.71287,-0.0041 0.0231,199.775229 -194.611164,0.28349 z"
       sodipodi:nodetypes="ccccccc" /><path
       id="rect1"
       style="fill:#808080;stroke-width:0.447;stroke-linecap:round;stroke-linejoin:round;stroke-opacity:0.923077"
       d="M 23.786989,0 H 184.08188 V 8.0849037 H 31.604623 l 0.0167,242.3967563 -7.734112,-0.0167 z"
       sodipodi:nodetypes="ccccccc" /><path
       id="rect4"
       style="stroke-width:0.447;stroke-linecap:round;stroke-linejoin:round;stroke-opacity:0.923077"
       d="m 224.04538,48.097473 h 8.26823 V 256.55134 H 23.918757 l -0.02913,-8.0682 200.155753,-0.0167 z"
       sodipodi:nodetypes="ccccccc" /></g><g
     id="g5"
     inkscape:label="corner"
     style="display:inline"><rect
       style="opacity:1;fill:#fefefe;fill-opacity:1;stroke:none;stroke-width:0.447;stroke-linecap:round;stroke-linejoin:round;stroke-opacity:0.923077"
       id="rect16"
       width="16.036171"
       height="15.902536"
       x="182.67873"
       y="32.807335"
       inkscape:label="white" /><path
       id="rect6"
       style="opacity:1;fill:#808080;fill-opacity:1;stroke:none;stroke-width:0.447;stroke-linecap:round;stroke-linejoin:round;stroke-opacity:0.923077"
       inkscape:label="gray"
       d="M 174.86116,1.0691854 V 56.861646 h 7.95145 V 24.956099 h 7.61711 v 7.951453 h 8.08478 v 8.018115 h 8.01811 v 7.617106 h 8.35195 v -8.084777 h -8.01812 v -7.617107 h -8.08477 v -8.018115 h -8.15145 v -7.951452 h -7.81761 V 1.0691854 Z" /><path
       id="rect14"
       style="opacity:1;fill:#c0c0c0;fill-opacity:1;stroke:none;stroke-width:0.447;stroke-linecap:round;stroke-linejoin:round;stroke-opacity:0.923077"
       d="m 182.62865,24.914758 v 7.917863 h 7.82381 v 7.792806 h 8.04292 v 7.806759 h 7.91786 v -7.917863 h -7.90959 v -7.806759 h -7.95714 v -7.792806 z"
       inkscape:label="lgray" /><path
       id="rect5"
       style="opacity:1;fill:#000000;fill-opacity:1;stroke:none;stroke-width:0.447;stroke-linecap:round;stroke-linejoin:round;stroke-opacity:0.923077"
       d="m 182.41316,9.1736003 v 7.9607547 h 8.11836 v 7.81761 h 8.10132 v 7.817611 h 7.6972 v 7.872388 h 8.05377 v 7.733895 h -32.03898 v 8.351945 h 48.04162 v -8.351945 h -7.56698 v -7.817611 h -8.00674 v -7.877555 h -7.69721 v -7.871871 h -8.10183 v -7.817611 h -8.11837 V 9.1736003 Z"
       inkscape:label="black"
       sodipodi:nodetypes="ccccccccccccccccccccccccc" /></g><g
     id="rect1-4"
     style="clip-rule:nonzero;display:inline;fill:#00009f;fill-rule:nonzero;stroke:none;stroke-width:0;stroke-miterlimit:4"
     inkscape:label="coloredscript"
     transform="translate(-9.6462165,0.02666565)"><g
       id="g6"
       inkscape:label="headscript"
       style="stroke:none"><path
         style="color:#000000;display:inline;fill:#2dffff;fill-opacity:1;fill-rule:evenodd;stroke:none;stroke-linecap:round;stroke-linejoin:round;stroke-miterlimit:2.1;-inkscape-stroke:none"
         d="m 94.756834,57.458931 h 76.275896 c 0,0 -24.52925,7.686029 -24.52925,39.650023 0,21.547466 33.2657,39.650026 33.2657,39.650026 0,0 21.16908,20.00543 21.16908,39.65002 0,37.11748 -34.27375,39.65002 -34.27375,39.65002 l -77.701499,-1.4256 c 0,0 42.488769,-12.88595 35.699349,-38.22442 -3.69291,-13.78213 -38.641972,-39.65002 -38.641972,-39.65002 0,0 -15.792806,-20.45468 -15.792806,-39.650026 10e-7,-27.259754 24.529252,-39.650023 24.529252,-39.650023 z"
         id="path5-9"
         sodipodi:nodetypes="ccscsccscsc"
         inkscape:label="colorpath5" /><path
         style="color:#000000;display:inline;fill:url(#radialGradient7-5);fill-rule:evenodd;stroke:none;stroke-linecap:round;stroke-linejoin:round;stroke-miterlimit:2.1;-inkscape-stroke:none"
         d="M 94.953503,56.364226 H 171.2294 c 0,0 -24.52925,7.686029 -24.52925,39.650023 0,21.547461 17.90432,29.156841 33.2657,39.650021 12.37156,8.45087 21.16908,20.00543 21.16908,39.65002 0,37.11748 -34.27375,39.65002 -34.27375,39.65002 H 90.585283 c 0,0 41.063167,-14.31155 34.273747,-39.65002 -3.69291,-13.78213 -38.641971,-39.65002 -38.641971,-39.65002 0,0 -15.792806,-20.45468 -15.792806,-39.650021 1e-6,-27.259754 24.52925,-39.650023 24.52925,-39.650023 z"
         id="path8-0"
         inkscape:label="shadowbottomdark"
         sodipodi:nodetypes="ccsssccscsc" /><path
         style="color:#000000;display:inline;fill:url(#radialGradient7-9);fill-rule:evenodd;stroke:none;stroke-linecap:round;stroke-linejoin:round;stroke-miterlimit:2.1;-inkscape-stroke:none"
         d="m 93.96419,58.575892 h 76.2759 c 0,0 -24.52925,7.686029 -24.52925,39.650023 0,21.547465 33.2657,39.650025 33.2657,39.650025 0,0 21.16908,20.00543 21.16908,39.65002 0,37.11748 -34.27375,39.65002 -34.27375,39.65002 l -77.7015,-1.4256 c 0,0 42.48877,-12.88595 35.69935,-38.22442 -3.69291,-13.78213 -38.64197,-39.65002 -38.64197,-39.65002 0,0 -15.79281,-20.45468 -15.79281,-39.650025 0,-27.259754 24.52925,-39.650023 24.52925,-39.650023 z"
         id="path22"
         sodipodi:nodetypes="ccscsccscsc"
         inkscape:label="whiteshadow" /><path
         id="path6-9"
         style="color:#000000;fill:url(#linearGradient2-1);fill-rule:evenodd;stroke:none;stroke-linecap:round;stroke-linejoin:round;stroke-miterlimit:2.1;-inkscape-stroke:none"
         d="m 166.74328,56.886702 -2.17882,0.656122 -2.63643,1.960521 c -1.74379,1.161901 -2.65929,2.530887 -4.54901,4.354256 -6.45604,6.22937 -12.87518,16.758169 -12.87518,33.251717 0,11.802922 8.82009,22.035812 17.32246,29.416292 8.25815,7.16849 11.08653,7.77604 16.09359,12.30829 3.90661,3.53616 5.72132,4.38077 10.80296,11.5409 5.1723,7.28791 10.21488,16.92969 10.21488,26.03355 0,17.94311 -8.06162,27.0426 -16.18403,32.04094 -7.68542,4.72943 -7.80976,4.07497 -8.61084,4.14755 0.78528,0.84696 -1.46585,2.03297 -3.42445,2.10175 l 3.97997,1.89035 c 2.66602,-0.36037 3.01503,-0.34215 10.15132,-4.73365 9.0144,-5.54727 18.08778,-16.27318 18.08778,-35.44745 0,-10.54066 -5.54114,-20.72171 -10.95333,-28.34763 -5.4122,-7.6259 -7.24365,-8.5541 -11.4298,-12.25145 -0.12894,-0.11389 -0.27955,-0.2001 -0.41754,-0.30282 -5.28166,-3.93193 -7.55906,-4.94474 -15.68948,-12.00237 -8.13045,-7.05762 -15.94322,-16.64977 -15.94322,-26.394252 0,-15.470348 5.85159,-24.760307 11.65201,-30.37334 6.31257,-6.108633 11.47475,-7.369059 11.47475,-7.369059 2.18166,-0.686357 1.47917,-2.351231 -0.80791,-2.35421 z M 92.248854,55.77876 c 0,0 -24.020459,12.87111 -24.02046,41.330558 0.423164,13.149552 4.017116,30.860072 16.60157,41.257942 5.905904,4.87975 8.677219,6.42358 17.796846,14.54279 4.55983,4.05958 9.22505,8.54171 12.93203,12.80283 3.70697,4.26115 6.41206,8.37794 7.17165,11.21275 1.55472,5.80231 0.4045,10.80055 -2.28151,15.35152 -2.68601,4.55099 -6.97802,8.56263 -11.54297,11.83236 -5.65449,4.05014 -11.383512,6.78642 -15.13654,8.40155 0.06819,-0.003 0.135202,-0.0103 0.204122,-0.0103 h 8.905918 c 2.66046,-1.42056 5.49897,-3.09238 8.35659,-5.13922 4.85215,-3.47543 9.55488,-7.79204 12.65866,-13.05088 3.1038,-5.25884 4.53904,-11.55316 2.69906,-18.42006 -1.08686,-4.05622 -4.13301,-8.33911 -8.0176,-12.80439 -3.88457,-4.4653 -8.65007,-9.03394 -13.28911,-13.16405 C 96.234433,141.86253 92.76835,140.7898 87.480448,135.36125 77.902359,125.52838 72.228666,114.9771 72.228666,97.109318 72.228667,71.747553 94.090197,58.16048 95.277389,57.544374 l 71.861541,0.172808 -0.002,-1.686006 z M 90.71436,213.79522 c -0.382012,0.14379 -0.98392,0.37465 -0.98392,0.37465 z"
         sodipodi:nodetypes="cccssssssscccsssscssscccccsssssscscsssssssccccccc" /></g><g
       id="path12"
       inkscape:label="frontbottom"
       style="stroke:none"><path
         style="color:#000000;display:inline;fill:#08eeff;fill-opacity:1;fill-rule:evenodd;stroke:none;stroke-linecap:round;stroke-linejoin:round;stroke-miterlimit:2.1;-inkscape-stroke:none"
         d="m 81.27873,168.11581 h 83.21955 c 0,0 -11.26843,4.60481 -11.26843,23.75488 0,12.90938 20.06894,23.75487 20.06894,23.75487 H 88.60704 c 0,0 -18.59675,-12.25468 -18.59675,-23.75487 1e-5,-16.3317 11.26844,-23.75488 11.26844,-23.75488 z"
         id="path13-1"
         inkscape:label="colorpath13" /><path
         style="color:#000000;display:inline;fill:url(#radialGradient12);fill-rule:evenodd;stroke:none;stroke-linecap:round;stroke-linejoin:round;stroke-miterlimit:2.1;-inkscape-stroke:none"
         d="m 81.094392,166.93485 h 83.219548 c 0,0 -11.26843,4.60481 -11.26843,23.75488 0,12.90938 20.06894,23.75487 20.06894,23.75487 H 88.422705 c 0,0 -18.59675,-12.25468 -18.59675,-23.75487 1e-6,-16.3317 11.268437,-23.75488 11.268437,-23.75488 z"
         id="path20" /><path
         style="color:#000000;display:inline;fill:url(#radialGradient12-0);fill-rule:evenodd;stroke:none;stroke-linecap:round;stroke-linejoin:round;stroke-miterlimit:2.1;-inkscape-stroke:none"
         d="m 80.869604,167.46843 h 83.219546 c 0,0 -11.26843,4.60481 -11.26843,23.75488 0,12.90938 19.56491,25.09894 19.56491,25.09894 l -84.019704,-0.75604 c 0,0 -18.764759,-12.84271 -18.764759,-24.3429 10e-7,-16.3317 11.268437,-23.75488 11.268437,-23.75488 z"
         id="path16"
         sodipodi:nodetypes="ccsccsc" /><path
         id="path14"
         style="color:#000000;display:inline;fill:#000000;fill-rule:evenodd;stroke:none;stroke-linecap:round;stroke-linejoin:round;stroke-miterlimit:2.1;-inkscape-stroke:none"
         d="m 81.093758,164.93567 c -0.390899,8e-5 -0.773207,0.1147 -1.099674,0.32969 0,0 -12.167732,8.17267 -12.167733,25.42429 0,6.82815 3.28175,13.70691 8.057761,18.38287 4.730373,4.63128 8.195606,5.49236 9.708038,5.94108 0.682275,0.20242 1.682851,0.5073 2.073804,0.50754 l 1.728049,0.21001 1.134058,-0.22893 -1.461663,-3.05679 c -3.704045,-0.16688 -6.267284,-2.24593 -10.398993,-6.24612 -4.496294,-4.35316 -6.841298,-10.83762 -6.841298,-15.50966 1e-6,-14.41918 8.782321,-20.94209 9.95133,-21.75423 h 76.693513 c -0.45387,0.46783 -0.90358,0.87983 -1.35754,1.45108 -3.08994,3.88829 -6.06837,10.33585 -6.06837,20.30315 0,7.49109 1.81149,12.02275 5.16286,16.8457 2.07425,2.98504 7.12675,5.55695 8.65723,6.63093 h -0.37982 c 1.13117,0.86711 3.9841,1.65031 5.51732,1.81238 l 2.0196,0.52593 2.63718,0.1188 c 2.07461,-0.003 1.50959,-4.12351 0.3553,-4.11586 -5.45548,0.0362 -11.36265,-3.36391 -14.94613,-7.40952 -4.22903,-4.77441 -5.02378,-8.99007 -5.02378,-14.40836 0,-9.18273 2.65698,-14.61279 5.20123,-17.81441 2.54427,-3.20163 4.82451,-4.08813 4.82451,-4.08813 2.02944,-0.83035 1.43672,-3.84989 -0.75602,-3.85144 z"
         sodipodi:nodetypes="ccsssccccssccssaccsccssssccc" /></g><g
       id="rect25"
       inkscape:label="topbehind"
       style="stroke:none"><path
         style="color:#000000;fill:#2dffff;fill-rule:evenodd;stroke:none;stroke-linecap:round;stroke-linejoin:round;stroke-miterlimit:2.1;-inkscape-stroke:none"
         d="m 169.35264,57.122913 c 9.36597,0.575571 19.4777,5.511567 24.19324,13.440686 6.1262,10.301125 5.30582,26.319311 0.33602,35.953831 l -45.69834,1.00805 c -3.31298,-6.23584 -6.75512,-34.25383 21.16908,-50.402567 z"
         id="path26"
         inkscape:label="colortopbehind" /><path
         style="color:#000000;display:inline;fill:url(#radialGradient30);fill-rule:evenodd;stroke:none;stroke-linecap:round;stroke-linejoin:round;stroke-miterlimit:2.1;-inkscape-stroke:none"
         d="m 169.49359,56.64031 c 9.36597,0.57557 19.4777,5.51156 24.19324,13.44068 6.1262,10.30113 5.30582,26.31931 0.33602,35.95383 l -45.69834,1.00805 c -3.31298,-6.23584 -6.75512,-34.25383 21.16908,-50.40256 z"
         id="path29"
         inkscape:label="shadowtopbehind" /><path
         style="color:#000000;fill:#000000;fill-rule:evenodd;stroke:none;stroke-linecap:round;stroke-linejoin:round;stroke-miterlimit:2.1;-inkscape-stroke:none"
         d="m 175.2709,55.840989 c -4.84204,-1.004395 -10.5352,-0.04214 -14.56373,2.825803 -8.45236,6.017286 -13.28437,16.672762 -15.60365,26.932817 -1.15965,5.130028 -1.29849,9.923983 -0.92774,13.876953 0.37076,3.952968 1.19013,7.006088 2.24219,8.986328 0.35423,0.66786 1.05474,1.07895 1.81055,1.0625 l 45.69726,-1.00781 c 0.73312,-0.0161 1.39866,-0.43206 1.73438,-1.08399 5.34273,-10.357482 6.23735,-26.741153 -0.39454,-37.892574 -5.17119,-8.695299 -12.0838,-12.059048 -19.99472,-13.700027 z m -5.56388,3.54577 c 8.23997,-1.732112 17.94941,5.187807 22.11915,12.199178 5.41674,9.108166 4.88253,23.917833 0.72461,32.960943 l -42.98633,0.94726 c -0.54227,-1.40551 -1.13687,-3.51857 -1.40625,-6.390624 -0.33379,-3.558874 -0.20856,-7.948562 0.84766,-12.621094 2.08085,-9.205275 9.57806,-24.757496 20.70116,-27.095663 z"
         id="path27"
         sodipodi:nodetypes="aassccccsaasccssa"
         inkscape:label="frametopbehind" /></g><g
       id="g39"
       inkscape:label="scripttext"
       style="stroke:none"><path
         id="rect30"
         style="display:inline;fill:#828282;fill-opacity:0.77135;fill-rule:evenodd;stroke:none;stroke-width:4;stroke-linecap:round;stroke-linejoin:round;stroke-miterlimit:2.1"
         d="m 90.51861,68.428802 h 53.6976 l -4.03221,6.1776 H 86.486404 Z"
         sodipodi:nodetypes="ccccc" /><path
         id="path31"
         style="display:inline;fill:#828282;fill-opacity:0.77135;fill-rule:evenodd;stroke:none;stroke-width:4;stroke-linecap:round;stroke-linejoin:round;stroke-miterlimit:2.1"
         d="M 84.225707,80.308802 H 137.9233 l -2.0161,6.1776 H 82.209604 Z"
         sodipodi:nodetypes="ccccc" /><path
         id="path33"
         style="display:inline;fill:#828282;fill-opacity:0.77135;fill-rule:evenodd;stroke:none;stroke-width:4;stroke-linecap:round;stroke-linejoin:round;stroke-miterlimit:2.1"
         d="m 79.723247,92.664002 h 53.697593 l -0.84004,6.1776 H 78.883204 Z"
         sodipodi:nodetypes="ccccc" /><path
         id="path34"
         style="display:inline;fill:#828282;fill-opacity:0.77135;fill-rule:evenodd;stroke:none;stroke-width:4;stroke-linecap:round;stroke-linejoin:round;stroke-miterlimit:2.1"
         d="m 79.463815,106.4448 h 53.697595 l 3.69619,6.1776 H 83.160004 Z"
         sodipodi:nodetypes="ccccc" /><path
         id="path35"
         style="display:inline;fill:#828282;fill-opacity:0.77135;fill-rule:evenodd;stroke:none;stroke-width:4;stroke-linecap:round;stroke-linejoin:round;stroke-miterlimit:2.1"
         d="m 84.830198,119.2752 h 53.697592 l 4.03221,6.1776 H 88.862404 Z"
         sodipodi:nodetypes="ccccc" /><path
         id="path36"
         style="display:inline;fill:#828282;fill-opacity:0.77135;fill-rule:evenodd;stroke:none;stroke-width:4;stroke-linecap:round;stroke-linejoin:round;stroke-miterlimit:2.1"
         d="M 94.977407,130.2048 H 148.675 l 3.8642,6.1776 H 98.841604 Z"
         sodipodi:nodetypes="ccccc" /><path
         id="path37"
         style="display:inline;fill:#828282;fill-opacity:0.77135;fill-rule:evenodd;stroke:none;stroke-width:4;stroke-linecap:round;stroke-linejoin:round;stroke-miterlimit:2.1"
         d="m 106.32455,141.6096 h 53.6976 l 4.87225,6.1776 h -53.6976 z"
         sodipodi:nodetypes="ccccc" /><path
         id="path38"
         style="display:inline;fill:#828282;fill-opacity:0.77135;fill-rule:evenodd;stroke:none;stroke-width:4;stroke-linecap:round;stroke-linejoin:round;stroke-miterlimit:2.1"
         d="m 119.85581,153.4896 h 53.6976 l 3.69619,6.1776 H 123.552 Z"
         sodipodi:nodetypes="ccccc" /></g></g></svg>
