<?xml version="1.0" encoding="UTF-8" standalone="no"?>
<!-- Created with Inkscape (http://www.inkscape.org/) -->

<svg
   width="256mm"
   height="256mm"
   viewBox="0 0 256 256"
   version="1.1"
   id="svg1"
   inkscape:version="1.3.2 (091e20ef0f, 2023-11-25)"
   xml:space="preserve"
   sodipodi:docname="application-x-qet-project.svg"
   xmlns:inkscape="http://www.inkscape.org/namespaces/inkscape"
   xmlns:sodipodi="http://sodipodi.sourceforge.net/DTD/sodipodi-0.dtd"
   xmlns:xlink="http://www.w3.org/1999/xlink"
   xmlns="http://www.w3.org/2000/svg"
   xmlns:svg="http://www.w3.org/2000/svg"
   xmlns:rdf="http://www.w3.org/1999/02/22-rdf-syntax-ns#"
   xmlns:cc="http://creativecommons.org/ns#"
   xmlns:dc="http://purl.org/dc/elements/1.1/"><defs
     id="defs1"><linearGradient
       id="linearGradient26"
       inkscape:collect="always"><stop
         style="stop-color:#7b91c4;stop-opacity:1;"
         offset="0"
         id="stop26" /><stop
         style="stop-color:#5c5e91;stop-opacity:1"
         offset="1"
         id="stop27" /></linearGradient><linearGradient
       id="linearGradient24"
       inkscape:collect="always"><stop
         style="stop-color:#c7fafe;stop-opacity:1;"
         offset="0"
         id="stop24" /><stop
         style="stop-color:#9acdff;stop-opacity:1"
         offset="1"
         id="stop25" /></linearGradient><linearGradient
       id="linearGradient22"
       inkscape:collect="always"><stop
         style="stop-color:#adaeae;stop-opacity:0.8253752;"
         offset="0"
         id="stop22" /><stop
         style="stop-color:#8ac5fe;stop-opacity:0.83628923;"
         offset="1"
         id="stop23" /></linearGradient><linearGradient
       id="linearGradient18"
       inkscape:collect="always"><stop
         style="stop-color:#9797ff;stop-opacity:1;"
         offset="0"
         id="stop18" /><stop
         style="stop-color:#ccccff;stop-opacity:1;"
         offset="0.30000001"
         id="stop20" /><stop
         style="stop-color:#ccccff;stop-opacity:1;"
         offset="1"
         id="stop19" /></linearGradient><linearGradient
       id="linearGradient16"
       inkscape:collect="always"><stop
         style="stop-color:#cdcdcd;stop-opacity:0.17462483;"
         offset="0"
         id="stop16" /><stop
         style="stop-color:#cdcdcd;stop-opacity:1;"
         offset="1"
         id="stop17" /></linearGradient><linearGradient
       id="linearGradient12"
       inkscape:collect="always"><stop
         style="stop-color:#fdfeff;stop-opacity:1;"
         offset="0"
         id="stop13" /><stop
         style="stop-color:#99ccff;stop-opacity:1;"
         offset="1"
         id="stop14" /></linearGradient><linearGradient
       id="linearGradient9"
       inkscape:collect="always"><stop
         style="stop-color:#97c9fc;stop-opacity:1;"
         offset="0"
         id="stop9" /><stop
         style="stop-color:#7788bb;stop-opacity:1"
         offset="0.25"
         id="stop12" /><stop
         style="stop-color:#57578a;stop-opacity:1"
         offset="0.5"
         id="stop11" /><stop
         style="stop-color:#444482;stop-opacity:1;"
         offset="1"
         id="stop10" /></linearGradient><linearGradient
       inkscape:collect="always"
       xlink:href="#linearGradient9"
       id="linearGradient10"
       x1="31.622168"
       y1="100.24049"
       x2="221.19499"
       y2="240.28973"
       gradientUnits="userSpaceOnUse" /><linearGradient
       inkscape:collect="always"
       xlink:href="#linearGradient12"
       id="linearGradient14"
       x1="73.583481"
       y1="62.020954"
       x2="207.02971"
       y2="229.59895"
       gradientUnits="userSpaceOnUse" /><linearGradient
       inkscape:collect="always"
       xlink:href="#linearGradient16"
       id="linearGradient17"
       x1="57.531055"
       y1="26.420616"
       x2="147.13231"
       y2="144.34076"
       gradientUnits="userSpaceOnUse" /><linearGradient
       inkscape:collect="always"
       xlink:href="#linearGradient18"
       id="linearGradient19"
       x1="209.82518"
       y1="58.53635"
       x2="210.58252"
       y2="194.57654"
       gradientUnits="userSpaceOnUse" /><linearGradient
       inkscape:collect="always"
       xlink:href="#linearGradient22"
       id="linearGradient23"
       x1="177.19191"
       y1="58.990749"
       x2="207.31994"
       y2="58.990749"
       gradientUnits="userSpaceOnUse" /><linearGradient
       inkscape:collect="always"
       xlink:href="#linearGradient24"
       id="linearGradient25"
       x1="176.32031"
       y1="20.126524"
       x2="176.32031"
       y2="56.695721"
       gradientUnits="userSpaceOnUse" /><linearGradient
       inkscape:collect="always"
       xlink:href="#linearGradient26"
       id="linearGradient27"
       x1="172.59729"
       y1="13.51158"
       x2="210.54449"
       y2="51.28627"
       gradientUnits="userSpaceOnUse" /><linearGradient
       inkscape:collect="always"
       xlink:href="#linearGradient1"
       id="linearGradient2-6"
       x1="291.42825"
       y1="707.53485"
       x2="283.87943"
       y2="995.82166"
       gradientUnits="userSpaceOnUse"
       gradientTransform="matrix(0.26889239,0,0,0.26889239,68.839136,-54.707851)" /><linearGradient
       id="linearGradient1"
       inkscape:collect="always"><stop
         style="stop-color:#0077ff;stop-opacity:1;"
         offset="0"
         id="stop1-3" /><stop
         style="stop-color:#001854;stop-opacity:1;"
         offset="1"
         id="stop2-2" /></linearGradient></defs><sodipodi:namedview
     id="base"
     pagecolor="#ffffff"
     bordercolor="#000000"
     borderopacity="0.3"
     inkscape:pageopacity="0.0"
     inkscape:pageshadow="2"
     inkscape:zoom="0.98994949"
     inkscape:cx="505.07627"
     inkscape:cy="476.792"
     inkscape:document-units="mm"
     inkscape:showpageshadow="2"
     inkscape:pagecheckerboard="0"
     inkscape:deskcolor="#d1d1d1"
     inkscape:current-layer="g1"
     showguides="true" /><metadata
     id="metadata1"><rdf:RDF><cc:Work
         rdf:about=""><dc:format>image/svg+xml</dc:format><dc:type
           rdf:resource="http://purl.org/dc/dcmitype/StillImage" /><cc:license
           rdf:resource="http://creativecommons.org/publicdomain/zero/1.0/" /></cc:Work><cc:License
         rdf:about="http://creativecommons.org/publicdomain/zero/1.0/"><cc:permits
           rdf:resource="http://creativecommons.org/ns#Reproduction" /><cc:permits
           rdf:resource="http://creativecommons.org/ns#Distribution" /><cc:permits
           rdf:resource="http://creativecommons.org/ns#DerivativeWorks" /></cc:License></rdf:RDF></metadata><g
     id="g28"
     transform="matrix(1.0481261,0,0,1.0481261,-6.4074194,-6.1384097)"><g
       id="g7"
       inkscape:label="shadow"
       style="display:inline"><path
         id="rect1"
         style="fill:#000000;fill-opacity:0.0602258;stroke-width:3.72791;stroke-linecap:square"
         d="M 48.380952,13.418155 H 179.16071 l 43.46726,43.278274 V 244.17261 H 48.380952 Z"
         sodipodi:nodetypes="cccccc" /><path
         id="path1"
         style="fill:#000000;fill-opacity:0.0752823;stroke-width:3.72791;stroke-linecap:square"
         d="m 47.563027,12.60023 129.443423,-0.133635 43.46726,43.278274 1.33635,187.609821 H 47.563027 Z"
         sodipodi:nodetypes="cccccc" /><path
         id="path2"
         style="fill:#000000;fill-opacity:0.0602258;stroke-width:3.72791;stroke-linecap:square"
         d="m 46.493949,11.793049 128.975701,-0.868626 43.46726,43.278274 1.80407,188.344813 H 46.493949 Z"
         sodipodi:nodetypes="cccccc" /><path
         id="path3"
         style="fill:#000000;fill-opacity:0.0602258;stroke-width:3.72791;stroke-linecap:square"
         d="m 45.964782,12.33296 129.777508,0.467722 43.46726,42.209196 1.00226,187.008462 H 45.964782 Z"
         sodipodi:nodetypes="cccccc" /><path
         id="path4"
         style="fill:#000000;fill-opacity:0.0602258;stroke-width:3.72791;stroke-linecap:square"
         d="m 45.435615,12.338332 129.443415,0.935443 43.46726,41.674657 1.33635,186.540738 H 45.435615 Z"
         sodipodi:nodetypes="cccccc" /><path
         id="path5"
         style="fill:#000000;fill-opacity:0.0602258;stroke-width:3.72791;stroke-linecap:square"
         d="M 44.906448,12.744609 174.8844,13.412783 218.35166,54.151996 219.15347,240.96 H 44.906448 Z"
         sodipodi:nodetypes="cccccc" /><path
         id="path6"
         style="fill:#000000;fill-opacity:0.0602258;stroke-width:3.72791;stroke-linecap:square"
         d="m 44.377281,15.021772 129.911129,0.534539 43.46726,37.932883 0.86863,186.941636 H 44.377281 Z"
         sodipodi:nodetypes="cccccc" /><path
         id="path7"
         style="fill:#000000;fill-opacity:0.0602258;stroke-width:3.72791;stroke-linecap:square"
         d="m 43.848114,13.423527 129.710676,1.069078 43.46726,39.001961 1.06908,186.407094 H 43.848114 Z"
         sodipodi:nodetypes="cccccc" /></g><g
       id="g14"
       style="display:inline"><path
         style="color:#000000;fill:url(#linearGradient14);stroke-linecap:square;-inkscape-stroke:none"
         d="M 46.153822,14.648159 H 173.78301 l 40.90293,41.140298 V 236.0795 H 46.554726 Z"
         id="path15"
         inkscape:label="headbgground" /><path
         id="rect16"
         style="display:inline;fill:url(#linearGradient17);fill-opacity:1;stroke-width:4.99999;stroke-linecap:square"
         d="M 45.435818,14.165285 H 176.70315 l 0.20408,8.220982 H 53.433709 V 235.97952 h -7.997891 z"
         sodipodi:nodetypes="ccccccc" /><path
         id="rect17"
         style="fill:url(#linearGradient19);stroke-width:4.99999;stroke-linecap:square"
         d="M 47.058037,227.91965 H 207.27506 l -0.0668,-168.246312 7.31651,0.0667 0.0668,168.546562 -7.08265,0.0331 v 7.34846 H 47.058037 Z"
         sodipodi:nodetypes="ccccccccc" /><path
         style="color:#000000;fill:url(#linearGradient10);stroke-linecap:square;-inkscape-stroke:none"
         d="M 43.648437,12.148438 44.058594,238.58008 H 217.18555 V 54.757812 L 174.82227,12.148438 Z m 4.608862,4.999999 H 172.74414 l 39.44141,39.671875 V 233.58008 H 48.775405 Z"
         id="path16"
         inkscape:label="headframe"
         sodipodi:nodetypes="cccccccccccc" /></g><g
       id="g1"
       transform="matrix(0.93879428,0,0,0.93879428,-5.4531306,11.138183)"><g
         id="g5"
         transform="matrix(6.3785859,0,0,6.3785859,-113.80105,-237.22447)"
         style="display:inline"><path
           id="rect1-6"
           style="color:#000000;display:inline;fill:#ffcc00;stroke-linecap:round;stroke-linejoin:round;stroke-miterlimit:2.1;-inkscape-stroke:none"
           d="m 32.111218,39.65236 c -1.885729,0 -3.417879,1.534217 -3.417879,3.419946 v 3.648356 c 0,1.463647 0.923484,2.713767 2.218469,3.200322 l 0.147278,-0.938961 c -0.853847,-0.392916 -1.439705,-1.25024 -1.439705,-2.261361 v -3.648356 c 0,-1.389035 1.102802,-2.494421 2.491837,-2.494421 h 0.998389 c 1.389035,0 2.491837,1.105386 2.491837,2.494421 v 3.648356 c 0,1.242412 -0.883157,2.253434 -2.063439,2.453597 l -0.320394,0.961699 c 1.835758,-0.05731 3.309875,-1.565791 3.309875,-3.415296 v -3.648356 c 0,-1.885729 -1.53215,-3.419946 -3.417879,-3.419946 z" /><path
           id="rect5"
           style="fill:#ffcb00;stroke:#a9ff00;stroke-width:0.1;stroke-linecap:round;stroke-linejoin:round;stroke-miterlimit:2.1;stroke-dasharray:none;stroke-opacity:1"
           d="m 32.254201,46.911147 1.9305,0.01485 -2.21265,4.70745 2.750963,-1.210275 -1.154588,4.596075 0.743428,-0.09838 -1.454372,2.069719 -0.378211,-2.395491 0.527639,0.277509 0.268229,-2.726831 -3.070238,1.299375 z"
           sodipodi:nodetypes="cccccccccccc" /></g><text
         xml:space="preserve"
         style="font-style:normal;font-variant:normal;font-weight:normal;font-stretch:normal;font-size:4.03895px;line-height:1.1;font-family:'Liberation Sans';-inkscape-font-specification:'Liberation Sans';letter-spacing:0px;word-spacing:0px;display:inline;fill:#000000;fill-opacity:1;stroke:none;stroke-width:0.0954083;stroke-linecap:round;stroke-linejoin:round;stroke-miterlimit:2.1;stroke-dasharray:none;stroke-opacity:1"
         x="74.225464"
         y="235.30238"
         id="text5"><tspan
           sodipodi:role="line"
           id="tspan5"
           style="fill:#000000;fill-opacity:1;stroke:none;stroke-width:0.0954083;stroke-opacity:1"
           x="74.225464"
           y="235.30238">https://qelectrotech.org/</tspan></text><path
         d="m 131.17449,119.70246 c -7.60377,0 -13.91079,5.6048 -14.94472,12.92418 H 90.252136 v 34.46458 h -8.616159 v 4.30807 h 21.540343 v -4.30807 h -8.616137 v -30.15649 h 21.669587 c 1.03393,7.31941 7.33664,12.92422 14.94472,12.92422 7.60371,0 13.91073,-5.60481 14.94466,-12.92422 h 17.36155 v 8.61614 h 38.77262 v -8.61614 h 8.61614 v 68.92912 h -13.05348 c -1.03393,-7.31942 -7.33662,-12.92422 -14.94467,-12.92422 -7.60376,0 -13.91078,5.6048 -14.94471,12.92422 h -13.46272 c -0.87885,-2.52454 -3.23104,-4.30808 -6.05714,-4.30808 -3.56708,0 -6.4621,2.89502 -6.4621,6.46211 0,3.56708 2.89502,6.4621 6.4621,6.4621 2.8261,0 5.17829,-1.78354 6.05714,-4.30807 h 13.46272 c 1.03393,7.31941 7.33667,12.9242 14.94471,12.9242 7.60372,0 13.91074,-5.60479 14.94467,-12.9242 h 17.36154 v -77.54527 h -12.9242 v -8.61611 H 163.4807 v 8.61611 h -17.36155 c -1.03393,-7.31938 -7.33661,-12.92418 -14.94466,-12.92418 m 0,4.30807 c 2.16696,0 4.23483,0.64621 5.92357,1.74907 l -5.92357,5.92358 -5.92362,-5.92358 c 1.68875,-1.10286 3.75664,-1.74907 5.92362,-1.74907 m -9.0211,4.84658 5.92356,5.9236 -5.92356,5.92359 c -1.10289,-1.68877 -1.74911,-3.75665 -1.74911,-5.92359 0,-2.16699 0.64622,-4.23485 1.74911,-5.9236 m 18.04218,0 c 1.10286,1.68875 1.74907,3.75661 1.74907,5.9236 0,2.16694 -0.64621,4.23482 -1.74907,5.92359 l -5.92359,-5.92359 z m -9.02108,9.02109 5.92357,5.9236 c -1.68874,1.10287 -3.75661,1.74907 -5.92357,1.74907 -2.16698,0 -4.23487,-0.6462 -5.92362,-1.74907 z m -45.234752,37.82916 v 4.30807 h 4.308068 v 30.15648 h 17.637234 c 0.87884,2.52453 3.23105,4.30807 6.05714,4.30807 3.56708,0 6.4621,-2.89502 6.4621,-6.4621 0,-0.44804 -0.0474,-0.92624 -0.13354,-1.34843 l 22.88875,-13.19561 -2.15402,-3.76957 -23.02231,13.32917 c -1.11149,-0.90039 -2.49437,-1.48197 -4.041,-1.48197 -2.82609,0 -5.1783,1.78354 -6.05714,4.30806 H 94.555876 v -25.84841 h 4.308048 v -4.30806 z m 96.931572,21.54035 c 5.94942,0 10.77016,4.82072 10.77016,10.77017 0,5.94944 -4.82074,10.77018 -10.77016,10.77018 -5.94947,0 -10.77019,-4.82074 -10.77019,-10.77018 0,-5.94945 4.82072,-10.77017 10.77019,-10.77017 m -68.92913,8.61614 c 1.18903,0 2.15407,0.965 2.15407,2.15403 0,1.18902 -0.96504,2.15403 -2.15407,2.15403 -1.18902,0 -2.15403,-0.96501 -2.15403,-2.15403 0,-1.18903 0.96501,-2.15403 2.15403,-2.15403 m 34.46456,0 c 1.18902,0 2.15403,0.965 2.15403,2.15403 0,1.18902 -0.96501,2.15403 -2.15403,2.15403 -1.18902,0 -2.15402,-0.96501 -2.15402,-2.15403 0,-1.18903 0.965,-2.15403 2.15402,-2.15403"
         id="path31"
         style="color:#000000;display:inline;fill:url(#linearGradient2-6);fill-opacity:1;fill-rule:evenodd;stroke-width:4.30807"
         inkscape:connector-curvature="0" /></g><g
       id="rect23"
       style="display:inline"><rect
         style="display:inline;fill:url(#linearGradient23);fill-opacity:0.834379;stroke:none;stroke-width:4.99999;stroke-linecap:square;stroke-dasharray:none;stroke-opacity:1"
         id="rect20"
         width="30.128031"
         height="11.286353"
         x="177.19191"
         y="53.347572" /><path
         style="color:#000000;display:inline;fill:url(#linearGradient25);stroke-linecap:square;stroke-linejoin:bevel;-inkscape-stroke:none"
         d="m 174.15254,15.119046 40.91592,41.955358 H 174.814 Z"
         id="path25" /><g
         id="g27"><path
           id="rect27"
           style="display:inline;fill:#0a6db5;fill-opacity:0.459222;stroke-width:4.99999;stroke-linecap:square;stroke-linejoin:bevel"
           d="m 182.94047,23.245534 33.07293,33.82887 -33.07293,-0.09449 z"
           sodipodi:nodetypes="cccc" /><path
           id="path27"
           style="display:inline;fill:#1882cf;fill-opacity:0.459222;stroke-width:4.99999;stroke-linecap:square;stroke-linejoin:bevel"
           d="m 175.28645,49.514879 34.91556,0.188989 4.67746,7.087054 -39.68751,-0.472471 z"
           sodipodi:nodetypes="ccccc" /></g><path
         style="color:#000000;display:inline;fill:url(#linearGradient27);stroke-linecap:square;stroke-linejoin:bevel;-inkscape-stroke:none"
         d="m 175.94141,13.373047 -4.28907,1.785156 6.5e-4,44.600911 c 0,0 29.8634,-0.184895 43.41537,-0.184895 l 1.78906,-4.246094 z m 1.4286,7.056744 34.22551,34.144428 h -34.32013 z"
         id="path26"
         sodipodi:nodetypes="cccccccccc" /></g></g></svg>
