<?xml version="1.0" encoding="UTF-8" standalone="no"?>
<!-- Created with Inkscape (http://www.inkscape.org/) -->

<svg
   width="256mm"
   height="256mm"
   viewBox="0 0 256 256"
   version="1.1"
   id="svg1"
   inkscape:version="1.3.2 (091e20ef0f, 2023-11-25)"
   xml:space="preserve"
   sodipodi:docname="application-vnd.flatpak.repo.svg"
   xmlns:inkscape="http://www.inkscape.org/namespaces/inkscape"
   xmlns:sodipodi="http://sodipodi.sourceforge.net/DTD/sodipodi-0.dtd"
   xmlns:xlink="http://www.w3.org/1999/xlink"
   xmlns="http://www.w3.org/2000/svg"
   xmlns:svg="http://www.w3.org/2000/svg"
   xmlns:rdf="http://www.w3.org/1999/02/22-rdf-syntax-ns#"
   xmlns:cc="http://creativecommons.org/ns#"
   xmlns:dc="http://purl.org/dc/elements/1.1/"><defs
     id="defs1"><linearGradient
       id="linearGradient26"
       inkscape:collect="always"><stop
         style="stop-color:#7b91c4;stop-opacity:1;"
         offset="0"
         id="stop26" /><stop
         style="stop-color:#5c5e91;stop-opacity:1"
         offset="1"
         id="stop27" /></linearGradient><linearGradient
       id="linearGradient24"
       inkscape:collect="always"><stop
         style="stop-color:#c7fafe;stop-opacity:1;"
         offset="0"
         id="stop24" /><stop
         style="stop-color:#9acdff;stop-opacity:1"
         offset="1"
         id="stop25" /></linearGradient><linearGradient
       id="linearGradient22"
       inkscape:collect="always"><stop
         style="stop-color:#adaeae;stop-opacity:0.8253752;"
         offset="0"
         id="stop22" /><stop
         style="stop-color:#8ac5fe;stop-opacity:0.83628923;"
         offset="1"
         id="stop23" /></linearGradient><linearGradient
       id="linearGradient18"
       inkscape:collect="always"><stop
         style="stop-color:#9797ff;stop-opacity:1;"
         offset="0"
         id="stop18" /><stop
         style="stop-color:#ccccff;stop-opacity:1;"
         offset="0.30000001"
         id="stop20" /><stop
         style="stop-color:#ccccff;stop-opacity:1;"
         offset="1"
         id="stop19" /></linearGradient><linearGradient
       id="linearGradient16"
       inkscape:collect="always"><stop
         style="stop-color:#cdcdcd;stop-opacity:0.17462483;"
         offset="0"
         id="stop16" /><stop
         style="stop-color:#cdcdcd;stop-opacity:1;"
         offset="1"
         id="stop17" /></linearGradient><linearGradient
       id="linearGradient12"
       inkscape:collect="always"><stop
         style="stop-color:#fdfeff;stop-opacity:1;"
         offset="0"
         id="stop13" /><stop
         style="stop-color:#99ccff;stop-opacity:1;"
         offset="1"
         id="stop14" /></linearGradient><linearGradient
       id="linearGradient9"
       inkscape:collect="always"><stop
         style="stop-color:#97c9fc;stop-opacity:1;"
         offset="0"
         id="stop9" /><stop
         style="stop-color:#7788bb;stop-opacity:1"
         offset="0.25"
         id="stop12" /><stop
         style="stop-color:#57578a;stop-opacity:1"
         offset="0.5"
         id="stop11" /><stop
         style="stop-color:#444482;stop-opacity:1;"
         offset="1"
         id="stop10" /></linearGradient><linearGradient
       inkscape:collect="always"
       xlink:href="#linearGradient9"
       id="linearGradient10"
       x1="31.622168"
       y1="100.24049"
       x2="221.19499"
       y2="240.28973"
       gradientUnits="userSpaceOnUse" /><linearGradient
       inkscape:collect="always"
       xlink:href="#linearGradient12"
       id="linearGradient14"
       x1="73.583481"
       y1="62.020954"
       x2="207.02971"
       y2="229.59895"
       gradientUnits="userSpaceOnUse" /><linearGradient
       inkscape:collect="always"
       xlink:href="#linearGradient16"
       id="linearGradient17"
       x1="57.531055"
       y1="26.420616"
       x2="147.13231"
       y2="144.34076"
       gradientUnits="userSpaceOnUse" /><linearGradient
       inkscape:collect="always"
       xlink:href="#linearGradient18"
       id="linearGradient19"
       x1="209.82518"
       y1="58.53635"
       x2="210.58252"
       y2="194.57654"
       gradientUnits="userSpaceOnUse" /><linearGradient
       inkscape:collect="always"
       xlink:href="#linearGradient22"
       id="linearGradient23"
       x1="177.19191"
       y1="58.990749"
       x2="207.31994"
       y2="58.990749"
       gradientUnits="userSpaceOnUse" /><linearGradient
       inkscape:collect="always"
       xlink:href="#linearGradient24"
       id="linearGradient25"
       x1="176.32031"
       y1="20.126524"
       x2="176.32031"
       y2="56.695721"
       gradientUnits="userSpaceOnUse" /><linearGradient
       inkscape:collect="always"
       xlink:href="#linearGradient26"
       id="linearGradient27"
       x1="172.59729"
       y1="13.51158"
       x2="210.54449"
       y2="51.28627"
       gradientUnits="userSpaceOnUse" /><linearGradient
       id="linearGradient34"
       inkscape:collect="always"><stop
         style="stop-color:#fffda2;stop-opacity:1;"
         offset="0"
         id="stop19-4" /><stop
         style="stop-color:#fffc80;stop-opacity:1;"
         offset="0.5"
         id="stop20-7" /><stop
         style="stop-color:#fff864;stop-opacity:1;"
         offset="0.75"
         id="stop21" /><stop
         style="stop-color:#fffa43;stop-opacity:1;"
         offset="0.875"
         id="stop22-8" /><stop
         style="stop-color:#fff70b;stop-opacity:1;"
         offset="0.9375"
         id="stop33" /><stop
         style="stop-color:#c0b500;stop-opacity:1;"
         offset="1"
         id="stop34" /></linearGradient><linearGradient
       id="linearGradient18-4"
       inkscape:collect="always"><stop
         style="stop-color:#feff64;stop-opacity:1;"
         offset="0"
         id="stop1" /><stop
         style="stop-color:#fffeb2;stop-opacity:1;"
         offset="0.1629598"
         id="stop2" /><stop
         style="stop-color:#dfc500;stop-opacity:1"
         offset="0.52453172"
         id="stop3" /><stop
         style="stop-color:#bca600;stop-opacity:1"
         offset="0.80294311"
         id="stop4" /><stop
         style="stop-color:#b6a100;stop-opacity:1"
         offset="1"
         id="stop18-5" /></linearGradient><linearGradient
       id="linearGradient32"
       inkscape:collect="always"><stop
         style="stop-color:#73c1ff;stop-opacity:1;"
         offset="0"
         id="stop28" /><stop
         style="stop-color:#48b4ff;stop-opacity:1;"
         offset="0.24361834"
         id="stop29" /><stop
         style="stop-color:#189fff;stop-opacity:1;"
         offset="0.54850435"
         id="stop30" /><stop
         style="stop-color:#007acc;stop-opacity:1;"
         offset="0.875"
         id="stop31" /><stop
         style="stop-color:#005e9e;stop-opacity:1;"
         offset="1"
         id="stop32" /></linearGradient><linearGradient
       id="linearGradient23-0"
       inkscape:collect="always"><stop
         style="stop-color:#002c4b;stop-opacity:1;"
         offset="0"
         id="stop23-3" /><stop
         style="stop-color:#006bb3;stop-opacity:1;"
         offset="0.5"
         id="stop25-6" /><stop
         style="stop-color:#0082db;stop-opacity:1;"
         offset="0.75"
         id="stop26-1" /><stop
         style="stop-color:#64c0ff;stop-opacity:1;"
         offset="0.875"
         id="stop27-0" /><stop
         style="stop-color:#64c0ff;stop-opacity:1;"
         offset="1"
         id="stop24-6" /></linearGradient><linearGradient
       id="linearGradient15"
       inkscape:collect="always"><stop
         style="stop-color:#ffffff;stop-opacity:1;"
         offset="0"
         id="stop16-3" /><stop
         style="stop-color:#ffffff;stop-opacity:0;"
         offset="1"
         id="stop17-2" /></linearGradient><linearGradient
       id="linearGradient9-0"
       inkscape:collect="always"><stop
         style="stop-color:#a2d9ff;stop-opacity:1;"
         offset="0"
         id="stop10-6" /><stop
         style="stop-color:#80caff;stop-opacity:1;"
         offset="0.5"
         id="stop12-1" /><stop
         style="stop-color:#64c0ff;stop-opacity:1;"
         offset="0.75"
         id="stop13-5" /><stop
         style="stop-color:#43b4ff;stop-opacity:1;"
         offset="0.875"
         id="stop14-5" /><stop
         style="stop-color:#0b9cff;stop-opacity:1;"
         offset="0.9375"
         id="stop15" /><stop
         style="stop-color:#0073c0;stop-opacity:1;"
         offset="1"
         id="stop11-4" /></linearGradient><linearGradient
       id="linearGradient5"
       inkscape:collect="always"><stop
         style="stop-color:#64c0ff;stop-opacity:1;"
         offset="0"
         id="stop5" /><stop
         style="stop-color:#b2dfff;stop-opacity:1;"
         offset="0.1629598"
         id="stop7" /><stop
         style="stop-color:#64c0ff;stop-opacity:1;"
         offset="0.52453172"
         id="stop8" /><stop
         style="stop-color:#0c9dff;stop-opacity:1;"
         offset="0.875"
         id="stop9-7" /><stop
         style="stop-color:#0085e0;stop-opacity:1;"
         offset="1"
         id="stop6" /></linearGradient><linearGradient
       inkscape:collect="always"
       xlink:href="#linearGradient18-4"
       id="linearGradient6"
       x1="48.721044"
       y1="122.0199"
       x2="211.33235"
       y2="122.0199"
       gradientUnits="userSpaceOnUse" /><radialGradient
       inkscape:collect="always"
       xlink:href="#linearGradient34"
       id="radialGradient11"
       cx="116.34091"
       cy="-9.0547552"
       fx="116.34091"
       fy="-9.0547552"
       r="78.079063"
       gradientTransform="matrix(1.2669699,0.18734352,-0.09484977,0.64145153,-34.107679,-7.3781937)"
       gradientUnits="userSpaceOnUse" /><radialGradient
       inkscape:collect="always"
       xlink:href="#linearGradient15"
       id="radialGradient17"
       cx="126.55952"
       cy="-19.996494"
       fx="126.55952"
       fy="-19.996494"
       r="79.024002"
       gradientTransform="matrix(1.4551914,-0.10757828,0.02886594,0.35224697,-81.368788,50.953918)"
       gradientUnits="userSpaceOnUse" /><radialGradient
       inkscape:collect="always"
       xlink:href="#linearGradient32"
       id="radialGradient23"
       gradientUnits="userSpaceOnUse"
       gradientTransform="matrix(1.2542941,0.11569632,-0.0322248,0.34935749,-11.809713,22.219778)"
       cx="74.717194"
       cy="316.35361"
       fx="74.717194"
       fy="316.35361"
       r="80.476662" /><radialGradient
       inkscape:collect="always"
       xlink:href="#linearGradient23-0"
       id="radialGradient24"
       cx="153.09013"
       cy="155.7114"
       fx="153.09013"
       fy="155.7114"
       r="80.476659"
       gradientTransform="matrix(1.4393406,0.03810456,-0.00966991,0.36526623,-55.418497,96.654928)"
       gradientUnits="userSpaceOnUse" /><radialGradient
       inkscape:collect="always"
       xlink:href="#linearGradient32"
       id="radialGradient32"
       gradientUnits="userSpaceOnUse"
       gradientTransform="matrix(1.2277255,0.16883363,-0.04779686,0.3475695,-4.8983062,18.815146)"
       cx="76.844856"
       cy="136.15074"
       fx="76.844856"
       fy="136.15074"
       r="80.476662" /><radialGradient
       inkscape:collect="always"
       xlink:href="#linearGradient23-0"
       id="radialGradient33"
       gradientUnits="userSpaceOnUse"
       gradientTransform="matrix(1.1293571,0.03810456,-0.0123214,0.3651864,-11.884608,96.667066)"
       cx="138.04274"
       cy="-32.103779"
       fx="138.04274"
       fy="-32.103779"
       r="80.476659" /><linearGradient
       inkscape:collect="always"
       xlink:href="#linearGradient5"
       id="linearGradient35"
       gradientUnits="userSpaceOnUse"
       x1="48.721044"
       y1="122.0199"
       x2="211.33235"
       y2="122.0199"
       gradientTransform="matrix(0.9999779,0,0,1.0023344,0.00287322,-0.55211813)" /><radialGradient
       inkscape:collect="always"
       xlink:href="#linearGradient9-0"
       id="radialGradient35"
       gradientUnits="userSpaceOnUse"
       gradientTransform="matrix(1.23667,0.18734352,-0.09258141,0.64145153,-30.182362,106.92191)"
       cx="116.34091"
       cy="-9.0547552"
       fx="116.34091"
       fy="-9.0547552"
       r="78.079063" /><radialGradient
       inkscape:collect="always"
       xlink:href="#linearGradient15"
       id="radialGradient36"
       gradientUnits="userSpaceOnUse"
       gradientTransform="matrix(1.4167376,-0.10965263,0.02810314,0.35903908,-75.933171,165.75051)"
       cx="129.21951"
       cy="-33.028687"
       fx="129.21951"
       fy="-33.028687"
       r="79.024002" /><radialGradient
       inkscape:collect="always"
       xlink:href="#linearGradient9-0"
       id="radialGradient42"
       gradientUnits="userSpaceOnUse"
       gradientTransform="matrix(1.23667,0.18734352,-0.09258141,0.64145153,-30.182362,106.92191)"
       cx="116.34091"
       cy="-9.0547552"
       fx="116.34091"
       fy="-9.0547552"
       r="78.079063" /><radialGradient
       inkscape:collect="always"
       xlink:href="#linearGradient15"
       id="radialGradient43"
       gradientUnits="userSpaceOnUse"
       gradientTransform="matrix(1.4167376,-0.10965263,0.02810314,0.35903908,-75.933171,165.75051)"
       cx="129.21951"
       cy="-33.028687"
       fx="129.21951"
       fy="-33.028687"
       r="79.024002" /><radialGradient
       inkscape:collect="always"
       xlink:href="#linearGradient9-0"
       id="radialGradient44"
       gradientUnits="userSpaceOnUse"
       gradientTransform="matrix(1.23667,0.18734352,-0.09258141,0.64145153,-30.182362,106.92191)"
       cx="116.34091"
       cy="-9.0547552"
       fx="116.34091"
       fy="-9.0547552"
       r="78.079063" /><radialGradient
       inkscape:collect="always"
       xlink:href="#linearGradient15"
       id="radialGradient45"
       gradientUnits="userSpaceOnUse"
       gradientTransform="matrix(1.4167376,-0.10965263,0.02810314,0.35903908,-75.933171,165.75051)"
       cx="129.21951"
       cy="-33.028687"
       fx="129.21951"
       fy="-33.028687"
       r="79.024002" /><radialGradient
       inkscape:collect="always"
       xlink:href="#linearGradient9-0"
       id="radialGradient46"
       gradientUnits="userSpaceOnUse"
       gradientTransform="matrix(1.23667,0.18734352,-0.09258141,0.64145153,-30.182362,106.92191)"
       cx="116.34091"
       cy="-9.0547552"
       fx="116.34091"
       fy="-9.0547552"
       r="78.079063" /><radialGradient
       inkscape:collect="always"
       xlink:href="#linearGradient15"
       id="radialGradient47"
       gradientUnits="userSpaceOnUse"
       gradientTransform="matrix(1.4167376,-0.10965263,0.02810314,0.35903908,-75.933171,165.75051)"
       cx="129.21951"
       cy="-33.028687"
       fx="129.21951"
       fy="-33.028687"
       r="79.024002" /><linearGradient
       inkscape:collect="always"
       xlink:href="#linearGradient5"
       id="linearGradient1"
       gradientUnits="userSpaceOnUse"
       gradientTransform="matrix(0.9999779,0,0,1.0023344,0.00287322,-0.55211813)"
       x1="48.721044"
       y1="122.0199"
       x2="211.33235"
       y2="122.0199" /><linearGradient
       inkscape:collect="always"
       xlink:href="#linearGradient5"
       id="linearGradient2"
       gradientUnits="userSpaceOnUse"
       gradientTransform="matrix(0.9999779,0,0,1.0023344,0.00287322,-0.55211813)"
       x1="48.721044"
       y1="122.0199"
       x2="211.33235"
       y2="122.0199" /><linearGradient
       inkscape:collect="always"
       xlink:href="#linearGradient5"
       id="linearGradient3"
       gradientUnits="userSpaceOnUse"
       gradientTransform="matrix(0.9999779,0,0,1.0023344,0.00287322,-0.55211813)"
       x1="48.721044"
       y1="122.0199"
       x2="211.33235"
       y2="122.0199" /></defs><sodipodi:namedview
     id="base"
     pagecolor="#ffffff"
     bordercolor="#000000"
     borderopacity="0.3"
     inkscape:pageopacity="0.0"
     inkscape:pageshadow="2"
     inkscape:zoom="0.98994949"
     inkscape:cx="505.07627"
     inkscape:cy="476.792"
     inkscape:document-units="mm"
     inkscape:showpageshadow="2"
     inkscape:pagecheckerboard="0"
     inkscape:deskcolor="#d1d1d1"
     inkscape:current-layer="g2"
     showguides="true" /><metadata
     id="metadata1"><rdf:RDF><cc:Work
         rdf:about=""><dc:format>image/svg+xml</dc:format><dc:type
           rdf:resource="http://purl.org/dc/dcmitype/StillImage" /><cc:license
           rdf:resource="http://creativecommons.org/publicdomain/zero/1.0/" /></cc:Work><cc:License
         rdf:about="http://creativecommons.org/publicdomain/zero/1.0/"><cc:permits
           rdf:resource="http://creativecommons.org/ns#Reproduction" /><cc:permits
           rdf:resource="http://creativecommons.org/ns#Distribution" /><cc:permits
           rdf:resource="http://creativecommons.org/ns#DerivativeWorks" /></cc:License></rdf:RDF></metadata><g
     id="g28"
     transform="matrix(1.0481261,0,0,1.0481261,-6.4074194,-6.1384097)"><g
       id="g7"
       inkscape:label="shadow"
       style="display:inline"><path
         id="rect1"
         style="fill:#000000;fill-opacity:0.0602258;stroke-width:3.72791;stroke-linecap:square"
         d="M 48.380952,13.418155 H 179.16071 l 43.46726,43.278274 V 244.17261 H 48.380952 Z"
         sodipodi:nodetypes="cccccc" /><path
         id="path1"
         style="fill:#000000;fill-opacity:0.0752823;stroke-width:3.72791;stroke-linecap:square"
         d="m 47.563027,12.60023 129.443423,-0.133635 43.46726,43.278274 1.33635,187.609821 H 47.563027 Z"
         sodipodi:nodetypes="cccccc" /><path
         id="path2"
         style="fill:#000000;fill-opacity:0.0602258;stroke-width:3.72791;stroke-linecap:square"
         d="m 46.493949,11.793049 128.975701,-0.868626 43.46726,43.278274 1.80407,188.344813 H 46.493949 Z"
         sodipodi:nodetypes="cccccc" /><path
         id="path3"
         style="fill:#000000;fill-opacity:0.0602258;stroke-width:3.72791;stroke-linecap:square"
         d="m 45.964782,12.33296 129.777508,0.467722 43.46726,42.209196 1.00226,187.008462 H 45.964782 Z"
         sodipodi:nodetypes="cccccc" /><path
         id="path4"
         style="fill:#000000;fill-opacity:0.0602258;stroke-width:3.72791;stroke-linecap:square"
         d="m 45.435615,12.338332 129.443415,0.935443 43.46726,41.674657 1.33635,186.540738 H 45.435615 Z"
         sodipodi:nodetypes="cccccc" /><path
         id="path5"
         style="fill:#000000;fill-opacity:0.0602258;stroke-width:3.72791;stroke-linecap:square"
         d="M 44.906448,12.744609 174.8844,13.412783 218.35166,54.151996 219.15347,240.96 H 44.906448 Z"
         sodipodi:nodetypes="cccccc" /><path
         id="path6"
         style="fill:#000000;fill-opacity:0.0602258;stroke-width:3.72791;stroke-linecap:square"
         d="m 44.377281,15.021772 129.911129,0.534539 43.46726,37.932883 0.86863,186.941636 H 44.377281 Z"
         sodipodi:nodetypes="cccccc" /><path
         id="path7"
         style="fill:#000000;fill-opacity:0.0602258;stroke-width:3.72791;stroke-linecap:square"
         d="m 43.848114,13.423527 129.710676,1.069078 43.46726,39.001961 1.06908,186.407094 H 43.848114 Z"
         sodipodi:nodetypes="cccccc" /></g><g
       id="g14"
       style="display:inline"><path
         style="color:#000000;fill:url(#linearGradient14);stroke-linecap:square;-inkscape-stroke:none"
         d="M 46.153822,14.648159 H 173.78301 l 40.90293,41.140298 V 236.0795 H 46.554726 Z"
         id="path15"
         inkscape:label="headbgground" /><path
         id="rect16"
         style="display:inline;fill:url(#linearGradient17);fill-opacity:1;stroke-width:4.99999;stroke-linecap:square"
         d="M 45.435818,14.165285 H 176.70315 l 0.20408,8.220982 H 53.433709 V 235.97952 h -7.997891 z"
         sodipodi:nodetypes="ccccccc" /><path
         id="rect17"
         style="fill:url(#linearGradient19);stroke-width:4.99999;stroke-linecap:square"
         d="M 47.058037,227.91965 H 207.27506 l -0.0668,-168.246312 7.31651,0.0667 0.0668,168.546562 -7.08265,0.0331 v 7.34846 H 47.058037 Z"
         sodipodi:nodetypes="ccccccccc" /><path
         style="color:#000000;fill:url(#linearGradient10);stroke-linecap:square;-inkscape-stroke:none"
         d="M 43.648437,12.148438 44.058594,238.58008 H 217.18555 V 54.757812 L 174.82227,12.148438 Z m 4.608862,4.999999 H 172.74414 l 39.44141,39.671875 V 233.58008 H 48.775405 Z"
         id="path16"
         inkscape:label="headframe"
         sodipodi:nodetypes="cccccccccccc" /></g><g
       id="g2"
       transform="matrix(0.95408369,0,0,0.95408369,20.054975,5.925227)"
       style="display:inline"><g
         id="g11"
         style="fill:#b9b9b9;fill-opacity:1"
         transform="matrix(1.0929905,0,0,1.0138881,-10.514417,-18.950261)"><path
           id="rect1-5"
           style="fill:#b9b9b9;fill-opacity:1;fill-rule:evenodd;stroke-width:1.112;stroke-linecap:round;stroke-linejoin:round;stroke-miterlimit:2.1;stroke-opacity:0.357798"
           d="m 42.002144,36.62587 h 50.73859 v 8.400429 h -50.73859 z" /><path
           id="path1-3"
           style="fill:#b9b9b9;fill-opacity:1;fill-rule:evenodd;stroke-width:0.700958;stroke-linecap:round;stroke-linejoin:round;stroke-miterlimit:2.1;stroke-opacity:0.357798"
           d="m 127.01448,36.62587 h 20.16103 v 8.400429 h -20.16103 z" /><path
           id="path5-5"
           style="fill:#b9b9b9;fill-opacity:1;fill-rule:evenodd;stroke-width:1.112;stroke-linecap:round;stroke-linejoin:round;stroke-miterlimit:2.1;stroke-opacity:0.357798"
           d="m 42.002144,50.066556 h 50.73859 v 8.400429 h -50.73859 z" /><path
           id="path6-6"
           style="fill:#b9b9b9;fill-opacity:1;fill-rule:evenodd;stroke-width:1.112;stroke-linecap:round;stroke-linejoin:round;stroke-miterlimit:2.1;stroke-opacity:0.357798"
           d="m 42.002144,85.012339 h 50.73859 v 8.400429 h -50.73859 z" /><path
           id="path7-2"
           style="fill:#b9b9b9;fill-opacity:1;fill-rule:evenodd;stroke-width:1.86117;stroke-linecap:round;stroke-linejoin:round;stroke-miterlimit:2.1;stroke-opacity:0.357798"
           d="M 42.002144,114.91787 H 184.1374 v 8.40043 H 42.002144 Z" /><path
           id="path8-9"
           style="fill:#b9b9b9;fill-opacity:1;fill-rule:evenodd;stroke-width:1.86117;stroke-linecap:round;stroke-linejoin:round;stroke-miterlimit:2.1;stroke-opacity:0.357798"
           d="M 42.002144,133.73483 H 184.1374 v 8.40043 H 42.002144 Z" /><path
           id="path9"
           style="fill:#b9b9b9;fill-opacity:1;fill-rule:evenodd;stroke-width:1.86117;stroke-linecap:round;stroke-linejoin:round;stroke-miterlimit:2.1;stroke-opacity:0.357798"
           d="M 42.002144,155.23993 H 184.1374 v 8.40043 H 42.002144 Z" /><path
           id="path10"
           style="fill:#b9b9b9;fill-opacity:1;fill-rule:evenodd;stroke-width:1.86117;stroke-linecap:round;stroke-linejoin:round;stroke-miterlimit:2.1;stroke-opacity:0.357798"
           d="M 42.002144,175.40095 H 184.1374 v 8.40043 H 42.002144 Z" /><path
           id="path11"
           style="fill:#b9b9b9;fill-opacity:1;fill-rule:evenodd;stroke-width:1.86117;stroke-linecap:round;stroke-linejoin:round;stroke-miterlimit:2.1;stroke-opacity:0.357798"
           d="M 42.002144,196.57003 H 184.1374 v 8.40043 H 42.002144 Z" /><path
           id="path12"
           style="fill:#b9b9b9;fill-opacity:1;fill-rule:evenodd;stroke-width:1.86117;stroke-linecap:round;stroke-linejoin:round;stroke-miterlimit:2.1;stroke-opacity:0.357798"
           d="M 42.002144,218.21886 H 184.1374 v 8.40043 H 42.002144 Z" /><path
           id="path14"
           style="display:inline;fill:#b9b9b9;fill-opacity:1;fill-rule:evenodd;stroke-width:1.86117;stroke-linecap:round;stroke-linejoin:round;stroke-miterlimit:2.1;stroke-opacity:0.357798"
           d="M 42.002144,239.91483 H 184.1374 v 8.40043 H 42.002144 Z" /></g><g
         id="g1"
         transform="matrix(0.70743748,0,0,0.70743748,86.771023,83.233919)"
         style="display:inline"><g
           id="g3"
           style="display:none"><ellipse
             style="display:inline;fill:#64c0ff;fill-rule:evenodd;stroke:#000000;stroke-width:1.05119;stroke-linejoin:round"
             id="path1-6"
             cx="130.02663"
             cy="34.878677"
             rx="79.779953"
             ry="26.593317" /><path
             id="rect1-9"
             style="fill:#64c0ff;fill-rule:evenodd;stroke:#000000;stroke-width:1.04598;stroke-linejoin:round"
             d="m 50.314079,32.892452 9.963716,15.294605 9.963715,4.379151 9.963716,2.867247 9.963716,2.443414 9.963718,1.336348 9.96371,1.088072 9.96372,0.912516 9.42917,0.543756 10.49826,-0.400904 9.96372,-0.400905 9.96371,-1.22699 9.96372,-2.267858 9.96371,-1.889881 9.96372,-2.645833 9.96371,-4.535714 9.96372,-15.497024 V 203.36493 l -9.96372,15.49702 -9.96371,4.53572 -9.96372,2.64583 -9.96371,1.88988 -9.96372,2.26786 -9.96371,1.22699 -9.96372,0.4009 -10.49826,0.40091 -9.42917,-0.54376 -9.96372,-0.91251 -9.96371,-1.08808 -9.963718,-1.33634 -9.963716,-2.44342 -9.963716,-2.86724 -9.963715,-4.37916 -9.963716,-15.2946 z"
             sodipodi:nodetypes="ccccccccccccccccccccccccccccccccccc" /></g><g
           id="g4"
           style="display:inline"
           inkscape:label="big"><path
             id="ellipse3"
             style="fill:url(#linearGradient6);fill-rule:evenodd;stroke:#d7be00;stroke-width:3.051;stroke-linejoin:round;stroke-dasharray:none;stroke-opacity:1"
             d="M 130.02669,8.2852824 C 87.511942,8.3101414 52.52475,19.443793 50.479089,33.598983 50.429696,33.360231 50.355253,33.136225 50.314242,32.892566 v 1.612821 c -0.02519,0.124314 -0.04775,0.248685 -0.0677,0.373104 0.01994,0.124419 0.04251,0.24879 0.0677,0.373104 V 206.38866 c 2.457722,8.27527 8.248624,27.17664 76.907148,29.2434 41.33165,1.24416 81.13765,-6.95171 82.51206,-29.2434 V 35.282601 c 0.0275,-0.134639 0.052,-0.269347 0.0734,-0.40411 -2.8e-4,-0.378058 -0.0247,-0.756071 -0.0734,-1.133781 v -0.852144 c -0.0127,0.175545 -0.0529,0.318179 -0.0693,0.489376 C 207.28297,19.300708 172.33745,8.2881102 130.02669,8.2852824 Z"
             sodipodi:nodetypes="cccccccsccccccc" /><ellipse
             style="display:inline;fill:url(#radialGradient11);fill-rule:evenodd;stroke:#d7cb00;stroke-width:1.735;stroke-linejoin:round;stroke-dasharray:none;stroke-opacity:1"
             id="ellipse4"
             cx="130.02661"
             cy="35.445644"
             rx="79.024002"
             ry="26.026354"
             inkscape:label="one" /><ellipse
             style="display:inline;fill:url(#radialGradient17);fill-rule:evenodd;stroke:none;stroke-width:0.996555;stroke-linejoin:round"
             id="ellipse15"
             cx="130.97661"
             cy="33.842026"
             rx="78.074005"
             ry="24.422737"
             inkscape:label="twoe" /><path
             id="path22"
             style="display:none;fill:url(#radialGradient24);fill-rule:evenodd;stroke:url(#radialGradient23);stroke-width:3.02525;stroke-linejoin:round"
             d="m 51.281181,141.42564 c 0,0 6.091831,26.72695 78.964039,26.72695 73.94128,0 78.96403,-26.72695 78.96403,-26.72695 v 10.60907 c 0,0 -4.22094,24.32153 -78.96403,24.32153 -74.475825,0 -78.964039,-24.32153 -78.964039,-24.32153 z"
             sodipodi:nodetypes="csccscc" /><path
             id="path32"
             style="display:none;fill:url(#radialGradient33);fill-rule:evenodd;stroke:url(#radialGradient32);stroke-width:3.02525;stroke-linejoin:round"
             d="m 51.281181,78.884572 c 0,0 6.091831,26.726948 78.964039,26.726948 73.94128,0 78.96403,-26.726948 78.96403,-26.726948 v 10.60907 c 0,0 -4.22094,24.321528 -78.96403,24.321528 -74.475825,0 -78.964039,-24.321528 -78.964039,-24.321528 z"
             sodipodi:nodetypes="csccscc" /><path
             id="path2-3"
             style="display:none;fill:#ffffff;fill-opacity:0.478211;fill-rule:evenodd;stroke:none;stroke-width:3.051;stroke-linejoin:round;stroke-dasharray:none;stroke-opacity:1"
             d="m 124.75123,62.408596 c 0,0 -57.878079,-0.337311 -73.049221,-21.178166 0.215701,27.929474 1.447054,145.73553 1.447054,145.73553 C 65.00122,148.86017 160.59655,70.586534 209.73345,54.689797 l -0.54334,-12.887107 -0.16379,-3.058211 c -0.32131,7.725075 -29.66993,24.201484 -84.27509,23.664117 z"
             sodipodi:nodetypes="ccccccc"
             inkscape:label="whitekristal" /></g><g
           id="g35"
           inkscape:label="single"
           style="display:none"><path
             id="path33"
             style="fill:url(#linearGradient1);fill-rule:evenodd;stroke:#007ed7;stroke-width:3.05453;stroke-linejoin:round;stroke-dasharray:none;stroke-opacity:1"
             d="m 130.02669,123.21294 c -42.513809,0.0249 -77.500227,11.18456 -79.545843,25.3728 -0.04939,-0.23931 -0.123833,-0.46384 -0.164844,-0.70807 v 1.61659 c -0.02519,0.1246 -0.04775,0.24926 -0.0677,0.37397 0.01994,0.12471 0.04251,0.24937 0.0677,0.37398 v 56.07613 c 2.457668,8.29459 8.248442,27.24009 76.905447,29.31167 41.33074,1.24707 81.13586,-6.96794 82.51024,-29.31167 v -56.04506 c 0.0275,-0.13495 0.052,-0.26997 0.0734,-0.40505 -2.8e-4,-0.37894 -0.0247,-0.75784 -0.0734,-1.13643 v -0.85413 c -0.0127,0.17595 -0.0529,0.31892 -0.0693,0.49052 -2.38113,-14.11411 -37.32587,-25.15241 -79.6357,-25.15525 z"
             sodipodi:nodetypes="cccccccsccccccc" /><ellipse
             style="display:inline;fill:url(#radialGradient35);fill-rule:evenodd;stroke:#007ed7;stroke-width:3.323;stroke-linejoin:round;stroke-dasharray:none;stroke-opacity:1"
             id="ellipse33"
             cx="130.0266"
             cy="149.74542"
             rx="77.134125"
             ry="26.026354"
             inkscape:label="one" /><ellipse
             style="display:inline;fill:url(#radialGradient36);fill-opacity:1;fill-rule:evenodd;stroke:none;stroke-width:0.992733;stroke-linejoin:round"
             id="ellipse34"
             cx="130.80095"
             cy="148.30801"
             rx="76.010887"
             ry="24.893661"
             inkscape:label="twoe"
             transform="matrix(0.99985941,0.01676862,0,1,0,0)" /></g><g
           id="g42"
           inkscape:label="more"
           transform="translate(0,18.520839)"
           style="display:none"><g
             id="g39"
             inkscape:label="single"><path
               id="path37"
               style="fill:url(#linearGradient2);fill-rule:evenodd;stroke:#007ed7;stroke-width:3.05453;stroke-linejoin:round;stroke-dasharray:none;stroke-opacity:1"
               d="m 130.02669,123.21294 c -42.513809,0.0249 -77.500227,11.18456 -79.545843,25.3728 -0.04939,-0.23931 -0.123833,-0.46384 -0.164844,-0.70807 v 1.61659 c -0.02519,0.1246 -0.04775,0.24926 -0.0677,0.37397 0.01994,0.12471 0.04251,0.24937 0.0677,0.37398 v 56.07613 c 2.457668,8.29459 8.248442,27.24009 76.905447,29.31167 41.33074,1.24707 81.13586,-6.96794 82.51024,-29.31167 v -56.04506 c 0.0275,-0.13495 0.052,-0.26997 0.0734,-0.40505 -2.8e-4,-0.37894 -0.0247,-0.75784 -0.0734,-1.13643 v -0.85413 c -0.0127,0.17595 -0.0529,0.31892 -0.0693,0.49052 -2.38113,-14.11411 -37.32587,-25.15241 -79.6357,-25.15525 z"
               sodipodi:nodetypes="cccccccsccccccc" /><ellipse
               style="display:inline;fill:url(#radialGradient42);fill-rule:evenodd;stroke:#007ed7;stroke-width:3.323;stroke-linejoin:round;stroke-dasharray:none;stroke-opacity:1"
               id="ellipse38"
               cx="130.0266"
               cy="149.74542"
               rx="77.134125"
               ry="26.026354"
               inkscape:label="one" /><ellipse
               style="display:inline;fill:url(#radialGradient43);fill-opacity:1;fill-rule:evenodd;stroke:none;stroke-width:0.992733;stroke-linejoin:round"
               id="ellipse39"
               cx="130.80095"
               cy="148.30801"
               rx="76.010887"
               ry="24.893661"
               inkscape:label="twoe"
               transform="matrix(0.99985941,0.01676862,0,1,0,0)" /></g><g
             id="g41"
             inkscape:label="single"
             transform="translate(0,-69.850038)"><path
               id="path39"
               style="fill:url(#linearGradient3);fill-rule:evenodd;stroke:#007ed7;stroke-width:3.05453;stroke-linejoin:round;stroke-dasharray:none;stroke-opacity:1"
               d="m 130.02669,123.21294 c -42.513809,0.0249 -77.500227,11.18456 -79.545843,25.3728 -0.04939,-0.23931 -0.123833,-0.46384 -0.164844,-0.70807 v 1.61659 c -0.02519,0.1246 -0.04775,0.24926 -0.0677,0.37397 0.01994,0.12471 0.04251,0.24937 0.0677,0.37398 v 56.07613 c 2.457668,8.29459 8.248442,27.24009 76.905447,29.31167 41.33074,1.24707 81.13586,-6.96794 82.51024,-29.31167 v -56.04506 c 0.0275,-0.13495 0.052,-0.26997 0.0734,-0.40505 -2.8e-4,-0.37894 -0.0247,-0.75784 -0.0734,-1.13643 v -0.85413 c -0.0127,0.17595 -0.0529,0.31892 -0.0693,0.49052 -2.38113,-14.11411 -37.32587,-25.15241 -79.6357,-25.15525 z"
               sodipodi:nodetypes="cccccccsccccccc" /><ellipse
               style="display:inline;fill:url(#radialGradient46);fill-rule:evenodd;stroke:#007ed7;stroke-width:3.323;stroke-linejoin:round;stroke-dasharray:none;stroke-opacity:1"
               id="ellipse40"
               cx="130.0266"
               cy="149.74542"
               rx="77.134125"
               ry="26.026354"
               inkscape:label="one" /><ellipse
               style="display:inline;fill:url(#radialGradient47);fill-opacity:1;fill-rule:evenodd;stroke:none;stroke-width:0.992733;stroke-linejoin:round"
               id="ellipse41"
               cx="130.80095"
               cy="148.30801"
               rx="76.010887"
               ry="24.893661"
               inkscape:label="twoe"
               transform="matrix(0.99985941,0.01676862,0,1,0,0)" /></g><g
             id="g37"
             inkscape:label="single"
             transform="translate(0,-138.1128)"><path
               id="path36"
               style="fill:url(#linearGradient35);fill-rule:evenodd;stroke:#007ed7;stroke-width:3.05453;stroke-linejoin:round;stroke-dasharray:none;stroke-opacity:1"
               d="m 130.02669,123.21294 c -42.513809,0.0249 -77.500227,11.18456 -79.545843,25.3728 -0.04939,-0.23931 -0.123833,-0.46384 -0.164844,-0.70807 v 1.61659 c -0.02519,0.1246 -0.04775,0.24926 -0.0677,0.37397 0.01994,0.12471 0.04251,0.24937 0.0677,0.37398 v 56.07613 c 2.457668,8.29459 8.248442,27.24009 76.905447,29.31167 41.33074,1.24707 81.13586,-6.96794 82.51024,-29.31167 v -56.04506 c 0.0275,-0.13495 0.052,-0.26997 0.0734,-0.40505 -2.8e-4,-0.37894 -0.0247,-0.75784 -0.0734,-1.13643 v -0.85413 c -0.0127,0.17595 -0.0529,0.31892 -0.0693,0.49052 -2.38113,-14.11411 -37.32587,-25.15241 -79.6357,-25.15525 z"
               sodipodi:nodetypes="cccccccsccccccc" /><ellipse
               style="display:inline;fill:url(#radialGradient44);fill-rule:evenodd;stroke:#007ed7;stroke-width:3.323;stroke-linejoin:round;stroke-dasharray:none;stroke-opacity:1"
               id="ellipse36"
               cx="130.0266"
               cy="149.74542"
               rx="77.134125"
               ry="26.026354"
               inkscape:label="one" /><ellipse
               style="display:inline;fill:url(#radialGradient45);fill-opacity:1;fill-rule:evenodd;stroke:none;stroke-width:0.992733;stroke-linejoin:round"
               id="ellipse37"
               cx="130.80095"
               cy="148.30801"
               rx="76.010887"
               ry="24.893661"
               inkscape:label="twoe"
               transform="matrix(0.99985941,0.01676862,0,1,0,0)" /></g></g></g><g
         id="g738"
         transform="matrix(0.5659935,0,0,0.5659935,-628.12259,-44.371831)"
         style="fill:#4a90d9;fill-opacity:1;fill-rule:nonzero"><g
           id="g9130"
           transform="matrix(0.65355666,0,0,0.65355666,1083.9554,58.477411)"
           style="mix-blend-mode:normal;fill:#4a90d9;fill-opacity:1;fill-rule:nonzero"><path
             id="rect11"
             style="fill:#eeeeee;fill-opacity:1;fill-rule:evenodd;stroke-width:1.112;stroke-linecap:round;stroke-linejoin:round;stroke-miterlimit:2.1;stroke-opacity:0.357798"
             d="M 61.827152,84.340302 113.23777,54.098759 160.95221,85.012334 113.57379,165.99247 64.851306,140.95919 Z"
             sodipodi:nodetypes="cccccc"
             transform="matrix(2.703369,0,0,2.703369,39.498641,30.477771)" /><path
             style="fill:#4a90d9;fill-opacity:1;fill-rule:nonzero;stroke:none;stroke-width:1px;stroke-linecap:butt;stroke-linejoin:miter;stroke-opacity:1"
             d="m 474.6092,255.1181 1e-5,151.18111 -130.92667,75.59055 v -151.1811 z"
             id="path9124"
             sodipodi:nodetypes="ccccc" /><path
             style="fill:#4a90d9;fill-opacity:1;fill-rule:nonzero;stroke:none;stroke-width:1px;stroke-linecap:butt;stroke-linejoin:miter;stroke-opacity:1"
             d="M 343.68252,330.70866 V 179.52756 L 212.75586,255.1181 Z"
             id="path9126" /><path
             style="fill:#4a90d9;fill-opacity:1;fill-rule:nonzero;stroke:none;stroke-width:82.9362;stroke-linecap:round;stroke-linejoin:round;stroke-dasharray:none;stroke-opacity:1"
             d="m 218.61226,233.26169 c -13.54108,7.81795 -21.85641,22.22052 -21.85641,37.85641 v 119.18111 c 0,15.63589 8.31533,30.03846 21.85641,37.85641 l 103.21385,59.59055 c 13.54108,7.81794 30.17174,7.81794 43.71282,0 l 103.21386,-59.59055 c 13.54108,-7.81795 21.85641,-22.22052 21.85641,-37.85641 V 271.1181 c 0,-15.63589 -8.31533,-30.03846 -21.85641,-37.85641 L 365.53893,173.67115 c -13.54108,-7.81794 -30.17174,-7.81794 -43.71282,0 z m 130.92667,-31.87772 103.21386,59.59054 c 3.60767,2.08289 5.85641,5.97781 5.85641,10.14359 v 119.18111 c 0,4.16578 -2.24874,8.0607 -5.85641,10.14359 l -103.21386,59.59055 c -3.60767,2.08289 -8.10515,2.08289 -11.71282,0 L 234.61226,400.4428 c -3.60767,-2.08289 -5.85641,-5.97781 -5.85641,-10.14359 V 271.1181 c 0,-4.16578 2.24874,-8.0607 5.85641,-10.14359 l 103.21385,-59.59054 c 3.60767,-2.08289 8.10515,-2.08289 11.71282,0 z"
             id="path9128" /></g><g
           aria-label="Flatpak"
           id="text9134"
           style="font-weight:bold;font-size:48.2186px;line-height:1.25;font-family:Inter;-inkscape-font-specification:'Inter, Bold';text-align:center;letter-spacing:0px;word-spacing:0px;text-anchor:middle;display:none;fill:#4a90d9;fill-opacity:1;fill-rule:nonzero;stroke-width:1.69387"><path
             d="m 1224.9225,467.70215 h 7.4143 v -14.48613 h 14.2635 v -6.11294 h -14.2635 v -8.35606 h 15.8046 v -6.11295 h -23.2189 z"
             id="path885"
             style="fill:#4a90d9;fill-opacity:1;fill-rule:nonzero" /><path
             d="m 1260.2816,432.63407 h -7.2944 v 35.06808 h 7.2944 z"
             id="path887"
             style="fill:#4a90d9;fill-opacity:1;fill-rule:nonzero" /><path
             d="m 1273.6033,468.19872 c 3.887,0 6.4041,-1.69519 7.6883,-4.14379 h 0.2055 v 3.64722 h 6.9177 v -17.73952 c 0,-6.26704 -5.3082,-8.904 -11.1643,-8.904 -6.3012,0 -10.445,3.01366 -11.4553,7.80813 l 6.7465,0.54794 c 0.4966,-1.74656 2.0548,-3.03079 4.6746,-3.03079 2.4828,0 3.9041,1.24999 3.9041,3.40749 v 0.10274 c 0,1.69519 -1.798,1.91779 -6.3698,2.36299 -5.2054,0.47944 -9.88,2.226 -9.88,8.09922 0,5.20541 3.7157,7.84237 8.7327,7.84237 z m 2.089,-5.03419 c -2.2431,0 -3.8526,-1.04451 -3.8526,-3.04791 0,-2.05477 1.6951,-3.06503 4.2636,-3.42461 1.5924,-0.2226 4.1952,-0.59931 5.0684,-1.1815 v 2.79107 c 0,2.75681 -2.2773,4.86295 -5.4794,4.86295 z"
             id="path889"
             style="fill:#4a90d9;fill-opacity:1;fill-rule:nonzero" /><path
             d="m 1308.0721,441.40109 h -4.9486 v -6.30129 h -7.2944 v 6.30129 h -3.5959 v 5.47939 h 3.5959 v 13.69847 c -0.034,5.15404 3.476,7.70538 8.767,7.48278 1.8835,-0.0685 3.2191,-0.4452 3.9554,-0.68492 l -1.1472,-5.42802 c -0.3596,0.0685 -1.1301,0.23973 -1.8151,0.23973 -1.4554,0 -2.4657,-0.54794 -2.4657,-2.56847 v -12.73957 h 4.9486 z"
             id="path891"
             style="fill:#4a90d9;fill-opacity:1;fill-rule:nonzero" /><path
             d="m 1312.8151,477.56504 h 7.2944 v -14.07517 h 0.2226 c 1.0103,2.19175 3.2192,4.64036 7.4657,4.64036 5.9931,0 10.6677,-4.7431 10.6677,-13.54436 0,-9.04099 -4.8801,-13.52724 -10.6506,-13.52724 -4.4006,0 -6.5068,2.61983 -7.4828,4.76022 h -0.3253 v -4.41776 h -7.1917 z m 7.1403,-23.01342 c 0,-4.69172 1.9863,-7.68826 5.5308,-7.68826 3.6129,0 5.5307,3.13352 5.5307,7.68826 0,4.58899 -1.952,7.77388 -5.5307,7.77388 -3.5103,0 -5.5308,-3.08215 -5.5308,-7.77388 z"
             id="path893"
             style="fill:#4a90d9;fill-opacity:1;fill-rule:nonzero" /><path
             d="m 1350.8111,468.19872 c 3.887,0 6.4041,-1.69519 7.6883,-4.14379 h 0.2055 v 3.64722 h 6.9177 v -17.73952 c 0,-6.26704 -5.3082,-8.904 -11.1642,-8.904 -6.3013,0 -10.4451,3.01366 -11.4554,7.80813 l 6.7465,0.54794 c 0.4966,-1.74656 2.0548,-3.03079 4.6746,-3.03079 2.4829,0 3.9041,1.24999 3.9041,3.40749 v 0.10274 c 0,1.69519 -1.798,1.91779 -6.3698,2.36299 -5.2054,0.47944 -9.88,2.226 -9.88,8.09922 0,5.20541 3.7157,7.84237 8.7327,7.84237 z m 2.0891,-5.03419 c -2.2432,0 -3.8527,-1.04451 -3.8527,-3.04791 0,-2.05477 1.6951,-3.06503 4.2636,-3.42461 1.5925,-0.2226 4.1952,-0.59931 5.0684,-1.1815 v 2.79107 c 0,2.75681 -2.2773,4.86295 -5.4793,4.86295 z"
             id="path895"
             style="fill:#4a90d9;fill-opacity:1;fill-rule:nonzero" /><path
             d="m 1371.2903,467.70215 h 7.2945 v -8.35607 l 1.9691,-2.24312 7.1746,10.59919 h 8.5444 l -10.2567,-14.91421 9.7601,-11.38685 h -8.3731 l -8.4246,9.98276 h -0.3938 v -18.74978 h -7.2945 z"
             id="path897"
             style="fill:#4a90d9;fill-opacity:1;fill-rule:nonzero" /></g></g><path
         style="font-weight:bold;font-size:63.5px;line-height:1.15;font-family:'Liberation Sans';-inkscape-font-specification:'Liberation Sans Bold';letter-spacing:0.928688px;word-spacing:0px;fill-rule:evenodd;stroke-width:1.112;stroke-linecap:round;stroke-linejoin:round;stroke-miterlimit:2.1;stroke-opacity:0.357798"
         d="M 86.344128,233.86792 76.205212,217.27979 H 65.477184 v 16.58813 h -9.146728 v -43.68726 h 21.828125 q 7.813476,0 12.061279,3.37964 4.247803,3.34864 4.247803,9.64282 0,4.58887 -2.604492,7.9375 -2.604493,3.31763 -7.03833,4.37183 l 11.813232,18.35547 z M 85.258923,203.5752 q 0,-6.29419 -8.061524,-6.29419 H 65.477184 v 12.89843 h 11.968262 q 3.844727,0 5.829102,-1.73632 1.984375,-1.73633 1.984375,-4.86792 z m 17.857887,30.29272 V 190.18066 H 137.4713 V 197.25 h -25.20776 v 10.97607 h 23.3164 v 7.06934 h -23.3164 v 11.50317 h 26.479 v 7.06934 z M 155.54623,197.25 v 13.51855 h 22.35522 v 7.06934 h -22.35522 v 16.03003 h -9.14673 v -43.68726 h 32.21509 V 197.25 Z"
         id="text11"
         aria-label="REF" /></g><g
       id="rect23"
       style="display:inline"><rect
         style="display:inline;fill:url(#linearGradient23);fill-opacity:0.834379;stroke:none;stroke-width:4.99999;stroke-linecap:square;stroke-dasharray:none;stroke-opacity:1"
         id="rect20"
         width="30.128031"
         height="11.286353"
         x="177.19191"
         y="53.347572" /><path
         style="color:#000000;display:inline;fill:url(#linearGradient25);stroke-linecap:square;stroke-linejoin:bevel;-inkscape-stroke:none"
         d="m 174.15254,15.119046 40.91592,41.955358 H 174.814 Z"
         id="path25" /><g
         id="g27"><path
           id="rect27"
           style="display:inline;fill:#0a6db5;fill-opacity:0.459222;stroke-width:4.99999;stroke-linecap:square;stroke-linejoin:bevel"
           d="m 182.94047,23.245534 33.07293,33.82887 -33.07293,-0.09449 z"
           sodipodi:nodetypes="cccc" /><path
           id="path27"
           style="display:inline;fill:#1882cf;fill-opacity:0.459222;stroke-width:4.99999;stroke-linecap:square;stroke-linejoin:bevel"
           d="m 175.28645,49.514879 34.91556,0.188989 4.67746,7.087054 -39.68751,-0.472471 z"
           sodipodi:nodetypes="ccccc" /></g><path
         style="color:#000000;display:inline;fill:url(#linearGradient27);stroke-linecap:square;stroke-linejoin:bevel;-inkscape-stroke:none"
         d="m 175.94141,13.373047 -4.28907,1.785156 6.5e-4,44.600911 c 0,0 29.8634,-0.184895 43.41537,-0.184895 l 1.78906,-4.246094 z m 1.4286,7.056744 34.22551,34.144428 h -34.32013 z"
         id="path26"
         sodipodi:nodetypes="cccccccccc" /></g></g></svg>
