<?xml version="1.0" encoding="UTF-8" standalone="no"?>
<!-- Created with Inkscape (http://www.inkscape.org/) -->

<svg
   width="256mm"
   height="256mm"
   viewBox="0 0 256 256"
   version="1.1"
   id="svg1"
   inkscape:version="1.3.2 (091e20ef0f, 2023-11-25)"
   xml:space="preserve"
   sodipodi:docname="application-x-ocx.svg"
   xmlns:inkscape="http://www.inkscape.org/namespaces/inkscape"
   xmlns:sodipodi="http://sodipodi.sourceforge.net/DTD/sodipodi-0.dtd"
   xmlns:xlink="http://www.w3.org/1999/xlink"
   xmlns="http://www.w3.org/2000/svg"
   xmlns:svg="http://www.w3.org/2000/svg"
   xmlns:rdf="http://www.w3.org/1999/02/22-rdf-syntax-ns#"
   xmlns:cc="http://creativecommons.org/ns#"
   xmlns:dc="http://purl.org/dc/elements/1.1/"><defs
     id="defs1"><linearGradient
       id="linearGradient1"
       inkscape:collect="always"><stop
         style="stop-color:#ffffff;stop-opacity:1;"
         offset="0"
         id="stop1" /><stop
         style="stop-color:#d2d2d2;stop-opacity:1;"
         offset="1"
         id="stop2" /></linearGradient><linearGradient
       inkscape:collect="always"
       xlink:href="#linearGradient1"
       id="linearGradient2"
       x1="86.910767"
       y1="76.225304"
       x2="217.36191"
       y2="242.69786"
       gradientUnits="userSpaceOnUse" /></defs><sodipodi:namedview
     id="base"
     pagecolor="#ffffff"
     bordercolor="#000000"
     borderopacity="0.3"
     inkscape:pageopacity="0.0"
     inkscape:pageshadow="2"
     inkscape:zoom="0.98994949"
     inkscape:cx="505.07627"
     inkscape:cy="476.792"
     inkscape:document-units="mm"
     inkscape:showpageshadow="2"
     inkscape:pagecheckerboard="0"
     inkscape:deskcolor="#d1d1d1"
     inkscape:current-layer="svg1" /><metadata
     id="metadata1"><rdf:RDF><cc:Work
         rdf:about=""><dc:format>image/svg+xml</dc:format><dc:type
           rdf:resource="http://purl.org/dc/dcmitype/StillImage" /><cc:license
           rdf:resource="http://creativecommons.org/publicdomain/zero/1.0/" /></cc:Work><cc:License
         rdf:about="http://creativecommons.org/publicdomain/zero/1.0/"><cc:permits
           rdf:resource="http://creativecommons.org/ns#Reproduction" /><cc:permits
           rdf:resource="http://creativecommons.org/ns#Distribution" /><cc:permits
           rdf:resource="http://creativecommons.org/ns#DerivativeWorks" /></cc:License></rdf:RDF></metadata><g
     id="g2"
     style="display:inline"
     transform="matrix(0.99219098,0,0,0.99219098,-0.00294705,1.0686325)"
     inkscape:label="body"><path
       id="rect2"
       style="fill:url(#linearGradient2);stroke-width:0.447;stroke-linecap:round;stroke-linejoin:round;stroke-opacity:0.923077"
       d="M 28.726189,2.6458333 H 178.97172 L 228.67559,53.672619 V 253.24405 H 28.726189 Z"
       sodipodi:nodetypes="cccccc"
       inkscape:label="bg" /><path
       id="rect3"
       style="fill:#c0c0c0;stroke-width:0.447;stroke-linecap:round;stroke-linejoin:round;stroke-opacity:0.923077"
       d="M 30.521576,240.67635 H 216.43698 l -0.0402,-190.983269 8.71287,-0.0041 0.0231,199.775229 -194.611164,0.28349 z"
       sodipodi:nodetypes="ccccccc" /><path
       id="rect1"
       style="fill:#808080;stroke-width:0.447;stroke-linecap:round;stroke-linejoin:round;stroke-opacity:0.923077"
       d="M 23.786989,0 H 184.08188 V 8.0849037 H 31.604623 l 0.0167,242.3967563 -7.734112,-0.0167 z"
       sodipodi:nodetypes="ccccccc" /><path
       id="rect4"
       style="stroke-width:0.447;stroke-linecap:round;stroke-linejoin:round;stroke-opacity:0.923077"
       d="m 224.04538,48.097473 h 8.26823 V 256.55134 H 23.918757 l -0.02913,-8.0682 200.155753,-0.0167 z"
       sodipodi:nodetypes="ccccccc" /></g><g
     id="g5"
     inkscape:label="corner"
     style="display:inline"><rect
       style="opacity:1;fill:#fefefe;fill-opacity:1;stroke:none;stroke-width:0.447;stroke-linecap:round;stroke-linejoin:round;stroke-opacity:0.923077"
       id="rect16"
       width="16.036171"
       height="15.902536"
       x="182.67873"
       y="32.807335"
       inkscape:label="white" /><path
       id="rect6"
       style="opacity:1;fill:#808080;fill-opacity:1;stroke:none;stroke-width:0.447;stroke-linecap:round;stroke-linejoin:round;stroke-opacity:0.923077"
       inkscape:label="gray"
       d="M 174.86116,1.0691854 V 56.861646 h 7.95145 V 24.956099 h 7.61711 v 7.951453 h 8.08478 v 8.018115 h 8.01811 v 7.617106 h 8.35195 v -8.084777 h -8.01812 v -7.617107 h -8.08477 v -8.018115 h -8.15145 v -7.951452 h -7.81761 V 1.0691854 Z" /><path
       id="rect14"
       style="opacity:1;fill:#c0c0c0;fill-opacity:1;stroke:none;stroke-width:0.447;stroke-linecap:round;stroke-linejoin:round;stroke-opacity:0.923077"
       d="m 182.62865,24.914758 v 7.917863 h 7.82381 v 7.792806 h 8.04292 v 7.806759 h 7.91786 v -7.917863 h -7.90959 v -7.806759 h -7.95714 v -7.792806 z"
       inkscape:label="lgray" /><path
       id="rect5"
       style="opacity:1;fill:#000000;fill-opacity:1;stroke:none;stroke-width:0.447;stroke-linecap:round;stroke-linejoin:round;stroke-opacity:0.923077"
       d="m 182.41316,9.1736003 v 7.9607547 h 8.11836 v 7.81761 h 8.10132 v 7.817611 h 7.6972 v 7.872388 h 8.05377 v 7.733895 h -32.03898 v 8.351945 h 48.04162 v -8.351945 h -7.56698 v -7.817611 h -8.00674 v -7.877555 h -7.69721 v -7.871871 h -8.10183 v -7.817611 h -8.11837 V 9.1736003 Z"
       inkscape:label="black"
       sodipodi:nodetypes="ccccccccccccccccccccccccc" /></g><g
     style="shape-rendering:crispEdges"
     id="g1"
     transform="matrix(5.5780421,0,0,5.5780421,37.647451,54.809201)"><path
       stroke="#010101"
       d="m 9,0 h 1 M 0,9 h 1 m -1,1 h 1 m 17,0 h 1 M 0,11 h 1 m 8,5 h 1 m -1,1 h 1 m -1,1 h 1 m -1,1 h 1 m -1,1 h 1 m 8,5 h 1 m -1,1 h 1"
       id="path1" /><path
       stroke="#000000"
       d="m 10,0 h 3 M 8,1 h 1 m 4,0 h 1 M 8,2 h 1 m 4,0 h 1 M 4,3 h 2 m 2,0 h 1 m 1,0 h 2 m 1,0 h 1 m 2,0 h 2 M 3,4 h 1 m 2,0 h 3 m 4,0 h 3 m 2,0 h 1 M 3,5 h 1 m 4,0 h 1 m 4,0 h 1 m 4,0 h 1 M 3,6 h 2 m 3,0 h 1 m 4,0 h 1 m 3,0 h 2 M 3,7 h 2 m 2,0 h 2 m 4,0 h 2 m 2,0 h 2 M 1,8 h 3 m 2,0 h 1 m 1,0 h 1 m 4,0 h 1 m 1,0 h 1 m 2,0 h 3 M 7,9 h 2 m 4,0 h 2 m 6,0 h 1 M 1,10 h 3 m 4,0 h 6 m 5,0 h 3 M 3,11 h 1 m 13,0 h 1 m 4,0 h 1 M 1,12 h 3 m 3,0 h 2 m 4,0 h 2 m 2,0 h 1 m 4,0 h 1 m 2,0 h 2 M 3,13 h 2 m 1,0 h 1 m 2,0 h 1 m 2,0 h 1 m 2,0 h 3 m 1,0 h 2 m 1,0 h 3 m 2,0 h 1 M 3,14 h 1 m 1,0 h 1 m 1,0 h 1 m 1,0 h 1 m 2,0 h 1 m 4,0 h 1 m 4,0 h 1 m 4,0 h 1 M 3,15 h 1 m 1,0 h 2 m 1,0 h 6 m 3,0 h 1 m 4,0 h 1 m 3,0 h 2 M 4,16 h 2 m 6,0 h 2 m 2,0 h 2 m 4,0 h 2 m 2,0 h 2 m -18,1 h 3 m 2,0 h 1 m 1,0 h 1 m 4,0 h 1 m 1,0 h 1 m 2,0 h 3 m -14,1 h 2 m 4,0 h 2 m 6,0 h 1 m -21,1 h 3 m 4,0 h 6 m 4,0 h 4 m -19,1 h 1 m 14,0 h 1 m 2,0 h 1 m -21,1 h 3 m 3,0 h 2 m 4,0 h 2 m 3,0 h 3 m -18,1 h 2 m 1,0 h 1 m 2,0 h 1 m 2,0 h 1 m 2,0 h 1 m 1,0 h 2 m -16,1 h 1 m 1,0 h 1 m 1,0 h 1 m 1,0 h 1 m 2,0 h 1 m 1,0 h 1 m 1,0 h 1 m 1,0 h 1 m -16,1 h 1 m 1,0 h 2 m 1,0 h 6 m 1,0 h 2 m 1,0 h 1 m -15,1 h 2 m 6,0 h 1 m 3,0 h 2 m -8,1 h 3"
       id="path2" /><path
       stroke="#fefefe"
       d="m 9,1 h 1 M 9,4 h 1 M 9,5 h 1 M 9,6 h 1 M 9,7 h 1 M 9,8 h 1 M 9,9 h 1 m 8,2 h 1 m -1,3 h 1 m -1,1 h 1 m -1,1 h 1 m -1,1 h 1 m -1,1 h 1 m -1,3 h 1"
       id="path3" /><path
       stroke="#ffffff"
       d="m 10,1 h 1 M 7,8 h 1 m 6,0 h 1 m 4,3 h 1 m -6,2 h 1 m 11,0 h 1 m -14,1 h 1 m 1,0 h 1 m 7,0 h 1 m 1,0 h 1 m -12,1 h 1 m 1,0 h 1 m 7,0 h 1 m -10,1 h 1 m 9,0 h 1 m -12,1 h 1 m 1,0 h 1 m 6,0 h 1 m 2,0 h 1 m -16,1 h 1 m 1,0 h 1 m 1,0 h 1 m 9,0 h 1 m 1,0 h 1 m 1,0 h 1 m -16,1 h 1 m 1,0 h 1 m 7,0 h 1 m 1,0 h 1 m -14,1 h 1 m 1,0 h 1 m 1,0 h 1 m 1,0 h 1 m 1,0 h 1 m 1,0 h 1 m 1,0 h 1 m -12,1 h 1 m 5,0 h 1 m 3,0 h 1 m 1,0 h 1 m -8,1 h 1 m 5,0 h 1 m -6,1 h 1"
       id="path4" /><path
       stroke="#c6c6c6"
       d="m 11,1 h 2 m -3,1 h 2 M 4,4 h 2 m 4,0 h 1 m 5,0 h 2 M 4,5 h 4 m 2,0 h 1 m 3,0 h 4 M 5,6 h 3 m 2,0 h 1 m 3,0 h 3 M 5,7 h 2 m 3,0 h 1 m 4,0 h 2 M 4,8 h 2 m 4,0 h 1 m 5,0 h 2 M 1,9 h 6 m 3,0 h 1 m 4,0 h 6 M 4,10 h 4 m 6,0 h 4 M 4,11 h 13 m 3,0 h 2 M 4,12 h 3 m 3,0 h 3 m 2,0 h 2 m 2,0 h 2 M 5,13 h 1 m 4,0 h 2 m -2,1 h 2 m 7,0 h 1 m -1,1 h 1 m -1,1 h 1 m -1,1 h 1 m -1,1 h 1"
       id="path5" /><path
       stroke="#838383"
       d="m 9,2 h 1 M 9,3 h 1 m 8,9 h 1 m -1,1 h 1"
       id="path6" /><path
       stroke="#848484"
       d="m 12,2 h 1 m -1,1 h 1 m -2,1 h 2 m -2,1 h 2 m -2,1 h 2 m -2,1 h 2 m -2,1 h 2 m -2,1 h 2 M 1,11 h 2 m 18,1 h 1 M 7,13 h 2 m 12,0 h 1 M 4,14 h 1 m 3,0 h 1 m 11,0 h 2 M 4,15 h 1 m 15,0 h 2 m -12,1 h 2 m 8,0 h 2 m -2,1 h 2 m -2,1 h 2 m -11,2 h 1 m 17,0 h 1 m -17,3 h 1 m 12,0 h 1 m -14,1 h 1 m 12,0 h 1 m -8,1 h 2"
       id="path7" /><path
       stroke="#c5c5c5"
       d="m 9,12 h 1"
       id="path8" /><path
       stroke="#ffff00"
       d="m 13,13 h 1 m 11,0 h 1 m -12,1 h 1 m 1,0 h 1 m 7,0 h 1 m 1,0 h 1 m -12,1 h 1 m 7,0 h 1 m 1,0 h 1 m -12,1 h 1 m 9,0 h 1 m -12,1 h 1 m 11,0 h 1 m -16,1 h 1 m 1,0 h 1 m 1,0 h 1 m 9,0 h 1 m 1,0 h 1 m 1,0 h 1 m -16,1 h 1 m 1,0 h 1 m 7,0 h 1 m 1,0 h 1 m -12,1 h 1 m 1,0 h 1 m 3,0 h 1 m 1,0 h 1 m 1,0 h 1 m 1,0 h 1 m -14,1 h 1 m 1,0 h 1 m 3,0 h 1 m 1,0 h 1 m 3,0 h 1 m -12,1 h 1 m 5,0 h 1 m -2,1 h 1"
       id="path9" /><path
       stroke="#840084"
       d="M 6,14 H 7"
       id="path10" /><path
       stroke="#848400"
       d="m 10,20 h 1 m 17,0 h 1 m -13,2 h 2 m 4,0 h 2 m -9,1 h 1 m 1,0 h 1 m 4,0 h 1 m 1,0 h 1"
       id="path11" /><path
       stroke="#ffff01"
       d="m 18,20 h 1"
       id="path12" /></g></svg>
