<?xml version="1.0" encoding="UTF-8" standalone="no"?>
<!-- Created with Inkscape (http://www.inkscape.org/) -->

<svg
   width="256mm"
   height="256mm"
   viewBox="0 0 256 256"
   version="1.1"
   id="svg1"
   inkscape:version="1.3.2 (091e20ef0f, 2023-11-25)"
   xml:space="preserve"
   sodipodi:docname="application-x-egon.svg"
   xmlns:inkscape="http://www.inkscape.org/namespaces/inkscape"
   xmlns:sodipodi="http://sodipodi.sourceforge.net/DTD/sodipodi-0.dtd"
   xmlns:xlink="http://www.w3.org/1999/xlink"
   xmlns="http://www.w3.org/2000/svg"
   xmlns:svg="http://www.w3.org/2000/svg"
   xmlns:rdf="http://www.w3.org/1999/02/22-rdf-syntax-ns#"
   xmlns:cc="http://creativecommons.org/ns#"
   xmlns:dc="http://purl.org/dc/elements/1.1/"><defs
     id="defs1"><linearGradient
       id="linearGradient26"
       inkscape:collect="always"><stop
         style="stop-color:#7b91c4;stop-opacity:1;"
         offset="0"
         id="stop26" /><stop
         style="stop-color:#5c5e91;stop-opacity:1"
         offset="1"
         id="stop27" /></linearGradient><linearGradient
       id="linearGradient24"
       inkscape:collect="always"><stop
         style="stop-color:#c7fafe;stop-opacity:1;"
         offset="0"
         id="stop24" /><stop
         style="stop-color:#9acdff;stop-opacity:1"
         offset="1"
         id="stop25" /></linearGradient><linearGradient
       id="linearGradient22"
       inkscape:collect="always"><stop
         style="stop-color:#adaeae;stop-opacity:0.8253752;"
         offset="0"
         id="stop22" /><stop
         style="stop-color:#8ac5fe;stop-opacity:0.83628923;"
         offset="1"
         id="stop23" /></linearGradient><linearGradient
       id="linearGradient18"
       inkscape:collect="always"><stop
         style="stop-color:#9797ff;stop-opacity:1;"
         offset="0"
         id="stop18" /><stop
         style="stop-color:#ccccff;stop-opacity:1;"
         offset="0.30000001"
         id="stop20" /><stop
         style="stop-color:#ccccff;stop-opacity:1;"
         offset="1"
         id="stop19" /></linearGradient><linearGradient
       id="linearGradient16"
       inkscape:collect="always"><stop
         style="stop-color:#cdcdcd;stop-opacity:0.17462483;"
         offset="0"
         id="stop16" /><stop
         style="stop-color:#cdcdcd;stop-opacity:1;"
         offset="1"
         id="stop17" /></linearGradient><linearGradient
       id="linearGradient12"
       inkscape:collect="always"><stop
         style="stop-color:#fdfeff;stop-opacity:1;"
         offset="0"
         id="stop13" /><stop
         style="stop-color:#99ccff;stop-opacity:1;"
         offset="1"
         id="stop14" /></linearGradient><linearGradient
       id="linearGradient9"
       inkscape:collect="always"><stop
         style="stop-color:#97c9fc;stop-opacity:1;"
         offset="0"
         id="stop9" /><stop
         style="stop-color:#7788bb;stop-opacity:1"
         offset="0.25"
         id="stop12" /><stop
         style="stop-color:#57578a;stop-opacity:1"
         offset="0.5"
         id="stop11" /><stop
         style="stop-color:#444482;stop-opacity:1;"
         offset="1"
         id="stop10" /></linearGradient><linearGradient
       inkscape:collect="always"
       xlink:href="#linearGradient9"
       id="linearGradient10"
       x1="31.622168"
       y1="100.24049"
       x2="221.19499"
       y2="240.28973"
       gradientUnits="userSpaceOnUse" /><linearGradient
       inkscape:collect="always"
       xlink:href="#linearGradient12"
       id="linearGradient14"
       x1="73.583481"
       y1="62.020954"
       x2="207.02971"
       y2="229.59895"
       gradientUnits="userSpaceOnUse" /><linearGradient
       inkscape:collect="always"
       xlink:href="#linearGradient16"
       id="linearGradient17"
       x1="57.531055"
       y1="26.420616"
       x2="147.13231"
       y2="144.34076"
       gradientUnits="userSpaceOnUse" /><linearGradient
       inkscape:collect="always"
       xlink:href="#linearGradient18"
       id="linearGradient19"
       x1="209.82518"
       y1="58.53635"
       x2="210.58252"
       y2="194.57654"
       gradientUnits="userSpaceOnUse" /><linearGradient
       inkscape:collect="always"
       xlink:href="#linearGradient22"
       id="linearGradient23"
       x1="177.19191"
       y1="58.990749"
       x2="207.31994"
       y2="58.990749"
       gradientUnits="userSpaceOnUse" /><linearGradient
       inkscape:collect="always"
       xlink:href="#linearGradient24"
       id="linearGradient25"
       x1="176.32031"
       y1="20.126524"
       x2="176.32031"
       y2="56.695721"
       gradientUnits="userSpaceOnUse" /><linearGradient
       inkscape:collect="always"
       xlink:href="#linearGradient26"
       id="linearGradient27"
       x1="172.59729"
       y1="13.51158"
       x2="210.54449"
       y2="51.28627"
       gradientUnits="userSpaceOnUse" /></defs><sodipodi:namedview
     id="base"
     pagecolor="#ffffff"
     bordercolor="#000000"
     borderopacity="0.3"
     inkscape:pageopacity="0.0"
     inkscape:pageshadow="2"
     inkscape:zoom="0.98994949"
     inkscape:cx="505.07627"
     inkscape:cy="476.792"
     inkscape:document-units="mm"
     inkscape:showpageshadow="2"
     inkscape:pagecheckerboard="0"
     inkscape:deskcolor="#d1d1d1"
     inkscape:current-layer="g28"
     showguides="true"><sodipodi:guide
       position="92.475254,162.18839"
       orientation="0,-1"
       id="guide12"
       inkscape:locked="false" /><sodipodi:guide
       position="212.80059,201.33519"
       orientation="0,-1"
       id="guide27"
       inkscape:locked="false" /><sodipodi:guide
       position="177.33333,251.7905"
       orientation="1,0"
       id="guide28"
       inkscape:locked="false" /></sodipodi:namedview><metadata
     id="metadata1"><rdf:RDF><cc:Work
         rdf:about=""><dc:format>image/svg+xml</dc:format><dc:type
           rdf:resource="http://purl.org/dc/dcmitype/StillImage" /><cc:license
           rdf:resource="http://creativecommons.org/publicdomain/zero/1.0/" /></cc:Work><cc:License
         rdf:about="http://creativecommons.org/publicdomain/zero/1.0/"><cc:permits
           rdf:resource="http://creativecommons.org/ns#Reproduction" /><cc:permits
           rdf:resource="http://creativecommons.org/ns#Distribution" /><cc:permits
           rdf:resource="http://creativecommons.org/ns#DerivativeWorks" /></cc:License></rdf:RDF></metadata><g
     id="g28"
     transform="matrix(1.0481261,0,0,1.0481261,-6.4074194,-6.1384097)"><g
       id="g7"
       inkscape:label="shadow"
       style="display:inline"><path
         id="rect1"
         style="fill:#000000;fill-opacity:0.0602258;stroke-width:3.72791;stroke-linecap:square"
         d="M 48.380952,13.418155 H 179.16071 l 43.46726,43.278274 V 244.17261 H 48.380952 Z"
         sodipodi:nodetypes="cccccc" /><path
         id="path1"
         style="fill:#000000;fill-opacity:0.0752823;stroke-width:3.72791;stroke-linecap:square"
         d="m 47.563027,12.60023 129.443423,-0.133635 43.46726,43.278274 1.33635,187.609821 H 47.563027 Z"
         sodipodi:nodetypes="cccccc" /><path
         id="path2"
         style="fill:#000000;fill-opacity:0.0602258;stroke-width:3.72791;stroke-linecap:square"
         d="m 46.493949,11.793049 128.975701,-0.868626 43.46726,43.278274 1.80407,188.344813 H 46.493949 Z"
         sodipodi:nodetypes="cccccc" /><path
         id="path3"
         style="fill:#000000;fill-opacity:0.0602258;stroke-width:3.72791;stroke-linecap:square"
         d="m 45.964782,12.33296 129.777508,0.467722 43.46726,42.209196 1.00226,187.008462 H 45.964782 Z"
         sodipodi:nodetypes="cccccc" /><path
         id="path4"
         style="fill:#000000;fill-opacity:0.0602258;stroke-width:3.72791;stroke-linecap:square"
         d="m 45.435615,12.338332 129.443415,0.935443 43.46726,41.674657 1.33635,186.540738 H 45.435615 Z"
         sodipodi:nodetypes="cccccc" /><path
         id="path5"
         style="fill:#000000;fill-opacity:0.0602258;stroke-width:3.72791;stroke-linecap:square"
         d="M 44.906448,12.744609 174.8844,13.412783 218.35166,54.151996 219.15347,240.96 H 44.906448 Z"
         sodipodi:nodetypes="cccccc" /><path
         id="path6"
         style="fill:#000000;fill-opacity:0.0602258;stroke-width:3.72791;stroke-linecap:square"
         d="m 44.377281,15.021772 129.911129,0.534539 43.46726,37.932883 0.86863,186.941636 H 44.377281 Z"
         sodipodi:nodetypes="cccccc" /><path
         id="path7"
         style="fill:#000000;fill-opacity:0.0602258;stroke-width:3.72791;stroke-linecap:square"
         d="m 43.848114,13.423527 129.710676,1.069078 43.46726,39.001961 1.06908,186.407094 H 43.848114 Z"
         sodipodi:nodetypes="cccccc" /></g><g
       id="g14"
       style="display:inline"><path
         style="color:#000000;fill:url(#linearGradient14);stroke-linecap:square;-inkscape-stroke:none"
         d="M 46.153822,14.648159 H 173.78301 l 40.90293,41.140298 V 236.0795 H 46.554726 Z"
         id="path15"
         inkscape:label="headbgground" /><path
         id="rect16"
         style="display:inline;fill:url(#linearGradient17);fill-opacity:1;stroke-width:4.99999;stroke-linecap:square"
         d="M 45.435818,14.165285 H 176.70315 l 0.20408,8.220982 H 53.433709 V 235.97952 h -7.997891 z"
         sodipodi:nodetypes="ccccccc" /><path
         id="rect17"
         style="fill:url(#linearGradient19);stroke-width:4.99999;stroke-linecap:square"
         d="M 47.058037,227.91965 H 207.27506 l -0.0668,-168.246312 7.31651,0.0667 0.0668,168.546562 -7.08265,0.0331 v 7.34846 H 47.058037 Z"
         sodipodi:nodetypes="ccccccccc" /><path
         style="color:#000000;fill:url(#linearGradient10);stroke-linecap:square;-inkscape-stroke:none"
         d="M 43.648437,12.148438 44.058594,238.58008 H 217.18555 V 54.757812 L 174.82227,12.148438 Z m 4.608862,4.999999 H 172.74414 l 39.44141,39.671875 V 233.58008 H 48.775405 Z"
         id="path16"
         inkscape:label="headframe"
         sodipodi:nodetypes="cccccccccccc" /></g><g
       id="g109"
       transform="matrix(0.49045447,0,0,0.49045447,59.919336,32.544384)"
       style="display:inline"><path
         style="fill:#ee80ee"
         d="m 182.09468,268.94955 -0.002,-6.75 h 7.25173 7.25173 l 0.5,-7.5 0.5,-7.5 h 7 7 l 0.12527,-7.30777 0.12527,-7.30776 14.08729,-0.19224 14.0873,-0.19223 0.28743,7.5 0.28744,7.5 h 7 7 l 0.5,7.5 0.5,7.5 h 7.25173 7.25173 l -0.002,6.75 -0.002,6.75 h -44 -44 z m -15.49827,-52.25 v -44 h 6.70619 6.70619 l 0.29381,7.25 0.29381,7.25 7.20706,0.29295 7.20706,0.29294 0.29294,7.20706 0.29294,7.20705 7.25,0.29381 7.25,0.29381 v 13.95619 13.95619 h -7.5 -7.5 v 7.5 7.5 h -7.5 -7.5 v 7.5 7.5 h -6.75 -6.75 z m 105,36.75173 v -7.25173 l -7.5,-0.5 -7.5,-0.5 v -7 -7 l -7.5,-0.5 -7.5,-0.5 v -13.5 -13.5 l 7.5,-0.5 7.5,-0.5 v -7 -7 l 7.5,-0.5 7.5,-0.5 v -7.25173 -7.25173 l 6.75,0.002 6.75,0.002 v 44 44 l -6.75,0.002 -6.75,0.002 z m -60,-60 v -7.25173 l -7.20705,-0.29294 -7.20706,-0.29294 -0.29294,-7.20706 -0.29295,-7.20706 -7.16653,-0.29212 -7.16654,-0.29213 -0.33346,-6.54507 c -0.18341,-3.59979 -0.25873,-6.61833 -0.16739,-6.70787 0.0913,-0.0896 20.00384,-0.0411 44.25,0.10768 l 44.08392,0.27048 v 6.47952 6.47951 h -7.5 -7.5 v 7.5 7.5 h -7.5 -7.5 v 7.5 7.5 l -14.25,0.002 -14.25,0.002 z"
         id="path117" /><path
         style="fill:#85cfeb"
         d="m 150.39608,373.69955 v -5.5 l 0.41659,2.75 c 0.22912,1.5125 0.22912,3.9875 0,5.5 l -0.41659,2.75 z M 1.7661694,358.95017 l 0.1697558,-6.75062 6.5802442,-0.29569 6.5802446,-0.29569 v 7.04569 7.04569 l -6.7500004,6.2e-4 -6.75,6.1e-4 z m 44.8302446,-0.49889 v -7.25173 l -15,-0.5 -15,-0.5 v -7 -7 l -7.5000004,-0.28693 -7.5,-0.28693 0.1687363,-6.71307 0.1687363,-6.71307 7.3312637,-0.5 7.3312641,-0.5 v -7.5 -7.5 l -7.5000004,-0.28693 -7.5,-0.28693 0.1687363,-6.71307 0.1687363,-6.71307 7.3312637,-0.5 7.3312641,-0.5 v -7.5 -7.5 l -7.5000004,-0.28693 -7.5,-0.28693 0.1687363,-6.71307 0.1687363,-6.71307 7.3312637,-0.5 7.3312641,-0.5 0.166648,-14.5 0.166649,-14.5 7.333351,-0.5 7.333352,-0.5 0.113747,-7 0.113747,-7 6.636253,-0.29569 6.636253,-0.29569 v 7.58613 7.58614 l 8.25,-0.29045 8.25,-0.29044 0.113747,-7 0.113747,-7 6.636253,-0.29569 6.636253,-0.29569 v 7.54569 7.54569 h 15 14.999996 v 7.5 7.5 h 7.33334 c 8.86583,0 8.23879,-0.59002 7.8332,7.37068 l -0.33346,6.54507 -7.16654,0.29213 -7.16654,0.29212 -0.29206,7.75 -0.29206,7.75 h 7.37539 c 8.91354,0 8.28096,-0.59204 7.87527,7.37068 l -0.33346,6.54507 -7.16654,0.29213 -7.16654,0.29212 -0.29206,7.75 -0.29206,7.75 h 7.37539 c 8.91354,0 8.28096,-0.59204 7.87527,7.37068 l -0.33346,6.54507 -7.16654,0.29213 -7.16654,0.29212 -0.27648,14.70673 -0.27649,14.70672 -7.223512,0.29328 -7.223514,0.29327 -0.29381,7.25 -0.293809,7.25 -6.706191,5.3e-4 -6.70619,5.2e-4 v -7.25052 -7.25053 h -8 -8 l -0.29381,7.25 -0.293809,7.25 -6.706191,0.002 -6.70619,0.002 z m 45.292064,-44.50173 -0.292064,-7.75 h -30.5 -30.5 l -0.292065,7.75 -0.292064,7.75 h 31.084129 31.084128 z m -0.994987,-22.10342 1.297077,-0.8228 -0.297077,-7.41189 -0.297077,-7.41189 h -30.5 -30.5 l -0.297077,7.41189 -0.297078,7.41189 1.297078,0.8228 1.297077,0.8228 h 28.5 28.5 z m 0,-30 1.297077,-0.8228 -0.297077,-7.41189 -0.297077,-7.41189 h -30.5 -30.5 l -0.297077,7.41189 -0.297078,7.41189 1.297078,0.8228 1.297077,0.8228 h 28.5 28.5 z m 15.875999,97.10404 0.17308,-6.75062 h 6.57692 6.57692 v 0.75 c 0,0.4125 0,3.45 0,6.75 v 6 l -6.75,6.2e-4 -6.75,6.1e-4 z m 43.62659,-15.25062 v -5.5 l 0.41659,2.75 c 0.22912,1.5125 0.22912,3.9875 0,5.5 l -0.41659,2.75 z m 0,-30 v -5.5 l 0.41659,2.75 c 0.22912,1.5125 0.22912,3.9875 0,5.5 l -0.41659,2.75 z m 0.17524,-97 v -74.5 l 0.27472,37.25 c 0.15109,20.4875 0.15109,54.0125 0,74.5 l -0.27472,37.25 z m -148.8051506,7.25062 0.1697558,-6.75062 6.5802442,-0.29569 6.5802446,-0.29569 v 7.04569 7.04569 l -6.7500004,6.2e-4 -6.75,6.1e-4 z m 105.0000006,0 0.16976,-6.75062 6.49646,-0.29378 6.49647,-0.29378 0.33378,7.04604 0.33377,7.04603 -7,-0.002 -7,-0.002 z M 23.420349,200.94985 c 20.803164,-0.15097 54.553164,-0.1509 75,1.5e-4 l 37.176061,0.27464 -74.999996,-1.5e-4 -75,-1.6e-4 z m -0.07394,-59.99993 c 20.7625,-0.15093 54.7375,-0.15093 75.5,0 l 37.749991,0.27441 h -75.499991 -75.5 z m 166.073931,-7e-5 c 20.80316,-0.15097 54.55316,-0.1509 75,1.5e-4 l 37.17606,0.27464 -75,-1.5e-4 -75,-1.6e-4 z m -39.02427,-22.2503 v -5.5 l 0.41659,2.75 c 0.22912,1.5125 0.22912,3.9875 0,5.5 l -0.41659,2.75 z m 0.55653,-7.25641 0.75664,-0.75642 74.94358,0.25659 74.94358,0.25659 -75.70022,0.49983 -75.70023,0.49982 z M 23.420349,110.94985 c 20.803164,-0.15097 54.553164,-0.1509 75,1.5e-4 l 37.176061,0.27464 -74.999996,-1.5e-4 -75,-1.6e-4 z"
         id="path116" /><path
         style="fill:#d778db"
         d="m 181.77336,276.04316 -0.67695,-0.67694 v -6.83333 -6.83334 l -7.75,-0.19869 -7.75,-0.1987 7.25,-0.34511 7.25,-0.34512 v -7.45619 -7.45619 h 7.5 7.5 v -7.5 -7.5 h 7.5 7.5 v -13.95619 -13.95619 l -7.25,-0.29381 -7.25,-0.29381 -0.29294,-7.20705 -0.29294,-7.20706 -7.20706,-0.29294 -7.20706,-0.29295 -0.29294,-7.20705 -0.29294,-7.20706 -7.20706,-0.34425 -7.20706,-0.34424 7.75,-0.1987 7.75,-0.1987 0.19268,-6.75 0.19268,-6.75 0.35393,6.20713 0.35392,6.20713 7.2034,0.29287 7.20339,0.29287 0.29295,7.20706 0.29294,7.20706 7.20706,0.29294 7.20705,0.29294 0.0742,6.75401 0.0742,6.75401 -0.36986,-6.50401 -0.36987,-6.50401 h -7.45431 -7.45431 v 7.65279 7.65279 l 11.25,-0.64824 c 6.1875,-0.35653 16.0875,-0.65029 22,-0.65279 l 10.75,-0.005 v -7.5 -7.5 h 7.5 7.5 v -7.5 -7.5 h 7.5 7.5 v -6.48949 -6.48949 l -43.75,-0.27664 -43.75,-0.27664 44,0.0161 44,0.0161 0.29295,7.20706 0.29294,7.20706 7.20706,0.29294 7.20705,0.29294 v 44.5 44.5 l -7.20705,0.29295 -7.20706,0.29294 -0.29294,7.20706 -0.29295,7.20705 -44.07305,0.26028 -44.07306,0.26027 z m 88.52924,-7.59361 0.29381,-7.25 7.25,-0.29381 7.25,-0.29381 v -43.80422 -43.80422 l -10.65556,-0.65197 c -5.86056,-0.35858 -12.38556,-0.65197 -14.5,-0.65197 h -3.84444 v 7.5 7.5 h 7.45431 7.45431 l 0.36987,-6.50401 0.36986,-6.504 -0.0742,6.754 -0.0742,6.75401 -15.25,-0.33083 -15.25,-0.33084 v 7.58084 7.58083 h 7.45431 7.45431 l 0.37548,-6.75 0.37547,-6.75 -0.0798,7 -0.0798,7 -22.80031,-0.39223 -22.80031,-0.39223 0.30031,15.39223 0.30031,15.39223 -7.83413,-0.32879 -7.83413,-0.32879 0.33413,15.32879 0.33413,15.32879 -7,0.0798 -7,0.0798 6.75,-0.37547 6.75,-0.37548 v -7.45431 -7.45431 h -7.5 -7.5 v 3.84444 c 0,2.11444 0.29339,8.63944 0.65197,14.5 l 0.65197,10.65556 h 43.80422 43.80422 z m -14.7867,-7.09921 c -0.28476,-0.74207 -0.38313,-4.45457 -0.21861,-8.25 l 0.29912,-6.90079 h 8 8 l 0.0684,6.5 0.0684,6.5 -0.36407,-6.25 -0.36408,-6.25 h -7.45431 -7.45431 v 7.45431 7.45431 l 6.75,0.34983 6.75,0.34983 -6.78138,0.19586 -6.78139,0.19586 z m -50.71416,-14.37707 6.20533,-0.36306 0.37446,-6.70533 0.37445,-6.70533 -0.0798,7 -0.0798,7 -6.5,0.0684 -6.5,0.0684 z m 35.71416,-0.62293 c -0.28476,-0.74207 -0.38313,-4.45457 -0.21861,-8.25 l 0.29912,-6.90079 h 8 8 l 0.0684,6.5 0.0684,6.5 -0.36407,-6.25 -0.36408,-6.25 h -7.45431 -7.45431 v 7.45431 7.45431 l 6.75,0.34983 6.75,0.34983 -6.78138,0.19586 -6.78139,0.19586 z M 219.34641,231.958 c 3.7125,-0.1924 9.7875,-0.1924 13.5,0 l 6.75,0.34983 h -13.5 -13.5 z m 22.14172,-15.25845 v -13.5 l 0.34983,6.75 c 0.19241,3.7125 0.19241,9.7875 0,13.5 l -0.34983,6.75 z m -45.39172,-37.5 v -7.5 h -7.5 -7.5 v 7.5 7.5 h 7.5 7.5 z m -29.54109,37.5 v -43.5 l 0.29005,21.75 c 0.15953,11.9625 0.15953,31.5375 0,43.5 l -0.29005,21.75 z"
         id="path115" /><path
         style="fill:#fcd400"
         d="M 1.5536927,80.448819 C 1.2880027,79.756442 1.1889235,62.992112 1.3335168,43.194752 L 1.5964136,7.1995525 h 119.4999964 119.5 v 37.0000005 37 L 121.31659,81.45362 2.0367655,81.707687 Z M 279.55882,12.449553 l -4.96241,-5.2500005 5.25,4.9624085 c 2.8875,2.729324 5.25,5.091824 5.25,5.25 0,0.746191 -0.92643,-0.08402 -5.53759,-4.962408 z"
         id="path114" /><path
         style="fill:#6cacb4"
         d="m 135.57507,291.69955 v -88.5 l 0.27107,44.25 c 0.14909,24.3375 0.14909,64.1625 0,88.5 l -0.27107,44.25 z m -127.7286564,74.2575 7.2500004,-0.34512 v -7.48158 -7.48158 l 15.75,0.27539 15.75,0.27539 0.07978,7 0.07978,7 -0.375473,-6.75 -0.375473,-6.75 h -14.95431 -14.95431 v 7.5 7.5 l -7.7500004,-0.19869 -7.74999999,-0.1987 z m 44.9570574,8.6e-4 7.207057,-0.34424 0.292943,-7.20706 0.292943,-7.20706 h 8 8 l 0.08436,6.5 0.08436,6.5 -0.382076,-6.25 -0.382076,-6.25 h -7.452283 -7.452282 v 7.5 7.5 l -7.75,-0.19869 -7.75,-0.1987 z m 30,0 7.207057,-0.34424 0.292943,-7.20706 0.292943,-7.20706 7.223514,-0.29327 7.223512,-0.29328 0.27649,-14.70672 0.27648,-14.70673 7.2034,-0.29287 7.20339,-0.29287 0.35393,-6.20713 0.35392,-6.20713 0.19268,6.75 0.19268,6.75 h -7.5489 -7.5489 l 0.2989,15.25 0.2989,15.25 -7.749996,-0.32614 -7.75,-0.32615 v 7.57615 7.57614 l -7.75,-0.19869 -7.75,-0.1987 z m 29.996339,8e-5 7.20339,-0.34418 0.35393,-6.20713 0.35392,-6.20713 0.19268,6.75 0.19268,6.75 -7.75,-0.19869 -7.75,-0.1987 z m 75.5466,-0.008 c 20.7625,-0.15093 54.7375,-0.15093 75.5,0 l 37.75,0.27441 h -75.5 -75.5 z M 1.3960778,358.69955 v -5.5 l 0.4165902,2.75 c 0.2291247,1.5125 0.2291247,3.9875 0,5.5 l -0.4165902,2.75 z m 105.0000022,0 v -5.5 l 0.41659,2.75 c 0.22912,1.5125 0.22912,3.9875 0,5.5 l -0.41659,2.75 z m -90.110582,-15.20793 -0.189084,-6.70794 -7.7500004,-0.34082 -7.74999999,-0.34082 7.78138479,-0.20124 7.7813846,-0.20125 0.522638,1.36197 c 0.28745,0.74909 0.358415,4.01159 0.157699,7.25 l -0.364937,5.88803 z m 172.060912,-7.5417 c 20.7625,-0.15093 54.7375,-0.15093 75.5,0 l 37.75,0.27441 h -75.5 -75.5 z M 1.3960778,328.69955 v -5.5 l 0.4165902,2.75 c 0.2291247,1.5125 0.2291247,3.9875 0,5.5 l -0.4165902,2.75 z m 14.5278202,-14.50177 0.327484,-7.41131 -7.5807682,-0.36102 -7.5807684,-0.36103 7.7532841,0.0676 7.7532845,0.0676 0.299129,6.90087 0.299129,6.90087 -0.799129,0.8039 -0.799129,0.80391 z m 14.604951,-0.24494 0.06756,-7.75329 h 30.5 30.5 l 0.063,7.5 0.06301,7.5 -0.355069,-7.25 -0.355069,-7.25 H 61.096414 31.180542 l -0.359628,7.50329 -0.359629,7.50328 z m 74.775501,-15.00329 0.29206,-7.75 7.2034,-0.29287 7.20339,-0.29287 0.35393,-6.20713 0.35392,-6.20713 0.19268,6.75 0.19268,6.75 h -7.579 -7.579 l 0.329,7.50233 0.329,7.50233 -0.79206,-0.002 -0.79206,-0.002 z m 83.04206,7.00037 c 20.7625,-0.15093 54.7375,-0.15093 75.5,0 l 37.75,0.27441 h -75.5 -75.5 z M 1.3960778,298.69955 v -5.5 l 0.4165902,2.75 c 0.2291247,1.5125 0.2291247,3.9875 0,5.5 l -0.4165902,2.75 z M 46.346414,291.9517 c 8.1125,-0.16809 21.3875,-0.16809 29.5,0 l 14.75,0.3056 h -29.5 -29.5 z m -30.422516,-7.75392 0.327484,-7.41131 -7.5807682,-0.36102 -7.5807684,-0.36103 7.7532841,0.0676 7.7532845,0.0676 0.299129,6.90087 0.299129,6.90087 -0.799129,0.8039 -0.799129,0.80391 z m 14.604951,-0.24494 0.06756,-7.75329 h 30.5 30.5 l 0.063,7.5 0.06301,7.5 -0.355069,-7.25 -0.355069,-7.25 H 61.096414 31.180542 l -0.359628,7.50329 -0.359629,7.50328 z m 157.817561,6.99708 c 20.7625,-0.15093 54.7375,-0.15093 75.5,0 l 37.75,0.27441 h -75.5 -75.5 z m -83.04206,-22.00037 0.29206,-7.75 7.2034,-0.29287 7.20339,-0.29287 0.35393,-6.20713 0.35392,-6.20713 0.19268,6.75 0.19268,6.75 h -7.579 -7.579 l 0.329,7.50233 0.329,7.50233 -0.79206,-0.002 -0.79206,-0.002 z m -103.9082722,-0.25 v -5.5 l 0.4165902,2.75 c 0.2291247,1.5125 0.2291247,3.9875 0,5.5 l -0.4165902,2.75 z M 46.346414,261.9517 c 8.1125,-0.16809 21.3875,-0.16809 29.5,0 l 14.75,0.3056 h -29.5 -29.5 z m -30.253769,-14.5489 0.496232,-14.20325 0.283976,13.41979 0.283976,13.4198 -0.780208,0.78346 -0.780207,0.78345 z m 14.436204,6.55004 0.06756,-7.75329 h 30.5 30.5 l 0.063,7.5 0.06301,7.5 -0.355069,-7.25 -0.355069,-7.25 H 61.096414 31.180542 l -0.359628,7.50329 -0.359629,7.50328 z M 165.55615,216.69955 v -44.5 l 0.28926,22.25 c 0.1591,12.2375 0.1591,32.2625 0,44.5 l -0.28926,22.25 z m -60.2518,22.25 0.29206,-7.75 7.75329,-0.0676 7.75328,-0.0676 -7.58077,0.36103 -7.58076,0.36102 0.32748,7.45887 0.32748,7.45887 -0.79206,-0.002 -0.79206,-0.002 z m -96.7079364,-7.25 -7.99999999,-0.63324 7.32900409,-0.18338 7.3290043,-0.18338 -0.329004,-7.45477 -0.329004,-7.45477 0.674845,0.70477 0.674846,0.70477 0.325154,7.75233 c 0.178835,4.26378 0.325155,7.66876 0.325155,7.56662 0,-0.10214 -3.6,-0.47066 -8.0000004,-0.81895 z m 22.4874414,-6.79562 0.487441,-6.70438 0.316811,5.89575 0.316812,5.89575 -0.804253,0.80863 -0.804252,0.80864 z m 13.838706,-1.15917 -0.326147,-7.95479 0.672107,0.70479 0.672108,0.70479 0.327892,7.25226 0.327893,7.25225 -0.673853,-0.002 -0.673853,-0.002 z m 16.161294,1.15917 0.487441,-6.70438 0.316811,5.89575 0.316812,5.89575 -0.804253,0.80863 -0.804252,0.80864 z m 13.838706,-1.15917 -0.326147,-7.95479 0.672107,0.70479 0.672108,0.70479 0.327892,7.25226 0.327893,7.25225 -0.673853,-0.002 -0.673853,-0.002 z m 45.162589,-0.74986 -0.48874,-7.20465 0.80157,0.80622 0.80157,0.80622 -0.31283,6.39843 -0.31283,6.39843 z M 1.3960778,223.69955 v -5.5 l 0.4165902,2.75 c 0.2291247,1.5125 0.2291247,3.9875 0,5.5 l -0.4165902,2.75 z m 105.0000022,0 v -5.5 l 0.41659,2.75 c 0.22912,1.5125 0.22912,3.9875 0,5.5 l -0.41659,2.75 z m -82.975731,-52.7497 c 20.803164,-0.15097 54.553164,-0.1509 75,1.5e-4 l 37.176061,0.27464 -74.999996,-1.5e-4 -75,-1.6e-4 z m 245.676061,-14.2503 -1.5,-0.96937 1.19099,-0.0153 c 0.65504,-0.008 1.46909,0.43468 1.80901,0.98468 0.76731,1.24153 0.42113,1.24153 -1.5,0 z M 64.92514,95.949621 c 43.6308,-0.144181 114.7308,-0.144164 158,3.7e-5 l 78.67127,0.262185 -158,-3.8e-5 -157.999996,-3.7e-5 z M 293.09641,26.199553 c -4.09747,-4.125 -7.22494,-7.5 -6.94994,-7.5 0.275,0 3.85247,3.375 7.94994,7.5 4.09747,4.125 7.22495,7.5 6.94995,7.5 -0.275,0 -3.85248,-3.375 -7.94995,-7.5 z m -27,-27.00000046 c -4.09747,-4.12500004 -7.22494,-7.50000004 -6.94994,-7.50000004 0.275,0 3.85247,3.375 7.94994,7.50000004 4.09747,4.12499996 7.22495,7.49999996 6.94995,7.49999996 -0.275,0 -3.85248,-3.375 -7.94995,-7.49999996 z"
         id="path113" /><path
         style="fill:#fca400"
         d="M 240.59641,44.199553 V 6.6995525 h 16.52889 16.52889 l 6.22111,6.2769055 6.22111,6.276905 v 31.223095 31.223095 h -22.75 -22.75 z"
         id="path112" /><path
         style="fill:#2c8854"
         d="m -13.903586,291.69955 v -90.01273 l 74.51099,0.25637 74.510986,0.25636 v 89.5 89.5 l -74.510986,0.25637 -74.51099,0.25636 z m 89.19586,68.20429 0.19586,-6.70429 0.349255,6.72479 0.349255,6.72478 14.454885,-0.012 14.454881,-0.0121 0.19586,-6.71273 0.19586,-6.71273 0.34983,6.75 0.34983,6.75 h 7.45431 7.45431 v -7.57614 -7.57615 l -7.90788,0.32615 -7.90788,0.32614 0.4669,-0.75 0.4669,-0.75 h 7.44098 7.44098 v -22 -22 l -7.25,-0.19869 -7.25,-0.1987 7.25,-0.34511 7.25,-0.34512 v -14.45619 -14.45619 l -7.25,-0.19869 -7.25,-0.1987 7.25,-0.34511 7.25,-0.34512 v -14.45619 -14.45619 l -7.25,-0.19869 -7.25,-0.1987 7.27648,-0.34565 7.27648,-0.34565 -0.27648,-14.56787 -0.27648,-14.56787 -7,-0.003 -7,-0.003 -0.57341,6.86567 -0.57341,6.86567 -0.17659,-6.75 -0.17659,-6.75 -14.999996,-0.0555 c -8.25,-0.0306 -18.0375,-0.0827 -21.75,-0.11595 l -6.75,-0.0604 -0.577401,6.36595 -0.577402,6.36594 -0.172598,-6.25 -0.172599,-6.25 -7.5,-0.0555 c -11.686424,-0.0866 -20.451968,-0.0657 -21,0.05 -0.275,0.0581 -3.875,0.10555 -8,0.10555 -4.125,0 -7.725,-0.0475 -8,-0.10555 -0.275,-0.0581 -3.5375,-0.13081 -7.2500004,-0.16167 l -6.75,-0.0561 -0.2691315,22.11167 -0.2691316,22.11167 7.2691316,0.1987 7.2691319,0.1987 -7.2500004,0.34511 -7.25,0.34511 v 14.45619 14.45619 l 7.25,0.1987 7.2500004,0.1987 -7.2500004,0.34511 -7.25,0.34511 v 14.45619 14.45619 l 7.25,0.1987 7.2500004,0.1987 -7.2500004,0.34511 -7.25,0.34511 v 14.45619 14.45619 l 7.25,0.1987 7.2500004,0.1987 -7.2500004,0.34511 -7.25,0.34511 v 7.42794 7.42794 l 37.0000004,-0.0175 37,-0.0175 z m -29.896196,-1.20429 v -5.5 l 0.41659,2.75 c 0.229125,1.5125 0.229125,3.9875 0,5.5 l -0.41659,2.75 z m -29.405307,-127.29913 0.803901,-0.79913 6.900871,0.3093 6.900871,0.30929 -7.704772,0.48983 -7.704771,0.48984 z m 75.605643,0.29913 -15,-0.5816 14.690983,-0.2092 14.690983,-0.2092 0.61803,1 c 0.33992,0.55 0.47898,0.90586 0.30902,0.7908 -0.16996,-0.11506 -7.059016,-0.47092 -15.309016,-0.7908 z m -41.772305,-0.72173 c 1.775233,-0.22091 4.925233,-0.22454 7,-0.008 l 3.772305,0.3936 -7,0.008 -7,0.008 z m -19.428031,-7.27827 v -5.5 l 0.41659,2.75 c 0.229125,1.5125 0.229125,3.9875 0,5.5 l -0.41659,2.75 z m 120.943932,-7.25 0.2564,-74.25 74.75,-0.25636 74.75,-0.25637 v 74.50637 74.50636 h -75.0064 -75.00641 z m 134.74059,0.2598 -0.0354,-60.0098 -8.22438,-0.0193 c -4.52341,-0.0106 -31.3544,-0.0181 -59.62441,-0.0166 l -51.40002,0.003 -0.54342,0.54341 -0.54342,0.54342 -0.43351,42.84666 -0.43351,42.84666 0.73228,16.60101 0.73228,16.60101 59.90447,0.0354 59.90447,0.0353 z M -13.903586,43.699553 V -8.3004475 H 122.37144 258.64647 l 7.44994,7.50000004 7.44995,7.49999996 H 137.32139 1.0964136 v 37.5000005 37.5 h 142.4999964 142.5 V 50.47458 19.249608 l 7.5,7.449945 7.5,7.449944 v 30.775028 30.775028 h -157.5 -157.499996 z"
         id="path111" /><path
         style="fill:#2a504d"
         d="m 151.39608,373.69955 v -5.5 l 0.41659,2.75 c 0.22912,1.5125 0.22912,3.9875 0,5.5 l -0.41659,2.75 z M 16.521591,365.36516 c -0.293272,-0.76425 -0.396412,-4.03916 -0.2292,-7.27758 l 0.304023,-5.88803 h 14.342665 14.342665 l 0.09435,7 0.09435,7 -14.207817,0.27759 -14.207816,0.27758 z m 44.989416,-0.0276 c -0.287451,-0.74908 -0.385828,-4.01158 -0.218616,-7.25 l 0.304023,-5.88803 h 6.75 6.75 v 0.75 c 0,0.4125 0,3.675 0,7.25 v 6.5 h -6.531385 -6.531385 z m 30,0 c -0.287451,-0.74908 -0.385828,-4.01158 -0.218616,-7.25 l 0.304023,-5.88803 h 6.75 6.749996 v 0.75 c 0,0.4125 0,3.675 0,7.25 v 6.5 h -6.531381 -6.531385 z m 97.909343,-14.38773 c 20.80316,-0.15097 54.55316,-0.1509 75,1.5e-4 l 37.17606,0.27464 -75,-1.5e-4 -75,-1.6e-4 z M 1.0964136,343.65574 v -7.04381 l 7.25,0.29381 7.2500004,0.29381 0.29569,6.75 0.295689,6.75 H 8.6421035 1.0964136 Z m 105.2225464,-7.20619 0.27745,-14.25 7.25,-0.29381 7.25,-0.29381 v 14.54381 14.54381 h -7.52745 -7.52746 z m 45.07712,7.25 v -5.5 l 0.41659,2.75 c 0.22912,1.5125 0.22912,3.9875 0,5.5 l -0.41659,2.75 z M 45.908222,320.95124 c 8.421495,-0.16745 21.921495,-0.16708 30,8.1e-4 l 14.688192,0.30525 -30,-8.1e-4 -30,-8.1e-4 z m 143.512128,-10e-4 c 20.80316,-0.15097 54.55316,-0.1509 75,1.5e-4 l 37.17606,0.27464 -75,-1.5e-4 -75,-1.6e-4 z M 1.0964136,313.65574 v -7.04381 l 7.25,0.29381 7.2500004,0.29381 0.29569,6.75 0.295689,6.75 H 8.6421035 1.0964136 Z m 89.3098694,0.54381 0.0102,-6 0.404657,3.26791 c 0.222561,1.79735 0.217969,4.49735 -0.0102,6 l -0.414862,2.73209 z m -59.010205,-0.5 v -5.5 l 0.41659,2.75 c 0.229125,1.5125 0.229125,3.9875 0,5.5 l -0.41659,2.75 z m 120.000002,0 v -5.5 l 0.41659,2.75 c 0.22912,1.5125 0.22912,3.9875 0,5.5 l -0.41659,2.75 z m -45.09536,-14.75 0.29569,-6.75 7.25,-0.29381 7.25,-0.29381 v 7.04381 7.04381 h -7.54569 -7.54569 z m -60.392498,-7.99831 c 8.421495,-0.16745 21.921495,-0.16708 30,8.1e-4 l 14.688192,0.30525 -30,-8.1e-4 -30,-8.1e-4 z m -44.8118084,-7.2955 v -7.04381 l 7.25,0.29381 7.2500004,0.29381 0.29569,6.75 0.295689,6.75 H 8.6421035 1.0964136 Z m 89.3098694,0.54381 0.0102,-6 0.404657,3.26791 c 0.222561,1.79735 0.217969,4.49735 -0.0102,6 l -0.414862,2.73209 z m -59.010205,-0.5 v -5.5 l 0.41659,2.75 c 0.229125,1.5125 0.229125,3.9875 0,5.5 l -0.41659,2.75 z M 166.09641,269.24336 v -7.54381 h 7.54381 7.54381 l -0.29381,7.25 -0.29381,7.25 -7.25,0.29381 -7.25,0.29381 z m 105,-0.0438 v -7.5 h 7.5 7.5 v 7.5 7.5 h -7.5 -7.5 z m -164.79569,-0.25 0.29569,-6.75 7.25,-0.29381 7.25,-0.29381 v 7.04381 7.04381 h -7.54569 -7.54569 z m -60.454306,-7.99798 c 8.3875,-0.16726 22.1125,-0.16726 30.5,0 l 15.25,0.30411 h -30.5 -30.5 z m 135.957626,0.12227 -0.70763,-0.70762 v -6.83333 -6.83334 h 7.54381 7.54381 l -0.29381,7.25 -0.29381,7.25 -6.54237,0.29096 -6.54238,0.29096 z m 75,0 -0.70763,-0.70762 v -6.87714 -6.87715 l 7.25,0.29381 7.25,0.29381 v 7 7 l -6.54237,0.29096 -6.54238,0.29096 z M 1.0964136,246.15574 v -14.54381 l 7.25,0.29381 7.2500004,0.29381 0.277456,14.25 0.277457,14.25 H 8.6238702 1.0964136 Z m 89.3098694,8.04381 0.0102,-6 0.404657,3.26791 c 0.222561,1.79735 0.217969,4.49735 -0.0102,6 l -0.414862,2.73209 z m -59.010205,-0.5 v -5.5 l 0.41659,2.75 c 0.229125,1.5125 0.229125,3.9875 0,5.5 l -0.41659,2.75 z m 165.407962,-7.62571 -0.70763,-0.70762 v -6.83333 -6.83334 h 7.5 7.5 v -15.02673 -15.02673 l 14.75,0.27673 14.75,0.27673 v 14.5 14.5 l -14.70672,0.27649 -14.70673,0.27648 -0.29327,7.22352 -0.29328,7.22351 -6.54237,0.29096 -6.54238,0.29096 z m 45,0 -0.70763,-0.70762 v -6.87714 -6.87715 l 7.25,0.29381 7.25,0.29381 v 7 7 l -6.54237,0.29096 -6.54238,0.29096 z m -135.50332,-7.12429 0.29569,-6.75 7.25,-0.29381 7.25,-0.29381 v 7.04381 7.04381 h -7.54569 -7.54569 z m -89.999996,-15 0.29569,-6.75 h 6.826923 6.826923 l 0.173077,6.75062 0.173077,6.75061 -7.29569,-6.1e-4 -7.29569,-6.2e-4 z m 29.79569,-0.25 v -7 h 7 7 v 5.41822 c 0,2.98001 0.273145,6.13001 0.606988,7 l 0.606989,1.58178 h -7.606989 -7.606988 z m 30,0 v -7 h 14.41794 14.417946 l 0.33205,7.00226 0.33206,7.00225 -14.749996,-0.002 -14.75,-0.002 z m 120.707626,-22.62571 -0.70763,-0.70762 v -6.87714 -6.87715 l 7.25,0.29381 7.25,0.29381 v 7 7 l -6.54237,0.29096 -6.54238,0.29096 z m 44.29237,-6.87429 v -7.58762 l 7.25,0.29381 7.25,0.29381 v 7 7 l -7.25,0.29381 -7.25,0.29381 z m -180.793678,-8.24667 74.706318,-0.26604 0.36937,-7.24364 0.36937,-7.24365 -0.0757,7.5 -0.0757,7.5 -74.999996,0.01 -75,0.01 z m 121.501308,0.12096 -0.70763,-0.70762 v -6.87714 -6.87715 l 7.25,0.29381 7.25,0.29381 v 7 7 l -6.54237,0.29096 -6.54238,0.29096 z m 74.29237,-6.87429 v -7.58762 l 7.25,0.29381 7.25,0.29381 v 7 7 l -7.25,0.29381 -7.25,0.29381 z m -90,-14.95619 v -7.54381 h 7.54381 7.54381 l -0.29381,7.25 -0.29381,7.25 -7.25,0.29381 -7.25,0.29381 z m 105,0 v -7.54381 h 7.54381 7.54381 l -0.29381,7.25 -0.29381,7.25 -7.25,0.29381 -7.25,0.29381 z m -210.749996,-8.2905 74.749996,-0.26604 v -6.48727 -6.48727 l -74.749996,-0.26282 -74.75,-0.26283 75.293809,-0.24354 75.293807,-0.24354 -0.29381,7.25 -0.29381,7.25 -74.999996,0.01 -75,0.01 z m 0,-30 74.749996,-0.26604 v -6.48727 -6.48727 l -74.749996,-0.26282 -74.75,-0.26283 75.293809,-0.24354 75.293807,-0.24354 -0.29381,7.25 -0.29381,7.25 -74.999996,0.01 -75,0.01 z m 127.999996,-0.003 c 20.7625,-0.15093 54.7375,-0.15093 75.5,0 l 37.75,0.27441 h -75.5 -75.5 z m -36.96398,-6.75037 0.0137,-5 0.41791,2.76375 c 0.22986,1.52006 0.22372,3.77006 -0.0136,5 l -0.43156,2.23625 z m 36.96398,-7.24963 c 20.7625,-0.15093 54.7375,-0.15093 75.5,0 l 37.75,0.27441 h -75.5 -75.5 z"
         id="path110" /><path
         style="fill:#030404"
         d="m 152.00682,380.94955 c -0.0493,-0.4125 -0.091,-3.675 -0.0927,-7.25 l -0.003,-6.5 74.59273,-0.25636 74.59272,-0.25637 v 7.50637 7.50636 h -74.5 -74.5 z m -0.23739,-36.99938 0.17301,-6.75062 74.57699,-0.25636 74.57698,-0.25637 v 7.00637 7.00636 l -74.75,6.2e-4 -74.75,6.1e-4 z m -119.99994,-30 0.173077,-6.75062 h 29.178986 29.178985 l 0.147938,6.75055 0.147938,6.75055 -29.5,6e-5 -29.5,7e-5 z m 119.99994,0 0.17301,-6.75062 74.57699,-0.25636 74.57698,-0.25637 v 7.00637 7.00636 l -74.75,6.2e-4 -74.75,6.1e-4 z m -119.99994,-30 0.173077,-6.75062 h 29.178986 29.178985 l 0.147938,6.75055 0.147938,6.75055 -29.5,6e-5 -29.5,7e-5 z m 0,-30 0.173077,-6.75062 h 29.178986 29.178985 l 0.147938,6.75055 0.147938,6.75055 -29.5,6e-5 -29.5,7e-5 z m -45.673076,-75.25062 v -7 h 74.5 74.499996 v 7 7 h -74.499996 -74.5 z m 0,-29.5 v -6.5 h 74.5 74.499996 v 6.5 6.5 h -74.499996 -74.5 z m 0,-30 v -6.5 h 74.5 74.499996 v 6.5 6.5 h -74.499996 -74.5 z m 165.499996,0 v -6.5 h 74.75 74.75 v 6.5 6.5 h -74.75 -74.75 z"
         id="path109" /></g><g
       id="rect23"
       style="display:inline"><rect
         style="display:inline;fill:url(#linearGradient23);fill-opacity:0.834379;stroke:none;stroke-width:4.99999;stroke-linecap:square;stroke-dasharray:none;stroke-opacity:1"
         id="rect20"
         width="30.128031"
         height="11.286353"
         x="177.19191"
         y="53.347572" /><path
         style="color:#000000;display:inline;fill:url(#linearGradient25);stroke-linecap:square;stroke-linejoin:bevel;-inkscape-stroke:none"
         d="m 174.15254,15.119046 40.91592,41.955358 H 174.814 Z"
         id="path25" /><g
         id="g27"><path
           id="rect27"
           style="display:inline;fill:#0a6db5;fill-opacity:0.459222;stroke-width:4.99999;stroke-linecap:square;stroke-linejoin:bevel"
           d="m 182.94047,23.245534 33.07293,33.82887 -33.07293,-0.09449 z"
           sodipodi:nodetypes="cccc" /><path
           id="path27"
           style="display:inline;fill:#1882cf;fill-opacity:0.459222;stroke-width:4.99999;stroke-linecap:square;stroke-linejoin:bevel"
           d="m 175.28645,49.514879 34.91556,0.188989 4.67746,7.087054 -39.68751,-0.472471 z"
           sodipodi:nodetypes="ccccc" /></g><path
         style="color:#000000;display:inline;fill:url(#linearGradient27);stroke-linecap:square;stroke-linejoin:bevel;-inkscape-stroke:none"
         d="m 175.94141,13.373047 -4.28907,1.785156 6.5e-4,44.600911 c 0,0 29.8634,-0.184895 43.41537,-0.184895 l 1.78906,-4.246094 z m 1.4286,7.056744 34.22551,34.144428 h -34.32013 z"
         id="path26"
         sodipodi:nodetypes="cccccccccc" /></g></g></svg>
