<?xml version="1.0" encoding="UTF-8" standalone="no"?>
<!-- Created with Inkscape (http://www.inkscape.org/) -->

<svg
   width="256mm"
   height="256mm"
   viewBox="0 0 256 256"
   version="1.1"
   id="svg1"
   inkscape:version="1.3.2 (091e20ef0f, 2023-11-25)"
   xml:space="preserve"
   sodipodi:docname="application-x-cue.svg"
   xmlns:inkscape="http://www.inkscape.org/namespaces/inkscape"
   xmlns:sodipodi="http://sodipodi.sourceforge.net/DTD/sodipodi-0.dtd"
   xmlns:xlink="http://www.w3.org/1999/xlink"
   xmlns="http://www.w3.org/2000/svg"
   xmlns:svg="http://www.w3.org/2000/svg"
   xmlns:rdf="http://www.w3.org/1999/02/22-rdf-syntax-ns#"
   xmlns:cc="http://creativecommons.org/ns#"
   xmlns:dc="http://purl.org/dc/elements/1.1/"><defs
     id="defs1"><linearGradient
       id="linearGradient26"
       inkscape:collect="always"><stop
         style="stop-color:#7b91c4;stop-opacity:1;"
         offset="0"
         id="stop26" /><stop
         style="stop-color:#5c5e91;stop-opacity:1"
         offset="1"
         id="stop27" /></linearGradient><linearGradient
       id="linearGradient24"
       inkscape:collect="always"><stop
         style="stop-color:#c7fafe;stop-opacity:1;"
         offset="0"
         id="stop24" /><stop
         style="stop-color:#9acdff;stop-opacity:1"
         offset="1"
         id="stop25" /></linearGradient><linearGradient
       id="linearGradient22"
       inkscape:collect="always"><stop
         style="stop-color:#adaeae;stop-opacity:0.8253752;"
         offset="0"
         id="stop22" /><stop
         style="stop-color:#8ac5fe;stop-opacity:0.83628923;"
         offset="1"
         id="stop23" /></linearGradient><linearGradient
       id="linearGradient18"
       inkscape:collect="always"><stop
         style="stop-color:#9797ff;stop-opacity:1;"
         offset="0"
         id="stop18" /><stop
         style="stop-color:#ccccff;stop-opacity:1;"
         offset="0.30000001"
         id="stop20" /><stop
         style="stop-color:#ccccff;stop-opacity:1;"
         offset="1"
         id="stop19" /></linearGradient><linearGradient
       id="linearGradient16"
       inkscape:collect="always"><stop
         style="stop-color:#cdcdcd;stop-opacity:0.17462483;"
         offset="0"
         id="stop16" /><stop
         style="stop-color:#cdcdcd;stop-opacity:1;"
         offset="1"
         id="stop17" /></linearGradient><linearGradient
       id="linearGradient12"
       inkscape:collect="always"><stop
         style="stop-color:#fdfeff;stop-opacity:1;"
         offset="0"
         id="stop13" /><stop
         style="stop-color:#99ccff;stop-opacity:1;"
         offset="1"
         id="stop14" /></linearGradient><linearGradient
       id="linearGradient9"
       inkscape:collect="always"><stop
         style="stop-color:#97c9fc;stop-opacity:1;"
         offset="0"
         id="stop9" /><stop
         style="stop-color:#7788bb;stop-opacity:1"
         offset="0.25"
         id="stop12" /><stop
         style="stop-color:#57578a;stop-opacity:1"
         offset="0.5"
         id="stop11" /><stop
         style="stop-color:#444482;stop-opacity:1;"
         offset="1"
         id="stop10" /></linearGradient><linearGradient
       inkscape:collect="always"
       xlink:href="#linearGradient9"
       id="linearGradient10"
       x1="31.622168"
       y1="100.24049"
       x2="221.19499"
       y2="240.28973"
       gradientUnits="userSpaceOnUse" /><linearGradient
       inkscape:collect="always"
       xlink:href="#linearGradient12"
       id="linearGradient14"
       x1="73.583481"
       y1="62.020954"
       x2="207.02971"
       y2="229.59895"
       gradientUnits="userSpaceOnUse" /><linearGradient
       inkscape:collect="always"
       xlink:href="#linearGradient16"
       id="linearGradient17"
       x1="57.531055"
       y1="26.420616"
       x2="147.13231"
       y2="144.34076"
       gradientUnits="userSpaceOnUse" /><linearGradient
       inkscape:collect="always"
       xlink:href="#linearGradient18"
       id="linearGradient19"
       x1="209.82518"
       y1="58.53635"
       x2="210.58252"
       y2="194.57654"
       gradientUnits="userSpaceOnUse" /><linearGradient
       inkscape:collect="always"
       xlink:href="#linearGradient22"
       id="linearGradient23"
       x1="177.19191"
       y1="58.990749"
       x2="207.31994"
       y2="58.990749"
       gradientUnits="userSpaceOnUse" /><linearGradient
       inkscape:collect="always"
       xlink:href="#linearGradient24"
       id="linearGradient25"
       x1="176.32031"
       y1="20.126524"
       x2="176.32031"
       y2="56.695721"
       gradientUnits="userSpaceOnUse" /><linearGradient
       inkscape:collect="always"
       xlink:href="#linearGradient26"
       id="linearGradient27"
       x1="172.59729"
       y1="13.51158"
       x2="210.54449"
       y2="51.28627"
       gradientUnits="userSpaceOnUse" /><linearGradient
       id="linearGradient19-7"
       inkscape:collect="always"><stop
         style="stop-color:#767676;stop-opacity:1;"
         offset="0"
         id="stop20-5" /><stop
         style="stop-color:#565656;stop-opacity:1;"
         offset="1"
         id="stop21" /></linearGradient><linearGradient
       id="linearGradient11"
       inkscape:collect="always"><stop
         style="stop-color:#fef7fd;stop-opacity:1;"
         offset="0"
         id="stop11-3" /><stop
         style="stop-color:#fed6fb;stop-opacity:1;"
         offset="0.34914112"
         id="stop19-5" /><stop
         style="stop-color:#ffccfb;stop-opacity:1;"
         offset="0.5"
         id="stop13-6" /><stop
         style="stop-color:#fed3fc;stop-opacity:1;"
         offset="0.66053116"
         id="stop18-2" /><stop
         style="stop-color:#fefbfe;stop-opacity:1;"
         offset="1"
         id="stop12-9" /></linearGradient><linearGradient
       id="linearGradient1"
       inkscape:collect="always"><stop
         style="stop-color:#fafafa;stop-opacity:1;"
         offset="0"
         id="stop5" /><stop
         style="stop-color:#e6e6ff;stop-opacity:1"
         offset="0.13190186"
         id="stop7" /><stop
         style="stop-color:#c1c1ff;stop-opacity:1;"
         offset="0.50460124"
         id="stop8" /><stop
         style="stop-color:#dadaff;stop-opacity:1"
         offset="0.74665546"
         id="stop9-1" /><stop
         style="stop-color:#fafafa;stop-opacity:1;"
         offset="1"
         id="stop6" /></linearGradient><radialGradient
       id="SVGID_path125302_1__3"
       gradientUnits="userSpaceOnUse"
       gradientTransform="matrix(0.017,0,0,-0.017,-110.605,-119.9735)"
       cx="2233.1721"
       cy="-328.13577"
       r="17925.004"
       fx="2233.1721"
       fy="-328.13577">
<stop
   offset="0%"
   style="stop-color:rgb(1,161,255);stop-opacity: 1"
   id="stop1" />
<stop
   offset="100%"
   style="stop-color:rgb(66,102,170);stop-opacity: 1"
   id="stop2" />
</radialGradient><linearGradient
       id="SVGID_linearGradient279_4"
       gradientUnits="userSpaceOnUse"
       gradientTransform="matrix(0.017,0,0,-0.017,-110.605,-119.9735)"
       x1="4032.1331"
       y1="1356.1727"
       x2="12738.493"
       y2="-21803.039">
<stop
   offset="0"
   style="stop-color:#1890ff;stop-opacity:1;"
   id="stop3" />
<stop
   offset="1"
   style="stop-color:#003984;stop-opacity:1;"
   id="stop4" />
</linearGradient><radialGradient
       id="SVGID_radialGradient10_5"
       gradientUnits="userSpaceOnUse"
       gradientTransform="matrix(2.363,1.326,-0.816,1.4535,-1537.3715,-2374.4585)"
       cx="896.6864"
       cy="705.14777"
       r="83.244499"
       fx="896.6864"
       fy="705.14777">
<stop
   offset="0%"
   style="stop-color:rgb(237,237,237);stop-opacity: 1"
   id="stop371" />
<stop
   offset="100%"
   style="stop-color:rgb(237,237,237);stop-opacity: 0"
   id="stop372" />
</radialGradient><radialGradient
       id="SVGID_radialGradient12_6"
       gradientUnits="userSpaceOnUse"
       gradientTransform="matrix(0.5185,-0.68,1.598,1.207,-2289.0835,-639.5435)"
       cx="739.13629"
       cy="1110.2391"
       r="131.2"
       fx="739.13629"
       fy="1110.2391">
<stop
   offset="0%"
   style="stop-color:rgb(0,109,0);stop-opacity: 1"
   id="stop373" />
<stop
   offset="25%"
   style="stop-color:rgb(0,116,0);stop-opacity: 0.89411765"
   id="stop374" />
<stop
   offset="61.164187999999996%"
   style="stop-color:rgb(0,161,0);stop-opacity: 0.79151291"
   id="stop375" />
<stop
   offset="100%"
   style="stop-color:rgb(0,186,0);stop-opacity: 0"
   id="stop376" />
</radialGradient><radialGradient
       id="SVGID_radialGradient16_7"
       gradientUnits="userSpaceOnUse"
       gradientTransform="matrix(1.037,0.442,-0.8245,1.9465,-258.0775,-1931.0125)"
       cx="749.99298"
       cy="777.77173"
       r="128.9615"
       fx="749.99298"
       fy="777.77173">
<stop
   offset="0%"
   style="stop-color:rgb(0,168,0);stop-opacity: 1"
   id="stop377" />
<stop
   offset="12.5%"
   style="stop-color:rgb(0,170,0);stop-opacity: 1"
   id="stop378" />
<stop
   offset="32.941052%"
   style="stop-color:rgb(0,173,0);stop-opacity: 1"
   id="stop379" />
<stop
   offset="48.928455%"
   style="stop-color:rgb(0,179,0);stop-opacity: 0.49803922"
   id="stop380" />
<stop
   offset="100%"
   style="stop-color:rgb(0,190,0);stop-opacity: 0"
   id="stop381" />
</radialGradient><linearGradient
       id="SVGID_linearGradient282_10"
       gradientUnits="userSpaceOnUse"
       x1="895.25104"
       y1="859.62811"
       x2="1216.1501"
       y2="1038.5518"
       gradientTransform="matrix(0.85,0,0,0.85,-765.802,-764.1885)">
<stop
   offset="0%"
   style="stop-color:rgb(0,237,0);stop-opacity: 0"
   id="stop389" />
<stop
   offset="100%"
   style="stop-color:rgb(0,133,0);stop-opacity: 1"
   id="stop390" />
</linearGradient><radialGradient
       id="SVGID_polygon8_1__12"
       gradientUnits="userSpaceOnUse"
       gradientTransform="matrix(0.017,0,0,-0.017,-108.8495,-131.8565)"
       cx="7553.0029"
       cy="-7131.8633"
       r="16567.537"
       fx="7553.0029"
       fy="-7131.8633">
<stop
   offset="0%"
   style="stop-color:rgb(1,1,255);stop-opacity: 1"
   id="stop395" />
<stop
   offset="100%"
   style="stop-color:rgb(0,0,128);stop-opacity: 1"
   id="stop396" />
</radialGradient><radialGradient
       id="SVGID_radialGradient25_9"
       gradientUnits="userSpaceOnUse"
       gradientTransform="matrix(0.90389443,-0.10145356,0.10444941,0.9245093,-877.03325,-748.53182)"
       cx="819.43304"
       cy="718.97656"
       r="284.62247"
       fx="819.43304"
       fy="718.97656">
<stop
   offset="0%"
   style="stop-color:rgb(255,255,255);stop-opacity: 0.95940959"
   id="stop384" />
<stop
   offset="0.20281267"
   style="stop-color:#effaff;stop-opacity:0.66697419;"
   id="stop385" />
<stop
   offset="0.31218511"
   style="stop-color:#e0f5ff;stop-opacity:0.61254615;"
   id="stop386" />
<stop
   offset="0.5"
   style="stop-color:#d8f0ff;stop-opacity:0.44557196;"
   id="stop387" />
<stop
   offset="100%"
   style="stop-color:rgb(255,255,255);stop-opacity: 0"
   id="stop388" />
</radialGradient><radialGradient
       id="SVGID_radialGradient21_11"
       gradientUnits="userSpaceOnUse"
       gradientTransform="matrix(2.4465617,-0.13478003,0.05000968,0.91937032,-2578.4314,-678.43373)"
       cx="1123.8925"
       cy="1044.1923"
       r="147.22652"
       fx="1123.8925"
       fy="1044.1923">
<stop
   offset="0%"
   style="stop-color:rgb(0,106,0);stop-opacity: 1"
   id="stop391" />
<stop
   offset="25%"
   style="stop-color:rgb(0,131,0);stop-opacity: 1"
   id="stop392" />
<stop
   offset="0.703861"
   style="stop-color:#009d00;stop-opacity:1;"
   id="stop393" />
<stop
   offset="1"
   style="stop-color:#b4b4b4;stop-opacity:0;"
   id="stop394" />
</radialGradient><radialGradient
       id="SVGID_radialGradient279_13"
       gradientUnits="userSpaceOnUse"
       cx="643.51404"
       cy="1173.4269"
       r="348.30591"
       fx="643.51404"
       fy="1173.4269"
       gradientTransform="matrix(0.85,0,0,0.85,-765.8225,-764.113)">
<stop
   offset="0%"
   style="stop-color:rgb(255,255,255);stop-opacity: 0.25738007"
   id="stop397" />
<stop
   offset="100%"
   style="stop-color:rgb(255,255,255);stop-opacity: 0"
   id="stop398" />
</radialGradient><linearGradient
       inkscape:collect="always"
       xlink:href="#linearGradient1"
       id="linearGradient6"
       x1="65.011902"
       y1="57.830349"
       x2="194.27977"
       y2="187.85417"
       gradientUnits="userSpaceOnUse" /><linearGradient
       inkscape:collect="always"
       xlink:href="#linearGradient11"
       id="linearGradient12-2"
       x1="85.086981"
       y1="124.54316"
       x2="163.24337"
       y2="124.54316"
       gradientUnits="userSpaceOnUse"
       gradientTransform="translate(0,2.2678572)" /><linearGradient
       inkscape:collect="always"
       xlink:href="#linearGradient19-7"
       id="linearGradient21"
       x1="45.559151"
       y1="52.53883"
       x2="206.17308"
       y2="196.54776"
       gradientUnits="userSpaceOnUse" /></defs><sodipodi:namedview
     id="base"
     pagecolor="#ffffff"
     bordercolor="#000000"
     borderopacity="0.3"
     inkscape:pageopacity="0.0"
     inkscape:pageshadow="2"
     inkscape:zoom="0.98994949"
     inkscape:cx="505.07627"
     inkscape:cy="476.792"
     inkscape:document-units="mm"
     inkscape:showpageshadow="2"
     inkscape:pagecheckerboard="0"
     inkscape:deskcolor="#d1d1d1"
     inkscape:current-layer="g28"
     showguides="true"><sodipodi:guide
       position="92.475254,162.18839"
       orientation="0,-1"
       id="guide12"
       inkscape:locked="false" /><sodipodi:guide
       position="212.80059,201.33519"
       orientation="0,-1"
       id="guide27"
       inkscape:locked="false" /><sodipodi:guide
       position="177.33333,251.7905"
       orientation="1,0"
       id="guide28"
       inkscape:locked="false" /></sodipodi:namedview><metadata
     id="metadata1"><rdf:RDF><cc:Work
         rdf:about=""><dc:format>image/svg+xml</dc:format><dc:type
           rdf:resource="http://purl.org/dc/dcmitype/StillImage" /><cc:license
           rdf:resource="http://creativecommons.org/publicdomain/zero/1.0/" /></cc:Work><cc:License
         rdf:about="http://creativecommons.org/publicdomain/zero/1.0/"><cc:permits
           rdf:resource="http://creativecommons.org/ns#Reproduction" /><cc:permits
           rdf:resource="http://creativecommons.org/ns#Distribution" /><cc:permits
           rdf:resource="http://creativecommons.org/ns#DerivativeWorks" /></cc:License></rdf:RDF></metadata><g
     id="g28"
     transform="matrix(1.0481261,0,0,1.0481261,-6.4074194,-6.1384097)"><g
       id="g7"
       inkscape:label="shadow"
       style="display:inline"><path
         id="rect1"
         style="fill:#000000;fill-opacity:0.0602258;stroke-width:3.72791;stroke-linecap:square"
         d="M 48.380952,13.418155 H 179.16071 l 43.46726,43.278274 V 244.17261 H 48.380952 Z"
         sodipodi:nodetypes="cccccc" /><path
         id="path1"
         style="fill:#000000;fill-opacity:0.0752823;stroke-width:3.72791;stroke-linecap:square"
         d="m 47.563027,12.60023 129.443423,-0.133635 43.46726,43.278274 1.33635,187.609821 H 47.563027 Z"
         sodipodi:nodetypes="cccccc" /><path
         id="path2"
         style="fill:#000000;fill-opacity:0.0602258;stroke-width:3.72791;stroke-linecap:square"
         d="m 46.493949,11.793049 128.975701,-0.868626 43.46726,43.278274 1.80407,188.344813 H 46.493949 Z"
         sodipodi:nodetypes="cccccc" /><path
         id="path3"
         style="fill:#000000;fill-opacity:0.0602258;stroke-width:3.72791;stroke-linecap:square"
         d="m 45.964782,12.33296 129.777508,0.467722 43.46726,42.209196 1.00226,187.008462 H 45.964782 Z"
         sodipodi:nodetypes="cccccc" /><path
         id="path4"
         style="fill:#000000;fill-opacity:0.0602258;stroke-width:3.72791;stroke-linecap:square"
         d="m 45.435615,12.338332 129.443415,0.935443 43.46726,41.674657 1.33635,186.540738 H 45.435615 Z"
         sodipodi:nodetypes="cccccc" /><path
         id="path5"
         style="fill:#000000;fill-opacity:0.0602258;stroke-width:3.72791;stroke-linecap:square"
         d="M 44.906448,12.744609 174.8844,13.412783 218.35166,54.151996 219.15347,240.96 H 44.906448 Z"
         sodipodi:nodetypes="cccccc" /><path
         id="path6"
         style="fill:#000000;fill-opacity:0.0602258;stroke-width:3.72791;stroke-linecap:square"
         d="m 44.377281,15.021772 129.911129,0.534539 43.46726,37.932883 0.86863,186.941636 H 44.377281 Z"
         sodipodi:nodetypes="cccccc" /><path
         id="path7"
         style="fill:#000000;fill-opacity:0.0602258;stroke-width:3.72791;stroke-linecap:square"
         d="m 43.848114,13.423527 129.710676,1.069078 43.46726,39.001961 1.06908,186.407094 H 43.848114 Z"
         sodipodi:nodetypes="cccccc" /></g><g
       id="g14"
       style="display:inline"><path
         style="color:#000000;fill:url(#linearGradient14);stroke-linecap:square;-inkscape-stroke:none"
         d="M 46.153822,14.648159 H 173.78301 l 40.90293,41.140298 V 236.0795 H 46.554726 Z"
         id="path15"
         inkscape:label="headbgground" /><path
         id="rect16"
         style="display:inline;fill:url(#linearGradient17);fill-opacity:1;stroke-width:4.99999;stroke-linecap:square"
         d="M 45.435818,14.165285 H 176.70315 l 0.20408,8.220982 H 53.433709 V 235.97952 h -7.997891 z"
         sodipodi:nodetypes="ccccccc" /><path
         id="rect17"
         style="fill:url(#linearGradient19);stroke-width:4.99999;stroke-linecap:square"
         d="M 47.058037,227.91965 H 207.27506 l -0.0668,-168.246312 7.31651,0.0667 0.0668,168.546562 -7.08265,0.0331 v 7.34846 H 47.058037 Z"
         sodipodi:nodetypes="ccccccccc" /><path
         style="color:#000000;fill:url(#linearGradient10);stroke-linecap:square;-inkscape-stroke:none"
         d="M 43.648437,12.148438 44.058594,238.58008 H 217.18555 V 54.757812 L 174.82227,12.148438 Z m 4.608862,4.999999 H 172.74414 l 39.44141,39.671875 V 233.58008 H 48.775405 Z"
         id="path16"
         inkscape:label="headframe"
         sodipodi:nodetypes="cccccccccccc" /></g><g
       id="path1-9"
       style="display:inline"
       transform="matrix(0.56138833,0,0,0.56138833,2.199144,55.597708)"><g
         id="g17"
         inkscape:label="shadow"><path
           style="color:#000000;display:inline;fill:#191919;fill-opacity:0.186512;stroke-width:1.05132;stroke-linecap:round;stroke-linejoin:round;-inkscape-stroke:none"
           d="M 130.59101,11.339137 C 64.312485,11.33896 10.583081,65.068365 10.583259,131.34689 c 1.22e-4,66.27831 55.997295,123.0312 122.275611,123.03102 66.2781,-1.3e-4 119.27209,-57.00316 119.27221,-123.28126 C 252.13126,64.818338 196.86932,11.339264 130.59101,11.339137 Z m 1.04988,107.252313 c 11.19276,-5e-5 17.22905,2.75466 17.229,13.94742 4e-5,11.19275 -9.07349,20.26628 -20.26624,20.26623 -7.12929,-0.66172 -13.59046,-9.08598 -13.68491,-14.98684 -5e-5,-11.19254 5.52962,-19.22655 16.72215,-19.22681 z"
           id="path13"
           sodipodi:nodetypes="ccsscccccc" /><path
           style="color:#000000;display:inline;fill:#191919;fill-opacity:0.186512;stroke-width:1.03145;stroke-linecap:round;stroke-linejoin:round;-inkscape-stroke:none"
           d="M 130.591,13.606994 C 65.564985,13.606821 12.850941,66.320865 12.851116,131.34688 12.851232,196.37269 67.035173,251.22457 132.06098,251.2244 197.08658,251.22428 249.66658,195.10295 249.6667,130.07735 249.66687,65.051544 195.61681,13.607116 130.591,13.606994 Z M 131.30047,117.44 c 10.88664,0.80366 17.22404,4.0951 17.22399,15.07634 5e-5,10.98124 -8.90202,19.8833 -19.88326,19.88325 -10.98102,-2.5e-4 -13.91712,-4.3637 -14.88471,-15.28894 -0.96874,-10.93821 6.87505,-20.45824 17.54398,-19.67065 z"
           id="path14"
           sodipodi:nodetypes="ccsccsccss" /><path
           style="color:#000000;display:inline;fill:#191919;fill-opacity:0.186512;stroke-width:1.00496;stroke-linecap:round;stroke-linejoin:round;-inkscape-stroke:none"
           d="M 130.59099,16.630804 C 67.234987,16.630636 15.874757,67.990867 15.874926,131.34687 15.875036,194.70268 65.097029,249.40347 131.3928,249.13603 194.74788,248.88045 247.17732,192.96522 247.17743,129.60962 247.1776,66.253817 193.94679,16.63092 130.59099,16.630804 Z m -1.79179,99.305416 c 10.69922,-4e-5 19.26473,5.85086 19.26468,16.55008 4e-5,10.69921 -8.6734,19.37265 -19.37261,19.3726 -10.69901,-2.5e-4 -15.01192,-5.52033 -15.81513,-15.8886 -0.82635,-10.66706 5.22404,-20.03383 15.92306,-20.03408 z"
           id="path15-3"
           sodipodi:nodetypes="ccscccccsc" /><path
           style="color:#000000;display:inline;fill:#191919;fill-opacity:0.186512;stroke-width:0.991715;stroke-linecap:round;stroke-linejoin:round;-inkscape-stroke:none"
           d="M 131.25244,16.252828 C 68.731443,16.252667 18.048122,66.935993 18.048289,129.45699 c 1.1e-4,62.5208 50.015176,117.7474 112.535981,117.74724 62.52061,-1.2e-4 114.80715,-55.62753 114.80726,-118.14814 C 245.3917,66.535285 193.77324,16.252944 131.25244,16.252828 Z m -2.23923,98.317302 c 10.55821,-5e-5 19.48188,5.45306 19.48183,16.01127 4e-5,10.5582 -8.55909,19.11733 -19.11729,19.11728 -10.558,-2.5e-4 -17.99406,-5.58658 -17.9694,-17.14518 0.0247,-11.5586 7.04685,-17.98313 17.60486,-17.98337 z"
           id="path16-6"
           sodipodi:nodetypes="ccsccccczc" /><path
           style="color:#000000;display:inline;fill:#191919;fill-opacity:0.186512;stroke-width:0.980008;stroke-linecap:round;stroke-linejoin:round;-inkscape-stroke:none"
           d="M 130.02402,17.022212 C 68.241064,17.022049 18.156044,67.107074 18.156214,128.89003 c 1.1e-4,61.78276 49.951414,116.27742 111.734176,116.27726 61.78256,-1.2e-4 113.87171,-54.4947 113.87182,-116.27726 C 243.76238,67.107272 191.80678,17.022328 130.02402,17.022212 Z m -3.25654,95.775948 c 10.43357,-5e-5 20.29564,6.76943 20.29559,17.203 4e-5,10.43357 -8.45804,18.89165 -18.89161,18.89161 -10.43336,-2.4e-4 -18.21624,-7.43109 -18.2162,-17.86445 -5e-5,-10.43337 6.37885,-18.22992 16.81222,-18.23016 z"
           id="path17"
           sodipodi:nodetypes="ccsccccccc" /></g><path
         style="color:#000000;fill:#fafafa;stroke-linecap:round;stroke-linejoin:round;-inkscape-stroke:none"
         d="M 126.62225,11.717114 A 114.1488,114.1488 0 0 0 12.47314,125.86622 114.1488,114.1488 0 0 0 126.62225,240.01481 114.1488,114.1488 0 0 0 240.77083,125.86622 114.1488,114.1488 0 0 0 126.62225,11.717114 Z m -1.89033,96.006026 A 19.276779,19.276779 0 0 1 144.00878,127 19.276779,19.276779 0 0 1 124.73192,146.27686 19.276779,19.276779 0 0 1 105.45558,127 19.276779,19.276779 0 0 1 124.73192,107.72314 Z"
         id="path9" /><path
         id="rect1-0"
         style="display:inline;fill:url(#linearGradient6);stroke-width:6.40001;stroke-linecap:round;stroke-linejoin:round"
         d="M 118.88466,13.342855 C 105.48901,14.544764 93.698286,18.602908 80.508781,23.8125 l 35.398359,85.41287 c 3.08936,-1.9662 6.67486,-3.01175 10.33683,-3.01428 10.64633,-4e-5 19.2769,8.63053 19.27686,19.27686 -0.0157,4.92825 -0.84926,7.25791 -4.2479,10.82683 l 88.91442,35.66438 C 264.98059,86.704334 193.39884,6.6571516 118.88466,13.342855 Z M 21.544421,83.532886 C -12.84267,197.94979 97.02593,260.53972 168.19955,233.96704 L 138.05101,140.6679 c -3.3715,2.63895 -7.5256,4.08037 -11.80704,4.09691 -10.64633,4e-5 -19.2769,-8.63053 -19.27686,-19.27686 0.008,-4.51031 1.59799,-8.8749 4.49224,-12.33413 z"
         sodipodi:nodetypes="sccccccsccccccc" /><path
         id="rect10"
         style="fill:#c4c4ff;fill-opacity:1;stroke-width:6.40001;stroke-linecap:round;stroke-linejoin:round"
         d="M 22.273586,84.353615 C 10.834992,97.778653 11.923768,113.35979 13.11074,127.75603 l 94.28787,1.55701 c -0.2711,-1.25744 -0.41565,-2.53886 -0.4315,-3.82509 0.0137,-3.43697 2.28247,-9.48047 4.03696,-12.43593 z M 145.27795,122.46436 c 0.16025,0.99992 0.24147,2.01091 0.24288,3.02359 -0.006,3.78502 -1.12631,7.4845 -3.22099,10.63707 l 86.75388,35.85415 c 9.19308,-15.44053 10.63224,-35.30605 11.14473,-49.78208 z"
         sodipodi:nodetypes="cccccccccccc" /><path
         style="color:#000000;fill:url(#linearGradient21);fill-opacity:1;stroke-linecap:round;stroke-linejoin:round;-inkscape-stroke:none"
         d="M 126.62305,8.5175781 C 61.850815,8.5174022 9.2732639,61.094956 9.2734375,125.86719 9.2735567,190.63921 61.851022,243.21502 126.62305,243.21484 191.39486,243.21472 243.97058,190.639 243.9707,125.86719 243.97088,61.095168 191.39507,8.517703 126.62305,8.5175781 Z m -0.37798,9.0462239 c 61.3132,-1.13381 109.43553,51.525895 109.05738,109.059338 -1.1e-4,61.31301 -47.3664,107.92327 -108.6794,107.92345 C 69.467575,234.54676 18.319774,187.55838 18.319661,126.24517 18.319497,64.931757 69.089403,17.563635 126.24507,17.563802 Z m -1.51265,86.959638 c -12.3755,2.8e-4 -22.47661,10.10105 -22.47656,22.47656 -5e-5,12.37551 10.10106,22.47628 22.47656,22.47656 12.37574,5e-5 22.47662,-10.10082 22.47656,-22.47656 6e-5,-12.37574 -10.10082,-22.47661 -22.47656,-22.47656 z m 0,6.40039 c 8.91691,-4e-5 16.07621,7.15926 16.07617,16.07617 4e-5,8.91691 -7.15926,16.07621 -16.07617,16.07617 -8.91673,-2e-4 -16.07621,-7.15944 -16.07617,-16.07617 -4e-5,-8.91673 7.15944,-16.07597 16.07617,-16.07617 z"
         id="path10"
         sodipodi:nodetypes="cccccccscccccccccccc" /><path
         style="color:#000000;fill:url(#linearGradient12-2);stroke-linecap:round;stroke-linejoin:round;-inkscape-stroke:none"
         d="m 124.16602,82.433594 c -24.411308,-3e-6 -44.378911,19.965646 -44.378911,44.376956 -3e-6,24.4113 19.967601,44.37891 44.378911,44.3789 24.4113,0 44.37695,-19.9676 44.37695,-44.3789 0,-24.4113 -19.96566,-44.376953 -44.37695,-44.376956 z m 0,16.5625 c 15.45999,2e-6 27.81445,12.354456 27.81445,27.814456 0,15.46 -12.35445,27.8164 -27.81445,27.8164 -15.46001,0 -27.816413,-12.3564 -27.816411,-27.8164 0,-15.46001 12.356401,-27.814458 27.816411,-27.814456 z"
         id="path11" /></g><g
       id="g2"
       transform="matrix(0.95408368,0,0,0.95408368,22.925066,7.9260059)"
       style="clip-rule:nonzero;display:none;fill:#00009f;fill-rule:nonzero;stroke:#ffffff;stroke-width:0;stroke-miterlimit:4"><path
         style="font-weight:bold;font-size:70.5556px;line-height:0.8;font-family:'Liberation Sans';-inkscape-font-specification:'Liberation Sans Bold';letter-spacing:-0.0767292px;word-spacing:0px;fill:#000000;fill-rule:evenodd;stroke:none;stroke-width:3.5"
         d="m 64.057806,182.62983 v 40.68661 H 53.894768 V 182.62983 H 38.219573 v -7.85482 h 41.547879 v 7.85482 z m 67.033774,16.19196 q 0,7.57922 -2.99723,13.33253 -2.99724,5.75331 -8.5783,8.81945 -5.58106,3.03169 -13.02247,3.03169 -11.437721,0 -17.948956,-6.71794 -6.476784,-6.7524 -6.476784,-18.46573 0,-11.67888 6.476784,-18.22457 6.476784,-6.54568 18.017866,-6.54568 11.54107,0 18.01786,6.61459 6.51123,6.61458 6.51123,18.15566 z m -10.36974,0 q 0,-7.85482 -3.72071,-12.299 -3.7207,-4.47862 -10.43864,-4.47862 -6.821298,0 -10.542004,4.44417 -3.720706,4.40973 -3.720706,12.33345 0,7.99263 3.789608,12.60906 3.824059,4.58198 10.404192,4.58198 6.8213,0 10.50755,-4.47863 3.72071,-4.47862 3.72071,-12.71241 z m 40.64433,17.19104 q 9.19841,0 12.78131,-9.23286 l 8.8539,3.34174 q -2.85943,7.028 -8.40604,10.4731 -5.51216,3.41065 -13.22917,3.41065 -11.71334,0 -18.12122,-6.61459 -6.37343,-6.64904 -6.37343,-18.56908 0,-11.95449 6.16673,-18.36237 6.16672,-6.40788 17.88005,-6.40788 8.54385,0 13.9182,3.4451 5.37435,3.41064 7.54476,10.05968 l -8.95725,2.44602 q -1.13688,-3.6518 -4.47863,-5.78776 -3.30729,-2.17041 -7.82037,-2.17041 -6.8902,0 -10.4731,4.27192 -3.54845,4.27192 -3.54845,12.5057 0,8.37159 3.6518,12.78131 3.68626,4.40973 10.61091,4.40973 z"
         id="text1"
         aria-label="TOC" /></g><g
       id="rect23"
       style="display:inline"><rect
         style="display:inline;fill:url(#linearGradient23);fill-opacity:0.834379;stroke:none;stroke-width:4.99999;stroke-linecap:square;stroke-dasharray:none;stroke-opacity:1"
         id="rect20"
         width="30.128031"
         height="11.286353"
         x="177.19191"
         y="53.347572" /><path
         style="color:#000000;display:inline;fill:url(#linearGradient25);stroke-linecap:square;stroke-linejoin:bevel;-inkscape-stroke:none"
         d="m 174.15254,15.119046 40.91592,41.955358 H 174.814 Z"
         id="path25" /><g
         id="g27"><path
           id="rect27"
           style="display:inline;fill:#0a6db5;fill-opacity:0.459222;stroke-width:4.99999;stroke-linecap:square;stroke-linejoin:bevel"
           d="m 182.94047,23.245534 33.07293,33.82887 -33.07293,-0.09449 z"
           sodipodi:nodetypes="cccc" /><path
           id="path27"
           style="display:inline;fill:#1882cf;fill-opacity:0.459222;stroke-width:4.99999;stroke-linecap:square;stroke-linejoin:bevel"
           d="m 175.28645,49.514879 34.91556,0.188989 4.67746,7.087054 -39.68751,-0.472471 z"
           sodipodi:nodetypes="ccccc" /></g><path
         style="color:#000000;display:inline;fill:url(#linearGradient27);stroke-linecap:square;stroke-linejoin:bevel;-inkscape-stroke:none"
         d="m 175.94141,13.373047 -4.28907,1.785156 6.5e-4,44.600911 c 0,0 29.8634,-0.184895 43.41537,-0.184895 l 1.78906,-4.246094 z m 1.4286,7.056744 34.22551,34.144428 h -34.32013 z"
         id="path26"
         sodipodi:nodetypes="cccccccccc" /></g></g></svg>
