<?xml version="1.0" encoding="UTF-8" standalone="no"?>
<!-- Created with Inkscape (http://www.inkscape.org/) -->

<svg
   width="256mm"
   height="256mm"
   viewBox="0 0 256 256"
   version="1.1"
   id="svg1"
   inkscape:version="1.3.2 (091e20ef0f, 2023-11-25)"
   xml:space="preserve"
   sodipodi:docname="application-x-subrip.svg"
   xmlns:inkscape="http://www.inkscape.org/namespaces/inkscape"
   xmlns:sodipodi="http://sodipodi.sourceforge.net/DTD/sodipodi-0.dtd"
   xmlns:xlink="http://www.w3.org/1999/xlink"
   xmlns="http://www.w3.org/2000/svg"
   xmlns:svg="http://www.w3.org/2000/svg"
   xmlns:rdf="http://www.w3.org/1999/02/22-rdf-syntax-ns#"
   xmlns:cc="http://creativecommons.org/ns#"
   xmlns:dc="http://purl.org/dc/elements/1.1/"><defs
     id="defs1"><linearGradient
       id="linearGradient26"
       inkscape:collect="always"><stop
         style="stop-color:#7b91c4;stop-opacity:1;"
         offset="0"
         id="stop26" /><stop
         style="stop-color:#5c5e91;stop-opacity:1"
         offset="1"
         id="stop27" /></linearGradient><linearGradient
       id="linearGradient24"
       inkscape:collect="always"><stop
         style="stop-color:#c7fafe;stop-opacity:1;"
         offset="0"
         id="stop24" /><stop
         style="stop-color:#9acdff;stop-opacity:1"
         offset="1"
         id="stop25" /></linearGradient><linearGradient
       id="linearGradient22"
       inkscape:collect="always"><stop
         style="stop-color:#adaeae;stop-opacity:0.8253752;"
         offset="0"
         id="stop22" /><stop
         style="stop-color:#8ac5fe;stop-opacity:0.83628923;"
         offset="1"
         id="stop23" /></linearGradient><linearGradient
       id="linearGradient18"
       inkscape:collect="always"><stop
         style="stop-color:#9797ff;stop-opacity:1;"
         offset="0"
         id="stop18" /><stop
         style="stop-color:#ccccff;stop-opacity:1;"
         offset="0.30000001"
         id="stop20" /><stop
         style="stop-color:#ccccff;stop-opacity:1;"
         offset="1"
         id="stop19" /></linearGradient><linearGradient
       id="linearGradient16"
       inkscape:collect="always"><stop
         style="stop-color:#cdcdcd;stop-opacity:0.17462483;"
         offset="0"
         id="stop16" /><stop
         style="stop-color:#cdcdcd;stop-opacity:1;"
         offset="1"
         id="stop17" /></linearGradient><linearGradient
       id="linearGradient12"
       inkscape:collect="always"><stop
         style="stop-color:#fdfeff;stop-opacity:1;"
         offset="0"
         id="stop13" /><stop
         style="stop-color:#99ccff;stop-opacity:1;"
         offset="1"
         id="stop14" /></linearGradient><linearGradient
       id="linearGradient9"
       inkscape:collect="always"><stop
         style="stop-color:#97c9fc;stop-opacity:1;"
         offset="0"
         id="stop9" /><stop
         style="stop-color:#7788bb;stop-opacity:1"
         offset="0.25"
         id="stop12" /><stop
         style="stop-color:#57578a;stop-opacity:1"
         offset="0.5"
         id="stop11" /><stop
         style="stop-color:#444482;stop-opacity:1;"
         offset="1"
         id="stop10" /></linearGradient><linearGradient
       inkscape:collect="always"
       xlink:href="#linearGradient9"
       id="linearGradient10"
       x1="31.622168"
       y1="100.24049"
       x2="221.19499"
       y2="240.28973"
       gradientUnits="userSpaceOnUse" /><linearGradient
       inkscape:collect="always"
       xlink:href="#linearGradient12"
       id="linearGradient14"
       x1="73.583481"
       y1="62.020954"
       x2="207.02971"
       y2="229.59895"
       gradientUnits="userSpaceOnUse" /><linearGradient
       inkscape:collect="always"
       xlink:href="#linearGradient16"
       id="linearGradient17"
       x1="57.531055"
       y1="26.420616"
       x2="147.13231"
       y2="144.34076"
       gradientUnits="userSpaceOnUse" /><linearGradient
       inkscape:collect="always"
       xlink:href="#linearGradient18"
       id="linearGradient19"
       x1="209.82518"
       y1="58.53635"
       x2="210.58252"
       y2="194.57654"
       gradientUnits="userSpaceOnUse" /><linearGradient
       inkscape:collect="always"
       xlink:href="#linearGradient22"
       id="linearGradient23"
       x1="177.19191"
       y1="58.990749"
       x2="207.31994"
       y2="58.990749"
       gradientUnits="userSpaceOnUse" /><linearGradient
       inkscape:collect="always"
       xlink:href="#linearGradient24"
       id="linearGradient25"
       x1="176.32031"
       y1="20.126524"
       x2="176.32031"
       y2="56.695721"
       gradientUnits="userSpaceOnUse" /><linearGradient
       inkscape:collect="always"
       xlink:href="#linearGradient26"
       id="linearGradient27"
       x1="172.59729"
       y1="13.51158"
       x2="210.54449"
       y2="51.28627"
       gradientUnits="userSpaceOnUse" /><linearGradient
       inkscape:collect="always"
       xlink:href="#linearGradient17-6"
       id="linearGradient32"
       gradientUnits="userSpaceOnUse"
       x1="58.665661"
       y1="64.746048"
       x2="58.665661"
       y2="84.924896" /><linearGradient
       id="linearGradient17-6"
       inkscape:collect="always"><stop
         style="stop-color:#0067cd;stop-opacity:1"
         offset="0"
         id="stop17-2" /><stop
         style="stop-color:#b0f1ff;stop-opacity:1"
         offset="1"
         id="stop18-9" /></linearGradient><linearGradient
       inkscape:collect="always"
       xlink:href="#linearGradient3"
       id="linearGradient4"
       x1="413.51483"
       y1="164.55357"
       x2="625.21021"
       y2="364.83807"
       gradientUnits="userSpaceOnUse" /><linearGradient
       id="linearGradient3"
       inkscape:collect="always"><stop
         style="stop-color:#feef89;stop-opacity:1"
         offset="0"
         id="stop3" /><stop
         style="stop-color:#f6db55;stop-opacity:0.43276837;"
         offset="0.69191211"
         id="stop5" /><stop
         style="stop-color:#eaa647;stop-opacity:0.54463279;"
         offset="1"
         id="stop4" /></linearGradient><linearGradient
       inkscape:collect="always"
       xlink:href="#linearGradient1"
       id="linearGradient2"
       x1="542.71991"
       y1="266.94247"
       x2="750.54932"
       y2="524.13361"
       gradientUnits="userSpaceOnUse"
       gradientTransform="translate(19.502645,-154.80225)" /><linearGradient
       id="linearGradient1"
       inkscape:collect="always"><stop
         style="stop-color:#d4a919;stop-opacity:1;"
         offset="0"
         id="stop1" /><stop
         style="stop-color:#5e4601;stop-opacity:1;"
         offset="1"
         id="stop2" /></linearGradient><linearGradient
       id="linearGradient34"
       inkscape:collect="always"><stop
         style="stop-color:#7171d4;stop-opacity:1;"
         offset="0"
         id="stop34" /><stop
         style="stop-color:#40407b;stop-opacity:1;"
         offset="0.14548855"
         id="stop36" /><stop
         style="stop-color:#353566;stop-opacity:1;"
         offset="0.77884656"
         id="stop37" /><stop
         style="stop-color:#1d1d33;stop-opacity:1;"
         offset="1"
         id="stop35" /></linearGradient><linearGradient
       id="linearGradient30"
       inkscape:collect="always"><stop
         style="stop-color:#5e5470;stop-opacity:1;"
         offset="0"
         id="stop30" /><stop
         style="stop-color:#646464;stop-opacity:1;"
         offset="0.16719587"
         id="stop32" /><stop
         style="stop-color:#454545;stop-opacity:1;"
         offset="1"
         id="stop31" /></linearGradient><linearGradient
       id="linearGradient29"
       inkscape:collect="always"><stop
         style="stop-color:#2f2f2f;stop-opacity:1;"
         offset="0"
         id="stop25-1" /><stop
         style="stop-color:#3f3f3f;stop-opacity:0.43828714;"
         offset="0.54159796"
         id="stop26-2" /><stop
         style="stop-color:#636363;stop-opacity:0.23425692;"
         offset="0.72338831"
         id="stop27-7" /><stop
         style="stop-color:#ffffff;stop-opacity:0;"
         offset="0.88264096"
         id="stop28" /><stop
         style="stop-color:#ffffff;stop-opacity:0;"
         offset="1"
         id="stop29" /></linearGradient><linearGradient
       id="linearGradient15"
       inkscape:collect="always"><stop
         style="stop-color:#3a3a3a;stop-opacity:1"
         offset="0"
         id="stop16-0" /><stop
         style="stop-color:#3a3a3a;stop-opacity:1"
         offset="1"
         id="stop17-9" /></linearGradient><linearGradient
       id="linearGradient14-3"
       inkscape:collect="always"><stop
         style="stop-color:#f9f4f4;stop-opacity:1"
         offset="0"
         id="stop14-6" /><stop
         style="stop-color:#9f9d9b;stop-opacity:1"
         offset="0.34180781"
         id="stop18-0" /><stop
         style="stop-color:#70706a;stop-opacity:1;"
         offset="0.47061172"
         id="stop19-6" /><stop
         style="stop-color:#656561;stop-opacity:1;"
         offset="0.53044158"
         id="stop23-2" /><stop
         style="stop-color:#626260;stop-opacity:1;"
         offset="0.59264034"
         id="stop20-6" /><stop
         style="stop-color:#696878;stop-opacity:1;"
         offset="0.66862851"
         id="stop22-1" /><stop
         style="stop-color:#737287;stop-opacity:1;"
         offset="0.72458875"
         id="stop24-8" /><stop
         style="stop-color:#827fa7;stop-opacity:1;"
         offset="0.82136834"
         id="stop21" /><stop
         style="stop-color:#8584c0;stop-opacity:1"
         offset="1"
         id="stop15" /></linearGradient><linearGradient
       id="linearGradient11"
       inkscape:collect="always"><stop
         style="stop-color:#323232;stop-opacity:1"
         offset="0"
         id="stop12-7" /><stop
         style="stop-color:#585858;stop-opacity:0.581864;"
         offset="1"
         id="stop13-9" /></linearGradient><linearGradient
       id="linearGradient7"
       inkscape:collect="always"><stop
         style="stop-color:#2f2f2f;stop-opacity:1;"
         offset="0"
         id="stop7" /><stop
         style="stop-color:#5b5b5b;stop-opacity:1"
         offset="0.54159796"
         id="stop11-2" /><stop
         style="stop-color:#ababab;stop-opacity:1"
         offset="0.72338831"
         id="stop10-0" /><stop
         style="stop-color:#bababa;stop-opacity:1"
         offset="0.88264096"
         id="stop9-2" /><stop
         style="stop-color:#c4c4c4;stop-opacity:1"
         offset="1"
         id="stop8" /></linearGradient><linearGradient
       id="linearGradient1-3"
       inkscape:collect="always"><stop
         style="stop-color:#737270;stop-opacity:1"
         offset="0"
         id="stop1-7" /><stop
         style="stop-color:#b7b4b0;stop-opacity:1"
         offset="0.19821422"
         id="stop5-5" /><stop
         style="stop-color:#f5f1f9;stop-opacity:1"
         offset="0.5"
         id="stop3-9" /><stop
         style="stop-color:#b4b2d4;stop-opacity:1"
         offset="0.75"
         id="stop4-2" /><stop
         style="stop-color:#8c8bbb;stop-opacity:1"
         offset="1"
         id="stop2-2" /></linearGradient><linearGradient
       inkscape:collect="always"
       xlink:href="#linearGradient1-3"
       id="linearGradient2-8"
       x1="40.855495"
       y1="33.219395"
       x2="23.767143"
       y2="111.36597"
       gradientUnits="userSpaceOnUse" /><radialGradient
       inkscape:collect="always"
       xlink:href="#linearGradient7"
       id="radialGradient8"
       cx="75.066833"
       cy="62.583637"
       fx="75.066833"
       fy="62.583637"
       r="81.176338"
       gradientTransform="matrix(1.7091642,0.49195636,-0.68645194,2.384884,-52.333075,-98.519916)"
       gradientUnits="userSpaceOnUse" /><linearGradient
       inkscape:collect="always"
       xlink:href="#linearGradient11"
       id="linearGradient13"
       x1="57.146889"
       y1="32.59795"
       x2="120.64204"
       y2="163.81026"
       gradientUnits="userSpaceOnUse"
       gradientTransform="matrix(0.98953141,0,0,0.98578952,31.453389,-24.213489)" /><radialGradient
       inkscape:collect="always"
       xlink:href="#linearGradient14-3"
       id="radialGradient15"
       cx="103.74718"
       cy="71.381584"
       fx="103.74718"
       fy="71.381584"
       r="39.809394"
       gradientTransform="matrix(1.4629689,-0.96750998,0.76145987,1.9422981,-118.06491,25.049056)"
       gradientUnits="userSpaceOnUse" /><linearGradient
       inkscape:collect="always"
       xlink:href="#linearGradient15"
       id="linearGradient17-9"
       x1="76.210083"
       y1="49.267609"
       x2="121.13515"
       y2="137.17094"
       gradientUnits="userSpaceOnUse" /><radialGradient
       inkscape:collect="always"
       xlink:href="#linearGradient29"
       id="radialGradient25"
       gradientUnits="userSpaceOnUse"
       gradientTransform="matrix(0.90944546,1.6466476,-2.5916957,1.4313964,108.39062,-161.49398)"
       cx="76.695152"
       cy="30.607498"
       fx="76.695152"
       fy="30.607498"
       r="81.176338" /><linearGradient
       inkscape:collect="always"
       xlink:href="#linearGradient30"
       id="linearGradient31"
       x1="87.072815"
       y1="-5.4579496"
       x2="197.85429"
       y2="145.68925"
       gradientUnits="userSpaceOnUse" /><linearGradient
       inkscape:collect="always"
       xlink:href="#linearGradient34"
       id="linearGradient35"
       x1="18.121307"
       y1="30.868353"
       x2="40.289219"
       y2="112.5192"
       gradientUnits="userSpaceOnUse" /></defs><sodipodi:namedview
     id="base"
     pagecolor="#ffffff"
     bordercolor="#000000"
     borderopacity="0.3"
     inkscape:pageopacity="0.0"
     inkscape:pageshadow="2"
     inkscape:zoom="0.98994949"
     inkscape:cx="505.07627"
     inkscape:cy="476.792"
     inkscape:document-units="mm"
     inkscape:showpageshadow="2"
     inkscape:pagecheckerboard="0"
     inkscape:deskcolor="#d1d1d1"
     inkscape:current-layer="svg1"
     showguides="true" /><metadata
     id="metadata1"><rdf:RDF><cc:Work
         rdf:about=""><dc:format>image/svg+xml</dc:format><dc:type
           rdf:resource="http://purl.org/dc/dcmitype/StillImage" /><cc:license
           rdf:resource="http://creativecommons.org/publicdomain/zero/1.0/" /></cc:Work><cc:License
         rdf:about="http://creativecommons.org/publicdomain/zero/1.0/"><cc:permits
           rdf:resource="http://creativecommons.org/ns#Reproduction" /><cc:permits
           rdf:resource="http://creativecommons.org/ns#Distribution" /><cc:permits
           rdf:resource="http://creativecommons.org/ns#DerivativeWorks" /></cc:License></rdf:RDF></metadata><g
     id="g28"
     transform="matrix(1.0481261,0,0,1.0481261,-6.4074194,-6.1384097)"><g
       id="g7"
       inkscape:label="shadow"
       style="display:inline"><path
         id="rect1"
         style="fill:#000000;fill-opacity:0.0602258;stroke-width:3.72791;stroke-linecap:square"
         d="M 48.380952,13.418155 H 179.16071 l 43.46726,43.278274 V 244.17261 H 48.380952 Z"
         sodipodi:nodetypes="cccccc" /><path
         id="path1"
         style="fill:#000000;fill-opacity:0.0752823;stroke-width:3.72791;stroke-linecap:square"
         d="m 47.563027,12.60023 129.443423,-0.133635 43.46726,43.278274 1.33635,187.609821 H 47.563027 Z"
         sodipodi:nodetypes="cccccc" /><path
         id="path2"
         style="fill:#000000;fill-opacity:0.0602258;stroke-width:3.72791;stroke-linecap:square"
         d="m 46.493949,11.793049 128.975701,-0.868626 43.46726,43.278274 1.80407,188.344813 H 46.493949 Z"
         sodipodi:nodetypes="cccccc" /><path
         id="path3"
         style="fill:#000000;fill-opacity:0.0602258;stroke-width:3.72791;stroke-linecap:square"
         d="m 45.964782,12.33296 129.777508,0.467722 43.46726,42.209196 1.00226,187.008462 H 45.964782 Z"
         sodipodi:nodetypes="cccccc" /><path
         id="path4"
         style="fill:#000000;fill-opacity:0.0602258;stroke-width:3.72791;stroke-linecap:square"
         d="m 45.435615,12.338332 129.443415,0.935443 43.46726,41.674657 1.33635,186.540738 H 45.435615 Z"
         sodipodi:nodetypes="cccccc" /><path
         id="path5"
         style="fill:#000000;fill-opacity:0.0602258;stroke-width:3.72791;stroke-linecap:square"
         d="M 44.906448,12.744609 174.8844,13.412783 218.35166,54.151996 219.15347,240.96 H 44.906448 Z"
         sodipodi:nodetypes="cccccc" /><path
         id="path6"
         style="fill:#000000;fill-opacity:0.0602258;stroke-width:3.72791;stroke-linecap:square"
         d="m 44.377281,15.021772 129.911129,0.534539 43.46726,37.932883 0.86863,186.941636 H 44.377281 Z"
         sodipodi:nodetypes="cccccc" /><path
         id="path7"
         style="fill:#000000;fill-opacity:0.0602258;stroke-width:3.72791;stroke-linecap:square"
         d="m 43.848114,13.423527 129.710676,1.069078 43.46726,39.001961 1.06908,186.407094 H 43.848114 Z"
         sodipodi:nodetypes="cccccc" /></g><g
       id="g14"
       style="display:inline"><path
         style="color:#000000;fill:url(#linearGradient14);stroke-linecap:square;-inkscape-stroke:none"
         d="M 46.153822,14.648159 H 173.78301 l 40.90293,41.140298 V 236.0795 H 46.554726 Z"
         id="path15"
         inkscape:label="headbgground" /><path
         id="rect16"
         style="display:inline;fill:url(#linearGradient17);fill-opacity:1;stroke-width:4.99999;stroke-linecap:square"
         d="M 45.435818,14.165285 H 176.70315 l 0.20408,8.220982 H 53.433709 V 235.97952 h -7.997891 z"
         sodipodi:nodetypes="ccccccc" /><path
         id="rect17"
         style="fill:url(#linearGradient19);stroke-width:4.99999;stroke-linecap:square"
         d="M 47.058037,227.91965 H 207.27506 l -0.0668,-168.246312 7.31651,0.0667 0.0668,168.546562 -7.08265,0.0331 v 7.34846 H 47.058037 Z"
         sodipodi:nodetypes="ccccccccc" /><path
         style="color:#000000;fill:url(#linearGradient10);stroke-linecap:square;-inkscape-stroke:none"
         d="M 43.648437,12.148438 44.058594,238.58008 H 217.18555 V 54.757812 L 174.82227,12.148438 Z m 4.608862,4.999999 H 172.74414 l 39.44141,39.671875 V 233.58008 H 48.775405 Z"
         id="path16"
         inkscape:label="headframe"
         sodipodi:nodetypes="cccccccccccc" /></g><g
       id="rect23"
       style="display:inline"><rect
         style="display:inline;fill:url(#linearGradient23);fill-opacity:0.834379;stroke:none;stroke-width:4.99999;stroke-linecap:square;stroke-dasharray:none;stroke-opacity:1"
         id="rect20"
         width="30.128031"
         height="11.286353"
         x="177.19191"
         y="53.347572" /><path
         style="color:#000000;display:inline;fill:url(#linearGradient25);stroke-linecap:square;stroke-linejoin:bevel;-inkscape-stroke:none"
         d="m 174.15254,15.119046 40.91592,41.955358 H 174.814 Z"
         id="path25" /><g
         id="g27"><path
           id="rect27"
           style="display:inline;fill:#0a6db5;fill-opacity:0.459222;stroke-width:4.99999;stroke-linecap:square;stroke-linejoin:bevel"
           d="m 182.94047,23.245534 33.07293,33.82887 -33.07293,-0.09449 z"
           sodipodi:nodetypes="cccc" /><path
           id="path27"
           style="display:inline;fill:#1882cf;fill-opacity:0.459222;stroke-width:4.99999;stroke-linecap:square;stroke-linejoin:bevel"
           d="m 175.28645,49.514879 34.91556,0.188989 4.67746,7.087054 -39.68751,-0.472471 z"
           sodipodi:nodetypes="ccccc" /></g><path
         style="color:#000000;display:inline;fill:url(#linearGradient27);stroke-linecap:square;stroke-linejoin:bevel;-inkscape-stroke:none"
         d="m 175.94141,13.373047 -4.28907,1.785156 6.5e-4,44.600911 c 0,0 29.8634,-0.184895 43.41537,-0.184895 l 1.78906,-4.246094 z m 1.4286,7.056744 34.22551,34.144428 h -34.32013 z"
         id="path26"
         sodipodi:nodetypes="cccccccccc" /></g><g
       id="g32"
       inkscape:label="video-oblique"
       transform="matrix(1.8846785,-0.39409769,0.51958397,1.8584385,-17.743607,1.9529062)"><path
         id="path27-7"
         style="fill:#f3f3f3;fill-opacity:0.689482;stroke-width:5.46172;stroke-linecap:round;stroke-linejoin:round"
         d="m 33.50862,56.11048 c -1.034421,0 -1.867341,0.832922 -1.867341,1.867338 v 33.415879 c 0,1.034416 0.83292,1.867337 1.867341,1.867337 h 50.735804 c 1.03442,0 1.86684,-0.832921 1.86684,-1.867337 V 57.977818 c 0,-1.034416 -0.83242,-1.867338 -1.86684,-1.867338 z"
         inkscape:label="whitebg"
         sodipodi:nodetypes="sssssssss" /><g
         id="g30"
         inkscape:label="shadow"
         style="fill:#000000;fill-opacity:0.173623"><path
           id="path28"
           style="fill:#000000;fill-opacity:0.173623;stroke-width:5.66801;stroke-linecap:round;stroke-linejoin:round"
           d="m 33.203013,55.853955 c -1.07349,0 -1.93787,0.864381 -1.93787,1.937867 v 34.677986 c 0,1.073486 0.86438,1.937866 1.93787,1.937866 h 52.65208 c 1.07349,0 1.93735,-0.86438 1.93735,-1.937866 V 57.791822 c 0,-1.073486 -0.86386,-1.937867 -1.93735,-1.937867 z m 1.34979,3.302124 h 3.25716 v 3.52485 h -3.25716 z m 4.74389,0 h 3.25717 v 3.52485 h -3.25717 z m 4.9444,0 h 3.25717 v 3.52485 h -3.25717 z m 4.67724,0 h 3.25716 v 3.52485 h -3.25716 z m 4.81107,0 h 3.25717 v 3.52485 h -3.25717 z m 4.74752,0 h 3.25716 v 3.52485 h -3.25716 z m 4.76043,0 h 3.25717 v 3.52485 h -3.25717 z m 4.7439,0 h 3.25716 v 3.52485 h -3.25716 z m 4.71082,0 h 3.25717 v 3.52485 h -3.25717 z m 4.77749,0 h 3.25716 v 3.52485 h -3.25716 z m 4.67723,0 h 3.25717 v 3.52485 h -3.25717 z m -43.20356,5.412073 -0.01654,21.072616 -6.21409,0.01757 -0.0062,-21.067965 z m 47.625,0 -0.01654,21.072616 -6.21409,0.01757 -0.0062,-21.067965 z m -25.33696,0.0186 h 15.92203 V 85.65885 h -15.92203 z m -19.15439,0.0047 h 16.0166 V 85.66355 h -16.0166 z m -7.6047,22.733496 h 3.25768 v 3.524849 h -3.25768 z m 4.7439,0 h 3.25768 v 3.524849 h -3.25768 z m 4.9444,0 h 3.25768 v 3.524849 h -3.25768 z m 4.67723,0 h 3.25768 v 3.524849 h -3.25768 z m 4.81108,0 h 3.25768 v 3.524849 h -3.25768 z m 4.74751,0 h 3.25768 v 3.524849 h -3.25768 z m 4.76044,0 h 3.25768 v 3.524849 h -3.25768 z m 4.74389,0 h 3.25768 v 3.524849 h -3.25768 z m 4.71083,0 h 3.25768 v 3.524849 h -3.25768 z m 4.77748,0 h 3.25768 v 3.524849 h -3.25768 z m 4.67724,0 h 3.25768 v 3.524849 h -3.25768 z"
           inkscape:label="cell" /><path
           id="path29"
           style="fill:#000000;fill-opacity:0.173623;stroke-width:5.66801;stroke-linecap:round;stroke-linejoin:round"
           d="m 33.73218,56.383122 c -1.07349,0 -1.93787,0.864381 -1.93787,1.937867 v 34.677986 c 0,1.073486 0.86438,1.937866 1.93787,1.937866 h 52.65208 c 1.07349,0 1.93735,-0.86438 1.93735,-1.937866 V 58.320989 c 0,-1.073486 -0.86386,-1.937867 -1.93735,-1.937867 z m 1.34979,3.302124 h 3.25716 v 3.52485 h -3.25716 z m 4.74389,0 h 3.25717 v 3.52485 h -3.25717 z m 4.9444,0 h 3.25717 v 3.52485 h -3.25717 z m 4.67724,0 h 3.25716 v 3.52485 H 49.4475 Z m 4.81107,0 h 3.25717 v 3.52485 h -3.25717 z m 4.74752,0 h 3.25716 v 3.52485 h -3.25716 z m 4.76043,0 h 3.25717 v 3.52485 h -3.25717 z m 4.7439,0 h 3.25716 v 3.52485 h -3.25716 z m 4.71082,0 h 3.25717 v 3.52485 h -3.25717 z m 4.77749,0 h 3.25716 v 3.52485 h -3.25716 z m 4.67723,0 h 3.25717 v 3.52485 h -3.25717 z m -43.20356,5.412073 -0.01654,21.072616 -6.21409,0.01757 -0.0062,-21.067965 z m 47.625,0 -0.01654,21.072616 -6.21409,0.01757 -0.0062,-21.067965 z m -25.33696,0.0186 H 77.68247 V 86.188017 H 61.76044 Z m -19.15439,0.0047 h 16.0166 v 21.072098 h -16.0166 z m -7.6047,22.733496 h 3.25768 v 3.524849 h -3.25768 z m 4.7439,0 h 3.25768 v 3.524849 h -3.25768 z m 4.9444,0 h 3.25768 v 3.524849 h -3.25768 z m 4.67723,0 h 3.25768 v 3.524849 h -3.25768 z m 4.81108,0 h 3.25768 v 3.524849 h -3.25768 z m 4.74751,0 h 3.25768 v 3.524849 h -3.25768 z m 4.76044,0 h 3.25768 v 3.524849 h -3.25768 z m 4.74389,0 h 3.25768 v 3.524849 H 68.4298 Z m 4.71083,0 h 3.25768 v 3.524849 h -3.25768 z m 4.77748,0 h 3.25768 v 3.524849 h -3.25768 z m 4.67724,0 h 3.25768 v 3.524849 h -3.25768 z"
           inkscape:label="cell" /><path
           id="path30"
           style="fill:#000000;fill-opacity:0.173623;stroke-width:5.66801;stroke-linecap:round;stroke-linejoin:round"
           d="m 34.261347,56.912289 c -1.07349,0 -1.93787,0.864381 -1.93787,1.937867 v 34.677986 c 0,1.073486 0.86438,1.937866 1.93787,1.937866 h 52.65208 c 1.07349,0 1.93735,-0.86438 1.93735,-1.937866 V 58.850156 c 0,-1.073486 -0.86386,-1.937867 -1.93735,-1.937867 z m 1.34979,3.302124 h 3.25716 v 3.52485 h -3.25716 z m 4.74389,0 h 3.25717 v 3.52485 h -3.25717 z m 4.9444,0 h 3.25717 v 3.52485 h -3.25717 z m 4.67724,0 h 3.25716 v 3.52485 h -3.25716 z m 4.81107,0 h 3.25717 v 3.52485 h -3.25717 z m 4.74752,0 h 3.25716 v 3.52485 h -3.25716 z m 4.76043,0 h 3.25717 v 3.52485 h -3.25717 z m 4.7439,0 h 3.25716 v 3.52485 h -3.25716 z m 4.71082,0 h 3.25717 v 3.52485 h -3.25717 z m 4.77749,0 h 3.25716 v 3.52485 h -3.25716 z m 4.67723,0 h 3.25717 v 3.52485 h -3.25717 z m -43.20356,5.412073 -0.01654,21.072616 -6.21409,0.01757 -0.0062,-21.067965 z m 47.625,0 -0.01654,21.072616 -6.21409,0.01757 -0.0062,-21.067965 z m -25.33696,0.0186 h 15.92203 v 21.072098 h -15.92203 z m -19.15439,0.0047 h 16.0166 v 21.072098 h -16.0166 z m -7.6047,22.733496 h 3.25768 v 3.524849 h -3.25768 z m 4.7439,0 h 3.25768 v 3.524849 h -3.25768 z m 4.9444,0 h 3.25768 v 3.524849 h -3.25768 z m 4.67723,0 h 3.25768 v 3.524849 h -3.25768 z m 4.81108,0 h 3.25768 v 3.524849 h -3.25768 z m 4.74751,0 h 3.25768 v 3.524849 h -3.25768 z m 4.76044,0 h 3.25768 v 3.524849 h -3.25768 z m 4.74389,0 h 3.25768 v 3.524849 h -3.25768 z m 4.71083,0 h 3.25768 v 3.524849 h -3.25768 z m 4.77748,0 h 3.25768 v 3.524849 h -3.25768 z m 4.67724,0 h 3.25768 v 3.524849 h -3.25768 z"
           inkscape:label="cell" /></g><path
         id="path31"
         style="fill:url(#linearGradient32);stroke-width:5.66801;stroke-linecap:round;stroke-linejoin:round"
         inkscape:label="bg"
         d="m 31.270535,63.209244 h 55.59206 v 23.118814 h -55.59206 z" /><path
         id="path32"
         style="fill:#000000;fill-opacity:1;stroke-width:5.66801;stroke-linecap:round;stroke-linejoin:round"
         d="m 32.673846,55.324788 c -1.07349,0 -1.93787,0.864381 -1.93787,1.937867 v 34.677986 c 0,1.073486 0.86438,1.937866 1.93787,1.937866 h 52.65208 c 1.07349,0 1.93735,-0.86438 1.93735,-1.937866 V 57.262655 c 0,-1.073486 -0.86386,-1.937867 -1.93735,-1.937867 z m 1.34979,3.302124 h 3.25716 v 3.52485 h -3.25716 z m 4.74389,0 h 3.25717 v 3.52485 h -3.25717 z m 4.9444,0 h 3.25717 v 3.52485 h -3.25717 z m 4.67724,0 h 3.25716 v 3.52485 h -3.25716 z m 4.81107,0 h 3.25717 v 3.52485 h -3.25717 z m 4.74752,0 h 3.25716 v 3.52485 h -3.25716 z m 4.76043,0 h 3.25717 v 3.52485 h -3.25717 z m 4.7439,0 h 3.25716 v 3.52485 h -3.25716 z m 4.71082,0 h 3.25717 v 3.52485 h -3.25717 z m 4.77749,0 h 3.25716 v 3.52485 h -3.25716 z m 4.67723,0 h 3.25717 v 3.52485 h -3.25717 z m -43.20356,5.412073 -0.01654,21.072616 -6.21409,0.01757 -0.0062,-21.067965 z m 47.625,0 -0.01654,21.072616 -6.21409,0.01757 -0.0062,-21.067965 z m -25.33696,0.0186 h 15.92203 v 21.072098 h -15.92203 z m -19.15439,0.0047 h 16.0166 v 21.072098 h -16.0166 z m -7.6047,22.733496 h 3.25768 v 3.524849 h -3.25768 z m 4.7439,0 h 3.25768 v 3.524849 h -3.25768 z m 4.9444,0 h 3.25768 v 3.524849 h -3.25768 z m 4.67723,0 h 3.25768 v 3.524849 h -3.25768 z m 4.81108,0 h 3.25768 v 3.524849 h -3.25768 z m 4.74751,0 h 3.25768 v 3.524849 h -3.25768 z m 4.76044,0 h 3.25768 v 3.524849 h -3.25768 z m 4.74389,0 h 3.25768 v 3.524849 h -3.25768 z m 4.71083,0 h 3.25768 v 3.524849 h -3.25768 z m 4.77748,0 h 3.25768 v 3.524849 h -3.25768 z m 4.67724,0 h 3.25768 v 3.524849 h -3.25768 z"
         inkscape:label="cell" /></g></g><g
     id="g5"
     transform="matrix(0.26931671,0,0,0.26931671,15.06503,37.95946)"><g
       id="g10"><path
         id="path6-3"
         style="fill:#474747;fill-opacity:0.285519;stroke:none;stroke-width:20.4216;stroke-linecap:round;stroke-linejoin:round"
         d="m 886.1711,225.26342 c 0,48.74101 -25.59864,107.29727 -76.52884,138.21724 -87.05704,52.85274 -123.67292,48.46287 -123.67292,48.46287 6.61911,70.49891 -110.07169,111.36038 -192.99672,118.28465 -5.35973,0.44754 -28.80897,4.58235 -24.12457,-5.66358 4.6844,-10.24592 59.7968,-77.26183 63.80305,-113.74168 0,0 -75.84769,-20.64284 -120.9402,-60.75033 -45.09251,-40.10749 -81.4045,-76.06816 -81.4045,-124.80917 0,-97.48202 124.43455,-176.50681 277.93235,-176.50681 153.4978,0 277.93235,79.02479 277.93235,176.50681 z"
         sodipodi:nodetypes="sscszczsss" /><path
         id="path7-5"
         style="fill:#474747;fill-opacity:0.285519;stroke:none;stroke-width:20.0733;stroke-linecap:round;stroke-linejoin:round"
         d="m 876.69016,221.39099 c 0,47.90967 -25.16202,105.46718 -75.22355,135.85978 -85.57217,51.95127 -121.56353,47.63627 -121.56353,47.63627 6.50622,69.29647 -108.19428,109.461 -189.70493,116.26717 -5.26831,0.4399 -28.3176,4.50419 -23.71309,-5.56698 4.6045,-10.07117 58.77689,-75.94404 62.71481,-111.80168 0,0 -74.55402,-20.29076 -118.87742,-59.71416 -44.3234,-39.42341 -80.01605,-74.77073 -80.01605,-122.6804 0,-95.81935 122.31217,-173.496283 273.19188,-173.496283 150.87971,0 273.19188,77.676933 273.19188,173.496283 z"
         sodipodi:nodetypes="sscszczsss" /><path
         id="path8"
         style="fill:#474747;fill-opacity:0.285519;stroke:none;stroke-width:19.818;stroke-linecap:round;stroke-linejoin:round"
         d="m 869.74193,219.18468 c 0,47.30041 -24.84204,104.12598 -74.26695,134.13208 -84.48397,51.29062 -120.01764,47.03049 -120.01764,47.03049 6.42348,68.41525 -106.8184,108.06901 -187.2925,114.78863 -5.20131,0.43431 -20.03454,4.44691 -15.48858,-5.49618 4.54594,-9.9431 58.02944,-74.97828 61.91728,-110.37993 0,0 -81.52888,-20.03273 -125.28863,-58.95479 -43.75975,-38.92207 -78.99851,-73.81989 -78.99851,-121.1203 0,-94.60084 120.75676,-171.289973 269.71776,-171.289973 148.96101,0 269.71777,76.689133 269.71777,171.289973 z"
         sodipodi:nodetypes="sscszczsss" /><path
         id="path9"
         style="fill:#474747;fill-opacity:0.285519;stroke:none;stroke-width:19.5627;stroke-linecap:round;stroke-linejoin:round"
         d="m 862.7937,216.97837 c 0,46.69115 -24.52206,102.78478 -73.31035,132.40438 -83.39577,50.62997 -118.47175,46.42471 -118.47175,46.42471 6.34074,67.53403 -105.44252,106.67702 -184.88006,113.31009 -5.13432,0.42872 -19.06498,3.17071 -14.57757,-6.6443 4.48738,-9.81503 56.67253,-78.88818 60.51029,-113.83384 0,0 -70.22002,-20.99361 -117.68231,-52.7103 -47.4623,-31.71668 -84.07555,-72.25959 -84.07555,-118.95074 0,-93.38233 119.20135,-169.083663 266.24364,-169.083663 147.04231,0 266.24366,75.701333 266.24366,169.083663 z"
         sodipodi:nodetypes="sscszczsss" /><path
         id="path10"
         style="fill:#474747;fill-opacity:0.285519;stroke:none;stroke-width:19.3074;stroke-linecap:round;stroke-linejoin:round"
         d="m 855.84547,214.77206 c 0,46.08189 -24.20208,101.44358 -72.35375,130.67668 -82.30757,49.96932 -116.92586,45.81893 -116.92586,45.81893 6.258,66.65281 -104.06664,105.28503 -182.46763,111.83155 -5.06732,0.42313 -17.75634,9.50377 -13.32748,-0.18316 4.42882,-9.68696 56.53454,-73.04676 60.32222,-107.53643 0,0 -81.1907,-24.68809 -123.82315,-62.60747 -42.63244,-37.91939 -76.96342,-71.91821 -76.96342,-118.0001 0,-92.16382 117.64594,-166.877353 262.76952,-166.877353 145.12361,0 262.76955,74.713533 262.76955,166.877353 z"
         sodipodi:nodetypes="sscszczsss" /></g><path
       id="path1-6"
       style="fill:url(#linearGradient4);stroke:url(#linearGradient2);stroke-width:18.8976;stroke-linecap:round;stroke-linejoin:round"
       d="m 855.67856,213.31018 c 0,45.10362 -28.2001,86.88254 -75.32954,115.49505 -80.56024,48.90851 -126.85106,45.9742 -126.85106,45.9742 18.53261,76.51731 -176.90206,128.63261 -176.90206,128.63261 26.00928,-33.4246 55.80971,-59.89874 63.22426,-127.41369 0,0 -99.9231,-32.41424 -123.19432,-47.19312 C 370.0834,299.24747 341.2963,258.4138 341.2963,213.31018 c 0,-90.20724 115.14839,-163.334655 257.19113,-163.334655 142.04274,0 257.19113,73.127415 257.19113,163.334655 z"
       sodipodi:nodetypes="sscccssss" /><path
       id="rect5"
       style="fill:#fefefe;stroke-width:18.8976;stroke-linecap:round;stroke-linejoin:round"
       d="M 390.66237,290.40658 C 261.93714,133.18669 530.36409,27.1737 703.31417,76.791666 c 41.57457,18.147498 25.8968,30.395024 -7.3135,20.721559 -122.44359,-35.665261 -379.74965,8.752145 -292.53969,186.494045 10.37692,22.00355 -4.13736,20.07469 -12.79861,6.39931 z"
       sodipodi:nodetypes="ccscc" /><path
       id="rect6"
       style="fill:#cf9126;fill-opacity:1;stroke-width:18.8976;stroke-linecap:round;stroke-linejoin:round"
       d="m 505.93722,491.28488 c 40.61008,-39.47683 112.48894,-66.48361 117.92018,-118.37651 -1.14838,-13.55457 3.49704,-23.89036 31.35173,-21.33211 0,0 19.38181,-6.2425 61.54372,-27.43565 42.16191,-21.19315 49.66822,-15.04828 87.07969,-61.47558 37.41147,-46.4273 24.81352,-107.75323 24.81352,-107.75323 21.00424,31.74678 24.10542,71.56754 10.12473,100.52899 -13.98069,28.96146 -48.27043,60.91882 -92.11908,81.39759 -43.84865,20.47877 -56.91575,24.41015 -87.79688,33.72776 -5.56513,1.67914 -8.95805,8.07735 -9.74607,14.46117 -5.20229,42.14402 -63.01454,62.73146 -63.01454,62.73146 z"
       sodipodi:nodetypes="ccczzczzsscc" /><rect
       style="fill:#d3a514;fill-opacity:1;stroke:none;stroke-width:17.4263;stroke-linecap:round;stroke-linejoin:round"
       id="rect10"
       width="277.53287"
       height="36.19994"
       x="460.25638"
       y="134.45691" /><rect
       style="fill:#d3a514;fill-opacity:1;stroke:none;stroke-width:16.3658;stroke-linecap:round;stroke-linejoin:round"
       id="rect12"
       width="244.78053"
       height="36.19994"
       x="460.25638"
       y="193.06633" /><rect
       style="fill:#d3a514;fill-opacity:1;stroke:none;stroke-width:14.7279;stroke-linecap:round;stroke-linejoin:round"
       id="rect13"
       width="198.23775"
       height="36.19994"
       x="460.25638"
       y="255.12337" /></g><g
     id="g1"
     transform="matrix(0.58691982,0,0,0.58691982,9.7426687,4.0198953)"
     style="display:none"><g
       id="g24"
       style="display:inline"
       inkscape:label="xpspeaker"><g
         id="g34"
         inkscape:label="shadow"><path
           id="rect32"
           style="fill:#404040;fill-opacity:0.130536;stroke-width:4.50001;stroke-linecap:square;stroke-linejoin:round"
           d="m 50.022082,26.44351 23.107966,3.034698 c 0,0 19.39567,-25.972003 60.673522,-24.9424952 30.12108,0.7512474 61.70004,22.1506502 70.39807,64.6339292 5.61083,27.404684 0.72862,60.134888 -12.56771,85.800598 -10.59691,20.45505 -28.90739,38.55053 -50.08185,47.625 -20.20156,8.65753 -41.36794,16.39742 -65.854817,3.26259 C 39.30281,186.33575 34.653804,147.53072 34.77381,126.24405 L 19.087798,115.94419 C -26.624769,85.928099 21.914383,21.670036 50.022082,26.44351 Z"
           sodipodi:nodetypes="ccssaascsc" /><path
           id="path32-6"
           style="fill:#757575;fill-opacity:0.56993;stroke-width:4.45875;stroke-linecap:square;stroke-linejoin:round"
           d="m 49.13753,27.645932 23.325512,1.582518 c 0,0 19.216089,-25.807551 60.115438,-24.7874833 29.84489,0.7443588 61.13602,22.0212383 69.75429,64.1149663 5.55938,27.153396 0.72194,59.583477 -12.45247,85.013847 -10.49974,20.26749 -28.36713,38.86847 -49.62262,47.1883 -19.49382,7.63028 -41.150226,11.22098 -62.795632,-0.88432 C 41.74686,179.89988 34.008878,143.41091 34.222277,124.06757 L 20.9371,115.38358 C -24.417948,85.736816 20.059142,23.246957 49.13753,27.645932 Z"
           sodipodi:nodetypes="ccssaascsc" /><path
           id="path33"
           style="fill:#7b7b7b;fill-opacity:0.604895;stroke-width:4.42161;stroke-linecap:square;stroke-linejoin:round"
           d="m 49.656263,27.782801 22.206474,1.220867 c 0,0 19.432441,-25.3855116 59.991143,-24.37394 29.59632,0.7381591 60.25042,21.630735 68.79691,63.373867 5.51307,26.927237 0.71593,59.087215 -12.34876,84.305775 -10.41228,20.09868 -28.07298,38.69414 -49.20931,46.79527 -19.08329,7.31424 -43.200672,8.3518 -61.286491,-1.73111 -35.44414,-19.7602 -43.654905,-57.38225 -43.064521,-74.23482 0,0 -12.927573,-7.23833 -18.442725,-12.1011 -31.151311,-27.466436 0.06963,-83.125923 33.35728,-83.254809 z"
           sodipodi:nodetypes="ccssaascsc" /><path
           id="path34"
           style="fill:#686868;fill-opacity:0.606061;stroke-width:4.3886;stroke-linecap:square;stroke-linejoin:round"
           d="m 47.210257,27.202452 24.118876,1.60141 c 0,0 18.154847,-25.1783551 58.410747,-24.1743356 29.37537,0.7326483 60.93313,21.4516106 69.41582,62.8831016 5.47191,26.726207 0.71058,58.646092 -12.25657,83.676372 -10.33455,19.94863 -27.80442,38.56085 -48.84193,46.44591 -18.71404,7.0142 -41.949692,7.42731 -59.900488,-2.58033 C 42.977186,175.44191 35.978835,139.20897 35.481658,122.32356 L 21.27444,113.06039 C -17.337585,87.885176 18.192041,29.350729 47.210257,27.202452 Z"
           sodipodi:nodetypes="ccssaascsc" /></g><path
         id="rect1-1"
         style="display:inline;fill:url(#linearGradient2-8);stroke:url(#linearGradient35);stroke-width:5;stroke-linecap:square;stroke-linejoin:round;stroke-dasharray:none;stroke-opacity:1"
         d="m 48.576236,29.566689 c 11.045189,1.062353 20.815449,4.3103 30.105275,8.381845 L 51.467226,124.93583 28.56443,113.68977 C -10.685587,92.518215 13.817359,28.142127 48.576236,29.566689 Z"
         sodipodi:nodetypes="ccccc" /><path
         style="color:#000000;display:inline;fill:url(#radialGradient8);stroke-linecap:square;stroke-linejoin:round;-inkscape-stroke:none"
         d="M 194.24857,121.48684 A 78.176338,97.553383 12.748807 0 1 96.471715,199.38351 78.176338,97.553383 12.748807 0 1 41.750469,86.983385 78.176338,97.553383 12.748807 0 1 139.52732,9.0867231 78.176338,97.553383 12.748807 0 1 194.24857,121.48684 Z"
         id="path29-2"
         inkscape:label="innershadow1" /><ellipse
         style="display:inline;fill:url(#radialGradient25);stroke:none;stroke-width:6;stroke-linecap:square;stroke-linejoin:round;stroke-dasharray:none;stroke-opacity:1"
         id="ellipse24"
         cx="138.09277"
         cy="75.625603"
         rx="78.176338"
         ry="97.553383"
         transform="rotate(12.748807)"
         inkscape:label="innershadow2" /><path
         style="color:#000000;fill:url(#linearGradient13);stroke-linecap:square;stroke-linejoin:round;-inkscape-stroke:none"
         d="m 127.58789,-9.0292969 c -34.328479,-7e-7 -61.578124,34.7937279 -61.578124,77.0312499 10e-7,42.237517 27.249646,77.031247 61.578124,77.031247 34.32848,0 61.58008,-34.79373 61.58008,-77.031247 0,-42.237521 -27.2516,-77.0312484 -61.58008,-77.0312499 z m 0,4.9375 c 30.9619,1.3e-6 56.64063,31.9719679 56.64063,72.0937499 -1e-5,40.121777 -25.67873,72.093747 -56.64063,72.093747 -30.961898,0 -56.63867,-31.97196 -56.638671,-72.093747 0,-40.121783 25.676773,-72.0937505 56.638671,-72.0937499 z"
         id="path11"
         transform="matrix(0.9726351,0.23233804,-0.27152068,0.96243261,0,0)" /><ellipse
         style="display:inline;fill:url(#radialGradient15);fill-opacity:1;stroke:url(#linearGradient17-9);stroke-width:4.51032;stroke-linecap:square;stroke-linejoin:round;stroke-dasharray:none"
         id="path13"
         cx="104.4964"
         cy="94.833054"
         rx="37.554234"
         ry="48.128498"
         transform="matrix(1,0,-0.09550912,0.99542855,0,0)" /><path
         style="color:#000000;fill:url(#linearGradient31);stroke-linecap:square;stroke-linejoin:round;-inkscape-stroke:none"
         d="m 137.69605,-26.071306 c -45.198743,2e-6 -79.612673,44.051052 -79.557453,99.22749 0.05425,54.205106 34.681867,100.133456 79.880613,100.133456 45.19874,0 78.19517,-42.5761 79.72811,-97.731269 1.54594,-55.623129 -34.85253,-101.629679 -80.05127,-101.629677 z m -1.83714,6.963713 c 41.15237,-2e-6 76.51271,41.849914 75.88841,94.665964 C 211.12588,128.13262 174.66634,165.79002 138.35157,165.7612 97.199206,165.72854 63.935082,121.80679 64.138597,73.156184 64.358539,20.57873 94.706531,-19.107591 135.85891,-19.107593 Z"
         id="path30-9"
         inkscape:label="framehead"
         transform="rotate(12.748807)"
         sodipodi:nodetypes="ssssssssss" /></g><g
       id="g37"
       inkscape:label="loud1"
       style="display:none"><g
         id="g41"
         inkscape:label="shadow"><path
           style="color:#000000;fill:#65656d;fill-opacity:0.149184;stroke-width:1.06278;stroke-linecap:round;stroke-linejoin:round;-inkscape-stroke:none"
           d="m 216.59706,121.79441 c -3.1315,-0.72477 -8.25674,0.18083 -8.97525,3.34176 -15.26087,48.70519 -30.38758,71.40272 -78.86004,83.01742 -3.15959,0.59074 -5.24643,3.65529 -4.66093,6.84465 0.58525,3.18843 2.28342,11.70911 9.05037,9.78303 53.6457,-9.79988 80.65536,-38.65388 90.08725,-90.87016 1.922,-7.30442 -3.50903,-11.39144 -6.6414,-12.1167 z"
           id="path41"
           sodipodi:nodetypes="ccccccc" /><path
           style="color:#000000;fill:#65656d;fill-opacity:0.278555;stroke-width:1.06278;stroke-linecap:round;stroke-linejoin:round;-inkscape-stroke:none"
           d="m 216.59706,121.79441 c -3.1315,-0.72477 -7.3213,0.58173 -8.03981,3.74266 -15.26087,48.70519 -30.78848,72.0709 -79.26094,83.6856 -3.15959,0.59074 -5.78097,2.58621 -5.19547,5.77557 0.58525,3.18843 3.21886,10.77367 9.98581,8.84759 53.28307,-9.95853 76.16819,-38.95494 87.81546,-90.20199 1.922,-7.30442 -2.17268,-11.12417 -5.30505,-11.84943 z"
           id="path42"
           sodipodi:nodetypes="ccccccc" /><path
           style="color:#000000;fill:#65656d;fill-opacity:0.440559;stroke-width:1.06278;stroke-linecap:round;stroke-linejoin:round;-inkscape-stroke:none"
           d="m 216.73069,122.59622 c -3.1315,-0.72477 -7.05403,0.0472 -7.77254,3.20812 -15.26087,48.70519 -29.58576,71.80363 -78.05822,83.41833 -3.15959,0.59074 -7.38459,2.58621 -6.79909,5.77557 0.58525,3.18843 4.1543,9.57096 10.92125,7.64488 52.6149,-12.49759 74.43094,-37.75223 86.07821,-88.99928 1.922,-7.30442 -1.23724,-10.32236 -4.36961,-11.04762 z"
           id="path43"
           sodipodi:nodetypes="ccccccc" /><path
           style="color:#000000;fill:#65656d;fill-opacity:0.505827;stroke-width:1.06278;stroke-linecap:round;stroke-linejoin:round;-inkscape-stroke:none"
           d="m 216.44721,123.25768 c -3.1315,-0.72477 -6.25116,-0.50396 -7.20558,2.59391 -15.02784,48.77759 -29.86924,71.75638 -78.3417,83.37108 -3.15959,0.59074 -6.62864,2.82245 -6.04314,6.01181 0.58525,3.18843 4.1543,8.72051 10.92125,6.79443 52.16831,-12.83253 71.97905,-37.84302 84.56631,-88.38507 1.922,-7.30442 -0.76477,-9.6609 -3.89714,-10.38616 z"
           id="path44"
           sodipodi:nodetypes="csccccc" /><path
           style="color:#000000;fill:#68686f;fill-opacity:0.268065;stroke-width:1.06278;stroke-linecap:round;stroke-linejoin:round;-inkscape-stroke:none"
           d="m 216.44721,123.25768 c -3.1315,-0.72477 -5.82594,-0.31497 -6.78036,2.7829 -15.02784,48.77759 -30.05822,71.94537 -78.53068,83.56007 -3.15959,0.59074 -6.86488,2.44447 -6.27938,5.63383 0.58525,3.18843 4.65543,7.98552 11.42238,6.05944 51.85963,-12.90427 70.00747,-39.63323 83.82894,-87.69733 1.922,-7.30442 -0.52853,-9.61365 -3.6609,-10.33891 z"
           id="path45"
           sodipodi:nodetypes="csccccc" /></g><path
         style="color:#000000;fill:#605dd4;stroke-linecap:round;stroke-linejoin:round;-inkscape-stroke:none"
         d="m 215.9082,123.29688 a 5.5,5.5 0 0 0 -6.58984,4.13085 c -10.43143,45.46838 -32.72278,73.78546 -79.30469,82.41016 a 5.5,5.5 0 0 0 -4.40625,6.41016 5.5,5.5 0 0 0 6.4082,4.40625 c 50.37166,-9.32638 77.01258,-42.77164 88.02344,-90.76563 a 5.5,5.5 0 0 0 -4.13086,-6.59179 z"
         id="path37" /><path
         style="color:#000000;fill:#cbcaff;fill-opacity:1;stroke-linecap:round;stroke-linejoin:round;-inkscape-stroke:none"
         d="m 215.9082,123.29688 c -2.96039,-0.67876 -5.91059,1.17057 -6.58984,4.13085 -10.43143,45.46838 -32.72278,73.78546 -79.30469,82.41016 -2.98695,0.55325 -4.95975,3.42326 -4.40625,6.41016 0.55328,2.98603 0.94974,-0.45366 3.93596,-1.00596 50.37166,-9.32638 74.13943,-40.43303 85.15029,-88.42702 0.67999,-2.96105 4.17576,-2.83897 1.21453,-3.51819 z"
         id="path39"
         sodipodi:nodetypes="ccccccc" /></g><g
       id="g38"
       style="display:none"
       inkscape:label="loud2"><g
         id="g46"
         inkscape:label="shadow"
         style="display:inline"><path
           style="color:#000000;fill:#565658;fill-opacity:0.10373;stroke-linecap:round;stroke-linejoin:round;-inkscape-stroke:none"
           d="m 242.875,124.56268 c -3.564,-0.43161 -9.34878,0.58377 -10.25819,7.56177 -4.00255,30.71188 -21.05099,60.62944 -36.36718,74.29482 -18.68591,16.67191 -44.07701,26.54492 -62.00018,27.53078 -3.58448,0.19736 -10.22996,1.84054 -10.10157,9.49349 0.0843,5.02541 4.20812,10.58249 11.19438,10.76302 24.61221,-0.59138 55.66696,-8.20029 77.62874,-25.95591 21.96177,-17.75561 38.9409,-52.05222 40.67855,-93.57152 0.80959,-6.58781 -7.21052,-9.6851 -10.77455,-10.11645 z"
           id="path46"
           sodipodi:nodetypes="csscscscc" /><path
           style="color:#000000;fill:#565658;fill-opacity:0.106061;stroke-linecap:round;stroke-linejoin:round;-inkscape-stroke:none"
           d="m 242.74137,125.56494 c -3.564,-0.43161 -8.07925,0.78422 -8.98866,7.76222 -4.00255,30.71188 -21.66717,60.18268 -36.98336,73.84806 -18.68591,16.67191 -44.59673,26.35593 -62.5199,27.34179 -3.58448,0.19736 -9.00154,1.03734 -8.87315,8.69029 0.0843,5.02541 3.26318,9.6848 10.24944,9.86533 20.87043,-0.72502 53.25679,-7.91819 75.21857,-25.67381 21.96177,-17.75561 39.39715,-49.86404 41.93661,-91.38334 0.80959,-6.58781 -6.47552,-10.01919 -10.03955,-10.45054 z"
           id="path47"
           sodipodi:nodetypes="csscscscc" /><path
           style="color:#000000;fill:#565658;fill-opacity:0.2331;stroke-linecap:round;stroke-linejoin:round;-inkscape-stroke:none"
           d="m 242.70796,126.09948 c -3.564,-0.43161 -7.44448,0.81763 -8.35389,7.79563 -4.00255,30.71188 -21.79606,60.18169 -37.11225,73.84707 -18.68591,16.67191 -44.43137,26.09608 -62.35454,27.08194 -3.58448,0.19736 -8.55269,0.73023 -8.4243,8.38318 0.0843,5.02541 2.48361,8.59812 9.46987,8.77865 21.1377,-0.19048 52.05674,-8.63026 74.01852,-26.38588 21.96177,-17.75561 38.78669,-47.86484 41.92751,-89.38414 0.80959,-6.58781 -5.60689,-9.6851 -9.17092,-10.11645 z"
           id="path48"
           sodipodi:nodetypes="csscscscc" /><path
           style="color:#000000;fill:#565658;fill-opacity:0.2331;stroke-linecap:round;stroke-linejoin:round;-inkscape-stroke:none"
           d="m 242.64114,126.63402 c -3.564,-0.43161 -6.7763,0.41672 -7.68571,7.39472 -4.00255,30.71188 -21.89629,60.74964 -37.21248,74.41502 -18.68591,16.67191 -44.9325,25.3945 -62.85567,26.38036 -3.58448,0.19736 -7.44842,1.40077 -7.05414,9.04464 0.1788,3.46626 2.34187,6.75548 9.32813,6.93601 20.46953,-1.12592 49.69242,-8.65179 71.6542,-26.40741 21.96177,-17.75561 39.35465,-47.12985 42.49547,-88.64915 0.80959,-6.58781 -5.10577,-8.68284 -8.6698,-9.11419 z"
           id="path49"
           sodipodi:nodetypes="csscscscc" /><path
           style="color:#000000;fill:#565658;fill-opacity:0.2331;stroke-linecap:round;stroke-linejoin:round;-inkscape-stroke:none"
           d="m 242.64114,126.63402 c -3.564,-0.43161 -6.7763,0.41672 -7.68571,7.39472 -4.00255,30.71188 -17.01862,56.13924 -37.21248,74.41502 -18.56739,16.8038 -44.9325,25.3945 -62.85567,26.38036 -3.58448,0.19736 -8.45808,2.76854 -5.92021,9.98958 1.21823,3.46626 2.81434,4.29864 9.8006,4.47917 20.46953,-1.12592 46.95012,-10.07985 68.9119,-27.83547 21.96177,-17.75561 38.82012,-44.25671 41.96094,-85.77601 0.80959,-6.58781 -3.43534,-8.61602 -6.99937,-9.04737 z"
           id="path50"
           sodipodi:nodetypes="csscscscc" /></g><path
         style="color:#000000;fill:#605dd4;stroke-linecap:round;stroke-linejoin:round;-inkscape-stroke:none"
         d="m 242.875,127.01953 a 6.5,6.5 0 0 0 -7.23438,5.67188 c -4.67354,38.57161 -20.862,63.27528 -40.33593,79.01953 -19.47394,15.74425 -42.56511,22.38718 -60.48828,23.37304 a 6.5,6.5 0 0 0 -6.13282,6.84766 6.5,6.5 0 0 0 6.84766,6.13281 c 20.46953,-1.12592 45.98549,-8.48852 67.94727,-26.24414 21.96177,-17.75561 40.03765,-46.0471 45.06835,-87.5664 a 6.5,6.5 0 0 0 -5.67187,-7.23438 z"
         id="path38" /><path
         style="color:#000000;fill:#cbcaff;fill-opacity:1;stroke-linecap:round;stroke-linejoin:round;-inkscape-stroke:none"
         d="m 242.875,127.01953 c -3.56401,-0.43162 -6.80304,2.10784 -7.23438,5.67188 -4.67354,38.57161 -20.862,63.27528 -40.33593,79.01953 -19.47394,15.74425 -42.56511,22.38718 -60.48828,23.37304 -3.58448,0.19736 -6.33026,3.26318 -6.13282,6.84766 0.19736,3.58448 2.03477,-1.41826 5.61924,-1.6157 20.46953,-1.12592 42.01674,-6.31516 63.97852,-24.07078 21.96177,-17.75561 37.34457,-42.9288 42.37527,-84.4481 0.43161,-3.564 5.78241,-4.34618 2.21838,-4.77753 z"
         id="path40"
         sodipodi:nodetypes="ccscccscc" /></g><g
       id="g54"
       inkscape:label="stopt"
       style="display:none"><g
         id="g55"
         inkscape:label="shadow"><circle
           style="fill:#7d7d7d;fill-opacity:0.282051;stroke:none;stroke-width:22.5745;stroke-linecap:round;stroke-linejoin:round;stroke-dasharray:none;stroke-opacity:1"
           id="circle54"
           cx="181.47601"
           cy="186.55412"
           r="68.420998" /><circle
           style="fill:#7d7d7d;fill-opacity:0.282051;stroke:none;stroke-width:22.31;stroke-linecap:round;stroke-linejoin:round;stroke-dasharray:none;stroke-opacity:1"
           id="circle55"
           cx="180.67421"
           cy="185.75232"
           r="67.619186" /><circle
           style="fill:#616161;fill-opacity:0.282051;stroke:none;stroke-width:22.0014;stroke-linecap:round;stroke-linejoin:round;stroke-dasharray:none;stroke-opacity:1"
           id="circle56"
           cx="179.73877"
           cy="184.81688"
           r="66.683746" /><circle
           style="fill:#595959;fill-opacity:0.282051;stroke:none;stroke-width:21.7148;stroke-linecap:round;stroke-linejoin:round;stroke-dasharray:none;stroke-opacity:1"
           id="circle57"
           cx="178.87015"
           cy="183.94826"
           r="65.815117" /><circle
           style="fill:#545454;fill-opacity:0.438228;stroke:none;stroke-width:21.4282;stroke-linecap:round;stroke-linejoin:round;stroke-dasharray:none;stroke-opacity:1"
           id="circle58"
           cx="178.00153"
           cy="183.07964"
           r="64.946487" /><circle
           style="fill:#464646;fill-opacity:0.282051;stroke:none;stroke-width:21.2739;stroke-linecap:round;stroke-linejoin:round;stroke-dasharray:none;stroke-opacity:1"
           id="circle59"
           cx="177.5338"
           cy="182.61191"
           r="64.478767" /></g><circle
         style="display:inline;fill:#ffffff;fill-opacity:1;stroke:none;stroke-width:19.4;stroke-linecap:round;stroke-linejoin:round;stroke-dasharray:none;stroke-opacity:1"
         id="path54"
         cx="175.32881"
         cy="181.476"
         r="58.799297"
         inkscape:label="wbackground" /><path
         id="path53"
         style="color:#000000;display:inline;fill:#a51f0d;fill-opacity:1;stroke-linecap:round;stroke-linejoin:round;-inkscape-stroke:none"
         d="m 177.46669,120.19318 c -14.5184,0 -27.89974,5.02967 -38.52117,13.41572 a 9.6999998,9.6999998 0 0 0 -3.05872,1.96319 9.6999998,9.6999998 0 0 0 -1.39268,1.90272 c -11.91847,11.37093 -19.37867,27.37845 -19.37867,45.07012 0,34.32116 28.03008,62.35176 62.35124,62.35175 17.14094,0 32.71201,-6.99262 44.00661,-18.26762 a 9.6999998,9.6999998 0 0 0 2.9192,-1.92185 9.6999998,9.6999998 0 0 0 2.50114,-4.26485 c 8.09224,-10.51938 12.9248,-23.66292 12.9248,-37.89743 0,-34.32116 -28.03061,-62.35175 -62.35175,-62.35175 z m 0,19.40037 c 23.83663,0 42.95345,19.11474 42.95345,42.95138 0,7.09624 -1.7053,13.76765 -4.71393,19.64738 l -57.61405,-58.02437 c 5.81293,-2.92195 12.38778,-4.57439 19.37453,-4.57439 z m -34.32917,17.04702 59.99168,60.41905 c -7.14584,5.30644 -16.01703,8.43824 -25.66251,8.43824 -23.83664,0 -42.95087,-19.11629 -42.95087,-42.95293 0,-9.75562 3.20492,-18.71733 8.6217,-25.90436 z" /><path
         id="path51"
         style="color:#000000;display:inline;fill:#f52e14;stroke-linecap:round;stroke-linejoin:round;-inkscape-stroke:none"
         d="m 173.23333,117.54733 c -14.5184,0 -27.89974,5.02967 -38.52117,13.41572 a 9.6999998,9.6999998 0 0 0 -3.05872,1.96319 9.6999998,9.6999998 0 0 0 -1.39268,1.90272 c -11.91847,11.37093 -19.37867,27.37845 -19.37867,45.07012 0,34.32116 28.03008,62.35176 62.35124,62.35175 17.14094,0 32.71201,-6.99262 44.00661,-18.26762 a 9.6999998,9.6999998 0 0 0 2.9192,-1.92185 9.6999998,9.6999998 0 0 0 2.50114,-4.26485 c 8.09224,-10.51938 12.9248,-23.66292 12.9248,-37.89743 0,-34.32116 -28.03061,-62.35175 -62.35175,-62.35175 z m 0,19.40037 c 23.83663,0 42.95345,19.11474 42.95345,42.95138 0,7.09624 -1.7053,13.76765 -4.71393,19.64738 L 153.8588,141.52209 c 5.81293,-2.92195 12.38778,-4.57439 19.37453,-4.57439 z m -34.32917,17.04702 59.99168,60.41905 c -7.14584,5.30644 -16.01703,8.43824 -25.66251,8.43824 -23.83664,0 -42.95087,-19.11629 -42.95087,-42.95293 0,-9.75562 3.20492,-18.71733 8.6217,-25.90436 z" /></g><path
       id="rect59"
       style="display:none;fill:#ff4c00;fill-opacity:1;stroke-width:19.4;stroke-linecap:round;stroke-linejoin:round"
       d="m 198.4375,1.8898809 h 44.22321 L 45.735118,229.80953 H 1.5119047 Z"
       sodipodi:nodetypes="ccccc"
       inkscape:label="off" /></g></svg>
