<?xml version="1.0" encoding="UTF-8" standalone="no"?>
<!-- Created with Inkscape (http://www.inkscape.org/) -->

<svg
   width="256mm"
   height="256mm"
   viewBox="0 0 256 256"
   version="1.1"
   id="svg1"
   inkscape:version="1.3.2 (091e20ef0f, 2023-11-25)"
   xml:space="preserve"
   sodipodi:docname="application-x-flash-video.svg"
   xmlns:inkscape="http://www.inkscape.org/namespaces/inkscape"
   xmlns:sodipodi="http://sodipodi.sourceforge.net/DTD/sodipodi-0.dtd"
   xmlns:xlink="http://www.w3.org/1999/xlink"
   xmlns="http://www.w3.org/2000/svg"
   xmlns:svg="http://www.w3.org/2000/svg"
   xmlns:rdf="http://www.w3.org/1999/02/22-rdf-syntax-ns#"
   xmlns:cc="http://creativecommons.org/ns#"
   xmlns:dc="http://purl.org/dc/elements/1.1/"><defs
     id="defs1"><linearGradient
       id="linearGradient26"
       inkscape:collect="always"><stop
         style="stop-color:#7b91c4;stop-opacity:1;"
         offset="0"
         id="stop26" /><stop
         style="stop-color:#5c5e91;stop-opacity:1"
         offset="1"
         id="stop27" /></linearGradient><linearGradient
       id="linearGradient24"
       inkscape:collect="always"><stop
         style="stop-color:#c7fafe;stop-opacity:1;"
         offset="0"
         id="stop24" /><stop
         style="stop-color:#9acdff;stop-opacity:1"
         offset="1"
         id="stop25" /></linearGradient><linearGradient
       id="linearGradient22"
       inkscape:collect="always"><stop
         style="stop-color:#adaeae;stop-opacity:0.8253752;"
         offset="0"
         id="stop22" /><stop
         style="stop-color:#8ac5fe;stop-opacity:0.83628923;"
         offset="1"
         id="stop23" /></linearGradient><linearGradient
       id="linearGradient18"
       inkscape:collect="always"><stop
         style="stop-color:#9797ff;stop-opacity:1;"
         offset="0"
         id="stop18" /><stop
         style="stop-color:#ccccff;stop-opacity:1;"
         offset="0.30000001"
         id="stop20" /><stop
         style="stop-color:#ccccff;stop-opacity:1;"
         offset="1"
         id="stop19" /></linearGradient><linearGradient
       id="linearGradient16"
       inkscape:collect="always"><stop
         style="stop-color:#cdcdcd;stop-opacity:0.17462483;"
         offset="0"
         id="stop16" /><stop
         style="stop-color:#cdcdcd;stop-opacity:1;"
         offset="1"
         id="stop17" /></linearGradient><linearGradient
       id="linearGradient12"
       inkscape:collect="always"><stop
         style="stop-color:#fdfeff;stop-opacity:1;"
         offset="0"
         id="stop13" /><stop
         style="stop-color:#99ccff;stop-opacity:1;"
         offset="1"
         id="stop14" /></linearGradient><linearGradient
       id="linearGradient9"
       inkscape:collect="always"><stop
         style="stop-color:#97c9fc;stop-opacity:1;"
         offset="0"
         id="stop9" /><stop
         style="stop-color:#7788bb;stop-opacity:1"
         offset="0.25"
         id="stop12" /><stop
         style="stop-color:#57578a;stop-opacity:1"
         offset="0.5"
         id="stop11" /><stop
         style="stop-color:#444482;stop-opacity:1;"
         offset="1"
         id="stop10" /></linearGradient><linearGradient
       inkscape:collect="always"
       xlink:href="#linearGradient9"
       id="linearGradient10"
       x1="31.622168"
       y1="100.24049"
       x2="221.19499"
       y2="240.28973"
       gradientUnits="userSpaceOnUse" /><linearGradient
       inkscape:collect="always"
       xlink:href="#linearGradient12"
       id="linearGradient14"
       x1="73.583481"
       y1="62.020954"
       x2="207.02971"
       y2="229.59895"
       gradientUnits="userSpaceOnUse" /><linearGradient
       inkscape:collect="always"
       xlink:href="#linearGradient16"
       id="linearGradient17"
       x1="57.531055"
       y1="26.420616"
       x2="147.13231"
       y2="144.34076"
       gradientUnits="userSpaceOnUse" /><linearGradient
       inkscape:collect="always"
       xlink:href="#linearGradient18"
       id="linearGradient19"
       x1="209.82518"
       y1="58.53635"
       x2="210.58252"
       y2="194.57654"
       gradientUnits="userSpaceOnUse" /><linearGradient
       inkscape:collect="always"
       xlink:href="#linearGradient22"
       id="linearGradient23"
       x1="177.19191"
       y1="58.990749"
       x2="207.31994"
       y2="58.990749"
       gradientUnits="userSpaceOnUse" /><linearGradient
       inkscape:collect="always"
       xlink:href="#linearGradient24"
       id="linearGradient25"
       x1="176.32031"
       y1="20.126524"
       x2="176.32031"
       y2="56.695721"
       gradientUnits="userSpaceOnUse" /><linearGradient
       inkscape:collect="always"
       xlink:href="#linearGradient26"
       id="linearGradient27"
       x1="172.59729"
       y1="13.51158"
       x2="210.54449"
       y2="51.28627"
       gradientUnits="userSpaceOnUse" /><linearGradient
       inkscape:collect="always"
       xlink:href="#linearGradient4"
       id="linearGradient5"
       x1="106.106"
       y1="12.160762"
       x2="106.106"
       y2="46.9058"
       gradientUnits="userSpaceOnUse" /><linearGradient
       id="linearGradient4"
       inkscape:collect="always"><stop
         style="stop-color:#ff273b;stop-opacity:0.86774898;"
         offset="0"
         id="stop4" /><stop
         style="stop-color:#ff6868;stop-opacity:0.93333334;"
         offset="0.37330827"
         id="stop6" /><stop
         style="stop-color:#9f0000;stop-opacity:0.96470588;"
         offset="0.62218046"
         id="stop7" /><stop
         style="stop-color:#861616;stop-opacity:1;"
         offset="1"
         id="stop5" /></linearGradient><linearGradient
       inkscape:collect="always"
       xlink:href="#linearGradient17-6"
       id="linearGradient32"
       gradientUnits="userSpaceOnUse"
       x1="58.665661"
       y1="64.746048"
       x2="58.665661"
       y2="84.924896" /><linearGradient
       id="linearGradient17-6"
       inkscape:collect="always"><stop
         style="stop-color:#0067cd;stop-opacity:1"
         offset="0"
         id="stop17-2" /><stop
         style="stop-color:#b0f1ff;stop-opacity:1"
         offset="1"
         id="stop18-9" /></linearGradient></defs><sodipodi:namedview
     id="base"
     pagecolor="#ffffff"
     bordercolor="#000000"
     borderopacity="0.3"
     inkscape:pageopacity="0.0"
     inkscape:pageshadow="2"
     inkscape:zoom="0.98994949"
     inkscape:cx="505.07627"
     inkscape:cy="476.792"
     inkscape:document-units="mm"
     inkscape:showpageshadow="2"
     inkscape:pagecheckerboard="0"
     inkscape:deskcolor="#d1d1d1"
     inkscape:current-layer="svg1"
     showguides="true" /><metadata
     id="metadata1"><rdf:RDF><cc:Work
         rdf:about=""><dc:format>image/svg+xml</dc:format><dc:type
           rdf:resource="http://purl.org/dc/dcmitype/StillImage" /><cc:license
           rdf:resource="http://creativecommons.org/publicdomain/zero/1.0/" /></cc:Work><cc:License
         rdf:about="http://creativecommons.org/publicdomain/zero/1.0/"><cc:permits
           rdf:resource="http://creativecommons.org/ns#Reproduction" /><cc:permits
           rdf:resource="http://creativecommons.org/ns#Distribution" /><cc:permits
           rdf:resource="http://creativecommons.org/ns#DerivativeWorks" /></cc:License></rdf:RDF></metadata><g
     id="g28"
     transform="matrix(1.0481261,0,0,1.0481261,-6.4074194,-6.1384097)"><g
       id="g7"
       inkscape:label="shadow"
       style="display:inline"><path
         id="rect1"
         style="fill:#000000;fill-opacity:0.0602258;stroke-width:3.72791;stroke-linecap:square"
         d="M 48.380952,13.418155 H 179.16071 l 43.46726,43.278274 V 244.17261 H 48.380952 Z"
         sodipodi:nodetypes="cccccc" /><path
         id="path1"
         style="fill:#000000;fill-opacity:0.0752823;stroke-width:3.72791;stroke-linecap:square"
         d="m 47.563027,12.60023 129.443423,-0.133635 43.46726,43.278274 1.33635,187.609821 H 47.563027 Z"
         sodipodi:nodetypes="cccccc" /><path
         id="path2"
         style="fill:#000000;fill-opacity:0.0602258;stroke-width:3.72791;stroke-linecap:square"
         d="m 46.493949,11.793049 128.975701,-0.868626 43.46726,43.278274 1.80407,188.344813 H 46.493949 Z"
         sodipodi:nodetypes="cccccc" /><path
         id="path3"
         style="fill:#000000;fill-opacity:0.0602258;stroke-width:3.72791;stroke-linecap:square"
         d="m 45.964782,12.33296 129.777508,0.467722 43.46726,42.209196 1.00226,187.008462 H 45.964782 Z"
         sodipodi:nodetypes="cccccc" /><path
         id="path4"
         style="fill:#000000;fill-opacity:0.0602258;stroke-width:3.72791;stroke-linecap:square"
         d="m 45.435615,12.338332 129.443415,0.935443 43.46726,41.674657 1.33635,186.540738 H 45.435615 Z"
         sodipodi:nodetypes="cccccc" /><path
         id="path5"
         style="fill:#000000;fill-opacity:0.0602258;stroke-width:3.72791;stroke-linecap:square"
         d="M 44.906448,12.744609 174.8844,13.412783 218.35166,54.151996 219.15347,240.96 H 44.906448 Z"
         sodipodi:nodetypes="cccccc" /><path
         id="path6"
         style="fill:#000000;fill-opacity:0.0602258;stroke-width:3.72791;stroke-linecap:square"
         d="m 44.377281,15.021772 129.911129,0.534539 43.46726,37.932883 0.86863,186.941636 H 44.377281 Z"
         sodipodi:nodetypes="cccccc" /><path
         id="path7"
         style="fill:#000000;fill-opacity:0.0602258;stroke-width:3.72791;stroke-linecap:square"
         d="m 43.848114,13.423527 129.710676,1.069078 43.46726,39.001961 1.06908,186.407094 H 43.848114 Z"
         sodipodi:nodetypes="cccccc" /></g><g
       id="g14"
       style="display:inline"><path
         style="color:#000000;fill:url(#linearGradient14);stroke-linecap:square;-inkscape-stroke:none"
         d="M 46.153822,14.648159 H 173.78301 l 40.90293,41.140298 V 236.0795 H 46.554726 Z"
         id="path15"
         inkscape:label="headbgground" /><path
         id="rect16"
         style="display:inline;fill:url(#linearGradient17);fill-opacity:1;stroke-width:4.99999;stroke-linecap:square"
         d="M 45.435818,14.165285 H 176.70315 l 0.20408,8.220982 H 53.433709 V 235.97952 h -7.997891 z"
         sodipodi:nodetypes="ccccccc" /><path
         id="rect17"
         style="fill:url(#linearGradient19);stroke-width:4.99999;stroke-linecap:square"
         d="M 47.058037,227.91965 H 207.27506 l -0.0668,-168.246312 7.31651,0.0667 0.0668,168.546562 -7.08265,0.0331 v 7.34846 H 47.058037 Z"
         sodipodi:nodetypes="ccccccccc" /><path
         style="color:#000000;fill:url(#linearGradient10);stroke-linecap:square;-inkscape-stroke:none"
         d="M 43.648437,12.148438 44.058594,238.58008 H 217.18555 V 54.757812 L 174.82227,12.148438 Z m 4.608862,4.999999 H 172.74414 l 39.44141,39.671875 V 233.58008 H 48.775405 Z"
         id="path16"
         inkscape:label="headframe"
         sodipodi:nodetypes="cccccccccccc" /><g
         id="g3"
         inkscape:label="head"
         style="display:inline"
         transform="matrix(1.0116484,0,0,1.0116484,1.0796668,5.2000963)"><path
           id="rect4"
           style="fill:url(#linearGradient5);fill-opacity:0.867749;stroke-width:1.00012;stroke-linecap:round;stroke-linejoin:round;stroke-miterlimit:9.6"
           d="M 46.772167,11.759859 174.25974,11.22532 c 11.69728,8.148891 12.26879,23.714969 16.03617,37.15046 H 46.772167 Z"
           sodipodi:nodetypes="ccccc" /><text
           xml:space="preserve"
           style="font-weight:600;font-size:28.2223px;line-height:0.7;font-family:FreeSans;-inkscape-font-specification:'FreeSans Semi-Bold';letter-spacing:0px;word-spacing:0px;fill:#0d0a02;fill-opacity:0.867749;stroke:none;stroke-width:1.00012;stroke-linecap:round;stroke-linejoin:round;stroke-miterlimit:9.6"
           x="52.38483"
           y="37.952271"
           id="text7"><tspan
             sodipodi:role="line"
             id="tspan7"
             style="fill:#ffffff;fill-opacity:0.867749;stroke:#000000;stroke-width:1.00012;stroke-opacity:1"
             x="52.38483"
             y="37.952271">Video</tspan></text></g></g><g
       id="rect23"
       style="display:inline"><rect
         style="display:inline;fill:url(#linearGradient23);fill-opacity:0.834379;stroke:none;stroke-width:4.99999;stroke-linecap:square;stroke-dasharray:none;stroke-opacity:1"
         id="rect20"
         width="30.128031"
         height="11.286353"
         x="177.19191"
         y="53.347572" /><path
         style="color:#000000;display:inline;fill:url(#linearGradient25);stroke-linecap:square;stroke-linejoin:bevel;-inkscape-stroke:none"
         d="m 174.15254,15.119046 40.91592,41.955358 H 174.814 Z"
         id="path25" /><g
         id="g27"><path
           id="rect27"
           style="display:inline;fill:#0a6db5;fill-opacity:0.459222;stroke-width:4.99999;stroke-linecap:square;stroke-linejoin:bevel"
           d="m 182.94047,23.245534 33.07293,33.82887 -33.07293,-0.09449 z"
           sodipodi:nodetypes="cccc" /><path
           id="path27"
           style="display:inline;fill:#1882cf;fill-opacity:0.459222;stroke-width:4.99999;stroke-linecap:square;stroke-linejoin:bevel"
           d="m 175.28645,49.514879 34.91556,0.188989 4.67746,7.087054 -39.68751,-0.472471 z"
           sodipodi:nodetypes="ccccc" /></g><path
         style="color:#000000;display:inline;fill:url(#linearGradient27);stroke-linecap:square;stroke-linejoin:bevel;-inkscape-stroke:none"
         d="m 175.94141,13.373047 -4.28907,1.785156 6.5e-4,44.600911 c 0,0 29.8634,-0.184895 43.41537,-0.184895 l 1.78906,-4.246094 z m 1.4286,7.056744 34.22551,34.144428 h -34.32013 z"
         id="path26"
         sodipodi:nodetypes="cccccccccc" /></g><g
       id="g32"
       inkscape:label="video-oblique"
       transform="matrix(1.8846785,-0.39409769,0.51958397,1.8584385,-17.743607,1.9529062)"><path
         id="path27-7"
         style="fill:#f3f3f3;fill-opacity:0.689482;stroke-width:5.46172;stroke-linecap:round;stroke-linejoin:round"
         d="m 33.50862,56.11048 c -1.034421,0 -1.867341,0.832922 -1.867341,1.867338 v 33.415879 c 0,1.034416 0.83292,1.867337 1.867341,1.867337 h 50.735804 c 1.03442,0 1.86684,-0.832921 1.86684,-1.867337 V 57.977818 c 0,-1.034416 -0.83242,-1.867338 -1.86684,-1.867338 z"
         inkscape:label="whitebg"
         sodipodi:nodetypes="sssssssss" /><g
         id="g30"
         inkscape:label="shadow"
         style="fill:#000000;fill-opacity:0.173623"><path
           id="path28"
           style="fill:#000000;fill-opacity:0.173623;stroke-width:5.66801;stroke-linecap:round;stroke-linejoin:round"
           d="m 33.203013,55.853955 c -1.07349,0 -1.93787,0.864381 -1.93787,1.937867 v 34.677986 c 0,1.073486 0.86438,1.937866 1.93787,1.937866 h 52.65208 c 1.07349,0 1.93735,-0.86438 1.93735,-1.937866 V 57.791822 c 0,-1.073486 -0.86386,-1.937867 -1.93735,-1.937867 z m 1.34979,3.302124 h 3.25716 v 3.52485 h -3.25716 z m 4.74389,0 h 3.25717 v 3.52485 h -3.25717 z m 4.9444,0 h 3.25717 v 3.52485 h -3.25717 z m 4.67724,0 h 3.25716 v 3.52485 h -3.25716 z m 4.81107,0 h 3.25717 v 3.52485 h -3.25717 z m 4.74752,0 h 3.25716 v 3.52485 h -3.25716 z m 4.76043,0 h 3.25717 v 3.52485 h -3.25717 z m 4.7439,0 h 3.25716 v 3.52485 h -3.25716 z m 4.71082,0 h 3.25717 v 3.52485 h -3.25717 z m 4.77749,0 h 3.25716 v 3.52485 h -3.25716 z m 4.67723,0 h 3.25717 v 3.52485 h -3.25717 z m -43.20356,5.412073 -0.01654,21.072616 -6.21409,0.01757 -0.0062,-21.067965 z m 47.625,0 -0.01654,21.072616 -6.21409,0.01757 -0.0062,-21.067965 z m -25.33696,0.0186 h 15.92203 V 85.65885 h -15.92203 z m -19.15439,0.0047 h 16.0166 V 85.66355 h -16.0166 z m -7.6047,22.733496 h 3.25768 v 3.524849 h -3.25768 z m 4.7439,0 h 3.25768 v 3.524849 h -3.25768 z m 4.9444,0 h 3.25768 v 3.524849 h -3.25768 z m 4.67723,0 h 3.25768 v 3.524849 h -3.25768 z m 4.81108,0 h 3.25768 v 3.524849 h -3.25768 z m 4.74751,0 h 3.25768 v 3.524849 h -3.25768 z m 4.76044,0 h 3.25768 v 3.524849 h -3.25768 z m 4.74389,0 h 3.25768 v 3.524849 h -3.25768 z m 4.71083,0 h 3.25768 v 3.524849 h -3.25768 z m 4.77748,0 h 3.25768 v 3.524849 h -3.25768 z m 4.67724,0 h 3.25768 v 3.524849 h -3.25768 z"
           inkscape:label="cell" /><path
           id="path29"
           style="fill:#000000;fill-opacity:0.173623;stroke-width:5.66801;stroke-linecap:round;stroke-linejoin:round"
           d="m 33.73218,56.383122 c -1.07349,0 -1.93787,0.864381 -1.93787,1.937867 v 34.677986 c 0,1.073486 0.86438,1.937866 1.93787,1.937866 h 52.65208 c 1.07349,0 1.93735,-0.86438 1.93735,-1.937866 V 58.320989 c 0,-1.073486 -0.86386,-1.937867 -1.93735,-1.937867 z m 1.34979,3.302124 h 3.25716 v 3.52485 h -3.25716 z m 4.74389,0 h 3.25717 v 3.52485 h -3.25717 z m 4.9444,0 h 3.25717 v 3.52485 h -3.25717 z m 4.67724,0 h 3.25716 v 3.52485 H 49.4475 Z m 4.81107,0 h 3.25717 v 3.52485 h -3.25717 z m 4.74752,0 h 3.25716 v 3.52485 h -3.25716 z m 4.76043,0 h 3.25717 v 3.52485 h -3.25717 z m 4.7439,0 h 3.25716 v 3.52485 h -3.25716 z m 4.71082,0 h 3.25717 v 3.52485 h -3.25717 z m 4.77749,0 h 3.25716 v 3.52485 h -3.25716 z m 4.67723,0 h 3.25717 v 3.52485 h -3.25717 z m -43.20356,5.412073 -0.01654,21.072616 -6.21409,0.01757 -0.0062,-21.067965 z m 47.625,0 -0.01654,21.072616 -6.21409,0.01757 -0.0062,-21.067965 z m -25.33696,0.0186 H 77.68247 V 86.188017 H 61.76044 Z m -19.15439,0.0047 h 16.0166 v 21.072098 h -16.0166 z m -7.6047,22.733496 h 3.25768 v 3.524849 h -3.25768 z m 4.7439,0 h 3.25768 v 3.524849 h -3.25768 z m 4.9444,0 h 3.25768 v 3.524849 h -3.25768 z m 4.67723,0 h 3.25768 v 3.524849 h -3.25768 z m 4.81108,0 h 3.25768 v 3.524849 h -3.25768 z m 4.74751,0 h 3.25768 v 3.524849 h -3.25768 z m 4.76044,0 h 3.25768 v 3.524849 h -3.25768 z m 4.74389,0 h 3.25768 v 3.524849 H 68.4298 Z m 4.71083,0 h 3.25768 v 3.524849 h -3.25768 z m 4.77748,0 h 3.25768 v 3.524849 h -3.25768 z m 4.67724,0 h 3.25768 v 3.524849 h -3.25768 z"
           inkscape:label="cell" /><path
           id="path30"
           style="fill:#000000;fill-opacity:0.173623;stroke-width:5.66801;stroke-linecap:round;stroke-linejoin:round"
           d="m 34.261347,56.912289 c -1.07349,0 -1.93787,0.864381 -1.93787,1.937867 v 34.677986 c 0,1.073486 0.86438,1.937866 1.93787,1.937866 h 52.65208 c 1.07349,0 1.93735,-0.86438 1.93735,-1.937866 V 58.850156 c 0,-1.073486 -0.86386,-1.937867 -1.93735,-1.937867 z m 1.34979,3.302124 h 3.25716 v 3.52485 h -3.25716 z m 4.74389,0 h 3.25717 v 3.52485 h -3.25717 z m 4.9444,0 h 3.25717 v 3.52485 h -3.25717 z m 4.67724,0 h 3.25716 v 3.52485 h -3.25716 z m 4.81107,0 h 3.25717 v 3.52485 h -3.25717 z m 4.74752,0 h 3.25716 v 3.52485 h -3.25716 z m 4.76043,0 h 3.25717 v 3.52485 h -3.25717 z m 4.7439,0 h 3.25716 v 3.52485 h -3.25716 z m 4.71082,0 h 3.25717 v 3.52485 h -3.25717 z m 4.77749,0 h 3.25716 v 3.52485 h -3.25716 z m 4.67723,0 h 3.25717 v 3.52485 h -3.25717 z m -43.20356,5.412073 -0.01654,21.072616 -6.21409,0.01757 -0.0062,-21.067965 z m 47.625,0 -0.01654,21.072616 -6.21409,0.01757 -0.0062,-21.067965 z m -25.33696,0.0186 h 15.92203 v 21.072098 h -15.92203 z m -19.15439,0.0047 h 16.0166 v 21.072098 h -16.0166 z m -7.6047,22.733496 h 3.25768 v 3.524849 h -3.25768 z m 4.7439,0 h 3.25768 v 3.524849 h -3.25768 z m 4.9444,0 h 3.25768 v 3.524849 h -3.25768 z m 4.67723,0 h 3.25768 v 3.524849 h -3.25768 z m 4.81108,0 h 3.25768 v 3.524849 h -3.25768 z m 4.74751,0 h 3.25768 v 3.524849 h -3.25768 z m 4.76044,0 h 3.25768 v 3.524849 h -3.25768 z m 4.74389,0 h 3.25768 v 3.524849 h -3.25768 z m 4.71083,0 h 3.25768 v 3.524849 h -3.25768 z m 4.77748,0 h 3.25768 v 3.524849 h -3.25768 z m 4.67724,0 h 3.25768 v 3.524849 h -3.25768 z"
           inkscape:label="cell" /></g><path
         id="path31"
         style="fill:url(#linearGradient32);stroke-width:5.66801;stroke-linecap:round;stroke-linejoin:round"
         inkscape:label="bg"
         d="m 31.270535,63.209244 h 55.59206 v 23.118814 h -55.59206 z" /><path
         id="path32"
         style="fill:#000000;fill-opacity:1;stroke-width:5.66801;stroke-linecap:round;stroke-linejoin:round"
         d="m 32.673846,55.324788 c -1.07349,0 -1.93787,0.864381 -1.93787,1.937867 v 34.677986 c 0,1.073486 0.86438,1.937866 1.93787,1.937866 h 52.65208 c 1.07349,0 1.93735,-0.86438 1.93735,-1.937866 V 57.262655 c 0,-1.073486 -0.86386,-1.937867 -1.93735,-1.937867 z m 1.34979,3.302124 h 3.25716 v 3.52485 h -3.25716 z m 4.74389,0 h 3.25717 v 3.52485 h -3.25717 z m 4.9444,0 h 3.25717 v 3.52485 h -3.25717 z m 4.67724,0 h 3.25716 v 3.52485 h -3.25716 z m 4.81107,0 h 3.25717 v 3.52485 h -3.25717 z m 4.74752,0 h 3.25716 v 3.52485 h -3.25716 z m 4.76043,0 h 3.25717 v 3.52485 h -3.25717 z m 4.7439,0 h 3.25716 v 3.52485 h -3.25716 z m 4.71082,0 h 3.25717 v 3.52485 h -3.25717 z m 4.77749,0 h 3.25716 v 3.52485 h -3.25716 z m 4.67723,0 h 3.25717 v 3.52485 h -3.25717 z m -43.20356,5.412073 -0.01654,21.072616 -6.21409,0.01757 -0.0062,-21.067965 z m 47.625,0 -0.01654,21.072616 -6.21409,0.01757 -0.0062,-21.067965 z m -25.33696,0.0186 h 15.92203 v 21.072098 h -15.92203 z m -19.15439,0.0047 h 16.0166 v 21.072098 h -16.0166 z m -7.6047,22.733496 h 3.25768 v 3.524849 h -3.25768 z m 4.7439,0 h 3.25768 v 3.524849 h -3.25768 z m 4.9444,0 h 3.25768 v 3.524849 h -3.25768 z m 4.67723,0 h 3.25768 v 3.524849 h -3.25768 z m 4.81108,0 h 3.25768 v 3.524849 h -3.25768 z m 4.74751,0 h 3.25768 v 3.524849 h -3.25768 z m 4.76044,0 h 3.25768 v 3.524849 h -3.25768 z m 4.74389,0 h 3.25768 v 3.524849 h -3.25768 z m 4.71083,0 h 3.25768 v 3.524849 h -3.25768 z m 4.77748,0 h 3.25768 v 3.524849 h -3.25768 z m 4.67724,0 h 3.25768 v 3.524849 h -3.25768 z"
         inkscape:label="cell" /></g></g><path
     id="path3-9"
     style="color:#000000;fill:#d50f00;stroke-width:1.63765;-inkscape-stroke:none"
     d="m 171.80037,80.402449 c -13.47463,0 -25.65566,7.37955 -33.25512,19.27435 -7.51082,11.756091 -11.77868,27.586181 -14.07672,47.744441 -3.69717,20.06178 -8.68937,34.38437 -13.76326,42.32614 -5.07564,7.94445 -8.17139,9.24825 -13.018032,8.64238 l -2.437239,19.49827 c 12.621551,1.5777 24.537641,-5.85267 32.017241,-17.55995 6.09325,-9.5372 10.5946,-22.14263 14.1927,-38.04328 h 18.8769 v -19.65175 h -15.41892 c 2.27542,-14.83382 5.93517,-25.71687 10.18934,-32.37555 4.95582,-7.75692 9.42429,-10.20329 16.69311,-10.20329 z" /></svg>
