<?xml version="1.0" encoding="UTF-8" standalone="no"?>
<!-- Created with Inkscape (http://www.inkscape.org/) -->

<svg
   width="256mm"
   height="256mm"
   viewBox="0 0 256 256"
   version="1.1"
   id="svg1"
   inkscape:version="1.3.2 (091e20ef0f, 2023-11-25)"
   xml:space="preserve"
   sodipodi:docname="audio-x-it.svg"
   xmlns:inkscape="http://www.inkscape.org/namespaces/inkscape"
   xmlns:sodipodi="http://sodipodi.sourceforge.net/DTD/sodipodi-0.dtd"
   xmlns:xlink="http://www.w3.org/1999/xlink"
   xmlns="http://www.w3.org/2000/svg"
   xmlns:svg="http://www.w3.org/2000/svg"
   xmlns:rdf="http://www.w3.org/1999/02/22-rdf-syntax-ns#"
   xmlns:cc="http://creativecommons.org/ns#"
   xmlns:dc="http://purl.org/dc/elements/1.1/"><defs
     id="defs1"><linearGradient
       id="linearGradient26"
       inkscape:collect="always"><stop
         style="stop-color:#7b91c4;stop-opacity:1;"
         offset="0"
         id="stop26" /><stop
         style="stop-color:#5c5e91;stop-opacity:1"
         offset="1"
         id="stop27" /></linearGradient><linearGradient
       id="linearGradient24"
       inkscape:collect="always"><stop
         style="stop-color:#c7fafe;stop-opacity:1;"
         offset="0"
         id="stop24" /><stop
         style="stop-color:#9acdff;stop-opacity:1"
         offset="1"
         id="stop25" /></linearGradient><linearGradient
       id="linearGradient22"
       inkscape:collect="always"><stop
         style="stop-color:#adaeae;stop-opacity:0.8253752;"
         offset="0"
         id="stop22" /><stop
         style="stop-color:#8ac5fe;stop-opacity:0.83628923;"
         offset="1"
         id="stop23" /></linearGradient><linearGradient
       id="linearGradient18"
       inkscape:collect="always"><stop
         style="stop-color:#9797ff;stop-opacity:1;"
         offset="0"
         id="stop18" /><stop
         style="stop-color:#ccccff;stop-opacity:1;"
         offset="0.30000001"
         id="stop20" /><stop
         style="stop-color:#ccccff;stop-opacity:1;"
         offset="1"
         id="stop19" /></linearGradient><linearGradient
       id="linearGradient16"
       inkscape:collect="always"><stop
         style="stop-color:#cdcdcd;stop-opacity:0.17462483;"
         offset="0"
         id="stop16" /><stop
         style="stop-color:#cdcdcd;stop-opacity:1;"
         offset="1"
         id="stop17" /></linearGradient><linearGradient
       id="linearGradient12"
       inkscape:collect="always"><stop
         style="stop-color:#fdfeff;stop-opacity:1;"
         offset="0"
         id="stop13" /><stop
         style="stop-color:#99ccff;stop-opacity:1;"
         offset="1"
         id="stop14" /></linearGradient><linearGradient
       id="linearGradient9"
       inkscape:collect="always"><stop
         style="stop-color:#97c9fc;stop-opacity:1;"
         offset="0"
         id="stop9" /><stop
         style="stop-color:#7788bb;stop-opacity:1"
         offset="0.25"
         id="stop12" /><stop
         style="stop-color:#57578a;stop-opacity:1"
         offset="0.5"
         id="stop11" /><stop
         style="stop-color:#444482;stop-opacity:1;"
         offset="1"
         id="stop10" /></linearGradient><linearGradient
       inkscape:collect="always"
       xlink:href="#linearGradient9"
       id="linearGradient10"
       x1="31.622168"
       y1="100.24049"
       x2="221.19499"
       y2="240.28973"
       gradientUnits="userSpaceOnUse" /><linearGradient
       inkscape:collect="always"
       xlink:href="#linearGradient12"
       id="linearGradient14"
       x1="73.583481"
       y1="62.020954"
       x2="207.02971"
       y2="229.59895"
       gradientUnits="userSpaceOnUse" /><linearGradient
       inkscape:collect="always"
       xlink:href="#linearGradient16"
       id="linearGradient17"
       x1="57.531055"
       y1="26.420616"
       x2="147.13231"
       y2="144.34076"
       gradientUnits="userSpaceOnUse" /><linearGradient
       inkscape:collect="always"
       xlink:href="#linearGradient18"
       id="linearGradient19"
       x1="209.82518"
       y1="58.53635"
       x2="210.58252"
       y2="194.57654"
       gradientUnits="userSpaceOnUse" /><linearGradient
       inkscape:collect="always"
       xlink:href="#linearGradient22"
       id="linearGradient23"
       x1="177.19191"
       y1="58.990749"
       x2="207.31994"
       y2="58.990749"
       gradientUnits="userSpaceOnUse" /><linearGradient
       inkscape:collect="always"
       xlink:href="#linearGradient24"
       id="linearGradient25"
       x1="176.32031"
       y1="20.126524"
       x2="176.32031"
       y2="56.695721"
       gradientUnits="userSpaceOnUse" /><linearGradient
       inkscape:collect="always"
       xlink:href="#linearGradient26"
       id="linearGradient27"
       x1="172.59729"
       y1="13.51158"
       x2="210.54449"
       y2="51.28627"
       gradientUnits="userSpaceOnUse" /><radialGradient
       inkscape:collect="always"
       xlink:href="#linearGradient28"
       id="radialGradient39"
       cx="-230.72285"
       cy="358.25134"
       fx="-230.72285"
       fy="358.25134"
       r="244.76562"
       gradientTransform="matrix(-0.54083345,-0.91671146,0.91164122,-0.53784213,-673.81396,339.62845)"
       gradientUnits="userSpaceOnUse" /><linearGradient
       id="linearGradient28"
       inkscape:collect="always"><stop
         style="stop-color:#000000;stop-opacity:1;"
         offset="0"
         id="stop38" /><stop
         style="stop-color:#000000;stop-opacity:1;"
         offset="0.87800586"
         id="stop40" /><stop
         style="stop-color:#1c1c1c;stop-opacity:1;"
         offset="0.88610071"
         id="stop41" /><stop
         style="stop-color:#262626;stop-opacity:1;"
         offset="0.92902464"
         id="stop43" /><stop
         style="stop-color:#434343;stop-opacity:1;"
         offset="0.94165206"
         id="stop42" /><stop
         style="stop-color:#3c3c3c;stop-opacity:1;"
         offset="1"
         id="stop39" /></linearGradient><radialGradient
       inkscape:collect="always"
       xlink:href="#linearGradient46"
       id="radialGradient59"
       cx="-181.78395"
       cy="375.46759"
       fx="-181.78395"
       fy="375.46759"
       r="227.19824"
       gradientTransform="matrix(0.89608109,-0.44246886,0.45989719,0.9313767,-240.17887,-81.053568)"
       gradientUnits="userSpaceOnUse" /><linearGradient
       id="linearGradient46"
       inkscape:collect="always"><stop
         style="stop-color:#383a3e;stop-opacity:1;"
         offset="0"
         id="stop58" /><stop
         style="stop-color:#383a3e;stop-opacity:1;"
         offset="0.62797481"
         id="stop73" /><stop
         style="stop-color:#141414;stop-opacity:1;"
         offset="0.7508263"
         id="stop74" /><stop
         style="stop-color:#0c0c0e;stop-opacity:1;"
         offset="0.804636"
         id="stop60" /><stop
         style="stop-color:#8e9299;stop-opacity:1;"
         offset="0.87912226"
         id="stop61" /><stop
         style="stop-color:#72767e;stop-opacity:1;"
         offset="0.90152699"
         id="stop72" /><stop
         style="stop-color:#51555a;stop-opacity:1;"
         offset="0.91709781"
         id="stop75" /><stop
         style="stop-color:#313538;stop-opacity:1;"
         offset="0.95012933"
         id="stop76" /><stop
         style="stop-color:#090a0a;stop-opacity:1;"
         offset="1"
         id="stop59" /></linearGradient><radialGradient
       inkscape:collect="always"
       xlink:href="#linearGradient94"
       id="radialGradient95"
       cx="-119.13902"
       cy="422.3139"
       fx="-119.13902"
       fy="422.3139"
       r="172.62753"
       gradientUnits="userSpaceOnUse" /><linearGradient
       id="linearGradient94"
       inkscape:collect="always"><stop
         style="stop-color:#58909a;stop-opacity:1;"
         offset="0"
         id="stop94" /><stop
         style="stop-color:#19282b;stop-opacity:1;"
         offset="1"
         id="stop95" /></linearGradient><radialGradient
       inkscape:collect="always"
       xlink:href="#linearGradient98"
       id="radialGradient88"
       gradientUnits="userSpaceOnUse"
       gradientTransform="matrix(0.02919143,-0.66560369,0.77427113,0.03395726,-530.87683,222.24342)"
       cx="-196.51074"
       cy="271.47043"
       fx="-196.51074"
       fy="271.47043"
       r="172.62753" /><linearGradient
       id="linearGradient98"
       inkscape:collect="always"><stop
         style="stop-color:#b0d1e2;stop-opacity:0.41704035;"
         offset="0"
         id="stop96" /><stop
         style="stop-color:#8abfc6;stop-opacity:0.27354261;"
         offset="0.47658759"
         id="stop99" /><stop
         style="stop-color:#2f4851;stop-opacity:0;"
         offset="1"
         id="stop98" /></linearGradient><radialGradient
       inkscape:collect="always"
       xlink:href="#linearGradient98"
       id="radialGradient100"
       gradientUnits="userSpaceOnUse"
       gradientTransform="matrix(0.02511346,-0.66577002,1.6439732,0.06201217,-876.60462,211.09123)"
       cx="13.648026"
       cy="397.50134"
       fx="13.648026"
       fy="397.50134"
       r="172.62753" /><radialGradient
       inkscape:collect="always"
       xlink:href="#linearGradient78"
       id="radialGradient79"
       cx="-218.90639"
       cy="367.46558"
       fx="-218.90639"
       fy="367.46558"
       r="189.44629"
       gradientTransform="matrix(1.1055405,-0.50478451,0.49703959,1.0885782,-159.54144,-142.92776)"
       gradientUnits="userSpaceOnUse" /><linearGradient
       id="linearGradient78"
       inkscape:collect="always"><stop
         style="stop-color:#1e2121;stop-opacity:1;"
         offset="0"
         id="stop78" /><stop
         style="stop-color:#455353;stop-opacity:1;"
         offset="0.65471429"
         id="stop80" /><stop
         style="stop-color:#576868;stop-opacity:1;"
         offset="0.73089099"
         id="stop81" /><stop
         style="stop-color:#343e3e;stop-opacity:1;"
         offset="0.80970955"
         id="stop82" /><stop
         style="stop-color:#242b2b;stop-opacity:1;"
         offset="0.86968535"
         id="stop83" /><stop
         style="stop-color:#1b1e1e;stop-opacity:1;"
         offset="1"
         id="stop79" /></linearGradient><radialGradient
       inkscape:collect="always"
       xlink:href="#linearGradient116"
       id="radialGradient118"
       cx="-227.64827"
       cy="230.22169"
       fx="-227.64827"
       fy="230.22169"
       r="105.57849"
       gradientUnits="userSpaceOnUse"
       gradientTransform="matrix(1.9938036,-1.114369,0.56916455,1.0183362,43.625244,-219.06367)" /><linearGradient
       id="linearGradient116"
       inkscape:collect="always"><stop
         style="stop-color:#2f2f2f;stop-opacity:1;"
         offset="0"
         id="stop117" /><stop
         style="stop-color:#7e7e7e;stop-opacity:1;"
         offset="0.5"
         id="stop119" /><stop
         style="stop-color:#a5a5a5;stop-opacity:1;"
         offset="0.75"
         id="stop120" /><stop
         style="stop-color:#cccccc;stop-opacity:1;"
         offset="1"
         id="stop118" /></linearGradient><radialGradient
       inkscape:collect="always"
       xlink:href="#linearGradient112"
       id="radialGradient108"
       gradientUnits="userSpaceOnUse"
       cx="-225.145"
       cy="355.12579"
       fx="-225.145"
       fy="355.12579"
       r="115.26248"
       gradientTransform="matrix(1.0336141,-0.00420176,0.00430663,1.059413,5.9818435,-22.175367)" /><linearGradient
       id="linearGradient112"
       inkscape:collect="always"><stop
         style="stop-color:#3b4747;stop-opacity:1;"
         offset="0"
         id="stop109" /><stop
         style="stop-color:#455252;stop-opacity:1;"
         offset="0.83315116"
         id="stop110" /><stop
         style="stop-color:#97a8a8;stop-opacity:1;"
         offset="0.88662845"
         id="stop111" /><stop
         style="stop-color:#3b4747;stop-opacity:1;"
         offset="0.94331425"
         id="stop113" /><stop
         style="stop-color:#3b4747;stop-opacity:1;"
         offset="1"
         id="stop112" /></linearGradient><radialGradient
       inkscape:collect="always"
       xlink:href="#linearGradient115"
       id="radialGradient116"
       cx="-265.8067"
       cy="310.06973"
       fx="-265.8067"
       fy="310.06973"
       r="115.2627"
       gradientUnits="userSpaceOnUse"
       gradientTransform="matrix(2.1126908,-0.54215336,0.33871101,1.3199062,203.25173,-246.80599)" /><linearGradient
       id="linearGradient115"
       inkscape:collect="always"><stop
         style="stop-color:#3b3b3b;stop-opacity:1;"
         offset="0"
         id="stop115" /><stop
         style="stop-color:#464646;stop-opacity:0;"
         offset="1"
         id="stop116" /></linearGradient></defs><sodipodi:namedview
     id="base"
     pagecolor="#ffffff"
     bordercolor="#000000"
     borderopacity="0.3"
     inkscape:pageopacity="0.0"
     inkscape:pageshadow="2"
     inkscape:zoom="0.98994949"
     inkscape:cx="505.07627"
     inkscape:cy="476.792"
     inkscape:document-units="mm"
     inkscape:showpageshadow="2"
     inkscape:pagecheckerboard="0"
     inkscape:deskcolor="#d1d1d1"
     inkscape:current-layer="g28"
     showguides="true" /><metadata
     id="metadata1"><rdf:RDF><cc:Work
         rdf:about=""><dc:format>image/svg+xml</dc:format><dc:type
           rdf:resource="http://purl.org/dc/dcmitype/StillImage" /><cc:license
           rdf:resource="http://creativecommons.org/publicdomain/zero/1.0/" /></cc:Work><cc:License
         rdf:about="http://creativecommons.org/publicdomain/zero/1.0/"><cc:permits
           rdf:resource="http://creativecommons.org/ns#Reproduction" /><cc:permits
           rdf:resource="http://creativecommons.org/ns#Distribution" /><cc:permits
           rdf:resource="http://creativecommons.org/ns#DerivativeWorks" /></cc:License></rdf:RDF></metadata><g
     id="g28"
     transform="matrix(1.0481261,0,0,1.0481261,-6.4074194,-6.1384097)"><g
       id="g7"
       inkscape:label="shadow"
       style="display:inline"><path
         id="rect1"
         style="fill:#000000;fill-opacity:0.0602258;stroke-width:3.72791;stroke-linecap:square"
         d="M 48.380952,13.418155 H 179.16071 l 43.46726,43.278274 V 244.17261 H 48.380952 Z"
         sodipodi:nodetypes="cccccc" /><path
         id="path1"
         style="fill:#000000;fill-opacity:0.0752823;stroke-width:3.72791;stroke-linecap:square"
         d="m 47.563027,12.60023 129.443423,-0.133635 43.46726,43.278274 1.33635,187.609821 H 47.563027 Z"
         sodipodi:nodetypes="cccccc" /><path
         id="path2"
         style="fill:#000000;fill-opacity:0.0602258;stroke-width:3.72791;stroke-linecap:square"
         d="m 46.493949,11.793049 128.975701,-0.868626 43.46726,43.278274 1.80407,188.344813 H 46.493949 Z"
         sodipodi:nodetypes="cccccc" /><path
         id="path3"
         style="fill:#000000;fill-opacity:0.0602258;stroke-width:3.72791;stroke-linecap:square"
         d="m 45.964782,12.33296 129.777508,0.467722 43.46726,42.209196 1.00226,187.008462 H 45.964782 Z"
         sodipodi:nodetypes="cccccc" /><path
         id="path4"
         style="fill:#000000;fill-opacity:0.0602258;stroke-width:3.72791;stroke-linecap:square"
         d="m 45.435615,12.338332 129.443415,0.935443 43.46726,41.674657 1.33635,186.540738 H 45.435615 Z"
         sodipodi:nodetypes="cccccc" /><path
         id="path5"
         style="fill:#000000;fill-opacity:0.0602258;stroke-width:3.72791;stroke-linecap:square"
         d="M 44.906448,12.744609 174.8844,13.412783 218.35166,54.151996 219.15347,240.96 H 44.906448 Z"
         sodipodi:nodetypes="cccccc" /><path
         id="path6"
         style="fill:#000000;fill-opacity:0.0602258;stroke-width:3.72791;stroke-linecap:square"
         d="m 44.377281,15.021772 129.911129,0.534539 43.46726,37.932883 0.86863,186.941636 H 44.377281 Z"
         sodipodi:nodetypes="cccccc" /><path
         id="path7"
         style="fill:#000000;fill-opacity:0.0602258;stroke-width:3.72791;stroke-linecap:square"
         d="m 43.848114,13.423527 129.710676,1.069078 43.46726,39.001961 1.06908,186.407094 H 43.848114 Z"
         sodipodi:nodetypes="cccccc" /></g><g
       id="g14"
       style="display:inline"><path
         style="color:#000000;fill:url(#linearGradient14);stroke-linecap:square;-inkscape-stroke:none"
         d="M 46.153822,14.648159 H 173.78301 l 40.90293,41.140298 V 236.0795 H 46.554726 Z"
         id="path15"
         inkscape:label="headbgground" /><path
         id="rect16"
         style="display:inline;fill:url(#linearGradient17);fill-opacity:1;stroke-width:4.99999;stroke-linecap:square"
         d="M 45.435818,14.165285 H 176.70315 l 0.20408,8.220982 H 53.433709 V 235.97952 h -7.997891 z"
         sodipodi:nodetypes="ccccccc" /><path
         id="rect17"
         style="fill:url(#linearGradient19);stroke-width:4.99999;stroke-linecap:square"
         d="M 47.058037,227.91965 H 207.27506 l -0.0668,-168.246312 7.31651,0.0667 0.0668,168.546562 -7.08265,0.0331 v 7.34846 H 47.058037 Z"
         sodipodi:nodetypes="ccccccccc" /><path
         style="color:#000000;fill:url(#linearGradient10);stroke-linecap:square;-inkscape-stroke:none"
         d="M 43.648437,12.148438 44.058594,238.58008 H 217.18555 V 54.757812 L 174.82227,12.148438 Z m 4.608862,4.999999 H 172.74414 l 39.44141,39.671875 V 233.58008 H 48.775405 Z"
         id="path16"
         inkscape:label="headframe"
         sodipodi:nodetypes="cccccccccccc" /></g><g
       id="g120"
       transform="matrix(0.24591634,0,0,0.24591634,189.38195,14.814595)"
       style="display:inline"><g
         id="path2-7"
         inkscape:label="path2"
         transform="translate(-4.2766838,-2.5660103)"><path
           style="color:#000000;fill:#485454;fill-opacity:1;fill-rule:evenodd;stroke-linecap:round;stroke-linejoin:round;-inkscape-stroke:none"
           d="m -428.60938,118.6543 c -19.25812,0 -33.90234,16.09004 -33.90234,34.14453 0,18.05449 8.57036,70.64875 14.5293,93.71289 29.00693,-53.52311 58.80743,-83.5952 112.35937,-111.63281 -20.9413,-9.43453 -73.72819,-16.22461 -92.98633,-16.22461 z m -5.08593,14.52929 c 8.15795,0 25.66797,17.75221 25.66797,25.91016 0,8.15796 -4.91822,13.80273 -13.07618,13.80273 -8.15796,0 -27.36328,-16.78345 -27.36328,-24.9414 0,-8.15795 6.61354,-14.77149 14.77149,-14.77149 z"
           id="path5-7" /><path
           style="color:#000000;fill:#393939;fill-opacity:1;fill-rule:evenodd;stroke-linecap:round;stroke-linejoin:round;-inkscape-stroke:none"
           d="m -450.54662,236.13789 c 0.39516,2.21118 2.10145,7.19468 2.86326,10.24097 18.16796,-35.34396 64.51643,-85.22608 112.1915,-111.75512 -3.00296,-1.1284 -4.22951,-2.20839 -6.87015,-2.95208 -42.27093,18.00676 -83.23933,57.72886 -108.18461,104.46623 z"
           id="path6-9"
           sodipodi:nodetypes="ccccc" /></g><g
         id="g13"
         transform="rotate(90,-226.40432,353.12576)"><path
           style="color:#000000;fill:#485454;fill-opacity:1;fill-rule:evenodd;stroke-linecap:round;stroke-linejoin:round;-inkscape-stroke:none"
           d="m -428.60938,118.6543 c -19.25812,0 -33.90234,16.09004 -33.90234,34.14453 0,18.05449 8.57036,70.64875 14.5293,93.71289 29.00693,-53.52311 58.80743,-83.5952 112.35937,-111.63281 -20.9413,-9.43453 -73.72819,-16.22461 -92.98633,-16.22461 z m -5.08593,14.52929 c 8.15795,0 25.66797,17.75221 25.66797,25.91016 0,8.15796 -4.91822,13.80273 -13.07618,13.80273 -8.15796,0 -27.36328,-16.78345 -27.36328,-24.9414 0,-8.15795 6.61354,-14.77149 14.77149,-14.77149 z"
           id="path12" /><path
           style="color:#000000;fill:#1d1d1d;fill-rule:evenodd;stroke-linecap:round;stroke-linejoin:round;-inkscape-stroke:none"
           d="m -450.54662,236.13789 c 0.39516,2.21118 2.10145,7.19468 2.86326,10.24097 18.16796,-35.34396 64.51643,-85.22608 112.1915,-111.75512 -3.00296,-1.1284 -9.02388,-4.26312 -11.66452,-5.00681 -42.27093,18.00676 -78.44496,59.78359 -103.39024,106.52096 z"
           id="path13-3"
           sodipodi:nodetypes="ccccc" /></g><g
         id="g16"
         transform="rotate(180,-227.77413,357.23522)"><path
           style="color:#000000;fill:#485454;fill-opacity:1;fill-rule:evenodd;stroke-linecap:round;stroke-linejoin:round;-inkscape-stroke:none"
           d="m -428.60938,118.6543 c -19.25812,0 -33.90234,16.09004 -33.90234,34.14453 0,18.05449 8.57036,70.64875 14.5293,93.71289 29.00693,-53.52311 58.80743,-83.5952 112.35937,-111.63281 -20.9413,-9.43453 -73.72819,-16.22461 -92.98633,-16.22461 z m -5.08593,14.52929 c 8.15795,0 25.66797,17.75221 25.66797,25.91016 0,8.15796 -4.91822,13.80273 -13.07618,13.80273 -8.15796,0 -27.36328,-16.78345 -27.36328,-24.9414 0,-8.15795 6.61354,-14.77149 14.77149,-14.77149 z"
           id="path14" /><path
           style="color:#000000;fill:#1d1d1d;fill-rule:evenodd;stroke-linecap:round;stroke-linejoin:round;-inkscape-stroke:none"
           d="m -450.54662,236.13789 c 0.39516,2.21118 2.10145,7.19468 2.86326,10.24097 18.16796,-35.34396 64.51643,-85.22608 112.1915,-111.75512 -3.00296,-1.1284 -4.22951,-2.20839 -6.87015,-2.95208 -42.27093,18.00676 -83.23933,57.72886 -108.18461,104.46623 z"
           id="path16-5"
           sodipodi:nodetypes="ccccc" /></g><g
         id="g20"
         transform="rotate(-90,-224.52161,356.5487)"><path
           style="color:#000000;fill:#485454;fill-opacity:1;fill-rule:evenodd;stroke-linecap:round;stroke-linejoin:round;-inkscape-stroke:none"
           d="m -428.60938,118.6543 c -19.25812,0 -33.90234,16.09004 -33.90234,34.14453 0,18.05449 8.57036,70.64875 14.5293,93.71289 29.00693,-53.52311 58.80743,-83.5952 112.35937,-111.63281 -20.9413,-9.43453 -73.72819,-16.22461 -92.98633,-16.22461 z m -5.08593,14.52929 c 8.15795,0 25.66797,17.75221 25.66797,25.91016 0,8.15796 -4.91822,13.80273 -13.07618,13.80273 -8.15796,0 -27.36328,-16.78345 -27.36328,-24.9414 0,-8.15795 6.61354,-14.77149 14.77149,-14.77149 z"
           id="path18" /><path
           style="color:#000000;fill:#373737;fill-opacity:1;fill-rule:evenodd;stroke-linecap:round;stroke-linejoin:round;-inkscape-stroke:none"
           d="m -450.97429,235.28255 c 0.39516,2.21118 2.52912,8.05002 3.29093,11.09631 18.16796,-35.34396 64.51643,-85.22608 112.1915,-111.75512 -3.00296,-1.1284 -13.42438,-3.91906 -16.06502,-4.66275 -42.27093,18.00676 -74.47213,58.58419 -99.41741,105.32156 z"
           id="path20"
           sodipodi:nodetypes="ccccc" /></g><ellipse
         style="display:inline;fill:#3b4747;fill-opacity:1;fill-rule:evenodd;stroke:#1d1d1d;stroke-width:10.2325;stroke-linecap:round;stroke-linejoin:round;stroke-dasharray:none;stroke-opacity:1"
         id="path22"
         cx="-225.18103"
         cy="355.21704"
         rx="250.59157"
         ry="245.7923" /><path
         style="color:#000000;display:inline;fill:url(#radialGradient39);fill-rule:evenodd;stroke-linecap:round;stroke-linejoin:round;-inkscape-stroke:none"
         d="m -225.33594,111.38867 c -135.04853,0 -244.76562,109.7171 -244.76562,244.76563 0,135.04853 109.71708,244.76367 244.76562,244.76367 135.048543,0 244.765628,-109.71514 244.765627,-244.76367 -5e-6,-135.04853 -109.717088,-244.76563 -244.765627,-244.76563 z m 0,19.42906 c 123.0484,-1e-5 227.3549184,102.28817 227.3549237,225.33657 0,123.0484 -104.3065137,225.4177 -227.3549237,225.41769 -123.0484,0 -229.40965,-102.3693 -229.40965,-225.41769 0,-123.0484 106.36125,-225.33657 229.40965,-225.33657 z"
         id="path28"
         sodipodi:nodetypes="ssssssssss" /><path
         style="color:#000000;fill:url(#radialGradient59);fill-rule:evenodd;stroke-width:0.98342;stroke-linecap:round;stroke-linejoin:round;-inkscape-stroke:none"
         d="m -225.33527,134.77733 c -123.19913,1e-5 -223.43219,100.23114 -223.43219,223.43028 0,123.19913 100.23306,223.43219 223.43219,223.43219 123.19913,0 223.430271,-100.23306 223.430271,-223.43219 0,-123.19914 -100.231141,-223.43028 -223.430271,-223.43028 z m 0,33.5035 c 105.0927,0 189.928691,84.83407 189.928691,189.92678 0,105.0927 -84.835991,189.9287 -189.928691,189.9287 -105.09271,0 -189.9287,-84.836 -189.9287,-189.9287 0,-105.09271 84.83599,-189.92677 189.9287,-189.92678 z"
         id="path45" /><g
         id="g93"
         style="display:inline"><path
           style="color:#000000;display:inline;fill:url(#radialGradient95);fill-rule:evenodd;stroke-linecap:round;stroke-linejoin:round;-inkscape-stroke:none"
           d="M -54.027176,360.32288 A 172.62753,172.62753 0 0 1 -226.65471,532.95041 172.62753,172.62753 0 0 1 -399.28224,360.32288 172.62753,172.62753 0 0 1 -226.65471,187.69534 172.62753,172.62753 0 0 1 -54.027176,360.32288 Z"
           id="path77" /><path
           style="color:#000000;display:inline;fill:url(#radialGradient88);fill-rule:evenodd;stroke-linecap:round;stroke-linejoin:round;-inkscape-stroke:none"
           d="M -54.027176,360.32288 A 172.62753,172.62753 0 0 1 -226.65471,532.95041 172.62753,172.62753 0 0 1 -399.28224,360.32288 172.62753,172.62753 0 0 1 -226.65471,187.69534 172.62753,172.62753 0 0 1 -54.027176,360.32288 Z"
           id="path88" /><path
           style="color:#000000;display:inline;fill:url(#radialGradient100);fill-rule:evenodd;stroke-linecap:round;stroke-linejoin:round;-inkscape-stroke:none"
           d="M -54.027176,360.32288 A 172.62753,172.62753 0 0 1 -226.65471,532.95041 172.62753,172.62753 0 0 1 -399.28224,360.32288 172.62753,172.62753 0 0 1 -226.65471,187.69534 172.62753,172.62753 0 0 1 -54.027176,360.32288 Z"
           id="path100" /></g><path
         style="color:#000000;display:inline;fill:url(#radialGradient79);fill-rule:evenodd;stroke-linecap:round;stroke-linejoin:round;-inkscape-stroke:none"
         d="m -226.6543,166.0339 c -104.42911,0 -189.44726,89.85925 -189.44726,194.28837 0,104.42911 85.01815,189.44726 189.44726,189.44726 104.42911,0 189.445316,-85.01815 189.445316,-189.44726 0,-104.42912 -85.016206,-194.28837 -189.445316,-194.28837 z m 0,24.91923 c 86.24981,0 164.526086,84.08794 164.526086,170.33775 0,86.2498 -78.276276,158.71442 -164.526086,158.71442 -86.2498,0 -163.55747,-75.37045 -163.55747,-161.62025 0,-86.24981 77.30767,-167.43192 163.55747,-167.43192 z"
         id="path78"
         sodipodi:nodetypes="ssssssssss" /><g
         id="path101"><path
           style="color:#000000;display:inline;fill:url(#radialGradient118);fill-rule:evenodd;stroke-linecap:round;stroke-linejoin:round;-inkscape-stroke:none"
           d="M -118.1704,357.41705 A 105.57848,105.57848 0 0 1 -223.74889,462.99554 105.57848,105.57848 0 0 1 -329.32737,357.41705 105.57848,105.57848 0 0 1 -223.74889,251.83857 105.57848,105.57848 0 0 1 -118.1704,357.41705 Z"
           id="path103" /><path
           style="color:#000000;fill:url(#radialGradient108);fill-rule:evenodd;stroke-linecap:round;stroke-linejoin:round;-inkscape-stroke:none"
           d="m -223.74805,242.1543 c -63.54294,0 -115.26367,51.72073 -115.26367,115.26367 0,63.54295 51.72073,115.26172 115.26367,115.26172 63.54295,0 115.26173,-51.71877 115.26172,-115.26172 0,-63.54295 -51.71877,-115.26368 -115.26172,-115.26367 z m 0,19.36914 c 53.07572,-10e-6 95.89453,42.81882 95.89453,95.89453 1e-5,53.07572 -42.81881,95.89454 -95.89453,95.89453 -53.07571,0 -95.89453,-42.81882 -95.89453,-95.89453 0,-53.07571 42.81882,-95.89453 95.89453,-95.89453 z"
           id="path104" /><path
           style="color:#000000;display:inline;fill:url(#radialGradient116);fill-opacity:1;fill-rule:evenodd;stroke-linecap:round;stroke-linejoin:round;-inkscape-stroke:none"
           d="m -223.74805,242.1543 c -63.54294,0 -115.26367,51.72073 -115.26367,115.26367 0,63.54295 51.72073,115.26172 115.26367,115.26172 63.54295,0 115.26173,-51.71877 115.26172,-115.26172 0,-63.54295 -51.71877,-115.26368 -115.26172,-115.26367 z m 0,19.36914 c 53.07572,-10e-6 95.89453,42.81882 95.89453,95.89453 1e-5,53.07572 -42.81881,95.89454 -95.89453,95.89453 -53.07571,0 -95.89453,-42.81882 -95.89453,-95.89453 0,-53.07571 42.81882,-95.89453 95.89453,-95.89453 z"
           id="path105" /></g><path
         id="path118"
         style="fill:#c2ddff;fill-opacity:0.307843;fill-rule:evenodd;stroke-width:18.7464;stroke-linecap:round;stroke-linejoin:round"
         d="m -143.11313,312.58177 c -58.17121,-9.32335 -113.34715,17.9081 -165.29277,89.68698 -29.89566,-95.75074 32.01682,-137.27552 84.44013,-141.31782 15.5083,-1.19583 66.50273,6.10482 80.85264,51.63084 z"
         sodipodi:nodetypes="ccsc" /></g><g
       id="rect23"
       style="display:inline"><rect
         style="display:inline;fill:url(#linearGradient23);fill-opacity:0.834379;stroke:none;stroke-width:4.99999;stroke-linecap:square;stroke-dasharray:none;stroke-opacity:1"
         id="rect20"
         width="30.128031"
         height="11.286353"
         x="177.19191"
         y="53.347572" /><path
         style="color:#000000;display:inline;fill:url(#linearGradient25);stroke-linecap:square;stroke-linejoin:bevel;-inkscape-stroke:none"
         d="m 174.15254,15.119046 40.91592,41.955358 H 174.814 Z"
         id="path25" /><g
         id="g27"><path
           id="rect27"
           style="display:inline;fill:#0a6db5;fill-opacity:0.459222;stroke-width:4.99999;stroke-linecap:square;stroke-linejoin:bevel"
           d="m 182.94047,23.245534 33.07293,33.82887 -33.07293,-0.09449 z"
           sodipodi:nodetypes="cccc" /><path
           id="path27"
           style="display:inline;fill:#1882cf;fill-opacity:0.459222;stroke-width:4.99999;stroke-linecap:square;stroke-linejoin:bevel"
           d="m 175.28645,49.514879 34.91556,0.188989 4.67746,7.087054 -39.68751,-0.472471 z"
           sodipodi:nodetypes="ccccc" /></g><path
         style="color:#000000;display:inline;fill:url(#linearGradient27);stroke-linecap:square;stroke-linejoin:bevel;-inkscape-stroke:none"
         d="m 175.94141,13.373047 -4.28907,1.785156 6.5e-4,44.600911 c 0,0 29.8634,-0.184895 43.41537,-0.184895 l 1.78906,-4.246094 z m 1.4286,7.056744 34.22551,34.144428 h -34.32013 z"
         id="path26"
         sodipodi:nodetypes="cccccccccc" /></g></g><text
     xml:space="preserve"
     style="font-weight:bold;font-size:60.0895px;line-height:1.1;font-family:'Liberation Sans';-inkscape-font-specification:'Liberation Sans Bold';letter-spacing:0.901345px;word-spacing:0px;display:inline;fill:#000000;fill-rule:evenodd;stroke-width:13.9318;stroke-linecap:round;stroke-linejoin:round"
     x="54.771408"
     y="233.19664"
     id="text2"><tspan
       sodipodi:role="line"
       id="tspan2"
       x="54.771408"
       y="233.19664"
       style="stroke-width:13.9318">   IT</tspan></text></svg>
