<?xml version="1.0" encoding="UTF-8" standalone="no"?>
<!-- Created with Inkscape (http://www.inkscape.org/) -->

<svg
   width="256mm"
   height="256mm"
   viewBox="0 0 256 256"
   version="1.1"
   id="svg1"
   inkscape:version="1.3.2 (091e20ef0f, 2023-11-25)"
   xml:space="preserve"
   sodipodi:docname="image-x-msod.svg"
   xmlns:inkscape="http://www.inkscape.org/namespaces/inkscape"
   xmlns:sodipodi="http://sodipodi.sourceforge.net/DTD/sodipodi-0.dtd"
   xmlns:xlink="http://www.w3.org/1999/xlink"
   xmlns="http://www.w3.org/2000/svg"
   xmlns:svg="http://www.w3.org/2000/svg"
   xmlns:rdf="http://www.w3.org/1999/02/22-rdf-syntax-ns#"
   xmlns:cc="http://creativecommons.org/ns#"
   xmlns:dc="http://purl.org/dc/elements/1.1/"><defs
     id="defs1"><linearGradient
       id="linearGradient26"
       inkscape:collect="always"><stop
         style="stop-color:#7b91c4;stop-opacity:1;"
         offset="0"
         id="stop26" /><stop
         style="stop-color:#5c5e91;stop-opacity:1"
         offset="1"
         id="stop27" /></linearGradient><linearGradient
       id="linearGradient24"
       inkscape:collect="always"><stop
         style="stop-color:#c7fafe;stop-opacity:1;"
         offset="0"
         id="stop24" /><stop
         style="stop-color:#9acdff;stop-opacity:1"
         offset="1"
         id="stop25" /></linearGradient><linearGradient
       id="linearGradient22"
       inkscape:collect="always"><stop
         style="stop-color:#adaeae;stop-opacity:0.8253752;"
         offset="0"
         id="stop22" /><stop
         style="stop-color:#8ac5fe;stop-opacity:0.83628923;"
         offset="1"
         id="stop23" /></linearGradient><linearGradient
       id="linearGradient18"
       inkscape:collect="always"><stop
         style="stop-color:#9797ff;stop-opacity:1;"
         offset="0"
         id="stop18" /><stop
         style="stop-color:#ccccff;stop-opacity:1;"
         offset="0.30000001"
         id="stop20" /><stop
         style="stop-color:#ccccff;stop-opacity:1;"
         offset="1"
         id="stop19" /></linearGradient><linearGradient
       id="linearGradient16"
       inkscape:collect="always"><stop
         style="stop-color:#cdcdcd;stop-opacity:0.17462483;"
         offset="0"
         id="stop16" /><stop
         style="stop-color:#cdcdcd;stop-opacity:1;"
         offset="1"
         id="stop17" /></linearGradient><linearGradient
       id="linearGradient12"
       inkscape:collect="always"><stop
         style="stop-color:#fdfeff;stop-opacity:1;"
         offset="0"
         id="stop13" /><stop
         style="stop-color:#99ccff;stop-opacity:1;"
         offset="1"
         id="stop14" /></linearGradient><linearGradient
       id="linearGradient9"
       inkscape:collect="always"><stop
         style="stop-color:#97c9fc;stop-opacity:1;"
         offset="0"
         id="stop9" /><stop
         style="stop-color:#7788bb;stop-opacity:1"
         offset="0.25"
         id="stop12" /><stop
         style="stop-color:#57578a;stop-opacity:1"
         offset="0.5"
         id="stop11" /><stop
         style="stop-color:#444482;stop-opacity:1;"
         offset="1"
         id="stop10" /></linearGradient><linearGradient
       inkscape:collect="always"
       xlink:href="#linearGradient9"
       id="linearGradient10"
       x1="31.622168"
       y1="100.24049"
       x2="221.19499"
       y2="240.28973"
       gradientUnits="userSpaceOnUse" /><linearGradient
       inkscape:collect="always"
       xlink:href="#linearGradient12"
       id="linearGradient14"
       x1="73.583481"
       y1="62.020954"
       x2="207.02971"
       y2="229.59895"
       gradientUnits="userSpaceOnUse" /><linearGradient
       inkscape:collect="always"
       xlink:href="#linearGradient16"
       id="linearGradient17"
       x1="57.531055"
       y1="26.420616"
       x2="147.13231"
       y2="144.34076"
       gradientUnits="userSpaceOnUse" /><linearGradient
       inkscape:collect="always"
       xlink:href="#linearGradient18"
       id="linearGradient19"
       x1="209.82518"
       y1="58.53635"
       x2="210.58252"
       y2="194.57654"
       gradientUnits="userSpaceOnUse" /><linearGradient
       inkscape:collect="always"
       xlink:href="#linearGradient22"
       id="linearGradient23"
       x1="177.19191"
       y1="58.990749"
       x2="207.31994"
       y2="58.990749"
       gradientUnits="userSpaceOnUse" /><linearGradient
       inkscape:collect="always"
       xlink:href="#linearGradient24"
       id="linearGradient25"
       x1="176.32031"
       y1="20.126524"
       x2="176.32031"
       y2="56.695721"
       gradientUnits="userSpaceOnUse" /><linearGradient
       inkscape:collect="always"
       xlink:href="#linearGradient26"
       id="linearGradient27"
       x1="172.59729"
       y1="13.51158"
       x2="210.54449"
       y2="51.28627"
       gradientUnits="userSpaceOnUse" /></defs><sodipodi:namedview
     id="base"
     pagecolor="#ffffff"
     bordercolor="#000000"
     borderopacity="0.3"
     inkscape:pageopacity="0.0"
     inkscape:pageshadow="2"
     inkscape:zoom="0.98994949"
     inkscape:cx="505.07627"
     inkscape:cy="476.792"
     inkscape:document-units="mm"
     inkscape:showpageshadow="2"
     inkscape:pagecheckerboard="0"
     inkscape:deskcolor="#d1d1d1"
     inkscape:current-layer="svg1"
     showguides="true"><sodipodi:guide
       position="92.475254,162.18839"
       orientation="0,-1"
       id="guide12"
       inkscape:locked="false" /><sodipodi:guide
       position="212.80059,201.33519"
       orientation="0,-1"
       id="guide27"
       inkscape:locked="false" /></sodipodi:namedview><metadata
     id="metadata1"><rdf:RDF><cc:Work
         rdf:about=""><dc:format>image/svg+xml</dc:format><dc:type
           rdf:resource="http://purl.org/dc/dcmitype/StillImage" /><cc:license
           rdf:resource="http://creativecommons.org/publicdomain/zero/1.0/" /></cc:Work><cc:License
         rdf:about="http://creativecommons.org/publicdomain/zero/1.0/"><cc:permits
           rdf:resource="http://creativecommons.org/ns#Reproduction" /><cc:permits
           rdf:resource="http://creativecommons.org/ns#Distribution" /><cc:permits
           rdf:resource="http://creativecommons.org/ns#DerivativeWorks" /></cc:License></rdf:RDF></metadata><g
     id="g28"
     transform="matrix(1.0481261,0,0,1.0481261,-6.4074194,-6.1384097)"><g
       id="g7"
       inkscape:label="shadow"
       style="display:inline"><path
         id="rect1"
         style="fill:#000000;fill-opacity:0.0602258;stroke-width:3.72791;stroke-linecap:square"
         d="M 48.380952,13.418155 H 179.16071 l 43.46726,43.278274 V 244.17261 H 48.380952 Z"
         sodipodi:nodetypes="cccccc" /><path
         id="path1"
         style="fill:#000000;fill-opacity:0.0752823;stroke-width:3.72791;stroke-linecap:square"
         d="m 47.563027,12.60023 129.443423,-0.133635 43.46726,43.278274 1.33635,187.609821 H 47.563027 Z"
         sodipodi:nodetypes="cccccc" /><path
         id="path2"
         style="fill:#000000;fill-opacity:0.0602258;stroke-width:3.72791;stroke-linecap:square"
         d="m 46.493949,11.793049 128.975701,-0.868626 43.46726,43.278274 1.80407,188.344813 H 46.493949 Z"
         sodipodi:nodetypes="cccccc" /><path
         id="path3"
         style="fill:#000000;fill-opacity:0.0602258;stroke-width:3.72791;stroke-linecap:square"
         d="m 45.964782,12.33296 129.777508,0.467722 43.46726,42.209196 1.00226,187.008462 H 45.964782 Z"
         sodipodi:nodetypes="cccccc" /><path
         id="path4"
         style="fill:#000000;fill-opacity:0.0602258;stroke-width:3.72791;stroke-linecap:square"
         d="m 45.435615,12.338332 129.443415,0.935443 43.46726,41.674657 1.33635,186.540738 H 45.435615 Z"
         sodipodi:nodetypes="cccccc" /><path
         id="path5"
         style="fill:#000000;fill-opacity:0.0602258;stroke-width:3.72791;stroke-linecap:square"
         d="M 44.906448,12.744609 174.8844,13.412783 218.35166,54.151996 219.15347,240.96 H 44.906448 Z"
         sodipodi:nodetypes="cccccc" /><path
         id="path6"
         style="fill:#000000;fill-opacity:0.0602258;stroke-width:3.72791;stroke-linecap:square"
         d="m 44.377281,15.021772 129.911129,0.534539 43.46726,37.932883 0.86863,186.941636 H 44.377281 Z"
         sodipodi:nodetypes="cccccc" /><path
         id="path7"
         style="fill:#000000;fill-opacity:0.0602258;stroke-width:3.72791;stroke-linecap:square"
         d="m 43.848114,13.423527 129.710676,1.069078 43.46726,39.001961 1.06908,186.407094 H 43.848114 Z"
         sodipodi:nodetypes="cccccc" /></g><g
       id="g14"
       style="display:inline"><path
         style="color:#000000;fill:url(#linearGradient14);stroke-linecap:square;-inkscape-stroke:none"
         d="M 46.153822,14.648159 H 173.78301 l 40.90293,41.140298 V 236.0795 H 46.554726 Z"
         id="path15"
         inkscape:label="headbgground" /><path
         id="rect16"
         style="display:inline;fill:url(#linearGradient17);fill-opacity:1;stroke-width:4.99999;stroke-linecap:square"
         d="M 45.435818,14.165285 H 176.70315 l 0.20408,8.220982 H 53.433709 V 235.97952 h -7.997891 z"
         sodipodi:nodetypes="ccccccc" /><path
         id="rect17"
         style="fill:url(#linearGradient19);stroke-width:4.99999;stroke-linecap:square"
         d="M 47.058037,227.91965 H 207.27506 l -0.0668,-168.246312 7.31651,0.0667 0.0668,168.546562 -7.08265,0.0331 v 7.34846 H 47.058037 Z"
         sodipodi:nodetypes="ccccccccc" /><path
         style="color:#000000;fill:url(#linearGradient10);stroke-linecap:square;-inkscape-stroke:none"
         d="M 43.648437,12.148438 44.058594,238.58008 H 217.18555 V 54.757812 L 174.82227,12.148438 Z m 4.608862,4.999999 H 172.74414 l 39.44141,39.671875 V 233.58008 H 48.775405 Z"
         id="path16"
         inkscape:label="headframe"
         sodipodi:nodetypes="cccccccccccc" /></g><g
       id="rect23"
       style="display:inline"><rect
         style="display:inline;fill:url(#linearGradient23);fill-opacity:0.834379;stroke:none;stroke-width:4.99999;stroke-linecap:square;stroke-dasharray:none;stroke-opacity:1"
         id="rect20"
         width="30.128031"
         height="11.286353"
         x="177.19191"
         y="53.347572" /><path
         style="color:#000000;display:inline;fill:url(#linearGradient25);stroke-linecap:square;stroke-linejoin:bevel;-inkscape-stroke:none"
         d="m 174.15254,15.119046 40.91592,41.955358 H 174.814 Z"
         id="path25" /><g
         id="g27"><path
           id="rect27"
           style="display:inline;fill:#0a6db5;fill-opacity:0.459222;stroke-width:4.99999;stroke-linecap:square;stroke-linejoin:bevel"
           d="m 182.94047,23.245534 33.07293,33.82887 -33.07293,-0.09449 z"
           sodipodi:nodetypes="cccc" /><path
           id="path27"
           style="display:inline;fill:#1882cf;fill-opacity:0.459222;stroke-width:4.99999;stroke-linecap:square;stroke-linejoin:bevel"
           d="m 175.28645,49.514879 34.91556,0.188989 4.67746,7.087054 -39.68751,-0.472471 z"
           sodipodi:nodetypes="ccccc" /></g><path
         style="color:#000000;display:inline;fill:url(#linearGradient27);stroke-linecap:square;stroke-linejoin:bevel;-inkscape-stroke:none"
         d="m 175.94141,13.373047 -4.28907,1.785156 6.5e-4,44.600911 c 0,0 29.8634,-0.184895 43.41537,-0.184895 l 1.78906,-4.246094 z m 1.4286,7.056744 34.22551,34.144428 h -34.32013 z"
         id="path26"
         sodipodi:nodetypes="cccccccccc" /></g></g><g
     id="g283"
     style="display:inline"
     transform="matrix(0.60567641,0,0,0.60567641,45.671668,30.498887)"><rect
       style="fill:#abddf7;fill-opacity:1;fill-rule:evenodd;stroke:#159ae1;stroke-width:9;stroke-linejoin:round;stroke-dasharray:none;stroke-dashoffset:0;stroke-opacity:1"
       id="rect283"
       width="149.99542"
       height="127.39337"
       x="110.95551"
       y="61.641953" /><circle
       style="fill:#f9d0b6;fill-opacity:1;fill-rule:evenodd;stroke:#d46111;stroke-width:9;stroke-linejoin:round;stroke-dasharray:none;stroke-dashoffset:0;stroke-opacity:1"
       id="path283"
       cx="90.236969"
       cy="89.552078"
       r="75.511398" /><path
       id="rect284"
       style="display:inline;fill:#fdeaaa;fill-opacity:1;fill-rule:evenodd;stroke:#eaba0b;stroke-width:9.14991;stroke-linejoin:round;stroke-opacity:1"
       d="m 108.83465,93.72476 h 1.04446 l 78.68407,127.4264 H 30.498741 Z"
       sodipodi:nodetypes="ccccc" /><rect
       style="display:inline;fill:#cdf4c7;fill-opacity:1;fill-rule:evenodd;stroke:#41c42c;stroke-width:4.5;stroke-linejoin:round;stroke-dasharray:none;stroke-dashoffset:0;stroke-opacity:1"
       id="rect285"
       width="20.889774"
       height="19.862408"
       x="19.862408"
       y="211.29492" /><rect
       style="display:inline;fill:#cdf4c7;fill-opacity:1;fill-rule:evenodd;stroke:#41c42c;stroke-width:4.5;stroke-linejoin:round;stroke-dasharray:none;stroke-dashoffset:0;stroke-opacity:1"
       id="rect286"
       width="20.889774"
       height="19.862408"
       x="99.312042"
       y="83.216637" /><rect
       style="display:inline;fill:#cdf4c7;fill-opacity:1;fill-rule:evenodd;stroke:#41c42c;stroke-width:4.5;stroke-linejoin:round;stroke-dasharray:none;stroke-dashoffset:0;stroke-opacity:1"
       id="rect287"
       width="20.889774"
       height="19.862408"
       x="179.10413"
       y="211.29492" /></g><path
     d="m 86.357398,230.49147 v -20.36805 q 0,-0.69168 0,-1.38332 0.0245,-0.69167 0.238451,-5.93869 -1.693381,6.41568 -2.504283,8.94381 l -6.05792,18.74625 H 73.02508 l -6.057921,-18.74625 -2.551974,-8.94381 q 0.286225,5.53325 0.286225,7.32201 v 20.36805 h -6.248764 v -33.60491 h 9.420837 l 6.010271,18.79395 0.524677,1.8126 1.144817,4.5077 1.502579,-5.39014 6.177187,-19.72411 h 9.373107 v 33.60491 z m 41.164472,-9.68317 q 0,4.93698 -3.67294,7.56049 -3.64906,2.59971 -10.73257,2.59971 -6.46342,0 -10.13632,-2.28963 -3.67295,-2.28964 -4.722345,-6.9404 l 6.797285,-1.12097 q 0.69167,2.67124 2.69509,3.88759 2.00341,1.19251 5.55708,1.19251 7.36971,0 7.36971,-4.48385 0,-1.431 -0.8586,-2.36117 -0.83475,-0.93013 -2.38502,-1.55027 -1.52642,-0.6201 -5.891,-1.50254 -3.76833,-0.88248 -5.24706,-1.40715 -1.47869,-0.54857 -2.6712,-1.26409 -1.19251,-0.73937 -2.02725,-1.76492 -0.8348,-1.02554 -1.31178,-2.40886 -0.453142,-1.38331 -0.453142,-3.17207 0,-4.55538 3.410562,-6.96425 3.43441,-2.43274 9.96936,-2.43274 6.24877,0 9.37315,1.95572 3.14823,1.95572 4.05451,6.46341 l -6.82113,0.93017 q -0.52472,-2.17036 -2.14652,-3.2675 -1.59796,-1.09708 -4.60308,-1.09708 -6.39188,0 -6.39188,4.00682 0,1.31174 0.66784,2.14653 0.69163,0.83474 2.02725,1.43099 1.33562,0.57241 5.41398,1.45485 4.8416,1.0256 6.91655,1.90803 2.09883,0.85859 3.31519,2.02726 1.21635,1.14481 1.86033,2.76661 0.64395,1.59797 0.64395,3.6968 z m 38.82715,-7.27431 q 0,5.24706 -2.07495,9.23003 -2.07499,3.98297 -5.9387,6.10565 -3.86375,2.09883 -9.01539,2.09883 -7.91825,0 -12.42595,-4.6508 -4.48384,-4.67465 -4.48384,-12.78371 0,-8.08522 4.48384,-12.61676 4.48385,-4.53154 12.47365,-4.53154 7.98983,0 12.47364,4.57923 4.5077,4.57927 4.5077,12.56907 z m -7.1789,0 q 0,-5.43783 -2.57582,-8.51452 -2.57582,-3.10054 -7.22662,-3.10054 -4.72234,0 -7.29816,3.07669 -2.57582,3.05281 -2.57582,8.53837 0,5.53324 2.62351,8.72915 2.64739,3.17207 7.20277,3.17207 4.72234,0 7.27432,-3.10049 2.57582,-3.10054 2.57582,-8.80073 z m 43.43023,-0.0951 q 0,5.19933 -2.05111,9.08693 -2.02725,3.86375 -5.77173,5.91485 -3.72065,2.0511 -8.53836,2.0511 h -13.59462 v -33.60496 h 12.16358 q 8.49066,0 13.14147,4.29306 4.65077,4.26915 4.65077,12.25899 z m -7.08352,0 q 0,-5.41401 -2.81431,-8.25217 -2.81432,-2.862 -8.03749,-2.862 h -4.98472 v 22.72923 h 5.96258 q 4.5315,0 7.20274,-3.12438 2.6712,-3.12438 2.6712,-8.49068 z"
     id="text1"
     style="font-weight:bold;font-size:48px;line-height:0.8;font-family:'Liberation Sans';-inkscape-font-specification:'Liberation Sans Bold';letter-spacing:0.96px;word-spacing:0px;display:inline;fill-rule:evenodd;stroke-width:4.23069"
     aria-label="MSOD" /></svg>
