<?xml version="1.0" encoding="UTF-8" standalone="no"?>
<!-- Created with Inkscape (http://www.inkscape.org/) -->

<svg
   width="256mm"
   height="256mm"
   viewBox="0 0 256 256"
   version="1.1"
   id="svg1"
   inkscape:version="1.3.2 (091e20ef0f, 2023-11-25)"
   xml:space="preserve"
   sodipodi:docname="image-x-applix-graphics.svg"
   xmlns:inkscape="http://www.inkscape.org/namespaces/inkscape"
   xmlns:sodipodi="http://sodipodi.sourceforge.net/DTD/sodipodi-0.dtd"
   xmlns:xlink="http://www.w3.org/1999/xlink"
   xmlns="http://www.w3.org/2000/svg"
   xmlns:svg="http://www.w3.org/2000/svg"
   xmlns:rdf="http://www.w3.org/1999/02/22-rdf-syntax-ns#"
   xmlns:cc="http://creativecommons.org/ns#"
   xmlns:dc="http://purl.org/dc/elements/1.1/"><defs
     id="defs1"><linearGradient
       id="linearGradient26"
       inkscape:collect="always"><stop
         style="stop-color:#7b91c4;stop-opacity:1;"
         offset="0"
         id="stop26" /><stop
         style="stop-color:#5c5e91;stop-opacity:1"
         offset="1"
         id="stop27" /></linearGradient><linearGradient
       id="linearGradient24"
       inkscape:collect="always"><stop
         style="stop-color:#c7fafe;stop-opacity:1;"
         offset="0"
         id="stop24" /><stop
         style="stop-color:#9acdff;stop-opacity:1"
         offset="1"
         id="stop25" /></linearGradient><linearGradient
       id="linearGradient22"
       inkscape:collect="always"><stop
         style="stop-color:#adaeae;stop-opacity:0.8253752;"
         offset="0"
         id="stop22" /><stop
         style="stop-color:#8ac5fe;stop-opacity:0.83628923;"
         offset="1"
         id="stop23" /></linearGradient><linearGradient
       id="linearGradient18"
       inkscape:collect="always"><stop
         style="stop-color:#9797ff;stop-opacity:1;"
         offset="0"
         id="stop18" /><stop
         style="stop-color:#ccccff;stop-opacity:1;"
         offset="0.30000001"
         id="stop20" /><stop
         style="stop-color:#ccccff;stop-opacity:1;"
         offset="1"
         id="stop19" /></linearGradient><linearGradient
       id="linearGradient16"
       inkscape:collect="always"><stop
         style="stop-color:#cdcdcd;stop-opacity:0.17462483;"
         offset="0"
         id="stop16" /><stop
         style="stop-color:#cdcdcd;stop-opacity:1;"
         offset="1"
         id="stop17" /></linearGradient><linearGradient
       id="linearGradient12"
       inkscape:collect="always"><stop
         style="stop-color:#fdfeff;stop-opacity:1;"
         offset="0"
         id="stop13" /><stop
         style="stop-color:#99ccff;stop-opacity:1;"
         offset="1"
         id="stop14" /></linearGradient><linearGradient
       id="linearGradient9"
       inkscape:collect="always"><stop
         style="stop-color:#97c9fc;stop-opacity:1;"
         offset="0"
         id="stop9" /><stop
         style="stop-color:#7788bb;stop-opacity:1"
         offset="0.25"
         id="stop12" /><stop
         style="stop-color:#57578a;stop-opacity:1"
         offset="0.5"
         id="stop11" /><stop
         style="stop-color:#444482;stop-opacity:1;"
         offset="1"
         id="stop10" /></linearGradient><linearGradient
       inkscape:collect="always"
       xlink:href="#linearGradient9"
       id="linearGradient10"
       x1="31.622168"
       y1="100.24049"
       x2="221.19499"
       y2="240.28973"
       gradientUnits="userSpaceOnUse" /><linearGradient
       inkscape:collect="always"
       xlink:href="#linearGradient12"
       id="linearGradient14"
       x1="73.583481"
       y1="62.020954"
       x2="207.02971"
       y2="229.59895"
       gradientUnits="userSpaceOnUse" /><linearGradient
       inkscape:collect="always"
       xlink:href="#linearGradient16"
       id="linearGradient17"
       x1="57.531055"
       y1="26.420616"
       x2="147.13231"
       y2="144.34076"
       gradientUnits="userSpaceOnUse" /><linearGradient
       inkscape:collect="always"
       xlink:href="#linearGradient18"
       id="linearGradient19"
       x1="209.82518"
       y1="58.53635"
       x2="210.58252"
       y2="194.57654"
       gradientUnits="userSpaceOnUse" /><linearGradient
       inkscape:collect="always"
       xlink:href="#linearGradient22"
       id="linearGradient23"
       x1="177.19191"
       y1="58.990749"
       x2="207.31994"
       y2="58.990749"
       gradientUnits="userSpaceOnUse" /><linearGradient
       inkscape:collect="always"
       xlink:href="#linearGradient24"
       id="linearGradient25"
       x1="176.32031"
       y1="20.126524"
       x2="176.32031"
       y2="56.695721"
       gradientUnits="userSpaceOnUse" /><linearGradient
       inkscape:collect="always"
       xlink:href="#linearGradient26"
       id="linearGradient27"
       x1="172.59729"
       y1="13.51158"
       x2="210.54449"
       y2="51.28627"
       gradientUnits="userSpaceOnUse" /></defs><sodipodi:namedview
     id="base"
     pagecolor="#ffffff"
     bordercolor="#000000"
     borderopacity="0.3"
     inkscape:pageopacity="0.0"
     inkscape:pageshadow="2"
     inkscape:zoom="0.98994949"
     inkscape:cx="505.07627"
     inkscape:cy="476.792"
     inkscape:document-units="mm"
     inkscape:showpageshadow="2"
     inkscape:pagecheckerboard="0"
     inkscape:deskcolor="#d1d1d1"
     inkscape:current-layer="g28"
     showguides="true"><sodipodi:guide
       position="92.475254,162.18839"
       orientation="0,-1"
       id="guide12"
       inkscape:locked="false" /><sodipodi:guide
       position="212.80059,201.33519"
       orientation="0,-1"
       id="guide27"
       inkscape:locked="false" /><sodipodi:guide
       position="177.33333,251.7905"
       orientation="1,0"
       id="guide28"
       inkscape:locked="false" /></sodipodi:namedview><metadata
     id="metadata1"><rdf:RDF><cc:Work
         rdf:about=""><dc:format>image/svg+xml</dc:format><dc:type
           rdf:resource="http://purl.org/dc/dcmitype/StillImage" /><cc:license
           rdf:resource="http://creativecommons.org/publicdomain/zero/1.0/" /></cc:Work><cc:License
         rdf:about="http://creativecommons.org/publicdomain/zero/1.0/"><cc:permits
           rdf:resource="http://creativecommons.org/ns#Reproduction" /><cc:permits
           rdf:resource="http://creativecommons.org/ns#Distribution" /><cc:permits
           rdf:resource="http://creativecommons.org/ns#DerivativeWorks" /></cc:License></rdf:RDF></metadata><g
     id="g28"
     transform="matrix(1.0481261,0,0,1.0481261,-6.4074194,-6.1384097)"><g
       id="g7"
       inkscape:label="shadow"
       style="display:inline"><path
         id="rect1"
         style="fill:#000000;fill-opacity:0.0602258;stroke-width:3.72791;stroke-linecap:square"
         d="M 48.380952,13.418155 H 179.16071 l 43.46726,43.278274 V 244.17261 H 48.380952 Z"
         sodipodi:nodetypes="cccccc" /><path
         id="path1"
         style="fill:#000000;fill-opacity:0.0752823;stroke-width:3.72791;stroke-linecap:square"
         d="m 47.563027,12.60023 129.443423,-0.133635 43.46726,43.278274 1.33635,187.609821 H 47.563027 Z"
         sodipodi:nodetypes="cccccc" /><path
         id="path2"
         style="fill:#000000;fill-opacity:0.0602258;stroke-width:3.72791;stroke-linecap:square"
         d="m 46.493949,11.793049 128.975701,-0.868626 43.46726,43.278274 1.80407,188.344813 H 46.493949 Z"
         sodipodi:nodetypes="cccccc" /><path
         id="path3"
         style="fill:#000000;fill-opacity:0.0602258;stroke-width:3.72791;stroke-linecap:square"
         d="m 45.964782,12.33296 129.777508,0.467722 43.46726,42.209196 1.00226,187.008462 H 45.964782 Z"
         sodipodi:nodetypes="cccccc" /><path
         id="path4"
         style="fill:#000000;fill-opacity:0.0602258;stroke-width:3.72791;stroke-linecap:square"
         d="m 45.435615,12.338332 129.443415,0.935443 43.46726,41.674657 1.33635,186.540738 H 45.435615 Z"
         sodipodi:nodetypes="cccccc" /><path
         id="path5"
         style="fill:#000000;fill-opacity:0.0602258;stroke-width:3.72791;stroke-linecap:square"
         d="M 44.906448,12.744609 174.8844,13.412783 218.35166,54.151996 219.15347,240.96 H 44.906448 Z"
         sodipodi:nodetypes="cccccc" /><path
         id="path6"
         style="fill:#000000;fill-opacity:0.0602258;stroke-width:3.72791;stroke-linecap:square"
         d="m 44.377281,15.021772 129.911129,0.534539 43.46726,37.932883 0.86863,186.941636 H 44.377281 Z"
         sodipodi:nodetypes="cccccc" /><path
         id="path7"
         style="fill:#000000;fill-opacity:0.0602258;stroke-width:3.72791;stroke-linecap:square"
         d="m 43.848114,13.423527 129.710676,1.069078 43.46726,39.001961 1.06908,186.407094 H 43.848114 Z"
         sodipodi:nodetypes="cccccc" /></g><g
       id="g14"
       style="display:inline"><path
         style="color:#000000;fill:url(#linearGradient14);stroke-linecap:square;-inkscape-stroke:none"
         d="M 46.153822,14.648159 H 173.78301 l 40.90293,41.140298 V 236.0795 H 46.554726 Z"
         id="path15"
         inkscape:label="headbgground" /><path
         id="rect16"
         style="display:inline;fill:url(#linearGradient17);fill-opacity:1;stroke-width:4.99999;stroke-linecap:square"
         d="M 45.435818,14.165285 H 176.70315 l 0.20408,8.220982 H 53.433709 V 235.97952 h -7.997891 z"
         sodipodi:nodetypes="ccccccc" /><path
         id="rect17"
         style="fill:url(#linearGradient19);stroke-width:4.99999;stroke-linecap:square"
         d="M 47.058037,227.91965 H 207.27506 l -0.0668,-168.246312 7.31651,0.0667 0.0668,168.546562 -7.08265,0.0331 v 7.34846 H 47.058037 Z"
         sodipodi:nodetypes="ccccccccc" /><path
         style="color:#000000;fill:url(#linearGradient10);stroke-linecap:square;-inkscape-stroke:none"
         d="M 43.648437,12.148438 44.058594,238.58008 H 217.18555 V 54.757812 L 174.82227,12.148438 Z m 4.608862,4.999999 H 172.74414 l 39.44141,39.671875 V 233.58008 H 48.775405 Z"
         id="path16"
         inkscape:label="headframe"
         sodipodi:nodetypes="cccccccccccc" /></g><g
       id="rect23"
       style="display:inline"><rect
         style="display:inline;fill:url(#linearGradient23);fill-opacity:0.834379;stroke:none;stroke-width:4.99999;stroke-linecap:square;stroke-dasharray:none;stroke-opacity:1"
         id="rect20"
         width="30.128031"
         height="11.286353"
         x="177.19191"
         y="53.347572" /><path
         style="color:#000000;display:inline;fill:url(#linearGradient25);stroke-linecap:square;stroke-linejoin:bevel;-inkscape-stroke:none"
         d="m 174.15254,15.119046 40.91592,41.955358 H 174.814 Z"
         id="path25" /><g
         id="g27"><path
           id="rect27"
           style="display:inline;fill:#0a6db5;fill-opacity:0.459222;stroke-width:4.99999;stroke-linecap:square;stroke-linejoin:bevel"
           d="m 182.94047,23.245534 33.07293,33.82887 -33.07293,-0.09449 z"
           sodipodi:nodetypes="cccc" /><path
           id="path27"
           style="display:inline;fill:#1882cf;fill-opacity:0.459222;stroke-width:4.99999;stroke-linecap:square;stroke-linejoin:bevel"
           d="m 175.28645,49.514879 34.91556,0.188989 4.67746,7.087054 -39.68751,-0.472471 z"
           sodipodi:nodetypes="ccccc" /></g><path
         style="color:#000000;display:inline;fill:url(#linearGradient27);stroke-linecap:square;stroke-linejoin:bevel;-inkscape-stroke:none"
         d="m 175.94141,13.373047 -4.28907,1.785156 6.5e-4,44.600911 c 0,0 29.8634,-0.184895 43.41537,-0.184895 l 1.78906,-4.246094 z m 1.4286,7.056744 34.22551,34.144428 h -34.32013 z"
         id="path26"
         sodipodi:nodetypes="cccccccccc" /></g><g
       id="path39"
       transform="matrix(0.51037535,0,0,0.51037535,154.63803,-5.7241136)"
       style="display:inline"><path
         style="color:#000000;fill:#fbb74e;fill-rule:evenodd;stroke-linejoin:round;-inkscape-stroke:none"
         d="m -23.135599,342.41741 c -88.897461,18.0079 113.65551,-257.86883 -66.436327,-257.86883 -188.158534,0 229.192786,224.89934 66.436327,257.86883 z"
         id="path43" /><path
         d="m -31.138432,250.7938 c -5.131789,20.74621 -8.739144,43.86625 -10.3018,58.78979 -0.967169,9.23659 -2.097583,19.04865 2.253511,24.68726 2.175541,2.81929 5.545213,4.80576 9.426412,5.48753 3.881197,0.68179 9.595846,-1.79459 14.633749,-3.11009 C -1.6398691,333.12658 6.6136666,326.20905 9.0969348,317.09291 11.580202,307.97678 8.6728455,297.72377 3.0988776,286.75843 -2.3750627,275.98985 -12.515449,260.74275 -22.05895,248.77157 m -0.504939,16.11531 c 7.428256,9.68856 13.8352959,16.98893 18.0711038,25.32179 5.14913958,10.12963 7.0890806,18.73065 5.42378013,24.84398 -1.66529116,6.11332 -4.15846283,7.20573 -15.76296493,12.50663 -3.998675,1.82658 -11.347791,4.69421 -13.43275,4.32796 -2.084957,-0.36624 -3.147903,-1.05698 -4.126836,-2.3256 -1.957865,-2.53721 -1.545837,-10.6544 -0.656572,-19.14699 1.274488,-12.1715 5.899896,-27.28852 10.484239,-45.52777 z"
         style="color:#000000;fill:#fcdcab;fill-opacity:1;fill-rule:evenodd;stroke-width:0.861147;stroke-linejoin:round;-inkscape-stroke:none"
         id="path1-5"
         sodipodi:nodetypes="cssssssccssssssc" /><path
         d="m -93.864558,87.428995 c -18.205862,-0.344626 -29.931102,2.326937 -36.248042,9.847656 -3.15848,3.760359 -4.40073,8.622689 -4.07813,13.476559 0.3226,4.85388 2.00053,9.84091 4.55859,15.11914 10.23225,21.11293 35.143763,47.81925 60.812504,75.9668 12.048581,13.2121 24.151688,26.66468 35.013672,39.69922 -4.866079,24.95796 21.498661,10.94909 10.171875,-2.84766 0.875103,-4.61347 1.792694,-8.7957 2.595703,-13.48437 5.478445,-31.98794 10.236028,-67.15306 1.347446,-93.59933 -4.444291,-13.22314 -12.125419,-24.77397 -24.066406,-32.91602 -11.940987,-8.142039 -29.37155,-10.86948 -50.107212,-11.261995 z m -0.179687,10.630702 c 19.388174,-0.883398 34.835755,1.644953 44.909946,8.514113 10.074191,6.86915 16.46736,16.37029 20.40039,28.07226 7.866061,23.40395 0.847826,46.77189 -4.372451,78.29423 -0.156705,0.94625 -0.01537,1.65042 -0.552813,3.37536 -9.702149,-11.33736 -13.955084,-14.23419 -24.235243,-25.5071 -25.688198,-28.16889 -52.803734,-51.711 -61.698874,-70.06497 -2.22378,-4.5885 -3.42206,-8.5677 -3.62304,-11.5918 -0.20099,-3.0241 -0.26066,-3.67883 1.13487,-5.49627 1.85783,-2.41951 11.21209,-4.829207 28.037215,-5.595823 z"
         style="color:#000000;fill:#fcdcab;fill-opacity:1;fill-rule:evenodd;stroke-linejoin:round;-inkscape-stroke:none"
         id="path1-56"
         sodipodi:nodetypes="sssssccsssssssscsssss" /><path
         style="color:#000000;fill:#d26b10;fill-rule:evenodd;stroke-linejoin:round;-inkscape-stroke:none"
         d="m -89.572266,79.199219 c -24.052684,0 -39.218984,3.143436 -48.068354,11.097656 -4.42469,3.97711 -6.84555,9.414914 -7.06836,15.011715 -0.22282,5.59681 1.42396,11.28244 4.18164,17.16602 11.03069,23.5343 40.642403,52.2686 70.869137,82.43164 12.433872,12.40767 24.67915,24.92585 36,37.15625 -7.067059,24.80424 -14.400582,48.28791 -17.320313,66.82812 -1.908947,12.12177 -2.312423,22.35049 2.205079,30.26758 2.25875,3.95855 6.057686,7.06905 10.685546,8.45508 4.627861,1.38603 9.903168,1.28468 16.013672,0.0469 21.1425604,-4.28284 34.312594,-11.96628 39.904297,-23.44727 5.591703,-11.48099 2.633221,-24.86889 -4.390625,-38.45312 -7.5953277,-14.6895 -20.3801284,-30.54854 -35.154297,-46.76368 1.610791,-5.78337 3.242738,-11.5578 4.742188,-17.4375 8.5815379,-33.65024 14.6913061,-68.20546 6.378906,-95.73242 -4.1562,-13.76348 -12.217887,-25.76699 -25.203125,-33.980467 -12.985238,-8.213481 -30.580977,-12.646484 -53.775391,-12.646484 z m 0,10.699218 c 21.828501,0 37.299106,4.187066 48.054688,10.990233 10.755582,6.80317 17.110799,16.21269 20.679687,28.03125 7.137778,23.63713 1.931073,56.92626 -6.501953,89.99414 -0.936372,3.67174 -1.987584,7.27496 -2.982422,10.92578 -10.251536,-10.81661 -20.946391,-21.69968 -31.777343,-32.50781 -30.246662,-30.18292 -59.521351,-59.73386 -68.738281,-79.39844 -2.30423,-4.91614 -3.30365,-9.08564 -3.17969,-12.19921 0.12396,-3.11358 1.0407,-5.24165 3.5293,-7.478521 4.9772,-4.473737 17.92911,-8.357422 40.916014,-8.357422 z m 64.44336,161.380863 c 12.535955,14.16096 22.9729851,27.6173 29.0624998,39.39453 6.2752232,12.13639 7.7493292,21.72672 4.2773437,28.85547 -3.4719855,7.12874 -12.8616892,13.685 -32.4082035,17.64453 -5.001667,1.01318 -8.560762,0.86618 -10.820312,0.18945 -2.25955,-0.67673 -3.400696,-1.64627 -4.462891,-3.50781 -2.12439,-3.72308 -2.694937,-12.09149 -0.929687,-23.30078 2.470621,-15.68839 8.787623,-36.64793 15.28125,-59.27539 z"
         id="path44" /><g
         id="g47"
         transform="matrix(1,0,0,-1,-106.06278,355.34851)"
         inkscape:transform-center-y="-1.5603639"><path
           id="rect49"
           style="fill:#ffffff;fill-opacity:1;fill-rule:evenodd;stroke:none;stroke-width:7.42776;stroke-linejoin:miter;stroke-dasharray:none;stroke-opacity:1"
           d="m 4.3460572,338.62103 -3.9523492,-9.63281 19.27534,-8.39678 -6.32132,11.85877 z m -36.0624442,11.4134 -8.688116,-3.25092 14.994643,-6.68451 3.722514,9.07265 z"
           transform="matrix(1,0,0,-1,106.06278,355.34851)"
           sodipodi:nodetypes="cccccccccc" /><g
           id="g51"><path
             id="rect48"
             style="fill:#ffffff;fill-rule:evenodd;stroke-width:10.6972"
             d="m 77.367714,11.86547 39.028096,4.623146 0.68491,15.717661 H 77.367714 Z"
             sodipodi:nodetypes="ccccc" /></g><path
           id="path46"
           style="color:#000000;fill:#7fa8d2;fill-opacity:1;fill-rule:evenodd;stroke-linejoin:round;-inkscape-stroke:none"
           d="M 19.851827,-36.4999 C 12.42948,-39.637977 3.742276,-36.113656 0.60419824,-28.691309 -2.5338791,-21.268962 0.99044157,-12.581757 8.4127888,-9.4436799 14.19167,-7.0004396 20.737492,-8.5961122 24.834376,-12.925273 L 165.40978,46.508289 c -0.25193,5.95511 3.16454,11.762367 8.94362,14.205691 7.42237,3.138086 16.11136,-0.38548 19.24944,-7.807827 3.13807,-7.422348 -0.38803,-16.110307 -7.8104,-19.248392 -5.69453,-2.407576 -12.13094,-0.890711 -16.23732,3.296553 L 28.801609,-22.554547 C 28.944007,-28.417906 25.54647,-34.092275 19.851827,-36.4999 Z m -3.504726,8.289566 c 2.942347,1.243988 4.269539,4.51175 3.025551,7.454098 -1.243988,2.942347 -4.512789,4.26698 -7.455136,3.022991 -2.9423476,-1.243988 -4.2677409,-4.51099 -3.0237526,-7.453337 1.2439886,-2.942348 4.5109906,-4.267741 7.4533376,-3.023752 z m 165.940609,70.15766 c 2.94236,1.243991 4.26955,4.511753 3.02556,7.4541 -1.24399,2.942347 -4.51279,4.26698 -7.45514,3.022989 -2.94234,-1.243983 -4.26774,-4.51099 -3.02375,-7.453337 1.24398,-2.942347 4.511,-4.267736 7.45333,-3.023752 z" /><rect
           style="fill:#7fa8d2;fill-opacity:1;fill-rule:evenodd;stroke:#4574ad;stroke-width:11.3475;stroke-linejoin:miter;stroke-dasharray:none;stroke-opacity:1"
           id="rect47"
           width="20.016743"
           height="18.699852"
           x="86.852608"
           y="2.8787735" /></g><g
         id="g53"
         transform="translate(-190,70)"><g
           id="g52"><rect
             style="fill:#ffffff;fill-opacity:1;fill-rule:evenodd;stroke:none;stroke-width:10.6972;stroke-linejoin:miter;stroke-dasharray:none;stroke-opacity:1"
             id="rect51"
             width="39.713005"
             height="20.340807"
             x="77.367714"
             y="11.86547" /><path
             id="path51"
             style="fill:#ffffff;fill-opacity:1;fill-rule:evenodd;stroke:none;stroke-width:7.42776;stroke-linejoin:miter;stroke-dasharray:none;stroke-opacity:1"
             d="m 113.93359,11.865234 v 10.41211 h 39.71289 v -10.41211 z m -67.802731,0.121094 v 9.806641 H 85.84375 v -9.806641 z" /></g><path
           id="path52"
           style="color:#000000;fill:#7fa8d2;fill-opacity:1;fill-rule:evenodd;stroke-linejoin:round;-inkscape-stroke:none"
           d="m 7.0214844,-2.5800781 c -8.0584595,0 -14.6874999,6.6290403 -14.6875,14.6875001 0,8.058459 6.6290405,14.6875 14.6875,14.6875 6.2741446,0 11.6818806,-4.01875 13.7695316,-9.601563 H 173.41406 c 2.08696,5.583135 7.49517,9.601563 13.76953,9.601563 8.05848,0 14.68946,-6.629041 14.68946,-14.6875 0,-8.0584598 -6.63098,-14.6875002 -14.68946,-14.6875001 -6.18256,0 -11.52021,3.9035576 -13.67187,9.359375 H 20.695312 C 18.543195,1.3233224 13.204171,-2.5800782 7.0214844,-2.5800781 Z m 0,9 c 3.1945136,-1e-7 5.6894526,2.4929868 5.6894536,5.6875001 0,3.194513 -2.49494,5.6875 -5.6894536,5.6875 -3.194513,0 -5.6875,-2.492987 -5.6875,-5.6875 0,-3.1945132 2.4929871,-5.6875001 5.6875,-5.6875001 z m 180.1621056,0 c 3.19452,-1e-7 5.68946,2.4929868 5.68946,5.6875001 0,3.194513 -2.49494,5.6875 -5.68946,5.6875 -3.1945,0 -5.6875,-2.492987 -5.6875,-5.6875 0,-3.1945132 2.493,-5.6875001 5.6875,-5.6875001 z" /><rect
           style="fill:#7fa8d2;fill-opacity:1;fill-rule:evenodd;stroke:#4574ad;stroke-width:11.3475;stroke-linejoin:miter;stroke-dasharray:none;stroke-opacity:1"
           id="rect52"
           width="20.016743"
           height="18.699852"
           x="86.852608"
           y="2.8787735" /></g></g><path
       style="font-weight:bold;font-size:57.3333px;line-height:0.7;font-family:'Liberation Sans';-inkscape-font-specification:'Liberation Sans Bold';letter-spacing:0.96px;word-spacing:0px;display:inline;fill-rule:evenodd;stroke-width:3.92794"
       d="m 117.18337,223.25884 -3.30612,-9.52167 H 99.674083 l -3.306125,9.52167 H 88.565487 L 102.1603,185.99208 h 9.2043 l 13.54193,37.26676 z m -10.42091,-31.52732 -0.15884,0.58189 q -0.26461,0.95217 -0.63479,2.16883 -0.37037,1.21665 -4.54923,13.38324 h 10.71187 l -3.67642,-10.71188 -1.1373,-3.59708 z m 41.79728,25.94657 q 3.04162,0 5.89815,-0.87283 2.85648,-0.89926 4.417,-2.27462 v -5.15757 h -9.0985 v -5.7659 h 16.23972 v 13.70062 q -2.96228,3.04166 -7.72312,4.76084 -4.73438,1.7192 -9.94486,1.7192 -9.09846,0 -13.99157,-5.02534 -4.89306,-5.05177 -4.89306,-14.30895 0,-9.20428 4.91952,-14.09736 4.91953,-4.91953 14.15025,-4.91953 13.11876,0 16.6894,9.70682 l -7.19417,2.16881 q -1.16377,-2.83004 -3.64996,-4.28474 -2.48623,-1.4547 -5.84527,-1.4547 -5.50139,0 -8.3579,3.33258 -2.85648,3.33258 -2.85648,9.54812 0,6.32133 2.93582,9.78617 2.96233,3.43838 8.30503,3.43838 z"
       id="text1"
       aria-label="AG" /></g></svg>
