<?xml version="1.0" encoding="UTF-8" standalone="no"?>
<!-- Created with Inkscape (http://www.inkscape.org/) -->

<svg
   width="256mm"
   height="256mm"
   viewBox="0 0 256 256"
   version="1.1"
   id="svg1"
   inkscape:version="1.3.2 (091e20ef0f, 2023-11-25)"
   xml:space="preserve"
   sodipodi:docname="image-vnd.wap.wbmp.svg"
   xmlns:inkscape="http://www.inkscape.org/namespaces/inkscape"
   xmlns:sodipodi="http://sodipodi.sourceforge.net/DTD/sodipodi-0.dtd"
   xmlns:xlink="http://www.w3.org/1999/xlink"
   xmlns="http://www.w3.org/2000/svg"
   xmlns:svg="http://www.w3.org/2000/svg"
   xmlns:rdf="http://www.w3.org/1999/02/22-rdf-syntax-ns#"
   xmlns:cc="http://creativecommons.org/ns#"
   xmlns:dc="http://purl.org/dc/elements/1.1/"><defs
     id="defs1"><linearGradient
       id="linearGradient26"
       inkscape:collect="always"><stop
         style="stop-color:#7b91c4;stop-opacity:1;"
         offset="0"
         id="stop26" /><stop
         style="stop-color:#5c5e91;stop-opacity:1"
         offset="1"
         id="stop27" /></linearGradient><linearGradient
       id="linearGradient24"
       inkscape:collect="always"><stop
         style="stop-color:#c7fafe;stop-opacity:1;"
         offset="0"
         id="stop24" /><stop
         style="stop-color:#9acdff;stop-opacity:1"
         offset="1"
         id="stop25" /></linearGradient><linearGradient
       id="linearGradient22"
       inkscape:collect="always"><stop
         style="stop-color:#adaeae;stop-opacity:0.8253752;"
         offset="0"
         id="stop22" /><stop
         style="stop-color:#8ac5fe;stop-opacity:0.83628923;"
         offset="1"
         id="stop23" /></linearGradient><linearGradient
       id="linearGradient18"
       inkscape:collect="always"><stop
         style="stop-color:#9797ff;stop-opacity:1;"
         offset="0"
         id="stop18" /><stop
         style="stop-color:#ccccff;stop-opacity:1;"
         offset="0.30000001"
         id="stop20" /><stop
         style="stop-color:#ccccff;stop-opacity:1;"
         offset="1"
         id="stop19" /></linearGradient><linearGradient
       id="linearGradient16"
       inkscape:collect="always"><stop
         style="stop-color:#cdcdcd;stop-opacity:0.17462483;"
         offset="0"
         id="stop16" /><stop
         style="stop-color:#cdcdcd;stop-opacity:1;"
         offset="1"
         id="stop17" /></linearGradient><linearGradient
       id="linearGradient12"
       inkscape:collect="always"><stop
         style="stop-color:#fdfeff;stop-opacity:1;"
         offset="0"
         id="stop13" /><stop
         style="stop-color:#99ccff;stop-opacity:1;"
         offset="1"
         id="stop14" /></linearGradient><linearGradient
       id="linearGradient9"
       inkscape:collect="always"><stop
         style="stop-color:#97c9fc;stop-opacity:1;"
         offset="0"
         id="stop9" /><stop
         style="stop-color:#7788bb;stop-opacity:1"
         offset="0.25"
         id="stop12" /><stop
         style="stop-color:#57578a;stop-opacity:1"
         offset="0.5"
         id="stop11" /><stop
         style="stop-color:#444482;stop-opacity:1;"
         offset="1"
         id="stop10" /></linearGradient><linearGradient
       inkscape:collect="always"
       xlink:href="#linearGradient9"
       id="linearGradient10"
       x1="31.622168"
       y1="100.24049"
       x2="221.19499"
       y2="240.28973"
       gradientUnits="userSpaceOnUse" /><linearGradient
       inkscape:collect="always"
       xlink:href="#linearGradient12"
       id="linearGradient14"
       x1="73.583481"
       y1="62.020954"
       x2="207.02971"
       y2="229.59895"
       gradientUnits="userSpaceOnUse" /><linearGradient
       inkscape:collect="always"
       xlink:href="#linearGradient16"
       id="linearGradient17"
       x1="57.531055"
       y1="26.420616"
       x2="147.13231"
       y2="144.34076"
       gradientUnits="userSpaceOnUse" /><linearGradient
       inkscape:collect="always"
       xlink:href="#linearGradient18"
       id="linearGradient19"
       x1="209.82518"
       y1="58.53635"
       x2="210.58252"
       y2="194.57654"
       gradientUnits="userSpaceOnUse" /><linearGradient
       inkscape:collect="always"
       xlink:href="#linearGradient22"
       id="linearGradient23"
       x1="177.19191"
       y1="58.990749"
       x2="207.31994"
       y2="58.990749"
       gradientUnits="userSpaceOnUse" /><linearGradient
       inkscape:collect="always"
       xlink:href="#linearGradient24"
       id="linearGradient25"
       x1="176.32031"
       y1="20.126524"
       x2="176.32031"
       y2="56.695721"
       gradientUnits="userSpaceOnUse" /><linearGradient
       inkscape:collect="always"
       xlink:href="#linearGradient26"
       id="linearGradient27"
       x1="172.59729"
       y1="13.51158"
       x2="210.54449"
       y2="51.28627"
       gradientUnits="userSpaceOnUse" /><radialGradient
       inkscape:collect="always"
       xlink:href="#linearGradient306"
       id="radialGradient307"
       cx="166.60089"
       cy="301.23767"
       fx="166.60089"
       fy="301.23767"
       r="166.60089"
       gradientTransform="matrix(0.98150011,0,0,0.74709301,3.0820976,76.185109)"
       gradientUnits="userSpaceOnUse" /><linearGradient
       id="linearGradient306"
       inkscape:collect="always"><stop
         style="stop-color:#cbcbcb;stop-opacity:1;"
         offset="0"
         id="stop306" /><stop
         style="stop-color:#aeaeae;stop-opacity:1;"
         offset="0.28599221"
         id="stop308" /><stop
         style="stop-color:#7a7a7a;stop-opacity:1;"
         offset="0.56712061"
         id="stop309" /><stop
         style="stop-color:#434343;stop-opacity:1;"
         offset="0.78161478"
         id="stop310" /><stop
         style="stop-color:#000000;stop-opacity:1;"
         offset="1"
         id="stop307" /></linearGradient></defs><sodipodi:namedview
     id="base"
     pagecolor="#ffffff"
     bordercolor="#000000"
     borderopacity="0.3"
     inkscape:pageopacity="0.0"
     inkscape:pageshadow="2"
     inkscape:zoom="0.98994949"
     inkscape:cx="505.07627"
     inkscape:cy="476.792"
     inkscape:document-units="mm"
     inkscape:showpageshadow="2"
     inkscape:pagecheckerboard="0"
     inkscape:deskcolor="#d1d1d1"
     inkscape:current-layer="g28"
     showguides="true"><sodipodi:guide
       position="92.475254,162.18839"
       orientation="0,-1"
       id="guide12"
       inkscape:locked="false" /><sodipodi:guide
       position="212.80059,201.33519"
       orientation="0,-1"
       id="guide27"
       inkscape:locked="false" /><sodipodi:guide
       position="177.33333,251.7905"
       orientation="1,0"
       id="guide28"
       inkscape:locked="false" /></sodipodi:namedview><metadata
     id="metadata1"><rdf:RDF><cc:Work
         rdf:about=""><dc:format>image/svg+xml</dc:format><dc:type
           rdf:resource="http://purl.org/dc/dcmitype/StillImage" /><cc:license
           rdf:resource="http://creativecommons.org/publicdomain/zero/1.0/" /></cc:Work><cc:License
         rdf:about="http://creativecommons.org/publicdomain/zero/1.0/"><cc:permits
           rdf:resource="http://creativecommons.org/ns#Reproduction" /><cc:permits
           rdf:resource="http://creativecommons.org/ns#Distribution" /><cc:permits
           rdf:resource="http://creativecommons.org/ns#DerivativeWorks" /></cc:License></rdf:RDF></metadata><g
     id="g28"
     transform="matrix(1.0481261,0,0,1.0481261,-6.4074194,-6.1384097)"><g
       id="g7"
       inkscape:label="shadow"
       style="display:inline"><path
         id="rect1"
         style="fill:#000000;fill-opacity:0.0602258;stroke-width:3.72791;stroke-linecap:square"
         d="M 48.380952,13.418155 H 179.16071 l 43.46726,43.278274 V 244.17261 H 48.380952 Z"
         sodipodi:nodetypes="cccccc" /><path
         id="path1"
         style="fill:#000000;fill-opacity:0.0752823;stroke-width:3.72791;stroke-linecap:square"
         d="m 47.563027,12.60023 129.443423,-0.133635 43.46726,43.278274 1.33635,187.609821 H 47.563027 Z"
         sodipodi:nodetypes="cccccc" /><path
         id="path2"
         style="fill:#000000;fill-opacity:0.0602258;stroke-width:3.72791;stroke-linecap:square"
         d="m 46.493949,11.793049 128.975701,-0.868626 43.46726,43.278274 1.80407,188.344813 H 46.493949 Z"
         sodipodi:nodetypes="cccccc" /><path
         id="path3"
         style="fill:#000000;fill-opacity:0.0602258;stroke-width:3.72791;stroke-linecap:square"
         d="m 45.964782,12.33296 129.777508,0.467722 43.46726,42.209196 1.00226,187.008462 H 45.964782 Z"
         sodipodi:nodetypes="cccccc" /><path
         id="path4"
         style="fill:#000000;fill-opacity:0.0602258;stroke-width:3.72791;stroke-linecap:square"
         d="m 45.435615,12.338332 129.443415,0.935443 43.46726,41.674657 1.33635,186.540738 H 45.435615 Z"
         sodipodi:nodetypes="cccccc" /><path
         id="path5"
         style="fill:#000000;fill-opacity:0.0602258;stroke-width:3.72791;stroke-linecap:square"
         d="M 44.906448,12.744609 174.8844,13.412783 218.35166,54.151996 219.15347,240.96 H 44.906448 Z"
         sodipodi:nodetypes="cccccc" /><path
         id="path6"
         style="fill:#000000;fill-opacity:0.0602258;stroke-width:3.72791;stroke-linecap:square"
         d="m 44.377281,15.021772 129.911129,0.534539 43.46726,37.932883 0.86863,186.941636 H 44.377281 Z"
         sodipodi:nodetypes="cccccc" /><path
         id="path7"
         style="fill:#000000;fill-opacity:0.0602258;stroke-width:3.72791;stroke-linecap:square"
         d="m 43.848114,13.423527 129.710676,1.069078 43.46726,39.001961 1.06908,186.407094 H 43.848114 Z"
         sodipodi:nodetypes="cccccc" /></g><g
       id="g14"
       style="display:inline"><path
         style="color:#000000;fill:url(#linearGradient14);stroke-linecap:square;-inkscape-stroke:none"
         d="M 46.153822,14.648159 H 173.78301 l 40.90293,41.140298 V 236.0795 H 46.554726 Z"
         id="path15"
         inkscape:label="headbgground" /><path
         id="rect16"
         style="display:inline;fill:url(#linearGradient17);fill-opacity:1;stroke-width:4.99999;stroke-linecap:square"
         d="M 45.435818,14.165285 H 176.70315 l 0.20408,8.220982 H 53.433709 V 235.97952 h -7.997891 z"
         sodipodi:nodetypes="ccccccc" /><path
         id="rect17"
         style="fill:url(#linearGradient19);stroke-width:4.99999;stroke-linecap:square"
         d="M 47.058037,227.91965 H 207.27506 l -0.0668,-168.246312 7.31651,0.0667 0.0668,168.546562 -7.08265,0.0331 v 7.34846 H 47.058037 Z"
         sodipodi:nodetypes="ccccccccc" /><path
         style="color:#000000;fill:url(#linearGradient10);stroke-linecap:square;-inkscape-stroke:none"
         d="M 43.648437,12.148438 44.058594,238.58008 H 217.18555 V 54.757812 L 174.82227,12.148438 Z m 4.608862,4.999999 H 172.74414 l 39.44141,39.671875 V 233.58008 H 48.775405 Z"
         id="path16"
         inkscape:label="headframe"
         sodipodi:nodetypes="cccccccccccc" /></g><g
       id="g15"><g
         id="g318"
         transform="matrix(0.45921861,0,0,0.45921861,54.593479,-34.725273)"
         style="display:inline"><path
           id="rect306"
           style="display:inline;fill:url(#radialGradient307);fill-rule:evenodd;stroke-width:4.5;stroke-linejoin:round"
           d="m 0,176.7713 h 307.17518 l 26.0266,29.26379 V 425.70403 H 0 Z"
           sodipodi:nodetypes="cccccc" /><path
           style="fill:#ffffff;fill-opacity:1;fill-rule:evenodd;stroke:none;stroke-width:4.5;stroke-linejoin:round;stroke-opacity:1"
           id="path310"
           sodipodi:type="arc"
           sodipodi:cx="22.641254"
           sodipodi:cy="197.71747"
           sodipodi:rx="20.946188"
           sodipodi:ry="20.946188"
           sodipodi:start="2.3561945"
           sodipodi:end="3.9269908"
           sodipodi:arc-type="slice"
           d="m 7.8300627,212.52866 a 20.946188,20.946188 0 0 1 -1e-7,-29.62238 l 14.8111914,14.81119 z" /><path
           style="fill:#ffffff;fill-opacity:1;fill-rule:evenodd;stroke:none;stroke-width:4.5;stroke-linejoin:round;stroke-opacity:1"
           id="path311"
           sodipodi:type="arc"
           sodipodi:cx="-22.399101"
           sodipodi:cy="197.71747"
           sodipodi:rx="20.946188"
           sodipodi:ry="20.946188"
           sodipodi:start="2.3561945"
           sodipodi:end="3.9269908"
           sodipodi:arc-type="slice"
           d="m -37.210293,212.52866 a 20.946188,20.946188 0 0 1 0,-29.62238 l 14.811192,14.81119 z"
           transform="scale(-1,1)" /><rect
           style="fill:#ffffff;fill-opacity:1;fill-rule:evenodd;stroke:none;stroke-width:4.5;stroke-linejoin:round;stroke-opacity:1"
           id="rect311"
           width="21.232227"
           height="21.403456"
           x="1.0273659"
           y="404.61093" /><rect
           style="fill:#ffffff;fill-opacity:1;fill-rule:evenodd;stroke:none;stroke-width:4.5;stroke-linejoin:round;stroke-opacity:1"
           id="rect312"
           width="21.232227"
           height="21.403456"
           x="22.088366"
           y="383.72116" /><path
           id="rect313"
           style="fill:#ffffff;fill-rule:evenodd;stroke-width:6.30528;stroke-linejoin:round"
           d="m 291.94315,383.72046 h 41.35147 l -20.88977,21.57606 h -0.25684 z"
           sodipodi:nodetypes="ccccc" /><path
           id="path313"
           style="fill:#ffffff;fill-rule:evenodd;stroke-width:6.30528;stroke-linejoin:round"
           d="m 291.94315,425.75822 h 41.35147 l -20.88977,-21.57606 h -0.25684 z"
           sodipodi:nodetypes="ccccc" /><path
           id="rect314"
           style="display:inline;fill:#ffffff;fill-opacity:1;fill-rule:evenodd;stroke:#000000;stroke-width:4.3;stroke-linejoin:round;stroke-dasharray:none;stroke-opacity:1"
           d="m 164.17969,231.96484 c -24.51895,0 -64.828181,0.45347 -81.357424,0.64258 -11.876568,0.13588 -22.42575,6.78556 -29.548828,18.31836 -7.123078,11.5328 -11.15625,27.90015 -11.15625,48.4961 0,14.83611 1.70284,31.60122 7.548828,45.17578 5.845986,13.57454 16.634512,24.16983 33.169922,24.30273 18.508682,0.14876 56.844862,0.40039 81.343752,0.40039 24.41735,0 66.63349,0.56836 82.52539,0.56836 14.68762,0 26.83836,-5.41462 34.5918,-17.12109 1.57403,-2.37655 2.96693,-4.9995 4.20117,-7.85352 v 24.63086 h 7.02148 V 300.5293 c 3.8e-4,-0.38116 0.0191,-0.72867 0.0176,-1.11328 -10e-6,-0.27728 -0.0165,-0.52169 -0.0176,-0.79688 V 232.4668 h -7.02148 v 23.86914 c -1.55846,-3.452 -3.36933,-6.48625 -5.42774,-9.13867 -8.18756,-10.55035 -20.18818,-14.34766 -33.36523,-14.34766 -16.21599,0 -57.96358,-0.88477 -82.52539,-0.88477 z m 0,7.29883 c 24.38586,0 66.04599,0.88477 82.52539,0.88477 11.86292,0 20.95392,2.96439 27.59765,11.52539 6.64375,8.561 10.93555,23.47072 10.93555,47.74805 a 3.6503651,3.6503651 0 0 0 0,0.0137 c 0.0906,23.50724 -3.56935,39.53069 -10.02734,49.28125 -6.458,9.75055 -15.48984,13.85156 -28.50586,13.85156 -15.71697,0 -57.99507,-0.56836 -82.52539,-0.56836 -24.44881,0 -62.79129,-0.25175 -81.285159,-0.40039 -13.592508,-0.10925 -21.354647,-7.884 -26.52539,-19.89063 -5.170745,-12.00661 -6.953125,-28.03399 -6.953125,-42.2871 0,-19.63227 3.934115,-34.72836 10.068359,-44.66016 6.134244,-9.9318 14.132893,-14.7492 23.421875,-14.85547 16.526993,-0.18909 56.84469,-0.64258 81.27344,-0.64258 z" /><path
           id="rect316"
           style="color:#000000;fill:#ffffff;fill-rule:evenodd;stroke:#000000;stroke-width:3.6;stroke-linejoin:round;stroke-dasharray:none;stroke-opacity:1"
           d="m 72.085938,243.05469 a 3.0003,3.0003 0 0 0 -2.6875,4.33203 l 3.996093,8.06445 -2.675781,5.98828 a 3.0003,3.0003 0 0 0 -0.107422,2.17774 l 4.523438,13.49219 -4.414063,7.28515 a 3.0003,3.0003 0 0 0 2.542969,4.55469 l 5.158203,0.0371 c -6.256923,23.13996 1.213466,44.62222 -1.601563,65.04492 a 3.0003,3.0003 0 0 0 2.972657,3.41016 h 10.787109 a 3.0003,3.0003 0 0 0 2.894531,-3.78516 c -2.733564,-10.07919 -1.75699,-20.89474 -0.939453,-32.42187 0.725781,-10.23339 1.29004,-21.03646 -1.488281,-32.15821 l 6.189453,0.0449 a 3.0003,3.0003 0 0 0 2.650391,-4.44336 l -4.664063,-8.50195 3.667969,-10.4668 a 3.0003,3.0003 0 0 0 0,-1.98242 l -2.556641,-7.29492 3.400391,-9.35156 a 3.0003,3.0003 0 0 0 -2.820313,-4.02539 z m 4.835937,6 h 15.708984 l -2.302734,6.33398 a 3.0003,3.0003 0 0 0 -0.01172,2.01758 l 2.5625,7.3125 -3.761718,10.73633 a 3.0003,3.0003 0 0 0 0.201171,2.43554 l 2.84961,5.19336 -3.941407,-0.0273 A 3.0003,3.0003 0 0 0 86.984375,282.7793 H 82.53125 a 3.0003,3.0003 0 0 0 -1.087891,0.22851 l -2.853515,-0.0195 2.398437,-3.95898 a 3.0003,3.0003 0 0 0 0.279297,-2.50782 l -4.59375,-13.70312 2.775391,-6.20703 a 3.0003,3.0003 0 0 0 -0.05078,-2.55664 z m 7.8125,40.13867 c 2.90241,10.51618 2.56618,21.01796 1.814453,31.61719 -0.721572,10.17404 -1.548025,20.42711 0.429688,30.63086 h -3.931641 c 2.012059,-21.4887 -4.304674,-41.75118 1.6875,-62.24805 z" /><path
           style="color:#000000;fill:#ffffff;fill-rule:evenodd;stroke:#000000;stroke-width:3.7;stroke-linejoin:round;stroke-dasharray:none;stroke-opacity:1"
           d="m 154.93359,245.28516 a 2.9508101,2.9508101 0 0 0 -2.95117,2.93359 c 0,0 -0.10427,19.33608 -0.15625,39.20703 -0.026,9.93548 -0.039,20.00447 -0.0195,27.86328 0.01,3.92941 0.028,7.30556 0.0566,9.84375 0.0286,2.5382 0.0367,3.99708 0.13281,4.98242 0.29871,3.06298 -1.03755,4.82552 -4.10937,6.76172 -3.07182,1.93621 -7.7474,3.43006 -12.46289,4.58985 -4.71549,1.15979 -9.42352,2.00687 -13,3.10156 -1.78824,0.54734 -3.30367,1.05208 -4.68555,2.23828 -0.69094,0.5931 -1.4033,1.49079 -1.63281,2.69141 -0.22951,1.20061 0.13995,2.43222 0.68164,3.29882 1.26822,2.02892 3.44819,3.20109 5.55664,3.60352 2.10845,0.40244 4.26855,0.27491 6.62109,0.043 4.7051,-0.46387 10.22055,-1.45003 16.39063,-1.23438 2.97966,0.10415 8.73341,1.41955 13.69336,1.87305 2.47997,0.22675 4.78981,0.33356 7.04101,-0.48242 1.12561,-0.40799 2.31262,-1.15509 3.07813,-2.375 0.76551,-1.21992 0.95686,-2.72773 0.75586,-4.10352 -0.79332,-5.42999 0.71123,-12.90889 0.85742,-20.23242 0.54517,-27.31041 0,-81.68359 0,-81.68359 a 2.9508101,2.9508101 0 0 0 -2.94922,-2.91992 z m 2.9375,5.90039 h 7.0293 c 0.0457,4.77152 0.49514,52.80359 -0.0195,78.58593 -0.12969,6.49708 -1.83118,14.12367 -0.79688,21.20313 0.0566,0.38725 -0.008,0.26262 0.0859,0.11328 0.0937,-0.14934 0.19173,-0.13792 -0.0918,-0.0352 -0.56704,0.20554 -2.35689,0.34758 -4.49218,0.15235 -4.27058,-0.39047 -9.8048,-1.74506 -14.02539,-1.89258 -6.90945,-0.2415 -12.86911,0.83341 -17.17383,1.25781 -2.15236,0.2122 -3.88108,0.23484 -4.9375,0.0332 -0.0659,-0.0126 -0.0768,-0.0304 -0.13672,-0.043 0.36791,-0.14973 0.35449,-0.20165 0.83789,-0.34961 2.96459,-0.9074 7.74479,-1.79944 12.68164,-3.01367 4.93686,-1.21424 10.0769,-2.72855 14.20117,-5.32813 4.12428,-2.59958 7.36493,-6.90177 6.83594,-12.32617 -0.008,-0.0804 -0.0772,-1.96972 -0.10547,-4.47656 -0.0282,-2.50684 -0.0469,-5.87113 -0.0566,-9.79102 -0.0195,-7.83978 -0.006,-17.90379 0.0195,-27.83398 0.0481,-18.37279 0.13094,-33.6746 0.14453,-36.25586 z"
           id="rect317" /><path
           style="color:#000000;fill:#ffffff;fill-rule:evenodd;stroke:#000000;stroke-width:3.3;stroke-linejoin:round;stroke-dasharray:none;stroke-opacity:1"
           d="m 195.22852,271.60937 c -1.45805,0.0404 -2.85538,0.45594 -4.01563,1.04688 -2.3205,1.18189 -4.49219,2.86757 -4.49219,6.10156 0,15.64287 -0.17187,47.07227 -0.17187,47.07227 a 3.0003,3.0003 0 0 0 3,3.01562 h 87.15429 a 3.0003,3.0003 0 0 0 3,-3 v -45.20312 c 0,-3.18216 -1.96847,-5.28675 -4.40234,-6.80664 -2.43387,-1.5199 -6.11387,-2.1901 -9.19922,-0.14844 -8.53264,5.64627 -11.1241,14.86025 -14.71679,21.7168 -1.79635,3.42827 -3.76754,6.29006 -6.59375,8.33984 -2.82622,2.04978 -6.60524,3.43361 -12.56446,3.52148 -5.51015,0.0813 -8.8914,-1.22379 -11.49414,-3.27539 -2.60274,-2.05159 -4.49345,-5.05443 -6.23633,-8.6582 -3.48576,-7.20754 -6.14105,-16.85475 -14.88281,-22.51562 -1.40721,-0.91127 -2.92672,-1.2474 -4.38476,-1.20704 z m 0.0547,5.99219 c 0.41018,-0.0245 0.77348,0.059 1.06836,0.25 6.51588,4.21947 8.93483,12.21524 12.74414,20.0918 1.90466,3.93828 4.21657,7.83908 7.92188,10.75976 3.70531,2.92069 8.73768,4.65727 15.29687,4.56055 6.88813,-0.10157 12.10014,-1.83363 16,-4.66211 3.89987,-2.82847 6.39051,-6.60613 8.38477,-10.41211 3.98852,-7.61196 6.29131,-15.24872 12.71289,-19.49804 0.86645,-0.57335 1.65944,-0.42226 2.71094,0.23437 1.05149,0.65664 1.58008,2.08623 1.58007,1.7168 v 42.20312 h -81.14257 c 0.0192,-3.58625 0.16015,-29.40619 0.16015,-44.08789 0,0.86239 0.25554,-0.26531 1.21485,-0.7539 0.47965,-0.2443 0.93748,-0.37784 1.34765,-0.40235 z"
           id="rect318" /></g><path
         d="m 92.979714,218.70269 h -8.030415 l -4.382318,-18.69941 q -0.803071,-3.30394 -1.353734,-6.90616 -0.550623,3.00566 -0.89479,4.5888 -0.344091,1.5602 -4.8871,21.01677 H 65.40094 L 57.07223,186.3745 h 6.860278 l 4.680606,20.87911 1.055406,5.04769 q 0.64246,-3.18921 1.239,-6.08017 0.61948,-2.9139 4.58881,-19.84663 h 7.571549 l 4.084027,17.20808 q 0.481843,1.9273 1.629045,8.71872 l 0.573603,-2.66151 1.21602,-5.27713 3.900513,-17.98816 h 6.860273 z m 41.137806,-9.22351 q 0,4.40527 -3.30393,6.81441 -3.30396,2.4091 -9.17765,2.4091 H 105.46035 V 186.3745 h 14.79895 q 5.91957,0 8.9482,2.06496 3.05155,2.04203 3.05155,6.05725 0,2.75328 -1.53725,4.65765 -1.5143,1.8814 -4.63468,2.54679 3.92344,0.45889 5.96544,2.47797 2.06496,1.99611 2.06496,5.30006 z m -8.67283,-14.06471 q 0,-2.1797 -1.39962,-3.09744 -1.37664,-0.91778 -4.10696,-0.91778 h -7.70922 v 8.00748 h 7.7551 q 2.868,0 4.15288,-0.98659 1.30782,-1.00956 1.30782,-3.00567 z m 1.88138,13.537 q 0,-4.54293 -6.51611,-4.54293 h -8.58107 v 9.26941 h 8.83347 q 3.25807,0 4.7494,-1.17015 1.51431,-1.19309 1.51431,-3.55633 z m 39.85297,9.75122 v -19.59424 q 0,-0.66535 0,-1.33074 0.0235,-0.66537 0.22938,-5.71307 -1.62901,6.17195 -2.40915,8.60403 l -5.82774,18.03402 h -4.81829 l -5.82778,-18.03402 -2.45501,-8.60403 q 0.27533,5.32302 0.27533,7.04381 v 19.59424 h -6.0113 V 186.3745 h 9.06289 l 5.78192,18.07994 0.50475,1.74375 1.1013,4.33642 1.44551,-5.18536 5.9425,-18.97475 h 9.01705 v 32.32819 z m 39.83,-22.09514 q 0,3.1204 -1.42254,5.57542 -1.42254,2.45503 -4.08406,3.80873 -2.63858,1.33075 -6.28667,1.33075 h -8.03041 v 11.38024 h -6.76852 V 186.3745 h 14.52362 q 5.80482,0 8.92524,2.68446 3.14334,2.66151 3.14334,7.54859 z m -6.81441,0.11468 q 0,-5.09358 -6.01134,-5.09358 h -6.99793 v 10.48546 h 7.1815 q 2.79913,0 4.31346,-1.37665 1.51431,-1.3996 1.51431,-4.01523 z"
         id="text1"
         style="font-weight:bold;font-size:48px;line-height:0.7;font-family:'Liberation Sans';-inkscape-font-specification:'Liberation Sans Bold';letter-spacing:0.96px;word-spacing:0px;display:inline;fill-rule:evenodd;stroke-width:4.06998"
         aria-label="WBMP" /></g><g
       id="rect23"
       style="display:inline"><rect
         style="display:inline;fill:url(#linearGradient23);fill-opacity:0.834379;stroke:none;stroke-width:4.99999;stroke-linecap:square;stroke-dasharray:none;stroke-opacity:1"
         id="rect20"
         width="30.128031"
         height="11.286353"
         x="177.19191"
         y="53.347572" /><path
         style="color:#000000;display:inline;fill:url(#linearGradient25);stroke-linecap:square;stroke-linejoin:bevel;-inkscape-stroke:none"
         d="m 174.15254,15.119046 40.91592,41.955358 H 174.814 Z"
         id="path25" /><g
         id="g27"><path
           id="rect27"
           style="display:inline;fill:#0a6db5;fill-opacity:0.459222;stroke-width:4.99999;stroke-linecap:square;stroke-linejoin:bevel"
           d="m 182.94047,23.245534 33.07293,33.82887 -33.07293,-0.09449 z"
           sodipodi:nodetypes="cccc" /><path
           id="path27"
           style="display:inline;fill:#1882cf;fill-opacity:0.459222;stroke-width:4.99999;stroke-linecap:square;stroke-linejoin:bevel"
           d="m 175.28645,49.514879 34.91556,0.188989 4.67746,7.087054 -39.68751,-0.472471 z"
           sodipodi:nodetypes="ccccc" /></g><path
         style="color:#000000;display:inline;fill:url(#linearGradient27);stroke-linecap:square;stroke-linejoin:bevel;-inkscape-stroke:none"
         d="m 175.94141,13.373047 -4.28907,1.785156 6.5e-4,44.600911 c 0,0 29.8634,-0.184895 43.41537,-0.184895 l 1.78906,-4.246094 z m 1.4286,7.056744 34.22551,34.144428 h -34.32013 z"
         id="path26"
         sodipodi:nodetypes="cccccccccc" /></g></g></svg>
