<?xml version="1.0" encoding="UTF-8" standalone="no"?>
<!-- Created with Inkscape (http://www.inkscape.org/) -->

<svg
   width="256mm"
   height="256mm"
   viewBox="0 0 256 256"
   version="1.1"
   id="svg1"
   inkscape:version="1.3.2 (091e20ef0f, 2023-11-25)"
   xml:space="preserve"
   sodipodi:docname="image-x-macpaint.svg"
   xmlns:inkscape="http://www.inkscape.org/namespaces/inkscape"
   xmlns:sodipodi="http://sodipodi.sourceforge.net/DTD/sodipodi-0.dtd"
   xmlns:xlink="http://www.w3.org/1999/xlink"
   xmlns="http://www.w3.org/2000/svg"
   xmlns:svg="http://www.w3.org/2000/svg"
   xmlns:rdf="http://www.w3.org/1999/02/22-rdf-syntax-ns#"
   xmlns:cc="http://creativecommons.org/ns#"
   xmlns:dc="http://purl.org/dc/elements/1.1/"><defs
     id="defs1"><linearGradient
       id="linearGradient26"
       inkscape:collect="always"><stop
         style="stop-color:#7b91c4;stop-opacity:1;"
         offset="0"
         id="stop26" /><stop
         style="stop-color:#5c5e91;stop-opacity:1"
         offset="1"
         id="stop27" /></linearGradient><linearGradient
       id="linearGradient24"
       inkscape:collect="always"><stop
         style="stop-color:#c7fafe;stop-opacity:1;"
         offset="0"
         id="stop24" /><stop
         style="stop-color:#9acdff;stop-opacity:1"
         offset="1"
         id="stop25" /></linearGradient><linearGradient
       id="linearGradient22"
       inkscape:collect="always"><stop
         style="stop-color:#adaeae;stop-opacity:0.8253752;"
         offset="0"
         id="stop22" /><stop
         style="stop-color:#8ac5fe;stop-opacity:0.83628923;"
         offset="1"
         id="stop23" /></linearGradient><linearGradient
       id="linearGradient18"
       inkscape:collect="always"><stop
         style="stop-color:#9797ff;stop-opacity:1;"
         offset="0"
         id="stop18" /><stop
         style="stop-color:#ccccff;stop-opacity:1;"
         offset="0.30000001"
         id="stop20" /><stop
         style="stop-color:#ccccff;stop-opacity:1;"
         offset="1"
         id="stop19" /></linearGradient><linearGradient
       id="linearGradient16"
       inkscape:collect="always"><stop
         style="stop-color:#cdcdcd;stop-opacity:0.17462483;"
         offset="0"
         id="stop16" /><stop
         style="stop-color:#cdcdcd;stop-opacity:1;"
         offset="1"
         id="stop17" /></linearGradient><linearGradient
       id="linearGradient12"
       inkscape:collect="always"><stop
         style="stop-color:#fdfeff;stop-opacity:1;"
         offset="0"
         id="stop13" /><stop
         style="stop-color:#99ccff;stop-opacity:1;"
         offset="1"
         id="stop14" /></linearGradient><linearGradient
       id="linearGradient9"
       inkscape:collect="always"><stop
         style="stop-color:#97c9fc;stop-opacity:1;"
         offset="0"
         id="stop9" /><stop
         style="stop-color:#7788bb;stop-opacity:1"
         offset="0.25"
         id="stop12" /><stop
         style="stop-color:#57578a;stop-opacity:1"
         offset="0.5"
         id="stop11" /><stop
         style="stop-color:#444482;stop-opacity:1;"
         offset="1"
         id="stop10" /></linearGradient><linearGradient
       inkscape:collect="always"
       xlink:href="#linearGradient9"
       id="linearGradient10"
       x1="31.622168"
       y1="100.24049"
       x2="221.19499"
       y2="240.28973"
       gradientUnits="userSpaceOnUse" /><linearGradient
       inkscape:collect="always"
       xlink:href="#linearGradient12"
       id="linearGradient14"
       x1="73.583481"
       y1="62.020954"
       x2="207.02971"
       y2="229.59895"
       gradientUnits="userSpaceOnUse" /><linearGradient
       inkscape:collect="always"
       xlink:href="#linearGradient16"
       id="linearGradient17"
       x1="57.531055"
       y1="26.420616"
       x2="147.13231"
       y2="144.34076"
       gradientUnits="userSpaceOnUse" /><linearGradient
       inkscape:collect="always"
       xlink:href="#linearGradient18"
       id="linearGradient19"
       x1="209.82518"
       y1="58.53635"
       x2="210.58252"
       y2="194.57654"
       gradientUnits="userSpaceOnUse" /><linearGradient
       inkscape:collect="always"
       xlink:href="#linearGradient22"
       id="linearGradient23"
       x1="177.19191"
       y1="58.990749"
       x2="207.31994"
       y2="58.990749"
       gradientUnits="userSpaceOnUse" /><linearGradient
       inkscape:collect="always"
       xlink:href="#linearGradient24"
       id="linearGradient25"
       x1="176.32031"
       y1="20.126524"
       x2="176.32031"
       y2="56.695721"
       gradientUnits="userSpaceOnUse" /><linearGradient
       inkscape:collect="always"
       xlink:href="#linearGradient26"
       id="linearGradient27"
       x1="172.59729"
       y1="13.51158"
       x2="210.54449"
       y2="51.28627"
       gradientUnits="userSpaceOnUse" /><linearGradient
       inkscape:collect="always"
       xlink:href="#linearGradient66"
       id="linearGradient67"
       x1="-441.97052"
       y1="66.448723"
       x2="542.65967"
       y2="399.79086"
       gradientUnits="userSpaceOnUse" /><linearGradient
       id="linearGradient66"
       inkscape:collect="always"><stop
         style="stop-color:#e9b852;stop-opacity:1;"
         offset="0"
         id="stop66" /><stop
         style="stop-color:#c29643;stop-opacity:1;"
         offset="0.5"
         id="stop68" /><stop
         style="stop-color:#8a6d31;stop-opacity:1;"
         offset="1"
         id="stop67" /></linearGradient><linearGradient
       inkscape:collect="always"
       xlink:href="#linearGradient7"
       id="linearGradient36"
       x1="45.754898"
       y1="205.68652"
       x2="7.9462767"
       y2="176.38702"
       gradientUnits="userSpaceOnUse" /><linearGradient
       id="linearGradient7"
       inkscape:collect="always"><stop
         style="stop-color:#000000;stop-opacity:0;"
         offset="0"
         id="stop35" /><stop
         style="stop-color:#000000;stop-opacity:0.32697546;"
         offset="0.08390496"
         id="stop37" /><stop
         style="stop-color:#ffffff;stop-opacity:0;"
         offset="0.55331367"
         id="stop39" /><stop
         style="stop-color:#d9d9d9;stop-opacity:0.4;"
         offset="0.75"
         id="stop38" /><stop
         style="stop-color:#ffffff;stop-opacity:0.53678477;"
         offset="1"
         id="stop36" /></linearGradient><linearGradient
       inkscape:collect="always"
       xlink:href="#linearGradient7"
       id="linearGradient58"
       gradientUnits="userSpaceOnUse"
       x1="45.754898"
       y1="205.68652"
       x2="8.6727343"
       y2="183.1673" /><linearGradient
       inkscape:collect="always"
       xlink:href="#linearGradient7"
       id="linearGradient59"
       gradientUnits="userSpaceOnUse"
       x1="45.754898"
       y1="205.68652"
       x2="6.2512093"
       y2="188.97896" /><linearGradient
       inkscape:collect="always"
       xlink:href="#linearGradient7"
       id="linearGradient60"
       gradientUnits="userSpaceOnUse"
       x1="48.902882"
       y1="199.63271"
       x2="7.2198191"
       y2="183.40944" /><linearGradient
       inkscape:collect="always"
       xlink:href="#linearGradient65"
       id="linearGradient61"
       gradientUnits="userSpaceOnUse"
       x1="49.87149"
       y1="194.54752"
       x2="5.7669044"
       y2="182.44084" /><linearGradient
       id="linearGradient65"
       inkscape:collect="always"><stop
         style="stop-color:#000000;stop-opacity:0;"
         offset="0"
         id="stop61" /><stop
         style="stop-color:#000000;stop-opacity:0.32697546;"
         offset="0.11326998"
         id="stop62" /><stop
         style="stop-color:#ffffff;stop-opacity:0;"
         offset="0.55331367"
         id="stop63" /><stop
         style="stop-color:#d9d9d9;stop-opacity:0.4;"
         offset="0.75"
         id="stop64" /><stop
         style="stop-color:#ffffff;stop-opacity:0.53678477;"
         offset="1"
         id="stop65" /></linearGradient></defs><sodipodi:namedview
     id="base"
     pagecolor="#ffffff"
     bordercolor="#000000"
     borderopacity="0.3"
     inkscape:pageopacity="0.0"
     inkscape:pageshadow="2"
     inkscape:zoom="0.98994949"
     inkscape:cx="505.07627"
     inkscape:cy="476.792"
     inkscape:document-units="mm"
     inkscape:showpageshadow="2"
     inkscape:pagecheckerboard="0"
     inkscape:deskcolor="#d1d1d1"
     inkscape:current-layer="svg1"
     showguides="true"><sodipodi:guide
       position="92.475254,162.18839"
       orientation="0,-1"
       id="guide12"
       inkscape:locked="false" /><sodipodi:guide
       position="212.80059,201.33519"
       orientation="0,-1"
       id="guide27"
       inkscape:locked="false" /><sodipodi:guide
       position="177.33333,251.7905"
       orientation="1,0"
       id="guide28"
       inkscape:locked="false" /></sodipodi:namedview><metadata
     id="metadata1"><rdf:RDF><cc:Work
         rdf:about=""><dc:format>image/svg+xml</dc:format><dc:type
           rdf:resource="http://purl.org/dc/dcmitype/StillImage" /><cc:license
           rdf:resource="http://creativecommons.org/publicdomain/zero/1.0/" /></cc:Work><cc:License
         rdf:about="http://creativecommons.org/publicdomain/zero/1.0/"><cc:permits
           rdf:resource="http://creativecommons.org/ns#Reproduction" /><cc:permits
           rdf:resource="http://creativecommons.org/ns#Distribution" /><cc:permits
           rdf:resource="http://creativecommons.org/ns#DerivativeWorks" /></cc:License></rdf:RDF></metadata><g
     id="g28"
     transform="matrix(1.0481261,0,0,1.0481261,-6.4074194,-6.1384097)"><g
       id="g7"
       inkscape:label="shadow"
       style="display:inline"><path
         id="rect1"
         style="fill:#000000;fill-opacity:0.0602258;stroke-width:3.72791;stroke-linecap:square"
         d="M 48.380952,13.418155 H 179.16071 l 43.46726,43.278274 V 244.17261 H 48.380952 Z"
         sodipodi:nodetypes="cccccc" /><path
         id="path1"
         style="fill:#000000;fill-opacity:0.0752823;stroke-width:3.72791;stroke-linecap:square"
         d="m 47.563027,12.60023 129.443423,-0.133635 43.46726,43.278274 1.33635,187.609821 H 47.563027 Z"
         sodipodi:nodetypes="cccccc" /><path
         id="path2"
         style="fill:#000000;fill-opacity:0.0602258;stroke-width:3.72791;stroke-linecap:square"
         d="m 46.493949,11.793049 128.975701,-0.868626 43.46726,43.278274 1.80407,188.344813 H 46.493949 Z"
         sodipodi:nodetypes="cccccc" /><path
         id="path3"
         style="fill:#000000;fill-opacity:0.0602258;stroke-width:3.72791;stroke-linecap:square"
         d="m 45.964782,12.33296 129.777508,0.467722 43.46726,42.209196 1.00226,187.008462 H 45.964782 Z"
         sodipodi:nodetypes="cccccc" /><path
         id="path4"
         style="fill:#000000;fill-opacity:0.0602258;stroke-width:3.72791;stroke-linecap:square"
         d="m 45.435615,12.338332 129.443415,0.935443 43.46726,41.674657 1.33635,186.540738 H 45.435615 Z"
         sodipodi:nodetypes="cccccc" /><path
         id="path5"
         style="fill:#000000;fill-opacity:0.0602258;stroke-width:3.72791;stroke-linecap:square"
         d="M 44.906448,12.744609 174.8844,13.412783 218.35166,54.151996 219.15347,240.96 H 44.906448 Z"
         sodipodi:nodetypes="cccccc" /><path
         id="path6"
         style="fill:#000000;fill-opacity:0.0602258;stroke-width:3.72791;stroke-linecap:square"
         d="m 44.377281,15.021772 129.911129,0.534539 43.46726,37.932883 0.86863,186.941636 H 44.377281 Z"
         sodipodi:nodetypes="cccccc" /><path
         id="path7"
         style="fill:#000000;fill-opacity:0.0602258;stroke-width:3.72791;stroke-linecap:square"
         d="m 43.848114,13.423527 129.710676,1.069078 43.46726,39.001961 1.06908,186.407094 H 43.848114 Z"
         sodipodi:nodetypes="cccccc" /></g><g
       id="g14"
       style="display:inline"><path
         style="color:#000000;fill:url(#linearGradient14);stroke-linecap:square;-inkscape-stroke:none"
         d="M 46.153822,14.648159 H 173.78301 l 40.90293,41.140298 V 236.0795 H 46.554726 Z"
         id="path15"
         inkscape:label="headbgground" /><path
         id="rect16"
         style="display:inline;fill:url(#linearGradient17);fill-opacity:1;stroke-width:4.99999;stroke-linecap:square"
         d="M 45.435818,14.165285 H 176.70315 l 0.20408,8.220982 H 53.433709 V 235.97952 h -7.997891 z"
         sodipodi:nodetypes="ccccccc" /><path
         id="rect17"
         style="fill:url(#linearGradient19);stroke-width:4.99999;stroke-linecap:square"
         d="M 47.058037,227.91965 H 207.27506 l -0.0668,-168.246312 7.31651,0.0667 0.0668,168.546562 -7.08265,0.0331 v 7.34846 H 47.058037 Z"
         sodipodi:nodetypes="ccccccccc" /><path
         style="color:#000000;fill:url(#linearGradient10);stroke-linecap:square;-inkscape-stroke:none"
         d="M 43.648437,12.148438 44.058594,238.58008 H 217.18555 V 54.757812 L 174.82227,12.148438 Z m 4.608862,4.999999 H 172.74414 l 39.44141,39.671875 V 233.58008 H 48.775405 Z"
         id="path16"
         inkscape:label="headframe"
         sodipodi:nodetypes="cccccccccccc" /></g><g
       id="rect23"
       style="display:inline"><rect
         style="display:inline;fill:url(#linearGradient23);fill-opacity:0.834379;stroke:none;stroke-width:4.99999;stroke-linecap:square;stroke-dasharray:none;stroke-opacity:1"
         id="rect20"
         width="30.128031"
         height="11.286353"
         x="177.19191"
         y="53.347572" /><path
         style="color:#000000;display:inline;fill:url(#linearGradient25);stroke-linecap:square;stroke-linejoin:bevel;-inkscape-stroke:none"
         d="m 174.15254,15.119046 40.91592,41.955358 H 174.814 Z"
         id="path25" /><g
         id="g27"><path
           id="rect27"
           style="display:inline;fill:#0a6db5;fill-opacity:0.459222;stroke-width:4.99999;stroke-linecap:square;stroke-linejoin:bevel"
           d="m 182.94047,23.245534 33.07293,33.82887 -33.07293,-0.09449 z"
           sodipodi:nodetypes="cccc" /><path
           id="path27"
           style="display:inline;fill:#1882cf;fill-opacity:0.459222;stroke-width:4.99999;stroke-linecap:square;stroke-linejoin:bevel"
           d="m 175.28645,49.514879 34.91556,0.188989 4.67746,7.087054 -39.68751,-0.472471 z"
           sodipodi:nodetypes="ccccc" /></g><path
         style="color:#000000;display:inline;fill:url(#linearGradient27);stroke-linecap:square;stroke-linejoin:bevel;-inkscape-stroke:none"
         d="m 175.94141,13.373047 -4.28907,1.785156 6.5e-4,44.600911 c 0,0 29.8634,-0.184895 43.41537,-0.184895 l 1.78906,-4.246094 z m 1.4286,7.056744 34.22551,34.144428 h -34.32013 z"
         id="path26"
         sodipodi:nodetypes="cccccccccc" /></g></g><g
     id="g5"
     style="display:inline"
     inkscape:label="pad"
     transform="matrix(0.59554159,0,0,0.59554159,55.225601,-5.7938917)"><path
       id="path2-1"
       style="display:inline;fill:#6c430b;fill-opacity:1;fill-rule:evenodd;stroke-width:1.01;stroke-linejoin:round"
       d="M 132.71875,93.548827 C 112.28841,93.658636 89.382754,98.447873 65.238281,111.87305 1.570844,147.27438 1.4739781,187.95931 0.34179742,204.16601 -2.1337083,239.6019 29.81176,287.43032 87.155636,305.70242 149.52212,325.57493 241.37292,316.3763 252.38867,271.9707 c 9.10743,-36.71292 -42.51287,-51.71372 -49.62659,-72.88184 -10.35894,-30.8248 58.77971,1.91312 53.34143,-43.57909 -1.45754,-12.19265 -26.2341,-32.51518 -37.68359,-36.84571 -7.79279,-2.94746 -40.75442,-25.356811 -85.70117,-25.115233 z m 61.53711,155.949183 c 15.13061,0 28.74103,7.15133 28.64073,20.93168 -0.0647,8.889 -10.95351,20.38489 -26.08412,20.38489 -15.13062,0 -25.14025,-9.80483 -27.33414,-16.75621 -3.04004,-9.63239 9.64692,-24.56035 24.77753,-24.56036 z"
       sodipodi:nodetypes="ssssssssssssss"
       inkscape:label="shadow" /><path
       id="path5-8"
       style="display:inline;fill:url(#linearGradient67);fill-rule:evenodd;stroke-width:3.82538;stroke-linejoin:round"
       d="m 2.8449086,-164.79825 c -77.3800166,0.4159 -164.1352986,18.55516 -255.5826086,69.403071 -241.14073,134.082713 -241.50761,288.177089 -245.79575,349.560069 -9.37599,134.2136 111.61763,315.36398 328.80784,384.56964 C 66.487748,714.00175 414.3731,679.16188 456.09533,510.97548 490.58975,371.92509 295.07761,315.1095 268.13435,234.93515 228.89984,118.18606 490.7628,242.18108 470.16531,69.879108 464.64485,23.699388 370.80351,-53.272282 327.43852,-69.674173 297.92328,-80.837691 173.08094,-165.71323 2.8449086,-164.79825 Z M 235.91701,425.86005 c 57.30728,0 108.8568,27.0857 108.47691,79.27883 -0.24505,33.66713 -41.48648,77.20786 -98.79375,77.20786 -57.30728,0 -95.21881,-37.13584 -103.52819,-63.46422 -11.51415,-36.4827 36.53779,-93.02243 93.84503,-93.02247 z"
       transform="matrix(0.26402606,0,0,0.26402606,131.96762,133.05986)"
       sodipodi:nodetypes="ssssssssssssss" /><g
       id="g39"
       inkscape:label="red"><ellipse
         style="display:inline;fill:#464646;fill-opacity:0.436195;fill-rule:evenodd;stroke-width:1.01991;stroke-linejoin:round"
         id="ellipse46"
         cx="30.755604"
         cy="193.36098"
         rx="17.61659"
         ry="14.46861"
         inkscape:label="shadow" /><ellipse
         style="display:inline;fill:#c51b1a;fill-opacity:1;fill-rule:evenodd;stroke-width:1.01;stroke-linejoin:round"
         id="ellipse36"
         cx="30.087444"
         cy="192.99551"
         rx="17.495516"
         ry="14.286996"
         inkscape:label="color" /><ellipse
         style="display:inline;fill:url(#linearGradient36);fill-rule:evenodd;stroke-width:1.01;stroke-linejoin:round"
         id="path7-9"
         cx="30.087444"
         cy="192.99551"
         rx="17.495516"
         ry="14.286996" /><path
         id="path36"
         style="fill:#ffffff;fill-opacity:0.475638;fill-rule:evenodd;stroke-width:1.01;stroke-linejoin:round"
         d="m 27.665919,186.69956 c -2.603139,0.33354 -3.904123,8.17265 -9.746637,5.99327 -1.50364,-0.56088 -0.545487,-5.06172 2.905829,-7.08296 1.314897,-0.77006 9.124997,-3.6084 8.865793,-0.66224 -0.03611,0.41046 -0.433148,1.54796 -2.024985,1.75193 z"
         sodipodi:nodetypes="sssss" /></g><g
       id="g49"
       inkscape:label="yellow"
       transform="translate(22,-36)"><ellipse
         style="display:inline;fill:#464646;fill-opacity:0.436195;fill-rule:evenodd;stroke-width:1.01991;stroke-linejoin:round"
         id="ellipse47"
         cx="30.755604"
         cy="193.36098"
         rx="17.61659"
         ry="14.46861"
         inkscape:label="shadow" /><ellipse
         style="display:inline;fill:#ebd300;fill-opacity:1;fill-rule:evenodd;stroke-width:1.01;stroke-linejoin:round"
         id="ellipse48"
         cx="30.087444"
         cy="192.99551"
         rx="17.495516"
         ry="14.286996"
         inkscape:label="color" /><ellipse
         style="display:inline;fill:url(#linearGradient58);fill-rule:evenodd;stroke-width:1.01;stroke-linejoin:round"
         id="ellipse49"
         cx="30.087444"
         cy="192.99551"
         rx="17.495516"
         ry="14.286996" /><path
         id="path49"
         style="fill:#ffffff;fill-opacity:0.475638;fill-rule:evenodd;stroke-width:1.01;stroke-linejoin:round"
         d="m 27.665919,186.69956 c -2.603139,0.33354 -3.904123,8.17265 -9.746637,5.99327 -1.50364,-0.56088 -0.545487,-5.06172 2.905829,-7.08296 1.314897,-0.77006 9.124997,-3.6084 8.865793,-0.66224 -0.03611,0.41046 -0.433148,1.54796 -2.024985,1.75193 z"
         sodipodi:nodetypes="sssss" /></g><g
       id="g52"
       inkscape:label="green"
       transform="translate(60,-64)"><ellipse
         style="display:inline;fill:#464646;fill-opacity:0.436195;fill-rule:evenodd;stroke-width:1.01991;stroke-linejoin:round"
         id="ellipse50"
         cx="30.755604"
         cy="193.36098"
         rx="17.61659"
         ry="14.46861"
         inkscape:label="shadow" /><ellipse
         style="display:inline;fill:#008328;fill-opacity:1;fill-rule:evenodd;stroke-width:1.01;stroke-linejoin:round"
         id="ellipse51"
         cx="30.087444"
         cy="192.99551"
         rx="17.495516"
         ry="14.286996"
         inkscape:label="color" /><ellipse
         style="display:inline;fill:url(#linearGradient59);fill-rule:evenodd;stroke-width:1.01;stroke-linejoin:round"
         id="ellipse52"
         cx="30.087444"
         cy="192.99551"
         rx="17.495516"
         ry="14.286996" /><path
         id="path52"
         style="fill:#ffffff;fill-opacity:0.475638;fill-rule:evenodd;stroke-width:1.01;stroke-linejoin:round"
         d="m 27.665919,186.69956 c -2.603139,0.33354 -3.904123,8.17265 -9.746637,5.99327 -1.50364,-0.56088 -0.545487,-5.06172 2.905829,-7.08296 1.314897,-0.77006 9.124997,-3.6084 8.865793,-0.66224 -0.03611,0.41046 -0.433148,1.54796 -2.024985,1.75193 z"
         sodipodi:nodetypes="sssss" /></g><g
       id="g55"
       inkscape:label="blue"
       transform="translate(106,-76)"><ellipse
         style="display:inline;fill:#464646;fill-opacity:0.436195;fill-rule:evenodd;stroke-width:1.01991;stroke-linejoin:round"
         id="ellipse53"
         cx="30.755604"
         cy="193.36098"
         rx="17.61659"
         ry="14.46861"
         inkscape:label="shadow" /><ellipse
         style="display:inline;fill:#0067c7;fill-opacity:1;fill-rule:evenodd;stroke-width:1.01;stroke-linejoin:round"
         id="ellipse54"
         cx="30.087444"
         cy="192.99551"
         rx="17.495516"
         ry="14.286996"
         inkscape:label="color" /><ellipse
         style="display:inline;fill:url(#linearGradient60);fill-rule:evenodd;stroke-width:1.01;stroke-linejoin:round"
         id="ellipse55"
         cx="30.087444"
         cy="192.99551"
         rx="17.495516"
         ry="14.286996" /><path
         id="path55"
         style="fill:#ffffff;fill-opacity:0.475638;fill-rule:evenodd;stroke-width:1.01;stroke-linejoin:round"
         d="m 27.665919,186.69956 c -2.603139,0.33354 -3.904123,8.17265 -9.746637,5.99327 -1.50364,-0.56088 -0.545487,-5.06172 2.905829,-7.08296 1.314897,-0.77006 9.124997,-3.6084 8.865793,-0.66224 -0.03611,0.41046 -0.433148,1.54796 -2.024985,1.75193 z"
         sodipodi:nodetypes="sssss" /></g><g
       id="g58"
       inkscape:label="violet"
       transform="translate(152,-64)"><ellipse
         style="display:inline;fill:#464646;fill-opacity:0.436195;fill-rule:evenodd;stroke-width:1.01991;stroke-linejoin:round"
         id="ellipse56"
         cx="30.755604"
         cy="193.36098"
         rx="17.61659"
         ry="14.46861"
         inkscape:label="shadow" /><ellipse
         style="display:inline;fill:#6836c8;fill-opacity:1;fill-rule:evenodd;stroke-width:1.01;stroke-linejoin:round"
         id="ellipse57"
         cx="30.087444"
         cy="192.99551"
         rx="17.495516"
         ry="14.286996"
         inkscape:label="color" /><ellipse
         style="display:inline;fill:url(#linearGradient61);fill-rule:evenodd;stroke-width:1.01;stroke-linejoin:round"
         id="ellipse58"
         cx="30.087444"
         cy="192.99551"
         rx="17.495516"
         ry="14.286996" /><path
         id="path58"
         style="fill:#ffffff;fill-opacity:0.475638;fill-rule:evenodd;stroke-width:1.01;stroke-linejoin:round"
         d="m 27.665919,186.69956 c -2.603139,0.33354 -3.904123,8.17265 -9.746637,5.99327 -1.50364,-0.56088 -0.545487,-5.06172 2.905829,-7.08296 1.314897,-0.77006 9.124997,-3.6084 8.865793,-0.66224 -0.03611,0.41046 -0.433148,1.54796 -2.024985,1.75193 z"
         sodipodi:nodetypes="sssss" /></g></g><path
     style="font-weight:bold;font-size:57.3333px;line-height:0.7;font-family:'Liberation Sans';-inkscape-font-specification:'Liberation Sans Bold';letter-spacing:0.96px;word-spacing:0px;display:inline;fill-rule:evenodd;stroke-width:4.04385"
     d="m 112.17359,206.35023 q 0,3.70322 -1.68825,6.6168 -1.68823,2.91357 -4.84685,4.52011 -3.13144,1.57933 -7.46093,1.57933 h -9.530364 v 13.50588 h -8.032717 v -38.36652 h 17.236348 q 6.889093,0 10.592303,3.18587 3.73046,3.15862 3.73046,8.95853 z m -8.0872,0.13621 q 0,-6.04495 -7.134181,-6.04495 h -8.305013 v 12.44393 h 8.522866 q 3.321998,0 5.119188,-1.63378 1.79714,-1.66101 1.79714,-4.7652 z m 38.02047,26.086 -16.71896,-29.54412 q 0.49011,4.30225 0.49011,6.91628 v 22.62784 h -7.13415 v -38.36653 h 9.17635 l 16.96405,29.78917 q -0.49011,-4.11164 -0.49011,-7.48812 v -22.30105 h 7.13414 v 38.36653 z m 35.16137,-32.1582 v 32.1582 h -8.03272 v -32.1582 h -12.38949 v -6.20833 h 32.8389 v 6.20833 z"
     id="text1"
     aria-label="PNT" /></svg>
