<?xml version="1.0" encoding="UTF-8" standalone="no"?>
<!-- Created with Inkscape (http://www.inkscape.org/) -->

<svg
   width="256mm"
   height="256mm"
   viewBox="0 0 256 256"
   version="1.1"
   id="svg1"
   inkscape:version="1.3.2 (091e20ef0f, 2023-11-25)"
   xml:space="preserve"
   sodipodi:docname="image-x-pentax-ptx.svg"
   xmlns:inkscape="http://www.inkscape.org/namespaces/inkscape"
   xmlns:sodipodi="http://sodipodi.sourceforge.net/DTD/sodipodi-0.dtd"
   xmlns:xlink="http://www.w3.org/1999/xlink"
   xmlns="http://www.w3.org/2000/svg"
   xmlns:svg="http://www.w3.org/2000/svg"
   xmlns:rdf="http://www.w3.org/1999/02/22-rdf-syntax-ns#"
   xmlns:cc="http://creativecommons.org/ns#"
   xmlns:dc="http://purl.org/dc/elements/1.1/"><defs
     id="defs1"><linearGradient
       id="linearGradient26"
       inkscape:collect="always"><stop
         style="stop-color:#7b91c4;stop-opacity:1;"
         offset="0"
         id="stop26" /><stop
         style="stop-color:#5c5e91;stop-opacity:1"
         offset="1"
         id="stop27" /></linearGradient><linearGradient
       id="linearGradient24"
       inkscape:collect="always"><stop
         style="stop-color:#c7fafe;stop-opacity:1;"
         offset="0"
         id="stop24" /><stop
         style="stop-color:#9acdff;stop-opacity:1"
         offset="1"
         id="stop25" /></linearGradient><linearGradient
       id="linearGradient22"
       inkscape:collect="always"><stop
         style="stop-color:#adaeae;stop-opacity:0.8253752;"
         offset="0"
         id="stop22" /><stop
         style="stop-color:#8ac5fe;stop-opacity:0.83628923;"
         offset="1"
         id="stop23" /></linearGradient><linearGradient
       id="linearGradient18"
       inkscape:collect="always"><stop
         style="stop-color:#9797ff;stop-opacity:1;"
         offset="0"
         id="stop18" /><stop
         style="stop-color:#ccccff;stop-opacity:1;"
         offset="0.30000001"
         id="stop20" /><stop
         style="stop-color:#ccccff;stop-opacity:1;"
         offset="1"
         id="stop19" /></linearGradient><linearGradient
       id="linearGradient16"
       inkscape:collect="always"><stop
         style="stop-color:#cdcdcd;stop-opacity:0.17462483;"
         offset="0"
         id="stop16" /><stop
         style="stop-color:#cdcdcd;stop-opacity:1;"
         offset="1"
         id="stop17" /></linearGradient><linearGradient
       id="linearGradient12"
       inkscape:collect="always"><stop
         style="stop-color:#fdfeff;stop-opacity:1;"
         offset="0"
         id="stop13" /><stop
         style="stop-color:#99ccff;stop-opacity:1;"
         offset="1"
         id="stop14" /></linearGradient><linearGradient
       id="linearGradient9"
       inkscape:collect="always"><stop
         style="stop-color:#97c9fc;stop-opacity:1;"
         offset="0"
         id="stop9" /><stop
         style="stop-color:#7788bb;stop-opacity:1"
         offset="0.25"
         id="stop12" /><stop
         style="stop-color:#57578a;stop-opacity:1"
         offset="0.5"
         id="stop11" /><stop
         style="stop-color:#444482;stop-opacity:1;"
         offset="1"
         id="stop10" /></linearGradient><linearGradient
       inkscape:collect="always"
       xlink:href="#linearGradient9"
       id="linearGradient10"
       x1="31.622168"
       y1="100.24049"
       x2="221.19499"
       y2="240.28973"
       gradientUnits="userSpaceOnUse" /><linearGradient
       inkscape:collect="always"
       xlink:href="#linearGradient12"
       id="linearGradient14"
       x1="73.583481"
       y1="62.020954"
       x2="207.02971"
       y2="229.59895"
       gradientUnits="userSpaceOnUse" /><linearGradient
       inkscape:collect="always"
       xlink:href="#linearGradient16"
       id="linearGradient17"
       x1="57.531055"
       y1="26.420616"
       x2="147.13231"
       y2="144.34076"
       gradientUnits="userSpaceOnUse" /><linearGradient
       inkscape:collect="always"
       xlink:href="#linearGradient18"
       id="linearGradient19"
       x1="209.82518"
       y1="58.53635"
       x2="210.58252"
       y2="194.57654"
       gradientUnits="userSpaceOnUse" /><linearGradient
       inkscape:collect="always"
       xlink:href="#linearGradient22"
       id="linearGradient23"
       x1="177.19191"
       y1="58.990749"
       x2="207.31994"
       y2="58.990749"
       gradientUnits="userSpaceOnUse" /><linearGradient
       inkscape:collect="always"
       xlink:href="#linearGradient24"
       id="linearGradient25"
       x1="176.32031"
       y1="20.126524"
       x2="176.32031"
       y2="56.695721"
       gradientUnits="userSpaceOnUse" /><linearGradient
       inkscape:collect="always"
       xlink:href="#linearGradient26"
       id="linearGradient27"
       x1="172.59729"
       y1="13.51158"
       x2="210.54449"
       y2="51.28627"
       gradientUnits="userSpaceOnUse" /><linearGradient
       gradientTransform="matrix(0,-0.0445,-0.0406,0,51.1,61.1)"
       gradientUnits="userSpaceOnUse"
       id="gradient0"
       spreadMethod="pad"
       x1="-819.20001"
       x2="819.20001"><stop
         offset="0.0"
         stop-color="#cc9900"
         id="stop69-9" /><stop
         offset="0.5019607843137255"
         stop-color="#ffcc66"
         id="stop71-2" /><stop
         offset="0.7803921568627451"
         stop-color="#ffff99"
         id="stop73-6" /><stop
         offset="1.0"
         stop-color="#ffff99"
         id="stop75" /></linearGradient><linearGradient
       gradientTransform="matrix(0,0.0431,0.0392,0,51.1,61.1)"
       gradientUnits="userSpaceOnUse"
       id="gradient1"
       spreadMethod="pad"
       x1="-819.20001"
       x2="819.20001"><stop
         offset="0.0"
         stop-color="#ffffff"
         id="stop78" /><stop
         offset="1.0"
         stop-color="#ffcc66"
         id="stop80" /></linearGradient><linearGradient
       gradientTransform="matrix(0,-0.0347,-0.05,0,61.95,69.15)"
       gradientUnits="userSpaceOnUse"
       id="gradient2"
       spreadMethod="pad"
       x1="-819.20001"
       x2="819.20001"><stop
         offset="0.0"
         stop-color="#ffcc66"
         id="stop83-6" /><stop
         offset="0.596078431372549"
         stop-color="#ffff99"
         id="stop85-4" /><stop
         offset="1.0"
         stop-color="#ffffff"
         id="stop87-9" /></linearGradient><linearGradient
       gradientTransform="matrix(0,-0.0222,-0.0105,0,92.9,61.1)"
       gradientUnits="userSpaceOnUse"
       id="gradient3"
       spreadMethod="pad"
       x1="-819.20001"
       x2="819.20001"><stop
         offset="0.0"
         stop-color="#ffff99"
         id="stop90-5" /><stop
         offset="1.0"
         stop-color="#ffffff"
         id="stop92-0" /></linearGradient><linearGradient
       gradientTransform="matrix(0,-0.0106,-0.0106,0,46.3,45.15)"
       gradientUnits="userSpaceOnUse"
       id="gradient4"
       spreadMethod="pad"
       x1="-819.20001"
       x2="819.20001"><stop
         offset="0.0"
         stop-color="#ffcc66"
         id="stop95-4" /><stop
         offset="1.0"
         stop-color="#ffff99"
         id="stop97-8" /></linearGradient><linearGradient
       gradientTransform="matrix(0,0.0433,0.0365,0,67.25,35.5)"
       gradientUnits="userSpaceOnUse"
       id="gradient5"
       spreadMethod="pad"
       x1="-819.20001"
       x2="819.20001"><stop
         offset="0.0"
         stop-color="#999999"
         id="stop100-7" /><stop
         offset="1.0"
         stop-color="#666666"
         id="stop102-1" /></linearGradient><linearGradient
       gradientTransform="matrix(0,0.0407,0.0344,0,67.35,35.5)"
       gradientUnits="userSpaceOnUse"
       id="gradient6"
       spreadMethod="pad"
       x1="-819.20001"
       x2="819.20001"><stop
         offset="0.0"
         stop-color="#ffffff"
         id="stop105-7" /><stop
         offset="1.0"
         stop-color="#dddddd"
         id="stop107-2" /></linearGradient><linearGradient
       gradientTransform="matrix(0.0148,0.0148,0.0147,-0.0147,65.2,32.45)"
       gradientUnits="userSpaceOnUse"
       id="gradient7"
       spreadMethod="pad"
       x1="-819.20001"
       x2="819.20001"><stop
         offset="0.0"
         stop-color="#0099ff"
         id="stop110-7" /><stop
         offset="1.0"
         stop-color="#99ccff"
         id="stop112" /></linearGradient><linearGradient
       gradientTransform="matrix(0,0.0194,0.0152,0,83.05,53.05)"
       gradientUnits="userSpaceOnUse"
       id="gradient8"
       spreadMethod="pad"
       x1="-819.20001"
       x2="819.20001"><stop
         offset="0.0"
         stop-color="#cccccc"
         id="stop115" /><stop
         offset="1.0"
         stop-color="#ccccff"
         id="stop117-2" /></linearGradient><linearGradient
       gradientTransform="matrix(0,0.0213,0.0193,0,55,51.55)"
       gradientUnits="userSpaceOnUse"
       id="gradient9"
       spreadMethod="pad"
       x1="-819.20001"
       x2="819.20001"><stop
         offset="0.0"
         stop-color="#cccccc"
         id="stop120-2" /><stop
         offset="1.0"
         stop-color="#ccccff"
         id="stop122-6" /></linearGradient><linearGradient
       gradientTransform="matrix(0,0.0168,0.0269,0,64.9,20.2)"
       gradientUnits="userSpaceOnUse"
       id="gradient10"
       spreadMethod="pad"
       x1="-819.20001"
       x2="819.20001"><stop
         offset="0.0"
         stop-color="#999999"
         id="stop125-1" /><stop
         offset="1.0"
         stop-color="#cccccc"
         id="stop127" /></linearGradient><radialGradient
       cx="0"
       cy="0"
       gradientTransform="matrix(0.0202,0,0,0.0202,63.1,29.55)"
       gradientUnits="userSpaceOnUse"
       id="gradient11"
       r="819.20001"
       spreadMethod="pad"><stop
         offset="0.0"
         stop-color="#ffffff"
         id="stop130" /><stop
         offset="0.49411764705882355"
         stop-color="#ffffff"
         id="stop132-0" /><stop
         offset="0.7647058823529411"
         stop-color="#ccffff"
         id="stop134-6" /><stop
         offset="1.0"
         stop-color="#ccffff"
         id="stop136-1" /></radialGradient><radialGradient
       cx="0"
       cy="0"
       gradientTransform="matrix(0.0102,0,0,0.0101,62.25,26.25)"
       gradientUnits="userSpaceOnUse"
       id="gradient12"
       r="819.20001"
       spreadMethod="pad"><stop
         offset="0.0"
         stop-color="#ffffff"
         id="stop139" /><stop
         offset="0.48627450980392156"
         stop-color="#ff9980"
         id="stop141" /><stop
         offset="1.0"
         stop-color="#ff3300"
         id="stop143" /></radialGradient><linearGradient
       gradientTransform="matrix(0,0.0165,0.0214,0,74.25,57.5)"
       gradientUnits="userSpaceOnUse"
       id="gradient13"
       spreadMethod="pad"
       x1="-819.20001"
       x2="819.20001"><stop
         offset="0.0"
         stop-color="#ccffff"
         id="stop146-5" /><stop
         offset="1.0"
         stop-color="#99ccff"
         id="stop148-9" /></linearGradient><linearGradient
       gradientTransform="matrix(0,0.0331,0.0481,0,62.05,68.95)"
       gradientUnits="userSpaceOnUse"
       id="gradient14"
       spreadMethod="pad"
       x1="-819.20001"
       x2="819.20001"><stop
         offset="0.0"
         stop-color="#ffffff"
         id="stop151-4" /><stop
         offset="1.0"
         stop-color="#ffffff"
         id="stop153-9" /></linearGradient><linearGradient
       gradientTransform="matrix(-0.014,-0.014,-0.0162,0.0162,32.75,6.3)"
       gradientUnits="userSpaceOnUse"
       id="gradient15"
       spreadMethod="pad"
       x1="-819.20001"
       x2="819.20001"><stop
         offset="0.0"
         stop-color="#dddddd"
         id="stop156-0" /><stop
         offset="1.0"
         stop-color="#ffffff"
         id="stop158-9" /></linearGradient><linearGradient
       gradientTransform="matrix(0,-0.0283,-0.0112,0,10.6,30.75)"
       gradientUnits="userSpaceOnUse"
       id="gradient16"
       spreadMethod="pad"
       x1="-819.20001"
       x2="819.20001"><stop
         offset="0.0"
         stop-color="#cccccc"
         id="stop161" /><stop
         offset="1.0"
         stop-color="#ffffff"
         id="stop163" /></linearGradient><linearGradient
       gradientTransform="matrix(0,-0.0016,-0.0058,0,18.35,8.8)"
       gradientUnits="userSpaceOnUse"
       id="gradient17"
       spreadMethod="pad"
       x1="-819.20001"
       x2="819.20001"><stop
         offset="0.0"
         stop-color="#dddddd"
         id="stop166" /><stop
         offset="1.0"
         stop-color="#ffffff"
         id="stop168" /></linearGradient><linearGradient
       gradientTransform="matrix(0.0055,0,0,-0.0224,21.1,35.4)"
       gradientUnits="userSpaceOnUse"
       id="gradient18"
       spreadMethod="pad"
       x1="-819.20001"
       x2="819.20001"><stop
         offset="0.0"
         stop-color="#999999"
         id="stop171" /><stop
         offset="1.0"
         stop-color="#ffffff"
         id="stop173" /></linearGradient><linearGradient
       gradientTransform="matrix(0,-0.0118,-0.0102,0,42.5,28.85)"
       gradientUnits="userSpaceOnUse"
       id="gradient19"
       spreadMethod="pad"
       x1="-819.20001"
       x2="819.20001"><stop
         offset="0.0"
         stop-color="#666666"
         id="stop176" /><stop
         offset="1.0"
         stop-color="#999999"
         id="stop178" /></linearGradient><linearGradient
       gradientTransform="matrix(0,-0.0289,-0.0246,0,38.85,28.45)"
       gradientUnits="userSpaceOnUse"
       id="gradient20"
       spreadMethod="pad"
       x1="-819.20001"
       x2="819.20001"><stop
         offset="0.0"
         stop-color="#ffffff"
         id="stop181" /><stop
         offset="1.0"
         stop-color="#999999"
         id="stop183" /></linearGradient><linearGradient
       gradientTransform="matrix(0,0.0191,0.0165,0,41.45,29)"
       gradientUnits="userSpaceOnUse"
       id="gradient21"
       spreadMethod="pad"
       x1="-819.20001"
       x2="819.20001"><stop
         offset="0.0"
         stop-color="#ffffff"
         id="stop186" /><stop
         offset="1.0"
         stop-color="#999999"
         id="stop188-1" /></linearGradient><linearGradient
       gradientTransform="matrix(0,0.0033,0.0028,0,42.8,28.95)"
       gradientUnits="userSpaceOnUse"
       id="gradient22"
       spreadMethod="pad"
       x1="-819.20001"
       x2="819.20001"><stop
         offset="0.0"
         stop-color="#0099ff"
         id="stop191" /><stop
         offset="1.0"
         stop-color="#003399"
         id="stop193" /></linearGradient><clipPath
       id="clipPath3536"
       clipPathUnits="userSpaceOnUse"><path
         id="path3538"
         d="M 283.61,700.16 H 449.77 V 674.918 H 283.61 Z" /></clipPath><clipPath
       id="clipPath3560"
       clipPathUnits="userSpaceOnUse"><path
         id="path3562"
         d="M 283.61,700.16 H 449.77 V 674.918 H 283.61 Z" /></clipPath><clipPath
       id="clipPath3580"
       clipPathUnits="userSpaceOnUse"><path
         id="path3582"
         d="M 283.61,700.16 H 449.77 V 674.918 H 283.61 Z" /></clipPath></defs><sodipodi:namedview
     id="base"
     pagecolor="#ffffff"
     bordercolor="#000000"
     borderopacity="0.3"
     inkscape:pageopacity="0.0"
     inkscape:pageshadow="2"
     inkscape:zoom="0.98994949"
     inkscape:cx="505.07627"
     inkscape:cy="476.792"
     inkscape:document-units="mm"
     inkscape:showpageshadow="2"
     inkscape:pagecheckerboard="0"
     inkscape:deskcolor="#d1d1d1"
     inkscape:current-layer="g4"
     showguides="true" /><metadata
     id="metadata1"><rdf:RDF><cc:Work
         rdf:about=""><dc:format>image/svg+xml</dc:format><dc:type
           rdf:resource="http://purl.org/dc/dcmitype/StillImage" /><cc:license
           rdf:resource="http://creativecommons.org/publicdomain/zero/1.0/" /></cc:Work><cc:License
         rdf:about="http://creativecommons.org/publicdomain/zero/1.0/"><cc:permits
           rdf:resource="http://creativecommons.org/ns#Reproduction" /><cc:permits
           rdf:resource="http://creativecommons.org/ns#Distribution" /><cc:permits
           rdf:resource="http://creativecommons.org/ns#DerivativeWorks" /></cc:License></rdf:RDF></metadata><g
     id="g28"
     transform="matrix(1.0481261,0,0,1.0481261,-6.4074194,-6.1384097)"><g
       id="g7"
       inkscape:label="shadow"
       style="display:inline"><path
         id="rect1"
         style="fill:#000000;fill-opacity:0.0602258;stroke-width:3.72791;stroke-linecap:square"
         d="M 48.380952,13.418155 H 179.16071 l 43.46726,43.278274 V 244.17261 H 48.380952 Z"
         sodipodi:nodetypes="cccccc" /><path
         id="path1"
         style="fill:#000000;fill-opacity:0.0752823;stroke-width:3.72791;stroke-linecap:square"
         d="m 47.563027,12.60023 129.443423,-0.133635 43.46726,43.278274 1.33635,187.609821 H 47.563027 Z"
         sodipodi:nodetypes="cccccc" /><path
         id="path2"
         style="fill:#000000;fill-opacity:0.0602258;stroke-width:3.72791;stroke-linecap:square"
         d="m 46.493949,11.793049 128.975701,-0.868626 43.46726,43.278274 1.80407,188.344813 H 46.493949 Z"
         sodipodi:nodetypes="cccccc" /><path
         id="path3"
         style="fill:#000000;fill-opacity:0.0602258;stroke-width:3.72791;stroke-linecap:square"
         d="m 45.964782,12.33296 129.777508,0.467722 43.46726,42.209196 1.00226,187.008462 H 45.964782 Z"
         sodipodi:nodetypes="cccccc" /><path
         id="path4"
         style="fill:#000000;fill-opacity:0.0602258;stroke-width:3.72791;stroke-linecap:square"
         d="m 45.435615,12.338332 129.443415,0.935443 43.46726,41.674657 1.33635,186.540738 H 45.435615 Z"
         sodipodi:nodetypes="cccccc" /><path
         id="path5"
         style="fill:#000000;fill-opacity:0.0602258;stroke-width:3.72791;stroke-linecap:square"
         d="M 44.906448,12.744609 174.8844,13.412783 218.35166,54.151996 219.15347,240.96 H 44.906448 Z"
         sodipodi:nodetypes="cccccc" /><path
         id="path6"
         style="fill:#000000;fill-opacity:0.0602258;stroke-width:3.72791;stroke-linecap:square"
         d="m 44.377281,15.021772 129.911129,0.534539 43.46726,37.932883 0.86863,186.941636 H 44.377281 Z"
         sodipodi:nodetypes="cccccc" /><path
         id="path7"
         style="fill:#000000;fill-opacity:0.0602258;stroke-width:3.72791;stroke-linecap:square"
         d="m 43.848114,13.423527 129.710676,1.069078 43.46726,39.001961 1.06908,186.407094 H 43.848114 Z"
         sodipodi:nodetypes="cccccc" /></g><g
       id="g14"
       style="display:inline"><path
         style="color:#000000;fill:url(#linearGradient14);stroke-linecap:square;-inkscape-stroke:none"
         d="M 46.153822,14.648159 H 173.78301 l 40.90293,41.140298 V 236.0795 H 46.554726 Z"
         id="path15"
         inkscape:label="headbgground" /><path
         id="rect16"
         style="display:inline;fill:url(#linearGradient17);fill-opacity:1;stroke-width:4.99999;stroke-linecap:square"
         d="M 45.435818,14.165285 H 176.70315 l 0.20408,8.220982 H 53.433709 V 235.97952 h -7.997891 z"
         sodipodi:nodetypes="ccccccc" /><path
         id="rect17"
         style="fill:url(#linearGradient19);stroke-width:4.99999;stroke-linecap:square"
         d="M 47.058037,227.91965 H 207.27506 l -0.0668,-168.246312 7.31651,0.0667 0.0668,168.546562 -7.08265,0.0331 v 7.34846 H 47.058037 Z"
         sodipodi:nodetypes="ccccccccc" /><path
         style="color:#000000;fill:url(#linearGradient10);stroke-linecap:square;-inkscape-stroke:none"
         d="M 43.648437,12.148438 44.058594,238.58008 H 217.18555 V 54.757812 L 174.82227,12.148438 Z m 4.608862,4.999999 H 172.74414 l 39.44141,39.671875 V 233.58008 H 48.775405 Z"
         id="path16"
         inkscape:label="headframe"
         sodipodi:nodetypes="cccccccccccc" /></g><g
       id="g4"
       style="display:inline"
       transform="matrix(0.88745487,0,0,0.88745487,10.337844,33.121929)"><g
         id="g1"
         transform="matrix(1.6397883,0,0,1.6397883,86.193533,2.7046913)"
         style="display:inline"><path
           style="fill:#666666;fill-rule:evenodd;stroke:none"
           inkscape:connector-curvature="0"
           id="path10"
           d="m 39.7,25.5 c 0.833333,-1.066667 1.866667,-1.666667 3.1,-1.8 1.2,-0.1 2.233333,0.3 3.1,1.2 0.833333,0.9 1.25,2.066667 1.25,3.5 l -0.05,0.95 c -0.166667,1 -0.583333,1.916667 -1.25,2.75 -0.833333,1.033333 -1.85,1.633333 -3.05,1.8 -1.233333,0.1 -2.266667,-0.3 -3.1,-1.2 -0.4,-0.4 -0.7,-0.866667 -0.9,-1.4 -0.266667,-0.6 -0.4,-1.283333 -0.4,-2.05 0,-1.433333 0.433333,-2.683333 1.3,-3.75 m -4.6,-12.25 -0.25,-2.5 6.1,-1.1 v 2.5 l -5.85,1.1 m 21,-5.7 V 10.5 L 46,12.4 V 9.45 L 56.1,7.55 M 44.55,2.2 52,3.7 41.7,5.55 35.5,3.95 44.55,2.2 m 0.55,26.45 c 0,-0.7 -0.216667,-1.3 -0.65,-1.8 -0.466667,-0.5 -1,-0.7 -1.6,-0.6 -0.666667,0.03333 -1.216667,0.333333 -1.65,0.9 -0.466667,0.6 -0.7,1.266667 -0.7,2 0,0.633333 0.183333,1.183333 0.55,1.65 l 0.15,0.15 c 0.433333,0.466667 0.983333,0.683333 1.65,0.65 0.633333,-0.1 1.166667,-0.433333 1.6,-1 l 0.4,-0.7 0.25,-1.25"
           sodipodi:nodetypes="cccccccccsccccccccccccccccccccscccccc" /><path
           style="fill:#999999;fill-rule:evenodd;stroke:none"
           inkscape:connector-curvature="0"
           id="path12"
           d="M 1.45,12.85 12.8,16.4 12.35,46.9 1.9,41.8 1.85,41.55 1.65,40.35 1.8,40.4 11.1,44.8 11.35,17.25 1.65,14.1 1.45,12.9 v -0.05 m 3.35,4.6 1.3,0.4 V 39.5 L 4.8,38.85 V 17.45 M 21.85,24 21.65,24.75 Q 21.45,25 20.9,25.05 L 20.55,25 q -0.6,-0.2 -0.6,-1 0,-0.8 0.5,-1 l 0.45,-0.1 q 0.45,0 0.7,0.25 L 21.85,24 m -0.95,4.6 q 0.95,0 0.95,1.05 0,1.05 -0.95,1.05 -0.95,0 -0.95,-1.05 0,-0.95 0.8,-1.05 h 0.15 m 0.7,5.3 q 0.35,0.25 0.4,0.9 l -0.05,0.45 q -0.2,0.55 -0.95,0.6 -0.95,-0.05 -0.95,-1.05 0,-1.1 0.95,-1.05 h 0.05 l 0.55,0.15 m 0.4,6.15 q -0.05,1.1 -1,1.1 -0.95,0 -0.95,-1.1 0,-1 0.95,-1 0.95,0 1,1 m -0.05,5.25 q -0.05,1 -0.95,1 -0.95,0 -0.95,-1 0,-1.1 0.95,-1.1 0.9,0 0.95,1.1" /><path
           style="fill:#333333;fill-rule:evenodd;stroke:none"
           inkscape:connector-curvature="0"
           id="path14"
           d="M 32.8,1.85 35.3,1.45 43.7,0 c 7.566667,1.7 11.983333,2.6 13.25,2.7 1.833333,0.5666667 3.033333,1.85 3.6,3.85 L 60.4,26.3 60.3,37 c -0.266667,2.8 -1.3,4.483333 -3.1,5.05 -24.266667,8.233333 -36.966667,12.433333 -38.1,12.6 -2.033417,0.465343 -3.842927,1.497919 -6.75,-0.25 L 2.9,48.95 c -1.5333333,-0.7 -2.36666667,-2.366667 -2.5,-5 L 0,14.1 C 0,9.7333333 1.8833333,7.2166667 5.65,6.55 L 19.45,4.15 20.55,4 22.7,3.6 31.55,2.05 32.8,1.85 m -9.6,6 c 1.3,0.4 1.966667,0.9333333 2,1.6 L 25,10 57.2,3.8 44.15,1.25 7.75,7.4 12,8.45 c 0.333333,-0.2333333 0.8,-0.4333333 1.4,-0.6 1.3,-0.4666667 2.933333,-0.7 4.9,-0.7 l 1.3,0.05 1.1,0.1 2.2,0.45 0.3,0.1 M 23.15,8.8 22.95,8.35 C 22.616667,8.0166667 21.883333,7.7833333 20.75,7.65 L 19.65,7.6 18.4,7.55 c -3.2,0 -4.8,0.4166667 -4.8,1.25 0,0.8666667 1.6,1.3 4.8,1.3 h 1.35 L 20.85,10 C 21.983333,9.8333333 22.7,9.5833333 23,9.25 L 23.15,8.8 m -0.9,2.95 -1.25,0.5 c -0.433333,0.2 -0.8,0.45 -1.1,0.75 -0.733333,0.733333 -1.133333,1.733333 -1.2,3 l 1.4,0.25 1.1,0.25 2.25,0.8 c 1.2,0.566667 2.1,1.266667 2.7,2.1 0.4,0.6 0.65,1.283333 0.75,2.05 l -0.15,12.7 -0.2,11.65 c -0.133333,3.233333 -1.6,5.35 -4.4,6.35 l 34.4,-11.2 c 1.533333,-0.566667 2.366667,-2.016667 2.5,-4.35 V 6.95 C 58.916667,5.1166667 58.016667,4.4 56.35,4.8 l -27.4,5.6 -5.85,1.2 -0.85,0.15 M 17.05,17 v -0.8 c -0.03333,-1.633333 0.783333,-3.116667 2.45,-4.45 H 18.3 L 13.4,11.1 C 12,10.633333 11.316667,10.083333 11.35,9.45 V 9.3 L 5.4,7.55 C 2.9333333,7.95 1.6166667,9.7166667 1.45,12.85 V 12.9 13 l 0.35,27.4 -0.15,-0.05 0.2,1.2 0.05,3 c -0.1666667,1.666667 0.45,2.783333 1.85,3.35 5.3,3.233333 8.45,5.066667 9.45,5.5 1.5,0.633333 2.666667,0.733333 3.5,0.3 6.3,-1.566667 9.133333,-4.616667 8.5,-9.15 l 0.45,-22.7 -0.1,-0.55 C 25.283333,20.233333 24.6,19.35 23.5,18.65 22.9,18.283333 22.166667,17.966667 21.3,17.7 L 20.15,17.45 17.05,17 m 22.65,8.5 c -0.866667,1.066667 -1.3,2.316667 -1.3,3.75 0,0.766667 0.133333,1.45 0.4,2.05 0.2,0.533333 0.5,1 0.9,1.4 0.833333,0.9 1.866667,1.3 3.1,1.2 1.2,-0.166667 2.216667,-0.766667 3.05,-1.8 0.666667,-0.833333 1.083333,-1.75 1.25,-2.75 l 0.05,-0.95 c 0,-1.433333 -0.416667,-2.6 -1.25,-3.5 -0.866667,-0.9 -1.9,-1.3 -3.1,-1.2 -1.233333,0.133333 -2.266667,0.733333 -3.1,1.8 m -3.4,6.4 c -0.233333,-0.766667 -0.35,-1.583333 -0.35,-2.45 0,-2.133333 0.666667,-4 2,-5.6 1.266667,-1.7 2.833333,-2.616667 4.7,-2.75 1.833333,-0.166667 3.4,0.433333 4.7,1.8 1.266667,1.4 1.9,3.166667 1.9,5.3 v 0.65 c -0.133333,1.833333 -0.766667,3.483333 -1.9,4.95 -1.3,1.566667 -2.866667,2.45 -4.7,2.65 -1.866667,0.2 -3.433333,-0.383333 -4.7,-1.75 -0.8,-0.8 -1.35,-1.733333 -1.65,-2.8 m -3.95,-2.25 c 0,-3.266667 0.983333,-6.133333 2.95,-8.6 2,-2.466667 4.416667,-3.816667 7.25,-4.05 2.766667,-0.233333 5.116667,0.7 7.05,2.8 1.933333,2.1 2.9,4.75 2.9,7.95 v 0.35 c -0.1,3 -1.083333,5.7 -2.95,8.1 -1.933333,2.4 -4.283333,3.766667 -7.05,4.1 -2.8,0.3 -5.183333,-0.6 -7.15,-2.7 -1.333333,-1.366667 -2.216667,-2.983333 -2.65,-4.85 -0.233333,-0.966667 -0.35,-2 -0.35,-3.1 m 2.15,2.7 c 0.366667,1.466667 1.066667,2.766667 2.1,3.9 1.633333,1.7 3.616667,2.433333 5.95,2.2 2.266667,-0.266667 4.216667,-1.4 5.85,-3.4 1.5,-1.9 2.3,-4.083333 2.4,-6.55 v -0.45 c 0.03333,-2.666667 -0.766667,-4.866667 -2.4,-6.6 -1.6,-1.733333 -3.55,-2.5 -5.85,-2.3 -2.333333,0.2 -4.316667,1.333333 -5.95,3.4 -1.633333,2.033333 -2.433333,4.4 -2.4,7.1 -0.03333,0.933333 0.06667,1.833333 0.3,2.7 M 56.1,7.55 46,9.45 V 12.4 L 56.1,10.5 V 7.55 m 0.85,-1.9 v 5.5 L 46,13.25 45.8,7.8 56.95,5.65"
           sodipodi:nodetypes="cccccccccccccccccccccccccccccccccccccssccccccsccccccccccccccccccccccccccccccccccccccccccsccccccccccscccsccccccccssccccccccccccccccccccccccccc" /><path
           inkscape:connector-curvature="0"
           style="fill:url(#gradient15);fill-rule:evenodd;stroke:none"
           id="path46"
           d="M 23.2,7.85 22.9,7.75 20.7,7.3 19.6,7.2 18.3,7.15 q -2.95,0 -4.9,0.7 Q 12.5,8.1 12,8.45 L 7.75,7.4 44.15,1.25 57.2,3.8 25,10 25.2,9.45 q -0.05,-1 -2,-1.6 M 44.55,2.2 35.5,3.95 41.7,5.55 52,3.7 44.55,2.2" /><path
           inkscape:connector-curvature="0"
           style="fill:url(#gradient16);fill-rule:evenodd;stroke:none"
           id="path48"
           d="M 1.45,12.85 Q 1.7,8.15 5.4,7.55 L 11.35,9.3 V 9.45 Q 11.3,10.4 13.4,11.1 l 4.9,0.65 h 1.2 q -2.5,2 -2.45,4.45 V 17 L 16.8,53.6 16.7,53.7 Q 15.45,54.35 13.2,53.4 11.7,52.75 3.75,47.9 1.65,47.05 1.9,44.55 L 1.85,41.55 1.9,41.8 12.35,46.9 12.8,16.4 1.45,12.85 m 3.35,4.6 v 21.4 L 6.1,39.5 V 17.85 l -1.3,-0.4 m -3.35,-4.55 0.2,1.2 9.7,3.15 L 11.1,44.8 1.8,40.4 1.45,13 v -0.1" /><path
           inkscape:connector-curvature="0"
           style="fill:url(#gradient17);fill-rule:evenodd;stroke:none"
           id="path50"
           d="M 23.15,8.8 23,9.25 Q 22.55,9.75 20.85,10 l -1.1,0.1 H 18.4 q -4.8,0 -4.8,-1.3 0,-1.25 4.8,-1.25 l 1.25,0.05 1.1,0.05 q 1.7,0.2 2.2,0.7 l 0.2,0.45" /><path
           inkscape:connector-curvature="0"
           style="fill:url(#gradient18);fill-rule:evenodd;stroke:none"
           id="path52"
           d="m 16.7,53.7 0.1,-0.1 0.25,-36.6 3.1,0.45 1.15,0.25 q 1.3,0.4 2.2,0.95 1.65,1.05 2.05,2.65 l 0.1,0.55 -0.45,22.7 q 0.95,6.8 -8.5,9.15 M 21.6,33.9 21.05,33.75 H 21 q -0.95,-0.05 -0.95,1.05 0,1 0.95,1.05 0.75,-0.05 0.95,-0.6 L 22,34.8 q -0.05,-0.65 -0.4,-0.9 m -0.7,-5.3 h -0.15 q -0.8,0.1 -0.8,1.05 0,1.05 0.95,1.05 0.95,0 0.95,-1.05 0,-1.05 -0.95,-1.05 M 21.85,24 21.6,23.15 Q 21.35,22.9 20.9,22.9 L 20.45,23 q -0.5,0.2 -0.5,1 0,0.8 0.6,1 l 0.35,0.05 Q 21.45,25 21.65,24.75 L 21.85,24 m 0.1,21.3 Q 21.9,44.2 21,44.2 q -0.95,0 -0.95,1.1 0,1 0.95,1 0.9,0 0.95,-1 M 22,40.05 q -0.05,-1 -1,-1 -0.95,0 -0.95,1 0,1.1 0.95,1.1 0.95,0 1,-1.1" /><path
           inkscape:connector-curvature="0"
           style="fill:url(#gradient19);fill-rule:evenodd;stroke:none"
           id="path54"
           d="m 36.3,31.9 q 0.45,1.6 1.65,2.8 1.9,2.05 4.7,1.75 2.75,-0.3 4.7,-2.65 1.7,-2.2 1.9,-4.95 V 28.2 q 0,-3.2 -1.9,-5.3 -1.95,-2.05 -4.7,-1.8 -2.8,0.2 -4.7,2.75 -2,2.4 -2,5.6 0,1.3 0.35,2.45 m -1.8,0.45 q -0.35,-1.3 -0.3,-2.7 -0.05,-4.05 2.4,-7.1 2.45,-3.1 5.95,-3.4 3.45,-0.3 5.85,2.3 2.45,2.6 2.4,6.6 v 0.45 q -0.15,3.7 -2.4,6.55 -2.45,3 -5.85,3.4 -3.5,0.35 -5.95,-2.2 -1.55,-1.7 -2.1,-3.9" /><path
           inkscape:connector-curvature="0"
           style="fill:url(#gradient20);fill-rule:evenodd;stroke:none"
           id="path56"
           d="m 22.25,11.75 0.85,-0.15 5.85,-1.2 27.4,-5.6 q 2.5,-0.6 2.7,2.15 V 36.6 q -0.2,3.5 -2.5,4.35 l -34.4,11.2 q 4.2,-1.5 4.4,-6.35 l 0.2,-11.65 0.15,-12.7 Q 26.75,20.3 26.15,19.4 25.25,18.15 23.45,17.3 L 21.2,16.5 20.1,16.25 18.7,16 q 0.1,-1.9 1.2,-3 0.45,-0.45 1.1,-0.75 l 1.25,-0.5 m 5.7,18.55 q 0,1.85 0.35,3.5 0.8,4.2 3.65,7.25 4.05,4.15 9.65,3.55 5.55,-0.65 9.45,-5.5 3.9,-5 3.9,-11.35 v -0.2 Q 54.95,21.25 51.1,17.1 47.15,12.9 41.65,13.35 36,13.85 32,18.8 27.95,23.75 27.95,30.3 m 7.15,-17.05 5.85,-1.1 v -2.5 l -6.1,1.1 0.25,2.5 M 56.95,5.65 45.8,7.8 46,13.25 56.95,11.15 v -5.5" /><path
           inkscape:connector-curvature="0"
           style="fill:url(#gradient21);fill-rule:evenodd;stroke:none"
           id="path58"
           d="m 27.95,30.3 q 0,-6.55 4.05,-11.5 4,-4.95 9.65,-5.45 5.5,-0.45 9.45,3.75 3.85,4.15 3.85,10.45 v 0.2 q 0,6.35 -3.9,11.35 -3.9,4.85 -9.45,5.5 Q 36,45.2 31.95,41.05 29.1,38 28.3,33.8 27.95,32.15 27.95,30.3 m 4.4,-0.65 q 0,1.65 0.35,3.1 0.65,2.8 2.65,4.85 2.95,3.15 7.15,2.7 4.15,-0.5 7.05,-4.1 2.8,-3.6 2.95,-8.1 v -0.35 q 0,-4.8 -2.9,-7.95 -2.9,-3.15 -7.05,-2.8 -4.25,0.35 -7.25,4.05 -2.95,3.7 -2.95,8.6" /><path
           inkscape:connector-curvature="0"
           style="fill:url(#gradient22);fill-rule:evenodd;stroke:none"
           id="path60-8"
           d="m 45.1,28.65 -0.25,1.25 -0.4,0.7 q -0.65,0.85 -1.6,1 -1,0.05 -1.65,-0.65 L 41.05,30.8 q -0.55,-0.7 -0.55,-1.65 0,-1.1 0.7,-2 0.65,-0.85 1.65,-0.9 0.9,-0.15 1.6,0.6 0.65,0.75 0.65,1.8" /></g><path
         d="m 106.59503,181.51023 q 0,5.32884 -2.42933,9.52137 -2.42932,4.19255 -6.974504,6.50431 -4.505991,2.2726 -10.736014,2.2726 H 72.741277 v 19.43455 h -11.55886 v -55.20825 h 24.802571 q 9.913197,0 15.242022,4.58437 5.36802,4.54516 5.36802,12.89105 z m -11.637224,0.19593 q 0,-8.69853 -10.265843,-8.69853 H 72.741277 v 17.90643 h 12.264149 q 4.780278,0 7.366327,-2.35094 2.586053,-2.39014 2.586053,-6.85696 z m 45.758274,-8.7377 v 46.27462 H 129.1572 v -46.27465 h -17.82806 v -8.93362 h 47.25418 v 8.93362 z m 60.4909,46.27462 -13.87061,-21.98143 -13.87066,21.98143 h -12.22495 l 19.12108,-29.03429 -17.5146,-26.17397 h 12.22495 l 12.26418,19.51293 12.26415,-19.51293 h 12.14658 l -16.77015,26.17397 18.37666,29.03429 z"
         id="text1-2"
         style="font-weight:bold;font-size:70.6667px;line-height:0.8;font-family:'Liberation Sans';-inkscape-font-specification:'Liberation Sans Bold';letter-spacing:0.96px;word-spacing:0px;display:inline;fill-rule:evenodd;stroke-width:4.72106"
         aria-label="PTX" /><g
         id="g2"
         transform="matrix(0.06664613,0,0,0.06664613,48.681245,108.86166)"
         style="display:inline"><g
           id="#ff0013ff"><path
             fill="#ff0013"
             opacity="1"
             d="m 11.94,8.26 c 80.68,0.02 161.37,0 242.05,0.01 24.71,-0.3 49.84,0.79 73.58,8.22 15.53,4.83 30.33,12.55 42.3,23.65 12.37,11.35 21.4,26.01 27.24,41.68 8.81,23.63 11.31,49.08 11.43,74.14 0.03,25.34 0,50.69 0.01,76.03 -0.11,14.69 0.49,29.43 -1.19,44.06 -1.84,16.66 -6.11,33.25 -14.24,47.99 -7,12.79 -17,23.91 -29,32.2 -19.71,13.7 -43.53,20 -67.11,22.73 -18.6,2.22 -37.35,1.7 -56.04,1.76 -28.67,0.01 -57.34,0 -86.02,0.01 0,40.06 0.01,80.13 0,120.19 -47.68,0 -95.37,0.01 -143.05,0 C 11.92,336.71 11.85,172.48 11.94,8.26 M 155.4,97.33 c -0.04,61.87 0.07,123.75 -0.05,185.62 18.19,0.29 36.4,0.03 54.6,0.13 11.55,0.06 23.52,-1.64 33.65,-7.5 8.97,-5.07 15.65,-13.75 18.81,-23.5 2.93,-8.39 3.12,-17.37 2.97,-26.15 -0.04,-28.31 -0.03,-56.63 -0.09,-84.94 0.02,-11.43 -3.55,-23.33 -11.85,-31.49 -8.43,-8.51 -20.67,-12.16 -32.43,-12.16 -21.87,-0.02 -43.74,-0.01 -65.61,-0.01 z"
             id="path1-3-1" /><path
             fill="#ff0013"
             opacity="1"
             d="m 454.97,8.33 c 113.66,0.13 227.33,0.06 340.99,0.03 0.16,30.62 0.03,61.24 0.07,91.85 -67.34,0.01 -134.68,0 -202.02,0 0.01,34.1 -0.02,68.19 0.01,102.29 57.11,0.04 114.21,-0.15 171.31,0.09 -0.25,30.78 -0.04,61.56 -0.11,92.34 -57.07,0.02 -114.14,0 -171.2,0.01 -0.01,38.29 -0.01,76.58 -0.01,114.86 67.23,0.03 134.46,-0.04 201.69,0.03 0,30.38 -0.05,60.75 0.02,91.13 -113.62,0.19 -227.25,0.02 -340.88,0.08 0,-109.69 0,-219.38 0,-329.07 0.09,-54.55 -0.17,-109.1 0.13,-163.64 z"
             id="path2-6" /><path
             fill="#ff0013"
             opacity="1"
             d="m 854.94,8.2 c 45.26,0.02 90.52,0.1 135.79,0.07 39.32,94.34 78.64,188.68 117.96,283.01 1.11,2.56 2.14,5.15 3.04,7.79 0.53,-25 0.08,-50.04 0.23,-75.05 0.01,-71.92 -0.04,-143.84 0.02,-215.76 40.93,0.05 81.86,-0.05 122.78,-0.05 0,164.28 0.01,328.57 0,492.86 -47.29,0 -94.57,0 -141.85,-0.01 -36.84,-89.18 -73.72,-178.35 -110.55,-267.54 -0.35,-0.73 -1.06,-2.21 -1.41,-2.94 -0.17,90.16 -0.02,180.32 -0.08,270.48 -41.97,0.16 -83.95,0.03 -125.93,0.07 -0.01,-164.31 0,-328.62 0,-492.93 z"
             id="path3-7" /><path
             fill="#ff0013"
             opacity="1"
             d="m 1278.17,8.22 c 143.08,-0.01 286.15,-0.02 429.22,0 -0.03,31.62 0,63.24 -0.01,94.86 -47.97,0.02 -95.94,-0.02 -143.91,0.02 0.02,132.65 -0.01,265.29 0.01,397.93 -48.02,-0.07 -96.05,0.18 -144.06,-0.12 0.17,-132.6 0,-265.21 0.08,-397.81 -47.11,-0.04 -94.22,0 -141.33,-0.02 -0.01,-31.62 0,-63.24 0,-94.86 z"
             id="path4-5" /><path
             fill="#ff0013"
             opacity="1"
             d="m 1802.51,8.34 c 40.32,0.07 80.64,-0.17 120.95,0.12 54.64,164.22 109.59,328.34 164.42,492.51 -44.88,0.06 -89.76,0.04 -134.64,0.01 -7.67,-26.29 -15.41,-52.56 -23.11,-78.84 -43.97,-0.01 -87.94,-0.01 -131.91,0 -7.33,26.33 -14.64,52.67 -21.99,79 -43.13,0 -86.26,-0.15 -129.39,-0.14 51.9,-164.22 103.77,-328.45 155.67,-492.66 m 61.22,154.54 c -14.39,58.12 -28.82,116.23 -43.31,174.33 28.85,0 57.7,-0.02 86.55,0.01 -14.43,-58.11 -28.69,-116.26 -43.24,-174.34 z"
             id="path5-9" /><path
             fill="#ff0013"
             opacity="1"
             d="m 2094.25,8.17 c 50.56,0.06 101.13,0.01 151.7,0.03 23.28,50.21 46.72,100.35 69.87,150.62 21.95,-50.13 43.53,-100.43 65.36,-150.62 46.81,0.22 93.64,-0.12 140.45,0.38 -41.28,79.09 -82.12,158.42 -123.23,237.62 50.29,84.93 100.52,169.89 150.85,254.8 -49.78,0.05 -99.56,-0.1 -149.33,0.07 -26.4,-54.27 -52.8,-108.53 -79.2,-162.8 -1.42,-2.83 -2.66,-5.75 -4.29,-8.46 -14.54,34.29 -29.23,68.51 -43.83,102.78 -9.84,22.83 -19.36,45.81 -29.4,68.55 -51.34,-0.19 -102.68,0.01 -154.02,-0.1 46.65,-86.08 93.3,-172.17 139.99,-258.23 -44.94,-78.23 -89.98,-156.4 -134.92,-234.64 z"
             id="path6-3" /></g><g
           id="#ffffffff" /></g></g><g
       id="rect23"
       style="display:inline"><rect
         style="display:inline;fill:url(#linearGradient23);fill-opacity:0.834379;stroke:none;stroke-width:4.99999;stroke-linecap:square;stroke-dasharray:none;stroke-opacity:1"
         id="rect20"
         width="30.128031"
         height="11.286353"
         x="177.19191"
         y="53.347572" /><path
         style="color:#000000;display:inline;fill:url(#linearGradient25);stroke-linecap:square;stroke-linejoin:bevel;-inkscape-stroke:none"
         d="m 174.15254,15.119046 40.91592,41.955358 H 174.814 Z"
         id="path25" /><g
         id="g27"><path
           id="rect27"
           style="display:inline;fill:#0a6db5;fill-opacity:0.459222;stroke-width:4.99999;stroke-linecap:square;stroke-linejoin:bevel"
           d="m 182.94047,23.245534 33.07293,33.82887 -33.07293,-0.09449 z"
           sodipodi:nodetypes="cccc" /><path
           id="path27"
           style="display:inline;fill:#1882cf;fill-opacity:0.459222;stroke-width:4.99999;stroke-linecap:square;stroke-linejoin:bevel"
           d="m 175.28645,49.514879 34.91556,0.188989 4.67746,7.087054 -39.68751,-0.472471 z"
           sodipodi:nodetypes="ccccc" /></g><path
         style="color:#000000;display:inline;fill:url(#linearGradient27);stroke-linecap:square;stroke-linejoin:bevel;-inkscape-stroke:none"
         d="m 175.94141,13.373047 -4.28907,1.785156 6.5e-4,44.600911 c 0,0 29.8634,-0.184895 43.41537,-0.184895 l 1.78906,-4.246094 z m 1.4286,7.056744 34.22551,34.144428 h -34.32013 z"
         id="path26"
         sodipodi:nodetypes="cccccccccc" /></g></g></svg>
