<?xml version="1.0" encoding="UTF-8" standalone="no"?>
<!-- Created with Inkscape (http://www.inkscape.org/) -->

<svg
   width="256mm"
   height="256mm"
   viewBox="0 0 256 256"
   version="1.1"
   id="svg1"
   inkscape:version="1.3.2 (091e20ef0f, 2023-11-25)"
   xml:space="preserve"
   sodipodi:docname="image-x-skencil.svg"
   xmlns:inkscape="http://www.inkscape.org/namespaces/inkscape"
   xmlns:sodipodi="http://sodipodi.sourceforge.net/DTD/sodipodi-0.dtd"
   xmlns:xlink="http://www.w3.org/1999/xlink"
   xmlns="http://www.w3.org/2000/svg"
   xmlns:svg="http://www.w3.org/2000/svg"
   xmlns:rdf="http://www.w3.org/1999/02/22-rdf-syntax-ns#"
   xmlns:cc="http://creativecommons.org/ns#"
   xmlns:dc="http://purl.org/dc/elements/1.1/"><defs
     id="defs1"><linearGradient
       id="linearGradient26"
       inkscape:collect="always"><stop
         style="stop-color:#7b91c4;stop-opacity:1;"
         offset="0"
         id="stop26" /><stop
         style="stop-color:#5c5e91;stop-opacity:1"
         offset="1"
         id="stop27" /></linearGradient><linearGradient
       id="linearGradient24"
       inkscape:collect="always"><stop
         style="stop-color:#c7fafe;stop-opacity:1;"
         offset="0"
         id="stop24" /><stop
         style="stop-color:#9acdff;stop-opacity:1"
         offset="1"
         id="stop25" /></linearGradient><linearGradient
       id="linearGradient22"
       inkscape:collect="always"><stop
         style="stop-color:#adaeae;stop-opacity:0.8253752;"
         offset="0"
         id="stop22" /><stop
         style="stop-color:#8ac5fe;stop-opacity:0.83628923;"
         offset="1"
         id="stop23" /></linearGradient><linearGradient
       id="linearGradient18"
       inkscape:collect="always"><stop
         style="stop-color:#9797ff;stop-opacity:1;"
         offset="0"
         id="stop18" /><stop
         style="stop-color:#ccccff;stop-opacity:1;"
         offset="0.30000001"
         id="stop20" /><stop
         style="stop-color:#ccccff;stop-opacity:1;"
         offset="1"
         id="stop19" /></linearGradient><linearGradient
       id="linearGradient16"
       inkscape:collect="always"><stop
         style="stop-color:#cdcdcd;stop-opacity:0.17462483;"
         offset="0"
         id="stop16" /><stop
         style="stop-color:#cdcdcd;stop-opacity:1;"
         offset="1"
         id="stop17" /></linearGradient><linearGradient
       id="linearGradient12"
       inkscape:collect="always"><stop
         style="stop-color:#fdfeff;stop-opacity:1;"
         offset="0"
         id="stop13" /><stop
         style="stop-color:#99ccff;stop-opacity:1;"
         offset="1"
         id="stop14" /></linearGradient><linearGradient
       id="linearGradient9"
       inkscape:collect="always"><stop
         style="stop-color:#97c9fc;stop-opacity:1;"
         offset="0"
         id="stop9" /><stop
         style="stop-color:#7788bb;stop-opacity:1"
         offset="0.25"
         id="stop12" /><stop
         style="stop-color:#57578a;stop-opacity:1"
         offset="0.5"
         id="stop11" /><stop
         style="stop-color:#444482;stop-opacity:1;"
         offset="1"
         id="stop10" /></linearGradient><linearGradient
       inkscape:collect="always"
       xlink:href="#linearGradient9"
       id="linearGradient10"
       x1="31.622168"
       y1="100.24049"
       x2="221.19499"
       y2="240.28973"
       gradientUnits="userSpaceOnUse" /><linearGradient
       inkscape:collect="always"
       xlink:href="#linearGradient12"
       id="linearGradient14"
       x1="73.583481"
       y1="62.020954"
       x2="207.02971"
       y2="229.59895"
       gradientUnits="userSpaceOnUse" /><linearGradient
       inkscape:collect="always"
       xlink:href="#linearGradient16"
       id="linearGradient17"
       x1="57.531055"
       y1="26.420616"
       x2="147.13231"
       y2="144.34076"
       gradientUnits="userSpaceOnUse" /><linearGradient
       inkscape:collect="always"
       xlink:href="#linearGradient18"
       id="linearGradient19"
       x1="209.82518"
       y1="58.53635"
       x2="210.58252"
       y2="194.57654"
       gradientUnits="userSpaceOnUse" /><linearGradient
       inkscape:collect="always"
       xlink:href="#linearGradient22"
       id="linearGradient23"
       x1="177.19191"
       y1="58.990749"
       x2="207.31994"
       y2="58.990749"
       gradientUnits="userSpaceOnUse" /><linearGradient
       inkscape:collect="always"
       xlink:href="#linearGradient24"
       id="linearGradient25"
       x1="176.32031"
       y1="20.126524"
       x2="176.32031"
       y2="56.695721"
       gradientUnits="userSpaceOnUse" /><linearGradient
       inkscape:collect="always"
       xlink:href="#linearGradient26"
       id="linearGradient27"
       x1="172.59729"
       y1="13.51158"
       x2="210.54449"
       y2="51.28627"
       gradientUnits="userSpaceOnUse" /><linearGradient
       inkscape:collect="always"
       xlink:href="#linearGradient2"
       id="linearGradient35"
       x1="116.08043"
       y1="380.74298"
       x2="161.89828"
       y2="446.51233"
       gradientUnits="userSpaceOnUse" /><linearGradient
       id="linearGradient2"
       inkscape:collect="always"><stop
         style="stop-color:#fed554;stop-opacity:1;"
         offset="0"
         id="stop2-1" /><stop
         style="stop-color:#fbaf01;stop-opacity:1;"
         offset="1"
         id="stop35-5" /></linearGradient><linearGradient
       inkscape:collect="always"
       xlink:href="#linearGradient40"
       id="linearGradient41"
       x1="104.40455"
       y1="375.14944"
       x2="110.98448"
       y2="375.14944"
       gradientUnits="userSpaceOnUse" /><linearGradient
       id="linearGradient40"
       inkscape:collect="always"><stop
         style="stop-color:#f0e2ac;stop-opacity:1;"
         offset="0"
         id="stop40-4" /><stop
         style="stop-color:#ffffff;stop-opacity:0.49803922;"
         offset="0.5"
         id="stop42" /><stop
         style="stop-color:#f0e2ac;stop-opacity:0;"
         offset="1"
         id="stop41" /></linearGradient><linearGradient
       inkscape:collect="always"
       xlink:href="#linearGradient40"
       id="linearGradient42"
       gradientUnits="userSpaceOnUse"
       x1="104.40455"
       y1="375.14944"
       x2="110.98448"
       y2="375.14944"
       gradientTransform="matrix(1.159425,0.08201856,-0.09541584,0.9966308,41.739612,-15.787768)" /><linearGradient
       inkscape:collect="always"
       xlink:href="#linearGradient40"
       id="linearGradient45"
       gradientUnits="userSpaceOnUse"
       gradientTransform="matrix(0.93188764,0.16137171,-0.15134305,0.98721876,113.67825,-28.851592)"
       x1="104.40455"
       y1="375.14944"
       x2="112.67772"
       y2="375.39301" /><linearGradient
       inkscape:collect="always"
       xlink:href="#linearGradient40"
       id="linearGradient47"
       gradientUnits="userSpaceOnUse"
       gradientTransform="matrix(0.89668027,0.300699,-0.29916933,0.95289208,197.57174,-18.647965)"
       x1="104.40455"
       y1="375.14944"
       x2="111.83828"
       y2="375.4191" /><linearGradient
       inkscape:collect="always"
       xlink:href="#linearGradient66"
       id="linearGradient67"
       x1="80.722847"
       y1="411.5885"
       x2="86.944504"
       y2="429.73865"
       gradientUnits="userSpaceOnUse" /><linearGradient
       id="linearGradient66"
       inkscape:collect="always"><stop
         style="stop-color:#f6da06;stop-opacity:1;"
         offset="0"
         id="stop66" /><stop
         style="stop-color:#f69906;stop-opacity:1;"
         offset="1"
         id="stop67" /></linearGradient><linearGradient
       inkscape:collect="always"
       xlink:href="#linearGradient50"
       id="linearGradient51"
       x1="143.14633"
       y1="376.3584"
       x2="148.79684"
       y2="390.57028"
       gradientUnits="userSpaceOnUse" /><linearGradient
       id="linearGradient50"
       inkscape:collect="always"><stop
         style="stop-color:#1f8bcf;stop-opacity:1;"
         offset="0"
         id="stop50" /><stop
         style="stop-color:#9acff0;stop-opacity:1;"
         offset="1"
         id="stop51" /></linearGradient><linearGradient
       inkscape:collect="always"
       xlink:href="#linearGradient54"
       id="linearGradient55"
       x1="138.90718"
       y1="400.50146"
       x2="150.81046"
       y2="419.67896"
       gradientUnits="userSpaceOnUse" /><linearGradient
       id="linearGradient54"
       inkscape:collect="always"><stop
         style="stop-color:#155b86;stop-opacity:1;"
         offset="0"
         id="stop54" /><stop
         style="stop-color:#1f8bcf;stop-opacity:1;"
         offset="1"
         id="stop55" /></linearGradient><linearGradient
       inkscape:collect="always"
       xlink:href="#linearGradient54"
       id="linearGradient56"
       gradientUnits="userSpaceOnUse"
       x1="152.26294"
       y1="421.90494"
       x2="153.55009"
       y2="426.69928" /></defs><sodipodi:namedview
     id="base"
     pagecolor="#ffffff"
     bordercolor="#000000"
     borderopacity="0.3"
     inkscape:pageopacity="0.0"
     inkscape:pageshadow="2"
     inkscape:zoom="0.98994949"
     inkscape:cx="505.07627"
     inkscape:cy="476.792"
     inkscape:document-units="mm"
     inkscape:showpageshadow="2"
     inkscape:pagecheckerboard="0"
     inkscape:deskcolor="#d1d1d1"
     inkscape:current-layer="g28"
     showguides="true" /><metadata
     id="metadata1"><rdf:RDF><cc:Work
         rdf:about=""><dc:format>image/svg+xml</dc:format><dc:type
           rdf:resource="http://purl.org/dc/dcmitype/StillImage" /><cc:license
           rdf:resource="http://creativecommons.org/publicdomain/zero/1.0/" /></cc:Work><cc:License
         rdf:about="http://creativecommons.org/publicdomain/zero/1.0/"><cc:permits
           rdf:resource="http://creativecommons.org/ns#Reproduction" /><cc:permits
           rdf:resource="http://creativecommons.org/ns#Distribution" /><cc:permits
           rdf:resource="http://creativecommons.org/ns#DerivativeWorks" /></cc:License></rdf:RDF></metadata><g
     id="g28"
     transform="matrix(1.0481261,0,0,1.0481261,-6.4074194,-6.1384097)"><g
       id="g7"
       inkscape:label="shadow"
       style="display:inline"><path
         id="rect1"
         style="fill:#000000;fill-opacity:0.0602258;stroke-width:3.72791;stroke-linecap:square"
         d="M 48.380952,13.418155 H 179.16071 l 43.46726,43.278274 V 244.17261 H 48.380952 Z"
         sodipodi:nodetypes="cccccc" /><path
         id="path1"
         style="fill:#000000;fill-opacity:0.0752823;stroke-width:3.72791;stroke-linecap:square"
         d="m 47.563027,12.60023 129.443423,-0.133635 43.46726,43.278274 1.33635,187.609821 H 47.563027 Z"
         sodipodi:nodetypes="cccccc" /><path
         id="path2"
         style="fill:#000000;fill-opacity:0.0602258;stroke-width:3.72791;stroke-linecap:square"
         d="m 46.493949,11.793049 128.975701,-0.868626 43.46726,43.278274 1.80407,188.344813 H 46.493949 Z"
         sodipodi:nodetypes="cccccc" /><path
         id="path3"
         style="fill:#000000;fill-opacity:0.0602258;stroke-width:3.72791;stroke-linecap:square"
         d="m 45.964782,12.33296 129.777508,0.467722 43.46726,42.209196 1.00226,187.008462 H 45.964782 Z"
         sodipodi:nodetypes="cccccc" /><path
         id="path4"
         style="fill:#000000;fill-opacity:0.0602258;stroke-width:3.72791;stroke-linecap:square"
         d="m 45.435615,12.338332 129.443415,0.935443 43.46726,41.674657 1.33635,186.540738 H 45.435615 Z"
         sodipodi:nodetypes="cccccc" /><path
         id="path5"
         style="fill:#000000;fill-opacity:0.0602258;stroke-width:3.72791;stroke-linecap:square"
         d="M 44.906448,12.744609 174.8844,13.412783 218.35166,54.151996 219.15347,240.96 H 44.906448 Z"
         sodipodi:nodetypes="cccccc" /><path
         id="path6"
         style="fill:#000000;fill-opacity:0.0602258;stroke-width:3.72791;stroke-linecap:square"
         d="m 44.377281,15.021772 129.911129,0.534539 43.46726,37.932883 0.86863,186.941636 H 44.377281 Z"
         sodipodi:nodetypes="cccccc" /><path
         id="path7"
         style="fill:#000000;fill-opacity:0.0602258;stroke-width:3.72791;stroke-linecap:square"
         d="m 43.848114,13.423527 129.710676,1.069078 43.46726,39.001961 1.06908,186.407094 H 43.848114 Z"
         sodipodi:nodetypes="cccccc" /></g><g
       id="g14"
       style="display:inline"><path
         style="color:#000000;fill:url(#linearGradient14);stroke-linecap:square;-inkscape-stroke:none"
         d="M 46.153822,14.648159 H 173.78301 l 40.90293,41.140298 V 236.0795 H 46.554726 Z"
         id="path15"
         inkscape:label="headbgground" /><path
         id="rect16"
         style="display:inline;fill:url(#linearGradient17);fill-opacity:1;stroke-width:4.99999;stroke-linecap:square"
         d="M 45.435818,14.165285 H 176.70315 l 0.20408,8.220982 H 53.433709 V 235.97952 h -7.997891 z"
         sodipodi:nodetypes="ccccccc" /><path
         id="rect17"
         style="fill:url(#linearGradient19);stroke-width:4.99999;stroke-linecap:square"
         d="M 47.058037,227.91965 H 207.27506 l -0.0668,-168.246312 7.31651,0.0667 0.0668,168.546562 -7.08265,0.0331 v 7.34846 H 47.058037 Z"
         sodipodi:nodetypes="ccccccccc" /><path
         style="color:#000000;fill:url(#linearGradient10);stroke-linecap:square;-inkscape-stroke:none"
         d="M 43.648437,12.148438 44.058594,238.58008 H 217.18555 V 54.757812 L 174.82227,12.148438 Z m 4.608862,4.999999 H 172.74414 l 39.44141,39.671875 V 233.58008 H 48.775405 Z"
         id="path16"
         inkscape:label="headframe"
         sodipodi:nodetypes="cccccccccccc" /></g><g
       id="g2"
       style="display:inline"
       transform="matrix(1.012879,0,0,1.012879,-3.5784908,-1.2546657)"><g
         id="g67"
         inkscape:label="hand-icon"
         transform="matrix(0.88892857,0,0,0.88892857,-5.7394421,-254.98485)"
         style="display:inline"><g
           id="rect2"
           style="display:inline"
           inkscape:label="hand"><path
             style="color:#000000;fill:url(#linearGradient35);fill-rule:evenodd;stroke-linejoin:round;-inkscape-stroke:none"
             d="m 103.15695,353.78475 c 0.6861,-4.60797 1.02625,-11.4505 4.72198,-14.287 4.37667,-5.83695 12.28593,-2.8222 12.47085,2.42153 1.54208,17.74055 2.10901,27.40803 2.9815,54.24215 4.00527,-18.13734 3.86965,-41.72383 8.06671,-58.84305 0.85812,-4.85135 6.52605,-5.97266 9.76177,-6.05381 4.13727,-0.10376 7.6055,2.27919 9.51961,7.02241 -2.48348,28.33791 -4.1926,51.28122 -1.86154,56.42154 2.39457,-11.48665 6.25509,-38.26439 10.00393,-63.6861 4.92078,-11.78489 20.35278,-6.24616 20.41647,2.90582 -1.89264,29.2274 -10.19515,56.28546 -8.9218,66.34978 8.53833,-24.40979 11.87427,-40.00845 17.95711,-57.87443 2.63258,-8.55088 16.27621,-6.12794 17.31391,3.14798 -2.60922,39.31029 -13.07727,49.90187 -15.01345,67.62107 -1.1363,10.39901 15.36677,-3.23401 24.69955,-5.75112 15.19238,-4.09747 26.31597,7.53889 21.79372,11.19956 -9.97694,8.07611 -31.1799,17.9841 -46.00897,28.15022 -4.27431,2.93026 -8.79008,5.67769 -12.34978,9.44395 -4.54038,4.80385 -4.96014,14.05771 -11.139,16.40582 -18.21316,6.92141 -43.69055,0.18942 -56.66368,-14.34753 -10.42647,-11.6833 -5.32721,-23.27307 -6.29597,-46.55381 -0.80297,-19.29648 -2.38375,-35.52475 -1.45292,-57.93498 z"
             id="path35" /><path
             id="path37"
             style="fill:#fbe02f;fill-rule:evenodd;stroke-width:3.61;stroke-linejoin:round"
             d="m 192.39014,416.98654 c 0,2.94222 -16.19316,17.97246 -22.58071,18.8879 -16.72649,2.39719 -14.48583,-3.14097 -13.116,-6.7681 1.0395,-2.75247 12.21,-10.61613 17.35366,-12.48302 5.10455,-1.8527 18.34304,-2.57899 18.34305,0.36322 z"
             sodipodi:nodetypes="sssss" /><path
             id="path38"
             style="fill:#f89226;fill-rule:evenodd;stroke-width:3.61;stroke-linejoin:round"
             d="m 237.1503,418.22353 c 0.50482,1.1726 -51.44444,29.36554 -55.99144,33.64623 -4.68211,4.40788 -9.01663,22.05357 -16.26663,22.68767 -14.78565,1.29318 6.92525,-22.68766 10.61611,-28.16694 3.59258,-5.33337 58.2174,-36.12148 61.64196,-28.16696 z"
             sodipodi:nodetypes="sssss" /><path
             id="path40"
             style="fill:url(#linearGradient41);fill-rule:evenodd;stroke-width:3.61;stroke-linejoin:round"
             d="m 114.10349,371.3634 c -3.5338,29.77169 -1.78684,69.73035 -7.21588,71.66757 -1.69227,0.60385 -2.43875,-68.74747 -2.43875,-72.15187 0,-3.40439 -0.59816,-30.13606 3.76701,-30.13606 1.79676,0 9.6613,-1.17235 5.88762,30.62036 z"
             sodipodi:nodetypes="sssss" /><path
             id="path42"
             style="fill:url(#linearGradient42);fill-rule:evenodd;stroke-width:3.89369;stroke-linejoin:round"
             d="m 134.99646,362.94217 c -4.20301,23.62485 -8.0786,32.98507 -10.16181,32.83771 -2.08321,-0.14736 2.293,-29.97844 2.61783,-33.37137 0.32484,-3.39292 2.18193,-30.08358 7.24303,-29.72557 2.08321,0.14738 5.9166,-1.30601 0.30095,30.25923 z"
             sodipodi:nodetypes="sssss" /><path
             id="path45"
             style="fill:url(#linearGradient45);fill-rule:evenodd;stroke-width:3.50821;stroke-linejoin:round"
             d="m 163.8572,352.28141 c -6.14056,38.305 -11.88003,40.57474 -13.55441,40.2848 -1.67438,-0.28994 4.06484,-35.06302 4.58007,-38.42391 0.51524,-3.36088 4.00346,-29.8474 8.07132,-29.143 1.67438,0.28995 5.96368,-4.28645 0.90302,27.28211 z"
             sodipodi:nodetypes="sssss" /><path
             id="path47"
             style="fill:url(#linearGradient47);fill-rule:evenodd;stroke-width:3.50821;stroke-linejoin:round"
             d="m 187.47751,368.12399 c -9.47607,30.59702 -14.05838,33.13051 -15.66951,32.59023 -1.61112,-0.54028 7.44681,-31.30274 8.4653,-34.54677 1.0185,-3.24402 8.47942,-28.89627 12.3936,-27.58368 1.61112,0.54029 4.26917,-1.00025 -5.18939,29.54022 z"
             sodipodi:nodetypes="sssss" /><path
             style="color:#000000;display:inline;fill:#1e1e1e;fill-rule:evenodd;stroke-linejoin:round;-inkscape-stroke:none"
             d="m 167.26953,322.58984 c -4.04814,0.37912 -8.04506,2.7831 -10.11328,7.73633 -0.0583,0.13891 -0.099,0.28458 -0.12109,0.4336 -2.63812,17.88963 -5.1428,34.48131 -7.33399,47.87109 0.037,-1.22534 -0.0153,-2.01557 0.0449,-3.35352 0.44377,-9.86359 1.40368,-20.7003 2.64486,-34.86291 0.26428,-5.23494 -5.72473,-10.43784 -11.27572,-10.95349 -2.56526,-0.2383 -5.41652,-0.25076 -7.68687,0.80499 -2.26513,1.05334 -3.25148,3.65701 -3.80141,6.71844 -2.88189,11.81017 -3.7984,26.30486 -5.26953,39.99024 -0.55414,-12.7468 -1.14784,-22.97047 -2.20312,-35.11914 -0.12398,-3.51551 -2.80474,-6.19404 -6.00196,-7.04688 -3.19722,-0.85284 -7.12591,0.15014 -9.71679,3.60547 l 0.34375,-0.34765 c -2.38276,1.82878 -3.46868,4.66918 -4.14453,7.49023 -0.67586,2.82105 -0.93339,5.74465 -1.26368,7.96289 -0.009,0.0628 -0.0151,0.12603 -0.0176,0.18945 -0.93585,22.53097 0.6525,38.8458 1.45312,58.08594 0.47839,11.49649 -0.55411,20.1194 -0.40039,27.58789 0.15372,7.46849 1.64436,13.91987 7.15234,20.0918 13.57047,15.20629 39.5534,22.09201 58.65235,14.83398 3.81276,-1.44894 5.69871,-4.92349 7.1875,-8.22851 1.48879,-3.30502 2.72926,-6.62339 4.62109,-8.625 3.33725,-3.53091 7.72926,-6.22733 12.05859,-9.19531 14.61836,-10.02166 35.73716,-19.82761 46.125,-28.23633 0.88766,-0.71855 1.47414,-1.76381 1.63477,-2.83594 0.16063,-1.07213 -0.0494,-2.13407 -0.4668,-3.13281 -0.83477,-1.99749 -2.50464,-3.84778 -4.77929,-5.42578 -4.5493,-3.15602 -11.67118,-5.13866 -19.78907,-2.94922 -5.19915,1.40224 -11.57525,5.53282 -16.57421,7.82812 -1.42929,0.65627 -2.25098,0.72264 -2.99393,0.65241 -0.37148,-0.0351 -1.50682,0.14246 -2.26592,0.0958 -0.33532,-0.41038 -0.71826,0.1997 -0.59953,-0.88685 1.86831,-17.09804 12.3906,-28.09006 15.01953,-67.69727 0.007,-0.1068 0.004,-0.21399 -0.008,-0.32031 -0.61409,-5.48931 -4.99229,-9.01878 -9.5332,-9.83594 -2.27046,-0.40857 -4.63923,-0.17841 -6.70899,0.85352 -2.06976,1.03193 -3.79563,2.92424 -4.58984,5.50391 -4.69448,13.79671 -7.79607,26.2639 -12.8125,42.27929 0.51904,-3.08678 0.96499,-5.93471 1.6289,-9.53515 2.15387,-11.68048 4.71884,-25.82458 5.67383,-40.57227 0.003,-0.0429 0.004,-0.0859 0.004,-0.1289 -0.0389,-5.58791 -4.61277,-9.83225 -9.77735,-11.04883 -1.29114,-0.30415 -2.64671,-0.40372 -3.99609,-0.27735 z m 0.31445,3.51953 c 0.94184,-0.0537 1.90414,0.0478 2.85352,0.27149 3.7881,0.89233 6.94991,3.98224 6.99023,7.53516 -0.94303,14.44246 -3.46626,28.40354 -5.61328,40.04687 -2.1522,11.67146 -4.01234,20.82436 -3.28906,26.54102 0.24084,1.88912 2.86387,2.16623 3.49414,0.36914 8.56907,-24.49768 11.91848,-40.13555 17.96289,-57.88868 0.005,-0.0162 0.0106,-0.0325 0.0156,-0.0488 0.52208,-1.69577 1.48874,-2.70711 2.75,-3.33594 1.26126,-0.62883 2.8617,-0.81904 4.46093,-0.53125 3.16923,0.57031 6.0911,2.86444 6.55664,6.58984 -2.61705,38.80876 -12.09959,49.13572 -14.98632,67.31836 -13.96804,-0.78724 -28.81307,6.11925 -31.84358,15.43911 -0.59308,1.82391 15.66005,-16.75203 38.5558,-11.28963 2.33372,0.55677 1.61249,0.89958 4.2741,-0.3526 5.32323,-2.50436 11.84491,-6.49452 15.97852,-7.60938 7.07448,-1.90802 13.111,-0.12132 16.79102,2.43164 1.84001,1.27648 3.05207,2.76573 3.50586,3.85157 0.22689,0.54292 0.26385,0.95813 0.22656,1.20703 -0.0373,0.2489 -0.093,0.36783 -0.33594,0.56445 -9.56602,7.74348 -30.85477,17.75389 -45.89453,28.06445 -4.21928,2.89254 -8.85848,5.6898 -12.64063,9.69141 -2.64854,2.80223 -3.88816,6.51315 -5.28906,9.62305 -1.40089,3.10989 -2.8136,5.43677 -5.17969,6.33593 -17.32733,6.58478 -42.30001,0.006 -54.67578,-13.86132 -4.91847,-5.51136 -6.09086,-10.69628 -6.23632,-17.76368 -0.14547,-7.06739 0.8888,-15.87983 0.39843,-27.66406 -0.80433,-19.32932 -2.37372,-35.46143 -1.45508,-57.70898 0.34763,-2.36583 0.60475,-5.11283 1.18555,-7.53711 0.58968,-2.46133 1.52101,-4.46104 2.83399,-5.46875 0.12995,-0.10036 0.2456,-0.21798 0.34375,-0.34961 1.78578,-2.38161 4.00063,-2.78943 5.89843,-2.28321 1.8978,0.50623 3.26523,1.95733 3.32618,3.68555 5.2e-4,0.0313 0.002,0.0625 0.004,0.0937 1.54049,17.7222 2.10444,27.32175 2.97656,54.14453 0.0719,2.11962 3.10672,2.40051 3.56641,0.33008 4.07817,-18.46745 3.95302,-42.06466 8.05664,-58.80273 0.01,-0.0381 0.0182,-0.0766 0.0254,-0.11524 0.31449,-1.77796 0.78629,-3.09858 2.37336,-3.8366 1.58707,-0.73802 2.28803,-1.10557 5.14226,-0.81346 2.85423,0.29211 8.74816,1.94949 8.06479,7.64262 -1.2191,13.93514 -2.17307,24.65453 -2.61557,34.48986 -0.22444,4.9888 -0.30007,9.26165 -0.16796,12.66407 0.1321,3.40242 0.37555,5.85323 1.20117,7.67382 0.72187,1.58784 3.0525,1.33022 3.41015,-0.37695 2.41947,-11.60609 6.24354,-38.15472 9.97657,-63.47461 1.62728,-3.78024 4.23304,-5.33315 7.02343,-5.49219 z"
             id="path36"
             sodipodi:nodetypes="ccccscsscccsccsccsssssssssssssscsccssccsccscccccsccscssccssssssscssssssscsccsccccccszcssccccc" /></g><g
           id="g66"><path
             style="color:#000000;fill:url(#linearGradient67);fill-rule:evenodd;-inkscape-stroke:none"
             d="m 68.148603,428.06916 c -1.411493,-0.28918 -1.351836,-3.05202 -0.59929,-4.28069 5.860089,-9.56767 20.54732,-32.10518 20.54732,-32.10518 5.943316,5.41713 1.952608,17.33318 -0.428063,21.48906 5.04544,-0.5742 20.52894,10.53265 9.759976,20.37609 0,0 -19.939702,-3.56568 -29.279943,-5.47928 z"
             id="path65"
             sodipodi:nodetypes="sscccs" /><path
             style="color:#000000;fill:url(#linearGradient51);fill-rule:evenodd;stroke-linejoin:round;-inkscape-stroke:none"
             d="m 88.353472,391.42643 119.431298,-43.3206 -1.1986,20.63294 -118.74638,44.34795 c 2.019352,-4.3114 5.565554,-15.17939 0.513682,-21.66029 z"
             id="path63"
             sodipodi:nodetypes="ccccc" /><path
             style="color:#000000;fill:url(#linearGradient55);fill-rule:evenodd;stroke-linejoin:round;-inkscape-stroke:none"
             d="M 87.839789,413.00113 206.32934,368.65316 220.37,388.25871 98.284677,433.54844 c 6.984953,-8.93455 -0.08496,-17.83343 -10.444888,-20.54731 z"
             id="path61"
             sodipodi:nodetypes="ccccc" /><path
             style="color:#000000;fill:url(#linearGradient56);fill-rule:evenodd;stroke-linejoin:round;-inkscape-stroke:none"
             d="m 98.969587,433.8909 120.886733,-45.8034 11.21541,2.48279 -118.2327,43.14937 c -15.10342,-1.2293 -8.30389,1.34408 -13.869443,0.17124 z"
             id="path59"
             sodipodi:nodetypes="ccccc" /><path
             style="color:#000000;fill:#f78701;fill-rule:evenodd;stroke-linejoin:round;-inkscape-stroke:none"
             d="m 206.32932,368.99562 1.45544,-21.061 h 10.61612 l 11.04419,19.8624 1.36982,22.60205 -10.95858,-2.05473 c -4.14485,-6.36613 -9.16002,-13.55274 -13.52699,-19.34872 z"
             id="path57" /><path
             id="path66"
             style="color:#000000;display:inline;fill:#1e1e1e;fill-rule:evenodd;-inkscape-stroke:none"
             d="m 207.78516,346.12891 c -0.0558,0.008 -0.1112,0.0182 -0.16602,0.0312 -0.003,-0.002 -0.005,-0.004 -0.008,-0.006 -0.31022,-0.0918 -0.64181,-0.0809 -0.94531,0.0312 L 87.833984,390.01953 c -0.139238,0.0779 -0.265169,0.1774 -0.373046,0.29492 l -0.183594,-0.16797 c 0,0 -15.562237,22.39407 -21.291016,33.30079 -2.81138,5.35244 -0.976338,5.06625 0.826172,5.89843 9.597418,4.4309 31.152344,5.83008 31.152344,5.83008 l 0.183594,-0.19531 c 0.141494,0.16146 0.315997,0.29068 0.511718,0.37891 1.439384,0.3033 2.157604,0.42535 2.923824,0.31054 0.38313,-0.0574 0.73659,-0.21156 0.92774,-0.31054 0.19115,-0.099 0.24613,-0.13378 0.35937,-0.17774 0.45299,-0.17585 2.36022,-0.57606 9.84571,0.0332 0.21452,0.0177 0.43034,-0.0109 0.63281,-0.084 l 117.63477,-42.63672 c 0.22047,-0.10214 0.41283,-0.25629 0.56054,-0.44922 0.68861,-0.30441 1.11598,-1.00423 1.07227,-1.75586 l -1.3711,-22.60156 c -0.0159,-0.26928 -0.092,-0.53157 -0.22265,-0.76758 l -11.04492,-19.86328 c -0.3186,-0.57282 -0.92267,-0.92793 -1.57813,-0.92773 z m 1.68359,3.61132 h 7.87109 l 10.32813,18.57618 1.20508,19.88281 -7.96094,-1.49414 C 218.74551,383.39514 216.37984,379.9222 214,376.53711 l -4.50195,-7.46094 c -0.19433,-0.30831 -0.49426,-0.53534 -0.84375,-0.63867 0.0204,-0.0983 0.0308,-0.19843 0.0312,-0.29883 v -7.06055 z m -3.7832,0.004 v 2.39063 L 204.625,367.49609 90.671875,410.0957 c 0.722508,-2.06427 1.396042,-4.39944 1.695313,-7.07226 0.399851,-3.57123 0.04064,-7.45251 -1.822266,-10.80664 z m 12.27706,16.2281 c -0.81673,0.72315 -1.3772,1.52418 -0.49122,3.67997 0.55752,1.35534 2.23256,2.21477 3.56572,1.71305 1.09399,-0.41171 1.38488,-2.33409 0.82683,-3.69101 -0.45722,-1.11108 -0.75135,-1.78066 -2.41379,-1.99092 -0.35927,-0.0454 -1.10936,-0.0459 -1.48754,0.28891 z m -11.57199,6.12542 c 3.4709,4.69822 7.2037,10.06373 10.54102,15.10351 l 0.73047,1.21094 -61.15234,22.60742 -54.875,19.73047 c 1.48914,-3.72646 1.06123,-7.47989 -0.7793,-10.57422 -1.820537,-3.06072 -4.870795,-5.52094 -8.554689,-7.17969 z m 14.64844,18.83593 3.65625,0.64844 -112.09179,40.62695 c -1.9774,-0.15552 -2.95639,-0.1414 -4.26172,-0.18359 l 49.14258,-18.16797 63.22265,-22.73242 c 0.11841,-0.0494 0.22999,-0.11367 0.33203,-0.19141 z m -133.265622,4.00977 c 1.515005,2.00106 1.862292,4.16871 1.539062,6.8125 -0.398487,3.25933 -1.895685,7.08314 -3.394531,11.1543 l -0.738281,2.00586 2.138671,0.0137 c 0.581393,0.003 2.366281,0.47268 4.189453,1.41992 1.823178,0.94724 3.787903,2.33498 5.267579,3.97851 1.47967,1.64359 2.453391,3.49719 2.552734,5.46094 0.09063,1.79155 -0.658106,3.8228 -2.572266,6.10742 0,0 -16.225398,-1.27356 -23.003547,-4.25403 1.975985,-0.89004 0.405447,-7.28881 -2.915648,-7.11556 4.481043,-8.11995 16.936774,-25.58356 16.936774,-25.58356 z"
             sodipodi:nodetypes="cccccccsscccssscccccccccccccccccccccccccsccscscsscccccsccccccccccscccssscccc" /></g></g><path
         style="font-weight:bold;font-size:66.6667px;line-height:0.7;font-family:'Liberation Sans';-inkscape-font-specification:'Liberation Sans Bold';letter-spacing:0.96px;word-spacing:0px;display:inline;fill-rule:evenodd;stroke-width:4.16522"
         d="m 132.5881,212.21179 q 0,6.75083 -5.02235,10.33822 -4.98975,3.55477 -14.67571,3.55477 -8.83804,0 -13.860384,-3.1308 -5.02234,-3.13083 -6.457288,-9.4903 l 9.294582,-1.53278 q 0.94575,3.65261 3.68524,5.31585 2.73945,1.63063 7.59875,1.63063 10.07729,0 10.07729,-6.13117 0,-1.95677 -1.17405,-3.22865 -1.14141,-1.2719 -3.26127,-2.11983 -2.08717,-0.84792 -8.05533,-2.0546 -5.15278,-1.20667 -7.17476,-1.92414 -2.02196,-0.7501 -3.652603,-1.72847 -1.630628,-1.01099 -2.77208,-2.41334 -1.141463,-1.40233 -1.793726,-3.29386 -0.619633,-1.89154 -0.619633,-4.33749 0,-6.22901 4.663621,-9.52289 4.696201,-3.3265 13.632091,-3.3265 8.5445,0 12.81678,2.67424 4.30484,2.67424 5.54413,8.83803 l -9.32722,1.27189 q -0.71748,-2.96775 -2.93514,-4.46793 -2.18505,-1.50019 -6.29424,-1.50019 -8.7402,0 -8.7402,5.47893 0,1.79369 0.91316,2.93514 0.94577,1.14145 2.7721,1.95677 1.82632,0.78269 7.40304,1.98936 6.62039,1.40235 9.45767,2.60901 2.86993,1.17406 4.53318,2.77208 1.66326,1.5654 2.54379,3.78307 0.88056,2.18505 0.88056,5.05495 z m 39.83604,13.24074 -16.502,-21.10037 -5.67461,4.33746 v 16.76291 h -9.62072 v -45.95122 h 9.62072 v 20.83949 l 20.70905,-20.83949 h 11.21875 l -19.63285,19.43714 21.23085,26.51408 z"
         id="text1"
         aria-label="SK" /></g><g
       id="rect23"
       style="display:inline"><rect
         style="display:inline;fill:url(#linearGradient23);fill-opacity:0.834379;stroke:none;stroke-width:4.99999;stroke-linecap:square;stroke-dasharray:none;stroke-opacity:1"
         id="rect20"
         width="30.128031"
         height="11.286353"
         x="177.19191"
         y="53.347572" /><path
         style="color:#000000;display:inline;fill:url(#linearGradient25);stroke-linecap:square;stroke-linejoin:bevel;-inkscape-stroke:none"
         d="m 174.15254,15.119046 40.91592,41.955358 H 174.814 Z"
         id="path25" /><g
         id="g27"><path
           id="rect27"
           style="display:inline;fill:#0a6db5;fill-opacity:0.459222;stroke-width:4.99999;stroke-linecap:square;stroke-linejoin:bevel"
           d="m 182.94047,23.245534 33.07293,33.82887 -33.07293,-0.09449 z"
           sodipodi:nodetypes="cccc" /><path
           id="path27"
           style="display:inline;fill:#1882cf;fill-opacity:0.459222;stroke-width:4.99999;stroke-linecap:square;stroke-linejoin:bevel"
           d="m 175.28645,49.514879 34.91556,0.188989 4.67746,7.087054 -39.68751,-0.472471 z"
           sodipodi:nodetypes="ccccc" /></g><path
         style="color:#000000;display:inline;fill:url(#linearGradient27);stroke-linecap:square;stroke-linejoin:bevel;-inkscape-stroke:none"
         d="m 175.94141,13.373047 -4.28907,1.785156 6.5e-4,44.600911 c 0,0 29.8634,-0.184895 43.41537,-0.184895 l 1.78906,-4.246094 z m 1.4286,7.056744 34.22551,34.144428 h -34.32013 z"
         id="path26"
         sodipodi:nodetypes="cccccccccc" /></g></g></svg>
