<?xml version="1.0" encoding="UTF-8" standalone="no"?>
<!-- Created with Inkscape (http://www.inkscape.org/) -->

<svg
   width="256mm"
   height="256mm"
   viewBox="0 0 256 256"
   version="1.1"
   id="svg1"
   inkscape:version="1.3.2 (091e20ef0f, 2023-11-25)"
   xml:space="preserve"
   sodipodi:docname="image-x-nikon-nrw.svg"
   xmlns:inkscape="http://www.inkscape.org/namespaces/inkscape"
   xmlns:sodipodi="http://sodipodi.sourceforge.net/DTD/sodipodi-0.dtd"
   xmlns:xlink="http://www.w3.org/1999/xlink"
   xmlns="http://www.w3.org/2000/svg"
   xmlns:svg="http://www.w3.org/2000/svg"
   xmlns:rdf="http://www.w3.org/1999/02/22-rdf-syntax-ns#"
   xmlns:cc="http://creativecommons.org/ns#"
   xmlns:dc="http://purl.org/dc/elements/1.1/"><defs
     id="defs1"><linearGradient
       id="linearGradient26"
       inkscape:collect="always"><stop
         style="stop-color:#7b91c4;stop-opacity:1;"
         offset="0"
         id="stop26" /><stop
         style="stop-color:#5c5e91;stop-opacity:1"
         offset="1"
         id="stop27" /></linearGradient><linearGradient
       id="linearGradient24"
       inkscape:collect="always"><stop
         style="stop-color:#c7fafe;stop-opacity:1;"
         offset="0"
         id="stop24" /><stop
         style="stop-color:#9acdff;stop-opacity:1"
         offset="1"
         id="stop25" /></linearGradient><linearGradient
       id="linearGradient22"
       inkscape:collect="always"><stop
         style="stop-color:#adaeae;stop-opacity:0.8253752;"
         offset="0"
         id="stop22" /><stop
         style="stop-color:#8ac5fe;stop-opacity:0.83628923;"
         offset="1"
         id="stop23" /></linearGradient><linearGradient
       id="linearGradient18"
       inkscape:collect="always"><stop
         style="stop-color:#9797ff;stop-opacity:1;"
         offset="0"
         id="stop18" /><stop
         style="stop-color:#ccccff;stop-opacity:1;"
         offset="0.30000001"
         id="stop20" /><stop
         style="stop-color:#ccccff;stop-opacity:1;"
         offset="1"
         id="stop19" /></linearGradient><linearGradient
       id="linearGradient16"
       inkscape:collect="always"><stop
         style="stop-color:#cdcdcd;stop-opacity:0.17462483;"
         offset="0"
         id="stop16" /><stop
         style="stop-color:#cdcdcd;stop-opacity:1;"
         offset="1"
         id="stop17" /></linearGradient><linearGradient
       id="linearGradient12"
       inkscape:collect="always"><stop
         style="stop-color:#fdfeff;stop-opacity:1;"
         offset="0"
         id="stop13" /><stop
         style="stop-color:#99ccff;stop-opacity:1;"
         offset="1"
         id="stop14" /></linearGradient><linearGradient
       id="linearGradient9"
       inkscape:collect="always"><stop
         style="stop-color:#97c9fc;stop-opacity:1;"
         offset="0"
         id="stop9" /><stop
         style="stop-color:#7788bb;stop-opacity:1"
         offset="0.25"
         id="stop12" /><stop
         style="stop-color:#57578a;stop-opacity:1"
         offset="0.5"
         id="stop11" /><stop
         style="stop-color:#444482;stop-opacity:1;"
         offset="1"
         id="stop10" /></linearGradient><linearGradient
       inkscape:collect="always"
       xlink:href="#linearGradient9"
       id="linearGradient10"
       x1="31.622168"
       y1="100.24049"
       x2="221.19499"
       y2="240.28973"
       gradientUnits="userSpaceOnUse" /><linearGradient
       inkscape:collect="always"
       xlink:href="#linearGradient12"
       id="linearGradient14"
       x1="73.583481"
       y1="62.020954"
       x2="207.02971"
       y2="229.59895"
       gradientUnits="userSpaceOnUse" /><linearGradient
       inkscape:collect="always"
       xlink:href="#linearGradient16"
       id="linearGradient17"
       x1="57.531055"
       y1="26.420616"
       x2="147.13231"
       y2="144.34076"
       gradientUnits="userSpaceOnUse" /><linearGradient
       inkscape:collect="always"
       xlink:href="#linearGradient18"
       id="linearGradient19"
       x1="209.82518"
       y1="58.53635"
       x2="210.58252"
       y2="194.57654"
       gradientUnits="userSpaceOnUse" /><linearGradient
       inkscape:collect="always"
       xlink:href="#linearGradient22"
       id="linearGradient23"
       x1="177.19191"
       y1="58.990749"
       x2="207.31994"
       y2="58.990749"
       gradientUnits="userSpaceOnUse" /><linearGradient
       inkscape:collect="always"
       xlink:href="#linearGradient24"
       id="linearGradient25"
       x1="176.32031"
       y1="20.126524"
       x2="176.32031"
       y2="56.695721"
       gradientUnits="userSpaceOnUse" /><linearGradient
       inkscape:collect="always"
       xlink:href="#linearGradient26"
       id="linearGradient27"
       x1="172.59729"
       y1="13.51158"
       x2="210.54449"
       y2="51.28627"
       gradientUnits="userSpaceOnUse" /><linearGradient
       id="gradient01"
       gradientUnits="userSpaceOnUse"
       x1="481.7688"
       y1="-363.7171"
       x2="488.8338"
       y2="-365.80579"
       gradientTransform="matrix(77.3572,0,0,77.3572,-37500.656,28577.68)"><stop
         offset="0"
         stop-color="#FFE419"
         id="stop1-6-8" /><stop
         offset="0.34"
         stop-color="#FFFFFF"
         id="stop2-7-0" /><stop
         offset="0.66"
         stop-color="#FFFFFF"
         id="stop3-5-4" /><stop
         offset="1"
         stop-color="#FFE419"
         id="stop4-3-7" /></linearGradient><linearGradient
       id="gradient02"
       gradientUnits="userSpaceOnUse"
       x1="482.3754"
       y1="-364.36469"
       x2="489.1586"
       y2="-366.57001"
       gradientTransform="matrix(77.3572,0,0,77.3572,-37500.656,28577.68)"><stop
         offset="0"
         stop-color="#FFE419"
         id="stop5-56-6" /><stop
         offset="0.355"
         stop-color="#FFFFFF"
         id="stop6-2-8" /><stop
         offset="0.645"
         stop-color="#FFFFFF"
         id="stop7-9-9" /><stop
         offset="1"
         stop-color="#FFE419"
         id="stop8-1-0" /></linearGradient><linearGradient
       id="gradient03"
       gradientUnits="userSpaceOnUse"
       x1="482.9458"
       y1="-364.9744"
       x2="489.46939"
       y2="-367.2999"
       gradientTransform="matrix(77.3572,0,0,77.3572,-37500.656,28577.68)"><stop
         offset="0"
         stop-color="#FFE419"
         id="stop9-2-6" /><stop
         offset="0.37"
         stop-color="#FFFFFF"
         id="stop10-7-8" /><stop
         offset="0.63"
         stop-color="#FFFFFF"
         id="stop11-09" /><stop
         offset="1"
         stop-color="#FFE419"
         id="stop12-3" /></linearGradient><linearGradient
       id="gradient04"
       gradientUnits="userSpaceOnUse"
       x1="483.48621"
       y1="-365.55179"
       x2="489.76541"
       y2="-368"
       gradientTransform="matrix(77.3572,0,0,77.3572,-37500.656,28577.68)"><stop
         offset="0"
         stop-color="#FFE419"
         id="stop13-6" /><stop
         offset="0.385"
         stop-color="#FFFFFF"
         id="stop14-0" /><stop
         offset="0.615"
         stop-color="#FFFFFF"
         id="stop15-6" /><stop
         offset="1"
         stop-color="#FFE419"
         id="stop16-2" /></linearGradient><linearGradient
       id="gradient05"
       gradientUnits="userSpaceOnUse"
       x1="484.00449"
       y1="-366.10291"
       x2="490.05341"
       y2="-368.6767"
       gradientTransform="matrix(77.3572,0,0,77.3572,-37500.656,28577.68)"><stop
         offset="0"
         stop-color="#FFE419"
         id="stop17-6" /><stop
         offset="0.4"
         stop-color="#FFFFFF"
         id="stop18-1" /><stop
         offset="0.6"
         stop-color="#FFFFFF"
         id="stop19-8" /><stop
         offset="1"
         stop-color="#FFE419"
         id="stop20-7" /></linearGradient><linearGradient
       id="gradient06"
       gradientUnits="userSpaceOnUse"
       x1="484.50031"
       y1="-366.62949"
       x2="490.33331"
       y2="-369.3334"
       gradientTransform="matrix(77.3572,0,0,77.3572,-37500.656,28577.68)"><stop
         offset="0"
         stop-color="#FFE626"
         id="stop21-9" /><stop
         offset="0.415"
         stop-color="#FFFFFF"
         id="stop22-2" /><stop
         offset="0.585"
         stop-color="#FFFFFF"
         id="stop23-0" /><stop
         offset="1"
         stop-color="#FFE419"
         id="stop24-2" /></linearGradient><linearGradient
       id="gradient07"
       gradientUnits="userSpaceOnUse"
       x1="484.97379"
       y1="-367.13391"
       x2="490.60529"
       y2="-369.9736"
       gradientTransform="matrix(77.3572,0,0,77.3572,-37500.656,28577.68)"><stop
         offset="0"
         stop-color="#FFE733"
         id="stop25-3-7" /><stop
         offset="0.43"
         stop-color="#FFFFFF"
         id="stop26-7-9" /><stop
         offset="0.57"
         stop-color="#FFFFFF"
         id="stop27-5" /><stop
         offset="1"
         stop-color="#FFE419"
         id="stop28-9" /></linearGradient><linearGradient
       id="gradient08"
       gradientUnits="userSpaceOnUse"
       x1="485.4353"
       y1="-367.6225"
       x2="490.87299"
       y2="-370.60199"
       gradientTransform="matrix(77.3572,0,0,77.3572,-37500.656,28577.68)"><stop
         offset="0"
         stop-color="#FFE940"
         id="stop29-2" /><stop
         offset="0.445"
         stop-color="#FFFFFF"
         id="stop30-2-0" /><stop
         offset="0.555"
         stop-color="#FFFFFF"
         id="stop31-8" /><stop
         offset="1"
         stop-color="#FFE419"
         id="stop32-9" /></linearGradient><linearGradient
       id="gradient09"
       gradientUnits="userSpaceOnUse"
       x1="485.8909"
       y1="-368.1044"
       x2="491.13031"
       y2="-371.22159"
       gradientTransform="matrix(77.3572,0,0,77.3572,-37500.656,28577.68)"><stop
         offset="0"
         stop-color="#FFEA4C"
         id="stop33-7" /><stop
         offset="0.46"
         stop-color="#FFFFFF"
         id="stop34-3" /><stop
         offset="0.54"
         stop-color="#FFFFFF"
         id="stop35" /><stop
         offset="1"
         stop-color="#FFE419"
         id="stop36" /></linearGradient><linearGradient
       id="gradient10"
       gradientUnits="userSpaceOnUse"
       x1="486.3512"
       y1="-368.58911"
       x2="491.39691"
       y2="-371.84698"
       gradientTransform="matrix(77.3572,0,0,77.3572,-37500.656,28577.68)"><stop
         offset="0"
         stop-color="#FFEC59"
         id="stop37" /><stop
         offset="0.475"
         stop-color="#FFFFFF"
         id="stop38" /><stop
         offset="0.525"
         stop-color="#FFFFFF"
         id="stop39" /><stop
         offset="1"
         stop-color="#FFE419"
         id="stop40" /></linearGradient><linearGradient
       gradientTransform="matrix(0,-0.0445,-0.0406,0,51.1,61.1)"
       gradientUnits="userSpaceOnUse"
       id="gradient0"
       spreadMethod="pad"
       x1="-819.20001"
       x2="819.20001"><stop
         offset="0.0"
         stop-color="#cc9900"
         id="stop69-8" /><stop
         offset="0.5019607843137255"
         stop-color="#ffcc66"
         id="stop71-9" /><stop
         offset="0.7803921568627451"
         stop-color="#ffff99"
         id="stop73-7" /><stop
         offset="1.0"
         stop-color="#ffff99"
         id="stop75" /></linearGradient><linearGradient
       gradientTransform="matrix(0,0.0431,0.0392,0,51.1,61.1)"
       gradientUnits="userSpaceOnUse"
       id="gradient1"
       spreadMethod="pad"
       x1="-819.20001"
       x2="819.20001"><stop
         offset="0.0"
         stop-color="#ffffff"
         id="stop78" /><stop
         offset="1.0"
         stop-color="#ffcc66"
         id="stop80" /></linearGradient><linearGradient
       gradientTransform="matrix(0,-0.0347,-0.05,0,61.95,69.15)"
       gradientUnits="userSpaceOnUse"
       id="gradient2"
       spreadMethod="pad"
       x1="-819.20001"
       x2="819.20001"><stop
         offset="0.0"
         stop-color="#ffcc66"
         id="stop83-3" /><stop
         offset="0.596078431372549"
         stop-color="#ffff99"
         id="stop85-6" /><stop
         offset="1.0"
         stop-color="#ffffff"
         id="stop87-1" /></linearGradient><linearGradient
       gradientTransform="matrix(0,-0.0222,-0.0105,0,92.9,61.1)"
       gradientUnits="userSpaceOnUse"
       id="gradient3"
       spreadMethod="pad"
       x1="-819.20001"
       x2="819.20001"><stop
         offset="0.0"
         stop-color="#ffff99"
         id="stop90-2" /><stop
         offset="1.0"
         stop-color="#ffffff"
         id="stop92-9" /></linearGradient><linearGradient
       gradientTransform="matrix(0,-0.0106,-0.0106,0,46.3,45.15)"
       gradientUnits="userSpaceOnUse"
       id="gradient4"
       spreadMethod="pad"
       x1="-819.20001"
       x2="819.20001"><stop
         offset="0.0"
         stop-color="#ffcc66"
         id="stop95-3" /><stop
         offset="1.0"
         stop-color="#ffff99"
         id="stop97-1" /></linearGradient><linearGradient
       gradientTransform="matrix(0,0.0433,0.0365,0,67.25,35.5)"
       gradientUnits="userSpaceOnUse"
       id="gradient5"
       spreadMethod="pad"
       x1="-819.20001"
       x2="819.20001"><stop
         offset="0.0"
         stop-color="#999999"
         id="stop100-9" /><stop
         offset="1.0"
         stop-color="#666666"
         id="stop102-4" /></linearGradient><linearGradient
       gradientTransform="matrix(0,0.0407,0.0344,0,67.35,35.5)"
       gradientUnits="userSpaceOnUse"
       id="gradient6"
       spreadMethod="pad"
       x1="-819.20001"
       x2="819.20001"><stop
         offset="0.0"
         stop-color="#ffffff"
         id="stop105-7" /><stop
         offset="1.0"
         stop-color="#dddddd"
         id="stop107-8" /></linearGradient><linearGradient
       gradientTransform="matrix(0.0148,0.0148,0.0147,-0.0147,65.2,32.45)"
       gradientUnits="userSpaceOnUse"
       id="gradient7"
       spreadMethod="pad"
       x1="-819.20001"
       x2="819.20001"><stop
         offset="0.0"
         stop-color="#0099ff"
         id="stop110-4" /><stop
         offset="1.0"
         stop-color="#99ccff"
         id="stop112" /></linearGradient><linearGradient
       gradientTransform="matrix(0,0.0194,0.0152,0,83.05,53.05)"
       gradientUnits="userSpaceOnUse"
       id="gradient8"
       spreadMethod="pad"
       x1="-819.20001"
       x2="819.20001"><stop
         offset="0.0"
         stop-color="#cccccc"
         id="stop115" /><stop
         offset="1.0"
         stop-color="#ccccff"
         id="stop117-5" /></linearGradient><linearGradient
       gradientTransform="matrix(0,0.0213,0.0193,0,55,51.55)"
       gradientUnits="userSpaceOnUse"
       id="gradient9"
       spreadMethod="pad"
       x1="-819.20001"
       x2="819.20001"><stop
         offset="0.0"
         stop-color="#cccccc"
         id="stop120-0" /><stop
         offset="1.0"
         stop-color="#ccccff"
         id="stop122-3" /></linearGradient><linearGradient
       gradientTransform="matrix(0,0.0168,0.0269,0,64.9,20.2)"
       gradientUnits="userSpaceOnUse"
       id="gradient10-6"
       spreadMethod="pad"
       x1="-819.20001"
       x2="819.20001"><stop
         offset="0.0"
         stop-color="#999999"
         id="stop125-1" /><stop
         offset="1.0"
         stop-color="#cccccc"
         id="stop127" /></linearGradient><radialGradient
       cx="0"
       cy="0"
       gradientTransform="matrix(0.0202,0,0,0.0202,63.1,29.55)"
       gradientUnits="userSpaceOnUse"
       id="gradient11"
       r="819.20001"
       spreadMethod="pad"><stop
         offset="0.0"
         stop-color="#ffffff"
         id="stop130" /><stop
         offset="0.49411764705882355"
         stop-color="#ffffff"
         id="stop132-0" /><stop
         offset="0.7647058823529411"
         stop-color="#ccffff"
         id="stop134-6" /><stop
         offset="1.0"
         stop-color="#ccffff"
         id="stop136-3" /></radialGradient><radialGradient
       cx="0"
       cy="0"
       gradientTransform="matrix(0.0102,0,0,0.0101,62.25,26.25)"
       gradientUnits="userSpaceOnUse"
       id="gradient12"
       r="819.20001"
       spreadMethod="pad"><stop
         offset="0.0"
         stop-color="#ffffff"
         id="stop139" /><stop
         offset="0.48627450980392156"
         stop-color="#ff9980"
         id="stop141" /><stop
         offset="1.0"
         stop-color="#ff3300"
         id="stop143" /></radialGradient><linearGradient
       gradientTransform="matrix(0,0.0165,0.0214,0,74.25,57.5)"
       gradientUnits="userSpaceOnUse"
       id="gradient13"
       spreadMethod="pad"
       x1="-819.20001"
       x2="819.20001"><stop
         offset="0.0"
         stop-color="#ccffff"
         id="stop146-2" /><stop
         offset="1.0"
         stop-color="#99ccff"
         id="stop148-0" /></linearGradient><linearGradient
       gradientTransform="matrix(0,0.0331,0.0481,0,62.05,68.95)"
       gradientUnits="userSpaceOnUse"
       id="gradient14"
       spreadMethod="pad"
       x1="-819.20001"
       x2="819.20001"><stop
         offset="0.0"
         stop-color="#ffffff"
         id="stop151-6" /><stop
         offset="1.0"
         stop-color="#ffffff"
         id="stop153-1" /></linearGradient><linearGradient
       gradientTransform="matrix(-0.014,-0.014,-0.0162,0.0162,32.75,6.3)"
       gradientUnits="userSpaceOnUse"
       id="gradient15"
       spreadMethod="pad"
       x1="-819.20001"
       x2="819.20001"><stop
         offset="0.0"
         stop-color="#dddddd"
         id="stop156-5" /><stop
         offset="1.0"
         stop-color="#ffffff"
         id="stop158-5" /></linearGradient><linearGradient
       gradientTransform="matrix(0,-0.0283,-0.0112,0,10.6,30.75)"
       gradientUnits="userSpaceOnUse"
       id="gradient16"
       spreadMethod="pad"
       x1="-819.20001"
       x2="819.20001"><stop
         offset="0.0"
         stop-color="#cccccc"
         id="stop161" /><stop
         offset="1.0"
         stop-color="#ffffff"
         id="stop163" /></linearGradient><linearGradient
       gradientTransform="matrix(0,-0.0016,-0.0058,0,18.35,8.8)"
       gradientUnits="userSpaceOnUse"
       id="gradient17"
       spreadMethod="pad"
       x1="-819.20001"
       x2="819.20001"><stop
         offset="0.0"
         stop-color="#dddddd"
         id="stop166" /><stop
         offset="1.0"
         stop-color="#ffffff"
         id="stop168" /></linearGradient><linearGradient
       gradientTransform="matrix(0.0055,0,0,-0.0224,21.1,35.4)"
       gradientUnits="userSpaceOnUse"
       id="gradient18"
       spreadMethod="pad"
       x1="-819.20001"
       x2="819.20001"><stop
         offset="0.0"
         stop-color="#999999"
         id="stop171" /><stop
         offset="1.0"
         stop-color="#ffffff"
         id="stop173" /></linearGradient><linearGradient
       gradientTransform="matrix(0,-0.0118,-0.0102,0,42.5,28.85)"
       gradientUnits="userSpaceOnUse"
       id="gradient19"
       spreadMethod="pad"
       x1="-819.20001"
       x2="819.20001"><stop
         offset="0.0"
         stop-color="#666666"
         id="stop176" /><stop
         offset="1.0"
         stop-color="#999999"
         id="stop178" /></linearGradient><linearGradient
       gradientTransform="matrix(0,-0.0289,-0.0246,0,38.85,28.45)"
       gradientUnits="userSpaceOnUse"
       id="gradient20"
       spreadMethod="pad"
       x1="-819.20001"
       x2="819.20001"><stop
         offset="0.0"
         stop-color="#ffffff"
         id="stop181" /><stop
         offset="1.0"
         stop-color="#999999"
         id="stop183" /></linearGradient><linearGradient
       gradientTransform="matrix(0,0.0191,0.0165,0,41.45,29)"
       gradientUnits="userSpaceOnUse"
       id="gradient21"
       spreadMethod="pad"
       x1="-819.20001"
       x2="819.20001"><stop
         offset="0.0"
         stop-color="#ffffff"
         id="stop186" /><stop
         offset="1.0"
         stop-color="#999999"
         id="stop188-4" /></linearGradient><linearGradient
       gradientTransform="matrix(0,0.0033,0.0028,0,42.8,28.95)"
       gradientUnits="userSpaceOnUse"
       id="gradient22"
       spreadMethod="pad"
       x1="-819.20001"
       x2="819.20001"><stop
         offset="0.0"
         stop-color="#0099ff"
         id="stop191" /><stop
         offset="1.0"
         stop-color="#003399"
         id="stop193" /></linearGradient></defs><sodipodi:namedview
     id="base"
     pagecolor="#ffffff"
     bordercolor="#000000"
     borderopacity="0.3"
     inkscape:pageopacity="0.0"
     inkscape:pageshadow="2"
     inkscape:zoom="0.98994949"
     inkscape:cx="505.07627"
     inkscape:cy="476.792"
     inkscape:document-units="mm"
     inkscape:showpageshadow="2"
     inkscape:pagecheckerboard="0"
     inkscape:deskcolor="#d1d1d1"
     inkscape:current-layer="g3"
     showguides="true"><sodipodi:guide
       position="92.475254,162.18839"
       orientation="0,-1"
       id="guide12"
       inkscape:locked="false" /><sodipodi:guide
       position="212.80059,201.33519"
       orientation="0,-1"
       id="guide27"
       inkscape:locked="false" /><sodipodi:guide
       position="177.33333,251.7905"
       orientation="1,0"
       id="guide28"
       inkscape:locked="false" /></sodipodi:namedview><metadata
     id="metadata1"><rdf:RDF><cc:Work
         rdf:about=""><dc:format>image/svg+xml</dc:format><dc:type
           rdf:resource="http://purl.org/dc/dcmitype/StillImage" /><cc:license
           rdf:resource="http://creativecommons.org/publicdomain/zero/1.0/" /></cc:Work><cc:License
         rdf:about="http://creativecommons.org/publicdomain/zero/1.0/"><cc:permits
           rdf:resource="http://creativecommons.org/ns#Reproduction" /><cc:permits
           rdf:resource="http://creativecommons.org/ns#Distribution" /><cc:permits
           rdf:resource="http://creativecommons.org/ns#DerivativeWorks" /></cc:License></rdf:RDF></metadata><g
     id="g28"
     transform="matrix(1.0481261,0,0,1.0481261,-6.4074194,-6.1384097)"><g
       id="g7"
       inkscape:label="shadow"
       style="display:inline"><path
         id="rect1"
         style="fill:#000000;fill-opacity:0.0602258;stroke-width:3.72791;stroke-linecap:square"
         d="M 48.380952,13.418155 H 179.16071 l 43.46726,43.278274 V 244.17261 H 48.380952 Z"
         sodipodi:nodetypes="cccccc" /><path
         id="path1"
         style="fill:#000000;fill-opacity:0.0752823;stroke-width:3.72791;stroke-linecap:square"
         d="m 47.563027,12.60023 129.443423,-0.133635 43.46726,43.278274 1.33635,187.609821 H 47.563027 Z"
         sodipodi:nodetypes="cccccc" /><path
         id="path2"
         style="fill:#000000;fill-opacity:0.0602258;stroke-width:3.72791;stroke-linecap:square"
         d="m 46.493949,11.793049 128.975701,-0.868626 43.46726,43.278274 1.80407,188.344813 H 46.493949 Z"
         sodipodi:nodetypes="cccccc" /><path
         id="path3"
         style="fill:#000000;fill-opacity:0.0602258;stroke-width:3.72791;stroke-linecap:square"
         d="m 45.964782,12.33296 129.777508,0.467722 43.46726,42.209196 1.00226,187.008462 H 45.964782 Z"
         sodipodi:nodetypes="cccccc" /><path
         id="path4"
         style="fill:#000000;fill-opacity:0.0602258;stroke-width:3.72791;stroke-linecap:square"
         d="m 45.435615,12.338332 129.443415,0.935443 43.46726,41.674657 1.33635,186.540738 H 45.435615 Z"
         sodipodi:nodetypes="cccccc" /><path
         id="path5"
         style="fill:#000000;fill-opacity:0.0602258;stroke-width:3.72791;stroke-linecap:square"
         d="M 44.906448,12.744609 174.8844,13.412783 218.35166,54.151996 219.15347,240.96 H 44.906448 Z"
         sodipodi:nodetypes="cccccc" /><path
         id="path6"
         style="fill:#000000;fill-opacity:0.0602258;stroke-width:3.72791;stroke-linecap:square"
         d="m 44.377281,15.021772 129.911129,0.534539 43.46726,37.932883 0.86863,186.941636 H 44.377281 Z"
         sodipodi:nodetypes="cccccc" /><path
         id="path7"
         style="fill:#000000;fill-opacity:0.0602258;stroke-width:3.72791;stroke-linecap:square"
         d="m 43.848114,13.423527 129.710676,1.069078 43.46726,39.001961 1.06908,186.407094 H 43.848114 Z"
         sodipodi:nodetypes="cccccc" /></g><g
       id="g14"
       style="display:inline"><path
         style="color:#000000;fill:url(#linearGradient14);stroke-linecap:square;-inkscape-stroke:none"
         d="M 46.153822,14.648159 H 173.78301 l 40.90293,41.140298 V 236.0795 H 46.554726 Z"
         id="path15"
         inkscape:label="headbgground" /><path
         id="rect16"
         style="display:inline;fill:url(#linearGradient17);fill-opacity:1;stroke-width:4.99999;stroke-linecap:square"
         d="M 45.435818,14.165285 H 176.70315 l 0.20408,8.220982 H 53.433709 V 235.97952 h -7.997891 z"
         sodipodi:nodetypes="ccccccc" /><path
         id="rect17"
         style="fill:url(#linearGradient19);stroke-width:4.99999;stroke-linecap:square"
         d="M 47.058037,227.91965 H 207.27506 l -0.0668,-168.246312 7.31651,0.0667 0.0668,168.546562 -7.08265,0.0331 v 7.34846 H 47.058037 Z"
         sodipodi:nodetypes="ccccccccc" /><path
         style="color:#000000;fill:url(#linearGradient10);stroke-linecap:square;-inkscape-stroke:none"
         d="M 43.648437,12.148438 44.058594,238.58008 H 217.18555 V 54.757812 L 174.82227,12.148438 Z m 4.608862,4.999999 H 172.74414 l 39.44141,39.671875 V 233.58008 H 48.775405 Z"
         id="path16"
         inkscape:label="headframe"
         sodipodi:nodetypes="cccccccccccc" /></g><g
       id="g3"
       style="display:inline"
       transform="matrix(1.0616249,0,0,1.0616249,-13.290601,-16.58485)"><g
         id="g2"
         transform="matrix(0.33105248,0,0,0.33105248,68.352464,43.669089)"
         style="display:inline"><path
           id="rect40"
           style="fill:#ffe100"
           d="M 0,0 370.84301,0 400,30.269482 400,400 H 0 Z"
           sodipodi:nodetypes="cccccc" /><path
           fill="url(#gradient01)"
           d="M 303.055,283.241 C 214.119,298.937 125.067,319.808 36.282,346.052 24.138,349.643 12.042,353.323 0,357.088 v 31.352 c 15.009,-4.127 30.018,-8.408 45.018,-12.84 88.779,-26.253 174.865,-57.163 258.037,-92.359 z"
           id="path40"
           style="fill:url(#gradient01)" /><path
           fill="url(#gradient02)"
           d="M 328.305,224.411 C 242.943,242.569 157.522,265.399 72.394,293.077 48.045,300.992 23.91,309.243 0,317.822 v 26.398 c 27.002,-7.795 53.987,-16.072 80.944,-24.836 85.125,-27.678 167.645,-59.457 247.361,-94.973 z"
           id="path41"
           style="fill:url(#gradient02)" /><path
           fill="url(#gradient03)"
           d="M 352.505,168.243 C 270.389,188.525 188.28,213.167 106.512,242.318 70.501,255.156 34.991,268.711 0,282.959 V 304.5 c 38.423,-11.694 76.809,-24.36 115.12,-38.015 81.768,-29.154 160.953,-62.008 237.385,-98.242 z"
           id="path42"
           style="fill:url(#gradient03)" /><path
           fill="url(#gradient04)"
           d="M 375.6,114.373 C 296.563,136.792 217.58,163.264 138.981,193.906 91.72,212.332 45.383,231.964 0,252.73 v 15.81 c 49.29,-15.909 98.515,-33.415 147.6,-52.548 78.59,-30.645 154.657,-64.624 228,-101.619 z"
           id="path43"
           style="fill:url(#gradient04)" /><path
           fill="url(#gradient05)"
           d="M 397.862,62.404 C 321.726,86.975 245.69,115.302 170.067,147.48 111.877,172.242 55.165,198.754 0,226.894 v 9.334 C 59.685,215.679 119.273,192.809 178.613,167.563 254.23,135.384 327.37,100.228 397.862,62.404 Z"
           id="path44"
           style="fill:url(#gradient05)" /><path
           fill="url(#gradient06)"
           d="M 400,23.069 V 19.19 C 333.176,44.12 266.48,71.94 200.134,102.691 131.206,134.646 64.45,168.936 0,205.332 v 2.218 C 69.723,181.802 139.323,152.918 208.545,120.834 274.383,90.312 338.232,57.655 400,23.069 Z"
           id="path45"
           style="fill:url(#gradient06)" /><path
           fill="url(#gradient07)"
           d="M 25.517,172.214 C 96.357,143.225 167.058,111.035 237.348,75.597 285.268,51.431 332.101,26.198 377.795,0 H 353.914 C 312.219,18.654 270.607,38.428 229.143,59.334 158.864,94.773 90.939,132.491 25.517,172.214 Z"
           id="path46"
           style="fill:url(#gradient07)" /><path
           fill="url(#gradient08)"
           d="M 60.879,134.162 C 129.22,102.901 197.438,68.708 265.257,31.554 284.179,21.185 302.921,10.665 321.49,0 H 289.036 C 278.468,5.635 267.905,11.346 257.354,17.13 189.537,54.286 124.001,93.382 60.879,134.162 Z"
           id="path47"
           style="fill:url(#gradient08)" /><path
           fill="url(#gradient09)"
           d="M 272.151,0 H 244.268 C 193.448,31.192 143.995,63.353 95.987,96.363 154.851,66.382 213.641,34.264 272.151,0 Z"
           id="path48"
           style="fill:url(#gradient09)" /><path
           fill="url(#gradient10)"
           d="M 231.041,0 H 213.462 C 185.582,19.273 158.155,38.793 131.19,58.539 164.504,39.694 197.803,20.182 231.041,0 Z"
           id="path49"
           style="fill:url(#gradient10)" /><path
           fill="#150301"
           d="m 144.981,385.399 21.598,-97.315 26.617,0.003 -11.603,51.759 21.499,-25.953 h 29.761 l -26.706,32.446 11.01,39.061 H 190.6 l -10.976,-37.009 -8.693,37.009 h -25.95 z M 48.872,336.484 67.626,385.398 H 93.135 L 115.118,288.083 88.845,288.086 77.724,337.587 59.32,288.055 H 32.683 l -21.718,97.344 h 26.788 c 3.041,-15.597 7.111,-32.07 11.119,-48.915 z m 83.363,48.915 15.935,-71.467 h -26.144 l -15.932,71.467 z m -8.869,-87.124 c 0,2.243 0.527,10.172 14.835,10.172 11.885,0 16.468,-7.616 16.468,-13.302 0,-3.828 -3.129,-10.471 -14.841,-10.471 -10.788,0.001 -16.462,7.214 -16.462,13.601 z m 251.453,14.693 c -11.178,-3.329 -25.03,2.194 -31.867,11.657 0.664,-2.933 1.374,-6.344 2.177,-10.272 H 318.6 l -15.525,71.046 h 26.401 l 8.807,-40.296 c 1.619,-7.416 7.582,-10.585 12.863,-9.22 2.277,0.616 5.409,2.337 4.372,8.516 l -8.961,40.999 h 26.09 l 11.959,-54.717 c 2.534,-12.059 -7.37,-16.989 -9.787,-17.713 z m -88.773,65.986 c 11.461,-9.372 17.129,-25.218 16.947,-40.127 -0.194,-14.33 -12.33,-27.923 -33.443,-27.923 -40.247,0 -46.101,31.371 -47.264,37.097 -2.947,14.484 0.331,33.284 19.236,38.266 12.474,3.293 31.98,2.936 44.524,-7.313 z m -29.525,-41.421 c 1.892,-5.213 7.043,-6.367 9.371,-6.39 5.769,-0.049 7.348,3.372 6.846,6.595 -1.388,8.935 -4.483,20.273 -5.626,23.887 -0.014,0.048 -0.023,0.094 -0.037,0.134 -1.257,3.947 -4.976,6.245 -9.354,6.245 -4.432,0 -7.111,-2.787 -6.729,-6.339 0.65,-5.996 4.446,-21.153 5.529,-24.132 z"
           id="path50" /></g><path
         d="m 94.572231,230.27726 -17.13825,-30.28502 q 0.50243,4.41019 0.50243,7.0898 v 23.19522 h -7.31307 v -39.32864 h 9.4065 l 17.38948,30.53625 q -0.50242,-4.21479 -0.50242,-7.67594 v -22.86031 h 7.313069 v 39.32864 z m 45.210379,0 -9.12735,-14.93312 h -9.65774 v 14.93312 h -8.23417 v -39.32864 h 19.65039 q 7.03392,0 10.85795,3.04245 3.82399,3.01457 3.82399,8.6808 0,4.13101 -2.34463,7.14559 -2.34466,2.98661 -6.33613,3.93563 l 10.63464,16.52417 z m -0.97693,-27.27044 q 0,-5.66623 -7.25724,-5.66623 h -10.55092 v 11.61157 h 10.77423 q 3.46113,0 5.24753,-1.56308 1.7864,-1.56313 1.7864,-4.38226 z m 54.97975,27.27044 h -9.76937 l -5.33129,-22.74863 q -0.97693,-4.01939 -1.64683,-8.40165 -0.66991,3.65652 -1.08858,5.58247 -0.41867,1.89805 -5.94535,25.56781 h -9.76937 L 150.1024,190.94862 h 8.34585 l 5.69414,25.40033 1.28398,6.14073 q 0.78153,-3.87982 1.50727,-7.39678 0.75362,-3.54488 5.58248,-24.14428 h 9.2111 l 4.96845,20.93435 q 0.58615,2.34463 1.98175,10.60671 l 0.69783,-3.23785 1.47937,-6.41983 4.74511,-21.88338 h 8.34582 z"
         id="text1-4"
         style="font-weight:bold;font-size:64px;line-height:0.8;font-family:'Liberation Sans';-inkscape-font-specification:'Liberation Sans Bold';letter-spacing:0.96px;word-spacing:0px;display:inline;fill-rule:evenodd;stroke-width:3.71347"
         aria-label="NRW" /><g
         id="g1"
         transform="matrix(1.6082038,0,0,1.6082038,82.310396,41.707449)"
         style="display:none"><path
           style="fill:#666666;fill-rule:evenodd;stroke:none"
           inkscape:connector-curvature="0"
           id="path10"
           d="m 39.7,25.5 c 0.833333,-1.066667 1.866667,-1.666667 3.1,-1.8 1.2,-0.1 2.233333,0.3 3.1,1.2 0.833333,0.9 1.25,2.066667 1.25,3.5 l -0.05,0.95 c -0.166667,1 -0.583333,1.916667 -1.25,2.75 -0.833333,1.033333 -1.85,1.633333 -3.05,1.8 -1.233333,0.1 -2.266667,-0.3 -3.1,-1.2 -0.4,-0.4 -0.7,-0.866667 -0.9,-1.4 -0.266667,-0.6 -0.4,-1.283333 -0.4,-2.05 0,-1.433333 0.433333,-2.683333 1.3,-3.75 m -4.6,-12.25 -0.25,-2.5 6.1,-1.1 v 2.5 l -5.85,1.1 m 21,-5.7 V 10.5 L 46,12.4 V 9.45 L 56.1,7.55 M 44.55,2.2 52,3.7 41.7,5.55 35.5,3.95 44.55,2.2 m 0.55,26.45 c 0,-0.7 -0.216667,-1.3 -0.65,-1.8 -0.466667,-0.5 -1,-0.7 -1.6,-0.6 -0.666667,0.03333 -1.216667,0.333333 -1.65,0.9 -0.466667,0.6 -0.7,1.266667 -0.7,2 0,0.633333 0.183333,1.183333 0.55,1.65 l 0.15,0.15 c 0.433333,0.466667 0.983333,0.683333 1.65,0.65 0.633333,-0.1 1.166667,-0.433333 1.6,-1 l 0.4,-0.7 0.25,-1.25"
           sodipodi:nodetypes="cccccccccsccccccccccccccccccccscccccc" /><path
           style="fill:#999999;fill-rule:evenodd;stroke:none"
           inkscape:connector-curvature="0"
           id="path12"
           d="M 1.45,12.85 12.8,16.4 12.35,46.9 1.9,41.8 1.85,41.55 1.65,40.35 1.8,40.4 11.1,44.8 11.35,17.25 1.65,14.1 1.45,12.9 v -0.05 m 3.35,4.6 1.3,0.4 V 39.5 L 4.8,38.85 V 17.45 M 21.85,24 21.65,24.75 Q 21.45,25 20.9,25.05 L 20.55,25 q -0.6,-0.2 -0.6,-1 0,-0.8 0.5,-1 l 0.45,-0.1 q 0.45,0 0.7,0.25 L 21.85,24 m -0.95,4.6 q 0.95,0 0.95,1.05 0,1.05 -0.95,1.05 -0.95,0 -0.95,-1.05 0,-0.95 0.8,-1.05 h 0.15 m 0.7,5.3 q 0.35,0.25 0.4,0.9 l -0.05,0.45 q -0.2,0.55 -0.95,0.6 -0.95,-0.05 -0.95,-1.05 0,-1.1 0.95,-1.05 h 0.05 l 0.55,0.15 m 0.4,6.15 q -0.05,1.1 -1,1.1 -0.95,0 -0.95,-1.1 0,-1 0.95,-1 0.95,0 1,1 m -0.05,5.25 q -0.05,1 -0.95,1 -0.95,0 -0.95,-1 0,-1.1 0.95,-1.1 0.9,0 0.95,1.1" /><path
           style="fill:#333333;fill-rule:evenodd;stroke:none"
           inkscape:connector-curvature="0"
           id="path14"
           d="M 32.8,1.85 35.3,1.45 43.7,0 c 7.566667,1.7 11.983333,2.6 13.25,2.7 1.833333,0.5666667 3.033333,1.85 3.6,3.85 L 60.4,26.3 60.3,37 c -0.266667,2.8 -1.3,4.483333 -3.1,5.05 -24.266667,8.233333 -36.966667,12.433333 -38.1,12.6 -2.033417,0.465343 -3.842927,1.497919 -6.75,-0.25 L 2.9,48.95 c -1.5333333,-0.7 -2.36666667,-2.366667 -2.5,-5 L 0,14.1 C 0,9.7333333 1.8833333,7.2166667 5.65,6.55 L 19.45,4.15 20.55,4 22.7,3.6 31.55,2.05 32.8,1.85 m -9.6,6 c 1.3,0.4 1.966667,0.9333333 2,1.6 L 25,10 57.2,3.8 44.15,1.25 7.75,7.4 12,8.45 c 0.333333,-0.2333333 0.8,-0.4333333 1.4,-0.6 1.3,-0.4666667 2.933333,-0.7 4.9,-0.7 l 1.3,0.05 1.1,0.1 2.2,0.45 0.3,0.1 M 23.15,8.8 22.95,8.35 C 22.616667,8.0166667 21.883333,7.7833333 20.75,7.65 L 19.65,7.6 18.4,7.55 c -3.2,0 -4.8,0.4166667 -4.8,1.25 0,0.8666667 1.6,1.3 4.8,1.3 h 1.35 L 20.85,10 C 21.983333,9.8333333 22.7,9.5833333 23,9.25 L 23.15,8.8 m -0.9,2.95 -1.25,0.5 c -0.433333,0.2 -0.8,0.45 -1.1,0.75 -0.733333,0.733333 -1.133333,1.733333 -1.2,3 l 1.4,0.25 1.1,0.25 2.25,0.8 c 1.2,0.566667 2.1,1.266667 2.7,2.1 0.4,0.6 0.65,1.283333 0.75,2.05 l -0.15,12.7 -0.2,11.65 c -0.133333,3.233333 -1.6,5.35 -4.4,6.35 l 34.4,-11.2 c 1.533333,-0.566667 2.366667,-2.016667 2.5,-4.35 V 6.95 C 58.916667,5.1166667 58.016667,4.4 56.35,4.8 l -27.4,5.6 -5.85,1.2 -0.85,0.15 M 17.05,17 v -0.8 c -0.03333,-1.633333 0.783333,-3.116667 2.45,-4.45 H 18.3 L 13.4,11.1 C 12,10.633333 11.316667,10.083333 11.35,9.45 V 9.3 L 5.4,7.55 C 2.9333333,7.95 1.6166667,9.7166667 1.45,12.85 V 12.9 13 l 0.35,27.4 -0.15,-0.05 0.2,1.2 0.05,3 c -0.1666667,1.666667 0.45,2.783333 1.85,3.35 5.3,3.233333 8.45,5.066667 9.45,5.5 1.5,0.633333 2.666667,0.733333 3.5,0.3 6.3,-1.566667 9.133333,-4.616667 8.5,-9.15 l 0.45,-22.7 -0.1,-0.55 C 25.283333,20.233333 24.6,19.35 23.5,18.65 22.9,18.283333 22.166667,17.966667 21.3,17.7 L 20.15,17.45 17.05,17 m 22.65,8.5 c -0.866667,1.066667 -1.3,2.316667 -1.3,3.75 0,0.766667 0.133333,1.45 0.4,2.05 0.2,0.533333 0.5,1 0.9,1.4 0.833333,0.9 1.866667,1.3 3.1,1.2 1.2,-0.166667 2.216667,-0.766667 3.05,-1.8 0.666667,-0.833333 1.083333,-1.75 1.25,-2.75 l 0.05,-0.95 c 0,-1.433333 -0.416667,-2.6 -1.25,-3.5 -0.866667,-0.9 -1.9,-1.3 -3.1,-1.2 -1.233333,0.133333 -2.266667,0.733333 -3.1,1.8 m -3.4,6.4 c -0.233333,-0.766667 -0.35,-1.583333 -0.35,-2.45 0,-2.133333 0.666667,-4 2,-5.6 1.266667,-1.7 2.833333,-2.616667 4.7,-2.75 1.833333,-0.166667 3.4,0.433333 4.7,1.8 1.266667,1.4 1.9,3.166667 1.9,5.3 v 0.65 c -0.133333,1.833333 -0.766667,3.483333 -1.9,4.95 -1.3,1.566667 -2.866667,2.45 -4.7,2.65 -1.866667,0.2 -3.433333,-0.383333 -4.7,-1.75 -0.8,-0.8 -1.35,-1.733333 -1.65,-2.8 m -3.95,-2.25 c 0,-3.266667 0.983333,-6.133333 2.95,-8.6 2,-2.466667 4.416667,-3.816667 7.25,-4.05 2.766667,-0.233333 5.116667,0.7 7.05,2.8 1.933333,2.1 2.9,4.75 2.9,7.95 v 0.35 c -0.1,3 -1.083333,5.7 -2.95,8.1 -1.933333,2.4 -4.283333,3.766667 -7.05,4.1 -2.8,0.3 -5.183333,-0.6 -7.15,-2.7 -1.333333,-1.366667 -2.216667,-2.983333 -2.65,-4.85 -0.233333,-0.966667 -0.35,-2 -0.35,-3.1 m 2.15,2.7 c 0.366667,1.466667 1.066667,2.766667 2.1,3.9 1.633333,1.7 3.616667,2.433333 5.95,2.2 2.266667,-0.266667 4.216667,-1.4 5.85,-3.4 1.5,-1.9 2.3,-4.083333 2.4,-6.55 v -0.45 c 0.03333,-2.666667 -0.766667,-4.866667 -2.4,-6.6 -1.6,-1.733333 -3.55,-2.5 -5.85,-2.3 -2.333333,0.2 -4.316667,1.333333 -5.95,3.4 -1.633333,2.033333 -2.433333,4.4 -2.4,7.1 -0.03333,0.933333 0.06667,1.833333 0.3,2.7 M 56.1,7.55 46,9.45 V 12.4 L 56.1,10.5 V 7.55 m 0.85,-1.9 v 5.5 L 46,13.25 45.8,7.8 56.95,5.65"
           sodipodi:nodetypes="cccccccccccccccccccccccccccccccccccccssccccccsccccccccccccccccccccccccccccccccccccccccccsccccccccccscccsccccccccssccccccccccccccccccccccccccc" /><path
           inkscape:connector-curvature="0"
           style="fill:url(#gradient15);fill-rule:evenodd;stroke:none"
           id="path46-5"
           d="M 23.2,7.85 22.9,7.75 20.7,7.3 19.6,7.2 18.3,7.15 q -2.95,0 -4.9,0.7 Q 12.5,8.1 12,8.45 L 7.75,7.4 44.15,1.25 57.2,3.8 25,10 25.2,9.45 q -0.05,-1 -2,-1.6 M 44.55,2.2 35.5,3.95 41.7,5.55 52,3.7 44.55,2.2" /><path
           inkscape:connector-curvature="0"
           style="fill:url(#gradient16);fill-rule:evenodd;stroke:none"
           id="path48-9"
           d="M 1.45,12.85 Q 1.7,8.15 5.4,7.55 L 11.35,9.3 V 9.45 Q 11.3,10.4 13.4,11.1 l 4.9,0.65 h 1.2 q -2.5,2 -2.45,4.45 V 17 L 16.8,53.6 16.7,53.7 Q 15.45,54.35 13.2,53.4 11.7,52.75 3.75,47.9 1.65,47.05 1.9,44.55 L 1.85,41.55 1.9,41.8 12.35,46.9 12.8,16.4 1.45,12.85 m 3.35,4.6 v 21.4 L 6.1,39.5 V 17.85 l -1.3,-0.4 m -3.35,-4.55 0.2,1.2 9.7,3.15 L 11.1,44.8 1.8,40.4 1.45,13 v -0.1" /><path
           inkscape:connector-curvature="0"
           style="fill:url(#gradient17);fill-rule:evenodd;stroke:none"
           id="path50-2"
           d="M 23.15,8.8 23,9.25 Q 22.55,9.75 20.85,10 l -1.1,0.1 H 18.4 q -4.8,0 -4.8,-1.3 0,-1.25 4.8,-1.25 l 1.25,0.05 1.1,0.05 q 1.7,0.2 2.2,0.7 l 0.2,0.45" /><path
           inkscape:connector-curvature="0"
           style="fill:url(#gradient18);fill-rule:evenodd;stroke:none"
           id="path52"
           d="m 16.7,53.7 0.1,-0.1 0.25,-36.6 3.1,0.45 1.15,0.25 q 1.3,0.4 2.2,0.95 1.65,1.05 2.05,2.65 l 0.1,0.55 -0.45,22.7 q 0.95,6.8 -8.5,9.15 M 21.6,33.9 21.05,33.75 H 21 q -0.95,-0.05 -0.95,1.05 0,1 0.95,1.05 0.75,-0.05 0.95,-0.6 L 22,34.8 q -0.05,-0.65 -0.4,-0.9 m -0.7,-5.3 h -0.15 q -0.8,0.1 -0.8,1.05 0,1.05 0.95,1.05 0.95,0 0.95,-1.05 0,-1.05 -0.95,-1.05 M 21.85,24 21.6,23.15 Q 21.35,22.9 20.9,22.9 L 20.45,23 q -0.5,0.2 -0.5,1 0,0.8 0.6,1 l 0.35,0.05 Q 21.45,25 21.65,24.75 L 21.85,24 m 0.1,21.3 Q 21.9,44.2 21,44.2 q -0.95,0 -0.95,1.1 0,1 0.95,1 0.9,0 0.95,-1 M 22,40.05 q -0.05,-1 -1,-1 -0.95,0 -0.95,1 0,1.1 0.95,1.1 0.95,0 1,-1.1" /><path
           inkscape:connector-curvature="0"
           style="fill:url(#gradient19);fill-rule:evenodd;stroke:none"
           id="path54"
           d="m 36.3,31.9 q 0.45,1.6 1.65,2.8 1.9,2.05 4.7,1.75 2.75,-0.3 4.7,-2.65 1.7,-2.2 1.9,-4.95 V 28.2 q 0,-3.2 -1.9,-5.3 -1.95,-2.05 -4.7,-1.8 -2.8,0.2 -4.7,2.75 -2,2.4 -2,5.6 0,1.3 0.35,2.45 m -1.8,0.45 q -0.35,-1.3 -0.3,-2.7 -0.05,-4.05 2.4,-7.1 2.45,-3.1 5.95,-3.4 3.45,-0.3 5.85,2.3 2.45,2.6 2.4,6.6 v 0.45 q -0.15,3.7 -2.4,6.55 -2.45,3 -5.85,3.4 -3.5,0.35 -5.95,-2.2 -1.55,-1.7 -2.1,-3.9" /><path
           inkscape:connector-curvature="0"
           style="fill:url(#gradient20);fill-rule:evenodd;stroke:none"
           id="path56"
           d="m 22.25,11.75 0.85,-0.15 5.85,-1.2 27.4,-5.6 q 2.5,-0.6 2.7,2.15 V 36.6 q -0.2,3.5 -2.5,4.35 l -34.4,11.2 q 4.2,-1.5 4.4,-6.35 l 0.2,-11.65 0.15,-12.7 Q 26.75,20.3 26.15,19.4 25.25,18.15 23.45,17.3 L 21.2,16.5 20.1,16.25 18.7,16 q 0.1,-1.9 1.2,-3 0.45,-0.45 1.1,-0.75 l 1.25,-0.5 m 5.7,18.55 q 0,1.85 0.35,3.5 0.8,4.2 3.65,7.25 4.05,4.15 9.65,3.55 5.55,-0.65 9.45,-5.5 3.9,-5 3.9,-11.35 v -0.2 Q 54.95,21.25 51.1,17.1 47.15,12.9 41.65,13.35 36,13.85 32,18.8 27.95,23.75 27.95,30.3 m 7.15,-17.05 5.85,-1.1 v -2.5 l -6.1,1.1 0.25,2.5 M 56.95,5.65 45.8,7.8 46,13.25 56.95,11.15 v -5.5" /><path
           inkscape:connector-curvature="0"
           style="fill:url(#gradient21);fill-rule:evenodd;stroke:none"
           id="path58"
           d="m 27.95,30.3 q 0,-6.55 4.05,-11.5 4,-4.95 9.65,-5.45 5.5,-0.45 9.45,3.75 3.85,4.15 3.85,10.45 v 0.2 q 0,6.35 -3.9,11.35 -3.9,4.85 -9.45,5.5 Q 36,45.2 31.95,41.05 29.1,38 28.3,33.8 27.95,32.15 27.95,30.3 m 4.4,-0.65 q 0,1.65 0.35,3.1 0.65,2.8 2.65,4.85 2.95,3.15 7.15,2.7 4.15,-0.5 7.05,-4.1 2.8,-3.6 2.95,-8.1 v -0.35 q 0,-4.8 -2.9,-7.95 -2.9,-3.15 -7.05,-2.8 -4.25,0.35 -7.25,4.05 -2.95,3.7 -2.95,8.6" /><path
           inkscape:connector-curvature="0"
           style="fill:url(#gradient22);fill-rule:evenodd;stroke:none"
           id="path60-2"
           d="m 45.1,28.65 -0.25,1.25 -0.4,0.7 q -0.65,0.85 -1.6,1 -1,0.05 -1.65,-0.65 L 41.05,30.8 q -0.55,-0.7 -0.55,-1.65 0,-1.1 0.7,-2 0.65,-0.85 1.65,-0.9 0.9,-0.15 1.6,0.6 0.65,0.75 0.65,1.8" /></g></g><g
       id="rect23"
       style="display:inline"><rect
         style="display:inline;fill:url(#linearGradient23);fill-opacity:0.834379;stroke:none;stroke-width:4.99999;stroke-linecap:square;stroke-dasharray:none;stroke-opacity:1"
         id="rect20"
         width="30.128031"
         height="11.286353"
         x="177.19191"
         y="53.347572" /><path
         style="color:#000000;display:inline;fill:url(#linearGradient25);stroke-linecap:square;stroke-linejoin:bevel;-inkscape-stroke:none"
         d="m 174.15254,15.119046 40.91592,41.955358 H 174.814 Z"
         id="path25" /><g
         id="g27"><path
           id="rect27"
           style="display:inline;fill:#0a6db5;fill-opacity:0.459222;stroke-width:4.99999;stroke-linecap:square;stroke-linejoin:bevel"
           d="m 182.94047,23.245534 33.07293,33.82887 -33.07293,-0.09449 z"
           sodipodi:nodetypes="cccc" /><path
           id="path27"
           style="display:inline;fill:#1882cf;fill-opacity:0.459222;stroke-width:4.99999;stroke-linecap:square;stroke-linejoin:bevel"
           d="m 175.28645,49.514879 34.91556,0.188989 4.67746,7.087054 -39.68751,-0.472471 z"
           sodipodi:nodetypes="ccccc" /></g><path
         style="color:#000000;display:inline;fill:url(#linearGradient27);stroke-linecap:square;stroke-linejoin:bevel;-inkscape-stroke:none"
         d="m 175.94141,13.373047 -4.28907,1.785156 6.5e-4,44.600911 c 0,0 29.8634,-0.184895 43.41537,-0.184895 l 1.78906,-4.246094 z m 1.4286,7.056744 34.22551,34.144428 h -34.32013 z"
         id="path26"
         sodipodi:nodetypes="cccccccccc" /></g></g></svg>
