<?xml version="1.0" encoding="UTF-8" standalone="no"?>
<!-- Created with Inkscape (http://www.inkscape.org/) -->

<svg
   width="256mm"
   height="256mm"
   viewBox="0 0 256 256"
   version="1.1"
   id="svg1"
   inkscape:version="1.3.2 (091e20ef0f, 2023-11-25)"
   xml:space="preserve"
   sodipodi:docname="image-vnd.dgn.svg"
   xmlns:inkscape="http://www.inkscape.org/namespaces/inkscape"
   xmlns:sodipodi="http://sodipodi.sourceforge.net/DTD/sodipodi-0.dtd"
   xmlns:xlink="http://www.w3.org/1999/xlink"
   xmlns="http://www.w3.org/2000/svg"
   xmlns:svg="http://www.w3.org/2000/svg"
   xmlns:rdf="http://www.w3.org/1999/02/22-rdf-syntax-ns#"
   xmlns:cc="http://creativecommons.org/ns#"
   xmlns:dc="http://purl.org/dc/elements/1.1/"><defs
     id="defs1"><linearGradient
       id="linearGradient26"
       inkscape:collect="always"><stop
         style="stop-color:#7b91c4;stop-opacity:1;"
         offset="0"
         id="stop26" /><stop
         style="stop-color:#5c5e91;stop-opacity:1"
         offset="1"
         id="stop27" /></linearGradient><linearGradient
       id="linearGradient24"
       inkscape:collect="always"><stop
         style="stop-color:#c7fafe;stop-opacity:1;"
         offset="0"
         id="stop24" /><stop
         style="stop-color:#9acdff;stop-opacity:1"
         offset="1"
         id="stop25" /></linearGradient><linearGradient
       id="linearGradient22"
       inkscape:collect="always"><stop
         style="stop-color:#adaeae;stop-opacity:0.8253752;"
         offset="0"
         id="stop22" /><stop
         style="stop-color:#8ac5fe;stop-opacity:0.83628923;"
         offset="1"
         id="stop23" /></linearGradient><linearGradient
       id="linearGradient18"
       inkscape:collect="always"><stop
         style="stop-color:#9797ff;stop-opacity:1;"
         offset="0"
         id="stop18" /><stop
         style="stop-color:#ccccff;stop-opacity:1;"
         offset="0.30000001"
         id="stop20" /><stop
         style="stop-color:#ccccff;stop-opacity:1;"
         offset="1"
         id="stop19" /></linearGradient><linearGradient
       id="linearGradient16"
       inkscape:collect="always"><stop
         style="stop-color:#cdcdcd;stop-opacity:0.17462483;"
         offset="0"
         id="stop16" /><stop
         style="stop-color:#cdcdcd;stop-opacity:1;"
         offset="1"
         id="stop17" /></linearGradient><linearGradient
       id="linearGradient12"
       inkscape:collect="always"><stop
         style="stop-color:#fdfeff;stop-opacity:1;"
         offset="0"
         id="stop13" /><stop
         style="stop-color:#99ccff;stop-opacity:1;"
         offset="1"
         id="stop14" /></linearGradient><linearGradient
       id="linearGradient9"
       inkscape:collect="always"><stop
         style="stop-color:#97c9fc;stop-opacity:1;"
         offset="0"
         id="stop9" /><stop
         style="stop-color:#7788bb;stop-opacity:1"
         offset="0.25"
         id="stop12" /><stop
         style="stop-color:#57578a;stop-opacity:1"
         offset="0.5"
         id="stop11" /><stop
         style="stop-color:#444482;stop-opacity:1;"
         offset="1"
         id="stop10" /></linearGradient><linearGradient
       inkscape:collect="always"
       xlink:href="#linearGradient9"
       id="linearGradient10"
       x1="31.622168"
       y1="100.24049"
       x2="221.19499"
       y2="240.28973"
       gradientUnits="userSpaceOnUse" /><linearGradient
       inkscape:collect="always"
       xlink:href="#linearGradient12"
       id="linearGradient14"
       x1="73.583481"
       y1="62.020954"
       x2="207.02971"
       y2="229.59895"
       gradientUnits="userSpaceOnUse" /><linearGradient
       inkscape:collect="always"
       xlink:href="#linearGradient16"
       id="linearGradient17"
       x1="57.531055"
       y1="26.420616"
       x2="147.13231"
       y2="144.34076"
       gradientUnits="userSpaceOnUse" /><linearGradient
       inkscape:collect="always"
       xlink:href="#linearGradient18"
       id="linearGradient19"
       x1="209.82518"
       y1="58.53635"
       x2="210.58252"
       y2="194.57654"
       gradientUnits="userSpaceOnUse" /><linearGradient
       inkscape:collect="always"
       xlink:href="#linearGradient22"
       id="linearGradient23"
       x1="177.19191"
       y1="58.990749"
       x2="207.31994"
       y2="58.990749"
       gradientUnits="userSpaceOnUse" /><linearGradient
       inkscape:collect="always"
       xlink:href="#linearGradient24"
       id="linearGradient25"
       x1="176.32031"
       y1="20.126524"
       x2="176.32031"
       y2="56.695721"
       gradientUnits="userSpaceOnUse" /><linearGradient
       inkscape:collect="always"
       xlink:href="#linearGradient26"
       id="linearGradient27"
       x1="172.59729"
       y1="13.51158"
       x2="210.54449"
       y2="51.28627"
       gradientUnits="userSpaceOnUse" /><linearGradient
       inkscape:collect="always"
       xlink:href="#linearGradient73705"
       id="linearGradient73706"
       x1="239.73889"
       y1="141.36615"
       x2="240.66907"
       y2="140.33701"
       gradientUnits="userSpaceOnUse"
       gradientTransform="matrix(1.0411672,0,0,1.0411672,-9.9725927,-5.7246136)" /><linearGradient
       id="linearGradient73705"
       inkscape:collect="always"><stop
         style="stop-color:#c28209;stop-opacity:1;"
         offset="0"
         id="stop73705" /><stop
         style="stop-color:#c28209;stop-opacity:1;"
         offset="0.24286503"
         id="stop73707" /><stop
         style="stop-color:#e79a0a;stop-opacity:1;"
         offset="0.52461708"
         id="stop73708" /><stop
         style="stop-color:#c28209;stop-opacity:1;"
         offset="0.75460386"
         id="stop73709" /><stop
         style="stop-color:#c28209;stop-opacity:1;"
         offset="1"
         id="stop73706" /></linearGradient><linearGradient
       inkscape:collect="always"
       xlink:href="#linearGradient73705"
       id="linearGradient73709"
       gradientUnits="userSpaceOnUse"
       gradientTransform="matrix(1.0411672,0,0,1.0411672,-12.541007,-3.1133919)"
       x1="239.73889"
       y1="141.36615"
       x2="240.66907"
       y2="140.33701" /><linearGradient
       inkscape:collect="always"
       xlink:href="#linearGradient73705"
       id="linearGradient73710"
       gradientUnits="userSpaceOnUse"
       gradientTransform="matrix(1.0411672,0,0,1.0411672,-15.323456,-0.54497712)"
       x1="239.73889"
       y1="141.36615"
       x2="240.66907"
       y2="140.33701" /><linearGradient
       inkscape:collect="always"
       xlink:href="#linearGradient73705"
       id="linearGradient73711"
       gradientUnits="userSpaceOnUse"
       gradientTransform="matrix(1.0411672,0,0,1.0411672,-18.234326,2.4515068)"
       x1="239.73889"
       y1="141.36615"
       x2="240.66907"
       y2="140.33701" /><linearGradient
       inkscape:collect="always"
       xlink:href="#linearGradient73705"
       id="linearGradient73712"
       gradientUnits="userSpaceOnUse"
       gradientTransform="matrix(1.0411672,0,0,1.0411672,-20.931162,5.0199216)"
       x1="239.73889"
       y1="141.36615"
       x2="240.66907"
       y2="140.33701" /><linearGradient
       inkscape:collect="always"
       xlink:href="#linearGradient73716"
       id="linearGradient73717"
       x1="154.49329"
       y1="159.63901"
       x2="161.09193"
       y2="168.90134"
       gradientUnits="userSpaceOnUse" /><linearGradient
       id="linearGradient73716"
       inkscape:collect="always"><stop
         style="stop-color:#e9838b;stop-opacity:1;"
         offset="0"
         id="stop73716" /><stop
         style="stop-color:#e3616a;stop-opacity:1;"
         offset="0.17460579"
         id="stop73718" /><stop
         style="stop-color:#dd414a;stop-opacity:1;"
         offset="0.53884423"
         id="stop73719" /><stop
         style="stop-color:#b22029;stop-opacity:1;"
         offset="0.82962251"
         id="stop73720" /><stop
         style="stop-color:#3c0b0c;stop-opacity:1;"
         offset="1"
         id="stop73717" /></linearGradient><radialGradient
       inkscape:collect="always"
       xlink:href="#linearGradient73722"
       id="radialGradient73723"
       cx="275.08521"
       cy="108.84753"
       fx="275.08521"
       fy="108.84753"
       r="4.8430495"
       gradientUnits="userSpaceOnUse"
       gradientTransform="matrix(1.2374995,0.00625,-0.00593427,1.1749841,-64.686661,-20.765872)" /><linearGradient
       id="linearGradient73722"
       inkscape:collect="always"><stop
         style="stop-color:#ff5274;stop-opacity:1;"
         offset="0"
         id="stop73722" /><stop
         style="stop-color:#ff365b;stop-opacity:1;"
         offset="0.40656132"
         id="stop73726" /><stop
         style="stop-color:#ff6781;stop-opacity:1;"
         offset="0.75460595"
         id="stop73724" /><stop
         style="stop-color:#ff3131;stop-opacity:1;"
         offset="0.86875761"
         id="stop73725" /><stop
         style="stop-color:#ff0d5a;stop-opacity:1;"
         offset="1"
         id="stop73723" /></linearGradient></defs><sodipodi:namedview
     id="base"
     pagecolor="#ffffff"
     bordercolor="#000000"
     borderopacity="0.3"
     inkscape:pageopacity="0.0"
     inkscape:pageshadow="2"
     inkscape:zoom="0.98994949"
     inkscape:cx="505.07627"
     inkscape:cy="476.792"
     inkscape:document-units="mm"
     inkscape:showpageshadow="2"
     inkscape:pagecheckerboard="0"
     inkscape:deskcolor="#d1d1d1"
     inkscape:current-layer="g28"
     showguides="true"><sodipodi:guide
       position="92.475254,162.18839"
       orientation="0,-1"
       id="guide12"
       inkscape:locked="false" /><sodipodi:guide
       position="212.80059,201.33519"
       orientation="0,-1"
       id="guide27"
       inkscape:locked="false" /><sodipodi:guide
       position="177.33333,251.7905"
       orientation="1,0"
       id="guide28"
       inkscape:locked="false" /></sodipodi:namedview><metadata
     id="metadata1"><rdf:RDF><cc:Work
         rdf:about=""><dc:format>image/svg+xml</dc:format><dc:type
           rdf:resource="http://purl.org/dc/dcmitype/StillImage" /><cc:license
           rdf:resource="http://creativecommons.org/publicdomain/zero/1.0/" /></cc:Work><cc:License
         rdf:about="http://creativecommons.org/publicdomain/zero/1.0/"><cc:permits
           rdf:resource="http://creativecommons.org/ns#Reproduction" /><cc:permits
           rdf:resource="http://creativecommons.org/ns#Distribution" /><cc:permits
           rdf:resource="http://creativecommons.org/ns#DerivativeWorks" /></cc:License></rdf:RDF></metadata><g
     id="g28"
     transform="matrix(1.0481261,0,0,1.0481261,-6.4074194,-6.1384097)"><g
       id="g7"
       inkscape:label="shadow"
       style="display:inline"><path
         id="rect1"
         style="fill:#000000;fill-opacity:0.0602258;stroke-width:3.72791;stroke-linecap:square"
         d="M 48.380952,13.418155 H 179.16071 l 43.46726,43.278274 V 244.17261 H 48.380952 Z"
         sodipodi:nodetypes="cccccc" /><path
         id="path1"
         style="fill:#000000;fill-opacity:0.0752823;stroke-width:3.72791;stroke-linecap:square"
         d="m 47.563027,12.60023 129.443423,-0.133635 43.46726,43.278274 1.33635,187.609821 H 47.563027 Z"
         sodipodi:nodetypes="cccccc" /><path
         id="path2"
         style="fill:#000000;fill-opacity:0.0602258;stroke-width:3.72791;stroke-linecap:square"
         d="m 46.493949,11.793049 128.975701,-0.868626 43.46726,43.278274 1.80407,188.344813 H 46.493949 Z"
         sodipodi:nodetypes="cccccc" /><path
         id="path3"
         style="fill:#000000;fill-opacity:0.0602258;stroke-width:3.72791;stroke-linecap:square"
         d="m 45.964782,12.33296 129.777508,0.467722 43.46726,42.209196 1.00226,187.008462 H 45.964782 Z"
         sodipodi:nodetypes="cccccc" /><path
         id="path4"
         style="fill:#000000;fill-opacity:0.0602258;stroke-width:3.72791;stroke-linecap:square"
         d="m 45.435615,12.338332 129.443415,0.935443 43.46726,41.674657 1.33635,186.540738 H 45.435615 Z"
         sodipodi:nodetypes="cccccc" /><path
         id="path5"
         style="fill:#000000;fill-opacity:0.0602258;stroke-width:3.72791;stroke-linecap:square"
         d="M 44.906448,12.744609 174.8844,13.412783 218.35166,54.151996 219.15347,240.96 H 44.906448 Z"
         sodipodi:nodetypes="cccccc" /><path
         id="path6"
         style="fill:#000000;fill-opacity:0.0602258;stroke-width:3.72791;stroke-linecap:square"
         d="m 44.377281,15.021772 129.911129,0.534539 43.46726,37.932883 0.86863,186.941636 H 44.377281 Z"
         sodipodi:nodetypes="cccccc" /><path
         id="path7"
         style="fill:#000000;fill-opacity:0.0602258;stroke-width:3.72791;stroke-linecap:square"
         d="m 43.848114,13.423527 129.710676,1.069078 43.46726,39.001961 1.06908,186.407094 H 43.848114 Z"
         sodipodi:nodetypes="cccccc" /></g><g
       id="g14"
       style="display:inline"><path
         style="color:#000000;fill:url(#linearGradient14);stroke-linecap:square;-inkscape-stroke:none"
         d="M 46.153822,14.648159 H 173.78301 l 40.90293,41.140298 V 236.0795 H 46.554726 Z"
         id="path15"
         inkscape:label="headbgground" /><path
         id="rect16"
         style="display:inline;fill:url(#linearGradient17);fill-opacity:1;stroke-width:4.99999;stroke-linecap:square"
         d="M 45.435818,14.165285 H 176.70315 l 0.20408,8.220982 H 53.433709 V 235.97952 h -7.997891 z"
         sodipodi:nodetypes="ccccccc" /><path
         id="rect17"
         style="fill:url(#linearGradient19);stroke-width:4.99999;stroke-linecap:square"
         d="M 47.058037,227.91965 H 207.27506 l -0.0668,-168.246312 7.31651,0.0667 0.0668,168.546562 -7.08265,0.0331 v 7.34846 H 47.058037 Z"
         sodipodi:nodetypes="ccccccccc" /><path
         style="color:#000000;fill:url(#linearGradient10);stroke-linecap:square;-inkscape-stroke:none"
         d="M 43.648437,12.148438 44.058594,238.58008 H 217.18555 V 54.757812 L 174.82227,12.148438 Z m 4.608862,4.999999 H 172.74414 l 39.44141,39.671875 V 233.58008 H 48.775405 Z"
         id="path16"
         inkscape:label="headframe"
         sodipodi:nodetypes="cccccccccccc" /></g><g
       id="g73728"
       transform="matrix(0.50409781,0,0,0.50409781,34.361014,14.049281)"
       style="display:inline"><circle
         style="display:inline;fill:#1991a1;fill-opacity:1;fill-rule:evenodd;stroke-width:27"
         id="path73693"
         cx="184.06973"
         cy="203.58968"
         r="135.44107" /><g
         id="g73702"
         style="display:inline"><rect
           style="display:inline;fill:#fbb429;fill-opacity:1;fill-rule:evenodd;stroke-width:27"
           id="rect73693"
           width="239.0338"
           height="30.820978"
           x="65.066505"
           y="287.32001" /><path
           id="rect73694"
           style="fill:#fffffe;fill-opacity:1;fill-rule:evenodd;stroke-width:27"
           d="m 233.19336,289.16602 v 8.77734 h 0.0644 v 0.0254 h 2.0586 v -8.77734 h -0.0645 v -0.0254 z m 4.30273,0 v 4.23632 h 0.0645 v 0.0254 h 2.05859 v -4.23632 h -0.0644 v -0.0254 z m 4.23243,0 v 8.77734 h 0.28906 v 0.0254 h 2.05859 v -8.77734 h -0.28906 v -0.0254 z m 4.30273,0 v 4.23632 h 0.28906 v 0.0254 h 2.0586 v -4.23632 h -0.28907 v -0.0254 z m 4.54102,0 v 0.0254 h -0.0195 v 8.77734 h 2.0586 v -0.0254 h 0.0195 v -8.77734 z m 4.30273,0 v 0.0254 h -0.0195 v 4.23632 h 2.05859 v -0.0254 h 0.0195 v -4.23632 z m 4.23242,0 v 8.77734 h 0.28906 v 0.0254 h 2.0586 v -8.77734 h -0.28906 v -0.0254 z m 4.30274,0 v 4.23632 h 0.28906 v 0.0254 h 2.05859 v -4.23632 h -0.28906 v -0.0254 z m 4.45703,0 v 8.77734 h 0.0645 v 0.0254 h 2.05859 v -8.77734 h -0.0645 v -0.0254 z m 4.30273,0 v 4.23632 h 0.0645 v 0.0254 h 2.05859 v -4.23632 h -0.0645 v -0.0254 z m 4.23242,0 v 8.77734 h 2.0586 v -8.77734 z m 4.30274,0 v 4.23632 h 2.05859 v -4.23632 z m 4.54101,0 v 8.77734 h 2.0586 v -8.77734 z m 4.30274,0 v 4.23632 h 2.05859 v -4.23632 z m 4.23242,0 v 8.77734 h 2.05859 v -8.77734 z m 4.30273,0 v 4.23632 h 2.0586 v -4.23632 z m -229.494136,0.0254 v 8.77734 h 2.058594 v -8.77734 z m 4.302734,0 v 4.23632 h 2.058594 v -4.23632 z m 4.232422,0 v 8.77734 h 2.058594 v -8.77734 z m 4.302734,0 v 4.23632 h 2.058594 v -4.23632 z m 4.541016,0 v 8.77734 h 2.058594 v -8.77734 z m 4.302734,0 v 4.23632 h 2.058594 v -4.23632 z m 4.232422,0 v 8.77734 H 96.5625 v -8.77734 z m 4.302735,0 v 4.23632 h 2.058589 v -4.23632 z m 4.457029,0 v 8.77734 h 2.0586 v -8.77734 z m 4.30274,0 v 4.23632 h 2.05859 v -4.23632 z m 4.23242,0 v 8.77734 h 2.05859 v -8.77734 z m 4.30273,0 v 4.23632 h 2.0586 v -4.23632 z m 4.54102,0 v 8.77734 h 2.05859 v -8.77734 z m 4.30273,0 v 4.23632 h 2.0586 v -4.23632 z m 4.23242,0 v 8.77734 h 2.0586 v -8.77734 z m 4.30274,0 v 4.23632 h 2.05859 v -4.23632 z m 4.36523,0 v 8.77734 h 2.0586 v -8.77734 z m 4.30274,0 v 4.23632 h 2.05859 v -4.23632 z m 4.23242,0 v 8.77734 h 2.05859 v -8.77734 z m 4.30273,0 v 4.23632 h 2.0586 v -4.23632 z m 4.54102,0 v 8.77734 h 2.05859 v -8.77734 z m 4.30273,0 v 4.23632 h 2.0586 v -4.23632 z m 4.23243,0 v 8.77734 h 2.05859 v -8.77734 z m 4.30273,0 v 4.23632 h 2.05859 v -4.23632 z m 4.45703,0 v 8.77734 h 2.05859 v -8.77734 z m 4.30274,0 v 4.23632 h 2.05859 v -4.23632 z m 4.23242,0 v 8.77734 h 2.05859 v -8.77734 z m 4.30273,0 v 4.23632 h 2.0586 v -4.23632 z m 4.54102,0 v 8.77734 h 2.05859 v -8.77734 z m 4.30273,0 v 4.23632 h 2.0586 v -4.23632 z m 4.23242,0 v 8.77734 h 2.0586 v -8.77734 z m 4.30274,0 v 4.23632 h 2.05859 v -4.23632 z m 4.60742,0 v 8.77734 h 2.05859 v -8.77734 z m 4.30273,0 v 4.23632 h 2.0586 v -4.23632 z m 4.23243,0 v 8.77734 h 2.05859 v -8.77734 z m 4.30273,0 v 4.23632 h 2.05859 v -4.23632 z m 4.54102,0 v 8.77734 h 2.05859 v -8.77734 z m 4.30273,0 v 4.23632 h 2.05859 v -4.23632 z" /></g><g
         id="g73701"
         style="display:inline"><path
           style="color:#000000;display:inline;fill:#fbb429;fill-rule:evenodd;-inkscape-stroke:none"
           d="M 88.240234,139.85547 V 271.3125 H 218.15625 Z m 21.580076,52.53711 56.66602,57.33984 h -56.66602 z"
           id="path73700" /><path
           id="path73701"
           style="display:inline;fill:#fffffe;fill-opacity:1;fill-rule:evenodd;stroke-width:27"
           inkscape:label="path73701"
           d="m 142.43555,261.14453 v 0.002 8.7754 0.002 h 2.05859 v -0.002 -8.7754 -0.002 z m 8.53515,0 v 0.002 8.7754 0.002 h 2.0586 v -0.002 -8.7754 -0.002 z m 8.84375,0 v 8.77735 h 2.0586 v -8.77735 z m 8.53516,0 v 8.77735 h 2.05859 v -8.77735 z m 8.75977,0 v 8.77735 h 2.05859 v -8.77735 z m 8.53515,0 v 8.77735 h 2.05859 v -8.77735 z m 8.84375,0 v 8.77735 h 2.0586 v -8.77735 z m 8.53516,0 v 8.77735 h 2.05859 v -8.77735 z m -112.640628,0.002 v 8.77735 h 2.058594 v -8.77735 z m 8.535157,0 v 8.77735 h 2.058591 v -8.77735 z m 8.843751,0 v 8.77735 h 2.05859 v -8.77735 z m 8.53516,0 v 8.77735 h 2.05859 v -8.77735 z m 8.75976,0 v 8.77735 h 2.05859 v -8.77735 z m 8.53516,0 v 8.77735 h 2.05859 v -8.77735 z m 13.14648,4.53907 v 0.002 4.23438 0.002 h 2.0586 v -0.002 -4.23438 -0.002 z m 8.53516,0 v 0.002 4.23438 0.002 h 2.05859 v -0.002 -4.23438 -0.002 z m 8.84375,0 v 4.23633 h 2.05859 v -4.23633 z m 8.53515,0 v 4.23633 h 2.0586 v -4.23633 z m 8.75977,0 v 4.23633 h 2.05859 v -4.23633 z m 8.53516,0 v 4.23633 h 2.05859 v -4.23633 z m 8.84375,0 v 4.23633 h 2.05859 v -4.23633 z m 8.53515,0 v 4.23633 h 2.0586 v -4.23633 z m -112.640623,0.002 v 4.23633 h 2.058594 v -4.23633 z m 8.535153,0 v 4.23633 h 2.0586 v -4.23633 z m 8.84375,0 v 4.23633 h 2.0586 v -4.23633 z m 8.53516,0 v 4.23633 h 2.05859 v -4.23633 z m 8.75977,0 v 4.23633 h 2.05859 v -4.23633 z m 8.53515,0 v 4.23633 h 2.05859 v -4.23633 z" /><path
           id="path73702"
           style="display:inline;fill:#fffffe;fill-opacity:1;fill-rule:evenodd;stroke-width:27"
           d="m 91.113281,157.38477 v 2.05859 h 4.236328 v -2.05859 z m 0,4.30273 v 2.05859 h 8.777344 v -2.05859 z m 0,4.23242 v 2.0586 h 4.236328 v -2.0586 z m 0,4.30274 v 2.05859 h 8.777344 v -2.05859 z m 0,4.54101 v 2.0586 h 4.236328 v -2.0586 z m 0,4.30274 v 2.05859 h 8.777344 v -2.05859 z m 0,4.23242 v 2.05859 h 4.236328 v -2.05859 z m 0,4.30273 v 2.0586 h 8.777344 v -2.0586 z m -0.0293,4.44141 v 2.05859 h 0.0293 v 0.0156 h 4.236328 v -2.0586 h -0.0293 v -0.0156 z m 0,4.30273 v 2.0586 h 0.0293 v 0.0156 h 8.777344 v -2.05859 h -0.0293 v -0.0156 z m 0,4.23242 v 2.0586 h 0.0293 v 0.0156 h 4.236328 v -2.05859 h -0.0293 v -0.0156 z m 0,4.30274 v 2.05859 h 0.0293 v 0.0156 h 8.777344 v -2.0586 h -0.0293 v -0.0156 z m 0,4.54102 v 2.05859 h 0.0293 v 0.0156 h 4.236328 v -2.05859 h -0.0293 v -0.0156 z m 0,4.30273 v 2.05859 h 0.0293 v 0.0156 h 8.777344 v -2.0586 h -0.0293 v -0.0156 z m 0,4.23242 v 2.05859 h 0.0293 v 0.0156 h 4.236328 v -2.05859 h -0.0293 v -0.0156 z m 0,4.30274 v 2.05859 h 0.0293 v 0.0156 h 8.777344 v -2.05859 h -0.0293 v -0.0156 z m 0,4.45703 v 2.05859 h 4.236328 v -2.05859 z m 0,4.30273 v 2.05859 h 8.777344 v -2.05859 z m 0,4.23242 v 2.0586 h 4.236328 v -2.0586 z m 0,4.30274 v 2.05859 h 8.777344 v -2.05859 z m 0,4.54101 v 2.0586 h 4.236328 v -2.0586 z m 0,4.30274 v 2.05859 h 8.777344 v -2.05859 z m 0,4.23242 v 2.05859 h 4.236328 v -2.05859 z m 0,4.30273 v 2.0586 h 8.777344 v -2.0586 z" /></g><g
         id="g73704"
         style="display:inline"><path
           id="rect73703"
           style="display:inline;fill:#7f7f7f;fill-opacity:1;fill-rule:evenodd;stroke-width:209.338"
           d="m 210.10032,117.56996 c -0.54401,-1.75086 1.17676,-4.68865 3.99228,-2.60807 15.38965,28.23234 32.26546,36.40605 52.39303,52.5052 2.38563,2.44409 0.3892,5.19688 -1.94363,4.26589 -15.66909,-7.7446 -47.06821,-30.87467 -54.44168,-54.16302 z"
           sodipodi:nodetypes="ccccc" /><path
           id="rect73704"
           style="display:inline;fill:#fbb429;fill-opacity:1;fill-rule:evenodd;stroke-width:19.696"
           d="m 237.67265,138.26905 c 3.52839,-2.96625 8.55172,1.95242 5.56951,5.44843 -3.38594,3.38594 -7.36292,7.36292 -11.26009,11.2601 -3.92443,2.53987 -8.48811,-2.1016 -5.56951,-5.81166 3.33825,-3.33826 7.97418,-7.64192 11.26009,-10.89687 z"
           sodipodi:nodetypes="ccccc" /><g
           id="g73712"><path
             id="rect73705"
             style="fill:url(#linearGradient73706);fill-rule:evenodd;stroke-width:20.5068"
             d="m 238.29629,139.9589 c -0.26594,-0.51402 0.26534,-1.07395 0.79513,-0.85092 0.83041,0.78633 1.93741,1.79628 3.12,2.91006 0.12542,0.49463 -0.08,0.96137 -0.77938,0.85091 -0.85755,-0.80881 -2.1553,-1.94981 -3.13575,-2.91005 z"
             sodipodi:nodetypes="ccccc" /><path
             id="path73709"
             style="fill:url(#linearGradient73709);fill-rule:evenodd;stroke-width:20.5068"
             d="m 235.72788,142.57012 c -0.26594,-0.51402 0.26534,-1.07395 0.79513,-0.85092 0.83041,0.78633 1.93741,1.79628 3.12,2.91006 0.12542,0.49463 -0.08,0.96137 -0.77938,0.85091 -0.85755,-0.80881 -2.1553,-1.94981 -3.13575,-2.91005 z"
             sodipodi:nodetypes="ccccc" /><path
             id="path73710"
             style="fill:url(#linearGradient73710);fill-rule:evenodd;stroke-width:20.5068"
             d="m 232.94543,145.13853 c -0.26594,-0.51402 0.26534,-1.07395 0.79513,-0.85092 0.83041,0.78633 1.93741,1.79628 3.12,2.91006 0.12542,0.49463 -0.08,0.96137 -0.77938,0.85091 -0.85755,-0.80881 -2.1553,-1.94981 -3.13575,-2.91005 z"
             sodipodi:nodetypes="ccccc" /><path
             id="path73711"
             style="fill:url(#linearGradient73711);fill-rule:evenodd;stroke-width:20.5068"
             d="m 230.03456,148.13501 c -0.26594,-0.51402 0.26534,-1.07395 0.79513,-0.85092 0.83041,0.78633 1.93741,1.79628 3.12,2.91006 0.12542,0.49463 -0.08,0.96137 -0.77938,0.85091 -0.85755,-0.80881 -2.1553,-1.94981 -3.13575,-2.91005 z"
             sodipodi:nodetypes="ccccc" /><path
             id="path73712"
             style="fill:url(#linearGradient73712);fill-rule:evenodd;stroke-width:20.5068"
             d="m 227.33772,150.70342 c -0.26594,-0.51402 0.26534,-1.07395 0.79513,-0.85092 0.83041,0.78633 1.93741,1.79628 3.12,2.91006 0.12542,0.49463 -0.08,0.96137 -0.77938,0.85091 -0.85755,-0.80881 -2.1553,-1.94981 -3.13575,-2.91005 z"
             sodipodi:nodetypes="ccccc" /></g></g><g
         id="g73721"><path
           id="rect73712"
           style="fill:#1fd0c2;fill-rule:evenodd;stroke-width:19.696"
           d="m 157.8719,171.39888 94.94573,-67.80615 11.90032,12.41401 -99.31203,62.24125 z"
           sodipodi:nodetypes="ccccc" /><path
           id="path73713"
           style="fill:#1fd0c2;fill-rule:evenodd;stroke-width:19.696"
           d="m 206.48327,218.1662 61.58997,-98.83356 11.90032,12.41401 -64.9289,91.34235 -5.82174,4.76227 -4.28069,-2.4614 z"
           sodipodi:nodetypes="ccccccc" /><path
           id="rect73713"
           style="fill:#ffffff;fill-opacity:1;fill-rule:evenodd;stroke-width:19.696"
           d="m 205.02434,224.81582 4.64392,2.74573 -13.35576,16.18101 z"
           sodipodi:nodetypes="cccc" /><path
           id="rect73715"
           style="fill:#40372d;fill-rule:evenodd;stroke-width:19.696"
           d="m 138.26633,176.06484 1.2842,1.96911 -3.68139,1.28421 z"
           sodipodi:nodetypes="cccc" /><path
           id="rect73714"
           style="display:inline;fill:#f5bc80;fill-opacity:1;fill-rule:evenodd;stroke-width:19.696"
           d="m 142.99104,168.23973 2.63897,0.0656 3.86531,6.59509 -0.57155,1.99193 -9.70813,1.19608 -1.18873,-1.80145 z"
           sodipodi:nodetypes="ccccccc" /><path
           id="path73714"
           style="fill:url(#linearGradient73717);fill-rule:evenodd;stroke-width:19.696"
           d="m 168.23543,151.8296 5.5695,7.26457 -25.24439,17.91928 c 0.16259,-1.16422 -0.13645,-2.00885 -1.45291,-2.1491 0.42833,-1.93323 -0.55257,-1.98746 -1.45292,-2.14911 0.55596,-1.36653 -0.1905,-1.91905 -1.45292,-2.1491 0.41991,-1.55102 -0.40615,-1.95192 -1.45291,-2.1491 z"
           sodipodi:nodetypes="cccccccc" /><path
           id="rect73720"
           style="fill:#faf9f8;fill-rule:evenodd;stroke-width:0.796"
           d="m 171.24906,149.75999 5.15823,7.4484 -3.06436,2.20693 -5.24018,-7.47218 z"
           sodipodi:nodetypes="ccccc" /><path
           id="path73720"
           style="fill:#1fd0c2;fill-opacity:1;fill-rule:evenodd;stroke-width:0.796"
           d="m 175.40133,146.84912 5.15823,7.4484 -4.34857,3.02026 -5.24018,-7.47218 z"
           sodipodi:nodetypes="ccccc" /><path
           id="path73721"
           style="fill:#faf9f8;fill-rule:evenodd;stroke-width:0.796"
           d="m 154.55436,158.23576 c 1.99473,0.28213 2.96722,1.18769 4.23894,2.75014 l 3.81516,4.68735 c 1.27172,1.56245 -1.11911,1.18769 0.15261,2.75014 1.52856,1.11298 8.23893,5.75135 7.9743,7.74847 -0.16535,1.24788 -1.81632,2.37103 -3.06436,2.20693 -2.00319,-0.26339 -6.60922,-6.51103 -7.99479,-7.75442 -1.27855,-1.56443 -0.98311,0.98772 -2.26166,-0.57671 l -3.83566,-4.6933 c -1.27855,-1.56443 -2.4518,-2.93465 -2.17085,-4.93545 0.17751,-1.26411 1.88238,-2.36192 3.14631,-2.18315 z"
           sodipodi:nodetypes="ccccccccccc" /></g><g
         id="g73727"><path
           id="rect73721"
           style="display:inline;fill:#ff5b61;fill-rule:evenodd;stroke-width:0.796"
           d="m 267.97128,85.785057 c 1.38274,-0.931015 2.32455,-0.970095 3.55297,0.299648 2.52537,2.757322 5.19711,5.281674 8.32595,8.283139 4.66866,-3.497958 9.44646,-6.791546 14.40988,-10.129185 2.22071,2.128242 4.90282,4.67778 7.00428,7.079192 -3.11571,4.354429 -7.02778,9.561499 -10.43419,14.329619 2.77629,2.6373 4.60797,4.44039 7.06314,6.72068 1.39848,1.62106 1.24973,2.11436 0.38527,3.38175 -3.39395,4.78253 -7.92127,11.92344 -11.81471,17.20837 -1.67233,1.76489 -3.5486,1.48343 -5.45788,-0.47087 -9.07301,-9.62907 -21.05265,-21.52353 -30.26449,-30.73537 -1.47006,-1.63639 -1.60689,-2.639723 0.53508,-4.237881 5.3056,-3.817495 10.30081,-7.556214 16.6947,-11.729092 z"
           sodipodi:nodetypes="ccccccccccccc" /><circle
           style="display:inline;fill:#ffe7e8;fill-opacity:1;fill-rule:evenodd;stroke:url(#radialGradient73723);stroke-width:1.785;stroke-dasharray:none;stroke-opacity:1"
           id="path73722"
           cx="275.08521"
           cy="108.84753"
           r="4.8430495" /><path
           id="rect73726"
           style="display:inline;fill:#ea1621;fill-opacity:1;fill-rule:evenodd;stroke-width:1.785"
           d="m 293.31085,87.09966 0.53687,0.55649 -10.03894,8.710774 -0.30144,-0.620701 z"
           sodipodi:nodetypes="ccccc" /><path
           id="path73726"
           style="display:inline;fill:#ea1621;fill-opacity:1;fill-rule:evenodd;stroke-width:1.785"
           d="m 295.68663,89.197199 0.53687,0.55649 -9.71788,10.016385 -0.42986,-0.535087 z"
           sodipodi:nodetypes="ccccc" /><path
           id="path73727"
           style="display:inline;fill:#ea1621;fill-opacity:1;fill-rule:evenodd;stroke-width:1.785"
           d="m 297.57014,91.61579 0.53687,0.55649 -8.15544,10.10199 -0.55828,-0.36385 z"
           sodipodi:nodetypes="ccccc" /></g></g><path
       style="font-weight:bold;font-size:57.3333px;line-height:0.7;font-family:'Liberation Sans';-inkscape-font-specification:'Liberation Sans Bold';letter-spacing:0.96px;word-spacing:0px;display:inline;fill-rule:evenodd;stroke-width:3.88412"
       d="m 105.55929,211.23443 q 0,5.70155 -2.24924,9.96464 -2.22306,4.23698 -6.329248,6.48622 -4.080022,2.24924 -9.363119,2.24924 H 72.709889 v -36.85101 h 13.338553 q 9.31083,0 14.410838,4.70773 5.10001,4.6816 5.10001,13.44318 z m -7.767698,0 q 0,-5.93697 -3.0862,-9.0493 -3.086147,-3.13847 -8.813904,-3.13847 h -5.466181 v 24.92475 h 6.538507 q 4.969265,0 7.898498,-3.42616 2.92928,-3.42619 2.92928,-9.31082 z m 36.937068,18.7001 -16.05854,-28.37709 q 0.47075,4.13234 0.47075,6.64312 v 21.73397 h -6.85234 v -36.85101 h 8.81391 l 16.29391,28.61251 q -0.47074,-3.94927 -0.47074,-7.19237 v -21.42014 h 6.85234 v 36.85101 z m 34.63555,-5.51846 q 3.00769,0 5.83234,-0.86313 2.82465,-0.8892 4.36772,-2.24924 v -5.10001 h -8.99699 v -5.7016 h 16.05858 v 13.54781 q -2.92927,3.00769 -7.63699,4.70773 -4.68156,1.69999 -9.83391,1.69999 -8.99696,0 -13.83546,-4.96928 -4.83848,-4.99539 -4.83848,-14.14929 0,-9.10161 4.86464,-13.9401 4.86463,-4.86464 13.99238,-4.86464 12.97239,0 16.50321,9.59853 l -7.11392,2.14462 q -1.15075,-2.79848 -3.60924,-4.23697 -2.45848,-1.43846 -5.78005,-1.43846 -5.44002,0 -8.26466,3.2954 -2.82462,3.2954 -2.82462,9.44162 0,6.2508 2.90308,9.67694 2.92927,3.40008 8.21237,3.40008 z"
       id="text1"
       aria-label="DNG"
       transform="matrix(0.95408368,0,0,0.95408368,6.1132142,5.8565565)" /><g
       id="rect23"
       style="display:inline"><rect
         style="display:inline;fill:url(#linearGradient23);fill-opacity:0.834379;stroke:none;stroke-width:4.99999;stroke-linecap:square;stroke-dasharray:none;stroke-opacity:1"
         id="rect20"
         width="30.128031"
         height="11.286353"
         x="177.19191"
         y="53.347572" /><path
         style="color:#000000;display:inline;fill:url(#linearGradient25);stroke-linecap:square;stroke-linejoin:bevel;-inkscape-stroke:none"
         d="m 174.15254,15.119046 40.91592,41.955358 H 174.814 Z"
         id="path25" /><g
         id="g27"><path
           id="rect27"
           style="display:inline;fill:#0a6db5;fill-opacity:0.459222;stroke-width:4.99999;stroke-linecap:square;stroke-linejoin:bevel"
           d="m 182.94047,23.245534 33.07293,33.82887 -33.07293,-0.09449 z"
           sodipodi:nodetypes="cccc" /><path
           id="path27"
           style="display:inline;fill:#1882cf;fill-opacity:0.459222;stroke-width:4.99999;stroke-linecap:square;stroke-linejoin:bevel"
           d="m 175.28645,49.514879 34.91556,0.188989 4.67746,7.087054 -39.68751,-0.472471 z"
           sodipodi:nodetypes="ccccc" /></g><path
         style="color:#000000;display:inline;fill:url(#linearGradient27);stroke-linecap:square;stroke-linejoin:bevel;-inkscape-stroke:none"
         d="m 175.94141,13.373047 -4.28907,1.785156 6.5e-4,44.600911 c 0,0 29.8634,-0.184895 43.41537,-0.184895 l 1.78906,-4.246094 z m 1.4286,7.056744 34.22551,34.144428 h -34.32013 z"
         id="path26"
         sodipodi:nodetypes="cccccccccc" /></g></g></svg>
