<?xml version="1.0" encoding="UTF-8" standalone="no"?>
<!-- Created with Inkscape (http://www.inkscape.org/) -->

<svg
   width="256mm"
   height="256mm"
   viewBox="0 0 256 256"
   version="1.1"
   id="svg1"
   inkscape:version="1.3.2 (091e20ef0f, 2023-11-25)"
   xml:space="preserve"
   sodipodi:docname="image-dpx.svg"
   xmlns:inkscape="http://www.inkscape.org/namespaces/inkscape"
   xmlns:sodipodi="http://sodipodi.sourceforge.net/DTD/sodipodi-0.dtd"
   xmlns:xlink="http://www.w3.org/1999/xlink"
   xmlns="http://www.w3.org/2000/svg"
   xmlns:svg="http://www.w3.org/2000/svg"
   xmlns:rdf="http://www.w3.org/1999/02/22-rdf-syntax-ns#"
   xmlns:cc="http://creativecommons.org/ns#"
   xmlns:dc="http://purl.org/dc/elements/1.1/"><defs
     id="defs1"><linearGradient
       id="linearGradient26"
       inkscape:collect="always"><stop
         style="stop-color:#7b91c4;stop-opacity:1;"
         offset="0"
         id="stop26" /><stop
         style="stop-color:#5c5e91;stop-opacity:1"
         offset="1"
         id="stop27" /></linearGradient><linearGradient
       id="linearGradient24"
       inkscape:collect="always"><stop
         style="stop-color:#c7fafe;stop-opacity:1;"
         offset="0"
         id="stop24" /><stop
         style="stop-color:#9acdff;stop-opacity:1"
         offset="1"
         id="stop25" /></linearGradient><linearGradient
       id="linearGradient22"
       inkscape:collect="always"><stop
         style="stop-color:#adaeae;stop-opacity:0.8253752;"
         offset="0"
         id="stop22" /><stop
         style="stop-color:#8ac5fe;stop-opacity:0.83628923;"
         offset="1"
         id="stop23" /></linearGradient><linearGradient
       id="linearGradient18"
       inkscape:collect="always"><stop
         style="stop-color:#9797ff;stop-opacity:1;"
         offset="0"
         id="stop18" /><stop
         style="stop-color:#ccccff;stop-opacity:1;"
         offset="0.30000001"
         id="stop20" /><stop
         style="stop-color:#ccccff;stop-opacity:1;"
         offset="1"
         id="stop19" /></linearGradient><linearGradient
       id="linearGradient16"
       inkscape:collect="always"><stop
         style="stop-color:#cdcdcd;stop-opacity:0.17462483;"
         offset="0"
         id="stop16" /><stop
         style="stop-color:#cdcdcd;stop-opacity:1;"
         offset="1"
         id="stop17" /></linearGradient><linearGradient
       id="linearGradient12"
       inkscape:collect="always"><stop
         style="stop-color:#fdfeff;stop-opacity:1;"
         offset="0"
         id="stop13" /><stop
         style="stop-color:#99ccff;stop-opacity:1;"
         offset="1"
         id="stop14" /></linearGradient><linearGradient
       id="linearGradient9"
       inkscape:collect="always"><stop
         style="stop-color:#97c9fc;stop-opacity:1;"
         offset="0"
         id="stop9" /><stop
         style="stop-color:#7788bb;stop-opacity:1"
         offset="0.25"
         id="stop12" /><stop
         style="stop-color:#57578a;stop-opacity:1"
         offset="0.5"
         id="stop11" /><stop
         style="stop-color:#444482;stop-opacity:1;"
         offset="1"
         id="stop10" /></linearGradient><linearGradient
       inkscape:collect="always"
       xlink:href="#linearGradient9"
       id="linearGradient10"
       x1="31.622168"
       y1="100.24049"
       x2="221.19499"
       y2="240.28973"
       gradientUnits="userSpaceOnUse" /><linearGradient
       inkscape:collect="always"
       xlink:href="#linearGradient12"
       id="linearGradient14"
       x1="73.583481"
       y1="62.020954"
       x2="207.02971"
       y2="229.59895"
       gradientUnits="userSpaceOnUse" /><linearGradient
       inkscape:collect="always"
       xlink:href="#linearGradient16"
       id="linearGradient17"
       x1="57.531055"
       y1="26.420616"
       x2="147.13231"
       y2="144.34076"
       gradientUnits="userSpaceOnUse" /><linearGradient
       inkscape:collect="always"
       xlink:href="#linearGradient18"
       id="linearGradient19"
       x1="209.82518"
       y1="58.53635"
       x2="210.58252"
       y2="194.57654"
       gradientUnits="userSpaceOnUse" /><linearGradient
       inkscape:collect="always"
       xlink:href="#linearGradient22"
       id="linearGradient23"
       x1="177.19191"
       y1="58.990749"
       x2="207.31994"
       y2="58.990749"
       gradientUnits="userSpaceOnUse" /><linearGradient
       inkscape:collect="always"
       xlink:href="#linearGradient24"
       id="linearGradient25"
       x1="176.32031"
       y1="20.126524"
       x2="176.32031"
       y2="56.695721"
       gradientUnits="userSpaceOnUse" /><linearGradient
       inkscape:collect="always"
       xlink:href="#linearGradient26"
       id="linearGradient27"
       x1="172.59729"
       y1="13.51158"
       x2="210.54449"
       y2="51.28627"
       gradientUnits="userSpaceOnUse" /><clipPath
       id="clipPath839-4"><circle
         cx="532"
         cy="538"
         r="400"
         fill-opacity="0.47451"
         id="circle4" /></clipPath><linearGradient
       id="linearGradient1351"
       x1="112"
       x2="711.86438"
       y1="512"
       y2="512"
       gradientTransform="translate(-1211.405,-699.405)"
       gradientUnits="userSpaceOnUse"><stop
         stop-color="#ff0"
         offset="0"
         id="stop5-53" /><stop
         stop-color="#ff0"
         stop-opacity="0"
         offset="1"
         id="stop6-5" /></linearGradient><linearGradient
       id="linearGradient1353"
       x1="112"
       x2="711.86438"
       y1="512"
       y2="512"
       gradientTransform="translate(-324.595,187.405)"
       gradientUnits="userSpaceOnUse"><stop
         stop-color="#0ff"
         offset="0"
         id="stop7-62" /><stop
         stop-color="#0ff"
         stop-opacity="0"
         offset="1"
         id="stop8-91" /></linearGradient><linearGradient
       id="linearGradient1355"
       x1="112"
       x2="711.86438"
       y1="512"
       y2="512"
       gradientTransform="translate(0,-1024)"
       gradientUnits="userSpaceOnUse"><stop
         stop-color="#f0f"
         offset="0"
         id="stop9-2-5" /><stop
         stop-color="#f0f"
         stop-opacity="0"
         offset="1"
         id="stop10-7-5" /></linearGradient><linearGradient
       id="linearGradient1403"
       x1="1142.588"
       x2="1280.895"
       y1="62.713322"
       y2="200.87399"
       gradientTransform="rotate(-5.888766,1223.265,99.83401)"
       gradientUnits="userSpaceOnUse"><stop
         stop-color="#343434"
         offset="0"
         id="stop1-3" /><stop
         stop-color="#4d4d4d"
         offset="1"
         id="stop2-29" /></linearGradient><linearGradient
       id="linearGradient1405"
       x1="1327.594"
       x2="1324.91"
       y1="230.8623"
       y2="89.862343"
       gradientTransform="matrix(0.0111212,0.9999382,0.9999382,-0.0111212,1077.89,-1093.522)"
       gradientUnits="userSpaceOnUse"><stop
         stop-color="#5596ea"
         offset="0"
         id="stop3-6" /><stop
         stop-color="#5596ea"
         stop-opacity="0"
         offset="1"
         id="stop4-7" /></linearGradient><linearGradient
       gradientTransform="matrix(-0.0039,0.0039,0.0089,0.0089,-3.45,-2.15)"
       gradientUnits="userSpaceOnUse"
       id="gradient11"
       spreadMethod="pad"
       x1="-819.20001"
       x2="819.20001"><stop
         offset="0.0"
         stop-color="#0066cc"
         id="stop54" /><stop
         offset="0.7137254901960784"
         stop-color="#0099ff"
         id="stop55" /><stop
         offset="1.0"
         stop-color="#0099ff"
         id="stop56" /></linearGradient><linearGradient
       gradientTransform="matrix(-0.0047,0.0047,0.0126,0.0126,13.55,3.35)"
       gradientUnits="userSpaceOnUse"
       id="gradient12"
       spreadMethod="pad"
       x1="-819.20001"
       x2="819.20001"><stop
         offset="0.0"
         stop-color="#006600"
         id="stop57" /><stop
         offset="1.0"
         stop-color="#333333"
         id="stop58" /></linearGradient><linearGradient
       gradientTransform="matrix(-0.004,0.004,0.0119,0.0119,13.55,3.65)"
       gradientUnits="userSpaceOnUse"
       id="gradient13"
       spreadMethod="pad"
       x1="-819.20001"
       x2="819.20001"><stop
         offset="0.0"
         stop-color="#006600"
         id="stop59" /><stop
         offset="1.0"
         stop-color="#66cc33"
         id="stop60" /></linearGradient><linearGradient
       gradientTransform="matrix(-0.0031,-0.0058,-0.0068,0.0036,-6.5,-9.35)"
       gradientUnits="userSpaceOnUse"
       id="gradient14"
       spreadMethod="pad"
       x1="-819.20001"
       x2="819.20001"><stop
         offset="0.0"
         stop-color="#660000"
         id="stop61" /><stop
         offset="0.16862745098039217"
         stop-color="#660000"
         id="stop62" /><stop
         offset="0.3058823529411765"
         stop-color="#996600"
         id="stop63" /><stop
         offset="0.615686274509804"
         stop-color="#ffcc66"
         id="stop64" /><stop
         offset="1.0"
         stop-color="#996600"
         id="stop65" /></linearGradient><linearGradient
       gradientTransform="matrix(-0.0019,-0.0023,-5e-4,4e-4,-8.9,-9.4)"
       gradientUnits="userSpaceOnUse"
       id="gradient15"
       spreadMethod="pad"
       x1="-819.20001"
       x2="819.20001"><stop
         offset="0.0"
         stop-color="#ffcc66"
         id="stop66" /><stop
         offset="0.32941176470588235"
         stop-color="#ffcc66"
         id="stop67" /><stop
         offset="0.44313725490196076"
         stop-color="#ffff99"
         id="stop68" /><stop
         offset="0.7215686274509804"
         stop-color="#ffcc66"
         id="stop69" /><stop
         offset="1.0"
         stop-color="#ffcc66"
         id="stop70" /></linearGradient><linearGradient
       gradientTransform="matrix(-0.0021,-0.0025,-5e-4,4e-4,-7,-9.65)"
       gradientUnits="userSpaceOnUse"
       id="gradient16"
       spreadMethod="pad"
       x1="-819.20001"
       x2="819.20001"><stop
         offset="0.0"
         stop-color="#ffcc66"
         id="stop71" /><stop
         offset="0.32941176470588235"
         stop-color="#ffcc66"
         id="stop72" /><stop
         offset="0.44313725490196076"
         stop-color="#ffff99"
         id="stop73" /><stop
         offset="0.7215686274509804"
         stop-color="#ffcc66"
         id="stop74" /><stop
         offset="1.0"
         stop-color="#ffcc66"
         id="stop75" /></linearGradient><linearGradient
       gradientTransform="matrix(-0.0019,-0.0022,-5e-4,4e-4,-5.25,-10.9)"
       gradientUnits="userSpaceOnUse"
       id="gradient17"
       spreadMethod="pad"
       x1="-819.20001"
       x2="819.20001"><stop
         offset="0.0"
         stop-color="#ffcc66"
         id="stop76" /><stop
         offset="0.32941176470588235"
         stop-color="#ffcc66"
         id="stop77" /><stop
         offset="0.44313725490196076"
         stop-color="#ffff99"
         id="stop78" /><stop
         offset="0.7215686274509804"
         stop-color="#ffcc66"
         id="stop79" /><stop
         offset="1.0"
         stop-color="#ffcc66"
         id="stop80" /></linearGradient><linearGradient
       gradientTransform="matrix(-0.0021,-0.0025,-4e-4,4e-4,-3.7,-11.45)"
       gradientUnits="userSpaceOnUse"
       id="gradient18"
       spreadMethod="pad"
       x1="-819.20001"
       x2="819.20001"><stop
         offset="0.0"
         stop-color="#ffcc66"
         id="stop81" /><stop
         offset="0.32941176470588235"
         stop-color="#ffcc66"
         id="stop82" /><stop
         offset="0.44313725490196076"
         stop-color="#ffff99"
         id="stop83" /><stop
         offset="0.7215686274509804"
         stop-color="#ffcc66"
         id="stop84" /><stop
         offset="1.0"
         stop-color="#ffcc66"
         id="stop85" /></linearGradient><linearGradient
       gradientTransform="matrix(0,-0.005,-0.0049,0,-9.55,-7)"
       gradientUnits="userSpaceOnUse"
       id="gradient19"
       spreadMethod="pad"
       x1="-819.20001"
       x2="819.20001"><stop
         offset="0.0"
         stop-color="#660000"
         id="stop86" /><stop
         offset="0.4588235294117647"
         stop-color="#996600"
         id="stop87" /><stop
         offset="0.8392156862745098"
         stop-color="#ffcc66"
         id="stop88" /><stop
         offset="1.0"
         stop-color="#996600"
         id="stop89" /></linearGradient><linearGradient
       gradientTransform="matrix(0.01,0.01,0.0022,-0.0022,13.55,3.65)"
       gradientUnits="userSpaceOnUse"
       id="gradient20"
       spreadMethod="pad"
       x1="-819.20001"
       x2="819.20001"><stop
         offset="0.0"
         stop-color="#ccffcc"
         id="stop90" /><stop
         offset="0.43529411764705883"
         stop-color="#99ff66"
         id="stop91" /><stop
         offset="1.0"
         stop-color="#66cc33"
         id="stop92" /></linearGradient><linearGradient
       gradientTransform="matrix(-0.0042,-0.0042,-0.0044,0.0044,-0.9,-4.25)"
       gradientUnits="userSpaceOnUse"
       id="gradient21"
       spreadMethod="pad"
       x1="-819.20001"
       x2="819.20001"><stop
         offset="0.0"
         stop-color="#333333"
         id="stop93" /><stop
         offset="1.0"
         stop-color="#0066cc"
         id="stop94" /></linearGradient><linearGradient
       gradientTransform="matrix(-0.0061,0,0,0.0045,-0.85,-4.4)"
       gradientUnits="userSpaceOnUse"
       id="gradient22"
       spreadMethod="pad"
       x1="-819.20001"
       x2="819.20001"><stop
         offset="0.0"
         stop-color="#99ccff"
         id="stop95" /><stop
         offset="1.0"
         stop-color="#ffffff"
         id="stop96" /></linearGradient><linearGradient
       gradientTransform="matrix(-0.0034,-0.0019,-0.0017,0.003,-1.35,-5.15)"
       gradientUnits="userSpaceOnUse"
       id="gradient23"
       spreadMethod="pad"
       x1="-819.20001"
       x2="819.20001"><stop
         offset="0.0"
         stop-color="#0066cc"
         id="stop97" /><stop
         offset="0.6078431372549019"
         stop-color="#99ccff"
         id="stop98" /><stop
         offset="1.0"
         stop-color="#99ccff"
         id="stop99" /></linearGradient><linearGradient
       gradientTransform="matrix(0.0027,0,0,-0.0016,-1.9,-6)"
       gradientUnits="userSpaceOnUse"
       id="gradient24"
       spreadMethod="pad"
       x1="-819.20001"
       x2="819.20001"><stop
         offset="0.0"
         stop-color="#99ccff"
         id="stop100" /><stop
         offset="1.0"
         stop-color="#ccffff"
         id="stop101" /></linearGradient><radialGradient
       cx="0"
       cy="0"
       gradientTransform="matrix(0.0024,0,0,0.0024,3.75,-2.75)"
       gradientUnits="userSpaceOnUse"
       id="gradient25"
       r="819.20001"
       spreadMethod="pad"><stop
         offset="0.0"
         stop-color="#ffffff"
         id="stop102" /><stop
         offset="1.0"
         stop-color="#ccffcc"
         id="stop103" /></radialGradient></defs><sodipodi:namedview
     id="base"
     pagecolor="#ffffff"
     bordercolor="#000000"
     borderopacity="0.3"
     inkscape:pageopacity="0.0"
     inkscape:pageshadow="2"
     inkscape:zoom="0.98994949"
     inkscape:cx="505.07627"
     inkscape:cy="476.792"
     inkscape:document-units="mm"
     inkscape:showpageshadow="2"
     inkscape:pagecheckerboard="0"
     inkscape:deskcolor="#d1d1d1"
     inkscape:current-layer="g28"
     showguides="true"><sodipodi:guide
       position="92.475254,162.18839"
       orientation="0,-1"
       id="guide12"
       inkscape:locked="false" /><sodipodi:guide
       position="212.80059,201.33519"
       orientation="0,-1"
       id="guide27"
       inkscape:locked="false" /><sodipodi:guide
       position="177.33333,251.7905"
       orientation="1,0"
       id="guide28"
       inkscape:locked="false" /></sodipodi:namedview><metadata
     id="metadata1"><rdf:RDF><cc:Work
         rdf:about=""><dc:format>image/svg+xml</dc:format><dc:type
           rdf:resource="http://purl.org/dc/dcmitype/StillImage" /><cc:license
           rdf:resource="http://creativecommons.org/publicdomain/zero/1.0/" /></cc:Work><cc:License
         rdf:about="http://creativecommons.org/publicdomain/zero/1.0/"><cc:permits
           rdf:resource="http://creativecommons.org/ns#Reproduction" /><cc:permits
           rdf:resource="http://creativecommons.org/ns#Distribution" /><cc:permits
           rdf:resource="http://creativecommons.org/ns#DerivativeWorks" /></cc:License></rdf:RDF></metadata><g
     id="g28"
     transform="matrix(1.0481261,0,0,1.0481261,-6.4074194,-6.1384097)"><g
       id="g7"
       inkscape:label="shadow"
       style="display:inline"><path
         id="rect1"
         style="fill:#000000;fill-opacity:0.0602258;stroke-width:3.72791;stroke-linecap:square"
         d="M 48.380952,13.418155 H 179.16071 l 43.46726,43.278274 V 244.17261 H 48.380952 Z"
         sodipodi:nodetypes="cccccc" /><path
         id="path1"
         style="fill:#000000;fill-opacity:0.0752823;stroke-width:3.72791;stroke-linecap:square"
         d="m 47.563027,12.60023 129.443423,-0.133635 43.46726,43.278274 1.33635,187.609821 H 47.563027 Z"
         sodipodi:nodetypes="cccccc" /><path
         id="path2"
         style="fill:#000000;fill-opacity:0.0602258;stroke-width:3.72791;stroke-linecap:square"
         d="m 46.493949,11.793049 128.975701,-0.868626 43.46726,43.278274 1.80407,188.344813 H 46.493949 Z"
         sodipodi:nodetypes="cccccc" /><path
         id="path3"
         style="fill:#000000;fill-opacity:0.0602258;stroke-width:3.72791;stroke-linecap:square"
         d="m 45.964782,12.33296 129.777508,0.467722 43.46726,42.209196 1.00226,187.008462 H 45.964782 Z"
         sodipodi:nodetypes="cccccc" /><path
         id="path4"
         style="fill:#000000;fill-opacity:0.0602258;stroke-width:3.72791;stroke-linecap:square"
         d="m 45.435615,12.338332 129.443415,0.935443 43.46726,41.674657 1.33635,186.540738 H 45.435615 Z"
         sodipodi:nodetypes="cccccc" /><path
         id="path5"
         style="fill:#000000;fill-opacity:0.0602258;stroke-width:3.72791;stroke-linecap:square"
         d="M 44.906448,12.744609 174.8844,13.412783 218.35166,54.151996 219.15347,240.96 H 44.906448 Z"
         sodipodi:nodetypes="cccccc" /><path
         id="path6"
         style="fill:#000000;fill-opacity:0.0602258;stroke-width:3.72791;stroke-linecap:square"
         d="m 44.377281,15.021772 129.911129,0.534539 43.46726,37.932883 0.86863,186.941636 H 44.377281 Z"
         sodipodi:nodetypes="cccccc" /><path
         id="path7"
         style="fill:#000000;fill-opacity:0.0602258;stroke-width:3.72791;stroke-linecap:square"
         d="m 43.848114,13.423527 129.710676,1.069078 43.46726,39.001961 1.06908,186.407094 H 43.848114 Z"
         sodipodi:nodetypes="cccccc" /></g><g
       id="g14"
       style="display:inline"><path
         style="color:#000000;fill:url(#linearGradient14);stroke-linecap:square;-inkscape-stroke:none"
         d="M 46.153822,14.648159 H 173.78301 l 40.90293,41.140298 V 236.0795 H 46.554726 Z"
         id="path15"
         inkscape:label="headbgground" /><path
         id="rect16"
         style="display:inline;fill:url(#linearGradient17);fill-opacity:1;stroke-width:4.99999;stroke-linecap:square"
         d="M 45.435818,14.165285 H 176.70315 l 0.20408,8.220982 H 53.433709 V 235.97952 h -7.997891 z"
         sodipodi:nodetypes="ccccccc" /><path
         id="rect17"
         style="fill:url(#linearGradient19);stroke-width:4.99999;stroke-linecap:square"
         d="M 47.058037,227.91965 H 207.27506 l -0.0668,-168.246312 7.31651,0.0667 0.0668,168.546562 -7.08265,0.0331 v 7.34846 H 47.058037 Z"
         sodipodi:nodetypes="ccccccccc" /><path
         style="color:#000000;fill:url(#linearGradient10);stroke-linecap:square;-inkscape-stroke:none"
         d="M 43.648437,12.148438 44.058594,238.58008 H 217.18555 V 54.757812 L 174.82227,12.148438 Z m 4.608862,4.999999 H 172.74414 l 39.44141,39.671875 V 233.58008 H 48.775405 Z"
         id="path16"
         inkscape:label="headframe"
         sodipodi:nodetypes="cccccccccccc" /></g><g
       id="g6"
       transform="matrix(0.97379469,0,0,0.97379469,-1.7915182,-17.052607)"><g
         id="g227"
         transform="matrix(1.0640867,0,0,1.0640867,8.8634511,10.869066)"
         style="display:inline"><path
           style="fill:#f81104;stroke-width:0.441379"
           d="m 131.72268,158.72472 -0.48807,-0.32869 -2.52097,-6.40001 c -1.38653,-3.51999 -2.69573,-6.79724 -2.90932,-7.28276 -0.21361,-0.48552 -1.01253,-2.47172 -1.7754,-4.4138 -0.76287,-1.94207 -1.7522,-4.42483 -2.19851,-5.51725 l -0.81148,-1.9862 -12.26505,-0.1175 -12.265056,-0.11749 -0.412634,-0.41263 -0.412635,-0.41264 1.67879,-3.88367 c 0.923347,-2.13601 2.030477,-4.67814 2.460301,-5.64918 0.429834,-0.97104 4.072504,-9.56889 8.094804,-19.10635 4.02232,-9.537459 7.72294,-18.276779 8.2236,-19.42071 0.50066,-1.143931 1.11719,-2.576426 1.37006,-3.183323 0.96195,-2.308712 1.49288,-3.244317 1.91962,-3.382731 l 0.44138,-0.143165 16.91841,40.145989 16.9184,40.146 -0.1518,0.7894 -0.1518,0.7894 -10.58729,0.10799 -10.58729,0.108 z M 45.588509,92.520112 45.70032,27.747645 l 26.677923,-0.113824 26.677919,-0.113824 0.429385,0.429377 0.429375,0.429378 -1.226941,2.994794 c -0.674811,1.647137 -1.576726,3.789277 -2.004254,4.760312 -0.427529,0.971036 -1.223165,2.857934 -1.768101,4.193108 -0.544931,1.335173 -1.389436,3.321382 -1.876681,4.413796 -0.487237,1.092414 -1.136415,2.693596 -1.442613,3.558181 -0.495101,1.397964 -1.709925,4.278894 -2.87342,6.814242 -0.222808,0.485517 -0.79516,1.900737 -1.271892,3.144931 -0.476731,1.244194 -1.261566,3.131092 -1.744081,4.193107 -0.482507,1.062014 -3.390304,7.988871 -6.461763,15.393018 -3.071459,7.404138 -5.979253,14.330996 -6.461765,15.393015 -0.482513,1.062012 -1.270574,2.948907 -1.751248,4.193101 -0.480674,1.244203 -1.361801,3.310363 -1.958061,4.591483 -0.59626,1.28113 -1.084108,2.51707 -1.084108,2.74656 0,0.22949 -0.480511,1.46544 -1.067801,2.74656 -0.587289,1.28112 -3.58656,8.38724 -6.665044,15.79139 -3.078484,7.40414 -5.949891,14.25656 -6.380905,15.22759 -0.431014,0.97104 -1.22604,2.85793 -1.766723,4.19311 -1.050219,2.59343 -1.258456,3.09371 -2.572118,6.17932 -0.465082,1.09241 -1.401101,3.42621 -2.080041,5.18621 l -1.234436,3.20001 H 45.849812 45.476698 Z M 192.2699,156.15761 c -0.38148,-0.38148 -0.6936,-0.92712 -0.6936,-1.21254 0,-0.38956 -9.99664,-24.63531 -13.77273,-33.40424 -1.20993,-2.80971 -1.66094,-3.87551 -2.33477,-5.51724 -1.30351,-3.17597 -2.49738,-6.03763 -3.22247,-7.72415 -0.26092,-0.6069 -3.78421,-9.048284 -7.82954,-18.758642 -4.04533,-9.71035 -7.63349,-18.281068 -7.97369,-19.046028 -0.34021,-0.764966 -0.61855,-1.504364 -0.61855,-1.643109 0,-0.138744 -0.5171,-1.399767 -1.14912,-2.802262 -1.40867,-3.12596 -0.57351,-1.151788 -8.76063,-20.708462 -7.36255,-17.586981 -7.20754,-17.145817 -6.16451,-17.546069 l 0.69818,-0.267913 h 11.64117 11.64116 l 14.80552,12.881491 14.33444,17.356623 0.47107,47.305501 c 0.28358,28.47794 -0.0851,51.78064 -0.18916,51.78064 -0.10404,0 -0.50128,-0.31212 -0.88277,-0.6936 z"
           id="path227"
           sodipodi:nodetypes="ccsssscccccssssssccccccccccccccsssssssssssssssssssccccssssssssssscccccsss" /></g><path
         style="font-weight:bold;font-size:57.3333px;line-height:0.7;font-family:'Liberation Sans';-inkscape-font-specification:'Liberation Sans Bold';letter-spacing:0.96px;word-spacing:0px;display:inline;fill-rule:evenodd;stroke-width:4.42393"
         d="m 112.76341,226.64564 q 0,6.49396 -2.56183,11.34954 -2.53207,4.82583 -7.20894,7.38767 -4.647063,2.56183 -10.664402,2.56183 H 75.348569 v -41.97253 h 15.192335 q 10.604846,0 16.413696,5.36201 5.80881,5.33219 5.80881,15.31148 z m -8.8473,0 q 0,-6.76208 -3.51508,-10.30694 -3.515097,-3.57467 -10.038852,-3.57467 h -6.225865 v 28.38881 h 7.447223 q 5.659846,0 8.996234,-3.90236 3.33634,-3.90235 3.33634,-10.60484 z m 51.03704,-7.38765 q 0,4.05131 -1.84689,7.23868 -1.84694,3.18743 -5.30246,4.94495 -3.42569,1.72777 -8.16212,1.72777 h -10.42611 v 14.77529 h -8.78769 v -41.97253 h 18.85631 q 7.53659,0 11.58789,3.48529 4.08107,3.45552 4.08107,9.80055 z m -8.84731,0.149 q 0,-6.61312 -7.80467,-6.61312 h -9.0856 v 13.61349 h 9.32392 q 3.63423,0 5.60029,-1.78734 1.96606,-1.81713 1.96606,-5.21303 z m 42.87492,28.53774 -10.54529,-16.71153 -10.54522,16.71153 h -9.29417 l 14.53699,-22.07354 -13.31564,-19.899 h 9.29413 l 9.32391,14.83488 9.32393,-14.83488 h 9.23455 l -12.74961,19.899 13.97097,22.07354 z"
         id="text1"
         aria-label="DPX" /></g><g
       id="rect23"
       style="display:inline"><rect
         style="display:inline;fill:url(#linearGradient23);fill-opacity:0.834379;stroke:none;stroke-width:4.99999;stroke-linecap:square;stroke-dasharray:none;stroke-opacity:1"
         id="rect20"
         width="30.128031"
         height="11.286353"
         x="177.19191"
         y="53.347572" /><path
         style="color:#000000;display:inline;fill:url(#linearGradient25);stroke-linecap:square;stroke-linejoin:bevel;-inkscape-stroke:none"
         d="m 174.15254,15.119046 40.91592,41.955358 H 174.814 Z"
         id="path25" /><g
         id="g27"><path
           id="rect27"
           style="display:inline;fill:#0a6db5;fill-opacity:0.459222;stroke-width:4.99999;stroke-linecap:square;stroke-linejoin:bevel"
           d="m 182.94047,23.245534 33.07293,33.82887 -33.07293,-0.09449 z"
           sodipodi:nodetypes="cccc" /><path
           id="path27"
           style="display:inline;fill:#1882cf;fill-opacity:0.459222;stroke-width:4.99999;stroke-linecap:square;stroke-linejoin:bevel"
           d="m 175.28645,49.514879 34.91556,0.188989 4.67746,7.087054 -39.68751,-0.472471 z"
           sodipodi:nodetypes="ccccc" /></g><path
         style="color:#000000;display:inline;fill:url(#linearGradient27);stroke-linecap:square;stroke-linejoin:bevel;-inkscape-stroke:none"
         d="m 175.94141,13.373047 -4.28907,1.785156 6.5e-4,44.600911 c 0,0 29.8634,-0.184895 43.41537,-0.184895 l 1.78906,-4.246094 z m 1.4286,7.056744 34.22551,34.144428 h -34.32013 z"
         id="path26"
         sodipodi:nodetypes="cccccccccc" /></g></g></svg>
