<?xml version="1.0" encoding="UTF-8" standalone="no"?>
<!-- Created with Inkscape (http://www.inkscape.org/) -->

<svg
   width="256mm"
   height="256mm"
   viewBox="0 0 256 256"
   version="1.1"
   id="svg1"
   inkscape:version="1.3.2 (091e20ef0f, 2023-11-25)"
   sodipodi:docname="inode-vnd.kde.service.pulse-source.svg"
   xml:space="preserve"
   xmlns:inkscape="http://www.inkscape.org/namespaces/inkscape"
   xmlns:sodipodi="http://sodipodi.sourceforge.net/DTD/sodipodi-0.dtd"
   xmlns:xlink="http://www.w3.org/1999/xlink"
   xmlns="http://www.w3.org/2000/svg"
   xmlns:svg="http://www.w3.org/2000/svg"
   xmlns:rdf="http://www.w3.org/1999/02/22-rdf-syntax-ns#"
   xmlns:cc="http://creativecommons.org/ns#"
   xmlns:dc="http://purl.org/dc/elements/1.1/"><defs
     id="defs1"><linearGradient
       id="linearGradient26"
       inkscape:collect="always"><stop
         style="stop-color:#000000;stop-opacity:1;"
         offset="0"
         id="stop26" /><stop
         style="stop-color:#000000;stop-opacity:0;"
         offset="1"
         id="stop27" /></linearGradient><linearGradient
       id="linearGradient2"
       inkscape:collect="always"><stop
         style="stop-color:#000000;stop-opacity:1;"
         offset="0"
         id="stop10" /><stop
         style="stop-color:#000000;stop-opacity:0;"
         offset="1"
         id="stop19" /></linearGradient><radialGradient
       inkscape:collect="always"
       xlink:href="#linearGradient2"
       id="radialGradient19"
       cx="124.21611"
       cy="80.304047"
       fx="124.21611"
       fy="80.304047"
       r="1.3029389"
       gradientTransform="matrix(5.2757506,-0.52766214,0.69860538,6.9849021,-587.43771,-416.61077)"
       gradientUnits="userSpaceOnUse" /><radialGradient
       inkscape:collect="always"
       xlink:href="#linearGradient26"
       id="radialGradient27"
       cx="126.82653"
       cy="56.195557"
       fx="126.82653"
       fy="56.195557"
       r="7.8889346"
       gradientTransform="matrix(2.0694889,-0.05082979,0.02175014,0.88553864,-138.89834,10.146078)"
       gradientUnits="userSpaceOnUse" /><radialGradient
       inkscape:collect="always"
       xlink:href="#linearGradient26"
       id="radialGradient28"
       gradientUnits="userSpaceOnUse"
       gradientTransform="matrix(1.3372276,1.5802501,-1.0323183,0.87356069,19.154806,-202.92996)"
       cx="134.64062"
       cy="53.727509"
       fx="134.64062"
       fy="53.727509"
       r="7.8889346" /><linearGradient
       gradientTransform="matrix(0.0041,-0.0118,-0.008,-0.0028,35.731034,29.05)"
       gradientUnits="userSpaceOnUse"
       id="gradient4"
       spreadMethod="pad"
       x1="-819.20001"
       x2="819.20001"><stop
         offset="0.0"
         stop-color="#9999cc"
         id="stop127" /><stop
         offset="0.20392156862745098"
         stop-color="#ff9933"
         id="stop129" /><stop
         offset="0.4823529411764706"
         stop-color="#ffff99"
         id="stop131" /><stop
         offset="1.0"
         stop-color="#ffcc66"
         id="stop133" /></linearGradient><linearGradient
       gradientTransform="matrix(0.0157,0.0157,0.0181,-0.0181,51.131034,36.15)"
       gradientUnits="userSpaceOnUse"
       id="gradient5"
       spreadMethod="pad"
       x1="-819.20001"
       x2="819.20001"><stop
         offset="0.0"
         stop-color="#333333"
         id="stop136" /><stop
         offset="0.3686274509803922"
         stop-color="#666666"
         id="stop138" /><stop
         offset="0.7215686274509804"
         stop-color="#cccccc"
         id="stop140" /><stop
         offset="1.0"
         stop-color="#cccccc"
         id="stop142" /></linearGradient><radialGradient
       cx="0"
       cy="0"
       gradientTransform="matrix(0.0218,0,0,0.0218,43.381034,29.3)"
       gradientUnits="userSpaceOnUse"
       id="gradient6"
       r="819.20001"
       spreadMethod="pad"><stop
         offset="0.0"
         stop-color="#dddddd"
         id="stop145" /><stop
         offset="0.5137254901960784"
         stop-color="#666666"
         id="stop147" /><stop
         offset="1.0"
         stop-color="#9999ff"
         id="stop149" /></radialGradient></defs><sodipodi:namedview
     id="base"
     pagecolor="#ffffff"
     bordercolor="#000000"
     borderopacity="0.3"
     inkscape:pageopacity="0.0"
     inkscape:pageshadow="2"
     inkscape:zoom="0.98994949"
     inkscape:cx="505.07627"
     inkscape:cy="476.792"
     inkscape:document-units="mm"
     inkscape:showpageshadow="2"
     inkscape:pagecheckerboard="0"
     inkscape:deskcolor="#d1d1d1"
     inkscape:current-layer="svg1" /><metadata
     id="metadata1"><rdf:RDF><cc:Work
         rdf:about=""><dc:format>image/svg+xml</dc:format><dc:type
           rdf:resource="http://purl.org/dc/dcmitype/StillImage" /><cc:license
           rdf:resource="http://creativecommons.org/publicdomain/zero/1.0/" /></cc:Work><cc:License
         rdf:about="http://creativecommons.org/publicdomain/zero/1.0/"><cc:permits
           rdf:resource="http://creativecommons.org/ns#Reproduction" /><cc:permits
           rdf:resource="http://creativecommons.org/ns#Distribution" /><cc:permits
           rdf:resource="http://creativecommons.org/ns#DerivativeWorks" /></cc:License></rdf:RDF></metadata><g
     id="g2"
     transform="matrix(3.104908,0,0,3.104908,-211.1444,2.2804574)"
     style="fill:#0f80d0;fill-opacity:1"><path
       id="path4154"
       d="m 109.67579,0.02116778 c -3.08041,0.0047401 -6.14334,0.39186083 -9.13648,1.11070342 -3.708852,0.8948359 -7.258001,2.3920065 -10.626697,4.1714199 2.443886,0.6735512 4.001056,3.2845788 3.826156,5.7650859 0.06197,2.682967 0.123941,5.365935 0.185912,8.048902 3.529216,-2.976926 8.072929,-4.465674 12.575259,-5.176266 4.81962,-0.602987 9.83507,0.0091 14.23902,2.112589 3.71562,1.694582 6.84452,4.424664 9.55711,7.435467 -1.05551,0.627614 -1.9054,1.905711 -1.29035,3.120978 0.5833,1.415635 2.35938,1.292282 3.58927,1.78122 4.37467,1.182652 8.72169,2.497251 13.11353,3.598052 1.55397,0.102484 2.69517,-1.595293 2.1779,-3.021435 -0.85472,-4.947749 -1.60331,-9.922498 -2.52353,-14.853615 -0.55496,-1.488919 -2.68393,-1.839921 -3.69911,-0.636755 -0.63419,0.682602 -1.25472,1.189386 -1.75076,0.09431 C 136.25424,9.3686997 131.62579,6.0321317 126.5594,3.7260637 121.26873,1.3286519 115.50564,-0.10192723 109.67579,0.02116778 Z"
       style="fill:#0f80d0;fill-opacity:1" /><path
       id="path4162"
       d="m 134.82659,32.581988 c 1.04427,6.144338 0.90725,12.781714 -2.09293,18.391717 -1.63107,2.998217 -3.86169,5.661561 -6.62304,7.682782 -3.96513,2.966438 -8.74575,4.843562 -13.64935,5.472922 -1.14766,-0.0079 -1.1634,-0.576325 -1.12125,-1.536391 0.16048,-1.747182 -2.01083,-2.914936 -3.4321,-1.938386 -4.38244,2.824804 -8.838816,5.57379 -13.175404,8.445566 -1.174134,1.0427 -0.674403,3.014224 0.731593,3.610491 1.887384,1.058391 3.670391,2.50996 5.591151,3.625616 2.80741,1.630661 6.72392,4.902302 8.65208,4.47293 1.3905,-0.198278 1.91655,-1.697203 1.70432,-2.932288 6.85955,-0.07632 13.69068,-2.046075 19.46847,-5.759689 6.55153,-4.113957 11.82965,-10.206424 15.11919,-17.197686 2.13316,-4.636207 3.48274,-9.654372 3.56603,-14.773806 0.0425,-1.979479 -0.075,-3.967646 -0.38503,-5.922952 -1.80553,1.394454 -4.27389,1.347449 -6.32987,0.572058 -2.67456,-0.737615 -5.3496,-1.475333 -8.02386,-2.212884 z"
       sodipodi:nodetypes="ccccccccacccccccc"
       style="fill:#0f80d0;fill-opacity:1" /><path
       id="path4156"
       d="m 87.811469,8.320162 c -1.709531,0.4800948 -3.245251,1.5097984 -4.886705,2.205479 -3.355228,1.645682 -6.763504,3.202821 -10.086313,4.902632 -0.964743,0.753372 -1.124865,2.177222 -0.279517,3.077667 0.730919,0.753777 1.756253,1.132203 2.613496,1.72282 -3.8463,6.090285 -5.291412,13.474759 -4.838245,20.609089 0.333737,5.462437 1.826825,10.854953 4.309492,15.729095 3.465256,6.616851 8.76983,12.285954 15.268931,15.990983 0.812137,0.26325 1.566241,0.581188 1.110644,-0.536944 -0.194973,-1.851437 -0.377016,-4.105663 1.25522,-5.396214 2.20463,-1.723939 4.700241,-3.058385 7.034107,-4.604737 C 94.507136,60.104608 90.682629,56.288955 87.991341,51.943043 85.80103,48.429532 84.510078,44.368103 84.281912,40.229202 83.999366,35.778055 85.09175,31.3457 86.975234,27.33159 88.349978,28.455318 90.719621,27.256841 90.50781,25.459312 90.369944,20.282001 90.371097,15.095069 90.145447,9.9238334 89.750261,8.962967 88.906238,8.2581556 87.811469,8.320162 Z"
       style="fill:#0f80d0;fill-opacity:1" /></g><g
     id="g3"
     transform="matrix(3.0337163,0,0,3.0337163,36.885888,63.817386)"><path
       inkscape:connector-curvature="0"
       style="fill:url(#gradient4);fill-rule:evenodd;stroke:none"
       id="path64"
       d="m 27.281034,27.2 q -1.3,4 -0.45,7.4 0.85,3.45 3.5,4.5 l 6.85,2.35 6.65,-19.4 -6.65,-2.2 -0.2,-0.15 q -2.7,-0.75 -5.5,1.4 -2.8,2.2 -4.2,6.1" /><path
       style="fill:none;stroke:#996600;stroke-width:1.25;stroke-linecap:round;stroke-linejoin:round"
       inkscape:connector-curvature="0"
       id="path66"
       d="m 27.281034,27.2 q 1.4,-3.9 4.2,-6.1 2.8,-2.15 5.5,-1.4 l 0.2,0.15 6.65,2.2 -6.65,19.4 -6.85,-2.35 q -2.65,-1.05 -3.5,-4.5 -0.85,-3.4 0.45,-7.4 z" /><path
       style="fill:#666666;fill-rule:evenodd;stroke:none"
       inkscape:connector-curvature="0"
       id="path68"
       d="m 38.681034,23.9 q -2.9,2.2 -4.25,6.2 -1.4,4 -0.45,7.5 0.95,3.55 3.65,4.45 2.7,0.9 5.6,-1.25 2.9,-2.2 4.25,-6.2 1.4,-4.05 0.45,-7.5 -0.95,-3.55 -3.65,-4.45 -2.65,-0.9 -5.6,1.25" /><path
       style="fill:none;stroke:#333333;stroke-width:1.25;stroke-linecap:round;stroke-linejoin:round"
       inkscape:connector-curvature="0"
       id="path70"
       d="m 38.681034,23.9 q 2.95,-2.15 5.6,-1.25 2.7,0.9 3.65,4.45 0.95,3.45 -0.45,7.5 -1.35,4 -4.25,6.2 -2.9,2.15 -5.6,1.25 -2.7,-0.9 -3.65,-4.45 -0.95,-3.5 0.45,-7.5 1.35,-4 4.25,-6.2 z" /><path
       inkscape:connector-curvature="0"
       style="fill:url(#gradient5);fill-rule:evenodd;stroke:none"
       id="path72"
       d="m 34.931034,30.55 q -2.9,8.55 -0.25,16.2 2.6,7.65 9.35,9.9 6.8,2.3 13.6,-2.1 6.8,-4.35 9.75,-12.85 2.9,-8.45 0.25,-16.15 -2.7,-7.65 -9.4,-10 -6.75,-2.3 -13.55,2.1 -6.8,4.35 -9.75,12.9" /><path
       style="fill:none;stroke:#333333;stroke-width:1.25;stroke-linecap:round;stroke-linejoin:round"
       inkscape:connector-curvature="0"
       id="path74"
       d="m 34.931034,30.55 q 2.95,-8.55 9.75,-12.9 6.8,-4.4 13.55,-2.1 6.7,2.35 9.4,10 2.65,7.7 -0.25,16.15 -2.95,8.5 -9.75,12.85 -6.8,4.4 -13.6,2.1 -6.75,-2.25 -9.35,-9.9 -2.65,-7.65 0.25,-16.2 z" /><path
       inkscape:connector-curvature="0"
       style="fill:url(#gradient6);fill-rule:evenodd;stroke:none"
       id="path76"
       d="m 39.281034,32.05 q -1.45,4.25 -0.2,8.05 1.3,3.85 4.55,4.95 3.3,1.1 6.65,-1.1 3.35,-2.25 4.8,-6.5 1.45,-4.2 0.2,-8.05 -1.25,-3.8 -4.5,-4.9 -3.3,-1.15 -6.7,1.1 -3.3,2.2 -4.8,6.45" /><path
       style="fill:none;stroke:#333333;stroke-width:1.25;stroke-linecap:round;stroke-linejoin:round"
       inkscape:connector-curvature="0"
       id="path78"
       d="m 39.281034,32.05 q 1.5,-4.25 4.8,-6.45 3.4,-2.25 6.7,-1.1 3.25,1.1 4.5,4.9 1.25,3.85 -0.2,8.05 -1.45,4.25 -4.8,6.5 -3.35,2.2 -6.65,1.1 -3.25,-1.1 -4.55,-4.95 -1.25,-3.8 0.2,-8.05 z" /><path
       style="fill:none;stroke:#999999;stroke-width:1.25;stroke-linecap:round;stroke-linejoin:round"
       inkscape:connector-curvature="0"
       id="path80"
       d="m 41.731034,49.85 q 3.15,2.45 7.2,1.9 5.15,-0.65 9.55,-6.25 4.55,-5.85 4.35,-13.75" /><path
       style="fill:none;stroke:#ffffff;stroke-width:1.25;stroke-linecap:round;stroke-linejoin:round"
       inkscape:connector-curvature="0"
       id="path82"
       d="m 51.531034,47.4 q 4.4,-1.9 6.1,-6.75" /><path
       style="fill:none;stroke:#ffffff;stroke-width:1.25;stroke-linecap:round;stroke-linejoin:round"
       inkscape:connector-curvature="0"
       id="path84"
       d="m 54.481034,52.8 q 6.95,-3.7 9.6,-10.65" /></g><g
     id="g91767"
     transform="matrix(3.3974498,0,0,3.3974498,-84.295407,-150.02932)"><path
       style="color:#000000;opacity:1;fill:#f9c47a;fill-opacity:1;fill-rule:evenodd;stroke-width:0.352676;stroke-linecap:round;stroke-linejoin:round;-inkscape-stroke:none;paint-order:stroke fill markers"
       d="m 44.639215,81.600759 c -0.06713,0.379394 -0.325243,0.662148 -0.166268,1.47052 0.334122,1.616884 -2.357347,4.905106 -0.814132,8.672099 0.934113,2.280175 1.57574,5.368255 7.053445,3.900509 6.997464,-1.874965 5.72863,-6.584528 7.077416,-9.537917 1.393033,-3.050273 5.584054,-3.448359 8.006514,-12.367971 0.68174,-2.51021 1.84329,-4.955474 1.61282,-7.761284 -0.23046,-2.805849 -1.66586,-5.846977 -4.757327,-9.565346 -3.388467,-4.075586 -6.54124,-5.815914 -9.342583,-5.971212 -0.124714,-0.0069 -0.249401,-0.0106 -0.37362,-0.01085 v -2e-6 c -3.850772,-0.0076 -7.445694,3.133751 -9.677962,6.018237 -0.87671,1.148525 -1.902745,2.227152 -2.395203,3.548104 -0.492456,1.320953 -0.230949,3.024428 0.459403,4.368726 0.128184,0.249605 0.336424,0.488133 0.455786,0.716752 0.513761,0.741509 0.810282,0.872497 1.238425,2.017922 2.7045,7.235445 2.560483,9.204704 1.623286,14.501713 z"
       id="path87731"
       sodipodi:nodetypes="scssssssssscsscss" /><path
       id="rect1"
       style="opacity:1;fill:url(#radialGradient19);stroke-width:1.98;stroke-miterlimit:2.1"
       d="m 125.7002,70.458928 4.46895,1.648709 v 0.868626 0.868626 c -0.61249,0.98834 -0.64525,2.477309 -1.59144,3.304434 -1.31366,1.148354 -1.53637,3.459612 -4.3642,3.181874 -0.98728,-0.413697 -1.02051,-1.238369 -0.71931,-2.207102 0.3012,-0.968733 0.93682,-2.081528 1.28726,-3.071472 -2.01881,-3.200502 -0.42831,-3.809706 0.91874,-4.593695 z"
       sodipodi:nodetypes="ccccscscc"
       transform="translate(-77.473036,0.52979656)" /><path
       style="color:#000000;fill:#000000;fill-rule:evenodd;stroke-width:0.352676;stroke-linecap:round;stroke-linejoin:round;-inkscape-stroke:none;paint-order:stroke fill markers"
       d="m 48.273232,70.855965 c -0.688818,0.01177 -1.262294,0.350247 -1.617989,0.889868 -0.680079,1.031745 -0.449979,1.912727 -0.120406,2.610177 0.164784,0.348725 0.352252,0.657267 0.461987,0.922424 0.109739,0.265158 0.22498,0.469971 0.115239,0.652674 -0.477672,0.795243 -1.199952,2.15505 -1.268657,3.331062 -0.03435,0.588007 0.06835,1.139661 0.490926,1.447974 0.422573,0.308313 1.927294,0.124125 2.160075,0.06615 0.01121,-0.0028 0.01825,-0.0141 0.0155,-0.02532 -0.0028,-0.01121 -0.01411,-0.01776 -0.02532,-0.01499 -0.226821,0.05649 -1.722765,0.168678 -2.07791,-0.09043 -0.355147,-0.259116 -0.473734,-0.709637 -0.441316,-1.264522 0.06484,-1.109771 0.786493,-2.576374 1.253153,-3.353284 0.150543,-0.250629 0.06947,-0.534635 -0.04909,-0.821138 -0.118572,-0.286503 -0.397596,-0.661423 -0.557071,-0.998905 -0.318947,-0.674967 -0.444507,-1.382843 0.198954,-2.35903 0.32512,-0.493242 0.835375,-0.794868 1.465543,-0.805635 0.630169,-0.01077 2.096294,0.799084 2.23759,0.924491 0.0068,0.006 0.01718,0.0057 0.02325,-10e-4 0.0061,-0.0068 0.0058,-0.01718 -10e-4,-0.02325 -0.145777,-0.129405 -1.574637,-1.099085 -2.263458,-1.087316 z"
       id="path87729" /><path
       id="path19"
       style="opacity:1;fill:url(#radialGradient27);stroke-width:1.98;stroke-miterlimit:2.1"
       d="m 139.91559,66.065687 c -0.24374,1.670588 -7.46045,-1.420108 -9.28761,-3.992339 -4.22422,-5.946746 -7.22282,-3.605064 -6.31425,-5.028008 2.03793,-3.191668 4.44656,-2.836338 6.74856,-2.956669 4.75289,-0.248443 9.13707,10.031992 8.8533,11.977016 z"
       sodipodi:nodetypes="sssss"
       transform="translate(-77.473036,0.52979656)" /><path
       id="path27"
       style="opacity:1;fill:url(#radialGradient28);stroke-width:1.98;stroke-miterlimit:2.1"
       d="m 139.91559,66.065687 c -0.24374,1.670588 -7.46045,-1.420108 -9.28761,-3.992339 -4.22422,-5.946746 -7.22282,-3.605064 -6.31425,-5.028008 2.03793,-3.191668 4.44656,-2.836338 6.74856,-2.956669 4.75289,-0.248443 9.13707,10.031992 8.8533,11.977016 z"
       sodipodi:nodetypes="sssss"
       transform="translate(-77.473036,0.52979656)" /><path
       style="color:#000000;fill:#000000;fill-rule:evenodd;stroke-width:0.352676;stroke-linecap:round;stroke-linejoin:round;-inkscape-stroke:none;paint-order:stroke fill markers"
       d="m 52.716372,54.09213 c -1.589428,-0.01256 -3.24534,0.658326 -4.675167,1.644344 -1.702288,1.173908 -2.381,2.850873 -2.428276,4.693771 -0.04728,1.842897 0.511707,3.863372 1.248503,5.834269 0.616061,1.647936 2.647046,2.286215 2.733166,2.315104 0.122315,0.04103 -0.03956,-0.113017 -0.192236,-0.19327 -1.07272,-0.563874 -1.879621,-1.163518 -2.302702,-2.178678 -0.274806,-0.735094 -0.52221,-1.491801 -0.721403,-2.242757 0.558837,0.374626 4.985408,2.077866 7.677051,3.199805 1.362563,0.567946 2.972517,1.658133 3.847827,2.443778 0.875309,0.785644 1.355262,1.62898 1.363741,2.836519 0.0069,0.983103 -0.3067,1.726187 -0.639237,2.219503 -0.332539,0.493318 -0.797412,0.808815 -1.351339,1.031979 -1.107857,0.446326 -2.550314,0.484584 -3.732589,0.788582 -2.233541,0.57431 -3.605598,1.862523 -4.303613,3.133142 -0.349005,0.635308 -0.483674,1.274073 -0.579809,1.806608 -0.09614,0.532537 -0.03599,1.079665 -0.01344,1.158586 0.0096,0.03333 0.04418,0.05246 0.07751,0.04289 0.03322,-0.0096 0.0042,-0.119171 -0.0052,-0.152445 -0.04673,-1.427181 0.287534,-2.099203 0.906921,-3.129008 0.690599,-1.148419 1.877102,-2.058636 3.989937,-2.601909 1.098176,-0.282373 2.609196,-0.119799 3.834392,-0.613399 0.612597,-0.2468 1.169775,-0.618871 1.564245,-1.204061 0.394469,-0.585189 0.832651,-1.372394 0.825273,-2.423108 -0.0095,-1.344351 -0.696426,-2.393989 -1.639693,-3.240629 -0.943266,-0.84664 -2.413412,-1.768289 -3.797185,-2.345076 -2.767545,-1.153575 -7.543872,-2.727457 -7.982975,-3.05201 -0.02059,-0.01524 -0.04821,-0.01266 -0.06666,0.0036 -0.312532,-1.202714 -0.499349,-2.387674 -0.472323,-3.441134 0.02121,-0.826778 0.252354,-1.57919 0.658358,-2.258777 l 0.0093,0.01499 0.227377,0.05168 c 1.01822,0.231715 2.263849,0.632084 3.088183,1.317232 0.879122,0.73601 1.61551,1.884234 1.719275,3.191537 l 0.05581,0.230993 c -0.05378,-1.513349 -0.859423,-2.762205 -1.83503,-3.583243 -1.026664,-0.749671 -2.148821,-1.014031 -3.241146,-1.262456 0.447462,-0.733646 1.100075,-1.381484 1.915128,-1.94355 2.885837,-1.990091 6.098275,-1.623894 8.736935,0.694531 1.595039,1.401456 2.661243,3.62183 3.487126,6.214608 0.551538,1.731495 1.820557,3.234125 2.176611,4.637443 0.412412,1.625442 0.801622,3.601085 0.06976,5.836853 -0.924258,2.823521 -3.893373,6.546462 -4.155302,6.902421 -0.02074,0.02823 -0.01474,0.06809 0.01344,0.08888 0.02825,0.02085 0.06808,0.01487 0.08888,-0.01344 0.255849,-0.347689 3.533015,-4.212688 4.496364,-7.155635 0.77347,-2.362715 0.21891,-4.553056 -0.211311,-6.248696 -0.386714,-1.524121 -1.274102,-2.547389 -1.797306,-4.189925 -0.837757,-2.630064 -1.977892,-5.09368 -3.687114,-6.595463 -1.391644,-1.222752 -2.978686,-2.140738 -4.663281,-2.253093 -0.105287,-0.007 -0.210814,-0.01105 -0.316776,-0.01189 z"
       id="path87727" /><path
       style="color:#000000;fill:#000000;fill-rule:evenodd;stroke-width:0.352676;stroke-linecap:round;stroke-linejoin:round;-inkscape-stroke:none;paint-order:stroke fill markers"
       d="m 52.93548,50.429305 c -3.850772,-0.0076 -7.445694,3.133751 -9.677962,6.018237 -0.87671,1.148525 -1.902745,2.227152 -2.395203,3.548104 -0.492456,1.320953 -0.230949,3.024428 0.459403,4.368726 0.128184,0.249605 0.336424,0.488133 0.455786,0.716752 0.513761,0.741509 0.802314,0.743517 0.377755,0.01034 -0.199717,-0.380501 -0.407033,-0.777324 -0.631486,-1.214396 -0.622508,-1.212188 -0.53491,-2.445498 -0.07183,-3.68763 0.46307,-1.242133 1.309037,-2.475268 2.176095,-3.611149 2.966169,-3.075869 5.610684,-5.783907 9.629386,-5.557284 2.659037,0.149949 5.791495,1.646057 9.127091,5.658053 3.047805,3.665847 4.093425,6.693691 4.315495,9.397359 0.22208,2.703668 -0.47759,5.13201 -1.16065,7.647078 -2.401763,8.843427 -7.561743,8.852188 -8.690973,12.205569 -1.627279,4.832397 -1.27806,7.581674 -6.065617,8.864497 -4.508732,1.208111 -5.286158,-1.057237 -6.397708,-3.665624 -1.534428,-3.600723 0.566972,-6.546085 0.21966,-8.055658 -0.07544,-0.371837 -0.29075,-0.809372 -0.131775,-10e-4 0.334122,1.616884 -2.357347,4.905106 -0.814132,8.672099 0.934113,2.280175 1.57574,5.368255 7.053445,3.900509 6.997464,-1.874965 5.72863,-6.584528 7.077416,-9.537917 1.393033,-3.050273 5.584054,-3.448359 8.006514,-12.367971 0.68174,-2.51021 1.84329,-4.955474 1.61282,-7.761284 -0.23046,-2.805849 -1.66586,-5.846977 -4.757327,-9.565346 -3.388467,-4.075586 -6.54124,-5.815914 -9.342583,-5.971212 -0.124714,-0.0069 -0.249401,-0.0106 -0.37362,-0.01085 z"
       id="path87723" /></g></svg>
