<?xml version="1.0" encoding="UTF-8" standalone="no"?>
<!-- Created with Inkscape (http://www.inkscape.org/) -->

<svg
   width="256mm"
   height="256mm"
   viewBox="0 0 256 256"
   version="1.1"
   id="svg1"
   inkscape:version="1.3.2 (091e20ef0f, 2023-11-25)"
   sodipodi:docname="inode-vnd.kde.service.unknown.svg"
   xml:space="preserve"
   xmlns:inkscape="http://www.inkscape.org/namespaces/inkscape"
   xmlns:sodipodi="http://sodipodi.sourceforge.net/DTD/sodipodi-0.dtd"
   xmlns:xlink="http://www.w3.org/1999/xlink"
   xmlns="http://www.w3.org/2000/svg"
   xmlns:svg="http://www.w3.org/2000/svg"
   xmlns:rdf="http://www.w3.org/1999/02/22-rdf-syntax-ns#"
   xmlns:cc="http://creativecommons.org/ns#"
   xmlns:dc="http://purl.org/dc/elements/1.1/"><defs
     id="defs1"><linearGradient
       id="linearGradient10"
       inkscape:collect="always"><stop
         style="stop-color:#ffffff;stop-opacity:1;"
         offset="0"
         id="stop10" /><stop
         style="stop-color:#ffffff;stop-opacity:0.33610648;"
         offset="0.36986423"
         id="stop15" /><stop
         style="stop-color:#ffffff;stop-opacity:0;"
         offset="0.64812815"
         id="stop12" /><stop
         style="stop-color:#ffffff;stop-opacity:0;"
         offset="0.75489914"
         id="stop13" /><stop
         style="stop-color:#ffffff;stop-opacity:0.87188017;"
         offset="0.88091946"
         id="stop14" /><stop
         style="stop-color:#ffffff;stop-opacity:1;"
         offset="1"
         id="stop11" /></linearGradient><linearGradient
       id="linearGradient5"
       inkscape:collect="always"><stop
         style="stop-color:#ffffff;stop-opacity:0;"
         offset="0"
         id="stop5" /><stop
         style="stop-color:#ffffff;stop-opacity:0;"
         offset="0.85578227"
         id="stop7" /><stop
         style="stop-color:#ffffff;stop-opacity:0.98039216;"
         offset="0.93019056"
         id="stop8" /><stop
         style="stop-color:#ffffff;stop-opacity:0.81863558;"
         offset="0.98556066"
         id="stop9" /><stop
         style="stop-color:#ffffff;stop-opacity:0.67886853;"
         offset="1"
         id="stop6" /></linearGradient><radialGradient
       inkscape:collect="always"
       xlink:href="#linearGradient5"
       id="radialGradient6"
       cx="123.27745"
       cy="226.03101"
       fx="123.27745"
       fy="226.03101"
       r="29.402344"
       gradientTransform="matrix(1.0202145,0.008688,-0.00870212,1.0218711,-0.50836485,-6.1057931)"
       gradientUnits="userSpaceOnUse" /><radialGradient
       inkscape:collect="always"
       xlink:href="#linearGradient10"
       id="radialGradient11"
       cx="44.441452"
       cy="144.92966"
       fx="44.441452"
       fy="144.92966"
       r="64.732453"
       gradientTransform="matrix(1.6589719,0.68892998,-0.91552259,2.2046162,181.2102,-205.6121)"
       gradientUnits="userSpaceOnUse" /></defs><sodipodi:namedview
     id="base"
     pagecolor="#ffffff"
     bordercolor="#000000"
     borderopacity="0.3"
     inkscape:pageopacity="0.0"
     inkscape:pageshadow="2"
     inkscape:zoom="0.98994949"
     inkscape:cx="505.07627"
     inkscape:cy="476.792"
     inkscape:document-units="mm"
     inkscape:showpageshadow="2"
     inkscape:pagecheckerboard="0"
     inkscape:deskcolor="#d1d1d1"
     inkscape:current-layer="svg1" /><metadata
     id="metadata1"><rdf:RDF><cc:Work
         rdf:about=""><dc:format>image/svg+xml</dc:format><dc:type
           rdf:resource="http://purl.org/dc/dcmitype/StillImage" /><cc:license
           rdf:resource="http://creativecommons.org/publicdomain/zero/1.0/" /></cc:Work><cc:License
         rdf:about="http://creativecommons.org/publicdomain/zero/1.0/"><cc:permits
           rdf:resource="http://creativecommons.org/ns#Reproduction" /><cc:permits
           rdf:resource="http://creativecommons.org/ns#Distribution" /><cc:permits
           rdf:resource="http://creativecommons.org/ns#DerivativeWorks" /></cc:License></rdf:RDF></metadata><g
     id="g2"
     transform="matrix(3.104908,0,0,3.104908,-211.1444,2.2804574)"
     style="fill:#0f80d0;fill-opacity:1;stroke:#ff6060;stroke-opacity:1"><path
       id="path4154"
       d="m 109.67579,0.02116778 c -3.08041,0.0047401 -6.14334,0.39186083 -9.13648,1.11070342 -3.708852,0.8948359 -7.258001,2.3920065 -10.626697,4.1714199 2.443886,0.6735512 4.001056,3.2845788 3.826156,5.7650859 0.06197,2.682967 0.123941,5.365935 0.185912,8.048902 3.529216,-2.976926 8.072929,-4.465674 12.575259,-5.176266 4.81962,-0.602987 9.83507,0.0091 14.23902,2.112589 3.71562,1.694582 6.84452,4.424664 9.55711,7.435467 -1.05551,0.627614 -1.9054,1.905711 -1.29035,3.120978 0.5833,1.415635 2.35938,1.292282 3.58927,1.78122 4.37467,1.182652 8.72169,2.497251 13.11353,3.598052 1.55397,0.102484 2.69517,-1.595293 2.1779,-3.021435 -0.85472,-4.947749 -1.60331,-9.922498 -2.52353,-14.853615 -0.55496,-1.488919 -2.68393,-1.839921 -3.69911,-0.636755 -0.63419,0.682602 -1.25472,1.189386 -1.75076,0.09431 C 136.25424,9.3686997 131.62579,6.0321317 126.5594,3.7260637 121.26873,1.3286519 115.50564,-0.10192723 109.67579,0.02116778 Z"
       style="fill:#0f80d0;fill-opacity:1;stroke:#ff6060;stroke-opacity:1" /><path
       id="path4162"
       d="m 134.82659,32.581988 c 1.04427,6.144338 0.90725,12.781714 -2.09293,18.391717 -1.63107,2.998217 -3.86169,5.661561 -6.62304,7.682782 -3.96513,2.966438 -8.74575,4.843562 -13.64935,5.472922 -1.14766,-0.0079 -1.1634,-0.576325 -1.12125,-1.536391 0.16048,-1.747182 -2.01083,-2.914936 -3.4321,-1.938386 -4.38244,2.824804 -8.838816,5.57379 -13.175404,8.445566 -1.174134,1.0427 -0.674403,3.014224 0.731593,3.610491 1.887384,1.058391 3.670391,2.50996 5.591151,3.625616 2.80741,1.630661 6.72392,4.902302 8.65208,4.47293 1.3905,-0.198278 1.91655,-1.697203 1.70432,-2.932288 6.85955,-0.07632 13.69068,-2.046075 19.46847,-5.759689 6.55153,-4.113957 11.82965,-10.206424 15.11919,-17.197686 2.13316,-4.636207 3.48274,-9.654372 3.56603,-14.773806 0.0425,-1.979479 -0.075,-3.967646 -0.38503,-5.922952 -1.80553,1.394454 -4.27389,1.347449 -6.32987,0.572058 -2.67456,-0.737615 -5.3496,-1.475333 -8.02386,-2.212884 z"
       sodipodi:nodetypes="ccccccccacccccccc"
       style="fill:#0f80d0;fill-opacity:1;stroke:#ff6060;stroke-opacity:1" /><path
       id="path4156"
       d="m 87.811469,8.320162 c -1.709531,0.4800948 -3.245251,1.5097984 -4.886705,2.205479 -3.355228,1.645682 -6.763504,3.202821 -10.086313,4.902632 -0.964743,0.753372 -1.124865,2.177222 -0.279517,3.077667 0.730919,0.753777 1.756253,1.132203 2.613496,1.72282 -3.8463,6.090285 -5.291412,13.474759 -4.838245,20.609089 0.333737,5.462437 1.826825,10.854953 4.309492,15.729095 3.465256,6.616851 8.76983,12.285954 15.268931,15.990983 0.812137,0.26325 1.566241,0.581188 1.110644,-0.536944 -0.194973,-1.851437 -0.377016,-4.105663 1.25522,-5.396214 2.20463,-1.723939 4.700241,-3.058385 7.034107,-4.604737 C 94.507136,60.104608 90.682629,56.288955 87.991341,51.943043 85.80103,48.429532 84.510078,44.368103 84.281912,40.229202 83.999366,35.778055 85.09175,31.3457 86.975234,27.33159 88.349978,28.455318 90.719621,27.256841 90.50781,25.459312 90.369944,20.282001 90.371097,15.095069 90.145447,9.9238334 89.750261,8.962967 88.906238,8.2581556 87.811469,8.320162 Z"
       style="fill:#0f80d0;fill-opacity:1;stroke:#ff6060;stroke-opacity:1" /></g><g
     id="g15"
     transform="matrix(0.49211574,0,0,0.49211574,66.549683,57.387441)"><g
       id="g1"
       style="display:inline"><g
         id="g9"><g
           id="path1"><path
             style="color:#000000;fill:#144bb4;stroke-linecap:round;stroke-linejoin:round;stroke-miterlimit:5;-inkscape-stroke:none"
             d="m 151.57557,224.37057 a 30.339699,27.83008 0 0 1 -30.3397,27.83008 30.339699,27.83008 0 0 1 -30.339698,-27.83008 30.339699,27.83008 0 0 1 30.339698,-27.83008 30.339699,27.83008 0 0 1 30.3397,27.83008 z"
             id="path2" /><path
             style="color:#000000;fill:#092764;fill-opacity:0.921569;stroke-linecap:round;stroke-linejoin:round;stroke-miterlimit:5;-inkscape-stroke:none"
             d="m 121.23633,195.42383 c -17.30957,0 -31.457033,12.9194 -31.457033,28.94726 0,16.02787 14.147463,28.94532 31.457033,28.94532 17.30957,0 31.45508,-12.91745 31.45508,-28.94532 0,-16.02786 -14.14551,-28.94726 -31.45508,-28.94726 z m 0,2.23242 c 16.2027,0 29.22265,12.00248 29.22265,26.71484 0,14.71237 -13.01995,26.71289 -29.22265,26.71289 -16.2027,0 -29.224611,-12.00052 -29.224611,-26.71289 0,-14.71236 13.021911,-26.71484 29.224611,-26.71484 z"
             id="path3" /></g><path
           style="color:#000000;fill:url(#radialGradient6);stroke:none;stroke-linecap:round;stroke-linejoin:round;stroke-miterlimit:5;stroke-opacity:0.921569;-inkscape-stroke:none"
           d="m 121.44141,197.50391 c -16.17945,0 -29.402349,12.07326 -29.402348,27.05468 6e-6,14.98142 13.222898,27.05664 29.402348,27.05664 16.17944,1e-5 29.40233,-12.07522 29.40234,-27.05664 0,-14.98142 -13.22289,-27.05469 -29.40234,-27.05468 z m 0,2.08593 c 15.14485,0 27.31445,11.21694 27.31445,24.96875 -1e-5,13.75182 -12.16961,24.97071 -27.31445,24.97071 -15.14485,0 -27.316405,-11.2189 -27.31641,-24.97071 -10e-7,-13.75181 12.17156,-24.96874 27.31641,-24.96875 z"
           id="ellipse1" /></g></g><g
       id="g10"
       style="display:inline"><path
         id="rect1"
         style="display:inline;fill:#144bb4;stroke:#092764;stroke-width:2.247;stroke-linecap:round;stroke-linejoin:round;stroke-miterlimit:5;stroke-opacity:0.921569"
         d="M 85.044644,12.473214 C 147.53925,-9.0123515 200.73702,19.266653 200.27831,53.973 c -1.03223,78.09874 -60.41567,69.1949 -60.29607,116.5839 -0.19763,3.11394 -1.84326,4.0559 -4.04742,4.16004 l -30.736,1.02927 c -2.87564,-0.34304 -6.151934,-0.6286 -6.614919,-4.51658 C 91.900646,107.9885 158.0445,104.36514 148.19071,67.941895 140.75028,40.439306 109.81677,43.526089 76.256698,63.877976 72.959166,65.877703 68.961786,65.254164 68.413692,62.366072 V 21.26116 c 2.117644,-2.766172 9.342192,-5.775531 16.630952,-8.787946 z"
         sodipodi:nodetypes="csccccssccc" /><path
         style="color:#000000;fill:url(#radialGradient11);stroke-linecap:round;stroke-linejoin:round;stroke-miterlimit:5;-inkscape-stroke:none"
         d="M 127.3418,6.7393973 C 113.72734,6.5649462 99.560239,9.8816765 84.467355,15.070591 c -0.02041,0.0072 -0.04061,0.01502 -0.06055,0.02344 -7.004982,2.89513 -11.663852,4.927521 -13.998047,7.976562 -0.142569,0.186905 -0.220079,0.415319 -0.220703,0.650391 l -0.70173,37.88058 c 6.7e-5,0.06817 0.0066,0.136187 0.01953,0.203125 0.09801,0.516448 0.33516,1.012545 0.716797,1.369141 0.381637,0.356596 0.867088,0.540691 1.326172,0.603516 0.918169,0.12565 1.803549,-0.118614 2.736328,-0.466797 1.865558,-0.696367 3.918115,-1.945761 5.501953,-2.90625 15.955003,-9.675616 31.724415,-15.857041 43.961965,-15.101749 12.23756,0.755292 22.80523,9.272709 26.77948,21.306371 3.04624,9.223717 0.74543,17.436241 -3.53376,23.918619 -4.27918,6.482377 -12.71671,13.58257 -19.92206,20.3683 -14.4107,13.57147 -29.773975,26.10969 -26.63564,57.90227 0.001,0.007 0.003,0.0144 0.004,0.0215 0.25495,2.14093 1.42306,3.54498 2.82422,4.19531 1.40116,0.65033 2.92532,0.72832 4.26953,0.88868 0.0622,0.007 0.12494,0.009 0.1875,0.006 l 27.10552,-1.15684 c 0.63683,-0.0301 1.216,-0.14746 1.7207,-0.47656 0.50471,-0.3291 0.83694,-0.86066 0.99805,-1.36914 0.31953,-1.00852 0.25689,-2.05516 0.3457,-3.48828 1.08762,-12.08225 3.18653,-18.17349 8.84669,-25.05606 5.66016,-6.88258 15.96795,-13.8679 23.17907,-20.31373 C 184.3402,109.15716 197.94654,92.593755 198.38226,53.894066 198.57617,36.672081 185.29717,22.180887 164.06641,13.69057 153.45103,9.4454107 140.95625,6.9138485 127.3418,6.7393973 Z m -0.0234,2.1582032 c 13.36536,0 25.60106,2.6546735 35.94922,6.7929695 20.69632,8.276591 33.14107,22.12975 32.96038,38.178105 -0.42995,38.187529 -13.48375,53.826425 -27.74554,66.574685 -7.13089,6.37413 -17.53603,13.41238 -23.40758,20.55201 -5.87156,7.13963 -8.2033,13.74499 -9.32716,26.22989 -8e-4,0.01 -10e-4,0.0195 -0.002,0.0293 -0.0973,1.53322 -0.12856,2.61246 -0.25196,3.00195 -0.0617,0.19474 -0.0744,0.18438 -0.12109,0.21484 -0.0467,0.0305 -0.22687,0.11104 -0.64649,0.13086 -0.003,-1e-5 -0.007,-1e-5 -0.01,0 l -26.99223,1.15098 c -1.3843,-0.16422 -2.69352,-0.29261 -3.55274,-0.69141 -0.87371,-0.40552 -1.40037,-0.91065 -1.58984,-2.49219 -3.055839,-31.02353 11.65074,-42.62223 25.96767,-56.10539 7.1599,-6.74293 15.71287,-13.887565 20.24238,-20.749162 4.52951,-6.861598 7.01182,-16.005678 3.78376,-25.779948 -4.2191,-12.775042 -15.80535,-21.98553 -28.69354,-22.780979 -12.8882,-0.795449 -28.996242,5.574662 -45.211968,15.408389 -1.57718,0.956451 -3.593491,2.153691 -5.138672,2.730469 -0.772591,0.288389 -1.429598,0.38739 -1.691406,0.351562 -0.130904,-0.01791 -0.142959,-0.04163 -0.146485,-0.04492 -0.0025,-0.0024 -0.03022,-0.06953 -0.05273,-0.140625 l 0.699776,-37.28683 c 1.82883,-2.175593 6.122931,-4.289204 12.853516,-7.072266 14.852089,-5.102776 28.767019,-8.2022895 42.124689,-8.2022895 z"
         id="path9"
         sodipodi:nodetypes="sccccccssssssssccssccsscscssssssssccsscccscsssssssccccss" /><path
         id="path15"
         style="display:inline;fill:#ffffff;fill-opacity:0.336842;stroke:none;stroke-width:2.247;stroke-linecap:round;stroke-linejoin:round;stroke-miterlimit:5;stroke-opacity:0.921569"
         d="M 82.587799,12.000744 C 163.76363,-13.640508 195.18388,29.383576 198.97079,40.843076 181.3597,42.877903 159.18772,50.896951 144.78892,62.083264 140.76799,50.605716 122.19765,38.011333 75.689734,65.106399 72.35749,67.047732 67.827857,65.821128 67.279763,62.933036 l 0.188989,-41.955358 c 2.117644,-2.766172 7.830287,-5.964519 15.119047,-8.976934 z"
         sodipodi:nodetypes="cccsccc" /></g></g></svg>
