<?xml version="1.0" encoding="UTF-8" standalone="no"?>
<svg
   width="128"
   height="128"
   viewBox="0 0 128 128"
   version="1.1"
   id="svg45"
   sodipodi:docname="inode-blockdevice.svg"
   inkscape:version="1.3.2 (091e20ef0f, 2023-11-25)"
   xmlns:inkscape="http://www.inkscape.org/namespaces/inkscape"
   xmlns:sodipodi="http://sodipodi.sourceforge.net/DTD/sodipodi-0.dtd"
   xmlns:xlink="http://www.w3.org/1999/xlink"
   xmlns="http://www.w3.org/2000/svg"
   xmlns:svg="http://www.w3.org/2000/svg">
  <defs
     id="defs45" />
  <sodipodi:namedview
     id="namedview45"
     pagecolor="#ffffff"
     bordercolor="#000000"
     borderopacity="0.25"
     inkscape:showpageshadow="2"
     inkscape:pageopacity="0.0"
     inkscape:pagecheckerboard="0"
     inkscape:deskcolor="#d1d1d1"
     inkscape:current-layer="svg45" />
  <linearGradient
     id="d"
     x1="113.492"
     x2="76.112"
     y1="108.742"
     y2="71.362"
     gradientUnits="userSpaceOnUse">
    <stop
       offset="0"
       stop-color="#86e692"
       id="stop1" />
    <stop
       offset="1"
       stop-color="#ffffdc"
       id="stop2" />
  </linearGradient>
  <linearGradient
     id="e"
     x1="115.886"
     x2="74.95"
     y1="111.136"
     y2="70.2"
     gradientUnits="userSpaceOnUse">
    <stop
       offset="0"
       stop-color="#007200"
       id="stop3" />
    <stop
       offset="1"
       stop-color="#00c22b"
       id="stop4" />
  </linearGradient>
  <linearGradient
     id="a">
    <stop
       offset="0"
       stop-color="#006d21"
       id="stop5" />
    <stop
       offset="1"
       stop-color="#0f0"
       id="stop6" />
  </linearGradient>
  <linearGradient
     id="f"
     x1="106.238"
     x2="106.238"
     y1="128.498"
     y2="71"
     gradientUnits="userSpaceOnUse"
     xlink:href="#a" />
  <linearGradient
     id="g"
     x1="91.617"
     x2="94.617"
     y1="105.119"
     y2="61.621"
     gradientUnits="userSpaceOnUse"
     xlink:href="#a" />
  <linearGradient
     id="b">
    <stop
       offset="0"
       stop-color="#fff"
       id="stop7" />
    <stop
       offset="1"
       stop-color="#fff"
       stop-opacity="0"
       id="stop8" />
  </linearGradient>
  <linearGradient
     id="h"
     x1="108.933"
     x2="104.933"
     y1="61.119"
     y2="101.618"
     gradientUnits="userSpaceOnUse"
     xlink:href="#b" />
  <linearGradient
     id="i"
     x1="78.23"
     x2="78.23"
     y1="128.502"
     y2="71.004"
     gradientUnits="userSpaceOnUse"
     xlink:href="#a" />
  <linearGradient
     id="j"
     x1="93.384"
     x2="93.384"
     y1="50.501"
     y2="88"
     gradientUnits="userSpaceOnUse"
     xlink:href="#b" />
  <linearGradient
     id="k"
     x1="54.261"
     x2="16.882"
     y1="103.058"
     y2="65.678"
     gradientUnits="userSpaceOnUse">
    <stop
       offset="0"
       stop-color="#ff904e"
       id="stop9" />
    <stop
       offset="1"
       stop-color="#ffe39a"
       id="stop10" />
  </linearGradient>
  <linearGradient
     id="l"
     x1="56.655"
     x2="15.72"
     y1="105.452"
     y2="64.517"
     gradientUnits="userSpaceOnUse">
    <stop
       offset="0"
       stop-color="#650000"
       id="stop11" />
    <stop
       offset="1"
       stop-color="#ff5600"
       id="stop12" />
  </linearGradient>
  <linearGradient
     id="m"
     x1="18.998"
     x2="18.998"
     y1="116.738"
     y2="62"
     gradientUnits="userSpaceOnUse">
    <stop
       offset="0"
       stop-color="#ff3d00"
       id="stop13" />
    <stop
       offset="1"
       stop-color="#ffbb51"
       id="stop14" />
  </linearGradient>
  <linearGradient
     id="n"
     x1="47.008"
     x2="47.008"
     y1="116.737"
     y2="62.001"
     gradientUnits="userSpaceOnUse">
    <stop
       offset="0"
       stop-color="#ff3000"
       id="stop15" />
    <stop
       offset="1"
       stop-color="#ffbb51"
       id="stop16" />
  </linearGradient>
  <linearGradient
     id="o"
     x1="39.578"
     x2="27.987"
     y1="84.7"
     y2="46.314"
     gradientUnits="userSpaceOnUse">
    <stop
       offset="0"
       stop-color="#ff4e00"
       id="stop17" />
    <stop
       offset="1"
       stop-color="#ffbb51"
       id="stop18" />
  </linearGradient>
  <linearGradient
     id="p"
     x1="48.432"
     x2="44.432"
     y1="55.62"
     y2="96.118"
     gradientUnits="userSpaceOnUse"
     xlink:href="#b" />
  <linearGradient
     id="q"
     x1="32.884"
     x2="32.884"
     y1="44.001"
     y2="81.5"
     gradientUnits="userSpaceOnUse"
     xlink:href="#b" />
  <linearGradient
     id="r"
     x1="85.602"
     x2="48.222"
     y1="59.193"
     y2="21.813"
     gradientUnits="userSpaceOnUse">
    <stop
       offset="0"
       stop-color="#b1dcff"
       id="stop19" />
    <stop
       offset="1"
       stop-color="#e3f0ff"
       id="stop20" />
  </linearGradient>
  <linearGradient
     id="s"
     x1="98.727"
     x2="25.988"
     y1="68.331"
     y2="4.532"
     gradientUnits="userSpaceOnUse">
    <stop
       offset="0"
       stop-color="#00b"
       id="stop21" />
    <stop
       offset="1"
       stop-color="#0095ff"
       id="stop22" />
  </linearGradient>
  <linearGradient
     id="c">
    <stop
       offset="0"
       stop-color="#0095ff"
       id="stop23" />
    <stop
       offset="1"
       stop-color="#00e1ff"
       id="stop24" />
  </linearGradient>
  <linearGradient
     id="t"
     x1="50.339"
     x2="50.339"
     y1="76.962"
     y2="34.001"
     gradientUnits="userSpaceOnUse"
     xlink:href="#c" />
  <linearGradient
     id="u"
     x1="78.348"
     x2="78.348"
     y1="76.959"
     y2="34.001"
     gradientUnits="userSpaceOnUse"
     xlink:href="#c" />
  <linearGradient
     id="v"
     x1="65.892"
     x2="65.892"
     y1="46.119"
     y2="13.534"
     gradientUnits="userSpaceOnUse"
     xlink:href="#c" />
  <linearGradient
     id="w"
     x1="80.432"
     x2="76.432"
     y1="10.119"
     y2="50.618"
     gradientUnits="userSpaceOnUse"
     xlink:href="#b" />
  <linearGradient
     id="x"
     x1="64.883"
     x2="64.883"
     y1="-1.5"
     y2="35.999"
     gradientUnits="userSpaceOnUse"
     xlink:href="#b" />
  <path
     fill="url(#d)"
     d="m64.681 101.596v-31.121l32.128-17.708 25.739 23.367v30.938l-32.493 17.705z"
     id="path24" />
  <path
     fill="url(#e)"
     d="m96.413 52.049-32.129 17.707c-.262.145-.424.42-.424.719v31.121c0 .23.097.45.267.606l25.374 23.184c.259.236.639.282.947.114l32.492-17.707c.265-.143.43-.42.43-.721v-30.938c0-.231-.099-.452-.27-.608l-25.74-23.367c-.26-.236-.64-.28-.947-.11zm.278 1.721c.831.755 24.516 22.257 25.035 22.727v30.087c-.82.447-30.566 16.657-31.55 17.192-.827-.754-24.16-22.073-24.674-22.543 0-.699 0-29.341 0-30.273.815-.448 30.208-16.648 31.189-17.19z"
     id="path25" />
  <path
     fill="url(#f)"
     d="m91.268 95.335-.02 27.086 29.959-16.112.021-29.24-28.731 15.062s-.787.558-1.018 1.507c-.229.951-.211 1.697-.211 1.697z"
     id="path26" />
  <path
     fill="url(#g)"
     d="m96.596 54.488 23.994 22.057-28.101 14.727s-1.085.364-1.778.302c-.692-.065-1.539-.766-1.539-.766l-22.198-19.878z"
     id="path27" />
  <path
     fill="url(#h)"
     d="m119.951 79.214-26.109 13.688s-.738.523-.955 1.412c-.215.893-.197 1.592-.197 1.592l-.005 13.916c1.281.195 2.713-7.085 12.636-9.83 12.012-3.323 14.826-19.696 14.63-20.778z"
     id="path28" />
  <path
     fill="url(#i)"
     d="m90.115 108.434-.009-13.379s.016-.747-.208-1.697c-.222-.95-.98-1.506-.98-1.506l-22.376-19.816-.207-.183.022 29.238 23.767 21.049z"
     id="path29" />
  <path
     fill="url(#j)"
     d="m69.143 72.1 2.966 2.656c6.27 3.232 15.043 5.244 24.761 5.244 7.792 0 14.979-1.293 20.755-3.471l-21.257-19.541z"
     id="path30" />
  <path
     fill="url(#k)"
     d="m5.45 95.911v-31.12l32.128-17.707 25.739 23.365v30.938l-32.493 17.706z"
     id="path31" />
  <path
     fill="url(#l)"
     d="m37.182 46.365-32.128 17.707c-.262.145-.424.419-.424.719v31.12c0 .231.097.45.268.606l25.373 23.185c.259.235.639.282.945.114l32.494-17.708c.266-.143.43-.42.43-.721v-30.938c0-.23-.098-.451-.271-.607l-25.739-23.366c-.259-.236-.64-.281-.948-.111zm.279 1.722c.83.754 24.517 22.256 25.036 22.726v30.086c-.822.448-30.567 16.658-31.551 17.193-.827-.755-24.16-22.074-24.674-22.544 0-.697 0-29.34 0-30.272.815-.448 30.207-16.649 31.189-17.189z"
     id="path32" />
  <path
     fill="url(#m)"
     d="m30.876 89.369.018 27.088-23.767-21.05-.023-29.238 22.584 19.998s.758.556.981 1.507c.223.95.207 1.695.207 1.695z"
     id="path33" />
  <path
     fill="url(#n)"
     d="m32.037 89.65-.021 27.087 29.961-16.112.021-29.24-28.731 15.062s-.785.557-1.017 1.508c-.229.951-.213 1.695-.213 1.695z"
     id="path34" />
  <path
     fill="url(#o)"
     d="m37.365 48.804 23.993 22.058-28.1 14.727s-1.083.364-1.776.302c-.694-.064-1.54-.766-1.54-.766l-22.198-19.878z"
     id="path35" />
  <path
     fill="url(#p)"
     d="m59.451 73.714-26.109 13.688s-.738.523-.955 1.412c-.215.893-.197 1.592-.197 1.592l-.005 13.916c1.281.195 2.713-7.085 12.636-9.83 12.012-3.323 14.826-19.696 14.63-20.778z"
     id="path36" />
  <path
     fill="url(#q)"
     d="m8.643 65.6 2.966 2.656c6.27 3.232 15.043 5.244 24.761 5.244 7.792 0 14.979-1.293 20.755-3.471l-21.257-19.541z"
     id="path37" />
  <path
     fill="url(#r)"
     d="m36.79 52.046v-31.12l32.128-17.706 25.74 23.365v30.938l-32.495 17.706z"
     id="path38" />
  <path
     fill="url(#s)"
     d="m68.521 2.5-32.127 17.707c-.262.146-.424.42-.424.72v31.12c0 .232.096.451.267.607l25.373 23.182c.259.236.638.283.945.115l32.495-17.707c.264-.142.43-.42.43-.721v-30.938c0-.232-.099-.453-.27-.608l-25.74-23.367c-.26-.235-.64-.28-.949-.11zm.279 1.722c.831.754 24.518 22.258 25.037 22.728v30.085c-.821.448-30.567 16.657-31.551 17.194-.828-.756-24.159-22.075-24.674-22.543 0-.7 0-29.342 0-30.273.814-.452 30.207-16.65 31.188-17.191z"
     id="path39" />
  <path
     fill="url(#t)"
     d="m62.216 45.505.018 27.087-23.767-21.05-.021-29.238 22.581 19.999s.76.556.982 1.505c.222.95.207 1.697.207 1.697z"
     id="path40" />
  <path
     fill="url(#u)"
     d="m63.376 45.786-.02 27.087 29.961-16.114.023-29.239-28.735 15.063s-.784.556-1.016 1.506c-.23.951-.213 1.697-.213 1.697z"
     id="path41" />
  <path
     fill="url(#v)"
     d="m68.704 4.938 23.996 22.058-28.102 14.728s-1.083.364-1.776.3-1.541-.765-1.541-.765l-22.197-19.877z"
     id="path42" />
  <path
     fill="url(#w)"
     d="m91.451 28.214-26.109 13.688s-.738.523-.955 1.412c-.215.893-.197 1.592-.197 1.592l-.005 13.916c1.281.195 2.713-7.085 12.636-9.83 12.012-3.323 14.826-19.696 14.63-20.778z"
     id="path43" />
  <path
     fill="url(#x)"
     d="m40.643 20.1 2.966 2.656c6.27 3.232 15.043 5.244 24.761 5.244 7.792 0 14.979-1.293 20.755-3.471l-21.257-19.541z"
     id="path44" />
  <path
     fill="none"
     d="m128 128h-128v-128h128z"
     id="path45" />
</svg>
