<?xml version="1.0" encoding="UTF-8" standalone="no"?>
<!-- Created with Inkscape (http://www.inkscape.org/) -->

<svg
   width="256mm"
   height="256mm"
   viewBox="0 0 256 256"
   version="1.1"
   id="svg1"
   inkscape:version="1.3.2 (091e20ef0f, 2023-11-25)"
   sodipodi:docname="inode-vnd.kde.service.daap.svg"
   xml:space="preserve"
   xmlns:inkscape="http://www.inkscape.org/namespaces/inkscape"
   xmlns:sodipodi="http://sodipodi.sourceforge.net/DTD/sodipodi-0.dtd"
   xmlns="http://www.w3.org/2000/svg"
   xmlns:svg="http://www.w3.org/2000/svg"
   xmlns:rdf="http://www.w3.org/1999/02/22-rdf-syntax-ns#"
   xmlns:cc="http://creativecommons.org/ns#"
   xmlns:dc="http://purl.org/dc/elements/1.1/"><defs
     id="defs1"><linearGradient
       gradientTransform="matrix(0.0041,-0.0118,-0.008,-0.0028,35.731034,29.05)"
       gradientUnits="userSpaceOnUse"
       id="gradient4"
       spreadMethod="pad"
       x1="-819.20001"
       x2="819.20001"><stop
         offset="0.0"
         stop-color="#9999cc"
         id="stop127" /><stop
         offset="0.20392156862745098"
         stop-color="#ff9933"
         id="stop129" /><stop
         offset="0.4823529411764706"
         stop-color="#ffff99"
         id="stop131" /><stop
         offset="1.0"
         stop-color="#ffcc66"
         id="stop133" /></linearGradient><linearGradient
       gradientTransform="matrix(0.0157,0.0157,0.0181,-0.0181,51.131034,36.15)"
       gradientUnits="userSpaceOnUse"
       id="gradient5"
       spreadMethod="pad"
       x1="-819.20001"
       x2="819.20001"><stop
         offset="0.0"
         stop-color="#333333"
         id="stop136" /><stop
         offset="0.3686274509803922"
         stop-color="#666666"
         id="stop138" /><stop
         offset="0.7215686274509804"
         stop-color="#cccccc"
         id="stop140" /><stop
         offset="1.0"
         stop-color="#cccccc"
         id="stop142" /></linearGradient><radialGradient
       cx="0"
       cy="0"
       gradientTransform="matrix(0.0218,0,0,0.0218,43.381034,29.3)"
       gradientUnits="userSpaceOnUse"
       id="gradient6"
       r="819.20001"
       spreadMethod="pad"><stop
         offset="0.0"
         stop-color="#dddddd"
         id="stop145" /><stop
         offset="0.5137254901960784"
         stop-color="#666666"
         id="stop147" /><stop
         offset="1.0"
         stop-color="#9999ff"
         id="stop149" /></radialGradient></defs><sodipodi:namedview
     id="base"
     pagecolor="#ffffff"
     bordercolor="#000000"
     borderopacity="0.3"
     inkscape:pageopacity="0.0"
     inkscape:pageshadow="2"
     inkscape:zoom="0.98994949"
     inkscape:cx="505.07627"
     inkscape:cy="476.792"
     inkscape:document-units="mm"
     inkscape:showpageshadow="2"
     inkscape:pagecheckerboard="0"
     inkscape:deskcolor="#d1d1d1"
     inkscape:current-layer="svg1" /><metadata
     id="metadata1"><rdf:RDF><cc:Work
         rdf:about=""><dc:format>image/svg+xml</dc:format><dc:type
           rdf:resource="http://purl.org/dc/dcmitype/StillImage" /><cc:license
           rdf:resource="http://creativecommons.org/publicdomain/zero/1.0/" /></cc:Work><cc:License
         rdf:about="http://creativecommons.org/publicdomain/zero/1.0/"><cc:permits
           rdf:resource="http://creativecommons.org/ns#Reproduction" /><cc:permits
           rdf:resource="http://creativecommons.org/ns#Distribution" /><cc:permits
           rdf:resource="http://creativecommons.org/ns#DerivativeWorks" /></cc:License></rdf:RDF></metadata><g
     id="g2"
     transform="matrix(3.104908,0,0,3.104908,-211.1444,2.2804574)"
     style="fill:#0f80d0;fill-opacity:1"><path
       id="path4154"
       d="m 109.67579,0.02116778 c -3.08041,0.0047401 -6.14334,0.39186083 -9.13648,1.11070342 -3.708852,0.8948359 -7.258001,2.3920065 -10.626697,4.1714199 2.443886,0.6735512 4.001056,3.2845788 3.826156,5.7650859 0.06197,2.682967 0.123941,5.365935 0.185912,8.048902 3.529216,-2.976926 8.072929,-4.465674 12.575259,-5.176266 4.81962,-0.602987 9.83507,0.0091 14.23902,2.112589 3.71562,1.694582 6.84452,4.424664 9.55711,7.435467 -1.05551,0.627614 -1.9054,1.905711 -1.29035,3.120978 0.5833,1.415635 2.35938,1.292282 3.58927,1.78122 4.37467,1.182652 8.72169,2.497251 13.11353,3.598052 1.55397,0.102484 2.69517,-1.595293 2.1779,-3.021435 -0.85472,-4.947749 -1.60331,-9.922498 -2.52353,-14.853615 -0.55496,-1.488919 -2.68393,-1.839921 -3.69911,-0.636755 -0.63419,0.682602 -1.25472,1.189386 -1.75076,0.09431 C 136.25424,9.3686997 131.62579,6.0321317 126.5594,3.7260637 121.26873,1.3286519 115.50564,-0.10192723 109.67579,0.02116778 Z"
       style="fill:#0f80d0;fill-opacity:1" /><path
       id="path4162"
       d="m 134.82659,32.581988 c 1.04427,6.144338 0.90725,12.781714 -2.09293,18.391717 -1.63107,2.998217 -3.86169,5.661561 -6.62304,7.682782 -3.96513,2.966438 -8.74575,4.843562 -13.64935,5.472922 -1.14766,-0.0079 -1.1634,-0.576325 -1.12125,-1.536391 0.16048,-1.747182 -2.01083,-2.914936 -3.4321,-1.938386 -4.38244,2.824804 -8.838816,5.57379 -13.175404,8.445566 -1.174134,1.0427 -0.674403,3.014224 0.731593,3.610491 1.887384,1.058391 3.670391,2.50996 5.591151,3.625616 2.80741,1.630661 6.72392,4.902302 8.65208,4.47293 1.3905,-0.198278 1.91655,-1.697203 1.70432,-2.932288 6.85955,-0.07632 13.69068,-2.046075 19.46847,-5.759689 6.55153,-4.113957 11.82965,-10.206424 15.11919,-17.197686 2.13316,-4.636207 3.48274,-9.654372 3.56603,-14.773806 0.0425,-1.979479 -0.075,-3.967646 -0.38503,-5.922952 -1.80553,1.394454 -4.27389,1.347449 -6.32987,0.572058 -2.67456,-0.737615 -5.3496,-1.475333 -8.02386,-2.212884 z"
       sodipodi:nodetypes="ccccccccacccccccc"
       style="fill:#0f80d0;fill-opacity:1" /><path
       id="path4156"
       d="m 87.811469,8.320162 c -1.709531,0.4800948 -3.245251,1.5097984 -4.886705,2.205479 -3.355228,1.645682 -6.763504,3.202821 -10.086313,4.902632 -0.964743,0.753372 -1.124865,2.177222 -0.279517,3.077667 0.730919,0.753777 1.756253,1.132203 2.613496,1.72282 -3.8463,6.090285 -5.291412,13.474759 -4.838245,20.609089 0.333737,5.462437 1.826825,10.854953 4.309492,15.729095 3.465256,6.616851 8.76983,12.285954 15.268931,15.990983 0.812137,0.26325 1.566241,0.581188 1.110644,-0.536944 -0.194973,-1.851437 -0.377016,-4.105663 1.25522,-5.396214 2.20463,-1.723939 4.700241,-3.058385 7.034107,-4.604737 C 94.507136,60.104608 90.682629,56.288955 87.991341,51.943043 85.80103,48.429532 84.510078,44.368103 84.281912,40.229202 83.999366,35.778055 85.09175,31.3457 86.975234,27.33159 88.349978,28.455318 90.719621,27.256841 90.50781,25.459312 90.369944,20.282001 90.371097,15.095069 90.145447,9.9238334 89.750261,8.962967 88.906238,8.2581556 87.811469,8.320162 Z"
       style="fill:#0f80d0;fill-opacity:1" /></g><g
     inkscape:label="Ebene 1"
     id="layer1"
     transform="matrix(0.15767552,0,0,0.15767552,-26.8096,37.139553)"><g
       id="g16"
       style="display:inline"
       transform="matrix(1.7534252,0,0,1.7534252,-1674.6746,10.565585)"><path
         style="fill:#231f20;fill-opacity:1;fill-rule:nonzero;stroke:none"
         d="m 1619.3952,459.5433 v 131.30461 h -35.7251 V 459.5433 h -48.3754 v -25.65184 h 131.7731 v 25.65184"
         id="path15" /><path
         style="fill:#231f20;fill-opacity:1;fill-rule:nonzero;stroke:none"
         d="m 1479.54,590.84791 h 35.7242 V 433.91489 H 1479.54 Z"
         id="path14" /><path
         style="fill:#231f20;fill-opacity:1;fill-rule:nonzero;stroke:none"
         d="m 1414.2977,590.84791 -3.7482,-10.65898 c -5.2663,6.79364 -15.4614,13.35301 -40.1762,13.35301 h -17.6869 c -30.5714,0 -47.3212,-9.24872 -47.3212,-42.75306 v -78.59536 c 0,-40.99609 31.3913,-41.46461 53.1778,-41.46461 h 42.0503 c 15.9299,0 29.8685,3.04542 36.7793,6.79363 v 20.14665 h -80.938 c -9.4876,0 -15.3442,2.34264 -15.3442,15.10999 v 81.75791 l 15.11,12.76736 h 24.949 l 25.1833,-5.62232 v -36.54509 h -33.6168 V 502.0621 h 68.4049 v 88.78581 z"
         id="path13" /><path
         style="fill:#231f20;fill-opacity:1;fill-rule:nonzero;stroke:none"
         d="m 1232.275,590.84791 h 35.7168 V 433.91489 h -35.7168 z"
         id="path12" /><path
         id="path2016"
         style="fill:#231f20;fill-opacity:1;fill-rule:nonzero;stroke:none"
         d="m 1061.8487,434.00819 v 156.83985 h 87.7305 c 31.0398,0 45.4472,-9.25272 45.4472,-43.57227 v -73.55859 c 0,-25.65181 -11.7126,-39.70899 -43.9238,-39.70899 z m 35.8418,25.88672 h 47.6719 l 13.9394,14.28906 v 77.07422 c 0,11.01505 -4.6843,13.9375 -14.1719,13.9375 h -47.4394 z" /><path
         style="fill:#231f20;fill-opacity:1;fill-rule:nonzero;stroke:none;stroke-width:117.132"
         d="M 1852.253,590.8526 V 434.01328 h 35.608 v 130.1333 h 73.9101 v 26.70602"
         id="path10" /><path
         id="path2020"
         style="fill:#231f20;fill-opacity:1;fill-rule:nonzero;stroke:none;stroke-width:117.132"
         d="m 1720.9483,432.49061 -57.2773,158.36134 h 31.8593 l 13.3536,-40.29297 h 62.5488 l 13.5859,40.29297 h 36.4297 l -57.9805,-158.36134 z m 18.5078,21.20118 h 0.8184 l 2.1094,9.37109 20.498,61.25977 h -45.5645 l 19.9122,-61.25977 z" /></g><path
       id="path6"
       style="fill:#231f20;fill-opacity:1;fill-rule:nonzero;stroke:none;stroke-width:117.132"
       d="M 1028.1989,96.709361 V 596.70937 h 727.8437 V 96.709361 Z m 85.9746,64.738279 h 82.8125 c 86.2088,0 158.2441,84.68633 158.2441,184.48243 0,102.8415 -72.0353,185.88867 -158.2441,185.88867 h -82.8125 z m 472.9785,0 h 83.0449 v 370.3711 h -83.0449 c -86.3259,0 -158.1289,-83.04728 -158.1289,-185.88867 0,-99.796 71.803,-184.48243 158.1289,-184.48243 z" /><g
       id="g17"
       style="display:none"><path
         style="fill:#231f20;fill-opacity:1;fill-rule:nonzero;stroke:none;stroke-width:117.132"
         d="m 2250.0322,107.80155 -66.7651,118.06873 -64.5395,-118.06873 h -60.44 c 11.2447,20.02952 90.4257,165.2728 90.4257,165.2728 v 95.93085 h 64.8909 c 0.1172,-13.00162 0,-95.46232 0,-95.46232 0,0 82.2265,-145.59468 93.8225,-165.74133 z"
         id="path2024" /><path
         style="fill:#231f20;fill-opacity:1;fill-rule:nonzero;stroke:none;stroke-width:117.132"
         d="m 1689.2057,107.68442 h -60.3228 V 369.0052 h 171.8322 v -43.57298 h -111.5094 z"
         id="path5" /><path
         id="path4"
         style="fill:#231f20;fill-opacity:1;fill-rule:nonzero;stroke:none;stroke-width:117.132"
         d="m 1058.335,107.68397 v 261.32032 h 143.252 c 70.7475,0 96.9844,-28.11041 96.9844,-103.89454 v -57.51172 c 0,-71.91877 -29.8686,-99.91406 -106.3555,-99.91406 z m 60.3223,38.30274 h 74.0273 c 20.9666,0 46.0332,11.59653 46.0332,54.23242 v 71.09765 c 0,45.79845 -25.0666,57.27735 -46.0332,57.27735 h -74.0273 z" /><path
         id="path2"
         style="fill:#231f20;fill-opacity:1;fill-rule:nonzero;stroke:none;stroke-width:117.132"
         d="m 1460.7999,103.2328 c -39.4734,0 -67.9382,5.27223 -89.959,19.09375 -22.9578,14.40718 -33.7324,38.65289 -33.7324,76.60352 v 82.22656 c 0,37.95063 11.245,63.60179 33.5,76.36914 18.0382,12.18168 47.4384,18.03906 90.1914,18.03906 42.2845,0 72.5042,-5.97434 89.7226,-17.6875 22.3721,-13.70438 33.9668,-39.94139 33.9668,-76.7207 v -82.22656 c 0,-36.07652 -11.3604,-61.84499 -33.9668,-76.72071 -18.2726,-12.53308 -49.3122,-18.97656 -89.7226,-18.97656 z m 0,41.11328 c 46.6183,0 63.1328,9.72276 63.1328,54.93555 v 78.24414 c 0,46.26696 -16.5145,56.92578 -63.1328,56.92578 -46.5013,0 -63.1348,-10.65882 -63.1348,-56.92578 v -78.24414 c 0,-45.21279 16.6335,-54.93555 63.1348,-54.93555 z" /><path
         id="path2032"
         style="fill:#231f20;fill-opacity:1;fill-rule:nonzero;stroke:none;stroke-width:117.132"
         d="m 1833.7471,107.68397 v 261.32032 h 126.8536 c 39.0047,0 55.1675,-7.61179 62.5468,-12.64844 13.0016,-8.31634 29.752,-26.942 29.752,-56.81055 0,-35.02233 -12.5324,-70.1615 -72.1524,-68.87305 47.4383,-4.21673 57.6289,-26.93938 57.6289,-59.50195 0,-28.81437 -12.2995,-43.45705 -26.0039,-51.65625 -11.4789,-7.0279 -25.0661,-11.83008 -53.2949,-11.83008 z m 60.5567,37.48242 h 59.2676 c 20.1465,0 32.6796,15.57855 32.6796,36.89649 0,32.79683 -16.1628,33.49888 -62.5468,35.25586 v 30.2207 c 41.3474,0 74.4941,-2.57573 74.4941,39.24024 0,21.08368 -13.5875,44.1582 -49.5469,44.1582 h -54.3476 z" /></g></g><g
     id="g3"
     transform="matrix(3.0337163,0,0,3.0337163,-77.705316,-32.363397)"><path
       inkscape:connector-curvature="0"
       style="fill:url(#gradient4);fill-rule:evenodd;stroke:none"
       id="path64"
       d="m 27.281034,27.2 q -1.3,4 -0.45,7.4 0.85,3.45 3.5,4.5 l 6.85,2.35 6.65,-19.4 -6.65,-2.2 -0.2,-0.15 q -2.7,-0.75 -5.5,1.4 -2.8,2.2 -4.2,6.1" /><path
       style="fill:none;stroke:#996600;stroke-width:1.25;stroke-linecap:round;stroke-linejoin:round"
       inkscape:connector-curvature="0"
       id="path66"
       d="m 27.281034,27.2 q 1.4,-3.9 4.2,-6.1 2.8,-2.15 5.5,-1.4 l 0.2,0.15 6.65,2.2 -6.65,19.4 -6.85,-2.35 q -2.65,-1.05 -3.5,-4.5 -0.85,-3.4 0.45,-7.4 z" /><path
       style="fill:#666666;fill-rule:evenodd;stroke:none"
       inkscape:connector-curvature="0"
       id="path68"
       d="m 38.681034,23.9 q -2.9,2.2 -4.25,6.2 -1.4,4 -0.45,7.5 0.95,3.55 3.65,4.45 2.7,0.9 5.6,-1.25 2.9,-2.2 4.25,-6.2 1.4,-4.05 0.45,-7.5 -0.95,-3.55 -3.65,-4.45 -2.65,-0.9 -5.6,1.25" /><path
       style="fill:none;stroke:#333333;stroke-width:1.25;stroke-linecap:round;stroke-linejoin:round"
       inkscape:connector-curvature="0"
       id="path70"
       d="m 38.681034,23.9 q 2.95,-2.15 5.6,-1.25 2.7,0.9 3.65,4.45 0.95,3.45 -0.45,7.5 -1.35,4 -4.25,6.2 -2.9,2.15 -5.6,1.25 -2.7,-0.9 -3.65,-4.45 -0.95,-3.5 0.45,-7.5 1.35,-4 4.25,-6.2 z" /><path
       inkscape:connector-curvature="0"
       style="fill:url(#gradient5);fill-rule:evenodd;stroke:none"
       id="path72"
       d="m 34.931034,30.55 q -2.9,8.55 -0.25,16.2 2.6,7.65 9.35,9.9 6.8,2.3 13.6,-2.1 6.8,-4.35 9.75,-12.85 2.9,-8.45 0.25,-16.15 -2.7,-7.65 -9.4,-10 -6.75,-2.3 -13.55,2.1 -6.8,4.35 -9.75,12.9" /><path
       style="fill:none;stroke:#333333;stroke-width:1.25;stroke-linecap:round;stroke-linejoin:round"
       inkscape:connector-curvature="0"
       id="path74"
       d="m 34.931034,30.55 q 2.95,-8.55 9.75,-12.9 6.8,-4.4 13.55,-2.1 6.7,2.35 9.4,10 2.65,7.7 -0.25,16.15 -2.95,8.5 -9.75,12.85 -6.8,4.4 -13.6,2.1 -6.75,-2.25 -9.35,-9.9 -2.65,-7.65 0.25,-16.2 z" /><path
       inkscape:connector-curvature="0"
       style="fill:url(#gradient6);fill-rule:evenodd;stroke:none"
       id="path76"
       d="m 39.281034,32.05 q -1.45,4.25 -0.2,8.05 1.3,3.85 4.55,4.95 3.3,1.1 6.65,-1.1 3.35,-2.25 4.8,-6.5 1.45,-4.2 0.2,-8.05 -1.25,-3.8 -4.5,-4.9 -3.3,-1.15 -6.7,1.1 -3.3,2.2 -4.8,6.45" /><path
       style="fill:none;stroke:#333333;stroke-width:1.25;stroke-linecap:round;stroke-linejoin:round"
       inkscape:connector-curvature="0"
       id="path78"
       d="m 39.281034,32.05 q 1.5,-4.25 4.8,-6.45 3.4,-2.25 6.7,-1.1 3.25,1.1 4.5,4.9 1.25,3.85 -0.2,8.05 -1.45,4.25 -4.8,6.5 -3.35,2.2 -6.65,1.1 -3.25,-1.1 -4.55,-4.95 -1.25,-3.8 0.2,-8.05 z" /><path
       style="fill:none;stroke:#999999;stroke-width:1.25;stroke-linecap:round;stroke-linejoin:round"
       inkscape:connector-curvature="0"
       id="path80"
       d="m 41.731034,49.85 q 3.15,2.45 7.2,1.9 5.15,-0.65 9.55,-6.25 4.55,-5.85 4.35,-13.75" /><path
       style="fill:none;stroke:#ffffff;stroke-width:1.25;stroke-linecap:round;stroke-linejoin:round"
       inkscape:connector-curvature="0"
       id="path82"
       d="m 51.531034,47.4 q 4.4,-1.9 6.1,-6.75" /><path
       style="fill:none;stroke:#ffffff;stroke-width:1.25;stroke-linecap:round;stroke-linejoin:round"
       inkscape:connector-curvature="0"
       id="path84"
       d="m 54.481034,52.8 q 6.95,-3.7 9.6,-10.65" /></g></svg>
