<?xml version="1.0" encoding="UTF-8" standalone="no"?>
<svg xmlns:xlink="http://www.w3.org/1999/xlink" height="54.05px" width="54.0px" xmlns="http://www.w3.org/2000/svg">
  <g transform="matrix(1, 0, 0, 1, 27.0, 27.0)">
    <path d="M-10.85 4.65 L15.05 16.95 Q21.05 13.6 27.0 10.3 L27.0 -19.1 -2.65 -24.55 -15.4 -21.75 -10.85 4.65" fill="url(#gradient0)" fill-rule="evenodd" stroke="none"/>
    <path d="M-10.25 4.35 L15.05 16.05 25.8 9.9 26.0 -18.3 -2.8 -23.6 -15.05 -21.45 -10.25 4.35" fill="url(#gradient1)" fill-rule="evenodd" stroke="none"/>
    <path d="M15.15 16.15 L26.3 9.95 26.3 -18.55 14.15 -15.3 15.15 16.15" fill="url(#gradient2)" fill-rule="evenodd" stroke="none"/>
    <path d="M-2.8 -23.9 L-14.75 -21.45 14.15 -14.7 26.2 -18.55 -2.8 -23.9" fill="url(#gradient3)" fill-rule="evenodd" stroke="none"/>
    <path d="M14.9 8.15 L-7.75 -0.4 -7.6 1.15 14.95 10.0 14.9 8.15" fill="url(#gradient4)" fill-rule="evenodd" stroke="none"/>
    <path d="M23.7 8.25 Q23.55 9.1 24.15 9.3 24.8 9.5 25.05 8.6 25.35 7.7 24.6 7.5 24.0 7.3 23.7 8.25" fill="#99ff66" fill-rule="evenodd" stroke="none"/>
    <path d="M15.85 -9.95 L16.2 4.95 25.1 0.85 25.1 -13.35 15.85 -9.95 M23.8 -11.4 L23.75 -0.05 17.5 2.85 17.1 -9.0 23.8 -11.4" fill="#666699" fill-rule="evenodd" stroke="none"/>
    <path d="M17.05 -9.1 L17.25 3.5 24.25 0.3 24.25 -11.8 17.05 -9.1" fill="#9999cc" fill-rule="evenodd" stroke="none"/>
    <path d="M17.6 -3.15 L17.6 -1.9 23.8 -4.55 23.8 -5.65 17.6 -3.15" fill="#666699" fill-rule="evenodd" stroke="none"/>
    <path d="M18.2 -6.2 L18.2 -5.1 22.9 -7.05 22.9 -8.05 18.2 -6.2" fill="#666699" fill-rule="evenodd" stroke="none"/>
    <path d="M14.9 8.1 L14.95 10.05 26.4 4.1 26.4 2.5 14.9 8.1" fill="#666699" fill-rule="evenodd" stroke="none"/>
    <path d="M-26.45 17.5 Q-26.45 21.45 -21.55 24.25 -16.7 27.05 -9.75 27.05 -2.85 27.05 2.05 24.25 6.9 21.45 6.9 17.5 6.9 13.55 2.05 10.8 -2.85 8.0 -9.75 8.0 -16.7 8.0 -21.55 10.8 -26.45 13.55 -26.45 17.5" fill="url(#gradient5)" fill-rule="evenodd" stroke="none"/>
    <path d="M-25.35 17.35 Q-25.35 21.0 -20.85 23.55 -16.3 26.15 -9.9 26.15 -3.5 26.15 1.05 23.55 5.6 21.0 5.6 17.35 5.6 13.75 1.05 11.15 -3.5 8.6 -9.9 8.6 -16.3 8.6 -20.85 11.15 -25.35 13.75 -25.35 17.35" fill="url(#gradient6)" fill-rule="evenodd" stroke="none"/>
    <path d="M-1.0 4.65 L-0.1 9.9 -0.35 4.4 -1.0 4.65 -1.35 2.65 Q-2.75 1.95 -3.25 2.2 L-11.2 7.55 Q-12.3 8.0 -12.2 8.3 -10.55 11.55 -9.55 14.75 L-7.8 21.85 -5.35 23.35 Q-0.6 21.9 0.9 20.3 1.05 17.45 0.15 11.6 L-0.1 9.9 -0.1 15.9 Q-2.35 17.95 -6.1 18.85 L-5.4 22.35 -7.05 18.05 Q-7.75 14.25 -8.85 11.55 L-10.35 8.25 -1.0 4.65" fill="url(#gradient7)" fill-rule="evenodd" stroke="none"/>
    <path d="M-0.1 4.45 L-10.6 8.55 Q-7.45 14.35 -6.25 21.1 L-5.25 22.0 Q-0.75 20.4 0.9 18.9 0.9 10.75 -0.1 4.45" fill="url(#gradient8)" fill-rule="evenodd" stroke="none"/>
    <path d="M-18.4 12.9 L6.7 2.1 Q7.8 1.6 7.65 0.15 L4.75 -25.35 Q4.45 -27.35 2.95 -26.9 L-25.1 -21.95 Q-27.55 -21.45 -26.85 -19.3 -26.4 -18.05 -20.0 12.5 -19.55 13.3 -18.4 12.9" fill="url(#gradient9)" fill-rule="evenodd" stroke="none"/>
    <path d="M-17.8 10.15 L6.05 0.6 3.05 -22.4 -22.4 -17.1 -17.8 10.15" fill="url(#gradient10)" fill-rule="evenodd" stroke="none"/>
    <path d="M-18.8 11.65 L-24.45 -19.0 Q-24.15 -20.0 -23.75 -20.15 L2.8 -25.05 Q3.6 -26.25 2.25 -25.95 L-24.75 -20.95 Q-25.65 -20.65 -25.75 -19.3 L-19.5 12.15 Q-19.45 12.55 -19.0 12.4 -18.6 12.3 -18.8 11.65" fill="url(#gradient11)" fill-rule="evenodd" stroke="none"/>
    <path d="M-17.8 10.15 Q-17.8 10.8 -17.15 10.55 L6.8 0.75 6.05 0.55 -17.8 10.15" fill="url(#gradient12)" fill-rule="evenodd" stroke="none"/>
    <path d="M-8.15 15.1 L-6.8 21.0 -5.35 21.9 Q-5.8 16.5 -7.55 10.55 -8.9 9.9 -10.3 9.3 -8.65 13.2 -8.15 15.1" fill="url(#gradient13)" fill-rule="evenodd" stroke="none"/>
  </g>
  <defs>
    <linearGradient gradientTransform="matrix(-0.0259, 0.0, 0.0, 0.0253, 5.8, -3.8)" gradientUnits="userSpaceOnUse" id="gradient0" spreadMethod="pad" x1="-819.2" x2="819.2">
      <stop offset="0.0" stop-color="#666699"/>
      <stop offset="1.0" stop-color="#9999cc"/>
    </linearGradient>
    <linearGradient gradientTransform="matrix(-0.0251, 0.0, 0.0, 0.0242, 5.45, -3.75)" gradientUnits="userSpaceOnUse" id="gradient1" spreadMethod="pad" x1="-819.2" x2="819.2">
      <stop offset="0.0" stop-color="#9999cc"/>
      <stop offset="1.0" stop-color="#eeeeee"/>
    </linearGradient>
    <linearGradient gradientTransform="matrix(0.0, 0.0212, 0.0074, 0.0, 20.25, -1.15)" gradientUnits="userSpaceOnUse" id="gradient2" spreadMethod="pad" x1="-819.2" x2="819.2">
      <stop offset="0.0" stop-color="#6666cc"/>
      <stop offset="1.0" stop-color="#aaaaaa"/>
    </linearGradient>
    <linearGradient gradientTransform="matrix(0.0, 0.0056, 0.025, 0.0, 5.7, -19.3)" gradientUnits="userSpaceOnUse" id="gradient3" spreadMethod="pad" x1="-819.2" x2="819.2">
      <stop offset="0.0" stop-color="#9999cc"/>
      <stop offset="1.0" stop-color="#ffffff"/>
    </linearGradient>
    <linearGradient gradientTransform="matrix(-0.0144, -0.0015, -5.0E-4, 0.0049, 3.6, 4.8)" gradientUnits="userSpaceOnUse" id="gradient4" spreadMethod="pad" x1="-819.2" x2="819.2">
      <stop offset="0.0" stop-color="#9999cc"/>
      <stop offset="1.0" stop-color="#9999cc"/>
    </linearGradient>
    <linearGradient gradientTransform="matrix(0.0, 0.0116, 0.0204, 0.0, -9.8, 17.55)" gradientUnits="userSpaceOnUse" id="gradient5" spreadMethod="pad" x1="-819.2" x2="819.2">
      <stop offset="0.0" stop-color="#9999cc"/>
      <stop offset="1.0" stop-color="#666699"/>
    </linearGradient>
    <radialGradient cx="0" cy="0" gradientTransform="matrix(0.0311, 0.0, 0.0, 0.0311, -18.9, 15.05)" gradientUnits="userSpaceOnUse" id="gradient6" r="819.2" spreadMethod="pad">
      <stop offset="0.0" stop-color="#ffffff"/>
      <stop offset="0.2823529411764706" stop-color="#dddddd"/>
      <stop offset="1.0" stop-color="#9999cc"/>
    </radialGradient>
    <linearGradient gradientTransform="matrix(-0.0059, -0.0057, -0.007, 0.0072, -4.7, 15.05)" gradientUnits="userSpaceOnUse" id="gradient7" spreadMethod="pad" x1="-819.2" x2="819.2">
      <stop offset="0.0" stop-color="#666699"/>
      <stop offset="1.0" stop-color="#9999cc"/>
    </linearGradient>
    <linearGradient gradientTransform="matrix(-0.0027, 0.0108, 0.0081, 0.002, -5.4, 13.15)" gradientUnits="userSpaceOnUse" id="gradient8" spreadMethod="pad" x1="-819.2" x2="819.2">
      <stop offset="0.0" stop-color="#333399"/>
      <stop offset="0.27450980392156865" stop-color="#6666cc"/>
      <stop offset="1.0" stop-color="#999999"/>
    </linearGradient>
    <linearGradient gradientTransform="matrix(-0.0177, -0.0171, -0.0191, 0.0197, -7.75, -5.65)" gradientUnits="userSpaceOnUse" id="gradient9" spreadMethod="pad" x1="-819.2" x2="819.2">
      <stop offset="0.0" stop-color="#6666cc"/>
      <stop offset="1.0" stop-color="#999999"/>
    </linearGradient>
    <radialGradient cx="0" cy="0" gradientTransform="matrix(0.0404, 0.0, 0.0, 0.0404, -8.0, -21.4)" gradientUnits="userSpaceOnUse" id="gradient10" r="819.2" spreadMethod="pad">
      <stop offset="0.0" stop-color="#ccffff"/>
      <stop offset="0.09411764705882353" stop-color="#ccffff"/>
      <stop offset="1.0" stop-color="#0099ff"/>
    </radialGradient>
    <linearGradient gradientTransform="matrix(-0.0121, -0.0117, -0.0182, 0.0189, -5.5, -4.6)" gradientUnits="userSpaceOnUse" id="gradient11" spreadMethod="pad" x1="-819.2" x2="819.2">
      <stop offset="0.0" stop-color="#9999cc"/>
      <stop offset="1.0" stop-color="#ffffff"/>
    </linearGradient>
    <linearGradient gradientTransform="matrix(-0.0141, 0.0075, 9.0E-4, 0.0018, -5.55, 5.7)" gradientUnits="userSpaceOnUse" id="gradient12" spreadMethod="pad" x1="-819.2" x2="819.2">
      <stop offset="0.0" stop-color="#6666cc"/>
      <stop offset="0.0784313725490196" stop-color="#9999cc"/>
      <stop offset="1.0" stop-color="#ffffff"/>
    </linearGradient>
    <linearGradient gradientTransform="matrix(-0.0021, 0.006, 0.0051, 0.0017, -7.85, 15.65)" gradientUnits="userSpaceOnUse" id="gradient13" spreadMethod="pad" x1="-819.2" x2="819.2">
      <stop offset="0.0" stop-color="#9999cc"/>
      <stop offset="1.0" stop-color="#eeeeee"/>
    </linearGradient>
  </defs>
</svg>
