<?xml version="1.0" encoding="UTF-8" standalone="no"?>
<!-- Created with Inkscape (http://www.inkscape.org/) -->

<svg
   width="256mm"
   height="256mm"
   viewBox="0 0 256 256"
   version="1.1"
   id="svg1"
   inkscape:version="1.3.2 (091e20ef0f, 2023-11-25)"
   xml:space="preserve"
   sodipodi:docname="model-vrml.svg"
   xmlns:inkscape="http://www.inkscape.org/namespaces/inkscape"
   xmlns:sodipodi="http://sodipodi.sourceforge.net/DTD/sodipodi-0.dtd"
   xmlns:xlink="http://www.w3.org/1999/xlink"
   xmlns="http://www.w3.org/2000/svg"
   xmlns:svg="http://www.w3.org/2000/svg"
   xmlns:rdf="http://www.w3.org/1999/02/22-rdf-syntax-ns#"
   xmlns:cc="http://creativecommons.org/ns#"
   xmlns:dc="http://purl.org/dc/elements/1.1/"><defs
     id="defs1"><linearGradient
       id="linearGradient26"
       inkscape:collect="always"><stop
         style="stop-color:#7b91c4;stop-opacity:1;"
         offset="0"
         id="stop26" /><stop
         style="stop-color:#5c5e91;stop-opacity:1"
         offset="1"
         id="stop27" /></linearGradient><linearGradient
       id="linearGradient24"
       inkscape:collect="always"><stop
         style="stop-color:#c7fafe;stop-opacity:1;"
         offset="0"
         id="stop24" /><stop
         style="stop-color:#9acdff;stop-opacity:1"
         offset="1"
         id="stop25" /></linearGradient><linearGradient
       id="linearGradient22"
       inkscape:collect="always"><stop
         style="stop-color:#adaeae;stop-opacity:0.8253752;"
         offset="0"
         id="stop22" /><stop
         style="stop-color:#8ac5fe;stop-opacity:0.83628923;"
         offset="1"
         id="stop23" /></linearGradient><linearGradient
       id="linearGradient18"
       inkscape:collect="always"><stop
         style="stop-color:#9797ff;stop-opacity:1;"
         offset="0"
         id="stop18" /><stop
         style="stop-color:#ccccff;stop-opacity:1;"
         offset="0.30000001"
         id="stop20" /><stop
         style="stop-color:#ccccff;stop-opacity:1;"
         offset="1"
         id="stop19" /></linearGradient><linearGradient
       id="linearGradient16"
       inkscape:collect="always"><stop
         style="stop-color:#cdcdcd;stop-opacity:0.17462483;"
         offset="0"
         id="stop16" /><stop
         style="stop-color:#cdcdcd;stop-opacity:1;"
         offset="1"
         id="stop17" /></linearGradient><linearGradient
       id="linearGradient12"
       inkscape:collect="always"><stop
         style="stop-color:#fdfeff;stop-opacity:1;"
         offset="0"
         id="stop13" /><stop
         style="stop-color:#99ccff;stop-opacity:1;"
         offset="1"
         id="stop14" /></linearGradient><linearGradient
       id="linearGradient9"
       inkscape:collect="always"><stop
         style="stop-color:#97c9fc;stop-opacity:1;"
         offset="0"
         id="stop9" /><stop
         style="stop-color:#7788bb;stop-opacity:1"
         offset="0.25"
         id="stop12" /><stop
         style="stop-color:#57578a;stop-opacity:1"
         offset="0.5"
         id="stop11" /><stop
         style="stop-color:#444482;stop-opacity:1;"
         offset="1"
         id="stop10" /></linearGradient><linearGradient
       inkscape:collect="always"
       xlink:href="#linearGradient9"
       id="linearGradient10"
       x1="31.622168"
       y1="100.24049"
       x2="221.19499"
       y2="240.28973"
       gradientUnits="userSpaceOnUse" /><linearGradient
       inkscape:collect="always"
       xlink:href="#linearGradient12"
       id="linearGradient14"
       x1="73.583481"
       y1="62.020954"
       x2="207.02971"
       y2="229.59895"
       gradientUnits="userSpaceOnUse" /><linearGradient
       inkscape:collect="always"
       xlink:href="#linearGradient16"
       id="linearGradient17"
       x1="57.531055"
       y1="26.420616"
       x2="147.13231"
       y2="144.34076"
       gradientUnits="userSpaceOnUse" /><linearGradient
       inkscape:collect="always"
       xlink:href="#linearGradient18"
       id="linearGradient19"
       x1="209.82518"
       y1="58.53635"
       x2="210.58252"
       y2="194.57654"
       gradientUnits="userSpaceOnUse" /><linearGradient
       inkscape:collect="always"
       xlink:href="#linearGradient22"
       id="linearGradient23"
       x1="177.19191"
       y1="58.990749"
       x2="207.31994"
       y2="58.990749"
       gradientUnits="userSpaceOnUse" /><linearGradient
       inkscape:collect="always"
       xlink:href="#linearGradient24"
       id="linearGradient25"
       x1="176.32031"
       y1="20.126524"
       x2="176.32031"
       y2="56.695721"
       gradientUnits="userSpaceOnUse" /><linearGradient
       inkscape:collect="always"
       xlink:href="#linearGradient26"
       id="linearGradient27"
       x1="172.59729"
       y1="13.51158"
       x2="210.54449"
       y2="51.28627"
       gradientUnits="userSpaceOnUse" /><linearGradient
       inkscape:collect="always"
       xlink:href="#linearGradient17-5"
       id="linearGradient18-7"
       x1="107.13263"
       y1="111.03259"
       x2="107.83839"
       y2="153.32539"
       gradientUnits="userSpaceOnUse" /><linearGradient
       id="linearGradient17-5"
       inkscape:collect="always"><stop
         style="stop-color:#4b6101;stop-opacity:0.99215686;"
         offset="0"
         id="stop17-3" /><stop
         style="stop-color:#4b6101;stop-opacity:0.99215686;"
         offset="0.35968339"
         id="stop19-5" /><stop
         style="stop-color:#ade601;stop-opacity:1;"
         offset="0.6824156"
         id="stop20-6" /><stop
         style="stop-color:#ade601;stop-opacity:1;"
         offset="1"
         id="stop18-2" /></linearGradient><linearGradient
       inkscape:collect="always"
       xlink:href="#linearGradient23-1"
       id="linearGradient24-9"
       x1="89.548485"
       y1="121.90799"
       x2="107.89981"
       y2="132.3624"
       gradientUnits="userSpaceOnUse" /><linearGradient
       id="linearGradient23-1"
       inkscape:collect="always"><stop
         style="stop-color:#feff9f;stop-opacity:0.16682927;"
         offset="0"
         id="stop23-2" /><stop
         style="stop-color:#feffbd;stop-opacity:0.60392157;"
         offset="0.5"
         id="stop25-7" /><stop
         style="stop-color:#feffcc;stop-opacity:0.62745098;"
         offset="0.75"
         id="stop26-0" /><stop
         style="stop-color:#feffdb;stop-opacity:0.8204878;"
         offset="1"
         id="stop24-9" /></linearGradient><linearGradient
       inkscape:collect="always"
       xlink:href="#linearGradient28"
       id="linearGradient29"
       x1="109.54159"
       y1="118.61403"
       x2="107.8615"
       y2="137.09497"
       gradientUnits="userSpaceOnUse"
       gradientTransform="matrix(0.91129031,0,0,0.91129031,9.4599671,10.470728)" /><linearGradient
       id="linearGradient28"
       inkscape:collect="always"><stop
         style="stop-color:#d0bf01;stop-opacity:1;"
         offset="0"
         id="stop28" /><stop
         style="stop-color:#d0bf01;stop-opacity:0;"
         offset="1"
         id="stop29" /></linearGradient><linearGradient
       inkscape:collect="always"
       xlink:href="#linearGradient20"
       id="linearGradient22-3"
       x1="109.00562"
       y1="113.0943"
       x2="110.5434"
       y2="137.8047"
       gradientUnits="userSpaceOnUse" /><linearGradient
       id="linearGradient20"
       inkscape:collect="always"><stop
         style="stop-color:#59fc01;stop-opacity:1;"
         offset="0"
         id="stop21" /><stop
         style="stop-color:#f9fc01;stop-opacity:1;"
         offset="1"
         id="stop22-6" /></linearGradient></defs><sodipodi:namedview
     id="base"
     pagecolor="#ffffff"
     bordercolor="#000000"
     borderopacity="0.3"
     inkscape:pageopacity="0.0"
     inkscape:pageshadow="2"
     inkscape:zoom="0.98994949"
     inkscape:cx="505.07627"
     inkscape:cy="476.792"
     inkscape:document-units="mm"
     inkscape:showpageshadow="2"
     inkscape:pagecheckerboard="0"
     inkscape:deskcolor="#d1d1d1"
     inkscape:current-layer="g28"
     showguides="true" /><metadata
     id="metadata1"><rdf:RDF><cc:Work
         rdf:about=""><dc:format>image/svg+xml</dc:format><dc:type
           rdf:resource="http://purl.org/dc/dcmitype/StillImage" /><cc:license
           rdf:resource="http://creativecommons.org/publicdomain/zero/1.0/" /></cc:Work><cc:License
         rdf:about="http://creativecommons.org/publicdomain/zero/1.0/"><cc:permits
           rdf:resource="http://creativecommons.org/ns#Reproduction" /><cc:permits
           rdf:resource="http://creativecommons.org/ns#Distribution" /><cc:permits
           rdf:resource="http://creativecommons.org/ns#DerivativeWorks" /></cc:License></rdf:RDF></metadata><g
     id="g28"
     transform="matrix(1.0481261,0,0,1.0481261,-6.4074194,-6.1384097)"><g
       id="g7"
       inkscape:label="shadow"
       style="display:inline"><path
         id="rect1"
         style="fill:#000000;fill-opacity:0.0602258;stroke-width:3.72791;stroke-linecap:square"
         d="M 48.380952,13.418155 H 179.16071 l 43.46726,43.278274 V 244.17261 H 48.380952 Z"
         sodipodi:nodetypes="cccccc" /><path
         id="path1"
         style="fill:#000000;fill-opacity:0.0752823;stroke-width:3.72791;stroke-linecap:square"
         d="m 47.563027,12.60023 129.443423,-0.133635 43.46726,43.278274 1.33635,187.609821 H 47.563027 Z"
         sodipodi:nodetypes="cccccc" /><path
         id="path2"
         style="fill:#000000;fill-opacity:0.0602258;stroke-width:3.72791;stroke-linecap:square"
         d="m 46.493949,11.793049 128.975701,-0.868626 43.46726,43.278274 1.80407,188.344813 H 46.493949 Z"
         sodipodi:nodetypes="cccccc" /><path
         id="path3"
         style="fill:#000000;fill-opacity:0.0602258;stroke-width:3.72791;stroke-linecap:square"
         d="m 45.964782,12.33296 129.777508,0.467722 43.46726,42.209196 1.00226,187.008462 H 45.964782 Z"
         sodipodi:nodetypes="cccccc" /><path
         id="path4"
         style="fill:#000000;fill-opacity:0.0602258;stroke-width:3.72791;stroke-linecap:square"
         d="m 45.435615,12.338332 129.443415,0.935443 43.46726,41.674657 1.33635,186.540738 H 45.435615 Z"
         sodipodi:nodetypes="cccccc" /><path
         id="path5"
         style="fill:#000000;fill-opacity:0.0602258;stroke-width:3.72791;stroke-linecap:square"
         d="M 44.906448,12.744609 174.8844,13.412783 218.35166,54.151996 219.15347,240.96 H 44.906448 Z"
         sodipodi:nodetypes="cccccc" /><path
         id="path6"
         style="fill:#000000;fill-opacity:0.0602258;stroke-width:3.72791;stroke-linecap:square"
         d="m 44.377281,15.021772 129.911129,0.534539 43.46726,37.932883 0.86863,186.941636 H 44.377281 Z"
         sodipodi:nodetypes="cccccc" /><path
         id="path7"
         style="fill:#000000;fill-opacity:0.0602258;stroke-width:3.72791;stroke-linecap:square"
         d="m 43.848114,13.423527 129.710676,1.069078 43.46726,39.001961 1.06908,186.407094 H 43.848114 Z"
         sodipodi:nodetypes="cccccc" /></g><g
       id="g14"
       style="display:inline"><path
         style="color:#000000;fill:url(#linearGradient14);stroke-linecap:square;-inkscape-stroke:none"
         d="M 46.153822,14.648159 H 173.78301 l 40.90293,41.140298 V 236.0795 H 46.554726 Z"
         id="path15"
         inkscape:label="headbgground" /><path
         id="rect16"
         style="display:inline;fill:url(#linearGradient17);fill-opacity:1;stroke-width:4.99999;stroke-linecap:square"
         d="M 45.435818,14.165285 H 176.70315 l 0.20408,8.220982 H 53.433709 V 235.97952 h -7.997891 z"
         sodipodi:nodetypes="ccccccc" /><path
         id="rect17"
         style="fill:url(#linearGradient19);stroke-width:4.99999;stroke-linecap:square"
         d="M 47.058037,227.91965 H 207.27506 l -0.0668,-168.246312 7.31651,0.0667 0.0668,168.546562 -7.08265,0.0331 v 7.34846 H 47.058037 Z"
         sodipodi:nodetypes="ccccccccc" /><path
         style="color:#000000;fill:url(#linearGradient10);stroke-linecap:square;-inkscape-stroke:none"
         d="M 43.648437,12.148438 44.058594,238.58008 H 217.18555 V 54.757812 L 174.82227,12.148438 Z m 4.608862,4.999999 H 172.74414 l 39.44141,39.671875 V 233.58008 H 48.775405 Z"
         id="path16"
         inkscape:label="headframe"
         sodipodi:nodetypes="cccccccccccc" /></g><g
       id="g2"
       transform="matrix(1.1575522,0,0,1.1575522,-23.902155,88.542663)"
       style="clip-rule:nonzero;display:inline;fill:#00009f;fill-rule:nonzero;stroke:none;stroke-width:0;stroke-miterlimit:4"><g
         stroke-linejoin="round"
         id="g5"
         transform="matrix(1.3215768,0,0,1.3215768,-38.133592,-44.296728)"
         style="stroke:none"><path
           fill="#dd7777"
           d="M 88.941122,0.82204405 98.852525,56.215782 146.9779,44.762604"
           id="path1-6"
           style="stroke:none;stroke-width:1.10127" /><path
           fill="none"
           stroke="#000000"
           d="m 113.11011,-6.1103837 -9.6,46.3999997 30.9,6.4 9.6,-46.39999969 z"
           id="path2-3"
           style="stroke:none" /><path
           fill="#00ff00"
           stroke="#0000ff"
           d="m 124.8,48.5 33.6,9.6 14,-23.5 -4.8,-23 -39,-7 -8.5,24.5 15,-9.6 25,7 -8.5,17.6 -10.7,-3.2 3.2,-8.5 h -14 z"
           id="path3-6"
           style="stroke:none" /><path
           fill="#dbab3f"
           fill-rule="evenodd"
           stroke="#000000"
           d="m 159.70632,4.8 -11.8,52.8 -35.5,-46.4 64.4,46.4 -11.3,-37.4 -77.700003,37.4 z"
           id="path5-3"
           style="stroke:none" /></g></g><g
       id="g12"
       inkscape:label="FreeWRL"
       transform="matrix(1.1079104,0,0,1.1079104,22.011161,32.698067)"
       style="clip-rule:nonzero;display:inline;fill:#00009f;fill-rule:nonzero;stroke:none;stroke-width:0;stroke-miterlimit:4"><g
         id="g30"
         style="stroke:none"><path
           style="display:inline;fill:#ade601;fill-opacity:0.992157;stroke:none;stroke-width:4.22554"
           d="m 119.52144,103.56312 c -1.24886,-1.5048 -0.35917,-6.300276 5.73264,-30.899864 5.96871,-24.102496 7.63133,-29.394557 9.65145,-30.720403 2.62069,-1.720046 6.31136,-0.629985 7.31178,2.159587 0.6806,1.897772 -13.23934,57.70446 -14.88916,59.69236 -1.73259,2.08763 -5.98662,1.96137 -7.80671,-0.23156 z"
           id="path17" /><path
           style="display:inline;fill:#ade601;fill-opacity:0.992157;stroke:none;stroke-width:4.22554"
           d="m 100.26579,103.9468 c -1.355333,-1.00674 -2.171173,-4.211046 -2.917713,-11.459529 -0.56997,-5.534142 -2.18705,-20.558244 -3.59351,-33.386885 -2.50675,-22.864625 -2.51536,-23.355421 -0.43631,-24.875642 2.6203,-1.916027 4.07801,-1.950296 6.51685,-0.153387 1.530333,1.127542 2.444213,6.472337 4.731293,27.670623 4.63446,42.95548 4.50245,40.36852 2.14784,42.09026 -2.56738,1.87732 -4.04004,1.90348 -6.44845,0.11451 z"
           id="path16-0" /><path
           style="display:inline;fill:#ade601;fill-opacity:0.992157;stroke:none;stroke-width:4.22554"
           d="m 81.982447,111.19676 c -2.10924,-1.34275 -27.218895,-42.832183 -27.218895,-44.974572 0,-2.696272 2.714332,-4.727318 5.728428,-4.286425 1.891552,0.276772 5.693165,5.519014 15.669257,21.607444 7.24447,11.68314 13.19174,22.356373 13.21614,23.718313 0.0615,3.43312 -4.42949,5.82304 -7.39493,3.93524 z"
           id="path14" /><path
           style="display:inline;fill:#ade601;fill-opacity:0.992157;stroke:none;stroke-width:4.22554"
           d="m 135.48361,115.18279 c -0.73789,-0.73791 -1.34161,-2.27997 -1.34161,-3.42687 0,-2.29581 29.10452,-37.061491 31.93617,-38.148088 2.66911,-1.024227 6.07604,1.306325 6.07604,4.156406 0,1.60545 -5.13481,8.625966 -14.07674,19.246257 -7.7422,9.195395 -14.8818,17.347765 -15.86577,18.116395 -2.25926,1.76483 -4.99642,1.78757 -6.72809,0.0558 z"
           id="path13-2" /><path
           style="display:inline;fill:#ade601;fill-opacity:0.992157;stroke:none;stroke-width:4.22554"
           d="m 49.451361,130.11198 c -18.546132,-5.74913 -21.397515,-7.40233 -19.35375,-11.22116 1.833738,-3.42636 5.043734,-3.03537 24.561862,2.99185 17.777834,5.48982 20.816584,7.32505 18.432694,11.1323 -1.96622,3.14025 -5.576,2.69695 -23.640806,-2.90299 z"
           id="path12" /><path
           id="rect7-0"
           style="fill:#f9fc01;fill-opacity:1;stroke:none;stroke-width:1.748;stroke-linecap:round;stroke-linejoin:round;stroke-miterlimit:2.1"
           d="m 31.278616,120.16537 c 0.840744,-2.04911 2.393494,-0.62612 7.015064,0.97411 5.434054,1.88156 17.414485,5.80889 22.774645,7.48382 4.61404,1.4418 10.810773,0.95358 9.495486,3.99158 -1.124973,2.59842 -5.268111,1.31673 -10.542661,-0.33712 -5.391327,-1.69049 -18.438078,-6.69683 -22.921901,-7.67553 -3.909811,-0.85341 -6.736557,-2.2045 -5.820633,-4.43686 z"
           sodipodi:nodetypes="sssssss" /><path
           id="path8-6"
           style="fill:#f9fc01;fill-opacity:1;stroke:none;stroke-width:2.22651;stroke-linecap:round;stroke-linejoin:round;stroke-miterlimit:2.1"
           d="m 57.593812,64.610673 c 2.464385,-1.33762 2.820556,1.351415 6.003573,6.744152 3.742596,6.3408 12.171869,20.101429 16.009426,26.176635 3.303367,5.22956 9.693145,9.85072 5.972881,11.77719 -3.181966,1.64772 -6.158638,-3.03529 -9.930334,-9.01908 C 71.794177,94.17328 63.202324,78.465149 59.651881,73.80169 56.555961,69.735236 54.909047,66.067921 57.593812,64.610673 Z"
           sodipodi:nodetypes="sssssss" /><path
           id="path9"
           style="fill:#f9fc01;fill-opacity:1;stroke:none;stroke-width:2.54926;stroke-linecap:round;stroke-linejoin:round;stroke-miterlimit:2.1"
           d="m 95.214581,35.046777 c 2.792921,-0.275557 2.063033,3.13053 2.870143,11.287212 0.948996,9.590651 3.291056,30.569009 4.431846,39.893139 0.98201,8.026236 5.04231,16.982802 0.86254,17.287842 -3.57494,0.26085 -4.47135,-6.936508 -5.58752,-16.115972 -1.140853,-9.382713 -2.866573,-32.776664 -4.298465,-40.258819 -1.248584,-6.524308 -1.32126,-11.79319 1.721426,-12.0934 z"
           sodipodi:nodetypes="sssssss" /><path
           id="path10"
           style="fill:#f9fc01;fill-opacity:1;stroke:none;stroke-width:2.19036;stroke-linecap:round;stroke-linejoin:round;stroke-miterlimit:2.1"
           d="m 137.0625,41.899416 c 2.1628,0.738499 0.59327,3.381069 -1.26272,10.5993 -2.18229,8.487214 -6.75751,27.144687 -8.71669,35.47204 -1.68645,7.168216 -1.36086,16.199914 -4.56529,15.003404 -2.74072,-1.0234 -1.2402,-7.456862 0.69373,-15.652601 1.97679,-8.377197 7.73863,-28.874393 8.92618,-35.736584 1.03552,-5.983711 2.56854,-10.490099 4.92476,-9.685569 z"
           sodipodi:nodetypes="sssssss" /><path
           id="path11"
           style="fill:#f9fc01;fill-opacity:1;stroke:none;stroke-width:1.622;stroke-linecap:round;stroke-linejoin:round;stroke-miterlimit:2.1"
           d="m 167.50731,75.461618 c 1.02287,1.247474 -0.93173,2.54906 -4.80432,6.930278 -4.55342,5.15144 -14.4292,16.55133 -18.78707,21.667574 -3.75125,4.40409 -6.99964,10.78552 -8.4761,8.86618 -1.2628,-1.64162 2.09605,-5.5987 6.38849,-10.63214 4.38748,-5.144867 15.68071,-17.418992 19.01432,-21.780078 2.90685,-3.802795 5.55031,-6.41086 6.66465,-5.051833 z"
           sodipodi:nodetypes="sssssss" /></g><g
         id="g29"
         inkscape:label="eye"
         style="stroke:none"><path
           style="display:inline;fill:url(#linearGradient18-7);fill-opacity:0.992157;stroke:none;stroke-width:4.22554"
           d="M 102.51749,155.16561 C 91.390567,152.2087 83.269387,141.93216 84.150877,131.92444 c 1.25685,-14.26929 16.752573,-23.22109 32.189913,-18.59594 8.95707,2.68359 16.6832,12.57751 16.6832,21.36418 0,14.27339 -15.27082,24.52162 -30.5065,20.47293 z"
           id="path6-1" /><path
           id="rect22"
           style="fill:url(#linearGradient24-9);stroke:none;stroke-width:1.748;stroke-linecap:round;stroke-linejoin:round;stroke-miterlimit:2.1"
           d="m 89.572728,120.41996 c 2.188285,-2.58234 7.153206,-6.64427 9.170455,-4.3608 6.962047,7.88083 13.389407,11.49598 9.840017,16.99684 -3.99564,6.19245 -13.65319,1.74661 -21.998382,-2.20799 -3.200738,-1.51676 0.65025,-7.66943 2.98791,-10.42805 z"
           sodipodi:nodetypes="asasa" /><path
           id="path26-6"
           style="fill:url(#linearGradient29);stroke:none;stroke-width:1.59294;stroke-linecap:round;stroke-linejoin:round;stroke-miterlimit:2.1"
           d="m 127.35049,128.05505 a 18.984969,13.473203 0 0 1 -18.98497,13.4732 18.984969,13.473203 0 0 1 -18.984966,-13.4732 18.984969,13.473203 0 0 1 18.984966,-13.47321 18.984969,13.473203 0 0 1 18.98497,13.47321 z" /><path
           id="circle11"
           style="fill:url(#linearGradient22-3);stroke:none;stroke-width:2.52489;stroke-linecap:round;stroke-linejoin:round;stroke-miterlimit:2.1"
           d="m 131.2146,132.16501 -10.339,1.2759 3.5607,0.9195 -3.6862,0.3255 6.293,1.0977 -6.53578,0.1046 0.71102,0.9362 -1.07098,0.2234 10.45262,5.0942 -10.91738,-3.98972 -0.28479,0.52468 2.74462,2.48487 -3.31419,-1.43552 5.62223,4.79333 -6.37657,-3.87906 0.21683,1.11054 -0.97117,-0.19627 6.78967,6.25777 -7.70394,-5.50343 -0.27893,0.67417 -0.63534,0.0802 2.38592,4.08639 -3.43527,-3.51682 -0.52468,0.28479 4.10852,7.41278 -5.213,-6.94802 0.43,2.25898 -1.5896,-1.89902 1.2022,8.67418 -2.4045,-8.4314 -0.4443,0.5974 -0.8007,-0.4719 -0.1473,5.2899 -1.0977,-5.2899 -0.6225,-0.0627 -0.7413,7.481 -0.5037,-7.6066 -1.1144,3.44342 -0.0452,-3.80338 -0.8174,1.24562 -0.3422,-1.60558 -1.65328,1.97242 0.60393,-2.54199 -5.33608,7.19962 4.28672,-7.76919 -1.34813,0.33563 0.43386,-1.08997 -0.45713,-0.37717 -3.248937,2.11763 2.41463,-2.95193 -1.08997,0.0775 0.33563,-0.99174 -5.78257,3.99787 5.120615,-4.97968 -2.126186,0.72273 1.556615,-1.77208 -6.996986,3.57392 6.53222,-4.6784 -1.486779,-0.1046 1.12682,-1.055 -5.76358,1.024 5.52085,-2.2263 -11.17055,0.2091 11.04505,-1.4541 -0.06275,-0.6225 -7.06525,-0.9195 7.19075,-0.32551 0.06275,-0.6225 -9.26305,-3.2361 9.50578,2.0338 0.17998,-0.5798 -1.899021,-1.17379 2.25898,0.0142 -3.516815,-2.60368 4.086386,1.55432 0.284785,-0.52468 -1.497215,-1.71268 2.15917,0.73087 0.37717,-0.45714 -5.02823,-6.87233 5.78257,5.95807 -0.374461,-1.50577 1.288729,0.75143 -1.859459,-3.34717 2.773729,2.59283 0.52468,-0.28479 -2.326519,-7.70979 3.375869,7.14022 0.52468,-0.28479 -0.6676,-4.87258 1.8272,4.51262 0.57979,-1.84318 0.5798,1.48322 -0.2091,-7.1907 1.45411,7.0652 0.6225,-0.0628 0.5037,-4.6365 0.7413,4.6365 1.0383,-7.3622 0.2067,7.4878 0.8007,-1.3035 0.4016,1.54618 1.4114,-5.04722 -0.2518,5.40718 0.9362,-0.65162 0.16828,1.11639 1.41568,-2.68522 -0.36633,3.25479 4.26688,-6.13041 -3.28506,6.79237 0.81353,-0.098 0.10074,0.85237 3.13013,-2.88983 -2.29583,3.72413 0.37717,0.45714 4.71337,-3.99786 -3.95903,4.91213 7.23459,-5.83112 -6.66502,6.88048 0.28479,0.52467 4.08638,-1.97012 -3.62162,3.0746 0.17998,0.57979 1.30858,0.2828 -0.94862,0.8768 9.3292,-1.0407 -9.2036,2.2857 0.0627,0.62251 z"
           sodipodi:nodetypes="ccccccccccccccccccccccccccccccccccccccccccccccccccccccccccccccccccccccccccccccccccccccccccccccccccccccccccccccccccccccccccccccccc" /><circle
           style="fill:#384a00;fill-opacity:0.992157;stroke:none;stroke-width:1.748;stroke-linecap:round;stroke-linejoin:round;stroke-miterlimit:2.1"
           id="path7-5"
           cx="108.5832"
           cy="132.81841"
           r="8.5536003" /></g></g><path
       d="m 81.268909,232.46805 h 0.433917 v -1.79387 c 0.301624,-0.31221 0.508001,-0.46566 0.814917,-0.46566 0.423333,0 0.592667,0.23282 0.592667,0.71965 v 1.53988 h 0.433917 v -1.59809 c 0,-0.67732 -0.280458,-1.03716 -0.889,-1.03716 -0.402168,0 -0.698501,0.21696 -0.963085,0.50271 h -0.01588 l 0.02645,-0.60854 v -1.02658 h -0.433917 z m 4.767797,0.0635 c 0.322792,0 0.5715,-0.0688 0.804334,-0.15345 l -0.09525,-0.3175 c -0.185209,0.0688 -0.375709,0.11641 -0.619127,0.11641 -0.497416,0 -0.650874,-0.24342 -0.650874,-0.7038 v -1.22237 h 1.264709 V 229.8963 H 85.47579 v -0.82549 h -0.359834 l -0.05821,0.82549 -0.740834,0.0266 v 0.32808 h 0.724959 v 1.21708 c 0,0.635 0.243417,1.06363 0.994834,1.06363 z m 3.175004,0 c 0.322792,0 0.5715,-0.0688 0.804334,-0.15345 l -0.09525,-0.3175 c -0.185209,0.0688 -0.375709,0.11641 -0.619126,0.11641 -0.497417,0 -0.650875,-0.24342 -0.650875,-0.7038 v -1.22237 h 1.264709 v -0.35454 h -1.264709 v -0.82549 H 88.29096 l -0.05821,0.82549 -0.740834,0.0266 v 0.32808 h 0.72496 v 1.21708 c 0,0.635 0.243416,1.06363 0.994833,1.06363 z m 1.582211,1.0213 h 0.433917 v -0.86784 l -0.02117,-0.48684 h 0.01588 c 0.227541,0.21167 0.529167,0.33338 0.767293,0.33338 0.619124,0 1.169458,-0.51329 1.169458,-1.38641 0,-0.79905 -0.370417,-1.31234 -1.063626,-1.31234 -0.3175,0 -0.650875,0.16404 -0.888999,0.39158 h -0.01588 l -0.03704,-0.32808 H 90.79392 Z m 1.121834,-1.38643 c -0.174625,0 -0.4445,-0.0847 -0.687917,-0.30162 v -1.28058 c 0.264583,-0.26458 0.529167,-0.3863 0.756709,-0.3863 0.513292,0 0.724959,0.381 0.724959,0.94722 0,0.635 -0.333375,1.02128 -0.793751,1.02128 z m 3.201463,0.36513 c 0.735542,0 1.143,-0.34925 1.143,-0.76728 0,-0.3916 -0.206375,-0.60856 -1.063625,-0.79376 -0.523876,-0.11113 -0.746126,-0.20638 -0.746126,-0.42863 0,-0.19579 0.153459,-0.37041 0.592667,-0.37041 0.328084,0 0.624417,0.10584 0.862542,0.26987 l 0.211667,-0.28046 c -0.254,-0.17461 -0.645583,-0.32808 -1.037167,-0.32808 -0.703792,0 -1.068917,0.3175 -1.068917,0.73026 0,0.38628 0.338667,0.61382 1.005417,0.75141 0.6985,0.14287 0.804334,0.28046 0.804334,0.47624 0,0.21696 -0.216959,0.40218 -0.650876,0.40218 -0.47625,0 -0.820208,-0.13759 -1.116542,-0.34926 l -0.201083,0.28575 c 0.312208,0.21696 0.761999,0.40217 1.264709,0.40217 z m 3.122087,-1.89441 c 0.238125,0 0.428625,-0.17993 0.428625,-0.4445 0,-0.26988 -0.1905,-0.44979 -0.428625,-0.44979 -0.238125,0 -0.428625,0.17991 -0.428625,0.44979 0,0.26457 0.1905,0.4445 0.428625,0.4445 z m 0,1.89441 c 0.238125,0 0.428625,-0.17992 0.428625,-0.4445 0,-0.26987 -0.1905,-0.44979 -0.428625,-0.44979 -0.238125,0 -0.428625,0.17992 -0.428625,0.44979 0,0.26458 0.1905,0.4445 0.428625,0.4445 z m 2.111385,0.78318 h 0.39158 l 1.73567,-4.60376 h -0.39159 z m 3.175,0 h 0.39158 l 1.73567,-4.60376 h -0.39159 z m 4.33388,-3.13797 c 0.43921,0 0.73025,0.2593 0.76729,0.78845 h -1.64042 c 0.0794,-0.508 0.4498,-0.78845 0.87313,-0.78845 z m 0.0635,2.35479 c 0.41275,0 0.74083,-0.13758 0.99482,-0.30692 l -0.15874,-0.28575 c -0.23284,0.14817 -0.47626,0.24342 -0.78317,0.24342 -0.53446,0 -0.94721,-0.29634 -1.00013,-0.87842 h 2.02671 c 0.0106,-0.0688 0.0211,-0.16404 0.0211,-0.26458 0,-0.72496 -0.4339,-1.2065 -1.17474,-1.2065 -0.68792,0 -1.31233,0.50801 -1.31233,1.34408 0,0.85725 0.61383,1.35467 1.38641,1.35467 z m 1.92087,-0.0635 h 0.43392 v -1.79387 c 0.30163,-0.31221 0.50799,-0.46566 0.81491,-0.46566 0.42333,0 0.59267,0.23282 0.59267,0.71965 v 1.53988 h 0.43392 v -1.59809 c 0,-0.67732 -0.28046,-1.03716 -0.889,-1.03716 -0.40217,0 -0.6985,0.21696 -0.96837,0.50271 h -0.0211 l -0.037,-0.4392 h -0.35984 z m 4.27038,0.0635 c 0.23813,0 0.42863,-0.17992 0.42863,-0.4445 0,-0.26987 -0.1905,-0.44979 -0.42863,-0.44979 -0.23813,0 -0.42863,0.17992 -0.42863,0.44979 0,0.26458 0.1905,0.4445 0.42863,0.4445 z m 2.19075,-0.0635 h 0.56092 l 0.28575,-1.22766 c 0.0422,-0.17993 0.0847,-0.43392 0.127,-0.76201 h 0.0212 c 0.0423,0.32809 0.0847,0.58208 0.127,0.76201 l 0.29634,1.22766 h 0.56092 l 0.55033,-2.57174 h -0.40217 l -0.30691,1.49225 c -0.0476,0.24341 -0.0741,0.46566 -0.11641,0.70908 h -0.0212 c -0.0319,-0.24342 -0.10053,-0.46567 -0.15875,-0.70908 l -0.30692,-1.33351 h -0.43392 l -0.3175,1.33351 c -0.0582,0.23811 -0.11641,0.46566 -0.14817,0.70908 h -0.0211 c -0.0318,-0.24342 -0.0688,-0.46567 -0.11642,-0.70908 l -0.30692,-1.49225 h -0.43392 z m 4.24393,0 h 0.43391 v -2.57174 h -1.62983 v 0.35454 h 1.19592 z m 0.16933,-3.1115 c 0.19579,0 0.34924,-0.1323 0.34924,-0.33866 0,-0.20109 -0.15345,-0.33867 -0.34924,-0.33867 -0.19579,0 -0.34925,0.13758 -0.34925,0.33867 0,0.20636 0.15346,0.33866 0.34925,0.33866 z m 1.89442,3.1115 h 0.43392 v -0.6985 l 0.60854,-0.59796 0.9472,1.29646 h 0.48684 l -1.16417,-1.56103 1.02659,-1.01071 h -0.49742 l -1.38643,1.35465 h -0.0212 v -2.55057 h -0.4339 z m 4.28626,0 h 0.43391 v -2.57174 h -1.62983 v 0.35454 h 1.19592 z m 0.16933,-3.1115 c 0.19579,0 0.34925,-0.1323 0.34925,-0.33866 0,-0.20109 -0.15346,-0.33867 -0.34925,-0.33867 -0.19579,0 -0.34925,0.13758 -0.34925,0.33867 0,0.20636 0.15346,0.33866 0.34925,0.33866 z m 1.82563,4.1963 h 0.43391 v -0.86784 l -0.0212,-0.48684 h 0.0159 c 0.22755,0.21167 0.52917,0.33339 0.7673,0.33339 0.61912,0 1.16946,-0.5133 1.16946,-1.38642 0,-0.79904 -0.37042,-1.31234 -1.06363,-1.31234 -0.3175,0 -0.65088,0.16404 -0.889,0.39158 h -0.0159 l -0.0369,-0.32807 h -0.35981 z m 1.12183,-1.38643 c -0.17462,0 -0.4445,-0.0847 -0.68792,-0.30162 v -1.28058 c 0.26459,-0.26458 0.52917,-0.3863 0.75671,-0.3863 0.5133,0 0.72496,0.381 0.72496,0.94722 0,0.635 -0.33337,1.02128 -0.79375,1.02128 z m 3.2438,-1.98965 c 0.43921,0 0.73025,0.25929 0.76729,0.78844 h -1.64042 c 0.0794,-0.50799 0.44979,-0.78844 0.87313,-0.78844 z m 0.0635,2.35479 c 0.41275,0 0.74083,-0.13759 0.99483,-0.30693 l -0.15875,-0.28575 c -0.23283,0.14817 -0.47625,0.24342 -0.78317,0.24342 -0.53446,0 -0.94721,-0.29634 -1.00012,-0.87842 h 2.02671 c 0.0106,-0.0688 0.0212,-0.16404 0.0212,-0.26458 0,-0.72496 -0.43392,-1.2065 -1.17475,-1.2065 -0.68792,0 -1.31234,0.50801 -1.31234,1.34408 0,0.85725 0.61384,1.35468 1.38642,1.35468 z m 2.86279,0 c 0.3175,0 0.62441,-0.18521 0.83608,-0.40218 h 0.0159 l 0.0371,0.33867 h 0.35983 v -3.76766 h -0.43391 v 0.98954 l 0.0212,0.47624 h -0.0159 c -0.22225,-0.21166 -0.46037,-0.33337 -0.76729,-0.33337 -0.60854,0 -1.16946,0.51858 -1.16946,1.35466 0,0.85726 0.4445,1.3441 1.11654,1.3441 z m 0.09,-0.36514 c -0.47625,0 -0.75671,-0.3704 -0.75671,-0.98424 0,-0.58738 0.35984,-0.98426 0.80434,-0.98426 0.22225,0 0.4445,0.0847 0.67733,0.30163 v 1.28059 c -0.22754,0.25399 -0.47096,0.38628 -0.72496,0.38628 z m 3.32317,0.30163 h 0.43392 v -2.57174 h -1.62984 v 0.35454 h 1.19592 z m 0.16932,-3.1115 c 0.19581,0 0.34926,-0.1323 0.34926,-0.33866 0,-0.20109 -0.15345,-0.33867 -0.34926,-0.33867 -0.19578,0 -0.34924,0.13758 -0.34924,0.33867 0,0.20636 0.15346,0.33866 0.34924,0.33866 z m 2.63527,3.17501 c 0.36513,0 0.73024,-0.1905 1.016,-0.41275 h 0.0159 l 0.0371,0.34924 h 0.35454 v -1.57692 c 0,-0.64028 -0.33867,-1.05833 -1.04246,-1.05833 -0.44979,0 -0.88371,0.20108 -1.143,0.37041 l 0.16933,0.29634 c 0.23813,-0.14817 0.5662,-0.30691 0.89959,-0.30691 0.49742,0 0.67204,0.29633 0.68261,0.64557 -1.32821,0.10585 -1.86265,0.38631 -1.86265,0.9631 0,0.46036 0.39158,0.73025 0.87312,0.73025 z m 0.11642,-0.34926 c -0.29634,0 -0.56621,-0.1217 -0.56621,-0.41275 0,-0.33867 0.33867,-0.55563 1.43933,-0.64558 v 0.67734 c -0.29104,0.24341 -0.58208,0.38099 -0.87312,0.38099 z m 3.34433,0.34926 c 0.23813,0 0.42863,-0.17993 0.42863,-0.44451 0,-0.26987 -0.1905,-0.44979 -0.42863,-0.44979 -0.23812,0 -0.42862,0.17992 -0.42862,0.44979 0,0.26458 0.1905,0.44451 0.42862,0.44451 z m 3.17501,0 c 0.67734,0 1.27,-0.49213 1.27,-1.3441 0,-0.86253 -0.59266,-1.35466 -1.27,-1.35466 -0.67733,0 -1.27,0.49213 -1.27,1.35466 0,0.85197 0.59267,1.3441 1.27,1.3441 z m 0,-0.35984 c -0.49212,0 -0.82021,-0.39688 -0.82021,-0.98426 0,-0.59266 0.32809,-0.99482 0.82021,-0.99482 0.49213,0 0.82021,0.40216 0.82021,0.99482 0,0.58738 -0.32808,0.98426 -0.82021,0.98426 z m 2.36009,0.29633 h 0.43391 v -1.50812 c 0.30692,-0.53447 0.67205,-0.73555 1.05834,-0.73555 0.20108,0 0.29633,0.0265 0.47625,0.09 l 0.10054,-0.37571 c -0.15875,-0.0794 -0.3175,-0.10585 -0.508,-0.10585 -0.47625,0 -0.87842,0.25929 -1.14829,0.67204 h -0.0159 l -0.0371,-0.60853 h -0.35984 z m 3.96875,1.18534 c 0.87313,0 1.42875,-0.41804 1.42875,-0.89958 0,-0.43392 -0.3175,-0.60326 -0.97896,-0.60326 h -0.57679 c -0.33867,0 -0.53445,-0.0952 -0.53445,-0.29633 0,-0.12171 0.0741,-0.21696 0.20108,-0.29633 0.14287,0.0635 0.30162,0.0952 0.43391,0.0952 0.55563,0 0.99484,-0.33337 0.99484,-0.8837 0,-0.20637 -0.10053,-0.39687 -0.21696,-0.51859 h 0.66675 v -0.35454 h -1.06363 c -0.11112,-0.0422 -0.23283,-0.0635 -0.381,-0.0635 -0.54504,0 -1.01071,0.35983 -1.01071,0.92075 0,0.3069 0.14288,0.53446 0.3175,0.66675 v 0.0212 c -0.19579,0.1323 -0.30691,0.3175 -0.30691,0.48155 0,0.21695 0.127,0.34925 0.26458,0.42333 v 0.0212 c -0.27517,0.15875 -0.42333,0.36513 -0.42333,0.57151 0,0.45507 0.43391,0.71436 1.18533,0.71436 z m -0.0265,-2.2913 c -0.3228,0 -0.59266,-0.23812 -0.59266,-0.60853 0,-0.35984 0.26986,-0.60326 0.59266,-0.60326 0.32809,0 0.59266,0.24342 0.59266,0.60326 0,0.37041 -0.26457,0.60853 -0.59266,0.60853 z m 0.0582,1.9738 c -0.55034,0 -0.84137,-0.16933 -0.84137,-0.43922 0,-0.14816 0.0847,-0.29632 0.32807,-0.42862 0.11112,0.0318 0.24342,0.0424 0.39158,0.0424 h 0.50271 c 0.39159,0 0.58739,0.0688 0.58739,0.31221 0,0.26458 -0.37042,0.51329 -0.96838,0.51329 z m 2.10079,-0.0212 h 0.39158 l 1.73568,-4.60375 h -0.39159 z m 3.25437,-0.84666 h 0.56092 l 0.28576,-1.22768 c 0.0422,-0.17992 0.0847,-0.43392 0.12699,-0.762 h 0.0212 c 0.0424,0.32808 0.0847,0.58208 0.12701,0.762 l 0.29633,1.22768 h 0.56092 l 0.55032,-2.57176 h -0.40216 l -0.30692,1.49225 c -0.0476,0.24341 -0.0741,0.46566 -0.11641,0.70908 h -0.0212 c -0.0319,-0.24342 -0.10053,-0.46567 -0.15874,-0.70908 l -0.30692,-1.33349 h -0.43392 l -0.3175,1.33349 c -0.0582,0.23813 -0.11641,0.46566 -0.14817,0.70908 h -0.0212 c -0.0318,-0.24342 -0.0688,-0.46567 -0.11642,-0.70908 l -0.30691,-1.49225 h -0.43391 z m 4.24392,0 h 0.43393 v -2.57176 h -1.62984 v 0.35454 h 1.19591 z m 0.16934,-3.11151 c 0.1958,0 0.34926,-0.1323 0.34926,-0.33867 0,-0.20108 -0.15346,-0.33867 -0.34926,-0.33867 -0.19578,0 -0.34924,0.13759 -0.34924,0.33867 0,0.20637 0.15346,0.33867 0.34924,0.33867 z m 1.89443,3.11151 h 0.43391 v -0.69851 l 0.60854,-0.59796 0.9472,1.29647 h 0.48684 l -1.16416,-1.56105 1.02658,-1.01071 h -0.49746 l -1.38642,1.35467 h -0.0212 v -2.55059 h -0.43391 z m 4.28626,0 h 0.4339 v -2.57176 h -1.62982 v 0.35454 h 1.19592 z m 0.16933,-3.11151 c 0.19578,0 0.34925,-0.1323 0.34925,-0.33867 0,-0.20108 -0.15347,-0.33867 -0.34925,-0.33867 -0.19579,0 -0.34926,0.13759 -0.34926,0.33867 0,0.20637 0.15347,0.33867 0.34926,0.33867 z m 1.85737,3.95817 h 0.39158 l 1.73567,-4.60375 h -0.39158 z m 3.98463,-0.84666 h 0.5133 l 1.10067,-3.47135 h -0.4498 l -0.55562,1.87325 c -0.11642,0.41275 -0.20638,0.74084 -0.33339,1.14831 h -0.0212 c -0.12699,-0.40747 -0.21167,-0.73556 -0.33338,-1.14831 l -0.56091,-1.87325 h -0.46566 z m 2.37067,0 h 0.43921 v -1.4658 h 0.61913 l 0.83608,1.4658 h 0.50271 l -0.88372,-1.51342 c 0.47096,-0.12172 0.77789,-0.44451 0.77789,-0.98426 0,-0.71966 -0.508,-0.97367 -1.21179,-0.97367 H 179.731 Z m 0.43921,-1.82564 v -1.29117 h 0.5768 c 0.53975,0 0.83607,0.16406 0.83607,0.61913 0,0.44979 -0.29632,0.67204 -0.83607,0.67204 z m 2.58762,1.82564 h 0.41275 v -1.73568 c 0,-0.33866 -0.0422,-0.93133 -0.0741,-1.22767 h 0.0106 l 0.20109,0.67734 0.48683,1.36525 h 0.3175 l 0.49741,-1.36525 0.1958,-0.67734 h 0.0159 c -0.0212,0.29634 -0.0741,0.88901 -0.0741,1.22767 v 1.73568 h 0.42333 v -3.47135 h -0.53976 l -0.49211,1.48167 -0.16404,0.56092 h -0.0212 l -0.16933,-0.56092 -0.48684,-1.48167 h -0.53975 z m 3.5031,0 h 2.15371 v -0.37568 h -1.71979 v -3.09563 h -0.43392 z"
       id="text1"
       style="font-size:5.29167px;line-height:0.7;font-family:'Source Code Pro';-inkscape-font-specification:'Source Code Pro';letter-spacing:0px;word-spacing:0px;display:inline;stroke-width:1.748;stroke-linecap:round;stroke-linejoin:round;stroke-miterlimit:2.1"
       aria-label="https://en.wikipedia.org/wiki/VRML" /><g
       id="rect23"
       style="display:inline"><rect
         style="display:inline;fill:url(#linearGradient23);fill-opacity:0.834379;stroke:none;stroke-width:4.99999;stroke-linecap:square;stroke-dasharray:none;stroke-opacity:1"
         id="rect20"
         width="30.128031"
         height="11.286353"
         x="177.19191"
         y="53.347572" /><path
         style="color:#000000;display:inline;fill:url(#linearGradient25);stroke-linecap:square;stroke-linejoin:bevel;-inkscape-stroke:none"
         d="m 174.15254,15.119046 40.91592,41.955358 H 174.814 Z"
         id="path25" /><g
         id="g27"><path
           id="rect27"
           style="display:inline;fill:#0a6db5;fill-opacity:0.459222;stroke-width:4.99999;stroke-linecap:square;stroke-linejoin:bevel"
           d="m 182.94047,23.245534 33.07293,33.82887 -33.07293,-0.09449 z"
           sodipodi:nodetypes="cccc" /><path
           id="path27"
           style="display:inline;fill:#1882cf;fill-opacity:0.459222;stroke-width:4.99999;stroke-linecap:square;stroke-linejoin:bevel"
           d="m 175.28645,49.514879 34.91556,0.188989 4.67746,7.087054 -39.68751,-0.472471 z"
           sodipodi:nodetypes="ccccc" /></g><path
         style="color:#000000;display:inline;fill:url(#linearGradient27);stroke-linecap:square;stroke-linejoin:bevel;-inkscape-stroke:none"
         d="m 175.94141,13.373047 -4.28907,1.785156 6.5e-4,44.600911 c 0,0 29.8634,-0.184895 43.41537,-0.184895 l 1.78906,-4.246094 z m 1.4286,7.056744 34.22551,34.144428 h -34.32013 z"
         id="path26"
         sodipodi:nodetypes="cccccccccc" /></g></g></svg>
