<?xml version="1.0" encoding="UTF-8" standalone="no"?>
<!-- Created with Inkscape (http://www.inkscape.org/) -->

<svg
   width="256mm"
   height="256mm"
   viewBox="0 0 256 256"
   version="1.1"
   id="svg1"
   inkscape:version="1.3.2 (091e20ef0f, 2023-11-25)"
   xml:space="preserve"
   sodipodi:docname="text-tcl.svg"
   xmlns:inkscape="http://www.inkscape.org/namespaces/inkscape"
   xmlns:sodipodi="http://sodipodi.sourceforge.net/DTD/sodipodi-0.dtd"
   xmlns:xlink="http://www.w3.org/1999/xlink"
   xmlns="http://www.w3.org/2000/svg"
   xmlns:svg="http://www.w3.org/2000/svg"
   xmlns:rdf="http://www.w3.org/1999/02/22-rdf-syntax-ns#"
   xmlns:cc="http://creativecommons.org/ns#"
   xmlns:dc="http://purl.org/dc/elements/1.1/"><defs
     id="defs1"><linearGradient
       id="linearGradient26"
       inkscape:collect="always"><stop
         style="stop-color:#7b91c4;stop-opacity:1;"
         offset="0"
         id="stop26" /><stop
         style="stop-color:#5c5e91;stop-opacity:1"
         offset="1"
         id="stop27" /></linearGradient><linearGradient
       id="linearGradient24"
       inkscape:collect="always"><stop
         style="stop-color:#c7fafe;stop-opacity:1;"
         offset="0"
         id="stop24" /><stop
         style="stop-color:#9acdff;stop-opacity:1"
         offset="1"
         id="stop25" /></linearGradient><linearGradient
       id="linearGradient22"
       inkscape:collect="always"><stop
         style="stop-color:#adaeae;stop-opacity:0.8253752;"
         offset="0"
         id="stop22" /><stop
         style="stop-color:#8ac5fe;stop-opacity:0.83628923;"
         offset="1"
         id="stop23" /></linearGradient><linearGradient
       id="linearGradient18"
       inkscape:collect="always"><stop
         style="stop-color:#9797ff;stop-opacity:1;"
         offset="0"
         id="stop18" /><stop
         style="stop-color:#ccccff;stop-opacity:1;"
         offset="0.30000001"
         id="stop20" /><stop
         style="stop-color:#ccccff;stop-opacity:1;"
         offset="1"
         id="stop19" /></linearGradient><linearGradient
       id="linearGradient16"
       inkscape:collect="always"><stop
         style="stop-color:#cdcdcd;stop-opacity:0.17462483;"
         offset="0"
         id="stop16" /><stop
         style="stop-color:#cdcdcd;stop-opacity:1;"
         offset="1"
         id="stop17" /></linearGradient><linearGradient
       id="linearGradient12"
       inkscape:collect="always"><stop
         style="stop-color:#fdfeff;stop-opacity:1;"
         offset="0"
         id="stop13" /><stop
         style="stop-color:#99ccff;stop-opacity:1;"
         offset="1"
         id="stop14" /></linearGradient><linearGradient
       id="linearGradient9"
       inkscape:collect="always"><stop
         style="stop-color:#97c9fc;stop-opacity:1;"
         offset="0"
         id="stop9" /><stop
         style="stop-color:#7788bb;stop-opacity:1"
         offset="0.25"
         id="stop12" /><stop
         style="stop-color:#57578a;stop-opacity:1"
         offset="0.5"
         id="stop11" /><stop
         style="stop-color:#444482;stop-opacity:1;"
         offset="1"
         id="stop10" /></linearGradient><linearGradient
       inkscape:collect="always"
       xlink:href="#linearGradient9"
       id="linearGradient10"
       x1="31.622168"
       y1="100.24049"
       x2="221.19499"
       y2="240.28973"
       gradientUnits="userSpaceOnUse" /><linearGradient
       inkscape:collect="always"
       xlink:href="#linearGradient12"
       id="linearGradient14"
       x1="73.583481"
       y1="62.020954"
       x2="207.02971"
       y2="229.59895"
       gradientUnits="userSpaceOnUse" /><linearGradient
       inkscape:collect="always"
       xlink:href="#linearGradient16"
       id="linearGradient17"
       x1="57.531055"
       y1="26.420616"
       x2="147.13231"
       y2="144.34076"
       gradientUnits="userSpaceOnUse" /><linearGradient
       inkscape:collect="always"
       xlink:href="#linearGradient18"
       id="linearGradient19"
       x1="209.82518"
       y1="58.53635"
       x2="210.58252"
       y2="194.57654"
       gradientUnits="userSpaceOnUse" /><linearGradient
       inkscape:collect="always"
       xlink:href="#linearGradient22"
       id="linearGradient23"
       x1="177.19191"
       y1="58.990749"
       x2="207.31994"
       y2="58.990749"
       gradientUnits="userSpaceOnUse" /><linearGradient
       inkscape:collect="always"
       xlink:href="#linearGradient24"
       id="linearGradient25"
       x1="176.32031"
       y1="20.126524"
       x2="176.32031"
       y2="56.695721"
       gradientUnits="userSpaceOnUse" /><linearGradient
       inkscape:collect="always"
       xlink:href="#linearGradient26"
       id="linearGradient27"
       x1="172.59729"
       y1="13.51158"
       x2="210.54449"
       y2="51.28627"
       gradientUnits="userSpaceOnUse" /></defs><sodipodi:namedview
     id="base"
     pagecolor="#ffffff"
     bordercolor="#000000"
     borderopacity="0.3"
     inkscape:pageopacity="0.0"
     inkscape:pageshadow="2"
     inkscape:zoom="0.98994949"
     inkscape:cx="505.07627"
     inkscape:cy="476.792"
     inkscape:document-units="mm"
     inkscape:showpageshadow="2"
     inkscape:pagecheckerboard="0"
     inkscape:deskcolor="#d1d1d1"
     inkscape:current-layer="g14"
     showguides="true" /><metadata
     id="metadata1"><rdf:RDF><cc:Work
         rdf:about=""><dc:format>image/svg+xml</dc:format><dc:type
           rdf:resource="http://purl.org/dc/dcmitype/StillImage" /><cc:license
           rdf:resource="http://creativecommons.org/publicdomain/zero/1.0/" /></cc:Work><cc:License
         rdf:about="http://creativecommons.org/publicdomain/zero/1.0/"><cc:permits
           rdf:resource="http://creativecommons.org/ns#Reproduction" /><cc:permits
           rdf:resource="http://creativecommons.org/ns#Distribution" /><cc:permits
           rdf:resource="http://creativecommons.org/ns#DerivativeWorks" /></cc:License></rdf:RDF></metadata><g
     id="g28"
     transform="matrix(1.0481261,0,0,1.0481261,-6.4074194,-6.1384097)"><g
       id="g7"
       inkscape:label="shadow"
       style="display:inline"><path
         id="rect1"
         style="fill:#000000;fill-opacity:0.0602258;stroke-width:3.72791;stroke-linecap:square"
         d="M 48.380952,13.418155 H 179.16071 l 43.46726,43.278274 V 244.17261 H 48.380952 Z"
         sodipodi:nodetypes="cccccc" /><path
         id="path1"
         style="fill:#000000;fill-opacity:0.0752823;stroke-width:3.72791;stroke-linecap:square"
         d="m 47.563027,12.60023 129.443423,-0.133635 43.46726,43.278274 1.33635,187.609821 H 47.563027 Z"
         sodipodi:nodetypes="cccccc" /><path
         id="path2"
         style="fill:#000000;fill-opacity:0.0602258;stroke-width:3.72791;stroke-linecap:square"
         d="m 46.493949,11.793049 128.975701,-0.868626 43.46726,43.278274 1.80407,188.344813 H 46.493949 Z"
         sodipodi:nodetypes="cccccc" /><path
         id="path3"
         style="fill:#000000;fill-opacity:0.0602258;stroke-width:3.72791;stroke-linecap:square"
         d="m 45.964782,12.33296 129.777508,0.467722 43.46726,42.209196 1.00226,187.008462 H 45.964782 Z"
         sodipodi:nodetypes="cccccc" /><path
         id="path4"
         style="fill:#000000;fill-opacity:0.0602258;stroke-width:3.72791;stroke-linecap:square"
         d="m 45.435615,12.338332 129.443415,0.935443 43.46726,41.674657 1.33635,186.540738 H 45.435615 Z"
         sodipodi:nodetypes="cccccc" /><path
         id="path5"
         style="fill:#000000;fill-opacity:0.0602258;stroke-width:3.72791;stroke-linecap:square"
         d="M 44.906448,12.744609 174.8844,13.412783 218.35166,54.151996 219.15347,240.96 H 44.906448 Z"
         sodipodi:nodetypes="cccccc" /><path
         id="path6"
         style="fill:#000000;fill-opacity:0.0602258;stroke-width:3.72791;stroke-linecap:square"
         d="m 44.377281,15.021772 129.911129,0.534539 43.46726,37.932883 0.86863,186.941636 H 44.377281 Z"
         sodipodi:nodetypes="cccccc" /><path
         id="path7"
         style="fill:#000000;fill-opacity:0.0602258;stroke-width:3.72791;stroke-linecap:square"
         d="m 43.848114,13.423527 129.710676,1.069078 43.46726,39.001961 1.06908,186.407094 H 43.848114 Z"
         sodipodi:nodetypes="cccccc" /></g><g
       id="g14"
       style="display:inline"><path
         style="color:#000000;fill:url(#linearGradient14);stroke-linecap:square;-inkscape-stroke:none"
         d="M 46.153822,14.648159 H 173.78301 l 40.90293,41.140298 V 236.0795 H 46.554726 Z"
         id="path15"
         inkscape:label="headbgground" /><path
         id="rect16"
         style="display:inline;fill:url(#linearGradient17);fill-opacity:1;stroke-width:4.99999;stroke-linecap:square"
         d="M 45.435818,14.165285 H 176.70315 l 0.20408,8.220982 H 53.433709 V 235.97952 h -7.997891 z"
         sodipodi:nodetypes="ccccccc" /><path
         id="rect17"
         style="fill:url(#linearGradient19);stroke-width:4.99999;stroke-linecap:square"
         d="M 47.058037,227.91965 H 207.27506 l -0.0668,-168.246312 7.31651,0.0667 0.0668,168.546562 -7.08265,0.0331 v 7.34846 H 47.058037 Z"
         sodipodi:nodetypes="ccccccccc" /><g
         id="g60"><path
           style="color:#000000;display:inline;fill:#f14729;fill-opacity:1;stroke-width:0.946214;stroke-linecap:round;stroke-linejoin:round;stroke-miterlimit:5;-inkscape-stroke:none"
           d="m 47.160206,15.881817 119.485164,0.395612 c 3.64013,0.429008 5.41799,2.08092 8.3709,4.713868 l 36.58974,36.63082 c 0,0 3.6755,3.206375 3.70418,7.243446 l 0.13413,169.843907 -168.905501,0.42088 z"
           id="path4-6"
           inkscape:label="whiteletter" /><g
           transform="matrix(0.14361668,0,0,-0.14361668,-317.85939,735.54455)"
           id="g12"
           style="clip-rule:nonzero;display:inline;fill:#000000;fill-rule:nonzero;stroke:#ffffff;stroke-width:0;stroke-miterlimit:4"><g
             id="g2"
             style="clip-rule:nonzero;display:inline;fill:#000000;fill-rule:nonzero;stroke:#ffffff;stroke-width:0;stroke-miterlimit:4"
             transform="translate(8.3363987e-6,-1.0663785e-4)"><path
               id="path50"
               style="fill:#fff200;fill-opacity:1;fill-rule:nonzero;stroke:none"
               d="m 2731.77,3543.32 c 0,-5.81 -0.47,-10.41 -6.61,-10.41 -6.31,0 -6.61,4.77 -6.61,10.41 v 21.53 h 2.93 v -21.37 c 0,-5.22 0.29,-7.73 3.68,-7.73 3.34,0 3.68,2.51 3.68,7.73 v 21.37 h 2.93 v -21.53"
               inkscape:connector-curvature="0" /><path
               id="path52"
               style="fill:#fff200;fill-opacity:1;fill-rule:nonzero;stroke:none"
               d="m 2771.61,3564.85 h -2.55 v -20.99 c 0,-1.38 0.21,-2.8 0.3,-4.18 h -0.13 c -0.29,1.09 -0.59,2.18 -0.96,3.26 l -7.23,21.91 h -2.56 v -31.52 h 2.56 v 19.14 c 0,2.05 -0.21,4.06 -0.34,6.11 h 0.17 c 0.37,-1.34 0.63,-2.76 1.08,-4.06 l 7.11,-21.19 h 2.55 v 31.52"
               inkscape:connector-curvature="0" /><path
               id="path54-5"
               style="fill:#fff200;fill-opacity:1;fill-rule:nonzero;stroke:none"
               d="m 2798.49,3533.33 h 2.9297 v 31.5234 h -2.9297 z"
               inkscape:connector-curvature="0" /><path
               id="path56-4"
               style="fill:#fff200;fill-opacity:1;fill-rule:nonzero;stroke:none"
               d="m 2835.14,3533.33 h -2.59 l -6.35,31.52 h 3.01 l 4.13,-22.95 c 0.17,-0.8 0.34,-2.85 0.5,-4.27 h 0.17 c 0.13,1.42 0.29,3.51 0.42,4.27 l 4.1,22.95 h 2.97 l -6.36,-31.52"
               inkscape:connector-curvature="0" /><path
               id="path58"
               style="fill:#fff200;fill-opacity:1;fill-rule:nonzero;stroke:none"
               d="m 2876.24,3562.18 h -6.98 v -11.13 h 6.77 v -2.67 h -6.77 V 3536 h 6.98 v -2.67 h -9.91 v 31.52 h 9.91 v -2.67"
               inkscape:connector-curvature="0" /><path
               id="path60"
               style="fill:#fff200;fill-opacity:1;fill-rule:nonzero;stroke:none"
               d="m 2902.28,3533.33 v 31.52 h 3.13 c 4.39,0 8.62,-0.33 8.62,-8.03 0,-4.01 -0.88,-7.94 -5.94,-8.11 l 6.98,-15.38 h -3.09 l -6.69,15.42 h -0.08 v -15.42 z m 2.93,17.81 h 1.04 c 4.1,0 4.77,1.42 4.77,5.56 0,4.97 -1.51,5.48 -5.23,5.48 h -0.58 v -11.04"
               inkscape:connector-curvature="0" /><path
               id="path62"
               style="fill:#fff200;fill-opacity:1;fill-rule:nonzero;stroke:none"
               d="m 2950.98,3559.88 c -1.25,1.42 -2.63,2.55 -4.64,2.55 -2.93,0 -4.55,-2.43 -4.55,-5.11 0,-3.68 2.67,-5.39 5.39,-7.23 2.67,-1.88 5.35,-3.89 5.35,-8.23 0,-4.6 -2.97,-8.95 -7.9,-8.95 -1.76,0 -3.56,0.5 -4.98,1.59 v 3.8 c 1.34,-1.42 3.1,-2.55 5.1,-2.55 3.09,0 4.81,2.72 4.77,5.56 0.04,3.68 -2.68,5.31 -5.35,7.19 -2.68,1.84 -5.4,3.89 -5.4,8.41 0,4.22 2.59,8.36 7.24,8.36 1.88,0 3.47,-0.63 4.97,-1.67 v -3.72"
               inkscape:connector-curvature="0" /><path
               id="path64"
               style="fill:#fff200;fill-opacity:1;fill-rule:nonzero;stroke:none"
               d="m 2990.86,3533.33 h -3.13 l -1.17,6.47 h -6.69 l -1.13,-6.47 h -3.13 l 6.18,31.52 h 2.76 z m -4.76,9.03 -2.09,12.08 c -0.38,2.13 -0.55,4.31 -0.8,6.44 h -0.16 c -0.3,-2.13 -0.5,-4.31 -0.84,-6.44 l -1.84,-12.08 h 5.73"
               inkscape:connector-curvature="0" /><path
               id="path66"
               style="fill:#fff200;fill-opacity:1;fill-rule:nonzero;stroke:none"
               d="m 3018.13,3536 h 6.85 v -2.67 h -9.78 v 31.52 h 2.93 V 3536"
               inkscape:connector-curvature="0" /><path
               id="path68"
               style="fill:#fff200;fill-opacity:1;fill-rule:nonzero;stroke:none"
               d="m 3090.75,3559.88 c -1.25,1.42 -2.63,2.55 -4.64,2.55 -2.92,0 -4.56,-2.43 -4.56,-5.11 0,-3.68 2.68,-5.39 5.4,-7.23 2.68,-1.88 5.35,-3.89 5.35,-8.23 0,-4.6 -2.97,-8.95 -7.9,-8.95 -1.76,0 -3.55,0.5 -4.97,1.59 v 3.8 c 1.33,-1.42 3.09,-2.55 5.09,-2.55 3.1,0 4.81,2.72 4.77,5.56 0.04,3.68 -2.68,5.31 -5.35,7.19 -2.67,1.84 -5.39,3.89 -5.39,8.41 0,4.22 2.59,8.36 7.23,8.36 1.88,0 3.47,-0.63 4.97,-1.67 v -3.72"
               inkscape:connector-curvature="0" /><path
               id="path70"
               style="fill:#fff200;fill-opacity:1;fill-rule:nonzero;stroke:none"
               d="m 3129.47,3537.17 c -1.13,-0.79 -2.47,-1.42 -3.89,-1.42 -5.6,0 -5.6,9.74 -5.6,13.42 0,5.85 0.71,13.26 5.81,13.26 1.46,0 2.51,-0.59 3.68,-1.38 v 3.22 c -0.96,0.71 -2.55,1 -3.72,1 -8.62,0 -8.78,-12.21 -8.78,-17.31 0,-5.39 1.08,-15.05 8.48,-15.05 1.39,0 2.93,0.54 4.02,1.29 v 2.97"
               inkscape:connector-curvature="0" /><path
               id="path72"
               style="fill:#fff200;fill-opacity:1;fill-rule:nonzero;stroke:none"
               d="m 3155.05,3533.33 v 31.52 h 3.14 c 4.39,0 8.61,-0.33 8.61,-8.03 0,-4.01 -0.88,-7.94 -5.94,-8.11 l 6.99,-15.38 h -3.1 l -6.69,15.42 h -0.08 v -15.42 z m 2.93,17.81 h 1.04 c 4.1,0 4.77,1.42 4.77,5.56 0,4.97 -1.5,5.48 -5.22,5.48 h -0.59 v -11.04"
               inkscape:connector-curvature="0" /><path
               id="path74"
               style="fill:#fff200;fill-opacity:1;fill-rule:nonzero;stroke:none"
               d="m 3192.8,3533.33 h 2.9258 v 31.5234 H 3192.8 Z"
               inkscape:connector-curvature="0" /><path
               id="path76"
               style="fill:#fff200;fill-opacity:1;fill-rule:nonzero;stroke:none"
               d="m 3222.55,3533.33 v 31.52 h 3.26 c 4.52,0 8.53,-0.42 8.53,-8.19 0,-6.11 -2.13,-8.24 -8.11,-8.24 h -0.75 v -15.09 z m 2.93,17.76 h 1.13 c 4.09,0 4.6,1.51 4.72,5.57 0,4.34 -1.17,5.52 -5.27,5.52 h -0.58 v -11.09"
               inkscape:connector-curvature="0" /><path
               id="path78"
               style="fill:#fff200;fill-opacity:1;fill-rule:nonzero;stroke:none"
               d="m 3269.54,3564.85 h -12.38 v -2.67 h 4.73 v -28.85 h 2.93 v 28.85 h 4.72 v 2.67"
               inkscape:connector-curvature="0" /><path
               id="path80"
               style="fill:#fff200;fill-opacity:1;fill-rule:nonzero;stroke:none"
               d="m 3294.15,3533.33 h 2.9258 v 31.5234 h -2.9258 z"
               inkscape:connector-curvature="0" /><path
               id="path82"
               style="fill:#fff200;fill-opacity:1;fill-rule:nonzero;stroke:none"
               d="m 3337.03,3533.33 h -2.55 l -7.11,21.19 c -0.46,1.3 -0.71,2.72 -1.09,4.06 h -0.16 c 0.12,-2.05 0.33,-4.06 0.33,-6.11 v -19.14 h -2.55 v 31.52 h 2.55 l 7.23,-21.91 c 0.38,-1.08 0.67,-2.17 0.96,-3.26 h 0.13 c -0.08,1.38 -0.29,2.8 -0.29,4.18 v 20.99 h 2.55 v -31.52"
               inkscape:connector-curvature="0" /><path
               id="path84"
               style="fill:#fff200;fill-opacity:1;fill-rule:nonzero;stroke:none"
               d="m 3369.85,3549.96 h 7.19 v -5.81 c 0,-4.97 -0.25,-11.24 -6.77,-11.24 -6.65,0 -7.28,6.98 -7.28,16.93 0,7.44 0.88,15.43 7.57,15.43 3.76,0 5.64,-2.51 6.44,-5.94 l -2.89,-1.13 c -0.33,1.89 -1.13,4.23 -3.43,4.23 -4.34,-0.05 -4.68,-6.78 -4.68,-12.34 0,-11.66 1.46,-14.34 4.52,-14.34 3.3,0 3.59,2.43 3.59,9.16 v 2.38 h -4.26 v 2.67"
               inkscape:connector-curvature="0" /></g><g
             id="g4"><path
               id="path16-3"
               style="clip-rule:nonzero;display:inline;fill:#1e5cb3;fill-opacity:1;fill-rule:nonzero;stroke:none;stroke-width:0;stroke-miterlimit:4"
               d="m 3181.37,4009.63 -62.71,-17.1 34.2,82.65 34.2,230.85 -42.75,8.55 51.31,71.25 63.91,240.19 -112.37,-23.58 c 0,0 59.25,108.47 122.13,179.12 l -82.23,63.13 c 0,0 -264.88,-116.68 -193.63,-495.74 l -54.75,9.59 52.51,-397.36 -44.39,-11.41 c 0,0 45.48,-92.8 109.16,-136.8 5.79,-3.99 -79.8,310.66 11.4,624.16 l 8.55,-19.95 c 0,0 -72.67,-334.16 0,-604.21 0,0 3.35,-6.41 39.69,-2.13 0,0 65.77,123.97 65.77,198.79"
               inkscape:connector-curvature="0"
               transform="translate(8.3363987e-6,-1.0663785e-4)" /><g
               id="g3"><path
                 id="path18-3"
                 style="clip-rule:nonzero;display:inline;fill:#ffffff;fill-opacity:1;fill-rule:nonzero;stroke:none;stroke-width:0;stroke-miterlimit:4"
                 d="m 2714.31,3725.07 h 12.87 v 26.84 c 5.68,0 11.13,0 16.59,0.88 v -27.72 h 19.2 v -5.02 h -19.2 v -66.76 c 0,-3.93 0,-9.82 8.29,-9.82 5.67,0 8.73,3.92 12.22,8.07 l 3.49,-2.4 c -4.14,-8.29 -14.84,-13.31 -23.57,-13.31 -15.71,0 -17.45,8.51 -17.45,18.98 v 65.24 h -12.44 v 5.02"
                 inkscape:connector-curvature="0"
                 transform="translate(8.3363987e-6,-1.0663785e-4)" /><path
                 id="path20"
                 style="clip-rule:nonzero;display:inline;fill:#ffffff;fill-opacity:1;fill-rule:nonzero;stroke:none;stroke-width:0;stroke-miterlimit:4"
                 d="m 2905.62,3665.72 c -5.02,-15.49 -13.75,-29.02 -36.44,-29.89 -33.82,0 -44.08,28.15 -44.08,43.21 0,38.84 31.2,48.22 43.64,48.22 14.19,0 34.26,-6.55 34.26,-23.35 0,-5.89 -3.71,-11.57 -9.82,-11.57 -5.89,0 -10.25,3.93 -10.25,10.26 0,8.51 6.98,9.6 6.98,12 0,5.89 -13.75,8.29 -18.55,8.29 -20.95,0 -26.4,-15.27 -26.4,-43.85 0,-13.1 3.27,-23.13 4.58,-26.19 3.27,-7.2 10.04,-11.78 21.38,-12.44 12.66,-0.65 24.88,9.6 30.12,25.31 h 4.58"
                 inkscape:connector-curvature="0"
                 transform="translate(8.3363987e-6,-1.0663785e-4)" /><path
                 id="path22"
                 style="clip-rule:nonzero;display:inline;fill:#ffffff;fill-opacity:1;fill-rule:nonzero;stroke:none;stroke-width:0;stroke-miterlimit:4"
                 d="m 2966,3638.67 v 5.02 h 16.8 v 140.3 H 2966 v 5.02 h 9.38 c 8.08,0 16.58,0.44 24.44,1.96 v -147.28 h 16.81 v -5.02 H 2966"
                 inkscape:connector-curvature="0"
                 transform="translate(8.3363987e-6,-1.0663785e-4)" /><path
                 id="path24"
                 style="clip-rule:nonzero;display:inline;fill:#ffffff;fill-opacity:1;fill-rule:nonzero;stroke:none;stroke-width:0;stroke-miterlimit:4"
                 d="m 3174.53,3725.07 h 12.87 v 26.84 c 5.67,0 11.13,0 16.58,0.88 v -27.72 h 19.21 v -5.02 h -19.21 v -66.76 c 0,-3.93 0,-9.82 8.3,-9.82 5.67,0 8.72,3.92 12.22,8.07 l 3.48,-2.4 c -4.14,-8.29 -14.83,-13.31 -23.56,-13.31 -15.71,0 -17.46,8.51 -17.46,18.98 v 65.24 h -12.43 v 5.02"
                 inkscape:connector-curvature="0"
                 transform="translate(8.3363987e-6,-1.0663785e-4)" /><path
                 id="path26-5"
                 style="clip-rule:nonzero;display:inline;fill:#ffffff;fill-opacity:1;fill-rule:nonzero;stroke:none;stroke-width:0;stroke-miterlimit:4"
                 d="m 3337.47,3720.05 v 5.02 h 35.78 v -5.02 h -13.31 l -30.11,-26.18 41.46,-50.18 h 9.16 v -5.02 H 3339 v 5.02 h 10.91 l -36.45,44.29 36.88,31.42 v 0.65 z m -52.59,-81.38 v 5.02 h 11.35 v 140.3 h -11.35 v 5.02 h 3.93 c 8.07,0 16.58,0.44 24.44,1.96 v -147.28 h 13.09 v -5.02 h -41.46"
                 inkscape:connector-curvature="0"
                 transform="translate(8.3363987e-6,-1.0663785e-4)" /></g><path
               id="path28-6"
               style="clip-rule:nonzero;display:inline;fill:#ffffff;fill-opacity:1;fill-rule:nonzero;stroke:none;stroke-width:0;stroke-miterlimit:4"
               d="m 3095.34,4465.36 c 0,0 -38.46,-171.48 -27.39,-449.52 3.32,-83.4 12.44,-160.06 23.58,-226.54 h 0.06 c 7.24,-58.38 12.09,-79.51 30.98,-149.85 l -1.11,-45.36 c 0,0 -151.25,482.93 -26.12,871.27"
               inkscape:connector-curvature="0"
               transform="translate(8.3363987e-6,-1.0663785e-4)" /><path
               id="path30-7"
               style="clip-rule:nonzero;display:inline;fill:#ffffff;fill-opacity:1;fill-rule:nonzero;stroke:none;stroke-width:0;stroke-miterlimit:4"
               d="m 3188.19,4614.06 c 0,0 34.01,16.94 82.77,23.1 0,0 53.31,-97.7 -77.87,-264.5 0,0 78.26,174.69 59.8,229.42 0,0 -20.64,12.82 -64.7,11.98"
               inkscape:connector-curvature="0"
               transform="translate(8.3363987e-6,-1.0663785e-4)" /><path
               id="path32-5"
               style="clip-rule:nonzero;display:inline;fill:#ffffff;fill-opacity:1;fill-rule:nonzero;stroke:none;stroke-width:0;stroke-miterlimit:4"
               d="m 3172.07,4320.8 c 0,0 30.54,-7.08 45.21,4.8 0,0 -28.9,-112.76 -21.32,-174.79 7.57,-62.02 -47.08,-101.73 -47.08,-101.73 0,0 46.55,58.9 31.92,106.88 -10.14,33.25 1.21,118.36 14.01,145.39 0,0 -11.96,1.67 -22.74,19.45"
               inkscape:connector-curvature="0"
               transform="translate(8.3363987e-6,-1.0663785e-4)" /><path
               id="path34"
               style="clip-rule:nonzero;display:inline;fill:#ffffff;fill-opacity:1;fill-rule:nonzero;stroke:none;stroke-width:0;stroke-miterlimit:4"
               d="m 3141.86,4023.7 c 0,0 50.48,6.04 55.78,31.55 0,0 6.18,-152.52 -63.95,-215.37 0,0 53.51,83.47 45.12,169.82 l -36.95,14"
               inkscape:connector-curvature="0"
               transform="translate(8.3363987e-6,-1.0663785e-4)" /><path
               id="path36"
               style="clip-rule:nonzero;display:inline;fill:#ffffff;fill-opacity:1;fill-rule:nonzero;stroke:none;stroke-width:0;stroke-miterlimit:4"
               d="m 2999.86,3960.22 c 0,0 -16.27,-18.24 -65.12,21.98 0,0 15.56,-102.5 112.24,-149.43 0,0 -66.53,50.13 -84.46,104.28 0,0 23.51,6.91 37.34,23.17"
               inkscape:connector-curvature="0"
               transform="translate(8.3363987e-6,-1.0663785e-4)" /><path
               id="path38"
               style="clip-rule:nonzero;display:inline;fill:#ffffff;fill-opacity:1;fill-rule:nonzero;stroke:none;stroke-width:0;stroke-miterlimit:4"
               d="m 2984.28,3999.1 c 0,0 -66.05,167.65 -51.9,394.19 0,0 15.43,-41.03 65,-55.41 0,0 -23.35,-4.78 -37.01,-2.71 0,0 -34.55,-95.63 23.91,-336.07"
               inkscape:connector-curvature="0"
               transform="translate(8.3363987e-6,-1.0663785e-4)" /><path
               id="path40"
               style="clip-rule:nonzero;display:inline;fill:#ffffff;fill-opacity:1;fill-rule:nonzero;stroke:none;stroke-width:0;stroke-miterlimit:4"
               d="m 3261.73,4778.12 c 0,0 -24.75,181.91 -179.61,-2.05 -123.31,-146.49 -108.61,-270.85 -101.05,-340.24 1.94,-17.75 -22.94,185.31 112.16,318.94 135.1,133.63 165.62,31.11 168.5,23.35"
               inkscape:connector-curvature="0"
               transform="translate(8.3363987e-6,-1.0663785e-4)" /><path
               id="path42"
               style="fill:#fff200;fill-opacity:1;fill-rule:nonzero;stroke:none"
               d="m 3033.63,4933.27 c 0,0 -121.52,34.71 -160.19,-368.05 0,0 -29.84,124.32 47.34,300.13 77.18,175.82 112.85,67.92 112.85,67.92"
               inkscape:connector-curvature="0" /><path
               id="path44"
               style="clip-rule:nonzero;display:inline;fill:#fff200;fill-opacity:1;fill-rule:nonzero;stroke:none;stroke-width:0;stroke-miterlimit:4"
               d="m 2882.88,4962.72 c 0,0 -61.98,-93.22 -47.92,-192.51 0,0 -47.01,186.91 47.92,192.51"
               inkscape:connector-curvature="0"
               transform="translate(8.3363987e-6,-1.0663785e-4)" /><path
               id="path46"
               style="clip-rule:nonzero;display:inline;fill:#fff200;fill-opacity:1;fill-rule:nonzero;stroke:none;stroke-width:0;stroke-miterlimit:4"
               d="m 3338.99,4701.33 c 0,0 73.29,27.03 -31.65,-245.76 0,0 54.31,79.72 88.5,204.96 21.95,80.37 -56.85,40.8 -56.85,40.8"
               inkscape:connector-curvature="0"
               transform="translate(8.3363987e-6,-1.0663785e-4)" /><path
               id="path48"
               style="clip-rule:nonzero;display:inline;fill:#fff200;fill-opacity:1;fill-rule:nonzero;stroke:none;stroke-width:0;stroke-miterlimit:4"
               d="m 3457.52,4722.58 c 0,0 51.82,-46.9 15.09,-108.94 0,0 92.17,96.84 -15.09,108.94"
               inkscape:connector-curvature="0"
               transform="translate(8.3363987e-6,-1.0663785e-4)" /></g></g></g><path
         style="color:#000000;fill:url(#linearGradient10);stroke-linecap:square;-inkscape-stroke:none"
         d="M 43.648437,12.148438 44.058594,238.58008 H 217.18555 V 54.757812 L 174.82227,12.148438 Z m 4.608862,4.999999 H 172.74414 l 39.44141,39.671875 V 233.58008 H 48.775405 Z"
         id="path16"
         inkscape:label="headframe"
         sodipodi:nodetypes="cccccccccccc" /></g><g
       id="rect23"
       style="display:inline"><rect
         style="display:inline;fill:url(#linearGradient23);fill-opacity:0.834379;stroke:none;stroke-width:4.99999;stroke-linecap:square;stroke-dasharray:none;stroke-opacity:1"
         id="rect20"
         width="30.128031"
         height="11.286353"
         x="177.19191"
         y="53.347572" /><path
         style="color:#000000;display:inline;fill:url(#linearGradient25);stroke-linecap:square;stroke-linejoin:bevel;-inkscape-stroke:none"
         d="m 174.15254,15.119046 40.91592,41.955358 H 174.814 Z"
         id="path25" /><g
         id="g27"><path
           id="rect27"
           style="display:inline;fill:#0a6db5;fill-opacity:0.459222;stroke-width:4.99999;stroke-linecap:square;stroke-linejoin:bevel"
           d="m 182.94047,23.245534 33.07293,33.82887 -33.07293,-0.09449 z"
           sodipodi:nodetypes="cccc" /><path
           id="path27"
           style="display:inline;fill:#1882cf;fill-opacity:0.459222;stroke-width:4.99999;stroke-linecap:square;stroke-linejoin:bevel"
           d="m 175.28645,49.514879 34.91556,0.188989 4.67746,7.087054 -39.68751,-0.472471 z"
           sodipodi:nodetypes="ccccc" /></g><path
         style="color:#000000;display:inline;fill:url(#linearGradient27);stroke-linecap:square;stroke-linejoin:bevel;-inkscape-stroke:none"
         d="m 175.94141,13.373047 -4.28907,1.785156 6.5e-4,44.600911 c 0,0 29.8634,-0.184895 43.41537,-0.184895 l 1.78906,-4.246094 z m 1.4286,7.056744 34.22551,34.144428 h -34.32013 z"
         id="path26"
         sodipodi:nodetypes="cccccccccc" /></g></g></svg>
