<?xml version="1.0" encoding="UTF-8" standalone="no"?>
<!-- Created with Inkscape (http://www.inkscape.org/) -->

<svg
   width="256mm"
   height="256mm"
   viewBox="0 0 256 256"
   version="1.1"
   id="svg1"
   inkscape:version="1.3.2 (091e20ef0f, 2023-11-25)"
   xml:space="preserve"
   sodipodi:docname="text-x-chdr.svg"
   xmlns:inkscape="http://www.inkscape.org/namespaces/inkscape"
   xmlns:sodipodi="http://sodipodi.sourceforge.net/DTD/sodipodi-0.dtd"
   xmlns:xlink="http://www.w3.org/1999/xlink"
   xmlns="http://www.w3.org/2000/svg"
   xmlns:svg="http://www.w3.org/2000/svg"
   xmlns:rdf="http://www.w3.org/1999/02/22-rdf-syntax-ns#"
   xmlns:cc="http://creativecommons.org/ns#"
   xmlns:dc="http://purl.org/dc/elements/1.1/"><defs
     id="defs1"><linearGradient
       id="linearGradient26"
       inkscape:collect="always"><stop
         style="stop-color:#7b91c4;stop-opacity:1;"
         offset="0"
         id="stop26" /><stop
         style="stop-color:#5c5e91;stop-opacity:1"
         offset="1"
         id="stop27" /></linearGradient><linearGradient
       id="linearGradient24"
       inkscape:collect="always"><stop
         style="stop-color:#c7fafe;stop-opacity:1;"
         offset="0"
         id="stop24" /><stop
         style="stop-color:#9acdff;stop-opacity:1"
         offset="1"
         id="stop25" /></linearGradient><linearGradient
       id="linearGradient22"
       inkscape:collect="always"><stop
         style="stop-color:#adaeae;stop-opacity:0.8253752;"
         offset="0"
         id="stop22" /><stop
         style="stop-color:#8ac5fe;stop-opacity:0.83628923;"
         offset="1"
         id="stop23" /></linearGradient><linearGradient
       id="linearGradient18"
       inkscape:collect="always"><stop
         style="stop-color:#9797ff;stop-opacity:1;"
         offset="0"
         id="stop18" /><stop
         style="stop-color:#ccccff;stop-opacity:1;"
         offset="0.30000001"
         id="stop20" /><stop
         style="stop-color:#ccccff;stop-opacity:1;"
         offset="1"
         id="stop19" /></linearGradient><linearGradient
       id="linearGradient16"
       inkscape:collect="always"><stop
         style="stop-color:#cdcdcd;stop-opacity:0.17462483;"
         offset="0"
         id="stop16" /><stop
         style="stop-color:#cdcdcd;stop-opacity:1;"
         offset="1"
         id="stop17" /></linearGradient><linearGradient
       id="linearGradient12"
       inkscape:collect="always"><stop
         style="stop-color:#fdfeff;stop-opacity:1;"
         offset="0"
         id="stop13" /><stop
         style="stop-color:#99ccff;stop-opacity:1;"
         offset="1"
         id="stop14" /></linearGradient><linearGradient
       id="linearGradient9"
       inkscape:collect="always"><stop
         style="stop-color:#97c9fc;stop-opacity:1;"
         offset="0"
         id="stop9" /><stop
         style="stop-color:#7788bb;stop-opacity:1"
         offset="0.25"
         id="stop12" /><stop
         style="stop-color:#57578a;stop-opacity:1"
         offset="0.5"
         id="stop11" /><stop
         style="stop-color:#444482;stop-opacity:1;"
         offset="1"
         id="stop10" /></linearGradient><linearGradient
       inkscape:collect="always"
       xlink:href="#linearGradient9"
       id="linearGradient10"
       x1="31.622168"
       y1="100.24049"
       x2="221.19499"
       y2="240.28973"
       gradientUnits="userSpaceOnUse" /><linearGradient
       inkscape:collect="always"
       xlink:href="#linearGradient12"
       id="linearGradient14"
       x1="73.583481"
       y1="62.020954"
       x2="207.02971"
       y2="229.59895"
       gradientUnits="userSpaceOnUse" /><linearGradient
       inkscape:collect="always"
       xlink:href="#linearGradient16"
       id="linearGradient17"
       x1="57.531055"
       y1="26.420616"
       x2="147.13231"
       y2="144.34076"
       gradientUnits="userSpaceOnUse" /><linearGradient
       inkscape:collect="always"
       xlink:href="#linearGradient18"
       id="linearGradient19"
       x1="209.82518"
       y1="58.53635"
       x2="210.58252"
       y2="194.57654"
       gradientUnits="userSpaceOnUse" /><linearGradient
       inkscape:collect="always"
       xlink:href="#linearGradient22"
       id="linearGradient23"
       x1="177.19191"
       y1="58.990749"
       x2="207.31994"
       y2="58.990749"
       gradientUnits="userSpaceOnUse" /><linearGradient
       inkscape:collect="always"
       xlink:href="#linearGradient24"
       id="linearGradient25"
       x1="176.32031"
       y1="20.126524"
       x2="176.32031"
       y2="56.695721"
       gradientUnits="userSpaceOnUse" /><linearGradient
       inkscape:collect="always"
       xlink:href="#linearGradient26"
       id="linearGradient27"
       x1="172.59729"
       y1="13.51158"
       x2="210.54449"
       y2="51.28627"
       gradientUnits="userSpaceOnUse" /></defs><sodipodi:namedview
     id="base"
     pagecolor="#ffffff"
     bordercolor="#000000"
     borderopacity="0.3"
     inkscape:pageopacity="0.0"
     inkscape:pageshadow="2"
     inkscape:zoom="0.98994949"
     inkscape:cx="505.07627"
     inkscape:cy="476.792"
     inkscape:document-units="mm"
     inkscape:showpageshadow="2"
     inkscape:pagecheckerboard="0"
     inkscape:deskcolor="#d1d1d1"
     inkscape:current-layer="g28"
     showguides="true" /><metadata
     id="metadata1"><rdf:RDF><cc:Work
         rdf:about=""><dc:format>image/svg+xml</dc:format><dc:type
           rdf:resource="http://purl.org/dc/dcmitype/StillImage" /><cc:license
           rdf:resource="http://creativecommons.org/publicdomain/zero/1.0/" /></cc:Work><cc:License
         rdf:about="http://creativecommons.org/publicdomain/zero/1.0/"><cc:permits
           rdf:resource="http://creativecommons.org/ns#Reproduction" /><cc:permits
           rdf:resource="http://creativecommons.org/ns#Distribution" /><cc:permits
           rdf:resource="http://creativecommons.org/ns#DerivativeWorks" /></cc:License></rdf:RDF></metadata><g
     id="g28"
     transform="matrix(1.0481261,0,0,1.0481261,-6.4074194,-6.1384097)"><g
       id="g7"
       inkscape:label="shadow"
       style="display:inline"><path
         id="rect1"
         style="fill:#000000;fill-opacity:0.0602258;stroke-width:3.72791;stroke-linecap:square"
         d="M 48.380952,13.418155 H 179.16071 l 43.46726,43.278274 V 244.17261 H 48.380952 Z"
         sodipodi:nodetypes="cccccc" /><path
         id="path1"
         style="fill:#000000;fill-opacity:0.0752823;stroke-width:3.72791;stroke-linecap:square"
         d="m 47.563027,12.60023 129.443423,-0.133635 43.46726,43.278274 1.33635,187.609821 H 47.563027 Z"
         sodipodi:nodetypes="cccccc" /><path
         id="path2"
         style="fill:#000000;fill-opacity:0.0602258;stroke-width:3.72791;stroke-linecap:square"
         d="m 46.493949,11.793049 128.975701,-0.868626 43.46726,43.278274 1.80407,188.344813 H 46.493949 Z"
         sodipodi:nodetypes="cccccc" /><path
         id="path3"
         style="fill:#000000;fill-opacity:0.0602258;stroke-width:3.72791;stroke-linecap:square"
         d="m 45.964782,12.33296 129.777508,0.467722 43.46726,42.209196 1.00226,187.008462 H 45.964782 Z"
         sodipodi:nodetypes="cccccc" /><path
         id="path4"
         style="fill:#000000;fill-opacity:0.0602258;stroke-width:3.72791;stroke-linecap:square"
         d="m 45.435615,12.338332 129.443415,0.935443 43.46726,41.674657 1.33635,186.540738 H 45.435615 Z"
         sodipodi:nodetypes="cccccc" /><path
         id="path5"
         style="fill:#000000;fill-opacity:0.0602258;stroke-width:3.72791;stroke-linecap:square"
         d="M 44.906448,12.744609 174.8844,13.412783 218.35166,54.151996 219.15347,240.96 H 44.906448 Z"
         sodipodi:nodetypes="cccccc" /><path
         id="path6"
         style="fill:#000000;fill-opacity:0.0602258;stroke-width:3.72791;stroke-linecap:square"
         d="m 44.377281,15.021772 129.911129,0.534539 43.46726,37.932883 0.86863,186.941636 H 44.377281 Z"
         sodipodi:nodetypes="cccccc" /><path
         id="path7"
         style="fill:#000000;fill-opacity:0.0602258;stroke-width:3.72791;stroke-linecap:square"
         d="m 43.848114,13.423527 129.710676,1.069078 43.46726,39.001961 1.06908,186.407094 H 43.848114 Z"
         sodipodi:nodetypes="cccccc" /></g><g
       id="g14"
       style="display:inline"><path
         style="color:#000000;fill:url(#linearGradient14);stroke-linecap:square;-inkscape-stroke:none"
         d="M 46.153822,14.648159 H 173.78301 l 40.90293,41.140298 V 236.0795 H 46.554726 Z"
         id="path15"
         inkscape:label="headbgground" /><path
         id="rect16"
         style="display:inline;fill:url(#linearGradient17);fill-opacity:1;stroke-width:4.99999;stroke-linecap:square"
         d="M 45.435818,14.165285 H 176.70315 l 0.20408,8.220982 H 53.433709 V 235.97952 h -7.997891 z"
         sodipodi:nodetypes="ccccccc" /><path
         id="rect17"
         style="fill:url(#linearGradient19);stroke-width:4.99999;stroke-linecap:square"
         d="M 47.058037,227.91965 H 207.27506 l -0.0668,-168.246312 7.31651,0.0667 0.0668,168.546562 -7.08265,0.0331 v 7.34846 H 47.058037 Z"
         sodipodi:nodetypes="ccccccccc" /><path
         style="color:#000000;fill:url(#linearGradient10);stroke-linecap:square;-inkscape-stroke:none"
         d="M 43.648437,12.148438 44.058594,238.58008 H 217.18555 V 54.757812 L 174.82227,12.148438 Z m 4.608862,4.999999 H 172.74414 l 39.44141,39.671875 V 233.58008 H 48.775405 Z"
         id="path16"
         inkscape:label="headframe"
         sodipodi:nodetypes="cccccccccccc" /></g><g
       id="rect23"
       style="display:inline"><rect
         style="display:inline;fill:url(#linearGradient23);fill-opacity:0.834379;stroke:none;stroke-width:4.99999;stroke-linecap:square;stroke-dasharray:none;stroke-opacity:1"
         id="rect20"
         width="30.128031"
         height="11.286353"
         x="177.19191"
         y="53.347572" /><path
         style="color:#000000;display:inline;fill:url(#linearGradient25);stroke-linecap:square;stroke-linejoin:bevel;-inkscape-stroke:none"
         d="m 174.15254,15.119046 40.91592,41.955358 H 174.814 Z"
         id="path25" /><g
         id="g27"><path
           id="rect27"
           style="display:inline;fill:#0a6db5;fill-opacity:0.459222;stroke-width:4.99999;stroke-linecap:square;stroke-linejoin:bevel"
           d="m 182.94047,23.245534 33.07293,33.82887 -33.07293,-0.09449 z"
           sodipodi:nodetypes="cccc" /><path
           id="path27"
           style="display:inline;fill:#1882cf;fill-opacity:0.459222;stroke-width:4.99999;stroke-linecap:square;stroke-linejoin:bevel"
           d="m 175.28645,49.514879 34.91556,0.188989 4.67746,7.087054 -39.68751,-0.472471 z"
           sodipodi:nodetypes="ccccc" /></g><path
         style="color:#000000;display:inline;fill:url(#linearGradient27);stroke-linecap:square;stroke-linejoin:bevel;-inkscape-stroke:none"
         d="m 175.94141,13.373047 -4.28907,1.785156 6.5e-4,44.600911 c 0,0 29.8634,-0.184895 43.41537,-0.184895 l 1.78906,-4.246094 z m 1.4286,7.056744 34.22551,34.144428 h -34.32013 z"
         id="path26"
         sodipodi:nodetypes="cccccccccc" /></g><g
       id="g2"
       style="display:inline"
       transform="matrix(1.012879,0,0,1.012879,-5.7715522,4.5406075)"><path
         d="m 103.84128,185.64508 q 0,4.35898 0.45093,7.21486 0.45093,2.70557 1.65341,4.35898 1.20248,1.50311 3.45713,2.25466 2.40496,0.75154 6.1627,1.20248 v 2.40495 H 78.438921 v -2.40495 q 3.757746,-0.60124 5.862083,-1.35279 2.254647,-0.75156 3.306817,-2.25466 1.20248,-1.6534 1.503099,-4.20867 0.30062,-2.70558 0.30062,-7.21486 v -80.8667 q 0,-2.70559 -0.30062,-4.35899 -0.300619,-1.803714 -1.352788,-2.705576 -0.901859,-1.05217 -2.705578,-1.352785 -1.653408,-0.300624 -4.358986,-0.300624 -1.503098,0 -2.104337,0.150317 V 93.35483 l 4.659606,-1.202479 q 3.607436,-1.202478 6.313012,-1.954027 2.705577,-0.901859 4.960225,-1.503098 2.254647,-0.75155 4.208675,-1.352789 1.954031,-0.751549 4.208671,-1.503099 l 0.90186,0.601241 v 52.307811 q 6.01239,-7.96641 11.72417,-11.27324 5.86208,-3.3068 13.37758,-3.3068 10.82231,0 15.93283,6.91425 5.11054,6.91425 5.11054,20.44214 v 34.12034 q 0,4.35898 0.30063,7.06456 0.30061,2.55526 1.35279,4.20868 1.20247,1.50308 3.3068,2.40495 2.10434,0.75155 5.56147,1.35279 v 2.40495 H 124.1331 v -2.40495 q 3.75776,-0.45094 6.01241,-1.20248 2.25464,-0.75155 3.45712,-2.25466 1.35279,-1.65341 1.6534,-4.35898 0.45094,-2.85588 0.45094,-7.21486 v -33.81971 q 0,-18.1875 -12.62603,-18.1875 -5.26084,0 -9.61983,2.40495 -4.20867,2.25466 -9.61983,8.26705 z m 81.91671,0.45091 q 3.60743,0 6.46332,2.8559 3.00619,2.85588 3.00619,6.76394 0,3.75775 -3.00619,6.61364 -2.85589,2.70556 -6.76394,2.70556 -3.90806,0 -6.76395,-2.70556 -2.70557,-2.85589 -2.70557,-6.76396 0,-4.05835 2.85589,-6.76393 2.85587,-2.70559 6.91425,-2.70559 z"
         id="text1"
         style="font-size:105.833px;line-height:1.15;font-family:Jomolhari;-inkscape-font-specification:Jomolhari;letter-spacing:0.928688px;word-spacing:0px;fill:#005ab7;fill-rule:evenodd;stroke-width:1.61723;stroke-linecap:round;stroke-linejoin:round;stroke-miterlimit:2.1;stroke-opacity:0.357798"
         aria-label="h." /><g
         id="text2"
         style="font-size:5.29167px;line-height:1.1;font-family:'Source Code Pro';-inkscape-font-specification:'Source Code Pro';letter-spacing:-0.232833px;word-spacing:0px;fill:#005ab7;fill-rule:evenodd;stroke:#5c5c5c;stroke-width:1.2;stroke-linecap:round;stroke-linejoin:round;stroke-miterlimit:2.1"
         aria-label="#ifndef FOO_H_   /* Include guard */&#10;#define FOO_H_&#10;&#10;int foo(int x);  /* An example function declaration */&#10;&#10;#endif // FOO_H_&#10;"
         transform="matrix(0.94195229,0,0,0.94195229,24.924381,0.14462456)"><path
           style="fill:#000000;stroke:none"
           d="m 38.168384,56.413827 0.09525,-0.783168 h 0.698501 l -0.09525,0.783168 z m -0.455083,1.381125 h 0.28575 l 0.132292,-1.0795 h 0.6985 l -0.132292,1.0795 h 0.28575 l 0.132292,-1.0795 h 0.486834 v -0.301625 h -0.449792 l 0.09525,-0.783168 h 0.460375 v -0.306916 h -0.423333 l 0.116416,-0.968376 h -0.280458 l -0.121709,0.968376 h -0.6985 l 0.116417,-0.968376 h -0.280459 l -0.121708,0.968376 h -0.486834 v 0.306916 h 0.449792 l -0.09525,0.783168 h -0.460375 v 0.301625 h 0.423333 z m 3.862921,0 h 0.433917 v -2.571751 h -1.629834 v 0.354542 h 1.195917 z m 0.169334,-3.111501 c 0.195792,0 0.34925,-0.132292 0.34925,-0.338667 0,-0.201084 -0.153458,-0.338667 -0.34925,-0.338667 -0.195792,0 -0.34925,0.137583 -0.34925,0.338667 0,0.206375 0.153458,0.338667 0.34925,0.338667 z m 2.381254,3.111501 h 0.428625 v -2.217209 h 1.079501 v -0.354542 h -1.079501 v -0.232834 c 0,-0.418042 0.1905,-0.672042 0.650875,-0.672042 0.222251,0 0.386292,0.02646 0.597959,0.121709 l 0.100542,-0.328084 c -0.243417,-0.100542 -0.486834,-0.148167 -0.740834,-0.148167 -0.709084,0 -1.037167,0.412751 -1.037167,1.042459 v 0.216959 l -0.735542,0.02646 v 0.328084 h 0.735542 z m 2.153712,0 h 0.433917 v -1.793876 c 0.301625,-0.312208 0.508,-0.465667 0.814917,-0.465667 0.423334,0 0.592667,0.232834 0.592667,0.719667 v 1.539876 h 0.433917 v -1.598084 c 0,-0.677334 -0.280458,-1.037167 -0.889,-1.037167 -0.402167,0 -0.698501,0.216958 -0.968376,0.502708 h -0.02117 l -0.03704,-0.439208 H 46.28052 Z m 3.884088,0.0635 c 0.317501,0 0.624418,-0.185208 0.836084,-0.402166 h 0.01587 l 0.03704,0.338666 h 0.359834 v -3.767669 h -0.433917 v 0.989543 l 0.02117,0.47625 h -0.01588 c -0.22225,-0.211667 -0.460375,-0.333375 -0.767292,-0.333375 -0.608542,0 -1.169459,0.518583 -1.169459,1.354667 0,0.857251 0.4445,1.344084 1.116542,1.344084 z m 0.08996,-0.365125 c -0.47625,0 -0.756709,-0.370417 -0.756709,-0.98425 0,-0.587376 0.359834,-0.984251 0.804334,-0.984251 0.22225,0 0.4445,0.08467 0.677334,0.301625 v 1.280584 c -0.227542,0.254 -0.470959,0.386292 -0.724959,0.386292 z m 3.100921,-1.989668 c 0.439209,0 0.73025,0.259292 0.767292,0.788459 h -1.640417 c 0.07937,-0.508 0.449791,-0.788459 0.873125,-0.788459 z m 0.0635,2.354793 c 0.41275,0 0.740834,-0.137583 0.994834,-0.306916 l -0.15875,-0.285751 c -0.232834,0.148167 -0.47625,0.243417 -0.783167,0.243417 -0.534459,0 -0.947209,-0.296333 -1.000126,-0.878417 h 2.02671 c 0.01058,-0.06879 0.02117,-0.164042 0.02117,-0.264583 0,-0.724959 -0.433917,-1.206501 -1.17475,-1.206501 -0.687917,0 -1.312334,0.508 -1.312334,1.344084 0,0.85725 0.613833,1.354667 1.386417,1.354667 z m 2.476504,-0.0635 h 0.428625 v -2.217209 h 1.079501 V 55.223201 H 56.32412 v -0.232834 c 0,-0.418042 0.190501,-0.672042 0.650876,-0.672042 0.22225,0 0.386292,0.02646 0.597959,0.121709 l 0.100541,-0.328084 c -0.243417,-0.100542 -0.486833,-0.148167 -0.740833,-0.148167 -0.709084,0 -1.037168,0.412751 -1.037168,1.042459 v 0.216959 l -0.735542,0.02646 v 0.328084 h 0.735542 z m 5.30755,0 h 0.444501 v -1.555751 h 1.428751 v -0.370416 h -1.428751 v -1.174751 h 1.688042 v -0.370417 h -2.132543 z m 3.82588,0.0635 c 0.783168,0 1.333501,-0.677333 1.333501,-1.815042 0,-1.121834 -0.550333,-1.783293 -1.333501,-1.783293 -0.783167,0 -1.3335,0.661459 -1.3335,1.783293 0,1.137709 0.550333,1.815042 1.3335,1.815042 z m 0,-0.386291 c -0.529167,0 -0.878417,-0.539751 -0.878417,-1.428751 0,-0.873126 0.34925,-1.397001 0.878417,-1.397001 0.529167,0 0.878418,0.523875 0.878418,1.397001 0,0.889 -0.349251,1.428751 -0.878418,1.428751 z m 2.942171,0.386291 c 0.783168,0 1.333501,-0.677333 1.333501,-1.815042 0,-1.121834 -0.550333,-1.783293 -1.333501,-1.783293 -0.783167,0 -1.3335,0.661459 -1.3335,1.783293 0,1.137709 0.550333,1.815042 1.3335,1.815042 z m 0,-0.386291 c -0.529167,0 -0.878417,-0.539751 -0.878417,-1.428751 0,-0.873126 0.34925,-1.397001 0.878417,-1.397001 0.529167,0 0.878418,0.523875 0.878418,1.397001 0,0.889 -0.349251,1.428751 -0.878418,1.428751 z m 1.672169,1.063625 h 2.540001 v -0.375708 h -2.540001 z m 3.042715,-0.740834 h 0.4445 v -1.635126 h 1.449917 v 1.635126 h 0.444501 v -3.471335 h -0.444501 v 1.455209 H 73.13048 v -1.455209 h -0.4445 z m 2.841627,0.740834 h 2.540002 v -0.375708 h -2.540002 z m 11.97506,0.105834 h 0.391583 l 1.735668,-4.603753 h -0.391584 z m 3.370798,-1.434043 0.635,-0.841375 0.635001,0.841375 0.22225,-0.15875 -0.571501,-0.873126 0.857251,-0.370416 -0.08467,-0.243417 -0.883709,0.291042 -0.04762,-1.000126 h -0.254 l -0.04762,1.000126 -0.883709,-0.291042 -0.08467,0.243417 0.85725,0.370416 -0.5715,0.873126 z m 5.43455,0.587375 H 98.4776 v -0.375708 h -0.862542 v -2.72521 H 98.4776 v -0.370417 h -2.169585 v 0.370417 h 0.862542 v 2.72521 h -0.862542 z m 2.931586,0 h 0.433917 v -1.793876 c 0.301625,-0.312208 0.508002,-0.465667 0.814912,-0.465667 0.42334,0 0.59267,0.232834 0.59267,0.719667 v 1.539876 h 0.43392 v -1.598084 c 0,-0.677334 -0.28046,-1.037167 -0.889,-1.037167 -0.40217,0 -0.698502,0.216958 -0.968377,0.502708 h -0.02117 l -0.03704,-0.439208 H 99.2396 Z m 4.280959,0.0635 c 0.381,0 0.73554,-0.148166 1.02129,-0.402166 l -0.19579,-0.280459 c -0.21166,0.179917 -0.47625,0.322792 -0.79375,0.322792 -0.59267,0 -0.98954,-0.396875 -0.98954,-0.984251 0,-0.592667 0.40746,-0.994834 1.00012,-0.994834 0.26988,0 0.49213,0.111125 0.7038,0.296334 l 0.21696,-0.280459 c -0.21167,-0.206375 -0.51859,-0.375708 -0.93663,-0.375708 -0.77788,0 -1.43404,0.492125 -1.43404,1.354667 0,0.851959 0.60325,1.344084 1.40758,1.344084 z m 3.26496,0 c 0.28046,0 0.44979,-0.05292 0.68792,-0.153458 l -0.11113,-0.322792 c -0.17462,0.07937 -0.33337,0.116417 -0.48154,0.116417 -0.30691,0 -0.508,-0.15875 -0.508,-0.534459 v -2.936877 h -1.34937 v 0.354542 h 0.91546 v 2.550585 c 0,0.608542 0.30162,0.926042 0.84666,0.926042 z m 2.09022,0 c 0.39688,0 0.6985,-0.211666 0.95779,-0.513292 h 0.0212 l 0.037,0.449792 h 0.35454 v -2.571751 h -0.43391 v 1.783293 c -0.28575,0.333375 -0.50271,0.47625 -0.79905,0.47625 -0.42862,0 -0.59266,-0.232834 -0.59266,-0.719667 v -1.539876 h -0.43921 v 1.598084 c 0,0.677334 0.28046,1.037167 0.89429,1.037167 z m 3.07446,0 c 0.3175,0 0.62442,-0.185208 0.83609,-0.402166 h 0.0159 l 0.037,0.338666 h 0.35984 v -3.767669 h -0.43392 v 0.989543 l 0.0212,0.47625 h -0.0159 c -0.22225,-0.211667 -0.46037,-0.333375 -0.76729,-0.333375 -0.60854,0 -1.16946,0.518583 -1.16946,1.354667 0,0.857251 0.4445,1.344084 1.11654,1.344084 z m 0.09,-0.365125 c -0.47625,0 -0.75671,-0.370417 -0.75671,-0.98425 0,-0.587376 0.35983,-0.984251 0.80434,-0.984251 0.22225,0 0.4445,0.08467 0.67733,0.301625 v 1.280584 c -0.22754,0.254 -0.47096,0.386292 -0.72496,0.386292 z m 3.10092,-1.989668 c 0.43921,0 0.73025,0.259292 0.76729,0.788459 h -1.64042 c 0.0794,-0.508 0.4498,-0.788459 0.87313,-0.788459 z m 0.0635,2.354793 c 0.41275,0 0.74083,-0.137583 0.99483,-0.306916 l -0.15875,-0.285751 c -0.23283,0.148167 -0.47625,0.243417 -0.78316,0.243417 -0.53446,0 -0.94721,-0.296333 -1.00013,-0.878417 h 2.02671 c 0.0106,-0.06879 0.0212,-0.164042 0.0212,-0.264583 0,-0.724959 -0.43392,-1.206501 -1.17475,-1.206501 -0.68792,0 -1.31234,0.508 -1.31234,1.344084 0,0.85725 0.61384,1.354667 1.38642,1.354667 z m 5.70443,1.121834 c 0.87312,0 1.42875,-0.418041 1.42875,-0.899583 0,-0.433917 -0.3175,-0.603251 -0.97896,-0.603251 h -0.57679 c -0.33867,0 -0.53446,-0.09525 -0.53446,-0.296333 0,-0.121709 0.0741,-0.216959 0.20108,-0.296334 0.14288,0.0635 0.30163,0.09525 0.43392,0.09525 0.55563,0 0.99483,-0.333375 0.99483,-0.883709 0,-0.206375 -0.10054,-0.396875 -0.21695,-0.518583 h 0.66675 v -0.354542 h -1.06363 c -0.11112,-0.04233 -0.23283,-0.0635 -0.381,-0.0635 -0.54504,0 -1.01071,0.359833 -1.01071,0.92075 0,0.306917 0.14288,0.534459 0.3175,0.666751 v 0.02117 c -0.19579,0.132292 -0.30692,0.317501 -0.30692,0.481542 0,0.216959 0.127,0.349251 0.26459,0.423334 v 0.02117 c -0.27517,0.15875 -0.42334,0.365125 -0.42334,0.5715 0,0.455084 0.43392,0.714375 1.18534,0.714375 z m -0.0265,-2.291293 c -0.32279,0 -0.59267,-0.238125 -0.59267,-0.608542 0,-0.359833 0.26988,-0.60325 0.59267,-0.60325 0.32808,0 0.59267,0.243417 0.59267,0.60325 0,0.370417 -0.26459,0.608542 -0.59267,0.608542 z m 0.0582,1.973793 c -0.55034,0 -0.84138,-0.169333 -0.84138,-0.439208 0,-0.148167 0.0847,-0.296334 0.32809,-0.428626 0.11112,0.03175 0.24341,0.04233 0.39158,0.04233 h 0.50271 c 0.39158,0 0.58737,0.06879 0.58737,0.312208 0,0.264584 -0.37041,0.513292 -0.96837,0.513292 z m 2.64583,-0.804334 c 0.39688,0 0.6985,-0.211666 0.9578,-0.513292 h 0.0212 l 0.037,0.449792 h 0.35455 v -2.571751 h -0.43392 v 1.783293 c -0.28575,0.333375 -0.50271,0.47625 -0.79904,0.47625 -0.42863,0 -0.59267,-0.232834 -0.59267,-0.719667 v -1.539876 h -0.43921 v 1.598084 c 0,0.677334 0.28046,1.037167 0.89429,1.037167 z m 2.94217,0 c 0.36513,0 0.73025,-0.1905 1.016,-0.41275 h 0.0159 l 0.037,0.34925 h 0.35454 v -1.576917 c 0,-0.640292 -0.33866,-1.058334 -1.04246,-1.058334 -0.44979,0 -0.88371,0.201083 -1.143,0.370417 l 0.16934,0.296333 c 0.23812,-0.148167 0.56621,-0.306917 0.89958,-0.306917 0.49742,0 0.67204,0.296334 0.68263,0.645584 -1.32821,0.105833 -1.86267,0.386292 -1.86267,0.963084 0,0.460375 0.39158,0.73025 0.87312,0.73025 z m 0.11642,-0.34925 c -0.29633,0 -0.56621,-0.121708 -0.56621,-0.41275 0,-0.338667 0.33867,-0.555625 1.43934,-0.645584 v 0.677334 c -0.29105,0.243417 -0.58209,0.381 -0.87313,0.381 z m 2.29659,0.28575 h 0.43391 v -1.508126 c 0.30692,-0.534458 0.67204,-0.735542 1.05834,-0.735542 0.20108,0 0.29633,0.02646 0.47625,0.08996 l 0.10054,-0.375709 c -0.15875,-0.07937 -0.3175,-0.105833 -0.508,-0.105833 -0.47625,0 -0.87842,0.259292 -1.14829,0.672042 h -0.0159 l -0.037,-0.608542 h -0.35983 z m 3.60363,0.0635 c 0.3175,0 0.62442,-0.185208 0.83609,-0.402166 h 0.0159 l 0.037,0.338666 h 0.35984 v -3.767669 h -0.43392 v 0.989543 l 0.0212,0.47625 h -0.0159 c -0.22225,-0.211667 -0.46038,-0.333375 -0.76729,-0.333375 -0.60854,0 -1.16946,0.518583 -1.16946,1.354667 0,0.857251 0.4445,1.344084 1.11654,1.344084 z m 0.09,-0.365125 c -0.47625,0 -0.75671,-0.370417 -0.75671,-0.98425 0,-0.587376 0.35983,-0.984251 0.80433,-0.984251 0.22225,0 0.4445,0.08467 0.67734,0.301625 v 1.280584 c -0.22754,0.254 -0.47096,0.386292 -0.72496,0.386292 z m 5.31284,-0.28575 0.635,-0.841375 0.635,0.841375 0.22225,-0.15875 -0.5715,-0.873126 0.85725,-0.370416 -0.0847,-0.243417 -0.88371,0.291042 -0.0476,-1.000126 h -0.254 l -0.0476,1.000126 -0.88371,-0.291042 -0.0847,0.243417 0.85725,0.370416 -0.5715,0.873126 z m 2.51354,1.434043 h 0.39159 l 1.73566,-4.603753 h -0.39158 z"
           id="path7-6" /><path
           style="fill:#000000;stroke:none"
           d="m 38.168384,62.234664 0.09525,-0.783168 h 0.698501 l -0.09525,0.783168 z m -0.455083,1.381125 h 0.28575 l 0.132292,-1.0795 h 0.6985 l -0.132292,1.0795 h 0.28575 l 0.132292,-1.0795 h 0.486834 v -0.301625 h -0.449792 l 0.09525,-0.783168 H 39.70826 V 61.14458 h -0.423333 l 0.116416,-0.968376 h -0.280458 l -0.121709,0.968376 h -0.6985 l 0.116417,-0.968376 h -0.280459 l -0.121708,0.968376 h -0.486834 v 0.306916 h 0.449792 l -0.09525,0.783168 h -0.460375 v 0.301625 h 0.423333 z m 3.624796,0.0635 c 0.3175,0 0.624417,-0.185208 0.836084,-0.402167 h 0.01588 l 0.03704,0.338667 h 0.359833 V 59.84812 h -0.433917 v 0.989543 l 0.02117,0.47625 h -0.01587 c -0.22225,-0.211667 -0.460375,-0.333375 -0.767292,-0.333375 -0.608542,0 -1.169459,0.518583 -1.169459,1.354667 0,0.857251 0.4445,1.344084 1.116542,1.344084 z m 0.08996,-0.365125 c -0.476251,0 -0.756709,-0.370417 -0.756709,-0.98425 0,-0.587376 0.359833,-0.984251 0.804334,-0.984251 0.22225,0 0.4445,0.08467 0.677333,0.301625 v 1.280584 c -0.227541,0.254 -0.470958,0.386292 -0.724958,0.386292 z m 3.100921,-1.989668 c 0.439208,0 0.73025,0.259292 0.767292,0.788459 h -1.640418 c 0.07937,-0.508 0.449792,-0.788459 0.873126,-0.788459 z m 0.0635,2.354793 c 0.41275,0 0.740834,-0.137583 0.994834,-0.306916 l -0.15875,-0.285751 c -0.232834,0.148167 -0.476251,0.243417 -0.783168,0.243417 -0.534458,0 -0.947208,-0.296333 -1.000125,-0.878417 h 2.026709 c 0.01058,-0.06879 0.02117,-0.164042 0.02117,-0.264584 0,-0.724958 -0.433917,-1.2065 -1.174751,-1.2065 -0.687917,0 -1.312334,0.508 -1.312334,1.344084 0,0.85725 0.613834,1.354667 1.386418,1.354667 z m 2.476504,-0.0635 h 0.428625 V 61.39858 h 1.079501 v -0.354542 h -1.079501 v -0.232834 c 0,-0.418042 0.1905,-0.672042 0.650876,-0.672042 0.22225,0 0.386291,0.02646 0.597958,0.121709 l 0.100542,-0.328084 c -0.243417,-0.100542 -0.486834,-0.148167 -0.740834,-0.148167 -0.709084,0 -1.037167,0.412751 -1.037167,1.042459 v 0.216959 l -0.735542,0.02646 v 0.328084 h 0.735542 z m 3.333755,0 h 0.433917 v -2.571751 h -1.629835 v 0.354542 h 1.195918 z m 0.169333,-3.111502 c 0.195792,0 0.34925,-0.132291 0.34925,-0.338666 0,-0.201084 -0.153458,-0.338667 -0.34925,-0.338667 -0.195792,0 -0.34925,0.137583 -0.34925,0.338667 0,0.206375 0.153458,0.338666 0.34925,0.338666 z m 1.592795,3.111502 h 0.433917 v -1.793876 c 0.301625,-0.312208 0.508001,-0.465667 0.814917,-0.465667 0.423334,0 0.592667,0.232834 0.592667,0.719667 v 1.539876 h 0.433917 v -1.598084 c 0,-0.677334 -0.280458,-1.037167 -0.889,-1.037167 -0.402167,0 -0.698501,0.216958 -0.968376,0.502708 h -0.02117 l -0.03704,-0.439208 h -0.359834 z m 4.132797,-2.291293 c 0.439209,0 0.730251,0.259292 0.767292,0.788459 h -1.640417 c 0.07937,-0.508 0.449792,-0.788459 0.873125,-0.788459 z m 0.0635,2.354793 c 0.41275,0 0.740834,-0.137583 0.994834,-0.306916 l -0.15875,-0.285751 c -0.232833,0.148167 -0.47625,0.243417 -0.783167,0.243417 -0.534459,0 -0.947209,-0.296333 -1.000126,-0.878417 h 2.02671 c 0.01058,-0.06879 0.02117,-0.164042 0.02117,-0.264584 0,-0.724958 -0.433917,-1.2065 -1.174751,-1.2065 -0.687917,0 -1.312334,0.508 -1.312334,1.344084 0,0.85725 0.613833,1.354667 1.386417,1.354667 z m 4.841883,-0.0635 h 0.444501 v -1.555751 h 1.428751 v -0.370416 h -1.428751 v -1.174751 h 1.688042 v -0.370417 h -2.132543 z m 3.82588,0.0635 c 0.783168,0 1.333501,-0.677333 1.333501,-1.815042 0,-1.121834 -0.550333,-1.783293 -1.333501,-1.783293 -0.783167,0 -1.3335,0.661459 -1.3335,1.783293 0,1.137709 0.550333,1.815042 1.3335,1.815042 z m 0,-0.386292 c -0.529167,0 -0.878417,-0.53975 -0.878417,-1.42875 0,-0.873126 0.34925,-1.397001 0.878417,-1.397001 0.529167,0 0.878418,0.523875 0.878418,1.397001 0,0.889 -0.349251,1.42875 -0.878418,1.42875 z m 2.942171,0.386292 c 0.783168,0 1.333501,-0.677333 1.333501,-1.815042 0,-1.121834 -0.550333,-1.783293 -1.333501,-1.783293 -0.783167,0 -1.3335,0.661459 -1.3335,1.783293 0,1.137709 0.550333,1.815042 1.3335,1.815042 z m 0,-0.386292 c -0.529167,0 -0.878417,-0.53975 -0.878417,-1.42875 0,-0.873126 0.34925,-1.397001 0.878417,-1.397001 0.529167,0 0.878418,0.523875 0.878418,1.397001 0,0.889 -0.349251,1.42875 -0.878418,1.42875 z m 1.672169,1.063626 h 2.540001 v -0.375708 h -2.540001 z m 3.042715,-0.740834 h 0.4445 v -1.635126 h 1.449917 v 1.635126 h 0.444501 v -3.471335 h -0.444501 v 1.455209 H 73.13048 v -1.455209 h -0.4445 z m 2.841627,0.740834 h 2.540002 v -0.375708 h -2.540002 z"
           id="path8-4" /><path
           style="fill:#000000;stroke:none"
           d="m 38.634051,75.257463 h 0.433917 v -2.571751 h -1.629834 v 0.354542 h 1.195917 z m 0.169334,-3.111502 c 0.195791,0 0.34925,-0.132291 0.34925,-0.338666 0,-0.201084 -0.153459,-0.338667 -0.34925,-0.338667 -0.195792,0 -0.349251,0.137583 -0.349251,0.338667 0,0.206375 0.153459,0.338666 0.349251,0.338666 z m 1.592795,3.111502 h 0.433917 v -1.793876 c 0.301625,-0.312208 0.508,-0.465667 0.814917,-0.465667 0.423334,0 0.592667,0.232834 0.592667,0.719667 v 1.539876 h 0.433917 v -1.598084 c 0,-0.677334 -0.280459,-1.037167 -0.889001,-1.037167 -0.402166,0 -0.6985,0.216958 -0.968375,0.502708 h -0.02117 l -0.03704,-0.439208 H 40.39618 Z m 4.534964,0.0635 c 0.322792,0 0.5715,-0.06879 0.804333,-0.153458 l -0.09525,-0.3175 c -0.185208,0.06879 -0.375708,0.116416 -0.619125,0.116416 -0.497417,0 -0.650875,-0.243416 -0.650875,-0.703792 v -1.222375 h 1.264709 v -0.354542 h -1.264709 v -0.825501 h -0.359834 l -0.05821,0.825501 -0.740834,0.02646 v 0.328084 h 0.724959 v 1.217084 c 0,0.635 0.243417,1.063625 0.994834,1.063625 z m 5.080008,-0.0635 h 0.428625 v -2.217209 h 1.079501 v -0.354542 h -1.079501 v -0.232834 c 0,-0.418042 0.1905,-0.672042 0.650876,-0.672042 0.22225,0 0.386292,0.02646 0.597958,0.121709 l 0.100542,-0.328084 c -0.243417,-0.100542 -0.486834,-0.148167 -0.740834,-0.148167 -0.709083,0 -1.037167,0.412751 -1.037167,1.042459 v 0.216959 l -0.735542,0.02646 v 0.328084 h 0.735542 z m 3.249088,0.0635 c 0.677334,0 1.270001,-0.492125 1.270001,-1.344084 0,-0.862542 -0.592667,-1.354667 -1.270001,-1.354667 -0.677334,0 -1.270001,0.492125 -1.270001,1.354667 0,0.851959 0.592667,1.344084 1.270001,1.344084 z m 0,-0.359833 c -0.492125,0 -0.820209,-0.396875 -0.820209,-0.984251 0,-0.592667 0.328084,-0.994834 0.820209,-0.994834 0.492125,0 0.820209,0.402167 0.820209,0.994834 0,0.587376 -0.328084,0.984251 -0.820209,0.984251 z m 2.942171,0.359833 c 0.677334,0 1.270001,-0.492125 1.270001,-1.344084 0,-0.862542 -0.592667,-1.354667 -1.270001,-1.354667 -0.677334,0 -1.270001,0.492125 -1.270001,1.354667 0,0.851959 0.592667,1.344084 1.270001,1.344084 z m 0,-0.359833 c -0.492125,0 -0.820209,-0.396875 -0.820209,-0.984251 0,-0.592667 0.328084,-0.994834 0.820209,-0.994834 0.492125,0 0.820209,0.402167 0.820209,0.994834 0,0.587376 -0.328084,0.984251 -0.820209,0.984251 z m 3.645963,1.227667 0.238125,-0.22225 c -0.709083,-0.597959 -1.037167,-1.291167 -1.037167,-2.180168 0,-0.889 0.328084,-1.582209 1.037167,-2.180168 l -0.238125,-0.22225 c -0.735542,0.5715 -1.190625,1.381126 -1.190625,2.402418 0,1.021292 0.455083,1.830918 1.190625,2.402418 z m 2.323046,-0.931334 h 0.433917 v -2.571751 h -1.629834 v 0.354542 h 1.195917 z m 0.169333,-3.111502 c 0.195792,0 0.349251,-0.132291 0.349251,-0.338666 0,-0.201084 -0.153459,-0.338667 -0.349251,-0.338667 -0.195791,0 -0.34925,0.137583 -0.34925,0.338667 0,0.206375 0.153459,0.338666 0.34925,0.338666 z m 1.592796,3.111502 h 0.433917 v -1.793876 c 0.301625,-0.312208 0.508,-0.465667 0.814917,-0.465667 0.423333,0 0.592667,0.232834 0.592667,0.719667 v 1.539876 h 0.433917 v -1.598084 c 0,-0.677334 -0.280459,-1.037167 -0.889001,-1.037167 -0.402167,0 -0.6985,0.216958 -0.968375,0.502708 h -0.02117 l -0.03704,-0.439208 h -0.359833 z m 4.534963,0.0635 c 0.322792,0 0.571501,-0.06879 0.804334,-0.153458 l -0.09525,-0.3175 c -0.185208,0.06879 -0.375708,0.116416 -0.619125,0.116416 -0.497417,0 -0.650876,-0.243416 -0.650876,-0.703792 v -1.222375 h 1.26471 v -0.354542 h -1.26471 v -0.825501 h -0.359833 l -0.05821,0.825501 -0.740834,0.02646 v 0.328084 h 0.724959 v 1.217084 c 0,0.635 0.243416,1.063625 0.994833,1.063625 z m 4.138092,-0.0635 h 0.465667 l 0.423333,-0.592667 c 0.105834,-0.164042 0.211667,-0.312208 0.3175,-0.465667 h 0.02117 c 0.111125,0.148167 0.232833,0.3175 0.338667,0.465667 l 0.449792,0.592667 h 0.47625 l -0.984251,-1.296459 0.915459,-1.275292 h -0.460375 l -0.386292,0.555625 c -0.08996,0.142875 -0.195792,0.301625 -0.291042,0.4445 h -0.02117 C 73.765479,73.542962 73.659646,73.389504 73.569687,73.25192 l -0.407458,-0.566208 h -0.481542 l 0.904875,1.23825 z m 3.487211,0.931334 c 0.735542,-0.5715 1.190625,-1.381126 1.190625,-2.402418 0,-1.021292 -0.455083,-1.830918 -1.190625,-2.402418 l -0.238125,0.22225 c 0.709083,0.597959 1.037167,1.291168 1.037167,2.180168 0,0.889001 -0.328084,1.582209 -1.037167,2.180168 z m 3.645965,-2.762252 c 0.238125,0 0.428625,-0.179916 0.428625,-0.4445 0,-0.269875 -0.1905,-0.449792 -0.428625,-0.449792 -0.238125,0 -0.428625,0.179917 -0.428625,0.449792 0,0.264584 0.1905,0.4445 0.428625,0.4445 z m -0.423334,2.958044 c 0.582084,-0.216959 0.931334,-0.650875 0.931334,-1.270001 0,-0.41275 -0.164042,-0.677334 -0.47625,-0.677334 -0.227542,0 -0.423334,0.142876 -0.423334,0.402167 0,0.264584 0.185209,0.396876 0.412751,0.396876 0.03175,0 0.06879,0 0.100541,-0.01058 -0.01587,0.418042 -0.232833,0.687917 -0.66675,0.883709 z m 8.18622,-0.280459 h 0.391583 l 1.735668,-4.603752 h -0.391584 z m 3.370798,-1.434042 0.635,-0.841376 0.635001,0.841376 0.22225,-0.15875 -0.571501,-0.873126 0.857251,-0.370417 -0.08467,-0.243416 -0.883709,0.291041 -0.04762,-1.000125 h -0.254 l -0.04762,1.000125 -0.883709,-0.291041 -0.08467,0.243416 0.85725,0.370417 -0.5715,0.873126 z m 6.159509,-1.354668 c 0.121708,-0.386291 0.232833,-0.767292 0.343958,-1.169459 h 0.02117 c 0.105834,0.402167 0.22225,0.783168 0.343959,1.169459 l 0.164041,0.529167 h -1.037167 z m -1.058334,1.942043 h 0.449792 l 0.333375,-1.058334 h 1.259417 l 0.328084,1.058334 h 0.465667 l -1.169459,-3.471335 h -0.497417 z m 3.264961,0 h 0.433917 v -1.793876 c 0.301625,-0.312208 0.508003,-0.465667 0.814913,-0.465667 0.42334,0 0.59267,0.232834 0.59267,0.719667 v 1.539876 h 0.43392 v -1.598084 c 0,-0.677334 -0.28046,-1.037167 -0.889,-1.037167 -0.40217,0 -0.698503,0.216958 -0.968378,0.502708 h -0.02117 l -0.03704,-0.439208 H 99.2396 Z m 7.07496,-2.291293 c 0.43921,0 0.73025,0.259292 0.7673,0.788459 h -1.64042 c 0.0794,-0.508 0.44979,-0.788459 0.87312,-0.788459 z m 0.0635,2.354793 c 0.41275,0 0.74084,-0.137583 0.99484,-0.306917 l -0.15875,-0.28575 c -0.23284,0.148167 -0.47625,0.243417 -0.78317,0.243417 -0.53446,0 -0.94721,-0.296333 -1.00012,-0.878417 h 2.0267 c 0.0106,-0.06879 0.0212,-0.164042 0.0212,-0.264584 0,-0.724958 -0.43392,-1.2065 -1.17475,-1.2065 -0.68792,0 -1.31233,0.508 -1.31233,1.344084 0,0.85725 0.61383,1.354667 1.38641,1.354667 z m 1.5346,-0.0635 h 0.46566 l 0.42334,-0.592667 c 0.10583,-0.164042 0.21166,-0.312208 0.3175,-0.465667 h 0.0212 c 0.11113,0.148167 0.23284,0.3175 0.33867,0.465667 l 0.44979,0.592667 h 0.47625 l -0.98425,-1.296459 0.91546,-1.275292 h -0.46037 l -0.3863,0.555625 c -0.09,0.142875 -0.19579,0.301625 -0.29104,0.4445 h -0.0212 c -0.10584,-0.142875 -0.21167,-0.296333 -0.30163,-0.433917 l -0.40746,-0.566208 h -0.48154 l 0.90488,1.23825 z m 3.90525,0.0635 c 0.36513,0 0.73025,-0.1905 1.016,-0.41275 h 0.0159 l 0.037,0.34925 h 0.35454 v -1.576917 c 0,-0.640292 -0.33867,-1.058334 -1.04246,-1.058334 -0.44979,0 -0.88371,0.201083 -1.143,0.370417 l 0.16933,0.296333 c 0.23813,-0.148167 0.56621,-0.306917 0.89959,-0.306917 0.49741,0 0.67204,0.296334 0.68262,0.645584 -1.32821,0.105833 -1.86267,0.386292 -1.86267,0.963084 0,0.460375 0.39159,0.73025 0.87313,0.73025 z m 0.11642,-0.34925 c -0.29634,0 -0.56621,-0.121708 -0.56621,-0.41275 0,-0.338667 0.33866,-0.555625 1.43933,-0.645584 v 0.677334 c -0.29104,0.243417 -0.58208,0.381 -0.87312,0.381 z m 1.83092,0.28575 h 0.43391 v -1.862668 c 0.127,-0.264583 0.24342,-0.396875 0.42334,-0.396875 0.1905,0 0.26458,0.153459 0.26458,0.449792 v 1.809751 h 0.40217 v -1.862668 c 0.13758,-0.264583 0.23283,-0.396875 0.41275,-0.396875 0.1905,0 0.27516,0.153459 0.27516,0.449792 v 1.809751 h 0.43392 v -1.841501 c 0,-0.513292 -0.21167,-0.79375 -0.5715,-0.79375 -0.29633,0 -0.45508,0.169333 -0.60325,0.4445 -0.0741,-0.296334 -0.23283,-0.4445 -0.48683,-0.4445 -0.29634,0 -0.45509,0.164041 -0.58738,0.402167 h -0.0106 l -0.037,-0.338667 h -0.34925 z m 3.12737,1.084793 h 0.43392 v -0.867834 l -0.0212,-0.486834 h 0.0159 c 0.22754,0.211667 0.52916,0.333375 0.76729,0.333375 0.61913,0 1.16946,-0.513292 1.16946,-1.386417 0,-0.799042 -0.37042,-1.312334 -1.06363,-1.312334 -0.3175,0 -0.65087,0.164041 -0.889,0.391583 h -0.0159 l -0.037,-0.328083 h -0.35984 z m 1.12184,-1.386418 c -0.17463,0 -0.4445,-0.08467 -0.68792,-0.301625 v -1.280584 c 0.26458,-0.264584 0.52917,-0.386292 0.75671,-0.386292 0.51329,0 0.72496,0.381 0.72496,0.947209 0,0.635 -0.33338,1.021292 -0.79375,1.021292 z m 3.48192,0.365125 c 0.28046,0 0.4498,-0.05292 0.68792,-0.153458 l -0.11112,-0.322792 c -0.17463,0.07937 -0.33338,0.116417 -0.48155,0.116417 -0.30691,0 -0.508,-0.15875 -0.508,-0.534459 v -2.936877 h -1.34937 v 0.354542 h 0.91546 v 2.550585 c 0,0.608542 0.30162,0.926042 0.84666,0.926042 z m 2.47121,-2.354793 c 0.43921,0 0.73025,0.259292 0.7673,0.788459 h -1.64042 c 0.0794,-0.508 0.44979,-0.788459 0.87312,-0.788459 z m 0.0635,2.354793 c 0.41275,0 0.74084,-0.137583 0.99484,-0.306917 l -0.15875,-0.28575 c -0.23284,0.148167 -0.47625,0.243417 -0.78317,0.243417 -0.53446,0 -0.94721,-0.296333 -1.00012,-0.878417 h 2.02671 c 0.0106,-0.06879 0.0212,-0.164042 0.0212,-0.264584 0,-0.724958 -0.43392,-1.2065 -1.17475,-1.2065 -0.68792,0 -1.31233,0.508 -1.31233,1.344084 0,0.85725 0.61383,1.354667 1.38641,1.354667 z m 5.41868,-0.0635 h 0.42862 v -2.217209 h 1.0795 v -0.354542 h -1.0795 v -0.232834 c 0,-0.418042 0.1905,-0.672042 0.65088,-0.672042 0.22225,0 0.38629,0.02646 0.59796,0.121709 l 0.10054,-0.328084 c -0.24342,-0.100542 -0.48684,-0.148167 -0.74084,-0.148167 -0.70908,0 -1.03716,0.412751 -1.03716,1.042459 v 0.216959 l -0.73555,0.02646 v 0.328084 h 0.73555 z m 2.96334,0.0635 c 0.39687,0 0.6985,-0.211666 0.95779,-0.513292 h 0.0212 l 0.037,0.449792 h 0.35454 v -2.571751 h -0.43392 v 1.783292 c -0.28575,0.333376 -0.5027,0.476251 -0.79904,0.476251 -0.42862,0 -0.59266,-0.232834 -0.59266,-0.719667 v -1.539876 h -0.43921 v 1.598084 c 0,0.677334 0.28046,1.037167 0.89429,1.037167 z m 2.13254,-0.0635 h 0.43392 v -1.793876 c 0.30163,-0.312208 0.508,-0.465667 0.81492,-0.465667 0.42333,0 0.59266,0.232834 0.59266,0.719667 v 1.539876 h 0.43392 v -1.598084 c 0,-0.677334 -0.28046,-1.037167 -0.889,-1.037167 -0.40217,0 -0.6985,0.216958 -0.96837,0.502708 h -0.0212 l -0.037,-0.439208 h -0.35984 z m 4.28096,0.0635 c 0.38101,0 0.73555,-0.148166 1.0213,-0.402167 l -0.19579,-0.280458 c -0.21167,0.179917 -0.47626,0.322792 -0.79376,0.322792 -0.59266,0 -0.98954,-0.396875 -0.98954,-0.984251 0,-0.592667 0.40746,-0.994834 1.00013,-0.994834 0.26987,0 0.49212,0.111125 0.70379,0.296334 l 0.21696,-0.280459 c -0.21167,-0.206375 -0.51858,-0.375708 -0.93663,-0.375708 -0.77787,0 -1.43404,0.492125 -1.43404,1.354667 0,0.851959 0.60325,1.344084 1.40758,1.344084 z m 3.19617,0 c 0.3228,0 0.5715,-0.06879 0.80434,-0.153458 l -0.0953,-0.3175 c -0.18521,0.06879 -0.37571,0.116416 -0.61913,0.116416 -0.49741,0 -0.65087,-0.243416 -0.65087,-0.703792 v -1.222375 h 1.26471 v -0.354542 h -1.26471 v -0.825501 h -0.35984 l -0.0582,0.825501 -0.74084,0.02646 v 0.328084 h 0.72496 v 1.217084 c 0,0.635 0.24342,1.063625 0.99483,1.063625 z m 2.52943,-0.0635 h 0.43392 v -2.571751 h -1.62984 v 0.354542 h 1.19592 z m 0.16933,-3.111502 c 0.1958,0 0.34925,-0.132291 0.34925,-0.338666 0,-0.201084 -0.15345,-0.338667 -0.34925,-0.338667 -0.19579,0 -0.34925,0.137583 -0.34925,0.338667 0,0.206375 0.15346,0.338666 0.34925,0.338666 z m 2.68817,3.175002 c 0.67734,0 1.27,-0.492125 1.27,-1.344084 0,-0.862542 -0.59266,-1.354667 -1.27,-1.354667 -0.67733,0 -1.27,0.492125 -1.27,1.354667 0,0.851959 0.59267,1.344084 1.27,1.344084 z m 0,-0.359833 c -0.49212,0 -0.82021,-0.396875 -0.82021,-0.984251 0,-0.592667 0.32809,-0.994834 0.82021,-0.994834 0.49213,0 0.82021,0.402167 0.82021,0.994834 0,0.587376 -0.32808,0.984251 -0.82021,0.984251 z m 1.8468,0.296333 h 0.43391 v -1.793876 c 0.30163,-0.312208 0.508,-0.465667 0.81492,-0.465667 0.42333,0 0.59267,0.232834 0.59267,0.719667 v 1.539876 h 0.43391 v -1.598084 c 0,-0.677334 -0.28045,-1.037167 -0.889,-1.037167 -0.40216,0 -0.6985,0.216958 -0.96837,0.502708 h -0.0212 l -0.037,-0.439208 h -0.35983 z m 6.82626,0.0635 c 0.3175,0 0.62442,-0.185208 0.83608,-0.402167 h 0.0159 l 0.037,0.338667 h 0.35983 v -3.767669 h -0.43391 v 0.989543 l 0.0212,0.47625 h -0.0159 c -0.22225,-0.211667 -0.46038,-0.333375 -0.76729,-0.333375 -0.60855,0 -1.16946,0.518583 -1.16946,1.354667 0,0.857251 0.4445,1.344084 1.11654,1.344084 z m 0.09,-0.365125 c -0.47625,0 -0.75671,-0.370417 -0.75671,-0.984251 0,-0.587375 0.35983,-0.98425 0.80433,-0.98425 0.22225,0 0.4445,0.08467 0.67734,0.301625 v 1.280584 c -0.22754,0.254 -0.47096,0.386292 -0.72496,0.386292 z m 3.10092,-1.989668 c 0.43921,0 0.73025,0.259292 0.76729,0.788459 h -1.64042 c 0.0794,-0.508 0.44979,-0.788459 0.87313,-0.788459 z m 0.0635,2.354793 c 0.41275,0 0.74083,-0.137583 0.99483,-0.306917 l -0.15875,-0.28575 c -0.23283,0.148167 -0.47625,0.243417 -0.78317,0.243417 -0.53445,0 -0.9472,-0.296333 -1.00012,-0.878417 h 2.02671 c 0.0106,-0.06879 0.0212,-0.164042 0.0212,-0.264584 0,-0.724958 -0.43391,-1.2065 -1.17475,-1.2065 -0.68791,0 -1.31233,0.508 -1.31233,1.344084 0,0.85725 0.61383,1.354667 1.38642,1.354667 z m 3.02683,0 c 0.381,0 0.73555,-0.148166 1.0213,-0.402167 l -0.1958,-0.280458 c -0.21166,0.179917 -0.47625,0.322792 -0.79375,0.322792 -0.59266,0 -0.98954,-0.396875 -0.98954,-0.984251 0,-0.592667 0.40746,-0.994834 1.00013,-0.994834 0.26987,0 0.49212,0.111125 0.70379,0.296334 l 0.21696,-0.280459 c -0.21167,-0.206375 -0.51859,-0.375708 -0.93663,-0.375708 -0.77787,0 -1.43404,0.492125 -1.43404,1.354667 0,0.851959 0.60325,1.344084 1.40758,1.344084 z m 3.26496,0 c 0.28046,0 0.4498,-0.05292 0.68792,-0.153458 l -0.11112,-0.322792 c -0.17463,0.07937 -0.33338,0.116417 -0.48155,0.116417 -0.30691,0 -0.508,-0.15875 -0.508,-0.534459 v -2.936877 h -1.34937 v 0.354542 h 0.91546 v 2.550585 c 0,0.608542 0.30162,0.926042 0.84666,0.926042 z m 2.09021,0 c 0.36513,0 0.73026,-0.1905 1.01601,-0.41275 h 0.0159 l 0.037,0.34925 h 0.35454 v -1.576917 c 0,-0.640292 -0.33866,-1.058334 -1.04245,-1.058334 -0.4498,0 -0.88371,0.201083 -1.14301,0.370417 l 0.16934,0.296333 c 0.23812,-0.148167 0.56621,-0.306917 0.89958,-0.306917 0.49742,0 0.67204,0.296334 0.68263,0.645584 -1.32821,0.105833 -1.86267,0.386292 -1.86267,0.963084 0,0.460375 0.39158,0.73025 0.87312,0.73025 z m 0.11642,-0.34925 c -0.29633,0 -0.56621,-0.121708 -0.56621,-0.41275 0,-0.338667 0.33867,-0.555625 1.43934,-0.645584 v 0.677334 c -0.29104,0.243417 -0.58209,0.381 -0.87313,0.381 z m 2.29659,0.28575 h 0.43391 v -1.508126 c 0.30692,-0.534458 0.67205,-0.735542 1.05834,-0.735542 0.20108,0 0.29633,0.02646 0.47625,0.08996 l 0.10054,-0.375709 c -0.15875,-0.07937 -0.3175,-0.105833 -0.508,-0.105833 -0.47625,0 -0.87842,0.259292 -1.14829,0.672042 h -0.0159 l -0.037,-0.608542 h -0.35983 z m 3.47133,0.0635 c 0.36513,0 0.73025,-0.1905 1.016,-0.41275 h 0.0159 l 0.037,0.34925 h 0.35454 v -1.576917 c 0,-0.640292 -0.33866,-1.058334 -1.04246,-1.058334 -0.44979,0 -0.88371,0.201083 -1.143,0.370417 l 0.16934,0.296333 c 0.23812,-0.148167 0.5662,-0.306917 0.89958,-0.306917 0.49742,0 0.67204,0.296334 0.68263,0.645584 -1.32821,0.105833 -1.86267,0.386292 -1.86267,0.963084 0,0.460375 0.39158,0.73025 0.87312,0.73025 z m 0.11642,-0.34925 c -0.29633,0 -0.56621,-0.121708 -0.56621,-0.41275 0,-0.338667 0.33867,-0.555625 1.43934,-0.645584 v 0.677334 c -0.29105,0.243417 -0.58209,0.381 -0.87313,0.381 z m 3.60893,0.34925 c 0.3228,0 0.57151,-0.06879 0.80434,-0.153458 l -0.0953,-0.3175 c -0.18521,0.06879 -0.37571,0.116416 -0.61913,0.116416 -0.49741,0 -0.65087,-0.243416 -0.65087,-0.703792 v -1.222375 h 1.26471 v -0.354542 h -1.26471 v -0.825501 h -0.35984 l -0.0582,0.825501 -0.74084,0.02646 v 0.328084 h 0.72496 v 1.217084 c 0,0.635 0.24342,1.063625 0.99483,1.063625 z m 2.52942,-0.0635 h 0.43392 v -2.571751 h -1.62983 v 0.354542 h 1.19591 z m 0.16934,-3.111502 c 0.19579,0 0.34925,-0.132291 0.34925,-0.338666 0,-0.201084 -0.15346,-0.338667 -0.34925,-0.338667 -0.19579,0 -0.34925,0.137583 -0.34925,0.338667 0,0.206375 0.15346,0.338666 0.34925,0.338666 z m 2.68817,3.175002 c 0.67733,0 1.27,-0.492125 1.27,-1.344084 0,-0.862542 -0.59267,-1.354667 -1.27,-1.354667 -0.67734,0 -1.27,0.492125 -1.27,1.354667 0,0.851959 0.59266,1.344084 1.27,1.344084 z m 0,-0.359833 c -0.49213,0 -0.82021,-0.396875 -0.82021,-0.984251 0,-0.592667 0.32808,-0.994834 0.82021,-0.994834 0.49212,0 0.82021,0.402167 0.82021,0.994834 0,0.587376 -0.32809,0.984251 -0.82021,0.984251 z m 1.84679,0.296333 h 0.43392 v -1.793876 c 0.30162,-0.312208 0.508,-0.465667 0.81491,-0.465667 0.42334,0 0.59267,0.232834 0.59267,0.719667 v 1.539876 h 0.43392 v -1.598084 c 0,-0.677334 -0.28046,-1.037167 -0.889,-1.037167 -0.40217,0 -0.6985,0.216958 -0.96838,0.502708 h -0.0212 l -0.037,-0.439208 h -0.35983 z m 6.34471,-0.587375 0.635,-0.841376 0.635,0.841376 0.22225,-0.15875 -0.5715,-0.873126 0.85725,-0.370417 -0.0847,-0.243416 -0.88371,0.291041 -0.0476,-1.000125 h -0.254 l -0.0476,1.000125 -0.88371,-0.291041 -0.0847,0.243416 0.85725,0.370417 -0.5715,0.873126 z m 2.51355,1.434042 h 0.39158 l 1.73567,-4.603752 h -0.39158 z"
           id="path9" /><path
           style="fill:#000000;stroke:none"
           d="m 38.168384,85.518011 0.09525,-0.783167 h 0.698501 l -0.09525,0.783167 z m -0.455083,1.381126 h 0.28575 l 0.132292,-1.0795 h 0.6985 l -0.132292,1.0795 h 0.28575 l 0.132292,-1.0795 h 0.486834 v -0.301626 h -0.449792 l 0.09525,-0.783167 h 0.460375 v -0.306917 h -0.423333 l 0.116416,-0.968375 h -0.280458 l -0.121709,0.968375 h -0.6985 l 0.116417,-0.968375 h -0.280459 l -0.121708,0.968375 h -0.486834 v 0.306917 h 0.449792 l -0.09525,0.783167 h -0.460375 v 0.301626 h 0.423333 z m 3.873505,-2.291293 c 0.439208,0 0.73025,0.259292 0.767292,0.788459 H 40.71368 c 0.07938,-0.508 0.449792,-0.788459 0.873126,-0.788459 z m 0.0635,2.354793 c 0.41275,0 0.740833,-0.137583 0.994834,-0.306917 l -0.15875,-0.28575 c -0.232834,0.148167 -0.476251,0.243417 -0.783168,0.243417 -0.534458,0 -0.947209,-0.296334 -1.000125,-0.878417 h 2.026709 c 0.01058,-0.06879 0.02117,-0.164042 0.02117,-0.264584 0,-0.724958 -0.433917,-1.2065 -1.174751,-1.2065 -0.687917,0 -1.312334,0.508 -1.312334,1.344084 0,0.85725 0.613834,1.354667 1.386418,1.354667 z m 1.688045,-0.0635 h 0.433917 v -1.793876 c 0.301625,-0.312208 0.508,-0.465667 0.814917,-0.465667 0.423334,0 0.592667,0.232834 0.592667,0.719667 v 1.539876 h 0.433917 v -1.598084 c 0,-0.677334 -0.280458,-1.037167 -0.889,-1.037167 -0.402167,0 -0.698501,0.216958 -0.968376,0.502708 h -0.02117 l -0.03704,-0.439208 h -0.359834 z m 3.884088,0.0635 c 0.317501,0 0.624417,-0.185208 0.836084,-0.402167 h 0.01588 l 0.03704,0.338667 h 0.359833 V 83.131468 H 48.03736 v 0.989543 l 0.02117,0.47625 h -0.01588 c -0.22225,-0.211667 -0.460375,-0.333375 -0.767292,-0.333375 -0.608542,0 -1.169459,0.518583 -1.169459,1.354667 0,0.857251 0.4445,1.344084 1.116542,1.344084 z m 0.08996,-0.365125 c -0.476251,0 -0.756709,-0.370417 -0.756709,-0.984251 0,-0.587375 0.359834,-0.98425 0.804334,-0.98425 0.22225,0 0.4445,0.08467 0.677334,0.301625 v 1.280584 c -0.227542,0.254 -0.470959,0.386292 -0.724959,0.386292 z m 3.090338,0.301625 h 0.433917 v -2.571751 h -1.629835 v 0.354542 h 1.195918 z m 0.169333,-3.111502 c 0.195792,0 0.34925,-0.132291 0.34925,-0.338667 0,-0.201083 -0.153458,-0.338666 -0.34925,-0.338666 -0.195792,0 -0.34925,0.137583 -0.34925,0.338666 0,0.206376 0.153458,0.338667 0.34925,0.338667 z m 2.381254,3.111502 h 0.428625 v -2.217209 h 1.079501 v -0.354542 h -1.079501 v -0.232834 c 0,-0.418042 0.190501,-0.672042 0.650876,-0.672042 0.22225,0 0.386292,0.02646 0.597958,0.121708 l 0.100542,-0.328083 c -0.243417,-0.100542 -0.486833,-0.148167 -0.740834,-0.148167 -0.709083,0 -1.037167,0.41275 -1.037167,1.042459 v 0.216959 l -0.735542,0.02646 v 0.328084 h 0.735542 z m 5.127634,0.846667 h 0.391583 l 1.735668,-4.603752 h -0.391584 z m 2.942171,0 h 0.391583 l 1.735668,-4.603752 h -0.391584 z m 6.064259,-0.846667 h 0.4445 v -1.555751 h 1.428751 v -0.370417 h -1.428751 v -1.17475 h 1.688043 v -0.370417 h -2.132543 z m 3.825878,0.0635 c 0.783167,0 1.3335,-0.677334 1.3335,-1.815043 0,-1.121834 -0.550333,-1.783292 -1.3335,-1.783292 -0.783167,0 -1.333501,0.661458 -1.333501,1.783292 0,1.137709 0.550334,1.815043 1.333501,1.815043 z m 0,-0.386292 c -0.529167,0 -0.878418,-0.53975 -0.878418,-1.428751 0,-0.873125 0.349251,-1.397 0.878418,-1.397 0.529167,0 0.878417,0.523875 0.878417,1.397 0,0.889001 -0.34925,1.428751 -0.878417,1.428751 z m 2.942173,0.386292 c 0.783167,0 1.3335,-0.677334 1.3335,-1.815043 0,-1.121834 -0.550333,-1.783292 -1.3335,-1.783292 -0.783167,0 -1.333501,0.661458 -1.333501,1.783292 0,1.137709 0.550334,1.815043 1.333501,1.815043 z m 0,-0.386292 c -0.529167,0 -0.878418,-0.53975 -0.878418,-1.428751 0,-0.873125 0.349251,-1.397 0.878418,-1.397 0.529167,0 0.878417,0.523875 0.878417,1.397 0,0.889001 -0.34925,1.428751 -0.878417,1.428751 z m 1.672168,1.063626 h 2.540002 v -0.375709 h -2.540002 z m 3.042715,-0.740834 h 0.4445 v -1.635126 h 1.449918 v 1.635126 h 0.4445 v -3.471335 h -0.4445 v 1.455209 h -1.449918 v -1.455209 h -0.4445 z m 2.841627,0.740834 h 2.540002 v -0.375709 h -2.540002 z"
           id="path10" /></g></g></g></svg>
