<svg xmlns="http://www.w3.org/2000/svg" viewBox="0 -0.5 26 29" shape-rendering="crispEdges">
<metadata>Made with Pixels to Svg https://codepen.io/shshaw/pen/XbxvNj</metadata>
<path stroke="#000000" d="M2 0h23M2 1h1M25 1h1M1 2h3M25 2h1M0 3h1M2 3h1M25 3h1M0 4h1M2 4h1M25 4h1M1 5h3M25 5h1M0 6h1M2 6h1M25 6h1M0 7h1M2 7h1M25 7h1M1 8h3M25 8h1M0 9h1M2 9h1M25 9h1M0 10h1M2 10h1M25 10h1M1 11h3M25 11h1M0 12h1M2 12h1M25 12h1M0 13h1M2 13h1M25 13h1M1 14h3M25 14h1M0 15h1M2 15h1M25 15h1M0 16h1M2 16h1M25 16h1M1 17h3M25 17h1M0 18h1M2 18h1M25 18h1M0 19h1M2 19h1M25 19h1M1 20h3M25 20h1M0 21h1M2 21h1M25 21h1M0 22h1M2 22h1M25 22h1M1 23h3M25 23h1M0 24h1M2 24h1M25 24h1M0 25h1M2 25h1M25 25h1M1 26h3M25 26h1M24 27h2M2 28h23"/>
<path stroke="#fefefe" d="M3 1h1M3 4h1M3 7h1M3 10h1M3 13h1M3 16h1M3 19h1M3 22h1M3 25h1"/>
<path stroke="#ffffff" d="M4 1h20M4 2h20M4 3h13M19 3h5M4 4h2M7 4h10M20 4h4M4 5h1M22 5h2M4 6h2M7 6h2M13 6h3M20 6h4M4 7h1M22 7h2M4 8h2M7 8h2M13 8h4M20 8h4M4 9h1M22 9h2M4 10h2M7 10h2M13 10h4M20 10h4M4 11h1M22 11h2M4 12h2M7 12h10M21 12h3M4 13h1M22 13h2M4 14h2M7 14h2M13 14h11M4 15h1M22 15h2M4 16h2M7 16h6M20 16h4M4 17h1M22 17h2M4 18h2M7 18h9M20 18h4M4 19h1M22 19h2M4 20h2M7 20h8M18 20h6M4 21h1M22 21h2M4 22h2M7 22h9M18 22h6M4 23h1M22 23h2M4 24h2M7 24h8M18 24h6M4 25h2M7 25h9M18 25h6M4 26h20"/>
<path stroke="#808000" d="M24 1h1M24 2h1M24 3h1M24 4h1M24 5h1M11 6h1M24 6h1M11 7h1M24 7h1M11 8h1M24 8h1M11 9h1M24 9h1M11 10h1M24 10h1M10 11h2M24 11h1M24 12h1M24 13h1M11 14h1M24 14h1M10 15h2M24 15h1M24 16h1M24 17h1M24 18h1M24 19h1M24 20h1M24 21h1M24 22h1M24 23h1M24 24h1M24 25h1M24 26h1M2 27h22"/>
<path stroke="#007f7f" d="M3 3h1M3 6h1M3 9h1M3 12h1M3 15h1M3 18h1M3 21h1M3 24h1"/>
<path stroke="#0000ff" d="M17 3h2M17 4h2M16 6h3M17 7h2M17 8h2M17 9h2M17 10h2M16 11h4"/>
<path stroke="#00ffff" d="M6 4h1M6 6h1M6 8h1M6 10h1M6 12h1M6 14h1M6 16h1M6 18h1M6 20h1M6 22h1M6 24h1"/>
<path stroke="#c0c0c0" d="M19 4h1M5 5h4M11 5h7M20 5h2M19 6h1M5 7h4M13 7h4M20 7h2M19 8h1M5 9h4M13 9h4M20 9h2M19 10h1M5 11h5M13 11h3M21 11h1M17 12h4M5 13h4M11 13h11M5 15h5M13 15h1M18 15h4M19 16h1M5 17h8M16 17h1M20 17h2M19 18h1M5 19h10M19 19h3M17 20h1M5 21h10M18 21h4M16 22h2M5 23h10M17 23h5M17 24h1M6 25h1M16 25h2"/>
<path stroke="#ffff00" d="M9 5h2M9 6h2M9 7h2M9 8h2M9 9h2M9 10h2M9 13h2M9 14h2"/>
<path stroke="#808080" d="M18 5h2M19 7h1M19 9h1M20 11h1M15 17h1M19 17h1M18 19h1M17 21h1"/>
<path stroke="#fffffe" d="M12 6h1M12 8h1M12 10h1M12 14h1"/>
<path stroke="#c0c0bf" d="M12 7h1M12 9h1M12 11h1M12 15h1"/>
<path stroke="#800000" d="M14 15h4M13 16h6M13 17h2M17 17h2M16 18h3M15 19h3M15 20h2M15 21h2M15 23h2M15 24h2"/>
</svg>