<?xml version="1.0" encoding="UTF-8" standalone="no"?>
<!-- Created with Inkscape (http://www.inkscape.org/) -->

<svg
   width="256mm"
   height="256mm"
   viewBox="0 0 256 256"
   version="1.1"
   id="svg1"
   inkscape:version="1.3.2 (091e20ef0f, 2023-11-25)"
   xml:space="preserve"
   sodipodi:docname="text-vbscript.svg"
   xmlns:inkscape="http://www.inkscape.org/namespaces/inkscape"
   xmlns:sodipodi="http://sodipodi.sourceforge.net/DTD/sodipodi-0.dtd"
   xmlns:xlink="http://www.w3.org/1999/xlink"
   xmlns="http://www.w3.org/2000/svg"
   xmlns:svg="http://www.w3.org/2000/svg"
   xmlns:rdf="http://www.w3.org/1999/02/22-rdf-syntax-ns#"
   xmlns:cc="http://creativecommons.org/ns#"
   xmlns:dc="http://purl.org/dc/elements/1.1/"><defs
     id="defs1"><linearGradient
       id="linearGradient26"
       inkscape:collect="always"><stop
         style="stop-color:#7b91c4;stop-opacity:1;"
         offset="0"
         id="stop26" /><stop
         style="stop-color:#5c5e91;stop-opacity:1"
         offset="1"
         id="stop27" /></linearGradient><linearGradient
       id="linearGradient24"
       inkscape:collect="always"><stop
         style="stop-color:#c7fafe;stop-opacity:1;"
         offset="0"
         id="stop24" /><stop
         style="stop-color:#9acdff;stop-opacity:1"
         offset="1"
         id="stop25" /></linearGradient><linearGradient
       id="linearGradient22"
       inkscape:collect="always"><stop
         style="stop-color:#adaeae;stop-opacity:0.8253752;"
         offset="0"
         id="stop22" /><stop
         style="stop-color:#8ac5fe;stop-opacity:0.83628923;"
         offset="1"
         id="stop23" /></linearGradient><linearGradient
       id="linearGradient18"
       inkscape:collect="always"><stop
         style="stop-color:#9797ff;stop-opacity:1;"
         offset="0"
         id="stop18" /><stop
         style="stop-color:#ccccff;stop-opacity:1;"
         offset="0.30000001"
         id="stop20" /><stop
         style="stop-color:#ccccff;stop-opacity:1;"
         offset="1"
         id="stop19" /></linearGradient><linearGradient
       id="linearGradient16"
       inkscape:collect="always"><stop
         style="stop-color:#cdcdcd;stop-opacity:0.17462483;"
         offset="0"
         id="stop16" /><stop
         style="stop-color:#cdcdcd;stop-opacity:1;"
         offset="1"
         id="stop17" /></linearGradient><linearGradient
       id="linearGradient12"
       inkscape:collect="always"><stop
         style="stop-color:#fdfeff;stop-opacity:1;"
         offset="0"
         id="stop13" /><stop
         style="stop-color:#99ccff;stop-opacity:1;"
         offset="1"
         id="stop14" /></linearGradient><linearGradient
       id="linearGradient9"
       inkscape:collect="always"><stop
         style="stop-color:#97c9fc;stop-opacity:1;"
         offset="0"
         id="stop9" /><stop
         style="stop-color:#7788bb;stop-opacity:1"
         offset="0.25"
         id="stop12" /><stop
         style="stop-color:#57578a;stop-opacity:1"
         offset="0.5"
         id="stop11" /><stop
         style="stop-color:#444482;stop-opacity:1;"
         offset="1"
         id="stop10" /></linearGradient><linearGradient
       inkscape:collect="always"
       xlink:href="#linearGradient9"
       id="linearGradient10"
       x1="31.622168"
       y1="100.24049"
       x2="221.19499"
       y2="240.28973"
       gradientUnits="userSpaceOnUse" /><linearGradient
       inkscape:collect="always"
       xlink:href="#linearGradient12"
       id="linearGradient14"
       x1="73.583481"
       y1="62.020954"
       x2="207.02971"
       y2="229.59895"
       gradientUnits="userSpaceOnUse" /><linearGradient
       inkscape:collect="always"
       xlink:href="#linearGradient16"
       id="linearGradient17"
       x1="57.531055"
       y1="26.420616"
       x2="147.13231"
       y2="144.34076"
       gradientUnits="userSpaceOnUse" /><linearGradient
       inkscape:collect="always"
       xlink:href="#linearGradient18"
       id="linearGradient19"
       x1="209.82518"
       y1="58.53635"
       x2="210.58252"
       y2="194.57654"
       gradientUnits="userSpaceOnUse" /><linearGradient
       inkscape:collect="always"
       xlink:href="#linearGradient22"
       id="linearGradient23"
       x1="177.19191"
       y1="58.990749"
       x2="207.31994"
       y2="58.990749"
       gradientUnits="userSpaceOnUse" /><linearGradient
       inkscape:collect="always"
       xlink:href="#linearGradient24"
       id="linearGradient25"
       x1="176.32031"
       y1="20.126524"
       x2="176.32031"
       y2="56.695721"
       gradientUnits="userSpaceOnUse" /><linearGradient
       inkscape:collect="always"
       xlink:href="#linearGradient26"
       id="linearGradient27"
       x1="172.59729"
       y1="13.51158"
       x2="210.54449"
       y2="51.28627"
       gradientUnits="userSpaceOnUse" /><linearGradient
       inkscape:collect="always"
       xlink:href="#linearGradient27-2"
       id="linearGradient28-6"
       x1="125.39883"
       y1="76.110962"
       x2="257.29855"
       y2="76.110962"
       gradientUnits="userSpaceOnUse"
       gradientTransform="translate(-46.0944,20.196)" /><linearGradient
       id="linearGradient27-2"
       inkscape:collect="always"><stop
         style="stop-color:#faf100;stop-opacity:1;"
         offset="0"
         id="stop27-24" /><stop
         style="stop-color:#e6c603;stop-opacity:1;"
         offset="1"
         id="stop28-70" /></linearGradient><linearGradient
       inkscape:collect="always"
       xlink:href="#linearGradient30"
       id="linearGradient29-4"
       gradientUnits="userSpaceOnUse"
       gradientTransform="matrix(0.97686946,0,0,0.97686946,-42.243457,23.025688)"
       x1="144.61368"
       y1="34.519325"
       x2="207.68047"
       y2="83.650963" /><linearGradient
       id="linearGradient30"
       inkscape:collect="always"><stop
         style="stop-color:#cdae00;stop-opacity:1;"
         offset="0"
         id="stop29-9" /><stop
         style="stop-color:#ddbe03;stop-opacity:1;"
         offset="1"
         id="stop30-6" /></linearGradient><radialGradient
       inkscape:collect="always"
       xlink:href="#linearGradient32"
       id="radialGradient31-5"
       cx="152.94659"
       cy="85.165756"
       fx="152.94659"
       fy="85.165756"
       r="64.4244"
       gradientTransform="matrix(0.43875,0.44403709,-1.483525,1.4658608,202.01862,-98.826107)"
       gradientUnits="userSpaceOnUse" /><linearGradient
       id="linearGradient32"
       inkscape:collect="always"><stop
         style="stop-color:#766500;stop-opacity:1;"
         offset="0"
         id="stop31-4" /><stop
         style="stop-color:#a99101;stop-opacity:1;"
         offset="0.75132781"
         id="stop33-6" /><stop
         style="stop-color:#bba002;stop-opacity:1;"
         offset="0.83710784"
         id="stop34-4" /><stop
         style="stop-color:#ddbe03;stop-opacity:1;"
         offset="1"
         id="stop32-2" /></linearGradient><linearGradient
       inkscape:collect="always"
       xlink:href="#linearGradient26-0"
       id="linearGradient16-5"
       gradientUnits="userSpaceOnUse"
       gradientTransform="matrix(1.0292346,0,0,1.0165338,-5.0153575,-1.1517224)"
       x1="198.8712"
       y1="43.005608"
       x2="82.684799"
       y2="156.10321" /><linearGradient
       id="linearGradient26-0"
       inkscape:collect="always"><stop
         style="stop-color:#ff7618;stop-opacity:1;"
         offset="0"
         id="stop16-1" /><stop
         style="stop-color:#e25700;stop-opacity:1;"
         offset="0.3102276"
         id="stop17-6" /><stop
         style="stop-color:#cd4800;stop-opacity:1;"
         offset="1"
         id="stop26-13" /></linearGradient><linearGradient
       inkscape:collect="always"
       xlink:href="#linearGradient5"
       id="linearGradient6"
       x1="198.8712"
       y1="43.005608"
       x2="82.684799"
       y2="156.10321"
       gradientUnits="userSpaceOnUse"
       gradientTransform="translate(-0.23760007,0.23760005)" /><linearGradient
       id="linearGradient5"
       inkscape:collect="always"><stop
         style="stop-color:#ff6700;stop-opacity:1;"
         offset="0"
         id="stop5-7" /><stop
         style="stop-color:#db5400;stop-opacity:1;"
         offset="0.3278105"
         id="stop7-7" /><stop
         style="stop-color:#ff9638;stop-opacity:1;"
         offset="0.36368132"
         id="stop8-1" /><stop
         style="stop-color:#fff89d;stop-opacity:1;"
         offset="0.43014002"
         id="stop9-21" /><stop
         style="stop-color:#ffdc85;stop-opacity:1;"
         offset="0.45585686"
         id="stop14-08" /><stop
         style="stop-color:#fff095;stop-opacity:1;"
         offset="0.47655967"
         id="stop10-9" /><stop
         style="stop-color:#ffda7b;stop-opacity:1;"
         offset="0.49823296"
         id="stop13-0" /><stop
         style="stop-color:#fff89d;stop-opacity:1;"
         offset="0.52493638"
         id="stop11-1" /><stop
         style="stop-color:#ffa953;stop-opacity:1;"
         offset="0.58118391"
         id="stop15" /><stop
         style="stop-color:#fb6311;stop-opacity:1;"
         offset="0.62281853"
         id="stop12-3" /><stop
         style="stop-color:#b84100;stop-opacity:1;"
         offset="1"
         id="stop6-4" /></linearGradient><linearGradient
       inkscape:collect="always"
       xlink:href="#linearGradient42"
       id="linearGradient43"
       x1="38.643589"
       y1="102.60801"
       x2="74.931862"
       y2="139.90591"
       gradientUnits="userSpaceOnUse" /><linearGradient
       id="linearGradient42"
       inkscape:collect="always"><stop
         style="stop-color:#03203b;stop-opacity:1;"
         offset="0.12170757"
         id="stop41-8" /><stop
         style="stop-color:#0f478b;stop-opacity:1;"
         offset="0.25960353"
         id="stop43-5" /><stop
         style="stop-color:#0f4588;stop-opacity:1;"
         offset="0.34095603"
         id="stop44-8" /><stop
         style="stop-color:#0f4486;stop-opacity:1;"
         offset="1"
         id="stop42-2" /></linearGradient><radialGradient
       inkscape:collect="always"
       xlink:href="#linearGradient34"
       id="radialGradient38"
       gradientUnits="userSpaceOnUse"
       gradientTransform="matrix(-0.38357942,0.3726596,-1.861152,-1.9156883,299.11124,380.31907)"
       cx="12.32041"
       cy="140.435"
       fx="12.32041"
       fy="140.435"
       r="21.840326" /><linearGradient
       id="linearGradient34"
       inkscape:collect="always"><stop
         style="stop-color:#c6ddf8;stop-opacity:1;"
         offset="0"
         id="stop35-2" /><stop
         style="stop-color:#1359ad;stop-opacity:1;"
         offset="0.5"
         id="stop37-0" /><stop
         style="stop-color:#0f4b91;stop-opacity:0;"
         offset="0.75"
         id="stop38-6" /><stop
         style="stop-color:#0f4486;stop-opacity:0;"
         offset="1"
         id="stop36-3" /></linearGradient><radialGradient
       inkscape:collect="always"
       xlink:href="#linearGradient34"
       id="radialGradient46"
       gradientUnits="userSpaceOnUse"
       gradientTransform="matrix(-0.38357942,0.3726596,-1.861152,-1.9156883,299.11124,380.31907)"
       cx="-34.443596"
       cy="129.67165"
       fx="-34.443596"
       fy="129.67165"
       r="21.840326" /><linearGradient
       inkscape:collect="always"
       xlink:href="#linearGradient49"
       id="linearGradient46"
       gradientUnits="userSpaceOnUse"
       x1="80.645729"
       y1="140.24193"
       x2="59.139057"
       y2="139.40187" /><linearGradient
       id="linearGradient49"
       inkscape:collect="always"><stop
         style="stop-color:#03203b;stop-opacity:1;"
         offset="0.12170757"
         id="stop46-2" /><stop
         style="stop-color:#0f478b;stop-opacity:1;"
         offset="0.25960353"
         id="stop47-00" /><stop
         style="stop-color:#1154a5;stop-opacity:0.66435987;"
         offset="0.34095603"
         id="stop48-3" /><stop
         style="stop-color:#0f4486;stop-opacity:0.17647059;"
         offset="1"
         id="stop49-3" /></linearGradient><linearGradient
       inkscape:collect="always"
       xlink:href="#linearGradient50"
       id="linearGradient51"
       x1="26.135996"
       y1="80.902802"
       x2="49.442631"
       y2="96.190727"
       gradientUnits="userSpaceOnUse" /><linearGradient
       id="linearGradient50"
       inkscape:collect="always"><stop
         style="stop-color:#3dd520;stop-opacity:1;"
         offset="0"
         id="stop50-9" /><stop
         style="stop-color:#187107;stop-opacity:1;"
         offset="1"
         id="stop51-0" /></linearGradient><radialGradient
       inkscape:collect="always"
       xlink:href="#linearGradient53"
       id="radialGradient52"
       cx="38.366882"
       cy="79.748878"
       fx="38.366882"
       fy="79.748878"
       r="22.25127"
       gradientTransform="matrix(1.456796,1.1946268,-3.912113,4.7706531,288.47144,-345.82329)"
       gradientUnits="userSpaceOnUse" /><linearGradient
       id="linearGradient53"
       inkscape:collect="always"><stop
         style="stop-color:#cdf6c7;stop-opacity:1;"
         offset="0"
         id="stop52-4" /><stop
         style="stop-color:#b9f4ae;stop-opacity:1;"
         offset="0.11493932"
         id="stop54-3" /><stop
         style="stop-color:#8bef7b;stop-opacity:1;"
         offset="0.18111835"
         id="stop56" /><stop
         style="stop-color:#36e015;stop-opacity:1;"
         offset="0.25350657"
         id="stop57" /><stop
         style="stop-color:#21830c;stop-opacity:1;"
         offset="0.54385006"
         id="stop55" /><stop
         style="stop-color:#187107;stop-opacity:1;"
         offset="1"
         id="stop53-3" /></linearGradient><linearGradient
       inkscape:collect="always"
       xlink:href="#linearGradient50"
       id="linearGradient58"
       gradientUnits="userSpaceOnUse"
       x1="60.587997"
       y1="99.4356"
       x2="36.849831"
       y2="74.806725" /><radialGradient
       inkscape:collect="always"
       xlink:href="#linearGradient53"
       id="radialGradient58"
       gradientUnits="userSpaceOnUse"
       gradientTransform="matrix(1.3470655,0.4296824,-2.4609876,7.7152595,175.50376,-547.20868)"
       cx="51.180264"
       cy="79.02803"
       fx="51.180264"
       fy="79.02803"
       r="22.25127" /><linearGradient
       id="linearGradient19-6"
       inkscape:collect="always"><stop
         style="stop-color:#3c3c50;stop-opacity:0.42685372;"
         offset="0"
         id="stop18-9" /><stop
         style="stop-color:#4d4d67;stop-opacity:0;"
         offset="1"
         id="stop19-1" /></linearGradient><linearGradient
       id="linearGradient13"
       inkscape:collect="always"><stop
         style="stop-color:#8fa2c0;stop-opacity:1;"
         offset="0"
         id="stop13-04" /><stop
         style="stop-color:#90a3c2;stop-opacity:1;"
         offset="0.34980899"
         id="stop17-2" /><stop
         style="stop-color:#9cacc5;stop-opacity:1;"
         offset="0.58369493"
         id="stop15-7" /><stop
         style="stop-color:#99abc8;stop-opacity:1"
         offset="0.76584208"
         id="stop16-4" /><stop
         style="stop-color:#8ea2c1;stop-opacity:1"
         offset="1"
         id="stop14-0" /></linearGradient><linearGradient
       id="linearGradient4"
       inkscape:collect="always"><stop
         style="stop-color:#3c3c50;stop-opacity:0.32264528;"
         offset="0"
         id="stop4" /><stop
         style="stop-color:#4d4d67;stop-opacity:0;"
         offset="1"
         id="stop5" /></linearGradient><linearGradient
       id="linearGradient2"
       inkscape:collect="always"><stop
         style="stop-color:#6d6dd2;stop-opacity:1;"
         offset="0"
         id="stop2" /><stop
         style="stop-color:#cbcbf4;stop-opacity:1;"
         offset="1"
         id="stop3" /></linearGradient><linearGradient
       inkscape:collect="always"
       xlink:href="#linearGradient2"
       id="linearGradient3"
       x1="124.70478"
       y1="32.491936"
       x2="133.24037"
       y2="228.13322"
       gradientUnits="userSpaceOnUse" /><linearGradient
       inkscape:collect="always"
       xlink:href="#linearGradient4"
       id="linearGradient5-3"
       x1="65.881943"
       y1="60.851405"
       x2="82.719924"
       y2="60.851405"
       gradientUnits="userSpaceOnUse" /><linearGradient
       inkscape:collect="always"
       xlink:href="#linearGradient4"
       id="linearGradient6-2"
       gradientUnits="userSpaceOnUse"
       x1="69.222809"
       y1="60.817997"
       x2="75.236382"
       y2="59.448242" /><radialGradient
       inkscape:collect="always"
       xlink:href="#linearGradient4"
       id="radialGradient7"
       cx="43.285675"
       cy="102.19268"
       fx="43.285675"
       fy="102.19268"
       r="16.427292"
       gradientTransform="matrix(1,0,0,1.8075351,0,-78.893586)"
       gradientUnits="userSpaceOnUse" /><linearGradient
       inkscape:collect="always"
       xlink:href="#linearGradient19-6"
       id="linearGradient7"
       gradientUnits="userSpaceOnUse"
       x1="37.472809"
       y1="210.87454"
       x2="78.260193"
       y2="188.33812" /><linearGradient
       inkscape:collect="always"
       xlink:href="#linearGradient4"
       id="linearGradient8"
       gradientUnits="userSpaceOnUse"
       x1="66.070648"
       y1="228.51433"
       x2="77.99292"
       y2="204.24066" /><linearGradient
       inkscape:collect="always"
       xlink:href="#linearGradient4"
       id="linearGradient9-8"
       gradientUnits="userSpaceOnUse"
       x1="115.58553"
       y1="237.633"
       x2="117.06621"
       y2="217.94229" /><linearGradient
       inkscape:collect="always"
       xlink:href="#linearGradient4"
       id="linearGradient10-0"
       gradientUnits="userSpaceOnUse"
       x1="163.42677"
       y1="224.9377"
       x2="154.75121"
       y2="211.16032" /><linearGradient
       inkscape:collect="always"
       xlink:href="#linearGradient4"
       id="linearGradient11"
       gradientUnits="userSpaceOnUse"
       x1="154.73332"
       y1="224.37073"
       x2="134.52948"
       y2="223.53905"
       gradientTransform="translate(71.628234,-118.93494)" /><linearGradient
       inkscape:collect="always"
       xlink:href="#linearGradient4"
       id="linearGradient12-3"
       gradientUnits="userSpaceOnUse"
       gradientTransform="translate(46.237629,-176.39789)"
       x1="163.42677"
       y1="224.9377"
       x2="140.67159"
       y2="238.84708" /><radialGradient
       inkscape:collect="always"
       xlink:href="#linearGradient13"
       id="radialGradient14"
       cx="135.96394"
       cy="126.47153"
       fx="135.96394"
       fy="126.47153"
       r="98.205167"
       gradientTransform="matrix(0.91561814,0.34278585,-0.46302727,1.2367961,69.565191,-74.720349)"
       gradientUnits="userSpaceOnUse" /></defs><sodipodi:namedview
     id="base"
     pagecolor="#ffffff"
     bordercolor="#000000"
     borderopacity="0.3"
     inkscape:pageopacity="0.0"
     inkscape:pageshadow="2"
     inkscape:zoom="0.98994949"
     inkscape:cx="505.07627"
     inkscape:cy="476.792"
     inkscape:document-units="mm"
     inkscape:showpageshadow="2"
     inkscape:pagecheckerboard="0"
     inkscape:deskcolor="#d1d1d1"
     inkscape:current-layer="g14"
     showguides="true" /><metadata
     id="metadata1"><rdf:RDF><cc:Work
         rdf:about=""><dc:format>image/svg+xml</dc:format><dc:type
           rdf:resource="http://purl.org/dc/dcmitype/StillImage" /><cc:license
           rdf:resource="http://creativecommons.org/publicdomain/zero/1.0/" /></cc:Work><cc:License
         rdf:about="http://creativecommons.org/publicdomain/zero/1.0/"><cc:permits
           rdf:resource="http://creativecommons.org/ns#Reproduction" /><cc:permits
           rdf:resource="http://creativecommons.org/ns#Distribution" /><cc:permits
           rdf:resource="http://creativecommons.org/ns#DerivativeWorks" /></cc:License></rdf:RDF></metadata><g
     id="g28"
     transform="matrix(1.0481261,0,0,1.0481261,-6.4074194,-6.1384097)"><g
       id="g7"
       inkscape:label="shadow"
       style="display:inline"><path
         id="rect1"
         style="fill:#000000;fill-opacity:0.0602258;stroke-width:3.72791;stroke-linecap:square"
         d="M 48.380952,13.418155 H 179.16071 l 43.46726,43.278274 V 244.17261 H 48.380952 Z"
         sodipodi:nodetypes="cccccc" /><path
         id="path1"
         style="fill:#000000;fill-opacity:0.0752823;stroke-width:3.72791;stroke-linecap:square"
         d="m 47.563027,12.60023 129.443423,-0.133635 43.46726,43.278274 1.33635,187.609821 H 47.563027 Z"
         sodipodi:nodetypes="cccccc" /><path
         id="path2"
         style="fill:#000000;fill-opacity:0.0602258;stroke-width:3.72791;stroke-linecap:square"
         d="m 46.493949,11.793049 128.975701,-0.868626 43.46726,43.278274 1.80407,188.344813 H 46.493949 Z"
         sodipodi:nodetypes="cccccc" /><path
         id="path3"
         style="fill:#000000;fill-opacity:0.0602258;stroke-width:3.72791;stroke-linecap:square"
         d="m 45.964782,12.33296 129.777508,0.467722 43.46726,42.209196 1.00226,187.008462 H 45.964782 Z"
         sodipodi:nodetypes="cccccc" /><path
         id="path4"
         style="fill:#000000;fill-opacity:0.0602258;stroke-width:3.72791;stroke-linecap:square"
         d="m 45.435615,12.338332 129.443415,0.935443 43.46726,41.674657 1.33635,186.540738 H 45.435615 Z"
         sodipodi:nodetypes="cccccc" /><path
         id="path5"
         style="fill:#000000;fill-opacity:0.0602258;stroke-width:3.72791;stroke-linecap:square"
         d="M 44.906448,12.744609 174.8844,13.412783 218.35166,54.151996 219.15347,240.96 H 44.906448 Z"
         sodipodi:nodetypes="cccccc" /><path
         id="path6"
         style="fill:#000000;fill-opacity:0.0602258;stroke-width:3.72791;stroke-linecap:square"
         d="m 44.377281,15.021772 129.911129,0.534539 43.46726,37.932883 0.86863,186.941636 H 44.377281 Z"
         sodipodi:nodetypes="cccccc" /><path
         id="path7"
         style="fill:#000000;fill-opacity:0.0602258;stroke-width:3.72791;stroke-linecap:square"
         d="m 43.848114,13.423527 129.710676,1.069078 43.46726,39.001961 1.06908,186.407094 H 43.848114 Z"
         sodipodi:nodetypes="cccccc" /></g><g
       id="g14"
       style="display:inline"><path
         style="color:#000000;fill:url(#linearGradient14);stroke-linecap:square;-inkscape-stroke:none"
         d="M 46.153822,14.648159 H 173.78301 l 40.90293,41.140298 V 236.0795 H 46.554726 Z"
         id="path15"
         inkscape:label="headbgground" /><path
         id="rect16"
         style="display:inline;fill:url(#linearGradient17);fill-opacity:1;stroke-width:4.99999;stroke-linecap:square"
         d="M 45.435818,14.165285 H 176.70315 l 0.20408,8.220982 H 53.433709 V 235.97952 h -7.997891 z"
         sodipodi:nodetypes="ccccccc" /><path
         id="rect17"
         style="fill:url(#linearGradient19);stroke-width:4.99999;stroke-linecap:square"
         d="M 47.058037,227.91965 H 207.27506 l -0.0668,-168.246312 7.31651,0.0667 0.0668,168.546562 -7.08265,0.0331 v 7.34846 H 47.058037 Z"
         sodipodi:nodetypes="ccccccccc" /><path
         style="color:#000000;fill:url(#linearGradient10);stroke-linecap:square;-inkscape-stroke:none"
         d="M 43.648437,12.148438 44.058594,238.58008 H 217.18555 V 54.757812 L 174.82227,12.148438 Z m 4.608862,4.999999 H 172.74414 l 39.44141,39.671875 V 233.58008 H 48.775405 Z"
         id="path16"
         inkscape:label="headframe"
         sodipodi:nodetypes="cccccccccccc" /><g
         id="g60"
         transform="matrix(0.63898171,0,0,0.63898171,38.165501,22.323096)"
         style="clip-rule:nonzero;display:inline;fill:#000000;fill-rule:nonzero;stroke:none;stroke-width:0;stroke-miterlimit:4"><path
           style="color:#000000;display:inline;fill:#70535b;fill-rule:evenodd;stroke:none;stroke-linecap:round;stroke-linejoin:round;stroke-miterlimit:2.1;-inkscape-stroke:none"
           d="M 86.08896,35.093559 C 63.906493,32.287282 65.192224,54.921792 36.18739,87.26852 c 2.541977,9.46283 -6.281639,21.68954 4.115756,28.66212 3.825455,2.56538 33.31699,45.17528 45.310614,38.24209 43.78309,-25.30983 82.98792,-44.29789 125.9825,-25.32941 9.91364,4.37373 36.661,-26.19982 27.62088,-36.391757 -1.69518,-1.911164 4.99942,-14.713176 12.30386,-12.713487 5.19838,1.423124 3.23141,36.089784 0.67933,39.447814 -6.04507,7.95411 -25.33721,33.42101 -40.53421,39.24383 C 163.89172,176.73477 118.1783,39.153143 86.08896,35.093559 Z m 7.8408,16.529435 c 19.0714,-5.68789 68.95735,32.665079 117.72013,11.172726 12.71082,-5.602336 12.45786,-5.123797 10.23585,-13.065109 -4.26077,-15.227687 10.144,-4.755392 -9.63118,-16.156112 C 156.27532,34.124821 82.535376,198.52412 46.77682,92.25812 45.106282,87.293676 91.339174,52.395615 93.92976,51.622994 Z"
           id="path1-5"
           sodipodi:nodetypes="scssssssssssscss" /><g
           id="g59"
           style="display:inline;stroke:none"><g
             id="g30"
             style="display:inline;stroke:none"><path
               id="path26-9"
               style="display:inline;fill:url(#linearGradient28-6);fill-rule:evenodd;stroke:none;stroke-width:12.7747;stroke-linecap:round;stroke-linejoin:round;stroke-miterlimit:2.1"
               d="M 210.23829,125.65591 114.86,29.538109 l -35.55557,0.06115 0.1811,37.236477 96.70633,96.240084 35.01228,-0.73371 z"
               sodipodi:nodetypes="ccccccc" /><path
               id="path29"
               style="display:inline;fill:url(#linearGradient29-4);fill-rule:evenodd;stroke:none;stroke-width:12.4792;stroke-linecap:round;stroke-linejoin:round;stroke-miterlimit:2.1"
               d="m 208.16012,126.04625 -93.17214,-93.894541 -34.73315,0.05974 0.176911,35.424781 94.469459,93.30119 34.20243,0.94646 z"
               sodipodi:nodetypes="ccccccc" /><path
               id="path31"
               style="display:inline;fill:url(#radialGradient31-5);fill-rule:evenodd;stroke:none;stroke-width:12.4792;stroke-linecap:round;stroke-linejoin:round;stroke-miterlimit:2.1"
               d="m 208.16012,126.04625 -93.17214,-93.894541 -34.73315,0.05974 0.176911,35.424781 94.469459,93.30119 34.20243,0.94646 z"
               sodipodi:nodetypes="ccccccc" /></g><g
             id="g34"
             style="stroke:none"><path
               id="path16-3"
               style="display:inline;fill:url(#linearGradient16-5);fill-rule:evenodd;stroke:none;stroke-width:12.7757;stroke-linecap:round;stroke-linejoin:round;stroke-miterlimit:2.1"
               d="m 78.619417,125.40917 96.595713,-94.920661 36.00941,0.06039 -0.18341,36.7727 -96.27752,95.279021 -37.122377,-0.96217 z"
               sodipodi:nodetypes="ccccccc" /><path
               id="rect5"
               style="display:inline;fill:url(#linearGradient6);fill-rule:evenodd;stroke:none;stroke-width:12.49;stroke-linecap:round;stroke-linejoin:round;stroke-miterlimit:2.1"
               d="m 81.021603,124.74001 93.851997,-93.3768 34.9866,0.0594 -0.6534,35.461801 -94.6836,94.208399 -34.927197,-2.6136 z"
               sodipodi:nodetypes="ccccccc" /></g><g
             id="g44"
             style="stroke:none"><path
               id="rect34"
               style="fill:#0f4486;fill-rule:evenodd;stroke:none;stroke-width:12.49;stroke-linecap:round;stroke-linejoin:round;stroke-miterlimit:2.1"
               d="m 50.104847,96.381743 c 0,0 17.244724,18.114307 26.243108,27.034967 0.852254,0.84489 1.530328,2.06169 1.524016,3.26175 -0.06325,12.02644 -0.35043,36.13378 -0.35043,36.13378 0,0 -29.116524,-30.19044 -43.247793,-45.29025 -0.997876,-1.06627 -1.368807,-3.33572 -0.336017,-4.36821 4.759481,-4.75808 16.167116,-16.772037 16.167116,-16.772037 z"
               sodipodi:nodetypes="csscssc" /><path
               id="path34"
               style="fill:url(#linearGradient43);fill-rule:evenodd;stroke:none;stroke-width:12.2461;stroke-linecap:round;stroke-linejoin:round;stroke-miterlimit:2.1"
               d="m 50.058886,96.586539 c 0,0 16.908073,17.760681 25.730791,26.507191 0.835617,0.82839 1.500453,2.02144 1.494265,3.19807 -0.06202,11.79166 -0.343589,35.42838 -0.343589,35.42838 0,0 -28.548113,-29.60106 -42.403512,-44.40609 -0.978396,-1.04546 -1.342086,-3.27061 -0.329458,-4.28294 4.666567,-4.66519 15.851503,-16.444611 15.851503,-16.444611 z"
               sodipodi:nodetypes="csscssc" /><path
               id="path38"
               style="fill:url(#radialGradient38);fill-rule:evenodd;stroke:none;stroke-width:12.2461;stroke-linecap:round;stroke-linejoin:round;stroke-miterlimit:2.1"
               d="m 50.058886,96.586539 c 0,0 16.908073,17.760681 25.730791,26.507191 0.835617,0.82839 1.500453,2.02144 1.494265,3.19807 -0.06202,11.79166 -0.343589,35.42838 -0.343589,35.42838 0,0 -28.548113,-29.60106 -42.403512,-44.40609 -0.978396,-1.04546 -1.342086,-3.27061 -0.329458,-4.28294 4.666567,-4.66519 15.851503,-16.444611 15.851503,-16.444611 z"
               sodipodi:nodetypes="csscssc" /></g><g
             id="g46"
             transform="rotate(180,145.0614,96.331288)"
             style="stroke:none"><path
               id="path44"
               style="fill:#1869d2;fill-opacity:1;fill-rule:evenodd;stroke:none;stroke-width:12.49;stroke-linecap:round;stroke-linejoin:round;stroke-miterlimit:2.1"
               d="m 50.104847,96.381743 c 0,0 17.244724,18.114307 26.243108,27.034967 0.852254,0.84489 1.530328,2.06169 1.524016,3.26175 -0.06325,12.02644 -0.35043,36.13378 -0.35043,36.13378 0,0 -29.116524,-30.19044 -43.247793,-45.29025 -0.997876,-1.06627 -1.368807,-3.33572 -0.336017,-4.36821 4.759481,-4.75808 16.167116,-16.772037 16.167116,-16.772037 z"
               sodipodi:nodetypes="csscssc" /><path
               id="path46"
               style="fill:url(#radialGradient46);fill-rule:evenodd;stroke:none;stroke-width:12.2461;stroke-linecap:round;stroke-linejoin:round;stroke-miterlimit:2.1"
               d="m 50.058886,96.586539 c 0,0 16.908073,17.760681 25.730791,26.507191 0.835617,0.82839 2.088483,3.44951 2.082295,4.62614 -0.06202,11.79166 0.244441,32.99226 0.244441,32.99226 0,0 -29.892182,-28.76102 -43.747581,-43.56605 -0.978396,-1.04546 -1.174077,-3.1026 -0.161449,-4.11493 4.666567,-4.66519 15.851503,-16.444611 15.851503,-16.444611 z"
               sodipodi:nodetypes="csscssc"
               transform="translate(4.7916667e-6)" /><path
               id="path45"
               style="fill:url(#linearGradient46);fill-rule:evenodd;stroke:none;stroke-width:12.2461;stroke-linecap:round;stroke-linejoin:round;stroke-miterlimit:2.1"
               d="m 50.058886,96.586539 c 0,0 16.908073,17.760681 25.730791,26.507191 0.835617,0.82839 2.004479,3.2815 1.998291,4.45813 -0.06202,11.79166 -0.595602,34.08432 -0.595602,34.08432 0,0 -28.800126,-29.51706 -42.655525,-44.32209 -0.978396,-1.04546 -1.342086,-3.27061 -0.329458,-4.28294 4.666567,-4.66519 15.851503,-16.444611 15.851503,-16.444611 z"
               sodipodi:nodetypes="csscssc" /></g><g
             id="g57"
             style="stroke:none"><path
               id="rect49"
               style="display:inline;fill:url(#linearGradient51);fill-rule:evenodd;stroke:none;stroke-width:12.49;stroke-linecap:round;stroke-linejoin:round;stroke-miterlimit:2.1"
               d="m 33.739197,77.220001 c 14.395954,-16.779458 29.496682,-33.663982 40.926598,-46.2132 1.601566,-1.758404 3.744178,0.17283 3.7422,1.3068 -0.01811,10.386051 0.05177,20.037185 -0.178199,30.0564 -0.06567,2.86122 -0.465914,6.240173 -2.5542,8.1972 -15.74648,14.756733 -43.5402,43.599599 -43.5402,43.599599 0,0 -0.364939,-11.52844 -0.0594,-31.719599 0.02767,-1.828265 0.472598,-3.839473 1.663201,-5.2272 z"
               sodipodi:nodetypes="ssssscss" /><path
               id="path51"
               style="display:inline;fill:url(#radialGradient52);fill-rule:evenodd;stroke:none;stroke-width:12.49;stroke-linecap:round;stroke-linejoin:round;stroke-miterlimit:2.1"
               d="M 35.251274,77.220001 C 49.647228,60.440543 62.059819,46.91619 73.489735,34.366972 c 1.601566,-1.758404 3.150178,0.17283 3.1482,1.3068 -0.01811,10.386051 -0.01957,16.142414 -0.249539,26.161629 -0.06567,2.86122 -0.347114,4.755173 -2.4354,6.7122 -15.74648,14.756733 -41.8176,45.619199 -41.8176,45.619199 0,0 1.147138,-11.52844 1.452677,-31.719599 0.02767,-1.828265 0.472598,-3.839473 1.663201,-5.2272 z"
               sodipodi:nodetypes="ssssscss" /></g><g
             id="g58"
             transform="rotate(180,144.99383,96.824224)"
             style="stroke:none"><path
               id="path57-8"
               style="display:inline;fill:url(#linearGradient58);fill-rule:evenodd;stroke:none;stroke-width:12.49;stroke-linecap:round;stroke-linejoin:round;stroke-miterlimit:2.1"
               d="m 33.739197,77.220001 c 14.395954,-16.779458 29.496682,-33.663982 40.926598,-46.2132 1.601566,-1.758404 3.744178,0.17283 3.7422,1.3068 -0.01811,10.386051 0.05177,20.037185 -0.178199,30.0564 -0.06567,2.86122 -0.465914,6.240173 -2.5542,8.1972 -15.74648,14.756733 -43.5402,43.599599 -43.5402,43.599599 0,0 -0.364939,-11.52844 -0.0594,-31.719599 0.02767,-1.828265 0.472598,-3.839473 1.663201,-5.2272 z"
               sodipodi:nodetypes="ssssscss" /><path
               id="path58"
               style="display:inline;fill:url(#radialGradient58);fill-rule:evenodd;stroke:none;stroke-width:12.49;stroke-linecap:round;stroke-linejoin:round;stroke-miterlimit:2.1"
               d="M 35.251274,77.220001 C 49.647228,60.440543 62.059819,46.91619 73.489735,34.366972 c 1.601566,-1.758404 3.150178,0.17283 3.1482,1.3068 -0.01811,10.386051 -0.01957,16.142414 -0.249539,26.161629 -0.06567,2.86122 -0.347114,4.755173 -2.4354,6.7122 -15.74648,14.756733 -41.8176,45.619199 -41.8176,45.619199 0,0 1.147138,-11.52844 1.452677,-31.719599 0.02767,-1.828265 0.472598,-3.839473 1.663201,-5.2272 z"
               sodipodi:nodetypes="ssssscss" /></g></g></g><g
         id="g17"
         transform="matrix(0.49960591,0,0,0.49960591,133.86212,90.915266)"
         style="display:inline"><g
           id="g18"
           inkscape:label="shd"><path
             id="path17"
             style="display:inline;fill:#3e444e;fill-opacity:0.147424;stroke-width:4.79999;stroke-linecap:round;stroke-linejoin:round"
             d="m 136.53809,19.66632 c -6.40057,0.0319 -2.91314,7.291677 -9.44659,8.338175 l -3.02255,19.607071 c -1.64272,4.614615 -4.2656,7.494635 -10.50479,3.977019 0,0 -9.2143,-18.465711 -16.45216,-23.548121 -7.237858,-5.08241 -24.717358,10.863294 -22.784416,19.106141 l 13.055199,26.288191 c 1.029945,3.465249 -1.752096,10.106454 -7.65793,8.247042 L 63.381148,75.496169 c -6.083946,8.001247 -9.416657,16.919799 -12.335165,25.976201 l 14.991333,11.69284 c 3.777162,2.59633 3.19762,9.23383 -1.567863,9.87123 l -18.667077,4.43797 c -1.40933,7.62723 -1.455345,18.73542 0.07493,27.3327 l 21.962484,6.54999 c 3.991597,1.19046 5.248846,5.42218 2.039152,9.47952 L 42.211676,185.9322 c 2.727495,7.27908 3.856086,12.9679 10.067971,15.919 6.211885,2.9511 28.593456,-1.46806 28.593456,-1.46806 6.269651,-1.4692 8.84623,1.19797 8.82065,6.77943 l -21.373741,10.28051 c 3.626116,5.31767 22.205559,18.93769 34.110958,17.63665 1.64993,-0.18031 13.59402,-14.24357 13.59402,-14.24357 5.26492,-4.46304 3.59607,-0.38864 0.45919,4.03844 0,0 -5.05522,8.97848 -2.45848,12.22347 7.87599,9.84214 33.6257,5.50554 37.80693,0.8528 1.98146,-2.2049 2.96926,-16.29125 3.22254,-18.51825 0.36119,-3.17577 -2.77915,-3.14389 0.80706,-1.85116 1.99822,3.72648 11.97952,13.51354 16.53267,13.38802 4.84737,-0.13363 22.41097,-15.73538 23.32135,-18.33334 0.55512,-1.58415 -4.48905,-14.0184 -6.88847,-20.97546 -1.22719,-3.55822 4.20651,-6.2379 7.09673,-5.47822 4.50361,1.18375 14.73413,6.02504 16.92403,5.19916 2.1899,-0.82588 13.54375,-25.30652 13.23021,-27.68356 -0.31354,-2.37705 -11.65554,-6.99043 -16.44862,-10.79471 -2.5009,-1.98497 -1.41735,-7.78542 2.79208,-9.16275 4.20943,-1.37733 18.76492,-5.77129 19.82131,-7.13382 1.05639,-1.36253 1.62996,-24.60421 -0.80113,-28.78064 -2.43108,-4.17643 -11.98467,-4.93954 -18.29191,-4.84887 -2.24414,0.0323 -5.43801,0.44221 -3.83868,-2.90379 0,0 14.2493,-11.784591 15.20166,-14.290083 0.95236,-2.505492 -8.17984,-24.904978 -13.00489,-29.882192 -4.82506,-4.977214 -19.43041,2.530004 -19.43041,2.530004 -4.1989,0.311839 -6.54841,6.098322 -3.88393,2.474636 2.66448,-3.623686 8.48854,-13.081661 8.15041,-15.587679 -0.33813,-2.506018 -28.82588,-22.512059 -32.16083,-20.858453 -3.33496,1.653606 -8.4863,10.602158 -8.4863,10.602158 -5.3353,2.207553 -1.05625,13.149923 -2.64429,9.861487 0,0 1.5779,-16.428746 -1.23568,-20.70617 -2.81359,-4.277423 -13.14593,-4.561501 -15.27945,-4.550868 z m 7.02579,59.210152 c 1.16102,-0.0064 2.2785,0.0833 3.36886,0.222578 17.44576,2.228432 36.89483,15.562232 36.89483,45.01019 0,29.44793 -19.09111,62.83216 -50.58066,56.46061 C 101.75734,174.19829 90.088446,153.85923 96.244184,125.87082 103.03018,95.016817 126.14859,78.97253 143.56388,78.876472 Z"
             inkscape:label="shd1"
             sodipodi:nodetypes="sccczcccccccccccczcccsccasscsssszzszzzsczzczzzcczsscssss" /><path
             id="path19"
             style="display:inline;fill:#3e444e;fill-opacity:0.156306;stroke-width:4.77398;stroke-linecap:round;stroke-linejoin:round"
             d="m 136.02698,19.666319 c -6.36589,0.03173 -2.89736,7.252166 -9.39541,8.292993 l -3.00617,19.50083 c -1.63382,4.58961 -4.24248,7.454024 -10.44787,3.955468 0,0 -9.07784,-16.947173 -16.796198,-22.521761 C 88.662976,23.319261 74.31036,40.772628 72.972386,42.603727 L 87.13802,73.143446 c 1.024364,3.446473 -1.742602,10.051691 -7.616435,8.202355 L 63.26644,75.19365 c -6.05098,7.957891 -9.365632,16.828118 -12.268327,25.83544 l 14.910102,11.62949 c 3.756695,2.58226 3.180294,9.18379 -1.559368,9.81774 l -18.565928,4.41392 c -1.401693,7.58591 -1.447459,18.6339 0.07453,27.1846 l 21.84348,6.5145 c 3.969967,1.18401 5.220404,5.3928 2.028102,9.42815 L 42.21168,185.03128 c 2.712716,7.23964 3.835192,12.89763 10.013417,15.83273 6.178225,2.93511 28.43852,-1.46009 28.43852,-1.46009 6.235678,-1.46125 8.798296,1.19147 8.772855,6.74269 l -21.257926,10.2248 c 3.606468,5.28886 22.085236,18.83508 33.926124,17.54109 1.64099,-0.17934 13.52036,-14.1664 13.52036,-14.1664 5.23639,-4.43885 3.57658,-0.38653 0.4567,4.01656 0,0 -5.04795,8.94603 -2.44516,12.15724 7.84314,9.67651 33.20725,5.00323 37.36583,0.37571 1.97073,-2.19296 3.18941,-15.73051 3.44132,-17.94543 0.35923,-3.15857 -2.63264,-3.65416 0.93415,-2.36844 1.98738,3.70629 11.38224,13.4999 15.91072,13.37506 4.8211,-0.13291 22.28954,-15.65012 23.19498,-18.234 0.55212,-1.57557 -4.06382,-13.47472 -6.45024,-20.39409 -1.22054,-3.53893 4.18372,-6.2041 7.05828,-5.44853 4.4792,1.17733 14.65429,5.99239 16.83232,5.17099 2.17804,-0.82141 12.99943,-24.51843 12.68758,-26.8826 -0.31184,-2.36416 -11.12144,-7.60351 -15.88855,-11.38717 -2.48734,-1.97422 -1.40966,-7.74324 2.77696,-9.1131 4.18662,-1.36987 18.66323,-5.74003 19.7139,-7.09517 1.05066,-1.35515 1.62113,-24.47089 -0.79679,-28.62469 -2.41791,-4.1538 -11.97408,-3.99367 -18.1928,-4.8226 -4.24084,-0.56529 -5.40854,0.43981 -3.81787,-2.888054 0,0 14.17208,-11.720735 15.11928,-14.212651 0.94721,-2.491915 -9.2638,-23.638148 -12.18615,-28.230385 -2.92234,-4.592238 -18.7643,0.688139 -18.7643,0.688139 -4.17615,0.310149 -7.82202,6.403546 -5.17198,2.799495 2.65005,-3.60405 8.44255,-13.010777 8.10625,-15.503216 -0.3363,-2.492438 -28.66968,-22.390076 -31.98657,-20.745429 -3.31688,1.644645 -8.44031,10.544709 -8.44031,10.544709 -5.3064,2.195591 -1.05052,13.078669 -2.62997,9.808051 0,0 1.56935,-16.339725 -1.22898,-20.593971 -2.79835,-4.254246 -13.07469,-4.536784 -15.19665,-4.526209 z m 6.95228,58.551128 c 1.15472,-0.0063 2.27789,0.05936 3.36235,0.197876 17.35123,2.216357 36.7186,15.839592 36.7186,45.127987 0,29.28836 -20.22279,64.66155 -51.54172,58.32453 C 100.19955,175.53081 89.22249,152.99266 95.344874,125.1559 102.0941,94.469087 125.65833,78.312985 142.97926,78.217447 Z"
             inkscape:label="shd1"
             sodipodi:nodetypes="sccczcccccccccccczcccsccasscsssszzszzzsczzczzzcczsscssss" /><path
             id="path20"
             style="display:inline;fill:#3e444e;fill-opacity:0.321492;stroke-width:4.73367;stroke-linecap:round;stroke-linejoin:round"
             d="m 135.23478,19.666317 c -6.31214,0.03146 -2.8729,7.190926 -9.31607,8.222964 l -2.98079,19.33616 c -1.62002,4.550854 -4.20666,7.39108 -10.35965,3.922067 0,0 -8.97607,-16.47585 -16.11391,-21.488035 -7.137851,-5.012186 -17.897722,6.952761 -24.518228,13.031571 L 86.75865,72.691868 c 1.015714,3.41737 -1.727887,9.966812 -7.55212,8.133092 l -16.117882,-6.1002 c -5.999884,7.890692 -9.286546,16.686016 -12.16473,25.61728 l 14.784197,11.53129 c 3.724972,2.56045 3.153439,9.10624 -1.5462,9.73483 l -18.409153,4.37665 c -1.389856,7.52185 -1.435236,18.47655 0.0739,26.95505 l 21.659028,6.45949 c 3.936443,1.17401 5.176321,5.34726 2.010976,9.34853 L 42.21168,183.63489 c 2.689809,7.17851 3.802807,12.78872 9.928861,15.69903 6.126054,2.91033 28.198377,-1.44776 28.198377,-1.44776 6.183023,-1.44891 8.724001,1.18141 8.698775,6.68576 l -21.078418,10.13846 c 3.576014,5.2442 23.032671,19.33749 31.938752,18.19616 1.623543,-0.20806 15.107083,-14.84997 15.107083,-14.84997 5.19217,-4.40137 3.54638,-0.38327 0.45284,3.98264 0,0 -4.98536,8.85443 -2.42451,12.05458 7.76716,9.70615 33.16108,5.42946 37.28455,0.84102 1.95409,-2.17444 2.92823,-16.06616 3.17801,-18.26237 0.3562,-3.1319 -2.61266,-3.41609 0.92401,-2.14122 1.97059,3.67499 11.68589,13.64245 16.17613,13.51866 4.78039,-0.13178 22.10132,-15.51796 22.99912,-18.08002 0.54746,-1.56227 -4.42702,-13.82471 -6.79329,-20.68565 -1.21023,-3.50905 4.14839,-6.15171 6.99868,-5.40252 4.44138,1.16739 14.53055,5.94179 16.69018,5.12732 2.15965,-0.81447 13.07706,-23.04649 12.76784,-25.39069 -0.30921,-2.3442 -11.21492,-8.80421 -15.94178,-12.55592 -2.46633,-1.95755 -1.39775,-7.67785 2.75351,-9.03614 4.15127,-1.3583 18.88362,-5.40808 19.92541,-6.75178 1.04179,-1.34371 1.22946,-24.54773 -1.16804,-28.66645 -2.39749,-4.11873 -11.44698,-5.04589 -17.63827,-5.65051 -1.62285,-0.15848 -5.76377,1.30473 -4.18653,-1.995037 0,0 14.0524,-11.621762 14.99161,-14.092636 0.93921,-2.470872 -6.78726,-20.609979 -11.42738,-26.596134 -4.64012,-5.986154 -19.93355,1.939017 -19.93355,1.939017 -4.14089,0.30753 -7.08414,3.696918 -4.45648,0.123301 2.62768,-3.573617 8.37126,-12.900911 8.0378,-15.372303 -0.33346,-2.471391 -28.42758,-22.201008 -31.71647,-20.570249 -3.28887,1.630758 -8.36903,10.455667 -8.36903,10.455667 -5.26159,2.177051 -1.04165,12.968229 -2.60776,9.725229 0,0 1.55609,-16.201748 -1.21861,-20.42007 -2.77472,-4.218322 -12.96428,-4.498474 -15.06832,-4.487988 z m 6.92871,57.88342 c 1.14497,-0.0062 2.25866,0.05886 3.33396,0.196205 17.20471,2.197641 36.3734,15.879124 36.3734,44.920198 0,29.04104 -21.54595,65.68303 -52.60041,59.39952 C 98.215965,175.78214 88.029101,151.58573 94.099786,123.98403 100.79202,93.556341 124.98882,77.644468 142.16349,77.549737 Z"
             inkscape:label="shd1"
             sodipodi:nodetypes="sccczcccccccccccczcccsccasscsssszzszzzsczzczzzcczsscssss" /><path
             id="path21"
             style="display:inline;fill:#3e444e;fill-opacity:0.321492;stroke-width:4.7107;stroke-linecap:round;stroke-linejoin:round"
             d="m 134.78332,19.666316 c -6.28151,0.03131 -2.85896,7.156027 -9.27086,8.183056 l -2.96632,19.242318 c -1.61216,4.528768 -4.18624,7.35521 -10.30937,3.903032 0,0 -9.63794,-15.524302 -16.741143,-20.512162 -7.10321,-4.987861 -16.647109,6.963093 -23.235484,13.012401 l 14.282312,28.939562 c 1.010784,3.400785 -1.719501,9.918442 -7.515468,8.093621 L 62.987328,74.457549 c -5.970765,7.852397 -9.241477,16.605036 -12.105692,25.492955 l 14.712446,11.475326 c 3.706894,2.54802 3.138135,9.06205 -1.538696,9.68759 l -18.31981,4.3554 c -1.38311,7.48535 -1.42827,18.38688 0.07354,26.82424 l 21.553912,6.42814 c 3.917339,1.16831 5.1512,5.32131 2.001217,9.30316 L 42.21168,182.83912 c 2.676755,7.14367 3.784351,12.72665 9.880674,15.62284 6.096323,2.8962 28.061525,-1.44074 28.061525,-1.44074 6.153016,-1.44187 8.681662,1.17568 8.656558,6.65332 l -20.97612,10.08925 c 3.558659,5.21875 22.784651,19.57758 30.358079,18.48973 1.612333,-0.2316 16.459434,-15.15978 16.459434,-15.15978 5.16697,-4.38001 3.52917,-0.38141 0.45064,3.96331 0,0 -4.91216,8.77284 -2.41274,11.99608 7.39631,9.53823 32.8584,4.6944 36.15866,1.92362 2.22813,-1.87066 3.85896,-17.07487 4.10753,-19.26042 0.35447,-3.1167 -2.33401,-4.39691 1.18549,-3.12822 1.96103,3.65715 11.36321,14.57363 15.83166,14.45044 4.75719,-0.13114 21.99405,-15.44265 22.8875,-17.99227 0.5448,-1.55469 -4.40554,-13.75762 -6.76032,-20.58526 -1.20436,-3.49202 4.12825,-6.12185 6.96471,-5.3763 4.41982,1.16172 14.46003,5.91295 16.60918,5.10244 2.14917,-0.81052 12.68286,-22.84016 12.37514,-25.17298 -0.30771,-2.33282 -10.82976,-8.85597 -15.53368,-12.58947 -2.45436,-1.94805 -1.39096,-7.64059 2.74015,-8.99229 4.13112,-1.35171 18.41583,-5.66394 19.45256,-7.00111 1.03674,-1.33719 1.59964,-24.1465 -0.78622,-28.24523 -2.38586,-4.09874 -11.78512,-4.85354 -16.81573,-5.02594 -1.57364,-0.0539 -6.47274,0.70125 -4.90315,-2.582498 0,0 13.9842,-11.565359 14.91885,-14.024242 0.93465,-2.45888 -6.68447,-17.355195 -11.37192,-25.338632 -4.80386,-8.181709 -17.9561,8.418053 -17.9561,8.418053 -4.1208,0.306037 -8.93047,-3.937896 -6.31556,-7.494169 2.61492,-3.556274 8.33063,-12.838301 7.99879,-15.297699 -0.33184,-2.459396 -28.28962,-22.093262 -31.56255,-20.470417 -3.2729,1.622843 -8.32841,10.404923 -8.32841,10.404923 -5.23605,2.166486 -1.03659,12.905292 -2.5951,9.678031 0,0 1.54854,-16.123118 -1.2127,-20.320967 -2.76125,-4.19785 -12.90136,-4.476642 -14.99519,-4.466207 z m 6.89508,57.320394 c 1.13942,-0.0062 2.2477,0.05857 3.31778,0.195253 17.12122,2.186975 36.19688,16.084166 36.19688,44.984297 0,28.9001 -22.961,66.62083 -53.86475,60.36781 -30.903758,-6.25302 -39.946793,-31.9193 -33.90557,-59.38705 6.65976,-30.280012 31.16435,-46.066039 48.25566,-46.16031 z"
             inkscape:label="shd1"
             sodipodi:nodetypes="sccczcccccccccccczcccsccasscsssszzszzzsczsczzzcczsscssss" /><path
             id="path22"
             style="display:inline;fill:#3e444e;fill-opacity:0.321492;stroke-width:4.68773;stroke-linecap:round;stroke-linejoin:round"
             d="m 134.33186,19.666315 c -6.25088,0.03116 -2.84502,7.121128 -9.22565,8.143148 l -2.95185,19.148476 c -1.6043,4.506682 -4.16582,7.31934 -10.25909,3.883997 0,0 -9.91561,-14.881785 -16.984178,-19.84532 C 87.842523,26.03308 77.79405,39.682237 71.237806,45.702043 L 86.32626,72.177178 c 1.005854,3.3842 -1.711115,9.870072 -7.478816,8.05415 L 62.886008,74.190338 C 56.944362,82.00444 53.6896,90.714394 50.839354,99.558968 l 14.640695,11.419362 c 3.688816,2.53559 3.122831,9.01786 -1.531192,9.64035 l -18.230467,4.33415 c -1.376364,7.44885 -1.421304,18.29721 0.07318,26.69343 l 21.448796,6.39679 c 3.898235,1.16261 5.126079,5.29536 1.991458,9.25779 L 42.21168,182.04335 c 2.663701,7.10883 3.765895,12.66458 9.832487,15.54665 6.066592,2.88207 27.924673,-1.43372 27.924673,-1.43372 6.123009,-1.43483 8.639323,1.16995 8.614341,6.62088 L 67.709359,212.8172 c 3.541304,5.1933 25.371452,19.67593 29.6751,19.20852 1.611468,-0.17502 16.914091,-15.89481 16.914091,-15.89481 5.14177,-4.35865 3.51196,-0.37955 0.44844,3.94398 0,0 -4.86359,8.71113 -2.40097,11.93758 7.07298,9.2668 33.12268,4.29008 34.89103,2.39201 1.97348,-2.11825 4.93143,-17.46937 5.17879,-19.64426 0.35274,-3.1015 -2.32263,-4.37547 1.1797,-3.11296 1.95147,3.63931 11.64189,14.97027 16.08855,14.84768 4.73399,-0.1305 21.68632,-15.03325 22.57542,-17.57043 0.54214,-1.54711 -4.51769,-14.49234 -6.86098,-21.28668 -1.19849,-3.47499 4.10811,-6.09199 6.93074,-5.35008 4.39826,1.15605 14.38951,5.88411 16.52818,5.07756 2.13869,-0.80657 12.76113,-22.1141 12.45491,-24.43554 -0.30621,-2.32144 -10.91707,-9.42746 -15.59805,-13.14275 -2.44239,-1.93855 -1.38417,-7.60333 2.72679,-8.94844 4.11097,-1.34512 18.32602,-5.63632 19.35769,-6.96696 1.03169,-1.33067 1.59184,-24.02875 -0.78238,-28.10749 -2.37423,-4.07875 -8.23116,-4.75614 -14.38959,-4.60183 -1.94312,0.0487 -8.78531,0.29823 -7.22337,-2.969499 0,0 13.916,-11.508956 14.84609,-13.955848 0.93009,-2.446888 -7.81195,-19.822788 -11.31646,-25.215059 -3.50451,-5.392271 -17.86853,8.377 -17.86853,8.377 -4.10071,0.304544 -8.88692,-3.918692 -6.28476,-7.457621 2.60216,-3.538931 8.29,-12.775691 7.95978,-15.223095 -0.33022,-2.447401 -28.15166,-21.985516 -31.40863,-20.370585 -3.25693,1.614928 -8.28779,10.354179 -8.28779,10.354179 -5.21051,2.155921 -1.03153,12.842355 -2.58244,9.630833 0,0 1.54099,-16.044488 -1.20679,-20.221864 -2.74778,-4.177378 -12.83844,-4.45481 -14.92206,-4.444426 z m 6.4126,56.863674 c 1.13387,-0.0062 2.23674,0.05828 3.3016,0.194301 17.03773,2.176309 36.46921,16.182902 36.46921,44.94209 0,28.75916 -24.10878,67.09089 -54.86182,60.86836 C 94.900409,176.31222 86.403203,149.92729 92.414964,122.59349 99.042244,92.461157 123.73651,76.6238 140.74446,76.529989 Z"
             inkscape:label="shd1"
             sodipodi:nodetypes="sccczcccccccccccczcccsccasscsssszzszzzsczzczzzcczsscssss" /><path
             id="path23"
             style="display:inline;fill:#3e444e;fill-opacity:0.321492;stroke-width:4.68773;stroke-linecap:round;stroke-linejoin:round"
             d="m 134.33186,19.666315 c -6.25088,0.03116 -2.84502,7.121128 -9.22565,8.143148 l -2.95185,19.148476 c -1.6043,4.506682 -4.16582,7.31934 -10.25909,3.883997 0,0 -10.44181,-13.879523 -17.510364,-18.843058 -7.068569,-4.963536 -14.252248,8.485168 -20.808492,14.504974 L 86.32626,72.177178 c 1.005854,3.3842 -1.711115,9.870072 -7.478816,8.05415 L 62.886008,74.190338 C 56.944362,82.00444 53.6896,90.714394 50.839354,99.558968 l 14.640695,11.419362 c 3.688816,2.53559 3.122831,9.01786 -1.531192,9.64035 l -18.230467,4.33415 c -1.376364,7.44885 -1.421304,18.29721 0.07318,26.69343 l 21.448796,6.39679 c 3.898235,1.16261 5.126079,5.29536 1.991458,9.25779 L 42.21168,182.04335 c 2.663701,7.10883 3.765895,12.66458 9.832487,15.54665 6.066592,2.88207 27.924673,-1.43372 27.924673,-1.43372 6.123009,-1.43483 8.639323,1.16995 8.614341,6.62088 L 67.709359,212.8172 c 3.541304,5.1933 23.8123,19.43969 29.580606,19.16127 1.619059,-0.0781 17.008585,-15.84756 17.008585,-15.84756 5.14177,-4.35865 3.51196,-0.37955 0.44844,3.94398 0,0 -4.84161,8.69447 -2.40097,11.93758 7.12154,9.4631 33.12268,5.04603 35.41075,2.91173 2.11704,-1.97477 4.41171,-17.98909 4.65907,-20.16398 0.35274,-3.1015 -2.32263,-4.37547 1.1797,-3.11296 1.95147,3.63931 11.3078,14.50255 15.75446,14.37996 4.73399,-0.1305 21.08497,-14.36508 21.97407,-16.90226 0.54214,-1.54711 -4.11679,-13.82416 -6.46008,-20.6185 -1.19849,-3.47499 4.64265,-6.96062 7.46528,-6.21871 4.39826,1.15605 14.38951,5.88411 16.52818,5.07756 2.13869,-0.80657 11.91069,-22.01961 11.60447,-24.34105 -0.30621,-2.32144 -10.06663,-9.52195 -14.74761,-13.23724 -2.44239,-1.93855 -1.38417,-7.60333 2.72679,-8.94844 4.11097,-1.34512 18.32602,-5.63632 19.35769,-6.96696 1.03169,-1.33067 1.59184,-24.02875 -0.78238,-28.10749 -2.37423,-4.07875 -13.11262,-3.38988 -19.46771,-4.06729 -1.36181,-0.14515 -3.70719,-0.23631 -2.14525,-3.504039 0,0 13.916,-11.508956 14.84609,-13.955848 0.93009,-2.446888 -8.51615,-18.250953 -12.09604,-25.167812 -1.20034,-2.319233 -18.22288,1.620676 -18.22288,1.620676 -4.10071,0.304544 -7.75299,2.790385 -5.15083,-0.748544 2.60216,-3.538931 8.29,-12.775691 7.95978,-15.223095 -0.33022,-2.447401 -28.15166,-21.985516 -31.40863,-20.370585 -3.25693,1.614928 -8.28779,10.354179 -8.28779,10.354179 -5.21051,2.155921 -1.03153,12.842355 -2.58244,9.630833 0,0 1.54099,-16.044488 -1.20679,-20.221864 -2.74778,-4.177378 -12.83844,-4.45481 -14.92206,-4.444426 z m 6.22362,56.249462 c 1.13387,-0.0062 2.23674,0.05828 3.3016,0.194301 17.03773,2.176309 36.65819,16.797114 36.65819,45.556302 0,28.75916 -24.84377,67.69225 -55.59681,61.46972 C 94.165418,176.91358 85.174781,149.59656 91.186542,122.26276 97.813822,92.130428 123.54753,76.009588 140.55548,75.915777 Z"
             inkscape:label="shd1"
             sodipodi:nodetypes="sccczcccccccccccczcccsccasscsssszzszzzsczsczzzcczsscssss" /></g><path
           id="path1-0"
           style="display:inline;fill:url(#radialGradient14);stroke-width:4.79999;stroke-linecap:round;stroke-linejoin:round"
           d="m 130.53173,19.221858 c -6.40057,0.0319 -12.66848,0.743574 -19.20193,1.790072 l -3.02255,19.607071 c -1.64272,4.614615 -5.46831,9.632791 -11.172955,-6.713762 L 86.937235,30.013707 C 78.80501,34.403983 71.827334,40.404531 65.114071,46.568509 l 6.507096,19.873722 c 1.029945,3.465249 -0.148479,9.304645 -6.054313,7.445233 L 47.953619,67.83543 C 41.869673,75.836677 38.202875,85.423403 35.284367,94.479797 L 50.2757,106.1726 c 3.777162,2.59633 3.19762,9.23383 -1.567863,9.87123 L 30.04076,120.4818 c -1.40933,7.62723 -1.455345,18.73542 0.07493,27.3327 6.810042,3.4603 14.479613,4.77177 21.962484,6.54999 3.991597,1.19046 5.248846,5.42218 2.039152,9.47952 l -17.367415,11.93003 c 2.727495,7.27908 6.184006,13.86292 10.667361,20.64034 l 11.279746,3.72471 c 6.269651,-1.4692 15.260699,-5.55059 15.235119,0.0309 l -7.294128,16.23364 c 5.610491,4.65621 12.675653,8.27387 20.031335,11.68352 l 10.18626,3.12895 c 2.525407,-7.60346 11.917446,-20.40699 14.166726,-16.07441 l 0.82589,17.6812 c 3.323,1.87613 6.89662,3.0004 10.57455,3.81173 l 13.64816,-5.67633 3.22254,-18.51825 c 2.08382,-4.71687 5.30575,-4.88114 8.89196,-3.58841 l 11.2541,12.85348 c 3.90638,1.37116 10.29975,3.21222 10.29975,3.21222 0,0 7.01112,-16.16688 10.21527,-19.27377 l -6.88847,-20.97546 c 0.83296,-4.63585 3.24008,-6.38581 7.09673,-5.47822 l 16.92403,5.19916 c 4.74409,-7.38545 8.86063,-15.39778 11.84424,-24.54372 l -15.06265,-13.93455 c -1.54223,-2.88941 -3.04772,-5.78121 2.79208,-9.16275 l 18.35133,-6.73292 c 0.34619,-4.37217 10.37434,-23.96933 10.37434,-23.96933 0,0 -4.57114,-2.39923 -10.50869,-3.36957 l -17.63045,-0.73838 c -5.51787,-1.4561 -5.29627,-5.510889 -3.69694,-8.856874 l 12.69757,-34.606304 c -3.65989,-1.670829 -6.00063,-3.167702 -9.98108,-3.849082 l -17.39879,6.923977 c -4.1989,0.311839 -7.4154,-1.857763 -6.43527,-7.636227 L 170.0941,29.065184 c -1.49938,-0.691464 -3.72537,-1.973661 -11.08866,-4.038512 l -12.45505,16.177307 c -5.3353,2.207553 2.06206,-15.009304 0.47402,-18.29774 l -10.03313,-3.476642 c -2.17781,-0.153172 -4.32603,-0.218372 -6.45955,-0.207739 z m -2.72955,51.85885 c 1.16102,-0.0064 2.29031,0.05968 3.38067,0.198954 17.44576,2.228432 36.88302,16.389055 36.88302,45.836968 0,29.44793 -25.43876,69.31345 -56.92831,62.9419 C 79.64807,173.68697 72.909419,146.4414 79.065157,118.45299 85.851148,87.599029 110.38689,71.176766 127.80218,71.080708 Z"
           sodipodi:nodetypes="scccccccccccccccccccccccccccccccccccccccccccccccccccsscssss" /><g
           id="g4"
           style="display:inline;fill:url(#linearGradient5-3);fill-opacity:1"><path
             id="rect4"
             style="fill:url(#linearGradient6-2);fill-opacity:1;stroke-width:4.79999;stroke-linecap:round;stroke-linejoin:round"
             d="m 65.881943,45.836723 10.156242,4.009043 6.681739,22.45064 c -0.767579,9.925257 -11.641415,5.46762 -16.370259,2.255087 2.243189,-1.275639 5.581177,-2.832216 5.61266,-6.41447 z"
             sodipodi:nodetypes="cccccc" /><path
             id="path6-3"
             style="fill:url(#radialGradient7);stroke-width:4.79999;stroke-linecap:round;stroke-linejoin:round"
             d="m 47.887801,68.003881 10.477186,3.624352 12.970749,48.203817 -30.577128,3.91374 c -0.767579,9.92526 -10.403942,-3.57088 -10.403942,-3.57088 l 19.597806,-4.46908 c 2.793698,-2.40871 3.39372,-5.34922 2.029969,-8.7658 L 35.605562,93.943354 c 0,0 6.466907,-17.823757 12.282239,-25.939473 z"
             sodipodi:nodetypes="ccccccccc" /><path
             id="path7-4"
             style="fill:url(#linearGradient7);fill-opacity:1;stroke-width:4.79999;stroke-linecap:round;stroke-linejoin:round"
             d="m 36.805415,175.85107 10.794077,3.34758 11.358956,21.1143 -11.630973,-3.99808 c -5.511308,-8.46372 -8.398381,-14.06119 -10.52206,-20.4638 z"
             sodipodi:nodetypes="ccccc" /><path
             id="path8"
             style="fill:url(#linearGradient8);fill-opacity:1;stroke-width:4.79999;stroke-linecap:round;stroke-linejoin:round"
             d="m 66.776081,215.8814 5.913338,-13.59734 11.191912,2.77292 -6.481287,14.633 19.816392,11.69711 c -4.356842,-1.38318 -7.463055,-2.02935 -10.644721,-3.35067 -3.774056,-1.0804 -16.769921,-8.7592 -19.795634,-12.15502 z"
             sodipodi:nodetypes="ccccccc" /><path
             id="path9"
             style="fill:url(#linearGradient9-8);fill-opacity:1;stroke-width:4.79999;stroke-linecap:round;stroke-linejoin:round"
             d="m 112.18047,233.07932 -0.654,-16.24318 c 3.41392,-2.93292 7.27305,-3.44403 10.43596,1.78074 l 0.79476,18.22377 z"
             sodipodi:nodetypes="ccccc" /><path
             id="path10"
             style="fill:url(#linearGradient10-0);fill-opacity:1;stroke-width:4.79999;stroke-linecap:round;stroke-linejoin:round"
             d="m 159.92149,221.78718 -8.10414,-9.19394 c 1.67667,-1.19567 5.83648,-2.04087 8.09735,0.64484 l 10.04897,11.8093 z"
             sodipodi:nodetypes="ccccc" /><path
             id="path11"
             style="fill:url(#linearGradient11);fill-opacity:1;stroke-width:4.79999;stroke-linecap:round;stroke-linejoin:round"
             d="m 216.33618,102.805 -13.30131,-0.26426 c 1.67667,-1.19567 1.20627,0.69946 3.46714,3.38517 l 18.83691,0.092 c -2.68586,-1.17599 -5.56514,-2.2875 -9.00274,-3.21291 z"
             sodipodi:nodetypes="ccccc" /><path
             id="path12"
             style="fill:url(#linearGradient12-3);fill-opacity:1;stroke-width:4.79999;stroke-linecap:round;stroke-linejoin:round"
             d="m 196.23723,54.366226 -13.67928,5.452637 c 0.44824,3.623526 2.81267,6.558088 6.96342,5.55853 l 17.514,-6.900521 z"
             sodipodi:nodetypes="ccccc" /></g><path
           id="path3-9"
           style="fill:url(#linearGradient3);fill-opacity:1;stroke-width:4.79999;stroke-linecap:round;stroke-linejoin:round"
           d="m 141.00173,22.510254 c -6.40057,0.0319 -12.66848,0.743574 -19.20193,1.790072 l -3.02255,19.607071 c -1.64272,4.614615 -4.2656,7.494635 -10.50479,3.977019 L 97.540816,33.63619 C 89.408591,38.026466 82.29728,43.692927 75.584017,49.856905 l 6.507096,19.873722 c 1.029945,3.465249 -1.752096,10.106454 -7.65793,8.247042 L 58.089478,71.792 c -6.083946,8.001247 -9.416657,16.919799 -12.335165,25.976193 l 14.991333,11.692827 c 3.777162,2.59633 3.19762,9.23383 -1.567863,9.87123 l -18.667077,4.43797 c -1.40933,7.62723 -1.455345,18.73542 0.07493,27.3327 l 21.962484,6.54999 c 3.991597,1.19046 5.248846,5.42218 2.039152,9.47952 l -17.367415,11.93003 c 2.727495,7.27908 6.718545,14.19701 11.2019,20.97443 l 17.159676,-3.35794 c 6.269651,-1.4692 8.84623,1.19797 8.82065,6.77943 l -7.294128,16.23364 c 5.610491,4.65621 12.675653,8.27387 20.031335,11.68352 l 13.594,-14.24357 c 5.26492,-4.46304 8.50976,-3.03447 10.75904,1.29811 l 1.22679,18.0821 23.82181,-2.2655 3.22254,-18.51825 c 2.08382,-4.71687 5.30575,-4.88114 8.89196,-3.58841 l 11.2541,12.85348 c 7.41185,-4.20668 14.10672,-9.84776 20.51502,-16.06155 l -6.2203,-20.04002 c -1.39626,-4.49837 2.57191,-7.32125 6.42856,-6.41366 l 16.92403,5.19916 c 4.74409,-7.38545 8.86063,-15.39778 11.84424,-24.54372 l -14.49569,-13.93455 c -2.36119,-2.26979 -3.61468,-5.78121 2.22512,-9.16275 l 18.35133,-6.73292 c 0.69239,-8.74434 0.68496,-17.8387 -0.13435,-27.3389 l -17.63045,-0.31316 c -5.51787,-1.45611 -5.29627,-5.936133 -3.69694,-9.282118 l 15.20166,-14.290084 c -3.37641,-8.899623 -8.0795,-16.20788 -12.67416,-23.645585 l -17.2098,6.40426 c -4.1989,0.311839 -7.4154,-1.857763 -6.43527,-7.636227 l 8.15041,-15.587679 c -6.41307,-5.699649 -13.74174,-9.911161 -21.5775,-13.298929 l -12.45505,16.177307 c -5.3353,2.207553 -7.67083,0.01525 -9.25887,-3.273186 l -0.30024,-18.501196 c -2.17781,-0.153172 -4.32603,-0.218372 -6.45955,-0.207739 z m -2.72955,51.85885 c 1.16102,-0.0064 2.29031,0.05968 3.38067,0.198954 17.44576,2.228432 36.88302,16.389055 36.88302,45.836992 0,29.44793 -25.43876,69.31345 -56.92831,62.9419 C 90.118016,176.97539 83.379365,149.72982 89.535103,121.74141 96.321094,90.887425 120.85689,74.465162 138.27218,74.369104 Z"
           sodipodi:nodetypes="scccccccccccccccccccccccccccccscccsccccccccccccccsssssss" /></g><path
         style="font-weight:bold;font-size:63.5px;line-height:1.15;font-family:'Liberation Sans';-inkscape-font-specification:'Liberation Sans Bold';letter-spacing:0.928688px;word-spacing:0px;display:inline;fill-rule:evenodd;stroke-width:1.06094;stroke-linecap:round;stroke-linejoin:round;stroke-miterlimit:2.1;stroke-opacity:0.357798"
         d="M 94.033033,222.12308 H 85.18796 L 69.775641,180.44177 h 9.111314 l 8.578833,26.77188 q 0.798719,2.60323 2.189083,7.86886 l 0.621225,-2.54406 1.508692,-5.3248 8.549252,-26.77188 h 9.02256 z m 57.624677,-11.89205 q 0,5.67979 -4.25983,8.78591 -4.25984,3.10614 -11.83288,3.10614 h -20.85545 v -41.68131 h 19.08052 q 7.6322,0 11.53706,2.66241 3.93442,2.6328 3.93442,7.80969 0,3.54987 -1.98201,6.00518 -1.95241,2.42575 -5.97559,3.28363 5.05855,0.59164 7.69136,3.19487 2.6624,2.57366 2.6624,6.83348 z m -11.18206,-18.13388 q 0,-2.8103 -1.80452,-3.99359 -1.77493,-1.18328 -5.29521,-1.18328 h -9.93961 v 10.32417 h 9.99877 q 3.69777,0 5.35438,-1.27202 1.68619,-1.30162 1.68619,-3.87528 z m 2.42574,17.4535 q 0,-5.85728 -8.40136,-5.85728 h -11.06372 v 11.95121 h 11.38914 q 4.20067,0 6.12351,-1.50869 1.95243,-1.53828 1.95243,-4.58524 z m 50.4362,0.56206 q 0,6.12351 -4.55566,9.37755 -4.52608,3.22446 -13.31198,3.22446 -8.01678,0 -12.57243,-2.8399 -4.55565,-2.83989 -5.85727,-8.6084 l 8.43092,-1.39037 q 0.85789,3.3132 3.34279,4.8219 2.4849,1.47911 6.89265,1.47911 9.1409,0 9.1409,-5.56145 0,-1.77494 -1.06496,-2.92864 -1.03538,-1.15371 -2.95823,-1.92284 -1.89325,-0.76914 -7.3068,-1.86368 -4.67398,-1.09454 -6.50808,-1.74536 -1.83409,-0.68038 -3.3132,-1.56785 -1.4791,-0.91704 -2.51449,-2.18908 -1.03536,-1.27203 -1.62702,-2.9878 -0.56205,-1.71576 -0.56205,-3.93443 0,-5.6502 4.23025,-8.63799 4.25983,-3.01739 12.36534,-3.01739 7.75054,0 11.62581,2.42574 3.90485,2.42574 5.02896,8.01677 l -8.46049,1.15371 q -0.65081,-2.69199 -2.6624,-4.05277 -1.98201,-1.36077 -5.70936,-1.36077 -7.92803,0 -7.92803,4.96981 0,1.62702 0.8283,2.66239 0.85788,1.03538 2.51448,1.77493 1.65661,0.70998 6.71516,1.80451 6.00519,1.27204 8.57884,2.36658 2.60323,1.06495 4.11191,2.51448 1.5087,1.41995 2.30742,3.43153 0.79872,1.98201 0.79872,4.58525 z"
         id="text1-1"
         aria-label="VBS" /></g><g
       id="rect23"
       style="display:inline"><rect
         style="display:inline;fill:url(#linearGradient23);fill-opacity:0.834379;stroke:none;stroke-width:4.99999;stroke-linecap:square;stroke-dasharray:none;stroke-opacity:1"
         id="rect20"
         width="30.128031"
         height="11.286353"
         x="177.19191"
         y="53.347572" /><path
         style="color:#000000;display:inline;fill:url(#linearGradient25);stroke-linecap:square;stroke-linejoin:bevel;-inkscape-stroke:none"
         d="m 174.15254,15.119046 40.91592,41.955358 H 174.814 Z"
         id="path25" /><g
         id="g27"><path
           id="rect27"
           style="display:inline;fill:#0a6db5;fill-opacity:0.459222;stroke-width:4.99999;stroke-linecap:square;stroke-linejoin:bevel"
           d="m 182.94047,23.245534 33.07293,33.82887 -33.07293,-0.09449 z"
           sodipodi:nodetypes="cccc" /><path
           id="path27"
           style="display:inline;fill:#1882cf;fill-opacity:0.459222;stroke-width:4.99999;stroke-linecap:square;stroke-linejoin:bevel"
           d="m 175.28645,49.514879 34.91556,0.188989 4.67746,7.087054 -39.68751,-0.472471 z"
           sodipodi:nodetypes="ccccc" /></g><path
         style="color:#000000;display:inline;fill:url(#linearGradient27);stroke-linecap:square;stroke-linejoin:bevel;-inkscape-stroke:none"
         d="m 175.94141,13.373047 -4.28907,1.785156 6.5e-4,44.600911 c 0,0 29.8634,-0.184895 43.41537,-0.184895 l 1.78906,-4.246094 z m 1.4286,7.056744 34.22551,34.144428 h -34.32013 z"
         id="path26"
         sodipodi:nodetypes="cccccccccc" /></g></g></svg>
