<?xml version="1.0" encoding="UTF-8" standalone="no"?>
<!-- Created with Inkscape (http://www.inkscape.org/) -->

<svg
   width="256mm"
   height="256mm"
   viewBox="0 0 256 256"
   version="1.1"
   id="svg1"
   inkscape:version="1.3.2 (091e20ef0f, 2023-11-25)"
   xml:space="preserve"
   sodipodi:docname="text-vnd.trolltech.linguist.svg"
   xmlns:inkscape="http://www.inkscape.org/namespaces/inkscape"
   xmlns:sodipodi="http://sodipodi.sourceforge.net/DTD/sodipodi-0.dtd"
   xmlns:xlink="http://www.w3.org/1999/xlink"
   xmlns="http://www.w3.org/2000/svg"
   xmlns:svg="http://www.w3.org/2000/svg"
   xmlns:rdf="http://www.w3.org/1999/02/22-rdf-syntax-ns#"
   xmlns:cc="http://creativecommons.org/ns#"
   xmlns:dc="http://purl.org/dc/elements/1.1/"><defs
     id="defs1"><linearGradient
       id="linearGradient26"
       inkscape:collect="always"><stop
         style="stop-color:#7b91c4;stop-opacity:1;"
         offset="0"
         id="stop26" /><stop
         style="stop-color:#5c5e91;stop-opacity:1"
         offset="1"
         id="stop27" /></linearGradient><linearGradient
       id="linearGradient24"
       inkscape:collect="always"><stop
         style="stop-color:#c7fafe;stop-opacity:1;"
         offset="0"
         id="stop24" /><stop
         style="stop-color:#9acdff;stop-opacity:1"
         offset="1"
         id="stop25" /></linearGradient><linearGradient
       id="linearGradient22"
       inkscape:collect="always"><stop
         style="stop-color:#adaeae;stop-opacity:0.8253752;"
         offset="0"
         id="stop22" /><stop
         style="stop-color:#8ac5fe;stop-opacity:0.83628923;"
         offset="1"
         id="stop23" /></linearGradient><linearGradient
       id="linearGradient18"
       inkscape:collect="always"><stop
         style="stop-color:#9797ff;stop-opacity:1;"
         offset="0"
         id="stop18" /><stop
         style="stop-color:#ccccff;stop-opacity:1;"
         offset="0.30000001"
         id="stop20" /><stop
         style="stop-color:#ccccff;stop-opacity:1;"
         offset="1"
         id="stop19" /></linearGradient><linearGradient
       id="linearGradient16"
       inkscape:collect="always"><stop
         style="stop-color:#cdcdcd;stop-opacity:0.17462483;"
         offset="0"
         id="stop16" /><stop
         style="stop-color:#cdcdcd;stop-opacity:1;"
         offset="1"
         id="stop17" /></linearGradient><linearGradient
       id="linearGradient12"
       inkscape:collect="always"><stop
         style="stop-color:#fdfeff;stop-opacity:1;"
         offset="0"
         id="stop13" /><stop
         style="stop-color:#99ccff;stop-opacity:1;"
         offset="1"
         id="stop14" /></linearGradient><linearGradient
       id="linearGradient9"
       inkscape:collect="always"><stop
         style="stop-color:#97c9fc;stop-opacity:1;"
         offset="0"
         id="stop9" /><stop
         style="stop-color:#7788bb;stop-opacity:1"
         offset="0.25"
         id="stop12" /><stop
         style="stop-color:#57578a;stop-opacity:1"
         offset="0.5"
         id="stop11" /><stop
         style="stop-color:#444482;stop-opacity:1;"
         offset="1"
         id="stop10" /></linearGradient><linearGradient
       inkscape:collect="always"
       xlink:href="#linearGradient9"
       id="linearGradient10"
       x1="31.622168"
       y1="100.24049"
       x2="221.19499"
       y2="240.28973"
       gradientUnits="userSpaceOnUse" /><linearGradient
       inkscape:collect="always"
       xlink:href="#linearGradient12"
       id="linearGradient14"
       x1="73.583481"
       y1="62.020954"
       x2="207.02971"
       y2="229.59895"
       gradientUnits="userSpaceOnUse" /><linearGradient
       inkscape:collect="always"
       xlink:href="#linearGradient16"
       id="linearGradient17"
       x1="57.531055"
       y1="26.420616"
       x2="147.13231"
       y2="144.34076"
       gradientUnits="userSpaceOnUse" /><linearGradient
       inkscape:collect="always"
       xlink:href="#linearGradient18"
       id="linearGradient19"
       x1="209.82518"
       y1="58.53635"
       x2="210.58252"
       y2="194.57654"
       gradientUnits="userSpaceOnUse" /><linearGradient
       inkscape:collect="always"
       xlink:href="#linearGradient22"
       id="linearGradient23"
       x1="177.19191"
       y1="58.990749"
       x2="207.31994"
       y2="58.990749"
       gradientUnits="userSpaceOnUse" /><linearGradient
       inkscape:collect="always"
       xlink:href="#linearGradient24"
       id="linearGradient25"
       x1="176.32031"
       y1="20.126524"
       x2="176.32031"
       y2="56.695721"
       gradientUnits="userSpaceOnUse" /><linearGradient
       inkscape:collect="always"
       xlink:href="#linearGradient26"
       id="linearGradient27"
       x1="172.59729"
       y1="13.51158"
       x2="210.54449"
       y2="51.28627"
       gradientUnits="userSpaceOnUse" /></defs><sodipodi:namedview
     id="base"
     pagecolor="#ffffff"
     bordercolor="#000000"
     borderopacity="0.3"
     inkscape:pageopacity="0.0"
     inkscape:pageshadow="2"
     inkscape:zoom="0.98994949"
     inkscape:cx="505.07627"
     inkscape:cy="476.792"
     inkscape:document-units="mm"
     inkscape:showpageshadow="2"
     inkscape:pagecheckerboard="0"
     inkscape:deskcolor="#d1d1d1"
     inkscape:current-layer="g28"
     showguides="true" /><metadata
     id="metadata1"><rdf:RDF><cc:Work
         rdf:about=""><dc:format>image/svg+xml</dc:format><dc:type
           rdf:resource="http://purl.org/dc/dcmitype/StillImage" /><cc:license
           rdf:resource="http://creativecommons.org/publicdomain/zero/1.0/" /></cc:Work><cc:License
         rdf:about="http://creativecommons.org/publicdomain/zero/1.0/"><cc:permits
           rdf:resource="http://creativecommons.org/ns#Reproduction" /><cc:permits
           rdf:resource="http://creativecommons.org/ns#Distribution" /><cc:permits
           rdf:resource="http://creativecommons.org/ns#DerivativeWorks" /></cc:License></rdf:RDF></metadata><g
     id="g28"
     transform="matrix(1.0481261,0,0,1.0481261,-6.4074194,-6.1384097)"><g
       id="g7"
       inkscape:label="shadow"
       style="display:inline"><path
         id="rect1"
         style="fill:#000000;fill-opacity:0.0602258;stroke-width:3.72791;stroke-linecap:square"
         d="M 48.380952,13.418155 H 179.16071 l 43.46726,43.278274 V 244.17261 H 48.380952 Z"
         sodipodi:nodetypes="cccccc" /><path
         id="path1"
         style="fill:#000000;fill-opacity:0.0752823;stroke-width:3.72791;stroke-linecap:square"
         d="m 47.563027,12.60023 129.443423,-0.133635 43.46726,43.278274 1.33635,187.609821 H 47.563027 Z"
         sodipodi:nodetypes="cccccc" /><path
         id="path2"
         style="fill:#000000;fill-opacity:0.0602258;stroke-width:3.72791;stroke-linecap:square"
         d="m 46.493949,11.793049 128.975701,-0.868626 43.46726,43.278274 1.80407,188.344813 H 46.493949 Z"
         sodipodi:nodetypes="cccccc" /><path
         id="path3"
         style="fill:#000000;fill-opacity:0.0602258;stroke-width:3.72791;stroke-linecap:square"
         d="m 45.964782,12.33296 129.777508,0.467722 43.46726,42.209196 1.00226,187.008462 H 45.964782 Z"
         sodipodi:nodetypes="cccccc" /><path
         id="path4"
         style="fill:#000000;fill-opacity:0.0602258;stroke-width:3.72791;stroke-linecap:square"
         d="m 45.435615,12.338332 129.443415,0.935443 43.46726,41.674657 1.33635,186.540738 H 45.435615 Z"
         sodipodi:nodetypes="cccccc" /><path
         id="path5"
         style="fill:#000000;fill-opacity:0.0602258;stroke-width:3.72791;stroke-linecap:square"
         d="M 44.906448,12.744609 174.8844,13.412783 218.35166,54.151996 219.15347,240.96 H 44.906448 Z"
         sodipodi:nodetypes="cccccc" /><path
         id="path6"
         style="fill:#000000;fill-opacity:0.0602258;stroke-width:3.72791;stroke-linecap:square"
         d="m 44.377281,15.021772 129.911129,0.534539 43.46726,37.932883 0.86863,186.941636 H 44.377281 Z"
         sodipodi:nodetypes="cccccc" /><path
         id="path7"
         style="fill:#000000;fill-opacity:0.0602258;stroke-width:3.72791;stroke-linecap:square"
         d="m 43.848114,13.423527 129.710676,1.069078 43.46726,39.001961 1.06908,186.407094 H 43.848114 Z"
         sodipodi:nodetypes="cccccc" /></g><g
       id="g14"
       style="display:inline"><path
         style="color:#000000;fill:url(#linearGradient14);stroke-linecap:square;-inkscape-stroke:none"
         d="M 46.153822,14.648159 H 173.78301 l 40.90293,41.140298 V 236.0795 H 46.554726 Z"
         id="path15"
         inkscape:label="headbgground" /><path
         id="rect16"
         style="display:inline;fill:url(#linearGradient17);fill-opacity:1;stroke-width:4.99999;stroke-linecap:square"
         d="M 45.435818,14.165285 H 176.70315 l 0.20408,8.220982 H 53.433709 V 235.97952 h -7.997891 z"
         sodipodi:nodetypes="ccccccc" /><path
         id="rect17"
         style="fill:url(#linearGradient19);stroke-width:4.99999;stroke-linecap:square"
         d="M 47.058037,227.91965 H 207.27506 l -0.0668,-168.246312 7.31651,0.0667 0.0668,168.546562 -7.08265,0.0331 v 7.34846 H 47.058037 Z"
         sodipodi:nodetypes="ccccccccc" /><path
         style="color:#000000;fill:url(#linearGradient10);stroke-linecap:square;-inkscape-stroke:none"
         d="M 43.648437,12.148438 44.058594,238.58008 H 217.18555 V 54.757812 L 174.82227,12.148438 Z m 4.608862,4.999999 H 172.74414 l 39.44141,39.671875 V 233.58008 H 48.775405 Z"
         id="path16"
         inkscape:label="headframe"
         sodipodi:nodetypes="cccccccccccc" /></g><g
       id="g2"
       transform="matrix(0.95408369,0,0,0.95408369,19.084076,0.34064853)"
       style="display:inline"><g
         id="g11"
         transform="matrix(1.0786144,0,0,1.0786144,-5.5106081,-4.4022708)"
         style="clip-rule:nonzero;display:inline;fill:#a3a3a3;fill-opacity:0.70915;fill-rule:nonzero;stroke:none;stroke-width:0;stroke-miterlimit:4"><rect
           style="fill:#a3a3a3;fill-opacity:0.70915;fill-rule:evenodd;stroke:none;stroke-width:1.29;stroke-linecap:round;stroke-linejoin:round;stroke-miterlimit:2.1"
           id="rect1-5"
           width="92.663994"
           height="7.6032"
           x="42.055199"
           y="41.104797" /><rect
           style="fill:#a3a3a3;fill-opacity:0.70915;fill-rule:evenodd;stroke:none;stroke-width:1.59471;stroke-linecap:round;stroke-linejoin:round;stroke-miterlimit:2.1"
           id="rect3"
           width="141.60959"
           height="7.6032"
           x="42.055199"
           y="76.507195" /><rect
           style="fill:#a3a3a3;fill-opacity:0.70915;fill-rule:evenodd;stroke:none;stroke-width:1.59471;stroke-linecap:round;stroke-linejoin:round;stroke-miterlimit:2.1"
           id="rect4"
           width="141.60959"
           height="7.6032"
           x="42.055199"
           y="94.802399" /><rect
           style="fill:#a3a3a3;fill-opacity:0.70915;fill-rule:evenodd;stroke:none;stroke-width:1.59471;stroke-linecap:round;stroke-linejoin:round;stroke-miterlimit:2.1"
           id="rect5"
           width="141.60959"
           height="7.6032"
           x="42.055199"
           y="111.90959" /><rect
           style="fill:#a3a3a3;fill-opacity:0.70915;fill-rule:evenodd;stroke:none;stroke-width:1.59471;stroke-linecap:round;stroke-linejoin:round;stroke-miterlimit:2.1"
           id="rect6-0"
           width="141.60959"
           height="7.6032"
           x="42.055199"
           y="130.9176" /><rect
           style="fill:#a3a3a3;fill-opacity:0.70915;fill-rule:evenodd;stroke:none;stroke-width:1.59471;stroke-linecap:round;stroke-linejoin:round;stroke-miterlimit:2.1"
           id="rect7-3"
           width="141.60959"
           height="7.6032"
           x="42.055199"
           y="148.0248" /><rect
           style="fill:#a3a3a3;fill-opacity:0.70915;fill-rule:evenodd;stroke:none;stroke-width:1.59471;stroke-linecap:round;stroke-linejoin:round;stroke-miterlimit:2.1"
           id="rect8-6"
           width="141.60959"
           height="7.6032"
           x="42.055199"
           y="166.31999" /></g><path
         style="clip-rule:nonzero;display:inline;fill:#000000;fill-rule:nonzero;stroke:none;stroke-width:1.00342;stroke-miterlimit:4"
         d="m 46.596389,90.984 v -3.451347 h -1.460186 c -1.445437,0 -1.460187,-0.008 -1.460187,-0.796467 V 85.93972 h 4.115071 4.115071 v 0.796466 0.796467 h -1.592931 -1.59293 V 90.984 94.435359 h -1.061955 -1.061953 z m 6.371723,-0.796466 V 85.93972 h 2.269835 c 1.486541,0 2.532507,0.135836 3.031005,0.393618 1.404293,0.726186 1.629294,3.10125 0.361034,3.811 -0.445316,0.24922 -0.446848,0.294935 -0.02547,0.760551 0.24658,0.272461 0.750333,1.178279 1.119453,2.012925 l 0.671126,1.517545 h -1.15103 c -1.09239,0 -1.176258,-0.056 -1.646237,-1.098179 -0.686542,-1.522479 -1.39048,-2.35318 -1.994099,-2.35318 -0.452801,0 -0.511708,0.198657 -0.511708,1.725671 v 1.725688 h -1.061953 -1.061953 z m 3.939183,-1.029671 c 0.195298,-0.123789 0.314768,-0.510239 0.265488,-0.858769 -0.07365,-0.520908 -0.266796,-0.648361 -1.085182,-0.716095 -0.979459,-0.08107 -0.995582,-0.06709 -0.995582,0.862839 0,0.855152 0.06958,0.944852 0.730094,0.941166 0.401551,-0.0022 0.889883,-0.105347 1.085182,-0.229141 z m 5.973316,4.625011 c -1.169494,-0.716933 -2.213335,-2.425552 -2.213335,-3.622905 0,-0.361009 0.268808,-1.188959 0.59735,-1.839882 1.571719,-3.113936 6.70365,-3.270002 8.397962,-0.255387 1.087585,1.935106 0.613126,4.104422 -1.200196,5.487504 -0.788137,0.601143 -1.290528,0.753021 -2.721535,0.822739 -1.504557,0.07325 -1.912687,-0.01113 -2.860246,-0.592069 z m 4.181393,-1.546245 c 0.976265,-0.749551 1.326914,-2.342402 0.752092,-3.416464 -0.38965,-0.728073 -1.931117,-1.338518 -2.834865,-1.122658 -0.988621,0.23613 -1.408833,0.608857 -1.834502,1.627194 -0.306122,0.732337 -0.303663,0.999269 0.01625,1.764927 0.207306,0.496154 0.597186,1.030147 0.866398,1.18663 0.66097,0.384218 2.514105,0.360015 3.03463,-0.03962 z m 4.755788,-2.049095 V 85.93972 h 1.061955 1.061954 v 3.451348 3.451359 h 2.123904 2.12391 v 0.796466 0.796466 h -3.185859 -3.185864 z m 7.433677,0 V 85.93972 h 1.061955 1.06195 v 3.451348 3.451359 h 2.123909 2.123905 v 0.796466 0.796466 H 82.437323 79.251469 Z M 87.747097,90.984 V 87.532653 H 86.154165 84.561238 V 86.736186 85.93972 h 4.11507 4.115069 v 0.796466 c 0,0.788419 -0.01476,0.796467 -1.460182,0.796467 H 89.871007 V 90.984 94.435359 h -1.06196 -1.06195 z m 6.371724,-0.796466 V 85.93972 h 3.05312 3.053119 v 0.796466 0.796467 h -1.99117 -1.99116 v 0.92921 0.929205 h 1.858416 c 1.805328,0 1.858415,0.01897 1.858415,0.663722 0,0.644761 -0.05308,0.663727 -1.858415,0.663727 H 96.24273 v 1.061949 1.061961 h 1.99116 1.99117 v 0.796466 0.796466 h -3.053119 -3.05312 z m 9.630449,3.692098 c -1.49882,-0.741909 -2.19677,-1.91494 -2.19677,-3.692098 0,-1.78659 0.70801,-2.967144 2.21775,-3.698 1.26864,-0.614137 3.54647,-0.733975 4.91083,-0.258354 0.74687,0.260364 0.83608,0.403 0.83608,1.336783 0,0.998496 -0.0265,1.031158 -0.5911,0.728975 -1.7093,-0.914785 -3.52643,-0.822166 -4.58215,0.233556 -1.56896,1.568962 -0.27816,4.046439 2.10824,4.046439 0.673,0 1.63795,-0.173114 2.14433,-0.384683 l 0.92068,-0.384694 v 0.929221 c 0,0.809368 -0.11873,0.978817 -0.92068,1.313888 -1.34994,0.564045 -3.51663,0.487592 -4.84721,-0.171033 z m 7.36082,-3.692098 V 85.93972 h 1.06196 1.06195 v 1.725677 1.725671 h 2.12391 2.1239 V 87.665397 85.93972 h 1.06196 1.06196 v 4.247814 4.247825 h -1.06196 -1.06196 V 92.709671 90.984 h -2.1239 -2.12391 v 1.725671 1.725688 h -1.06195 -1.06196 z M 80.446169,71.422688 C 72.208474,70.841964 65.001164,66.946825 60.185814,60.473138 53.09172,50.935939 53.061393,37.602278 60.112234,28.123934 c 3.431803,-4.613325 8.094905,-7.984358 13.431233,-9.709659 3.056849,-0.98832 5.16449,-1.304796 8.628372,-1.295611 7.143203,0.01895 13.634445,2.675028 18.712991,7.65698 4.76368,4.673072 7.34186,10.070218 8.13019,17.019694 0.61009,5.378281 -0.77948,11.603744 -3.64178,16.315578 l -0.97056,1.597726 2.4245,2.434616 c 1.33347,1.339042 2.42449,2.538476 2.42449,2.66541 0,0.258279 -6.46168,6.794679 -6.71701,6.794679 -0.0894,0 -1.25301,-1.127111 -2.585693,-2.504685 l -2.42306,-2.504685 -1.444103,0.923778 c -4.159222,2.660628 -10.57111,4.261964 -15.635636,3.904933 z m 6.421318,-9.936801 c 1.5981,-0.488544 3.442025,-1.212768 3.787425,-1.487542 0.06612,-0.05259 -1.843768,-2.062267 -4.244139,-4.465956 l -4.364332,-4.370339 -2.859311,2.85045 -2.859317,2.850451 -3.449801,-3.449806 -3.449808,-3.449804 9.127125,-9.124252 9.127126,-9.124251 3.350924,3.261553 c 1.843017,1.793854 3.350925,3.389467 3.350925,3.545807 0,0.156341 -1.222816,1.511251 -2.717373,3.010911 l -2.717373,2.726655 4.363668,4.369681 4.363657,4.369681 0.76876,-1.782034 C 101.31689,44.561407 99.768282,36.743837 94.565876,31.631558 91.479824,28.598975 88.368888,27.070224 84.062447,26.470052 76.221488,25.37729 68.189844,30.250453 65.246876,37.886311 c -3.490344,9.056071 1.143261,19.463162 10.287752,23.106346 3.362907,1.339783 7.915509,1.537927 11.332859,0.49323 z"
         id="path1-1"
         sodipodi:nodetypes="ccssccccccccccccccssssscscssccccsssscscssssccssssssssccccccccccccccccccccccccccccccccccssccccccccccccccccsssccccccccccssssscssscssscccccccccccccccccccccccccsssssssscsssscssssccccccccssscccssssss"
         transform="matrix(1.8501729,0,0,1.8501729,-34.305896,-0.0749907)" /><path
         style="font-weight:bold;font-size:63.5px;line-height:1.15;font-family:'Liberation Sans';-inkscape-font-specification:'Liberation Sans Bold';letter-spacing:0.928688px;word-spacing:0px;fill-rule:evenodd;stroke-width:1.112;stroke-linecap:round;stroke-linejoin:round;stroke-miterlimit:2.1;stroke-opacity:0.357798"
         d="m 96.226395,201.03472 v 36.61792 H 87.079666 V 201.03472 H 72.972 v -7.06933 h 37.39307 v 7.06933 z m 55.623025,24.02955 q 0,6.41821 -4.7749,9.82885 -4.7439,3.37964 -13.95264,3.37964 -8.40259,0 -13.17749,-2.97656 -4.7749,-2.97656 -6.13916,-9.02271 l 8.83667,-1.45727 q 0.89917,3.47265 3.50366,5.05395 2.60449,1.5503 7.22437,1.5503 9.58081,0 9.58081,-5.82911 0,-1.86035 -1.11621,-3.06958 -1.08521,-1.20922 -3.10059,-2.01538 -1.98437,-0.80615 -7.65845,-1.95337 -4.89892,-1.14721 -6.82129,-1.82934 -1.92236,-0.71314 -3.47265,-1.64331 -1.5503,-0.96118 -2.6355,-2.29444 -1.08521,-1.33325 -1.70532,-3.13159 -0.58911,-1.79834 -0.58911,-4.12378 0,-5.92212 4.43383,-9.05371 4.46485,-3.16259 12.96045,-3.16259 8.12354,0 12.18531,2.54248 4.09277,2.54248 5.27099,8.40258 l -8.86767,1.20923 q -0.68213,-2.82153 -2.79053,-4.2478 -2.07739,-1.42627 -5.98413,-1.42627 -8.30957,0 -8.30957,5.20898 0,1.70533 0.86816,2.79053 0.89917,1.08521 2.6355,1.86035 1.73633,0.74414 7.03833,1.89136 6.29419,1.33325 8.9917,2.48047 2.72851,1.11621 4.30981,2.6355 1.5813,1.48828 2.41846,3.59668 0.83716,2.07739 0.83716,4.80591 z"
         id="text1"
         aria-label="TS" /></g><g
       id="rect23"
       style="display:inline"><rect
         style="display:inline;fill:url(#linearGradient23);fill-opacity:0.834379;stroke:none;stroke-width:4.99999;stroke-linecap:square;stroke-dasharray:none;stroke-opacity:1"
         id="rect20"
         width="30.128031"
         height="11.286353"
         x="177.19191"
         y="53.347572" /><path
         style="color:#000000;display:inline;fill:url(#linearGradient25);stroke-linecap:square;stroke-linejoin:bevel;-inkscape-stroke:none"
         d="m 174.15254,15.119046 40.91592,41.955358 H 174.814 Z"
         id="path25" /><g
         id="g27"><path
           id="rect27"
           style="display:inline;fill:#0a6db5;fill-opacity:0.459222;stroke-width:4.99999;stroke-linecap:square;stroke-linejoin:bevel"
           d="m 182.94047,23.245534 33.07293,33.82887 -33.07293,-0.09449 z"
           sodipodi:nodetypes="cccc" /><path
           id="path27"
           style="display:inline;fill:#1882cf;fill-opacity:0.459222;stroke-width:4.99999;stroke-linecap:square;stroke-linejoin:bevel"
           d="m 175.28645,49.514879 34.91556,0.188989 4.67746,7.087054 -39.68751,-0.472471 z"
           sodipodi:nodetypes="ccccc" /></g><path
         style="color:#000000;display:inline;fill:url(#linearGradient27);stroke-linecap:square;stroke-linejoin:bevel;-inkscape-stroke:none"
         d="m 175.94141,13.373047 -4.28907,1.785156 6.5e-4,44.600911 c 0,0 29.8634,-0.184895 43.41537,-0.184895 l 1.78906,-4.246094 z m 1.4286,7.056744 34.22551,34.144428 h -34.32013 z"
         id="path26"
         sodipodi:nodetypes="cccccccccc" /></g></g></svg>
