<?xml version="1.0" encoding="UTF-8" standalone="no"?>
<!-- Created with Inkscape (http://www.inkscape.org/) -->

<svg
   width="256mm"
   height="256mm"
   viewBox="0 0 256 256"
   version="1.1"
   id="svg1"
   inkscape:version="1.3.2 (091e20ef0f, 2023-11-25)"
   xml:space="preserve"
   sodipodi:docname="text-vnd.graphviz.svg"
   xmlns:inkscape="http://www.inkscape.org/namespaces/inkscape"
   xmlns:sodipodi="http://sodipodi.sourceforge.net/DTD/sodipodi-0.dtd"
   xmlns:xlink="http://www.w3.org/1999/xlink"
   xmlns="http://www.w3.org/2000/svg"
   xmlns:svg="http://www.w3.org/2000/svg"
   xmlns:rdf="http://www.w3.org/1999/02/22-rdf-syntax-ns#"
   xmlns:cc="http://creativecommons.org/ns#"
   xmlns:dc="http://purl.org/dc/elements/1.1/"><defs
     id="defs1"><linearGradient
       id="linearGradient26"
       inkscape:collect="always"><stop
         style="stop-color:#7b91c4;stop-opacity:1;"
         offset="0"
         id="stop26" /><stop
         style="stop-color:#5c5e91;stop-opacity:1"
         offset="1"
         id="stop27" /></linearGradient><linearGradient
       id="linearGradient24"
       inkscape:collect="always"><stop
         style="stop-color:#c7fafe;stop-opacity:1;"
         offset="0"
         id="stop24" /><stop
         style="stop-color:#9acdff;stop-opacity:1"
         offset="1"
         id="stop25" /></linearGradient><linearGradient
       id="linearGradient22"
       inkscape:collect="always"><stop
         style="stop-color:#adaeae;stop-opacity:0.8253752;"
         offset="0"
         id="stop22" /><stop
         style="stop-color:#8ac5fe;stop-opacity:0.83628923;"
         offset="1"
         id="stop23" /></linearGradient><linearGradient
       id="linearGradient18"
       inkscape:collect="always"><stop
         style="stop-color:#9797ff;stop-opacity:1;"
         offset="0"
         id="stop18" /><stop
         style="stop-color:#ccccff;stop-opacity:1;"
         offset="0.30000001"
         id="stop20" /><stop
         style="stop-color:#ccccff;stop-opacity:1;"
         offset="1"
         id="stop19" /></linearGradient><linearGradient
       id="linearGradient16"
       inkscape:collect="always"><stop
         style="stop-color:#cdcdcd;stop-opacity:0.17462483;"
         offset="0"
         id="stop16" /><stop
         style="stop-color:#cdcdcd;stop-opacity:1;"
         offset="1"
         id="stop17" /></linearGradient><linearGradient
       id="linearGradient12"
       inkscape:collect="always"><stop
         style="stop-color:#fdfeff;stop-opacity:1;"
         offset="0"
         id="stop13" /><stop
         style="stop-color:#99ccff;stop-opacity:1;"
         offset="1"
         id="stop14" /></linearGradient><linearGradient
       id="linearGradient9"
       inkscape:collect="always"><stop
         style="stop-color:#97c9fc;stop-opacity:1;"
         offset="0"
         id="stop9" /><stop
         style="stop-color:#7788bb;stop-opacity:1"
         offset="0.25"
         id="stop12" /><stop
         style="stop-color:#57578a;stop-opacity:1"
         offset="0.5"
         id="stop11" /><stop
         style="stop-color:#444482;stop-opacity:1;"
         offset="1"
         id="stop10" /></linearGradient><linearGradient
       inkscape:collect="always"
       xlink:href="#linearGradient9"
       id="linearGradient10"
       x1="31.622168"
       y1="100.24049"
       x2="221.19499"
       y2="240.28973"
       gradientUnits="userSpaceOnUse" /><linearGradient
       inkscape:collect="always"
       xlink:href="#linearGradient12"
       id="linearGradient14"
       x1="73.583481"
       y1="62.020954"
       x2="207.02971"
       y2="229.59895"
       gradientUnits="userSpaceOnUse" /><linearGradient
       inkscape:collect="always"
       xlink:href="#linearGradient16"
       id="linearGradient17"
       x1="57.531055"
       y1="26.420616"
       x2="147.13231"
       y2="144.34076"
       gradientUnits="userSpaceOnUse" /><linearGradient
       inkscape:collect="always"
       xlink:href="#linearGradient18"
       id="linearGradient19"
       x1="209.82518"
       y1="58.53635"
       x2="210.58252"
       y2="194.57654"
       gradientUnits="userSpaceOnUse" /><linearGradient
       inkscape:collect="always"
       xlink:href="#linearGradient22"
       id="linearGradient23"
       x1="177.19191"
       y1="58.990749"
       x2="207.31994"
       y2="58.990749"
       gradientUnits="userSpaceOnUse" /><linearGradient
       inkscape:collect="always"
       xlink:href="#linearGradient24"
       id="linearGradient25"
       x1="176.32031"
       y1="20.126524"
       x2="176.32031"
       y2="56.695721"
       gradientUnits="userSpaceOnUse" /><linearGradient
       inkscape:collect="always"
       xlink:href="#linearGradient26"
       id="linearGradient27"
       x1="172.59729"
       y1="13.51158"
       x2="210.54449"
       y2="51.28627"
       gradientUnits="userSpaceOnUse" /></defs><sodipodi:namedview
     id="base"
     pagecolor="#ffffff"
     bordercolor="#000000"
     borderopacity="0.3"
     inkscape:pageopacity="0.0"
     inkscape:pageshadow="2"
     inkscape:zoom="0.98994949"
     inkscape:cx="505.07627"
     inkscape:cy="476.792"
     inkscape:document-units="mm"
     inkscape:showpageshadow="2"
     inkscape:pagecheckerboard="0"
     inkscape:deskcolor="#d1d1d1"
     inkscape:current-layer="g28"
     showguides="true" /><metadata
     id="metadata1"><rdf:RDF><cc:Work
         rdf:about=""><dc:format>image/svg+xml</dc:format><dc:type
           rdf:resource="http://purl.org/dc/dcmitype/StillImage" /><cc:license
           rdf:resource="http://creativecommons.org/publicdomain/zero/1.0/" /></cc:Work><cc:License
         rdf:about="http://creativecommons.org/publicdomain/zero/1.0/"><cc:permits
           rdf:resource="http://creativecommons.org/ns#Reproduction" /><cc:permits
           rdf:resource="http://creativecommons.org/ns#Distribution" /><cc:permits
           rdf:resource="http://creativecommons.org/ns#DerivativeWorks" /></cc:License></rdf:RDF></metadata><g
     id="g28"
     transform="matrix(1.0481261,0,0,1.0481261,-6.4074194,-6.1384097)"><g
       id="g7"
       inkscape:label="shadow"
       style="display:inline"><path
         id="rect1"
         style="fill:#000000;fill-opacity:0.0602258;stroke-width:3.72791;stroke-linecap:square"
         d="M 48.380952,13.418155 H 179.16071 l 43.46726,43.278274 V 244.17261 H 48.380952 Z"
         sodipodi:nodetypes="cccccc" /><path
         id="path1"
         style="fill:#000000;fill-opacity:0.0752823;stroke-width:3.72791;stroke-linecap:square"
         d="m 47.563027,12.60023 129.443423,-0.133635 43.46726,43.278274 1.33635,187.609821 H 47.563027 Z"
         sodipodi:nodetypes="cccccc" /><path
         id="path2"
         style="fill:#000000;fill-opacity:0.0602258;stroke-width:3.72791;stroke-linecap:square"
         d="m 46.493949,11.793049 128.975701,-0.868626 43.46726,43.278274 1.80407,188.344813 H 46.493949 Z"
         sodipodi:nodetypes="cccccc" /><path
         id="path3"
         style="fill:#000000;fill-opacity:0.0602258;stroke-width:3.72791;stroke-linecap:square"
         d="m 45.964782,12.33296 129.777508,0.467722 43.46726,42.209196 1.00226,187.008462 H 45.964782 Z"
         sodipodi:nodetypes="cccccc" /><path
         id="path4"
         style="fill:#000000;fill-opacity:0.0602258;stroke-width:3.72791;stroke-linecap:square"
         d="m 45.435615,12.338332 129.443415,0.935443 43.46726,41.674657 1.33635,186.540738 H 45.435615 Z"
         sodipodi:nodetypes="cccccc" /><path
         id="path5"
         style="fill:#000000;fill-opacity:0.0602258;stroke-width:3.72791;stroke-linecap:square"
         d="M 44.906448,12.744609 174.8844,13.412783 218.35166,54.151996 219.15347,240.96 H 44.906448 Z"
         sodipodi:nodetypes="cccccc" /><path
         id="path6"
         style="fill:#000000;fill-opacity:0.0602258;stroke-width:3.72791;stroke-linecap:square"
         d="m 44.377281,15.021772 129.911129,0.534539 43.46726,37.932883 0.86863,186.941636 H 44.377281 Z"
         sodipodi:nodetypes="cccccc" /><path
         id="path7"
         style="fill:#000000;fill-opacity:0.0602258;stroke-width:3.72791;stroke-linecap:square"
         d="m 43.848114,13.423527 129.710676,1.069078 43.46726,39.001961 1.06908,186.407094 H 43.848114 Z"
         sodipodi:nodetypes="cccccc" /></g><g
       id="g14"
       style="display:inline"><path
         style="color:#000000;fill:url(#linearGradient14);stroke-linecap:square;-inkscape-stroke:none"
         d="M 46.153822,14.648159 H 173.78301 l 40.90293,41.140298 V 236.0795 H 46.554726 Z"
         id="path15"
         inkscape:label="headbgground" /><path
         id="rect16"
         style="display:inline;fill:url(#linearGradient17);fill-opacity:1;stroke-width:4.99999;stroke-linecap:square"
         d="M 45.435818,14.165285 H 176.70315 l 0.20408,8.220982 H 53.433709 V 235.97952 h -7.997891 z"
         sodipodi:nodetypes="ccccccc" /><path
         id="rect17"
         style="fill:url(#linearGradient19);stroke-width:4.99999;stroke-linecap:square"
         d="M 47.058037,227.91965 H 207.27506 l -0.0668,-168.246312 7.31651,0.0667 0.0668,168.546562 -7.08265,0.0331 v 7.34846 H 47.058037 Z"
         sodipodi:nodetypes="ccccccccc" /><path
         style="color:#000000;fill:url(#linearGradient10);stroke-linecap:square;-inkscape-stroke:none"
         d="M 43.648437,12.148438 44.058594,238.58008 H 217.18555 V 54.757812 L 174.82227,12.148438 Z m 4.608862,4.999999 H 172.74414 l 39.44141,39.671875 V 233.58008 H 48.775405 Z"
         id="path16"
         inkscape:label="headframe"
         sodipodi:nodetypes="cccccccccccc" /></g><g
       id="g3"
       style="display:inline"
       transform="matrix(1.012879,0,0,1.012879,-3.447655,-6.5042812)"><path
         style="font-weight:bold;font-size:63.5px;line-height:1.15;font-family:'Liberation Sans';-inkscape-font-specification:'Liberation Sans Bold';letter-spacing:0.928688px;word-spacing:0px;fill-rule:evenodd;stroke-width:1.04745;stroke-linecap:round;stroke-linejoin:round;stroke-miterlimit:2.1;stroke-opacity:0.357798"
         d="m 110.18081,222.94841 q 3.3587,0 6.51295,-0.96381 3.15425,-0.99299 4.87741,-2.51171 v -5.69518 h -10.04688 v -6.36692 h 17.93251 v 15.12874 q -3.27108,3.35869 -8.52816,5.25708 -5.22789,1.89839 -10.98148,1.89839 -10.046876,0 -15.449993,-5.54914 -5.403118,-5.57836 -5.403118,-15.80047 0,-10.1637 5.432324,-15.56682 5.432324,-5.43232 15.625237,-5.43232 14.48619,0 18.429,10.71861 l -7.94404,2.3949 q -1.28506,-3.12505 -4.03043,-4.73138 -2.74537,-1.60634 -6.45453,-1.60634 -6.07486,0 -9.22911,3.67996 -3.154257,3.67997 -3.154257,10.54339 0,6.98024 3.241867,10.80624 3.27108,3.79678 9.1707,3.79678 z m 48.21777,6.16247 h -8.7326 l -15.21635,-41.15131 h 8.99546 l 8.46975,26.43147 q 0.78856,2.57013 2.16125,7.7688 l 0.61332,-2.51171 1.48951,-5.25709 8.44055,-26.43147 h 8.90784 z"
         id="text1-7"
         aria-label="GV" /><g
         id="g2"
         transform="matrix(4.0539482,-1.7055107,1.7055107,4.0539482,51.802176,68.427452)"><polygon
           points="1.417,2 12.679,2 23.942,2 23.942,16 23.942,30 12.679,30 1.417,30 1.417,16 "
           style="fill:#e6e6e6"
           id="polygon1" /><rect
           x="2.132"
           y="3.2019999"
           width="21.135"
           height="0.264"
           style="fill:#4ed1f8"
           id="rect1-8" /><rect
           x="2.132"
           y="7.4200001"
           width="21.135"
           height="0.264"
           style="fill:#4ed1f8"
           id="rect2" /><rect
           x="2.132"
           y="11.638"
           width="21.135"
           height="0.264"
           style="fill:#4ed1f8"
           id="rect3" /><rect
           x="2.132"
           y="15.856"
           width="21.135"
           height="0.264"
           style="fill:#4ed1f8"
           id="rect4" /><rect
           x="2.132"
           y="20.073999"
           width="21.135"
           height="0.264"
           style="fill:#4ed1f8"
           id="rect5" /><rect
           x="2.132"
           y="24.292999"
           width="21.135"
           height="0.264"
           style="fill:#4ed1f8"
           id="rect6-0" /><rect
           x="2.132"
           y="28.511"
           width="21.135"
           height="0.264"
           style="fill:#4ed1f8"
           id="rect7-3" /><rect
           x="2"
           y="3.2019999"
           width="0.264"
           height="25.573"
           style="fill:#4ed1f8"
           id="rect8-1" /><rect
           x="6.2179999"
           y="3.3329999"
           width="0.264"
           height="25.330999"
           style="fill:#4ed1f8"
           id="rect9" /><rect
           x="10.436"
           y="3.3329999"
           width="0.264"
           height="25.330999"
           style="fill:#4ed1f8"
           id="rect10" /><rect
           x="14.655"
           y="3.3329999"
           width="0.264"
           height="25.330999"
           style="fill:#4ed1f8"
           id="rect11" /><rect
           x="18.872999"
           y="3.3329999"
           width="0.264"
           height="25.330999"
           style="fill:#4ed1f8"
           id="rect12" /><rect
           x="23.091"
           y="3.2019999"
           width="0.264"
           height="25.573"
           style="fill:#4ed1f8"
           id="rect13" /><g
           style="opacity:0.5"
           id="g31"><rect
             x="2.132"
             y="27.455999"
             width="21.135"
             height="0.264"
             style="fill:#4ed1f8"
             id="rect14" /><rect
             x="2.132"
             y="26.402"
             width="21.135"
             height="0.264"
             style="fill:#4ed1f8"
             id="rect15" /><rect
             x="2.132"
             y="25.347"
             width="21.135"
             height="0.264"
             style="fill:#4ed1f8"
             id="rect16-4" /><rect
             x="2.132"
             y="23.238001"
             width="21.135"
             height="0.264"
             style="fill:#4ed1f8"
             id="rect17-4" /><rect
             x="2.132"
             y="22.184"
             width="21.135"
             height="0.264"
             style="fill:#4ed1f8"
             id="rect18" /><rect
             x="2.132"
             y="21.129"
             width="21.135"
             height="0.264"
             style="fill:#4ed1f8"
             id="rect19" /><rect
             x="2.132"
             y="19.02"
             width="21.135"
             height="0.264"
             style="fill:#4ed1f8"
             id="rect20-3" /><rect
             x="2.132"
             y="17.965"
             width="21.135"
             height="0.264"
             style="fill:#4ed1f8"
             id="rect21" /><rect
             x="2.132"
             y="16.910999"
             width="21.135"
             height="0.264"
             style="fill:#4ed1f8"
             id="rect22" /><rect
             x="2.132"
             y="14.802"
             width="21.135"
             height="0.264"
             style="fill:#4ed1f8"
             id="rect23-8" /><rect
             x="2.132"
             y="13.747"
             width="21.135"
             height="0.264"
             style="fill:#4ed1f8"
             id="rect24" /><rect
             x="2.132"
             y="12.693"
             width="21.135"
             height="0.264"
             style="fill:#4ed1f8"
             id="rect25" /><rect
             x="2.132"
             y="10.583"
             width="21.135"
             height="0.264"
             style="fill:#4ed1f8"
             id="rect26" /><rect
             x="2.132"
             y="9.5290003"
             width="21.135"
             height="0.264"
             style="fill:#4ed1f8"
             id="rect27-6" /><rect
             x="2.132"
             y="8.474"
             width="21.135"
             height="0.264"
             style="fill:#4ed1f8"
             id="rect28" /><rect
             x="2.132"
             y="6.3649998"
             width="21.135"
             height="0.264"
             style="fill:#4ed1f8"
             id="rect29" /><rect
             x="2.132"
             y="5.3109999"
             width="21.135"
             height="0.264"
             style="fill:#4ed1f8"
             id="rect30" /><rect
             x="2.132"
             y="4.256"
             width="21.135"
             height="0.264"
             style="fill:#4ed1f8"
             id="rect31" /></g><g
           style="opacity:0.5"
           id="g46"><rect
             x="22.035999"
             y="3.3329999"
             width="0.264"
             height="25.330999"
             style="fill:#4ed1f8"
             id="rect32" /><rect
             x="20.982"
             y="3.3329999"
             width="0.264"
             height="25.330999"
             style="fill:#4ed1f8"
             id="rect33" /><rect
             x="19.927"
             y="3.3329999"
             width="0.264"
             height="25.330999"
             style="fill:#4ed1f8"
             id="rect34" /><rect
             x="17.818001"
             y="3.3329999"
             width="0.264"
             height="25.330999"
             style="fill:#4ed1f8"
             id="rect35" /><rect
             x="16.764"
             y="3.3329999"
             width="0.264"
             height="25.330999"
             style="fill:#4ed1f8"
             id="rect36" /><rect
             x="15.709"
             y="3.3329999"
             width="0.264"
             height="25.330999"
             style="fill:#4ed1f8"
             id="rect37" /><rect
             x="13.6"
             y="3.3329999"
             width="0.264"
             height="25.330999"
             style="fill:#4ed1f8"
             id="rect38" /><rect
             x="12.545"
             y="3.3329999"
             width="0.264"
             height="25.330999"
             style="fill:#4ed1f8"
             id="rect39" /><rect
             x="11.491"
             y="3.3329999"
             width="0.264"
             height="25.330999"
             style="fill:#4ed1f8"
             id="rect40" /><rect
             x="9.382"
             y="3.3329999"
             width="0.264"
             height="25.330999"
             style="fill:#4ed1f8"
             id="rect41" /><rect
             x="8.3269997"
             y="3.3329999"
             width="0.264"
             height="25.330999"
             style="fill:#4ed1f8"
             id="rect42" /><rect
             x="7.2729998"
             y="3.3329999"
             width="0.264"
             height="25.330999"
             style="fill:#4ed1f8"
             id="rect43" /><rect
             x="5.164"
             y="3.3329999"
             width="0.264"
             height="25.330999"
             style="fill:#4ed1f8"
             id="rect44" /><rect
             x="4.1090002"
             y="3.3329999"
             width="0.264"
             height="25.330999"
             style="fill:#4ed1f8"
             id="rect45" /><rect
             x="3.0550001"
             y="3.3329999"
             width="0.264"
             height="25.330999"
             style="fill:#4ed1f8"
             id="rect46" /></g><path
           d="m 13,8.976 c -2.308,0 -4.131,-1.274 -4.193,-2.969 v 0 a 2.775,2.775 0 0 1 1.253,-2.32 5.3,5.3 0 0 1 2.943,-0.963 5.294,5.294 0 0 1 3.006,0.743 2.775,2.775 0 0 1 1.421,2.221 C 17.495,7.44 15.651,8.882 13.23,8.971 13.158,8.974 13.08,8.976 13,8.976 Z m 0.232,-5.2 q -0.095,0 -0.19,0 A 4.238,4.238 0 0 0 10.688,4.532 1.761,1.761 0 0 0 9.86,5.967 C 9.9,7.09 11.428,7.978 13.2,7.917 14.972,7.856 16.423,6.848 16.381,5.726 A 1.761,1.761 0 0 0 15.449,4.357 4.165,4.165 0 0 0 13.234,3.773 Z"
           style="fill:#656565"
           id="path46" /><path
           d="M 6.4,29.281 A 5.238,5.238 0 0 1 3.6,28.519 2.775,2.775 0 0 1 2.19,26.29 c -0.056,-1.752 1.8,-3.185 4.213,-3.262 2.413,-0.077 4.356,1.236 4.412,2.988 A 2.775,2.775 0 0 1 9.548,28.33 5.3,5.3 0 0 1 6.6,29.278 q -0.1,0.003 -0.2,0.003 z m 0.186,-5.2 H 6.43 c -1.766,0.056 -3.229,1.052 -3.193,2.174 a 1.761,1.761 0 0 0 0.924,1.374 4.235,4.235 0 0 0 2.4,0.593 4.235,4.235 0 0 0 2.357,-0.744 1.761,1.761 0 0 0 0.835,-1.43 C 9.724,24.961 8.29,24.08 6.591,24.08 Z"
           style="fill:#656565"
           id="path47" /><path
           d="m 19.261,29.26 a 5.238,5.238 0 0 1 -2.807,-0.762 2.775,2.775 0 0 1 -1.41,-2.229 v 0 c -0.055,-1.752 1.8,-3.185 4.213,-3.262 a 5.3,5.3 0 0 1 3,0.759 2.6,2.6 0 0 1 0.143,4.544 5.3,5.3 0 0 1 -2.948,0.948 Q 19.358,29.26 19.261,29.26 Z M 16.1,26.236 a 1.761,1.761 0 0 0 0.924,1.374 4.57,4.57 0 0 0 4.757,-0.151 1.558,1.558 0 0 0 -0.089,-2.8 4.226,4.226 0 0 0 -2.4,-0.593 c -1.766,0.056 -3.228,1.052 -3.193,2.174 z"
           style="fill:#656565"
           id="path48" /><path
           d="M 6.2,23.477 A 27.4,27.4 0 0 1 9.769,8.986 l 0.687,0.391 A 26.609,26.609 0 0 0 6.986,23.45 Z"
           style="fill:#656565"
           id="path49" /><path
           d="m 10.853,7.957 a 7.171,7.171 0 0 0 -0.075,2.32 L 10.02,9.347 8.842,9.117 a 7.165,7.165 0 0 0 2.011,-1.16 z"
           style="fill:#656565"
           id="path50" /><path
           d="M 19.854,23.477 19.064,23.45 A 26.59,26.59 0 0 0 18.149,15.566 26.624,26.624 0 0 0 15.595,9.377 l 0.687,-0.391 a 27.423,27.423 0 0 1 2.63,6.373 27.372,27.372 0 0 1 0.942,8.118 z"
           style="fill:#656565"
           id="path51" /><path
           d="m 15.2,7.957 a 7.171,7.171 0 0 0 2.011,1.159 l -1.178,0.23 -0.758,0.93 A 7.165,7.165 0 0 0 15.2,7.957 Z"
           style="fill:#656565"
           id="path52" /><rect
           x="11.348"
           y="9.9449997"
           width="3.5150001"
           height="0.79100001"
           transform="matrix(0.016,-1,1,0.016,2.557,23.279)"
           style="fill:#656565"
           id="rect52" /><path
           d="m 13.054,13.529 a 7.171,7.171 0 0 0 -1.1,-2.046 l 1.122,0.426 1.135,-0.39 a 7.165,7.165 0 0 0 -1.157,2.01 z"
           style="fill:#656565"
           id="path53" /><rect
           x="7.809"
           y="20.080999"
           width="4.757"
           height="0.79100001"
           transform="rotate(-57.603,10.188144,20.476569)"
           style="fill:#656565"
           id="rect53" /><path
           d="M 8.147,23.694 A 7.171,7.171 0 0 0 8.28,21.377 l 0.734,0.949 1.171,0.26 a 7.165,7.165 0 0 0 -2.038,1.108 z"
           style="fill:#656565"
           id="path54-0" /><rect
           x="15.418"
           y="18.051001"
           width="0.79100001"
           height="4.9190001"
           transform="rotate(-30.708,15.812697,20.511064)"
           style="fill:#656565"
           id="rect54" /><path
           d="m 17.8,23.856 a 7.171,7.171 0 0 0 -2.006,-1.168 l 1.179,-0.225 0.762,-0.927 a 7.165,7.165 0 0 0 0.065,2.32 z"
           style="fill:#656565"
           id="path55" /><path
           d="m 13.024,19.125 a 5.238,5.238 0 0 1 -2.807,-0.762 2.775,2.775 0 0 1 -1.41,-2.229 2.775,2.775 0 0 1 1.266,-2.314 5.3,5.3 0 0 1 2.948,-0.948 6.712,6.712 0 0 1 2.134,0.313 l -0.331,1 a 5.668,5.668 0 0 0 -1.769,-0.261 4.238,4.238 0 0 0 -2.358,0.744 1.761,1.761 0 0 0 -0.835,1.43 1.761,1.761 0 0 0 0.924,1.374 4.242,4.242 0 0 0 2.4,0.593 5.7,5.7 0 0 0 1.678,-0.378 l 0.378,0.985 A 6.844,6.844 0 0 1 13.22,19.12 q -0.099,0.005 -0.196,0.005 z"
           style="fill:#656565"
           id="path56-3" /><path
           d="m 15.435,12.876 a 4.338,4.338 0 0 0 -0.984,1.622 2.064,2.064 0 0 1 -0.016,2.806 4.4,4.4 0 0 0 0.982,1.6 3.932,3.932 0 0 0 0.078,-5.986 C 15.476,12.9 15.454,12.893 15.435,12.876 Z"
           style="fill:#656565"
           id="path57-6" /><path
           d="m 19.525,15.278 a 27.931,27.931 0 0 0 -1.263,-3.742 4.376,4.376 0 0 0 -1.777,0.517 26.063,26.063 0 0 1 1.253,3.685 26.038,26.038 0 0 1 0.734,4.534 4.347,4.347 0 0 0 1.825,-0.351 27.9,27.9 0 0 0 -0.772,-4.643 z"
           style="fill:#656565"
           id="path58" /><path
           d="M 16.153,12.229 A 4.437,4.437 0 1 0 22.3,13.5 4.437,4.437 0 0 0 16.153,12.229 Z m 4.812,7.332 a 4.346,4.346 0 1 1 1.249,-6.018 4.346,4.346 0 0 1 -1.249,6.018 z"
           style="fill:#2c2928"
           id="path59" /><path
           d="m 22.015,19.186 a 0.822,0.822 0 0 0 -0.192,-0.209 4.347,4.347 0 0 1 -0.333,0.319 4.522,4.522 0 0 1 -0.446,0.337 4.73,4.73 0 0 1 -0.94,0.477 0.669,0.669 0 0 0 0.031,0.1 0.64,0.64 0 0 0 0.047,0.094 l 0.487,0.8 1.831,-1.12 z"
           style="fill:#282828"
           id="path60" /><rect
           x="20.792999"
           y="20.784"
           width="2.1470001"
           height="0.44"
           transform="rotate(-31.394,21.865611,21.003231)"
           style="fill:#282828"
           id="rect60" /><rect
           x="22.868"
           y="20.959999"
           width="2.1470001"
           height="6.8870001"
           transform="rotate(-31.394,23.941411,24.402765)"
           style="fill:#282828"
           id="rect61" /><path
           d="m 27.054,27.443 -0.236,-0.387 -1.833,1.119 0.236,0.387 a 0.924,0.924 0 0 0 1.279,0.159 l 0.11,-0.067 a 0.924,0.924 0 0 0 0.444,-1.211 z"
           style="fill:#282828"
           id="path61" /><path
           d="m 20.68,14.845 a 0.315,0.315 0 0 1 0.338,0.027 1.078,1.078 0 0 1 0.294,0.578 1.1,1.1 0 0 1 0.029,0.654 0.327,0.327 0 0 1 -0.278,0.2 0.468,0.468 0 0 1 -0.37,-0.1 0.922,0.922 0 0 1 -0.262,-0.5 0.955,0.955 0 0 1 -0.01,-0.585 0.466,0.466 0 0 1 0.259,-0.274 z m 0.06,0.227 a 0.149,0.149 0 0 0 -0.074,0.063 0.247,0.247 0 0 0 -0.027,0.132 1.626,1.626 0 0 0 0.064,0.355 1.592,1.592 0 0 0 0.112,0.329 0.268,0.268 0 0 0 0.094,0.11 0.142,0.142 0 0 0 0.094,0.015 0.121,0.121 0 0 0 0.078,-0.048 0.211,0.211 0 0 0 0.028,-0.128 2.643,2.643 0 0 0 -0.186,-0.722 0.235,0.235 0 0 0 -0.093,-0.107 0.116,0.116 0 0 0 -0.091,10e-4 z"
           style="fill:#00ff80"
           id="path62" /><path
           d="m 21.694,14.4 a 0.3,0.3 0 0 1 0.346,0.057 1.493,1.493 0 0 1 0.325,0.7 1.521,1.521 0 0 1 0.06,0.771 0.31,0.31 0 0 1 -0.27,0.228 0.446,0.446 0 0 1 -0.379,-0.137 1.31,1.31 0 0 1 -0.292,-0.617 1.341,1.341 0 0 1 -0.041,-0.7 0.441,0.441 0 0 1 0.251,-0.302 z m 0.072,0.273 a 0.136,0.136 0 0 0 -0.072,0.069 0.315,0.315 0 0 0 -0.021,0.155 2.351,2.351 0 0 0 0.084,0.427 2.31,2.31 0 0 0 0.131,0.4 0.347,0.347 0 0 0 0.1,0.135 0.13,0.13 0 0 0 0.1,0.021 0.11,0.11 0 0 0 0.076,-0.054 0.275,0.275 0 0 0 0.022,-0.15 3.773,3.773 0 0 0 -0.224,-0.862 0.311,0.311 0 0 0 -0.1,-0.132 0.1,0.1 0 0 0 -0.096,-0.008 z"
           style="fill:#00ff80"
           id="path63" /><path
           d="m 23.472,15.934 -0.269,0.038 -0.379,-1.439 a 0.955,0.955 0 0 1 -0.257,0.392 L 22.48,14.594 a 0.841,0.841 0 0 0 0.169,-0.26 0.874,0.874 0 0 0 0.075,-0.383 l 0.2,-0.089 z"
           style="fill:#00ff80"
           id="path64" /><path
           d="m 24.455,15.794 -0.269,0.038 -0.429,-1.625 a 1,1 0 0 1 -0.247,0.429 l -0.1,-0.376 a 0.874,0.874 0 0 0 0.162,-0.284 1.028,1.028 0 0 0 0.064,-0.424 l 0.2,-0.089 z"
           style="fill:#00ff80"
           id="path65" /><path
           d="m 24.636,13.117 c 0.127,-0.055 0.249,-0.008 0.369,0.144 a 3.11,3.11 0 0 1 0.416,1.034 3.143,3.143 0 0 1 0.151,1.11 c -0.029,0.19 -0.111,0.294 -0.247,0.312 -0.136,0.018 -0.272,-0.059 -0.4,-0.231 a 2.855,2.855 0 0 1 -0.381,-0.95 2.871,2.871 0 0 1 -0.132,-1.039 0.437,0.437 0 0 1 0.224,-0.38 z m 0.107,0.4 a 0.124,0.124 0 0 0 -0.067,0.088 0.584,0.584 0 0 0 0,0.221 5.218,5.218 0 0 0 0.139,0.635 5.153,5.153 0 0 0 0.184,0.6 0.66,0.66 0 0 0 0.12,0.208 0.118,0.118 0 0 0 0.1,0.04 0.1,0.1 0 0 0 0.071,-0.072 0.528,0.528 0 0 0 0,-0.216 5.442,5.442 0 0 0 -0.144,-0.653 5.447,5.447 0 0 0 -0.189,-0.619 0.612,0.612 0 0 0 -0.119,-0.205 0.093,0.093 0 0 0 -0.095,-0.022 z"
           style="fill:#00ff80"
           id="path66" /><path
           d="m 26.638,15.488 -0.269,0.038 -0.54,-2.039 A 1.151,1.151 0 0 1 25.6,14 l -0.126,-0.475 a 0.99,0.99 0 0 0 0.148,-0.337 1.436,1.436 0 0 0 0.039,-0.515 l 0.2,-0.088 z"
           style="fill:#00ff80"
           id="path67" /><path
           d="m 26.666,12.236 c 0.127,-0.055 0.255,0.012 0.385,0.2 a 4.584,4.584 0 0 1 0.478,1.268 4.62,4.62 0 0 1 0.213,1.343 c -0.018,0.229 -0.1,0.352 -0.232,0.37 -0.132,0.018 -0.278,-0.081 -0.421,-0.3 a 4.284,4.284 0 0 1 -0.443,-1.179 4.283,4.283 0 0 1 -0.194,-1.272 c 0.016,-0.228 0.087,-0.375 0.214,-0.43 z m 0.131,0.5 q -0.046,0.018 -0.064,0.1 a 0.829,0.829 0 0 0 0.009,0.266 7.856,7.856 0 0 0 0.178,0.779 q 0.143,0.541 0.221,0.738 a 0.947,0.947 0 0 0 0.134,0.258 0.119,0.119 0 0 0 0.1,0.052 q 0.048,-0.009 0.068,-0.085 a 0.762,0.762 0 0 0 -0.008,-0.262 8.117,8.117 0 0 0 -0.182,-0.8 Q 27.105,13.225 27.026,13.025 A 0.892,0.892 0 0 0 26.893,12.769 Q 26.843,12.714 26.8,12.732 Z"
           style="fill:#00ff80"
           id="path68" /><path
           d="m 27.681,11.8 c 0.127,-0.055 0.257,0.023 0.393,0.234 a 5.431,5.431 0 0 1 0.509,1.385 5.467,5.467 0 0 1 0.244,1.46 c -0.013,0.249 -0.088,0.381 -0.224,0.4 -0.136,0.019 -0.281,-0.092 -0.43,-0.328 A 5.11,5.11 0 0 1 27.7,13.657 5.1,5.1 0 0 1 27.475,12.269 c 0.011,-0.261 0.08,-0.418 0.206,-0.469 z m 0.144,0.542 q -0.046,0.018 -0.062,0.106 a 0.97,0.97 0 0 0 0.015,0.289 q 0.04,0.259 0.2,0.851 0.16,0.592 0.24,0.807 a 1.112,1.112 0 0 0 0.14,0.284 q 0.057,0.067 0.106,0.059 0.049,-0.008 0.066,-0.091 a 0.9,0.9 0 0 0 -0.014,-0.284 q -0.04,-0.26 -0.2,-0.867 -0.16,-0.607 -0.245,-0.827 a 1.053,1.053 0 0 0 -0.14,-0.281 q -0.06,-0.068 -0.106,-0.05 z"
           style="fill:#00ff80"
           id="path69" /><path
           d="m 29.915,15.034 -0.27,0.037 -0.706,-2.661 a 1.478,1.478 0 0 1 -0.192,0.636 L 28.581,12.421 A 1.248,1.248 0 0 0 28.708,12 a 2.214,2.214 0 0 0 0,-0.653 l 0.2,-0.088 z"
           style="fill:#00ff80"
           id="path70" /><path
           d="m 29.712,10.921 c 0.127,-0.054 0.263,0.043 0.409,0.294 a 7.345,7.345 0 0 1 0.572,1.619 7.382,7.382 0 0 1 0.307,1.693 c 0,0.288 -0.072,0.44 -0.209,0.458 -0.137,0.018 -0.286,-0.114 -0.447,-0.393 a 6.984,6.984 0 0 1 -0.535,-1.524 6.944,6.944 0 0 1 -0.287,-1.621 c 0.001,-0.296 0.064,-0.472 0.19,-0.526 z m 0.168,0.633 q -0.046,0.018 -0.059,0.119 a 1.287,1.287 0 0 0 0.027,0.334 q 0.051,0.3 0.235,0.994 0.184,0.694 0.277,0.946 a 1.484,1.484 0 0 0 0.154,0.334 q 0.06,0.08 0.109,0.071 0.049,-0.009 0.063,-0.1 a 1.2,1.2 0 0 0 -0.026,-0.33 q -0.051,-0.3 -0.239,-1.011 -0.188,-0.711 -0.282,-0.965 a 1.42,1.42 0 0 0 -0.153,-0.332 q -0.06,-0.078 -0.106,-0.061 z"
           style="fill:#00ff80"
           id="path71" /><path
           d="m 21.167,16.362 a 0.422,0.422 0 0 1 0.318,0.185 1.005,1.005 0 0 1 -0.277,1.03 0.42,0.42 0 0 1 -0.366,0 0.59,0.59 0 0 1 -0.311,-0.261 0.808,0.808 0 0 1 0.254,-0.893 0.561,0.561 0 0 1 0.382,-0.061 z m -0.051,0.189 a 0.175,0.175 0 0 0 -0.192,0.087 1.487,1.487 0 0 0 -0.155,0.567 0.216,0.216 0 0 0 0.039,0.124 0.191,0.191 0 0 0 0.084,0.058 0.145,0.145 0 0 0 0.188,-0.069 1.666,1.666 0 0 0 0.164,-0.6 0.189,0.189 0 0 0 -0.04,-0.121 0.163,0.163 0 0 0 -0.087,-0.046 z"
           style="fill:#00ff80"
           id="path72" /><path
           d="m 22.376,16.548 a 0.382,0.382 0 0 1 0.311,0.212 1.024,1.024 0 0 1 -0.019,0.66 1.022,1.022 0 0 1 -0.315,0.581 0.38,0.38 0 0 1 -0.373,0.025 0.533,0.533 0 0 1 -0.3,-0.29 1.189,1.189 0 0 1 0.309,-1.1 0.5,0.5 0 0 1 0.387,-0.088 z m -0.062,0.23 a 0.167,0.167 0 0 0 -0.1,0.013 0.235,0.235 0 0 0 -0.1,0.1 2.219,2.219 0 0 0 -0.189,0.694 0.269,0.269 0 0 0 0.033,0.147 0.167,0.167 0 0 0 0.083,0.064 0.143,0.143 0 0 0 0.1,0 0.206,0.206 0 0 0 0.094,-0.1 2.436,2.436 0 0 0 0.2,-0.727 0.24,0.24 0 0 0 -0.034,-0.144 0.141,0.141 0 0 0 -0.087,-0.047 z"
           style="fill:#00ff80"
           id="path73" /><path
           d="m 23.37,18.541 -0.281,-0.11 0.328,-1.225 a 1,1 0 0 1 -0.442,0.152 l 0.075,-0.281 a 0.881,0.881 0 0 0 0.292,-0.1 0.68,0.68 0 0 0 0.259,-0.238 l 0.242,0.037 z"
           style="fill:#00ff80"
           id="path74" /><path
           d="m 24.793,16.919 a 0.348,0.348 0 0 1 0.3,0.266 1.751,1.751 0 0 1 -0.075,0.87 1.749,1.749 0 0 1 -0.371,0.791 0.345,0.345 0 0 1 -0.388,0.078 0.488,0.488 0 0 1 -0.288,-0.348 1.587,1.587 0 0 1 0.067,-0.79 1.577,1.577 0 0 1 0.354,-0.727 0.457,0.457 0 0 1 0.401,-0.14 z m -0.084,0.312 a 0.143,0.143 0 0 0 -0.107,0.025 0.353,0.353 0 0 0 -0.106,0.141 4.126,4.126 0 0 0 -0.257,0.948 0.408,0.408 0 0 0 0.021,0.192 0.143,0.143 0 0 0 0.08,0.075 0.12,0.12 0 0 0 0.1,-0.011 0.318,0.318 0 0 0 0.105,-0.137 4.418,4.418 0 0 0 0.266,-0.981 0.374,0.374 0 0 0 -0.022,-0.189 0.119,0.119 0 0 0 -0.079,-0.063 z"
           style="fill:#00ff80"
           id="path75" /><path
           d="m 25.649,19.43 -0.281,-0.11 0.428,-1.6 a 1.033,1.033 0 0 1 -0.462,0.227 l 0.1,-0.371 a 0.9,0.9 0 0 0 0.3,-0.151 0.93,0.93 0 0 0 0.281,-0.321 l 0.242,0.037 z"
           style="fill:#00ff80"
           id="path76" /><path
           d="m 27.211,17.291 a 0.344,0.344 0 0 1 0.282,0.319 2.692,2.692 0 0 1 -0.131,1.08 2.69,2.69 0 0 1 -0.427,1 0.34,0.34 0 0 1 -0.4,0.13 0.487,0.487 0 0 1 -0.273,-0.405 2.494,2.494 0 0 1 0.122,-1 2.47,2.47 0 0 1 0.41,-0.937 0.451,0.451 0 0 1 0.417,-0.187 z m -0.106,0.394 a 0.133,0.133 0 0 0 -0.11,0.036 0.509,0.509 0 0 0 -0.117,0.182 6.622,6.622 0 0 0 -0.325,1.2 0.591,0.591 0 0 0 0.009,0.237 0.133,0.133 0 0 0 0.077,0.086 0.11,0.11 0 0 0 0.107,-0.023 0.465,0.465 0 0 0 0.116,-0.178 4.639,4.639 0 0 0 0.2,-0.619 4.658,4.658 0 0 0 0.136,-0.615 0.552,0.552 0 0 0 -0.01,-0.235 0.11,0.11 0 0 0 -0.083,-0.071 z"
           style="fill:#00ff80"
           id="path77" /><path
           d="m 27.927,20.32 -0.281,-0.11 0.528,-1.971 a 1.134,1.134 0 0 1 -0.482,0.3 l 0.123,-0.46 a 0.972,0.972 0 0 0 0.317,-0.2 1.248,1.248 0 0 0 0.3,-0.4 l 0.242,0.037 z"
           style="fill:#00ff80"
           id="path78" /><path
           d="m 28.953,20.721 -0.281,-0.11 0.573,-2.139 a 1.2,1.2 0 0 1 -0.491,0.336 l 0.134,-0.5 a 1.02,1.02 0 0 0 0.323,-0.22 1.413,1.413 0 0 0 0.314,-0.44 l 0.242,0.037 z"
           style="fill:#00ff80"
           id="path79" /><path
           d="m 30.717,17.83 c 0.151,0.023 0.238,0.155 0.262,0.4 a 4.436,4.436 0 0 1 -0.213,1.385 4.434,4.434 0 0 1 -0.509,1.307 c -0.14,0.195 -0.28,0.263 -0.422,0.207 -0.142,-0.056 -0.226,-0.22 -0.25,-0.489 a 4.194,4.194 0 0 1 0.2,-1.3 4.143,4.143 0 0 1 0.492,-1.241 c 0.143,-0.199 0.289,-0.292 0.44,-0.269 z m -0.137,0.513 a 0.132,0.132 0 0 0 -0.115,0.053 0.8,0.8 0 0 0 -0.133,0.241 7.587,7.587 0 0 0 -0.244,0.791 7.539,7.539 0 0 0 -0.18,0.779 0.93,0.93 0 0 0 -0.009,0.3 0.131,0.131 0 0 0 0.073,0.1 0.108,0.108 0 0 0 0.111,-0.039 0.742,0.742 0 0 0 0.132,-0.237 7.8,7.8 0 0 0 0.248,-0.806 7.835,7.835 0 0 0 0.185,-0.8 0.884,0.884 0 0 0 0.008,-0.3 Q 30.633,18.353 30.58,18.343 Z"
           style="fill:#00ff80"
           id="path80" /></g></g><g
       id="rect23"
       style="display:inline"><rect
         style="display:inline;fill:url(#linearGradient23);fill-opacity:0.834379;stroke:none;stroke-width:4.99999;stroke-linecap:square;stroke-dasharray:none;stroke-opacity:1"
         id="rect20"
         width="30.128031"
         height="11.286353"
         x="177.19191"
         y="53.347572" /><path
         style="color:#000000;display:inline;fill:url(#linearGradient25);stroke-linecap:square;stroke-linejoin:bevel;-inkscape-stroke:none"
         d="m 174.15254,15.119046 40.91592,41.955358 H 174.814 Z"
         id="path25" /><g
         id="g27"><path
           id="rect27"
           style="display:inline;fill:#0a6db5;fill-opacity:0.459222;stroke-width:4.99999;stroke-linecap:square;stroke-linejoin:bevel"
           d="m 182.94047,23.245534 33.07293,33.82887 -33.07293,-0.09449 z"
           sodipodi:nodetypes="cccc" /><path
           id="path27"
           style="display:inline;fill:#1882cf;fill-opacity:0.459222;stroke-width:4.99999;stroke-linecap:square;stroke-linejoin:bevel"
           d="m 175.28645,49.514879 34.91556,0.188989 4.67746,7.087054 -39.68751,-0.472471 z"
           sodipodi:nodetypes="ccccc" /></g><path
         style="color:#000000;display:inline;fill:url(#linearGradient27);stroke-linecap:square;stroke-linejoin:bevel;-inkscape-stroke:none"
         d="m 175.94141,13.373047 -4.28907,1.785156 6.5e-4,44.600911 c 0,0 29.8634,-0.184895 43.41537,-0.184895 l 1.78906,-4.246094 z m 1.4286,7.056744 34.22551,34.144428 h -34.32013 z"
         id="path26"
         sodipodi:nodetypes="cccccccccc" /></g></g></svg>
