<?xml version="1.0" encoding="UTF-8" standalone="no"?>
<!-- Created with Inkscape (http://www.inkscape.org/) -->

<svg
   width="256mm"
   height="256mm"
   viewBox="0 0 256 256"
   version="1.1"
   id="svg1"
   inkscape:version="1.3.2 (091e20ef0f, 2023-11-25)"
   xml:space="preserve"
   sodipodi:docname="text-x-rst.svg"
   xmlns:inkscape="http://www.inkscape.org/namespaces/inkscape"
   xmlns:sodipodi="http://sodipodi.sourceforge.net/DTD/sodipodi-0.dtd"
   xmlns:xlink="http://www.w3.org/1999/xlink"
   xmlns="http://www.w3.org/2000/svg"
   xmlns:svg="http://www.w3.org/2000/svg"
   xmlns:rdf="http://www.w3.org/1999/02/22-rdf-syntax-ns#"
   xmlns:cc="http://creativecommons.org/ns#"
   xmlns:dc="http://purl.org/dc/elements/1.1/"><defs
     id="defs1"><linearGradient
       id="linearGradient26"
       inkscape:collect="always"><stop
         style="stop-color:#7b91c4;stop-opacity:1;"
         offset="0"
         id="stop26" /><stop
         style="stop-color:#5c5e91;stop-opacity:1"
         offset="1"
         id="stop27" /></linearGradient><linearGradient
       id="linearGradient24"
       inkscape:collect="always"><stop
         style="stop-color:#c7fafe;stop-opacity:1;"
         offset="0"
         id="stop24" /><stop
         style="stop-color:#9acdff;stop-opacity:1"
         offset="1"
         id="stop25" /></linearGradient><linearGradient
       id="linearGradient22"
       inkscape:collect="always"><stop
         style="stop-color:#adaeae;stop-opacity:0.8253752;"
         offset="0"
         id="stop22" /><stop
         style="stop-color:#8ac5fe;stop-opacity:0.83628923;"
         offset="1"
         id="stop23" /></linearGradient><linearGradient
       id="linearGradient18"
       inkscape:collect="always"><stop
         style="stop-color:#9797ff;stop-opacity:1;"
         offset="0"
         id="stop18" /><stop
         style="stop-color:#ccccff;stop-opacity:1;"
         offset="0.30000001"
         id="stop20" /><stop
         style="stop-color:#ccccff;stop-opacity:1;"
         offset="1"
         id="stop19" /></linearGradient><linearGradient
       id="linearGradient16"
       inkscape:collect="always"><stop
         style="stop-color:#cdcdcd;stop-opacity:0.17462483;"
         offset="0"
         id="stop16" /><stop
         style="stop-color:#cdcdcd;stop-opacity:1;"
         offset="1"
         id="stop17" /></linearGradient><linearGradient
       id="linearGradient12"
       inkscape:collect="always"><stop
         style="stop-color:#fdfeff;stop-opacity:1;"
         offset="0"
         id="stop13" /><stop
         style="stop-color:#99ccff;stop-opacity:1;"
         offset="1"
         id="stop14" /></linearGradient><linearGradient
       id="linearGradient9"
       inkscape:collect="always"><stop
         style="stop-color:#97c9fc;stop-opacity:1;"
         offset="0"
         id="stop9" /><stop
         style="stop-color:#7788bb;stop-opacity:1"
         offset="0.25"
         id="stop12" /><stop
         style="stop-color:#57578a;stop-opacity:1"
         offset="0.5"
         id="stop11" /><stop
         style="stop-color:#444482;stop-opacity:1;"
         offset="1"
         id="stop10" /></linearGradient><linearGradient
       inkscape:collect="always"
       xlink:href="#linearGradient9"
       id="linearGradient10"
       x1="31.622168"
       y1="100.24049"
       x2="221.19499"
       y2="240.28973"
       gradientUnits="userSpaceOnUse" /><linearGradient
       inkscape:collect="always"
       xlink:href="#linearGradient12"
       id="linearGradient14"
       x1="73.583481"
       y1="62.020954"
       x2="207.02971"
       y2="229.59895"
       gradientUnits="userSpaceOnUse" /><linearGradient
       inkscape:collect="always"
       xlink:href="#linearGradient16"
       id="linearGradient17"
       x1="57.531055"
       y1="26.420616"
       x2="147.13231"
       y2="144.34076"
       gradientUnits="userSpaceOnUse" /><linearGradient
       inkscape:collect="always"
       xlink:href="#linearGradient18"
       id="linearGradient19"
       x1="209.82518"
       y1="58.53635"
       x2="210.58252"
       y2="194.57654"
       gradientUnits="userSpaceOnUse" /><linearGradient
       inkscape:collect="always"
       xlink:href="#linearGradient22"
       id="linearGradient23"
       x1="177.19191"
       y1="58.990749"
       x2="207.31994"
       y2="58.990749"
       gradientUnits="userSpaceOnUse" /><linearGradient
       inkscape:collect="always"
       xlink:href="#linearGradient24"
       id="linearGradient25"
       x1="176.32031"
       y1="20.126524"
       x2="176.32031"
       y2="56.695721"
       gradientUnits="userSpaceOnUse" /><linearGradient
       inkscape:collect="always"
       xlink:href="#linearGradient26"
       id="linearGradient27"
       x1="172.59729"
       y1="13.51158"
       x2="210.54449"
       y2="51.28627"
       gradientUnits="userSpaceOnUse" /></defs><sodipodi:namedview
     id="base"
     pagecolor="#ffffff"
     bordercolor="#000000"
     borderopacity="0.3"
     inkscape:pageopacity="0.0"
     inkscape:pageshadow="2"
     inkscape:zoom="0.98994949"
     inkscape:cx="505.07627"
     inkscape:cy="476.792"
     inkscape:document-units="mm"
     inkscape:showpageshadow="2"
     inkscape:pagecheckerboard="0"
     inkscape:deskcolor="#d1d1d1"
     inkscape:current-layer="g28"
     showguides="true" /><metadata
     id="metadata1"><rdf:RDF><cc:Work
         rdf:about=""><dc:format>image/svg+xml</dc:format><dc:type
           rdf:resource="http://purl.org/dc/dcmitype/StillImage" /><cc:license
           rdf:resource="http://creativecommons.org/publicdomain/zero/1.0/" /></cc:Work><cc:License
         rdf:about="http://creativecommons.org/publicdomain/zero/1.0/"><cc:permits
           rdf:resource="http://creativecommons.org/ns#Reproduction" /><cc:permits
           rdf:resource="http://creativecommons.org/ns#Distribution" /><cc:permits
           rdf:resource="http://creativecommons.org/ns#DerivativeWorks" /></cc:License></rdf:RDF></metadata><g
     id="g28"
     transform="matrix(1.0481261,0,0,1.0481261,-6.4074194,-6.1384097)"><g
       id="g7"
       inkscape:label="shadow"
       style="display:inline"><path
         id="rect1"
         style="fill:#000000;fill-opacity:0.0602258;stroke-width:3.72791;stroke-linecap:square"
         d="M 48.380952,13.418155 H 179.16071 l 43.46726,43.278274 V 244.17261 H 48.380952 Z"
         sodipodi:nodetypes="cccccc" /><path
         id="path1"
         style="fill:#000000;fill-opacity:0.0752823;stroke-width:3.72791;stroke-linecap:square"
         d="m 47.563027,12.60023 129.443423,-0.133635 43.46726,43.278274 1.33635,187.609821 H 47.563027 Z"
         sodipodi:nodetypes="cccccc" /><path
         id="path2"
         style="fill:#000000;fill-opacity:0.0602258;stroke-width:3.72791;stroke-linecap:square"
         d="m 46.493949,11.793049 128.975701,-0.868626 43.46726,43.278274 1.80407,188.344813 H 46.493949 Z"
         sodipodi:nodetypes="cccccc" /><path
         id="path3"
         style="fill:#000000;fill-opacity:0.0602258;stroke-width:3.72791;stroke-linecap:square"
         d="m 45.964782,12.33296 129.777508,0.467722 43.46726,42.209196 1.00226,187.008462 H 45.964782 Z"
         sodipodi:nodetypes="cccccc" /><path
         id="path4"
         style="fill:#000000;fill-opacity:0.0602258;stroke-width:3.72791;stroke-linecap:square"
         d="m 45.435615,12.338332 129.443415,0.935443 43.46726,41.674657 1.33635,186.540738 H 45.435615 Z"
         sodipodi:nodetypes="cccccc" /><path
         id="path5"
         style="fill:#000000;fill-opacity:0.0602258;stroke-width:3.72791;stroke-linecap:square"
         d="M 44.906448,12.744609 174.8844,13.412783 218.35166,54.151996 219.15347,240.96 H 44.906448 Z"
         sodipodi:nodetypes="cccccc" /><path
         id="path6"
         style="fill:#000000;fill-opacity:0.0602258;stroke-width:3.72791;stroke-linecap:square"
         d="m 44.377281,15.021772 129.911129,0.534539 43.46726,37.932883 0.86863,186.941636 H 44.377281 Z"
         sodipodi:nodetypes="cccccc" /><path
         id="path7"
         style="fill:#000000;fill-opacity:0.0602258;stroke-width:3.72791;stroke-linecap:square"
         d="m 43.848114,13.423527 129.710676,1.069078 43.46726,39.001961 1.06908,186.407094 H 43.848114 Z"
         sodipodi:nodetypes="cccccc" /></g><g
       id="g14"
       style="display:inline"><path
         style="color:#000000;fill:url(#linearGradient14);stroke-linecap:square;-inkscape-stroke:none"
         d="M 46.153822,14.648159 H 173.78301 l 40.90293,41.140298 V 236.0795 H 46.554726 Z"
         id="path15"
         inkscape:label="headbgground" /><path
         id="rect16"
         style="display:inline;fill:url(#linearGradient17);fill-opacity:1;stroke-width:4.99999;stroke-linecap:square"
         d="M 45.435818,14.165285 H 176.70315 l 0.20408,8.220982 H 53.433709 V 235.97952 h -7.997891 z"
         sodipodi:nodetypes="ccccccc" /><path
         id="rect17"
         style="fill:url(#linearGradient19);stroke-width:4.99999;stroke-linecap:square"
         d="M 47.058037,227.91965 H 207.27506 l -0.0668,-168.246312 7.31651,0.0667 0.0668,168.546562 -7.08265,0.0331 v 7.34846 H 47.058037 Z"
         sodipodi:nodetypes="ccccccccc" /><path
         style="color:#000000;fill:url(#linearGradient10);stroke-linecap:square;-inkscape-stroke:none"
         d="M 43.648437,12.148438 44.058594,238.58008 H 217.18555 V 54.757812 L 174.82227,12.148438 Z m 4.608862,4.999999 H 172.74414 l 39.44141,39.671875 V 233.58008 H 48.775405 Z"
         id="path16"
         inkscape:label="headframe"
         sodipodi:nodetypes="cccccccccccc" /></g><g
       id="rect23"
       style="display:inline"><rect
         style="display:inline;fill:url(#linearGradient23);fill-opacity:0.834379;stroke:none;stroke-width:4.99999;stroke-linecap:square;stroke-dasharray:none;stroke-opacity:1"
         id="rect20"
         width="30.128031"
         height="11.286353"
         x="177.19191"
         y="53.347572" /><path
         style="color:#000000;display:inline;fill:url(#linearGradient25);stroke-linecap:square;stroke-linejoin:bevel;-inkscape-stroke:none"
         d="m 174.15254,15.119046 40.91592,41.955358 H 174.814 Z"
         id="path25" /><g
         id="g27"><path
           id="rect27"
           style="display:inline;fill:#0a6db5;fill-opacity:0.459222;stroke-width:4.99999;stroke-linecap:square;stroke-linejoin:bevel"
           d="m 182.94047,23.245534 33.07293,33.82887 -33.07293,-0.09449 z"
           sodipodi:nodetypes="cccc" /><path
           id="path27"
           style="display:inline;fill:#1882cf;fill-opacity:0.459222;stroke-width:4.99999;stroke-linecap:square;stroke-linejoin:bevel"
           d="m 175.28645,49.514879 34.91556,0.188989 4.67746,7.087054 -39.68751,-0.472471 z"
           sodipodi:nodetypes="ccccc" /></g><path
         style="color:#000000;display:inline;fill:url(#linearGradient27);stroke-linecap:square;stroke-linejoin:bevel;-inkscape-stroke:none"
         d="m 175.94141,13.373047 -4.28907,1.785156 6.5e-4,44.600911 c 0,0 29.8634,-0.184895 43.41537,-0.184895 l 1.78906,-4.246094 z m 1.4286,7.056744 34.22551,34.144428 h -34.32013 z"
         id="path26"
         sodipodi:nodetypes="cccccccccc" /></g><g
       id="g11"
       transform="matrix(1.0120143,0,0,1.0120143,14.798122,-7.9126603)"
       style="clip-rule:nonzero;display:inline;fill:#a3a3a3;fill-opacity:0.70915;fill-rule:nonzero;stroke:none;stroke-width:0;stroke-miterlimit:4"><rect
         style="fill:#a3a3a3;fill-opacity:0.70915;fill-rule:evenodd;stroke:none;stroke-width:1.29;stroke-linecap:round;stroke-linejoin:round;stroke-miterlimit:2.1"
         id="rect1-6"
         width="92.663994"
         height="7.6032"
         x="42.055199"
         y="41.104797" /><rect
         style="fill:#a3a3a3;fill-opacity:0.70915;fill-rule:evenodd;stroke:none;stroke-width:1.59471;stroke-linecap:round;stroke-linejoin:round;stroke-miterlimit:2.1"
         id="rect3"
         width="141.60959"
         height="7.6032"
         x="42.055199"
         y="76.507195" /><rect
         style="fill:#a3a3a3;fill-opacity:0.70915;fill-rule:evenodd;stroke:none;stroke-width:1.59471;stroke-linecap:round;stroke-linejoin:round;stroke-miterlimit:2.1"
         id="rect4"
         width="141.60959"
         height="7.6032"
         x="42.055199"
         y="94.802399" /><rect
         style="fill:#a3a3a3;fill-opacity:0.70915;fill-rule:evenodd;stroke:none;stroke-width:1.59471;stroke-linecap:round;stroke-linejoin:round;stroke-miterlimit:2.1"
         id="rect5"
         width="141.60959"
         height="7.6032"
         x="42.055199"
         y="111.90959" /><rect
         style="fill:#a3a3a3;fill-opacity:0.70915;fill-rule:evenodd;stroke:none;stroke-width:1.59471;stroke-linecap:round;stroke-linejoin:round;stroke-miterlimit:2.1"
         id="rect6-7"
         width="141.60959"
         height="7.6032"
         x="42.055199"
         y="130.9176" /><rect
         style="fill:#a3a3a3;fill-opacity:0.70915;fill-rule:evenodd;stroke:none;stroke-width:1.59471;stroke-linecap:round;stroke-linejoin:round;stroke-miterlimit:2.1"
         id="rect7-3"
         width="141.60959"
         height="7.6032"
         x="42.055199"
         y="148.0248" /><rect
         style="fill:#a3a3a3;fill-opacity:0.70915;fill-rule:evenodd;stroke:none;stroke-width:1.59471;stroke-linecap:round;stroke-linejoin:round;stroke-miterlimit:2.1"
         id="rect8-6"
         width="141.60959"
         height="7.6032"
         x="42.055199"
         y="166.31999" /><rect
         style="fill:#a3a3a3;fill-opacity:0.70915;fill-rule:evenodd;stroke:none;stroke-width:1.59471;stroke-linecap:round;stroke-linejoin:round;stroke-miterlimit:2.1"
         id="rect9"
         width="141.60959"
         height="7.6032"
         x="42.055199"
         y="183.42719" /><rect
         style="fill:#a3a3a3;fill-opacity:0.70915;fill-rule:evenodd;stroke:none;stroke-width:1.59471;stroke-linecap:round;stroke-linejoin:round;stroke-miterlimit:2.1"
         id="rect10"
         width="141.60959"
         height="7.6032"
         x="42.055199"
         y="201.0096" /><rect
         style="fill:#a3a3a3;fill-opacity:0.70915;fill-rule:evenodd;stroke:none;stroke-width:1.59471;stroke-linecap:round;stroke-linejoin:round;stroke-miterlimit:2.1"
         id="rect11"
         width="141.60959"
         height="7.6032"
         x="42.055199"
         y="219.30479" /></g><path
       style="display:inline;fill:#000000;stroke-width:1.91293"
       d="m 191.60928,228.81411 c -2.19854,-0.84472 -2.65804,-1.22648 -2.53063,-2.10253 0.14997,-1.03177 1.37619,-1.83356 5.47001,-3.57697 6.94316,-2.95683 6.66497,-2.75746 5.76486,-4.1312 -0.50291,-0.76752 -0.60177,-1.2515 -0.25568,-1.2515 0.31039,0 0.56434,0.22343 0.56434,0.49651 0,1.15176 2.47603,1.06663 4.91441,-0.16892 2.49077,-1.26217 2.51507,-1.26408 3.96546,-0.31265 l 1.4593,0.95731 -2.90643,1.28539 c -1.59856,0.70693 -3.12772,1.28536 -3.39815,1.28536 -0.7681,0 -0.58311,0.75952 0.52946,2.17394 1.56348,1.98764 0.15609,2.41241 -1.47731,0.44585 -1.2603,-1.5174 -1.37878,-1.55399 -2.83367,-0.87537 -0.8351,0.38953 -3.07431,1.4103 -4.97601,2.26836 -3.71447,1.67602 -4.08039,2.5072 -1.43747,3.26519 1.7162,0.49219 2.18748,1.34353 0.71955,1.29983 -0.48714,-0.0152 -2.09457,-0.49084 -3.57204,-1.0585 z m -5.02901,-7.50655 c -1.92933,-0.458 -3.16642,-1.37646 -3.16642,-2.35083 0,-0.38268 0.79715,-1.57812 1.77146,-2.65655 0.97429,-1.07842 1.77144,-2.10328 1.77144,-2.27745 0,-0.17407 -1.42348,-0.27562 -3.16331,-0.22547 -3.47099,0.10004 -5.44085,-0.64411 -5.44085,-2.05544 0,-0.50225 0.58011,-1.17751 1.28913,-1.50058 1.72042,-0.78387 1.74762,-0.77384 1.74762,0.64386 0,1.48121 1.07616,1.90982 4.72621,1.88237 2.38669,-0.0172 2.7768,-0.19554 4.51063,-2.05315 2.22378,-2.38254 2.42534,-3.87861 0.63266,-4.69543 -0.69593,-0.31707 -1.26531,-0.77037 -1.26531,-1.00734 0,-0.5866 4.04526,-0.0397 4.88959,0.66088 1.16805,0.96939 0.78479,3.31825 -0.84414,5.1735 l -1.52193,1.73338 1.64845,-0.0319 c 3.53495,-0.0684 4.87113,0.18002 6.02103,1.11959 1.27425,1.0412 1.02298,1.69379 -0.87165,2.26388 -0.80184,0.24128 -1.19303,0.0134 -1.63405,-0.95537 -0.52124,-1.14396 -0.87311,-1.27259 -3.48176,-1.27259 -2.72828,0 -3.03179,0.1274 -5.07213,2.1299 -2.50646,2.45992 -2.83912,4.17216 -0.90486,4.65761 0.69592,0.17464 1.26531,0.54098 1.26531,0.81406 0,0.56117 -0.55384,0.56176 -2.90712,0.004 z m -9.60693,-14.24134 c -6.04227,-2.32261 -6.28639,-6.66058 -0.53654,-9.53381 4.27602,-2.13677 6.74235,-2.39693 9.88922,-1.04318 3.58567,1.54251 5.01382,3.154 4.38351,4.94625 -1.17339,3.33652 -4.77671,3.15795 -9.35851,-0.46375 l -2.55451,-2.01922 -1.77677,1.35522 c -0.97724,0.74537 -1.89932,1.67451 -2.04908,2.06477 -0.46808,1.21982 1.21945,3.09595 3.60374,4.00653 1.2586,0.48068 2.16566,1.07251 2.01566,1.31521 -0.36208,0.5859 -0.53828,0.5553 -3.61672,-0.62802 z m 10.99032,-6.26311 c 0.84253,-1.0152 0.35129,-2.0815 -1.36048,-2.95296 -1.23145,-0.62697 -1.74942,-0.62393 -3.93949,0.0231 l -2.5216,0.74499 1.64386,1.46879 c 1.85821,1.66032 5.08375,2.03419 6.17771,0.71607 z m -22.19667,-7.44552 c -2.52822,-3.63469 -2.98575,-5.47092 -0.86731,-3.48073 1.32423,1.24404 1.69707,1.27806 3.6322,0.33137 2.21795,-1.08507 11.77082,-5.57569 14.51924,-6.82521 l 2.42096,-1.10066 -1.65095,-2.29888 c -2.08035,-2.89682 -2.17744,-2.9499 -4.00887,-2.19129 -1.02122,0.423 -1.68291,0.46102 -2.02747,0.11649 -0.34453,-0.34456 0.25579,-0.96111 1.83935,-1.88914 1.29293,-0.75772 2.40953,-1.30065 2.48132,-1.20651 0.49443,0.64835 10.31719,14.97151 10.59724,15.45252 0.22678,0.38946 -0.49282,0.97716 -2.02795,1.65622 -2.49768,1.10485 -4.15795,0.69504 -1.95679,-0.48299 0.70158,-0.37546 1.27557,-1.06789 1.27557,-1.53875 0,-0.65789 -1.7833,-3.82531 -2.78529,-4.94716 -0.1142,-0.12781 -4.87275,2.0277 -17.33329,7.85149 -1.62518,0.75957 -2.12192,1.81731 -1.13878,2.42492 0.63809,0.39436 0.66571,1.77143 0.0357,1.77143 -0.25884,0 -1.61094,-1.63942 -3.0047,-3.64312 z m -6.122,-9.24009 c -0.49388,-0.59509 -0.50941,-0.95066 -0.0648,-1.48625 0.46885,-0.56493 0.28741,-0.80754 -0.91828,-1.22785 -0.84344,-0.29401 -2.101,-1.42805 -2.86666,-2.58502 -1.11034,-1.67785 -1.31253,-2.4452 -1.08713,-4.12577 0.33706,-2.51292 1.07141,-3.36409 5.25269,-6.08831 3.09055,-2.01357 3.34614,-2.09007 5.16356,-1.54557 2.15836,0.64667 4.92778,3.9999 5.2131,6.3121 l 0.17024,1.3797 2.69567,-1.82053 c 2.75593,-1.86124 4.13705,-1.979 4.13705,-0.35273 0,0.6101 -2.63798,2.73729 -7.92164,6.38777 -4.35689,3.01022 -8.1923,5.57695 -8.52308,5.7039 -0.33079,0.12694 -0.89358,-0.12122 -1.25063,-0.55144 z m 8.32177,-8.2605 c 0.24177,-0.96334 -0.0561,-1.81721 -1.17198,-3.35978 -0.82285,-1.1375 -1.874,-2.14425 -2.33582,-2.2372 -0.46184,-0.093 -2.07986,0.68513 -3.59559,1.72905 -2.19767,1.51358 -2.75587,2.17719 -2.75587,3.27623 0,1.80977 1.48044,3.57736 3.60508,4.30426 1.56051,0.5339 1.89291,0.454 3.81962,-0.91811 1.16073,-0.82659 2.25625,-2.0841 2.43456,-2.79445 z m -20.66598,-9.35045 c -3.07452,-4.48456 -3.27332,-5.19552 -2.09186,-7.48022 0.8514,-1.64643 5.57048,-5.34431 7.82169,-6.12909 2.00948,-0.70051 3.99674,0.41812 6.28809,3.53959 2.26621,3.08717 2.54409,6.33093 0.68676,8.01653 -2.02261,1.8356 -3.8511,2.77714 -4.78342,2.46309 -0.50078,-0.16868 -2.04623,-2.01065 -3.43435,-4.09326 -1.38811,-2.08261 -2.75467,-3.71102 -3.03678,-3.61873 -0.28209,0.0923 -0.58454,0.77214 -0.6721,1.51071 -0.11228,0.94742 0.52117,2.2963 2.15105,4.58039 1.27064,1.78063 2.31023,3.48527 2.31023,3.78809 0,0.47031 -1.5296,1.59845 -2.1673,1.59845 -0.11516,0 -1.49755,-1.879 -3.07201,-4.17555 z m 11.31284,-5.17007 c 0,-1.38061 -2.77388,-5.33208 -3.74307,-5.33208 -0.38496,0 -1.18163,0.39858 -1.77037,0.88572 l -1.07043,0.88573 2.07773,3.14147 c 2.04739,3.09558 2.09547,3.12985 3.29193,2.34589 0.68203,-0.44687 1.21421,-1.29136 1.21421,-1.92673 z m -10.29125,-10.22465 c -0.64984,-0.64983 -0.32838,-2.04451 0.68199,-2.95888 0.68934,-0.62383 0.91479,-1.26378 0.69629,-1.9764 -0.43777,-1.42801 -0.25177,-1.31762 -3.94639,-2.34212 l -3.28834,-0.91182 -3.65017,2.56341 c -2.81188,1.97472 -3.83447,2.44735 -4.4528,2.05803 -0.44144,-0.27795 -0.86091,-0.82259 -0.93215,-1.21032 -0.16967,-0.92405 11.84656,-9.23224 12.81521,-8.86053 0.85002,0.32617 0.96247,1.8969 0.19109,2.66834 -0.3768,0.3768 -0.0172,0.78209 1.21528,1.36655 0.96303,0.45698 1.98468,0.83088 2.27038,0.83088 1.07408,0 2.61741,2.68547 2.61741,4.55439 0,2.62169 -2.90699,5.52922 -4.21773,4.21847 z m -18.22059,-9.11028 c -0.5584,-0.5584 -0.38893,-1.09355 0.65397,-2.06515 0.97368,-0.90712 0.94265,-0.94467 -1.73563,-2.10084 -3.86074,-1.6666 -4.77361,-3.66494 -3.18922,-6.98134 0.65213,-1.36502 10.52343,-8.19462 11.39884,-7.88645 1.68421,0.59289 0.42693,2.23082 -4.17555,5.43969 -3.17747,2.21536 -4.80821,3.67477 -4.80821,4.3031 0,1.03609 1.34577,2.25614 4.15268,3.7648 l 1.8031,0.96911 4.19243,-2.93771 c 3.24113,-2.27111 4.37422,-2.82304 4.99361,-2.43233 0.44066,0.27795 0.8012,0.81932 0.8012,1.203 0,0.84652 -11.69084,9.06154 -12.8955,9.06154 -0.46987,0 -1.00614,-0.15183 -1.19172,-0.33742 z m -8.79758,-14.94082 c -1.99793,-0.52984 -4.69916,-4.20521 -4.69916,-6.39382 0,-1.94683 1.00508,-3.09516 5.31435,-6.07194 2.16358,-1.49455 3.46544,-2.72799 3.34395,-3.16815 -0.74505,-2.69937 0.85059,-4.09975 2.30515,-2.02307 l 0.74769,1.06746 1.29847,-1.02139 c 1.52945,-1.20305 2.96319,-1.32104 3.36389,-0.27683 0.30193,0.78681 -0.62521,1.95452 -2.23648,2.81683 -0.91639,0.49045 -0.86931,0.66646 0.885,3.30863 1.75556,2.64408 1.8068,2.836 0.97551,3.65425 -0.82805,0.81505 -0.93963,0.78992 -1.98432,-0.44674 -0.60882,-0.72068 -1.57307,-1.95462 -2.14275,-2.74207 l -1.03581,-1.43175 -3.89893,2.63097 c -2.14441,1.44705 -3.89895,2.88725 -3.89895,3.20043 0,1.24064 2.56628,3.89172 3.91831,4.04778 1.76686,0.20394 2.05145,1.55558 0.53331,2.53301 -0.84071,0.54128 -1.61153,0.62873 -2.78923,0.3164 z m -12.96074,-16.86444 -2.25108,-3.35556 0.75053,-3.38169 c 0.98728,-4.44836 2.62421,-6.216195 6.04569,-6.529086 3.90441,-0.357047 6.15841,0.682826 8.38086,3.866506 2.15187,3.08258 2.51049,5.10136 0.90617,5.10136 -0.87837,0 -3.07499,-2.42723 -4.53805,-5.01451 -0.23825,-0.42135 -1.51405,-0.80457 -3.12259,-0.937971 -3.24449,-0.269054 -4.41846,0.655151 -4.84185,3.811661 -0.22636,1.68767 0.0153,2.41139 1.60614,4.80716 2.02433,3.04887 2.15676,4.58135 0.41736,4.8301 -0.86839,0.12418 -1.57946,-0.55398 -3.35318,-3.19797 z m -7.3018,-10.735624 c -0.88443,-0.317123 -0.79193,-2.137661 0.12645,-2.490102 1.27692,-0.490002 0.86152,-1.018686 -1.512942,-1.925495 -3.816549,-1.457549 -5.368153,-4.616071 -3.545787,-7.217876 1.126321,-1.608044 10.320659,-7.826163 11.294699,-7.638586 2.06851,0.398362 1.01782,1.833014 -3.66019,4.997843 -2.64213,1.787496 -4.92808,3.551181 -5.079865,3.919306 -0.464114,1.125528 0.603318,2.461693 3.066325,3.838287 1.29192,0.722065 2.55533,1.312858 2.80758,1.312858 0.25224,0 2.27921,-1.275712 4.50435,-2.834919 3.32421,-2.329333 4.17881,-2.724468 4.79196,-2.2156 0.41044,0.340622 0.74623,0.900274 0.74623,1.243675 0,0.343401 -2.44838,2.327385 -5.44086,4.408851 -6.28757,4.373415 -7.23437,4.91144 -8.09803,4.601758 z M 98.991833,79.477985 c -0.86893,-0.868941 -0.753436,-1.634203 0.4049,-2.682477 2.185437,-1.977797 1.140807,-3.265692 -3.641556,-4.489588 l -2.682541,-0.686509 -3.647813,2.461519 c -2.006287,1.353834 -3.870506,2.46151 -4.142681,2.46151 -1.027561,0 -1.193473,-2.126198 -0.236489,-3.030658 1.208772,-1.142419 10.828073,-7.598012 11.321586,-7.598012 0.206193,0 0.65845,0.341637 1.004993,0.759193 0.493381,0.594504 0.497381,0.919076 0.01915,1.496213 -0.843365,1.016182 -0.414342,1.504886 2.196449,2.501965 3.911489,1.493799 4.982319,6.034234 1.980109,8.395777 -1.50873,1.186777 -1.759607,1.226812 -2.575363,0.411067 z M 80.572476,69.48856 C 79.887,68.949373 78.796461,67.509712 78.149048,66.289327 c -1.789094,-3.372451 -1.300345,-4.350061 4.016933,-8.034837 4.201023,-2.911249 4.471646,-3.202587 3.828072,-4.121398 -1.387586,-1.981067 0.481562,-3.248281 2.327357,-1.577859 0.829214,0.750418 1.018773,0.727299 2.461804,-0.300231 1.257285,-0.895267 1.70858,-0.992777 2.304761,-0.497987 1.139855,0.945986 0.889205,1.865148 -0.777029,2.849408 -0.835106,0.493311 -1.518383,1.07755 -1.518383,1.298316 0,0.220756 0.683277,1.344611 1.518383,2.49745 1.693779,2.338189 1.844882,3.067658 0.812823,3.924187 -0.832758,0.691134 -1.622102,0.04597 -3.335159,-2.725766 -0.606709,-0.981677 -1.330708,-1.784872 -1.608904,-1.784872 -0.278176,0 -2.074429,1.081846 -3.991657,2.4041 -2.348529,1.619716 -3.485633,2.734376 -3.485113,3.416361 0.001,1.406665 1.592015,3.170249 3.230997,3.581618 1.749755,0.439154 2.242501,1.673872 1.023682,2.565097 -1.315477,0.961898 -2.925462,0.853832 -4.385139,-0.294354 z M 71.692979,56.470523 c -1.190737,-0.481374 -6.206763,-8.148366 -6.206763,-9.487053 0,-1.590707 1.624033,-3.339295 3.10144,-3.339295 0.97228,0 1.045604,0.196 0.754457,2.016743 -0.283438,1.772552 -0.0966,2.339415 1.543326,4.681675 1.026187,1.465714 2.02169,2.849769 2.212217,3.075675 0.190528,0.225907 1.313584,-2.621058 2.495678,-6.326591 4.046384,-12.684451 3.976425,-12.557789 6.936042,-12.557789 1.523087,0 1.905228,0.357522 4.458408,4.171042 3.016368,4.505387 3.510637,6.663133 1.866949,8.150629 -1.919329,1.736966 -3.590994,0.66969 -2.703488,-1.726044 0.376573,-1.016507 0.114396,-1.736353 -1.497652,-4.111119 -1.074766,-1.583364 -2.153902,-3.002306 -2.398071,-3.153209 -0.244168,-0.150892 -1.550347,3.391126 -2.902611,7.871172 -2.891456,9.579305 -3.660089,11.083552 -5.634703,11.027166 -0.769606,-0.02194 -1.680961,-0.153832 -2.025229,-0.293002 z M 62.398723,40.832012 c -4.30352,-1.325548 -6.255523,-4.80158 -4.280106,-7.62187 1.530682,-2.185363 10.064973,-5.031017 11.560647,-3.854759 0.33834,0.266081 1.204472,0.624117 1.924763,0.795636 3.99131,0.950437 5.511509,5.096064 2.449401,6.679544 -2.117776,1.095145 -4.195361,0.563081 -7.241479,-1.854525 -1.358616,-1.078293 -2.862727,-1.960533 -3.342448,-1.960533 -1.198849,0 -3.55069,2.272231 -3.55069,3.430499 0,1.219246 1.871068,2.971886 3.944254,3.694602 0.892741,0.311207 1.623151,0.771308 1.623151,1.022447 0,0.573557 -0.231061,0.548782 -3.087493,-0.331041 z m 10.660292,-6.768544 c 0.426486,-0.796921 0.277565,-1.169306 -0.809644,-2.024509 -1.51203,-1.189355 -3.155097,-1.32007 -5.578406,-0.443789 l -1.670822,0.604176 1.634879,1.399763 c 2.059547,1.763359 5.59212,2.01871 6.423993,0.464359 z M 50.284591,26.161337 c -0.805244,-0.970266 -0.327684,-1.440593 2.295372,-2.260612 3.692054,-1.154204 9.904726,-4.191439 9.726443,-4.75504 -0.0966,-0.305144 -0.673234,-0.779633 -1.281545,-1.05442 -1.130747,-0.510768 -1.498372,-1.271833 -0.614353,-1.271833 0.996383,0 6.087951,2.491474 6.087951,2.979042 0,0.628375 -0.606875,1.02444 -3.79451,2.476362 l -2.532079,1.153325 2.024523,-0.283353 c 2.277276,-0.318734 6.645357,0.370598 7.450524,1.175779 0.368697,0.368681 0.0095,0.846765 -1.182911,1.57359 -2.115979,1.290009 -2.471668,1.302917 -2.471668,0.0897 0,-0.526956 -0.360262,-1.096349 -0.800577,-1.265317 -1.828065,-0.701492 -6.371885,-0.254184 -9.732641,0.958104 -4.121485,1.48671 -4.326952,1.505953 -5.174529,0.484675 z"
       id="path1-5" /></g></svg>
