<?xml version="1.0" encoding="UTF-8" standalone="no"?>
<!-- Created with Inkscape (http://www.inkscape.org/) -->

<svg
   width="256mm"
   height="256mm"
   viewBox="0 0 256 256"
   version="1.1"
   id="svg1"
   inkscape:version="1.3.2 (091e20ef0f, 2023-11-25)"
   xml:space="preserve"
   sodipodi:docname="rdf.svg"
   xmlns:inkscape="http://www.inkscape.org/namespaces/inkscape"
   xmlns:sodipodi="http://sodipodi.sourceforge.net/DTD/sodipodi-0.dtd"
   xmlns="http://www.w3.org/2000/svg"
   xmlns:svg="http://www.w3.org/2000/svg"
   xmlns:rdf="http://www.w3.org/1999/02/22-rdf-syntax-ns#"
   xmlns:cc="http://creativecommons.org/ns#"
   xmlns:dc="http://purl.org/dc/elements/1.1/"><defs
     id="defs1" /><sodipodi:namedview
     id="base"
     pagecolor="#ffffff"
     bordercolor="#000000"
     borderopacity="0.3"
     inkscape:pageopacity="0.0"
     inkscape:pageshadow="2"
     inkscape:zoom="0.98994949"
     inkscape:cx="505.07627"
     inkscape:cy="476.792"
     inkscape:document-units="mm"
     inkscape:showpageshadow="2"
     inkscape:pagecheckerboard="0"
     inkscape:deskcolor="#d1d1d1"
     inkscape:current-layer="svg1" /><metadata
     id="metadata1"><rdf:RDF><cc:Work
         rdf:about=""><dc:format>image/svg+xml</dc:format><dc:type
           rdf:resource="http://purl.org/dc/dcmitype/StillImage" /><cc:license
           rdf:resource="http://creativecommons.org/publicdomain/zero/1.0/" /></cc:Work><cc:License
         rdf:about="http://creativecommons.org/publicdomain/zero/1.0/"><cc:permits
           rdf:resource="http://creativecommons.org/ns#Reproduction" /><cc:permits
           rdf:resource="http://creativecommons.org/ns#Distribution" /><cc:permits
           rdf:resource="http://creativecommons.org/ns#DerivativeWorks" /></cc:License></rdf:RDF></metadata><g
     id="g2"
     style="display:inline"
     transform="matrix(0.99219098,0,0,0.99219098,-0.00294705,1.0686325)"
     inkscape:label="body"><g
       id="g4"><path
         id="rect2"
         style="opacity:1;fill:#ffffff;stroke-width:0.447;stroke-linecap:round;stroke-linejoin:round;stroke-opacity:0.923077"
         d="M 28.726189,2.6458333 H 178.97172 L 228.67559,53.672619 V 253.24405 H 28.726189 Z"
         sodipodi:nodetypes="cccccc"
         inkscape:label="bg" /><path
         id="rect3"
         style="opacity:1;fill:#c0c0c0;stroke-width:0.447;stroke-linecap:round;stroke-linejoin:round;stroke-opacity:0.923077"
         d="M 30.521576,240.67635 H 216.43698 l -0.0402,-190.983269 8.71287,-0.0041 0.0231,199.775229 -194.611164,0.28349 z"
         sodipodi:nodetypes="ccccccc" /><path
         id="rect1"
         style="opacity:1;fill:#808080;stroke-width:0.447;stroke-linecap:round;stroke-linejoin:round;stroke-opacity:0.923077"
         d="M 23.786989,0 H 184.08188 V 8.0849037 H 31.604623 l 0.0167,242.3967563 -7.734112,-0.0167 z"
         sodipodi:nodetypes="ccccccc" /><path
         id="rect4"
         style="opacity:1;stroke-width:0.447;stroke-linecap:round;stroke-linejoin:round;stroke-opacity:0.923077"
         d="m 224.04538,48.097473 h 8.26823 V 256.55134 H 23.918757 l -0.02913,-8.0682 200.155753,-0.0167 z"
         sodipodi:nodetypes="ccccccc" /></g></g><g
     id="g23"
     style="display:inline"><path
       style="fill:#fefe00"
       d="M 79.21272,64.684096 V 48.766074 H 91.151237 103.08975 V 64.684096 80.602119 H 91.151237 79.21272 Z"
       id="path20" /><path
       id="path58"
       style="display:inline;fill:#bfbfbf"
       d="m 182.67981,24.88892 v 3.979602 3.979602 h 3.9796 3.9796 V 28.868522 24.88892 h -3.9796 z m 7.9592,7.959204 v 3.979602 3.979086 h 3.9796 3.97909 v -3.979086 -3.979602 h -3.97909 z m 7.95869,7.958688 v 3.979602 3.979602 h 3.9796 3.9796 v -3.979602 -3.979602 h -3.9796 z m 15.91841,15.918408 v 91.52826 91.52878 H 122.98733 31.458545 v 3.97961 3.9796 h 95.508385 95.50786 V 152.23309 56.72522 h -3.9796 z m -23.8771,95.50787 v 27.85669 27.8567 h 3.9796 3.97909 v -27.8567 -27.85669 h -3.97909 z m -15.91841,7.9592 v 3.9796 3.9796 h 3.9796 3.97961 v -3.9796 -3.9796 h -3.97961 z m 0,7.9592 h -3.97908 -3.97961 v 3.97909 3.9796 h 3.97961 3.97908 v -3.9796 z m -7.95869,7.95869 h -3.9796 -3.9796 v 3.9796 3.9796 h 3.9796 3.9796 v -3.9796 z m -23.87709,15.91789 v 3.9796 3.97961 h 19.89749 19.8975 v -3.97961 -3.9796 h -19.8975 z m 0,7.95921 h -3.9796 -3.97961 v 3.9796 3.9796 h 3.97961 3.9796 v -3.9796 z m -15.91789,15.91789 v 3.9796 3.9796 h 11.93829 11.9388 v -3.9796 -3.9796 h -11.9388 z m 55.71288,0 v 3.9796 3.9796 h 11.9388 11.93829 v -3.9796 -3.9796 h -11.93829 z" /><path
       style="display:inline;fill:#fe0000"
       d="m 119.00778,211.9258 v -3.9795 h 3.9795 3.97951 v -3.97951 -3.97951 h 3.9795 3.97951 v -3.9795 -3.97951 h 3.9795 3.97951 v -3.9795 -3.97951 h 3.9795 3.97951 v -3.9795 -3.97951 h 3.97951 3.9795 v -3.9795 -3.97951 h 3.97951 3.9795 v -3.97951 -3.9795 h 3.97951 3.9795 v -3.97951 -3.9795 h 3.97951 3.9795 v -3.97951 -3.9795 h 3.97951 3.97951 v 31.83604 31.83605 h 3.9795 3.97951 v 3.9795 3.97951 h -11.93852 -11.93852 v -3.97951 -3.9795 h 3.97951 3.9795 v -7.95902 -7.95901 h -19.89752 -19.89753 v 3.97951 3.9795 h -3.97951 -3.9795 v 3.97951 3.97951 h 3.9795 3.97951 v 3.9795 3.97951 h -11.93852 -11.93851 z m 63.67208,-39.79505 v -11.93852 h -3.9795 -3.97951 v 3.9795 3.97951 h -3.9795 -3.97951 v 3.97951 3.9795 h -3.9795 -3.97951 v 3.97951 3.9795 h 11.93852 11.93851 z M 55.335687,92.540635 V 88.56113 h 7.959011 7.959011 v 3.979505 3.979506 h -7.959011 -7.959011 z"
       id="path18" /><path
       style="display:inline;fill:#7f7f7f"
       d="m 47.376676,60.704591 v -35.81555 h 27.856539 27.856535 v 3.979506 3.979505 H 79.21272 55.335687 v 31.836044 31.836045 h -3.979505 -3.979506 z"
       id="path52" /><path
       style="display:inline;fill:#0000fe"
       d="m 47.376676,211.9258 v -3.9795 h 23.877033 23.877034 v 3.9795 3.97951 H 71.253709 47.376676 Z m 0,-15.91802 v -3.97951 h 31.836044 31.83604 v 3.97951 3.9795 H 79.21272 47.376676 Z m 0,-15.91802 v -3.97951 h 39.795055 39.795059 v 3.97951 3.9795 H 87.171731 47.376676 Z m 0,-15.91803 v -3.9795 h 47.754067 47.754067 v 3.9795 3.97951 H 95.130743 47.376676 Z m 0,-15.91802 v -3.9795 h 55.713074 55.71308 v 3.9795 3.97951 H 103.08975 47.376676 Z m 0,-15.91802 v -3.9795 h 71.631104 71.6311 v 3.9795 3.97951 h -71.6311 -71.631104 z m 0,-15.91802 v -3.97951 h 71.631104 71.6311 v 3.97951 3.9795 h -71.6311 -71.631104 z m 79.590114,-15.91802 v -3.979509 h 31.83604 31.83605 v 3.979509 3.9795 h -31.83605 -31.83604 z m 0,-15.918026 v -3.979505 h 31.83604 31.83605 v 3.979505 3.979506 h -31.83605 -31.83604 z m 0,-15.918022 v -3.979506 h 31.83604 31.83605 v 3.979506 3.979506 H 158.80283 126.96679 Z M 79.21272,36.827558 v -3.979506 h 11.938517 11.938513 v 3.979506 3.979505 H 91.151237 79.21272 Z"
       id="path17" /><path
       id="path50"
       style="display:inline;fill:#000000"
       d="m 103.08983,24.88892 v 7.959204 7.958688 H 91.151025 79.212736 V 36.827726 32.848124 H 75.233134 71.253532 V 48.766016 64.683907 H 63.294845 55.33564 v 3.979602 3.979602 h 7.959205 7.958687 v 3.979602 3.979602 H 63.294845 55.33564 v 3.979086 3.979602 h 7.959205 7.958687 v 3.979602 3.979602 H 59.315243 47.376436 v 3.979603 3.97908 h 31.8363 31.835784 V 64.683907 24.88892 h -3.97909 z M 79.212736,48.766016 H 91.151025 103.08983 V 64.683907 80.602315 H 91.151025 79.212736 V 64.683907 Z m 0,39.794987 h 11.938289 11.938805 v 3.979602 3.979602 H 91.151025 79.212736 v -3.979602 z" /></g><g
     id="g5"
     inkscape:label="corner"
     style="display:inline"><rect
       style="opacity:1;fill:#fefefe;fill-opacity:1;stroke:none;stroke-width:0.447;stroke-linecap:round;stroke-linejoin:round;stroke-opacity:0.923077"
       id="rect16"
       width="16.036171"
       height="15.902536"
       x="182.67873"
       y="32.807335"
       inkscape:label="white" /><path
       id="rect6"
       style="opacity:1;fill:#808080;fill-opacity:1;stroke:none;stroke-width:0.447;stroke-linecap:round;stroke-linejoin:round;stroke-opacity:0.923077"
       inkscape:label="gray"
       d="M 174.86116,1.0691854 V 56.861646 h 7.95145 V 24.956099 h 7.61711 v 7.951453 h 8.08478 v 8.018115 h 8.01811 v 7.617106 h 8.35195 v -8.084777 h -8.01812 v -7.617107 h -8.08477 v -8.018115 h -8.15145 v -7.951452 h -7.81761 V 1.0691854 Z" /><path
       id="rect14"
       style="opacity:1;fill:#c0c0c0;fill-opacity:1;stroke:none;stroke-width:0.447;stroke-linecap:round;stroke-linejoin:round;stroke-opacity:0.923077"
       d="m 182.62865,24.914758 v 7.917863 h 7.82381 v 7.792806 h 8.04292 v 7.806759 h 7.91786 v -7.917863 h -7.90959 v -7.806759 h -7.95714 v -7.792806 z"
       inkscape:label="lgray" /><path
       id="rect5"
       style="opacity:1;fill:#000000;fill-opacity:1;stroke:none;stroke-width:0.447;stroke-linecap:round;stroke-linejoin:round;stroke-opacity:0.923077"
       d="m 182.41316,9.1736003 v 7.9607547 h 8.11836 v 7.81761 h 8.10132 v 7.817611 h 7.6972 v 7.872388 h 8.05377 v 7.733895 h -32.03898 v 8.351945 h 48.04162 v -8.351945 h -7.56698 v -7.817611 h -8.00674 v -7.877555 h -7.69721 v -7.871871 h -8.10183 v -7.817611 h -8.11837 V 9.1736003 Z"
       inkscape:label="black"
       sodipodi:nodetypes="ccccccccccccccccccccccccc" /></g></svg>
