<?xml version="1.0" encoding="UTF-8" standalone="no"?>
<!-- Created with Inkscape (http://www.inkscape.org/) -->

<svg
   width="256mm"
   height="256mm"
   viewBox="0 0 256 256"
   version="1.1"
   id="svg1"
   inkscape:version="1.3.2 (091e20ef0f, 2023-11-25)"
   xml:space="preserve"
   sodipodi:docname="text-x-emacs-lisp.svg"
   xmlns:inkscape="http://www.inkscape.org/namespaces/inkscape"
   xmlns:sodipodi="http://sodipodi.sourceforge.net/DTD/sodipodi-0.dtd"
   xmlns:xlink="http://www.w3.org/1999/xlink"
   xmlns="http://www.w3.org/2000/svg"
   xmlns:svg="http://www.w3.org/2000/svg"
   xmlns:rdf="http://www.w3.org/1999/02/22-rdf-syntax-ns#"
   xmlns:cc="http://creativecommons.org/ns#"
   xmlns:dc="http://purl.org/dc/elements/1.1/"><defs
     id="defs1"><linearGradient
       id="linearGradient26"
       inkscape:collect="always"><stop
         style="stop-color:#7b91c4;stop-opacity:1;"
         offset="0"
         id="stop26" /><stop
         style="stop-color:#5c5e91;stop-opacity:1"
         offset="1"
         id="stop27" /></linearGradient><linearGradient
       id="linearGradient24"
       inkscape:collect="always"><stop
         style="stop-color:#c7fafe;stop-opacity:1;"
         offset="0"
         id="stop24" /><stop
         style="stop-color:#9acdff;stop-opacity:1"
         offset="1"
         id="stop25" /></linearGradient><linearGradient
       id="linearGradient22"
       inkscape:collect="always"><stop
         style="stop-color:#adaeae;stop-opacity:0.8253752;"
         offset="0"
         id="stop22" /><stop
         style="stop-color:#8ac5fe;stop-opacity:0.83628923;"
         offset="1"
         id="stop23" /></linearGradient><linearGradient
       id="linearGradient18"
       inkscape:collect="always"><stop
         style="stop-color:#9797ff;stop-opacity:1;"
         offset="0"
         id="stop18" /><stop
         style="stop-color:#ccccff;stop-opacity:1;"
         offset="0.30000001"
         id="stop20" /><stop
         style="stop-color:#ccccff;stop-opacity:1;"
         offset="1"
         id="stop19" /></linearGradient><linearGradient
       id="linearGradient16"
       inkscape:collect="always"><stop
         style="stop-color:#cdcdcd;stop-opacity:0.17462483;"
         offset="0"
         id="stop16" /><stop
         style="stop-color:#cdcdcd;stop-opacity:1;"
         offset="1"
         id="stop17" /></linearGradient><linearGradient
       id="linearGradient12"
       inkscape:collect="always"><stop
         style="stop-color:#fdfeff;stop-opacity:1;"
         offset="0"
         id="stop13" /><stop
         style="stop-color:#99ccff;stop-opacity:1;"
         offset="1"
         id="stop14" /></linearGradient><linearGradient
       id="linearGradient9"
       inkscape:collect="always"><stop
         style="stop-color:#97c9fc;stop-opacity:1;"
         offset="0"
         id="stop9" /><stop
         style="stop-color:#7788bb;stop-opacity:1"
         offset="0.25"
         id="stop12" /><stop
         style="stop-color:#57578a;stop-opacity:1"
         offset="0.5"
         id="stop11" /><stop
         style="stop-color:#444482;stop-opacity:1;"
         offset="1"
         id="stop10" /></linearGradient><linearGradient
       inkscape:collect="always"
       xlink:href="#linearGradient9"
       id="linearGradient10"
       x1="31.622168"
       y1="100.24049"
       x2="221.19499"
       y2="240.28973"
       gradientUnits="userSpaceOnUse" /><linearGradient
       inkscape:collect="always"
       xlink:href="#linearGradient12"
       id="linearGradient14"
       x1="73.583481"
       y1="62.020954"
       x2="207.02971"
       y2="229.59895"
       gradientUnits="userSpaceOnUse" /><linearGradient
       inkscape:collect="always"
       xlink:href="#linearGradient16"
       id="linearGradient17"
       x1="57.531055"
       y1="26.420616"
       x2="147.13231"
       y2="144.34076"
       gradientUnits="userSpaceOnUse" /><linearGradient
       inkscape:collect="always"
       xlink:href="#linearGradient18"
       id="linearGradient19"
       x1="209.82518"
       y1="58.53635"
       x2="210.58252"
       y2="194.57654"
       gradientUnits="userSpaceOnUse" /><linearGradient
       inkscape:collect="always"
       xlink:href="#linearGradient22"
       id="linearGradient23"
       x1="177.19191"
       y1="58.990749"
       x2="207.31994"
       y2="58.990749"
       gradientUnits="userSpaceOnUse" /><linearGradient
       inkscape:collect="always"
       xlink:href="#linearGradient24"
       id="linearGradient25"
       x1="176.32031"
       y1="20.126524"
       x2="176.32031"
       y2="56.695721"
       gradientUnits="userSpaceOnUse" /><linearGradient
       inkscape:collect="always"
       xlink:href="#linearGradient26"
       id="linearGradient27"
       x1="172.59729"
       y1="13.51158"
       x2="210.54449"
       y2="51.28627"
       gradientUnits="userSpaceOnUse" /><linearGradient
       inkscape:collect="always"
       xlink:href="#linearGradient13"
       id="linearGradient14-7"
       x1="164.0004"
       y1="192.04021"
       x2="163.88759"
       y2="165.6666"
       gradientUnits="userSpaceOnUse"
       gradientTransform="matrix(0.96079726,0,0,0.96079726,-17.475032,21.88483)" /><linearGradient
       id="linearGradient13"
       inkscape:collect="always"><stop
         style="stop-color:#401d5b;stop-opacity:1;"
         offset="0"
         id="stop13-9" /><stop
         style="stop-color:#6f2f94;stop-opacity:1;"
         offset="0.17123514"
         id="stop15" /><stop
         style="stop-color:#8342b1;stop-opacity:1;"
         offset="0.33955047"
         id="stop18-5" /><stop
         style="stop-color:#7d4bac;stop-opacity:1;"
         offset="0.50782728"
         id="stop17-6" /><stop
         style="stop-color:#715ca3;stop-opacity:1;"
         offset="0.75"
         id="stop16-8" /><stop
         style="stop-color:#8272bc;stop-opacity:1;"
         offset="1"
         id="stop14-9" /></linearGradient><linearGradient
       inkscape:collect="always"
       xlink:href="#linearGradient1"
       id="linearGradient2"
       x1="170.09348"
       y1="204.18504"
       x2="170.09348"
       y2="182.97824"
       gradientUnits="userSpaceOnUse" /><linearGradient
       id="linearGradient1"
       inkscape:collect="always"><stop
         style="stop-color:#1e0d34;stop-opacity:1;"
         offset="0"
         id="stop1" /><stop
         style="stop-color:#6f2f94;stop-opacity:1;"
         offset="0.16159339"
         id="stop3" /><stop
         style="stop-color:#8342b1;stop-opacity:1;"
         offset="0.28109056"
         id="stop4" /><stop
         style="stop-color:#7d4bac;stop-opacity:1;"
         offset="0.47382462"
         id="stop5" /><stop
         style="stop-color:#715ca3;stop-opacity:1;"
         offset="0.66806799"
         id="stop6" /><stop
         style="stop-color:#8272bc;stop-opacity:1;"
         offset="1"
         id="stop2" /></linearGradient></defs><sodipodi:namedview
     id="base"
     pagecolor="#ffffff"
     bordercolor="#000000"
     borderopacity="0.3"
     inkscape:pageopacity="0.0"
     inkscape:pageshadow="2"
     inkscape:zoom="0.98994949"
     inkscape:cx="505.07627"
     inkscape:cy="476.792"
     inkscape:document-units="mm"
     inkscape:showpageshadow="2"
     inkscape:pagecheckerboard="0"
     inkscape:deskcolor="#d1d1d1"
     inkscape:current-layer="g28"
     showguides="true" /><metadata
     id="metadata1"><rdf:RDF><cc:Work
         rdf:about=""><dc:format>image/svg+xml</dc:format><dc:type
           rdf:resource="http://purl.org/dc/dcmitype/StillImage" /><cc:license
           rdf:resource="http://creativecommons.org/publicdomain/zero/1.0/" /></cc:Work><cc:License
         rdf:about="http://creativecommons.org/publicdomain/zero/1.0/"><cc:permits
           rdf:resource="http://creativecommons.org/ns#Reproduction" /><cc:permits
           rdf:resource="http://creativecommons.org/ns#Distribution" /><cc:permits
           rdf:resource="http://creativecommons.org/ns#DerivativeWorks" /></cc:License></rdf:RDF></metadata><g
     id="g28"
     transform="matrix(1.0481261,0,0,1.0481261,-6.4074194,-6.1384097)"><g
       id="g7"
       inkscape:label="shadow"
       style="display:inline"><path
         id="rect1"
         style="fill:#000000;fill-opacity:0.0602258;stroke-width:3.72791;stroke-linecap:square"
         d="M 48.380952,13.418155 H 179.16071 l 43.46726,43.278274 V 244.17261 H 48.380952 Z"
         sodipodi:nodetypes="cccccc" /><path
         id="path1"
         style="fill:#000000;fill-opacity:0.0752823;stroke-width:3.72791;stroke-linecap:square"
         d="m 47.563027,12.60023 129.443423,-0.133635 43.46726,43.278274 1.33635,187.609821 H 47.563027 Z"
         sodipodi:nodetypes="cccccc" /><path
         id="path2"
         style="fill:#000000;fill-opacity:0.0602258;stroke-width:3.72791;stroke-linecap:square"
         d="m 46.493949,11.793049 128.975701,-0.868626 43.46726,43.278274 1.80407,188.344813 H 46.493949 Z"
         sodipodi:nodetypes="cccccc" /><path
         id="path3"
         style="fill:#000000;fill-opacity:0.0602258;stroke-width:3.72791;stroke-linecap:square"
         d="m 45.964782,12.33296 129.777508,0.467722 43.46726,42.209196 1.00226,187.008462 H 45.964782 Z"
         sodipodi:nodetypes="cccccc" /><path
         id="path4"
         style="fill:#000000;fill-opacity:0.0602258;stroke-width:3.72791;stroke-linecap:square"
         d="m 45.435615,12.338332 129.443415,0.935443 43.46726,41.674657 1.33635,186.540738 H 45.435615 Z"
         sodipodi:nodetypes="cccccc" /><path
         id="path5"
         style="fill:#000000;fill-opacity:0.0602258;stroke-width:3.72791;stroke-linecap:square"
         d="M 44.906448,12.744609 174.8844,13.412783 218.35166,54.151996 219.15347,240.96 H 44.906448 Z"
         sodipodi:nodetypes="cccccc" /><path
         id="path6"
         style="fill:#000000;fill-opacity:0.0602258;stroke-width:3.72791;stroke-linecap:square"
         d="m 44.377281,15.021772 129.911129,0.534539 43.46726,37.932883 0.86863,186.941636 H 44.377281 Z"
         sodipodi:nodetypes="cccccc" /><path
         id="path7"
         style="fill:#000000;fill-opacity:0.0602258;stroke-width:3.72791;stroke-linecap:square"
         d="m 43.848114,13.423527 129.710676,1.069078 43.46726,39.001961 1.06908,186.407094 H 43.848114 Z"
         sodipodi:nodetypes="cccccc" /></g><g
       id="g14"
       style="display:inline"><path
         style="color:#000000;fill:url(#linearGradient14);stroke-linecap:square;-inkscape-stroke:none"
         d="M 46.153822,14.648159 H 173.78301 l 40.90293,41.140298 V 236.0795 H 46.554726 Z"
         id="path15"
         inkscape:label="headbgground" /><path
         id="rect16"
         style="display:inline;fill:url(#linearGradient17);fill-opacity:1;stroke-width:4.99999;stroke-linecap:square"
         d="M 45.435818,14.165285 H 176.70315 l 0.20408,8.220982 H 53.433709 V 235.97952 h -7.997891 z"
         sodipodi:nodetypes="ccccccc" /><path
         id="rect17"
         style="fill:url(#linearGradient19);stroke-width:4.99999;stroke-linecap:square"
         d="M 47.058037,227.91965 H 207.27506 l -0.0668,-168.246312 7.31651,0.0667 0.0668,168.546562 -7.08265,0.0331 v 7.34846 H 47.058037 Z"
         sodipodi:nodetypes="ccccccccc" /><path
         style="color:#000000;fill:url(#linearGradient10);stroke-linecap:square;-inkscape-stroke:none"
         d="M 43.648437,12.148438 44.058594,238.58008 H 217.18555 V 54.757812 L 174.82227,12.148438 Z m 4.608862,4.999999 H 172.74414 l 39.44141,39.671875 V 233.58008 H 48.775405 Z"
         id="path16"
         inkscape:label="headframe"
         sodipodi:nodetypes="cccccccccccc" /></g><g
       id="g63"
       transform="translate(6.6299348,1.529985)"><g
         id="g2"
         transform="matrix(0.57319139,0,0,0.57319139,45.318946,27.179206)"
         style="clip-rule:nonzero;display:inline;fill:#000000;fill-rule:nonzero;stroke:#ffffff;stroke-width:0;stroke-miterlimit:4"><g
           id="g2240"
           style="fill:#000000;fill-opacity:1;stroke:none"
           transform="translate(-4.7334344,4.3389815)"><path
             style="fill:#000000;fill-opacity:1;fill-rule:evenodd;stroke:none;stroke-width:0.125;stroke-linecap:butt;stroke-linejoin:miter;stroke-miterlimit:4;stroke-dasharray:none;stroke-opacity:1"
             d="m 176.57988,37.972907 c -1.59278,1.03506 -7.7054,13.980618 -7.80158,15.560314 11.86356,19.580712 33.80125,-13.454437 37.77551,-28.552457 0,0 -10.38257,18.198239 -19.78064,18.546175 -11.01641,0.407851 -8.59763,-6.590966 -10.19329,-5.554032 z"
             id="path2242"
             sodipodi:nodetypes="cccsz" /><path
             style="fill:#000000;fill-opacity:1;fill-rule:evenodd;stroke:none;stroke-width:0.125;stroke-linecap:butt;stroke-linejoin:round;stroke-miterlimit:4;stroke-dasharray:none;stroke-opacity:1"
             d="m 22.47173,15.758997 -6.6617,16.726759 c 0,0 4.08049,9.732348 10.68066,10.352439 15.12668,1.421164 31.96176,-27.218658 36.7034,-27.079198 4.74165,0.13946 14.35944,7.663301 19.47161,18.163659 6.72965,-13.163585 14.92072,-19.011431 28.50269,-9.255641 7.90203,5.675951 24.42095,28.128211 34.3072,29.234334 10.70462,1.197688 19.90239,-8.988532 24.33579,-27.61311 -6.13625,7.949229 -8.63458,11.518467 -14.78278,11.923843 -6.34543,0.41838 -5.7876,1.673522 -27.96176,-21.337403 C 104.89268,-6.1362469 94.43317,4.8811053 87.87854,14.643316 86.41421,13.039524 78.99699,1.01863 70.05858,1.1156811 63.72511,1.1844483 53.17415,16.174161 46.86414,21.616488 40.30897,27.270272 36.37856,28.267647 33.99471,28.294944 30.30074,28.339067 25.84923,26.450798 22.47173,15.758997 Z"
             id="path2244"
             sodipodi:nodetypes="ccsscsscsscsssc" /><path
             style="fill:#000000;fill-opacity:1;fill-rule:evenodd;stroke:none;stroke-width:0.125;stroke-linecap:butt;stroke-linejoin:miter;stroke-miterlimit:4;stroke-dasharray:none;stroke-opacity:1"
             d="M 76.60517,33.616604 C 59.9071,53.934058 59.23819,54.418087 50.46092,68.860929 41.68365,83.303771 39.35397,92.905012 43.4733,96.486252 c 4.15059,3.608418 11.54583,3.807568 20.60541,-2.888666 12.60731,-9.661502 29.43545,-23.449417 34.05511,-35.18771 1.20073,-3.051 -20.66132,17.644277 -29.43456,22.776357 -5.26363,3.079071 -12.33922,3.888893 -16.14003,0.211492 -7.75632,-7.504489 26.9642,-44.622975 24.04594,-47.781121 z"
             id="path2246"
             sodipodi:nodetypes="csscsssc" /><path
             style="fill:#000000;fill-opacity:1;fill-rule:evenodd;stroke:none;stroke-width:0.125;stroke-linecap:butt;stroke-linejoin:miter;stroke-miterlimit:4;stroke-dasharray:none;stroke-opacity:1"
             d="m 101.40617,64.709511 c -0.0349,-1.638657 8.43734,-14.155205 9.90167,-14.643316 21.24567,14.288092 10.1806,51.042425 3.20759,54.250005 0,0 1.22027,-15.759001 -1.95245,-25.660673 -3.17272,-9.901673 -11.12188,-12.304396 -11.15681,-13.946016 z"
             id="path2248"
             sodipodi:nodetypes="cccsz" /><path
             style="fill:#000000;fill-opacity:1;fill-rule:evenodd;stroke:none;stroke-width:0.125;stroke-linecap:butt;stroke-linejoin:miter;stroke-miterlimit:4;stroke-dasharray:none;stroke-opacity:1"
             d="m 212.01995,32.790058 c -2.00565,-8.533948 7.10929,-31.6046438 18.73551,-31.6046438 29.02801,0 14.93144,46.2881448 9.2741,63.3846388 -13.80655,35.771527 -22.55479,89.254847 -23.15038,93.856677 -0.72704,5.61747 -9.40015,20.66814 -5.02057,-4.1838 4.37958,-24.85194 12.24829,-53.85299 21.70213,-87.693106 4.95832,-17.748393 10.9888,-49.402204 -5.77394,-49.449033 -8.55135,-0.109333 -8.06633,5.92502 -15.76685,15.689267 z"
             id="path2250"
             sodipodi:nodetypes="cscssscc" /></g><g
           id="g2233"
           style="stroke:none"><path
             sodipodi:nodetypes="cccsz"
             id="path9706"
             d="m 176.57988,37.972907 c -1.59278,1.03506 -7.7054,13.980618 -7.80158,15.560314 11.86356,19.580712 33.80125,-13.454437 37.77551,-28.552457 0,0 -10.38257,18.198239 -19.78064,18.546175 -11.01641,0.407851 -8.59763,-6.590966 -10.19329,-5.554032 z"
             style="fill:#c64e3b;fill-opacity:1;fill-rule:evenodd;stroke:none;stroke-width:0.125;stroke-linecap:butt;stroke-linejoin:miter;stroke-miterlimit:4;stroke-dasharray:none;stroke-opacity:1" /><path
             sodipodi:nodetypes="ccsscsscsscsssc"
             id="path7673"
             d="m 22.47173,15.758997 -6.6617,16.726759 c 0,0 4.08049,9.732348 10.68066,10.352439 15.12668,1.421164 31.96176,-27.218658 36.7034,-27.079198 4.74165,0.13946 14.35944,7.663301 19.47161,18.163659 6.72965,-13.163585 14.92072,-19.011431 28.50269,-9.255641 7.90203,5.675951 24.42095,28.128211 34.3072,29.234334 10.70462,1.197688 19.90239,-8.988532 24.33579,-27.61311 -6.13625,7.949229 -8.63458,11.518467 -14.78278,11.923843 -6.34543,0.41838 -5.7876,1.673522 -27.96176,-21.337403 C 104.89268,-6.1362469 94.43317,4.8811053 87.87854,14.643316 86.41421,13.039524 78.99699,1.01863 70.05858,1.1156811 63.72511,1.1844483 53.17415,16.174161 46.86414,21.616488 40.30897,27.270272 36.37856,28.267647 33.99471,28.294944 30.30074,28.339067 25.84923,26.450798 22.47173,15.758997 Z"
             style="fill:#c64e3b;fill-opacity:1;fill-rule:evenodd;stroke:none;stroke-width:0.125;stroke-linecap:butt;stroke-linejoin:round;stroke-miterlimit:4;stroke-dasharray:none;stroke-opacity:1" /><path
             sodipodi:nodetypes="csscsssc"
             id="path8693"
             d="M 76.60517,33.616604 C 59.9071,53.934058 59.23819,54.418087 50.46092,68.860929 41.68365,83.303771 39.35397,92.905012 43.4733,96.486252 c 4.15059,3.608418 11.54583,3.807568 20.60541,-2.888666 12.60731,-9.661502 29.43545,-23.449417 34.05511,-35.18771 1.20073,-3.051 -20.66132,17.644277 -29.43456,22.776357 -5.26363,3.079071 -12.33922,3.888893 -16.14003,0.211492 -7.75632,-7.504489 26.9642,-44.622975 24.04594,-47.781121 z"
             style="fill:#c64e3b;fill-opacity:1;fill-rule:evenodd;stroke:none;stroke-width:0.125;stroke-linecap:butt;stroke-linejoin:miter;stroke-miterlimit:4;stroke-dasharray:none;stroke-opacity:1" /><path
             sodipodi:nodetypes="cccsz"
             id="path9704"
             d="m 101.40617,64.709511 c -0.0349,-1.638657 8.43734,-14.155205 9.90167,-14.643316 21.24567,14.288092 10.1806,51.042425 3.20759,54.250005 0,0 1.22027,-15.759001 -1.95245,-25.660673 -3.17272,-9.901673 -11.12188,-12.304396 -11.15681,-13.946016 z"
             style="fill:#c64e3b;fill-opacity:1;fill-rule:evenodd;stroke:none;stroke-width:0.125;stroke-linecap:butt;stroke-linejoin:miter;stroke-miterlimit:4;stroke-dasharray:none;stroke-opacity:1" /><path
             sodipodi:nodetypes="cscssscc"
             id="path2171"
             d="m 212.01995,32.790058 c -2.00565,-8.533948 7.10929,-31.6046438 18.73551,-31.6046438 29.02801,0 14.93144,46.2881448 9.2741,63.3846388 -13.80655,35.771527 -22.55479,89.254847 -23.15038,93.856677 -0.72704,5.61747 -9.40015,20.66814 -5.02057,-4.1838 4.37958,-24.85194 12.24829,-53.85299 21.70213,-87.693106 4.95832,-17.748393 10.9888,-49.402204 -5.77394,-49.449033 -8.55135,-0.109333 -8.06633,5.92502 -15.76685,15.689267 z"
             style="fill:#c64e3b;fill-opacity:1;fill-rule:evenodd;stroke:none;stroke-width:0.125;stroke-linecap:butt;stroke-linejoin:miter;stroke-miterlimit:4;stroke-dasharray:none;stroke-opacity:1" /></g><g
           style="fill:#000000;fill-opacity:1;stroke:none"
           id="g2256"
           transform="translate(0.8166413,4.3944529)"><path
             style="fill:#000000;fill-opacity:1;fill-rule:evenodd;stroke:none;stroke-width:1px;stroke-linecap:butt;stroke-linejoin:miter;stroke-opacity:1"
             d="m 79.886738,152.50463 c -12.064566,3.11252 -29.384407,39.68306 -30.143215,45.63732 2.789203,0.6973 61.276667,-67.94683 30.551685,-4.33028 22.278032,-18.85255 44.660392,-52.77 27.507492,-9.86372 -4.05367,10.13986 15.79289,10.14631 35.16668,-10.98232 -5.07963,3.25623 -30.7407,18.65608 -16.61439,-13.35674 7.41984,-16.81471 -17.13576,-0.19442 -23.98669,6.2284 1.43266,-6.50386 6.57603,-18.05375 -1.75155,-14.85502 -8.327574,3.19873 -17.306377,9.70693 -32.678925,24.13282 8.82797,-14.21866 9.286356,-15.70753 11.948913,-22.61046 z"
             id="path2258"
             sodipodi:nodetypes="cccscscscc" /><path
             style="fill:#000000;fill-opacity:1;fill-rule:evenodd;stroke:none;stroke-width:1px;stroke-linecap:butt;stroke-linejoin:miter;stroke-opacity:1"
             d="m 248.85492,188.50638 c 14.36441,-1.9724 35.50945,-23.83429 6.35715,-25.19854 -32.0339,-1.49196 7.67031,-12.83033 7.67031,-12.83033 -17.29306,-1.11568 -48.73292,18.20862 -23.08066,15.27088 25.8289,-2.98193 26.12877,20.42757 -0.55784,20.39606 -3.73472,-0.004 -2.58001,-3.73057 -2.58001,-3.73057 l -10.88635,4.81138 c 10.30508,2.9584 14.93124,2.39968 23.0774,1.28112 z"
             id="path2260"
             sodipodi:nodetypes="cscssccs" /><path
             style="fill:#000000;fill-opacity:1;fill-rule:evenodd;stroke:none;stroke-width:1px;stroke-linecap:butt;stroke-linejoin:miter;stroke-opacity:1"
             d="m 35.422878,148.66454 c -15.271993,8.38137 -41.7001689,42.2882 -29.1581243,50.35208 11.7201703,7.53546 62.6768883,-28.72217 71.4023033,-45.26124 -73.3635187,57.77081 -63.601496,21.14716 -50.658609,8.2709 8.797017,-10.71827 36.995609,-18.34115 44.472618,-33.50576 -38.691947,20.77422 -41.075952,2.98467 -8.838869,-17.69949 5.927426,-3.79599 45.107173,-21.778141 15.126578,3.46158 17.733876,-8.25545 32.757975,-21.014755 21.172756,-23.515437 -15.05738,-3.250151 -38.738684,15.159767 -50.848905,25.042097 -7.122698,5.81235 -36.224104,29.57427 -12.669748,32.85527 z"
             id="path2262"
             sodipodi:nodetypes="cscccscssc" /><g
             style="fill:#000000;fill-opacity:1;stroke:none"
             id="g2264"><path
               sodipodi:nodetypes="ccc"
               id="path2266"
               d="m 153.52386,181.54504 c -39.12656,31.03168 -20.08439,-16.95166 26.48116,-31.59503 -35.57255,24.17305 -40.24026,34.66017 -26.48116,31.59503 z"
               style="fill:#000000;fill-opacity:1;fill-rule:evenodd;stroke:none;stroke-width:1px;stroke-linecap:butt;stroke-linejoin:miter;stroke-opacity:1" /><path
               sodipodi:nodetypes="ccc"
               id="path2268"
               d="m 196.30981,176.96638 c -40.17251,32.49601 -46.01116,-4.86443 -12.00489,-21.8617 -17.16381,26.82279 -0.70826,22.55602 12.00489,21.8617 z"
               style="fill:#000000;fill-opacity:1;fill-rule:evenodd;stroke:none;stroke-width:1px;stroke-linecap:butt;stroke-linejoin:miter;stroke-opacity:1" /></g><path
             style="fill:#000000;fill-opacity:1;fill-rule:evenodd;stroke:none;stroke-width:1px;stroke-linecap:butt;stroke-linejoin:miter;stroke-opacity:1"
             d="m 229.3687,178.97034 c -43.79847,32.07763 -50.89227,-17.69477 7.93791,-28.69525 -48.96072,28.91469 -17.86186,33.29445 -7.93791,28.69525 z"
             id="path2270"
             sodipodi:nodetypes="ccc" /></g><g
           id="g2201"
           style="fill:#2076c1;fill-opacity:1;stroke:none"><path
             sodipodi:nodetypes="cccscscscc"
             id="path2173"
             d="m 79.886738,152.50463 c -12.064566,3.11252 -29.384407,39.68306 -30.143215,45.63732 2.789203,0.6973 61.276667,-67.94683 30.551685,-4.33028 22.278032,-18.85255 44.660392,-52.77 27.507492,-9.86372 -4.05367,10.13986 15.79289,10.14631 35.16668,-10.98232 -5.07963,3.25623 -30.7407,18.65608 -16.61439,-13.35674 7.41984,-16.81471 -17.13576,-0.19442 -23.98669,6.2284 1.43266,-6.50386 6.57603,-18.05375 -1.75155,-14.85502 -8.327574,3.19873 -17.306377,9.70693 -32.678925,24.13282 8.82797,-14.21866 9.286356,-15.70753 11.948913,-22.61046 z"
             style="fill:#2076c1;fill-opacity:1;fill-rule:evenodd;stroke:none;stroke-width:1px;stroke-linecap:butt;stroke-linejoin:miter;stroke-opacity:1" /><path
             sodipodi:nodetypes="cscssccs"
             id="path2183"
             d="m 248.85492,188.50638 c 14.36441,-1.9724 35.50945,-23.83429 6.35715,-25.19854 -32.0339,-1.49196 7.67031,-12.83033 7.67031,-12.83033 -17.29306,-1.11568 -48.73292,18.20862 -23.08066,15.27088 25.8289,-2.98193 26.12877,20.42757 -0.55784,20.39606 -3.73472,-0.004 -2.58001,-3.73057 -2.58001,-3.73057 l -10.88635,4.81138 c 10.30508,2.9584 14.93124,2.39968 23.0774,1.28112 z"
             style="fill:#2076c1;fill-opacity:1;fill-rule:evenodd;stroke:none;stroke-width:1px;stroke-linecap:butt;stroke-linejoin:miter;stroke-opacity:1" /><path
             sodipodi:nodetypes="cscccscssc"
             id="path6069"
             d="m 35.422878,148.66454 c -15.271993,8.38137 -41.7001689,42.2882 -29.1581243,50.35208 11.7201703,7.53546 62.6768883,-28.72217 71.4023033,-45.26124 -73.3635187,57.77081 -63.601496,21.14716 -50.658609,8.2709 8.797017,-10.71827 36.995609,-18.34115 44.472618,-33.50576 -38.691947,20.77422 -41.075952,2.98467 -8.838869,-17.69949 5.927426,-3.79599 45.107173,-21.778141 15.126578,3.46158 17.733876,-8.25545 32.757975,-21.014755 21.172756,-23.515437 -15.05738,-3.250151 -38.738684,15.159767 -50.848905,25.042097 -7.122698,5.81235 -36.224104,29.57427 -12.669748,32.85527 z"
             style="fill:#2076c1;fill-opacity:1;fill-rule:evenodd;stroke:none;stroke-width:1px;stroke-linecap:butt;stroke-linejoin:miter;stroke-opacity:1" /><g
             id="g2188"
             style="fill:#2076c1;fill-opacity:1;stroke:none"><path
               style="fill:#2076c1;fill-opacity:1;fill-rule:evenodd;stroke:none;stroke-width:1px;stroke-linecap:butt;stroke-linejoin:miter;stroke-opacity:1"
               d="m 153.52386,181.54504 c -39.12656,31.03168 -20.08439,-16.95166 26.48116,-31.59503 -35.57255,24.17305 -40.24026,34.66017 -26.48116,31.59503 z"
               id="path2175"
               sodipodi:nodetypes="ccc" /><path
               style="fill:#2076c1;fill-opacity:1;fill-rule:evenodd;stroke:none;stroke-width:1px;stroke-linecap:butt;stroke-linejoin:miter;stroke-opacity:1"
               d="m 196.30981,176.96638 c -40.17251,32.49601 -46.01116,-4.86443 -12.00489,-21.8617 -17.16381,26.82279 -0.70826,22.55602 12.00489,21.8617 z"
               id="path2177"
               sodipodi:nodetypes="ccc" /></g><path
             sodipodi:nodetypes="ccc"
             id="path2179"
             d="m 229.3687,178.97034 c -43.79847,32.07763 -50.89227,-17.69477 7.93791,-28.69525 -48.96072,28.91469 -17.86186,33.29445 -7.93791,28.69525 z"
             style="fill:#2076c1;fill-opacity:1;fill-rule:evenodd;stroke:none;stroke-width:1px;stroke-linecap:butt;stroke-linejoin:miter;stroke-opacity:1" /></g><path
           sodipodi:nodetypes="cscsss"
           id="path2252"
           d="m 124.1858,189.83823 c -4.98948,-2.49474 24.07929,-70.68339 28.10477,-47.7288 1.80468,10.29084 18.44067,-18.53929 18.44067,-18.53929 0,0 13.06625,-23.765783 13.70724,-21.6949 3.04495,9.83753 -35.43073,73.54265 -38.16332,57.4915 -2.76174,-16.22237 -21.49768,30.76733 -22.08936,30.47149 z"
           style="fill:#000000;fill-opacity:1;fill-rule:evenodd;stroke:none;stroke-width:0.125;stroke-linecap:butt;stroke-linejoin:miter;stroke-miterlimit:4;stroke-dasharray:none;stroke-opacity:1" /><path
           style="fill:#c64e3b;fill-opacity:1;fill-rule:evenodd;stroke:none;stroke-width:0.125;stroke-linecap:butt;stroke-linejoin:miter;stroke-miterlimit:4;stroke-dasharray:none;stroke-opacity:1"
           d="m 127.36915,186.62713 c -4.98948,-2.49474 24.07929,-70.68339 28.10477,-47.7288 1.80468,10.29084 18.44067,-18.53929 18.44067,-18.53929 0,0 13.06625,-23.765781 13.70724,-21.694903 3.04495,9.837533 -35.43073,73.542653 -38.16332,57.491503 -2.76174,-16.22237 -21.49768,30.76733 -22.08936,30.47149 z"
           id="path3158"
           sodipodi:nodetypes="cscsss" /><path
           sodipodi:nodetypes="cscsc"
           id="path2254"
           d="m 56.312166,214.04162 c 0,0 -0.24653,-14.59477 24.45608,-45.55932 19.911804,-24.95932 42.995354,-60.94296 42.995354,-60.94296 0,0 -3.78468,18.9811 -20.60385,40.65158 -19.631954,25.29458 -46.847584,65.8507 -46.847584,65.8507 z"
           style="fill:#000000;fill-opacity:1;fill-rule:evenodd;stroke:none;stroke-width:0.125;stroke-linecap:butt;stroke-linejoin:miter;stroke-miterlimit:4;stroke-dasharray:none;stroke-opacity:1" /><path
           style="fill:#c64e3b;fill-opacity:1;fill-rule:evenodd;stroke:none;stroke-width:0.125;stroke-linecap:butt;stroke-linejoin:miter;stroke-miterlimit:4;stroke-dasharray:none;stroke-opacity:1"
           d="m 59.52326,215.22497 c 0,0 -0.24653,-14.59477 24.45608,-45.55932 19.91181,-24.95932 42.99536,-60.94296 42.99536,-60.94296 0,0 -3.78468,18.9811 -20.60385,40.65158 -19.63196,25.29458 -46.84759,65.8507 -46.84759,65.8507 z"
           id="path4129"
           sodipodi:nodetypes="cscsc" /></g><g
         id="g30"
         transform="matrix(1.7937952,0,0,1.7937952,-133.99344,-160.27564)"
         style="display:inline"><path
           id="rect12"
           style="fill:url(#linearGradient14-7);fill-rule:evenodd;stroke:#401d5b;stroke-width:2.576;stroke-linecap:round;stroke-linejoin:round;stroke-miterlimit:2.1;stroke-dasharray:none;stroke-opacity:1"
           d="m 131.02463,179.7442 h 16.89313 l 8.316,14.5532 -8.316,14.55319 h -16.89313 l -8.0784,-14.55319 z"
           sodipodi:nodetypes="ccccccc" /><path
           id="rect1-9"
           style="fill:#ffffff;fill-opacity:1;fill-rule:evenodd;stroke-width:5.83085;stroke-linecap:round;stroke-linejoin:round;stroke-miterlimit:2.1"
           d="m 144.55259,185.41808 c 0.27867,-1.31246 -4.13798,-1.5134 -5.28,-2.19666 2.10782,-0.22823 4.22322,-0.44848 6.40049,-0.36421 1.60116,0.66716 2.88628,2.00162 2.24074,4.36846 -0.49525,0.61978 -0.86086,0.72095 -1.21995,0.79605 -3.04597,-0.07 -8.47473,-1.38458 -9.07279,-0.11067 1.76133,2.48874 4.42449,4.1231 6.78943,6.04 -3.53277,0.67653 -9.60088,0.26716 -10.32112,2.40304 -0.81079,2.54336 12.34572,4.2652 12.38349,5.5887 -0.28686,3.10218 -13.93864,1.15631 -13.98825,0.9352 0.45252,-0.63185 10.01813,-0.0644 10.04764,-1.15618 -11.77281,-0.6306 -13.5764,-5.43634 -13.57122,-6.61066 0.014,-0.89928 1.32428,-4.78391 10.60655,-2.81738 -6.98763,-4.78905 -6.11996,-6.30159 -5.68998,-7.06079 0.60695,-0.96439 8.90918,0.0278 10.67497,0.18507 z"
           sodipodi:nodetypes="ccccccccccccccc" /><path
           id="path31"
           style="fill:#ffffff;fill-opacity:1;fill-rule:evenodd;stroke:none;stroke-width:0.3;stroke-linecap:round;stroke-linejoin:round;stroke-miterlimit:2.1;stroke-opacity:1"
           d="m 163.88482,182.71438 -10.98951,0.17828 6.07405,10.00146 c 0.51127,0.76746 0.52879,1.77039 0.1633,2.57659 l -6.17741,10.26862 33.32304,0.0594 0.41599,-14.6048 -3.62355,-3.54259 -14.25598,0.0626 z"
           sodipodi:nodetypes="cccccccccc" /><path
           id="rect18"
           style="fill:url(#linearGradient2);fill-opacity:0.755359;fill-rule:evenodd;stroke:#401d5b;stroke-width:0.3;stroke-linecap:round;stroke-linejoin:round;stroke-miterlimit:2.1;stroke-opacity:1"
           d="m 163.88482,182.71438 -10.98951,0.17828 6.07405,10.00146 c 0.51127,0.76746 0.52879,1.77039 0.1633,2.57659 l -6.17741,10.26862 33.79738,0.0594 -0.0584,-14.6048 -3.62355,-3.54259 -14.25598,0.0626 z m -2.69079,5.24774 h 2.14509 v 14.31954 h -2.14509 z m 6.72414,3.61218 c 0.14986,-0.002 0.30367,5.9e-4 0.46095,0.009 1.31869,0.0687 2.79327,0.45443 3.80649,1.09709 l -0.98702,1.7849 c -0.87793,-0.56566 -2.16168,-0.84464 -3.21841,-0.86609 -1.19029,0.0787 -1.67842,0.45507 -1.91668,1.1498 -0.34235,1.32423 1.76796,1.45056 2.93522,1.61178 2.71459,0.45009 4.03512,2.45707 2.97656,4.38423 -0.72822,1.28945 -1.85953,1.68805 -3.19722,1.75855 -2.15016,0.12117 -4.05707,-0.23171 -5.08754,-1.11828 l 0.96635,-1.59576 c 1.11609,0.40835 2.03159,0.84216 3.36517,0.76119 1.61892,0.0938 2.00448,-0.26908 2.12648,-0.72967 0.73874,-1.67645 -3.06429,-1.54776 -4.38423,-2.09496 -1.21698,-0.50452 -2.21448,-2.07693 -1.90582,-3.31298 0.40378,-1.61697 1.81171,-2.8045 4.0597,-2.83859 z m 4.74286,0.16795 h 2.14457 v 1.21595 c 0.91655,-0.72441 2.07118,-1.1591 3.32331,-1.1591 2.95709,0 5.37693,2.41777 5.37693,5.37486 0,2.9571 -2.41983,5.37694 -5.37693,5.37693 -1.25207,1e-5 -2.40678,-0.43487 -3.32331,-1.15962 v 4.29225 h -2.14457 z m 5.46788,2.09961 c -1.77373,0 -3.20491,1.35702 -3.32331,3.09852 v 0.46716 c 0.1184,1.74151 1.54958,3.09852 3.32331,3.09852 1.85238,0 3.3321,-1.47972 3.3321,-3.3321 0,-1.85238 -1.47972,-3.3321 -3.3321,-3.3321 z"
           sodipodi:nodetypes="ccccccccccccccccccccccccccccsscccccsssccccsccsss" /><g
           id="g29"><path
             style="color:#000000;fill:#401d5b;fill-rule:evenodd;stroke-linecap:round;stroke-linejoin:round;stroke-miterlimit:2.1;-inkscape-stroke:none"
             d="m 120.64063,174.06055 c -2.17494,0 -3.95899,1.78599 -3.95899,3.96093 0,2.17494 1.78405,3.96094 3.95899,3.96094 2.17493,0 3.96093,-1.786 3.96093,-3.96094 0,-2.17494 -1.786,-3.96093 -3.96093,-3.96093 z m 0,2.10156 c 1.04001,0 1.86132,0.81936 1.86132,1.85937 0,1.04002 -0.82131,1.86133 -1.86132,1.86133 -1.04002,0 -1.85938,-0.82131 -1.85938,-1.86133 0,-1.04001 0.81936,-1.85937 1.85938,-1.85937 z"
             id="path13-9" /><path
             style="color:#000000;fill:#401d5b;fill-rule:evenodd;stroke-linecap:round;stroke-linejoin:round;stroke-miterlimit:2.1;-inkscape-stroke:none"
             d="m 120.64063,206.49295 c -2.17494,0 -3.95899,1.78599 -3.95899,3.96093 0,2.17494 1.78405,3.96094 3.95899,3.96094 2.17493,0 3.96093,-1.786 3.96093,-3.96094 0,-2.17494 -1.786,-3.96093 -3.96093,-3.96093 z m 0,2.10156 c 1.04001,0 1.86132,0.81936 1.86132,1.85937 0,1.04002 -0.82131,1.86133 -1.86132,1.86133 -1.04002,0 -1.85938,-0.82131 -1.85938,-1.86133 0,-1.04001 0.81936,-1.85937 1.85938,-1.85937 z"
             id="path14" /><path
             style="color:#000000;fill:#401d5b;fill-rule:evenodd;stroke-linecap:round;stroke-linejoin:round;stroke-miterlimit:2.1;-inkscape-stroke:none"
             d="m 110.78023,198.59275 c -2.17494,0 -3.95899,1.78599 -3.95899,3.96093 0,2.17494 1.78405,3.96094 3.95899,3.96094 2.17493,0 3.96093,-1.786 3.96093,-3.96094 0,-2.17494 -1.786,-3.96093 -3.96093,-3.96093 z m 0,2.10156 c 1.04001,0 1.86132,0.81936 1.86132,1.85937 0,1.04002 -0.82131,1.86133 -1.86132,1.86133 -1.04002,0 -1.85938,-0.82131 -1.85938,-1.86133 0,-1.04001 0.81936,-1.85937 1.85938,-1.85937 z"
             id="path16-5" /><path
             style="color:#000000;fill:#401d5b;fill-rule:evenodd;stroke-linecap:round;stroke-linejoin:round;stroke-miterlimit:2.1;-inkscape-stroke:none"
             d="m 110.78023,182.13895 c -2.17494,0 -3.95899,1.78599 -3.95899,3.96093 0,2.17494 1.78405,3.96094 3.95899,3.96094 2.17493,0 3.96093,-1.786 3.96093,-3.96094 0,-2.17494 -1.786,-3.96093 -3.96093,-3.96093 z m 0,2.10156 c 1.04001,0 1.86132,0.81936 1.86132,1.85937 0,1.04002 -0.82131,1.86133 -1.86132,1.86133 -1.04002,0 -1.85938,-0.82131 -1.85938,-1.86133 0,-1.04001 0.81936,-1.85937 1.85938,-1.85937 z"
             id="path17" /><path
             style="color:#000000;fill:#401d5b;fill-rule:evenodd;stroke-linecap:round;stroke-linejoin:round;stroke-miterlimit:2.1;-inkscape-stroke:none"
             d="m 102.04843,190.39555 c -2.17494,0 -3.95899,1.78599 -3.95899,3.96093 0,2.17494 1.78405,3.96094 3.95899,3.96094 2.17493,0 3.96093,-1.786 3.96093,-3.96094 0,-2.17494 -1.786,-3.96093 -3.96093,-3.96093 z m 0,2.10156 c 1.04001,0 1.86132,0.81936 1.86132,1.85937 0,1.04002 -0.82131,1.86133 -1.86132,1.86133 -1.04002,0 -1.85938,-0.82131 -1.85938,-1.86133 0,-1.04001 0.81936,-1.85937 1.85938,-1.85937 z"
             id="path20" /><path
             style="fill:none;fill-opacity:0.755359;fill-rule:evenodd;stroke:#401d5b;stroke-width:0.7;stroke-linecap:round;stroke-linejoin:round;stroke-miterlimit:2.1;stroke-dasharray:none"
             d="m 124.0866,178.1406 2.1384,4.5738 2.0196,0.1782"
             id="path22"
             sodipodi:nodetypes="ccc" /><path
             style="fill:none;fill-opacity:0.755359;fill-rule:evenodd;stroke:#401d5b;stroke-width:0.7;stroke-linecap:round;stroke-linejoin:round;stroke-miterlimit:2.1;stroke-dasharray:none"
             d="m 114.048,186.1596 5.8212,0.0594 4.158,2.7324 0.891,0.5346"
             id="path24"
             sodipodi:nodetypes="cccc" /><path
             style="fill:none;fill-opacity:0.755359;fill-rule:evenodd;stroke:#401d5b;stroke-width:0.7;stroke-linecap:round;stroke-linejoin:round;stroke-miterlimit:2.1;stroke-dasharray:none"
             d="m 105.6726,194.2974 h 15.9192"
             id="path26-5" /><path
             style="fill:none;fill-opacity:0.755359;fill-rule:evenodd;stroke:#401d5b;stroke-width:0.7;stroke-linecap:round;stroke-linejoin:round;stroke-miterlimit:2.1;stroke-dasharray:none"
             d="m 124.0272,210.40944 2.1978,-4.5738 2.0196,-0.1782"
             id="path27-2"
             sodipodi:nodetypes="ccc" /><path
             style="fill:none;fill-opacity:0.755359;fill-rule:evenodd;stroke:#401d5b;stroke-width:0.7;stroke-linecap:round;stroke-linejoin:round;stroke-miterlimit:2.1;stroke-dasharray:none"
             d="m 114.048,202.70982 5.8212,-0.0594 4.158,-2.7324 0.7722,-0.5346"
             id="path29"
             sodipodi:nodetypes="cccc" /></g></g></g><g
       id="rect23"
       style="display:inline"><rect
         style="display:inline;fill:url(#linearGradient23);fill-opacity:0.834379;stroke:none;stroke-width:4.99999;stroke-linecap:square;stroke-dasharray:none;stroke-opacity:1"
         id="rect20"
         width="30.128031"
         height="11.286353"
         x="177.19191"
         y="53.347572" /><path
         style="color:#000000;display:inline;fill:url(#linearGradient25);stroke-linecap:square;stroke-linejoin:bevel;-inkscape-stroke:none"
         d="m 174.15254,15.119046 40.91592,41.955358 H 174.814 Z"
         id="path25" /><g
         id="g27"><path
           id="rect27"
           style="display:inline;fill:#0a6db5;fill-opacity:0.459222;stroke-width:4.99999;stroke-linecap:square;stroke-linejoin:bevel"
           d="m 182.94047,23.245534 33.07293,33.82887 -33.07293,-0.09449 z"
           sodipodi:nodetypes="cccc" /><path
           id="path27"
           style="display:inline;fill:#1882cf;fill-opacity:0.459222;stroke-width:4.99999;stroke-linecap:square;stroke-linejoin:bevel"
           d="m 175.28645,49.514879 34.91556,0.188989 4.67746,7.087054 -39.68751,-0.472471 z"
           sodipodi:nodetypes="ccccc" /></g><path
         style="color:#000000;display:inline;fill:url(#linearGradient27);stroke-linecap:square;stroke-linejoin:bevel;-inkscape-stroke:none"
         d="m 175.94141,13.373047 -4.28907,1.785156 6.5e-4,44.600911 c 0,0 29.8634,-0.184895 43.41537,-0.184895 l 1.78906,-4.246094 z m 1.4286,7.056744 34.22551,34.144428 h -34.32013 z"
         id="path26"
         sodipodi:nodetypes="cccccccccc" /></g></g></svg>
