<?xml version="1.0" encoding="UTF-8" standalone="no"?>
<!-- Created with Inkscape (http://www.inkscape.org/) -->

<svg
   width="256mm"
   height="256mm"
   viewBox="0 0 256 256"
   version="1.1"
   id="svg1"
   inkscape:version="1.3.2 (091e20ef0f, 2023-11-25)"
   xml:space="preserve"
   sodipodi:docname="text-csharp.svg"
   xmlns:inkscape="http://www.inkscape.org/namespaces/inkscape"
   xmlns:sodipodi="http://sodipodi.sourceforge.net/DTD/sodipodi-0.dtd"
   xmlns:xlink="http://www.w3.org/1999/xlink"
   xmlns="http://www.w3.org/2000/svg"
   xmlns:svg="http://www.w3.org/2000/svg"
   xmlns:rdf="http://www.w3.org/1999/02/22-rdf-syntax-ns#"
   xmlns:cc="http://creativecommons.org/ns#"
   xmlns:dc="http://purl.org/dc/elements/1.1/"><defs
     id="defs1"><linearGradient
       id="linearGradient26"
       inkscape:collect="always"><stop
         style="stop-color:#7b91c4;stop-opacity:1;"
         offset="0"
         id="stop26" /><stop
         style="stop-color:#5c5e91;stop-opacity:1"
         offset="1"
         id="stop27" /></linearGradient><linearGradient
       id="linearGradient24"
       inkscape:collect="always"><stop
         style="stop-color:#c7fafe;stop-opacity:1;"
         offset="0"
         id="stop24" /><stop
         style="stop-color:#9acdff;stop-opacity:1"
         offset="1"
         id="stop25" /></linearGradient><linearGradient
       id="linearGradient22"
       inkscape:collect="always"><stop
         style="stop-color:#adaeae;stop-opacity:0.8253752;"
         offset="0"
         id="stop22" /><stop
         style="stop-color:#8ac5fe;stop-opacity:0.83628923;"
         offset="1"
         id="stop23" /></linearGradient><linearGradient
       id="linearGradient18"
       inkscape:collect="always"><stop
         style="stop-color:#9797ff;stop-opacity:1;"
         offset="0"
         id="stop18" /><stop
         style="stop-color:#ccccff;stop-opacity:1;"
         offset="0.30000001"
         id="stop20" /><stop
         style="stop-color:#ccccff;stop-opacity:1;"
         offset="1"
         id="stop19" /></linearGradient><linearGradient
       id="linearGradient16"
       inkscape:collect="always"><stop
         style="stop-color:#cdcdcd;stop-opacity:0.17462483;"
         offset="0"
         id="stop16" /><stop
         style="stop-color:#cdcdcd;stop-opacity:1;"
         offset="1"
         id="stop17" /></linearGradient><linearGradient
       id="linearGradient12"
       inkscape:collect="always"><stop
         style="stop-color:#fdfeff;stop-opacity:1;"
         offset="0"
         id="stop13" /><stop
         style="stop-color:#99ccff;stop-opacity:1;"
         offset="1"
         id="stop14" /></linearGradient><linearGradient
       id="linearGradient9"
       inkscape:collect="always"><stop
         style="stop-color:#97c9fc;stop-opacity:1;"
         offset="0"
         id="stop9" /><stop
         style="stop-color:#7788bb;stop-opacity:1"
         offset="0.25"
         id="stop12" /><stop
         style="stop-color:#57578a;stop-opacity:1"
         offset="0.5"
         id="stop11" /><stop
         style="stop-color:#444482;stop-opacity:1;"
         offset="1"
         id="stop10" /></linearGradient><linearGradient
       inkscape:collect="always"
       xlink:href="#linearGradient9"
       id="linearGradient10"
       x1="31.622168"
       y1="100.24049"
       x2="221.19499"
       y2="240.28973"
       gradientUnits="userSpaceOnUse" /><linearGradient
       inkscape:collect="always"
       xlink:href="#linearGradient12"
       id="linearGradient14"
       x1="73.583481"
       y1="62.020954"
       x2="207.02971"
       y2="229.59895"
       gradientUnits="userSpaceOnUse" /><linearGradient
       inkscape:collect="always"
       xlink:href="#linearGradient16"
       id="linearGradient17"
       x1="57.531055"
       y1="26.420616"
       x2="147.13231"
       y2="144.34076"
       gradientUnits="userSpaceOnUse" /><linearGradient
       inkscape:collect="always"
       xlink:href="#linearGradient18"
       id="linearGradient19"
       x1="209.82518"
       y1="58.53635"
       x2="210.58252"
       y2="194.57654"
       gradientUnits="userSpaceOnUse" /><linearGradient
       inkscape:collect="always"
       xlink:href="#linearGradient22"
       id="linearGradient23"
       x1="177.19191"
       y1="58.990749"
       x2="207.31994"
       y2="58.990749"
       gradientUnits="userSpaceOnUse" /><linearGradient
       inkscape:collect="always"
       xlink:href="#linearGradient24"
       id="linearGradient25"
       x1="176.32031"
       y1="20.126524"
       x2="176.32031"
       y2="56.695721"
       gradientUnits="userSpaceOnUse" /><linearGradient
       inkscape:collect="always"
       xlink:href="#linearGradient26"
       id="linearGradient27"
       x1="172.59729"
       y1="13.51158"
       x2="210.54449"
       y2="51.28627"
       gradientUnits="userSpaceOnUse" /></defs><sodipodi:namedview
     id="base"
     pagecolor="#ffffff"
     bordercolor="#000000"
     borderopacity="0.3"
     inkscape:pageopacity="0.0"
     inkscape:pageshadow="2"
     inkscape:zoom="0.98994949"
     inkscape:cx="505.07627"
     inkscape:cy="476.792"
     inkscape:document-units="mm"
     inkscape:showpageshadow="2"
     inkscape:pagecheckerboard="0"
     inkscape:deskcolor="#d1d1d1"
     inkscape:current-layer="g28"
     showguides="true" /><metadata
     id="metadata1"><rdf:RDF><cc:Work
         rdf:about=""><dc:format>image/svg+xml</dc:format><dc:type
           rdf:resource="http://purl.org/dc/dcmitype/StillImage" /><cc:license
           rdf:resource="http://creativecommons.org/publicdomain/zero/1.0/" /></cc:Work><cc:License
         rdf:about="http://creativecommons.org/publicdomain/zero/1.0/"><cc:permits
           rdf:resource="http://creativecommons.org/ns#Reproduction" /><cc:permits
           rdf:resource="http://creativecommons.org/ns#Distribution" /><cc:permits
           rdf:resource="http://creativecommons.org/ns#DerivativeWorks" /></cc:License></rdf:RDF></metadata><g
     id="g28"
     transform="matrix(1.0481261,0,0,1.0481261,-6.4074194,-6.1384097)"><g
       id="g7"
       inkscape:label="shadow"
       style="display:inline"><path
         id="rect1"
         style="fill:#000000;fill-opacity:0.0602258;stroke-width:3.72791;stroke-linecap:square"
         d="M 48.380952,13.418155 H 179.16071 l 43.46726,43.278274 V 244.17261 H 48.380952 Z"
         sodipodi:nodetypes="cccccc" /><path
         id="path1"
         style="fill:#000000;fill-opacity:0.0752823;stroke-width:3.72791;stroke-linecap:square"
         d="m 47.563027,12.60023 129.443423,-0.133635 43.46726,43.278274 1.33635,187.609821 H 47.563027 Z"
         sodipodi:nodetypes="cccccc" /><path
         id="path2"
         style="fill:#000000;fill-opacity:0.0602258;stroke-width:3.72791;stroke-linecap:square"
         d="m 46.493949,11.793049 128.975701,-0.868626 43.46726,43.278274 1.80407,188.344813 H 46.493949 Z"
         sodipodi:nodetypes="cccccc" /><path
         id="path3"
         style="fill:#000000;fill-opacity:0.0602258;stroke-width:3.72791;stroke-linecap:square"
         d="m 45.964782,12.33296 129.777508,0.467722 43.46726,42.209196 1.00226,187.008462 H 45.964782 Z"
         sodipodi:nodetypes="cccccc" /><path
         id="path4"
         style="fill:#000000;fill-opacity:0.0602258;stroke-width:3.72791;stroke-linecap:square"
         d="m 45.435615,12.338332 129.443415,0.935443 43.46726,41.674657 1.33635,186.540738 H 45.435615 Z"
         sodipodi:nodetypes="cccccc" /><path
         id="path5"
         style="fill:#000000;fill-opacity:0.0602258;stroke-width:3.72791;stroke-linecap:square"
         d="M 44.906448,12.744609 174.8844,13.412783 218.35166,54.151996 219.15347,240.96 H 44.906448 Z"
         sodipodi:nodetypes="cccccc" /><path
         id="path6"
         style="fill:#000000;fill-opacity:0.0602258;stroke-width:3.72791;stroke-linecap:square"
         d="m 44.377281,15.021772 129.911129,0.534539 43.46726,37.932883 0.86863,186.941636 H 44.377281 Z"
         sodipodi:nodetypes="cccccc" /><path
         id="path7"
         style="fill:#000000;fill-opacity:0.0602258;stroke-width:3.72791;stroke-linecap:square"
         d="m 43.848114,13.423527 129.710676,1.069078 43.46726,39.001961 1.06908,186.407094 H 43.848114 Z"
         sodipodi:nodetypes="cccccc" /></g><g
       id="g14"
       style="display:inline"><path
         style="color:#000000;fill:url(#linearGradient14);stroke-linecap:square;-inkscape-stroke:none"
         d="M 46.153822,14.648159 H 173.78301 l 40.90293,41.140298 V 236.0795 H 46.554726 Z"
         id="path15"
         inkscape:label="headbgground" /><path
         id="rect16"
         style="display:inline;fill:url(#linearGradient17);fill-opacity:1;stroke-width:4.99999;stroke-linecap:square"
         d="M 45.435818,14.165285 H 176.70315 l 0.20408,8.220982 H 53.433709 V 235.97952 h -7.997891 z"
         sodipodi:nodetypes="ccccccc" /><path
         id="rect17"
         style="fill:url(#linearGradient19);stroke-width:4.99999;stroke-linecap:square"
         d="M 47.058037,227.91965 H 207.27506 l -0.0668,-168.246312 7.31651,0.0667 0.0668,168.546562 -7.08265,0.0331 v 7.34846 H 47.058037 Z"
         sodipodi:nodetypes="ccccccccc" /><path
         style="color:#000000;fill:url(#linearGradient10);stroke-linecap:square;-inkscape-stroke:none"
         d="M 43.648437,12.148438 44.058594,238.58008 H 217.18555 V 54.757812 L 174.82227,12.148438 Z m 4.608862,4.999999 H 172.74414 l 39.44141,39.671875 V 233.58008 H 48.775405 Z"
         id="path16"
         inkscape:label="headframe"
         sodipodi:nodetypes="cccccccccccc" /></g><text
       xml:space="preserve"
       style="font-style:normal;font-variant:normal;font-weight:normal;font-stretch:normal;font-size:48.4674px;line-height:1;font-family:Jomolhari;-inkscape-font-specification:Jomolhari;letter-spacing:0.886046px;word-spacing:0px;display:none;fill:#4f128d;fill-opacity:1;fill-rule:evenodd;stroke-width:1.23077;stroke-linecap:round;stroke-linejoin:round;stroke-miterlimit:2.1"
       x="-1.8302485"
       y="229.03285"
       id="text2"
       inkscape:label="Jomolhari"><tspan
         sodipodi:role="line"
         id="tspan2"
         style="font-style:normal;font-variant:normal;font-weight:normal;font-stretch:normal;font-size:48.4674px;font-family:Jomolhari;-inkscape-font-specification:Jomolhari;fill:#4f128d;fill-opacity:1;stroke-width:1.23077"
         x="-33.843582"
         y="29.405102"><tspan
           style="font-size:60.5843px;fill:#4f128d;fill-opacity:1;stroke-width:1.23077"
           id="tspan4">.c</tspan><tspan
           style="font-size:24.2337px;fill:#4f128d;fill-opacity:1;stroke-width:1.23077"
           id="tspan3">#</tspan></tspan></text><g
       id="text7"
       style="font-size:105.833px;line-height:1;font-family:Jomolhari;-inkscape-font-specification:Jomolhari;letter-spacing:0.928688px;word-spacing:0px;fill:#4f128d;fill-rule:evenodd;stroke-width:1.29;stroke-linecap:round;stroke-linejoin:round;stroke-miterlimit:2.1"
       aria-label=".c#"
       transform="matrix(1.2410019,0,0,1.2410019,-14.974017,-47.673743)"><path
         id="path8-7"
         style="fill:#4f128d;fill-opacity:1;stroke-width:1.61904"
         d="m 134.26929,185.44472 c -1.21067,2.33486 -2.33486,4.36706 -3.37257,6.09658 -0.95124,1.64305 -1.90248,3.15639 -2.85373,4.54001 -0.86475,1.29715 -1.77275,2.46458 -2.724,3.5023 -0.95124,1.03771 -1.98896,1.98895 -3.11315,2.85372 -5.18858,4.15086 -10.93927,6.2263 -17.25203,6.2263 -4.06439,0 -7.826121,-0.77829 -11.285172,-2.33487 -3.459051,-1.64305 -6.442492,-3.93468 -8.950305,-6.87487 -2.421336,-2.9402 -4.323819,-6.39926 -5.707439,-10.37717 -1.383621,-3.9779 -2.075434,-8.3882 -2.075434,-13.23087 0,-6.13981 1.037719,-11.76079 3.11315,-16.86289 2.161907,-5.18859 5.231824,-9.42594 9.209733,-12.71203 3.02667,-2.50782 6.226302,-4.36706 9.598877,-5.57773 3.45905,-1.29715 6.96135,-1.94572 10.50687,-1.94572 3.11316,0 6.05336,0.43238 8.8206,1.29714 2.76724,0.77829 5.18859,1.85925 7.26401,3.24287 2.07543,1.38362 3.71849,3.02667 4.92916,4.92915 1.21067,1.816 1.816,3.76173 1.816,5.83716 0,1.72952 -0.69181,3.24286 -2.07543,4.54001 -1.29715,1.29715 -2.89696,1.94572 -4.79944,1.94572 -1.72952,0 -3.19963,-0.64857 -4.4103,-1.94572 -1.21066,-1.29715 -2.11866,-3.02668 -2.724,-5.18858 l -0.908,-3.24287 c -0.69181,-2.76724 -1.68629,-4.62649 -2.98344,-5.57773 -1.21067,-0.95123 -3.15639,-1.42685 -5.83715,-1.42685 -3.02667,0 -5.79392,0.64857 -8.30174,1.94571 -2.421333,1.21067 -4.496768,2.98344 -6.226293,5.3183 -1.729526,2.33486 -3.11315,5.10211 -4.150866,8.30173 -0.951239,3.19962 -1.42686,6.74516 -1.42686,10.6366 0,4.15086 0.562097,7.99906 1.686289,11.54458 1.124192,3.54554 2.680769,6.57222 4.669724,9.08003 1.988958,2.50782 4.367065,4.49678 7.134306,5.96687 2.85371,1.38362 5.96686,2.07543 9.33944,2.07543 4.23734,0 7.91259,-0.99448 11.02574,-2.98344 3.11315,-2.07542 6.4425,-5.70744 9.98802,-10.89601 z" /><path
         id="path37"
         style="fill:#4f128d;fill-opacity:1;stroke-width:1.61904"
         d="m 66.744073,192.57902 c 2.07543,0 3.934676,0.82152 5.577726,2.46457 1.729526,1.64305 2.594291,3.58878 2.594291,5.83717 0,2.1619 -0.864765,4.06439 -2.594291,5.70744 -1.64305,1.55657 -3.588773,2.33485 -5.837156,2.33485 -2.248384,0 -4.194106,-0.77828 -5.837155,-2.33485 -1.556573,-1.64305 -2.334862,-3.58878 -2.334862,-5.83717 0,-2.33486 0.821527,-4.28058 2.464577,-5.83715 1.64305,-1.55657 3.63201,-2.33486 5.96687,-2.33486 z" /><path
         style="font-size:70.5556px;stroke-width:0.960488"
         d="m 170.86659,172.14959 h -6.41274 l -1.79557,12.62028 h -3.43724 l 1.79557,-12.62028 h -7.7979 l -1.94946,12.62028 h -3.43724 l 1.94947,-12.62028 h -6.25884 v -3.23202 h 6.77187 l 1.33385,-7.8492 h -6.46404 v -3.23203 h 6.87445 l 1.84688,-11.85075 h 3.33462 l -1.79557,11.85075 h 7.7979 l 1.74426,-11.85075 h 3.43724 l -1.79557,11.85075 h 5.69451 v 3.23203 h -6.15623 l -1.17995,7.8492 h 5.89973 z m -15.9036,-11.08122 -1.23126,7.8492 h 7.84921 l 1.23124,-7.8492 z"
         id="path9" /></g><g
       id="text9"
       style="font-size:5.29167px;line-height:1;font-family:'Source Code Pro';-inkscape-font-specification:'Source Code Pro';letter-spacing:0.928688px;word-spacing:0px;fill-rule:evenodd;stroke-width:1.29;stroke-linecap:round;stroke-linejoin:round;stroke-miterlimit:2.1"
       aria-label="using System;&#10;&#10;namespace HelloWorld&#10;{&#10;  class Program&#10;  {&#10;    static void Main(string[] args)&#10;    {&#10;      Console.WriteLine(&quot;Hello World!&quot;);    &#10;    }&#10;  }&#10;}"
       transform="matrix(0.95408368,0,0,0.95408368,17.234407,1.6637861)"><path
         style="font-style:italic;-inkscape-font-specification:'Source Code Pro Italic'"
         d="m 39.454283,54.711499 c 0.455084,0 0.830793,-0.28575 1.143001,-0.587376 h 0.02117 l -0.06879,0.523876 h 0.333375 l 0.513292,-2.571752 h -0.407458 l -0.333376,1.661585 c -0.34925,0.391583 -0.6985,0.624417 -1.04775,0.624417 -0.264584,0 -0.407459,-0.142875 -0.407459,-0.396876 0,-0.116416 0.02117,-0.227541 0.04763,-0.359833 l 0.306917,-1.529293 h -0.402167 l -0.3175,1.571626 c -0.02646,0.142875 -0.04762,0.275167 -0.04762,0.423334 0,0.386292 0.206375,0.640292 0.66675,0.640292 z m 4.569359,0 c 0.603251,0 1.084793,-0.22225 1.084793,-0.777876 0,-0.418042 -0.333375,-0.587375 -0.814917,-0.751417 -0.412751,-0.142875 -0.635001,-0.248708 -0.635001,-0.486833 0,-0.227542 0.201084,-0.365126 0.534459,-0.365126 0.381,0 0.677334,0.169334 0.889,0.349251 l 0.227542,-0.248709 c -0.216958,-0.216958 -0.582084,-0.418042 -1.074209,-0.418042 -0.523875,0 -0.963084,0.238125 -0.963084,0.730251 0,0.354542 0.238125,0.5715 0.772584,0.751417 0.428625,0.142875 0.677334,0.243417 0.677334,0.492125 0,0.28575 -0.264584,0.407459 -0.624417,0.407459 -0.370417,0 -0.724959,-0.127 -0.978959,-0.412751 l -0.232834,0.259292 c 0.248709,0.28575 0.693209,0.470959 1.137709,0.470959 z m 4.511151,0 c 0.280459,0 0.486834,-0.06879 0.703792,-0.169334 l -0.09525,-0.306916 c -0.185208,0.08467 -0.333375,0.137583 -0.492125,0.137583 -0.232834,0 -0.396875,-0.111125 -0.396875,-0.381 0,-0.05292 0.01058,-0.105834 0.02117,-0.169334 l 0.386292,-1.746251 h -1.344084 l -0.06879,0.328084 h 0.941917 l -0.306916,1.381126 c -0.02646,0.100541 -0.04233,0.195791 -0.04233,0.280458 0,0.423334 0.28575,0.645584 0.693209,0.645584 z m -0.02646,-3.180294 c 0.201083,0 0.370417,-0.15875 0.370417,-0.365125 0,-0.179917 -0.121709,-0.280458 -0.306917,-0.280458 -0.195792,0 -0.365125,0.164041 -0.365125,0.365125 0,0.179917 0.132291,0.280458 0.301625,0.280458 z m 2.484441,3.116794 h 0.402167 l 0.333375,-1.661585 c 0.354542,-0.391583 0.709084,-0.624417 1.053042,-0.624417 0.264584,0 0.407459,0.142876 0.407459,0.396876 0,0.116416 -0.01588,0.227541 -0.04763,0.359833 l -0.306917,1.529293 h 0.407458 l 0.317501,-1.571626 c 0.02646,-0.142875 0.04763,-0.275167 0.04763,-0.423334 0,-0.386292 -0.206375,-0.640292 -0.661459,-0.640292 -0.460375,0 -0.846667,0.280459 -1.153584,0.587376 h -0.02117 l 0.0635,-0.523876 h -0.328083 z m 4.976817,1.148292 c 0.645584,0 1.180043,-0.296333 1.322918,-1.016 l 0.53975,-2.704044 h -0.322792 l -0.105833,0.322792 h -0.02117 c -0.142875,-0.232833 -0.423333,-0.386292 -0.788459,-0.386292 -0.767292,0 -1.397,0.746126 -1.397,1.651001 0,0.613834 0.34925,0.963084 0.894292,0.963084 0.328083,0 0.66675,-0.169333 0.915459,-0.41275 h 0.02117 l -0.116416,0.545042 c -0.111125,0.497417 -0.481542,0.703792 -0.936626,0.703792 -0.28575,0 -0.587375,-0.09525 -0.79375,-0.275167 l -0.190501,0.291042 c 0.232834,0.185208 0.555626,0.3175 0.978959,0.3175 z m 0.243417,-1.508126 c -0.375708,0 -0.597959,-0.22225 -0.597959,-0.687917 0,-0.66675 0.470959,-1.248834 1.026584,-1.248834 0.254001,0 0.481542,0.116417 0.661459,0.386292 l -0.232833,1.095376 c -0.269875,0.291041 -0.576792,0.455083 -0.857251,0.455083 z m 8.281468,0.423334 c 0.661458,0 1.180042,-0.386292 1.180042,-1.037167 0,-0.418042 -0.238125,-0.656168 -0.566209,-0.862543 l -0.418042,-0.248708 c -0.22225,-0.127 -0.407458,-0.28575 -0.407458,-0.550334 0,-0.291042 0.254,-0.550333 0.624417,-0.550333 0.343958,0 0.60325,0.179916 0.772584,0.391583 l 0.275167,-0.227542 c -0.206376,-0.28575 -0.576792,-0.513292 -1.026584,-0.513292 -0.619126,0 -1.063626,0.402167 -1.063626,0.931334 0,0.407459 0.264583,0.666751 0.560917,0.846667 l 0.402167,0.238126 c 0.259292,0.153458 0.428625,0.3175 0.428625,0.582083 0,0.396875 -0.328083,0.645584 -0.762,0.645584 -0.396876,0 -0.693209,-0.179917 -0.904876,-0.497417 l -0.280458,0.227542 c 0.238125,0.381 0.629708,0.624417 1.185334,0.624417 z m 2.89719,1.042459 c 0.523875,0 0.814917,-0.264584 1.158876,-0.830792 l 1.751542,-2.846919 h -0.423333 l -0.862542,1.439334 c -0.132292,0.227542 -0.312209,0.550334 -0.433917,0.783168 h -0.02117 c -0.04233,-0.232834 -0.105833,-0.555626 -0.153458,-0.783168 l -0.338667,-1.439334 h -0.391584 l 0.640292,2.582335 -0.15875,0.254 c -0.248708,0.386292 -0.423333,0.529167 -0.740834,0.529167 -0.111125,0 -0.22225,-0.03175 -0.306916,-0.07408 l -0.127001,0.291042 c 0.105834,0.0635 0.243417,0.09525 0.407459,0.09525 z m 5.357819,-1.042459 c 0.60325,0 1.084792,-0.22225 1.084792,-0.777876 0,-0.418042 -0.333375,-0.587375 -0.814917,-0.751417 -0.41275,-0.142875 -0.635,-0.248708 -0.635,-0.486833 0,-0.227542 0.201083,-0.365126 0.534458,-0.365126 0.381,0 0.677334,0.169334 0.889001,0.349251 l 0.227542,-0.248709 c -0.216959,-0.216958 -0.582084,-0.418042 -1.074209,-0.418042 -0.523876,0 -0.963084,0.238125 -0.963084,0.730251 0,0.354542 0.238125,0.5715 0.772583,0.751417 0.428626,0.142875 0.677334,0.243417 0.677334,0.492125 0,0.28575 -0.264583,0.407459 -0.624417,0.407459 -0.370417,0 -0.724959,-0.127 -0.978959,-0.412751 l -0.232833,0.259292 c 0.248708,0.28575 0.693209,0.470959 1.137709,0.470959 z m 4.299483,0 c 0.359833,0 0.682625,-0.09525 0.904875,-0.232834 l -0.132292,-0.291041 c -0.185208,0.100541 -0.41275,0.185208 -0.66675,0.185208 -0.291042,0 -0.47625,-0.15875 -0.47625,-0.481542 0,-0.07408 0.0053,-0.142875 0.02646,-0.238125 l 0.259292,-1.248834 h 1.270001 l 0.06879,-0.328084 h -1.27 l 0.169333,-0.8255 h -0.333375 l -0.22225,0.8255 -0.772584,0.02646 -0.05821,0.301625 h 0.746125 l -0.254,1.238251 c -0.02117,0.121708 -0.04233,0.22225 -0.04233,0.333375 0,0.439208 0.243416,0.735542 0.783167,0.735542 z m 4.257149,-2.37596 c 0.381,0 0.619126,0.248709 0.619126,0.650875 0,0.05292 -0.0053,0.105834 -0.01588,0.158751 h -1.576918 c 0.15875,-0.497417 0.582084,-0.809626 0.973667,-0.809626 z m -0.34925,2.37596 c 0.449792,0 0.851959,-0.174625 1.111251,-0.381 l -0.153459,-0.275167 c -0.238125,0.1905 -0.53975,0.333375 -0.878417,0.333375 -0.465667,0 -0.772584,-0.291042 -0.772584,-0.809625 0,-0.04233 0,-0.07938 0.0053,-0.116417 h 1.968501 c 0.02646,-0.06879 0.06879,-0.280459 0.06879,-0.460376 0,-0.5715 -0.34925,-0.989542 -0.978959,-0.989542 -0.777876,0 -1.465793,0.661459 -1.465793,1.587501 0,0.719667 0.428626,1.111251 1.095376,1.111251 z m 2.674944,-0.0635 h 0.402167 l 0.365125,-1.862668 c 0.201084,-0.280458 0.354542,-0.423334 0.550334,-0.423334 0.111125,0 0.185208,0.06879 0.185208,0.243417 0,0.05821 -0.0053,0.116417 -0.02117,0.201084 l -0.381001,1.841501 h 0.391584 l 0.375709,-1.862668 c 0.1905,-0.280458 0.34925,-0.423334 0.534458,-0.423334 0.116417,0 0.179917,0.06879 0.179917,0.243417 0,0.05821 -0.0053,0.116417 -0.02117,0.201084 l -0.370417,1.841501 h 0.402167 l 0.381001,-1.894418 c 0.02646,-0.127 0.03175,-0.201083 0.03175,-0.291042 0,-0.306917 -0.153459,-0.449792 -0.402167,-0.449792 -0.232834,0 -0.476251,0.116417 -0.719667,0.418042 -0.01058,-0.291042 -0.148167,-0.418042 -0.386292,-0.418042 -0.264584,0 -0.486834,0.153459 -0.693209,0.41275 h -0.01588 l 0.03704,-0.34925 h -0.312209 z m 5.738817,-1.830918 c 0.269875,0 0.47625,-0.238125 0.47625,-0.497417 0,-0.211667 -0.127,-0.365125 -0.333375,-0.365125 -0.264583,0 -0.47625,0.238125 -0.47625,0.502708 0,0.211667 0.132292,0.359834 0.333375,0.359834 z m -1.079501,2.905127 c 0.724959,-0.179917 1.248835,-0.709084 1.248835,-1.391709 0,-0.306917 -0.137584,-0.476251 -0.359834,-0.476251 -0.254,0 -0.465667,0.206375 -0.465667,0.460376 0,0.206375 0.137583,0.338666 0.3175,0.338666 0.02646,0 0.05292,-0.0053 0.07937,-0.01058 -0.07408,0.386292 -0.391583,0.698501 -0.878417,0.841376 z"
         id="path20" /><path
         style="font-style:italic;-inkscape-font-specification:'Source Code Pro Italic'"
         d="m 38.6817,65.231339 h 0.402167 l 0.333375,-1.661585 c 0.354542,-0.391583 0.709083,-0.624417 1.053042,-0.624417 0.264584,0 0.407459,0.142875 0.407459,0.396875 0,0.116417 -0.01588,0.227542 -0.04763,0.359834 l -0.306917,1.529293 h 0.407458 l 0.3175,-1.571626 c 0.02646,-0.142876 0.04763,-0.275167 0.04763,-0.423334 0,-0.386292 -0.206376,-0.640292 -0.661459,-0.640292 -0.460375,0 -0.846667,0.280458 -1.153584,0.587375 h -0.02117 l 0.0635,-0.523875 h -0.328083 z m 5.072067,0.0635 c 0.328084,0 0.672042,-0.179917 0.941917,-0.455084 h 0.02117 l -0.04233,0.391584 h 0.333375 l 0.513292,-2.571752 h -0.328084 l -0.100541,0.322792 h -0.02117 c -0.142875,-0.232834 -0.423334,-0.386292 -0.788459,-0.386292 -0.783167,0 -1.412876,0.79375 -1.412876,1.714501 0,0.640292 0.349251,0.984251 0.883709,0.984251 z m 0.121709,-0.338667 c -0.359834,0 -0.587376,-0.22225 -0.587376,-0.709084 0,-0.687917 0.460376,-1.312334 1.047751,-1.312334 0.243417,0 0.486834,0.111125 0.661459,0.381 l -0.238125,1.143001 c -0.280459,0.322792 -0.603251,0.497417 -0.883709,0.497417 z m 2.823108,0.275167 h 0.402167 l 0.365125,-1.862668 c 0.201083,-0.280459 0.354542,-0.423334 0.550333,-0.423334 0.111125,0 0.185209,0.06879 0.185209,0.243417 0,0.05821 -0.0053,0.116417 -0.02117,0.201083 l -0.381,1.841502 h 0.391583 l 0.375709,-1.862668 c 0.1905,-0.280459 0.34925,-0.423334 0.534459,-0.423334 0.116416,0 0.179916,0.06879 0.179916,0.243417 0,0.05821 -0.0053,0.116417 -0.02117,0.201083 l -0.370417,1.841502 h 0.402167 l 0.381,-1.894418 c 0.02646,-0.127 0.03175,-0.201084 0.03175,-0.291042 0,-0.306917 -0.153458,-0.449792 -0.402167,-0.449792 -0.232833,0 -0.47625,0.116417 -0.719667,0.418042 -0.01058,-0.291042 -0.148167,-0.418042 -0.386292,-0.418042 -0.264583,0 -0.486833,0.153458 -0.693209,0.41275 h -0.01587 l 0.03704,-0.34925 h -0.312208 z m 5.881693,-2.31246 c 0.381,0 0.619125,0.248708 0.619125,0.650875 0,0.05292 -0.0053,0.105834 -0.01588,0.15875 h -1.576918 c 0.158751,-0.497417 0.582084,-0.809625 0.973668,-0.809625 z m -0.34925,2.37596 c 0.449791,0 0.851958,-0.174626 1.11125,-0.381001 l -0.153458,-0.275167 c -0.238125,0.190501 -0.539751,0.333376 -0.878417,0.333376 -0.465667,0 -0.772584,-0.291042 -0.772584,-0.809626 0,-0.04233 0,-0.07937 0.0053,-0.116417 h 1.968502 c 0.02646,-0.06879 0.06879,-0.280458 0.06879,-0.460375 0,-0.5715 -0.34925,-0.989542 -0.978959,-0.989542 -0.777875,0 -1.465792,0.661459 -1.465792,1.587501 0,0.719667 0.428625,1.111251 1.095376,1.111251 z m 4.103692,0 c 0.60325,0 1.084792,-0.222251 1.084792,-0.777876 0,-0.418042 -0.333375,-0.587375 -0.814917,-0.751417 -0.412751,-0.142875 -0.635001,-0.248709 -0.635001,-0.486834 0,-0.227541 0.201084,-0.365125 0.534459,-0.365125 0.381,0 0.677334,0.169334 0.889001,0.34925 l 0.227541,-0.248708 c -0.216958,-0.216959 -0.582083,-0.418042 -1.074209,-0.418042 -0.523875,0 -0.963084,0.238125 -0.963084,0.73025 0,0.354542 0.238126,0.571501 0.772584,0.751417 0.428626,0.142876 0.677334,0.243417 0.677334,0.492126 0,0.28575 -0.264584,0.407458 -0.624417,0.407458 -0.370417,0 -0.724959,-0.127 -0.978959,-0.41275 L 55.19701,64.82388 c 0.248708,0.28575 0.693208,0.470959 1.137709,0.470959 z m 2.648481,1.021292 h 0.402167 l 0.164042,-0.841376 0.09525,-0.550333 h 0.01588 c 0.164042,0.216958 0.455084,0.370417 0.777876,0.370417 0.841375,0 1.412876,-0.746126 1.412876,-1.67746 0,-0.656167 -0.343959,-1.021292 -0.878418,-1.021292 -0.359833,0 -0.682625,0.211667 -0.9525,0.460375 h -0.01588 l 0.04233,-0.396875 h -0.333375 z m 1.428751,-1.359959 c -0.248708,0 -0.497417,-0.100542 -0.677333,-0.370417 l 0.232833,-1.153584 c 0.275167,-0.312209 0.608542,-0.497417 0.867834,-0.497417 0.365125,0 0.597959,0.243417 0.597959,0.740834 0,0.693208 -0.433917,1.280584 -1.021293,1.280584 z m 3.860277,0.338667 c 0.328083,0 0.672042,-0.179917 0.941917,-0.455084 h 0.02117 l -0.04233,0.391584 h 0.333375 l 0.513292,-2.571752 h -0.328083 l -0.100542,0.322792 h -0.02117 c -0.142875,-0.232834 -0.423333,-0.386292 -0.788458,-0.386292 -0.783168,0 -1.412876,0.79375 -1.412876,1.714501 0,0.640292 0.34925,0.984251 0.883709,0.984251 z m 0.121708,-0.338667 c -0.359834,0 -0.587375,-0.22225 -0.587375,-0.709084 0,-0.687917 0.460375,-1.312334 1.04775,-1.312334 0.243417,0 0.486834,0.111125 0.661459,0.381 l -0.238125,1.143001 c -0.280459,0.322792 -0.603251,0.497417 -0.883709,0.497417 z m 4.362983,0.338667 c 0.386292,0 0.767292,-0.169334 1.037167,-0.418042 L 69.630044,64.60163 c -0.238125,0.206375 -0.518583,0.354542 -0.820208,0.354542 -0.476251,0 -0.830793,-0.275167 -0.830793,-0.841376 0,-0.656167 0.555626,-1.180042 1.090084,-1.180042 0.333376,0 0.571501,0.116417 0.762001,0.354542 l 0.259292,-0.232834 c -0.185209,-0.243417 -0.518584,-0.460375 -0.968376,-0.460375 -0.804334,0 -1.550459,0.629709 -1.550459,1.566334 0,0.751417 0.513292,1.132418 1.185334,1.132418 z m 4.341818,-2.37596 c 0.381,0 0.619125,0.248708 0.619125,0.650875 0,0.05292 -0.0053,0.105834 -0.01587,0.15875 H 72.12507 c 0.15875,-0.497417 0.582083,-0.809625 0.973667,-0.809625 z m -0.34925,2.37596 c 0.449792,0 0.851959,-0.174626 1.11125,-0.381001 l -0.153458,-0.275167 c -0.238125,0.190501 -0.53975,0.333376 -0.878417,0.333376 -0.465667,0 -0.772584,-0.291042 -0.772584,-0.809626 0,-0.04233 0,-0.07937 0.0053,-0.116417 h 1.968501 c 0.02646,-0.06879 0.06879,-0.280458 0.06879,-0.460375 0,-0.5715 -0.349251,-0.989542 -0.978959,-0.989542 -0.777876,0 -1.465793,0.661459 -1.465793,1.587501 0,0.719667 0.428625,1.111251 1.095376,1.111251 z m 6.873881,-0.0635 h 0.41275 l 0.328084,-1.651001 h 1.502834 l -0.333375,1.651001 h 0.41275 l 0.693209,-3.471336 h -0.41275 l -0.291042,1.465793 h -1.502834 l 0.296333,-1.465793 h -0.41275 z m 5.786446,-2.31246 c 0.381,0 0.619125,0.248708 0.619125,0.650875 0,0.05292 -0.0053,0.105834 -0.01587,0.15875 h -1.576917 c 0.15875,-0.497417 0.582084,-0.809625 0.973667,-0.809625 z m -0.34925,2.37596 c 0.449792,0 0.851959,-0.174626 1.111251,-0.381001 l -0.153459,-0.275167 c -0.238125,0.190501 -0.53975,0.333376 -0.878417,0.333376 -0.465667,0 -0.772584,-0.291042 -0.772584,-0.809626 0,-0.04233 0,-0.07937 0.0053,-0.116417 h 1.968501 c 0.02646,-0.06879 0.06879,-0.280458 0.06879,-0.460375 0,-0.5715 -0.34925,-0.989542 -0.978959,-0.989542 -0.777876,0 -1.465793,0.661459 -1.465793,1.587501 0,0.719667 0.428626,1.111251 1.095376,1.111251 z m 4.394733,0 c 0.254,0 0.486833,-0.05821 0.714375,-0.169334 l -0.100541,-0.312208 c -0.185209,0.09525 -0.333376,0.142875 -0.502709,0.142875 -0.238125,0 -0.391584,-0.116417 -0.391584,-0.381001 0,-0.07408 0.01058,-0.153458 0.02646,-0.232833 l 0.60325,-2.878668 h -1.254126 l -0.06879,0.328083 h 0.85725 l -0.534459,2.53471 c -0.02646,0.111125 -0.03704,0.195792 -0.03704,0.28575 0,0.449792 0.291042,0.682626 0.687917,0.682626 z m 4.103691,0 c 0.254,0 0.486834,-0.05821 0.714375,-0.169334 l -0.100541,-0.312208 c -0.185209,0.09525 -0.333376,0.142875 -0.502709,0.142875 -0.238125,0 -0.391584,-0.116417 -0.391584,-0.381001 0,-0.07408 0.01058,-0.153458 0.02646,-0.232833 l 0.60325,-2.878668 h -1.254126 l -0.06879,0.328083 h 0.85725 l -0.534458,2.53471 c -0.02646,0.111125 -0.03704,0.195792 -0.03704,0.28575 0,0.449792 0.291042,0.682626 0.687917,0.682626 z m 3.706816,0 c 0.783167,0 1.476376,-0.672043 1.476376,-1.571626 0,-0.666751 -0.402167,-1.127126 -1.074209,-1.127126 -0.788459,0 -1.481668,0.672042 -1.481668,1.571626 0,0.66675 0.402167,1.127126 1.079501,1.127126 z m 0.02646,-0.338667 c -0.433917,0 -0.693209,-0.317501 -0.693209,-0.814917 0,-0.666751 0.492126,-1.206501 1.037168,-1.206501 0.439208,0 0.6985,0.312208 0.6985,0.814917 0,0.66675 -0.497417,1.206501 -1.042459,1.206501 z m 3.040066,0.275167 h 0.52917 l 0.60325,-1.407585 c 0.09,-0.206375 0.18521,-0.492125 0.23812,-0.661458 h 0.0265 c 0,0.164041 0.0159,0.455083 0.0318,0.661458 l 0.0952,1.407585 h 0.508 l 1.0795,-3.476628 h -0.39158 l -0.70908,2.370669 c -0.0318,0.105833 -0.15346,0.629708 -0.17463,0.73025 h -0.0317 c -0.005,-0.238125 -0.0423,-0.703792 -0.0635,-0.947209 l -0.10054,-1.185334 h -0.34925 l -0.62971,1.418168 c -0.0476,0.100541 -0.25929,0.629708 -0.29633,0.735542 h -0.0212 c 0.0159,-0.100542 0.0529,-0.407459 0.0794,-0.724959 l 0.17991,-2.397127 H 100.544 Z m 5.14086,0.0635 c 0.78317,0 1.47638,-0.672043 1.47638,-1.571626 0,-0.666751 -0.40217,-1.127126 -1.07421,-1.127126 -0.78846,0 -1.48167,0.672042 -1.48167,1.571626 0,0.66675 0.40217,1.127126 1.0795,1.127126 z m 0.0265,-0.338667 c -0.43392,0 -0.69321,-0.317501 -0.69321,-0.814917 0,-0.666751 0.49212,-1.206501 1.03717,-1.206501 0.43921,0 0.6985,0.312208 0.6985,0.814917 0,0.66675 -0.49742,1.206501 -1.04246,1.206501 z m 3.26761,0.275167 h 0.40216 l 0.26988,-1.338793 c 0.35454,-0.550334 0.76729,-0.926042 1.16416,-0.926042 0.16934,0 0.29634,0.02646 0.42863,0.111125 l 0.15875,-0.34925 c -0.12171,-0.08467 -0.29104,-0.132292 -0.51858,-0.132292 -0.4445,0 -0.86255,0.359833 -1.1483,0.799042 h -0.0212 l 0.11112,-0.735542 h -0.33337 z m 5.31019,0.0635 c 0.254,0 0.48683,-0.05821 0.71437,-0.169334 l -0.10054,-0.312208 c -0.18521,0.09525 -0.33337,0.142875 -0.50271,0.142875 -0.23812,0 -0.39158,-0.116417 -0.39158,-0.381001 0,-0.07408 0.0106,-0.153458 0.0265,-0.232833 l 0.60325,-2.878668 h -1.25413 l -0.0688,0.328083 h 0.85725 l -0.53446,2.53471 c -0.0265,0.111125 -0.037,0.195792 -0.037,0.28575 0,0.449792 0.29104,0.682626 0.68792,0.682626 z m 3.53748,0 c 0.33337,0 0.67733,-0.179917 0.94721,-0.455084 h 0.0212 l -0.0423,0.391584 h 0.33338 l 0.762,-3.767669 H 119.229 l -0.20108,1.005417 -0.0847,0.502708 h -0.0159 c -0.14816,-0.227541 -0.41275,-0.375708 -0.77787,-0.375708 -0.78317,0 -1.41288,0.79375 -1.41288,1.714501 0,0.640292 0.34925,0.984251 0.87842,0.984251 z m 0.127,-0.338667 c -0.35983,0 -0.58738,-0.227542 -0.58738,-0.709084 0,-0.687917 0.46038,-1.312334 1.04776,-1.312334 0.24341,0 0.48154,0.111125 0.65616,0.381 l -0.23283,1.143001 c -0.28046,0.322792 -0.60325,0.497417 -0.88371,0.497417 z"
         id="path22" /><path
         style="font-style:italic;-inkscape-font-specification:'Source Code Pro Italic'"
         d="m 40.131617,71.327342 h 0.534459 l 0.05292,-0.238125 h -0.428625 c -0.291042,0 -0.460375,-0.100542 -0.460375,-0.312209 0,-0.312208 0.269875,-0.978958 0.269875,-1.322917 0,-0.179917 -0.08996,-0.338667 -0.328083,-0.375709 v -0.02117 c 0.312208,-0.05292 0.470958,-0.248709 0.545042,-0.592667 0.05821,-0.322792 0.100541,-0.650876 0.15875,-0.952501 0.06879,-0.338667 0.306917,-0.497417 0.613833,-0.497417 h 0.439209 l 0.04762,-0.238125 h -0.53975 c -0.455084,0 -0.767292,0.164042 -0.883709,0.714376 -0.07408,0.359833 -0.09525,0.672042 -0.164042,1.010708 -0.04233,0.201084 -0.195792,0.418042 -0.846667,0.418042 l -0.0635,0.264584 c 0.608542,0 0.703792,0.174625 0.703792,0.34925 0,0.28575 -0.291042,0.952501 -0.291042,1.317626 0,0.328083 0.243417,0.47625 0.640292,0.47625 z"
         id="path24" /><path
         style="font-style:italic;-inkscape-font-specification:'Source Code Pro Italic'"
         d="m 48.23846,75.878178 c 0.386291,0 0.767292,-0.169333 1.037167,-0.418042 l -0.164042,-0.275167 c -0.238125,0.206376 -0.518584,0.354542 -0.820209,0.354542 -0.47625,0 -0.830792,-0.275166 -0.830792,-0.841375 0,-0.656167 0.555625,-1.180043 1.090084,-1.180043 0.333375,0 0.5715,0.116417 0.762001,0.354542 l 0.259291,-0.232833 c -0.185208,-0.243417 -0.518583,-0.460375 -0.968375,-0.460375 -0.804334,0 -1.55046,0.629708 -1.55046,1.566334 0,0.751417 0.513292,1.132417 1.185335,1.132417 z m 4.283608,0 c 0.254001,0 0.486834,-0.05821 0.714376,-0.169333 l -0.100542,-0.312209 c -0.185208,0.09525 -0.333375,0.142875 -0.502709,0.142875 -0.238125,0 -0.391583,-0.116416 -0.391583,-0.381 0,-0.07408 0.01058,-0.153458 0.02646,-0.232833 l 0.603251,-2.878669 h -1.254126 l -0.06879,0.328084 h 0.857251 l -0.534459,2.53471 c -0.02646,0.111125 -0.03704,0.195791 -0.03704,0.28575 0,0.449792 0.291042,0.682625 0.687917,0.682625 z m 3.542775,0 c 0.328084,0 0.672042,-0.179917 0.941918,-0.455083 h 0.02117 l -0.04233,0.391583 h 0.333375 l 0.513292,-2.571751 h -0.328083 l -0.100542,0.322792 h -0.02117 c -0.142875,-0.232834 -0.423333,-0.386292 -0.788459,-0.386292 -0.783167,0 -1.412875,0.79375 -1.412875,1.714501 0,0.640292 0.34925,0.98425 0.883708,0.98425 z m 0.121709,-0.338667 c -0.359834,0 -0.587376,-0.22225 -0.587376,-0.709083 0,-0.687917 0.460376,-1.312335 1.047751,-1.312335 0.243417,0 0.486834,0.111126 0.661459,0.381001 l -0.238125,1.143 c -0.280459,0.322792 -0.603251,0.497417 -0.883709,0.497417 z m 4.251858,0.338667 c 0.60325,0 1.084792,-0.22225 1.084792,-0.777875 0,-0.418042 -0.333375,-0.587376 -0.814917,-0.751417 -0.41275,-0.142875 -0.635001,-0.248709 -0.635001,-0.486834 0,-0.227542 0.201084,-0.365125 0.534459,-0.365125 0.381,0 0.677334,0.169333 0.889001,0.34925 l 0.227541,-0.248708 c -0.216958,-0.216959 -0.582083,-0.418042 -1.074209,-0.418042 -0.523875,0 -0.963083,0.238125 -0.963083,0.73025 0,0.354542 0.238125,0.5715 0.772583,0.751417 0.428626,0.142875 0.677334,0.243417 0.677334,0.492125 0,0.285751 -0.264583,0.407459 -0.624417,0.407459 -0.370417,0 -0.724959,-0.127 -0.978959,-0.41275 l -0.232833,0.259292 c 0.248708,0.28575 0.693208,0.470958 1.137709,0.470958 z m 4.103693,0 c 0.60325,0 1.084792,-0.22225 1.084792,-0.777875 0,-0.418042 -0.333375,-0.587376 -0.814917,-0.751417 -0.41275,-0.142875 -0.635001,-0.248709 -0.635001,-0.486834 0,-0.227542 0.201084,-0.365125 0.534459,-0.365125 0.381,0 0.677334,0.169333 0.889001,0.34925 l 0.227541,-0.248708 c -0.216958,-0.216959 -0.582083,-0.418042 -1.074209,-0.418042 -0.523875,0 -0.963083,0.238125 -0.963083,0.73025 0,0.354542 0.238125,0.5715 0.772583,0.751417 0.428626,0.142875 0.677334,0.243417 0.677334,0.492125 0,0.285751 -0.264583,0.407459 -0.624417,0.407459 -0.370417,0 -0.724959,-0.127 -0.978959,-0.41275 l -0.232833,0.259292 c 0.248708,0.28575 0.693208,0.470958 1.137709,0.470958 z m 7.0538,-0.0635 h 0.407458 l 0.280459,-1.397001 h 0.555625 c 0.883709,0 1.513418,-0.375708 1.513418,-1.227667 0,-0.60325 -0.439209,-0.846667 -1.095376,-0.846667 h -0.968375 z m 0.756709,-1.730376 0.275166,-1.412876 h 0.523876 c 0.518583,0 0.788459,0.169334 0.788459,0.571501 0,0.555625 -0.381001,0.841375 -1.100668,0.841375 z m 3.585107,1.730376 h 0.402167 l 0.269875,-1.338792 c 0.354542,-0.550334 0.767292,-0.926043 1.164167,-0.926043 0.169334,0 0.296334,0.02646 0.428626,0.111126 l 0.15875,-0.349251 c -0.121709,-0.08467 -0.291042,-0.132291 -0.518584,-0.132291 -0.4445,0 -0.862542,0.359833 -1.148292,0.799042 h -0.02117 l 0.111125,-0.735542 h -0.333375 z m 4.913317,0.0635 c 0.783167,0 1.476375,-0.672042 1.476375,-1.571626 0,-0.66675 -0.402166,-1.127125 -1.074208,-1.127125 -0.788459,0 -1.481668,0.672042 -1.481668,1.571626 0,0.66675 0.402167,1.127125 1.079501,1.127125 z m 0.02646,-0.338667 c -0.433917,0 -0.693209,-0.3175 -0.693209,-0.814917 0,-0.66675 0.492125,-1.206501 1.037167,-1.206501 0.439209,0 0.698501,0.312209 0.698501,0.814918 0,0.66675 -0.497417,1.2065 -1.042459,1.2065 z m 3.817945,1.42346 c 0.645583,0 1.180042,-0.296334 1.322917,-1.016001 l 0.53975,-2.704043 h -0.322791 l -0.105834,0.322792 h -0.02117 c -0.142876,-0.232834 -0.423334,-0.386292 -0.788459,-0.386292 -0.767292,0 -1.397001,0.746125 -1.397001,1.651001 0,0.613833 0.34925,0.963084 0.894292,0.963084 0.328084,0 0.66675,-0.169334 0.915459,-0.412751 h 0.02117 l -0.116417,0.545042 c -0.111125,0.497417 -0.481542,0.703792 -0.936626,0.703792 -0.28575,0 -0.587375,-0.09525 -0.79375,-0.275166 l -0.1905,0.291041 c 0.232833,0.185209 0.555625,0.317501 0.978959,0.317501 z m 0.243417,-1.508126 c -0.375709,0 -0.597959,-0.22225 -0.597959,-0.687917 0,-0.666751 0.470958,-1.248835 1.026584,-1.248835 0.254,0 0.481542,0.116417 0.661458,0.386292 l -0.232833,1.095376 c -0.269875,0.291042 -0.576792,0.455084 -0.85725,0.455084 z m 3.30994,0.359833 h 0.402167 l 0.269875,-1.338792 c 0.354542,-0.550334 0.767292,-0.926043 1.164168,-0.926043 0.169333,0 0.296333,0.02646 0.428625,0.111126 l 0.15875,-0.349251 c -0.121708,-0.08467 -0.291042,-0.132291 -0.518584,-0.132291 -0.4445,0 -0.862542,0.359833 -1.148292,0.799042 h -0.02117 l 0.111125,-0.735542 h -0.333375 z m 4.749275,0.0635 c 0.328083,0 0.672042,-0.179917 0.941917,-0.455083 h 0.02117 l -0.04233,0.391583 h 0.333375 l 0.513292,-2.571751 h -0.328084 l -0.100542,0.322792 h -0.02117 c -0.142875,-0.232834 -0.423334,-0.386292 -0.788459,-0.386292 -0.783167,0 -1.412876,0.79375 -1.412876,1.714501 0,0.640292 0.34925,0.98425 0.883709,0.98425 z m 0.121708,-0.338667 c -0.359833,0 -0.587375,-0.22225 -0.587375,-0.709083 0,-0.687917 0.460375,-1.312335 1.047751,-1.312335 0.243416,0 0.486833,0.111126 0.661458,0.381001 l -0.238125,1.143 c -0.280458,0.322792 -0.60325,0.497417 -0.883709,0.497417 z m 2.823107,0.275167 h 0.402167 L 96.71018,73.95201 c 0.201084,-0.280458 0.354542,-0.423333 0.550334,-0.423333 0.111125,0 0.185209,0.06879 0.185209,0.243417 0,0.05821 -0.0053,0.116416 -0.02117,0.201083 l -0.381,1.841501 h 0.391583 l 0.375709,-1.862668 c 0.1905,-0.280458 0.34925,-0.423333 0.534458,-0.423333 0.116417,0 0.179917,0.06879 0.179917,0.243417 0,0.05821 -0.0053,0.116416 -0.02117,0.201083 l -0.370417,1.841501 H 98.5358 l 0.381,-1.894418 c 0.02646,-0.127 0.03175,-0.201083 0.03175,-0.291041 0,-0.306917 -0.153459,-0.449792 -0.402167,-0.449792 -0.232834,0 -0.47625,0.116416 -0.719667,0.418042 -0.01058,-0.291042 -0.148167,-0.418042 -0.386292,-0.418042 -0.264584,0 -0.486834,0.153458 -0.693209,0.41275 h -0.01587 l 0.03704,-0.34925 h -0.312209 z"
         id="path26-8" /><path
         style="font-style:italic;-inkscape-font-specification:'Source Code Pro Italic'"
         d="m 48.339001,81.910682 h 0.534459 l 0.05292,-0.238125 h -0.428626 c -0.291041,0 -0.460375,-0.100542 -0.460375,-0.312209 0,-0.312208 0.269875,-0.978959 0.269875,-1.322917 0,-0.179917 -0.08996,-0.338667 -0.328083,-0.375709 v -0.02117 c 0.312208,-0.05292 0.470958,-0.248708 0.545042,-0.592667 0.05821,-0.322791 0.100541,-0.650875 0.15875,-0.9525 0.06879,-0.338667 0.306917,-0.497417 0.613833,-0.497417 h 0.439209 l 0.04763,-0.238125 h -0.53975 c -0.455084,0 -0.767292,0.164042 -0.883709,0.714375 -0.07408,0.359834 -0.09525,0.672042 -0.164042,1.010709 -0.04233,0.201084 -0.195792,0.418042 -0.846667,0.418042 l -0.0635,0.264584 c 0.608542,0 0.703792,0.174625 0.703792,0.34925 0,0.28575 -0.291042,0.9525 -0.291042,1.317626 0,0.328083 0.243417,0.47625 0.640292,0.47625 z"
         id="path27-9" /><path
         style="font-style:italic;-inkscape-font-specification:'Source Code Pro Italic'"
         d="m 56.334719,86.461518 c 0.60325,0 1.084792,-0.22225 1.084792,-0.777876 0,-0.418041 -0.333375,-0.587375 -0.814917,-0.751417 -0.412751,-0.142875 -0.635001,-0.248708 -0.635001,-0.486833 0,-0.227542 0.201084,-0.365126 0.534459,-0.365126 0.381,0 0.677334,0.169334 0.889001,0.349251 l 0.227541,-0.248709 c -0.216958,-0.216958 -0.582083,-0.418042 -1.074209,-0.418042 -0.523875,0 -0.963084,0.238125 -0.963084,0.730251 0,0.354542 0.238126,0.5715 0.772584,0.751417 0.428626,0.142875 0.677334,0.243417 0.677334,0.492125 0,0.28575 -0.264584,0.407459 -0.624417,0.407459 -0.370417,0 -0.724959,-0.127 -0.978959,-0.412751 l -0.232833,0.259292 c 0.248708,0.28575 0.693208,0.470959 1.137709,0.470959 z m 4.299482,0 c 0.359834,0 0.682626,-0.09525 0.904876,-0.232834 l -0.132292,-0.291041 c -0.185208,0.100541 -0.41275,0.185208 -0.66675,0.185208 -0.291042,0 -0.47625,-0.15875 -0.47625,-0.481542 0,-0.07408 0.0053,-0.142875 0.02646,-0.238125 l 0.259292,-1.248834 h 1.270001 l 0.06879,-0.328084 h -1.270001 l 0.169334,-0.8255 h -0.333375 l -0.22225,0.8255 -0.772584,0.02646 -0.05821,0.301625 h 0.746126 l -0.254,1.238251 c -0.02117,0.121708 -0.04233,0.22225 -0.04233,0.333375 0,0.439208 0.243417,0.735542 0.783167,0.735542 z m 3.638027,0 c 0.328083,0 0.672042,-0.179917 0.941917,-0.455084 h 0.02117 l -0.04233,0.391584 h 0.333375 l 0.513292,-2.571752 h -0.328083 l -0.100542,0.322792 h -0.02117 c -0.142875,-0.232833 -0.423333,-0.386292 -0.788458,-0.386292 -0.783168,0 -1.412876,0.793751 -1.412876,1.714501 0,0.640292 0.34925,0.984251 0.883709,0.984251 z m 0.121708,-0.338667 c -0.359834,0 -0.587375,-0.22225 -0.587375,-0.709084 0,-0.687917 0.460375,-1.312334 1.04775,-1.312334 0.243417,0 0.486834,0.111125 0.661459,0.381 l -0.238125,1.143001 c -0.280459,0.322792 -0.603251,0.497417 -0.883709,0.497417 z m 4.44765,0.338667 c 0.359833,0 0.682625,-0.09525 0.904875,-0.232834 l -0.132292,-0.291041 c -0.185208,0.100541 -0.41275,0.185208 -0.66675,0.185208 -0.291042,0 -0.47625,-0.15875 -0.47625,-0.481542 0,-0.07408 0.0053,-0.142875 0.02646,-0.238125 l 0.259292,-1.248834 h 1.270001 l 0.06879,-0.328084 h -1.27 l 0.169333,-0.8255 H 68.66167 l -0.22225,0.8255 -0.772584,0.02646 -0.05821,0.301625 h 0.746126 l -0.254,1.238251 c -0.02117,0.121708 -0.04233,0.22225 -0.04233,0.333375 0,0.439208 0.243417,0.735542 0.783168,0.735542 z m 4.315359,0 c 0.280459,0 0.486834,-0.06879 0.703792,-0.169334 l -0.09525,-0.306916 c -0.185208,0.08467 -0.333375,0.137583 -0.492125,0.137583 -0.232833,0 -0.396875,-0.111125 -0.396875,-0.381 0,-0.05292 0.01058,-0.105834 0.02117,-0.169334 l 0.386291,-1.746251 h -1.344084 l -0.06879,0.328084 h 0.941917 l -0.306917,1.381126 c -0.02646,0.100541 -0.04233,0.195791 -0.04233,0.280458 0,0.423334 0.28575,0.645584 0.693208,0.645584 z m -0.02646,-3.180294 c 0.201083,0 0.370417,-0.15875 0.370417,-0.365125 0,-0.179917 -0.121708,-0.280458 -0.306917,-0.280458 -0.195792,0 -0.365125,0.164041 -0.365125,0.365125 0,0.179917 0.132292,0.280458 0.301625,0.280458 z m 3.833816,3.180294 c 0.386292,0 0.767292,-0.169334 1.037167,-0.418042 l -0.164042,-0.275167 c -0.238125,0.206375 -0.518583,0.354542 -0.820208,0.354542 -0.476251,0 -0.830793,-0.275167 -0.830793,-0.841375 0,-0.656168 0.555626,-1.180043 1.090084,-1.180043 0.333376,0 0.571501,0.116417 0.762001,0.354542 l 0.259292,-0.232833 c -0.185209,-0.243417 -0.518584,-0.460376 -0.968376,-0.460376 -0.804334,0 -1.550459,0.629709 -1.550459,1.566335 0,0.751417 0.513292,1.132417 1.185334,1.132417 z m 7.709969,-0.0635 h 0.47625 l 1.561043,-2.571752 h -0.41275 l -0.883709,1.492251 c -0.15875,0.264584 -0.306917,0.518584 -0.428625,0.762001 h -0.02117 c -0.05292,-0.243417 -0.09525,-0.508001 -0.148167,-0.756709 L 84.49435,83.826266 h -0.402167 z m 4.38415,0.0635 c 0.783167,0 1.476375,-0.672042 1.476375,-1.571626 0,-0.66675 -0.402166,-1.127126 -1.074208,-1.127126 -0.788459,0 -1.481668,0.672042 -1.481668,1.571626 0,0.666751 0.402167,1.127126 1.079501,1.127126 z m 0.02646,-0.338667 c -0.433917,0 -0.693209,-0.3175 -0.693209,-0.814917 0,-0.666751 0.492126,-1.206501 1.037168,-1.206501 0.439208,0 0.6985,0.312209 0.6985,0.814917 0,0.666751 -0.497417,1.206501 -1.042459,1.206501 z m 4.590525,0.338667 c 0.280458,0 0.486833,-0.06879 0.703792,-0.169334 l -0.09525,-0.306916 c -0.185209,0.08467 -0.333375,0.137583 -0.492126,0.137583 -0.232833,0 -0.396875,-0.111125 -0.396875,-0.381 0,-0.05292 0.01058,-0.105834 0.02117,-0.169334 l 0.386292,-1.746251 h -1.344084 l -0.06879,0.328084 h 0.941917 l -0.306917,1.381126 c -0.02646,0.100541 -0.04233,0.195791 -0.04233,0.280458 0,0.423334 0.28575,0.645584 0.693209,0.645584 z m -0.02646,-3.180294 c 0.201084,0 0.370417,-0.15875 0.370417,-0.365125 0,-0.179917 -0.121708,-0.280458 -0.306917,-0.280458 -0.195791,0 -0.365125,0.164041 -0.365125,0.365125 0,0.179917 0.132292,0.280458 0.301625,0.280458 z m 3.447524,3.180294 c 0.333376,0 0.677334,-0.179917 0.947209,-0.455084 h 0.02117 l -0.04233,0.391584 h 0.333375 l 0.762,-3.767669 H 98.71043 l -0.201084,1.005417 -0.08467,0.502709 h -0.01587 c -0.148167,-0.227542 -0.412751,-0.375709 -0.777876,-0.375709 -0.783167,0 -1.412876,0.793751 -1.412876,1.714501 0,0.640292 0.34925,0.984251 0.878417,0.984251 z m 0.127,-0.338667 c -0.359833,0 -0.587375,-0.227542 -0.587375,-0.709084 0,-0.687917 0.460375,-1.312334 1.047751,-1.312334 0.243417,0 0.481542,0.111125 0.656167,0.381 l -0.232834,1.143001 c -0.280458,0.322792 -0.60325,0.497417 -0.883709,0.497417 z m 7.006181,0.275167 h 0.37571 l 0.42333,-2.084918 c 0.0423,-0.201083 0.0847,-0.613834 0.11642,-0.920751 h 0.0212 c 0.0212,0.121709 0.0582,0.587376 0.0741,0.698501 l 0.17991,1.365251 h 0.33867 l 0.74083,-1.39171 c 0.10584,-0.195791 0.28575,-0.555625 0.34396,-0.672042 h 0.0212 c -0.0794,0.275167 -0.20638,0.698501 -0.25929,0.963084 l -0.41275,2.042585 h 0.38629 l 0.68792,-3.471336 h -0.49213 l -0.86783,1.576918 -0.23284,0.508 h -0.0212 l -0.0318,-0.513292 -0.20109,-1.571626 h -0.49741 z m 5.18319,0.0635 c 0.32808,0 0.67204,-0.179917 0.94192,-0.455084 h 0.0212 l -0.0423,0.391584 h 0.33337 l 0.5133,-2.571752 h -0.32809 l -0.10054,0.322792 h -0.0212 c -0.14287,-0.232833 -0.42333,-0.386292 -0.78845,-0.386292 -0.78317,0 -1.41288,0.793751 -1.41288,1.714501 0,0.640292 0.34925,0.984251 0.88371,0.984251 z m 0.12171,-0.338667 c -0.35984,0 -0.58738,-0.22225 -0.58738,-0.709084 0,-0.687917 0.46038,-1.312334 1.04775,-1.312334 0.24342,0 0.48684,0.111125 0.66146,0.381 l -0.23812,1.143001 c -0.28046,0.322792 -0.60325,0.497417 -0.88371,0.497417 z m 4.65931,0.338667 c 0.28046,0 0.48684,-0.06879 0.7038,-0.169334 l -0.0953,-0.306916 c -0.18521,0.08467 -0.33338,0.137583 -0.49213,0.137583 -0.23283,0 -0.39687,-0.111125 -0.39687,-0.381 0,-0.05292 0.0106,-0.105834 0.0212,-0.169334 l 0.38629,-1.746251 h -1.34408 l -0.0688,0.328084 h 0.94192 l -0.30692,1.381126 c -0.0265,0.100541 -0.0423,0.195791 -0.0423,0.280458 0,0.423334 0.28575,0.645584 0.6932,0.645584 z m -0.0264,-3.180294 c 0.20108,0 0.37041,-0.15875 0.37041,-0.365125 0,-0.179917 -0.12171,-0.280458 -0.30691,-0.280458 -0.1958,0 -0.36513,0.164041 -0.36513,0.365125 0,0.179917 0.13229,0.280458 0.30163,0.280458 z m 2.48444,3.116794 h 0.40216 l 0.33338,-1.661584 c 0.35454,-0.391584 0.70908,-0.624417 1.05304,-0.624417 0.26458,0 0.40746,0.142875 0.40746,0.396875 0,0.116416 -0.0159,0.227542 -0.0476,0.359833 l -0.30691,1.529293 h 0.40746 l 0.3175,-1.571626 c 0.0264,-0.142875 0.0476,-0.275167 0.0476,-0.423334 0,-0.386292 -0.20637,-0.640292 -0.66146,-0.640292 -0.46037,0 -0.84667,0.280459 -1.15358,0.587376 h -0.0212 l 0.0635,-0.523876 h -0.32808 z m 5.73352,0.931334 0.27517,-0.216959 c -0.46038,-0.4445 -0.68792,-1.021292 -0.68792,-1.693334 0,-1.042459 0.47096,-1.947335 1.55575,-2.656418 l -0.1905,-0.248709 c -1.07421,0.650876 -1.73037,1.651001 -1.73037,2.91571 0,0.777876 0.29104,1.45521 0.77787,1.89971 z m 3.71211,-0.867834 c 0.60325,0 1.08479,-0.22225 1.08479,-0.777876 0,-0.418041 -0.33337,-0.587375 -0.81492,-0.751417 -0.41275,-0.142875 -0.635,-0.248708 -0.635,-0.486833 0,-0.227542 0.20109,-0.365126 0.53446,-0.365126 0.381,0 0.67734,0.169334 0.889,0.349251 l 0.22754,-0.248709 c -0.21695,-0.216958 -0.58208,-0.418042 -1.0742,-0.418042 -0.52388,0 -0.96309,0.238125 -0.96309,0.730251 0,0.354542 0.23813,0.5715 0.77259,0.751417 0.42862,0.142875 0.67733,0.243417 0.67733,0.492125 0,0.28575 -0.26458,0.407459 -0.62442,0.407459 -0.37041,0 -0.72496,-0.127 -0.97896,-0.412751 l -0.23283,0.259292 c 0.24871,0.28575 0.69321,0.470959 1.13771,0.470959 z m 4.29949,0 c 0.35983,0 0.68262,-0.09525 0.90487,-0.232834 l -0.13229,-0.291041 c -0.18521,0.100541 -0.41275,0.185208 -0.66675,0.185208 -0.29104,0 -0.47625,-0.15875 -0.47625,-0.481542 0,-0.07408 0.005,-0.142875 0.0265,-0.238125 l 0.25929,-1.248834 h 1.27 l 0.0688,-0.328084 h -1.27001 l 0.16934,-0.8255 h -0.33338 l -0.22225,0.8255 -0.77258,0.02646 -0.0582,0.301625 h 0.74613 l -0.254,1.238251 c -0.0212,0.121708 -0.0423,0.22225 -0.0423,0.333375 0,0.439208 0.24342,0.735542 0.78317,0.735542 z m 2.99244,-0.0635 h 0.40217 l 0.26987,-1.338793 c 0.35454,-0.550333 0.76729,-0.926042 1.16417,-0.926042 0.16933,0 0.29633,0.02646 0.42862,0.111125 l 0.15875,-0.34925 c -0.1217,-0.08467 -0.29104,-0.132292 -0.51858,-0.132292 -0.4445,0 -0.86254,0.359834 -1.14829,0.799042 h -0.0212 l 0.11113,-0.735542 h -0.33338 z m 5.42661,0.0635 c 0.28046,0 0.48683,-0.06879 0.70379,-0.169334 l -0.0952,-0.306916 c -0.18521,0.08467 -0.33337,0.137583 -0.49213,0.137583 -0.23283,0 -0.39687,-0.111125 -0.39687,-0.381 0,-0.05292 0.0106,-0.105834 0.0212,-0.169334 l 0.38629,-1.746251 h -1.34409 l -0.0688,0.328084 h 0.94192 l -0.30692,1.381126 c -0.0265,0.100541 -0.0423,0.195791 -0.0423,0.280458 0,0.423334 0.28575,0.645584 0.69321,0.645584 z m -0.0265,-3.180294 c 0.20108,0 0.37042,-0.15875 0.37042,-0.365125 0,-0.179917 -0.12171,-0.280458 -0.30692,-0.280458 -0.19579,0 -0.36513,0.164041 -0.36513,0.365125 0,0.179917 0.1323,0.280458 0.30163,0.280458 z m 2.48444,3.116794 h 0.40217 l 0.33337,-1.661584 c 0.35454,-0.391584 0.70909,-0.624417 1.05304,-0.624417 0.26459,0 0.40746,0.142875 0.40746,0.396875 0,0.116416 -0.0159,0.227542 -0.0476,0.359833 l -0.30692,1.529293 h 0.40746 l 0.3175,-1.571626 c 0.0265,-0.142875 0.0476,-0.275167 0.0476,-0.423334 0,-0.386292 -0.20637,-0.640292 -0.66145,-0.640292 -0.46038,0 -0.84667,0.280459 -1.15359,0.587376 h -0.0212 l 0.0635,-0.523876 h -0.32809 z m 4.97682,1.148292 c 0.64558,0 1.18004,-0.296333 1.32291,-1.016 l 0.53975,-2.704044 h -0.32279 l -0.10583,0.322792 h -0.0212 c -0.14287,-0.232833 -0.42333,-0.386292 -0.78846,-0.386292 -0.76729,0 -1.397,0.746126 -1.397,1.651001 0,0.613834 0.34925,0.963084 0.8943,0.963084 0.32808,0 0.66675,-0.169333 0.91545,-0.41275 h 0.0212 l -0.11642,0.545042 c -0.11112,0.497417 -0.48154,0.703792 -0.93662,0.703792 -0.28575,0 -0.58738,-0.09525 -0.79375,-0.275167 l -0.1905,0.291042 c 0.23283,0.185208 0.55562,0.3175 0.97896,0.3175 z m 0.24341,-1.508126 c -0.37571,0 -0.59796,-0.22225 -0.59796,-0.687917 0,-0.66675 0.47096,-1.248834 1.02659,-1.248834 0.254,0 0.48154,0.116417 0.66146,0.386292 l -0.23284,1.095376 c -0.26987,0.291042 -0.57679,0.455083 -0.85725,0.455083 z m 3.46869,1.164168 h 1.44463 l 0.0423,-0.238125 h -1.12183 l 0.81492,-4.074586 h 1.12712 l 0.0423,-0.238125 h -1.43405 z m 3.51103,0 h 1.43933 l 0.91017,-4.550836 h -1.43933 l -0.0476,0.238125 h 1.12183 l -0.80962,4.074586 h -1.12713 z m 9.28689,-0.740834 c 0.32808,0 0.67204,-0.179917 0.94192,-0.455084 h 0.0212 l -0.0423,0.391584 h 0.33337 l 0.5133,-2.571752 h -0.32809 l -0.10054,0.322792 h -0.0212 c -0.14287,-0.232833 -0.42333,-0.386292 -0.78845,-0.386292 -0.78317,0 -1.41288,0.793751 -1.41288,1.714501 0,0.640292 0.34925,0.984251 0.88371,0.984251 z m 0.12171,-0.338667 c -0.35984,0 -0.58738,-0.22225 -0.58738,-0.709084 0,-0.687917 0.46038,-1.312334 1.04775,-1.312334 0.24342,0 0.48684,0.111125 0.66146,0.381 l -0.23812,1.143001 c -0.28046,0.322792 -0.60325,0.497417 -0.88371,0.497417 z m 3.3364,0.275167 h 0.40216 l 0.26988,-1.338793 c 0.35454,-0.550333 0.76729,-0.926042 1.16417,-0.926042 0.16933,0 0.29633,0.02646 0.42862,0.111125 l 0.15875,-0.34925 c -0.12171,-0.08467 -0.29104,-0.132292 -0.51858,-0.132292 -0.4445,0 -0.86254,0.359834 -1.1483,0.799042 h -0.0212 l 0.11112,-0.735542 h -0.33337 z m 4.65402,1.148292 c 0.64558,0 1.18004,-0.296333 1.32292,-1.016 l 0.53975,-2.704044 h -0.32279 l -0.10584,0.322792 h -0.0212 c -0.14288,-0.232833 -0.42334,-0.386292 -0.78846,-0.386292 -0.76729,0 -1.397,0.746126 -1.397,1.651001 0,0.613834 0.34925,0.963084 0.89429,0.963084 0.32808,0 0.66675,-0.169333 0.91546,-0.41275 h 0.0212 l -0.11641,0.545042 c -0.11113,0.497417 -0.48154,0.703792 -0.93663,0.703792 -0.28575,0 -0.58737,-0.09525 -0.79375,-0.275167 l -0.1905,0.291042 c 0.23284,0.185208 0.55563,0.3175 0.97896,0.3175 z m 0.24342,-1.508126 c -0.37571,0 -0.59796,-0.22225 -0.59796,-0.687917 0,-0.66675 0.47096,-1.248834 1.02658,-1.248834 0.254,0 0.48154,0.116417 0.66146,0.386292 l -0.23283,1.095376 c -0.26988,0.291042 -0.57679,0.455083 -0.85725,0.455083 z m 4.22539,0.423334 c 0.60325,0 1.08479,-0.22225 1.08479,-0.777876 0,-0.418041 -0.33337,-0.587375 -0.81492,-0.751417 -0.41275,-0.142875 -0.635,-0.248708 -0.635,-0.486833 0,-0.227542 0.20109,-0.365126 0.53446,-0.365126 0.381,0 0.67734,0.169334 0.889,0.349251 l 0.22755,-0.248709 c -0.21696,-0.216958 -0.58209,-0.418042 -1.07421,-0.418042 -0.52388,0 -0.96309,0.238125 -0.96309,0.730251 0,0.354542 0.23813,0.5715 0.77259,0.751417 0.42862,0.142875 0.67733,0.243417 0.67733,0.492125 0,0.28575 -0.26458,0.407459 -0.62442,0.407459 -0.37041,0 -0.72496,-0.127 -0.97896,-0.412751 l -0.23283,0.259292 c 0.24871,0.28575 0.69321,0.470959 1.13771,0.470959 z m 3.06124,0.915459 c 1.06892,-0.645584 1.7145,-1.64571 1.7145,-2.910419 0,-0.777875 -0.29633,-1.4605 -0.78846,-1.899709 l -0.25929,0.206375 c 0.46567,0.455084 0.68263,1.016001 0.68263,1.703918 0,1.042459 -0.4498,1.936751 -1.54517,2.651126 z"
         id="path29" /><path
         style="font-style:italic;-inkscape-font-specification:'Source Code Pro Italic'"
         d="m 56.546385,92.494022 h 0.534459 l 0.05292,-0.238126 h -0.428626 c -0.291041,0 -0.460375,-0.100541 -0.460375,-0.312208 0,-0.312209 0.269875,-0.978959 0.269875,-1.322918 0,-0.179916 -0.08996,-0.338666 -0.328083,-0.375708 v -0.02117 c 0.312208,-0.05292 0.470958,-0.248708 0.545042,-0.592667 0.05821,-0.322792 0.100542,-0.650875 0.15875,-0.9525 0.06879,-0.338667 0.306917,-0.497417 0.613834,-0.497417 h 0.439208 l 0.04763,-0.238126 h -0.53975 c -0.455084,0 -0.767292,0.164042 -0.883709,0.714376 -0.07408,0.359833 -0.09525,0.672042 -0.164042,1.010709 -0.04233,0.201083 -0.195792,0.418042 -0.846667,0.418042 l -0.0635,0.264583 c 0.608542,0 0.703792,0.174625 0.703792,0.34925 0,0.285751 -0.291042,0.952501 -0.291042,1.317626 0,0.328084 0.243417,0.476251 0.640292,0.476251 z"
         id="path31" /><path
         style="font-style:italic;-inkscape-font-specification:'Source Code Pro Italic'"
         d="m 64.753769,97.044858 c 0.418042,0 0.740834,-0.179917 1.000126,-0.402167 l -0.1905,-0.264584 c -0.227542,0.1905 -0.465667,0.312209 -0.735542,0.312209 -0.619126,0 -0.883709,-0.455084 -0.883709,-1.084793 0,-0.841375 0.523875,-1.804459 1.349376,-1.804459 0.264583,0 0.449792,0.142875 0.587375,0.375709 l 0.291042,-0.216959 c -0.174625,-0.301625 -0.460375,-0.513292 -0.857251,-0.513292 -1.074209,0 -1.793876,1.105959 -1.793876,2.196043 0,0.830792 0.439209,1.402293 1.232959,1.402293 z m 3.786191,0 c 0.783168,0 1.476376,-0.672042 1.476376,-1.571626 0,-0.666751 -0.402167,-1.127126 -1.074209,-1.127126 -0.788459,0 -1.481667,0.672042 -1.481667,1.571626 0,0.66675 0.402167,1.127126 1.0795,1.127126 z m 0.02646,-0.338667 c -0.433917,0 -0.693209,-0.3175 -0.693209,-0.814917 0,-0.666751 0.492125,-1.206501 1.037167,-1.206501 0.439209,0 0.698501,0.312208 0.698501,0.814917 0,0.66675 -0.497417,1.206501 -1.042459,1.206501 z m 2.944817,0.275167 h 0.402167 l 0.333375,-1.661585 c 0.354542,-0.391583 0.709084,-0.624417 1.053042,-0.624417 0.264584,0 0.407459,0.142875 0.407459,0.396875 0,0.116417 -0.01587,0.227542 -0.04762,0.359834 l -0.306917,1.529293 h 0.407459 l 0.3175,-1.571626 c 0.02646,-0.142875 0.04762,-0.275167 0.04762,-0.423334 0,-0.386292 -0.206375,-0.640292 -0.661459,-0.640292 -0.460375,0 -0.846667,0.280458 -1.153584,0.587375 h -0.02117 l 0.0635,-0.523875 h -0.328084 z m 5.341942,0.0635 c 0.60325,0 1.084792,-0.222251 1.084792,-0.777876 0,-0.418042 -0.333375,-0.587375 -0.814917,-0.751417 -0.41275,-0.142875 -0.635,-0.248708 -0.635,-0.486834 0,-0.227541 0.201083,-0.365125 0.534458,-0.365125 0.381001,0 0.677334,0.169334 0.889001,0.34925 l 0.227542,-0.248708 c -0.216959,-0.216959 -0.582084,-0.418042 -1.074209,-0.418042 -0.523876,0 -0.963084,0.238125 -0.963084,0.73025 0,0.354542 0.238125,0.571501 0.772584,0.751418 0.428625,0.142875 0.677333,0.243416 0.677333,0.492125 0,0.28575 -0.264583,0.407458 -0.624417,0.407458 -0.370417,0 -0.724959,-0.127 -0.978959,-0.41275 l -0.232833,0.259292 c 0.248708,0.28575 0.693209,0.470959 1.137709,0.470959 z m 3.997858,0 c 0.783167,0 1.476375,-0.672042 1.476375,-1.571626 0,-0.666751 -0.402166,-1.127126 -1.074208,-1.127126 -0.788459,0 -1.481668,0.672042 -1.481668,1.571626 0,0.66675 0.402167,1.127126 1.079501,1.127126 z m 0.02646,-0.338667 c -0.433917,0 -0.693209,-0.3175 -0.693209,-0.814917 0,-0.666751 0.492125,-1.206501 1.037167,-1.206501 0.439209,0 0.698501,0.312208 0.698501,0.814917 0,0.66675 -0.497417,1.206501 -1.042459,1.206501 z m 4.474112,0.338667 c 0.254,0 0.486833,-0.05821 0.714375,-0.169334 l -0.100542,-0.312208 c -0.185208,0.09525 -0.333375,0.142875 -0.502708,0.142875 -0.238125,0 -0.391584,-0.116417 -0.391584,-0.381 0,-0.07408 0.01058,-0.153459 0.02646,-0.232834 l 0.60325,-2.878668 h -1.25413 l -0.06879,0.328083 h 0.857251 l -0.534459,2.53471 c -0.02646,0.111125 -0.03704,0.195792 -0.03704,0.28575 0,0.449792 0.291042,0.682626 0.687917,0.682626 z m 4.161899,-2.37596 c 0.381,0 0.619126,0.248708 0.619126,0.650875 0,0.05292 -0.0053,0.105834 -0.01588,0.15875 h -1.576918 c 0.15875,-0.497417 0.582084,-0.809625 0.973667,-0.809625 z m -0.34925,2.37596 c 0.449792,0 0.851959,-0.174625 1.111251,-0.381001 L 90.12205,96.388691 c -0.238125,0.1905 -0.53975,0.333375 -0.878417,0.333375 -0.465667,0 -0.772584,-0.291042 -0.772584,-0.809626 0,-0.04233 0,-0.07937 0.0053,-0.116416 h 1.968501 c 0.02646,-0.06879 0.06879,-0.280459 0.06879,-0.460376 0,-0.5715 -0.34925,-0.989542 -0.978959,-0.989542 -0.777876,0 -1.465793,0.661459 -1.465793,1.587501 0,0.719667 0.428626,1.111251 1.095376,1.111251 z m 3.939649,0 c 0.269876,0 0.476251,-0.238126 0.476251,-0.497417 0,-0.211667 -0.127,-0.365126 -0.333376,-0.365126 -0.264583,0 -0.47625,0.238126 -0.47625,0.502709 0,0.211667 0.132292,0.359834 0.333375,0.359834 z m 3.124733,-0.0635 h 0.529167 l 0.60325,-1.407585 c 0.08996,-0.206375 0.185208,-0.492125 0.238125,-0.661458 h 0.02646 c 0,0.164041 0.01588,0.455083 0.03175,0.661458 l 0.09525,1.407585 h 0.508001 l 1.0795,-3.476628 H 98.94856 l -0.709084,2.370669 c -0.03175,0.105833 -0.153458,0.629708 -0.174625,0.73025 h -0.03175 c -0.0053,-0.238125 -0.04233,-0.703792 -0.0635,-0.947209 l -0.100542,-1.185334 h -0.34925 L 96.8901,95.891274 c -0.04762,0.100541 -0.259292,0.629708 -0.296333,0.735542 h -0.02117 c 0.01587,-0.100542 0.05292,-0.407459 0.07937,-0.724959 L 96.831884,93.50473 H 96.4403 Z m 4.33123,0 h 0.40217 l 0.26988,-1.338793 c 0.35454,-0.550334 0.76729,-0.926042 1.16416,-0.926042 0.16934,0 0.29634,0.02646 0.42863,0.111125 l 0.15875,-0.34925 c -0.12171,-0.08467 -0.29104,-0.132292 -0.51859,-0.132292 -0.4445,0 -0.86254,0.359834 -1.14829,0.799042 h -0.0212 l 0.11112,-0.735542 h -0.33337 z m 5.42661,0.0635 c 0.28046,0 0.48684,-0.06879 0.70379,-0.169334 l -0.0952,-0.306917 c -0.1852,0.08467 -0.33337,0.137584 -0.49212,0.137584 -0.23283,0 -0.39688,-0.111125 -0.39688,-0.381 0,-0.05292 0.0106,-0.105834 0.0212,-0.169334 l 0.38629,-1.746251 h -1.34408 l -0.0688,0.328084 h 0.94191 l -0.30691,1.381125 c -0.0265,0.100542 -0.0423,0.195792 -0.0423,0.280459 0,0.423333 0.28575,0.645584 0.69321,0.645584 z m -0.0265,-3.180294 c 0.20109,0 0.37042,-0.15875 0.37042,-0.365125 0,-0.179917 -0.12171,-0.280459 -0.30692,-0.280459 -0.19579,0 -0.36512,0.164042 -0.36512,0.365126 0,0.179916 0.13229,0.280458 0.30162,0.280458 z m 3.91849,3.180294 c 0.35983,0 0.68262,-0.09525 0.90487,-0.232834 l -0.13229,-0.291042 c -0.18521,0.100542 -0.41275,0.185209 -0.66675,0.185209 -0.29104,0 -0.47625,-0.15875 -0.47625,-0.481542 0,-0.07408 0.005,-0.142875 0.0265,-0.238125 l 0.25929,-1.248834 h 1.27 l 0.0688,-0.328084 h -1.27 l 0.16933,-0.8255 h -0.33337 l -0.22225,0.8255 -0.77258,0.02646 -0.0582,0.301626 h 0.74612 l -0.254,1.23825 c -0.0212,0.121709 -0.0423,0.22225 -0.0423,0.333376 0,0.439208 0.24342,0.735542 0.78317,0.735542 z m 4.25715,-2.37596 c 0.381,0 0.61912,0.248708 0.61912,0.650875 0,0.05292 -0.005,0.105834 -0.0159,0.15875 h -1.57692 c 0.15875,-0.497417 0.58208,-0.809625 0.97367,-0.809625 z m -0.34925,2.37596 c 0.44979,0 0.85195,-0.174625 1.11125,-0.381001 l -0.15346,-0.275166 c -0.23813,0.1905 -0.53975,0.333375 -0.87842,0.333375 -0.46567,0 -0.77258,-0.291042 -0.77258,-0.809626 0,-0.04233 0,-0.07937 0.005,-0.116416 h 1.9685 c 0.0265,-0.06879 0.0688,-0.280459 0.0688,-0.460376 0,-0.5715 -0.34925,-0.989542 -0.97896,-0.989542 -0.77787,0 -1.46579,0.661459 -1.46579,1.587501 0,0.719667 0.42863,1.111251 1.09538,1.111251 z m 3.19881,-0.0635 h 2.13254 l 0.0688,-0.349251 h -1.7198 l 0.62442,-3.122085 h -0.41275 z m 5.41603,0.0635 c 0.28045,0 0.48683,-0.06879 0.70379,-0.169334 l -0.0953,-0.306917 c -0.18521,0.08467 -0.33338,0.137584 -0.49213,0.137584 -0.23283,0 -0.39687,-0.111125 -0.39687,-0.381 0,-0.05292 0.0106,-0.105834 0.0212,-0.169334 l 0.3863,-1.746251 h -1.34409 l -0.0688,0.328084 h 0.94192 l -0.30692,1.381125 c -0.0265,0.100542 -0.0423,0.195792 -0.0423,0.280459 0,0.423333 0.28575,0.645584 0.69321,0.645584 z m -0.0265,-3.180294 c 0.20108,0 0.37041,-0.15875 0.37041,-0.365125 0,-0.179917 -0.1217,-0.280459 -0.30691,-0.280459 -0.19579,0 -0.36513,0.164042 -0.36513,0.365126 0,0.179916 0.13229,0.280458 0.30163,0.280458 z m 2.48444,3.116794 h 0.40216 l 0.33338,-1.661585 c 0.35454,-0.391583 0.70908,-0.624417 1.05304,-0.624417 0.26459,0 0.40746,0.142875 0.40746,0.396875 0,0.116417 -0.0159,0.227542 -0.0476,0.359834 l -0.30692,1.529293 h 0.40746 l 0.3175,-1.571626 c 0.0265,-0.142875 0.0476,-0.275167 0.0476,-0.423334 0,-0.386292 -0.20637,-0.640292 -0.66146,-0.640292 -0.46037,0 -0.84666,0.280458 -1.15358,0.587375 h -0.0212 l 0.0635,-0.523875 h -0.32808 z m 5.6912,-2.31246 c 0.381,0 0.61912,0.248708 0.61912,0.650875 0,0.05292 -0.005,0.105834 -0.0159,0.15875 h -1.57692 c 0.15875,-0.497417 0.58208,-0.809625 0.97367,-0.809625 z m -0.34925,2.37596 c 0.44979,0 0.85196,-0.174625 1.11125,-0.381001 l -0.15346,-0.275166 c -0.23813,0.1905 -0.53975,0.333375 -0.87842,0.333375 -0.46566,0 -0.77258,-0.291042 -0.77258,-0.809626 0,-0.04233 0,-0.07937 0.005,-0.116416 h 1.9685 c 0.0265,-0.06879 0.0688,-0.280459 0.0688,-0.460376 0,-0.5715 -0.34925,-0.989542 -0.97896,-0.989542 -0.77787,0 -1.46579,0.661459 -1.46579,1.587501 0,0.719667 0.42863,1.111251 1.09538,1.111251 z m 4.49527,0.867833 0.27517,-0.216958 c -0.46038,-0.4445 -0.68792,-1.021292 -0.68792,-1.693334 0,-1.042459 0.47096,-1.947335 1.55575,-2.656419 l -0.1905,-0.248708 c -1.07421,0.650875 -1.73037,1.651001 -1.73037,2.91571 0,0.777875 0.29104,1.455209 0.77787,1.899709 z m 3.18823,-2.825751 h 0.27517 l 0.37042,-1.180043 0.11641,-0.560917 h -0.54504 l -0.10583,0.560917 z m 1.21709,0 h 0.27517 l 0.37041,-1.180043 0.11642,-0.560917 h -0.54504 l -0.10584,0.560917 z m 2.07698,1.894418 h 0.41275 l 0.32808,-1.651001 h 1.50284 l -0.33338,1.651001 h 0.41275 l 0.69321,-3.471336 h -0.41275 l -0.29104,1.465793 h -1.50283 l 0.29633,-1.465793 h -0.41275 z m 5.78644,-2.31246 c 0.381,0 0.61913,0.248708 0.61913,0.650875 0,0.05292 -0.005,0.105834 -0.0159,0.15875 h -1.57692 c 0.15875,-0.497417 0.58209,-0.809625 0.97367,-0.809625 z m -0.34925,2.37596 c 0.44979,0 0.85196,-0.174625 1.11125,-0.381001 l -0.15346,-0.275166 c -0.23812,0.1905 -0.53975,0.333375 -0.87841,0.333375 -0.46567,0 -0.77259,-0.291042 -0.77259,-0.809626 0,-0.04233 0,-0.07937 0.005,-0.116416 h 1.96851 c 0.0264,-0.06879 0.0688,-0.280459 0.0688,-0.460376 0,-0.5715 -0.34925,-0.989542 -0.97896,-0.989542 -0.77788,0 -1.46579,0.661459 -1.46579,1.587501 0,0.719667 0.42862,1.111251 1.09537,1.111251 z m 4.39473,0 c 0.254,0 0.48684,-0.05821 0.71438,-0.169334 l -0.10054,-0.312208 c -0.18521,0.09525 -0.33338,0.142875 -0.50271,0.142875 -0.23813,0 -0.39158,-0.116417 -0.39158,-0.381 0,-0.07408 0.0106,-0.153459 0.0265,-0.232834 l 0.60326,-2.878668 h -1.25413 l -0.0688,0.328083 h 0.85725 l -0.53446,2.53471 c -0.0265,0.111125 -0.037,0.195792 -0.037,0.28575 0,0.449792 0.29104,0.682626 0.68791,0.682626 z m 4.1037,0 c 0.254,0 0.48683,-0.05821 0.71437,-0.169334 l -0.10054,-0.312208 c -0.18521,0.09525 -0.33338,0.142875 -0.50271,0.142875 -0.23812,0 -0.39158,-0.116417 -0.39158,-0.381 0,-0.07408 0.0106,-0.153459 0.0265,-0.232834 l 0.60325,-2.878668 h -1.25413 l -0.0688,0.328083 h 0.85725 l -0.53446,2.53471 c -0.0265,0.111125 -0.037,0.195792 -0.037,0.28575 0,0.449792 0.29104,0.682626 0.68792,0.682626 z m 3.70681,0 c 0.78317,0 1.47638,-0.672042 1.47638,-1.571626 0,-0.666751 -0.40217,-1.127126 -1.07421,-1.127126 -0.78846,0 -1.48167,0.672042 -1.48167,1.571626 0,0.66675 0.40217,1.127126 1.0795,1.127126 z m 0.0265,-0.338667 c -0.43392,0 -0.69321,-0.3175 -0.69321,-0.814917 0,-0.666751 0.49213,-1.206501 1.03717,-1.206501 0.43921,0 0.6985,0.312208 0.6985,0.814917 0,0.66675 -0.49742,1.206501 -1.04246,1.206501 z m 7.14376,0.275167 h 0.52917 l 0.60325,-1.407585 c 0.09,-0.206375 0.18521,-0.492125 0.23813,-0.661458 h 0.0265 c 0,0.164041 0.0159,0.455083 0.0318,0.661458 l 0.0952,1.407585 h 0.508 l 1.0795,-3.476628 h -0.39159 l -0.70908,2.370669 c -0.0317,0.105833 -0.15346,0.629708 -0.17463,0.73025 h -0.0317 c -0.005,-0.238125 -0.0423,-0.703792 -0.0635,-0.947209 l -0.10054,-1.185334 h -0.34925 l -0.62971,1.418168 c -0.0476,0.100541 -0.25929,0.629708 -0.29633,0.735542 h -0.0212 c 0.0159,-0.100542 0.0529,-0.407459 0.0794,-0.724959 l 0.17991,-2.397127 h -0.39158 z m 5.14086,0.0635 c 0.78317,0 1.47638,-0.672042 1.47638,-1.571626 0,-0.666751 -0.40217,-1.127126 -1.07421,-1.127126 -0.78846,0 -1.48167,0.672042 -1.48167,1.571626 0,0.66675 0.40217,1.127126 1.0795,1.127126 z m 0.0265,-0.338667 c -0.43392,0 -0.69321,-0.3175 -0.69321,-0.814917 0,-0.666751 0.49213,-1.206501 1.03717,-1.206501 0.43921,0 0.6985,0.312208 0.6985,0.814917 0,0.66675 -0.49742,1.206501 -1.04246,1.206501 z m 3.2676,0.275167 h 0.40217 l 0.26987,-1.338793 c 0.35454,-0.550334 0.76729,-0.926042 1.16417,-0.926042 0.16933,0 0.29633,0.02646 0.42863,0.111125 l 0.15875,-0.34925 c -0.12171,-0.08467 -0.29105,-0.132292 -0.51859,-0.132292 -0.4445,0 -0.86254,0.359834 -1.14829,0.799042 h -0.0212 l 0.11113,-0.735542 h -0.33338 z m 5.3102,0.0635 c 0.254,0 0.48683,-0.05821 0.71438,-0.169334 l -0.10055,-0.312208 c -0.1852,0.09525 -0.33337,0.142875 -0.5027,0.142875 -0.23813,0 -0.39159,-0.116417 -0.39159,-0.381 0,-0.07408 0.0106,-0.153459 0.0265,-0.232834 l 0.60325,-2.878668 h -1.25413 l -0.0688,0.328083 h 0.85725 l -0.53446,2.53471 c -0.0265,0.111125 -0.037,0.195792 -0.037,0.28575 0,0.449792 0.29104,0.682626 0.68792,0.682626 z m 3.53749,0 c 0.33338,0 0.67733,-0.179917 0.94721,-0.455084 h 0.0212 l -0.0423,0.391584 h 0.33338 l 0.762,-3.767669 h -0.40746 l -0.20108,1.005417 -0.0847,0.502709 h -0.0159 c -0.14816,-0.227542 -0.41275,-0.375709 -0.77787,-0.375709 -0.78317,0 -1.41288,0.79375 -1.41288,1.714501 0,0.640292 0.34925,0.984251 0.87842,0.984251 z m 0.127,-0.338667 c -0.35983,0 -0.58738,-0.227542 -0.58738,-0.709084 0,-0.687917 0.46038,-1.312334 1.04776,-1.312334 0.24341,0 0.48154,0.111125 0.65616,0.381 l -0.23283,1.143001 c -0.28046,0.322792 -0.60325,0.497417 -0.88371,0.497417 z m 4.19364,-0.952501 h 0.28046 l 0.43392,-1.820334 0.10054,-0.502709 h -0.42863 l -0.0847,0.502709 z m -0.09,1.291168 c 0.24342,0 0.43392,-0.216959 0.43392,-0.460376 0,-0.195791 -0.12171,-0.328083 -0.30692,-0.328083 -0.24341,0 -0.4392,0.216958 -0.4392,0.460375 0,0.195792 0.127,0.328084 0.3122,0.328084 z m 3.72799,-1.957918 h 0.27517 l 0.37042,-1.180043 0.11641,-0.560917 h -0.54504 l -0.10583,0.560917 z m 1.21709,0 h 0.27516 l 0.37042,-1.180043 0.11642,-0.560917 h -0.54504 l -0.10584,0.560917 z m 2.36801,2.873376 c 1.06892,-0.645583 1.7145,-1.645709 1.7145,-2.910418 0,-0.777875 -0.29633,-1.460501 -0.78845,-1.899709 l -0.2593,0.206375 c 0.46567,0.455083 0.68263,1.016 0.68263,1.703917 0,1.042459 -0.44979,1.936752 -1.54517,2.651127 z m 5.35254,-2.809876 c 0.26987,0 0.47625,-0.238125 0.47625,-0.497417 0,-0.211667 -0.127,-0.365125 -0.33338,-0.365125 -0.26458,0 -0.47625,0.238125 -0.47625,0.502708 0,0.211667 0.13229,0.359834 0.33338,0.359834 z m -1.0795,2.905127 c 0.72495,-0.179917 1.24883,-0.709084 1.24883,-1.39171 0,-0.306916 -0.13758,-0.47625 -0.35983,-0.47625 -0.254,0 -0.46567,0.206375 -0.46567,0.460375 0,0.206375 0.13758,0.338667 0.3175,0.338667 0.0265,0 0.0529,-0.0053 0.0794,-0.01058 -0.0741,0.386292 -0.39158,0.6985 -0.87841,0.841375 z"
         id="path33" /><path
         style="font-style:italic;-inkscape-font-specification:'Source Code Pro Italic'"
         d="m 54.953593,103.07736 h 0.53975 c 0.455084,0 0.767292,-0.16404 0.883709,-0.71437 0.07408,-0.35984 0.09525,-0.67205 0.164042,-1.01071 0.04233,-0.20109 0.195791,-0.41805 0.846667,-0.41805 l 0.0635,-0.26458 c -0.60325,0 -0.703792,-0.17462 -0.703792,-0.34925 0,-0.28575 0.291042,-0.952499 0.291042,-1.317625 0,-0.328083 -0.243417,-0.47625 -0.640292,-0.47625 H 55.86376 l -0.05292,0.238125 h 0.428626 c 0.291041,0 0.460375,0.100542 0.460375,0.312209 0,0.312208 -0.269875,0.978961 -0.269875,1.322921 0,0.17991 0.09525,0.33866 0.333375,0.3757 l -0.0053,0.0212 c -0.312208,0.0529 -0.470958,0.24871 -0.545042,0.59267 -0.05821,0.32279 -0.09525,0.65087 -0.15875,0.9525 -0.06879,0.33867 -0.306917,0.49742 -0.613834,0.49742 h -0.439208 z"
         id="path34" /><path
         style="font-style:italic;-inkscape-font-specification:'Source Code Pro Italic'"
         d="m 46.746209,108.36903 h 0.53975 c 0.455084,0 0.767292,-0.16404 0.883709,-0.71437 0.07408,-0.35984 0.09525,-0.67205 0.164042,-1.01071 0.04233,-0.20109 0.195791,-0.41805 0.846667,-0.41805 l 0.0635,-0.26458 c -0.603251,0 -0.703792,-0.17462 -0.703792,-0.34925 0,-0.28575 0.291042,-0.9525 0.291042,-1.31762 0,-0.32809 -0.243417,-0.47625 -0.640293,-0.47625 h -0.534458 l -0.05292,0.23812 h 0.428625 c 0.291042,0 0.460376,0.10054 0.460376,0.31221 0,0.31221 -0.269875,0.97896 -0.269875,1.32292 0,0.17991 0.09525,0.33866 0.333375,0.3757 l -0.0053,0.0212 c -0.312208,0.0529 -0.470959,0.24871 -0.545042,0.59267 -0.05821,0.32279 -0.09525,0.65087 -0.15875,0.9525 -0.06879,0.33867 -0.306917,0.49742 -0.613834,0.49742 h -0.439208 z"
         id="path35" /><path
         style="font-style:italic;-inkscape-font-specification:'Source Code Pro Italic'"
         d="m 38.538825,113.6607 h 0.53975 c 0.455083,0 0.767292,-0.16404 0.883709,-0.71437 0.07408,-0.35984 0.09525,-0.67205 0.164041,-1.01071 0.04233,-0.20109 0.195792,-0.41805 0.846668,-0.41805 l 0.0635,-0.26458 c -0.603251,0 -0.703792,-0.17462 -0.703792,-0.34925 0,-0.28575 0.291041,-0.9525 0.291041,-1.31762 0,-0.32809 -0.243416,-0.47626 -0.640292,-0.47626 h -0.534458 l -0.05292,0.23813 H 39.8247 c 0.291042,0 0.460376,0.10054 0.460376,0.31221 0,0.31221 -0.269876,0.97896 -0.269876,1.32292 0,0.17991 0.09525,0.33866 0.333376,0.3757 l -0.0053,0.0212 c -0.312209,0.0529 -0.470959,0.24871 -0.545042,0.59267 -0.05821,0.32279 -0.09525,0.65087 -0.15875,0.9525 -0.06879,0.33867 -0.306917,0.49742 -0.613834,0.49742 h -0.4392 z"
         id="path36" /></g><g
       id="rect23"
       style="display:inline"><rect
         style="display:inline;fill:url(#linearGradient23);fill-opacity:0.834379;stroke:none;stroke-width:4.99999;stroke-linecap:square;stroke-dasharray:none;stroke-opacity:1"
         id="rect20"
         width="30.128031"
         height="11.286353"
         x="177.19191"
         y="53.347572" /><path
         style="color:#000000;display:inline;fill:url(#linearGradient25);stroke-linecap:square;stroke-linejoin:bevel;-inkscape-stroke:none"
         d="m 174.15254,15.119046 40.91592,41.955358 H 174.814 Z"
         id="path25" /><g
         id="g27"><path
           id="rect27"
           style="display:inline;fill:#0a6db5;fill-opacity:0.459222;stroke-width:4.99999;stroke-linecap:square;stroke-linejoin:bevel"
           d="m 182.94047,23.245534 33.07293,33.82887 -33.07293,-0.09449 z"
           sodipodi:nodetypes="cccc" /><path
           id="path27"
           style="display:inline;fill:#1882cf;fill-opacity:0.459222;stroke-width:4.99999;stroke-linecap:square;stroke-linejoin:bevel"
           d="m 175.28645,49.514879 34.91556,0.188989 4.67746,7.087054 -39.68751,-0.472471 z"
           sodipodi:nodetypes="ccccc" /></g><path
         style="color:#000000;display:inline;fill:url(#linearGradient27);stroke-linecap:square;stroke-linejoin:bevel;-inkscape-stroke:none"
         d="m 175.94141,13.373047 -4.28907,1.785156 6.5e-4,44.600911 c 0,0 29.8634,-0.184895 43.41537,-0.184895 l 1.78906,-4.246094 z m 1.4286,7.056744 34.22551,34.144428 h -34.32013 z"
         id="path26"
         sodipodi:nodetypes="cccccccccc" /></g></g></svg>
