<?xml version="1.0" encoding="UTF-8" standalone="no"?>
<!-- Created with Inkscape (http://www.inkscape.org/) -->

<svg
   width="256mm"
   height="256mm"
   viewBox="0 0 256 256"
   version="1.1"
   id="svg1"
   inkscape:version="1.3.2 (091e20ef0f, 2023-11-25)"
   xml:space="preserve"
   sodipodi:docname="video-x-mng.svg"
   xmlns:inkscape="http://www.inkscape.org/namespaces/inkscape"
   xmlns:sodipodi="http://sodipodi.sourceforge.net/DTD/sodipodi-0.dtd"
   xmlns:xlink="http://www.w3.org/1999/xlink"
   xmlns="http://www.w3.org/2000/svg"
   xmlns:svg="http://www.w3.org/2000/svg"
   xmlns:rdf="http://www.w3.org/1999/02/22-rdf-syntax-ns#"
   xmlns:cc="http://creativecommons.org/ns#"
   xmlns:dc="http://purl.org/dc/elements/1.1/"><defs
     id="defs1"><linearGradient
       id="linearGradient26"
       inkscape:collect="always"><stop
         style="stop-color:#7b91c4;stop-opacity:1;"
         offset="0"
         id="stop26" /><stop
         style="stop-color:#5c5e91;stop-opacity:1"
         offset="1"
         id="stop27" /></linearGradient><linearGradient
       id="linearGradient24"
       inkscape:collect="always"><stop
         style="stop-color:#c7fafe;stop-opacity:1;"
         offset="0"
         id="stop24" /><stop
         style="stop-color:#9acdff;stop-opacity:1"
         offset="1"
         id="stop25" /></linearGradient><linearGradient
       id="linearGradient22"
       inkscape:collect="always"><stop
         style="stop-color:#adaeae;stop-opacity:0.8253752;"
         offset="0"
         id="stop22" /><stop
         style="stop-color:#8ac5fe;stop-opacity:0.83628923;"
         offset="1"
         id="stop23" /></linearGradient><linearGradient
       id="linearGradient18"
       inkscape:collect="always"><stop
         style="stop-color:#9797ff;stop-opacity:1;"
         offset="0"
         id="stop18" /><stop
         style="stop-color:#ccccff;stop-opacity:1;"
         offset="0.30000001"
         id="stop20" /><stop
         style="stop-color:#ccccff;stop-opacity:1;"
         offset="1"
         id="stop19" /></linearGradient><linearGradient
       id="linearGradient16"
       inkscape:collect="always"><stop
         style="stop-color:#cdcdcd;stop-opacity:0.17462483;"
         offset="0"
         id="stop16" /><stop
         style="stop-color:#cdcdcd;stop-opacity:1;"
         offset="1"
         id="stop17" /></linearGradient><linearGradient
       id="linearGradient12"
       inkscape:collect="always"><stop
         style="stop-color:#fdfeff;stop-opacity:1;"
         offset="0"
         id="stop13" /><stop
         style="stop-color:#99ccff;stop-opacity:1;"
         offset="1"
         id="stop14" /></linearGradient><linearGradient
       id="linearGradient9"
       inkscape:collect="always"><stop
         style="stop-color:#97c9fc;stop-opacity:1;"
         offset="0"
         id="stop9" /><stop
         style="stop-color:#7788bb;stop-opacity:1"
         offset="0.25"
         id="stop12" /><stop
         style="stop-color:#57578a;stop-opacity:1"
         offset="0.5"
         id="stop11" /><stop
         style="stop-color:#444482;stop-opacity:1;"
         offset="1"
         id="stop10" /></linearGradient><linearGradient
       inkscape:collect="always"
       xlink:href="#linearGradient9"
       id="linearGradient10"
       x1="31.622168"
       y1="100.24049"
       x2="221.19499"
       y2="240.28973"
       gradientUnits="userSpaceOnUse" /><linearGradient
       inkscape:collect="always"
       xlink:href="#linearGradient12"
       id="linearGradient14"
       x1="73.583481"
       y1="62.020954"
       x2="207.02971"
       y2="229.59895"
       gradientUnits="userSpaceOnUse" /><linearGradient
       inkscape:collect="always"
       xlink:href="#linearGradient16"
       id="linearGradient17"
       x1="57.531055"
       y1="26.420616"
       x2="147.13231"
       y2="144.34076"
       gradientUnits="userSpaceOnUse" /><linearGradient
       inkscape:collect="always"
       xlink:href="#linearGradient18"
       id="linearGradient19"
       x1="209.82518"
       y1="58.53635"
       x2="210.58252"
       y2="194.57654"
       gradientUnits="userSpaceOnUse" /><linearGradient
       inkscape:collect="always"
       xlink:href="#linearGradient22"
       id="linearGradient23"
       x1="177.19191"
       y1="58.990749"
       x2="207.31994"
       y2="58.990749"
       gradientUnits="userSpaceOnUse" /><linearGradient
       inkscape:collect="always"
       xlink:href="#linearGradient24"
       id="linearGradient25"
       x1="176.32031"
       y1="20.126524"
       x2="176.32031"
       y2="56.695721"
       gradientUnits="userSpaceOnUse" /><linearGradient
       inkscape:collect="always"
       xlink:href="#linearGradient26"
       id="linearGradient27"
       x1="172.59729"
       y1="13.51158"
       x2="210.54449"
       y2="51.28627"
       gradientUnits="userSpaceOnUse" /><linearGradient
       inkscape:collect="always"
       xlink:href="#linearGradient4"
       id="linearGradient5"
       x1="106.106"
       y1="12.160762"
       x2="106.106"
       y2="46.9058"
       gradientUnits="userSpaceOnUse" /><linearGradient
       id="linearGradient4"
       inkscape:collect="always"><stop
         style="stop-color:#0d0a02;stop-opacity:0.86774896;"
         offset="0"
         id="stop4" /><stop
         style="stop-color:#7f7f7f;stop-opacity:0.93333334;"
         offset="0.37330827"
         id="stop6" /><stop
         style="stop-color:#767570;stop-opacity:0.96470588;"
         offset="0.62218046"
         id="stop7" /><stop
         style="stop-color:#0d0a02;stop-opacity:1;"
         offset="1"
         id="stop5" /></linearGradient><linearGradient
       inkscape:collect="always"
       xlink:href="#linearGradient17-6"
       id="linearGradient32"
       gradientUnits="userSpaceOnUse"
       x1="58.665661"
       y1="64.746048"
       x2="58.665661"
       y2="84.924896" /><linearGradient
       id="linearGradient17-6"
       inkscape:collect="always"><stop
         style="stop-color:#0067cd;stop-opacity:1"
         offset="0"
         id="stop17-2" /><stop
         style="stop-color:#b0f1ff;stop-opacity:1"
         offset="1"
         id="stop18-9" /></linearGradient></defs><sodipodi:namedview
     id="base"
     pagecolor="#ffffff"
     bordercolor="#000000"
     borderopacity="0.3"
     inkscape:pageopacity="0.0"
     inkscape:pageshadow="2"
     inkscape:zoom="0.98994949"
     inkscape:cx="505.07627"
     inkscape:cy="476.792"
     inkscape:document-units="mm"
     inkscape:showpageshadow="2"
     inkscape:pagecheckerboard="0"
     inkscape:deskcolor="#d1d1d1"
     inkscape:current-layer="svg1"
     showguides="true" /><metadata
     id="metadata1"><rdf:RDF><cc:Work
         rdf:about=""><dc:format>image/svg+xml</dc:format><dc:type
           rdf:resource="http://purl.org/dc/dcmitype/StillImage" /><cc:license
           rdf:resource="http://creativecommons.org/publicdomain/zero/1.0/" /></cc:Work><cc:License
         rdf:about="http://creativecommons.org/publicdomain/zero/1.0/"><cc:permits
           rdf:resource="http://creativecommons.org/ns#Reproduction" /><cc:permits
           rdf:resource="http://creativecommons.org/ns#Distribution" /><cc:permits
           rdf:resource="http://creativecommons.org/ns#DerivativeWorks" /></cc:License></rdf:RDF></metadata><g
     id="g28"
     transform="matrix(1.0481261,0,0,1.0481261,-6.4074194,-6.1384097)"><g
       id="g7"
       inkscape:label="shadow"
       style="display:inline"><path
         id="rect1"
         style="fill:#000000;fill-opacity:0.0602258;stroke-width:3.72791;stroke-linecap:square"
         d="M 48.380952,13.418155 H 179.16071 l 43.46726,43.278274 V 244.17261 H 48.380952 Z"
         sodipodi:nodetypes="cccccc" /><path
         id="path1"
         style="fill:#000000;fill-opacity:0.0752823;stroke-width:3.72791;stroke-linecap:square"
         d="m 47.563027,12.60023 129.443423,-0.133635 43.46726,43.278274 1.33635,187.609821 H 47.563027 Z"
         sodipodi:nodetypes="cccccc" /><path
         id="path2"
         style="fill:#000000;fill-opacity:0.0602258;stroke-width:3.72791;stroke-linecap:square"
         d="m 46.493949,11.793049 128.975701,-0.868626 43.46726,43.278274 1.80407,188.344813 H 46.493949 Z"
         sodipodi:nodetypes="cccccc" /><path
         id="path3"
         style="fill:#000000;fill-opacity:0.0602258;stroke-width:3.72791;stroke-linecap:square"
         d="m 45.964782,12.33296 129.777508,0.467722 43.46726,42.209196 1.00226,187.008462 H 45.964782 Z"
         sodipodi:nodetypes="cccccc" /><path
         id="path4"
         style="fill:#000000;fill-opacity:0.0602258;stroke-width:3.72791;stroke-linecap:square"
         d="m 45.435615,12.338332 129.443415,0.935443 43.46726,41.674657 1.33635,186.540738 H 45.435615 Z"
         sodipodi:nodetypes="cccccc" /><path
         id="path5"
         style="fill:#000000;fill-opacity:0.0602258;stroke-width:3.72791;stroke-linecap:square"
         d="M 44.906448,12.744609 174.8844,13.412783 218.35166,54.151996 219.15347,240.96 H 44.906448 Z"
         sodipodi:nodetypes="cccccc" /><path
         id="path6"
         style="fill:#000000;fill-opacity:0.0602258;stroke-width:3.72791;stroke-linecap:square"
         d="m 44.377281,15.021772 129.911129,0.534539 43.46726,37.932883 0.86863,186.941636 H 44.377281 Z"
         sodipodi:nodetypes="cccccc" /><path
         id="path7"
         style="fill:#000000;fill-opacity:0.0602258;stroke-width:3.72791;stroke-linecap:square"
         d="m 43.848114,13.423527 129.710676,1.069078 43.46726,39.001961 1.06908,186.407094 H 43.848114 Z"
         sodipodi:nodetypes="cccccc" /></g><g
       id="g14"
       style="display:inline"><path
         style="color:#000000;fill:url(#linearGradient14);stroke-linecap:square;-inkscape-stroke:none"
         d="M 46.153822,14.648159 H 173.78301 l 40.90293,41.140298 V 236.0795 H 46.554726 Z"
         id="path15"
         inkscape:label="headbgground" /><path
         id="rect16"
         style="display:inline;fill:url(#linearGradient17);fill-opacity:1;stroke-width:4.99999;stroke-linecap:square"
         d="M 45.435818,14.165285 H 176.70315 l 0.20408,8.220982 H 53.433709 V 235.97952 h -7.997891 z"
         sodipodi:nodetypes="ccccccc" /><path
         id="rect17"
         style="fill:url(#linearGradient19);stroke-width:4.99999;stroke-linecap:square"
         d="M 47.058037,227.91965 H 207.27506 l -0.0668,-168.246312 7.31651,0.0667 0.0668,168.546562 -7.08265,0.0331 v 7.34846 H 47.058037 Z"
         sodipodi:nodetypes="ccccccccc" /><path
         style="color:#000000;fill:url(#linearGradient10);stroke-linecap:square;-inkscape-stroke:none"
         d="M 43.648437,12.148438 44.058594,238.58008 H 217.18555 V 54.757812 L 174.82227,12.148438 Z m 4.608862,4.999999 H 172.74414 l 39.44141,39.671875 V 233.58008 H 48.775405 Z"
         id="path16"
         inkscape:label="headframe"
         sodipodi:nodetypes="cccccccccccc" /><g
         id="g3"
         inkscape:label="head"
         style="display:inline"
         transform="matrix(1.0116484,0,0,1.0116484,1.0796668,5.2000963)"><path
           id="rect4"
           style="fill:url(#linearGradient5);fill-opacity:0.867749;stroke-width:1.00012;stroke-linecap:round;stroke-linejoin:round;stroke-miterlimit:9.6"
           d="M 46.772167,11.759859 174.25974,11.22532 c 11.69728,8.148891 12.26879,23.714969 16.03617,37.15046 H 46.772167 Z"
           sodipodi:nodetypes="ccccc" /><text
           xml:space="preserve"
           style="font-weight:600;font-size:28.2223px;line-height:0.7;font-family:FreeSans;-inkscape-font-specification:'FreeSans Semi-Bold';letter-spacing:0px;word-spacing:0px;fill:#0d0a02;fill-opacity:0.867749;stroke:none;stroke-width:1.00012;stroke-linecap:round;stroke-linejoin:round;stroke-miterlimit:9.6"
           x="52.38483"
           y="37.952271"
           id="text7"><tspan
             sodipodi:role="line"
             id="tspan7"
             style="fill:#ffffff;fill-opacity:0.867749;stroke:#000000;stroke-width:1.00012;stroke-opacity:1"
             x="52.38483"
             y="37.952271">Video</tspan></text></g></g><g
       id="rect23"
       style="display:inline"><rect
         style="display:inline;fill:url(#linearGradient23);fill-opacity:0.834379;stroke:none;stroke-width:4.99999;stroke-linecap:square;stroke-dasharray:none;stroke-opacity:1"
         id="rect20"
         width="30.128031"
         height="11.286353"
         x="177.19191"
         y="53.347572" /><path
         style="color:#000000;display:inline;fill:url(#linearGradient25);stroke-linecap:square;stroke-linejoin:bevel;-inkscape-stroke:none"
         d="m 174.15254,15.119046 40.91592,41.955358 H 174.814 Z"
         id="path25" /><g
         id="g27"><path
           id="rect27"
           style="display:inline;fill:#0a6db5;fill-opacity:0.459222;stroke-width:4.99999;stroke-linecap:square;stroke-linejoin:bevel"
           d="m 182.94047,23.245534 33.07293,33.82887 -33.07293,-0.09449 z"
           sodipodi:nodetypes="cccc" /><path
           id="path27"
           style="display:inline;fill:#1882cf;fill-opacity:0.459222;stroke-width:4.99999;stroke-linecap:square;stroke-linejoin:bevel"
           d="m 175.28645,49.514879 34.91556,0.188989 4.67746,7.087054 -39.68751,-0.472471 z"
           sodipodi:nodetypes="ccccc" /></g><path
         style="color:#000000;display:inline;fill:url(#linearGradient27);stroke-linecap:square;stroke-linejoin:bevel;-inkscape-stroke:none"
         d="m 175.94141,13.373047 -4.28907,1.785156 6.5e-4,44.600911 c 0,0 29.8634,-0.184895 43.41537,-0.184895 l 1.78906,-4.246094 z m 1.4286,7.056744 34.22551,34.144428 h -34.32013 z"
         id="path26"
         sodipodi:nodetypes="cccccccccc" /></g></g><g
     id="g32"
     inkscape:label="video-oblique"
     transform="matrix(1.9753807,-0.41306409,0.54458952,1.9478779,-27.410383,-4.0915177)"><path
       id="path27-7"
       style="fill:#f3f3f3;fill-opacity:0.689482;stroke-width:5.46172;stroke-linecap:round;stroke-linejoin:round"
       d="m 33.50862,56.11048 c -1.034421,0 -1.867341,0.832922 -1.867341,1.867338 v 33.415879 c 0,1.034416 0.83292,1.867337 1.867341,1.867337 h 50.735804 c 1.03442,0 1.86684,-0.832921 1.86684,-1.867337 V 57.977818 c 0,-1.034416 -0.83242,-1.867338 -1.86684,-1.867338 z"
       inkscape:label="whitebg"
       sodipodi:nodetypes="sssssssss" /><g
       id="g30"
       inkscape:label="shadow"
       style="fill:#000000;fill-opacity:0.173623"><path
         id="path28"
         style="fill:#000000;fill-opacity:0.173623;stroke-width:5.66801;stroke-linecap:round;stroke-linejoin:round"
         d="m 33.203013,55.853955 c -1.07349,0 -1.93787,0.864381 -1.93787,1.937867 v 34.677986 c 0,1.073486 0.86438,1.937866 1.93787,1.937866 h 52.65208 c 1.07349,0 1.93735,-0.86438 1.93735,-1.937866 V 57.791822 c 0,-1.073486 -0.86386,-1.937867 -1.93735,-1.937867 z m 1.34979,3.302124 h 3.25716 v 3.52485 h -3.25716 z m 4.74389,0 h 3.25717 v 3.52485 h -3.25717 z m 4.9444,0 h 3.25717 v 3.52485 h -3.25717 z m 4.67724,0 h 3.25716 v 3.52485 h -3.25716 z m 4.81107,0 h 3.25717 v 3.52485 h -3.25717 z m 4.74752,0 h 3.25716 v 3.52485 h -3.25716 z m 4.76043,0 h 3.25717 v 3.52485 h -3.25717 z m 4.7439,0 h 3.25716 v 3.52485 h -3.25716 z m 4.71082,0 h 3.25717 v 3.52485 h -3.25717 z m 4.77749,0 h 3.25716 v 3.52485 h -3.25716 z m 4.67723,0 h 3.25717 v 3.52485 h -3.25717 z m -43.20356,5.412073 -0.01654,21.072616 -6.21409,0.01757 -0.0062,-21.067965 z m 47.625,0 -0.01654,21.072616 -6.21409,0.01757 -0.0062,-21.067965 z m -25.33696,0.0186 h 15.92203 V 85.65885 h -15.92203 z m -19.15439,0.0047 h 16.0166 V 85.66355 h -16.0166 z m -7.6047,22.733496 h 3.25768 v 3.524849 h -3.25768 z m 4.7439,0 h 3.25768 v 3.524849 h -3.25768 z m 4.9444,0 h 3.25768 v 3.524849 h -3.25768 z m 4.67723,0 h 3.25768 v 3.524849 h -3.25768 z m 4.81108,0 h 3.25768 v 3.524849 h -3.25768 z m 4.74751,0 h 3.25768 v 3.524849 h -3.25768 z m 4.76044,0 h 3.25768 v 3.524849 h -3.25768 z m 4.74389,0 h 3.25768 v 3.524849 h -3.25768 z m 4.71083,0 h 3.25768 v 3.524849 h -3.25768 z m 4.77748,0 h 3.25768 v 3.524849 h -3.25768 z m 4.67724,0 h 3.25768 v 3.524849 h -3.25768 z"
         inkscape:label="cell" /><path
         id="path29"
         style="fill:#000000;fill-opacity:0.173623;stroke-width:5.66801;stroke-linecap:round;stroke-linejoin:round"
         d="m 33.73218,56.383122 c -1.07349,0 -1.93787,0.864381 -1.93787,1.937867 v 34.677986 c 0,1.073486 0.86438,1.937866 1.93787,1.937866 h 52.65208 c 1.07349,0 1.93735,-0.86438 1.93735,-1.937866 V 58.320989 c 0,-1.073486 -0.86386,-1.937867 -1.93735,-1.937867 z m 1.34979,3.302124 h 3.25716 v 3.52485 h -3.25716 z m 4.74389,0 h 3.25717 v 3.52485 h -3.25717 z m 4.9444,0 h 3.25717 v 3.52485 h -3.25717 z m 4.67724,0 h 3.25716 v 3.52485 H 49.4475 Z m 4.81107,0 h 3.25717 v 3.52485 h -3.25717 z m 4.74752,0 h 3.25716 v 3.52485 h -3.25716 z m 4.76043,0 h 3.25717 v 3.52485 h -3.25717 z m 4.7439,0 h 3.25716 v 3.52485 h -3.25716 z m 4.71082,0 h 3.25717 v 3.52485 h -3.25717 z m 4.77749,0 h 3.25716 v 3.52485 h -3.25716 z m 4.67723,0 h 3.25717 v 3.52485 h -3.25717 z m -43.20356,5.412073 -0.01654,21.072616 -6.21409,0.01757 -0.0062,-21.067965 z m 47.625,0 -0.01654,21.072616 -6.21409,0.01757 -0.0062,-21.067965 z m -25.33696,0.0186 H 77.68247 V 86.188017 H 61.76044 Z m -19.15439,0.0047 h 16.0166 v 21.072098 h -16.0166 z m -7.6047,22.733496 h 3.25768 v 3.524849 h -3.25768 z m 4.7439,0 h 3.25768 v 3.524849 h -3.25768 z m 4.9444,0 h 3.25768 v 3.524849 h -3.25768 z m 4.67723,0 h 3.25768 v 3.524849 h -3.25768 z m 4.81108,0 h 3.25768 v 3.524849 h -3.25768 z m 4.74751,0 h 3.25768 v 3.524849 h -3.25768 z m 4.76044,0 h 3.25768 v 3.524849 h -3.25768 z m 4.74389,0 h 3.25768 v 3.524849 H 68.4298 Z m 4.71083,0 h 3.25768 v 3.524849 h -3.25768 z m 4.77748,0 h 3.25768 v 3.524849 h -3.25768 z m 4.67724,0 h 3.25768 v 3.524849 h -3.25768 z"
         inkscape:label="cell" /><path
         id="path30"
         style="fill:#000000;fill-opacity:0.173623;stroke-width:5.66801;stroke-linecap:round;stroke-linejoin:round"
         d="m 34.261347,56.912289 c -1.07349,0 -1.93787,0.864381 -1.93787,1.937867 v 34.677986 c 0,1.073486 0.86438,1.937866 1.93787,1.937866 h 52.65208 c 1.07349,0 1.93735,-0.86438 1.93735,-1.937866 V 58.850156 c 0,-1.073486 -0.86386,-1.937867 -1.93735,-1.937867 z m 1.34979,3.302124 h 3.25716 v 3.52485 h -3.25716 z m 4.74389,0 h 3.25717 v 3.52485 h -3.25717 z m 4.9444,0 h 3.25717 v 3.52485 h -3.25717 z m 4.67724,0 h 3.25716 v 3.52485 h -3.25716 z m 4.81107,0 h 3.25717 v 3.52485 h -3.25717 z m 4.74752,0 h 3.25716 v 3.52485 h -3.25716 z m 4.76043,0 h 3.25717 v 3.52485 h -3.25717 z m 4.7439,0 h 3.25716 v 3.52485 h -3.25716 z m 4.71082,0 h 3.25717 v 3.52485 h -3.25717 z m 4.77749,0 h 3.25716 v 3.52485 h -3.25716 z m 4.67723,0 h 3.25717 v 3.52485 h -3.25717 z m -43.20356,5.412073 -0.01654,21.072616 -6.21409,0.01757 -0.0062,-21.067965 z m 47.625,0 -0.01654,21.072616 -6.21409,0.01757 -0.0062,-21.067965 z m -25.33696,0.0186 h 15.92203 v 21.072098 h -15.92203 z m -19.15439,0.0047 h 16.0166 v 21.072098 h -16.0166 z m -7.6047,22.733496 h 3.25768 v 3.524849 h -3.25768 z m 4.7439,0 h 3.25768 v 3.524849 h -3.25768 z m 4.9444,0 h 3.25768 v 3.524849 h -3.25768 z m 4.67723,0 h 3.25768 v 3.524849 h -3.25768 z m 4.81108,0 h 3.25768 v 3.524849 h -3.25768 z m 4.74751,0 h 3.25768 v 3.524849 h -3.25768 z m 4.76044,0 h 3.25768 v 3.524849 h -3.25768 z m 4.74389,0 h 3.25768 v 3.524849 h -3.25768 z m 4.71083,0 h 3.25768 v 3.524849 h -3.25768 z m 4.77748,0 h 3.25768 v 3.524849 h -3.25768 z m 4.67724,0 h 3.25768 v 3.524849 h -3.25768 z"
         inkscape:label="cell" /></g><path
       id="path31"
       style="fill:url(#linearGradient32);stroke-width:5.66801;stroke-linecap:round;stroke-linejoin:round"
       inkscape:label="bg"
       d="m 31.270535,63.209244 h 55.59206 v 23.118814 h -55.59206 z" /><path
       id="path32"
       style="fill:#000000;fill-opacity:1;stroke-width:5.66801;stroke-linecap:round;stroke-linejoin:round"
       d="m 32.673846,55.324788 c -1.07349,0 -1.93787,0.864381 -1.93787,1.937867 v 34.677986 c 0,1.073486 0.86438,1.937866 1.93787,1.937866 h 52.65208 c 1.07349,0 1.93735,-0.86438 1.93735,-1.937866 V 57.262655 c 0,-1.073486 -0.86386,-1.937867 -1.93735,-1.937867 z m 1.34979,3.302124 h 3.25716 v 3.52485 h -3.25716 z m 4.74389,0 h 3.25717 v 3.52485 h -3.25717 z m 4.9444,0 h 3.25717 v 3.52485 h -3.25717 z m 4.67724,0 h 3.25716 v 3.52485 h -3.25716 z m 4.81107,0 h 3.25717 v 3.52485 h -3.25717 z m 4.74752,0 h 3.25716 v 3.52485 h -3.25716 z m 4.76043,0 h 3.25717 v 3.52485 h -3.25717 z m 4.7439,0 h 3.25716 v 3.52485 h -3.25716 z m 4.71082,0 h 3.25717 v 3.52485 h -3.25717 z m 4.77749,0 h 3.25716 v 3.52485 h -3.25716 z m 4.67723,0 h 3.25717 v 3.52485 h -3.25717 z m -43.20356,5.412073 -0.01654,21.072616 -6.21409,0.01757 -0.0062,-21.067965 z m 47.625,0 -0.01654,21.072616 -6.21409,0.01757 -0.0062,-21.067965 z m -25.33696,0.0186 h 15.92203 v 21.072098 h -15.92203 z m -19.15439,0.0047 h 16.0166 v 21.072098 h -16.0166 z m -7.6047,22.733496 h 3.25768 v 3.524849 h -3.25768 z m 4.7439,0 h 3.25768 v 3.524849 h -3.25768 z m 4.9444,0 h 3.25768 v 3.524849 h -3.25768 z m 4.67723,0 h 3.25768 v 3.524849 h -3.25768 z m 4.81108,0 h 3.25768 v 3.524849 h -3.25768 z m 4.74751,0 h 3.25768 v 3.524849 h -3.25768 z m 4.76044,0 h 3.25768 v 3.524849 h -3.25768 z m 4.74389,0 h 3.25768 v 3.524849 h -3.25768 z m 4.71083,0 h 3.25768 v 3.524849 h -3.25768 z m 4.77748,0 h 3.25768 v 3.524849 h -3.25768 z m 4.67724,0 h 3.25768 v 3.524849 h -3.25768 z"
       inkscape:label="cell" /></g><text
     xml:space="preserve"
     style="font-weight:bold;font-size:60.0895px;line-height:1.1;font-family:'Liberation Sans';-inkscape-font-specification:'Liberation Sans Bold';letter-spacing:0.901345px;word-spacing:0px;display:inline;fill:#000000;fill-rule:evenodd;stroke-width:13.9318;stroke-linecap:round;stroke-linejoin:round"
     x="61.890919"
     y="230.6823"
     id="text2"><tspan
       sodipodi:role="line"
       id="tspan2"
       x="61.890919"
       y="230.6823"
       style="stroke-width:13.9318">MNG</tspan></text><path
     style="display:inline;fill:#c9a064;fill-opacity:1;stroke-width:0.165937"
     d="m 28.177378,180.07492 -4.495856,-4.87918 v 4.56183 4.56183 H 21.777458 19.87336 v -8.88574 c 0,-4.88715 0.16326,-8.88574 0.362668,-8.88574 0.199577,0 2.472758,2.2135 5.05172,4.91889 l 4.689052,4.91889 0.02715,-4.60154 0.02715,-4.60154 h 1.904097 1.904064 v 8.88574 c 0,4.96107 -0.256939,8.88573 -0.581694,8.88573 -0.32007,0 -2.604824,-2.19563 -5.077548,-4.87917 z M 6.5447423,175.75101 v -8.56839 h 3.205017 c 3.4639587,0 6.5602947,1.24211 7.1905587,2.88456 0.216888,0.56509 0.394268,2.14652 0.394268,3.5143 0,3.12195 -1.632157,4.86568 -5.068657,5.4152 -2.4650187,0.39417 -2.5477007,0.48714 -2.5477007,2.86506 0,2.19837 -0.167333,2.45766 -1.586743,2.45766 h -1.586743 z m 7.5063867,-2.0977 c 0.269497,-1.90079 -0.926508,-3.29721 -2.823885,-3.29721 -1.3413097,0 -1.5090157,0.2866 -1.5090157,2.57899 0,2.5273 0.04141,2.57501 2.0627747,2.38011 1.597367,-0.15403 2.109548,-0.52897 2.270126,-1.66189 z m 26.960335,9.46233 c -2.867195,-1.80155 -4.212883,-4.15719 -4.212883,-7.37475 0,-5.21233 4.918023,-9.24544 10.090711,-8.27504 1.874128,0.35159 2.180079,0.66122 2.180079,2.20635 0,1.73988 -0.08655,1.78761 -2.704954,1.49248 -3.28719,-0.37052 -5.349321,1.0486 -5.9358,4.08488 -0.330593,1.71189 -0.07807,2.35269 1.580701,4.01153 1.289243,1.28924 2.468855,1.90365 3.399911,1.77084 1.879388,-0.26807 2.353622,-2.42479 0.533191,-2.42479 -1.039025,0 -1.315922,-0.40068 -1.315922,-1.90409 0,-1.86177 0.0706,-1.90408 3.173485,-1.90408 h 3.173452 v 3.73045 c 0,4.4432 -0.701237,5.23859 -4.93995,5.60316 -2.228038,0.19163 -3.512495,-0.0685 -5.022021,-1.01694 z m 22.089832,0.11438 c -2.742357,-1.35088 -4.814908,-5.66269 -4.227343,-8.7947 0.853873,-4.55154 5.660906,-7.82657 10.229703,-6.96946 1.8689,0.35061 2.180044,0.66334 2.180044,2.19114 0,1.74823 -0.05838,1.77654 -3.071592,1.48702 -2.766082,-0.2658 -3.20797,-0.12175 -4.442873,1.44815 -1.720405,2.18715 -1.753294,4.73087 -0.08418,6.52231 2.198746,2.36006 5.694712,2.61007 5.694712,0.40725 0,-0.55874 -0.633794,-0.91458 -1.628898,-0.91458 -1.402541,0 -1.600998,-0.24255 -1.428065,-1.74542 0.183964,-1.59839 0.454751,-1.7617 3.215607,-1.93886 l 3.014808,-0.19347 v 4.05842 c 0,3.73306 -0.129658,4.11747 -1.616578,4.795 -2.262285,1.03076 -5.30462,0.89377 -7.835214,-0.35281 z m 12.625277,-7.55294 v -8.64233 l 4.089607,0.2604 c 4.717869,0.30042 6.462475,1.46563 7.073867,4.72461 0.292918,1.56143 0.03666,2.73747 -0.967747,4.4397 l -1.366257,2.31561 1.614881,2.33026 c 2.000458,2.88669 2.006398,3.21407 0.05804,3.21407 -1.053145,0 -2.216939,-0.82139 -3.597044,-2.53878 -1.122115,-1.39633 -2.278035,-2.53878 -2.568712,-2.53878 -0.290541,0 -0.528439,1.14245 -0.528439,2.53878 0,2.39774 -0.105898,2.53878 -1.904098,2.53878 h -1.904098 z m 7.992467,-1.83839 c 0.496432,-1.97793 -0.659421,-3.48259 -2.675255,-3.48259 -1.337406,0 -1.509016,0.28875 -1.509016,2.53878 0,2.39414 0.107595,2.53879 1.891981,2.53879 1.4914,0 1.976733,-0.33769 2.29229,-1.59498 z m 9.968492,9.23702 c -4.711086,-2.87252 -5.334561,-9.39704 -1.255239,-13.13547 3.029679,-2.77648 5.967639,-3.26315 9.468457,-1.56843 3.24374,1.57027 4.92681,4.12623 4.92355,7.47713 -0.007,6.62167 -7.430758,10.70592 -13.136768,7.22677 z m 7.773058,-3.48767 c 4.5616,-4.56158 -1.797308,-11.62911 -6.493558,-7.21721 -3.030085,2.84662 -0.80653,8.7751 3.29123,8.7751 0.90444,0 2.345508,-0.70105 3.202328,-1.55789 z m 11.39567,3.99846 c -2.53117,-1.38445 -2.85613,-2.47021 -2.85613,-9.54353 v -6.86035 h 1.58674 c 1.58637,0 1.58675,0.002 1.58675,6.32463 0,5.80045 0.112,6.38449 1.34969,7.04695 0.9705,0.5194 1.76633,0.53247 2.83285,0.0465 1.38713,-0.63201 1.49496,-1.07812 1.66511,-6.88828 l 0.18193,-6.21249 1.74542,-0.20083 1.74538,-0.20083 v 6.96738 6.96739 l -1.95277,1.64316 c -2.10832,1.77404 -5.57422,2.17415 -7.885,0.91026 z m 13.28752,-0.0974 c -0.17514,-0.45668 -0.2376,-4.24105 -0.13883,-8.40971 l 0.17989,-7.5794 2.80522,-0.20043 c 5.72642,-0.40915 8.30195,1.39083 8.30195,5.80206 0,3.32221 -1.82865,5.36712 -5.30391,5.93107 -2.19701,0.35653 -2.31241,0.49783 -2.31241,2.831 0,2.20444 -0.16428,2.45574 -1.60667,2.45574 -0.88367,0 -1.75004,-0.37365 -1.92528,-0.83032 z m 7.86484,-9.83577 c 0.2695,-1.90079 -0.92651,-3.29721 -2.82388,-3.29721 -1.34131,0 -1.50902,0.2866 -1.50902,2.57899 0,2.5273 0.0414,2.57501 2.06274,2.38011 1.59737,-0.15403 2.10955,-0.52897 2.27016,-1.66189 z M 20.657007,139.4229 l 0.168351,-18.23931 4.442873,-3.05002 4.442873,-3.05002 0.317355,-11.50211 0.317356,-11.502075 6.822969,-4.747364 6.822969,-4.74733 0.01018,-5.461872 c 0.0068,-3.004014 0.219603,-5.785201 0.475999,-6.180351 0.2566,-0.395184 3.608075,-2.849783 7.447973,-5.454676 3.839898,-2.604859 10.795003,-7.351171 15.455747,-10.54733 4.660779,-3.196158 8.730768,-5.8112 9.044424,-5.8112 0.322786,0 0.565537,7.093078 0.559326,16.343426 l -0.01018,16.343392 -2.001375,1.398603 c -1.100765,0.769256 -2.238288,1.252213 -2.527811,1.073272 -0.289524,-0.178873 -0.526437,-6.163549 -0.526437,-13.299156 0,-7.135574 -0.117778,-12.973792 -0.261691,-12.973792 -0.143913,0 -5.285001,3.442304 -11.42452,7.649554 l -11.162761,7.649587 v 2.801483 2.801518 l 2.223455,-1.311882 c 1.222922,-0.721534 2.382236,-1.56872 2.576247,-1.882681 0.194147,-0.313961 0.764334,-0.570798 1.267351,-0.570798 0.78643,0 0.914594,5.47073 0.914594,39.033782 v 39.03378 h 7.933713 7.93368 V 123.41686 93.614404 l -6.255464,4.414634 c -3.440505,2.428022 -6.582255,4.414632 -6.981647,4.414632 -0.420301,0 -0.726184,-1.03702 -0.726184,-2.462032 0,-2.452359 0.03496,-2.485927 8.903802,-8.56839 4.897116,-3.358502 9.181311,-6.106358 9.520457,-6.106358 0.391789,0 0.616619,13.189559 0.616619,36.17765 v 36.17765 H 60.495147 43.993043 v -30.12812 c 0,-26.51979 -0.114044,-30.084384 -0.952032,-29.762786 -0.827534,0.317695 -0.952032,4.257786 -0.952032,30.128116 v 29.76279 H 36.059364 30.029749 V 145.2233 132.78441 l -2.062776,1.30531 -2.062741,1.30532 -0.173443,11.13358 -0.173442,11.13357 h -2.533853 -2.533887 z m 16.353133,1.36698 c 0,-9.66121 -0.176837,-12.37067 -0.793354,-12.16551 -0.589738,0.19619 -0.837649,3.38673 -0.965745,12.42946 -0.149344,10.5429 -0.04344,12.1655 0.793354,12.1655 0.831641,0 0.965745,-1.72578 0.965745,-12.42945 z m 13.963295,-22.21435 c 0,-19.054098 -0.229446,-34.548607 -0.509602,-34.432254 -0.280358,0.11642 -3.850453,2.477034 -7.933679,5.2459 l -7.424112,5.034376 v 8.530648 c 0,7.51084 0.113705,8.43619 0.952066,7.74053 0.740677,-0.6147 0.954238,-2.35818 0.961977,-7.85274 l 0.01018,-7.062635 5.578191,-3.649485 c 3.068028,-2.007213 5.776885,-3.649484 6.01967,-3.649484 0.242684,0 0.441446,14.566234 0.441446,32.369474 0,28.34973 0.118118,32.36947 0.952032,32.36947 0.834628,0 0.952032,-4.27244 0.952032,-34.6438 z m -18.882201,6.88767 c 4.908723,-3.42428 4.918906,-3.43735 4.918906,-6.31171 0,-3.47931 -0.121512,-3.4571 -6.687745,1.22379 l -4.672285,3.3307 -0.03394,3.05227 c -0.037,3.49461 -0.535635,3.59438 6.473369,-1.29505 z m 47.443535,-20.7981 c 0,-29.148391 0.119475,-52.997083 0.265425,-52.997083 0.145949,0 0.717223,0.173442 1.269387,0.385272 0.90431,0.346987 1.003963,5.607482 1.003963,52.997081 0,52.1887 -0.01018,52.61183 -1.269387,52.61183 -1.259273,0 -1.269388,-0.42313 -1.269388,-52.9971 z m 3.808162,1.26941 c 0,-28.450232 0.119475,-51.727685 0.265425,-51.727685 0.145949,0 0.717223,0.173443 1.269387,0.385239 0.904038,0.346919 1.003963,5.49561 1.003963,51.727696 0,50.91931 -0.01018,51.34244 -1.269387,51.34244 -1.259002,0 -1.269388,-0.42313 -1.269388,-51.72769 z m 3.173452,1.26939 c 0,-52.300013 -0.01018,-52.117372 2.411866,-49.696681 0.57942,0.579419 0.761619,12.651616 0.761619,50.458321 v 49.69666 h -1.586709 -1.586776 z m 3.808196,1.26939 c 0,-50.976186 -0.0068,-50.845646 2.411832,-48.427296 0.579081,0.57908 0.761651,12.369526 0.761651,49.188936 v 48.42727 h -1.586741 -1.586742 z m 3.808163,13.64596 c 0,-19.54863 0.24132,-35.542962 0.53635,-35.542962 0.29495,0 1.00902,0.522295 1.58674,1.160706 0.9502,1.049954 1.05039,4.440564 1.05039,35.542946 v 34.38226 h -1.58674 -1.58674 z m 3.80819,1.24706 c 0,-34.099222 0.007,-34.292011 1.26939,-33.616537 1.244848,0.666209 1.269388,1.328921 1.269388,34.295887 0,33.19341 -0.017,33.61654 -1.269388,33.61654 -1.25374,0 -1.26939,-0.42313 -1.26939,-34.29589 z m 3.808168,1.29172 c 0,-18.15229 0.22842,-33.004193 0.50776,-33.004193 1.92515,0 2.03101,1.759914 2.03101,33.765823 0,31.81941 -0.017,32.24254 -1.26939,32.24254 -1.25309,0 -1.26938,-0.42313 -1.26938,-33.00417 z m 3.80816,1.24706 c 0,-31.560453 0.007,-31.752903 1.26942,-31.077767 1.24284,0.665156 1.26939,1.328955 1.26939,31.757127 0,30.65462 -0.017,31.07775 -1.26939,31.07775 -1.25249,0 -1.26942,-0.42313 -1.26942,-31.75711 z m 3.80819,13.03359 c 0,-10.29793 0.11948,-18.72352 0.26543,-18.72352 0.14595,0 0.71722,0.17337 1.26939,0.38526 0.88343,0.33901 1.00396,2.58691 1.00396,18.72351 0,17.91514 -0.0305,18.33827 -1.26939,18.33827 -1.24071,0 -1.26939,-0.42313 -1.26939,-18.72352 z m 3.17346,1.26939 c 0,-13.89821 0.16801,-17.45413 0.82512,-17.45413 2.17621,0 2.34836,1.33543 2.34836,18.21577 v 16.69249 h -1.58671 -1.58677 z m 3.80819,1.26939 c 0,-12.85665 0.16971,-16.18474 0.82509,-16.18474 2.15842,0 2.3484,1.37081 2.3484,16.94638 v 15.4231 h -1.58675 -1.58674 z m 3.80816,1.2694 c 0,-8.20345 0.16157,-14.91535 0.35907,-14.91535 0.19754,0 0.91154,0.29566 1.58675,0.65702 1.15782,0.61966 1.22767,1.46815 1.22767,14.91535 v 14.25832 h -1.58674 -1.58675 z"
     id="path5-7" /></svg>
