<?xml version="1.0" encoding="UTF-8" standalone="no"?>
<!-- Created with Inkscape (http://www.inkscape.org/) -->

<svg
   width="256mm"
   height="256mm"
   viewBox="0 0 256 256"
   version="1.1"
   id="svg1"
   inkscape:version="1.3.2 (091e20ef0f, 2023-11-25)"
   xml:space="preserve"
   sodipodi:docname="video-x-ms-wmp.svg"
   xmlns:inkscape="http://www.inkscape.org/namespaces/inkscape"
   xmlns:sodipodi="http://sodipodi.sourceforge.net/DTD/sodipodi-0.dtd"
   xmlns:xlink="http://www.w3.org/1999/xlink"
   xmlns="http://www.w3.org/2000/svg"
   xmlns:svg="http://www.w3.org/2000/svg"
   xmlns:rdf="http://www.w3.org/1999/02/22-rdf-syntax-ns#"
   xmlns:cc="http://creativecommons.org/ns#"
   xmlns:dc="http://purl.org/dc/elements/1.1/"><defs
     id="defs1"><linearGradient
       id="linearGradient26"
       inkscape:collect="always"><stop
         style="stop-color:#7b91c4;stop-opacity:1;"
         offset="0"
         id="stop26" /><stop
         style="stop-color:#5c5e91;stop-opacity:1"
         offset="1"
         id="stop27" /></linearGradient><linearGradient
       id="linearGradient24"
       inkscape:collect="always"><stop
         style="stop-color:#c7fafe;stop-opacity:1;"
         offset="0"
         id="stop24" /><stop
         style="stop-color:#9acdff;stop-opacity:1"
         offset="1"
         id="stop25" /></linearGradient><linearGradient
       id="linearGradient22"
       inkscape:collect="always"><stop
         style="stop-color:#adaeae;stop-opacity:0.8253752;"
         offset="0"
         id="stop22" /><stop
         style="stop-color:#8ac5fe;stop-opacity:0.83628923;"
         offset="1"
         id="stop23" /></linearGradient><linearGradient
       id="linearGradient18"
       inkscape:collect="always"><stop
         style="stop-color:#9797ff;stop-opacity:1;"
         offset="0"
         id="stop18" /><stop
         style="stop-color:#ccccff;stop-opacity:1;"
         offset="0.30000001"
         id="stop20" /><stop
         style="stop-color:#ccccff;stop-opacity:1;"
         offset="1"
         id="stop19" /></linearGradient><linearGradient
       id="linearGradient16"
       inkscape:collect="always"><stop
         style="stop-color:#cdcdcd;stop-opacity:0.17462483;"
         offset="0"
         id="stop16" /><stop
         style="stop-color:#cdcdcd;stop-opacity:1;"
         offset="1"
         id="stop17" /></linearGradient><linearGradient
       id="linearGradient12"
       inkscape:collect="always"><stop
         style="stop-color:#fdfeff;stop-opacity:1;"
         offset="0"
         id="stop13" /><stop
         style="stop-color:#99ccff;stop-opacity:1;"
         offset="1"
         id="stop14" /></linearGradient><linearGradient
       id="linearGradient9"
       inkscape:collect="always"><stop
         style="stop-color:#97c9fc;stop-opacity:1;"
         offset="0"
         id="stop9" /><stop
         style="stop-color:#7788bb;stop-opacity:1"
         offset="0.25"
         id="stop12" /><stop
         style="stop-color:#57578a;stop-opacity:1"
         offset="0.5"
         id="stop11" /><stop
         style="stop-color:#444482;stop-opacity:1;"
         offset="1"
         id="stop10" /></linearGradient><linearGradient
       inkscape:collect="always"
       xlink:href="#linearGradient9"
       id="linearGradient10"
       x1="31.622168"
       y1="100.24049"
       x2="221.19499"
       y2="240.28973"
       gradientUnits="userSpaceOnUse" /><linearGradient
       inkscape:collect="always"
       xlink:href="#linearGradient12"
       id="linearGradient14"
       x1="73.583481"
       y1="62.020954"
       x2="207.02971"
       y2="229.59895"
       gradientUnits="userSpaceOnUse" /><linearGradient
       inkscape:collect="always"
       xlink:href="#linearGradient16"
       id="linearGradient17"
       x1="57.531055"
       y1="26.420616"
       x2="147.13231"
       y2="144.34076"
       gradientUnits="userSpaceOnUse" /><linearGradient
       inkscape:collect="always"
       xlink:href="#linearGradient18"
       id="linearGradient19"
       x1="209.82518"
       y1="58.53635"
       x2="210.58252"
       y2="194.57654"
       gradientUnits="userSpaceOnUse" /><linearGradient
       inkscape:collect="always"
       xlink:href="#linearGradient22"
       id="linearGradient23"
       x1="177.19191"
       y1="58.990749"
       x2="207.31994"
       y2="58.990749"
       gradientUnits="userSpaceOnUse" /><linearGradient
       inkscape:collect="always"
       xlink:href="#linearGradient24"
       id="linearGradient25"
       x1="176.32031"
       y1="20.126524"
       x2="176.32031"
       y2="56.695721"
       gradientUnits="userSpaceOnUse" /><linearGradient
       inkscape:collect="always"
       xlink:href="#linearGradient26"
       id="linearGradient27"
       x1="172.59729"
       y1="13.51158"
       x2="210.54449"
       y2="51.28627"
       gradientUnits="userSpaceOnUse" /><linearGradient
       inkscape:collect="always"
       xlink:href="#linearGradient4"
       id="linearGradient5"
       x1="106.106"
       y1="12.160762"
       x2="106.106"
       y2="46.9058"
       gradientUnits="userSpaceOnUse" /><linearGradient
       id="linearGradient4"
       inkscape:collect="always"><stop
         style="stop-color:#0d0a02;stop-opacity:0.86774896;"
         offset="0"
         id="stop4" /><stop
         style="stop-color:#7f7f7f;stop-opacity:0.93333334;"
         offset="0.37330827"
         id="stop6" /><stop
         style="stop-color:#767570;stop-opacity:0.96470588;"
         offset="0.62218046"
         id="stop7" /><stop
         style="stop-color:#0d0a02;stop-opacity:1;"
         offset="1"
         id="stop5" /></linearGradient><linearGradient
       inkscape:collect="always"
       xlink:href="#linearGradient17-6"
       id="linearGradient32"
       gradientUnits="userSpaceOnUse"
       x1="58.665661"
       y1="64.746048"
       x2="58.665661"
       y2="84.924896" /><linearGradient
       id="linearGradient17-6"
       inkscape:collect="always"><stop
         style="stop-color:#0067cd;stop-opacity:1"
         offset="0"
         id="stop17-2" /><stop
         style="stop-color:#b0f1ff;stop-opacity:1"
         offset="1"
         id="stop18-9" /></linearGradient><linearGradient
       inkscape:collect="always"
       xlink:href="#linearGradient80939"
       id="linearGradient80940"
       x1="120.99371"
       y1="100.10946"
       x2="81.743843"
       y2="191.98096"
       gradientUnits="userSpaceOnUse" /><linearGradient
       id="linearGradient80939"
       inkscape:collect="always"><stop
         style="stop-color:#ffffff;stop-opacity:1"
         offset="0"
         id="stop80939" /><stop
         style="stop-color:#909efb;stop-opacity:0.67804879;"
         offset="0.3048237"
         id="stop80941" /><stop
         style="stop-color:#596df9;stop-opacity:0.76975608;"
         offset="0.49068335"
         id="stop80942" /><stop
         style="stop-color:#3d55f8;stop-opacity:0.81560975;"
         offset="0.65602368"
         id="stop80943" /><stop
         style="stop-color:#2f49f8;stop-opacity:0.81170732;"
         offset="0.80511928"
         id="stop80944" /><stop
         style="stop-color:#223df8;stop-opacity:1"
         offset="1"
         id="stop80940" /></linearGradient><linearGradient
       inkscape:collect="always"
       xlink:href="#linearGradient80944"
       id="linearGradient80946"
       x1="106.17078"
       y1="172.92496"
       x2="121.93663"
       y2="109.75676"
       gradientUnits="userSpaceOnUse" /><linearGradient
       id="linearGradient80944"
       inkscape:collect="always"><stop
         style="stop-color:#061aa9;stop-opacity:1;"
         offset="0"
         id="stop80945" /><stop
         style="stop-color:#7787fa;stop-opacity:1;"
         offset="1"
         id="stop80946" /></linearGradient><linearGradient
       inkscape:collect="always"
       xlink:href="#linearGradient80957"
       id="linearGradient80949"
       gradientUnits="userSpaceOnUse"
       x1="120.99371"
       y1="100.10946"
       x2="81.743843"
       y2="191.98096" /><linearGradient
       id="linearGradient80957"
       inkscape:collect="always"><stop
         style="stop-color:#ffffff;stop-opacity:1"
         offset="0"
         id="stop80952" /><stop
         style="stop-color:#fbc090;stop-opacity:0.77268291;"
         offset="0.3048237"
         id="stop80953" /><stop
         style="stop-color:#f9b059;stop-opacity:0.79609758;"
         offset="0.49068335"
         id="stop80954" /><stop
         style="stop-color:#f8863d;stop-opacity:0.78243905;"
         offset="0.65602368"
         id="stop80955" /><stop
         style="stop-color:#f8752f;stop-opacity:0.7502439;"
         offset="0.80511928"
         id="stop80956" /><stop
         style="stop-color:#f84822;stop-opacity:1;"
         offset="1"
         id="stop80957" /></linearGradient><linearGradient
       inkscape:collect="always"
       xlink:href="#linearGradient80951"
       id="linearGradient80950"
       gradientUnits="userSpaceOnUse"
       x1="106.17078"
       y1="172.92496"
       x2="121.93663"
       y2="109.75676" /><linearGradient
       id="linearGradient80951"
       inkscape:collect="always"><stop
         style="stop-color:#f75a1c;stop-opacity:1;"
         offset="0"
         id="stop80950" /><stop
         style="stop-color:#faa177;stop-opacity:1;"
         offset="1"
         id="stop80951" /></linearGradient><linearGradient
       inkscape:collect="always"
       xlink:href="#linearGradient80963"
       id="linearGradient80962"
       gradientUnits="userSpaceOnUse"
       x1="216.61928"
       y1="117.61633"
       x2="222.18701"
       y2="43.3923" /><linearGradient
       id="linearGradient80963"
       inkscape:collect="always"><stop
         style="stop-color:#46af00;stop-opacity:1;"
         offset="0"
         id="stop80962" /><stop
         style="stop-color:#b7ff86;stop-opacity:1;"
         offset="1"
         id="stop80963" /></linearGradient><linearGradient
       inkscape:collect="always"
       xlink:href="#linearGradient80960"
       id="linearGradient80961"
       x1="141.10942"
       y1="125.47585"
       x2="164.40643"
       y2="30.356886"
       gradientUnits="userSpaceOnUse" /><linearGradient
       id="linearGradient80960"
       inkscape:collect="always"><stop
         style="stop-color:#74ff01;stop-opacity:0.57951218;"
         offset="0"
         id="stop80960" /><stop
         style="stop-color:#98cd75;stop-opacity:0.64097559;"
         offset="0.5"
         id="stop80967" /><stop
         style="stop-color:#ebebeb;stop-opacity:1;"
         offset="1"
         id="stop80961" /></linearGradient><radialGradient
       inkscape:collect="always"
       xlink:href="#linearGradient80965"
       id="radialGradient80966"
       cx="224.69478"
       cy="127.67439"
       fx="224.69478"
       fy="127.67439"
       r="49.675129"
       gradientTransform="matrix(1.3728961,0.66403263,-0.25165831,0.52030691,-68.762009,-109.2891)"
       gradientUnits="userSpaceOnUse" /><linearGradient
       id="linearGradient80965"
       inkscape:collect="always"><stop
         style="stop-color:#3a9100;stop-opacity:0.58731705;"
         offset="0"
         id="stop80965" /><stop
         style="stop-color:#3e9a00;stop-opacity:0;"
         offset="1"
         id="stop80966" /></linearGradient><linearGradient
       inkscape:collect="always"
       xlink:href="#linearGradient80976"
       id="linearGradient80971"
       gradientUnits="userSpaceOnUse"
       x1="216.61928"
       y1="117.61633"
       x2="222.18701"
       y2="43.3923" /><linearGradient
       id="linearGradient80976"
       inkscape:collect="always"><stop
         style="stop-color:#888700;stop-opacity:1;"
         offset="0"
         id="stop80975" /><stop
         style="stop-color:#feff28;stop-opacity:1;"
         offset="1"
         id="stop80976" /></linearGradient><linearGradient
       inkscape:collect="always"
       xlink:href="#linearGradient80974"
       id="linearGradient80972"
       gradientUnits="userSpaceOnUse"
       x1="146.76627"
       y1="117.93338"
       x2="142.61708"
       y2="25.538084" /><linearGradient
       id="linearGradient80974"
       inkscape:collect="always"><stop
         style="stop-color:#f4ff21;stop-opacity:0.8204878;"
         offset="0"
         id="stop80972" /><stop
         style="stop-color:#eaea94;stop-opacity:0.80585366;"
         offset="0.5"
         id="stop80973" /><stop
         style="stop-color:#ebebeb;stop-opacity:1;"
         offset="1"
         id="stop80974" /></linearGradient><radialGradient
       inkscape:collect="always"
       xlink:href="#linearGradient2-4"
       id="radialGradient80972"
       gradientUnits="userSpaceOnUse"
       gradientTransform="matrix(1.3740327,0.66167754,-0.22183486,0.46066003,-71.842366,-102.57842)"
       cx="219.87335"
       cy="122.27562"
       fx="219.87335"
       fy="122.27562"
       r="49.675129" /><linearGradient
       id="linearGradient2-4"
       inkscape:collect="always"><stop
         style="stop-color:#3a9100;stop-opacity:0.61365855;"
         offset="0"
         id="stop1" /><stop
         style="stop-color:#3e9a00;stop-opacity:0;"
         offset="1"
         id="stop2" /></linearGradient></defs><sodipodi:namedview
     id="base"
     pagecolor="#ffffff"
     bordercolor="#000000"
     borderopacity="0.3"
     inkscape:pageopacity="0.0"
     inkscape:pageshadow="2"
     inkscape:zoom="0.98994949"
     inkscape:cx="505.07627"
     inkscape:cy="476.792"
     inkscape:document-units="mm"
     inkscape:showpageshadow="2"
     inkscape:pagecheckerboard="0"
     inkscape:deskcolor="#d1d1d1"
     inkscape:current-layer="svg1"
     showguides="true" /><metadata
     id="metadata1"><rdf:RDF><cc:Work
         rdf:about=""><dc:format>image/svg+xml</dc:format><dc:type
           rdf:resource="http://purl.org/dc/dcmitype/StillImage" /><cc:license
           rdf:resource="http://creativecommons.org/publicdomain/zero/1.0/" /></cc:Work><cc:License
         rdf:about="http://creativecommons.org/publicdomain/zero/1.0/"><cc:permits
           rdf:resource="http://creativecommons.org/ns#Reproduction" /><cc:permits
           rdf:resource="http://creativecommons.org/ns#Distribution" /><cc:permits
           rdf:resource="http://creativecommons.org/ns#DerivativeWorks" /></cc:License></rdf:RDF></metadata><g
     id="g28"
     transform="matrix(1.0481261,0,0,1.0481261,-6.4074194,-6.1384097)"><g
       id="g7"
       inkscape:label="shadow"
       style="display:inline"><path
         id="rect1"
         style="fill:#000000;fill-opacity:0.0602258;stroke-width:3.72791;stroke-linecap:square"
         d="M 48.380952,13.418155 H 179.16071 l 43.46726,43.278274 V 244.17261 H 48.380952 Z"
         sodipodi:nodetypes="cccccc" /><path
         id="path1"
         style="fill:#000000;fill-opacity:0.0752823;stroke-width:3.72791;stroke-linecap:square"
         d="m 47.563027,12.60023 129.443423,-0.133635 43.46726,43.278274 1.33635,187.609821 H 47.563027 Z"
         sodipodi:nodetypes="cccccc" /><path
         id="path2"
         style="fill:#000000;fill-opacity:0.0602258;stroke-width:3.72791;stroke-linecap:square"
         d="m 46.493949,11.793049 128.975701,-0.868626 43.46726,43.278274 1.80407,188.344813 H 46.493949 Z"
         sodipodi:nodetypes="cccccc" /><path
         id="path3"
         style="fill:#000000;fill-opacity:0.0602258;stroke-width:3.72791;stroke-linecap:square"
         d="m 45.964782,12.33296 129.777508,0.467722 43.46726,42.209196 1.00226,187.008462 H 45.964782 Z"
         sodipodi:nodetypes="cccccc" /><path
         id="path4"
         style="fill:#000000;fill-opacity:0.0602258;stroke-width:3.72791;stroke-linecap:square"
         d="m 45.435615,12.338332 129.443415,0.935443 43.46726,41.674657 1.33635,186.540738 H 45.435615 Z"
         sodipodi:nodetypes="cccccc" /><path
         id="path5"
         style="fill:#000000;fill-opacity:0.0602258;stroke-width:3.72791;stroke-linecap:square"
         d="M 44.906448,12.744609 174.8844,13.412783 218.35166,54.151996 219.15347,240.96 H 44.906448 Z"
         sodipodi:nodetypes="cccccc" /><path
         id="path6"
         style="fill:#000000;fill-opacity:0.0602258;stroke-width:3.72791;stroke-linecap:square"
         d="m 44.377281,15.021772 129.911129,0.534539 43.46726,37.932883 0.86863,186.941636 H 44.377281 Z"
         sodipodi:nodetypes="cccccc" /><path
         id="path7"
         style="fill:#000000;fill-opacity:0.0602258;stroke-width:3.72791;stroke-linecap:square"
         d="m 43.848114,13.423527 129.710676,1.069078 43.46726,39.001961 1.06908,186.407094 H 43.848114 Z"
         sodipodi:nodetypes="cccccc" /></g><g
       id="g14"
       style="display:inline"><path
         style="color:#000000;fill:url(#linearGradient14);stroke-linecap:square;-inkscape-stroke:none"
         d="M 46.153822,14.648159 H 173.78301 l 40.90293,41.140298 V 236.0795 H 46.554726 Z"
         id="path15"
         inkscape:label="headbgground" /><path
         id="rect16"
         style="display:inline;fill:url(#linearGradient17);fill-opacity:1;stroke-width:4.99999;stroke-linecap:square"
         d="M 45.435818,14.165285 H 176.70315 l 0.20408,8.220982 H 53.433709 V 235.97952 h -7.997891 z"
         sodipodi:nodetypes="ccccccc" /><path
         id="rect17"
         style="fill:url(#linearGradient19);stroke-width:4.99999;stroke-linecap:square"
         d="M 47.058037,227.91965 H 207.27506 l -0.0668,-168.246312 7.31651,0.0667 0.0668,168.546562 -7.08265,0.0331 v 7.34846 H 47.058037 Z"
         sodipodi:nodetypes="ccccccccc" /><path
         style="color:#000000;fill:url(#linearGradient10);stroke-linecap:square;-inkscape-stroke:none"
         d="M 43.648437,12.148438 44.058594,238.58008 H 217.18555 V 54.757812 L 174.82227,12.148438 Z m 4.608862,4.999999 H 172.74414 l 39.44141,39.671875 V 233.58008 H 48.775405 Z"
         id="path16"
         inkscape:label="headframe"
         sodipodi:nodetypes="cccccccccccc" /><g
         id="g3"
         inkscape:label="head"
         style="display:inline"
         transform="matrix(1.0116484,0,0,1.0116484,1.0796668,5.2000963)"><path
           id="rect4"
           style="fill:url(#linearGradient5);fill-opacity:0.867749;stroke-width:1.00012;stroke-linecap:round;stroke-linejoin:round;stroke-miterlimit:9.6"
           d="M 46.772167,11.759859 174.25974,11.22532 c 11.69728,8.148891 12.26879,23.714969 16.03617,37.15046 H 46.772167 Z"
           sodipodi:nodetypes="ccccc" /><text
           xml:space="preserve"
           style="font-weight:600;font-size:28.2223px;line-height:0.7;font-family:FreeSans;-inkscape-font-specification:'FreeSans Semi-Bold';letter-spacing:0px;word-spacing:0px;fill:#0d0a02;fill-opacity:0.867749;stroke:none;stroke-width:1.00012;stroke-linecap:round;stroke-linejoin:round;stroke-miterlimit:9.6"
           x="52.38483"
           y="37.952271"
           id="text7"><tspan
             sodipodi:role="line"
             id="tspan7"
             style="fill:#ffffff;fill-opacity:0.867749;stroke:#000000;stroke-width:1.00012;stroke-opacity:1"
             x="52.38483"
             y="37.952271">Video</tspan></text></g></g><g
       id="rect23"
       style="display:inline"><rect
         style="display:inline;fill:url(#linearGradient23);fill-opacity:0.834379;stroke:none;stroke-width:4.99999;stroke-linecap:square;stroke-dasharray:none;stroke-opacity:1"
         id="rect20"
         width="30.128031"
         height="11.286353"
         x="177.19191"
         y="53.347572" /><path
         style="color:#000000;display:inline;fill:url(#linearGradient25);stroke-linecap:square;stroke-linejoin:bevel;-inkscape-stroke:none"
         d="m 174.15254,15.119046 40.91592,41.955358 H 174.814 Z"
         id="path25" /><g
         id="g27"><path
           id="rect27"
           style="display:inline;fill:#0a6db5;fill-opacity:0.459222;stroke-width:4.99999;stroke-linecap:square;stroke-linejoin:bevel"
           d="m 182.94047,23.245534 33.07293,33.82887 -33.07293,-0.09449 z"
           sodipodi:nodetypes="cccc" /><path
           id="path27"
           style="display:inline;fill:#1882cf;fill-opacity:0.459222;stroke-width:4.99999;stroke-linecap:square;stroke-linejoin:bevel"
           d="m 175.28645,49.514879 34.91556,0.188989 4.67746,7.087054 -39.68751,-0.472471 z"
           sodipodi:nodetypes="ccccc" /></g><path
         style="color:#000000;display:inline;fill:url(#linearGradient27);stroke-linecap:square;stroke-linejoin:bevel;-inkscape-stroke:none"
         d="m 175.94141,13.373047 -4.28907,1.785156 6.5e-4,44.600911 c 0,0 29.8634,-0.184895 43.41537,-0.184895 l 1.78906,-4.246094 z m 1.4286,7.056744 34.22551,34.144428 h -34.32013 z"
         id="path26"
         sodipodi:nodetypes="cccccccccc" /></g></g><g
     id="g32"
     inkscape:label="video-oblique"
     transform="matrix(1.9753807,-0.41306409,0.54458952,1.9478779,-27.410383,-4.0915177)"><path
       id="path27-7"
       style="fill:#f3f3f3;fill-opacity:0.689482;stroke-width:5.46172;stroke-linecap:round;stroke-linejoin:round"
       d="m 33.50862,56.11048 c -1.034421,0 -1.867341,0.832922 -1.867341,1.867338 v 33.415879 c 0,1.034416 0.83292,1.867337 1.867341,1.867337 h 50.735804 c 1.03442,0 1.86684,-0.832921 1.86684,-1.867337 V 57.977818 c 0,-1.034416 -0.83242,-1.867338 -1.86684,-1.867338 z"
       inkscape:label="whitebg"
       sodipodi:nodetypes="sssssssss" /><g
       id="g30"
       inkscape:label="shadow"
       style="fill:#000000;fill-opacity:0.173623"><path
         id="path28"
         style="fill:#000000;fill-opacity:0.173623;stroke-width:5.66801;stroke-linecap:round;stroke-linejoin:round"
         d="m 33.203013,55.853955 c -1.07349,0 -1.93787,0.864381 -1.93787,1.937867 v 34.677986 c 0,1.073486 0.86438,1.937866 1.93787,1.937866 h 52.65208 c 1.07349,0 1.93735,-0.86438 1.93735,-1.937866 V 57.791822 c 0,-1.073486 -0.86386,-1.937867 -1.93735,-1.937867 z m 1.34979,3.302124 h 3.25716 v 3.52485 h -3.25716 z m 4.74389,0 h 3.25717 v 3.52485 h -3.25717 z m 4.9444,0 h 3.25717 v 3.52485 h -3.25717 z m 4.67724,0 h 3.25716 v 3.52485 h -3.25716 z m 4.81107,0 h 3.25717 v 3.52485 h -3.25717 z m 4.74752,0 h 3.25716 v 3.52485 h -3.25716 z m 4.76043,0 h 3.25717 v 3.52485 h -3.25717 z m 4.7439,0 h 3.25716 v 3.52485 h -3.25716 z m 4.71082,0 h 3.25717 v 3.52485 h -3.25717 z m 4.77749,0 h 3.25716 v 3.52485 h -3.25716 z m 4.67723,0 h 3.25717 v 3.52485 h -3.25717 z m -43.20356,5.412073 -0.01654,21.072616 -6.21409,0.01757 -0.0062,-21.067965 z m 47.625,0 -0.01654,21.072616 -6.21409,0.01757 -0.0062,-21.067965 z m -25.33696,0.0186 h 15.92203 V 85.65885 h -15.92203 z m -19.15439,0.0047 h 16.0166 V 85.66355 h -16.0166 z m -7.6047,22.733496 h 3.25768 v 3.524849 h -3.25768 z m 4.7439,0 h 3.25768 v 3.524849 h -3.25768 z m 4.9444,0 h 3.25768 v 3.524849 h -3.25768 z m 4.67723,0 h 3.25768 v 3.524849 h -3.25768 z m 4.81108,0 h 3.25768 v 3.524849 h -3.25768 z m 4.74751,0 h 3.25768 v 3.524849 h -3.25768 z m 4.76044,0 h 3.25768 v 3.524849 h -3.25768 z m 4.74389,0 h 3.25768 v 3.524849 h -3.25768 z m 4.71083,0 h 3.25768 v 3.524849 h -3.25768 z m 4.77748,0 h 3.25768 v 3.524849 h -3.25768 z m 4.67724,0 h 3.25768 v 3.524849 h -3.25768 z"
         inkscape:label="cell" /><path
         id="path29"
         style="fill:#000000;fill-opacity:0.173623;stroke-width:5.66801;stroke-linecap:round;stroke-linejoin:round"
         d="m 33.73218,56.383122 c -1.07349,0 -1.93787,0.864381 -1.93787,1.937867 v 34.677986 c 0,1.073486 0.86438,1.937866 1.93787,1.937866 h 52.65208 c 1.07349,0 1.93735,-0.86438 1.93735,-1.937866 V 58.320989 c 0,-1.073486 -0.86386,-1.937867 -1.93735,-1.937867 z m 1.34979,3.302124 h 3.25716 v 3.52485 h -3.25716 z m 4.74389,0 h 3.25717 v 3.52485 h -3.25717 z m 4.9444,0 h 3.25717 v 3.52485 h -3.25717 z m 4.67724,0 h 3.25716 v 3.52485 H 49.4475 Z m 4.81107,0 h 3.25717 v 3.52485 h -3.25717 z m 4.74752,0 h 3.25716 v 3.52485 h -3.25716 z m 4.76043,0 h 3.25717 v 3.52485 h -3.25717 z m 4.7439,0 h 3.25716 v 3.52485 h -3.25716 z m 4.71082,0 h 3.25717 v 3.52485 h -3.25717 z m 4.77749,0 h 3.25716 v 3.52485 h -3.25716 z m 4.67723,0 h 3.25717 v 3.52485 h -3.25717 z m -43.20356,5.412073 -0.01654,21.072616 -6.21409,0.01757 -0.0062,-21.067965 z m 47.625,0 -0.01654,21.072616 -6.21409,0.01757 -0.0062,-21.067965 z m -25.33696,0.0186 H 77.68247 V 86.188017 H 61.76044 Z m -19.15439,0.0047 h 16.0166 v 21.072098 h -16.0166 z m -7.6047,22.733496 h 3.25768 v 3.524849 h -3.25768 z m 4.7439,0 h 3.25768 v 3.524849 h -3.25768 z m 4.9444,0 h 3.25768 v 3.524849 h -3.25768 z m 4.67723,0 h 3.25768 v 3.524849 h -3.25768 z m 4.81108,0 h 3.25768 v 3.524849 h -3.25768 z m 4.74751,0 h 3.25768 v 3.524849 h -3.25768 z m 4.76044,0 h 3.25768 v 3.524849 h -3.25768 z m 4.74389,0 h 3.25768 v 3.524849 H 68.4298 Z m 4.71083,0 h 3.25768 v 3.524849 h -3.25768 z m 4.77748,0 h 3.25768 v 3.524849 h -3.25768 z m 4.67724,0 h 3.25768 v 3.524849 h -3.25768 z"
         inkscape:label="cell" /><path
         id="path30"
         style="fill:#000000;fill-opacity:0.173623;stroke-width:5.66801;stroke-linecap:round;stroke-linejoin:round"
         d="m 34.261347,56.912289 c -1.07349,0 -1.93787,0.864381 -1.93787,1.937867 v 34.677986 c 0,1.073486 0.86438,1.937866 1.93787,1.937866 h 52.65208 c 1.07349,0 1.93735,-0.86438 1.93735,-1.937866 V 58.850156 c 0,-1.073486 -0.86386,-1.937867 -1.93735,-1.937867 z m 1.34979,3.302124 h 3.25716 v 3.52485 h -3.25716 z m 4.74389,0 h 3.25717 v 3.52485 h -3.25717 z m 4.9444,0 h 3.25717 v 3.52485 h -3.25717 z m 4.67724,0 h 3.25716 v 3.52485 h -3.25716 z m 4.81107,0 h 3.25717 v 3.52485 h -3.25717 z m 4.74752,0 h 3.25716 v 3.52485 h -3.25716 z m 4.76043,0 h 3.25717 v 3.52485 h -3.25717 z m 4.7439,0 h 3.25716 v 3.52485 h -3.25716 z m 4.71082,0 h 3.25717 v 3.52485 h -3.25717 z m 4.77749,0 h 3.25716 v 3.52485 h -3.25716 z m 4.67723,0 h 3.25717 v 3.52485 h -3.25717 z m -43.20356,5.412073 -0.01654,21.072616 -6.21409,0.01757 -0.0062,-21.067965 z m 47.625,0 -0.01654,21.072616 -6.21409,0.01757 -0.0062,-21.067965 z m -25.33696,0.0186 h 15.92203 v 21.072098 h -15.92203 z m -19.15439,0.0047 h 16.0166 v 21.072098 h -16.0166 z m -7.6047,22.733496 h 3.25768 v 3.524849 h -3.25768 z m 4.7439,0 h 3.25768 v 3.524849 h -3.25768 z m 4.9444,0 h 3.25768 v 3.524849 h -3.25768 z m 4.67723,0 h 3.25768 v 3.524849 h -3.25768 z m 4.81108,0 h 3.25768 v 3.524849 h -3.25768 z m 4.74751,0 h 3.25768 v 3.524849 h -3.25768 z m 4.76044,0 h 3.25768 v 3.524849 h -3.25768 z m 4.74389,0 h 3.25768 v 3.524849 h -3.25768 z m 4.71083,0 h 3.25768 v 3.524849 h -3.25768 z m 4.77748,0 h 3.25768 v 3.524849 h -3.25768 z m 4.67724,0 h 3.25768 v 3.524849 h -3.25768 z"
         inkscape:label="cell" /></g><path
       id="path31"
       style="fill:url(#linearGradient32);stroke-width:5.66801;stroke-linecap:round;stroke-linejoin:round"
       inkscape:label="bg"
       d="m 31.270535,63.209244 h 55.59206 v 23.118814 h -55.59206 z" /><path
       id="path32"
       style="fill:#000000;fill-opacity:1;stroke-width:5.66801;stroke-linecap:round;stroke-linejoin:round"
       d="m 32.673846,55.324788 c -1.07349,0 -1.93787,0.864381 -1.93787,1.937867 v 34.677986 c 0,1.073486 0.86438,1.937866 1.93787,1.937866 h 52.65208 c 1.07349,0 1.93735,-0.86438 1.93735,-1.937866 V 57.262655 c 0,-1.073486 -0.86386,-1.937867 -1.93735,-1.937867 z m 1.34979,3.302124 h 3.25716 v 3.52485 h -3.25716 z m 4.74389,0 h 3.25717 v 3.52485 h -3.25717 z m 4.9444,0 h 3.25717 v 3.52485 h -3.25717 z m 4.67724,0 h 3.25716 v 3.52485 h -3.25716 z m 4.81107,0 h 3.25717 v 3.52485 h -3.25717 z m 4.74752,0 h 3.25716 v 3.52485 h -3.25716 z m 4.76043,0 h 3.25717 v 3.52485 h -3.25717 z m 4.7439,0 h 3.25716 v 3.52485 h -3.25716 z m 4.71082,0 h 3.25717 v 3.52485 h -3.25717 z m 4.77749,0 h 3.25716 v 3.52485 h -3.25716 z m 4.67723,0 h 3.25717 v 3.52485 h -3.25717 z m -43.20356,5.412073 -0.01654,21.072616 -6.21409,0.01757 -0.0062,-21.067965 z m 47.625,0 -0.01654,21.072616 -6.21409,0.01757 -0.0062,-21.067965 z m -25.33696,0.0186 h 15.92203 v 21.072098 h -15.92203 z m -19.15439,0.0047 h 16.0166 v 21.072098 h -16.0166 z m -7.6047,22.733496 h 3.25768 v 3.524849 h -3.25768 z m 4.7439,0 h 3.25768 v 3.524849 h -3.25768 z m 4.9444,0 h 3.25768 v 3.524849 h -3.25768 z m 4.67723,0 h 3.25768 v 3.524849 h -3.25768 z m 4.81108,0 h 3.25768 v 3.524849 h -3.25768 z m 4.74751,0 h 3.25768 v 3.524849 h -3.25768 z m 4.76044,0 h 3.25768 v 3.524849 h -3.25768 z m 4.74389,0 h 3.25768 v 3.524849 h -3.25768 z m 4.71083,0 h 3.25768 v 3.524849 h -3.25768 z m 4.77748,0 h 3.25768 v 3.524849 h -3.25768 z m 4.67724,0 h 3.25768 v 3.524849 h -3.25768 z"
       inkscape:label="cell" /></g><text
     xml:space="preserve"
     style="font-weight:bold;font-size:60.0895px;line-height:1.1;font-family:'Liberation Sans';-inkscape-font-specification:'Liberation Sans Bold';letter-spacing:0.901345px;word-spacing:0px;display:inline;fill:#000000;fill-rule:evenodd;stroke-width:13.9318;stroke-linecap:round;stroke-linejoin:round"
     x="58.896397"
     y="231.62589"
     id="text2"><tspan
       sodipodi:role="line"
       id="tspan2"
       x="58.896397"
       y="231.62589"
       style="stroke-width:13.9318">WMP</tspan></text><g
     id="g80976"
     inkscape:label="MS Flagg"
     transform="matrix(0.60232095,0.02896366,-0.02896366,0.60232095,113.39927,41.539642)"
     style="display:inline"><g
       id="g80939"
       inkscape:label="Blue"
       style="display:inline"><path
         id="rect80944"
         style="display:inline;opacity:1;fill:#061aa9;stroke-linecap:square;stroke-linejoin:round;stroke-miterlimit:1.8;stroke-dashoffset:20.7632;paint-order:stroke fill markers"
         d="m 24.386856,184.20038 c 42.10253,-18.22533 64.297498,-4.75892 75.888954,1.35997 0.67362,0.69954 2.18749,1.75218 2.92686,3.00566 -32.334138,-20.86702 -76.018342,-1.05177 -76.018342,-1.05177 0,0 -1.5491,-1.33715 -2.797472,-3.31386 z"
         sodipodi:nodetypes="ccccc"
         inkscape:label="bottom" /><path
         id="rect80939"
         style="opacity:1;fill:url(#linearGradient80940);stroke-width:0;stroke-linecap:square;stroke-linejoin:round;stroke-miterlimit:1.8;stroke-dasharray:none;stroke-dashoffset:20.7632;paint-order:stroke fill markers"
         d="m 39.407406,114.37037 c 25.55942,-16.27544 56.471292,-18.378359 78.791724,-0.41903 -5.17864,20.25334 -11.06022,43.43576 -18.01812,71.60204 -29.556986,-16.45156 -50.726434,-10.70859 -75.772856,-1.37718 3.663948,-18.31232 10.93956,-50.05267 14.999252,-69.80583 z"
         sodipodi:nodetypes="ccccc" /><path
         id="path80939"
         style="opacity:1;fill:none;stroke:#0044bc;stroke-width:1;stroke-linecap:square;stroke-linejoin:round;stroke-miterlimit:1.8;stroke-dasharray:none;stroke-dashoffset:20.7632;stroke-opacity:1;paint-order:stroke fill markers"
         d="m 41.921563,115.83696 c 25.611799,-14.23269 49.452603,-15.70706 72.506337,-0.4714 -5.17864,20.25334 -9.38412,37.35987 -16.342021,65.52615 -27.880881,-14.46119 -51.616865,-8.2468 -69.539841,-0.5915 3.663948,-18.31232 9.315833,-44.71009 13.375525,-64.46325 z"
         sodipodi:nodetypes="ccccc" /><path
         id="path80944"
         style="opacity:1;fill:url(#linearGradient80946);stroke-linecap:square;stroke-linejoin:round;stroke-miterlimit:1.8;stroke-dashoffset:20.7632;paint-order:stroke fill markers"
         d="m 118.11302,113.92276 c -8.75678,34.51961 -14.08038,56.15987 -17.95041,71.65983 0.59055,0.62546 2.05007,1.89336 3.04102,2.98576 5.16871,-16.04821 18.12771,-71.20505 18.12771,-71.20505 0,0 -1.16895,-1.65978 -3.21832,-3.44054 z"
         sodipodi:nodetypes="ccccc"
         inkscape:label="right" /></g><g
       id="g80949"
       inkscape:label="red"
       transform="translate(18.520839,-82.020879)"
       style="display:inline"><path
         id="path80946"
         style="display:inline;opacity:1;fill:#af3e00;fill-opacity:1;stroke-linecap:square;stroke-linejoin:round;stroke-miterlimit:1.8;stroke-dashoffset:20.7632;paint-order:stroke fill markers"
         d="m 24.488707,184.23873 c 40.636504,-17.20312 62.499614,-5.91814 76.287103,1.5994 0.54004,0.52652 1.83802,0.95277 3.09513,2.20625 -32.334139,-20.86702 -77.158017,-0.26825 -77.158017,-0.26825 0,0 -1.157541,-1.76939 -2.224216,-3.5374 z"
         sodipodi:nodetypes="ccccc"
         inkscape:label="bottom" /><path
         id="path80947"
         style="opacity:1;fill:url(#linearGradient80949);stroke-width:0;stroke-linecap:square;stroke-linejoin:round;stroke-miterlimit:1.8;stroke-dasharray:none;stroke-dashoffset:20.7632;paint-order:stroke fill markers"
         d="m 39.407406,114.37037 c 25.55942,-16.27544 56.471292,-18.378359 78.791724,-0.41903 -5.17864,20.25334 -11.06022,43.43576 -18.01812,71.60204 -29.556986,-16.45156 -50.634771,-10.63002 -75.681193,-1.29861 3.663948,-18.31232 10.847897,-50.13124 14.907589,-69.8844 z"
         sodipodi:nodetypes="ccccc" /><path
         id="path80948"
         style="opacity:1;fill:none;stroke:#bc2d00;stroke-width:1;stroke-linecap:square;stroke-linejoin:round;stroke-miterlimit:1.8;stroke-dasharray:none;stroke-dashoffset:20.7632;stroke-opacity:1;paint-order:stroke fill markers"
         d="m 41.921563,115.83696 c 25.611799,-14.23269 49.452603,-15.70706 72.506337,-0.4714 -5.17864,20.25334 -9.38412,37.35987 -16.342021,65.52615 -27.880881,-14.46119 -47.426603,-9.81815 -69.539841,-0.5915 3.663948,-18.31232 9.315833,-44.71009 13.375525,-64.46325 z"
         sodipodi:nodetypes="ccccc" /><path
         id="path80949"
         style="opacity:1;fill:url(#linearGradient80950);stroke-linecap:square;stroke-linejoin:round;stroke-miterlimit:1.8;stroke-dashoffset:20.7632;paint-order:stroke fill markers"
         d="m 118.17175,114.02379 c -8.70812,34.52859 -14.41634,55.84297 -17.9721,71.44769 0.54004,0.52652 2.58402,1.36505 3.84113,2.61853 5.16871,-16.04821 18.10537,-70.13412 18.10537,-70.13412 0,0 -2.29473,-2.59475 -3.9744,-3.9321 z"
         sodipodi:nodetypes="ccccc"
         inkscape:label="right" /></g><g
       id="g80957"
       inkscape:label="green"
       style="display:inline"><path
         id="rect80958"
         style="opacity:1;fill:url(#linearGradient80962);stroke-linecap:square;stroke-linejoin:round;stroke-miterlimit:1.8;stroke-dashoffset:20.7632;paint-order:stroke fill markers"
         d="m 227.25925,39.851852 4.26343,2.641248 -16.85603,71.43283 -3.68518,-3.5926 z"
         sodipodi:nodetypes="ccccc"
         inkscape:label="right" /><path
         id="path80957"
         style="display:inline;opacity:1;fill:url(#linearGradient80961);stroke:none;stroke-linecap:square;stroke-linejoin:round;stroke-miterlimit:1.8;stroke-dashoffset:20.7632;paint-order:stroke fill markers"
         d="m 144.56406,38.445657 c 19.47419,12.598018 51.32778,13.458311 82.90582,1.372363 -4.48248,18.463452 -10.92622,49.982592 -16.48908,70.50861 -52.76688,26.86317 -82.86118,-2.81481 -82.86118,-2.81481 0,0 10.47432,-46.655229 16.44444,-69.066163 z"
         sodipodi:nodetypes="ccccc"
         inkscape:label="back" /><path
         id="rect80957"
         style="opacity:1;fill:none;fill-opacity:0.704806;stroke:#328900;stroke-linecap:square;stroke-linejoin:round;stroke-miterlimit:1.8;stroke-dashoffset:20.7632;stroke-opacity:1;paint-order:stroke fill markers"
         d="m 146.34184,43.597979 c 20.18206,11.254156 51.86645,9.87117 76.97989,0.07189 -4.48248,18.463452 -9.66696,43.612222 -15.22982,64.138231 -50.69281,23.75206 -76.41673,-2.5185 -76.41673,-2.5185 0,0 8.69654,-39.28069 14.66666,-61.691624 z"
         sodipodi:nodetypes="cccccc"
         inkscape:label="stripe" /><path
         id="path80960"
         style="display:inline;opacity:1;fill:url(#radialGradient80966);fill-opacity:0.704806;stroke:none;stroke-linecap:square;stroke-linejoin:round;stroke-miterlimit:1.8;stroke-dashoffset:20.7632;paint-order:stroke fill markers"
         d="m 144.56406,39.597979 c 20.62651,11.550452 50.38497,10.315614 82.90582,0.220041 -4.48248,18.463452 -10.92622,49.982592 -16.48908,70.50861 -52.76688,26.86317 -82.86118,-2.81481 -82.86118,-2.81481 0,0 10.47432,-45.502907 16.44444,-67.913841 z"
         sodipodi:nodetypes="ccccc"
         inkscape:label="colorfront" /><path
         id="path80959"
         style="opacity:1;fill:#3a9100;fill-opacity:1;stroke-linecap:square;stroke-linejoin:round;stroke-miterlimit:1.8;stroke-dashoffset:20.7632;paint-order:stroke fill markers"
         d="m 128.36906,107.83886 c 26.49017,33.19912 86.29759,6.08707 86.29759,6.08707 l -3.68518,-3.62037 c 0,0 -47.45965,26.33972 -82.61241,-2.4667 z"
         sodipodi:nodetypes="cccc"
         inkscape:label="bottom" /></g><g
       id="g80971"
       inkscape:label="yellow"
       style="display:inline"
       transform="translate(-19.875469,81.354212)"><path
         id="path80967"
         style="opacity:1;fill:url(#linearGradient80971);stroke-linecap:square;stroke-linejoin:round;stroke-miterlimit:1.8;stroke-dashoffset:20.7632;paint-order:stroke fill markers"
         d="m 227.25925,39.851852 4.26343,2.641248 -16.85603,71.43283 -3.68518,-3.5926 z"
         sodipodi:nodetypes="ccccc"
         inkscape:label="right" /><path
         id="path80968"
         style="display:inline;opacity:1;fill:url(#linearGradient80972);stroke:none;stroke-linecap:square;stroke-linejoin:round;stroke-miterlimit:1.8;stroke-dashoffset:20.7632;paint-order:stroke fill markers"
         d="m 144.56406,38.445657 c 19.47419,12.598018 51.32778,13.458311 82.90582,1.372363 -4.48248,18.463452 -10.92622,49.982592 -16.48908,70.50861 -52.76688,26.86317 -82.86118,-2.81481 -82.86118,-2.81481 0,0 10.47432,-46.655229 16.44444,-69.066163 z"
         sodipodi:nodetypes="ccccc"
         inkscape:label="back" /><path
         id="path80969"
         style="opacity:1;fill:none;fill-opacity:0.704806;stroke:#a7a700;stroke-linecap:square;stroke-linejoin:round;stroke-miterlimit:1.8;stroke-dashoffset:20.7632;stroke-opacity:1;paint-order:stroke fill markers"
         d="m 146.34184,43.597979 c 20.18206,11.254156 51.86645,9.87117 76.97989,0.07189 -4.48248,18.463452 -9.66696,43.612222 -15.22982,64.138231 -50.69281,23.75206 -76.41673,-2.5185 -76.41673,-2.5185 0,0 8.69654,-39.28069 14.66666,-61.691624 z"
         sodipodi:nodetypes="cccccc"
         inkscape:label="stripe" /><path
         id="path80970"
         style="display:none;opacity:1;fill:url(#radialGradient80972);fill-opacity:0.704806;stroke:none;stroke-linecap:square;stroke-linejoin:round;stroke-miterlimit:1.8;stroke-dashoffset:20.7632;paint-order:stroke fill markers"
         d="m 144.56406,39.597979 c 20.62651,11.550452 50.38497,10.315614 82.90582,0.220041 -4.48248,18.463452 -10.92622,49.982592 -16.48908,70.50861 -52.76688,26.86317 -82.86118,-2.81481 -82.86118,-2.81481 0,0 10.47432,-45.502907 16.44444,-67.913841 z"
         sodipodi:nodetypes="ccccc"
         inkscape:label="colorfront" /><path
         id="path80971"
         style="opacity:1;fill:#918e00;fill-opacity:1;stroke-linecap:square;stroke-linejoin:round;stroke-miterlimit:1.8;stroke-dashoffset:20.7632;paint-order:stroke fill markers"
         d="m 128.15955,107.41983 c 0.75363,1.84096 1.79671,2.97525 2.58454,4.81959 11.11077,8.14981 37.29437,20.98561 83.92256,1.68651 -2.36982,-2.36527 -3.68518,-3.62037 -3.68518,-3.62037 0,0 -44.94549,26.96826 -82.82192,-2.88573 z"
         sodipodi:nodetypes="ccccc"
         inkscape:label="bottom" /></g></g></svg>
