<?xml version="1.0" encoding="UTF-8"?>
<svg version="1.1" xmlns="http://www.w3.org/2000/svg" width="64" height="64">
<path d="M0 0 C17.16 0 34.32 0 52 0 C52 0.66 52 1.32 52 2 C52.66 2 53.32 2 54 2 C54 2.66 54 3.32 54 4 C54.66 4 55.32 4 56 4 C56 21.16 56 38.32 56 56 C55.34 56 54.68 56 54 56 C54 56.66 54 57.32 54 58 C53.34 58 52.68 58 52 58 C52 58.66 52 59.32 52 60 C34.84 60 17.68 60 0 60 C0 59.34 0 58.68 0 58 C-0.66 58 -1.32 58 -2 58 C-2 57.34 -2 56.68 -2 56 C-2.66 56 -3.32 56 -4 56 C-4 38.84 -4 21.68 -4 4 C-3.34 4 -2.68 4 -2 4 C-2 3.34 -2 2.68 -2 2 C-1.34 2 -0.68 2 0 2 C0 1.34 0 0.68 0 0 Z " fill="#0DA325" transform="translate(6,2)"/>
<path d="M0 0 C3.96 0 7.92 0 12 0 C12 0.66 12 1.32 12 2 C13.98 2 15.96 2 18 2 C18 2.66 18 3.32 18 4 C18.66 4 19.32 4 20 4 C20 4.66 20 5.32 20 6 C20.66 6 21.32 6 22 6 C22 6.66 22 7.32 22 8 C22.66 8 23.32 8 24 8 C24 9.32 24 10.64 24 12 C24.66 12 25.32 12 26 12 C26 15.96 26 19.92 26 24 C25.34 24 24.68 24 24 24 C24 25.32 24 26.64 24 28 C23.34 28 22.68 28 22 28 C22 28.66 22 29.32 22 30 C21.34 30 20.68 30 20 30 C20 30.66 20 31.32 20 32 C19.34 32 18.68 32 18 32 C18 32.66 18 33.32 18 34 C17.34 34 16.68 34 16 34 C16 34.66 16 35.32 16 36 C15.34 36 14.68 36 14 36 C14 36.66 14 37.32 14 38 C13.34 38 12.68 38 12 38 C12 38.66 12 39.32 12 40 C10.68 40 9.36 40 8 40 C8 38.02 8 36.04 8 34 C4.04 34 0.08 34 -4 34 C-4 33.34 -4 32.68 -4 32 C-5.32 32 -6.64 32 -8 32 C-8 31.34 -8 30.68 -8 30 C-8.66 30 -9.32 30 -10 30 C-10 29.34 -10 28.68 -10 28 C-10.66 28 -11.32 28 -12 28 C-12 26.68 -12 25.36 -12 24 C-12.66 24 -13.32 24 -14 24 C-14 20.04 -14 16.08 -14 12 C-13.34 12 -12.68 12 -12 12 C-12 10.68 -12 9.36 -12 8 C-11.34 8 -10.68 8 -10 8 C-10 7.34 -10 6.68 -10 6 C-9.34 6 -8.68 6 -8 6 C-8 5.34 -8 4.68 -8 4 C-7.34 4 -6.68 4 -6 4 C-6 3.34 -6 2.68 -6 2 C-4.02 2 -2.04 2 0 2 C0 1.34 0 0.68 0 0 Z " fill="#F8FBF8" transform="translate(26,14)"/>
<path d="M0 0 C1.98 0 3.96 0 6 0 C6 0.66 6 1.32 6 2 C4.68 2 3.36 2 2 2 C2 2.66 2 3.32 2 4 C3.32 4 4.64 4 6 4 C6 4.66 6 5.32 6 6 C4.68 6 3.36 6 2 6 C2 6.66 2 7.32 2 8 C3.32 8 4.64 8 6 8 C6 8.66 6 9.32 6 10 C4.02 10 2.04 10 0 10 C0 6.7 0 3.4 0 0 Z " fill="#00C000" transform="translate(40,26)"/>
<path d="M0 0 C0.66 0 1.32 0 2 0 C2 3.3 2 6.6 2 10 C0.02 10 -1.96 10 -4 10 C-4 8.68 -4 7.36 -4 6 C-3.34 6 -2.68 6 -2 6 C-2 6.66 -2 7.32 -2 8 C-1.34 8 -0.68 8 0 8 C0 5.36 0 2.72 0 0 Z " fill="#00C000" transform="translate(22,26)"/>
<path d="M0 0 C0.66 0 1.32 0 2 0 C2 3.3 2 6.6 2 10 C1.34 10 0.68 10 0 10 C0 8.68 0 7.36 0 6 C-0.66 6 -1.32 6 -2 6 C-2 5.34 -2 4.68 -2 4 C-1.34 4 -0.68 4 0 4 C0 2.68 0 1.36 0 0 Z " fill="#00C000" transform="translate(36,26)"/>
<path d="M0 0 C0.66 0 1.32 0 2 0 C2 0.66 2 1.32 2 2 C2.66 2 3.32 2 4 2 C4 2.66 4 3.32 4 4 C3.34 4 2.68 4 2 4 C2 5.98 2 7.96 2 10 C1.34 10 0.68 10 0 10 C0 6.7 0 3.4 0 0 Z " fill="#00C000" transform="translate(30,26)"/>
</svg>
