<?xml version="1.0" encoding="UTF-8"?>
<svg version="1.1" xmlns="http://www.w3.org/2000/svg" width="64" height="64">
<path d="M0 0 C6.6 0 13.2 0 20 0 C20 0.66 20 1.32 20 2 C20.66 2 21.32 2 22 2 C22 2.66 22 3.32 22 4 C30.58 4 39.16 4 48 4 C48 4.66 48 5.32 48 6 C48.66 6 49.32 6 50 6 C50 6.66 50 7.32 50 8 C50.66 8 51.32 8 52 8 C52 9.32 52 10.64 52 12 C52.66 12 53.32 12 54 12 C54 24.54 54 37.08 54 50 C53.34 50 52.68 50 52 50 C52 50.66 52 51.32 52 52 C51.34 52 50.68 52 50 52 C50 52.66 50 53.32 50 54 C32.84 54 15.68 54 -2 54 C-2 52.68 -2 51.36 -2 50 C-2.66 50 -3.32 50 -4 50 C-4 48.02 -4 46.04 -4 44 C-4.66 44 -5.32 44 -6 44 C-6 41.36 -6 38.72 -6 36 C-6.66 36 -7.32 36 -8 36 C-8 33.36 -8 30.72 -8 28 C-8.66 28 -9.32 28 -10 28 C-10 24.7 -10 21.4 -10 18 C-9.34 18 -8.68 18 -8 18 C-8 17.34 -8 16.68 -8 16 C-6.68 16 -5.36 16 -4 16 C-4 12.04 -4 8.08 -4 4 C-3.34 4 -2.68 4 -2 4 C-2 3.34 -2 2.68 -2 2 C-1.34 2 -0.68 2 0 2 C0 1.34 0 0.68 0 0 Z " fill="#EFD65D" transform="translate(10,6)"/>
<path d="M0 0 C0.66 0 1.32 0 2 0 C2 1.32 2 2.64 2 4 C2.66 4 3.32 4 4 4 C4 5.32 4 6.64 4 8 C4.66 8 5.32 8 6 8 C6 9.98 6 11.96 6 14 C6.66 14 7.32 14 8 14 C8 19.28 8 24.56 8 30 C-8.5 30 -25 30 -42 30 C-42 26.04 -42 22.08 -42 18 C-42.66 18 -43.32 18 -44 18 C-44 15.36 -44 12.72 -44 10 C-44.66 10 -45.32 10 -46 10 C-46 7.36 -46 4.72 -46 2 C-30.82 2 -15.64 2 0 2 C0 1.34 0 0.68 0 0 Z " fill="#FBF58B" transform="translate(50,24)"/>
<path d="M0 0 C0.66 0 1.32 0 2 0 C2 0.66 2 1.32 2 2 C2.66 2 3.32 2 4 2 C4 3.32 4 4.64 4 6 C4.66 6 5.32 6 6 6 C6 18.54 6 31.08 6 44 C5.34 44 4.68 44 4 44 C4 44.66 4 45.32 4 46 C3.34 46 2.68 46 2 46 C2 46.66 2 47.32 2 48 C-15.16 48 -32.32 48 -50 48 C-50 46.68 -50 45.36 -50 44 C-50.66 44 -51.32 44 -52 44 C-52 42.02 -52 40.04 -52 38 C-51.34 38 -50.68 38 -50 38 C-50 39.32 -50 40.64 -50 42 C-33.5 42 -17 42 0 42 C0 35.4 0 28.8 0 22 C0.66 22 1.32 22 2 22 C2 16.06 2 10.12 2 4 C1.34 4 0.68 4 0 4 C0 2.68 0 1.36 0 0 Z " fill="#4D23CF" transform="translate(58,12)"/>
<path d="M0 0 C0.66 0 1.32 0 2 0 C2 1.98 2 3.96 2 6 C2.66 6 3.32 6 4 6 C4 11.28 4 16.56 4 22 C-12.5 22 -29 22 -46 22 C-46 21.34 -46 20.68 -46 20 C-44.68 20 -43.36 20 -42 20 C-42 19.34 -42 18.68 -42 18 C-41.34 18 -40.68 18 -40 18 C-40 18.66 -40 19.32 -40 20 C-38.68 20 -37.36 20 -36 20 C-36 19.34 -36 18.68 -36 18 C-35.34 18 -34.68 18 -34 18 C-34 18.66 -34 19.32 -34 20 C-32.68 20 -31.36 20 -30 20 C-30 19.34 -30 18.68 -30 18 C-28.02 18 -26.04 18 -24 18 C-24 16.68 -24 15.36 -24 14 C-22.68 14 -21.36 14 -20 14 C-20 14.66 -20 15.32 -20 16 C-20.66 16 -21.32 16 -22 16 C-22 16.66 -22 17.32 -22 18 C-20.68 18 -19.36 18 -18 18 C-18 17.34 -18 16.68 -18 16 C-17.34 16 -16.68 16 -16 16 C-16 15.34 -16 14.68 -16 14 C-15.34 14 -14.68 14 -14 14 C-14 15.32 -14 16.64 -14 18 C-13.34 18 -12.68 18 -12 18 C-12 16.68 -12 15.36 -12 14 C-10.68 14 -9.36 14 -8 14 C-8 14.66 -8 15.32 -8 16 C-7.34 16 -6.68 16 -6 16 C-6 15.34 -6 14.68 -6 14 C-5.34 14 -4.68 14 -4 14 C-4 13.34 -4 12.68 -4 12 C-3.34 12 -2.68 12 -2 12 C-2 11.34 -2 10.68 -2 10 C-1.34 10 -0.68 10 0 10 C0 8.68 0 7.36 0 6 C-0.66 6 -1.32 6 -2 6 C-2 5.34 -2 4.68 -2 4 C-1.34 4 -0.68 4 0 4 C0 2.68 0 1.36 0 0 Z " fill="#FEDF87" transform="translate(54,32)"/>
<path d="M0 0 C16.5 0 33 0 50 0 C50 0.66 50 1.32 50 2 C34.82 2 19.64 2 4 2 C4 4.64 4 7.28 4 10 C4.66 10 5.32 10 6 10 C6 12.64 6 15.28 6 18 C6.66 18 7.32 18 8 18 C8 20.64 8 23.28 8 26 C6.68 26 5.36 26 4 26 C4 23.36 4 20.72 4 18 C3.34 18 2.68 18 2 18 C2 15.36 2 12.72 2 10 C1.34 10 0.68 10 0 10 C0 6.7 0 3.4 0 0 Z " fill="#CEC3F0" transform="translate(0,24)"/>
<path d="M0 0 C0.66 0 1.32 0 2 0 C2 3.96 2 7.92 2 12 C-15.82 12 -33.64 12 -52 12 C-52 10.02 -52 8.04 -52 6 C-51.34 6 -50.68 6 -50 6 C-50 7.32 -50 8.64 -50 10 C-33.5 10 -17 10 0 10 C0 6.7 0 3.4 0 0 Z " fill="#7F7B12" transform="translate(58,44)"/>
<path d="M0 0 C0.66 0 1.32 0 2 0 C2 3.96 2 7.92 2 12 C16.52 12 31.04 12 46 12 C46 12.66 46 13.32 46 14 C29.5 14 13 14 -4 14 C-4 13.34 -4 12.68 -4 12 C-2.68 12 -1.36 12 0 12 C0 8.04 0 4.08 0 0 Z " fill="#756A35" transform="translate(6,10)"/>
<path d="M0 0 C6.6 0 13.2 0 20 0 C20 0.66 20 1.32 20 2 C19.34 2 18.68 2 18 2 C18 2.66 18 3.32 18 4 C12.72 4 7.44 4 2 4 C2 4.66 2 5.32 2 6 C1.34 6 0.68 6 0 6 C0 8.64 0 11.28 0 14 C-0.66 14 -1.32 14 -2 14 C-2 10.04 -2 6.08 -2 2 C-1.34 2 -0.68 2 0 2 C0 1.34 0 0.68 0 0 Z " fill="#B0A1A8" transform="translate(10,6)"/>
<path d="M0 0 C0.66 0 1.32 0 2 0 C2 0.66 2 1.32 2 2 C10.58 2 19.16 2 28 2 C28 2.66 28 3.32 28 4 C18.76 4 9.52 4 0 4 C0 2.68 0 1.36 0 0 Z " fill="#5029C1" transform="translate(30,8)"/>
<path d="M0 0 C8.58 0 17.16 0 26 0 C26 1.32 26 2.64 26 4 C25.34 4 24.68 4 24 4 C24 3.34 24 2.68 24 2 C16.08 2 8.16 2 0 2 C0 1.34 0 0.68 0 0 Z " fill="#848400" transform="translate(32,12)"/>
<path d="M0 0 C0.66 0 1.32 0 2 0 C2 5.94 2 11.88 2 18 C1.34 18 0.68 18 0 18 C0 19.32 0 20.64 0 22 C-0.66 22 -1.32 22 -2 22 C-2 20.02 -2 18.04 -2 16 C-1.34 16 -0.68 16 0 16 C0 10.72 0 5.44 0 0 Z " fill="#848400" transform="translate(58,16)"/>
</svg>
