<?xml version="1.0" encoding="UTF-8" standalone="no"?>
<!-- Created with Inkscape (http://www.inkscape.org/) -->

<svg
   width="256mm"
   height="256mm"
   viewBox="0 0 256 256"
   version="1.1"
   id="svg1"
   inkscape:version="1.3.2 (091e20ef0f, 2023-11-25)"
   sodipodi:docname="brightness-low.svg"
   xml:space="preserve"
   xmlns:inkscape="http://www.inkscape.org/namespaces/inkscape"
   xmlns:sodipodi="http://sodipodi.sourceforge.net/DTD/sodipodi-0.dtd"
   xmlns:xlink="http://www.w3.org/1999/xlink"
   xmlns="http://www.w3.org/2000/svg"
   xmlns:svg="http://www.w3.org/2000/svg"
   xmlns:rdf="http://www.w3.org/1999/02/22-rdf-syntax-ns#"
   xmlns:cc="http://creativecommons.org/ns#"
   xmlns:dc="http://purl.org/dc/elements/1.1/"><defs
     id="defs1"><linearGradient
       id="linearGradient61"
       inkscape:collect="always"><stop
         style="stop-color:#fffdde;stop-opacity:1;"
         offset="0"
         id="stop61" /><stop
         style="stop-color:#fffe51;stop-opacity:1;"
         offset="0.4247984"
         id="stop63" /><stop
         style="stop-color:#e7cc00;stop-opacity:1;"
         offset="0.57466167"
         id="stop64" /><stop
         style="stop-color:#dbad00;stop-opacity:1;"
         offset="1"
         id="stop62" /></linearGradient><linearGradient
       inkscape:collect="always"
       xlink:href="#linearGradient61"
       id="linearGradient62"
       x1="70.147293"
       y1="60.53664"
       x2="196.51895"
       y2="194.98759"
       gradientUnits="userSpaceOnUse" /></defs><sodipodi:namedview
     id="base"
     pagecolor="#ffffff"
     bordercolor="#000000"
     borderopacity="0.3"
     inkscape:pageopacity="0.0"
     inkscape:pageshadow="2"
     inkscape:zoom="0.98994949"
     inkscape:cx="505.07627"
     inkscape:cy="476.792"
     inkscape:document-units="mm"
     inkscape:showpageshadow="2"
     inkscape:pagecheckerboard="0"
     inkscape:deskcolor="#d1d1d1"
     inkscape:current-layer="svg1"
     showguides="true"><sodipodi:guide
       position="130.6948,219.91861"
       orientation="1,0"
       id="guide1"
       inkscape:locked="false" /><sodipodi:guide
       position="70.559154,137.33233"
       orientation="0,-1"
       id="guide2"
       inkscape:locked="false" /></sodipodi:namedview><metadata
     id="metadata1"><rdf:RDF><cc:Work
         rdf:about=""><dc:format>image/svg+xml</dc:format><dc:type
           rdf:resource="http://purl.org/dc/dcmitype/StillImage" /><cc:license
           rdf:resource="http://creativecommons.org/publicdomain/zero/1.0/" /></cc:Work><cc:License
         rdf:about="http://creativecommons.org/publicdomain/zero/1.0/"><cc:permits
           rdf:resource="http://creativecommons.org/ns#Reproduction" /><cc:permits
           rdf:resource="http://creativecommons.org/ns#Distribution" /><cc:permits
           rdf:resource="http://creativecommons.org/ns#DerivativeWorks" /></cc:License></rdf:RDF></metadata><g
     id="g64"
     transform="matrix(1.0706465,0,0,1.0706465,-16.743185,-4.1949335)"><g
       id="g75"><path
         id="path73"
         style="fill:#616161;fill-opacity:0.181015;stroke-width:0.871865;stroke-linecap:square;stroke-miterlimit:2.5;stroke-opacity:0.968627"
         d="m 138.49806,51.914664 c -40.224252,2e-6 -73.242087,33.01784 -73.24209,73.242076 -1e-6,40.2242 33.017835,73.24204 73.24209,73.24204 40.2242,1e-5 73.2441,-33.01784 73.2441,-73.24204 -1e-5,-40.224239 -33.0199,-73.242077 -73.2441,-73.242076 z m 0,38.240043 c 19.55727,0 35.00199,15.444753 35.00199,35.002033 0,19.55727 -15.44472,35.002 -35.00199,35.002 -19.55728,0 -34.99996,-15.44473 -34.99996,-35.002 0,-19.55728 15.44269,-35.002032 34.99996,-35.002033 z"
         inkscape:label="shadow"
         sodipodi:nodetypes="ssssssssss" /><path
         id="path74"
         style="fill:#616161;fill-opacity:0.181015;stroke-width:0.871865;stroke-linecap:square;stroke-miterlimit:2.5;stroke-opacity:0.968627"
         d="m 135.85221,53.502165 c -40.224237,2e-6 -73.242072,33.01784 -73.242075,73.242085 -10e-7,40.2242 33.017835,73.24204 73.242075,73.24204 40.2242,1e-5 73.2441,-33.01784 73.2441,-73.24204 -10e-6,-40.224248 -33.0199,-73.242086 -73.2441,-73.242085 z m 0,38.240043 c 19.55727,0 35.00199,15.444762 35.00199,35.002042 0,19.55727 -15.44472,35.002 -35.00199,35.002 -19.55728,0 -34.99996,-15.44473 -34.99996,-35.002 0,-19.55728 15.44269,-35.002041 34.99996,-35.002042 z"
         inkscape:label="shadow"
         sodipodi:nodetypes="ssssssssss" /><path
         id="path75"
         style="fill:#616161;fill-opacity:0.181015;stroke-width:0.871865;stroke-linecap:square;stroke-miterlimit:2.5;stroke-opacity:0.968627"
         d="m 139.5564,56.148 c -40.224258,2e-6 -73.242093,33.01784 -73.242096,73.2421 -1e-6,40.2242 33.017835,73.24204 73.242096,73.24204 40.2242,1e-5 73.2441,-33.01784 73.2441,-73.24204 -1e-5,-40.224263 -33.0199,-73.242101 -73.2441,-73.2421 z m 0,38.240043 c 19.55727,0 35.00199,15.444777 35.00199,35.002057 0,19.55727 -15.44472,35.002 -35.00199,35.002 -19.55728,0 -34.99996,-15.44473 -34.99996,-35.002 0,-19.55728 15.44269,-35.002056 34.99996,-35.002057 z"
         inkscape:label="shadow"
         sodipodi:nodetypes="ssssssssss" /><path
         id="path64"
         style="fill:#616161;fill-opacity:0.181015;stroke-width:0.871865;stroke-linecap:square;stroke-miterlimit:2.5;stroke-opacity:0.968627"
         d="m 135.85221,49.268829 c -40.224237,2e-6 -73.242072,33.01784 -73.242075,73.242061 -10e-7,40.2242 33.017835,73.24204 73.242075,73.24204 40.2242,1e-5 73.2441,-33.01784 73.2441,-73.24204 -10e-6,-40.224224 -33.0199,-73.242062 -73.2441,-73.242061 z m 0,38.240043 c 19.55727,0 35.00199,15.444738 35.00199,35.002018 0,19.55727 -15.44472,35.002 -35.00199,35.002 -19.55728,0 -34.99996,-15.44473 -34.99996,-35.002 0,-19.55728 15.44269,-35.002017 34.99996,-35.002018 z"
         inkscape:label="shadow"
         sodipodi:nodetypes="ssssssssss" /></g><path
       style="color:#000000;fill:url(#linearGradient62);stroke-linecap:square;stroke-miterlimit:2.5;-inkscape-stroke:none"
       d="m 130.56055,46.09375 c -40.224243,2e-6 -73.242188,33.017948 -73.242191,73.24219 -10e-7,40.22424 33.017945,73.24218 73.242191,73.24218 40.22424,10e-6 73.24414,-33.01794 73.24414,-73.24218 -1e-5,-40.224245 -33.0199,-73.242191 -73.24414,-73.24219 z m 0,38.240234 c 19.55729,0 35.00195,15.444661 35.00195,35.001956 0,19.55729 -15.44466,35.00195 -35.00195,35.00195 -19.5573,0 -35.000004,-15.44466 -35.000003,-35.00195 10e-7,-19.557294 15.442713,-35.001955 35.000003,-35.001956 z"
       id="path60" /></g></svg>
