<?xml version="1.0" encoding="UTF-8" standalone="no"?>
<!-- Created with Inkscape (http://www.inkscape.org/) -->

<svg
   width="256mm"
   height="256mm"
   viewBox="0 0 256 256"
   version="1.1"
   id="svg1"
   inkscape:version="1.3.2 (091e20ef0f, 2023-11-25)"
   xml:space="preserve"
   sodipodi:docname="convert-02.svg"
   xmlns:inkscape="http://www.inkscape.org/namespaces/inkscape"
   xmlns:sodipodi="http://sodipodi.sourceforge.net/DTD/sodipodi-0.dtd"
   xmlns:xlink="http://www.w3.org/1999/xlink"
   xmlns="http://www.w3.org/2000/svg"
   xmlns:svg="http://www.w3.org/2000/svg"
   xmlns:rdf="http://www.w3.org/1999/02/22-rdf-syntax-ns#"
   xmlns:cc="http://creativecommons.org/ns#"
   xmlns:dc="http://purl.org/dc/elements/1.1/"
   xmlns:a="http://ns.adobe.com/AdobeSVGViewerExtensions/3.0/"><defs
     id="defs1"><linearGradient
       id="linearGradient14"
       inkscape:collect="always"><stop
         style="stop-color:#f4fb97;stop-opacity:1"
         offset="0"
         id="stop15" /><stop
         style="stop-color:#f1fa96;stop-opacity:1"
         offset="0.39870191"
         id="stop17" /><stop
         style="stop-color:#ddef91;stop-opacity:1"
         offset="0.7120567"
         id="stop18" /><stop
         style="stop-color:#96cb80;stop-opacity:1"
         offset="1"
         id="stop16" /></linearGradient><linearGradient
       id="linearGradient9"
       inkscape:collect="always"><stop
         style="stop-color:#589b25;stop-opacity:1"
         offset="0"
         id="stop10" /><stop
         style="stop-color:#5fa02f;stop-opacity:1"
         offset="0.16824494"
         id="stop12" /><stop
         style="stop-color:#80ba60;stop-opacity:1"
         offset="0.49124458"
         id="stop13" /><stop
         style="stop-color:#96cb80;stop-opacity:1"
         offset="0.8383007"
         id="stop14" /><stop
         style="stop-color:#96cb80;stop-opacity:1"
         offset="1"
         id="stop11" /></linearGradient><linearGradient
       id="linearGradient6"
       inkscape:collect="always"><stop
         style="stop-color:#233aa0;stop-opacity:1"
         offset="0"
         id="stop6" /><stop
         style="stop-color:#233aa0;stop-opacity:1"
         offset="0.3152554"
         id="stop8" /><stop
         style="stop-color:#3d69c9;stop-opacity:1;"
         offset="1"
         id="stop9" /></linearGradient><linearGradient
       id="linearGradient4"
       inkscape:collect="always"><stop
         style="stop-color:#65a4fc;stop-opacity:1;"
         offset="0"
         id="stop4" /><stop
         style="stop-color:#afe6fe;stop-opacity:1"
         offset="1"
         id="stop5" /></linearGradient><linearGradient
       id="linearGradient1"
       inkscape:collect="always"><stop
         style="stop-color:#a4c7ef;stop-opacity:1"
         offset="0"
         id="stop1" /><stop
         style="stop-color:#d6f5fa;stop-opacity:1"
         offset="1"
         id="stop2" /></linearGradient><linearGradient
       inkscape:collect="always"
       xlink:href="#linearGradient1"
       id="linearGradient2"
       x1="127.78033"
       y1="10.690778"
       x2="127.78033"
       y2="79.379051"
       gradientUnits="userSpaceOnUse" /><linearGradient
       inkscape:collect="always"
       xlink:href="#linearGradient4"
       id="linearGradient5"
       x1="81.926338"
       y1="47.247021"
       x2="84.099693"
       y2="119.62946"
       gradientUnits="userSpaceOnUse" /><linearGradient
       inkscape:collect="always"
       xlink:href="#linearGradient6"
       id="linearGradient7"
       x1="231.88838"
       y1="75.50074"
       x2="249.54816"
       y2="174.50124"
       gradientUnits="userSpaceOnUse" /><linearGradient
       inkscape:collect="always"
       xlink:href="#linearGradient9"
       id="linearGradient11"
       x1="17.575893"
       y1="97.139893"
       x2="28.6905"
       y2="218.3484"
       gradientUnits="userSpaceOnUse" /><linearGradient
       inkscape:collect="always"
       xlink:href="#linearGradient14"
       id="linearGradient16"
       x1="195.53362"
       y1="182.48077"
       x2="188.16045"
       y2="239.93315"
       gradientUnits="userSpaceOnUse" /><linearGradient
       id="linearGradient24"
       inkscape:collect="always"><stop
         style="stop-color:#cedce5;stop-opacity:1;"
         offset="0"
         id="stop25" /><stop
         style="stop-color:#c7d4da;stop-opacity:1;"
         offset="0.43541908"
         id="stop34" /><stop
         style="stop-color:#a9b1b5;stop-opacity:1;"
         offset="0.5"
         id="stop33" /><stop
         style="stop-color:#31383b;stop-opacity:1;"
         offset="1"
         id="stop32" /></linearGradient><linearGradient
       id="linearGradient20"
       inkscape:collect="always"><stop
         style="stop-color:#141414;stop-opacity:1;"
         offset="0"
         id="stop21" /><stop
         style="stop-color:#808080;stop-opacity:1;"
         offset="0.5"
         id="stop23" /><stop
         style="stop-color:#e6f7ff;stop-opacity:1;"
         offset="1"
         id="stop22" /></linearGradient><linearGradient
       id="linearGradient17"
       inkscape:collect="always"><stop
         style="stop-color:#e6f7ff;stop-opacity:1;"
         offset="0"
         id="stop18-3" /><stop
         style="stop-color:#adadac;stop-opacity:1;"
         offset="0.45238096"
         id="stop20" /><stop
         style="stop-color:#6b6b6b;stop-opacity:1;"
         offset="0.68015873"
         id="stop24" /><stop
         style="stop-color:#181818;stop-opacity:1;"
         offset="1"
         id="stop19" /></linearGradient><linearGradient
       id="linearGradient12"
       inkscape:collect="always"><stop
         style="stop-color:#8e5b1b;stop-opacity:1;"
         offset="0"
         id="stop13-6" /><stop
         style="stop-color:#b77624;stop-opacity:1;"
         offset="0.32944915"
         id="stop17-75" /><stop
         style="stop-color:#d28627;stop-opacity:1"
         offset="0.53276008"
         id="stop15-3" /><stop
         style="stop-color:#d38727;stop-opacity:0.73565573;"
         offset="0.71979231"
         id="stop16-5" /><stop
         style="stop-color:#d68b26;stop-opacity:0;"
         offset="1"
         id="stop14-6" /></linearGradient><linearGradient
       id="linearGradient9-2"
       inkscape:collect="always"><stop
         style="stop-color:#f7d577;stop-opacity:1"
         offset="0"
         id="stop9-9" /><stop
         style="stop-color:#f3ce62;stop-opacity:1"
         offset="0.37856829"
         id="stop11-1" /><stop
         style="stop-color:#ebc546;stop-opacity:1"
         offset="0.60857612"
         id="stop12-2" /><stop
         style="stop-color:#e9bd2c;stop-opacity:1"
         offset="1"
         id="stop10-7" /></linearGradient><linearGradient
       id="XMLID_1_-9"
       gradientUnits="userSpaceOnUse"
       x1="64.000504"
       y1="117.0137"
       x2="64.000504"
       y2="123.5619"
       gradientTransform="matrix(3.7278183,0,0,3.7278183,-169.30672,-355.72061)"><stop
   offset="0"
   style="stop-color:#FFFFFF"
   id="stop11-3" />
<stop
   offset="1"
   style="stop-color:#8a8585;stop-opacity:1;"
   id="stop13-7" />
<a:midPointStop
   offset="0"
   style="stop-color:#FFFFFF"
   id="midPointStop15" />
<a:midPointStop
   offset="0.5"
   style="stop-color:#FFFFFF"
   id="midPointStop17" />
<a:midPointStop
   offset="1"
   style="stop-color:#949494"
   id="midPointStop19" />
</linearGradient><linearGradient
       id="XMLID_1_"
       gradientUnits="userSpaceOnUse"
       x1="65.2314"
       y1="-24.0483"
       x2="58.715302"
       y2="122.3119">
				<stop
   offset="0.382"
   style="stop-color:#DCF0FF"
   id="stop1-4" />
				<stop
   offset="0.4435"
   style="stop-color:#C9E6FF"
   id="stop2-1" />
				<stop
   offset="0.6311"
   style="stop-color:#92CAFF"
   id="stop3-27" />
				<stop
   offset="0.793"
   style="stop-color:#6AB5FF"
   id="stop4-0" />
				<stop
   offset="0.9213"
   style="stop-color:#52A9FF"
   id="stop5-9-5" />
				<stop
   offset="1"
   style="stop-color:#49A4FF"
   id="stop6-3" />
				<a:midPointStop
   offset="0.382"
   style="stop-color:#DCF0FF" />
				<a:midPointStop
   offset="0.4"
   style="stop-color:#DCF0FF" />
				<a:midPointStop
   offset="1"
   style="stop-color:#49A4FF" />
			</linearGradient><linearGradient
       id="XMLID_2_"
       gradientUnits="userSpaceOnUse"
       x1="85.484398"
       y1="70.108902"
       x2="8.9447002"
       y2="40.5261">
				<stop
   offset="0"
   style="stop-color:#0032A4"
   id="stop7-6" />
				<stop
   offset="1"
   style="stop-color:#3995E5"
   id="stop8-0" />
				<a:midPointStop
   offset="0"
   style="stop-color:#0032A4" />
				<a:midPointStop
   offset="0.5"
   style="stop-color:#0032A4" />
				<a:midPointStop
   offset="1"
   style="stop-color:#3995E5" />
			</linearGradient><linearGradient
       id="XMLID_3_"
       gradientUnits="userSpaceOnUse"
       x1="5.9517002"
       y1="63.035599"
       x2="117.9541"
       y2="63.035599">
				<stop
   offset="0.0169"
   style="stop-color:#FFFFFF"
   id="stop9-6-2" />
				<stop
   offset="0.309"
   style="stop-color:#CFF0FF"
   id="stop10-2" />
				<stop
   offset="0.6348"
   style="stop-color:#6DB8FF"
   id="stop11-5" />
				<stop
   offset="1"
   style="stop-color:#1E65FF"
   id="stop12-61" />
				<a:midPointStop
   offset="0.0169"
   style="stop-color:#FFFFFF" />
				<a:midPointStop
   offset="0.5"
   style="stop-color:#FFFFFF" />
				<a:midPointStop
   offset="0.309"
   style="stop-color:#CFF0FF" />
				<a:midPointStop
   offset="0.5"
   style="stop-color:#CFF0FF" />
				<a:midPointStop
   offset="0.6348"
   style="stop-color:#6DB8FF" />
				<a:midPointStop
   offset="0.5"
   style="stop-color:#6DB8FF" />
				<a:midPointStop
   offset="1"
   style="stop-color:#1E65FF" />
			</linearGradient><linearGradient
       id="XMLID_4_"
       gradientUnits="userSpaceOnUse"
       x1="38.310501"
       y1="106.9429"
       x2="38.310501"
       y2="106.9429">
			<stop
   offset="0"
   style="stop-color:#FFFFFF"
   id="stop13-5" />
			<stop
   offset="1"
   style="stop-color:#B1B1C5"
   id="stop14-6-4" />
			<a:midPointStop
   offset="0"
   style="stop-color:#FFFFFF" />
			<a:midPointStop
   offset="0.5"
   style="stop-color:#FFFFFF" />
			<a:midPointStop
   offset="1"
   style="stop-color:#B1B1C5" />
		</linearGradient><linearGradient
       id="XMLID_5_"
       gradientUnits="userSpaceOnUse"
       x1="55.079601"
       y1="55.829601"
       x2="98.924797"
       y2="74.430603">
				<stop
   offset="0.1461"
   style="stop-color:#6AC5FF"
   id="stop15-2" />
				<stop
   offset="0.2539"
   style="stop-color:#61B3FA"
   id="stop16-9" />
				<stop
   offset="0.469"
   style="stop-color:#4886EC"
   id="stop17-7" />
				<stop
   offset="0.7682"
   style="stop-color:#213DD7"
   id="stop18-44" />
				<stop
   offset="1"
   style="stop-color:#0000C5"
   id="stop19-3" />
				<a:midPointStop
   offset="0.1461"
   style="stop-color:#6AC5FF" />
				<a:midPointStop
   offset="0.5526"
   style="stop-color:#6AC5FF" />
				<a:midPointStop
   offset="1"
   style="stop-color:#0000C5" />
			</linearGradient><linearGradient
       id="XMLID_6_"
       gradientUnits="userSpaceOnUse"
       x1="48.565399"
       y1="62.0425"
       x2="90.431099"
       y2="67.934402">
				<stop
   offset="0"
   style="stop-color:#CDF8FF"
   id="stop20-0" />
				<stop
   offset="1"
   style="stop-color:#0056FF"
   id="stop21-7" />
				<a:midPointStop
   offset="0"
   style="stop-color:#CDF8FF" />
				<a:midPointStop
   offset="0.5"
   style="stop-color:#CDF8FF" />
				<a:midPointStop
   offset="1"
   style="stop-color:#0056FF" />
			</linearGradient><linearGradient
       id="XMLID_7_"
       gradientUnits="userSpaceOnUse"
       x1="56.809601"
       y1="101.1333"
       x2="121.1883"
       y2="70.107399">
				<stop
   offset="0"
   style="stop-color:#FFFFFF"
   id="stop22-8" />
				<stop
   offset="1"
   style="stop-color:#B1B1C5"
   id="stop23-6" />
				<a:midPointStop
   offset="0"
   style="stop-color:#FFFFFF" />
				<a:midPointStop
   offset="0.5"
   style="stop-color:#FFFFFF" />
				<a:midPointStop
   offset="1"
   style="stop-color:#B1B1C5" />
			</linearGradient><linearGradient
       id="XMLID_8_"
       gradientUnits="userSpaceOnUse"
       x1="16.091801"
       y1="124.8345"
       x2="116.8589"
       y2="69.899002">
				<stop
   offset="0"
   style="stop-color:#FFFFFF"
   id="stop24-8" />
				<stop
   offset="1"
   style="stop-color:#B1B1C5"
   id="stop25-8" />
				<a:midPointStop
   offset="0"
   style="stop-color:#FFFFFF" />
				<a:midPointStop
   offset="0.5"
   style="stop-color:#FFFFFF" />
				<a:midPointStop
   offset="1"
   style="stop-color:#B1B1C5" />
			</linearGradient><linearGradient
       id="XMLID_9_"
       gradientUnits="userSpaceOnUse"
       x1="57.195801"
       y1="98.454597"
       x2="121.4817"
       y2="67.473396">
				<stop
   offset="0"
   style="stop-color:#FFFFFF"
   id="stop26" />
				<stop
   offset="1"
   style="stop-color:#B1B1C5"
   id="stop27" />
				<a:midPointStop
   offset="0"
   style="stop-color:#FFFFFF" />
				<a:midPointStop
   offset="0.5"
   style="stop-color:#FFFFFF" />
				<a:midPointStop
   offset="1"
   style="stop-color:#B1B1C5" />
			</linearGradient><linearGradient
       id="XMLID_10_"
       gradientUnits="userSpaceOnUse"
       x1="98.720703"
       y1="73.721199"
       x2="52.720901"
       y2="55.9422">
				<stop
   offset="0"
   style="stop-color:#0032A4"
   id="stop28" />
				<stop
   offset="1"
   style="stop-color:#3995E5"
   id="stop29" />
				<a:midPointStop
   offset="0"
   style="stop-color:#0032A4" />
				<a:midPointStop
   offset="0.5"
   style="stop-color:#0032A4" />
				<a:midPointStop
   offset="1"
   style="stop-color:#3995E5" />
			</linearGradient><linearGradient
       id="XMLID_11_"
       gradientUnits="userSpaceOnUse"
       x1="56.9995"
       y1="2.1143"
       x2="98.865196"
       y2="8.0060997">
				<stop
   offset="0"
   style="stop-color:#CDF8FF"
   id="stop30" />
				<stop
   offset="1"
   style="stop-color:#0056FF"
   id="stop31" />
				<a:midPointStop
   offset="0"
   style="stop-color:#CDF8FF" />
				<a:midPointStop
   offset="0.5"
   style="stop-color:#CDF8FF" />
				<a:midPointStop
   offset="1"
   style="stop-color:#0056FF" />
			</linearGradient><linearGradient
       inkscape:collect="always"
       xlink:href="#linearGradient9-2"
       id="linearGradient10"
       x1="83.68808"
       y1="69.044151"
       x2="191.56625"
       y2="104.3995"
       gradientUnits="userSpaceOnUse" /><linearGradient
       inkscape:collect="always"
       xlink:href="#linearGradient17"
       id="linearGradient19"
       x1="93.338097"
       y1="76.596308"
       x2="149.02277"
       y2="76.596308"
       gradientUnits="userSpaceOnUse" /><radialGradient
       inkscape:collect="always"
       xlink:href="#linearGradient20"
       id="radialGradient23"
       cx="136.84215"
       cy="34.700867"
       fx="136.84215"
       fy="34.700867"
       r="27.753942"
       gradientTransform="matrix(1.7889727,-0.05468597,0.03821656,1.2501997,-97.287032,0.56606774)"
       gradientUnits="userSpaceOnUse" /><linearGradient
       inkscape:collect="always"
       xlink:href="#linearGradient24"
       id="linearGradient32"
       x1="96.270378"
       y1="29.315733"
       x2="149.25001"
       y2="40.1875"
       gradientUnits="userSpaceOnUse" /><radialGradient
       inkscape:collect="always"
       xlink:href="#linearGradient12"
       id="radialGradient1"
       cx="132.12936"
       cy="103.60181"
       fx="132.12936"
       fy="103.60181"
       r="43.663849"
       gradientTransform="matrix(2.9035877,-0.02622752,0.00576492,0.63822194,-252.11708,39.21182)"
       gradientUnits="userSpaceOnUse" /></defs><sodipodi:namedview
     id="base"
     pagecolor="#ffffff"
     bordercolor="#000000"
     borderopacity="0.3"
     inkscape:pageopacity="0.0"
     inkscape:pageshadow="2"
     inkscape:zoom="0.98994949"
     inkscape:cx="505.07627"
     inkscape:cy="476.792"
     inkscape:document-units="mm"
     inkscape:showpageshadow="2"
     inkscape:pagecheckerboard="0"
     inkscape:deskcolor="#d1d1d1"
     inkscape:current-layer="svg1" /><metadata
     id="metadata1"><rdf:RDF><cc:Work
         rdf:about=""><dc:format>image/svg+xml</dc:format><dc:type
           rdf:resource="http://purl.org/dc/dcmitype/StillImage" /><cc:license
           rdf:resource="http://creativecommons.org/publicdomain/zero/1.0/" /></cc:Work><cc:License
         rdf:about="http://creativecommons.org/publicdomain/zero/1.0/"><cc:permits
           rdf:resource="http://creativecommons.org/ns#Reproduction" /><cc:permits
           rdf:resource="http://creativecommons.org/ns#Distribution" /><cc:permits
           rdf:resource="http://creativecommons.org/ns#DerivativeWorks" /></cc:License></rdf:RDF></metadata><g
     id="g2"
     style="display:inline"
     transform="matrix(1.0533388,0,0,1.0533388,-7.7003314,-5.7639699)"><rect
       style="display:inline;fill:#706f6f;fill-opacity:1;stroke:none;stroke-width:2.6;stroke-linecap:round;stroke-linejoin:round"
       id="rect1"
       width="234.8965"
       height="234.59583"
       x="14.967093"
       y="13.26325" /><g
       id="rect2"
       style="display:inline"><path
         style="color:#000000;fill:url(#linearGradient2);stroke-linecap:round;stroke-linejoin:round;-inkscape-stroke:none"
         d="M 11.759859,10.423512 H 238.93895 V 237.06807 H 11.759859 Z"
         id="path3" /><path
         id="rect4"
         style="opacity:1;fill:url(#linearGradient5);stroke-width:7;stroke-linecap:round;stroke-linejoin:round"
         d="M 11.71726,66.712794 48.806172,40.537942 c 3.645632,-2.414585 7.389555,-3.359032 10.536084,-0.283482 l 14.788314,9.071429 4.77195,-2.834822 c 2.180637,-1.402932 4.21328,-1.177935 6.142113,0.188988 l 14.646577,9.354912 11.90625,-9.732888 c 5.63898,-3.832279 8.8141,-1.007265 11.66076,0.268505 l 27.81268,12.695302 c 5.66125,2.167289 10.71601,5.304971 15.11738,9.488069 l 49.99605,33.141425 c -16.1935,13.72394 -202.31701,71.41603 -203.642728,8.95353 z"
         sodipodi:nodetypes="cccccccccccccc" /><path
         id="rect5"
         style="display:inline;opacity:1;fill:url(#linearGradient7);stroke-width:7;stroke-linecap:round;stroke-linejoin:round"
         d="m 86.745532,134.7485 c -0.876684,-0.73057 19.591228,-25.20593 37.419638,-28.72618 14.95398,-2.95269 27.17781,-2.42361 37.45403,-12.097211 10.88137,-10.243264 42.74497,-7.139876 55.89266,-13.416188 9.56828,-4.567608 1.30485,-3.167163 20.42415,-12.662203 0.89692,27.895888 1.71937,75.051382 1.32291,110.747032 -53.8245,-6.0283 -106.64464,-14.94414 -152.513388,-43.84525 z"
         sodipodi:nodetypes="csssccc" /><path
         id="rect9"
         style="display:inline;opacity:1;fill:url(#linearGradient11);stroke-width:7;stroke-linecap:round;stroke-linejoin:round"
         d="m 11.150297,94.683033 c 12.889028,1.388422 26.517032,4.257823 43.978872,15.319497 0,0 14.161912,4.71536 21.411008,7.17009 6.544194,2.21603 18.389514,10.63613 18.331844,10.86681 19.175159,2.25273 33.467789,12.36225 55.373509,16.53646 12.60176,2.40131 20.30329,-3.03407 34.86831,11.0558 3.91884,3.791 14.09853,5.17191 19.46577,6.52009 8.07061,2.02723 12.123,-0.71109 19.65477,2.55134 6.58409,2.85194 14.89418,4.99858 15.21354,3.40179 l -1.13393,28.25372 -226.785717,26.17485 z"
         sodipodi:nodetypes="ccscsssscccc" /><path
         id="rect14"
         style="display:inline;opacity:1;fill:url(#linearGradient16);stroke-width:7;stroke-linecap:round;stroke-linejoin:round"
         d="M 22.880822,201.67779 128.69949,199.9769 c 37.4592,-7.94308 74.72942,-13.54024 112.18863,-15.43678 L 240.54256,240.14168 11.429869,236.9472 9.9473,201.55759 Z"
         sodipodi:nodetypes="ccccccc" /><g
         id="g21"><path
           id="rect18"
           style="display:inline;opacity:1;fill:#335a15;fill-opacity:1;stroke-width:7;stroke-linecap:round;stroke-linejoin:round"
           d="m 133.70433,181.13838 17.5415,-16.29687 26.214,44.5573 c 0,0 -3.82239,3.24608 -6.04762,4.34673 -9.59383,4.7453 -21.14857,9.01295 -40.44345,11.33928 l -37.041673,1.13393 -82.587799,-0.94494 0.47247,-58.49182 12.74422,8.92043 C 23.937727,172.76913 43.16732,119.30677 55.376282,91.504825 l 18.313989,48.185815 18.982162,-35.73682 z"
           sodipodi:nodetypes="cccsccccccccc" /><path
           id="rect19"
           style="display:inline;opacity:1;fill:#2c4e12;fill-opacity:0.798122;stroke-width:7;stroke-linecap:round;stroke-linejoin:round"
           d="m 55.389643,122.10025 c 10.577571,11.73739 2.584015,38.12058 13.298626,38.12782 10.714611,0.007 14.01345,-33.41368 22.317005,-33.80958 8.303554,-0.39591 32.304756,71.62538 40.090436,72.69731 7.78568,1.07193 7.90879,-17.17464 15.50163,-15.76891 7.59284,1.40573 14.29892,34.47778 14.29892,34.47778 l -31.07009,7.34991 -39.622704,0.80181 -76.906807,-1.60362 c -1.424129,-10.22242 -1.688433,-27.92511 0.06682,-35.81412 0,0 2.827067,10.38247 8.285356,9.22079 0,0 23.163236,-87.41659 33.740808,-75.67919 z"
           sodipodi:nodetypes="zzzzzccccccz" /><path
           id="path19"
           style="display:inline;opacity:1;fill:#2c4e12;fill-opacity:1;stroke-width:7;stroke-linecap:round;stroke-linejoin:round"
           d="m 56.126601,131.4966 c 2.666724,9.22513 -7.240107,32.59964 12.428033,33.00778 19.66814,0.40814 13.746181,-31.27552 22.049736,-31.67142 8.303554,-0.39591 32.57202,73.49627 40.3577,74.5682 7.78568,1.07193 7.37425,-19.04553 14.96709,-17.6398 7.59284,1.40573 11.09169,28.99875 11.09169,28.99875 l -27.19468,6.41447 -39.622704,0.80181 -76.906807,-1.60362 c -1.424129,-10.22242 -1.688433,-27.92511 0.06682,-35.81412 0,0 2.158893,15.19332 7.617182,14.03164 0,0 32.479216,-80.31882 35.14594,-71.09369 z"
           sodipodi:nodetypes="zzzzzccccccz" /><path
           id="path20"
           style="display:inline;opacity:1;fill:#223c0e;fill-opacity:0.438967;stroke-width:7;stroke-linecap:round;stroke-linejoin:round"
           d="m 55.276155,131.02413 c 8.43086,7.52424 -6.389661,33.07211 13.278479,33.48025 19.66814,0.40814 13.746181,-31.27552 22.049736,-31.67142 8.303554,-0.39591 32.57202,73.49627 40.3577,74.5682 7.78568,1.07193 7.37425,-19.04553 14.96709,-17.6398 7.59284,1.40573 11.09169,28.99875 11.09169,28.99875 0,0 -9.40511,-2.59011 -19.63516,0.36685 -10.23005,2.95696 -24.70949,5.81258 -31.02374,-5.24581 -9.907839,-17.35194 -22.385739,-0.85356 -33.544804,-1.78937 -15.336729,-1.28616 -20.31878,-5.32461 -31.350177,-7.49058 -11.031397,-2.16598 -28.17031,19.77157 -28.17031,19.77157 -1.424129,-10.22242 -1.688433,-27.92511 0.06682,-35.81412 0,0 2.158893,15.19332 7.617182,14.03164 0,0 25.864633,-79.0904 34.295494,-71.56616 z"
           sodipodi:nodetypes="zzzzzczzzzcccz" /><path
           id="path21"
           style="display:inline;opacity:1;fill:#223c0e;fill-opacity:0.438967;stroke-width:7;stroke-linecap:round;stroke-linejoin:round"
           d="m 52.724816,139.52859 c 5.123569,9.88659 -3.365852,31.27673 16.302288,31.68487 19.66814,0.40814 14.40764,-31.93698 22.711195,-32.33288 8.303551,-0.39591 31.438091,67.44865 39.223771,68.52058 7.78568,1.07193 7.37425,-19.04553 14.96709,-17.6398 7.59284,1.40573 11.09169,28.99875 11.09169,28.99875 0,0 -11.106,-27.72553 -14.72147,-13.33479 -3.61546,14.39075 -27.35532,9.49785 -33.66957,-1.56054 -6.31426,-11.05838 -3.65444,-15.96146 -17.948967,-17.3104 -14.294527,-1.34894 -3.660897,18.03561 -18.997626,16.74945 -15.336729,-1.28616 -6.806131,-4.09619 -25.775028,-9.38046 -18.968897,-5.28428 -32.61153,30.4494 -32.61153,30.4494 -1.424129,-10.22242 -1.688433,-27.92511 0.06682,-35.81412 0,0 3.166848,22.04451 9.034593,14.12613 5.867744,-7.91837 25.203174,-73.04278 30.326744,-63.15619 z"
           sodipodi:nodetypes="zzzzzczzzzzcczz" /></g><path
         style="color:#000000;fill:#909090;stroke-linecap:round;stroke-linejoin:round;-inkscape-stroke:none"
         d="M 11.759766,6.9238281 A 3.50035,3.50035 0 0 0 8.2597656,10.423828 V 237.06836 a 3.50035,3.50035 0 0 0 3.5000004,3.5 H 238.93945 a 3.50035,3.50035 0 0 0 3.5,-3.5 V 10.423828 a 3.50035,3.50035 0 0 0 -3.5,-3.4999999 z m 3.5,6.9999999 H 235.43945 V 233.56836 H 15.259766 Z"
         id="path4" /></g></g><g
     style="overflow:visible"
     id="g22"
     transform="matrix(0.58686955,0,0,0.58686955,96.48274,102.38609)"><g
       id="g9"
       style="display:inline"><path
         id="rect1-0"
         style="display:inline;fill:#a4bfe4;stroke-width:38.0334;stroke-linecap:square;stroke-linejoin:round;stroke-opacity:0.849303"
         d="M 15.909904,152.02797 126.39535,42.072858 c -0.3554,-17.315184 35.39311,-12.507325 35.88567,0.353553 l -0.53033,19.798991 43.31029,-14.142136 25.1023,18.119612 -0.35356,39.686372 22.98097,0.17677 0.11838,61.87248 h -31.08973 l 8.11538,5.84188 -0.0947,33.96442 -28.13783,18.3526 -25.63259,-19.35704 c -7.95495,3.4847 -15.90991,5.53191 -23.86486,6.66226 l 0.7071,28.75937 -37.0789,0.0331 0.48613,-31.96343 c -9.32178,1.43603 -21.964745,-1.86051 -24.183501,-4.3361 l -28.906004,20.49916 -26.99034,-17.91975 12.374369,-41.24421 -32.17336,0.7955 z"
         sodipodi:nodetypes="cccccccccccccccccccccccc" /><path
         id="rect2-9"
         style="display:inline;fill:#ac4120;fill-opacity:1;stroke-width:38.0334;stroke-linecap:square;stroke-linejoin:round;stroke-opacity:0.849303"
         d="m 102.38226,202.00053 c -8.635593,-1.45934 -16.652685,-3.94951 -24.228297,-7.17548 l -26.815378,20.63259 -28.56363,-19.13435 0.2327,-33.74395 12.482701,-5.39039 -32.5692,-0.31158 L 3.1019569,122.81578 37.032756,100.0042 23.213555,88.692621 23.144364,54.88104 l 52.180801,8.18842 140.430805,-7.56158 0.7071,33.322409 -12.55114,10.429826 35.53212,23.511295 0.35355,33.76435 -31.87647,-0.0259 8.8955,6.38985 0.0884,33.94113 -28.19039,18.37942 -26.06851,-19.86742 c -8.01773,4.4202 -16.03545,5.53345 -24.05318,6.52613 l 0.17677,28.99138 -36.38745,0.53487 z"
         sodipodi:nodetypes="cccccccccccccccccccccccccc" /><path
         id="rect3"
         style="display:inline;fill:#b2591f;fill-opacity:1;stroke-width:38.0334;stroke-linecap:square;stroke-linejoin:round;stroke-opacity:0.849303"
         d="m 41.058058,123.30286 c 0,0 2.385858,5.73778 3.916369,8.57367 1.807541,3.34921 6.98268,9.33059 6.98268,9.33059 l -10.987437,7.77817 z"
         sodipodi:nodetypes="csccc" /><path
         id="path3-3"
         style="display:inline;fill:#b2591f;fill-opacity:1;stroke-width:38.0334;stroke-linecap:square;stroke-linejoin:round;stroke-opacity:0.849303"
         d="m 78.645147,160.77253 c 7.132327,2.98172 14.731704,5.5451 23.564113,7.71882 l 0.17593,33.58449 c -8.4436,-1.66233 -16.785762,-3.58549 -24.415518,-7.34055 z"
         sodipodi:nodetypes="ccccc" /><path
         id="path4-6"
         style="display:inline;fill:#b2591f;fill-opacity:1;stroke-width:38.0334;stroke-linecap:square;stroke-linejoin:round;stroke-opacity:0.849303"
         d="m 138.89255,168.58059 c 7.48588,-2.40997 23.52122,-6.73829 23.52122,-6.73829 l 0.17593,33.84966 c -5.25282,2.94213 -14.88935,6.19494 -23.13519,6.32106 z"
         sodipodi:nodetypes="ccccc" /><path
         id="path5"
         style="fill:#b2591f;fill-opacity:1;stroke-width:38.0334;stroke-linecap:square;stroke-linejoin:round;stroke-opacity:0.849303"
         d="m 189.98546,142.41856 11.05402,-19.7323 -0.34996,28.01695 z"
         sodipodi:nodetypes="cccc" /><path
         id="path6"
         style="fill:#84421b;stroke-width:38.0334;stroke-linecap:square;stroke-linejoin:round;stroke-opacity:0.849303"
         d="m 102.4355,196.64703 36.6848,0.45778 0.17593,33.53716 -36.79877,-0.0625 z"
         sodipodi:nodetypes="ccccc" /><path
         id="path7"
         style="fill:#b2591f;fill-opacity:1;stroke-width:38.0334;stroke-linecap:square;stroke-linejoin:round;stroke-opacity:0.849303"
         d="m 102.4355,196.64703 36.6848,0.45778 0.17593,33.53716 -36.79877,-0.0625 z"
         sodipodi:nodetypes="ccccc" /><path
         id="path8"
         style="fill:#b2591f;fill-opacity:1;stroke-width:38.0334;stroke-linecap:square;stroke-linejoin:round;stroke-opacity:0.849303"
         d="m 22.935496,162.39703 28.1848,19.70778 0.17593,33.53716 -28.29877,-19.3125 z"
         sodipodi:nodetypes="ccccc" /><path
         id="path9"
         style="fill:#b2591f;fill-opacity:1;stroke-width:38.0334;stroke-linecap:square;stroke-linejoin:round;stroke-opacity:0.849303"
         d="m 188.6855,180.89703 28.4348,-17.29222 0.17593,33.53716 -28.54877,17.6875 z"
         sodipodi:nodetypes="ccccc" /><path
         id="rect9-0"
         style="fill:url(#linearGradient10);stroke:#000000;stroke-width:2.4;stroke-linecap:square;stroke-linejoin:round;stroke-dasharray:none;stroke-opacity:1"
         d="m 51.250004,36.249998 27.9375,21.000001 C 112.29156,41.480863 139.80268,47.808898 161.86996,55.918893 l 26.45811,-19.445437 28.60842,18.694137 c -10.60593,7.281015 -17.41976,12.994776 -27.23246,19.972245 6.12474,6.590289 9.01469,12.764615 11.55852,19.802517 l 38.33116,-0.0442 -0.0294,27.886525 -37.85961,-0.0442 c -2.40374,6.95036 -5.74954,13.54745 -11.90244,19.09188 l 26.10456,21.21321 -27.02644,18.81318 -26.12337,-20.13901 c -7.24402,4.36838 -14.51214,6.39849 -23.48132,6.98268 l 0.03,28.54944 -36.70642,-0.0884 0.0258,-28.53848 c -8.854419,-1.20783 -16.934254,-3.96483 -24.625001,-7.5 L 51.250008,181.5625 23.750006,162.75 50.648659,141.24784 C 45.863776,135.23162 41.858275,129.18151 40.875003,123 L 2.922336,122.60355 3.0000016,95.249998 41.250003,94.499999 c 1.936244,-6.874267 5.124814,-12.910386 9.750001,-17.9375 L 24.500003,55.187498 Z"
         sodipodi:nodetypes="ccccccccccccccccccccccccccccc" /><path
         id="rect12"
         style="display:inline;fill:url(#radialGradient1);stroke-width:38.0334;stroke-linecap:square;stroke-linejoin:round;stroke-opacity:0.849303"
         d="m 117.96552,70.042151 72.26399,5.360467 c 5.22645,5.697991 8.52397,12.272774 11.17284,19.142396 l 38.28063,-0.07053 -0.39351,28.048816 -37.00571,-0.16906 -8.7557,15.33094 c -26.8847,7.92789 -54.28344,0.47515 -79.73411,-13.66117 z"
         sodipodi:nodetypes="ccccccccc" /><path
         id="rect17"
         style="display:inline;fill:url(#linearGradient19);stroke:#000000;stroke-width:2;stroke-linecap:square;stroke-linejoin:round;stroke-dasharray:none;stroke-opacity:1"
         d="M 93.338097,32.637399 C 112.56823,29.07169 131.206,28.696404 149.02277,32.668619 v 79.054251 c -6.96133,18.73114 -52.166032,15.08386 -55.684673,1.06066 z"
         sodipodi:nodetypes="ccccc" /><ellipse
         style="fill:url(#radialGradient23);fill-opacity:1;stroke:#000000;stroke-width:2;stroke-linecap:square;stroke-linejoin:round;stroke-dasharray:none;stroke-opacity:1"
         id="path20-6"
         cx="121.26881"
         cy="31.515989"
         rx="26.72047"
         ry="14.378942" /><path
         id="rect24"
         style="fill:url(#linearGradient32);stroke-width:38.0334;stroke-linecap:square;stroke-linejoin:round;stroke-opacity:0.849303"
         d="m 94.060668,28.97833 c 0,0 2.433059,15.543118 27.683062,15.543118 25.25,0 26.80315,-15.608916 26.80315,-15.608916 l 1.38383,3.587166 c 0,0 -4.80575,14.875303 -28.80575,14.875303 -24.624951,0 -28.876252,-14.880205 -28.876252,-14.880205 z"
         sodipodi:nodetypes="csccscc" /></g></g></svg>
