<?xml version="1.0" encoding="UTF-8" standalone="no"?>
<!-- Created with Inkscape (http://www.inkscape.org/) -->

<svg
   width="256mm"
   height="256mm"
   viewBox="0 0 256 256"
   version="1.1"
   id="svg1"
   inkscape:version="1.3.2 (091e20ef0f, 2023-11-25)"
   xml:space="preserve"
   sodipodi:docname="convert-01.svg"
   xmlns:inkscape="http://www.inkscape.org/namespaces/inkscape"
   xmlns:sodipodi="http://sodipodi.sourceforge.net/DTD/sodipodi-0.dtd"
   xmlns:xlink="http://www.w3.org/1999/xlink"
   xmlns="http://www.w3.org/2000/svg"
   xmlns:svg="http://www.w3.org/2000/svg"
   xmlns:rdf="http://www.w3.org/1999/02/22-rdf-syntax-ns#"
   xmlns:cc="http://creativecommons.org/ns#"
   xmlns:dc="http://purl.org/dc/elements/1.1/"><defs
     id="defs1"><linearGradient
       id="linearGradient14"
       inkscape:collect="always"><stop
         style="stop-color:#f4fb97;stop-opacity:1"
         offset="0"
         id="stop15" /><stop
         style="stop-color:#f1fa96;stop-opacity:1"
         offset="0.39870191"
         id="stop17" /><stop
         style="stop-color:#ddef91;stop-opacity:1"
         offset="0.7120567"
         id="stop18" /><stop
         style="stop-color:#96cb80;stop-opacity:1"
         offset="1"
         id="stop16" /></linearGradient><linearGradient
       id="linearGradient9"
       inkscape:collect="always"><stop
         style="stop-color:#589b25;stop-opacity:1"
         offset="0"
         id="stop10" /><stop
         style="stop-color:#5fa02f;stop-opacity:1"
         offset="0.16824494"
         id="stop12" /><stop
         style="stop-color:#80ba60;stop-opacity:1"
         offset="0.49124458"
         id="stop13" /><stop
         style="stop-color:#96cb80;stop-opacity:1"
         offset="0.8383007"
         id="stop14" /><stop
         style="stop-color:#96cb80;stop-opacity:1"
         offset="1"
         id="stop11" /></linearGradient><linearGradient
       id="linearGradient6"
       inkscape:collect="always"><stop
         style="stop-color:#233aa0;stop-opacity:1"
         offset="0"
         id="stop6" /><stop
         style="stop-color:#233aa0;stop-opacity:1"
         offset="0.3152554"
         id="stop8" /><stop
         style="stop-color:#3d69c9;stop-opacity:1;"
         offset="1"
         id="stop9" /></linearGradient><linearGradient
       id="linearGradient4"
       inkscape:collect="always"><stop
         style="stop-color:#65a4fc;stop-opacity:1;"
         offset="0"
         id="stop4" /><stop
         style="stop-color:#afe6fe;stop-opacity:1"
         offset="1"
         id="stop5" /></linearGradient><linearGradient
       id="linearGradient1"
       inkscape:collect="always"><stop
         style="stop-color:#a4c7ef;stop-opacity:1"
         offset="0"
         id="stop1" /><stop
         style="stop-color:#d6f5fa;stop-opacity:1"
         offset="1"
         id="stop2" /></linearGradient><linearGradient
       inkscape:collect="always"
       xlink:href="#linearGradient1"
       id="linearGradient2"
       x1="127.78033"
       y1="10.690778"
       x2="127.78033"
       y2="79.379051"
       gradientUnits="userSpaceOnUse" /><linearGradient
       inkscape:collect="always"
       xlink:href="#linearGradient4"
       id="linearGradient5"
       x1="81.926338"
       y1="47.247021"
       x2="84.099693"
       y2="119.62946"
       gradientUnits="userSpaceOnUse" /><linearGradient
       inkscape:collect="always"
       xlink:href="#linearGradient6"
       id="linearGradient7"
       x1="231.88838"
       y1="75.50074"
       x2="249.54816"
       y2="174.50124"
       gradientUnits="userSpaceOnUse" /><linearGradient
       inkscape:collect="always"
       xlink:href="#linearGradient9"
       id="linearGradient11"
       x1="17.575893"
       y1="97.139893"
       x2="28.6905"
       y2="218.3484"
       gradientUnits="userSpaceOnUse" /><linearGradient
       inkscape:collect="always"
       xlink:href="#linearGradient14"
       id="linearGradient16"
       x1="195.53362"
       y1="182.48077"
       x2="188.16045"
       y2="239.93315"
       gradientUnits="userSpaceOnUse" /></defs><sodipodi:namedview
     id="base"
     pagecolor="#ffffff"
     bordercolor="#000000"
     borderopacity="0.3"
     inkscape:pageopacity="0.0"
     inkscape:pageshadow="2"
     inkscape:zoom="0.98994949"
     inkscape:cx="505.07627"
     inkscape:cy="476.792"
     inkscape:document-units="mm"
     inkscape:showpageshadow="2"
     inkscape:pagecheckerboard="0"
     inkscape:deskcolor="#d1d1d1"
     inkscape:current-layer="svg1" /><metadata
     id="metadata1"><rdf:RDF><cc:Work
         rdf:about=""><dc:format>image/svg+xml</dc:format><dc:type
           rdf:resource="http://purl.org/dc/dcmitype/StillImage" /><cc:license
           rdf:resource="http://creativecommons.org/publicdomain/zero/1.0/" /></cc:Work><cc:License
         rdf:about="http://creativecommons.org/publicdomain/zero/1.0/"><cc:permits
           rdf:resource="http://creativecommons.org/ns#Reproduction" /><cc:permits
           rdf:resource="http://creativecommons.org/ns#Distribution" /><cc:permits
           rdf:resource="http://creativecommons.org/ns#DerivativeWorks" /></cc:License></rdf:RDF></metadata><g
     id="g2"
     style="display:inline"
     transform="matrix(1.0533388,0,0,1.0533388,-7.7003314,-5.7639699)"><rect
       style="display:inline;fill:#706f6f;fill-opacity:1;stroke:none;stroke-width:2.6;stroke-linecap:round;stroke-linejoin:round"
       id="rect1"
       width="234.8965"
       height="234.59583"
       x="14.967093"
       y="13.26325" /><g
       id="rect2"
       style="display:inline"><path
         style="color:#000000;fill:url(#linearGradient2);stroke-linecap:round;stroke-linejoin:round;-inkscape-stroke:none"
         d="M 11.759859,10.423512 H 238.93895 V 237.06807 H 11.759859 Z"
         id="path3" /><path
         id="rect4"
         style="opacity:1;fill:url(#linearGradient5);stroke-width:7;stroke-linecap:round;stroke-linejoin:round"
         d="M 11.71726,66.712794 48.806172,40.537942 c 3.645632,-2.414585 7.389555,-3.359032 10.536084,-0.283482 l 14.788314,9.071429 4.77195,-2.834822 c 2.180637,-1.402932 4.21328,-1.177935 6.142113,0.188988 l 14.646577,9.354912 11.90625,-9.732888 c 5.63898,-3.832279 8.8141,-1.007265 11.66076,0.268505 l 27.81268,12.695302 c 5.66125,2.167289 10.71601,5.304971 15.11738,9.488069 l 49.99605,33.141425 c -16.1935,13.72394 -202.31701,71.41603 -203.642728,8.95353 z"
         sodipodi:nodetypes="cccccccccccccc" /><path
         id="rect5"
         style="display:inline;opacity:1;fill:url(#linearGradient7);stroke-width:7;stroke-linecap:round;stroke-linejoin:round"
         d="m 86.745532,134.7485 c -0.876684,-0.73057 19.591228,-25.20593 37.419638,-28.72618 14.95398,-2.95269 27.17781,-2.42361 37.45403,-12.097211 10.88137,-10.243264 42.74497,-7.139876 55.89266,-13.416188 9.56828,-4.567608 1.30485,-3.167163 20.42415,-12.662203 0.89692,27.895888 1.71937,75.051382 1.32291,110.747032 -53.8245,-6.0283 -106.64464,-14.94414 -152.513388,-43.84525 z"
         sodipodi:nodetypes="csssccc" /><path
         id="rect9"
         style="display:inline;opacity:1;fill:url(#linearGradient11);stroke-width:7;stroke-linecap:round;stroke-linejoin:round"
         d="m 11.150297,94.683033 c 12.889028,1.388422 26.517032,4.257823 43.978872,15.319497 0,0 14.161912,4.71536 21.411008,7.17009 6.544194,2.21603 18.389514,10.63613 18.331844,10.86681 19.175159,2.25273 33.467789,12.36225 55.373509,16.53646 12.60176,2.40131 20.30329,-3.03407 34.86831,11.0558 3.91884,3.791 14.09853,5.17191 19.46577,6.52009 8.07061,2.02723 12.123,-0.71109 19.65477,2.55134 6.58409,2.85194 14.89418,4.99858 15.21354,3.40179 l -1.13393,28.25372 -226.785717,26.17485 z"
         sodipodi:nodetypes="ccscsssscccc" /><path
         id="rect14"
         style="display:inline;opacity:1;fill:url(#linearGradient16);stroke-width:7;stroke-linecap:round;stroke-linejoin:round"
         d="M 22.880822,201.67779 128.69949,199.9769 c 37.4592,-7.94308 74.72942,-13.54024 112.18863,-15.43678 L 240.54256,240.14168 11.429869,236.9472 9.9473,201.55759 Z"
         sodipodi:nodetypes="ccccccc" /><g
         id="g21"><path
           id="rect18"
           style="display:inline;opacity:1;fill:#335a15;fill-opacity:1;stroke-width:7;stroke-linecap:round;stroke-linejoin:round"
           d="m 133.70433,181.13838 17.5415,-16.29687 26.214,44.5573 c 0,0 -3.82239,3.24608 -6.04762,4.34673 -9.59383,4.7453 -21.14857,9.01295 -40.44345,11.33928 l -37.041673,1.13393 -82.587799,-0.94494 0.47247,-58.49182 12.74422,8.92043 C 23.937727,172.76913 43.16732,119.30677 55.376282,91.504825 l 18.313989,48.185815 18.982162,-35.73682 z"
           sodipodi:nodetypes="cccsccccccccc" /><path
           id="rect19"
           style="display:inline;opacity:1;fill:#2c4e12;fill-opacity:0.798122;stroke-width:7;stroke-linecap:round;stroke-linejoin:round"
           d="m 55.389643,122.10025 c 10.577571,11.73739 2.584015,38.12058 13.298626,38.12782 10.714611,0.007 14.01345,-33.41368 22.317005,-33.80958 8.303554,-0.39591 32.304756,71.62538 40.090436,72.69731 7.78568,1.07193 7.90879,-17.17464 15.50163,-15.76891 7.59284,1.40573 14.29892,34.47778 14.29892,34.47778 l -31.07009,7.34991 -39.622704,0.80181 -76.906807,-1.60362 c -1.424129,-10.22242 -1.688433,-27.92511 0.06682,-35.81412 0,0 2.827067,10.38247 8.285356,9.22079 0,0 23.163236,-87.41659 33.740808,-75.67919 z"
           sodipodi:nodetypes="zzzzzccccccz" /><path
           id="path19"
           style="display:inline;opacity:1;fill:#2c4e12;fill-opacity:1;stroke-width:7;stroke-linecap:round;stroke-linejoin:round"
           d="m 56.126601,131.4966 c 2.666724,9.22513 -7.240107,32.59964 12.428033,33.00778 19.66814,0.40814 13.746181,-31.27552 22.049736,-31.67142 8.303554,-0.39591 32.57202,73.49627 40.3577,74.5682 7.78568,1.07193 7.37425,-19.04553 14.96709,-17.6398 7.59284,1.40573 11.09169,28.99875 11.09169,28.99875 l -27.19468,6.41447 -39.622704,0.80181 -76.906807,-1.60362 c -1.424129,-10.22242 -1.688433,-27.92511 0.06682,-35.81412 0,0 2.158893,15.19332 7.617182,14.03164 0,0 32.479216,-80.31882 35.14594,-71.09369 z"
           sodipodi:nodetypes="zzzzzccccccz" /><path
           id="path20"
           style="display:inline;opacity:1;fill:#223c0e;fill-opacity:0.438967;stroke-width:7;stroke-linecap:round;stroke-linejoin:round"
           d="m 55.276155,131.02413 c 8.43086,7.52424 -6.389661,33.07211 13.278479,33.48025 19.66814,0.40814 13.746181,-31.27552 22.049736,-31.67142 8.303554,-0.39591 32.57202,73.49627 40.3577,74.5682 7.78568,1.07193 7.37425,-19.04553 14.96709,-17.6398 7.59284,1.40573 11.09169,28.99875 11.09169,28.99875 0,0 -9.40511,-2.59011 -19.63516,0.36685 -10.23005,2.95696 -24.70949,5.81258 -31.02374,-5.24581 -9.907839,-17.35194 -22.385739,-0.85356 -33.544804,-1.78937 -15.336729,-1.28616 -20.31878,-5.32461 -31.350177,-7.49058 -11.031397,-2.16598 -28.17031,19.77157 -28.17031,19.77157 -1.424129,-10.22242 -1.688433,-27.92511 0.06682,-35.81412 0,0 2.158893,15.19332 7.617182,14.03164 0,0 25.864633,-79.0904 34.295494,-71.56616 z"
           sodipodi:nodetypes="zzzzzczzzzcccz" /><path
           id="path21"
           style="display:inline;opacity:1;fill:#223c0e;fill-opacity:0.438967;stroke-width:7;stroke-linecap:round;stroke-linejoin:round"
           d="m 52.724816,139.52859 c 5.123569,9.88659 -3.365852,31.27673 16.302288,31.68487 19.66814,0.40814 14.40764,-31.93698 22.711195,-32.33288 8.303551,-0.39591 31.438091,67.44865 39.223771,68.52058 7.78568,1.07193 7.37425,-19.04553 14.96709,-17.6398 7.59284,1.40573 11.09169,28.99875 11.09169,28.99875 0,0 -11.106,-27.72553 -14.72147,-13.33479 -3.61546,14.39075 -27.35532,9.49785 -33.66957,-1.56054 -6.31426,-11.05838 -3.65444,-15.96146 -17.948967,-17.3104 -14.294527,-1.34894 -3.660897,18.03561 -18.997626,16.74945 -15.336729,-1.28616 -6.806131,-4.09619 -25.775028,-9.38046 -18.968897,-5.28428 -32.61153,30.4494 -32.61153,30.4494 -1.424129,-10.22242 -1.688433,-27.92511 0.06682,-35.81412 0,0 3.166848,22.04451 9.034593,14.12613 5.867744,-7.91837 25.203174,-73.04278 30.326744,-63.15619 z"
           sodipodi:nodetypes="zzzzzczzzzzcczz" /></g><path
         style="color:#000000;fill:#909090;stroke-linecap:round;stroke-linejoin:round;-inkscape-stroke:none"
         d="M 11.759766,6.9238281 A 3.50035,3.50035 0 0 0 8.2597656,10.423828 V 237.06836 a 3.50035,3.50035 0 0 0 3.5000004,3.5 H 238.93945 a 3.50035,3.50035 0 0 0 3.5,-3.5 V 10.423828 a 3.50035,3.50035 0 0 0 -3.5,-3.4999999 z m 3.5,6.9999999 H 235.43945 V 233.56836 H 15.259766 Z"
         id="path4" /></g></g><g
     id="g79"
     transform="matrix(0.49024524,0,0,0.49024524,79.422706,92.629185)"><path
       id="rect78"
       style="fill:#ffffff;fill-opacity:1;stroke:none;stroke-width:2.4;stroke-linecap:square;stroke-linejoin:round"
       d="m 137.4043,46.238281 v 17.052735 h 55.74804 V 46.238281 Z m 0,26.5625 v 76.996099 h -9.50977 V 77.064453 H 60.339844 V 149.79688 H 10.203125 v 70.49218 H 142.83984 v 33.85547 h 49.62305 v -33.85547 h 45.28906 v 16.15039 h 28.5293 v -16.15039 h 16.61719 v -27.45703 h 4.58398 v -16.4043 h 37.5 v -26.23437 h -37.5 V 76.986328 H 211.94141 V 149.79688 H 168.23047 V 72.800781 Z" /><rect
       style="fill:#808080;fill-opacity:1;stroke:none;stroke-width:2.4;stroke-linecap:square;stroke-linejoin:round"
       id="rect77"
       width="31.973537"
       height="94.772804"
       x="170.03357"
       y="76.24456" /><rect
       style="fill:#c0c0c0;fill-opacity:1;stroke:none;stroke-width:2.4;stroke-linecap:square;stroke-linejoin:round"
       id="rect76"
       width="16.231888"
       height="94.852234"
       x="155.13043"
       y="76.521744" /><rect
       style="fill:#c0c0c0;fill-opacity:1;stroke:none;stroke-width:2.4;stroke-linecap:square;stroke-linejoin:round"
       id="rect75"
       width="15.536232"
       height="16.115942"
       x="186.31885"
       y="46.492756" /><path
       id="rect61"
       style="fill:#808000;fill-opacity:1;stroke:none;stroke-width:2.4;stroke-linecap:square;stroke-linejoin:round"
       d="m 108.52148,92.289062 v 17.160158 h 16.46485 V 92.289062 Z m 108.86914,1.160157 v 15.187501 h 15.18946 V 93.449219 Z M 61.912109,108.28906 v 31.07422 h 16.927735 v -31.07422 z m 201.253911,0.58399 v 31.15429 h 16.39648 v -31.15429 z m 16.56054,61.32422 v 31.64648 h 14.75782 v 14.75586 h 30.82617 l 0.16406,-46.40234 z m -263.263669,0.23828 0.232421,47.53515 h 29.296876 v 14.45313 H 77.638672 V 217.74805 H 46.376953 v -16.58789 h 15.1875 v -14.95704 h 15.652344 v 15.65235 H 93.390625 V 186.0293 H 77.449219 v -15.59375 z m 169.392579,31.07226 v 15.30469 l 15.18164,-0.41016 0.12305,-14.89453 z m -46.26172,0.23047 v 15.42188 H 108.8125 v 15.3457 H 92.476562 v 4.58984 H 92.3125 v 26.23438 h 16.39844 v -16.39649 h 30.88281 v 32.71875 h 16 v -0.0898 h 0.0117 v 15.08594 h 30.33203 v -45.7461 h -30.34375 v -47.16406 z m 61.25781,14.73047 0.082,30.99219 30.95118,-0.041 v 16 h 16.23046 v 15.53711 h 15.53711 1.16016 14.14453 v -61.44922 h -15.30469 v 15.07227 h -15.76757 v -15.53711 z" /><path
       id="rect32"
       style="fill:#ffff00;fill-opacity:1;stroke:none;stroke-width:2.4;stroke-linecap:square;stroke-linejoin:round"
       d="M 61.324219,77.064453 V 93.460938 H 77.216797 V 109.2168 h 16.087891 v 14.72461 H 108.17383 V 109.01367 H 93.564453 V 92.986328 H 77.720703 V 77.064453 Z m 186.757811,0.65625 V 92.476562 H 231.84961 V 107.89062 H 217.0918 v 16.72461 h 15.48828 v 14.51563 h 15.1875 v 16 H 232 v 15.07226 h -14.95703 v 15.07227 h -15.30469 v 16.46289 h 15.65234 v -15.41992 h 14.95704 v 16.11719 H 248 v 15.07226 h 16 v -15.18945 h -15.53711 v -0.34766 -15.76758 h 15.42188 v -15.5371 H 280 V 155.01367 H 263.76758 V 139.13086 H 248 v -14.8418 h -15.00391 v -15.41601 h 15.23633 v 15.41601 h 15.30469 v -14.43164 h 15.53516 V 92.3125 H 263.49414 V 77.720703 Z m 0.16406,15.576172 h 14.91993 V 108.75391 H 248.24609 Z M 61.681641,139.47852 v 14.7246 H 46.609375 v 16 h 15.767578 v -14.60937 h 15.1875 v 15.53711 h 15.769531 v 15.41992 h 14.884766 v 14.80078 H 92.804688 v 15.74024 h 16.068362 v -15.57618 h 15.08593 V 185.9375 h -15.4375 V 170.7832 H 93.681641 V 155.13086 H 78.029297 v -15.65234 z m -46.841797,14.25976 v 16.92774 H 32 v -16.92774 z m 279.884766,0.92774 v 15.88496 h 14.95703 v -15.88496 z m -46.49219,0.92773 h 14.95508 v 14.95703 h -14.95508 z m -15.18945,15.53711 h 14.8418 v 14.49219 h -14.8418 z m -62.72461,14.49219 v 16.23242 h -15.30469 v -16.11719 h -15.53515 v 16.58008 h 14.7246 v 14.8418 h 16.23243 v 14.72461 h -16.34766 v 16.92773 h 16.57813 v -16.34961 h 14.84179 v -15.76758 h -14.37695 v -14.37695 h 15.88281 V 185.62305 Z M 62.306641,201.1875 v 16.88867 h 14.59375 v 13.60938 H 62.470703 V 279.5625 H 76.900391 V 232.50586 H 92.640625 L 91.656824,217.1734 H 77.720416 v -15.9859 z"
       sodipodi:nodetypes="ccccccccccccccccccccccccccccccccccccccccccccccccccccccccccccccccccccccccccccccccccccccccccccccccccccccccccccccccccccccccccccccccccccccccccccccc" /><path
       id="rect1-1"
       style="fill:#000000;fill-opacity:1;stroke:none;stroke-width:2.4;stroke-linecap:square;stroke-linejoin:round"
       d="M 138.06445,31.072266 V 46.238281 H 124.28906 V 76.736328 H 93.460938 V 61.652344 H 60.667969 V 77.228516 H 46.769531 V 139.82617 H 0.23242188 v 11.82617 H 0 v 81.39063 h 16.462891 v -0.46289 h 29.447265 v 47.63867 h 15.90625 v 14.59375 h 30.988282 v -12.46094 h 0.164062 v -2.95117 h 16.06836 v -16.125 h 30.57422 v -16.12695 h -31.00195 v 15.68945 H 92.96875 v -29.67773 h 16.23242 v -15.53711 h 30.85742 v -16.11524 h -31.42187 v 15.25586 H 92.640625 V 232.3418 H 77.556641 v 47.54882 H 62.798828 V 231.84961 H 46.609375 V 218.07617 H 62.962891 V 201.35156 H 77.720703 V 185.9375 H 61.488281 v 15.25 H 46.566406 v 16.32031 H 16.462891 v -62.60937 h 30.30664 v 0.0508 H 62.511719 V 78.048828 h 29.636719 v 15.083984 h 32.140622 v 30.460938 h -16.46289 v 16 H 92.521484 v 16 h 14.841796 v 14.8418 h 16.92578 v 15.57226 h 13.96289 v -0.0605 h 63.48633 v 0.0312 h 15.92774 v -15.125 h 14.51171 V 155.4414 h 16.06836 V 139.20703 H 232.66797 V 124.69727 H 217.66602 V 93.625 h 30.74414 V 77.912109 h 30.31445 v 77.333981 h 15.88477 v -0.11523 h 30.95507 v 61.91211 h -31.07226 v -15.53516 h -14.14453 v -31.30469 h -16.69532 v 32.69532 h 15.30469 v 75.59375 H 248 v -15.1875 h -14.83984 v -15.71485 h -32.13672 v -29.51367 h 31.97265 v -16.56055 h -32.30078 v 15.08399 h -14.92187 v 77.88477 h -30.25 v -15.98243 h -15.7461 v 15.98243 h -0.0215 v 15.40234 h 46.01758 v 0.01 h 15.25 v -46.07421 h 31.09179 v 15.48242 h 15.30469 v 15.76758 h 32.11719 v -14.95704 h 14.95508 V 232.8125 h 45.91406 v -0.46484 h 0.69531 V 150.95703 139.13086 H 294.60938 V 76.986328 H 279.65234 V 61.681641 h -32 V 77.228516 H 217.66602 V 46.376953 H 201.73828 V 62.144531 H 138.25195 V 46.839844 h 63.02344 V 31.072266 Z m 0.1875,46.144531 h 63.48633 v 93.681643 h -63.48633 z m 79.41407,62.482423 h 14.42968 v 15.41406 h -14.42968 z m -108.91211,0.58984 h 15.53515 v 14.14649 h -15.53515 z" /></g></svg>
