<?xml version="1.0" encoding="UTF-8" standalone="no"?>
<svg
   width="256"
   height="256"
   viewBox="0 0.446 256 256"
   overflow="visible"
   enable-background="new 0 0.446 123 98"
   xml:space="preserve"
   version="1.1"
   id="svg18"
   sodipodi:docname="dialog-scripts.svg"
   inkscape:version="1.3.2 (091e20ef0f, 2023-11-25)"
   xmlns:inkscape="http://www.inkscape.org/namespaces/inkscape"
   xmlns:sodipodi="http://sodipodi.sourceforge.net/DTD/sodipodi-0.dtd"
   xmlns:xlink="http://www.w3.org/1999/xlink"
   xmlns="http://www.w3.org/2000/svg"
   xmlns:svg="http://www.w3.org/2000/svg"
   xmlns:rdf="http://www.w3.org/1999/02/22-rdf-syntax-ns#"
   xmlns:cc="http://creativecommons.org/ns#"><defs
   id="defs18"><linearGradient
     inkscape:collect="always"
     xlink:href="#linearGradient13"
     id="linearGradient16"
     x1="88.659706"
     y1="148.46748"
     x2="88.659706"
     y2="7.1063023"
     gradientUnits="userSpaceOnUse" /><linearGradient
     id="linearGradient13"
     inkscape:collect="always"><stop
       style="stop-color:#8eaed4;stop-opacity:1;"
       offset="0"
       id="stop15" /><stop
       style="stop-color:#919da4;stop-opacity:0.74901962;"
       offset="0.79934877"
       id="stop27" /><stop
       style="stop-color:#b8d9f9;stop-opacity:0;"
       offset="0.82713395"
       id="stop26" /><stop
       style="stop-color:#b8d9f9;stop-opacity:0;"
       offset="1"
       id="stop16" /></linearGradient><radialGradient
     inkscape:collect="always"
     xlink:href="#linearGradient27"
     id="radialGradient29"
     cx="-33.473286"
     cy="-3.255795"
     fx="-33.473286"
     fy="-3.255795"
     r="108.97374"
     gradientTransform="matrix(-2.7721064,-0.01226302,0.0036588,-0.82707942,131.13091,-31.743571)"
     gradientUnits="userSpaceOnUse" /><linearGradient
     id="linearGradient27"
     inkscape:collect="always"><stop
       style="stop-color:#929eac;stop-opacity:0.43137255;"
       offset="0"
       id="stop28" /><stop
       style="stop-color:#929eac;stop-opacity:0;"
       offset="1"
       id="stop29" /></linearGradient><radialGradient
     inkscape:collect="always"
     xlink:href="#linearGradient90"
     id="radialGradient89"
     gradientUnits="userSpaceOnUse"
     gradientTransform="matrix(-1.7080861,-0.02533196,0.00933869,-0.62968889,173.14632,-28.809881)"
     cx="-20.23815"
     cy="5.9818068"
     fx="-20.23815"
     fy="5.9818068"
     r="108.97374" /><linearGradient
     id="linearGradient90"
     inkscape:collect="always"><stop
       style="stop-color:#55a3ff;stop-opacity:1;"
       offset="0"
       id="stop89" /><stop
       style="stop-color:#929eac;stop-opacity:0;"
       offset="1"
       id="stop90" /></linearGradient><linearGradient
     inkscape:collect="always"
     xlink:href="#linearGradient29"
     id="linearGradient31"
     x1="161.88123"
     y1="-29.867367"
     x2="161.88123"
     y2="-24.121073"
     gradientUnits="userSpaceOnUse" /><linearGradient
     id="linearGradient29"
     inkscape:collect="always"><stop
       style="stop-color:#e8ebf0;stop-opacity:1;"
       offset="0"
       id="stop30" /><stop
       style="stop-color:#e8ebf0;stop-opacity:1;"
       offset="0.59999996"
       id="stop32" /><stop
       style="stop-color:#cddaf0;stop-opacity:1;"
       offset="0.68000001"
       id="stop33" /><stop
       style="stop-color:#a0adbf;stop-opacity:1;"
       offset="1"
       id="stop31" /></linearGradient><linearGradient
     inkscape:collect="always"
     xlink:href="#linearGradient36"
     id="linearGradient37"
     x1="159.62625"
     y1="-29.266012"
     x2="159.62625"
     y2="-29.566689"
     gradientUnits="userSpaceOnUse" /><linearGradient
     id="linearGradient36"
     inkscape:collect="always"><stop
       style="stop-color:#b5b8c3;stop-opacity:1;"
       offset="0"
       id="stop36" /><stop
       style="stop-color:#b5b8c3;stop-opacity:0;"
       offset="1"
       id="stop37" /></linearGradient><linearGradient
     inkscape:collect="always"
     xlink:href="#linearGradient44"
     id="linearGradient45"
     x1="66.415581"
     y1="141.2211"
     x2="66.415581"
     y2="-18.606083"
     gradientUnits="userSpaceOnUse" /><linearGradient
     id="linearGradient44"
     inkscape:collect="always"><stop
       style="stop-color:#090909;stop-opacity:1;"
       offset="0"
       id="stop44" /><stop
       style="stop-color:#090909;stop-opacity:1;"
       offset="0.45317727"
       id="stop46" /><stop
       style="stop-color:#575653;stop-opacity:1;"
       offset="0.80351168"
       id="stop47" /><stop
       style="stop-color:#7e7c78;stop-opacity:1"
       offset="1"
       id="stop45" /></linearGradient><linearGradient
     inkscape:collect="always"
     xlink:href="#linearGradient29"
     id="linearGradient1"
     gradientUnits="userSpaceOnUse"
     x1="161.88123"
     y1="-29.867367"
     x2="161.88123"
     y2="-24.121073" /><linearGradient
     inkscape:collect="always"
     xlink:href="#linearGradient36"
     id="linearGradient2"
     gradientUnits="userSpaceOnUse"
     x1="159.62625"
     y1="-29.266012"
     x2="159.62625"
     y2="-29.566689" /><linearGradient
     inkscape:collect="always"
     xlink:href="#linearGradient29"
     id="linearGradient3"
     gradientUnits="userSpaceOnUse"
     x1="161.88123"
     y1="-29.867367"
     x2="161.88123"
     y2="-24.121073" /><linearGradient
     inkscape:collect="always"
     xlink:href="#linearGradient36"
     id="linearGradient4"
     gradientUnits="userSpaceOnUse"
     x1="159.62625"
     y1="-29.266012"
     x2="159.62625"
     y2="-29.566689" /><radialGradient
     inkscape:collect="always"
     xlink:href="#linearGradient11"
     id="radialGradient7-5"
     cx="111.83923"
     cy="180.8036"
     fx="111.83923"
     fy="180.8036"
     r="65.355339"
     gradientTransform="matrix(2.0818339,0.03763459,-0.01086117,0.60080768,-82.654733,65.501254)"
     gradientUnits="userSpaceOnUse" /><linearGradient
     id="linearGradient11"
     inkscape:collect="always"><stop
       style="stop-color:#777777;stop-opacity:1;"
       offset="0"
       id="stop9-3" /><stop
       style="stop-color:#336161;stop-opacity:0.32975611;"
       offset="0.6181702"
       id="stop12-6" /><stop
       style="stop-color:#000000;stop-opacity:0;"
       offset="0.83419019"
       id="stop10-7" /><stop
       style="stop-color:#000000;stop-opacity:0;"
       offset="1"
       id="stop11-5" /></linearGradient><radialGradient
     inkscape:collect="always"
     xlink:href="#linearGradient25"
     id="radialGradient7-9"
     cx="79.701073"
     cy="80.938721"
     fx="79.701073"
     fy="80.938721"
     r="65.355339"
     gradientTransform="matrix(2.1242376,0.03306325,-0.01318739,0.84725967,-87.881144,24.326504)"
     gradientUnits="userSpaceOnUse" /><linearGradient
     id="linearGradient25"
     inkscape:collect="always"><stop
       style="stop-color:#ffffff;stop-opacity:1;"
       offset="0"
       id="stop23" /><stop
       style="stop-color:#ffffff;stop-opacity:0;"
       offset="0.83419019"
       id="stop24" /><stop
       style="stop-color:#ffffff;stop-opacity:0;"
       offset="1"
       id="stop25" /></linearGradient><linearGradient
     inkscape:collect="always"
     xlink:href="#linearGradient1-3"
     id="linearGradient2-3"
     x1="99.867813"
     y1="77.439163"
     x2="141.96323"
     y2="86.860428"
     gradientUnits="userSpaceOnUse" /><linearGradient
     id="linearGradient1-3"
     inkscape:collect="always"><stop
       style="stop-color:#747474;stop-opacity:1;"
       offset="0"
       id="stop1-3" /><stop
       style="stop-color:#000000;stop-opacity:1;"
       offset="1"
       id="stop2-5" /></linearGradient><radialGradient
     inkscape:collect="always"
     xlink:href="#linearGradient25"
     id="radialGradient12"
     gradientUnits="userSpaceOnUse"
     gradientTransform="matrix(2.1398144,0.01980865,-0.01328409,0.50760489,-95.700072,146.41558)"
     cx="80.643898"
     cy="55.747223"
     fx="80.643898"
     fy="55.747223"
     r="65.355339" /><radialGradient
     inkscape:collect="always"
     xlink:href="#linearGradient18"
     id="radialGradient12-0"
     gradientUnits="userSpaceOnUse"
     gradientTransform="matrix(5.0873507,-0.16651595,0.00205304,0.3361149,-353.67827,186.35053)"
     cx="87.779022"
     cy="131.23613"
     fx="87.779022"
     fy="131.23613"
     r="65.355339" /><linearGradient
     id="linearGradient18"
     inkscape:collect="always"><stop
       style="stop-color:#545454;stop-opacity:1;"
       offset="0"
       id="stop16-7" /><stop
       style="stop-color:#000000;stop-opacity:0;"
       offset="0.97958046"
       id="stop17-1" /><stop
       style="stop-color:#000000;stop-opacity:0;"
       offset="1"
       id="stop18-2" /></linearGradient><radialGradient
     inkscape:collect="always"
     xlink:href="#linearGradient29-5"
     id="radialGradient30"
     cx="167.61699"
     cy="71.059105"
     fx="167.61699"
     fy="71.059105"
     r="25.941788"
     gradientTransform="matrix(4.6907959,0.01734977,-0.00651721,1.7620381,-628.83868,-62.068185)"
     gradientUnits="userSpaceOnUse" /><linearGradient
     id="linearGradient29-5"
     inkscape:collect="always"><stop
       style="stop-color:#414141;stop-opacity:1;"
       offset="0"
       id="stop29-3" /><stop
       style="stop-color:#4f4f4f;stop-opacity:0;"
       offset="1"
       id="stop30-5" /></linearGradient></defs><sodipodi:namedview
   id="namedview18"
   pagecolor="#ffffff"
   bordercolor="#000000"
   borderopacity="0.25"
   inkscape:showpageshadow="2"
   inkscape:pageopacity="0.0"
   inkscape:pagecheckerboard="0"
   inkscape:deskcolor="#d1d1d1"
   inkscape:zoom="2.9634146"
   inkscape:cx="193.8642"
   inkscape:cy="207.86832"
   inkscape:current-layer="svg18" />
	
<metadata
   id="metadata1"><rdf:RDF><cc:Work
       rdf:about=""><cc:license
         rdf:resource="http://creativecommons.org/publicdomain/zero/1.0/" /></cc:Work><cc:License
       rdf:about="http://creativecommons.org/publicdomain/zero/1.0/"><cc:permits
         rdf:resource="http://creativecommons.org/ns#Reproduction" /><cc:permits
         rdf:resource="http://creativecommons.org/ns#Distribution" /><cc:permits
         rdf:resource="http://creativecommons.org/ns#DerivativeWorks" /></cc:License></rdf:RDF></metadata><g
   id="rect2"
   style="display:inline"
   inkscape:label="log"
   transform="matrix(1.6863116,0,0,1.6863116,-95.116743,93.086168)"><path
     style="color:#000000;fill:#eff2f4;stroke-linecap:round;stroke-linejoin:round;stroke-miterlimit:5;-inkscape-stroke:none"
     d="M 64.406583,-31.270535 H 201.52123 c 1.3326,0 2.40542,1.07282 2.40542,2.405426 v 99.528104 c 0,1.3326 -1.07282,2.40542 -2.40542,2.40542 H 64.406583 c -1.332606,0 -2.405426,-1.07282 -2.405426,-2.40542 v -99.528104 c 0,-1.332606 1.07282,-2.405426 2.405426,-2.405426 z"
     id="path8-0"
     sodipodi:nodetypes="sssssssss" /><g
     id="g10"><path
       style="color:#000000;fill:#f7f8f9;fill-opacity:1;stroke-linecap:round;stroke-linejoin:round;stroke-miterlimit:5;-inkscape-stroke:none"
       d="m 69.455611,-30.129321 c -2.728007,0.01136 -4.997759,2.277842 -5.00586,5.00586 l -0.267269,90.000459 c -0.0081,2.728012 2.277829,5.00586 5.00586,5.00586 H 198.04698 c 2.72804,0 5.01391,-2.277848 5.00586,-5.00586 L 202.78557,-25.658 c -0.008,-2.728019 -2.27784,-5.017224 -5.00586,-5.00586 z m -1.408305,9.744754 130.103244,-1.135895 0.0506,85.85102 -130.529038,2.09704 z"
       id="path9"
       sodipodi:nodetypes="sssssssssccccc" /><path
       style="color:#000000;fill:#f7f8f9;fill-opacity:1;stroke-linecap:round;stroke-linejoin:round;stroke-miterlimit:5;-inkscape-stroke:none"
       d="m 68.148551,-30.129321 c -2.728008,0.01125 -4.99802,2.277841 -5.00586,5.00586 l -0.267269,93.00421 c -0.0078,2.728012 2.277829,5.00586 5.00586,5.00586 H 198.04698 c 2.72804,0 5.01365,-2.277848 5.00586,-5.00586 L 202.78557,-25.658 c -0.008,-2.72802 -2.27784,-5.017109 -5.00586,-5.00586 z m -1.408305,9.744754 133.583664,-1.135895 0.33409,90.744651 -135.521371,0.86862 z"
       id="path11"
       sodipodi:nodetypes="sssssssssccccc" /><path
       style="color:#000000;fill:url(#linearGradient16);stroke-linecap:round;stroke-linejoin:round;stroke-miterlimit:5;-inkscape-stroke:none"
       d="m 66.151352,-30.530225 c -2.728031,0.0014 -2.859492,-0.328036 -2.867704,2.399982 l -0.294946,97.984618 c -0.0082,2.728012 1.837789,1.760372 4.565815,1.76538 l 130.492463,0.23958 c 2.72804,0.005 4.51164,0.26128 4.51047,-1.3309 l -0.0716,-97.723235 c -0.002,-2.728029 0.62775,-3.403601 -2.10029,-3.402243 z m -0.0051,10.145658 133.871288,-1.135895 -0.0925,90.051477 -134.714201,0.86862 z"
       id="path12-9"
       sodipodi:nodetypes="sssssssssccccc" /><path
       id="path13"
       style="color:#000000;display:inline;fill:url(#radialGradient29);stroke-linecap:round;stroke-linejoin:round;stroke-miterlimit:5;-inkscape-stroke:none"
       d="m 154.3234,-30.217537 -86.174976,0.823101 c -2.72802,0.007 -5.001599,1.542881 -5.005896,4.270905 l -0.267167,89.307136 c -0.0043,2.72802 2.277868,5.0059 5.005896,5.0059 H 198.04683 c 2.72803,0 5.01017,-2.27788 5.00589,-5.0059 l -0.26716,-89.84147 c -0.002,-1.465318 0.48586,-3.331642 -0.54468,-4.254743 l -1.27567,-0.146337 c 0.0722,1.858924 0.2163,3.721355 0.11812,5.584987 -0.0358,0.679603 -0.5478,1.228348 -1.22835,1.228348 h -44.79003 c -0.68054,0 -1.22886,-0.547803 -1.22886,-1.228348 v -4.768444 c 0,-0.40017 0.19286,-0.751124 0.48731,-0.975135 z m 45.56244,8.696887 0.0342,86.981025 -134.783328,0.9355 1.603519,-86.780677 z"
       sodipodi:nodetypes="ccccssccccssssscccccc" /><path
       id="path89"
       style="color:#000000;display:inline;fill:url(#radialGradient89);stroke-linecap:round;stroke-linejoin:round;stroke-miterlimit:5;-inkscape-stroke:none"
       d="m 154.3234,-30.217537 -86.338358,0.823101 c -2.72802,0.007 -5.001599,1.542881 -5.005896,4.270905 l -0.267167,90.000309 c -0.0043,2.72802 2.277868,5.0059 5.005896,5.0059 H 198.04683 c 2.72803,0 5.01017,-2.27788 5.00589,-5.0059 l -0.26716,-90.534643 c -0.002,-1.465318 0.48586,-3.331642 -0.54468,-4.254743 l -1.27567,-0.146337 c 0.0722,1.858924 0.2163,3.721355 0.11812,5.584987 -0.0358,0.679603 -0.5478,1.228348 -1.22835,1.228348 h -44.79003 c -0.68054,0 -1.22886,-0.547803 -1.22886,-1.228348 v -4.768444 c 0,-0.40017 0.19286,-0.751124 0.48731,-0.975135 z m 45.56244,8.696887 0.0342,87.674198 -134.94671,0.9355 1.603519,-87.47385 z"
       sodipodi:nodetypes="ccccssccccssssscccccc" /></g><path
     style="color:#000000;fill:#626262;stroke-linecap:round;stroke-linejoin:round;stroke-miterlimit:5;-inkscape-stroke:none"
     d="m 63.426483,-32.011719 c -1.730301,0 -3.146485,3.146485 -3.146485,3.146485 v 99.758367 c 0,1.73029 1.416184,3.14648 3.146485,3.14648 H 201.52148 c 1.7303,0 3.14649,-1.41619 3.14649,-3.14648 v -99.758367 c 0,-1.730301 -1.41619,-3.146485 -3.14649,-3.146485 z m 0,1.482422 H 201.52148 c 0.9349,0 1.66407,0.729154 1.66407,1.664063 v 99.758367 c 0,0.9349 -0.72917,1.66601 -1.66407,1.66601 H 63.426483 c -0.934909,0 -1.664063,-0.73111 -1.664063,-1.66601 v -99.758367 c 0,-0.934909 0.729154,-1.664063 1.664063,-1.664063 z"
     id="path7"
     sodipodi:nodetypes="scssssssssssssssss" /><g
     id="g29"
     transform="matrix(1,0,0,1.1537366,0,3.6671575)"
     style="display:inline"><g
       id="rect29"><path
         style="color:#000000;fill:url(#linearGradient1);stroke-linecap:round;stroke-linejoin:round;stroke-miterlimit:5;-inkscape-stroke:none"
         d="m 154.94949,-29.800549 h 13.02939 v 5.746295 h -13.02939 z"
         id="path37" /><path
         id="rect43"
         style="fill:#d3d5da;fill-opacity:1;stroke:#7a7d95;stroke-width:0.8;stroke-linecap:round;stroke-linejoin:round;stroke-miterlimit:5;stroke-dasharray:none;stroke-opacity:1"
         d="m 158.59106,-28.464206 h 6.18061 l -3.30746,3.741773 z"
         sodipodi:nodetypes="cccc"
         transform="matrix(1,0,0,0.86674897,0,-3.178505)" /><path
         style="color:#000000;fill:url(#linearGradient2);stroke-linecap:round;stroke-linejoin:round;stroke-miterlimit:5;-inkscape-stroke:none"
         d="m 154.94922,-30 a 0.20002,0.20002 0 0 0 -0.19922,0.199219 v 5.746094 a 0.20002,0.20002 0 0 0 0.19922,0.201171 h 13.0293 a 0.20002,0.20002 0 0 0 0.20117,-0.201171 v -5.746094 A 0.20002,0.20002 0 0 0 167.97852,-30 Z m 0.20117,0.400391 h 12.62891 v 5.345703 h -12.62891 z"
         id="path38" /></g><g
       id="g40"
       transform="translate(13.040179)"><path
         style="color:#000000;fill:url(#linearGradient3);stroke-linecap:round;stroke-linejoin:round;stroke-miterlimit:5;-inkscape-stroke:none"
         d="m 154.94949,-29.800549 h 13.02939 v 5.746295 h -13.02939 z"
         id="path39" /><path
         id="path43"
         style="fill:#d1d3d8;fill-opacity:1;stroke:#7a7d95;stroke-width:0.8;stroke-linecap:round;stroke-linejoin:round;stroke-miterlimit:5;stroke-dasharray:none;stroke-opacity:1"
         d="m 170.96978,-25.809138 h 6.18061 l -3.30746,-3.741773 z"
         sodipodi:nodetypes="cccc"
         transform="matrix(1,0,0,0.86674897,-13.040179,-3.178505)" /><path
         style="color:#000000;fill:url(#linearGradient4);stroke-linecap:round;stroke-linejoin:round;stroke-miterlimit:5;-inkscape-stroke:none"
         d="m 154.94922,-30 a 0.20002,0.20002 0 0 0 -0.19922,0.199219 v 5.746094 a 0.20002,0.20002 0 0 0 0.19922,0.201171 h 13.0293 a 0.20002,0.20002 0 0 0 0.20117,-0.201171 v -5.746094 A 0.20002,0.20002 0 0 0 167.97852,-30 Z m 0.20117,0.400391 h 12.62891 v 5.345703 h -12.62891 z"
         id="path40" /></g><g
       id="g42"
       transform="matrix(1.4432807,0,0,1,-42.422831,0)"><path
         style="color:#000000;fill:url(#linearGradient31);stroke-linecap:round;stroke-linejoin:round;stroke-miterlimit:5;-inkscape-stroke:none"
         d="m 154.94949,-29.800549 h 13.02939 v 5.746295 h -13.02939 z"
         id="path41" /><path
         id="path44"
         style="display:inline;fill:#d1d3d8;fill-opacity:1;stroke:#7a7d95;stroke-width:0.6;stroke-linecap:round;stroke-linejoin:round;stroke-miterlimit:5;stroke-dasharray:none;stroke-opacity:1"
         d="m 188.7526,-24.977208 1.72434,-1.700556 1.41847,1.702531 1.36465,-0.01696 0.0357,-0.890508 -1.44462,-1.406509 -0.0209,-0.329911 1.47217,-1.656095 -5.3e-4,-0.72247 -1.18933,0.03405 -1.67094,1.607143 -1.80594,-1.603371 -1.18281,0.0042 0.006,0.829298 1.51481,1.504836 -0.004,0.30903 -1.47786,1.3814 -0.008,1.006498 z"
         sodipodi:nodetypes="ccccccccccccccccccc"
         transform="matrix(0.69286592,0,0,0.86674897,29.393334,-3.178505)" /><path
         style="color:#000000;fill:url(#linearGradient37);stroke-linecap:round;stroke-linejoin:round;stroke-miterlimit:5;-inkscape-stroke:none"
         d="m 154.94922,-30 a 0.20002,0.20002 0 0 0 -0.19922,0.199219 v 5.746094 a 0.20002,0.20002 0 0 0 0.19922,0.201171 h 13.0293 a 0.20002,0.20002 0 0 0 0.20117,-0.201171 v -5.746094 A 0.20002,0.20002 0 0 0 167.97852,-30 Z m 0.20117,0.400391 h 12.62891 v 5.345703 h -12.62891 z"
         id="path42" /></g></g><g
     id="rect44"
     transform="matrix(0.99780999,0,0,1,-0.02989453,0)"><path
       style="color:#000000;fill:url(#linearGradient45);stroke-linecap:round;stroke-linejoin:round;stroke-miterlimit:5;-inkscape-stroke:none"
       d="M 66.642008,-20.847023 H 199.51985 V 67.622346 H 66.642008 Z"
       id="path87"
       sodipodi:nodetypes="ccccc" /><path
       style="color:#000000;fill:#2c3848;stroke-linecap:round;stroke-linejoin:round;stroke-miterlimit:5;-inkscape-stroke:none"
       d="m 66.641279,-21.246094 c -0.219686,8.78e-4 -0.39756,0.178751 -0.398438,0.398438 v 88.470772 c 8.83e-4,0.21968 0.178755,0.39755 0.398438,0.39843 H 199.51953 c 0.22045,1.9e-4 0.3995,-0.17799 0.40039,-0.39843 v -88.470772 c -8.8e-4,-0.220447 -0.17994,-0.398633 -0.40039,-0.398438 z m 0.40039,0.798828 H 199.11914 V 67.222726 H 67.041669 Z"
       id="path88"
       sodipodi:nodetypes="cccccccccccccc" /></g><text
     xml:space="preserve"
     style="font-style:normal;font-variant:normal;font-weight:normal;font-stretch:normal;font-size:43.0969px;font-family:'MxPlus IBM VGA 8x16';-inkscape-font-specification:'MxPlus IBM VGA 8x16';fill:#e0e0e0;fill-opacity:1;stroke-width:3.3726;stroke-linecap:round;stroke-linejoin:round;stroke-miterlimit:1.8;stroke-dashoffset:20.7632;paint-order:stroke fill markers"
     x="71.264763"
     y="21.610592"
     id="text1"
     inkscape:label="text1"><tspan
       sodipodi:role="line"
       id="tspan1"
       x="71.264763"
       y="21.610592"
       style="font-size:43.0969px;fill:#e0e0e0;fill-opacity:1;stroke-width:3.3726">#~]$_</tspan></text></g><g
   id="rect1"
   style="display:inline"
   inkscape:label="oldscript"
   transform="matrix(0.94567344,0,0,0.94567344,-60.845287,50.452002)"><g
     id="g6"
     inkscape:label="headscript"><path
       style="color:#000000;display:inline;fill:#2dffff;fill-opacity:1;fill-rule:evenodd;stroke-linecap:round;stroke-linejoin:round;stroke-miterlimit:2.1;-inkscape-stroke:none"
       d="m 94.756834,57.458931 h 76.275896 c 0,0 -24.52925,7.686029 -24.52925,39.650023 0,21.547466 33.2657,39.650026 33.2657,39.650026 0,0 21.16908,20.00543 21.16908,39.65002 0,37.11748 -34.27375,39.65002 -34.27375,39.65002 l -77.701499,-1.4256 c 0,0 42.488769,-12.88595 35.699349,-38.22442 -3.69291,-13.78213 -38.641972,-39.65002 -38.641972,-39.65002 0,0 -15.792806,-20.45468 -15.792806,-39.650026 10e-7,-27.259754 24.529252,-39.650023 24.529252,-39.650023 z"
       id="path5"
       sodipodi:nodetypes="ccscsccscsc"
       inkscape:label="colorpath5" /><path
       style="color:#000000;display:inline;fill:url(#radialGradient7-5);fill-rule:evenodd;stroke-linecap:round;stroke-linejoin:round;stroke-miterlimit:2.1;-inkscape-stroke:none"
       d="M 94.953503,56.364226 H 171.2294 c 0,0 -24.52925,7.686029 -24.52925,39.650023 0,21.547461 17.90432,29.156841 33.2657,39.650021 12.37156,8.45087 21.16908,20.00543 21.16908,39.65002 0,37.11748 -34.27375,39.65002 -34.27375,39.65002 H 90.585283 c 0,0 41.063167,-14.31155 34.273747,-39.65002 -3.69291,-13.78213 -38.641971,-39.65002 -38.641971,-39.65002 0,0 -15.792806,-20.45468 -15.792806,-39.650021 1e-6,-27.259754 24.52925,-39.650023 24.52925,-39.650023 z"
       id="path8-7"
       inkscape:label="shadowbottomdark"
       sodipodi:nodetypes="ccsssccscsc" /><path
       style="color:#000000;display:inline;fill:url(#radialGradient7-9);fill-rule:evenodd;stroke-linecap:round;stroke-linejoin:round;stroke-miterlimit:2.1;-inkscape-stroke:none"
       d="m 93.96419,58.575892 h 76.2759 c 0,0 -24.52925,7.686029 -24.52925,39.650023 0,21.547465 33.2657,39.650025 33.2657,39.650025 0,0 21.16908,20.00543 21.16908,39.65002 0,37.11748 -34.27375,39.65002 -34.27375,39.65002 l -77.7015,-1.4256 c 0,0 42.48877,-12.88595 35.69935,-38.22442 -3.69291,-13.78213 -38.64197,-39.65002 -38.64197,-39.65002 0,0 -15.79281,-20.45468 -15.79281,-39.650025 0,-27.259754 24.52925,-39.650023 24.52925,-39.650023 z"
       id="path22"
       sodipodi:nodetypes="ccscsccscsc"
       inkscape:label="whiteshadow" /><path
       id="path6-0"
       style="color:#000000;fill:url(#linearGradient2-3);fill-rule:evenodd;stroke-linecap:round;stroke-linejoin:round;stroke-miterlimit:2.1;-inkscape-stroke:none"
       d="m 166.74328,56.886702 -2.17882,0.656122 -2.63643,1.960521 c -1.74379,1.161901 -2.65929,2.530887 -4.54901,4.354256 -6.45604,6.22937 -12.87518,16.758169 -12.87518,33.251717 0,11.802922 8.82009,22.035812 17.32246,29.416292 8.25815,7.16849 11.08653,7.77604 16.09359,12.30829 3.90661,3.53616 5.72132,4.38077 10.80296,11.5409 5.1723,7.28791 10.21488,16.92969 10.21488,26.03355 0,17.94311 -8.06162,27.0426 -16.18403,32.04094 -7.68542,4.72943 -7.80976,4.07497 -8.61084,4.14755 0.78528,0.84696 -1.46585,2.03297 -3.42445,2.10175 l 3.97997,1.89035 c 2.66602,-0.36037 3.01503,-0.34215 10.15132,-4.73365 9.0144,-5.54727 18.08778,-16.27318 18.08778,-35.44745 0,-10.54066 -5.54114,-20.72171 -10.95333,-28.34763 -5.4122,-7.6259 -7.24365,-8.5541 -11.4298,-12.25145 -0.12894,-0.11389 -0.27955,-0.2001 -0.41754,-0.30282 -5.28166,-3.93193 -7.55906,-4.94474 -15.68948,-12.00237 -8.13045,-7.05762 -15.94322,-16.64977 -15.94322,-26.394252 0,-15.470348 5.85159,-24.760307 11.65201,-30.37334 6.31257,-6.108633 11.47475,-7.369059 11.47475,-7.369059 2.18166,-0.686357 1.47917,-2.351231 -0.80791,-2.35421 z m -72.888027,0.214975 c 0,0 -25.626858,11.548193 -25.626859,40.007641 0.423164,13.149552 4.017116,30.860072 16.60157,41.257942 5.905904,4.87975 8.677219,6.42358 17.796846,14.54279 4.55983,4.05958 9.22505,8.54171 12.93203,12.80283 3.70697,4.26115 6.41206,8.37794 7.17165,11.21275 1.55472,5.80231 0.4045,10.80055 -2.28151,15.35152 -2.68601,4.55099 -6.97802,8.56263 -11.54297,11.83236 -5.65449,4.05014 -11.383512,6.78642 -15.13654,8.40155 0.06819,-0.003 0.135202,-0.0103 0.204122,-0.0103 h 8.905918 c 2.66046,-1.42056 5.49897,-3.09238 8.35659,-5.13922 4.85215,-3.47543 9.55488,-7.79204 12.65866,-13.05088 3.1038,-5.25884 4.53904,-11.55316 2.69906,-18.42006 -1.08686,-4.05622 -4.13301,-8.33911 -8.0176,-12.80439 -3.88457,-4.4653 -8.65007,-9.03394 -13.28911,-13.16405 C 96.234433,141.86253 92.76835,140.7898 87.480448,135.36125 77.902359,125.52838 72.228666,114.9771 72.228666,97.109318 72.228667,71.747553 94.090197,58.16048 95.277389,57.544374 Z M 90.71436,213.79522 c -0.382012,0.14379 -0.98392,0.37465 -0.98392,0.37465 z"
       sodipodi:nodetypes="cccssssssscccsssscssscccccsssssscscsssssssccccc" /></g><g
     id="path12-9-6"
     inkscape:label="frontbottom"><path
       style="color:#000000;display:inline;fill:#08eeff;fill-opacity:1;fill-rule:evenodd;stroke-linecap:round;stroke-linejoin:round;stroke-miterlimit:2.1;-inkscape-stroke:none"
       d="m 81.27873,168.11581 h 83.21955 c 0,0 -11.26843,4.60481 -11.26843,23.75488 0,12.90938 20.06894,23.75487 20.06894,23.75487 H 88.60704 c 0,0 -18.59675,-12.25468 -18.59675,-23.75487 1e-5,-16.3317 11.26844,-23.75488 11.26844,-23.75488 z"
       id="path13-2"
       inkscape:label="colorpath13" /><path
       style="color:#000000;display:inline;fill:url(#radialGradient12);fill-rule:evenodd;stroke-linecap:round;stroke-linejoin:round;stroke-miterlimit:2.1;-inkscape-stroke:none"
       d="m 81.094392,166.93485 h 83.219548 c 0,0 -11.26843,4.60481 -11.26843,23.75488 0,12.90938 20.06894,23.75487 20.06894,23.75487 H 88.422705 c 0,0 -18.59675,-12.25468 -18.59675,-23.75487 1e-6,-16.3317 11.268437,-23.75488 11.268437,-23.75488 z"
       id="path20" /><path
       style="color:#000000;display:inline;fill:url(#radialGradient12-0);fill-rule:evenodd;stroke-linecap:round;stroke-linejoin:round;stroke-miterlimit:2.1;-inkscape-stroke:none"
       d="m 80.869604,167.46843 h 83.219546 c 0,0 -11.26843,4.60481 -11.26843,23.75488 0,12.90938 19.56491,25.09894 19.56491,25.09894 l -84.019704,-0.75604 c 0,0 -18.764759,-12.84271 -18.764759,-24.3429 10e-7,-16.3317 11.268437,-23.75488 11.268437,-23.75488 z"
       id="path16"
       sodipodi:nodetypes="ccsccsc" /><path
       id="path14-3"
       style="color:#000000;display:inline;fill:#000000;fill-rule:evenodd;stroke-linecap:round;stroke-linejoin:round;stroke-miterlimit:2.1;-inkscape-stroke:none"
       d="m 81.093758,164.93567 c -0.390899,8e-5 -0.773207,0.1147 -1.099674,0.32969 0,0 -12.167732,8.17267 -12.167733,25.42429 0,6.82815 3.28175,13.70691 8.057761,18.38287 4.730373,4.63128 8.195606,5.49236 9.708038,5.94108 0.682275,0.20242 1.682851,0.5073 2.073804,0.50754 l 1.728049,0.21001 1.134058,-0.22893 -1.461663,-3.05679 c -3.704045,-0.16688 -6.267284,-2.24593 -10.398993,-6.24612 -4.496294,-4.35316 -6.841298,-10.83762 -6.841298,-15.50966 1e-6,-14.41918 8.782321,-20.94209 9.95133,-21.75423 h 76.693513 c -0.45387,0.46783 -0.90358,0.87983 -1.35754,1.45108 -3.08994,3.88829 -6.06837,10.33585 -6.06837,20.30315 0,7.49109 1.81149,12.02275 5.16286,16.8457 2.07425,2.98504 7.12675,5.55695 8.65723,6.63093 h -0.37982 c 1.13117,0.86711 3.9841,1.65031 5.51732,1.81238 l 2.0196,0.52593 2.63718,0.1188 c 2.07461,-0.003 1.50959,-4.12351 0.3553,-4.11586 -5.45548,0.0362 -11.36265,-3.36391 -14.94613,-7.40952 -4.22903,-4.77441 -5.02378,-8.99007 -5.02378,-14.40836 0,-9.18273 2.65698,-14.61279 5.20123,-17.81441 2.54427,-3.20163 4.82451,-4.08813 4.82451,-4.08813 2.02944,-0.83035 1.43672,-3.84989 -0.75602,-3.85144 z"
       sodipodi:nodetypes="ccsssccccssccssaccsccssssccc" /></g><g
     id="rect25"
     inkscape:label="topbehind"><path
       style="color:#000000;fill:#2dffff;fill-rule:evenodd;stroke-linecap:round;stroke-linejoin:round;stroke-miterlimit:2.1;-inkscape-stroke:none"
       d="m 169.35264,57.122913 c 9.36597,0.575571 19.4777,5.511567 24.19324,13.440686 6.1262,10.301125 5.30582,26.319311 0.33602,35.953831 l -45.69834,1.00805 c -3.31298,-6.23584 -6.75512,-34.25383 21.16908,-50.402567 z"
       id="path26"
       inkscape:label="colortopbehind" /><path
       style="color:#000000;display:inline;fill:url(#radialGradient30);fill-rule:evenodd;stroke-linecap:round;stroke-linejoin:round;stroke-miterlimit:2.1;-inkscape-stroke:none"
       d="m 169.49359,56.64031 c 9.36597,0.57557 19.4777,5.51156 24.19324,13.44068 6.1262,10.30113 5.30582,26.31931 0.33602,35.95383 l -45.69834,1.00805 c -3.31298,-6.23584 -6.75512,-34.25383 21.16908,-50.40256 z"
       id="path29"
       inkscape:label="shadowtopbehind" /><path
       style="color:#000000;fill:#000000;fill-rule:evenodd;stroke-linecap:round;stroke-linejoin:round;stroke-miterlimit:2.1;-inkscape-stroke:none"
       d="m 175.2709,55.840989 c -4.84204,-1.004395 -10.5352,-0.04214 -14.56373,2.825803 -8.45236,6.017286 -13.28437,16.672762 -15.60365,26.932817 -1.15965,5.130028 -1.29849,9.923983 -0.92774,13.876953 0.37076,3.952968 1.19013,7.006088 2.24219,8.986328 0.35423,0.66786 1.05474,1.07895 1.81055,1.0625 l 45.69726,-1.00781 c 0.73312,-0.0161 1.39866,-0.43206 1.73438,-1.08399 5.34273,-10.357482 6.23735,-26.741153 -0.39454,-37.892574 -5.17119,-8.695299 -12.0838,-12.059048 -19.99472,-13.700027 z m -5.56388,3.54577 c 8.23997,-1.732112 17.94941,5.187807 22.11915,12.199178 5.41674,9.108166 4.88253,23.917833 0.72461,32.960943 l -42.98633,0.94726 c -0.54227,-1.40551 -1.13687,-3.51857 -1.40625,-6.390624 -0.33379,-3.558874 -0.20856,-7.948562 0.84766,-12.621094 2.08085,-9.205275 9.57806,-24.757496 20.70116,-27.095663 z"
       id="path27"
       sodipodi:nodetypes="aassccccsaasccssa"
       inkscape:label="frametopbehind" /></g><g
     id="g39"
     inkscape:label="scripttext"><path
       id="rect30"
       style="display:inline;fill:#828282;fill-opacity:0.77135;fill-rule:evenodd;stroke-width:4;stroke-linecap:round;stroke-linejoin:round;stroke-miterlimit:2.1"
       d="m 90.51861,68.428802 h 53.6976 l -4.03221,6.1776 H 86.486404 Z"
       sodipodi:nodetypes="ccccc" /><path
       id="path31"
       style="display:inline;fill:#828282;fill-opacity:0.77135;fill-rule:evenodd;stroke-width:4;stroke-linecap:round;stroke-linejoin:round;stroke-miterlimit:2.1"
       d="M 84.225707,80.308802 H 137.9233 l -2.0161,6.1776 H 82.209604 Z"
       sodipodi:nodetypes="ccccc" /><path
       id="path33"
       style="display:inline;fill:#828282;fill-opacity:0.77135;fill-rule:evenodd;stroke-width:4;stroke-linecap:round;stroke-linejoin:round;stroke-miterlimit:2.1"
       d="m 79.723247,92.664002 h 53.697593 l -0.84004,6.1776 H 78.883204 Z"
       sodipodi:nodetypes="ccccc" /><path
       id="path34"
       style="display:inline;fill:#828282;fill-opacity:0.77135;fill-rule:evenodd;stroke-width:4;stroke-linecap:round;stroke-linejoin:round;stroke-miterlimit:2.1"
       d="m 79.463815,106.4448 h 53.697595 l 3.69619,6.1776 H 83.160004 Z"
       sodipodi:nodetypes="ccccc" /><path
       id="path35"
       style="display:inline;fill:#828282;fill-opacity:0.77135;fill-rule:evenodd;stroke-width:4;stroke-linecap:round;stroke-linejoin:round;stroke-miterlimit:2.1"
       d="m 84.830198,119.2752 h 53.697592 l 4.03221,6.1776 H 88.862404 Z"
       sodipodi:nodetypes="ccccc" /><path
       id="path36"
       style="display:inline;fill:#828282;fill-opacity:0.77135;fill-rule:evenodd;stroke-width:4;stroke-linecap:round;stroke-linejoin:round;stroke-miterlimit:2.1"
       d="M 94.977407,130.2048 H 148.675 l 3.8642,6.1776 H 98.841604 Z"
       sodipodi:nodetypes="ccccc" /><path
       id="path37-9"
       style="display:inline;fill:#828282;fill-opacity:0.77135;fill-rule:evenodd;stroke-width:4;stroke-linecap:round;stroke-linejoin:round;stroke-miterlimit:2.1"
       d="m 106.32455,141.6096 h 53.6976 l 4.87225,6.1776 h -53.6976 z"
       sodipodi:nodetypes="ccccc" /><path
       id="path38-1"
       style="display:inline;fill:#828282;fill-opacity:0.77135;fill-rule:evenodd;stroke-width:4;stroke-linecap:round;stroke-linejoin:round;stroke-miterlimit:2.1"
       d="m 119.85581,153.4896 h 53.6976 l 3.69619,6.1776 H 123.552 Z"
       sodipodi:nodetypes="ccccc" /></g></g></svg>
