<?xml version="1.0" encoding="UTF-8" standalone="no"?>
<!-- Created with Inkscape (http://www.inkscape.org/) -->

<svg
   xml:space="preserve"
   id="svg1"
   viewBox="0 0 256 256"
   height="256pt"
   width="256pt"
   y="0.0000000"
   x="0.0000000"
   version="1.0"
   sodipodi:version="0.32"
   inkscape:version="1.3.2 (091e20ef0f, 2023-11-25)"
   sodipodi:docname="document-print-preview-symbolic.svg"
   inkscape:export-filename="../../../Source/actions/document-print.png"
   inkscape:export-xdpi="72"
   inkscape:export-ydpi="72"
   xmlns:inkscape="http://www.inkscape.org/namespaces/inkscape"
   xmlns:sodipodi="http://sodipodi.sourceforge.net/DTD/sodipodi-0.dtd"
   xmlns:xlink="http://www.w3.org/1999/xlink"
   xmlns="http://www.w3.org/2000/svg"
   xmlns:svg="http://www.w3.org/2000/svg"
   xmlns:rdf="http://www.w3.org/1999/02/22-rdf-syntax-ns#"
   xmlns:cc="http://creativecommons.org/ns#"
   xmlns:dc="http://purl.org/dc/elements/1.1/"><metadata
   id="metadata47">
  <rdf:RDF>
    <cc:Work
   rdf:about="">
      <dc:format>image/svg+xml</dc:format>





      <dc:type
   rdf:resource="http://purl.org/dc/dcmitype/StillImage" />





    <cc:license
   rdf:resource="http://creativecommons.org/publicdomain/zero/1.0/" /></cc:Work>





  <cc:License
   rdf:about="http://creativecommons.org/publicdomain/zero/1.0/"><cc:permits
     rdf:resource="http://creativecommons.org/ns#Reproduction" /><cc:permits
     rdf:resource="http://creativecommons.org/ns#Distribution" /><cc:permits
     rdf:resource="http://creativecommons.org/ns#DerivativeWorks" /></cc:License></rdf:RDF>





</metadata>





<sodipodi:namedview
   inkscape:current-layer="svg1"
   inkscape:window-y="0"
   inkscape:window-x="0"
   id="base"
   pagecolor="#ffffff"
   bordercolor="#666666"
   borderopacity="1.0"
   inkscape:pageopacity="0.0"
   inkscape:pageshadow="2"
   inkscape:window-width="1020"
   inkscape:window-height="691"
   inkscape:cy="170.73263"
   inkscape:cx="199.66792"
   inkscape:zoom="3.473267"
   inkscape:showpageshadow="2"
   inkscape:pagecheckerboard="0"
   inkscape:deskcolor="#d1d1d1"
   inkscape:document-units="pt" />





<defs
   id="defs106"><linearGradient
     id="linearGradient79"
     inkscape:collect="always"><stop
       style="stop-color:#000000;stop-opacity:0.59515572;"
       offset="0"
       id="stop78" /><stop
       style="stop-color:#000000;stop-opacity:0.25951558;"
       offset="1"
       id="stop79" /></linearGradient><linearGradient
     id="linearGradient75"
     inkscape:collect="always"><stop
       style="stop-color:#fdfdfd;stop-opacity:0.55709344;"
       offset="0"
       id="stop74" /><stop
       style="stop-color:#fdfdfd;stop-opacity:1;"
       offset="0.28297609"
       id="stop76" /><stop
       style="stop-color:#fdfdfd;stop-opacity:0;"
       offset="1"
       id="stop75" /></linearGradient><linearGradient
     id="linearGradient71"
     inkscape:collect="always"><stop
       style="stop-color:#000000;stop-opacity:0.98583603;"
       offset="0"
       id="stop72" /><stop
       style="stop-color:#c0c0c0;stop-opacity:1;"
       offset="1"
       id="stop73" /></linearGradient><linearGradient
     id="linearGradient68"
     inkscape:collect="always"><stop
       style="stop-color:#000000;stop-opacity:1;"
       offset="0"
       id="stop68" /><stop
       style="stop-color:#000000;stop-opacity:1;"
       offset="0.5"
       id="stop70" /><stop
       style="stop-color:#808080;stop-opacity:1"
       offset="0.56283343"
       id="stop71" /><stop
       style="stop-color:#808080;stop-opacity:1"
       offset="1"
       id="stop69" /></linearGradient><linearGradient
     id="linearGradient59"
     inkscape:collect="always"><stop
       style="stop-color:#808080;stop-opacity:1;"
       offset="0"
       id="stop59" /><stop
       style="stop-color:#808080;stop-opacity:1;"
       offset="0.5"
       id="stop61" /><stop
       style="stop-color:#020202;stop-opacity:1;"
       offset="0.56590229"
       id="stop62" /><stop
       style="stop-color:#000000;stop-opacity:1;"
       offset="1"
       id="stop60" /></linearGradient><linearGradient
     id="linearGradient55"
     inkscape:collect="always"><stop
       style="stop-color:#fdfdfd;stop-opacity:0.30795848;"
       offset="0"
       id="stop55" /><stop
       style="stop-color:#fdfdfd;stop-opacity:1;"
       offset="0.5"
       id="stop77" /><stop
       style="stop-color:#fdfdfd;stop-opacity:0;"
       offset="1"
       id="stop56" /></linearGradient><linearGradient
     id="linearGradient50"
     inkscape:collect="always"><stop
       style="stop-color:#000000;stop-opacity:0.6678201;"
       offset="0"
       id="stop50" /><stop
       style="stop-color:#000000;stop-opacity:0;"
       offset="1"
       id="stop51" /></linearGradient><linearGradient
     id="linearGradient45"
     inkscape:collect="always"><stop
       style="stop-color:#808080;stop-opacity:1"
       offset="0"
       id="stop45" /><stop
       style="stop-color:#888888;stop-opacity:1"
       offset="0.96110928"
       id="stop47" /><stop
       style="stop-color:#000000;stop-opacity:1"
       offset="0.96110928"
       id="stop48" /><stop
       style="stop-color:#000000;stop-opacity:1;"
       offset="1"
       id="stop46" /></linearGradient><linearGradient
     id="linearGradient2"
     inkscape:collect="always"><stop
       style="stop-color:#888888;stop-opacity:1;"
       offset="0"
       id="stop2" /><stop
       style="stop-color:#8b8b8b;stop-opacity:1;"
       offset="0.31312731"
       id="stop4" /><stop
       style="stop-color:#000000;stop-opacity:1;"
       offset="0.37328839"
       id="stop5" /><stop
       style="stop-color:#000000;stop-opacity:1;"
       offset="1"
       id="stop3" /></linearGradient><linearGradient
     inkscape:collect="always"
     xlink:href="#linearGradient2"
     id="linearGradient3"
     x1="173.24648"
     y1="79.598228"
     x2="215.86855"
     y2="179.14427"
     gradientUnits="userSpaceOnUse" /><radialGradient
     inkscape:collect="always"
     xlink:href="#linearGradient45"
     id="radialGradient46"
     cx="37.604309"
     cy="20.970823"
     fx="37.604309"
     fy="20.970823"
     r="105.20007"
     gradientTransform="matrix(0.63183544,0.33532093,-0.07590415,0.14302394,11.840038,156.78278)"
     gradientUnits="userSpaceOnUse" /><linearGradient
     inkscape:collect="always"
     xlink:href="#linearGradient50"
     id="linearGradient51"
     x1="53.551888"
     y1="186.35193"
     x2="50.09692"
     y2="192.82996"
     gradientUnits="userSpaceOnUse" /><linearGradient
     inkscape:collect="always"
     xlink:href="#linearGradient79"
     id="linearGradient52"
     gradientUnits="userSpaceOnUse"
     x1="152.882"
     y1="187.21567"
     x2="158.92818"
     y2="198.22833" /><linearGradient
     inkscape:collect="always"
     xlink:href="#linearGradient75"
     id="linearGradient56"
     x1="5.7222786"
     y1="138.63028"
     x2="19.650091"
     y2="139.38605"
     gradientUnits="userSpaceOnUse" /><linearGradient
     inkscape:collect="always"
     xlink:href="#linearGradient55"
     id="linearGradient57"
     gradientUnits="userSpaceOnUse"
     x1="19.704071"
     y1="95.281319"
     x2="25.912207"
     y2="107.21173" /><linearGradient
     inkscape:collect="always"
     xlink:href="#linearGradient59"
     id="linearGradient60"
     x1="127.42717"
     y1="35.171955"
     x2="151.09325"
     y2="94.34124"
     gradientUnits="userSpaceOnUse" /><linearGradient
     inkscape:collect="always"
     xlink:href="#linearGradient68"
     id="linearGradient69"
     x1="262.62527"
     y1="140.32129"
     x2="246.59293"
     y2="87.032799"
     gradientUnits="userSpaceOnUse"
     gradientTransform="translate(-28.400177,20.613031)" /><linearGradient
     inkscape:collect="always"
     xlink:href="#linearGradient71"
     id="linearGradient73"
     x1="215.82237"
     y1="118.58527"
     x2="241.90297"
     y2="126.35892"
     gradientUnits="userSpaceOnUse" /><linearGradient
     inkscape:collect="always"
     xlink:href="#linearGradient7-2"
     id="linearGradient9-7"
     x1="82.666664"
     y1="58.720409"
     x2="95.904968"
     y2="150.12659"
     gradientUnits="userSpaceOnUse" /><linearGradient
     id="linearGradient7-2"
     inkscape:collect="always"><stop
       style="stop-color:#9f999a;stop-opacity:1;"
       offset="0"
       id="stop8-0" /><stop
       style="stop-color:#f1eaeb;stop-opacity:1;"
       offset="0.51612979"
       id="stop10-2" /><stop
       style="stop-color:#e4dddd;stop-opacity:1;"
       offset="1"
       id="stop9-3" /></linearGradient><radialGradient
     inkscape:collect="always"
     xlink:href="#linearGradient2-2"
     id="radialGradient3"
     cx="264.77231"
     cy="129.83482"
     fx="264.77231"
     fy="129.83482"
     r="53.659821"
     gradientUnits="userSpaceOnUse"
     gradientTransform="translate(-129.26786,-31.372024)" /><linearGradient
     id="linearGradient2-2"
     inkscape:collect="always"><stop
       style="stop-color:#191919;stop-opacity:1;"
       offset="0"
       id="stop2-2" /><stop
       style="stop-color:#333333;stop-opacity:1;"
       offset="0.47167766"
       id="stop4-8" /><stop
       style="stop-color:#9a9a9a;stop-opacity:1;"
       offset="0.60399389"
       id="stop5-9" /><stop
       style="stop-color:#9a9a9a;stop-opacity:1;"
       offset="1"
       id="stop3-3" /></linearGradient><radialGradient
     inkscape:collect="always"
     xlink:href="#linearGradient5-7"
     id="radialGradient7"
     cx="150.43452"
     cy="71.4375"
     fx="150.43452"
     fy="71.4375"
     r="23.056549"
     gradientUnits="userSpaceOnUse"
     gradientTransform="matrix(1.1967213,0,0,1.1967213,-29.593675,-14.053278)" /><linearGradient
     id="linearGradient5-7"
     inkscape:collect="always"><stop
       style="stop-color:#ffffff;stop-opacity:1;"
       offset="0"
       id="stop6-5" /><stop
       style="stop-color:#ffffff;stop-opacity:0;"
       offset="1"
       id="stop7-9" /></linearGradient></defs>



















	



































<g
   id="g5"><g
     id="rect1"
     inkscape:label="group"><path
       id="rect68"
       style="fill:url(#linearGradient73);stroke:url(#linearGradient69);stroke-width:6.777;stroke-linecap:round;stroke-linejoin:bevel"
       d="m 219.71964,105.20279 29.16362,15.34526 0.0818,10.40681 -35.62764,28.94133 -11.63507,-8.73397 z"
       sodipodi:nodetypes="cccccc"
       inkscape:label="paperout" /><path
       style="color:#000000;fill:#c0c0c0;fill-opacity:0.98583567;stroke-linecap:round;stroke-linejoin:bevel;-inkscape-stroke:none"
       d="m 15.763257,118.54834 95.551243,-57.870588 112.82606,35.845213 0.21593,57.006845 -8.42147,0.86374 1.07968,23.53691 -101.92133,52.25628 -16.626998,0.43187 -85.0784,-42.10733 z"
       id="path52"
       inkscape:label="colorhead" /><path
       id="rect49"
       style="fill:url(#linearGradient51);stroke:none;stroke-width:6.777;stroke-linecap:round;stroke-linejoin:bevel"
       d="m 16.411062,161.95126 88.506358,47.55969 0.027,18.51643 -90.260838,-39.73204 z"
       sodipodi:nodetypes="ccccc" /><path
       id="path51"
       style="fill:url(#linearGradient52);stroke:none;stroke-width:6.777;stroke-linecap:round;stroke-linejoin:bevel"
       d="m 104.83645,209.45697 110.88263,-51.39254 2.15936,17.70667 -112.71808,56.35905 z"
       sodipodi:nodetypes="ccccc" /><path
       style="color:#000000;fill:url(#radialGradient46);stroke-linecap:round;stroke-linejoin:bevel;-inkscape-stroke:none"
       d="M 214.39844,151.37305 112.74805,203.05664 98.236328,203.25 9.7324833,157.90453 l -0.7047364,2.52125 -0.107422,28.07227 2.9644411,3.05078 85.078125,42.10742 1.591796,0.34961 16.626953,-0.43164 1.45703,-0.37305 101.92188,-52.25586 1.83984,-3.16992 -1.08008,-23.53711 z m -1.60742,8.41992 0.73828,16.11719 -99.29492,50.91015 -15.017583,0.38867 -82.431641,-40.79687 0.07813,-20.24805 78.888672,43.45313 1.679688,0.41992 16.195314,-0.21484 1.49024,-0.36719 z"
       id="path5"
       inkscape:label="frbottom"
       sodipodi:nodetypes="cccccccccccccccccccccccccc" /><path
       id="rect2"
       style="fill-opacity:0.337278;stroke-width:92.9768;stroke-linecap:round;stroke-linejoin:round;stroke-opacity:0.321038"
       d="m 103.64881,148.34737 121.35549,-51.824411 0.6478,57.438721 -9.82504,5.07447 -0.054,18.51643 -112.25761,55.1235 z"
       sodipodi:nodetypes="ccccccc"
       inkscape:label="rightshadow" /><path
       style="color:#000000;fill:url(#linearGradient3);stroke-linecap:round;stroke-linejoin:bevel;-inkscape-stroke:none"
       d="m 112.33984,57.449219 -2.78125,0.330078 -95.550777,57.871093 -4.6539504,2.89117 -0.4315847,69.85492 2.9624881,3.15235 85.078125,42.10742 1.591796,0.34961 16.626953,-0.43164 1.45703,-0.37305 101.92188,-52.25586 1.83984,-3.16992 -0.93359,-20.33789 5.23632,-0.53711 3.04102,-3.38281 -0.21484,-57.007814 -2.36328,-3.216797 z m -0.58593,6.923828 109.00781,34.630859 0.19531,51.468754 -5.36719,0.55078 -1.52751,0.47531 -0.53303,24.41141 -99.29492,50.91015 -15.017583,0.38867 -82.367188,-40.76562 2.238282,-65.94531 z"
       id="path53"
       inkscape:label="frame"
       sodipodi:nodetypes="ccccccccccccccccccccccccccccc" /></g></g><path
   style="fill:none;fill-opacity:1;stroke:#ffffff;stroke-width:6.777;stroke-linecap:round;stroke-linejoin:bevel;stroke-dasharray:none;stroke-opacity:1"
   d="M 100.40979,152.88199 31.310579,118.3324"
   id="path57" /><g
   id="rect48"><path
     style="color:#000000;fill:#c0c0c0;stroke-linecap:round;stroke-linejoin:bevel;-inkscape-stroke:none"
     d="m 4.850865,105.42643 102.954695,-50.309027 -2.3213,22.943098 -74.821493,36.816929 0,51.06861 -25.6962615,-11.55252 z"
     id="path54"
     sodipodi:nodetypes="ccccccc" /><path
     style="color:#000000;fill:#808080;stroke-linecap:round;stroke-linejoin:bevel;-inkscape-stroke:none"
     d="M 106.31836,52.072266 3.3632813,102.38281 l -1.9003907,3.05078 0.1152344,46.70143 1.5996094,2.86914 25.6953126,13.3873 5.177734,-2.87695 v -48.52818 l 72.929689,-35.884768 1.875,-2.699218 2.32226,-22.94336 z m -2.49805,8.763671 -1.51758,15.013672 -73.136714,35.988281 -1.892579,3.03906 v 44.5399 L 8.3496094,150.24049 8.2460938,107.53906 Z"
     id="path55"
     sodipodi:nodetypes="cccccccccccccccccccc" /></g><path
   id="rect55"
   style="fill:url(#linearGradient56);stroke-width:6.777;stroke-linecap:round;stroke-linejoin:bevel"
   d="m 3.0230906,105.16035 26.1281404,7.12586 0,48.15351 -25.9122054,-12.14635 z"
   sodipodi:nodetypes="ccccc" /><path
   id="path56"
   style="fill:url(#linearGradient57);stroke-width:6.777;stroke-linecap:round;stroke-linejoin:bevel"
   d="M 106.67191,52.472204 103.64881,78.384411 29.259198,112.39417 2.483253,104.83644 Z"
   sodipodi:nodetypes="ccccc" /><path
   style="fill:none;fill-opacity:1;stroke:#808080;stroke-width:6.777;stroke-linecap:round;stroke-linejoin:bevel;stroke-dasharray:none;stroke-opacity:1"
   d="M 131.28849,125.02638 68.883273,96.738895"
   id="path58"
   sodipodi:nodetypes="cc" /><g
   id="g66"><path
     id="rect59"
     style="fill:#ffffff;fill-opacity:1;stroke:url(#linearGradient60);stroke-width:6.777;stroke-linecap:round;stroke-linejoin:bevel"
     d="M 94.514565,83.826332 C 109.76432,54.889816 132.47093,18.476539 157.2698,10.382865 l 71.76389,21.223788 C 199.87973,51.68947 181.24646,79.395662 165.05748,109.85253 l -7.36185,3.66788 z"
     sodipodi:nodetypes="cccccc" /><g
     id="g65"><path
       style="fill:none;fill-opacity:1;stroke:#0000ff;stroke-width:6.777;stroke-linecap:round;stroke-linejoin:bevel;stroke-dasharray:none;stroke-opacity:1"
       d="m 147.95575,32.064716 35.11851,12.825886"
       id="path62" /><path
       style="fill:none;fill-opacity:1;stroke:#0000ff;stroke-width:6.777;stroke-linecap:round;stroke-linejoin:bevel;stroke-dasharray:none;stroke-opacity:1"
       d="m 136.35138,49.318587 34.66044,13.742021"
       id="path63"
       sodipodi:nodetypes="cc" /><path
       style="fill:none;fill-opacity:1;stroke:#0000ff;stroke-width:6.777;stroke-linecap:round;stroke-linejoin:bevel;stroke-dasharray:none;stroke-opacity:1"
       d="M 125.81583,64.282121 160.32358,78.32952"
       id="path64"
       sodipodi:nodetypes="cc" /><path
       style="fill:none;fill-opacity:1;stroke:#0000ff;stroke-width:6.777;stroke-linecap:round;stroke-linejoin:bevel;stroke-dasharray:none;stroke-opacity:1"
       d="m 115.12759,79.398344 37.25615,16.643114"
       id="path65"
       sodipodi:nodetypes="cc" /></g></g><path
   style="fill:none;fill-opacity:1;stroke:#808080;stroke-width:6.777;stroke-linecap:round;stroke-linejoin:bevel;stroke-dasharray:none;stroke-opacity:1"
   d="M 85.726205,199.30803 85.94214,146.51192 206.42938,91.198678"
   id="path59"
   sodipodi:nodetypes="ccc" /><g
   id="g68"><path
     id="rect66"
     style="display:inline;fill:#747474;fill-opacity:1;stroke-width:6.777;stroke-linecap:round;stroke-linejoin:bevel"
     d="m 57.421609,111.02248 16.626872,-0.0637 0.03434,8.96124 -16.626872,0.0637 z"
     sodipodi:nodetypes="ccccc" /><path
     id="path66"
     style="display:inline;fill:#747474;fill-opacity:1;stroke-width:6.777;stroke-linecap:round;stroke-linejoin:bevel"
     d="m 73.508768,119.33598 16.626872,-0.0637 0.03434,8.96124 -16.626872,0.0637 z"
     sodipodi:nodetypes="ccccc" /><path
     id="path67"
     style="display:inline;fill:#21ff00;fill-opacity:1;stroke-width:6.777;stroke-linecap:round;stroke-linejoin:bevel"
     d="m 56.233966,109.295 16.626872,-0.0637 0.03434,8.96124 -16.626872,0.0637 z"
     sodipodi:nodetypes="ccccc" /><path
     id="path68"
     style="display:inline;fill:#ff0000;fill-opacity:1;stroke-width:6.777;stroke-linecap:round;stroke-linejoin:bevel"
     d="m 72.321125,117.6085 16.626872,-0.0637 0.03434,8.96124 -16.626872,0.0637 z"
     sodipodi:nodetypes="ccccc" /></g><g
   id="g2"
   transform="matrix(0.79598291,0,0,0.79598291,53.554192,127.45863)"><path
     id="rect1-6"
     style="display:inline;fill:url(#linearGradient9-7);stroke:#808080;stroke-width:11.1;stroke-linecap:round;stroke-linejoin:round"
     d="m 246.44047,99.029759 c -47.75258,73.377931 -175.259828,73.982171 -218.092255,0 39.848348,-74.489325 167.911885,-79.084993 218.092255,0 z"
     sodipodi:nodetypes="ccc" /><circle
     style="display:inline;fill:url(#radialGradient3);stroke:#3b3b3b;stroke-width:6.4;stroke-linecap:round;stroke-linejoin:round;stroke-dasharray:none;stroke-opacity:1"
     id="path1"
     cx="135.50446"
     cy="98.462799"
     r="50.45982" /><circle
     style="fill:url(#radialGradient7);stroke:none;stroke-width:6.40001;stroke-linecap:round;stroke-linejoin:round;stroke-dasharray:none;stroke-opacity:1"
     id="path5-5"
     cx="150.43452"
     cy="71.4375"
     r="27.592264" /><g
     id="g54"
     inkscape:label="stopt"
     style="display:none"
     transform="translate(-111.99821,-7.3503897)"><g
       id="g55"
       inkscape:label="shadow"><circle
         style="fill:#7d7d7d;fill-opacity:0.282051;stroke:none;stroke-width:22.5745;stroke-linecap:round;stroke-linejoin:round;stroke-dasharray:none;stroke-opacity:1"
         id="circle54"
         cx="181.47601"
         cy="186.55412"
         r="68.420998" /><circle
         style="fill:#7d7d7d;fill-opacity:0.282051;stroke:none;stroke-width:22.31;stroke-linecap:round;stroke-linejoin:round;stroke-dasharray:none;stroke-opacity:1"
         id="circle55"
         cx="180.67421"
         cy="185.75232"
         r="67.619186" /><circle
         style="fill:#616161;fill-opacity:0.282051;stroke:none;stroke-width:22.0014;stroke-linecap:round;stroke-linejoin:round;stroke-dasharray:none;stroke-opacity:1"
         id="circle56"
         cx="179.73877"
         cy="184.81688"
         r="66.683746" /><circle
         style="fill:#595959;fill-opacity:0.282051;stroke:none;stroke-width:21.7148;stroke-linecap:round;stroke-linejoin:round;stroke-dasharray:none;stroke-opacity:1"
         id="circle57"
         cx="178.87015"
         cy="183.94826"
         r="65.815117" /><circle
         style="fill:#545454;fill-opacity:0.438228;stroke:none;stroke-width:21.4282;stroke-linecap:round;stroke-linejoin:round;stroke-dasharray:none;stroke-opacity:1"
         id="circle58"
         cx="178.00153"
         cy="183.07964"
         r="64.946487" /><circle
         style="fill:#464646;fill-opacity:0.282051;stroke:none;stroke-width:21.2739;stroke-linecap:round;stroke-linejoin:round;stroke-dasharray:none;stroke-opacity:1"
         id="circle59"
         cx="177.5338"
         cy="182.61191"
         r="64.478767" /></g><circle
       style="display:inline;fill:#ffffff;fill-opacity:1;stroke:none;stroke-width:19.4;stroke-linecap:round;stroke-linejoin:round;stroke-dasharray:none;stroke-opacity:1"
       id="path54-6"
       cx="175.32881"
       cy="181.476"
       r="58.799297"
       inkscape:label="wbackground" /><path
       id="path53-2"
       style="color:#000000;display:inline;fill:#a51f0d;fill-opacity:1;stroke-linecap:round;stroke-linejoin:round;-inkscape-stroke:none"
       d="m 177.46669,120.19318 c -14.5184,0 -27.89974,5.02967 -38.52117,13.41572 -1.13416,0.45583 -2.17195,1.12192 -3.05872,1.96319 -0.53987,0.57525 -1.00756,1.21421 -1.39268,1.90272 -11.91847,11.37093 -19.37867,27.37845 -19.37867,45.07012 0,34.32116 28.03008,62.35176 62.35124,62.35175 17.14094,0 32.71201,-6.99262 44.00661,-18.26762 2.11657,-2.17895 3.33794,-3.24367 5.42034,-6.1867 8.09224,-10.51938 12.9248,-23.66292 12.9248,-37.89743 0,-34.32116 -28.03061,-62.35175 -62.35175,-62.35175 z m 0,19.40037 c 23.83663,0 42.95345,19.11474 42.95345,42.95138 0,7.09624 -1.7053,13.76765 -4.71393,19.64738 l -57.61405,-58.02437 c 5.81293,-2.92195 12.38778,-4.57439 19.37453,-4.57439 z m -34.32917,17.04702 59.99168,60.41905 c -7.14584,5.30644 -16.01703,8.43824 -25.66251,8.43824 -23.83664,0 -42.95087,-19.11629 -42.95087,-42.95293 0,-9.75562 3.20492,-18.71733 8.6217,-25.90436 z"
       sodipodi:nodetypes="scccssccssssccsccssc" /><path
       id="path51-9"
       style="color:#000000;display:inline;fill:#f52e14;stroke-linecap:round;stroke-linejoin:round;-inkscape-stroke:none"
       d="m 173.23333,117.54733 c -14.5184,0 -27.89974,5.02967 -38.52117,13.41572 -1.13416,0.45583 -2.17195,1.12192 -3.05872,1.96319 -0.53987,0.57525 -1.00756,1.21421 -1.39268,1.90272 -11.91847,11.37093 -19.37867,27.37845 -19.37867,45.07012 0,34.32116 28.03008,62.35176 62.35124,62.35175 17.14094,0 32.71201,-6.99262 44.00661,-18.26762 3.18564,-2.91394 4.27338,-4.31275 5.42034,-6.1867 8.09224,-10.51938 12.9248,-23.66292 12.9248,-37.89743 0,-34.32116 -28.03061,-62.35175 -62.35175,-62.35175 z m 0,19.40037 c 23.83663,0 42.95345,19.11474 42.95345,42.95138 0,7.09624 -1.7053,13.76765 -4.71393,19.64738 L 153.8588,141.52209 c 5.81293,-2.92195 12.38778,-4.57439 19.37453,-4.57439 z m -34.32917,17.04702 59.99168,60.41905 c -7.14584,5.30644 -16.01703,8.43824 -25.66251,8.43824 -23.83664,0 -42.95087,-19.11629 -42.95087,-42.95293 0,-9.75562 3.20492,-18.71733 8.6217,-25.90436 z"
       sodipodi:nodetypes="scccssccssssccsccssc" /></g></g></svg>
