<?xml version="1.0" encoding="UTF-8" standalone="no"?>
<!-- Created with Inkscape (http://www.inkscape.org/) -->

<svg
   width="256mm"
   height="256mm"
   viewBox="0 0 256 256"
   version="1.1"
   id="svg1"
   inkscape:version="1.4.2 (ebf0e940d0, 2025-05-08)"
   sodipodi:docname="draw-brush.svg"
   xml:space="preserve"
   xmlns:inkscape="http://www.inkscape.org/namespaces/inkscape"
   xmlns:sodipodi="http://sodipodi.sourceforge.net/DTD/sodipodi-0.dtd"
   xmlns="http://www.w3.org/2000/svg"
   xmlns:svg="http://www.w3.org/2000/svg"
   xmlns:rdf="http://www.w3.org/1999/02/22-rdf-syntax-ns#"
   xmlns:cc="http://creativecommons.org/ns#"
   xmlns:dc="http://purl.org/dc/elements/1.1/"><defs
     id="defs1"><linearGradient
       gradientTransform="matrix(-0.0039,0.0039,0.0089,0.0089,-3.45,-2.15)"
       gradientUnits="userSpaceOnUse"
       id="gradient11"
       spreadMethod="pad"
       x1="-819.20001"
       x2="819.20001"><stop
         offset="0.0"
         stop-color="#0066cc"
         id="stop54" /><stop
         offset="0.7137254901960784"
         stop-color="#0099ff"
         id="stop55" /><stop
         offset="1.0"
         stop-color="#0099ff"
         id="stop56" /></linearGradient><linearGradient
       gradientTransform="matrix(-0.0047,0.0047,0.0126,0.0126,13.55,3.35)"
       gradientUnits="userSpaceOnUse"
       id="gradient12"
       spreadMethod="pad"
       x1="-819.20001"
       x2="819.20001"><stop
         offset="0.0"
         stop-color="#006600"
         id="stop57" /><stop
         offset="1.0"
         stop-color="#333333"
         id="stop58" /></linearGradient><linearGradient
       gradientTransform="matrix(-0.004,0.004,0.0119,0.0119,13.55,3.65)"
       gradientUnits="userSpaceOnUse"
       id="gradient13"
       spreadMethod="pad"
       x1="-819.20001"
       x2="819.20001"><stop
         offset="0.0"
         stop-color="#006600"
         id="stop59" /><stop
         offset="1.0"
         stop-color="#66cc33"
         id="stop60" /></linearGradient><linearGradient
       gradientTransform="matrix(-0.0031,-0.0058,-0.0068,0.0036,-6.5,-9.35)"
       gradientUnits="userSpaceOnUse"
       id="gradient14"
       spreadMethod="pad"
       x1="-819.20001"
       x2="819.20001"><stop
         offset="0.0"
         stop-color="#660000"
         id="stop61" /><stop
         offset="0.16862745098039217"
         stop-color="#660000"
         id="stop62" /><stop
         offset="0.3058823529411765"
         stop-color="#996600"
         id="stop63" /><stop
         offset="0.615686274509804"
         stop-color="#ffcc66"
         id="stop64" /><stop
         offset="1.0"
         stop-color="#996600"
         id="stop65" /></linearGradient><linearGradient
       gradientTransform="matrix(-0.0019,-0.0023,-5e-4,4e-4,-8.9,-9.4)"
       gradientUnits="userSpaceOnUse"
       id="gradient15"
       spreadMethod="pad"
       x1="-819.20001"
       x2="819.20001"><stop
         offset="0.0"
         stop-color="#ffcc66"
         id="stop66" /><stop
         offset="0.32941176470588235"
         stop-color="#ffcc66"
         id="stop67" /><stop
         offset="0.44313725490196076"
         stop-color="#ffff99"
         id="stop68" /><stop
         offset="0.7215686274509804"
         stop-color="#ffcc66"
         id="stop69" /><stop
         offset="1.0"
         stop-color="#ffcc66"
         id="stop70" /></linearGradient><linearGradient
       gradientTransform="matrix(-0.0021,-0.0025,-5e-4,4e-4,-7,-9.65)"
       gradientUnits="userSpaceOnUse"
       id="gradient16"
       spreadMethod="pad"
       x1="-819.20001"
       x2="819.20001"><stop
         offset="0.0"
         stop-color="#ffcc66"
         id="stop71" /><stop
         offset="0.32941176470588235"
         stop-color="#ffcc66"
         id="stop72" /><stop
         offset="0.44313725490196076"
         stop-color="#ffff99"
         id="stop73" /><stop
         offset="0.7215686274509804"
         stop-color="#ffcc66"
         id="stop74" /><stop
         offset="1.0"
         stop-color="#ffcc66"
         id="stop75" /></linearGradient><linearGradient
       gradientTransform="matrix(-0.0019,-0.0022,-5e-4,4e-4,-5.25,-10.9)"
       gradientUnits="userSpaceOnUse"
       id="gradient17"
       spreadMethod="pad"
       x1="-819.20001"
       x2="819.20001"><stop
         offset="0.0"
         stop-color="#ffcc66"
         id="stop76" /><stop
         offset="0.32941176470588235"
         stop-color="#ffcc66"
         id="stop77" /><stop
         offset="0.44313725490196076"
         stop-color="#ffff99"
         id="stop78" /><stop
         offset="0.7215686274509804"
         stop-color="#ffcc66"
         id="stop79" /><stop
         offset="1.0"
         stop-color="#ffcc66"
         id="stop80" /></linearGradient><linearGradient
       gradientTransform="matrix(-0.0021,-0.0025,-4e-4,4e-4,-3.7,-11.45)"
       gradientUnits="userSpaceOnUse"
       id="gradient18"
       spreadMethod="pad"
       x1="-819.20001"
       x2="819.20001"><stop
         offset="0.0"
         stop-color="#ffcc66"
         id="stop81" /><stop
         offset="0.32941176470588235"
         stop-color="#ffcc66"
         id="stop82" /><stop
         offset="0.44313725490196076"
         stop-color="#ffff99"
         id="stop83" /><stop
         offset="0.7215686274509804"
         stop-color="#ffcc66"
         id="stop84" /><stop
         offset="1.0"
         stop-color="#ffcc66"
         id="stop85" /></linearGradient><linearGradient
       gradientTransform="matrix(0,-0.005,-0.0049,0,-9.55,-7)"
       gradientUnits="userSpaceOnUse"
       id="gradient19"
       spreadMethod="pad"
       x1="-819.20001"
       x2="819.20001"><stop
         offset="0.0"
         stop-color="#660000"
         id="stop86" /><stop
         offset="0.4588235294117647"
         stop-color="#996600"
         id="stop87" /><stop
         offset="0.8392156862745098"
         stop-color="#ffcc66"
         id="stop88" /><stop
         offset="1.0"
         stop-color="#996600"
         id="stop89" /></linearGradient><linearGradient
       gradientTransform="matrix(0.01,0.01,0.0022,-0.0022,13.55,3.65)"
       gradientUnits="userSpaceOnUse"
       id="gradient20"
       spreadMethod="pad"
       x1="-819.20001"
       x2="819.20001"><stop
         offset="0.0"
         stop-color="#ccffcc"
         id="stop90" /><stop
         offset="0.43529411764705883"
         stop-color="#99ff66"
         id="stop91" /><stop
         offset="1.0"
         stop-color="#66cc33"
         id="stop92" /></linearGradient><linearGradient
       gradientTransform="matrix(-0.0042,-0.0042,-0.0044,0.0044,-0.9,-4.25)"
       gradientUnits="userSpaceOnUse"
       id="gradient21"
       spreadMethod="pad"
       x1="-819.20001"
       x2="819.20001"><stop
         offset="0.0"
         stop-color="#333333"
         id="stop93" /><stop
         offset="1.0"
         stop-color="#0066cc"
         id="stop94" /></linearGradient><linearGradient
       gradientTransform="matrix(-0.0061,0,0,0.0045,-0.85,-4.4)"
       gradientUnits="userSpaceOnUse"
       id="gradient22"
       spreadMethod="pad"
       x1="-819.20001"
       x2="819.20001"><stop
         offset="0.0"
         stop-color="#99ccff"
         id="stop95" /><stop
         offset="1.0"
         stop-color="#ffffff"
         id="stop96" /></linearGradient><linearGradient
       gradientTransform="matrix(-0.0034,-0.0019,-0.0017,0.003,-1.35,-5.15)"
       gradientUnits="userSpaceOnUse"
       id="gradient23"
       spreadMethod="pad"
       x1="-819.20001"
       x2="819.20001"><stop
         offset="0.0"
         stop-color="#0066cc"
         id="stop97" /><stop
         offset="0.6078431372549019"
         stop-color="#99ccff"
         id="stop98" /><stop
         offset="1.0"
         stop-color="#99ccff"
         id="stop99" /></linearGradient><linearGradient
       gradientTransform="matrix(0.0027,0,0,-0.0016,-1.9,-6)"
       gradientUnits="userSpaceOnUse"
       id="gradient24"
       spreadMethod="pad"
       x1="-819.20001"
       x2="819.20001"><stop
         offset="0.0"
         stop-color="#99ccff"
         id="stop100" /><stop
         offset="1.0"
         stop-color="#ccffff"
         id="stop101" /></linearGradient><radialGradient
       cx="0"
       cy="0"
       gradientTransform="matrix(0.0024,0,0,0.0024,3.75,-2.75)"
       gradientUnits="userSpaceOnUse"
       id="gradient25"
       r="819.20001"
       spreadMethod="pad"><stop
         offset="0.0"
         stop-color="#ffffff"
         id="stop102" /><stop
         offset="1.0"
         stop-color="#ccffcc"
         id="stop103" /></radialGradient></defs><sodipodi:namedview
     id="base"
     pagecolor="#ffffff"
     bordercolor="#000000"
     borderopacity="0.3"
     inkscape:pageopacity="0.0"
     inkscape:pageshadow="2"
     inkscape:zoom="0.98994949"
     inkscape:cx="505.07627"
     inkscape:cy="476.28693"
     inkscape:document-units="mm"
     inkscape:showpageshadow="2"
     inkscape:pagecheckerboard="0"
     inkscape:deskcolor="#d1d1d1"
     inkscape:current-layer="svg1" /><metadata
     id="metadata1"><rdf:RDF><cc:Work
         rdf:about=""><dc:format>image/svg+xml</dc:format><dc:type
           rdf:resource="http://purl.org/dc/dcmitype/StillImage" /><cc:license
           rdf:resource="http://creativecommons.org/publicdomain/zero/1.0/" /></cc:Work><cc:License
         rdf:about="http://creativecommons.org/publicdomain/zero/1.0/"><cc:permits
           rdf:resource="http://creativecommons.org/ns#Reproduction" /><cc:permits
           rdf:resource="http://creativecommons.org/ns#Distribution" /><cc:permits
           rdf:resource="http://creativecommons.org/ns#DerivativeWorks" /></cc:License></rdf:RDF></metadata><path
     id="rect1"
     style="display:none;fill:#7a1ab7;stroke:#d48aff;stroke-width:3.27966"
     d="m 4.0159735,40.327771 c 0,0 76.7162855,49.654464 75.4885495,106.156069 -1.227735,56.50159 114.200627,81.50282 114.200627,81.50282 l 0.64523,25.38913 c 0,0 -141.488067,-43.02635 -145.815488,-102.10849 C 44.207471,92.185145 3.3707964,69.764468 3.3707964,69.764468 Z"
     sodipodi:nodetypes="czcczcc" /><g
     id="g2"
     style="display:inline"
     transform="matrix(7.0749903,1.5197844,-1.5197844,7.0749903,84.634485,120.9809)"><path
       d="m -13.4,-10.35 q 0.4,7 3.25,8.7 l 3.3,2.15 q 1.9,1.3 3.25,3.3 l 8.3,-3.05 -18.1,-11.1"
       fill="url(#gradient11)"
       fill-rule="evenodd"
       stroke="none"
       id="path12"
       style="display:none;fill:url(#gradient11)" /><path
       d="m 25.75,12.35 q 1.1,-1.5 -0.3,-2.7 Q 12.7,-1 10.1,-2.4 9.4,-2.8 3.25,-5.4 2.35,-5.75 0.7,-3.8 q -1.65,1.95 -0.95,2.9 2.5,3.7 5.95,5.7 2.35,1.35 9.25,4.5 l 7.6,3.35 q 2.05,1.25 3.2,-0.3"
       fill="url(#gradient12)"
       fill-rule="evenodd"
       stroke="none"
       id="path13"
       style="fill:url(#gradient12)" /><path
       d="m 22.8,12 2.4,-0.1 Q 25.85,10.85 24.5,9.7 12.9,0.15 10.35,-1.3 L 6.4,-3.1 3.5,-4.3 Q 2.6,-4.6 1.4,-3.3 0.2,-1.95 0.9,-1 3.2,2.3 6.6,4.3 9,5.7 15.5,8.75 L 22.8,12"
       fill="url(#gradient13)"
       fill-rule="evenodd"
       stroke="none"
       id="path14"
       style="fill:url(#gradient13)" /><path
       d="m -9.55,-12.95 q -0.85,0.65 -1.75,0.65 -0.5,0 -1,0.8 -0.4,0.7 -1.3,0.3 0.15,2 1,3.5 0.9,1.6 2.9,3.25 2.4,2.05 3.7,1.3 l 7.05,-4.6 q -0.15,-2.6 -2.3,-3.8 -0.95,-0.55 -1.6,-4.1 -0.8,0.8 -1.65,1 l -3,0.5 -2.05,1.2"
       fill="url(#gradient14)"
       fill-rule="evenodd"
       stroke="none"
       id="path15"
       style="fill:url(#gradient14)" /><path
       d="m -10.45,-10.8 q 0.05,1.65 0.55,2.15 0.5,0.5 2.6,1.5 l -2,-2.2 -1.15,-1.45"
       fill="url(#gradient15)"
       fill-rule="evenodd"
       stroke="none"
       id="path16"
       style="fill:url(#gradient15)" /><path
       d="m -8.65,-11.55 q 0.1,1.65 0.6,2.15 l 2.75,2.2 -1.45,-2.3 -1.9,-2.05"
       fill="url(#gradient16)"
       fill-rule="evenodd"
       stroke="none"
       id="path17"
       style="fill:url(#gradient16)" /><path
       d="m -6.85,-12.3 q 0.7,2.4 1.2,2.9 0.5,0.5 1.95,0.75 l -1.4,-1.55 -1.75,-2.1"
       fill="url(#gradient17)"
       fill-rule="evenodd"
       stroke="none"
       id="path18"
       style="fill:url(#gradient17)" /><path
       d="m -5.35,-13.2 q 0.1,1.65 0.6,2.15 L -2,-9 l -2.2,-2.8 -1.15,-1.4"
       fill="url(#gradient18)"
       fill-rule="evenodd"
       stroke="none"
       id="path19"
       style="fill:url(#gradient18)" /><path
       d="m -5.95,-3 q 1,-0.15 -0.45,-0.95 l -2.7,-1.4 q -0.9,-0.55 -2.1,-2.4 -1.1,-1.6 -1.25,-2.25 -0.15,-0.65 -1.15,-1.15 0.2,3 1.5,4.6 3.5,4.15 6.15,3.55"
       fill="url(#gradient19)"
       fill-rule="evenodd"
       stroke="none"
       id="path20"
       style="fill:url(#gradient19)" /><path
       d="M 23.25,10.35 Q 23.6,9.9 23.1,9.55 15.55,2.95 10.4,-0.2 5.1,-3.4 4.45,-3.3 3.9,-3.4 3.8,-2.85 3.7,-2.3 4.25,-2.2 q 0.5,-0.1 5.55,3 5.1,3.1 12.65,9.65 0.45,0.35 0.8,-0.1"
       fill="url(#gradient20)"
       fill-rule="evenodd"
       stroke="none"
       id="path21"
       style="fill:url(#gradient20)" /><path
       d="M 1.2,1 Q 1.25,0.65 1.65,0 1.1,-1.05 2,-2.55 3,-4.1 4.7,-3.9 L 5.55,-4.5 1.15,-9.25 -7,-4.55 -6.45,-2.4 1.2,1"
       fill="url(#gradient21)"
       fill-rule="evenodd"
       stroke="none"
       id="path22"
       style="fill:url(#gradient21)" /><path
       d="M 0.35,-0.7 Q 0.85,-2.9 2.2,-3.9 3.25,-4.7 4.15,-4.85 L 1,-8.15 l -6.85,4.1 0.25,1 5.95,2.35"
       fill="url(#gradient22)"
       fill-rule="evenodd"
       stroke="none"
       id="path23"
       style="fill:url(#gradient22)" /><path
       d="M 1.5,-4.5 Q 2.15,-4.7 2.85,-5.2 L 0.65,-7.5 -5,-4.15 q 3.9,1.6 4.5,1.25 l 2,-1.6"
       fill="url(#gradient23)"
       fill-rule="evenodd"
       stroke="none"
       id="path24"
       style="fill:url(#gradient23)" /><path
       d="m 0.3,-7.35 -4.4,2.65 q 2.35,0.2 3.6,-0.6 1,-0.65 0.8,-2.05"
       fill="url(#gradient24)"
       fill-rule="evenodd"
       stroke="none"
       id="path25"
       style="fill:url(#gradient24)" /><path
       d="m 3.15,-2.55 q 0,1.05 1.25,1.05 1.2,0 1.2,-1.05 0,-1.05 -1.2,-1.05 -1.25,0 -1.25,1.05"
       fill="url(#gradient25)"
       fill-rule="evenodd"
       stroke="none"
       id="path26"
       style="fill:url(#gradient25)" /><path
       d="m -3.75,-4.9 q 0,0.4 0.7,0.4 0.65,0 0.65,-0.4 0,-0.4 -0.65,-0.4 -0.7,0 -0.7,0.4"
       fill="#ffffff"
       fill-rule="evenodd"
       stroke="none"
       id="path27" /><path
       d="m -5.85,-4.05 0.1,0.5 5.1,1.9 q 1.05,0.35 1.15,-0.8 -1.75,0.3 -6.35,-1.6"
       fill="#ffffff"
       fill-rule="evenodd"
       stroke="none"
       id="path28" /></g></svg>
