<?xml version="1.0" encoding="UTF-8" standalone="no"?>
<!-- Created with Inkscape (http://www.inkscape.org/) -->

<svg
   width="256mm"
   height="256mm"
   viewBox="0 0 256 256"
   version="1.1"
   id="svg1"
   inkscape:version="1.3.2 (091e20ef0f, 2023-11-25)"
   xml:space="preserve"
   sodipodi:docname="fileclose.svg"
   xmlns:inkscape="http://www.inkscape.org/namespaces/inkscape"
   xmlns:sodipodi="http://sodipodi.sourceforge.net/DTD/sodipodi-0.dtd"
   xmlns:xlink="http://www.w3.org/1999/xlink"
   xmlns="http://www.w3.org/2000/svg"
   xmlns:svg="http://www.w3.org/2000/svg"
   xmlns:rdf="http://www.w3.org/1999/02/22-rdf-syntax-ns#"
   xmlns:cc="http://creativecommons.org/ns#"
   xmlns:dc="http://purl.org/dc/elements/1.1/"><defs
     id="defs1"><linearGradient
       id="linearGradient60"
       inkscape:collect="always"><stop
         style="stop-color:#065dce;stop-opacity:1;"
         offset="0"
         id="stop60" /><stop
         style="stop-color:#0647ce;stop-opacity:1;"
         offset="0.11019483"
         id="stop62" /><stop
         style="stop-color:#0653c1;stop-opacity:1;"
         offset="0.13551673"
         id="stop63" /><stop
         style="stop-color:#0541b4;stop-opacity:1;"
         offset="0.45861793"
         id="stop64" /><stop
         style="stop-color:#0673ce;stop-opacity:1;"
         offset="0.62936002"
         id="stop65" /><stop
         style="stop-color:#067fce;stop-opacity:1;"
         offset="1"
         id="stop61" /></linearGradient><linearGradient
       id="linearGradient58"
       inkscape:collect="always"><stop
         style="stop-color:#ffffff;stop-opacity:0.31196055;"
         offset="0"
         id="stop58" /><stop
         style="stop-color:#ffffff;stop-opacity:0.21208385;"
         offset="1"
         id="stop59" /></linearGradient><linearGradient
       id="linearGradient10"
       inkscape:collect="always"><stop
         style="stop-color:#ffffff;stop-opacity:0;"
         offset="0"
         id="stop7" /><stop
         style="stop-color:#ffffff;stop-opacity:0;"
         offset="0.90651727"
         id="stop8" /><stop
         style="stop-color:#0a0a0a;stop-opacity:0.48195121;"
         offset="0.95400864"
         id="stop9" /><stop
         style="stop-color:#060606;stop-opacity:1;"
         offset="0.96325344"
         id="stop15" /><stop
         style="stop-color:#020202;stop-opacity:0.95609754;"
         offset="0.9821375"
         id="stop11" /><stop
         style="stop-color:#000000;stop-opacity:0.28;"
         offset="1"
         id="stop10" /></linearGradient><linearGradient
       id="linearGradient1"
       inkscape:collect="always"><stop
         style="stop-color:#ffffff;stop-opacity:0;"
         offset="0"
         id="stop1" /><stop
         style="stop-color:#ffffff;stop-opacity:0;"
         offset="0.93179882"
         id="stop5" /><stop
         style="stop-color:#ffffff;stop-opacity:0.8097561;"
         offset="0.95827198"
         id="stop6" /><stop
         style="stop-color:#010101;stop-opacity:0.31414634;"
         offset="1"
         id="stop2" /></linearGradient><radialGradient
       inkscape:collect="always"
       xlink:href="#linearGradient1"
       id="radialGradient2"
       cx="122.37395"
       cy="151.03073"
       fx="122.37395"
       fy="151.03073"
       r="122.40131"
       gradientTransform="matrix(0.71814993,-0.77751667,0.81157411,0.74960691,-77.943211,112.83108)"
       gradientUnits="userSpaceOnUse" /><radialGradient
       inkscape:collect="always"
       xlink:href="#linearGradient10"
       id="radialGradient6"
       gradientUnits="userSpaceOnUse"
       gradientTransform="matrix(0.71814993,-0.77751667,0.81157411,0.74960691,-77.943211,112.83108)"
       cx="122.81268"
       cy="134.34187"
       fx="122.81268"
       fy="134.34187"
       r="122.40131" /><linearGradient
       inkscape:collect="always"
       xlink:href="#linearGradient58"
       id="linearGradient59"
       x1="3.8492742"
       y1="91.603189"
       x2="240.62356"
       y2="91.603189"
       gradientUnits="userSpaceOnUse" /><linearGradient
       inkscape:collect="always"
       xlink:href="#linearGradient60"
       id="linearGradient61"
       x1="58.578434"
       y1="11.362649"
       x2="241.37454"
       y2="219.29834"
       gradientUnits="userSpaceOnUse" /></defs><sodipodi:namedview
     id="base"
     pagecolor="#ffffff"
     bordercolor="#000000"
     borderopacity="0.3"
     inkscape:pageopacity="0.0"
     inkscape:pageshadow="2"
     inkscape:zoom="0.98994949"
     inkscape:cx="505.07627"
     inkscape:cy="476.792"
     inkscape:document-units="mm"
     inkscape:showpageshadow="2"
     inkscape:pagecheckerboard="0"
     inkscape:deskcolor="#d1d1d1"
     inkscape:current-layer="g3"
     showguides="true"><sodipodi:guide
       position="164.79762,131.64583"
       orientation="0,-1"
       id="guide14"
       inkscape:locked="false" /><sodipodi:guide
       position="126.24404,-49.404762"
       orientation="1,0"
       id="guide15"
       inkscape:locked="false" /></sodipodi:namedview><metadata
     id="metadata1"><rdf:RDF><cc:Work
         rdf:about=""><dc:format>image/svg+xml</dc:format><dc:type
           rdf:resource="http://purl.org/dc/dcmitype/StillImage" /><cc:license
           rdf:resource="http://creativecommons.org/publicdomain/zero/1.0/" /></cc:Work><cc:License
         rdf:about="http://creativecommons.org/publicdomain/zero/1.0/"><cc:permits
           rdf:resource="http://creativecommons.org/ns#Reproduction" /><cc:permits
           rdf:resource="http://creativecommons.org/ns#Distribution" /><cc:permits
           rdf:resource="http://creativecommons.org/ns#DerivativeWorks" /></cc:License></rdf:RDF></metadata><g
     id="g3"
     style="display:inline"><path
       id="rect1"
       style="fill:url(#linearGradient61);stroke:#dbdbdb;stroke-width:0.799999;stroke-linecap:round;stroke-linejoin:round;stroke-miterlimit:5;stroke-opacity:0"
       d="M 122.13439,2.4555129 C 65.861463,2.9256958 3.9209122,49.012918 3.9209122,125.05224 c 0,75.19438 63.0035288,122.65539 124.9827578,121.85743 C 185.307,246.1835 247.61172,200.95455 247.92234,125.69451 248.21387,55.05973 195.3699,1.8436009 122.13439,2.4555129 Z"
       sodipodi:nodetypes="sssss"
       inkscape:label="colorhead" /><path
       id="path11"
       style="fill:url(#radialGradient2);fill-opacity:1;stroke:#dbdbdb;stroke-width:0.799999;stroke-linecap:round;stroke-linejoin:round;stroke-miterlimit:5;stroke-opacity:0"
       d="M 122.13439,2.4555129 C 65.861463,2.9256958 3.9209122,49.012918 3.9209122,125.05224 c 0,75.19438 63.0035288,122.65539 124.9827578,121.85743 C 185.307,246.1835 247.61172,200.95455 247.92234,125.69451 248.21387,55.05973 195.3699,1.8436009 122.13439,2.4555129 Z m 34.93394,46.3884041 c 21.66102,8.584161 39.86959,29.776051 46.62941,52.073863 6.71332,22.14445 3.80919,55.1193 -9.79601,68.72443 C 162.01439,138.18215 110.00454,84.972028 80.989899,55.394025 103.08313,37.647512 133.40543,39.466421 157.06833,48.843917 Z M 54.658996,82.259506 C 86.87451,113.3219 134.20507,161.34696 167.70447,195.03771 154.09945,208.64272 121.29359,212.00624 99.782366,204.29917 73.374573,194.83776 50.204563,169.56306 42.591199,142.56442 37.027326,122.83372 45.06303,97.735413 54.658996,82.259506 Z"
       sodipodi:nodetypes="sssssaaccaccaac"
       inkscape:label="whiteltsh" /><path
       id="path6"
       style="display:inline;fill:url(#radialGradient6);fill-opacity:1;stroke:#dbdbdb;stroke-width:0.799999;stroke-linecap:round;stroke-linejoin:round;stroke-miterlimit:5;stroke-opacity:0"
       d="M 122.13439,2.4555129 C 65.861463,2.9256958 3.9209122,49.012918 3.9209122,125.05224 c 0,75.19438 63.0035288,122.65539 124.9827578,121.85743 C 185.307,246.1835 247.61172,200.95455 247.92234,125.69451 248.21387,55.05973 195.3699,1.8436009 122.13439,2.4555129 Z"
       sodipodi:nodetypes="sssss"
       inkscape:label="darkbrsh" /><path
       id="rect65"
       style="fill:#f1f5f7;stroke-width:0.799999;stroke-linecap:round;stroke-linejoin:round;stroke-miterlimit:5;stroke-opacity:0.874286;fill-opacity:1"
       d="m 191.87322,58.02379 c -7.01486,-7.014862 -18.30955,-7.014864 -25.32441,-10e-7 L 58.825598,165.747 c -7.014856,7.01486 -7.014856,18.30955 10e-7,25.3244 7.014865,7.01487 18.309552,7.01487 25.324408,0 L 191.87322,83.348196 c 7.01486,-7.014862 7.01486,-18.309547 0,-25.324406 z" /><path
       id="path65"
       style="fill:#f1f5f7;stroke-width:0.799999;stroke-linecap:round;stroke-linejoin:round;stroke-miterlimit:5;stroke-opacity:0.874286;fill-opacity:1"
       d="m 58.825598,58.02379 c 7.014866,-7.014862 18.309553,-7.014864 25.324407,-10e-7 L 191.87322,165.747 c 7.01486,7.01486 7.01486,18.30955 0,25.3244 -7.01486,7.01487 -18.30955,7.01487 -25.32441,0 L 58.825597,83.348196 c -7.014855,-7.014862 -7.014855,-18.309547 10e-7,-25.324406 z" /><path
       id="path3"
       style="display:inline;fill:url(#linearGradient59);fill-opacity:1;stroke:none;stroke-width:0.799999;stroke-linecap:round;stroke-linejoin:round;stroke-miterlimit:5;stroke-opacity:0.874286"
       inkscape:label="whiteshadow"
       d="m 129.21485,1.9740397 c -4.2688,-0.063905 -8.17393,0.1344471 -11.61634,0.4816244 C 72.547031,6.9992415 52.175416,25.515425 35.012333,42.495597 2.2623958,74.896512 -6.1487599,140.63136 16.848584,181.24423 66.995134,132.98917 153.64464,73.942856 240.62356,85.091447 240.01715,83.606051 239.37132,82.144046 238.67122,80.715487 206.81674,15.715935 159.09644,2.4213747 129.21485,1.9740397 Z"
       sodipodi:nodetypes="ssscccs" /></g></svg>
