<?xml version="1.0" encoding="UTF-8" standalone="no"?>
<!-- Created with Inkscape (http://www.inkscape.org/) -->

<svg
   width="256mm"
   height="256mm"
   viewBox="0 0 256 256"
   version="1.1"
   id="svg1"
   inkscape:version="1.3.2 (091e20ef0f, 2023-11-25)"
   xml:space="preserve"
   sodipodi:docname="go-previous.svg"
   xmlns:inkscape="http://www.inkscape.org/namespaces/inkscape"
   xmlns:sodipodi="http://sodipodi.sourceforge.net/DTD/sodipodi-0.dtd"
   xmlns:xlink="http://www.w3.org/1999/xlink"
   xmlns="http://www.w3.org/2000/svg"
   xmlns:svg="http://www.w3.org/2000/svg"
   xmlns:rdf="http://www.w3.org/1999/02/22-rdf-syntax-ns#"
   xmlns:cc="http://creativecommons.org/ns#"><sodipodi:namedview
     id="namedview1"
     pagecolor="#ffffff"
     bordercolor="#000000"
     borderopacity="0.25"
     inkscape:showpageshadow="2"
     inkscape:pageopacity="0.0"
     inkscape:pagecheckerboard="0"
     inkscape:deskcolor="#d1d1d1"
     inkscape:document-units="mm"
     showguides="true"
     inkscape:zoom="1.193743"
     inkscape:cx="474.13891"
     inkscape:cy="494.24374"
     inkscape:current-layer="g17"><sodipodi:guide
       position="122.34627,178.42537"
       orientation="1,0"
       id="guide4"
       inkscape:locked="false" /></sodipodi:namedview><defs
     id="defs1"><linearGradient
       id="linearGradient15"
       inkscape:collect="always"><stop
         style="stop-color:#808080;stop-opacity:1;"
         offset="0"
         id="stop15" /><stop
         style="stop-color:#848484;stop-opacity:0.49803922;"
         offset="0.73345494"
         id="stop17" /><stop
         style="stop-color:#898989;stop-opacity:0;"
         offset="1"
         id="stop16" /></linearGradient><linearGradient
       id="linearGradient14"
       inkscape:collect="always"><stop
         style="stop-color:#949494;stop-opacity:0;"
         offset="0"
         id="stop10" /><stop
         style="stop-color:#000000;stop-opacity:0;"
         offset="0.63188368"
         id="stop11" /><stop
         style="stop-color:#010101;stop-opacity:0.13772455;"
         offset="0.75201374"
         id="stop12" /><stop
         style="stop-color:#000000;stop-opacity:0.29041916;"
         offset="0.83826137"
         id="stop13" /><stop
         style="stop-color:#000000;stop-opacity:0.63173652;"
         offset="1"
         id="stop14" /></linearGradient><linearGradient
       id="linearGradient5"
       inkscape:collect="always"><stop
         style="stop-color:#ffffff;stop-opacity:0;"
         offset="0"
         id="stop5" /><stop
         style="stop-color:#ffffff;stop-opacity:0;"
         offset="0.60334635"
         id="stop7" /><stop
         style="stop-color:#ffffff;stop-opacity:0.10329341;"
         offset="0.74798197"
         id="stop8" /><stop
         style="stop-color:#ffffff;stop-opacity:0.73802394;"
         offset="0.87198746"
         id="stop9" /><stop
         style="stop-color:#ffffff;stop-opacity:1;"
         offset="1"
         id="stop6" /></linearGradient><linearGradient
       id="linearGradient2"
       inkscape:collect="always"><stop
         style="stop-color:#00be00;stop-opacity:1"
         offset="0"
         id="stop2" /><stop
         style="stop-color:#004b00;stop-opacity:1"
         offset="1"
         id="stop3" /></linearGradient><linearGradient
       inkscape:collect="always"
       xlink:href="#linearGradient2"
       id="linearGradient3"
       x1="33.995777"
       y1="37.593216"
       x2="204.83432"
       y2="237.07083"
       gradientUnits="userSpaceOnUse" /><radialGradient
       inkscape:collect="always"
       xlink:href="#linearGradient5"
       id="radialGradient6"
       cx="134.34644"
       cy="136.79692"
       fx="134.34644"
       fy="136.79692"
       r="121.01642"
       gradientUnits="userSpaceOnUse"
       gradientTransform="matrix(1.0105329,-0.74886514,0.71357161,0.96290733,-96.13118,112.5524)" /><radialGradient
       inkscape:collect="always"
       xlink:href="#linearGradient14"
       id="radialGradient9"
       cx="110.69514"
       cy="127.08023"
       fx="110.69514"
       fy="127.08023"
       r="121.01642"
       gradientUnits="userSpaceOnUse"
       gradientTransform="matrix(0.83576528,0.88278074,-0.95295968,0.90220668,140.83364,-98.242995)" /><radialGradient
       inkscape:collect="always"
       xlink:href="#linearGradient15"
       id="radialGradient16"
       cx="87.174774"
       cy="181.51646"
       fx="87.174774"
       fy="181.51646"
       r="79.551104"
       gradientTransform="matrix(-1.7161951,-2.0325603,0.88600911,-0.74810298,115.93154,486.80929)"
       gradientUnits="userSpaceOnUse" /></defs><metadata
     id="metadata1"><rdf:RDF><cc:License
         rdf:about="http://creativecommons.org/publicdomain/zero/1.0/"><cc:permits
           rdf:resource="http://creativecommons.org/ns#Reproduction" /><cc:permits
           rdf:resource="http://creativecommons.org/ns#Distribution" /><cc:permits
           rdf:resource="http://creativecommons.org/ns#DerivativeWorks" /></cc:License><cc:Work
         rdf:about=""><cc:license
           rdf:resource="http://creativecommons.org/publicdomain/zero/1.0/" /></cc:Work></rdf:RDF></metadata><g
     id="g17"
     transform="matrix(0.98254627,0,0,0.98254627,0.02161262,0.02485111)"><g
       id="g20"
       transform="matrix(1.0177638,0,0,1.0253233,-0.02199654,-1.9583499)"><circle
         style="fill:#000000;fill-opacity:0.136612;stroke:none;stroke-width:9.39099;stroke-linecap:round;stroke-linejoin:bevel;stroke-dasharray:none;stroke-opacity:1"
         id="path17"
         cx="131.99074"
         cy="132.21239"
         r="123.49883" /><circle
         style="fill:#000000;fill-opacity:0.136612;stroke:none;stroke-width:9.39099;stroke-linecap:round;stroke-linejoin:bevel;stroke-dasharray:none;stroke-opacity:1"
         id="circle17"
         cx="130.43924"
         cy="130.88254"
         r="123.49883" /><circle
         style="fill:#000000;fill-opacity:0.136612;stroke:none;stroke-width:9.39099;stroke-linecap:round;stroke-linejoin:bevel;stroke-dasharray:none;stroke-opacity:1"
         id="circle18"
         cx="129.55267"
         cy="129.33104"
         r="123.49883" /><circle
         style="fill:#000000;fill-opacity:0.136612;stroke:none;stroke-width:9.39099;stroke-linecap:round;stroke-linejoin:bevel;stroke-dasharray:none;stroke-opacity:1"
         id="circle19"
         cx="128.00117"
         cy="127.55791"
         r="123.49883" /><circle
         style="fill:#000000;fill-opacity:0.136612;stroke:none;stroke-width:9.39099;stroke-linecap:round;stroke-linejoin:bevel;stroke-dasharray:none;stroke-opacity:1"
         id="circle20"
         cx="126.89297"
         cy="126.00642"
         r="123.49883" /></g><g
       id="path1"><path
         style="color:#000000;fill:#2bb90d;stroke-linecap:round;stroke-linejoin:bevel;-inkscape-stroke:none"
         d="M 247.96729,127.1365 A 121.01642,121.01642 0 0 1 126.95087,248.15292 121.01642,121.01642 0 0 1 5.9344473,127.1365 121.01642,121.01642 0 0 1 126.95087,6.1200871 121.01642,121.01642 0 0 1 247.96729,127.1365 Z"
         id="path3" /><path
         style="color:#000000;display:inline;fill:url(#radialGradient9);fill-opacity:1;stroke-linecap:round;stroke-linejoin:bevel;-inkscape-stroke:none"
         d="M 247.96729,127.1365 A 121.01642,121.01642 0 0 1 126.95087,248.15292 121.01642,121.01642 0 0 1 5.9344473,127.1365 121.01642,121.01642 0 0 1 126.95087,6.1200871 121.01642,121.01642 0 0 1 247.96729,127.1365 Z"
         id="path9"
         inkscape:label="shadow" /><path
         style="color:#000000;fill:url(#radialGradient6);fill-opacity:1;stroke-linecap:round;stroke-linejoin:bevel;-inkscape-stroke:none"
         d="M 247.96729,127.1365 A 121.01642,121.01642 0 0 1 126.95087,248.15292 121.01642,121.01642 0 0 1 5.9344473,127.1365 121.01642,121.01642 0 0 1 126.95087,6.1200871 121.01642,121.01642 0 0 1 247.96729,127.1365 Z"
         id="path5"
         inkscape:label="light" /><path
         style="color:#000000;fill:url(#linearGradient3);stroke-linecap:round;stroke-linejoin:bevel;-inkscape-stroke:none"
         d="M 126.95117,1.4238281 C 57.578083,1.4238266 1.2382853,57.76363 1.2382812,127.13672 c 0,69.37309 56.3397988,125.71094 125.7128888,125.71094 69.37309,0 125.71094,-56.33785 125.71094,-125.71094 0,-69.373089 -56.33785,-125.7128919 -125.71094,-125.7128919 z m 0,9.3925779 c 64.29782,0 116.32031,52.022493 116.32031,116.320314 0,64.29782 -52.02249,116.32031 -116.32031,116.32031 -64.297822,0 -116.320311,-52.02249 -116.320311,-116.32031 4e-6,-64.297822 52.022492,-116.320315 116.320311,-116.320314 z"
         id="path4" /></g><g
       id="g14"
       inkscape:label="arrow"
       transform="matrix(-1,0,0,1,257.78489,0)"><path
         id="rect1"
         style="fill:#ffffff;fill-opacity:1;stroke-width:2.39077;stroke-linecap:round;stroke-linejoin:bevel"
         d="M 63.630112,110.96088 H 148.02621 L 114.56554,77.617762 c -12.07282,-16.065745 9.75065,-33.615493 22.64668,-21.627966 l 71.23125,71.113694 -70.50252,70.59317 c -15.33898,13.32191 -35.77933,-7.2454 -22.34205,-22.65685 l 32.81912,-32.42059 -84.787908,0.62689 c -18.211419,-1.96753 -19.874018,-29.64416 0,-32.28523 z"
         sodipodi:nodetypes="cccccccccc"
         inkscape:label="arrow" /><path
         id="path14"
         style="fill:url(#radialGradient16);fill-opacity:1;stroke-width:2.39077;stroke-linecap:round;stroke-linejoin:bevel"
         inkscape:label="arrowframe"
         d="m 127.91571,52.038684 c -11.52546,-0.429207 -22.78197,13.027967 -13.35009,25.579317 l 33.46049,33.342669 H 63.630225 c -19.873999,2.64107 -18.211401,30.31784 0,32.28537 l 84.787585,-0.62684 -32.81866,32.42076 c -13.43727,15.41144 7.00282,35.9784 22.34178,22.6565 L 208.44361,127.10335 137.2123,55.989864 c -2.82101,-2.622269 -6.06947,-3.831002 -9.29659,-3.95118 z m -0.17932,2.437577 c 3.31601,0.215565 6.64363,1.627944 9.29349,4.535641 l 67.65633,67.878028 -69.09707,69.65104 c -12.84667,6.83323 -27.29829,-5.69356 -18.1467,-19.92023 l 37.70675,-36.98637 -91.34895,-0.0816 c -15.603791,-1.9992 -13.977592,-24.14886 0.01344,-25.79171 l 91.77889,-0.0589 -38.75939,-36.875782 c -8.88652,-12.868561 0.95519,-22.99675 10.90321,-22.350057 z" /></g></g></svg>
