<?xml version="1.0" encoding="UTF-8" standalone="no"?>
<!-- Created with Inkscape (http://www.inkscape.org/) -->

<svg
   width="256mm"
   height="256mm"
   viewBox="0 0 256 256"
   version="1.1"
   id="svg1"
   inkscape:version="1.3.2 (091e20ef0f, 2023-11-25)"
   xml:space="preserve"
   sodipodi:docname="no.svg"
   xmlns:inkscape="http://www.inkscape.org/namespaces/inkscape"
   xmlns:sodipodi="http://sodipodi.sourceforge.net/DTD/sodipodi-0.dtd"
   xmlns="http://www.w3.org/2000/svg"
   xmlns:svg="http://www.w3.org/2000/svg"
   xmlns:rdf="http://www.w3.org/1999/02/22-rdf-syntax-ns#"
   xmlns:cc="http://creativecommons.org/ns#"
   xmlns:dc="http://purl.org/dc/elements/1.1/"><defs
     id="defs1" /><sodipodi:namedview
     id="base"
     pagecolor="#ffffff"
     bordercolor="#000000"
     borderopacity="0.3"
     inkscape:pageopacity="0.0"
     inkscape:pageshadow="2"
     inkscape:zoom="0.98994949"
     inkscape:cx="505.07627"
     inkscape:cy="476.792"
     inkscape:document-units="mm"
     inkscape:showpageshadow="2"
     inkscape:pagecheckerboard="0"
     inkscape:deskcolor="#d1d1d1"
     inkscape:current-layer="svg1"
     showguides="true" /><metadata
     id="metadata1"><rdf:RDF><cc:Work
         rdf:about=""><dc:format>image/svg+xml</dc:format><dc:type
           rdf:resource="http://purl.org/dc/dcmitype/StillImage" /><cc:license
           rdf:resource="http://creativecommons.org/publicdomain/zero/1.0/" /></cc:Work><cc:License
         rdf:about="http://creativecommons.org/publicdomain/zero/1.0/"><cc:permits
           rdf:resource="http://creativecommons.org/ns#Reproduction" /><cc:permits
           rdf:resource="http://creativecommons.org/ns#Distribution" /><cc:permits
           rdf:resource="http://creativecommons.org/ns#DerivativeWorks" /></cc:License></rdf:RDF></metadata><g
     id="g7"
     transform="matrix(5.2450071,0,0,5.2450071,-659.10337,-616.68545)"><g
       id="g3"
       inkscape:label="shadow"><path
         id="path1"
         style="display:inline;fill:#2a2a2a;fill-opacity:0.09375;stroke-width:4.46891;stroke-linecap:round;stroke-linejoin:round"
         d="m 126.34325,119.28235 c 0.72882,-2.52607 5.11021,-0.62068 6.15051,0.44416 5.80283,5.93969 8.82776,9.19211 15.1354,17.06965 1.09392,1.36619 2.56884,1.89237 3.91553,0.22973 0,0 9.31784,-7.38099 14.23959,-10.87667 0.85506,-0.6073 3.05687,-1.15985 3.9858,-0.20746 1.0408,1.0671 0.7132,3.55319 -0.34378,4.45865 -4.57784,3.9216 -12.21297,9.74126 -13.00736,10.69393 -0.81314,0.97515 -2.44625,2.2155 -1.01801,3.57929 5.96887,5.69951 10.91696,11.06744 18.49051,17.18477 0,0 1.58634,2.46982 0.2485,4.37842 -0.82655,1.17919 -3.63832,0.0417 -3.63832,0.0417 -7.59002,-4.67115 -14.51187,-10.48748 -20.72819,-17.41463 -0.62545,-0.69698 -1.75832,0.92319 -1.75832,0.92319 -4.70337,4.78177 -8.87567,9.12406 -10.08557,11.39897 -1.19302,2.24316 -0.81341,3.01807 -2.47267,5.00366 -0.75256,0.90057 -4.96704,0.91824 -6.73189,-0.47672 -1.0999,-0.86938 -1.57332,-2.50903 -1.25805,-4.01343 0.25374,-1.21079 0.95057,-1.21738 1.57561,-2.35882 3.06723,-5.60136 8.33913,-10.45639 13.56963,-14.77864 1.51454,-1.20939 2.12713,-1.43979 0.80816,-2.68041 -4.91935,-6.08243 -9.37418,-9.93575 -12.2164,-12.75636 -3.75182,-3.70412 -6.44831,-4.34038 -4.86068,-9.843 z"
         sodipodi:nodetypes="ssscsassscscscssasscccss" /><path
         id="path2"
         style="display:inline;fill:#2a2a2a;fill-opacity:0.294118;stroke-width:4.46891;stroke-linecap:round;stroke-linejoin:round"
         d="m 126.60311,119.25873 c 0.9703,-2.44351 4.73223,-0.36082 5.77253,0.70402 5.80283,5.93969 7.39238,7.60281 13.70002,15.48035 1.09392,1.36619 2.71918,4.71542 5.65278,1.83336 0,0 9.13409,-7.63156 14.05584,-11.12724 0.85506,-0.6073 3.0228,-0.64896 3.79681,0.35951 0.69495,0.90546 0.24108,2.64226 -0.56974,3.37651 -4.61974,4.18362 -12.80609,10.30861 -13.65547,11.32722 -0.81314,0.97515 -1.95016,2.2155 -0.52191,3.57929 5.96887,5.6995 11.11642,11.04955 18.68997,17.16688 0,0 1.35248,1.90187 0.0146,3.81047 -0.82655,1.17919 -3.07512,-0.18168 -3.07512,-0.18168 -9.36068,-5.47296 -17.57498,-14.51412 -20.78452,-17.43223 -0.69289,-0.62998 -3.034,1.83269 -3.034,1.83269 -4.70337,4.78177 -7.29596,7.73774 -8.50586,10.01265 -1.19302,2.24316 -1.44447,3.43571 -2.64879,5.3122 -1.19422,1.86075 -4.86921,1.468 -6.63168,0.13299 -1.0468,-0.79291 -1.30605,-2.30858 -0.99078,-3.81298 0.25374,-1.21079 0.49224,-1.18395 1.17471,-2.292 3.17354,-5.15251 8.94544,-10.63015 14.49332,-14.98581 1.51454,-1.20939 1.26309,-1.55356 -0.0559,-2.79418 -4.91935,-6.08243 -9.24484,-10.04003 -12.08706,-12.86064 -2.84233,-2.46629 -6.66415,-4.72106 -4.78975,-9.44138 z"
         sodipodi:nodetypes="ssscsassscscscssasscccs" /><path
         id="path3"
         style="display:inline;fill:#2a2a2a;fill-opacity:0.262868;stroke-width:4.46891;stroke-linecap:round;stroke-linejoin:round"
         d="m 126.6976,119.57765 c 1.00621,-2.42894 4.63774,-0.67974 5.67804,0.3851 5.80283,5.93969 8.9268,10.20529 13.69646,16.08982 1.80319,2.22467 2.50573,3.67352 5.17206,1.74361 1.28882,-0.93286 9.61837,-8.15128 14.54012,-11.64696 0.85506,-0.6073 2.80475,-0.59637 3.46272,0.35951 0.61162,0.88853 0.007,2.43019 -0.837,3.12594 -4.95383,4.08339 -13.1812,10.68686 -14.1408,11.83765 -0.81314,0.97515 -1.07609,2.121 0.35216,3.48479 5.96887,5.6995 10.72767,10.66703 18.30122,16.78436 0,0 1.58634,1.38404 0.24846,3.29264 -0.82655,1.17919 -2.56923,-0.008 -2.56923,-0.008 -7.59002,-4.67115 -14.54123,-10.4867 -20.75755,-17.41385 -0.62545,-0.69698 -2.65602,0.99406 -2.65602,0.99406 -4.70337,4.78177 -8.38293,9.10253 -9.59283,11.37744 -1.19302,2.24316 -1.05501,1.9995 -2.15528,4.16844 -0.92835,1.83002 -4.67244,2.4095 -6.5225,1.19949 -1.06551,-0.69689 -1.18793,-2.21409 -0.87266,-3.71849 0.25374,-1.21079 0.33052,-1.17457 0.99753,-2.292 4.69725,-7.86921 9.12918,-10.69696 14.35968,-15.01921 0.92989,-0.79179 1.46079,-1.4659 0.28657,-2.84431 -5.0729,-5.95497 -9.38278,-10.19274 -12.225,-13.01335 -3.73226,-3.23849 -6.3339,-5.10221 -4.76615,-8.88668 z"
         sodipodi:nodetypes="sssssassscscscssasscscs" /></g><path
       id="rect1"
       style="fill:#df0029;stroke-width:4.2;stroke-linecap:round;stroke-linejoin:round"
       d="m 132.35561,120.12556 c 5.88231,5.48702 14.73627,17.92882 14.98422,18.28174 0.81266,1.15668 1.97363,1.80168 3.23929,0.23909 0,0 10.39204,-9.37686 15.01763,-12.6622 0.80361,-0.57076 2.41794,-1.3692 3.08965,-0.37367 0.5926,0.87829 0.3964,3.01034 -0.44381,3.703 -4.53854,3.74153 -13.66682,10.97693 -14.3726,11.82333 -0.76421,0.91648 -1.40434,1.82456 -0.13219,3.17601 0.84838,0.90126 11.44423,11.20396 18.38601,16.25298 0.74888,0.54468 1.29006,2.37225 0.66838,3.44903 -0.78009,1.35117 -2.77193,0.42907 -3.63109,-0.0945 -7.17283,-4.37119 -13.66018,-11.1848 -19.36437,-16.86718 -0.59986,-0.59757 -1.3781,-0.12758 -2.14973,0.51833 -4.83371,4.04614 -9.42523,10.20783 -10.64148,12.30185 -1.92304,3.31089 -2.08369,3.5849 -2.66429,4.6301 -0.9197,1.65565 -4.23127,1.68959 -5.66391,0.45082 -1.09273,-0.94487 -0.57979,-2.9106 -0.28349,-4.32448 0.23848,-1.13794 0.81716,-2.16171 1.6064,-3.09605 4.25919,-5.04228 8.92524,-9.20554 13.84101,-13.26771 1.42341,-1.13662 0.91124,-1.97481 -0.32836,-3.14078 -4.62083,-5.71795 -9.37315,-10.33683 -14.83556,-15.79153 -0.39525,-0.39469 -3.08586,-1.69561 -2.07986,-5.15661 1.09821,-3.77823 5.72342,-0.084 5.75815,-0.0516 z"
       sodipodi:nodetypes="sscssssssssssssassccssss"
       inkscape:label="colorheadcross" /><g
       id="g6"
       inkscape:label="shadows"><path
         id="rect3"
         style="fill:#5f5f5f;fill-opacity:0.610294;stroke-width:4.2;stroke-linecap:round;stroke-linejoin:round"
         d="m 133.35472,164.32516 c 3.02596,-7.14215 10.3218,-14.58715 13.74889,-17.30422 2.29893,-1.18921 2.1068,-0.41577 2.90569,-0.0472 -0.54499,-0.18089 -1.07666,-0.26845 -1.55915,-0.0118 0,0 -1.99437,1.24147 -6.54371,6.37835 -5.321,6.0082 -5.20599,7.65055 -6.87444,9.99275 -0.64492,0.90533 -0.99779,2.06214 -2.14975,2.24423 v -0.37798 z"
         sodipodi:nodetypes="ccccssccc" /><path
         id="path4"
         style="fill:#5f5f5f;fill-opacity:0.610294;stroke-width:4.2;stroke-linecap:round;stroke-linejoin:round"
         d="m 157.40265,147.90305 c 4.7468,4.47574 10.35865,9.43674 14.05916,12.05041 2.16785,1.65908 1.53129,3.39886 1.16614,4.19931 0.17857,-0.54576 0.26386,-1.07779 0.005,-1.55919 0,0 -1.93505,-1.70558 -7.09128,-6.23297 -6.03083,-5.29534 -9.6098,-8.78773 -11.8646,-10.8714 -0.81635,-0.75439 -2.52703,-3.2096 -1.03676,-4.07729 0,0 13.464,-10.89199 14.65594,-11.95077 2.11242,-1.8764 1.2242,-3.78263 1.40951,-3.60501 0.18531,0.17762 0.9953,2.20287 -0.84277,3.74818 -1.92969,1.62234 -13.96545,11.47012 -14.24976,11.83718 -0.61325,0.79172 -0.62037,1.44439 -0.59496,1.53939 0.36802,1.3756 2.33175,2.9867 4.38442,4.92216 z"
         sodipodi:nodetypes="scccsscsssssss" /><path
         id="rect4"
         style="fill:#5f5f5f;fill-opacity:0.610294;stroke-width:4.2;stroke-linecap:round;stroke-linejoin:round"
         d="m 128.06305,118.5664 c 0.75279,-0.0957 1.27811,-0.41132 3.85064,1.25205 5.75118,5.35187 10.66548,11.63511 15.1663,18.23735 0.56545,0.89284 1.18269,1.44586 2.12612,1.58277 -0.0148,0.25241 -1.69389,0.65562 -3.26005,-2.03162 -1.56616,-2.68725 -10.58334,-13.44178 -10.58334,-13.44178 -2.10104,-2.47023 -3.88391,-5.51894 -7.29967,-5.59877 z"
         sodipodi:nodetypes="cccczcc" /><path
         id="path5"
         style="fill:#fefefe;fill-opacity:0.610294;stroke-width:4.2;stroke-linecap:round;stroke-linejoin:round"
         d="m 127.8398,118.62056 c -1.48836,0.49546 -2.62525,4.73194 0.72466,6.57669 5.40039,5.21824 6.61468,6.74074 12.01753,12.57458 l -0.86666,-1.18385 c -2.86909,-3.15497 -11.5856,-12.32258 -11.5856,-12.32258 -2.10104,-2.47023 -0.62429,-4.51263 -0.28993,-5.64484 z"
         sodipodi:nodetypes="cccccc" /><path
         id="rect5"
         style="fill:#fefefe;fill-opacity:0.610294;stroke-width:4.2;stroke-linecap:round;stroke-linejoin:round"
         d="m 144.7332,143.43352 c 0.58512,-0.5282 0.81558,-0.31273 1.20594,-0.25986 -3.15114,3.10333 -19.32918,15.40532 -17.24516,21.81236 -0.62553,-0.46188 -0.79098,-1.61899 -0.49667,-3.37816 0,0 0.22204,-1.07695 0.59002,-2.17336 0.45545,-1.35705 2.58023,-3.50359 3.0911,-4.05781 4.73059,-5.13202 9.63058,-9.03264 12.85477,-11.94317 z"
         sodipodi:nodetypes="scccsss" /><path
         id="path6"
         style="fill:#fefefe;fill-opacity:0.610294;stroke-width:4.2;stroke-linecap:round;stroke-linejoin:round"
         d="m 166.44885,125.40953 c 0.68534,-0.41127 1.52561,-0.31965 1.88054,-0.14867 -2.68342,0.89836 -4.72193,2.79276 -10.50709,7.69195 -2.49394,2.11202 -3.59055,2.65492 -5.32017,4.43374 -2.22143,2.28464 -3.26511,2.60619 -2.45017,1.78558 1.14032,-1.14825 2.923,-2.70844 4.43437,-4.00602 3.9041,-3.35186 8.23809,-7.52159 11.96252,-9.75658 z"
         sodipodi:nodetypes="scsssas" /></g></g></svg>
