<?xml version="1.0" encoding="UTF-8" standalone="no"?>
<!-- Created with Inkscape (http://www.inkscape.org/) -->

<svg
   width="256mm"
   height="256mm"
   viewBox="0 0 256 256"
   version="1.1"
   id="svg1"
   inkscape:version="1.3.2 (091e20ef0f, 2023-11-25)"
   sodipodi:docname="notification-01.svg"
   xml:space="preserve"
   xmlns:inkscape="http://www.inkscape.org/namespaces/inkscape"
   xmlns:sodipodi="http://sodipodi.sourceforge.net/DTD/sodipodi-0.dtd"
   xmlns:xlink="http://www.w3.org/1999/xlink"
   xmlns="http://www.w3.org/2000/svg"
   xmlns:svg="http://www.w3.org/2000/svg"
   xmlns:rdf="http://www.w3.org/1999/02/22-rdf-syntax-ns#"
   xmlns:cc="http://creativecommons.org/ns#"
   xmlns:dc="http://purl.org/dc/elements/1.1/"><defs
     id="defs1"><linearGradient
       id="linearGradient14"
       inkscape:collect="always"><stop
         style="stop-color:#f4f4f4;stop-opacity:1;"
         offset="0"
         id="stop14" /><stop
         style="stop-color:#f4f4f4;stop-opacity:0;"
         offset="1"
         id="stop15" /></linearGradient><linearGradient
       id="linearGradient7"
       inkscape:collect="always"><stop
         style="stop-color:#f4f4f4;stop-opacity:0.84745765;"
         offset="0"
         id="stop8" /><stop
         style="stop-color:#7a7a7a;stop-opacity:0;"
         offset="0.33047691"
         id="stop11" /><stop
         style="stop-color:#090803;stop-opacity:0.16497175;"
         offset="0.5"
         id="stop10" /><stop
         style="stop-color:#080802;stop-opacity:0.18079096;"
         offset="1"
         id="stop9" /></linearGradient><linearGradient
       id="linearGradient1"
       inkscape:collect="always"><stop
         style="stop-color:#f4f4f3;stop-opacity:0.8237288;"
         offset="0"
         id="stop1" /><stop
         style="stop-color:#f4f4f3;stop-opacity:0.41242939;"
         offset="0.43423024"
         id="stop5" /><stop
         style="stop-color:#f4f4f3;stop-opacity:0.19661017;"
         offset="1"
         id="stop4" /></linearGradient><linearGradient
       id="linearGradient2"
       inkscape:collect="always"><stop
         style="stop-color:#f7f7f7;stop-opacity:0;"
         offset="0"
         id="stop2" /><stop
         style="stop-color:#ebb300;stop-opacity:0.92941177;"
         offset="0.44972768"
         id="stop7" /><stop
         style="stop-color:#040300;stop-opacity:0.18305084;"
         offset="1"
         id="stop3" /></linearGradient><linearGradient
       inkscape:collect="always"
       xlink:href="#linearGradient2"
       id="linearGradient3"
       x1="65.985096"
       y1="111.34616"
       x2="180.80327"
       y2="145.20718"
       gradientUnits="userSpaceOnUse" /><radialGradient
       inkscape:collect="always"
       xlink:href="#linearGradient1"
       id="radialGradient4"
       cx="79.195122"
       cy="100.51251"
       fx="79.195122"
       fy="100.51251"
       r="65.288531"
       gradientTransform="matrix(0.79122307,0.92107519,-0.89695939,0.77050709,105.14606,-67.33668)"
       gradientUnits="userSpaceOnUse" /><linearGradient
       inkscape:collect="always"
       xlink:href="#linearGradient7"
       id="linearGradient9"
       x1="33.477536"
       y1="178.15037"
       x2="160.05655"
       y2="214.4361"
       gradientUnits="userSpaceOnUse"
       gradientTransform="translate(10.772322,0.1889881)" /><radialGradient
       inkscape:collect="always"
       xlink:href="#linearGradient14"
       id="radialGradient15"
       cx="112.94418"
       cy="35.709072"
       fx="112.94418"
       fy="35.709072"
       r="19.84375"
       gradientTransform="matrix(0.91704896,-0.6963634,0.36803499,0.48466951,-3.7733505,100.39096)"
       gradientUnits="userSpaceOnUse" /></defs><sodipodi:namedview
     id="base"
     pagecolor="#ffffff"
     bordercolor="#000000"
     borderopacity="0.3"
     inkscape:pageopacity="0.0"
     inkscape:pageshadow="2"
     inkscape:zoom="0.98994949"
     inkscape:cx="505.07627"
     inkscape:cy="476.792"
     inkscape:document-units="mm"
     inkscape:showpageshadow="2"
     inkscape:pagecheckerboard="0"
     inkscape:deskcolor="#d1d1d1"
     inkscape:current-layer="svg1"
     showguides="false" /><metadata
     id="metadata1"><rdf:RDF><cc:Work
         rdf:about=""><dc:format>image/svg+xml</dc:format><dc:type
           rdf:resource="http://purl.org/dc/dcmitype/StillImage" /><cc:license
           rdf:resource="http://creativecommons.org/publicdomain/zero/1.0/" /></cc:Work><cc:License
         rdf:about="http://creativecommons.org/publicdomain/zero/1.0/"><cc:permits
           rdf:resource="http://creativecommons.org/ns#Reproduction" /><cc:permits
           rdf:resource="http://creativecommons.org/ns#Distribution" /><cc:permits
           rdf:resource="http://creativecommons.org/ns#DerivativeWorks" /></cc:License></rdf:RDF></metadata><g
     id="g2"
     style="display:inline"><path
       id="rect1"
       style="fill:#f4dd45;stroke-width:6.29999;stroke-linecap:round;stroke-linejoin:round"
       d="m 127.56689,32.695162 c -10.95922,0 -19.84349,8.334096 -19.84375,18.614884 0.006,1.873633 0.6678,6.838056 1.61032,8.446142 0.80121,1.366973 0.0412,2.273547 -0.12654,2.541818 C 70.367061,76.737708 69.216964,110.46354 69.216964,110.46354 L 68.03564,157.04933 44.837278,195.9805 c -1.213418,1.78511 -0.478974,3.81247 1.577367,3.79342 l 68.259855,0.0375 c 0,0 -8.63175,24.65759 12.88635,24.60592 21.51809,-0.0517 12.69735,-24.53097 12.69735,-24.53097 l 66.55897,0.0375 c 3.44011,0.14521 4.33784,-1.74555 3.28246,-3.54317 l -22.4346,-38.95357 -1.36994,-46.7744 c 0,0 -3.60555,-36.079942 -40.08909,-48.04467 -1.69571,-0.269989 -0.24216,-4.086017 0.33248,-5.843741 0.57465,-1.757723 0.87174,-3.595298 0.87216,-5.454223 -2.6e-4,-10.280788 -8.88453,-18.614884 -19.84375,-18.614884 z m -0.047,12.850895 c 3.91396,7.9e-5 7.08683,3.172948 7.08691,7.086906 2e-4,3.91416 -3.17275,7.087344 -7.08691,7.087423 -3.91436,2.02e-4 -7.08762,-3.173064 -7.08742,-7.087423 8e-5,-3.914157 3.17326,-7.087108 7.08742,-7.086906 z"
       sodipodi:nodetypes="ccscccccczccccccscscccccc" /><path
       d="M 65.815029,160.25268 44.837278,195.8293 c -1.213418,1.78511 -0.478974,3.81247 1.577367,3.79342 l 68.259855,0.0375 25.5837,0.075 66.55896,0.0375 c 3.44011,0.14521 4.33784,-1.74555 3.28246,-3.54317 l -20.87545,-36.16599"
       style="display:inline;fill:url(#linearGradient9);stroke-width:6.29999;stroke-linecap:round;stroke-linejoin:round"
       id="path1-7"
       sodipodi:nodetypes="cccccccc" /><path
       d="m 114.5989,199.86809 c -1.14339,3.65643 -1.98196,7.54148 -1.62611,12.32234 l 28.93042,-0.001 c 0.33222,-4.43041 -0.41901,-8.4441 -1.72061,-12.24612"
       style="display:inline;fill:#c88300;fill-opacity:0.53319281;stroke-width:6.29999;stroke-linecap:round;stroke-linejoin:round"
       id="path1"
       sodipodi:nodetypes="cccc" /><path
       d="M 109.4715,62.364149 C 70.631642,76.803849 69.481545,110.52968 69.481545,110.52968 l -1.181324,44.12894 c -0.331658,2.18322 -1.232259,3.98714 -2.315125,5.66955 L 189.0942,160.13909 c -0.51538,-0.78023 -1.07881,-1.52202 -1.1646,-2.64592 l -1.36994,-46.7744 c 0,0 -3.60555,-36.079941 -40.08908,-48.044671"
       style="fill:url(#linearGradient3);fill-opacity:1;stroke-width:6.29999;stroke-linecap:round;stroke-linejoin:round"
       id="path1-6"
       sodipodi:nodetypes="cccccccc" /><path
       d="m 127.77763,32.809627 c -10.95921,0 -19.84349,8.334107 -19.84375,18.614884 0.006,1.873631 0.66772,6.83791 1.61024,8.44599 0.80121,1.36698 36.63033,-1.23434 37.20497,-2.99206 0.57464,-1.757721 0.87187,-3.595007 0.87229,-5.45393 -2.6e-4,-10.280777 -8.88454,-18.614884 -19.84375,-18.614884 z m -0.047,12.850895 c 3.91395,7.9e-5 7.08682,3.172952 7.0869,7.086906 2e-4,3.914154 -3.17275,7.087343 -7.0869,7.087423 -3.91436,2e-4 -7.08762,-3.17307 -7.08742,-7.087423 8e-5,-3.914153 3.17326,-7.087108 7.08742,-7.086906 z"
       style="fill:url(#radialGradient15);stroke-width:6.29999;stroke-linecap:round;stroke-linejoin:round;fill-opacity:1"
       id="path1-5" /><path
       id="path1-1"
       style="fill:url(#radialGradient4);stroke-width:6.29999;stroke-linecap:round;stroke-linejoin:round"
       d="m 127.26458,32.846574 c -10.95921,0 -19.84349,8.334107 -19.84375,18.614884 0.006,1.873631 0.66772,6.837912 1.61024,8.445996 0.80121,1.366972 0.0411,2.273693 -0.12661,2.541964 C 70.064641,76.889106 68.914657,110.61495 68.914657,110.61495 l -1.181324,46.58579 -17.150891,30.0483 c 5.52053,-0.0101 77.155928,-0.82283 115.732988,-0.54157 11.07604,0.0807 13.30268,-6.50076 14.48055,-10.64638 1.68049,-5.91461 -2.95139,-12.47645 -4.00677,-14.27407 0,0 -5.86825,-8.64534 -8.20245,-17.77281 -2.33421,-9.12747 -1.30291,-36.28383 -1.30291,-36.28383 0,0 -4.27362,-37.41613 -21.38009,-44.970903 -1.69571,-0.269989 -0.24236,-4.086366 0.33228,-5.844088 0.57464,-1.757721 0.87187,-3.595008 0.87229,-5.453931 -2.6e-4,-10.280777 -8.88454,-18.614884 -19.84375,-18.614884 z m -0.047,12.850895 c 3.91395,7.9e-5 7.08682,3.172952 7.0869,7.086906 2e-4,3.914155 -3.17275,7.087344 -7.0869,7.087423 -3.91436,2.02e-4 -7.08762,-3.173069 -7.08742,-7.087423 8e-5,-3.914153 3.17326,-7.087108 7.08742,-7.086906 z m -9.02581,21.173385 c 0.47313,0.01117 0.93767,0.128803 1.35909,0.344165 5.49868,2.808505 10.10594,2.388521 15.17944,0.0016 0.75609,-0.355693 1.62253,-0.396403 2.40864,-0.113171 0.78602,0.283209 1.42733,0.867081 1.78283,1.623156 0.74071,1.574268 0.0649,3.450925 -1.50947,4.191476 -6.32202,2.974371 -13.57217,3.562306 -20.7269,-0.09198 -1.54947,-0.791108 -2.16421,-2.688546 -1.37304,-4.237984 0.55019,-1.07805 1.66941,-1.745522 2.87941,-1.717208 z"
       sodipodi:nodetypes="scsccccssczccscscccccccsscccccc" /></g><g
     id="g21"
     style="display:inline"><g
       id="g7"><path
         style="color:#000000;fill:#12ff00;stroke-linecap:round;stroke-linejoin:round;-inkscape-stroke:none"
         d="m 27.519531,70.5 a 6.0999999,6.0999999 0 0 0 -4.242187,1.947266 C -1.5889773,99.252592 -3.0661801,146.81044 22.888672,175.38086 a 6.0999999,6.0999999 0 0 0 8.617187,0.41211 6.0999999,6.0999999 0 0 0 0.41211,-8.61524 C 10.823641,143.95765 12.27024,102.25028 32.220703,80.744141 A 6.0999999,6.0999999 0 0 0 31.896484,72.123047 6.0999999,6.0999999 0 0 0 27.519531,70.5 Z"
         id="path5" /><path
         style="color:#000000;fill:#fffffe;fill-opacity:0.658588;stroke-linecap:round;stroke-linejoin:round;-inkscape-stroke:none"
         d="m 27.519531,70.5 c -1.616304,0.061 -3.142213,0.761426 -4.242187,1.947266 -24.8663213,26.805326 -26.3435241,74.363174 -0.388672,102.933594 2.265709,2.4935 6.123863,2.67801 8.617187,0.41211 -4.122703,-1.86462 -4.405942,-2.91494 -6.670533,-5.40801 C 3.7409985,147.16488 6.1230408,101.34825 24.068983,79.441202 26.360294,76.971094 27.284208,73.41182 27.620172,72.858038 28.459203,71.475033 29.136006,70.439269 27.519531,70.5 Z"
         id="path16"
         sodipodi:nodetypes="ccccccsc" /><path
         style="color:#000000;fill:#12ff00;stroke-linecap:round;stroke-linejoin:round;-inkscape-stroke:none"
         d="m 44.328125,88.169922 a 6.0999999,6.0999999 0 0 0 -4.025391,2.365234 C 25.084292,110.67375 25.264639,137.53831 40.435547,157.62305 a 6.0999999,6.0999999 0 0 0 8.542969,1.1914 6.0999999,6.0999999 0 0 0 1.191406,-8.54297 C 38.050057,134.22602 37.919178,113.92372 50.035156,97.890625 a 6.0999999,6.0999999 0 0 0 -1.189453,-8.544922 6.0999999,6.0999999 0 0 0 -4.517578,-1.175781 z"
         id="path6" /><path
         style="color:#000000;fill:#ffffff;fill-opacity:0.679663;stroke-linecap:round;stroke-linejoin:round;-inkscape-stroke:none"
         d="m 44.328125,88.169922 c -1.602362,0.223402 -3.050344,1.074205 -4.025391,2.365234 -15.218442,20.138594 -15.038095,47.003154 0.132813,67.087894 2.030306,2.68769 1.64529,1.95152 4.266657,2.3273 2.687689,-2.03031 0.815626,-2.98164 -1.21402,-5.66983 -12.119865,-16.04546 -15.190709,-41.02497 -3.074731,-57.058069 2.031405,-2.688009 3.436546,-5.311182 6.093642,-9.079461 -1.290402,-0.173593 -1.512222,-0.19562 -2.17897,0.02693 z"
         id="path15"
         sodipodi:nodetypes="cccccccc" /></g><g
       id="g20"
       transform="matrix(-1,0,0,1,255.74772,0)"><path
         style="color:#000000;fill:#12ff00;stroke-linecap:round;stroke-linejoin:round;-inkscape-stroke:none"
         d="m 27.519531,70.5 a 6.0999999,6.0999999 0 0 0 -4.242187,1.947266 C -1.5889773,99.252592 -3.0661801,146.81044 22.888672,175.38086 a 6.0999999,6.0999999 0 0 0 8.617187,0.41211 6.0999999,6.0999999 0 0 0 0.41211,-8.61524 C 10.823641,143.95765 12.27024,102.25028 32.220703,80.744141 A 6.0999999,6.0999999 0 0 0 31.896484,72.123047 6.0999999,6.0999999 0 0 0 27.519531,70.5 Z"
         id="path17" /><path
         style="color:#000000;fill:#fffffe;fill-opacity:0.658588;stroke-linecap:round;stroke-linejoin:round;-inkscape-stroke:none"
         d="m 27.519531,70.5 c -1.616304,0.061 -3.142213,0.761426 -4.242187,1.947266 -24.8663213,26.805326 -26.3435241,74.363174 -0.388672,102.933594 2.265709,2.4935 6.123863,2.67801 8.617187,0.41211 -4.122703,-1.86462 -4.405942,-2.91494 -6.670533,-5.40801 C 3.7409985,147.16488 6.1230408,101.34825 24.068983,79.441202 26.360294,76.971094 27.284208,73.41182 27.620172,72.858038 28.459203,71.475033 29.136006,70.439269 27.519531,70.5 Z"
         id="path18"
         sodipodi:nodetypes="ccccccsc" /><path
         style="color:#000000;fill:#12ff00;stroke-linecap:round;stroke-linejoin:round;-inkscape-stroke:none"
         d="m 44.328125,88.169922 a 6.0999999,6.0999999 0 0 0 -4.025391,2.365234 C 25.084292,110.67375 25.264639,137.53831 40.435547,157.62305 a 6.0999999,6.0999999 0 0 0 8.542969,1.1914 6.0999999,6.0999999 0 0 0 1.191406,-8.54297 C 38.050057,134.22602 37.919178,113.92372 50.035156,97.890625 a 6.0999999,6.0999999 0 0 0 -1.189453,-8.544922 6.0999999,6.0999999 0 0 0 -4.517578,-1.175781 z"
         id="path19" /><path
         style="color:#000000;fill:#ffffff;fill-opacity:0.679663;stroke-linecap:round;stroke-linejoin:round;-inkscape-stroke:none"
         d="m 44.328125,88.169922 c -1.602362,0.223402 -3.050344,1.074205 -4.025391,2.365234 -15.218442,20.138594 -15.038095,47.003154 0.132813,67.087894 2.030306,2.68769 1.64529,1.95152 4.266657,2.3273 2.687689,-2.03031 0.815626,-2.98164 -1.21402,-5.66983 -12.119865,-16.04546 -15.190709,-41.02497 -3.074731,-57.058069 2.031405,-2.688009 3.436546,-5.311182 6.093642,-9.079461 -1.290402,-0.173593 -1.512222,-0.19562 -2.17897,0.02693 z"
         id="path20"
         sodipodi:nodetypes="cccccccc" /></g></g></svg>
