<?xml version="1.0" encoding="UTF-8" standalone="no"?>
<!-- Created with Inkscape (http://www.inkscape.org/) -->

<svg
   version="1.1"
   id="svg1"
   width="341.33334"
   height="341.33334"
   viewBox="0 0 341.33334 341.33334"
   sodipodi:docname="rating-unrated.svg"
   inkscape:version="1.3.2 (091e20ef0f, 2023-11-25)"
   xml:space="preserve"
   xmlns:inkscape="http://www.inkscape.org/namespaces/inkscape"
   xmlns:sodipodi="http://sodipodi.sourceforge.net/DTD/sodipodi-0.dtd"
   xmlns:xlink="http://www.w3.org/1999/xlink"
   xmlns="http://www.w3.org/2000/svg"
   xmlns:svg="http://www.w3.org/2000/svg"><sodipodi:namedview
     id="namedview1"
     pagecolor="#ffffff"
     bordercolor="#000000"
     borderopacity="0.25"
     inkscape:showpageshadow="2"
     inkscape:pageopacity="0.0"
     inkscape:pagecheckerboard="0"
     inkscape:deskcolor="#d1d1d1"
     inkscape:current-layer="svg1"
     showguides="true"><sodipodi:guide
       position="179.85053,213.14201"
       orientation="0,-1"
       id="guide1"
       inkscape:locked="false" /><sodipodi:guide
       position="207.4021,9.5665174"
       orientation="0,-1"
       id="guide2"
       inkscape:locked="false" /></sodipodi:namedview><defs
     id="defs1"><linearGradient
       id="linearGradient17"
       inkscape:collect="always"><stop
         style="stop-color:#000000;stop-opacity:0;"
         offset="0"
         id="stop12" /><stop
         style="stop-color:#969696;stop-opacity:0.55538923;"
         offset="1"
         id="stop17" /></linearGradient><linearGradient
       id="linearGradient70"
       inkscape:collect="always"><stop
         style="stop-color:#eef5fa;stop-opacity:0.58481003;"
         offset="0"
         id="stop70" /><stop
         style="stop-color:#eef5fa;stop-opacity:0.29019608;"
         offset="0.25732821"
         id="stop72" /><stop
         style="stop-color:#000000;stop-opacity:0.20209581;"
         offset="1"
         id="stop71" /></linearGradient><linearGradient
       id="linearGradient63"
       inkscape:collect="always"><stop
         style="stop-color:#000000;stop-opacity:0.57934129;"
         offset="0"
         id="stop64" /><stop
         style="stop-color:#000000;stop-opacity:0.42365271;"
         offset="1"
         id="stop65" /></linearGradient><linearGradient
       id="linearGradient54"
       inkscape:collect="always"><stop
         style="stop-color:#eff6fa;stop-opacity:1;"
         offset="0"
         id="stop55" /><stop
         style="stop-color:#eff5f9;stop-opacity:1;"
         offset="0.04615877"
         id="stop57" /><stop
         style="stop-color:#dee4e8;stop-opacity:0.23529412;"
         offset="0.24875091"
         id="stop58" /><stop
         style="stop-color:#dbe1e5;stop-opacity:0.11764706;"
         offset="0.28872013"
         id="stop59" /><stop
         style="stop-color:#e6ecf0;stop-opacity:0.26283988;"
         offset="0.39681181"
         id="stop61" /><stop
         style="stop-color:#e0e6ea;stop-opacity:0.24705882;"
         offset="0.51707113"
         id="stop63" /><stop
         style="stop-color:#dae0e4;stop-opacity:0;"
         offset="0.72301316"
         id="stop62" /><stop
         style="stop-color:#e4e9ed;stop-opacity:0.17522658;"
         offset="0.79999965"
         id="stop60" /><stop
         style="stop-color:#d9dfe3;stop-opacity:0;"
         offset="1"
         id="stop56" /></linearGradient><linearGradient
       id="linearGradient52"
       inkscape:collect="always"><stop
         style="stop-color:#faf9f8;stop-opacity:0.65861028;"
         offset="0"
         id="stop52" /><stop
         style="stop-color:#faf9f9;stop-opacity:0.38066465;"
         offset="0.64093214"
         id="stop54" /><stop
         style="stop-color:#fafafa;stop-opacity:0;"
         offset="1"
         id="stop53" /></linearGradient><linearGradient
       id="linearGradient51"
       inkscape:collect="always"><stop
         style="stop-color:#b7b7b6;stop-opacity:1;"
         offset="0"
         id="stop49" /><stop
         style="stop-color:#656566;stop-opacity:1;"
         offset="0.1918748"
         id="stop50" /><stop
         style="stop-color:#505151;stop-opacity:1;"
         offset="1"
         id="stop51" /></linearGradient><linearGradient
       id="linearGradient38"
       inkscape:collect="always"><stop
         style="stop-color:#000000;stop-opacity:0;"
         offset="0"
         id="stop39" /><stop
         style="stop-color:#000000;stop-opacity:0.66167665;"
         offset="0.03876624"
         id="stop44" /><stop
         style="stop-color:#000000;stop-opacity:0.54341316;"
         offset="0.375"
         id="stop45" /><stop
         style="stop-color:#000000;stop-opacity:0.48502994;"
         offset="0.5"
         id="stop41" /><stop
         style="stop-color:#000000;stop-opacity:0.42215568;"
         offset="0.64786911"
         id="stop42" /><stop
         style="stop-color:#040400;stop-opacity:0.34730539;"
         offset="0.84748828"
         id="stop43" /><stop
         style="stop-color:#000000;stop-opacity:0;"
         offset="1"
         id="stop40" /></linearGradient><linearGradient
       id="linearGradient36"
       inkscape:collect="always"><stop
         style="stop-color:#000000;stop-opacity:0.44311377;"
         offset="0"
         id="stop34" /><stop
         style="stop-color:#cacdd1;stop-opacity:0.57485032;"
         offset="0.03739791"
         id="stop46" /><stop
         style="stop-color:#a4abb5;stop-opacity:0.61526948;"
         offset="0.05467112"
         id="stop35" /><stop
         style="stop-color:#060606;stop-opacity:0.43712574;"
         offset="0.15658833"
         id="stop37" /><stop
         style="stop-color:#030303;stop-opacity:0.502994;"
         offset="0.5393784"
         id="stop48" /><stop
         style="stop-color:#000000;stop-opacity:0.32634729;"
         offset="0.60484868"
         id="stop47" /><stop
         style="stop-color:#030303;stop-opacity:0.38023952;"
         offset="0.8730495"
         id="stop38" /><stop
         style="stop-color:#030303;stop-opacity:0.80239522;"
         offset="1"
         id="stop36" /></linearGradient><linearGradient
       id="linearGradient31"
       inkscape:collect="always"><stop
         style="stop-color:#020202;stop-opacity:0.47005987;"
         offset="0"
         id="stop27" /><stop
         style="stop-color:#060606;stop-opacity:0.50149703;"
         offset="0.0553999"
         id="stop33" /><stop
         style="stop-color:#030303;stop-opacity:0.14221556;"
         offset="0.22308932"
         id="stop32" /><stop
         style="stop-color:#040404;stop-opacity:0.49401197;"
         offset="0.46875191"
         id="stop28" /><stop
         style="stop-color:#020202;stop-opacity:0.31586826;"
         offset="0.89167356"
         id="stop30" /><stop
         style="stop-color:#000000;stop-opacity:0.50898206;"
         offset="1"
         id="stop31" /></linearGradient><linearGradient
       id="linearGradient26"
       inkscape:collect="always"><stop
         style="stop-color:#a19f9e;stop-opacity:0;"
         offset="0"
         id="stop23" /><stop
         style="stop-color:#8c8c8b;stop-opacity:1;"
         offset="0.07910994"
         id="stop24" /><stop
         style="stop-color:#7e7d7c;stop-opacity:1;"
         offset="0.88607508"
         id="stop25" /><stop
         style="stop-color:#757472;stop-opacity:0;"
         offset="1"
         id="stop26" /></linearGradient><linearGradient
       id="linearGradient20"
       inkscape:collect="always"><stop
         style="stop-color:#000000;stop-opacity:0;"
         offset="0"
         id="stop19" /><stop
         style="stop-color:#000000;stop-opacity:0.26347306;"
         offset="0.28628862"
         id="stop21" /><stop
         style="stop-color:#000000;stop-opacity:0.46407187;"
         offset="0.89454973"
         id="stop22" /><stop
         style="stop-color:#000000;stop-opacity:0;"
         offset="1"
         id="stop20" /></linearGradient><linearGradient
       id="linearGradient18"
       inkscape:collect="always"><stop
         style="stop-color:#000000;stop-opacity:0.21556886;"
         offset="0"
         id="stop13" /><stop
         style="stop-color:#000000;stop-opacity:0.38473055;"
         offset="0.03100554"
         id="stop14" /><stop
         style="stop-color:#000000;stop-opacity:0.49101797;"
         offset="0.0710718"
         id="stop15" /><stop
         style="stop-color:#000000;stop-opacity:0.14670658;"
         offset="0.17141011"
         id="stop16" /><stop
         style="stop-color:#000000;stop-opacity:0.51497006;"
         offset="1"
         id="stop18" /></linearGradient><linearGradient
       id="linearGradient9"
       inkscape:collect="always"><stop
         style="stop-color:#000000;stop-opacity:0.57784432;"
         offset="0"
         id="stop10" /><stop
         style="stop-color:#000000;stop-opacity:0;"
         offset="1"
         id="stop11" /></linearGradient><linearGradient
       id="linearGradient6"
       inkscape:collect="always"><stop
         style="stop-color:#000000;stop-opacity:0.24401198;"
         offset="0"
         id="stop4" /><stop
         style="stop-color:#000000;stop-opacity:0.54640716;"
         offset="0.03100554"
         id="stop9" /><stop
         style="stop-color:#000000;stop-opacity:0.88173652;"
         offset="0.0710718"
         id="stop8" /><stop
         style="stop-color:#000000;stop-opacity:0.40718561;"
         offset="0.28350526"
         id="stop7" /><stop
         style="stop-color:#020202;stop-opacity:0.39970061;"
         offset="0.5"
         id="stop5" /><stop
         style="stop-color:#000000;stop-opacity:0.83832335;"
         offset="1"
         id="stop6" /></linearGradient><linearGradient
       id="linearGradient1"
       inkscape:collect="always"><stop
         style="stop-color:#000000;stop-opacity:0.69161677;"
         offset="0"
         id="stop1" /><stop
         style="stop-color:#000000;stop-opacity:0.43113771;"
         offset="0.5"
         id="stop3" /><stop
         style="stop-color:#000000;stop-opacity:0.68862277;"
         offset="1"
         id="stop2" /></linearGradient><linearGradient
       inkscape:collect="always"
       xlink:href="#linearGradient1"
       id="linearGradient2"
       x1="58.270004"
       y1="132.16832"
       x2="129.14143"
       y2="136.90349"
       gradientUnits="userSpaceOnUse" /><linearGradient
       inkscape:collect="always"
       xlink:href="#linearGradient6"
       id="linearGradient3"
       gradientUnits="userSpaceOnUse"
       x1="152.52339"
       y1="50.59951"
       x2="178.47031"
       y2="145.1837" /><linearGradient
       inkscape:collect="always"
       xlink:href="#linearGradient9"
       id="linearGradient11"
       x1="165.40689"
       y1="128.67751"
       x2="169.34924"
       y2="142.62982"
       gradientUnits="userSpaceOnUse" /><linearGradient
       inkscape:collect="always"
       xlink:href="#linearGradient20"
       id="linearGradient12"
       gradientUnits="userSpaceOnUse"
       x1="227.49519"
       y1="189.19794"
       x2="185.57745"
       y2="137.29903" /><linearGradient
       inkscape:collect="always"
       xlink:href="#linearGradient18"
       id="linearGradient13"
       gradientUnits="userSpaceOnUse"
       x1="224.13387"
       y1="178.149"
       x2="209.98758"
       y2="147.42604" /><linearGradient
       inkscape:collect="always"
       xlink:href="#linearGradient26"
       id="linearGradient22"
       gradientUnits="userSpaceOnUse"
       x1="250.10541"
       y1="162.53906"
       x2="255.92035"
       y2="191.90442" /><linearGradient
       inkscape:collect="always"
       xlink:href="#linearGradient31"
       id="linearGradient23"
       gradientUnits="userSpaceOnUse"
       x1="204.1452"
       y1="181.24458"
       x2="212.60666"
       y2="202.15903" /><linearGradient
       inkscape:collect="always"
       xlink:href="#linearGradient36"
       id="linearGradient33"
       gradientUnits="userSpaceOnUse"
       x1="220.95702"
       y1="198.69969"
       x2="248.23543"
       y2="285.41864" /><linearGradient
       inkscape:collect="always"
       xlink:href="#linearGradient38"
       id="linearGradient40"
       x1="209.39928"
       y1="200.30798"
       x2="230.35732"
       y2="288.07693"
       gradientUnits="userSpaceOnUse" /><linearGradient
       inkscape:collect="always"
       xlink:href="#linearGradient51"
       id="linearGradient48"
       gradientUnits="userSpaceOnUse"
       x1="100.12695"
       y1="258.23743"
       x2="153.05968"
       y2="227.09521" /><radialGradient
       inkscape:collect="always"
       xlink:href="#linearGradient52"
       id="radialGradient53"
       cx="75.474709"
       cy="187.09016"
       fx="75.474709"
       fy="187.09016"
       r="10.624742"
       gradientTransform="matrix(0.28181999,-0.0500106,-0.01235154,0.11699183,59.173538,178.62939)"
       gradientUnits="userSpaceOnUse" /><linearGradient
       inkscape:collect="always"
       xlink:href="#linearGradient54"
       id="linearGradient56"
       x1="152.83884"
       y1="46.51532"
       x2="257.25412"
       y2="174.5776"
       gradientUnits="userSpaceOnUse" /><radialGradient
       inkscape:collect="always"
       xlink:href="#linearGradient63"
       id="radialGradient65"
       cx="162.22157"
       cy="188.43127"
       fx="162.22157"
       fy="188.43127"
       r="97.303504"
       gradientTransform="matrix(1.0665738,0.63501119,-0.64452752,1.0825575,107.3819,-122.45666)"
       gradientUnits="userSpaceOnUse" /><radialGradient
       inkscape:collect="always"
       xlink:href="#linearGradient70"
       id="radialGradient71"
       cx="112.03632"
       cy="155.73775"
       fx="112.03632"
       fy="155.73775"
       r="97.303506"
       gradientTransform="matrix(2.1215781,-1.2641185,0.36749264,0.61676528,-201.99656,241.30537)"
       gradientUnits="userSpaceOnUse" /><linearGradient
       inkscape:collect="always"
       xlink:href="#linearGradient17"
       id="linearGradient4"
       x1="136.51547"
       y1="136.09607"
       x2="180.92348"
       y2="215.19676"
       gradientUnits="userSpaceOnUse" /></defs><g
     id="g54"
     style="display:inline"
     inkscape:label="star"
     transform="matrix(1.7790675,-0.24151548,0,1.4184951,-104.80221,-32.705689)"><g
       id="g7"
       transform="matrix(0.80140015,-0.03381396,0,1,20.723072,3.5283468)"><path
         style="color:#000000;display:inline;fill:#000000;fill-opacity:0.0421496;stroke-width:0.669152;stroke-linecap:round;stroke-linejoin:round;stroke-miterlimit:9.6;-inkscape-stroke:none"
         d="m 202.50342,229.03402 c 0.96054,0.31739 1.86725,0.34544 2.93754,-0.13655 l 44.03698,-27.44469 c 6.87749,-3.05898 6.42406,0.15344 5.91431,1.21046 -4.35386,9.02816 -10.13132,25.07999 -11.44088,31.49292 -0.44138,0.60324 -0.75571,1.21683 0.36117,1.56808 5.97137,1.8779 23.74624,-2.35924 37.77302,1.88637 1.98356,0.60039 -0.41888,2.65343 -3.86197,3.93375 -1.88879,0.70235 -33.74796,8.41815 -33.74796,8.41815 -1.38537,0.0672 -2.21514,0.48798 -2.55227,1.06201 l 7.30702,50.01696 c 0.62528,4.28007 -6.57399,4.8741 -7.83311,1.50544 l -44.63237,-47.20258 -1.92227,-1.89142 -87.6817,11.17192 c -3.72622,0.26288 -4.02496,-1.71431 0.75104,-4.49713 l 62.88312,-19.61695 -2.05785,-26.11791 c -0.19914,-1.16229 -3.54325,-11.17172 2.24281,-9.34125 z"
         id="path2"
         inkscape:label="shadow"
         sodipodi:nodetypes="cccscsssccsccccccccc" /><path
         style="color:#000000;display:inline;fill:#000000;fill-opacity:0.0295048;stroke-width:0.626883;stroke-linecap:round;stroke-linejoin:round;stroke-miterlimit:9.6;-inkscape-stroke:none"
         d="m 203.40178,230.23533 c 0.89987,0.29734 1.7493,0.32361 2.75198,-0.12793 l 41.5289,-26.48965 c 6.44306,-2.86575 6.01827,0.14375 5.54072,1.134 -4.07883,8.45786 -9.765,24.27432 -10.99184,30.28216 -0.4135,0.56514 -0.70797,1.13997 0.33835,1.46903 5.59417,1.75927 21.47221,-2.16519 34.61294,1.81224 1.85826,0.56246 -0.39242,2.48581 -3.61802,3.68526 -1.76948,0.65798 -30.84213,7.84136 -30.84213,7.84136 -1.29785,0.063 -2.07521,0.45716 -2.39104,0.99492 l 7.8157,47.97289 c 0.65337,4.01037 -6.15872,4.56621 -7.3383,1.41034 l -42.78328,-45.33628 -1.80085,-1.77194 -82.14301,10.46621 c -3.49083,0.24627 -3.7707,-1.60602 0.70361,-4.21306 l 58.9109,-18.37778 -1.92785,-24.46809 c -0.18657,-1.08887 -3.31943,-10.46602 2.10113,-8.75118 z"
         id="path4"
         inkscape:label="shadow"
         sodipodi:nodetypes="cccscsssccsccccccccc" /><path
         style="color:#000000;display:inline;fill:#000000;fill-opacity:0.0305585;stroke-width:0.57794;stroke-linecap:round;stroke-linejoin:round;stroke-miterlimit:9.6;-inkscape-stroke:none"
         d="m 203.19682,231.46824 c 0.82962,0.27412 1.61273,0.29834 2.53713,-0.11795 l 38.62481,-25.38381 c 5.94002,-2.64201 5.5484,0.13253 5.10813,1.04547 -3.76038,7.79752 -9.34084,23.34144 -10.4719,28.88022 -0.38121,0.52102 -0.65269,1.05097 0.31194,1.35434 5.15741,1.62192 18.8391,-1.94049 30.95389,1.7264 1.71317,0.51855 -0.36179,2.29174 -3.33555,3.39754 -1.63133,0.60661 -27.47748,7.1735 -27.47748,7.1735 -1.19652,0.0581 -1.91319,0.42147 -2.20437,0.91724 l 8.40471,45.60607 c 0.68122,3.69644 -5.67789,4.20971 -6.76537,1.30023 l -40.64223,-43.17531 -1.66025,-1.63359 -75.72978,9.64907 c -3.21829,0.22704 -3.47631,-1.48063 0.64867,-3.88413 l 54.3115,-16.94296 -1.77734,-22.55777 c -0.172,-1.00385 -3.06027,-9.64889 1.93709,-8.06794 z"
         id="path5"
         inkscape:label="shadow"
         sodipodi:nodetypes="cccscsssccsccccccccc" /><path
         style="color:#000000;display:inline;fill:#000000;fill-opacity:0.0273972;stroke-width:0.524293;stroke-linecap:round;stroke-linejoin:round;stroke-miterlimit:9.6;-inkscape-stroke:none"
         d="m 202.97216,232.81965 c 0.75262,0.24867 1.46303,0.27064 2.30162,-0.107 l 35.4416,-24.17168 c 5.38864,-2.39677 5.03337,0.12022 4.63397,0.94842 -3.41133,7.07371 -8.87592,22.31889 -9.90199,27.34354 -0.34583,0.47265 -0.59211,0.95341 0.28298,1.22862 4.67867,1.47136 15.95292,-1.6942 26.94315,1.63231 1.55414,0.47042 -0.32821,2.07901 -3.02593,3.08216 -1.4799,0.55031 -23.78943,6.44145 -23.78943,6.44145 -1.08546,0.0527 -1.7356,0.38235 -1.99975,0.8321 l 9.05033,43.01176 c 0.70493,3.35018 -5.15084,3.81894 -6.13738,1.17953 l -38.29539,-40.80663 -1.50613,-1.48195 -68.70014,8.75339 c -2.91955,0.20597 -3.15362,-1.34319 0.58846,-3.52358 l 49.27001,-15.37023 -1.61235,-20.46383 c -0.15604,-0.91067 -2.7762,-8.75323 1.75727,-7.31904 z"
         id="path6"
         inkscape:label="shadow"
         sodipodi:nodetypes="cccscsssccsccccccccc" /><path
         style="color:#000000;display:inline;fill:#000000;fill-opacity:0.0231823;stroke-width:0.479799;stroke-linecap:round;stroke-linejoin:round;stroke-miterlimit:9.6;-inkscape-stroke:none"
         d="m 202.78584,233.94047 c 0.68875,0.22757 1.33887,0.24768 2.10629,-0.0979 l 32.80152,-23.16637 c 4.93134,-2.19337 4.60622,0.11002 4.24071,0.86794 -3.12183,6.4734 -8.49032,21.47081 -9.42932,26.06905 -0.31648,0.43254 -0.54186,0.8725 0.25897,1.12435 4.28162,1.3465 13.55919,-1.48993 23.61674,1.55428 1.42225,0.4305 -0.30036,1.90258 -2.76914,2.82059 -1.3543,0.50361 -20.73066,5.83431 -20.73066,5.83431 -0.99334,0.0482 -1.58831,0.3499 -1.83004,0.76148 l 9.58579,40.86011 c 0.71817,3.06123 -4.71372,3.49484 -5.61653,1.07943 l -36.34898,-38.84211 -1.37832,-1.35619 -62.86993,8.01054 c -2.67178,0.18849 -2.88599,-1.2292 0.53852,-3.22455 l 45.08873,-14.06585 -1.47551,-18.72717 c -0.1428,-0.83339 -2.5406,-8.01039 1.60814,-6.69792 z"
         id="path7"
         inkscape:label="shadow"
         sodipodi:nodetypes="cccscsssccsccccccccc" /></g><g
       id="g3"
       style="display:inline"
       inkscape:label="3d"><path
         id="rect1"
         style="display:inline;fill:url(#linearGradient2);fill-opacity:1;stroke:#040301;stroke-width:0.49;stroke-linecap:round;stroke-linejoin:round;stroke-miterlimit:9.6;stroke-dasharray:none;stroke-opacity:0.42759562"
         d="m 79.573909,122.67084 c 8.960763,1.34179 50.491931,7.68269 50.491931,7.68269 l -1.04898,3.66307 -63.337653,-10.87444 c 0,0 -1.579784,-2.78849 13.894702,-0.47132 z"
         sodipodi:nodetypes="scccs" /><path
         id="path3"
         style="display:inline;fill:url(#linearGradient3);fill-opacity:1;stroke:url(#linearGradient11);stroke-width:0.99;stroke-linecap:round;stroke-linejoin:round;stroke-miterlimit:9.6;stroke-dasharray:none;stroke-opacity:0.994937"
         d="m 157.28911,53.614964 c 4.44681,9.732956 26.11046,86.347986 26.11046,86.347986 l -4.40074,3.30541 -23.27474,-87.742259 c 0.0255,-0.905675 -1.05028,-2.877323 -2.27973,-3.594945 l 0.99108,-0.489512 c 0,0 1.95073,0.197 2.85367,2.17332 z"
         sodipodi:nodetypes="scccccs" /><path
         id="path11"
         style="display:inline;fill:url(#linearGradient13);fill-opacity:1;stroke:url(#linearGradient12);stroke-width:0.99;stroke-linecap:round;stroke-linejoin:round;stroke-miterlimit:9.6;stroke-dasharray:none;stroke-opacity:0.994937"
         d="m 244.22021,151.33477 c -19.79125,-2.79576 -60.82064,-11.37182 -60.82064,-11.37182 l -4.40074,3.30541 c 0,0 41.20807,6.70616 65.74258,10.84328 2.25802,0.38076 3.50224,2.3399 3.66708,4.55847 -0.81358,6.96593 0.0884,4.95552 1.90536,-1.84275 0,0 -2.3949,-4.9701 -6.09364,-5.49259 z"
         sodipodi:nodetypes="sccsccs" /><path
         id="path22"
         style="display:inline;fill:url(#linearGradient23);fill-opacity:1;stroke:url(#linearGradient22);stroke-width:0.99;stroke-linecap:round;stroke-linejoin:round;stroke-miterlimit:9.6;stroke-dasharray:none;stroke-opacity:0.994937"
         d="m 246.96036,166.3171 c -10.07047,9.58523 -47.58937,39.43439 -47.58937,39.43439 l -2.49576,-2.59408 c 0,0 46.12875,-38.23398 49.2365,-40.45015 1.8644,-1.32952 2.59907,-3.1725 2.35904,-4.78459 l 1.71851,-1.51778 c 0.99872,2.65423 -0.19687,7.02625 -3.22892,9.91221 z"
         sodipodi:nodetypes="sccsccs" /><path
         id="path33"
         style="display:inline;fill:url(#linearGradient33);fill-opacity:1;stroke:url(#linearGradient40);stroke-width:0.99;stroke-linecap:round;stroke-linejoin:round;stroke-miterlimit:9.6;stroke-dasharray:none"
         d="m 199.66214,207.09779 c -0.89447,-2.16748 -0.6065,-3.68597 -0.34261,-5.19151 l -1.31894,0.6155 c -3.81919,1.79688 -2.32599,3.76478 -1.88418,6.12443 l 20.31565,87.37218 c 3.76616,-1.4193 -1.36243,0.0154 1.85246,-1.61479 2.41206,-1.22308 1.7129,-4.67743 0.91467,-8.21783 z"
         sodipodi:nodetypes="cccccscc" /><path
         id="path48"
         style="display:inline;fill:url(#linearGradient48);fill-opacity:1;stroke:#fab445;stroke-width:0.49;stroke-linecap:round;stroke-linejoin:round;stroke-miterlimit:9.6;stroke-dasharray:none;stroke-opacity:0.994937"
         d="m 100.44778,274.31761 c 8.55409,-4.81688 53.29706,-43.58805 53.29706,-43.58805 l 3.55037,3.32013 c -20.75949,12.19711 -51.26231,47.1163 -55.38587,42.08335 0,0 -5.24813,0.31681 -1.46156,-1.81543 z"
         sodipodi:nodetypes="scccs" /><path
         id="path51"
         style="fill:url(#radialGradient53);stroke-width:0.943204;stroke-linecap:round;stroke-linejoin:round;stroke-miterlimit:9.6;stroke-opacity:0.994937"
         transform="matrix(0.95297407,-0.30305184,0.54571858,0.83796851,0,0)"
         d="m 80.296496,196.03889 c -7e-6,0.70312 4.73739,2.78203 -1.130488,2.78203 -5.867878,0 -10.624735,-0.56999 -10.624742,-1.2731 7e-6,-0.70311 4.174813,-2.48875 10.042691,-2.48875 5.867877,0 1.712532,0.27671 1.712539,0.97982 z"
         sodipodi:nodetypes="sssss" /></g><path
       style="color:#000000;fill:#f5f5f5;fill-opacity:0.55327868;stroke-linecap:round;stroke-linejoin:round;stroke-miterlimit:9.6;-inkscape-stroke:none"
       d="m 126.55228,132.95588 c 1.36962,0.28196 2.31249,0.0507 2.76155,-1.16567 l 19.61464,-76.105535 c 2.93481,-7.746412 6.94139,-1.579767 7.47446,0.373723 7.2395,26.529745 13.94093,54.423722 22.08101,84.317852 0.33613,1.24245 0.81265,2.46429 2.38225,2.75952 8.39177,1.57844 45.16128,7.80307 64.66018,11.20754 2.75739,0.48144 3.00109,4.9906 1.20819,8.40876 -0.98354,1.87511 -49.47129,40.3039 -49.47129,40.3039 -1.29876,0.55484 -1.58619,1.58419 -1.18346,2.74063 l 20.34079,83.48038 c 1.61562,6.63063 -0.29182,10.97638 -5.89277,5.19876 l -52.94145,-58.96819 -4.3601,-2.8652 -49.54422,42.81558 c -3.3874,1.64287 -6.234515,-1.88544 -5.045254,-8.47105 L 114.85742,187.67106 63.532846,130.67835 c -1.697206,-2.06681 -1.647929,-8.91431 6.497399,-7.36499 z"
       id="path67"
       inkscape:label="colorhead"
       sodipodi:nodetypes="cccccssscccccccccccc" /><path
       id="path1"
       style="display:inline;fill:url(#linearGradient4);fill-opacity:0.941176;stroke-width:0.99;stroke-linecap:round;stroke-linejoin:round;stroke-miterlimit:9.6;stroke-opacity:0.994937"
       d="m 126.55228,132.95588 c 1.36962,0.28196 2.31249,0.0507 2.76155,-1.16567 l 20.05065,-75.980961 c 2.93481,-7.746412 6.50538,-1.704341 7.03845,0.249149 7.2395,26.529745 13.94093,54.423722 22.08101,84.317852 0.33613,1.24245 0.81265,2.46429 2.38225,2.75952 8.39177,1.57844 45.16128,7.80307 64.66018,11.20754 2.75739,0.48144 3.00109,4.9906 1.20819,8.40876 -0.98354,1.87511 -49.47129,40.3039 -49.47129,40.3039 -1.29876,0.55484 -1.58619,1.58419 -1.18346,2.74063 l 20.34079,83.48038 c 1.61562,6.63063 -0.29182,10.97638 -5.89277,5.19876 l -52.94145,-58.96819 -4.3601,-2.8652 -49.54422,42.81558 c -3.3874,1.64287 -6.234515,-1.88544 -5.045254,-8.47105 L 114.85742,187.67106 63.532846,130.67835 c -1.697206,-2.06681 -1.647929,-8.91431 6.497399,-7.36499 z"
       sodipodi:nodetypes="cccscsssccsccccccccc"
       inkscape:label="yellowdark" /><path
       id="path63"
       style="display:inline;fill:url(#radialGradient65);fill-opacity:0.941176;stroke-width:0.99;stroke-linecap:round;stroke-linejoin:round;stroke-miterlimit:9.6;stroke-opacity:0.994937"
       d="m 126.55228,132.95588 c 1.36962,0.28196 2.31249,0.0507 2.76155,-1.16567 l 20.05065,-75.980961 c 2.93481,-7.746412 6.50538,-1.704341 7.03845,0.249149 7.2395,26.529745 13.94093,54.423722 22.08101,84.317852 0.33613,1.24245 0.81265,2.46429 2.38225,2.75952 8.39177,1.57844 45.16128,7.80307 64.66018,11.20754 2.75739,0.48144 3.00109,4.9906 1.20819,8.40876 -0.98354,1.87511 -49.47129,40.3039 -49.47129,40.3039 -1.29876,0.55484 -1.58619,1.58419 -1.18346,2.74063 l 20.34079,83.48038 c 1.61562,6.63063 -0.29182,10.97638 -5.89277,5.19876 l -52.94145,-58.96819 -4.3601,-2.8652 -49.54422,42.81558 c -3.3874,1.64287 -6.234515,-1.88544 -5.045254,-8.47105 L 114.85742,187.67106 63.532846,130.67835 c -1.697206,-2.06681 -1.647929,-8.91431 6.497399,-7.36499 z"
       sodipodi:nodetypes="cccscsssccsccccccccc"
       inkscape:label="yellowlight" /><path
       id="path54"
       style="display:inline;fill:url(#linearGradient56);stroke-width:0.99;stroke-linecap:round;stroke-linejoin:round;stroke-miterlimit:9.6;stroke-opacity:0.994937"
       d="m 126.55228,132.95588 c 1.36962,0.28196 2.31249,0.0507 2.76155,-1.16567 l 19.55235,-76.167822 c 2.93481,-7.746412 6.94918,-1.509694 7.48225,0.443796 7.2395,26.529745 13.99543,54.415936 22.13551,84.310066 0.33613,1.24245 0.81265,2.46429 2.38225,2.75952 8.39177,1.57844 45.16128,7.80307 64.66018,11.20754 2.75739,0.48144 3.00109,4.9906 1.20819,8.40876 -0.98354,1.87511 -49.47129,40.3039 -49.47129,40.3039 -1.29876,0.55484 -1.58619,1.58419 -1.18346,2.74063 l 20.34079,83.48038 c 1.61562,6.63063 -0.29182,10.97638 -5.89277,5.19876 l -52.94145,-58.96819 -4.3601,-2.8652 -49.54422,42.81558 c -3.3874,1.64287 -6.234515,-1.88544 -5.045254,-8.47105 L 114.85742,187.67106 63.532846,130.67835 c -1.697206,-2.06681 -1.647929,-8.91431 6.497399,-7.36499 z"
       sodipodi:nodetypes="cccscsssccsccccccccc"
       inkscape:label="whiteshadow" /><g
       id="g66"
       inkscape:label="stripes"><path
         id="rect65"
         style="fill:#fafafa;fill-opacity:0.696203;stroke-width:0.99;stroke-linecap:round;stroke-linejoin:round;stroke-miterlimit:9.6;stroke-opacity:0.994937"
         d="m 213.68586,285.91479 -19.73879,-78.5298 c -0.87808,-2.52719 -0.12109,-3.68014 1.62238,-5.10906 0,0 49.09949,-38.71661 49.95519,-40.08545 3.1199,-4.99083 0.62472,-6.53268 -0.81244,-6.88042 l -64.32385,-10.75855 c -3.13546,-0.007 -2.90588,-2.32705 -3.56046,-4.03945 0,0 -14.72698,-53.408511 -21.96365,-82.313344 -1.26123,-5.037653 -2.74987,-4.342568 -3.32562,-1.885403 l -20.21701,78.925277 c -0.5846,2.03564 -1.78463,2.17765 -3.12549,1.88632 L 71.625626,127.08333 c -5.657254,-0.61352 -5.117987,1.42861 -2.605816,4.31628 l 45.97472,52.76642 c 1.7898,1.74347 4.16284,2.68499 2.34996,9.38215 l -16.32401,73.87298 c -0.7901,3.57555 -2.917285,6.47887 -1.581686,-0.0203 l 15.301086,-74.45678 c 1.51576,-5.54556 1.60424,-4.89714 -0.63615,-7.44963 L 66.641453,132.40613 c -3.776979,-3.75472 -2.635487,-8.85739 2.429642,-8.03796 l 58.530435,9.46901 c 0.79653,0.45071 1.55212,0.0211 2.23145,-2.04803 l 20.73133,-76.743551 c 0.79519,-2.943644 4.59407,-2.993637 6.12305,3.03588 l 21.17177,82.040231 c 0.87218,2.6317 2.00657,3.30636 3.7184,3.54245 l 64.85551,11.32043 c 1.88857,0.39873 1.57906,3.59342 0.16792,7.50863 -14.89412,16.71521 -33.19874,27.01688 -49.7983,40.52497 -1.61326,1.66528 -1.70502,3.09032 -1.09383,4.40437 l 19.73878,79.05832 c 0.25628,2.56898 0.91775,6.46266 -1.76175,-0.56609 z"
         sodipodi:nodetypes="cccscccscccccccsscccsccsscccccccc" /><path
         id="rect66"
         style="fill:#fafafa;fill-opacity:0.696203;stroke-width:0.99;stroke-linecap:round;stroke-linejoin:round;stroke-miterlimit:9.6;stroke-opacity:0.994937"
         d="m 150.54115,232.77061 c 2.11442,-1.5603 3.7957,-0.8761 4.45572,-0.14772 -0.78465,0.30504 -1.9513,-0.31778 -3.1766,0.64959 l -48.50692,41.0454 c -1.76538,0.92426 -3.30475,-0.37862 -2.62284,-0.67168 0.57694,-0.24794 1.47665,0.54122 2.07747,-0.0377 7.99038,-7.69917 47.77317,-40.83789 47.77317,-40.83789 z"
         sodipodi:nodetypes="ccccssc" /></g><path
       style="color:#000000;display:inline;fill:url(#radialGradient71);stroke-linecap:round;stroke-linejoin:round;stroke-miterlimit:9.6;-inkscape-stroke:none"
       d="m 126.55228,132.95588 c 1.36962,0.28196 2.31249,0.0507 2.76155,-1.16567 l 19.61464,-76.105535 c 2.93481,-7.746412 6.94139,-1.579767 7.47446,0.373723 7.2395,26.529745 13.94093,54.423722 22.08101,84.317852 0.33613,1.24245 0.81265,2.46429 2.38225,2.75952 8.39177,1.57844 45.16128,7.80307 64.66018,11.20754 2.75739,0.48144 3.0011,4.9906 1.20819,8.40876 -0.49177,0.93755 -3.45963,3.00707 -3.45963,3.00707 -48.81746,4.8358 -89.49715,6.02771 -133.82061,42.77079 l 5.4031,-20.85887 -51.324574,-56.99271 c -1.697206,-2.06681 -1.647929,-8.91431 6.497399,-7.36499 z"
       id="path69"
       inkscape:label="whiteheadshadow"
       sodipodi:nodetypes="cccccssscccccc" /><path
       style="color:#000000;display:inline;fill:#020202;fill-opacity:0.46174863;stroke-linecap:round;stroke-linejoin:round;stroke-miterlimit:9.6;-inkscape-stroke:none"
       d="m 152.4668,50.90625 c -0.57565,-0.02237 -1.17293,0.104622 -1.72461,0.4375 -1.10336,0.665757 -1.97207,1.938128 -2.74805,3.986328 -0.013,0.03452 -0.0241,0.06973 -0.0332,0.105469 l -19.5918,76.015623 c -0.14959,0.39931 -0.25498,0.47779 -0.44336,0.54883 -0.19098,0.072 -0.58434,0.0975 -1.17187,-0.0234 -0.011,-0.002 -0.0221,-0.004 -0.0332,-0.006 l -56.503903,-9.64062 c -0.0065,-0.001 -0.01107,-7.3e-4 -0.01758,-0.002 -2.160214,-0.40817 -3.888395,-0.2819 -5.236328,0.26562 -1.351994,0.54917 -2.278926,1.53643 -2.78125,2.62695 -1.004649,2.18104 -0.617221,4.63614 0.578125,6.0918 0.0095,0.012 0.01927,0.0237 0.0293,0.0352 l 50.974606,56.60351 -16.099081,78.8043 c -0.0044,0.0175 -0.0083,0.035 -0.01172,0.0527 -0.62498,3.46087 -0.244339,6.22526 0.955079,8.04883 0.599709,0.91178 1.436492,1.58437 2.419922,1.85937 0.98343,0.27501 2.06705,0.13668 3.08984,-0.35937 0.0391,-0.0184 0.0769,-0.0392 0.11328,-0.0625 l 47.29908,-41.40753 c 2.13393,-1.72225 5.09718,0.33674 6.36623,1.74697 l 51.84018,57.60739 c 1.00678,0.75639 2.29013,2.41783 3.39064,2.60818 1.20866,0.38712 2.72122,0.41185 3.43872,-0.46607 0.7175,-0.87795 1.35996,-1.28033 1.40296,-2.65305 0.043,-1.37272 -0.15561,-2.96342 -0.57617,-4.68945 l -20.3418,-83.48047 c -0.008,-0.0317 -0.0167,-0.0629 -0.0273,-0.0937 -0.14676,-0.42142 -0.13445,-0.70793 -0.0586,-0.90235 0.0759,-0.19441 0.22297,-0.38972 0.69141,-0.58984 0.0487,-0.0204 0.0957,-0.0445 0.14062,-0.0723 0,0 8.00934,-5.34335 21.41659,-16.94799 6.73829,-5.83233 13.3393,-10.35335 18.5195,-14.8854 2.56942,-2.24793 5.19447,-4.90313 6.88483,-6.09198 0.84518,-0.59443 1.40679,-1.30653 1.90703,-1.69465 0.25011,-0.19406 0.45488,-0.36078 0.62304,-0.51172 0.16817,-0.15093 0.28534,-0.19756 0.47266,-0.55468 0.98913,-1.88577 1.4202,-4.01896 1.21094,-5.88086 -0.10463,-0.93095 -0.37261,-1.806 -0.88281,-2.53125 -0.51021,-0.72525 -1.30257,-1.27989 -2.25,-1.44532 -19.49745,-3.40421 -56.29975,-9.63592 -64.64787,-11.20615 -0.55657,-0.10468 -0.79136,-0.29906 -1.02539,-0.625 -0.23403,-0.32593 -0.41764,-0.8261 -0.57617,-1.41211 v -0.002 c -8.1352,-29.87619 -14.83693,-57.7681 -22.08203,-84.318358 -0.18185,-0.666385 -0.56486,-1.45535 -1.11719,-2.269531 -0.55233,-0.814182 -1.26108,-1.631295 -2.18945,-2.160157 -0.46419,-0.26443 -1.01811,-0.436612 -1.59375,-0.458984 z m -0.69141,2.150391 c 0.48995,-0.295628 0.79012,-0.241809 1.29688,0.04687 0.50675,0.288683 1.08289,0.895515 1.52343,1.544921 0.44055,0.649407 0.75711,1.36347 0.8418,1.673829 7.23389,26.509178 14.50965,53.611609 22.6546,83.523619 0.17753,0.65604 0.40059,1.38777 0.88086,2.05664 0.48066,0.66941 1.26822,1.23329 2.28125,1.42383 8.4354,1.58665 44.87128,7.73302 64.3716,11.13774 0.43126,0.0753 1.51178,0.80757 1.76676,1.17001 0.25497,0.36244 0.29867,0.99759 0.37553,1.68137 0.008,1.81936 0.1524,3.66606 -1.54492,5.14439 -0.45539,0.35334 -0.8814,1.323 -1.71249,1.90752 -1.66219,1.16904 -4.33427,3.65823 -6.95827,5.79317 -5.27589,4.29258 -12.4902,10.12175 -19.11267,15.55049 -13.6408,11.18198 -21.27078,17.29254 -21.27078,17.29254 l 0.14257,-0.0742 c -0.83032,0.35472 -1.47766,0.95309 -1.76953,1.70117 -0.29187,0.74808 -0.22277,1.55209 0.0332,2.28711 l -0.0274,-0.0918 20.61766,82.45411 c 0.38724,1.58927 0.55481,3.02787 0.51953,4.15429 -0.0353,1.12642 -0.30498,1.91341 -0.5625,2.22851 -0.25752,0.31512 -1.10503,0.63298 -1.7788,0.41718 -0.67377,-0.2158 -1.76077,-0.92173 -3.09766,-2.30078 l -51.79484,-57.429 c -0.36555,-0.40531 -1.42685,-1.66857 -2.32865,-2.27015 -1.06574,-0.71094 -2.25297,-1.50544 -3.53407,-1.51048 -0.49785,-0.002 -1.04475,0.35743 -1.37795,0.57616 l -48.98349,41.8692 c -0.66021,0.31505 -1.1996,-0.0956 -1.66016,-0.22439 -0.46595,-0.1303 -0.90223,-0.44311 -1.28906,-1.03125 -0.773113,-1.17542 -1.763665,-2.03598 -1.201264,-5.15724 L 115.26847,188.1885 c 0.0758,-0.31977 -0.0104,-0.65636 -0.23047,-0.90039 L 64.306641,130.04297 c -0.501859,-0.61115 -0.940613,-2.6123 -0.308594,-3.98438 0.316009,-0.68604 1.704544,-1.64414 2.599623,-2.00771 0.895079,-0.36358 2.223642,-0.51438 4.126953,-0.15235 0.0058,0.001 0.01171,0.003 0.01758,0.004 l 55.609357,10.03311 c 0.78209,0.161 1.54418,0.21276 2.2793,-0.0645 0.73512,-0.27721 1.32494,-0.93218 1.62109,-1.73437 0.0114,-0.0321 0.0212,-0.0647 0.0293,-0.0977 L 149.875,56.013672 c 0.6877,-1.802368 1.41341,-2.663194 1.90039,-2.957031 z"
       id="path68"
       inkscape:label="frontstarframe"
       sodipodi:nodetypes="cscccsccccsscccccsscccscssscccsccsssssssscssccsssccsssccssssccsssccscccssscsaaccssccccsscccccccs" /></g></svg>
