<?xml version="1.0" encoding="UTF-8" standalone="no"?>
<!-- Created with Inkscape (http://www.inkscape.org/) -->

<svg
   width="256mm"
   height="256mm"
   viewBox="0 0 256 256"
   version="1.1"
   id="svg1"
   inkscape:version="1.3.2 (091e20ef0f, 2023-11-25)"
   sodipodi:docname="remove-link.svg"
   xml:space="preserve"
   xmlns:inkscape="http://www.inkscape.org/namespaces/inkscape"
   xmlns:sodipodi="http://sodipodi.sourceforge.net/DTD/sodipodi-0.dtd"
   xmlns:xlink="http://www.w3.org/1999/xlink"
   xmlns="http://www.w3.org/2000/svg"
   xmlns:svg="http://www.w3.org/2000/svg"
   xmlns:rdf="http://www.w3.org/1999/02/22-rdf-syntax-ns#"
   xmlns:cc="http://creativecommons.org/ns#"
   xmlns:dc="http://purl.org/dc/elements/1.1/"><defs
     id="defs1"><linearGradient
       inkscape:collect="always"
       xlink:href="#linearGradient25"
       id="linearGradient26"
       x1="154.8989"
       y1="278.06287"
       x2="154.8989"
       y2="254.84335"
       gradientUnits="userSpaceOnUse" /><linearGradient
       id="linearGradient25"
       inkscape:collect="always"><stop
         style="stop-color:#444444;stop-opacity:1;"
         offset="0"
         id="stop25" /><stop
         style="stop-color:#6f6f6f;stop-opacity:1;"
         offset="0.26897204"
         id="stop27" /><stop
         style="stop-color:#838383;stop-opacity:1;"
         offset="0.41653633"
         id="stop28" /><stop
         style="stop-color:#909090;stop-opacity:1;"
         offset="0.59434378"
         id="stop29" /><stop
         style="stop-color:#bbbbbb;stop-opacity:1;"
         offset="0.7128821"
         id="stop30" /><stop
         style="stop-color:#aeaeae;stop-opacity:1;"
         offset="0.82772928"
         id="stop31" /><stop
         style="stop-color:#a1a1a1;stop-opacity:1;"
         offset="1"
         id="stop26" /></linearGradient><linearGradient
       inkscape:collect="always"
       xlink:href="#linearGradient31"
       id="linearGradient33"
       x1="152.26506"
       y1="265.91971"
       x2="152.26506"
       y2="300.12823"
       gradientUnits="userSpaceOnUse" /><linearGradient
       id="linearGradient31"
       inkscape:collect="always"><stop
         style="stop-color:#444444;stop-opacity:1;"
         offset="0"
         id="stop32" /><stop
         style="stop-color:#6f6f6f;stop-opacity:1;"
         offset="0.41634223"
         id="stop34" /><stop
         style="stop-color:#838383;stop-opacity:1;"
         offset="0.57871926"
         id="stop35" /><stop
         style="stop-color:#909090;stop-opacity:1;"
         offset="0.61224246"
         id="stop36" /><stop
         style="stop-color:#bbbbbb;stop-opacity:1;"
         offset="0.71039826"
         id="stop37" /><stop
         style="stop-color:#a1a1a1;stop-opacity:1;"
         offset="0.85873467"
         id="stop38" /><stop
         style="stop-color:#979797;stop-opacity:1;"
         offset="1"
         id="stop33" /></linearGradient><radialGradient
       inkscape:collect="always"
       xlink:href="#linearGradient12"
       id="radialGradient13"
       cx="115.71584"
       cy="288.7298"
       fx="115.71584"
       fy="288.7298"
       r="18.642866"
       gradientTransform="matrix(2.2211694,0.06759796,-0.05064499,1.6641199,-111.089,-196.63083)"
       gradientUnits="userSpaceOnUse" /><linearGradient
       id="linearGradient12"
       inkscape:collect="always"><stop
         style="stop-color:#444444;stop-opacity:1;"
         offset="0"
         id="stop12" /><stop
         style="stop-color:#6f6f6f;stop-opacity:1;"
         offset="0.30000001"
         id="stop14" /><stop
         style="stop-color:#838383;stop-opacity:1;"
         offset="0.53000003"
         id="stop15" /><stop
         style="stop-color:#909090;stop-opacity:1;"
         offset="0.57261455"
         id="stop16" /><stop
         style="stop-color:#bbbbbb;stop-opacity:1;"
         offset="0.73204887"
         id="stop17" /><stop
         style="stop-color:#a1a1a1;stop-opacity:1;"
         offset="1"
         id="stop13" /></linearGradient><radialGradient
       inkscape:collect="always"
       xlink:href="#linearGradient12"
       id="radialGradient20"
       gradientUnits="userSpaceOnUse"
       gradientTransform="matrix(-2.2211694,0.06759796,0.05064499,1.6641199,427.30496,-196.63083)"
       cx="115.71584"
       cy="288.7298"
       fx="115.71584"
       fy="288.7298"
       r="18.642866" /><radialGradient
       inkscape:collect="always"
       xlink:href="#linearGradient9"
       id="radialGradient11"
       cx="260.33694"
       cy="309.25568"
       fx="260.33694"
       fy="309.25568"
       r="45.400391"
       gradientTransform="matrix(0.30718047,0.22737236,-0.36107849,0.48781763,218.2988,75.78579)"
       gradientUnits="userSpaceOnUse" /><linearGradient
       id="linearGradient9"
       inkscape:collect="always"><stop
         style="stop-color:#0e0e0e;stop-opacity:1;"
         offset="0"
         id="stop10" /><stop
         style="stop-color:#979797;stop-opacity:0;"
         offset="1"
         id="stop11" /></linearGradient><radialGradient
       inkscape:collect="always"
       xlink:href="#linearGradient38"
       id="radialGradient40"
       cx="194.42744"
       cy="273.51212"
       fx="194.42744"
       fy="273.51212"
       r="18.721779"
       gradientTransform="matrix(1.5024484,-0.80990916,0.76306817,1.4155545,-307.36148,41.701623)"
       gradientUnits="userSpaceOnUse" /><linearGradient
       id="linearGradient38"
       inkscape:collect="always"><stop
         style="stop-color:#3e3e3e;stop-opacity:1;"
         offset="0"
         id="stop39" /><stop
         style="stop-color:#555555;stop-opacity:1;"
         offset="0.25193208"
         id="stop41" /><stop
         style="stop-color:#656565;stop-opacity:1;"
         offset="0.3737193"
         id="stop42" /><stop
         style="stop-color:#888888;stop-opacity:1;"
         offset="0.46367618"
         id="stop43" /><stop
         style="stop-color:#c2c2c2;stop-opacity:1;"
         offset="0.57985288"
         id="stop44" /><stop
         style="stop-color:#909090;stop-opacity:1;"
         offset="0.68363982"
         id="stop45" /><stop
         style="stop-color:#767676;stop-opacity:1;"
         offset="0.77416378"
         id="stop46" /><stop
         style="stop-color:#484848;stop-opacity:1;"
         offset="0.86532182"
         id="stop47" /><stop
         style="stop-color:#525252;stop-opacity:1;"
         offset="1"
         id="stop40" /></linearGradient><radialGradient
       inkscape:collect="always"
       xlink:href="#linearGradient47"
       id="radialGradient49"
       cx="228.22224"
       cy="249.04099"
       fx="228.22224"
       fy="249.04099"
       r="18.730909"
       gradientTransform="matrix(1.3768804,-1.0124251,0.83375705,1.133895,-294.86728,197.8322)"
       gradientUnits="userSpaceOnUse" /><linearGradient
       id="linearGradient47"
       inkscape:collect="always"><stop
         style="stop-color:#3e3e3e;stop-opacity:1;"
         offset="0"
         id="stop48" /><stop
         style="stop-color:#555555;stop-opacity:1;"
         offset="0.16386789"
         id="stop50" /><stop
         style="stop-color:#656565;stop-opacity:1;"
         offset="0.42015639"
         id="stop51" /><stop
         style="stop-color:#888888;stop-opacity:1;"
         offset="0.48883528"
         id="stop52" /><stop
         style="stop-color:#c2c2c2;stop-opacity:1;"
         offset="0.63039148"
         id="stop53" /><stop
         style="stop-color:#909090;stop-opacity:1;"
         offset="0.75035709"
         id="stop54" /><stop
         style="stop-color:#767676;stop-opacity:1;"
         offset="0.84837198"
         id="stop55" /><stop
         style="stop-color:#484848;stop-opacity:1;"
         offset="0.93684125"
         id="stop56" /><stop
         style="stop-color:#525252;stop-opacity:1;"
         offset="1"
         id="stop49" /></linearGradient><linearGradient
       inkscape:collect="always"
       xlink:href="#linearGradient2"
       id="linearGradient3"
       x1="149.69981"
       y1="168.76047"
       x2="162.14522"
       y2="186.58047"
       gradientUnits="userSpaceOnUse" /><linearGradient
       id="linearGradient2"
       inkscape:collect="always"><stop
         style="stop-color:#3e3e3e;stop-opacity:1;"
         offset="0"
         id="stop7" /><stop
         style="stop-color:#555555;stop-opacity:1;"
         offset="0.09921315"
         id="stop8" /><stop
         style="stop-color:#656565;stop-opacity:1;"
         offset="0.22863187"
         id="stop9" /><stop
         style="stop-color:#888888;stop-opacity:1;"
         offset="0.37647471"
         id="stop18" /><stop
         style="stop-color:#c2c2c2;stop-opacity:1;"
         offset="0.54097724"
         id="stop19" /><stop
         style="stop-color:#909090;stop-opacity:1;"
         offset="0.69249481"
         id="stop20" /><stop
         style="stop-color:#767676;stop-opacity:1;"
         offset="0.82343"
         id="stop21" /><stop
         style="stop-color:#484848;stop-opacity:1;"
         offset="0.9921875"
         id="stop22" /><stop
         style="stop-color:#525252;stop-opacity:1;"
         offset="1"
         id="stop23" /></linearGradient><linearGradient
       inkscape:collect="always"
       xlink:href="#linearGradient21"
       id="linearGradient22"
       x1="149.37512"
       y1="155.45142"
       x2="133.41261"
       y2="131.00533"
       gradientUnits="userSpaceOnUse" /><linearGradient
       id="linearGradient21"
       inkscape:collect="always"><stop
         style="stop-color:#3e3e3e;stop-opacity:1;"
         offset="0"
         id="stop24" /><stop
         style="stop-color:#555555;stop-opacity:1;"
         offset="0.06722474"
         id="stop57" /><stop
         style="stop-color:#656565;stop-opacity:1;"
         offset="0.2015574"
         id="stop58" /><stop
         style="stop-color:#888888;stop-opacity:1;"
         offset="0.27125481"
         id="stop59" /><stop
         style="stop-color:#c2c2c2;stop-opacity:1;"
         offset="0.41021121"
         id="stop60" /><stop
         style="stop-color:#909090;stop-opacity:1;"
         offset="0.52865785"
         id="stop61" /><stop
         style="stop-color:#767676;stop-opacity:1;"
         offset="0.60476965"
         id="stop62" /><stop
         style="stop-color:#484848;stop-opacity:1;"
         offset="0.71092957"
         id="stop63" /><stop
         style="stop-color:#525252;stop-opacity:1;"
         offset="1"
         id="stop64" /></linearGradient><radialGradient
       inkscape:collect="always"
       xlink:href="#linearGradient8"
       id="radialGradient9"
       cx="-2.0479729"
       cy="298.30832"
       fx="-2.0479729"
       fy="298.30832"
       r="45.400555"
       gradientTransform="matrix(0.89689013,-0.04438745,0.02862732,0.57844164,-5.7162245,144.41811)"
       gradientUnits="userSpaceOnUse" /><linearGradient
       id="linearGradient8"
       inkscape:collect="always"><stop
         style="stop-color:#191919;stop-opacity:1;"
         offset="0"
         id="stop65" /><stop
         style="stop-color:#636363;stop-opacity:0;"
         offset="1"
         id="stop66" /></linearGradient><linearGradient
       id="light100to0"><stop
         style="stop-color:#ffffff;stop-opacity:0.79848868;"
         offset="0"
         id="stop2764" /><stop
         style="stop-color:#ffffff;stop-opacity:0.0000000;"
         offset="1.0000000"
         id="stop2765" /></linearGradient><linearGradient
       id="linearGradient6"
       inkscape:collect="always"><stop
         style="stop-color:#f5f2f2;stop-opacity:0.83923703;"
         offset="0"
         id="stop6" /><stop
         style="stop-color:#f5f2f2;stop-opacity:0;"
         offset="1"
         id="stop7-7" /></linearGradient><linearGradient
       id="linearGradient3-5"
       inkscape:collect="always"><stop
         style="stop-color:#af0000;stop-opacity:1;"
         offset="0"
         id="stop3-3" /><stop
         style="stop-color:#ff5858;stop-opacity:1;"
         offset="1"
         id="stop4-5" /></linearGradient><linearGradient
       id="linearGradient1"
       inkscape:collect="always"><stop
         style="stop-color:#f50303;stop-opacity:1;"
         offset="0"
         id="stop1" /><stop
         style="stop-color:#9f0101;stop-opacity:1;"
         offset="1"
         id="stop2-6" /></linearGradient><linearGradient
       inkscape:collect="always"
       xlink:href="#linearGradient1"
       id="linearGradient2-1"
       x1="105.90414"
       y1="72.731186"
       x2="178.87457"
       y2="186.90758"
       gradientUnits="userSpaceOnUse" /><linearGradient
       inkscape:collect="always"
       xlink:href="#linearGradient3-5"
       id="linearGradient4"
       x1="132.8768"
       y1="114.1599"
       x2="132.8768"
       y2="134.82962"
       gradientUnits="userSpaceOnUse" /><linearGradient
       inkscape:collect="always"
       xlink:href="#linearGradient6"
       id="linearGradient7"
       x1="117.8369"
       y1="44.153515"
       x2="150.74196"
       y2="237.01367"
       gradientUnits="userSpaceOnUse" /></defs><sodipodi:namedview
     id="base"
     pagecolor="#ffffff"
     bordercolor="#000000"
     borderopacity="0.3"
     inkscape:pageopacity="0.0"
     inkscape:pageshadow="2"
     inkscape:zoom="0.98994949"
     inkscape:cx="505.07627"
     inkscape:cy="476.792"
     inkscape:document-units="mm"
     inkscape:showpageshadow="2"
     inkscape:pagecheckerboard="0"
     inkscape:deskcolor="#d1d1d1"
     inkscape:current-layer="svg1" /><metadata
     id="metadata1"><rdf:RDF><cc:Work
         rdf:about=""><dc:format>image/svg+xml</dc:format><dc:type
           rdf:resource="http://purl.org/dc/dcmitype/StillImage" /><cc:license
           rdf:resource="http://creativecommons.org/publicdomain/zero/1.0/" /></cc:Work><cc:License
         rdf:about="http://creativecommons.org/publicdomain/zero/1.0/"><cc:permits
           rdf:resource="http://creativecommons.org/ns#Reproduction" /><cc:permits
           rdf:resource="http://creativecommons.org/ns#Distribution" /><cc:permits
           rdf:resource="http://creativecommons.org/ns#DerivativeWorks" /></cc:License></rdf:RDF></metadata><g
     id="g7"
     transform="matrix(1.6969334,0,0,1.6969334,-186.35736,-323.52833)"
     inkscape:label="chain"
     style="display:inline"><g
       id="g62"
       style="display:inline;fill:#7e7e7e;fill-opacity:0.364555"
       inkscape:label="shadow-chain"
       transform="matrix(0.99345393,0,0,0.99345393,5.2462977,7.6570876)"><path
         style="color:#000000;display:inline;fill:#7e7e7e;fill-opacity:0.364555;fill-rule:evenodd;stroke-linecap:round;stroke-linejoin:round;stroke-miterlimit:2.1;-inkscape-stroke:none"
         d="m 135.64453,248.63867 c -13.1529,0 -23.97461,10.81975 -23.97461,23.97266 0,13.1529 10.82171,23.97461 23.97461,23.97461 h 42.85156 c 13.15291,0 23.97461,-10.82171 23.97461,-23.97461 0,-13.15291 -10.8217,-23.97266 -23.97461,-23.97266 z m 0,14.9043 h 42.85156 c 5.1532,0 9.07032,3.91516 9.07032,9.06836 0,5.15319 -3.91712,9.07031 -9.07032,9.07031 h -42.85156 c -5.1532,0 -9.06836,-3.91712 -9.06836,-9.07031 0,-5.1532 3.91516,-9.06836 9.06836,-9.06836 z"
         id="path61" /><path
         style="color:#000000;display:inline;fill:#7e7e7e;fill-opacity:0.364555;fill-rule:evenodd;stroke-linecap:round;stroke-linejoin:round;stroke-miterlimit:2.1;-inkscape-stroke:none"
         d="m 4.8730469,311.66602 c -13.1529059,0 -23.9746089,10.8217 -23.9746089,23.9746 0,13.15291 10.821703,23.97461 23.9746089,23.97461 H 47.726562 c 13.152906,0 23.972657,-10.8217 23.972657,-23.97461 0,-13.1529 -10.819751,-23.9746 -23.972657,-23.9746 z m 0,14.90429 H 47.726562 c 5.153198,0 9.06836,3.91712 9.06836,9.07031 0,5.1532 -3.915162,9.06836 -9.06836,9.06836 H 4.8730469 c -5.15319768,0 -9.0683594,-3.91516 -9.0683594,-9.06836 0,-5.15319 3.91516172,-9.07031 9.0683594,-9.07031 z"
         id="path62"
         transform="rotate(-34.617322)" /></g><g
       id="g18"><path
         id="path22"
         style="color:#000000;display:inline;fill:url(#linearGradient26);fill-opacity:1;fill-rule:evenodd;stroke-linecap:round;stroke-linejoin:round;stroke-miterlimit:2.1;-inkscape-stroke:none"
         d="m 135.64453,248.63866 c -13.15289,0 -23.97456,10.81968 -23.97456,23.97258 0,0.0146 9.6e-4,0.029 9.9e-4,0.0437 h 14.90703 c -6e-5,-0.0148 -0.002,-0.0289 -0.002,-0.0437 0,-5.1532 3.91533,-9.06803 9.06852,-9.06803 h 42.85165 c 5.15319,0 9.07001,3.91483 9.07001,9.06803 0,0.0148 -0.002,0.0289 -0.002,0.0437 h 14.90555 c 3e-5,-0.0146 9.9e-4,-0.029 9.9e-4,-0.0437 0,-13.1529 -10.82166,-23.97258 -23.97456,-23.97258 z" /><path
         id="path24"
         style="color:#000000;display:inline;fill:url(#linearGradient33);fill-opacity:1;fill-rule:evenodd;stroke-linecap:round;stroke-linejoin:round;stroke-miterlimit:2.1;-inkscape-stroke:none"
         d="m 111.67096,272.65489 c 0.024,13.13306 10.83532,23.93091 23.97357,23.93091 h 42.85165 c 13.13827,0 23.94953,-10.79785 23.97357,-23.93091 H 187.5642 c -0.0224,5.13132 -3.9296,9.02685 -9.06802,9.02685 h -42.85165 c -5.13842,0 -9.04417,-3.89553 -9.06654,-9.02685 z" /><path
         d="m 124.91339,249.37965 c -20.45563,0 -37.285734,16.82707 -37.285734,37.28271 0,20.45563 16.830104,37.28575 37.285734,37.28575 m 0,-51.38903 v 28.20959 c -8.01435,0 -14.10327,-6.09197 -14.10327,-14.10631 0,-8.01435 6.08892,-14.10328 14.10327,-14.10328 z"
         style="color:#000000;display:inline;fill:url(#radialGradient13);fill-opacity:1;fill-rule:evenodd;stroke-width:1.49276;stroke-linecap:round;stroke-linejoin:round;stroke-miterlimit:2.1;-inkscape-stroke:none"
         id="path1"
         transform="matrix(0.64395356,0,0,0.64395356,55.240683,88.032728)" /><path
         d="m 191.30257,249.37965 c 20.45563,0 37.28573,16.82707 37.28573,37.28271 0,20.45563 -16.8301,37.28575 -37.28573,37.28575 m 0,-51.38903 v 28.20959 c 8.01435,0 14.10327,-6.09197 14.10327,-14.10631 0,-8.01435 -6.08892,-14.10328 -14.10327,-14.10328 z"
         style="color:#000000;display:inline;fill:url(#radialGradient20);fill-opacity:1;fill-rule:evenodd;stroke-width:1.49276;stroke-linecap:round;stroke-linejoin:round;stroke-miterlimit:2.1;-inkscape-stroke:none"
         id="path20"
         transform="matrix(0.64395356,0,0,0.64395356,55.240683,88.032728)" /><path
         style="color:#000000;display:none;fill:url(#radialGradient11);fill-rule:evenodd;stroke-linecap:round;stroke-linejoin:round;stroke-miterlimit:2.1;-inkscape-stroke:none"
         d="m 135.64453,248.63867 c -13.1529,0 -23.97461,10.81975 -23.97461,23.97266 0,13.1529 10.82171,23.97461 23.97461,23.97461 h 42.85156 c 13.15291,0 23.97461,-10.82171 23.97461,-23.97461 0,-13.15291 -10.8217,-23.97266 -23.97461,-23.97266 z m 0,14.9043 h 42.85156 c 5.1532,0 9.07032,3.91516 9.07032,9.06836 0,5.15319 -3.91712,9.07031 -9.07032,9.07031 h -42.85156 c -5.1532,0 -9.06836,-3.91712 -9.06836,-9.07031 0,-5.1532 3.91516,-9.06836 9.06836,-9.06836 z"
         id="path9"
         sodipodi:nodetypes="ssssssssssssss" /></g><g
       id="g17"><path
         id="path6"
         style="color:#000000;display:inline;fill:#7a7a7a;fill-opacity:1;fill-rule:evenodd;stroke-linecap:round;stroke-linejoin:round;stroke-miterlimit:2.1;-inkscape-stroke:none"
         d="m 61.091607,315.78365 c -3.828601,-2.59586 -8.433071,-4.11772 -13.365406,-4.11772 l -36.32403,-3.5e-4 c 3.134481,4.34561 4.702982,9.62115 4.541507,14.90459 l 31.782942,1.3e-4 c 5.153193,0 9.068484,3.91746 9.068484,9.07064 0,5.1532 -3.915302,9.06809 -9.068495,9.06809 l -42.8534299,-5e-5 c -5.15319254,0 -9.0680916,-3.9153 -9.0680916,-9.06849 0,-3.7458 2.0734336,-6.82992 5.18253339,-8.23982 0.68188031,-3.41084 -0.67524189,-6.94852 -3.80841429,-9.11135 l -4.5881138,-3.16717 c -6.9740378,4.21198 -11.6927218,11.84684 -11.6927218,20.51808 0,13.15289 10.8220931,23.97483 23.9749858,23.97483 l 42.8534302,6e-5 c 13.152893,0 23.972694,-10.8217 23.972694,-23.9746 0,-8.22055 -4.226873,-15.53044 -10.607874,-19.85687 z"
         transform="rotate(-34.617322,1.8062392e-6,-3.5510587e-8)"
         sodipodi:nodetypes="sccccsccscscsccss" /><path
         d="m 199.86922,280.96408 c -4.23001,2.91999 -9.66211,1.92442 -12.5821,-2.30559 -2.12249,-3.07475 -2.16808,-6.78125 -0.41487,-9.70029 -1.37297,-3.18618 -4.49155,-5.3211 -8.28895,-5.3211 h -5.56081 c -3.33799,7.40915 -2.88516,16.35002 2.02826,23.46784 7.45289,10.79659 22.46833,13.54764 33.26492,6.09475"
         style="color:#000000;display:inline;fill:url(#radialGradient40);fill-opacity:1;fill-rule:evenodd;stroke-width:0.957372;stroke-linecap:round;stroke-linejoin:round;stroke-miterlimit:2.1;-inkscape-stroke:none"
         id="path1-9" /><path
         d="m 229.48355,225.36717 c -4.61406,0.0386 -9.25643,1.39855 -13.30554,4.19365 l 8.44649,12.23521 c 4.23041,-2.92025 9.66457,-1.92303 12.58482,2.30737 2.92026,4.23042 1.92459,9.66303 -2.30582,12.58328 l 8.44725,12.23677 c 10.79761,-7.45359 13.54739,-22.46892 6.09379,-33.26653 -4.65849,-6.7485 -12.27089,-10.3541 -19.96099,-10.28975 z"
         style="color:#000000;display:inline;fill:url(#radialGradient49);fill-opacity:1;fill-rule:evenodd;stroke-width:0.957463;stroke-linecap:round;stroke-linejoin:round;stroke-miterlimit:2.1;-inkscape-stroke:none"
         id="path1-6" /><path
         d="m 170.26974,161.42947 -36.66734,25.31141 8.80444,12.75421 36.66736,-25.3114"
         style="color:#000000;display:inline;fill:url(#linearGradient3);fill-opacity:1;fill-rule:evenodd;stroke-width:0.997951;stroke-linecap:round;stroke-linejoin:round;stroke-miterlimit:2.1;-inkscape-stroke:none"
         id="path1-2"
         sodipodi:nodetypes="cccc"
         transform="matrix(0.95983477,0,0,0.95983477,71.492799,101.71901)" /><path
         d="m 150.84621,133.12506 -31.03872,21.42558 c 5.24166,1.8644 9.69373,5.44711 12.6722,10.05699 l 27.15828,-18.7472"
         style="color:#000000;display:inline;fill:url(#linearGradient22);fill-opacity:1;fill-rule:evenodd;stroke-width:0.996607;stroke-linecap:round;stroke-linejoin:round;stroke-miterlimit:2.1;-inkscape-stroke:none"
         id="path1-7"
         transform="matrix(0.95983477,0,0,0.95983477,71.492799,101.71901)" /><path
         id="path8"
         style="color:#000000;display:inline;fill:url(#radialGradient9);fill-opacity:1;fill-rule:evenodd;stroke-linecap:round;stroke-linejoin:round;stroke-miterlimit:2.1;-inkscape-stroke:none"
         d="m 61.091607,315.78365 c -3.828601,-2.59586 -8.433071,-4.11772 -13.365406,-4.11772 l -36.32403,-3.5e-4 c 3.134481,4.34561 4.702982,9.62115 4.541507,14.90459 l 31.782942,1.3e-4 c 5.153193,0 9.068484,3.91746 9.068484,9.07064 0,5.1532 -3.915302,9.06809 -9.068495,9.06809 l -42.8534299,-5e-5 c -5.15319254,0 -9.0680916,-3.9153 -9.0680916,-9.06849 0,-3.7458 2.0734336,-6.82992 5.18253339,-8.23982 0.68188031,-3.41084 -0.67524189,-6.94852 -3.80841429,-9.11135 l -4.5881138,-3.16717 c -6.9740378,4.21198 -11.6927218,11.84684 -11.6927218,20.51808 0,13.15289 10.8220931,23.97483 23.9749858,23.97483 l 42.8534302,6e-5 c 13.152893,0 23.972694,-10.8217 23.972694,-23.9746 0,-8.22055 -4.226873,-15.53044 -10.607874,-19.85687 z"
         transform="rotate(-34.617322,1.8062392e-6,-3.5510587e-8)"
         inkscape:label="shadowshadowontop"
         sodipodi:nodetypes="sccccsccscscsccss" /></g></g><g
     id="rect1-7"
     style="display:inline"
     transform="matrix(0.58357381,0,0,0.58357381,105.93522,106.55899)"><g
       id="g8"
       style="display:inline"><path
         id="path1-0"
         style="color:#000000;display:inline;fill:#000000;fill-opacity:0.192575;stroke-linecap:round;stroke-linejoin:round;stroke-miterlimit:2.5;-inkscape-stroke:none"
         d="m 45.930531,3.6989991 c -0.838294,-0.062799 -1.688824,-0.053374 -2.534729,0.01912 -3.383617,0.2899782 -6.74819,1.5727408 -9.234578,3.4747233 C 24.150716,14.850463 15.350125,23.570192 7.1515016,34.222202 c -2.4027983,3.12182 -2.76677,7.23039 -1.7378784,11.285099 1.0288916,4.054709 3.4347025,8.120167 6.7339568,11.39672 l 68.94928,68.474379 -0.249597,2.87528 -71.400811,72.3222 c -1.8482803,1.87217 -2.8483339,4.81289 -3.2008382,7.70082 -0.3525044,2.88795 -0.1058752,5.7285 1.1911417,7.55665 7.4790195,10.54169 18.7204305,23.2417 31.1681245,32.88895 2.13358,1.65356 4.836878,2.2154 7.624858,1.65416 2.787981,-0.56124 5.673154,-2.20662 8.392769,-4.90823 a 0.94309432,0.94309432 0 0 0 0.0057,-0.006 l 69.623153,-70.5528 c 1.49311,-1.51303 2.3689,-1.98097 2.90835,-1.97301 0.53945,0.008 1.30985,0.50577 2.58382,1.77974 a 0.94309432,0.94309432 0 0 0 0.004,0.004 l 73.77741,72.92785 c 2.32786,2.30107 5.54115,3.4045 8.65632,3.46077 3.11517,0.0563 6.18108,-0.923 8.21449,-2.99413 l 27.04899,-27.55077 c 1.76767,-1.80046 2.99156,-4.85817 3.32435,-8.11113 0.33279,-3.25296 -0.27015,-6.76145 -2.61328,-9.18549 l -72.99038,-75.5096 a 0.94309432,0.94309432 0 0 0 -0.0119,-0.0119 c -0.95142,-0.95142 -1.32644,-1.58349 -1.38855,-1.90996 -0.0615,-0.32332 0.0301,-0.59605 0.5333,-1.23042 l 72.04315,-72.879277 c 2.05407,-2.077982 3.36483,-5.47802 3.79667,-8.898165 0.43184,-3.420146 0.004,-6.926918 -2.06448,-9.089885 L 222.7611,7.2750082 c -2.61212,-2.7309795 -6.38733,-3.7849815 -10.08001,-3.5646403 -3.69267,0.2203412 -7.358,1.6933697 -9.90069,4.1956096 L 130.38224,79.153826 c -0.89459,0.880356 -1.5605,1.160843 -2.06654,1.167887 -0.50603,0.007 -1.04382,-0.241661 -1.73065,-0.925525 C 126.57805,79.389088 74.579411,27.026314 52.696527,6.4605877 50.85083,4.7259859 48.445415,3.8873973 45.930531,3.6989991 Z"
         inkscape:label="shadow" /><path
         id="path3"
         style="color:#000000;display:inline;fill:#000000;fill-opacity:0.192575;stroke-linecap:round;stroke-linejoin:round;stroke-miterlimit:2.5;-inkscape-stroke:none"
         d="M 48.047199,3.1698324 C 47.208905,3.1070334 46.358375,3.1164584 45.51247,3.1889524 42.128853,3.4789306 38.76428,4.7616932 36.277892,6.6636757 26.267384,14.321296 17.466793,23.041025 9.2681684,33.693035 c -2.4027983,3.12182 -2.76677,7.23039 -1.7378784,11.285099 1.0288916,4.054709 3.434703,8.120167 6.733958,11.39672 l 68.94928,68.474376 -0.249597,2.87528 -71.400812,72.3222 c -1.8482805,1.87217 -2.8483341,4.81289 -3.2008384,7.70082 -0.3525044,2.88795 -0.1058752,5.7285 1.1911417,7.55665 7.4790207,10.54169 18.7204317,23.2417 31.1681257,32.88895 2.13358,1.65356 4.836878,2.2154 7.624858,1.65416 2.787981,-0.56124 5.673154,-2.20662 8.392769,-4.90823 a 0.94309432,0.94309432 0 0 0 0.0057,-0.006 l 69.623165,-70.5528 c 1.49311,-1.51303 2.3689,-1.98097 2.90835,-1.97301 0.53945,0.008 1.30985,0.50577 2.58382,1.77974 a 0.94309432,0.94309432 0 0 0 0.004,0.004 l 73.77741,72.92785 c 2.32786,2.30107 5.54115,3.4045 8.65632,3.46077 3.11517,0.0563 6.18108,-0.923 8.21449,-2.99413 l 27.04899,-27.55077 c 1.76767,-1.80046 2.99156,-4.85817 3.32435,-8.11113 0.33279,-3.25296 -0.27015,-6.76145 -2.61328,-9.18549 l -72.99038,-75.5096 a 0.94309432,0.94309432 0 0 0 -0.0119,-0.0119 c -0.95142,-0.95142 -1.32644,-1.58349 -1.38855,-1.90996 -0.0615,-0.32332 0.0301,-0.59605 0.5333,-1.23042 l 72.04315,-72.879274 c 2.05407,-2.077982 3.36483,-5.47802 3.79667,-8.898165 0.43184,-3.420146 0.004,-6.926918 -2.06448,-9.089885 L 224.87778,6.7458415 C 222.26566,4.014862 218.49045,2.96086 214.79777,3.1812012 c -3.69267,0.2203412 -7.358,1.6933697 -9.90069,4.1956096 L 132.49892,78.624659 c -0.89459,0.880356 -1.5605,1.160843 -2.06654,1.167887 -0.50603,0.007 -1.04382,-0.241661 -1.73065,-0.925525 -0.007,-0.0071 -52.005651,-52.369874 -73.888535,-72.9356 C 52.967498,4.1968192 50.562083,3.3582306 48.047199,3.1698324 Z"
         inkscape:label="shadow" /><path
         id="path7"
         style="color:#000000;display:inline;fill:#000000;fill-opacity:0.192575;stroke-linecap:round;stroke-linejoin:round;stroke-miterlimit:2.5;-inkscape-stroke:none"
         d="M 43.284696,5.2864992 C 42.446402,5.2237002 41.595872,5.2331252 40.749967,5.3056192 37.36635,5.5955974 34.001777,6.87836 31.515389,8.7803425 21.504881,16.437964 12.70429,25.157693 4.5056681,35.809703 c -2.4027983,3.12182 -2.76677,7.23039 -1.7378784,11.285099 1.0288916,4.054709 3.4347027,8.120167 6.7339556,11.39672 l 68.9492797,68.474388 -0.249597,2.87528 -71.4008099,72.3222 c -1.8482799,1.87217 -2.8483335,4.81289 -3.2008378,7.70082 -0.3525044,2.88795 -0.1058752,5.7285 1.1911417,7.55665 7.479018,10.54169 18.720429,23.2417 31.168123,32.88895 2.13358,1.65356 4.836878,2.2154 7.624858,1.65416 2.787981,-0.56124 5.673154,-2.20662 8.392769,-4.90823 a 0.94309432,0.94309432 0 0 0 0.0057,-0.006 l 69.623138,-70.5528 c 1.49311,-1.51303 2.3689,-1.98097 2.90835,-1.97301 0.53945,0.008 1.30985,0.50577 2.58382,1.77974 a 0.94309432,0.94309432 0 0 0 0.004,0.004 l 73.77741,72.92785 c 2.32786,2.30107 5.54115,3.4045 8.65632,3.46077 3.11517,0.0563 6.18108,-0.923 8.21449,-2.99413 l 27.04899,-27.55077 c 1.76767,-1.80046 2.99156,-4.85817 3.32435,-8.11113 0.33279,-3.25296 -0.27015,-6.76145 -2.61328,-9.18549 l -72.99038,-75.5096 a 0.94309432,0.94309432 0 0 0 -0.0119,-0.0119 c -0.95142,-0.95142 -1.32644,-1.58349 -1.38855,-1.90996 -0.0615,-0.32332 0.0301,-0.59605 0.5333,-1.23042 l 72.04315,-72.879286 c 2.05407,-2.077982 3.36483,-5.47802 3.79667,-8.898165 0.43184,-3.420146 0.004,-6.926918 -2.06448,-9.089885 L 220.11525,8.8625083 c -2.61212,-2.7309795 -6.38733,-3.7849815 -10.08001,-3.5646403 -3.69267,0.2203412 -7.358,1.6933697 -9.90069,4.1956096 L 127.73639,80.741327 c -0.89459,0.880356 -1.5605,1.160843 -2.06654,1.167887 -0.50603,0.007 -1.04382,-0.241661 -1.73065,-0.925525 C 123.9322,80.976589 71.933576,28.613815 50.050692,8.0480878 48.204995,6.313486 45.79958,5.4748974 43.284696,5.2864992 Z"
         inkscape:label="shadow" /><path
         id="path8-9"
         style="color:#000000;display:inline;fill:#000000;fill-opacity:0.192575;stroke-linecap:round;stroke-linejoin:round;stroke-miterlimit:2.5;-inkscape-stroke:none"
         d="m 46.988865,6.8739993 c -0.838294,-0.062799 -1.688824,-0.053374 -2.534729,0.01912 -3.383617,0.2899782 -6.74819,1.5727408 -9.234578,3.4747237 -10.010508,7.657622 -18.811099,16.377351 -27.009723,27.029361 -2.4027983,3.12182 -2.76677,7.23039 -1.7378784,11.285099 1.0288916,4.054709 3.4347027,8.120167 6.7339574,11.39672 l 68.94928,68.474397 -0.249597,2.87528 -71.400812,72.3222 c -1.8482801,1.87217 -2.8483335,4.81289 -3.2008378,7.70082 -0.3525044,2.88795 -0.1058752,5.7285 1.1911417,7.55665 7.4790201,10.54169 18.7204311,23.2417 31.1681251,32.88895 2.13358,1.65356 4.836878,2.2154 7.624858,1.65416 2.787981,-0.56124 5.673154,-2.20662 8.392769,-4.90823 a 0.94309432,0.94309432 0 0 0 0.0057,-0.006 l 69.623159,-70.5528 c 1.49311,-1.51303 2.3689,-1.98097 2.90835,-1.97301 0.53945,0.008 1.30985,0.50577 2.58382,1.77974 a 0.94309432,0.94309432 0 0 0 0.004,0.004 l 73.77741,72.92785 c 2.32786,2.30107 5.54115,3.4045 8.65632,3.46077 3.11517,0.0563 6.18108,-0.923 8.21449,-2.99413 l 27.04899,-27.55077 c 1.76767,-1.80046 2.99156,-4.85817 3.32435,-8.11113 0.33279,-3.25296 -0.27015,-6.76145 -2.61328,-9.18549 l -72.99038,-75.5096 a 0.94309432,0.94309432 0 0 0 -0.0119,-0.0119 c -0.95142,-0.95142 -1.32644,-1.58349 -1.38855,-1.90996 -0.0615,-0.32332 0.0301,-0.59605 0.5333,-1.23042 l 72.04315,-72.879295 c 2.05407,-2.077982 3.36483,-5.47802 3.79667,-8.898165 0.43184,-3.420146 0.004,-6.926918 -2.06448,-9.089885 L 223.81944,10.450008 c -2.61212,-2.7309791 -6.38733,-3.7849811 -10.08001,-3.5646399 -3.69267,0.2203412 -7.358,1.6933697 -9.90069,4.1956099 l -72.39816,71.24785 c -0.89459,0.880356 -1.5605,1.160843 -2.06654,1.167887 -0.50603,0.007 -1.04382,-0.241661 -1.73065,-0.925525 C 127.63639,82.56409 75.637745,30.201316 53.754861,9.6355883 51.909164,7.9009861 49.503749,7.0623975 46.988865,6.8739993 Z"
         inkscape:label="shadow" /><path
         id="path9-3"
         style="color:#000000;display:inline;fill:#000000;fill-opacity:0.192575;stroke-linecap:round;stroke-linejoin:round;stroke-miterlimit:2.5;-inkscape-stroke:none"
         d="m 49.6347,7.403166 c -0.838294,-0.062799 -1.688824,-0.053374 -2.534729,0.01912 -3.383617,0.2899782 -6.74819,1.5727408 -9.234578,3.474724 -10.010508,7.657622 -18.811099,16.377351 -27.009724,27.029361 -2.4027988,3.12182 -2.7667705,7.23039 -1.7378789,11.285099 1.0288919,4.054709 3.4347039,8.120167 6.7339589,11.39672 l 68.94928,68.4744 -0.249597,2.87528 -71.400812,72.3222 c -1.848281,1.87217 -2.848335,4.81289 -3.2008397,7.70082 -0.352504,2.88795 -0.105875,5.7285 1.1911427,7.55665 7.479021,10.54169 18.720432,23.2417 31.168126,32.88895 2.13358,1.65356 4.836878,2.2154 7.624858,1.65416 2.787981,-0.56124 5.673154,-2.20662 8.392769,-4.90823 a 0.94309432,0.94309432 0 0 0 0.0057,-0.006 l 69.623174,-70.5528 c 1.49311,-1.51303 2.3689,-1.98097 2.90835,-1.97301 0.53945,0.008 1.30985,0.50577 2.58382,1.77974 a 0.94309432,0.94309432 0 0 0 0.004,0.004 l 73.77741,72.92785 c 2.32786,2.30107 5.54115,3.4045 8.65632,3.46077 3.11517,0.0563 6.18108,-0.923 8.21449,-2.99413 l 27.04899,-27.55077 c 1.76767,-1.80046 2.99156,-4.85817 3.32435,-8.11113 0.33279,-3.25296 -0.27015,-6.76145 -2.61328,-9.18549 l -72.99038,-75.5096 a 0.94309432,0.94309432 0 0 0 -0.0119,-0.0119 c -0.95142,-0.95142 -1.32644,-1.58349 -1.38855,-1.90996 -0.0615,-0.32332 0.0301,-0.59605 0.5333,-1.23042 l 72.04315,-72.879298 c 2.05407,-2.077982 3.36483,-5.47802 3.79667,-8.898165 0.43184,-3.420146 0.004,-6.926918 -2.06448,-9.089885 L 226.46529,10.979175 c -2.61212,-2.7309794 -6.38733,-3.7849814 -10.08001,-3.5646402 -3.69267,0.2203412 -7.358,1.6933697 -9.90069,4.1956102 l -72.39816,71.24785 c -0.89459,0.880356 -1.5605,1.160843 -2.06654,1.167887 -0.50603,0.007 -1.04382,-0.241661 -1.73065,-0.925525 -0.007,-0.0071 -52.00566,-52.369874 -73.888544,-72.935602 C 54.554999,8.4301528 52.149584,7.5915642 49.6347,7.403166 Z"
         inkscape:label="shadow" /></g><path
       style="color:#000000;display:inline;fill:url(#linearGradient2-1);stroke-linecap:round;stroke-linejoin:round;stroke-miterlimit:2.5;-inkscape-stroke:none"
       d="M 10.166934,54.647266 C 3.7987158,48.322865 0.8792173,38.892785 5.2536154,33.209374 13.405073,22.618642 22.141284,13.964213 32.089383,6.3543333 36.728019,2.8059712 44.987474,1.4084672 49.404941,5.5600417 71.250459,26.09065 123.27406,78.476015 123.27406,78.476015 c 1.57455,1.567754 3.14043,1.712932 5.12319,-0.238286 L 200.79693,6.9897698 c 4.6965,-4.6217842 13.87429,-5.630045 18.63626,-0.6513977 L 244.74611,32.80306 c 3.48331,3.641807 1.92045,12.986927 -1.72214,16.671924 l -72.10406,72.943506 c -1.1709,1.46879 -1.07531,2.40946 0.9216,4.40637 l 72.99081,75.51113 c 4.15676,4.30029 2.35307,12.8633 -0.70718,15.98032 l -27.04852,27.5503 c -3.60013,3.66691 -11.28644,3.7234 -15.53472,-0.47599 L 127.76419,172.4619 c -2.61661,-2.6166 -3.74036,-2.93199 -6.82916,0.19799 l -69.623789,70.55222 c -5.236849,5.20218 -10.941338,6.14743 -14.773824,3.17717 C 24.189475,236.81934 12.987609,224.16887 5.5600424,213.6997 3.4940368,210.78766 4.2580099,202.90755 7.4726721,199.65134 l 71.6387769,-72.56467 0.317717,-3.65375 z"
       id="path4" /><path
       style="color:#000000;display:inline;fill:url(#linearGradient7);fill-opacity:0.584687;stroke-linecap:round;stroke-linejoin:round;stroke-miterlimit:2.5;-inkscape-stroke:none"
       d="M 10.166934,54.647266 C 3.7987158,48.322865 0.8792173,38.892785 5.2536154,33.209374 13.405073,22.618642 22.141284,13.964213 32.089383,6.3543333 36.728019,2.8059712 44.987474,1.4084672 49.404941,5.5600417 71.250459,26.09065 123.27406,78.476015 123.27406,78.476015 c 1.57455,1.567754 3.14043,1.712932 5.12319,-0.238286 L 200.79693,6.9897698 c 4.6965,-4.6217842 13.87429,-5.630045 18.63626,-0.6513977 L 244.74611,32.80306 c 3.48331,3.641807 1.91114,12.977749 -1.72214,16.671924 l -50.08742,50.926866 c -40.29164,-2.497193 -77.38061,8.27381 -113.507384,23.03107 z"
       id="path6-6"
       sodipodi:nodetypes="sssscscsssccs" /><path
       style="color:#000000;display:inline;fill:url(#linearGradient4);stroke-linecap:round;stroke-linejoin:round;stroke-miterlimit:2.5;-inkscape-stroke:none"
       d="m 210.03516,2.1230469 c -3.69268,0.2203414 -7.3577,1.6930701 -9.90039,4.1953125 L 127.73633,77.566406 c -0.89459,0.880357 -1.56037,1.160925 -2.06641,1.167969 -0.50603,0.007 -1.04364,-0.241917 -1.73047,-0.925781 C 123.93239,77.801479 71.933687,25.438793 50.050781,4.8730469 47.58985,2.5602422 44.133621,1.8408809 40.75,2.1308594 37.366379,2.4208379 34.002015,3.7034843 31.515625,5.6054687 21.505107,13.263096 12.704489,21.982746 4.5058594,32.634766 2.1030587,35.75659 1.7386855,39.865209 2.7675781,43.919922 c 1.0288926,4.054713 3.4351183,8.119928 6.734375,11.396484 l 68.9492189,68.474614 -0.25,2.875 -71.4003908,72.32226 c -1.8482821,1.87217 -2.8486671,4.81323 -3.2011718,7.70117 -0.3525047,2.88795 -0.105612,5.72849 1.1914062,7.55664 7.4790254,10.5417 18.7202614,23.24142 31.1679684,32.88868 2.133582,1.65357 4.837017,2.21553 7.625,1.65429 2.787984,-0.56124 5.67296,-2.20659 8.392578,-4.9082 a 0.94309432,0.94309432 0 0 0 0.0059,-0.006 l 69.623048,-70.55273 c 1.49311,-1.51303 2.36875,-1.98062 2.9082,-1.97266 0.53945,0.008 1.31002,0.50533 2.58399,1.7793 a 0.94309432,0.94309432 0 0 0 0.004,0.004 l 73.77735,72.92774 c 2.32786,2.30107 5.54108,3.40466 8.65625,3.46093 3.11517,0.0563 6.18143,-0.92301 8.21484,-2.99414 l 27.04883,-27.55078 c 1.76767,-1.80046 2.99143,-4.85836 3.32422,-8.11133 0.33279,-3.25296 -0.27015,-6.7615 -2.61328,-9.18554 l -72.99024,-75.50977 a 0.94309432,0.94309432 0 0 0 -0.0117,-0.0117 c -0.95142,-0.95142 -1.32656,-1.58368 -1.38867,-1.91015 -0.0615,-0.32332 0.03,-0.5961 0.5332,-1.23047 l 72.04297,-72.878908 c 2.05407,-2.077984 3.36504,-5.478289 3.79688,-8.898438 0.43184,-3.420149 0.004,-6.926874 -2.06446,-9.089843 L 220.11523,5.6875 C 217.50311,2.9565177 213.72784,1.9027054 210.03516,2.1230469 Z m 0.11132,1.8828125 c 3.26083,-0.1945728 6.45563,0.736715 8.60547,2.984375 l 25.3125,26.4648436 c 1.41448,1.478834 1.94605,4.464723 1.55664,7.548828 -0.38941,3.084106 -1.67906,6.201584 -3.26757,7.808594 L 170.25,121.75586 a 0.94309432,0.94309432 0 0 0 -0.0684,0.0742 c -0.65441,0.8209 -1.10821,1.75924 -0.91602,2.76953 0.1922,1.01029 0.86272,1.84709 1.90821,2.89258 l 72.98047,75.5 c 1.81362,1.87624 2.38672,4.79877 2.09179,7.68164 -0.29492,2.88286 -1.50039,5.66587 -2.79297,6.98242 l -27.04882,27.54883 c -1.56672,1.59578 -4.14391,2.47828 -6.83399,2.42969 -2.69008,-0.0486 -5.44482,-1.01575 -7.36523,-2.91407 l -73.77344,-72.92578 -0.004,-0.004 c -1.34064,-1.34036 -2.43952,-2.30677 -3.88671,-2.32813 -1.44878,-0.0214 -2.68167,0.9182 -4.27735,2.53516 l -69.623045,70.55078 c -2.51519,2.49659 -5.100092,3.92361 -7.429688,4.39258 -2.331589,0.46936 -4.396802,0.0198 -6.095703,-1.29688 -12.248152,-9.4926 -23.409063,-22.09362 -30.7851559,-32.49023 -0.7689853,-1.08389 -1.1740672,-3.64217 -0.8574219,-6.23633 0.3166454,-2.59417 1.3054982,-5.21948 2.6718751,-6.60352 L 79.783203,127.75 a 0.94309432,0.94309432 0 0 0 0.267578,-0.58203 l 0.31836,-3.6543 a 0.94309432,0.94309432 0 0 0 -0.275391,-0.75 L 10.832031,53.978516 C 7.7630762,50.930677 5.5250128,47.11735 4.5957031,43.455078 3.6663934,39.792806 4.028407,36.346737 6,33.785156 14.104269,23.255733 22.776449,14.665632 32.662109,7.1035156 34.81435,5.4571415 37.90003,4.2677355 40.910156,4.0097656 43.920283,3.7517958 46.803234,4.4092812 48.759766,6.2480469 70.566365,26.742079 122.60547,79.140625 122.60547,79.140625 a 0.94309432,0.94309432 0 0 0 0.004,0.0039 c 0.88772,0.883889 1.9197,1.490843 3.08593,1.47461 1.16623,-0.01623 2.27511,-0.638126 3.36328,-1.708985 l 72.4003,-71.2480406 c 2.15381,-2.1195373 5.42668,-3.4616773 8.6875,-3.65625 z"
       id="path5" /></g></svg>
