<?xml version="1.0" encoding="UTF-8" standalone="no"?>
<!-- Created with Inkscape (http://www.inkscape.org/) -->

<svg
   width="256mm"
   height="256mm"
   viewBox="0 0 256 256"
   version="1.1"
   id="svg1"
   inkscape:version="1.3.2 (091e20ef0f, 2023-11-25)"
   xml:space="preserve"
   sodipodi:docname="smallclock.svg"
   xmlns:inkscape="http://www.inkscape.org/namespaces/inkscape"
   xmlns:sodipodi="http://sodipodi.sourceforge.net/DTD/sodipodi-0.dtd"
   xmlns:xlink="http://www.w3.org/1999/xlink"
   xmlns="http://www.w3.org/2000/svg"
   xmlns:svg="http://www.w3.org/2000/svg"
   xmlns:rdf="http://www.w3.org/1999/02/22-rdf-syntax-ns#"
   xmlns:cc="http://creativecommons.org/ns#"
   xmlns:dc="http://purl.org/dc/elements/1.1/"><defs
     id="defs1"><linearGradient
       id="linearGradient48"
       inkscape:collect="always"><stop
         style="stop-color:#000000;stop-opacity:0;"
         offset="0"
         id="stop41" /><stop
         style="stop-color:#000000;stop-opacity:0.37361625;"
         offset="0.65035146"
         id="stop42" /><stop
         style="stop-color:#000000;stop-opacity:0;"
         offset="0.67552984"
         id="stop43" /><stop
         style="stop-color:#000000;stop-opacity:0;"
         offset="0.69186842"
         id="stop44" /><stop
         style="stop-color:#000000;stop-opacity:0.19215686;"
         offset="0.82852018"
         id="stop45" /><stop
         style="stop-color:#000000;stop-opacity:0.31826568;"
         offset="0.85263807"
         id="stop46" /><stop
         style="stop-color:#000000;stop-opacity:0.80996311;"
         offset="0.89786285"
         id="stop47" /><stop
         style="stop-color:#000000;stop-opacity:0;"
         offset="1"
         id="stop48" /></linearGradient><linearGradient
       id="linearGradient33"
       inkscape:collect="always"><stop
         style="stop-color:#fcfcfc;stop-opacity:0;"
         offset="0"
         id="stop33" /><stop
         style="stop-color:#fefefe;stop-opacity:0;"
         offset="0.83486903"
         id="stop35" /><stop
         style="stop-color:#fefefe;stop-opacity:0.7297048;"
         offset="0.87141168"
         id="stop36" /><stop
         style="stop-color:#fcfcfc;stop-opacity:0;"
         offset="0.91379434"
         id="stop39" /><stop
         style="stop-color:#f8f8f8;stop-opacity:0;"
         offset="1"
         id="stop34" /></linearGradient><linearGradient
       id="linearGradient31"
       inkscape:collect="always"><stop
         style="stop-color:#c5e0ed;stop-opacity:1;"
         offset="0"
         id="stop31" /><stop
         style="stop-color:#f2f2f2;stop-opacity:1;"
         offset="1"
         id="stop32" /></linearGradient><linearGradient
       id="linearGradient2"
       inkscape:collect="always"><stop
         style="stop-color:#b0e4fc;stop-opacity:1;"
         offset="0"
         id="stop2" /><stop
         style="stop-color:#e0f2f9;stop-opacity:1;"
         offset="1"
         id="stop3" /></linearGradient><linearGradient
       inkscape:collect="always"
       xlink:href="#linearGradient2"
       id="linearGradient3"
       x1="56.254663"
       y1="135.63928"
       x2="157.56097"
       y2="201.92212"
       gradientUnits="userSpaceOnUse" /><linearGradient
       inkscape:collect="always"
       xlink:href="#linearGradient31"
       id="linearGradient32"
       x1="84.682709"
       y1="189.07643"
       x2="143.08476"
       y2="132.569"
       gradientUnits="userSpaceOnUse" /><radialGradient
       inkscape:collect="always"
       xlink:href="#linearGradient48"
       id="radialGradient34"
       cx="123.69899"
       cy="124.8637"
       fx="123.69899"
       fy="124.8637"
       r="74.306642"
       gradientTransform="matrix(1.0574728,0.60360074,-0.66240688,1.160498,76.260053,-87.25769)"
       gradientUnits="userSpaceOnUse" /><radialGradient
       inkscape:collect="always"
       xlink:href="#linearGradient33"
       id="radialGradient40"
       gradientUnits="userSpaceOnUse"
       gradientTransform="matrix(0.92689748,0.54015894,-0.53659194,0.92077666,77.053066,-49.616815)"
       cx="129.05023"
       cy="124.25808"
       fx="129.05023"
       fy="124.25808"
       r="74.306642" /></defs><sodipodi:namedview
     id="base"
     pagecolor="#ffffff"
     bordercolor="#000000"
     borderopacity="0.3"
     inkscape:pageopacity="0.0"
     inkscape:pageshadow="2"
     inkscape:zoom="0.98994949"
     inkscape:cx="505.07627"
     inkscape:cy="476.792"
     inkscape:document-units="mm"
     inkscape:showpageshadow="2"
     inkscape:pagecheckerboard="0"
     inkscape:deskcolor="#d1d1d1"
     inkscape:current-layer="path1"
     showguides="true" /><metadata
     id="metadata1"><rdf:RDF><cc:Work
         rdf:about=""><dc:format>image/svg+xml</dc:format><dc:type
           rdf:resource="http://purl.org/dc/dcmitype/StillImage" /><cc:license
           rdf:resource="http://creativecommons.org/publicdomain/zero/1.0/" /></cc:Work><cc:License
         rdf:about="http://creativecommons.org/publicdomain/zero/1.0/"><cc:permits
           rdf:resource="http://creativecommons.org/ns#Reproduction" /><cc:permits
           rdf:resource="http://creativecommons.org/ns#Distribution" /><cc:permits
           rdf:resource="http://creativecommons.org/ns#DerivativeWorks" /></cc:License></rdf:RDF></metadata><g
     id="path1"
     style="display:inline"
     inkscape:label="smallclock"
     transform="matrix(1.6714455,0,0,1.6714455,-90.688099,-98.633497)"><path
       style="color:#000000;display:inline;fill:url(#linearGradient3);stroke-linecap:round;stroke-linejoin:round;stroke-miterlimit:5;-inkscape-stroke:none"
       d="M 199.83618,135.63928 A 69.275009,69.275009 0 0 1 130.56117,204.91429 69.275009,69.275009 0 0 1 61.286163,135.63928 69.275009,69.275009 0 0 1 130.56117,66.364273 69.275009,69.275009 0 0 1 199.83618,135.63928 Z"
       id="path3"
       inkscape:label="back" /><path
       style="color:#000000;display:inline;fill:url(#linearGradient32);stroke-width:0.881304;stroke-linecap:round;stroke-linejoin:round;stroke-miterlimit:5;-inkscape-stroke:none"
       d="m 129.75874,69.350117 c -36.114709,10e-7 -65.486747,29.372036 -65.486748,65.486743 0,36.11471 29.372039,65.48675 65.486748,65.48675 36.1147,0 65.48675,-29.37204 65.48675,-65.48675 0,-36.114707 -29.37205,-65.486743 -65.48675,-65.486743 z m 0,20.362434 c 29.08865,-0.173597 45.39331,18.439449 45.39331,45.124309 0,25.4443 -22.0844,43.25515 -45.39331,43.25515 -23.58375,0 -44.322506,-19.13686 -44.322506,-43.25515 0,-29.69693 18.428536,-44.969778 44.322506,-45.124309 z"
       id="path4"
       inkscape:label="inner"
       sodipodi:nodetypes="ssssssssss" /><path
       style="display:none;fill:#ddc78e;fill-opacity:0.749129;stroke-width:4.90683;stroke-linecap:round;stroke-linejoin:round;stroke-miterlimit:5;stroke-opacity:0.992157"
       id="path1-9"
       sodipodi:type="arc"
       sodipodi:cx="125.54042"
       sodipodi:cy="127.92289"
       sodipodi:rx="120.86195"
       sodipodi:ry="120.86195"
       sodipodi:start="4.712259"
       sodipodi:end="0.013097004"
       sodipodi:arc-type="slice"
       d="m 125.52471,7.060937 a 120.86195,120.86195 0 0 1 86.03031,35.955534 120.86195,120.86195 0 0 1 34.83699,86.489299 l -120.85159,-1.58288 z"
       inkscape:label="recent"
       transform="matrix(0.59828455,0,0,0.59828455,54.257287,59.010896)" /><g
       id="g31"><path
         id="rect6"
         style="fill:#7c99a6;stroke-linecap:round;stroke-linejoin:round;stroke-miterlimit:5"
         inkscape:transform-center-y="-55.057523"
         d="m 128.08807,77.985268 h 3.40178 v 3.399817 h -3.40178 z" /><path
         id="use6"
         style="fill:#7c99a6;stroke-linecap:round;stroke-linejoin:round;stroke-miterlimit:5"
         inkscape:transform-center-y="-55.057523"
         d="m 128.08807,77.985268 h 3.40178 v 3.399817 h -3.40178 z" /><path
         id="use7"
         style="fill:#7c99a6;stroke-linecap:round;stroke-linejoin:round;stroke-miterlimit:5"
         inkscape:transform-center-y="-55.057523"
         transform="rotate(30)"
         d="m 178.071,-4.9613113 h 3.40178 v 3.3998177 H 178.071 Z" /><path
         id="use8"
         style="fill:#7c99a6;stroke-linecap:round;stroke-linejoin:round;stroke-miterlimit:5"
         inkscape:transform-center-y="-55.057523"
         transform="rotate(60)"
         d="m 179.8842,-101.78662 h 3.40178 v 3.399817 h -3.40178 z" /><path
         id="use9"
         style="fill:#7c99a6;stroke-linecap:round;stroke-linejoin:round;stroke-miterlimit:5"
         inkscape:transform-center-y="-55.057523"
         transform="rotate(90)"
         d="m 133.04181,-186.54639 h 3.40178 v 3.39982 h -3.40178 z" /><path
         id="use10"
         style="fill:#7c99a6;stroke-linecap:round;stroke-linejoin:round;stroke-miterlimit:5"
         inkscape:transform-center-y="-55.057523"
         transform="rotate(120)"
         d="m 50.095234,-236.52931 h 3.401779 v 3.39982 h -3.401779 z" /><path
         id="use11"
         style="fill:#7c99a6;stroke-linecap:round;stroke-linejoin:round;stroke-miterlimit:5"
         inkscape:transform-center-y="-55.057523"
         transform="rotate(150)"
         d="m -46.730072,-238.34251 h 3.401779 v 3.39981 h -3.401779 z" /><path
         id="use12"
         style="fill:#7c99a6;stroke-linecap:round;stroke-linejoin:round;stroke-miterlimit:5"
         inkscape:transform-center-y="-55.057523"
         transform="scale(-1)"
         d="m -131.48985,-191.50014 h 3.40178 v 3.39982 h -3.40178 z" /><path
         id="use13"
         style="fill:#7c99a6;stroke-linecap:round;stroke-linejoin:round;stroke-miterlimit:5"
         inkscape:transform-center-y="-55.057523"
         transform="rotate(-150)"
         d="m -181.47278,-108.55355 h 3.40178 v 3.39982 h -3.40178 z" /><path
         id="use14"
         style="fill:#7c99a6;stroke-linecap:round;stroke-linejoin:round;stroke-miterlimit:5"
         inkscape:transform-center-y="-55.057523"
         transform="rotate(-120)"
         d="m -183.28596,-11.728246 h 3.40177 v 3.399818 h -3.40177 z" /><path
         id="use15"
         style="fill:#7c99a6;stroke-linecap:round;stroke-linejoin:round;stroke-miterlimit:5"
         inkscape:transform-center-y="-55.057523"
         transform="rotate(-90)"
         d="m -136.44359,73.031525 h 3.40178 v 3.399817 h -3.40178 z" /><path
         id="use16"
         style="fill:#7c99a6;stroke-linecap:round;stroke-linejoin:round;stroke-miterlimit:5"
         inkscape:transform-center-y="-55.057523"
         transform="rotate(-60)"
         d="m -53.497009,123.01446 h 3.401779 v 3.39982 h -3.401779 z" /><path
         id="use17"
         style="fill:#7c99a6;stroke-linecap:round;stroke-linejoin:round;stroke-miterlimit:5"
         inkscape:transform-center-y="-55.057523"
         transform="rotate(-30)"
         d="m 43.3283,124.82765 h 3.40178 v 3.39982 H 43.3283 Z" /></g><g
       id="g30"><path
         id="rect17"
         style="fill:#7c99a6;stroke-linecap:round;stroke-linejoin:round;stroke-miterlimit:5"
         inkscape:transform-center-x="-0.37797619"
         inkscape:transform-center-y="-54.428572"
         d="m 125.67708,75.973221 h 9.07143 v 8.693453 h -9.07143 z" /><path
         id="use27"
         style="fill:#7c99a6;stroke-linecap:round;stroke-linejoin:round;stroke-miterlimit:5"
         inkscape:transform-center-x="-0.37797619"
         inkscape:transform-center-y="-54.428572"
         d="m 125.67708,75.973221 h 9.07143 v 8.693453 h -9.07143 z" /><path
         id="use28"
         style="fill:#7c99a6;stroke-linecap:round;stroke-linejoin:round;stroke-miterlimit:5"
         inkscape:transform-center-x="-0.37797619"
         inkscape:transform-center-y="-54.428572"
         d="m 188.61011,130.59079 v 9.07143 h -8.69345 v -9.07143 z" /><path
         id="use29"
         style="fill:#7c99a6;stroke-linecap:round;stroke-linejoin:round;stroke-miterlimit:5"
         inkscape:transform-center-x="-0.37797619"
         inkscape:transform-center-y="-54.428572"
         d="m 133.99254,193.52382 h -9.07143 v -8.69345 h 9.07143 z" /><path
         id="use30"
         style="fill:#7c99a6;stroke-linecap:round;stroke-linejoin:round;stroke-miterlimit:5"
         inkscape:transform-center-x="-0.37797619"
         inkscape:transform-center-y="-54.428572"
         d="m 71.059511,138.90625 v -9.07143 h 8.693453 v 9.07143 z" /></g><path
       style="color:#000000;fill:#9b9b9b;stroke-linecap:round;stroke-linejoin:round;stroke-miterlimit:5;-inkscape-stroke:none"
       d="m 130.56055,61.332031 c -40.978716,10e-7 -74.306643,33.327928 -74.306644,74.306639 0,40.97872 33.327927,74.30664 74.306644,74.30664 40.97871,0 74.30664,-33.32792 74.30664,-74.30664 0,-40.978712 -33.32793,-74.306639 -74.30664,-74.306639 z m 0,10.064453 c 35.54027,0 64.24414,28.701916 64.24414,64.242186 0,35.54027 -28.70387,64.24414 -64.24414,64.24414 -35.540274,0 -64.242191,-28.70387 -64.242191,-64.24414 10e-7,-35.54027 28.701918,-64.242185 64.242191,-64.242186 z"
       id="path5"
       inkscape:label="frame" /><path
       style="color:#000000;display:inline;fill:url(#radialGradient40);stroke-linecap:round;stroke-linejoin:round;stroke-miterlimit:5;-inkscape-stroke:none"
       d="m 130.56055,61.332031 c -40.978716,10e-7 -74.306643,33.327928 -74.306644,74.306639 0,40.97872 33.327927,74.30664 74.306644,74.30664 40.97871,0 74.30664,-33.32792 74.30664,-74.30664 0,-40.978712 -33.32793,-74.306639 -74.30664,-74.306639 z m 0,10.064453 c 35.54027,0 64.24414,28.701916 64.24414,64.242186 0,35.54027 -28.70387,64.24414 -64.24414,64.24414 -35.540274,0 -64.242191,-28.70387 -64.242191,-64.24414 10e-7,-35.54027 28.701918,-64.242185 64.242191,-64.242186 z"
       id="path40"
       inkscape:label="framewhite" /><path
       style="color:#000000;display:inline;fill:url(#radialGradient34);stroke-linecap:round;stroke-linejoin:round;stroke-miterlimit:5;-inkscape-stroke:none"
       d="m 130.56055,61.332031 c -40.978716,10e-7 -74.306643,33.327928 -74.306644,74.306639 0,40.97872 33.327927,74.30664 74.306644,74.30664 40.97871,0 74.30664,-33.32792 74.30664,-74.30664 0,-40.978712 -33.32793,-74.306639 -74.30664,-74.306639 z m 0,10.064453 c 35.54027,0 64.24414,28.701916 64.24414,64.242186 0,35.54027 -28.70387,64.24414 -64.24414,64.24414 -35.540274,0 -64.242191,-28.70387 -64.242191,-64.24414 10e-7,-35.54027 28.701918,-64.242185 64.242191,-64.242186 z"
       id="path32"
       inkscape:label="framedark" /></g><g
     id="g50"
     inkscape:label="hands"
     style="display:inline"
     transform="matrix(1.6714455,0,0,1.6714455,-90.688099,-98.633497)"><path
       id="rect48"
       style="fill:#d9000d;fill-opacity:1;stroke-linecap:round;stroke-linejoin:round;stroke-miterlimit:5"
       d="m 77.958979,148.41875 56.170541,-16.89284 1.25192,4.16255 -56.17054,16.89284 c -5.497704,0.0618 -6.037063,-1.54972 -1.251919,-4.16255 z"
       sodipodi:nodetypes="ccccc"
       inkscape:transform-center-x="41.641654"
       inkscape:transform-center-y="12.02232" /><path
       id="rect49"
       style="fill:#030000;stroke-linecap:round;stroke-linejoin:round;stroke-miterlimit:5"
       d="m 127.72468,79.372412 c 1.45818,-3.574524 3.37773,-2.865281 4.3467,0.01127 l 2.7799,57.648768 c -2.96475,3.52551 -7.17677,3.22306 -9.92184,-0.0257 z"
       sodipodi:nodetypes="ccccc"
       inkscape:transform-center-y="-44.858344"
       inkscape:transform-center-x="0.089497346" /><path
       id="path49"
       style="fill:#030000;stroke-width:0.849875;stroke-linecap:round;stroke-linejoin:round;stroke-miterlimit:5"
       d="m 168.7754,132.18539 c 2.59203,1.42309 2.09336,3.34949 0.0226,4.3466 l -41.6173,3.34453 c -2.56729,-2.93007 -2.37865,-7.14485 -0.0516,-9.92161 z"
       sodipodi:nodetypes="ccccc"
       inkscape:transform-center-y="-0.25202697"
       inkscape:transform-center-x="-30.204374" /><circle
       style="fill:#fffefe;fill-opacity:1;stroke:none;stroke-width:1;stroke-linecap:round;stroke-linejoin:round;stroke-miterlimit:5;stroke-dasharray:none;stroke-opacity:1"
       id="path50"
       cx="129.83482"
       cy="134.9375"
       r="1.8898809" /></g></svg>
