<?xml version="1.0" encoding="UTF-8" standalone="no"?>
<!-- Created with Inkscape (http://www.inkscape.org/) -->

<svg
   width="256mm"
   height="256mm"
   viewBox="0 0 256 256"
   version="1.1"
   id="svg1"
   inkscape:version="1.3.2 (091e20ef0f, 2023-11-25)"
   sodipodi:docname="sort-name.svg"
   xmlns:inkscape="http://www.inkscape.org/namespaces/inkscape"
   xmlns:sodipodi="http://sodipodi.sourceforge.net/DTD/sodipodi-0.dtd"
   xmlns="http://www.w3.org/2000/svg"
   xmlns:svg="http://www.w3.org/2000/svg"
   xmlns:rdf="http://www.w3.org/1999/02/22-rdf-syntax-ns#"
   xmlns:cc="http://creativecommons.org/ns#"
   xmlns:dc="http://purl.org/dc/elements/1.1/">
  <defs
     id="defs1" />
  <sodipodi:namedview
     id="base"
     pagecolor="#ffffff"
     bordercolor="#000000"
     borderopacity="0.3"
     inkscape:pageopacity="0.0"
     inkscape:pageshadow="2"
     inkscape:zoom="0.98994949"
     inkscape:cx="505.07627"
     inkscape:cy="476.792"
     inkscape:document-units="mm"
     inkscape:showpageshadow="2"
     inkscape:pagecheckerboard="0"
     inkscape:deskcolor="#d1d1d1"
     inkscape:current-layer="svg1" />
  <metadata
     id="metadata1">
    <rdf:RDF>
      <cc:Work
         rdf:about="">
        <dc:format>image/svg+xml</dc:format>
        <dc:type
           rdf:resource="http://purl.org/dc/dcmitype/StillImage" />
        <cc:license
           rdf:resource="http://creativecommons.org/publicdomain/zero/1.0/" />
      </cc:Work>
      <cc:License
         rdf:about="http://creativecommons.org/publicdomain/zero/1.0/">
        <cc:permits
           rdf:resource="http://creativecommons.org/ns#Reproduction" />
        <cc:permits
           rdf:resource="http://creativecommons.org/ns#Distribution" />
        <cc:permits
           rdf:resource="http://creativecommons.org/ns#DerivativeWorks" />
      </cc:License>
    </rdf:RDF>
  </metadata>
  <g
     id="g11">
    <g
       id="text1">
      <path
         style="color:#000000;-inkscape-font-specification:'Liberation Sans Bold';fill:#96cbff;stroke-linecap:round;stroke-linejoin:round;stroke-miterlimit:2.1;-inkscape-stroke:none"
         d="M 50.269531,9.4316406 A 4.2334231,4.2334231 0 0 0 46.292969,12.212891 L 10.876953,109.29688 a 4.2334231,4.2334231 0 0 0 3.976563,5.68359 h 20.326171 a 4.2334231,4.2334231 0 0 0 3.998047,-2.8457 l 7.625,-21.958989 H 77.78125 l 7.625,21.958989 a 4.2334231,4.2334231 0 0 0 3.998047,2.8457 h 20.121093 a 4.2334231,4.2334231 0 0 0 3.97656,-5.67969 L 78.224609,12.21875 A 4.2334231,4.2334231 0 0 0 74.246094,9.4316406 Z m 2.960938,8.4648434 H 71.28125 l 32.20117,88.617186 H 92.416016 l -7.625,-21.958983 a 4.2334231,4.2334231 0 0 0 -3.998047,-2.845703 h -37 a 4.2334231,4.2334231 0 0 0 -4,2.845703 l -7.625,21.958983 H 20.904297 Z m 8.964843,6.488282 a 4.2334231,4.2334231 0 0 0 -4.021484,3.117187 l -0.414062,1.515625 c -0.446529,1.60681 -0.986116,3.451311 -1.619141,5.53125 -0.495953,1.629559 -4.548637,13.597447 -11.804688,34.722656 a 4.2334231,4.2334231 0 0 0 4.003907,5.607422 h 27.904297 a 4.2334231,4.2334231 0 0 0 4.003906,-5.607422 L 70.6875,41.416016 67.748047,32.115234 66.306641,27.382812 a 4.2334231,4.2334231 0 0 0 -4.111329,-2.998046 z m 0.06445,18.457031 0.371093,1.175781 a 4.2334231,4.2334231 0 0 0 0.0332,0.09766 l 7.652344,22.298828 H 54.25 c 4.158147,-12.124414 6.785585,-19.856095 8.009766,-23.572265 z"
         id="path9" />
      <path
         style="color:#000000;-inkscape-font-specification:'Liberation Sans Bold';fill:#3465ff;stroke-linecap:round;stroke-linejoin:round;stroke-miterlimit:2.1;-inkscape-stroke:none"
         d="M 89.405081,110.74702 80.79235,85.94235 H 43.792055 l -8.612731,24.80467 H 14.853277 L 50.268829,13.664308 H 74.246674 L 109.52442,110.74702 Z M 62.257751,28.61601 61.84434,30.13185 q -0.689018,2.480467 -1.653644,5.649952 -0.964626,3.169485 -11.851119,34.864337 h 27.90525 L 66.66747,42.740889 63.70469,33.370237 Z"
         id="path8" />
    </g>
    <g
       id="text2">
      <path
         style="color:#000000;-inkscape-font-specification:'Liberation Sans Bold';fill:#96cbff;stroke-linecap:round;stroke-linejoin:round;stroke-miterlimit:2.1;-inkscape-stroke:none"
         d="m 21.203125,117.87109 a 4.2334231,4.2334231 0 0 0 -4.232422,4.23243 v 17.90625 a 4.2334231,4.2334231 0 0 0 4.232422,4.23242 h 44.460937 l -53.679687,68.26172 a 4.2334231,4.2334231 0 0 0 -0.90625,2.61718 v 16.20118 a 4.2334231,4.2334231 0 0 0 4.234375,4.23242 h 87.66797 a 4.2334231,4.2334231 0 0 0 4.23242,-4.23242 v -17.90625 a 4.2334231,4.2334231 0 0 0 -4.23242,-4.23438 H 49.427734 l 53.707036,-68.57812 a 4.2334231,4.2334231 0 0 0 0.90039,-2.60938 v -15.89062 a 4.2334231,4.2334231 0 0 0 -4.232426,-4.23243 z m 4.232422,8.46485 h 70.134765 v 10.19726 l -58.166015,74.27149 a 4.2334231,4.2334231 0 0 0 3.332031,6.84375 h 58.011719 v 9.43945 H 19.544922 V 216.58594 L 77.705078,142.625 a 4.2334231,4.2334231 0 0 0 -3.328125,-6.84961 H 25.435547 Z"
         id="path7" />
      <path
         style="color:#000000;-inkscape-font-specification:'Liberation Sans Bold';fill:#3465ff;stroke-linecap:round;stroke-linejoin:round;stroke-miterlimit:2.1;-inkscape-stroke:none"
         d="M 102.98079,231.32143 H 15.311724 V 215.12086 L 74.377886,140.00917 H 21.202837 v -17.90588 h 78.599854 v 15.8905 l -59.066163,75.42175 h 62.244262 z"
         id="path6" />
    </g>
    <g
       id="path2">
      <path
         style="color:#000000;fill:#95caff;stroke-linecap:round;stroke-linejoin:round;stroke-miterlimit:2.1;-inkscape-stroke:none"
         d="m 197.40234,69.402344 a 4.750475,4.750475 0 0 0 -3.35742,1.392578 l -44.68945,44.687498 a 4.750475,4.750475 0 0 0 -1.39063,3.35742 v 29.79297 a 4.750475,4.750475 0 0 0 8.10938,3.35938 l 29.13086,-29.13086 v 121.00976 c 3.5e-4,6.6797 5.51756,12.19645 12.19726,12.19727 6.68098,0.001 12.19887,-5.51629 12.19922,-12.19727 V 122.86133 l 29.13086,29.13086 a 4.750475,4.750475 0 0 0 8.10938,-3.35938 v -29.79297 a 4.750475,4.750475 0 0 0 -1.39258,-3.35742 l -44.6875,-44.687498 a 4.750475,4.750475 0 0 0 -3.35938,-1.392578 z m 0,11.46875 39.93946,39.937496 v 16.35743 l -29.13086,-29.13086 a 4.750475,4.750475 0 0 0 -8.10938,3.35937 v 132.47656 c -8e-5,1.54646 -1.15276,2.69751 -2.69922,2.69727 -1.54611,-1.9e-4 -2.69718,-1.15116 -2.69726,-2.69727 V 111.39258 a 4.750475,4.750475 0 0 0 -8.10938,-3.35938 l -29.13086,29.13086 v -16.35547 z"
         id="path11" />
      <path
         style="color:#000000;fill:#0080fd;stroke-linecap:round;stroke-linejoin:round;stroke-miterlimit:2.1;-inkscape-stroke:none"
         d="m 197.40294,74.153097 -44.68823,44.687713 v 29.79198 l 37.24062,-37.24011 V 243.8709 a 7.448,7.448 0 0 0 7.44709,7.44761 7.448,7.448 0 0 0 7.44916,-7.44761 V 111.39372 l 37.23959,37.23907 v -29.79198 z"
         id="path10" />
    </g>
  </g>
</svg>
