<?xml version="1.0" encoding="UTF-8" standalone="no"?>
<svg
   version="1.1"
   width="256"
   height="256"
   viewBox="0 0 256 256"
   xml:space="preserve"
   id="svg37"
   sodipodi:docname="system-suspend.svg"
   inkscape:version="1.3.2 (091e20ef0f, 2023-11-25)"
   xmlns:inkscape="http://www.inkscape.org/namespaces/inkscape"
   xmlns:sodipodi="http://sodipodi.sourceforge.net/DTD/sodipodi-0.dtd"
   xmlns:xlink="http://www.w3.org/1999/xlink"
   xmlns="http://www.w3.org/2000/svg"
   xmlns:svg="http://www.w3.org/2000/svg"
   xmlns:rdf="http://www.w3.org/1999/02/22-rdf-syntax-ns#"
   xmlns:cc="http://creativecommons.org/ns#"><sodipodi:namedview
   id="namedview37"
   pagecolor="#ffffff"
   bordercolor="#000000"
   borderopacity="0.25"
   inkscape:showpageshadow="2"
   inkscape:pageopacity="0.0"
   inkscape:pagecheckerboard="0"
   inkscape:deskcolor="#d1d1d1"
   inkscape:current-layer="g3"
   showguides="true"><sodipodi:guide
     position="128.23315,225.69035"
     orientation="1,0"
     id="guide1"
     inkscape:locked="false" /><sodipodi:guide
     position="56.888889,127.76685"
     orientation="0,-1"
     id="guide2"
     inkscape:locked="false" /></sodipodi:namedview>
<desc
   id="desc1">Created with Fabric.js 5.2.4</desc>
<defs
   id="defs1"><linearGradient
     id="linearGradient35"
     inkscape:collect="always"><stop
       style="stop-color:#d7d5d5;stop-opacity:0.41131106;"
       offset="0"
       id="stop34" /><stop
       style="stop-color:#d7d5d5;stop-opacity:0;"
       offset="1"
       id="stop35" /></linearGradient><linearGradient
     id="linearGradient17"
     inkscape:collect="always"><stop
       style="stop-color:#d7d5d5;stop-opacity:0.30591258;"
       offset="0"
       id="stop17" /><stop
       style="stop-color:#d7d5d5;stop-opacity:0;"
       offset="1"
       id="stop18" /></linearGradient><linearGradient
     id="linearGradient11"
     inkscape:collect="always"><stop
       style="stop-color:#fffdfd;stop-opacity:0.63753211;"
       offset="0.05200902"
       id="stop15" /><stop
       style="stop-color:#e1dfdf;stop-opacity:0.45244217;"
       offset="0.15942086"
       id="stop33" /><stop
       style="stop-color:#d7d5d5;stop-opacity:0.21336761;"
       offset="0.51568735"
       id="stop19" /><stop
       style="stop-color:#d7d5d5;stop-opacity:0.12339332;"
       offset="0.7890625"
       id="stop20" /><stop
       style="stop-color:#d7d5d5;stop-opacity:0;"
       offset="1"
       id="stop12" /></linearGradient><linearGradient
     id="linearGradient8"
     inkscape:collect="always"><stop
       style="stop-color:#010000;stop-opacity:0.45501286;"
       offset="0"
       id="stop8" /><stop
       style="stop-color:#010000;stop-opacity:0.11825193;"
       offset="0.69999999"
       id="stop10" /><stop
       style="stop-color:#010000;stop-opacity:0;"
       offset="1"
       id="stop9" /></linearGradient><linearGradient
     id="SVGID_XMLID_3__9"
     gradientUnits="userSpaceOnUse"
     gradientTransform="matrix(1.98,0,0,1.98,-126.43,-126.43)"
     x1="63.997601"
     y1="14.0005"
     x2="63.997601"
     y2="63.0005">
<stop
   offset="0%"
   style="stop-color:rgb(255,255,255);stop-opacity: 1"
   id="stop31" />
<stop
   offset="100%"
   style="stop-color:rgb(255,255,255);stop-opacity: 0"
   id="stop32" />
</linearGradient><linearGradient
     id="SVGID_XMLID_2__8"
     gradientUnits="userSpaceOnUse"
     gradientTransform="matrix(1.98,0,0,1.98,-126.43,-126.43)"
     x1="68.054878"
     y1="118.06909"
     x2="23.2307"
     y2="22.761999">
<stop
   offset="0%"
   style="stop-color:rgb(255,84,84);stop-opacity: 1"
   id="stop26" />
<stop
   offset="19.439999999999998%"
   style="stop-color:rgb(249,79,79);stop-opacity: 1"
   id="stop27" />
<stop
   offset="46.650000000000006%"
   style="stop-color:rgb(230,66,66);stop-opacity: 1"
   id="stop28" />
<stop
   offset="78.3%"
   style="stop-color:rgb(201,45,45);stop-opacity: 1"
   id="stop29" />
<stop
   offset="100%"
   style="stop-color:rgb(176,28,28);stop-opacity: 1"
   id="stop30" />
</linearGradient><linearGradient
     id="SVGID_XMLID_1__7"
     gradientUnits="userSpaceOnUse"
     gradientTransform="matrix(1.98,0,0,1.98,-126.43,-126.43)"
     x1="115.60217"
     y1="117.39095"
     x2="13.810602"
     y2="13.381392">
<stop
   offset="0"
   style="stop-color:#ff9090;stop-opacity:1;"
   id="stop21" />
<stop
   offset="0.1944"
   style="stop-color:#fa8080;stop-opacity:1;"
   id="stop22" />
<stop
   offset="0.46650001"
   style="stop-color:#e74f4f;stop-opacity:1;"
   id="stop23" />
<stop
   offset="0.63636678"
   style="stop-color:#9d2323;stop-opacity:1;"
   id="stop24" />
<stop
   offset="1"
   style="stop-color:#881515;stop-opacity:1;"
   id="stop25" />
</linearGradient><radialGradient
     inkscape:collect="always"
     xlink:href="#linearGradient8"
     id="radialGradient9"
     cx="216.19096"
     cy="53.194252"
     fx="216.19096"
     fy="53.194252"
     r="117.97452"
     gradientTransform="matrix(0.3201582,0,0,1.9189721,-130.76721,-37.495401)"
     gradientUnits="userSpaceOnUse" /><radialGradient
     inkscape:collect="always"
     xlink:href="#linearGradient8"
     id="radialGradient10"
     gradientUnits="userSpaceOnUse"
     gradientTransform="matrix(0.33596847,0,0,1.9189721,87.802759,103.56105)"
     cx="209.39677"
     cy="37.312599"
     fx="209.39677"
     fy="37.312599"
     r="117.97452" /><radialGradient
     inkscape:collect="always"
     xlink:href="#linearGradient11"
     id="radialGradient12"
     cx="-272.40479"
     cy="-50.081898"
     fx="-272.40479"
     fy="-50.081898"
     r="117.97452"
     gradientTransform="matrix(2.1985674,0,0,1.8333037,327.51234,43.553033)"
     gradientUnits="userSpaceOnUse" /><radialGradient
     inkscape:collect="always"
     xlink:href="#linearGradient17"
     id="radialGradient18"
     cx="-209.59885"
     cy="-565.81665"
     fx="-209.59885"
     fy="-565.81665"
     r="114.47723"
     gradientTransform="matrix(2.4912033,0,0,0.10565799,274.11718,0.74110347)"
     gradientUnits="userSpaceOnUse" /><radialGradient
     inkscape:collect="always"
     xlink:href="#linearGradient35"
     id="radialGradient33"
     gradientUnits="userSpaceOnUse"
     gradientTransform="matrix(1.7661524,0,0,0.19445226,263.20379,-169.79203)"
     cx="-92.593857"
     cy="-563.0498"
     fx="-92.593857"
     fy="-563.0498"
     r="114.47723" /><linearGradient
     inkscape:collect="always"
     xlink:href="#linearGradient1"
     id="linearGradient2"
     x1="32.873901"
     y1="144.2937"
     x2="32.84568"
     y2="202.12767"
     gradientUnits="userSpaceOnUse" /><linearGradient
     id="linearGradient1"
     inkscape:collect="always"><stop
       style="stop-color:#fefefe;stop-opacity:1;"
       offset="0"
       id="stop1" /><stop
       style="stop-color:#919191;stop-opacity:1;"
       offset="1"
       id="stop2" /></linearGradient></defs>





<metadata
   id="metadata37"><rdf:RDF><cc:License
       rdf:about="http://creativecommons.org/publicdomain/zero/1.0/"><cc:permits
         rdf:resource="http://creativecommons.org/ns#Reproduction" /><cc:permits
         rdf:resource="http://creativecommons.org/ns#Distribution" /><cc:permits
         rdf:resource="http://creativecommons.org/ns#DerivativeWorks" /></cc:License><cc:Work
       rdf:about=""><cc:license
         rdf:resource="http://creativecommons.org/publicdomain/zero/1.0/" /></cc:Work></rdf:RDF></metadata><g
   id="g3"
   style="display:inline"
   transform="matrix(0.98556059,0,0,0.98556059,307.94381,87.810118)"><g
     id="g35"><rect
       style="display:inline;fill:#f8fbfd;fill-opacity:1;stroke:none;stroke-width:2;stroke-linecap:round;stroke-linejoin:round;stroke-miterlimit:2.5;stroke-dasharray:none;stroke-opacity:0.65098"
       id="rect1"
       width="256.34982"
       height="256.34973"
       x="-310.44083"
       y="-87.08197"
       ry="31.242258"
       inkscape:label="backwhite" /><rect
       style="display:inline;fill:#2b7418;fill-opacity:1;stroke:none;stroke-width:2;stroke-linecap:round;stroke-linejoin:round;stroke-miterlimit:2.5;stroke-dasharray:none;stroke-opacity:0.65098"
       id="rect2"
       width="235.94904"
       height="234.55009"
       x="-299.83243"
       y="-76.473587"
       ry="30.615946"
       inkscape:label="colorhead"
       rx="30.615946" /><g
       id="g5"
       inkscape:label="shadowdlb"><rect
         style="display:inline;fill:url(#radialGradient9);stroke:none;stroke-width:2;stroke-linecap:round;stroke-linejoin:round;stroke-miterlimit:2.5;stroke-dasharray:none;stroke-opacity:0.65098"
         id="rect3"
         width="235.94904"
         height="234.55009"
         x="-299.83243"
         y="-76.473587"
         ry="27.97814" /><rect
         style="display:inline;fill:url(#radialGradient10);stroke:none;stroke-width:2;stroke-linecap:round;stroke-linejoin:round;stroke-miterlimit:2.5;stroke-dasharray:none;stroke-opacity:0.65098"
         id="rect10"
         width="235.94904"
         height="234.55009"
         x="-77.173058"
         y="64.582863"
         ry="27.97814"
         transform="rotate(90)" /></g><rect
       style="display:inline;fill:url(#radialGradient12);stroke:none;stroke-width:2;stroke-linecap:round;stroke-linejoin:round;stroke-miterlimit:2.5;stroke-dasharray:none;stroke-opacity:0.65098"
       id="rect11"
       width="228.95447"
       height="228.48817"
       x="-296.5683"
       y="-73.209473"
       ry="27.97814" /><rect
       style="display:inline;fill:url(#radialGradient18);stroke:none;stroke-width:2;stroke-linecap:round;stroke-linejoin:round;stroke-miterlimit:2.5;stroke-dasharray:none;stroke-opacity:0.65098"
       id="rect15"
       width="228.95447"
       height="228.48817"
       x="-296.5683"
       y="-73.209473"
       ry="27.97814" /><rect
       style="display:inline;fill:url(#radialGradient33);stroke:none;stroke-width:2;stroke-linecap:round;stroke-linejoin:round;stroke-miterlimit:2.5;stroke-dasharray:none;stroke-opacity:0.65098"
       id="rect33"
       width="228.95447"
       height="228.48817"
       x="-155.51184"
       y="-296.33514"
       ry="27.97814"
       transform="rotate(-90)" /></g><g
     id="g38"
     inkscape:label="power"
     style="display:none"><path
       style="color:#000000;fill:#f0f2f4;stroke-linecap:round;stroke-linejoin:round;stroke-miterlimit:2.5;-inkscape-stroke:none"
       d="m -181.39258,-47.121094 c -48.81542,4e-6 -88.62109,39.8056766 -88.62109,88.621094 0,48.815418 39.80567,88.62304 88.62109,88.62305 48.81542,0 88.62305,-39.807627 88.623049,-88.62305 0,-48.8154218 -39.807629,-88.621096 -88.623049,-88.621094 z m 0,21.867188 c 36.99693,-2e-6 66.75586,29.756979 66.75586,66.753906 0,36.996928 -29.75893,66.75586 -66.75586,66.75586 -36.99692,0 -66.75391,-29.758936 -66.7539,-66.75586 0,-36.9969236 29.75698,-66.753903 66.7539,-66.753906 z"
       id="path37" /><path
       id="rect38"
       style="fill:#f0f2f4;stroke-width:21.408;stroke-linecap:round;stroke-linejoin:round;stroke-miterlimit:2.5"
       d="m -192.58287,-2.7978141 h 21.20911 V 83.072013 h -21.20911 z" /></g><g
     id="g39"
     inkscape:label="logout"
     transform="matrix(1.014651,0,0,1.014651,-312.45548,-89.096621)"
     style="display:none"><path
       id="rect39"
       style="display:inline;fill:none;stroke:#f0f2f4;stroke-width:19.608;stroke-linecap:square;stroke-miterlimit:2.5;stroke-dasharray:none"
       d="m 112.76615,118.7012 c -11.37273,-42.443597 15.27189,-67.093354 43.52377,-67.264012 27.20364,-0.164326 41.48302,20.298627 46.16158,34.95091 11.83075,37.051462 -22.85818,68.813752 -60.83437,58.031702 l -13.29731,15.01423 11.48382,10.8175 -20.24983,21.04587 -13.38218,-11.26724 -21.102431,20.44298 H 56.712802 V 175.414 Z"
       sodipodi:nodetypes="cssccccccccc" /><circle
       style="fill:#f0f2f4;fill-opacity:1;stroke:none;stroke-width:19.608;stroke-linecap:square;stroke-linejoin:miter;stroke-miterlimit:2.5;stroke-dasharray:none;stroke-opacity:1"
       id="path39"
       cx="164.13844"
       cy="90.462662"
       r="13.056466" /></g><g
     id="g40"
     inkscape:label="userswich"
     style="display:none"><path
       style="font-size:12px;fill:#ffffff;fill-opacity:1;fill-rule:evenodd;stroke:none;stroke-width:29.8018;stroke-linecap:round;stroke-linejoin:round;stroke-miterlimit:4;stroke-opacity:1"
       d="m -181.46734,-57.506129 c -40.41621,0 -73.3249,33.36867 -73.3249,74.00787 0,17.53451 6.36473,33.5106 16.57726,46.25492 -14.04271,13.8495 -23.24864,31.835026 -29.36721,49.855969 -2.48041,7.30884 1.3494,15.24552 8.56802,17.75692 7.21863,2.5114 15.09025,-1.38336 17.57066,-8.6922 5.55462,-16.35995 13.90265,-30.801359 24.77277,-40.667069 10.49994,5.892445 22.38102,9.561414 35.2034,9.561416 13.34385,0 25.71429,-3.899786 36.50724,-10.244376 10.31048,10.165566 18.15394,24.697219 23.34476,41.039599 2.3373,7.35713 10.11807,11.43124 17.3844,9.06472 7.266323,-2.3665 11.277848,-10.27559 8.94055,-17.63275 -5.83116,-18.358388 -14.69241,-36.785539 -28.56008,-51.097709 9.70332,-12.57381 15.70804,-28.1552 15.70804,-45.19944 0,-40.63921 -32.90873,-74.00787 -73.32491,-74.00787 z m 0,27.75295 c 25.18105,0 45.50987,20.4770299 45.50987,46.25492 0,13.56594 -5.71014,25.54382 -14.71465,33.96166 -1.48172,0.82993 -2.75978,1.91739 -3.8494,3.22854 -7.55402,5.64526 -16.81039,9.06472 -26.94582,9.06472 -9.6785,0 -18.58634,-3.0692 -25.95242,-8.25759 -0.98102,-1.10629 -2.0844,-2.05494 -3.3527,-2.79392 -9.83972,-8.44667 -16.20474,-20.92852 -16.20474,-35.20341 0,-25.7778901 20.32876,-46.25492 45.50986,-46.25492 z"
       id="path966" /></g><g
     id="g1"
     inkscape:label="reboot"
     transform="translate(0,-0.23656706)"
     style="display:none"><path
       style="display:inline;fill:#ffffff;fill-opacity:1;fill-rule:evenodd;stroke:none;stroke-width:42.1816;stroke-linecap:round;stroke-linejoin:miter;stroke-miterlimit:4;stroke-opacity:1"
       d="m -188.72955,-41.406882 c -26.35973,0.135548 -52.20813,12.23097 -68.53189,34.5663593 -26.99802,36.9407197 -18.10857,88.7966607 19.75073,115.1396327 33.4337,23.26357 78.67723,19.17988 107.40633,-7.52505 l 14.73467,11.92996 c 1.99537,1.62484 4.72418,2.07784 7.14789,1.16242 2.42368,-0.91546 4.16035,-3.05509 4.51444,-5.56733 l 11.725031,-82.714546 c 0.294351,-2.102601 -0.380169,-4.215013 -1.881021,-5.75086 -1.500831,-1.535867 -3.664706,-2.328116 -5.831168,-2.141289 -0.969862,0.09893 -1.908712,0.390397 -2.758832,0.856508 l -68.90808,36.340568 c -2.09165,1.097355 -3.46054,3.139492 -3.69934,5.444972 -0.23878,2.30547 0.68368,4.573235 2.50803,6.056756 l 15.61247,12.664133 c -17.10292,13.60436 -41.71384,15.120959 -60.63158,1.957749 -22.72289,-15.81088 -27.92907,-46.165849 -11.72505,-68.337394 15.74705,-21.5462673 45.20913,-27.0863 68.03028,-12.78649609 5.16531,3.43537189 11.84973,3.84857529 17.43081,1.10122914 5.58106,-2.74734105 9.16747,-8.22095205 9.4051,-14.31598005 0.23764,-6.095024 -2.92546,-11.835813 -8.27649,-14.988949 -14.19418,-8.894124 -30.20648,-13.173726 -46.02233,-13.092393 z"
       id="path932" /></g><g
     id="g2"
     style="display:none"
     transform="translate(0,-0.23656689)"
     inkscape:label="lock"><path
       style="fill:#ffffff;fill-rule:nonzero;stroke:none;stroke-width:2.01756;stroke-linecap:butt;stroke-linejoin:miter;stroke-miterlimit:4;stroke-dasharray:none;stroke-dashoffset:0"
       vector-effect="non-scaling-stroke"
       d="m -245.77943,35.729824 c -4.8825,0 -8.83893,3.895909 -8.84095,8.653316 v 79.19933 c 0,4.75942 3.95845,8.59077 8.84095,8.59077 h 126.47682 c 4.88048,0 8.84095,-3.82933 8.84095,-8.59077 V 44.38314 c 0,-4.757407 -3.96047,-8.651299 -8.84095,-8.653316 z m 22.03579,30.947357 h 81.64462 v 35.809679 h -81.64462 z"
       stroke-linecap="round"
       id="path17" /><path
       style="fill:#ffffff;fill-rule:nonzero;stroke:none;stroke-width:2.01756;stroke-linecap:butt;stroke-linejoin:miter;stroke-miterlimit:4;stroke-dasharray:none;stroke-dashoffset:0"
       vector-effect="non-scaling-stroke"
       d="m -129.4847,24.840422 c 8.5706,-2.766075 13.65485,-11.576761 11.76238,-20.3854291 -5.20329,-26.1495989 -25.41924,-46.6500289 -51.48007,-52.2548119 -35.87424,-7.719186 -71.6476,15.353634 -79.36477,51.235944 -1.63624,6.2423315 0.28448,12.878087 4.99951,17.280404 4.71706,4.404334 11.46983,5.861013 17.58102,3.797048 6.11321,-2.063964 10.59825,-7.315673 11.6837,-13.679058 3.72643,-17.3207556 20.38744,-28.090493 37.70416,-24.364059 13.29976,2.860901 21.83202,11.5000941 24.48915,24.846256 0.91194,4.963198 3.92012,9.292882 8.25182,11.88343 4.32969,2.58853 9.56727,3.185727 14.3731,1.640276 z"
       stroke-linecap="round"
       id="path18" /></g><g
     id="g7"
     inkscape:label="Hibernate"
     transform="matrix(1.014651,0,0,1.014651,-309.50922,-82.633774)"
     style="display:none"><path
       style="fill:#999994;fill-opacity:1;fill-rule:evenodd;stroke:none;stroke-width:12.691;stroke-linecap:square;stroke-linejoin:round;stroke-dasharray:none;stroke-opacity:0.305361;paint-order:stroke fill markers"
       sodipodi:type="inkscape:offset"
       inkscape:radius="0"
       inkscape:original="M 88.404297 30.630859 L 71.402344 64.214844 L 34.095703 69.25 L 60.783203 95.796875 L 54.042969 132.83203 L 87.539062 115.65625 L 120.67773 133.50977 L 114.69336 96.345703 L 141.91406 70.345703 L 104.71875 64.554688 L 88.404297 30.630859 z "
       xlink:href="#path2"
       id="path5"
       inkscape:href="#path2"
       d="M 88.404297,30.630859 71.402344,64.214844 34.095703,69.25 l 26.6875,26.546875 -6.740234,37.035155 33.496093,-17.17578 33.138668,17.85352 -5.98437,-37.164067 27.2207,-26 -37.19531,-5.791015 z"
       transform="translate(2,2)" /><path
       sodipodi:type="star"
       style="fill:#fffc2e;fill-opacity:1;fill-rule:evenodd;stroke:none;stroke-width:12.691;stroke-linecap:square;stroke-linejoin:round;stroke-dasharray:none;stroke-opacity:0.305361;paint-order:stroke fill markers"
       id="path2"
       inkscape:flatsided="false"
       sodipodi:sides="5"
       sodipodi:cx="89.827187"
       sodipodi:cy="89.313889"
       sodipodi:r1="56.686344"
       sodipodi:r2="28.343172"
       sodipodi:arg1="0.9526521"
       sodipodi:arg2="1.5809706"
       inkscape:rounded="0"
       inkscape:randomized="0"
       d="M 122.67827,135.51073 89.53882,117.65559 56.042926,134.83273 62.783513,97.797705 36.096281,71.249245 73.401643,66.21547 90.403921,32.630478 106.71932,66.554465 143.91453,72.346258 116.69264,98.34621 Z"
       inkscape:transform-center-x="-0.17822067"
       inkscape:transform-center-y="-5.2432862"
       transform="translate(-2,-2)" /><path
       style="fill:#999994;fill-opacity:1;fill-rule:evenodd;stroke:none;stroke-width:12.691;stroke-linecap:square;stroke-linejoin:round;stroke-dasharray:none;stroke-opacity:0.305361;paint-order:stroke fill markers"
       sodipodi:type="inkscape:offset"
       inkscape:radius="0"
       inkscape:original="M 114.3125 137.7207 L 109.64258 162.89648 L 86.253906 173.32227 L 108.75586 185.54492 L 111.44336 211.00977 L 130.01953 193.38672 L 155.06836 198.69922 L 144.04883 175.58594 L 156.84375 153.4043 L 131.45508 156.74219 L 114.3125 137.7207 z "
       xlink:href="#path3"
       id="path6"
       inkscape:href="#path3"
       d="m 114.3125,137.7207 -4.66992,25.17578 -23.388674,10.42579 22.501954,12.22265 2.6875,25.46485 18.57617,-17.62305 25.04883,5.3125 -11.01953,-23.11328 12.79492,-22.18164 -25.38867,3.33789 z"
       transform="translate(2,2)" /><path
       sodipodi:type="star"
       style="fill:#fffc2e;fill-opacity:1;fill-rule:evenodd;stroke:none;stroke-width:12.691;stroke-linecap:square;stroke-linejoin:round;stroke-dasharray:none;stroke-opacity:0.305361;paint-order:stroke fill markers"
       id="path3"
       inkscape:flatsided="false"
       sodipodi:sides="5"
       sodipodi:cx="126.78466"
       sodipodi:cy="176.83122"
       sodipodi:r1="38.559765"
       sodipodi:r2="19.279882"
       sodipodi:arg1="0.66746456"
       sodipodi:arg2="1.2957831"
       inkscape:rounded="0"
       inkscape:randomized="0"
       d="m 157.06925,200.69959 -25.04895,-5.31299 -18.57735,17.62271 -2.6876,-25.46477 -22.500914,-12.22239 23.387924,-10.42511 4.67102,-25.17657 17.14214,19.02171 25.38776,-3.33759 -12.79351,22.18117 z"
       inkscape:transform-center-x="3.2358027"
       inkscape:transform-center-y="-0.46633025"
       transform="translate(-2,-2)" /><path
       style="fill:#999994;fill-opacity:1;fill-rule:evenodd;stroke:none;stroke-width:12.691;stroke-linecap:square;stroke-linejoin:round;stroke-dasharray:none;stroke-opacity:0.305361;paint-order:stroke fill markers"
       sodipodi:type="inkscape:offset"
       inkscape:radius="0"
       inkscape:original="M 170.57617 54.871094 L 162.46094 81.164062 L 136.20312 89.384766 L 158.70117 105.22656 L 158.40625 132.74023 L 180.42383 116.23828 L 206.5 125.02148 L 197.60938 98.982422 L 214.02148 76.896484 L 186.50781 77.304688 L 170.57617 54.871094 z "
       xlink:href="#path4"
       id="path7"
       inkscape:href="#path4"
       d="m 170.57617,54.871094 -8.11523,26.292968 -26.25782,8.220704 22.49805,15.841794 -0.29492,27.51367 22.01758,-16.50195 26.07617,8.7832 -8.89062,-26.039058 16.4121,-22.085938 -27.51367,0.408204 z"
       transform="translate(2,2)" /><path
       sodipodi:type="star"
       style="fill:#fffc2e;fill-opacity:1;fill-rule:evenodd;stroke:none;stroke-width:12.691;stroke-linecap:square;stroke-linejoin:round;stroke-dasharray:none;stroke-opacity:0.305361;paint-order:stroke fill markers"
       id="path4"
       inkscape:flatsided="false"
       sodipodi:sides="5"
       sodipodi:cx="179.14108"
       sodipodi:cy="97.783302"
       sodipodi:r1="41.435123"
       sodipodi:r2="20.71756"
       sodipodi:arg1="2.039984"
       sodipodi:arg2="2.6683026"
       inkscape:rounded="0"
       inkscape:randomized="0"
       d="m 160.4057,134.74078 0.29523,-27.51406 -22.49805,-15.841339 26.25866,-8.221526 8.11373,-26.292159 15.93351,22.432872 27.5126,-0.408108 -16.4112,22.0858 8.89,26.03994 -26.07619,-8.7831 z"
       inkscape:transform-center-x="2.0289475"
       inkscape:transform-center-y="-1.9770669"
       transform="translate(-2,-2)" /></g><g
     id="layer1"
     inkscape:label="Suspend"
     transform="matrix(1.014651,0,0,1.014651,-312.39813,-84.387765)"
     style="display:inline"><path
       style="fill:#636363;fill-opacity:0.130536;fill-rule:evenodd;stroke:#636363;stroke-width:12.0355;stroke-linecap:square;stroke-linejoin:round;stroke-dasharray:none;stroke-opacity:0.305361;paint-order:stroke fill markers"
       sodipodi:type="inkscape:offset"
       inkscape:radius="0"
       inkscape:original="M 167.34766 45.822266 L 42.068359 147.63281 L 82.371094 197.22461 L 207.65039 95.414062 L 167.34766 45.822266 z "
       xlink:href="#rect1-2"
       id="path1"
       inkscape:href="#rect1-2"
       d="M 167.34766,45.822266 42.068359,147.63281 82.371094,197.22461 207.65039,95.414062 Z"
       transform="matrix(0.95544494,0,0,0.99159123,13.350213,1.8890859)" /><path
       id="rect1-2"
       style="fill:url(#linearGradient2);fill-opacity:1;fill-rule:evenodd;stroke:#636363;stroke-width:6.251;stroke-linecap:square;stroke-linejoin:round;stroke-opacity:1;paint-order:markers fill stroke"
       sodipodi:type="inkscape:offset"
       inkscape:radius="0"
       inkscape:original="M -60.460938 141.10156 L -60.460938 205.00586 L 100.9707 205.00586 L 100.9707 141.10156 L -60.460938 141.10156 z "
       d="m -60.460938,141.10156 v 63.9043 H 100.9707 v -63.9043 z"
       transform="rotate(-39.1)" /></g></g></svg>
