<?xml version="1.0" encoding="UTF-8" standalone="no"?>
<!-- Created with Inkscape (http://www.inkscape.org/) -->

<svg
   version="1.1"
   id="svg1"
   width="256"
   height="256"
   viewBox="0 0 256 256"
   sodipodi:docname="tag-edit.svg"
   inkscape:version="1.3.2 (091e20ef0f, 2023-11-25)"
   xml:space="preserve"
   xmlns:inkscape="http://www.inkscape.org/namespaces/inkscape"
   xmlns:sodipodi="http://sodipodi.sourceforge.net/DTD/sodipodi-0.dtd"
   xmlns:xlink="http://www.w3.org/1999/xlink"
   xmlns="http://www.w3.org/2000/svg"
   xmlns:svg="http://www.w3.org/2000/svg"
   xmlns:rdf="http://www.w3.org/1999/02/22-rdf-syntax-ns#"
   xmlns:cc="http://creativecommons.org/ns#"
   xmlns:a="http://ns.adobe.com/AdobeSVGViewerExtensions/3.0/"><sodipodi:namedview
     id="namedview1"
     pagecolor="#ffffff"
     bordercolor="#000000"
     borderopacity="0.25"
     inkscape:showpageshadow="2"
     inkscape:pageopacity="0.0"
     inkscape:pagecheckerboard="0"
     inkscape:deskcolor="#d1d1d1"
     showguides="true"
     inkscape:zoom="1.0253906"
     inkscape:cx="-184.80761"
     inkscape:cy="209.18857"
     inkscape:current-layer="svg1" /><defs
     id="defs1"><linearGradient
       id="light100to0"><stop
         style="stop-color:#ffffff;stop-opacity:0.79848868;"
         offset="0"
         id="stop2764" /><stop
         style="stop-color:#ffffff;stop-opacity:0.0000000;"
         offset="1.0000000"
         id="stop2765" /></linearGradient><radialGradient
       xlink:href="#b"
       id="M"
       cx="118.17"
       cy="9.1196003"
       r="1.2844"
       gradientTransform="matrix(1.2088,0.95832,-1.4021,1.7686,-11.996,-120.41)"
       gradientUnits="userSpaceOnUse" /><linearGradient
       id="b"><stop
         offset="0"
         stop-color="#fff"
         id="stop13" /><stop
         offset="1"
         stop-color="#fff"
         stop-opacity="0"
         id="stop14" /></linearGradient><filter
       id="L"
       x="-0.15990919"
       y="-0.2259035"
       width="1.3198184"
       height="1.451807"><feGaussianBlur
         stdDeviation=".10453397"
         id="feGaussianBlur1" /></filter><radialGradient
       xlink:href="#b"
       id="K"
       cx="118.17"
       cy="9.1196003"
       r="1.2844"
       gradientTransform="matrix(1.2088,0.95832,-1.4021,1.7686,-11.096,-120.71)"
       gradientUnits="userSpaceOnUse" /><filter
       id="filter2"
       x="-0.15990919"
       y="-0.2259035"
       width="1.3198184"
       height="1.451807"><feGaussianBlur
         stdDeviation=".10453397"
         id="feGaussianBlur2" /></filter><radialGradient
       xlink:href="#b"
       id="B"
       cx="104.09"
       cy="9"
       r="0.46875"
       gradientTransform="matrix(1,0,0,0.8,-80.464,1.9105)"
       gradientUnits="userSpaceOnUse" /><filter
       id="A"
       x="-0.066461541"
       y="-0.083076932"
       width="1.1329231"
       height="1.1661539"><feGaussianBlur
         stdDeviation=".02596154"
         id="feGaussianBlur5" /></filter><radialGradient
       xlink:href="#b"
       id="z"
       cx="104.09"
       cy="9"
       r="0.46875"
       gradientTransform="matrix(1,0,0,0.8,-0.5,1.91)"
       gradientUnits="userSpaceOnUse" /><filter
       id="filter6"
       x="-0.066461541"
       y="-0.083076932"
       width="1.1329231"
       height="1.1661539"><feGaussianBlur
         stdDeviation=".02596154"
         id="feGaussianBlur6" /></filter><clipPath
       id="x"><path
         fill="url(#linearGradient3219)"
         d="m 11.375,-167.68 c -2.9534,0 -3.375,0.36407 -3.375,3.3438 v 0.78125 c 0,-2.9797 0.42155,-3.3125 3.375,-3.3125 h 105.25 c 2.9534,0 3.375,0.33282 3.375,3.3125 v -0.78125 c 0,-2.9797 -0.42155,-3.3438 -3.375,-3.3438 z"
         id="path37" /></clipPath><filter
       id="y"
       width="1.0142819"
       height="1.3877715"
       x="-0.0071409685"
       y="-0.19388576"><feGaussianBlur
         stdDeviation=".33324519"
         id="feGaussianBlur9" /></filter><radialGradient
       id="v"
       cx="64.802002"
       cy="63.780998"
       r="34.041"
       gradientTransform="matrix(1.1398,0,0,0.0107,-9.08,63.1)"
       gradientUnits="userSpaceOnUse"><stop
         offset="0"
         stop-color="#fff"
         id="stop29" /><stop
         offset=".5"
         stop-color="#fff"
         stop-opacity=".69818"
         id="stop30" /><stop
         offset="1"
         stop-color="#fff"
         stop-opacity="0"
         id="stop31" /></radialGradient><filter
       id="w"
       width="1.0121166"
       height="2.248199"
       x="-0.0060582329"
       y="-0.62409943"><feGaussianBlur
         stdDeviation=".18955201"
         id="feGaussianBlur10" /></filter><radialGradient
       id="u"
       cx="100.31"
       cy="42.449001"
       r="38"
       gradientTransform="matrix(10.254156,0,0,4.0586089,-1205.646,-450.44968)"
       gradientUnits="userSpaceOnUse"><stop
         offset="0"
         stop-color="#d0ced9"
         id="stop32" /><stop
         offset=".25"
         stop-color="#ecf1f9"
         id="stop33" /><stop
         offset=".5"
         stop-color="#fff"
         id="stop34" /><stop
         offset="1"
         stop-color="#c6d5e3"
         id="stop35" /></radialGradient><clipPath
       id="s"><rect
         width="78.124001"
         height="55.396"
         x="24.681"
         y="-68.245003"
         fill="none"
         stroke="#000000"
         stroke-dashoffset="4.15"
         stroke-linecap="round"
         stroke-linejoin="round"
         stroke-width="0.4"
         opacity="0.26562"
         rx="1.1339"
         ry="1.1339"
         id="rect37" /></clipPath><filter
       id="t"
       x="-0.024996538"
       y="-0.034457598"
       width="1.0499932"
       height="1.0689152"><feGaussianBlur
         stdDeviation=".66759571"
         id="feGaussianBlur11" /></filter><linearGradient
       id="r"
       x1="64"
       x2="56"
       y1="120.07"
       y2="96.316002"
       gradientTransform="matrix(-2.2435525,0,0,-2.2084218,270.93706,268.14121)"
       gradientUnits="userSpaceOnUse"><stop
         offset="0"
         stop-color="#8a8a8a"
         id="stop19" /><stop
         offset="1"
         stop-color="#c6c6c6"
         id="stop20" /></linearGradient><linearGradient
       xlink:href="#b"
       id="p"
       x1="-37.195"
       x2="-12.625"
       y1="42.335999"
       y2="106.8"
       gradientTransform="translate(126.8)"
       gradientUnits="userSpaceOnUse" /><filter
       id="q"
       x="-0.016369229"
       y="-0.007414035"
       width="1.0327384"
       height="1.0183421"><feGaussianBlur
         stdDeviation=".0231875"
         id="feGaussianBlur4" /></filter><linearGradient
       xlink:href="#a"
       id="n"
       x1="68"
       x2="36"
       y1="120"
       y2="84"
       gradientUnits="userSpaceOnUse" /><linearGradient
       id="a"><stop
         offset="0"
         id="stop15" /><stop
         offset="1"
         stop-opacity="0"
         id="stop16" /></linearGradient><filter
       id="o"
       width="1.2476923"
       height="1.1857692"
       x="-0.12384615"
       y="-0.092884615"><feGaussianBlur
         stdDeviation="1.2384615"
         id="feGaussianBlur8" /></filter><radialGradient
       xlink:href="#b"
       id="m"
       cx="84"
       cy="91.983002"
       r="32"
       gradientTransform="matrix(-2.2435525,0,0,-1.3573794,270.93706,182.49057)"
       gradientUnits="userSpaceOnUse" /><linearGradient
       xlink:href="#a"
       id="j"
       x1="47.609001"
       x2="47.609001"
       y1="104.35"
       y2="176.35001"
       gradientUnits="userSpaceOnUse" /><clipPath
       id="k"><path
         fill-opacity="0.12832"
         d="m 18.19,132.42 c -1.4192,0 -2.5625,1.1433 -2.5625,2.5625 v 37.183 h 72 v -37.183 c 0,-1.4192 -1.1433,-2.5625 -2.5625,-2.5625 z"
         id="path36" /></clipPath><filter
       id="l"
       width="1.1232667"
       height="1.1948216"
       x="-0.061633326"
       y="-0.097410806"><feGaussianBlur
         stdDeviation="1.9228365"
         id="feGaussianBlur7" /></filter><linearGradient
       xlink:href="#b"
       id="i"
       x1="107.06"
       x2="107.06"
       y1="-26.263"
       y2="134.55"
       gradientTransform="matrix(-2.2435525,0,0,-2.1856905,249.84766,263.96655)"
       gradientUnits="userSpaceOnUse" /><linearGradient
       xlink:href="#linearGradient65"
       id="h"
       x1="69.913002"
       x2="70.019997"
       y1="-96.5"
       y2="-67.843002"
       gradientTransform="translate(0,131.41)"
       gradientUnits="userSpaceOnUse" /><linearGradient
       id="linearGradient65"><stop
         offset="0"
         stop-color="#fff"
         id="stop64"
         style="stop-color:#cee0fc;stop-opacity:1;" /><stop
         offset="1"
         stop-color="#fff"
         stop-opacity="0"
         id="stop65"
         style="stop-color:#767676;stop-opacity:0;" /></linearGradient><filter
       id="g"
       x="-0.0023883332"
       y="-0.068358868"
       width="1.0047767"
       height="1.1367177"><feGaussianBlur
         stdDeviation=".11145486"
         id="feGaussianBlur18" /></filter><filter
       id="filter19"
       x="-0.0023883332"
       y="-0.068358868"
       width="1.0047767"
       height="1.1367177"><feGaussianBlur
         stdDeviation=".11145486"
         id="feGaussianBlur19" /></filter><radialGradient
       xlink:href="#a"
       id="c"
       cx="28.481001"
       cy="164.13"
       r="52.145"
       gradientTransform="matrix(5.4916,-0.11504,0.00261,0.1246,-128.86514,103.66031)"
       gradientUnits="userSpaceOnUse" /><filter
       id="d"
       width="1.0471674"
       height="1.4429946"
       x="-0.023583706"
       y="-0.22149733"><feGaussianBlur
         stdDeviation="1.0149838"
         id="feGaussianBlur13" /></filter><radialGradient
       id="H"
       cx="14"
       cy="19.700001"
       r="2.1500001"
       fy="18.836"
       gradientTransform="matrix(1.1063,0,0,1.1063,0.54709,-2.2994)"
       gradientUnits="userSpaceOnUse"><stop
         offset="0"
         stop-color="#868385"
         id="stop27" /><stop
         offset="1"
         stop-color="#4a4949"
         id="stop28" /></radialGradient><linearGradient
       id="I"
       x1="11.918"
       x2="11.918"
       y1="17.561001"
       y2="20.038"
       gradientTransform="matrix(1.1063,0,0,1.1063,0.54709,-2.2994)"
       gradientUnits="userSpaceOnUse"><stop
         offset="0"
         stop-color="#fff"
         id="stop23" /><stop
         offset="1"
         id="stop24" /></linearGradient><filter
       id="J"
       x="-0.061195649"
       y="-0.072421268"
       width="1.1223913"
       height="1.1448425"><feGaussianBlur
         stdDeviation=".04177847"
         id="feGaussianBlur3" /></filter><radialGradient
       id="E"
       cx="16"
       cy="18"
       r="4"
       gradientTransform="matrix(1,0,0,1.5,0,-9)"
       gradientUnits="userSpaceOnUse"><stop
         offset="0"
         stop-color="#7a7a7a"
         id="stop25" /><stop
         offset="1"
         stop-opacity=".49091"
         id="stop26" /></radialGradient><linearGradient
       xlink:href="#a"
       id="F"
       x1="16"
       x2="16"
       y1="1.5953"
       y2="18.754999"
       gradientUnits="userSpaceOnUse" /><clipPath
       id="G"><rect
         width="8"
         height="12"
         x="12"
         y="12"
         opacity="0.18359"
         rx="1.0793"
         ry="1.0793"
         id="rect36" /></clipPath><filter
       id="D"
       width="1.455"
       height="1.3033333"
       x="-0.22750001"
       y="-0.15166667"><feGaussianBlur
         stdDeviation=".55"
         id="feGaussianBlur37" /></filter><clipPath
       id="C"><rect
         width="8"
         height="12"
         x="12"
         y="12"
         opacity="0.18359"
         rx="1.0793"
         ry="1.0793"
         id="rect35" /></clipPath><filter
       id="filter38"
       width="1.455"
       height="1.3033333"
       x="-0.22750001"
       y="-0.15166667"><feGaussianBlur
         stdDeviation=".55"
         id="feGaussianBlur38" /></filter><linearGradient
       id="av"
       x1="63.910999"
       x2="87.757004"
       y1="79.999001"
       y2="93.999001"
       gradientTransform="matrix(1.3755,0,0,1.8571,-22.548,-92.563)"
       gradientUnits="userSpaceOnUse"
       xlink:href="#b-5" /><linearGradient
       id="b-5"><stop
         offset="0"
         id="stop3-8"
         style="stop-color:#584b18;stop-opacity:1;" /><stop
         stop-opacity="0"
         offset="1"
         id="stop4-4"
         style="stop-color:#403006;stop-opacity:0;" /></linearGradient><filter
       id="ax"
       x="-0.027801209"
       y="-0.026180323"
       width="1.0556024"
       height="1.0523606"><feGaussianBlur
         stdDeviation=".6715998"
         id="feGaussianBlur44" /></filter><radialGradient
       id="ai"
       cx="42.618"
       cy="120.64"
       r="3.4068999"
       gradientTransform="matrix(2.7704,2.6691,-12.513,10.995,1415.2,-1337.2)"
       gradientUnits="userSpaceOnUse"><stop
         stop-color="#b4942a"
         offset="0"
         id="stop45" /><stop
         stop-color="#e4dcc9"
         offset="1"
         id="stop46" /></radialGradient><radialGradient
       id="ad"
       cx="49.012001"
       cy="2.6743"
       r="1.7246"
       gradientTransform="matrix(3.0689972,0,0,0.37170813,-364.05512,-147.1967)"
       gradientUnits="userSpaceOnUse"
       xlink:href="#b" /><linearGradient
       id="au"
       x1="16.797142"
       x2="29.477354"
       y1="47.662041"
       y2="59.243767"
       gradientTransform="matrix(1.9778965,0,0,1.9802165,46.082967,-92.75339)"
       gradientUnits="userSpaceOnUse"><stop
         stop-color="#252525"
         offset="0"
         id="stop32-2"
         style="stop-color:#f6d008;stop-opacity:1;" /><stop
         stop-color="#252525"
         offset="0.20396717"
         id="stop33-9"
         style="stop-color:#e0c109;stop-opacity:1;" /><stop
         stop-color="#252525"
         offset="0.56177431"
         id="stop34-1"
         style="stop-color:#e9bb0f;stop-opacity:1;" /><stop
         offset="1"
         id="stop35-2"
         style="stop-color:#e9bb04;stop-opacity:1;" /></linearGradient><linearGradient
       id="at"
       x1="76.709"
       x2="80.580002"
       y1="83.325996"
       y2="87.154999"
       gradientTransform="matrix(1.9778965,0,0,1.9802165,45.544734,-93.560736)"
       gradientUnits="userSpaceOnUse"><stop
         stop-color="#d4a100"
         stop-opacity=".97647"
         offset="0"
         id="stop36" /><stop
         stop-color="#ffc712"
         offset="1"
         id="stop37" /></linearGradient><linearGradient
       id="aq"
       x1="-12.818"
       x2="82.172997"
       y1="7.4622998"
       y2="7.4622998"
       gradientUnits="userSpaceOnUse"
       xlink:href="#b" /><filter
       id="aw"
       x="-0.0079507644"
       y="-0.3887315"
       width="1.0159015"
       height="1.777463"><feGaussianBlur
         stdDeviation=".31468463"
         id="feGaussianBlur31" /></filter><linearGradient
       id="as"
       x1="11.326"
       x2="14.494"
       y1="57.383999"
       y2="57.383999"
       gradientTransform="matrix(2.5501259,2.3245368,-1.0825275,1.230491,207.04633,-38.599401)"
       gradientUnits="userSpaceOnUse"><stop
         stop-color="#9a7600"
         offset="0"
         id="stop38"
         style="stop-color:#e5b20a;stop-opacity:1;" /><stop
         stop-color="#e3ad00"
         offset="0.09292"
         id="stop39"
         style="stop-color:#d5a200;stop-opacity:1;" /><stop
         stop-color="#ffcd2c"
         offset=".50432"
         id="stop40" /><stop
         stop-color="#e3ad00"
         offset=".91571"
         id="stop41" /><stop
         stop-color="#b98d00"
         offset="1"
         id="stop42" /></linearGradient><linearGradient
       id="am"
       x1="92.225998"
       x2="96.580002"
       y1="54.118999"
       y2="57.151001"
       gradientTransform="matrix(1.975167,0,0,1.9800801,45.817676,-93.547118)"
       gradientUnits="userSpaceOnUse"><stop
         stop-color="#ea3838"
         offset="0"
         id="stop30-3"
         style="stop-color:#eab938;stop-opacity:1;" /><stop
         stop-color="#c40000"
         offset="1"
         id="stop31-6"
         style="stop-color:#ed8c08;stop-opacity:1;" /></linearGradient><linearGradient
       id="ar"
       x1="114.93"
       x2="100.66"
       y1="-22.559999"
       y2="-22.052999"
       gradientTransform="matrix(1.9789853,1.8967138e-8,0,1.979268,-28.274445,-99.906273)"
       gradientUnits="userSpaceOnUse"><stop
         stop-color="#980000"
         offset="0"
         id="stop43"
         style="stop-color:#d89c1d;stop-opacity:1;" /><stop
         stop-color="#db5c5c"
         offset="1"
         id="stop44"
         style="stop-color:#f9bc0a;stop-opacity:1;" /></linearGradient><linearGradient
       id="ap"
       x1="33.341999"
       x2="24.451"
       y1="117.84"
       y2="107.36"
       gradientTransform="matrix(1.2243907,0,0,1.2343805,93.009882,1.4787247)"
       gradientUnits="userSpaceOnUse"><stop
         offset="0"
         id="stop28-0" /><stop
         stop-color="#515151"
         offset="1"
         id="stop29-6" /></linearGradient><linearGradient
       id="an"
       x1="48.499001"
       x2="48.733002"
       y1="0.81151003"
       y2="2.3657"
       gradientTransform="matrix(3.3138262,3.0082642,-2.9726449,3.3527209,82.255844,-142.02351)"
       gradientUnits="userSpaceOnUse"
       xlink:href="#b" /><radialGradient
       id="af"
       cx="49.012001"
       cy="2.6743"
       r="1.7246"
       gradientTransform="matrix(4.4760429,-3.2246955e-8,0,0.54512295,-32.674404,-150.04202)"
       gradientUnits="userSpaceOnUse"
       xlink:href="#b" /><radialGradient
       id="ae"
       cx="49.012001"
       cy="2.6743"
       r="1.7246"
       gradientTransform="matrix(3.0710352,1.2586952e-8,0,0.37097342,-0.37641677,-160.91099)"
       gradientUnits="userSpaceOnUse"
       xlink:href="#b" /><linearGradient
       id="path3_3_"
       gradientUnits="userSpaceOnUse"
       x1="57.324699"
       y1="46.403801"
       x2="83.153503"
       y2="46.403801"><stop
         offset="0"
         style="stop-color:rgb(255,255,255)"
         id="stop8-3" /><stop
         offset="1"
         style="stop-color:rgb(223,223,236)"
         id="stop9-6" /><a:midPointStop
         offset="0"
         style="stop-color:#FFFFFF" /><a:midPointStop
         offset="0.5"
         style="stop-color:#FFFFFF" /><a:midPointStop
         offset="1"
         style="stop-color:#DFDFEC" /></linearGradient><linearGradient
       id="XMLID_4_"
       gradientUnits="userSpaceOnUse"
       x1="32.8545"
       y1="17.5103"
       x2="90.494102"
       y2="85.498703"><stop
         offset="0"
         style="stop-color:rgb(217,217,217)"
         id="stop10-7" /><stop
         offset="1"
         style="stop-color:rgb(87,87,151)"
         id="stop11-5" /><a:midPointStop
         offset="0"
         style="stop-color:#D9D9D9" /><a:midPointStop
         offset="0.5"
         style="stop-color:#D9D9D9" /><a:midPointStop
         offset="1"
         style="stop-color:#575797" /></linearGradient><linearGradient
       id="path11_3_"
       gradientUnits="userSpaceOnUse"
       x1="55.0952"
       y1="78.122101"
       x2="88.283401"
       y2="44.933899"><stop
         offset="0"
         style="stop-color:rgb(255,255,255)"
         id="stop12-3" /><stop
         offset="1"
         style="stop-color:rgb(223,223,236)"
         id="stop13-5" /><a:midPointStop
         offset="0"
         style="stop-color:#FFFFFF" /><a:midPointStop
         offset="0.5"
         style="stop-color:#FFFFFF" /><a:midPointStop
         offset="1"
         style="stop-color:#DFDFEC" /></linearGradient><linearGradient
       id="path16_3_"
       gradientUnits="userSpaceOnUse"
       x1="76.635696"
       y1="27.1621"
       x2="81.575798"
       y2="22.468901"><stop
         offset="0"
         style="stop-color:rgb(255,255,255)"
         id="stop14-6" /><stop
         offset="1"
         style="stop-color:rgb(223,223,236)"
         id="stop15-2" /><a:midPointStop
         offset="0"
         style="stop-color:#FFFFFF" /><a:midPointStop
         offset="0.5"
         style="stop-color:#FFFFFF" /><a:midPointStop
         offset="1"
         style="stop-color:#DFDFEC" /></linearGradient><linearGradient
       id="XMLID_5_"
       gradientUnits="userSpaceOnUse"
       x1="53.142101"
       y1="0.1851"
       x2="113.11"
       y2="70.919998"><stop
         offset="0"
         style="stop-color:rgb(217,217,217)"
         id="stop16-9" /><stop
         offset="1"
         style="stop-color:rgb(87,87,151)"
         id="stop17-1" /><a:midPointStop
         offset="0"
         style="stop-color:#D9D9D9" /><a:midPointStop
         offset="0.5"
         style="stop-color:#D9D9D9" /><a:midPointStop
         offset="1"
         style="stop-color:#575797" /></linearGradient><linearGradient
       inkscape:collect="always"
       xlink:href="#linearGradient18"
       id="linearGradient20"
       x1="99.622505"
       y1="126.0852"
       x2="81.493019"
       y2="178.69403"
       gradientUnits="userSpaceOnUse" /><linearGradient
       id="linearGradient18"
       inkscape:collect="always"><stop
         style="stop-color:#000000;stop-opacity:1;"
         offset="0"
         id="stop19-7" /><stop
         style="stop-color:#000000;stop-opacity:0.49803922;"
         offset="0.57621485"
         id="stop21" /><stop
         style="stop-color:#000000;stop-opacity:0;"
         offset="1"
         id="stop20-5" /></linearGradient><linearGradient
       inkscape:collect="always"
       xlink:href="#linearGradient22"
       id="linearGradient23"
       x1="79.186012"
       y1="157.87593"
       x2="91.895462"
       y2="162.45889"
       gradientUnits="userSpaceOnUse" /><linearGradient
       id="linearGradient22"
       inkscape:collect="always"><stop
         style="stop-color:#bd9d3e;stop-opacity:1;"
         offset="0"
         id="stop22" /><stop
         style="stop-color:#c1a441;stop-opacity:1;"
         offset="0.71573299"
         id="stop24-3" /><stop
         style="stop-color:#bda23e;stop-opacity:0;"
         offset="0.86258775"
         id="stop26-5" /><stop
         style="stop-color:#bd9d3e;stop-opacity:0;"
         offset="0.90665424"
         id="stop25-6" /><stop
         style="stop-color:#bd9d3e;stop-opacity:1;"
         offset="1"
         id="stop23-2" /></linearGradient><linearGradient
       inkscape:collect="always"
       xlink:href="#linearGradient26"
       id="linearGradient28"
       x1="58.516628"
       y1="136.84203"
       x2="49.882301"
       y2="156.61996"
       gradientUnits="userSpaceOnUse" /><linearGradient
       id="linearGradient26"
       inkscape:collect="always"><stop
         style="stop-color:#2a7acc;stop-opacity:1;"
         offset="0"
         id="stop27-9" /><stop
         style="stop-color:#5d9ad9;stop-opacity:1;"
         offset="0.10939353"
         id="stop31-1" /><stop
         style="stop-color:#c6d9f1;stop-opacity:1;"
         offset="0.17792706"
         id="stop32-27" /><stop
         style="stop-color:#bfd6f6;stop-opacity:1;"
         offset="0.33011574"
         id="stop29-0" /><stop
         style="stop-color:#5e9ddd;stop-opacity:1;"
         offset="0.5245598"
         id="stop30-9" /><stop
         style="stop-color:#1a5288;stop-opacity:1;"
         offset="1"
         id="stop28-3" /></linearGradient><linearGradient
       inkscape:collect="always"
       xlink:href="#linearGradient42"
       id="linearGradient44"
       x1="13.551596"
       y1="132.61403"
       x2="25.419409"
       y2="132.61403"
       gradientUnits="userSpaceOnUse" /><linearGradient
       id="linearGradient42"
       inkscape:collect="always"><stop
         style="stop-color:#73260a;stop-opacity:1;"
         offset="0"
         id="stop43-6" /><stop
         style="stop-color:#e14a14;stop-opacity:1;"
         offset="1"
         id="stop44-0" /></linearGradient><linearGradient
       inkscape:collect="always"
       xlink:href="#linearGradient32"
       id="linearGradient34"
       x1="31.466516"
       y1="119.01526"
       x2="19.694582"
       y2="145.66258"
       gradientUnits="userSpaceOnUse" /><linearGradient
       id="linearGradient32"
       inkscape:collect="always"><stop
         style="stop-color:#c73f12;stop-opacity:1;"
         offset="0"
         id="stop33-6" /><stop
         style="stop-color:#ec5e34;stop-opacity:1;"
         offset="0.25"
         id="stop40-2" /><stop
         style="stop-color:#ed683b;stop-opacity:1;"
         offset="0.375"
         id="stop41-6" /><stop
         style="stop-color:#c73f12;stop-opacity:1;"
         offset="0.5"
         id="stop38-1" /><stop
         style="stop-color:#c73f12;stop-opacity:1;"
         offset="0.625"
         id="stop42-8" /><stop
         style="stop-color:#6c230a;stop-opacity:1;"
         offset="0.80564851"
         id="stop39-7" /><stop
         style="stop-color:#5a1c08;stop-opacity:1;"
         offset="1"
         id="stop34-9" /></linearGradient><linearGradient
       inkscape:collect="always"
       xlink:href="#linearGradient45"
       id="linearGradient46"
       x1="37.986607"
       y1="129.36235"
       x2="30.667477"
       y2="147.5997"
       gradientUnits="userSpaceOnUse" /><linearGradient
       id="linearGradient45"
       inkscape:collect="always"><stop
         style="stop-color:#a4a4a4;stop-opacity:1;"
         offset="0"
         id="stop45-2" /><stop
         style="stop-color:#a4a4a4;stop-opacity:1;"
         offset="0.07196017"
         id="stop47" /><stop
         style="stop-color:#bfbfbf;stop-opacity:1;"
         offset="0.15815869"
         id="stop52" /><stop
         style="stop-color:#dbdbdb;stop-opacity:1;"
         offset="0.28810534"
         id="stop48" /><stop
         style="stop-color:#a4a4a4;stop-opacity:1;"
         offset="0.44640401"
         id="stop49" /><stop
         style="stop-color:#646464;stop-opacity:1;"
         offset="0.5883252"
         id="stop50" /><stop
         style="stop-color:#424242;stop-opacity:1;"
         offset="0.87275743"
         id="stop51" /><stop
         style="stop-color:#252525;stop-opacity:1;"
         offset="1"
         id="stop46-0" /></linearGradient><linearGradient
       inkscape:collect="always"
       xlink:href="#linearGradient53"
       id="linearGradient54"
       x1="20.980656"
       y1="124.43067"
       x2="19.226627"
       y2="137.54358"
       gradientUnits="userSpaceOnUse" /><linearGradient
       id="linearGradient53"
       inkscape:collect="always"><stop
         style="stop-color:#ff854b;stop-opacity:1;"
         offset="0"
         id="stop53" /><stop
         style="stop-color:#6d0000;stop-opacity:1;"
         offset="1"
         id="stop54" /></linearGradient><linearGradient
       id="linearGradient9-5"
       inkscape:collect="always"><stop
         style="stop-color:#75643c;stop-opacity:1;"
         offset="0"
         id="stop9-66" /><stop
         style="stop-color:#675836;stop-opacity:1;"
         offset="0.40840852"
         id="stop11" /><stop
         style="stop-color:#000000;stop-opacity:0;"
         offset="0.6694504"
         id="stop12" /><stop
         style="stop-color:#000000;stop-opacity:0;"
         offset="1"
         id="stop10" /></linearGradient><linearGradient
       inkscape:collect="always"
       xlink:href="#linearGradient9-5"
       id="linearGradient10"
       x1="41.614166"
       y1="95.086082"
       x2="125.07215"
       y2="46.717979"
       gradientUnits="userSpaceOnUse" /><linearGradient
       inkscape:collect="always"
       xlink:href="#linearGradient9-5"
       id="linearGradient1"
       gradientUnits="userSpaceOnUse"
       x1="41.614166"
       y1="95.086082"
       x2="125.07215"
       y2="46.717979" /></defs><g
     id="g1"
     transform="matrix(1.0598981,0,0,1.0598981,-11.808138,16.465521)"><g
       id="g4"
       transform="matrix(-0.00966703,0.92305459,-0.92305459,-0.00966703,204.55811,-16.623771)"><circle
         style="display:none;fill:none;fill-opacity:1;stroke:#ff9900;stroke-width:9.206;stroke-linecap:round;stroke-linejoin:round;stroke-dasharray:none;stroke-opacity:1"
         id="circle5"
         cx="61.745449"
         cy="51.065182"
         r="16.441963" /><path
         d="m 27.335422,16.414842 c -0.757529,0.757138 -0.933644,2.0558 -1.009111,4.30654 l -3.172519,94.594248 c 0.0035,3.80024 1.76314,4.97448 3.278108,6.51436 L 132.26658,14.487543 c -1.87329,-1.98398 -3.96802,-2.597851 -7.11703,-2.400251 l -93.316634,3.270594 c -2.401052,0.08416 -3.739934,0.299848 -4.497483,1.056966 z m 22.138577,23.906011 c 3.131792,-3.596471 7.670809,-5.655995 12.439722,-5.644364 9.080646,0.0223 16.423862,7.401726 16.401519,16.482363 -0.0221,9.080633 -7.401353,16.424014 -16.481987,16.401884 -9.080644,-0.0223 -16.423859,-7.401727 -16.401526,-16.482354 0.0097,-3.95533 1.444781,-7.774627 4.042272,-10.757529 z"
         style="display:none;fill:#f7d380;stroke-width:1.81109;stroke-linecap:round;stroke-linejoin:round"
         id="path5"
         transform="translate(1.5981568e-6)" /><g
         id="g12"
         transform="rotate(-90.10939,115.70677,103.96306)"><path
           id="path12"
           style="fill:#505050;fill-opacity:0.290832;stroke-width:1.81109;stroke-linecap:round;stroke-linejoin:round"
           d="m 38.825742,17.872759 c -0.755691,0.758974 -0.928593,2.058076 -0.998545,4.308991 l -2.940395,94.60179 c 0.01282,3.80022 1.775346,4.97015 3.294086,6.5063 L 155.66516,238.80261 c 4.57903,4.50219 8.07864,7.09017 15.5391,-0.49763 L 261.90443,146.057 c 5.82828,-5.92773 2.99157,-11.25722 -0.39775,-14.58964 C 242.57632,112.85467 143.75186,15.687974 143.75186,15.687974 c -1.87818,-1.979354 -3.97439,-2.588103 -7.12291,-2.382777 l -93.308321,3.499565 c -2.400846,0.09005 -3.739196,0.309024 -4.494887,1.067997 z m 22.197166,23.851615 c 3.122955,-3.604146 7.656907,-5.6748 12.42584,-5.674875 9.080668,2.4e-5 16.441975,7.361397 16.441919,16.442065 1.76e-4,9.080665 -7.361031,16.442134 -16.441696,16.442281 -9.080668,-2.4e-5 -16.441975,-7.361397 -16.441919,-16.442065 -7.8e-5,-3.955335 1.42569,-7.778139 4.015856,-10.767406 z"
           sodipodi:nodetypes="scccsccccccssccccs"
           inkscape:label="s1" /><path
           id="rect1"
           style="fill:#f7d380;stroke:#ff9900;stroke-width:6.3;stroke-linecap:round;stroke-linejoin:round;stroke-dasharray:none;stroke-opacity:1"
           d="m 27.122417,16.446164 c -0.755691,0.758974 -0.928593,2.058076 -0.998545,4.308991 L 23.183477,115.3569 c 0.01282,3.80022 1.775346,4.97015 3.294086,6.5063 L 143.96183,237.37597 c 4.57903,4.50219 8.07864,7.09017 15.5391,-0.49763 l 90.70017,-92.24798 c 5.82828,-5.92773 2.99157,-11.25722 -0.39775,-14.58964 C 230.87299,111.42803 132.04853,14.261379 132.04853,14.261379 c -1.87818,-1.979354 -3.97439,-2.588103 -7.12291,-2.382777 l -93.308316,3.499565 c -2.400846,0.09005 -3.739196,0.309024 -4.494887,1.067997 z m 22.197166,23.851615 c 3.122955,-3.604146 7.656907,-5.6748 12.42584,-5.674875 9.080668,2.4e-5 16.441975,7.361397 16.441919,16.442065 1.76e-4,9.080665 -7.361031,16.442134 -16.441696,16.442281 -9.080668,-2.4e-5 -16.441975,-7.361397 -16.441919,-16.442065 -7.8e-5,-3.955335 1.42569,-7.778139 4.015856,-10.767406 z"
           sodipodi:nodetypes="scccsccccccssccccs"
           transform="translate(1.5981568e-6)" /><path
           d="m 27.335422,16.414842 c -0.757529,0.757138 -0.933644,2.0558 -1.009111,4.30654 l -3.172519,94.594248 c 0.0035,3.80024 1.76314,4.97448 3.278108,6.51436 38.219648,-28.404774 77.45875,-54.253114 105.83468,-107.342447 -1.87329,-1.98398 -3.96802,-2.597851 -7.11703,-2.400251 l -93.316634,3.270594 c -2.401052,0.08416 -3.739934,0.299848 -4.497483,1.056966 z m 22.138577,23.906011 c 3.131792,-3.596471 7.670809,-5.655995 12.439722,-5.644364 9.080646,0.0223 16.423862,7.401726 16.401519,16.482363 -0.0221,9.080633 -7.401353,16.424014 -16.481987,16.401884 -9.080644,-0.0223 -16.423859,-7.401727 -16.401526,-16.482354 0.0097,-3.95533 1.444781,-7.774627 4.042272,-10.757529 z"
           style="display:inline;fill:url(#linearGradient1);stroke-width:1.81109;stroke-linecap:round;stroke-linejoin:round"
           id="path9"
           transform="translate(1.5981568e-6)"
           sodipodi:nodetypes="cccccccccsccccs" /><path
           id="path1"
           style="fill:#f7c657;fill-opacity:1;stroke:none;stroke-width:1.811;stroke-linecap:round;stroke-linejoin:round;stroke-dasharray:none"
           d="m 27.335615,16.414871 c -0.757529,0.757137 -0.9337,2.055802 -1.009167,4.30654 l -3.172517,94.594239 c 0.0035,3.80023 1.763124,4.97462 3.278091,6.5145 L 80.262623,67.555603 74.359428,60.483089 c -2.612442,5.651831 -5.891987,7.093624 -12.526165,7.077456 -9.080635,-0.0223 -16.423728,-7.401323 -16.401395,-16.481941 0.0097,-3.955326 1.44441,-7.774904 4.041898,-10.757803 0.0206,-0.02365 0.04438,-0.04365 0.0651,-0.06717 L 49.264998,39.985262 50.94338,38.272526 29.400973,17.839419 c 0,0 -1.30781,-2.181666 -2.065358,-1.424548 z m 47.023813,44.068218 c 0.173534,-0.375427 0.330064,-0.758858 0.475474,-1.148967 l -0.812711,0.829346 z"
           sodipodi:nodetypes="scccccccsccccscccc" /><circle
           style="display:inline;fill:none;fill-opacity:1;stroke:#ff9900;stroke-width:9.206;stroke-linecap:round;stroke-linejoin:round;stroke-dasharray:none;stroke-opacity:1"
           id="circle6"
           cx="61.745449"
           cy="51.065182"
           r="16.441963" /></g><text
         xml:space="preserve"
         style="font-style:normal;font-variant:normal;font-weight:normal;font-stretch:normal;font-size:22.5235px;line-height:1.3;font-family:'Liberation Serif';-inkscape-font-specification:'Liberation Serif';letter-spacing:-1.22471px;word-spacing:0px;fill:#000000;fill-opacity:0.48972;fill-rule:evenodd;stroke:none;stroke-width:0.422316;stroke-dasharray:none;stroke-opacity:1"
         x="-41.418148"
         y="163.62666"
         id="text29"
         transform="rotate(-45.598284)"><tspan
           sodipodi:role="line"
           id="tspan29"
           x="-41.418148"
           y="163.62666"
           style="stroke-width:0.422316">Place ___________</tspan></text><text
         xml:space="preserve"
         style="font-style:normal;font-variant:normal;font-weight:normal;font-stretch:normal;font-size:22.5235px;line-height:1.3;font-family:'Liberation Serif';-inkscape-font-specification:'Liberation Serif';letter-spacing:-1.22471px;word-spacing:0px;fill:#000000;fill-opacity:0.48972;fill-rule:evenodd;stroke:none;stroke-width:0.422316;stroke-dasharray:none;stroke-opacity:1"
         x="-39.233948"
         y="193.47749"
         id="text30"
         transform="rotate(-45.598284)"><tspan
           sodipodi:role="line"
           id="tspan30"
           x="-39.233948"
           y="193.47749"
           style="stroke-width:0.422316">Date  ___________</tspan></text><text
         xml:space="preserve"
         style="font-style:normal;font-variant:normal;font-weight:normal;font-stretch:normal;font-size:22.5235px;line-height:1.3;font-family:'Liberation Serif';-inkscape-font-specification:'Liberation Serif';letter-spacing:-1.22471px;word-spacing:0px;fill:#000000;fill-opacity:0.48972;fill-rule:evenodd;stroke:none;stroke-width:0.422316;stroke-dasharray:none;stroke-opacity:1"
         x="-39.233948"
         y="136.32404"
         id="text32"
         transform="rotate(-45.598284)"><tspan
           sodipodi:role="line"
           id="tspan32"
           x="-39.233948"
           y="136.32404"
           style="stroke-width:0.422316">Name __________</tspan></text></g><g
       id="g19"
       transform="matrix(-0.00966703,0.92305459,-0.92305459,-0.00966703,204.55811,-16.623771)"><circle
         style="display:none;fill:none;fill-opacity:1;stroke:#ff9900;stroke-width:9.206;stroke-linecap:round;stroke-linejoin:round;stroke-dasharray:none;stroke-opacity:1"
         id="circle12"
         cx="61.745449"
         cy="51.065182"
         r="16.441963" /><path
         d="m 27.335422,16.414842 c -0.757529,0.757138 -0.933644,2.0558 -1.009111,4.30654 l -3.172519,94.594248 c 0.0035,3.80024 1.76314,4.97448 3.278108,6.51436 L 132.26658,14.487543 c -1.87329,-1.98398 -3.96802,-2.597851 -7.11703,-2.400251 l -93.316634,3.270594 c -2.401052,0.08416 -3.739934,0.299848 -4.497483,1.056966 z m 22.138577,23.906011 c 3.131792,-3.596471 7.670809,-5.655995 12.439722,-5.644364 9.080646,0.0223 16.423862,7.401726 16.401519,16.482363 -0.0221,9.080633 -7.401353,16.424014 -16.481987,16.401884 -9.080644,-0.0223 -16.423859,-7.401727 -16.401526,-16.482354 0.0097,-3.95533 1.444781,-7.774627 4.042272,-10.757529 z"
         style="display:none;fill:#f7d380;stroke-width:1.81109;stroke-linecap:round;stroke-linejoin:round"
         id="path13"
         transform="translate(1.5981568e-6)" /><g
         id="g17"
         transform="rotate(-90.10939,115.70677,103.96306)"><path
           id="path14"
           style="fill:#505050;fill-opacity:0.290832;stroke-width:1.81109;stroke-linecap:round;stroke-linejoin:round"
           d="m 38.825742,17.872759 c -0.755691,0.758974 -0.928593,2.058076 -0.998545,4.308991 l -2.940395,94.60179 c 0.01282,3.80022 1.775346,4.97015 3.294086,6.5063 L 155.66516,238.80261 c 4.57903,4.50219 8.07864,7.09017 15.5391,-0.49763 L 261.90443,146.057 c 5.82828,-5.92773 2.99157,-11.25722 -0.39775,-14.58964 C 242.57632,112.85467 143.75186,15.687974 143.75186,15.687974 c -1.87818,-1.979354 -3.97439,-2.588103 -7.12291,-2.382777 l -93.308321,3.499565 c -2.400846,0.09005 -3.739196,0.309024 -4.494887,1.067997 z m 22.197166,23.851615 c 3.122955,-3.604146 7.656907,-5.6748 12.42584,-5.674875 9.080668,2.4e-5 16.441975,7.361397 16.441919,16.442065 1.76e-4,9.080665 -7.361031,16.442134 -16.441696,16.442281 -9.080668,-2.4e-5 -16.441975,-7.361397 -16.441919,-16.442065 -7.8e-5,-3.955335 1.42569,-7.778139 4.015856,-10.767406 z"
           sodipodi:nodetypes="scccsccccccssccccs"
           inkscape:label="s1" /><path
           id="path15"
           style="fill:#f7d380;stroke:#ff9900;stroke-width:6.3;stroke-linecap:round;stroke-linejoin:round;stroke-dasharray:none;stroke-opacity:1"
           d="m 27.122417,16.446164 c -0.755691,0.758974 -0.928593,2.058076 -0.998545,4.308991 L 23.183477,115.3569 c 0.01282,3.80022 1.775346,4.97015 3.294086,6.5063 L 143.96183,237.37597 c 4.57903,4.50219 8.07864,7.09017 15.5391,-0.49763 l 90.70017,-92.24798 c 5.82828,-5.92773 2.99157,-11.25722 -0.39775,-14.58964 C 230.87299,111.42803 132.04853,14.261379 132.04853,14.261379 c -1.87818,-1.979354 -3.97439,-2.588103 -7.12291,-2.382777 l -93.308316,3.499565 c -2.400846,0.09005 -3.739196,0.309024 -4.494887,1.067997 z m 22.197166,23.851615 c 3.122955,-3.604146 7.656907,-5.6748 12.42584,-5.674875 9.080668,2.4e-5 16.441975,7.361397 16.441919,16.442065 1.76e-4,9.080665 -7.361031,16.442134 -16.441696,16.442281 -9.080668,-2.4e-5 -16.441975,-7.361397 -16.441919,-16.442065 -7.8e-5,-3.955335 1.42569,-7.778139 4.015856,-10.767406 z"
           sodipodi:nodetypes="scccsccccccssccccs"
           transform="translate(1.5981568e-6)" /><path
           d="m 27.335422,16.414842 c -0.757529,0.757138 -0.933644,2.0558 -1.009111,4.30654 l -3.172519,94.594248 c 0.0035,3.80024 1.76314,4.97448 3.278108,6.51436 38.219648,-28.404774 77.45875,-54.253114 105.83468,-107.342447 -1.87329,-1.98398 -3.96802,-2.597851 -7.11703,-2.400251 l -93.316634,3.270594 c -2.401052,0.08416 -3.739934,0.299848 -4.497483,1.056966 z m 22.138577,23.906011 c 3.131792,-3.596471 7.670809,-5.655995 12.439722,-5.644364 9.080646,0.0223 16.423862,7.401726 16.401519,16.482363 -0.0221,9.080633 -7.401353,16.424014 -16.481987,16.401884 -9.080644,-0.0223 -16.423859,-7.401727 -16.401526,-16.482354 0.0097,-3.95533 1.444781,-7.774627 4.042272,-10.757529 z"
           style="display:inline;fill:url(#linearGradient10);stroke-width:1.81109;stroke-linecap:round;stroke-linejoin:round"
           id="path16"
           transform="translate(1.5981568e-6)"
           sodipodi:nodetypes="cccccccccsccccs" /><path
           id="path17"
           style="fill:#f7c657;fill-opacity:1;stroke:none;stroke-width:1.811;stroke-linecap:round;stroke-linejoin:round;stroke-dasharray:none"
           d="m 27.335615,16.414871 c -0.757529,0.757137 -0.9337,2.055802 -1.009167,4.30654 l -3.172517,94.594239 c 0.0035,3.80023 1.763124,4.97462 3.278091,6.5145 L 80.262623,67.555603 74.359428,60.483089 c -2.612442,5.651831 -5.891987,7.093624 -12.526165,7.077456 -9.080635,-0.0223 -16.423728,-7.401323 -16.401395,-16.481941 0.0097,-3.955326 1.44441,-7.774904 4.041898,-10.757803 0.0206,-0.02365 0.04438,-0.04365 0.0651,-0.06717 L 49.264998,39.985262 50.94338,38.272526 29.400973,17.839419 c 0,0 -1.30781,-2.181666 -2.065358,-1.424548 z m 47.023813,44.068218 c 0.173534,-0.375427 0.330064,-0.758858 0.475474,-1.148967 l -0.812711,0.829346 z"
           sodipodi:nodetypes="scccccccsccccscccc" /><circle
           style="display:inline;fill:none;fill-opacity:1;stroke:#ff9900;stroke-width:9.206;stroke-linecap:round;stroke-linejoin:round;stroke-dasharray:none;stroke-opacity:1"
           id="circle17"
           cx="61.745449"
           cy="51.065182"
           r="16.441963" /></g><text
         xml:space="preserve"
         style="font-style:normal;font-variant:normal;font-weight:normal;font-stretch:normal;font-size:22.5235px;line-height:1.3;font-family:'Liberation Serif';-inkscape-font-specification:'Liberation Serif';letter-spacing:-1.22471px;word-spacing:0px;fill:#000000;fill-opacity:0.48972;fill-rule:evenodd;stroke:none;stroke-width:0.422316;stroke-dasharray:none;stroke-opacity:1"
         x="-41.418148"
         y="163.62666"
         id="text17"
         transform="rotate(-45.598284)"><tspan
           sodipodi:role="line"
           id="tspan17"
           x="-41.418148"
           y="163.62666"
           style="stroke-width:0.422316">Place ___________</tspan></text><text
         xml:space="preserve"
         style="font-style:normal;font-variant:normal;font-weight:normal;font-stretch:normal;font-size:22.5235px;line-height:1.3;font-family:'Liberation Serif';-inkscape-font-specification:'Liberation Serif';letter-spacing:-1.22471px;word-spacing:0px;fill:#000000;fill-opacity:0.48972;fill-rule:evenodd;stroke:none;stroke-width:0.422316;stroke-dasharray:none;stroke-opacity:1"
         x="-39.233948"
         y="193.47749"
         id="text18"
         transform="rotate(-45.598284)"><tspan
           sodipodi:role="line"
           id="tspan18"
           x="-39.233948"
           y="193.47749"
           style="stroke-width:0.422316">Date  ___________</tspan></text><text
         xml:space="preserve"
         style="font-style:normal;font-variant:normal;font-weight:normal;font-stretch:normal;font-size:22.5235px;line-height:1.3;font-family:'Liberation Serif';-inkscape-font-specification:'Liberation Serif';letter-spacing:-1.22471px;word-spacing:0px;fill:#000000;fill-opacity:0.48972;fill-rule:evenodd;stroke:none;stroke-width:0.422316;stroke-dasharray:none;stroke-opacity:1"
         x="-39.233948"
         y="136.32404"
         id="text19"
         transform="rotate(-45.598284)"><tspan
           sodipodi:role="line"
           id="tspan19"
           x="-39.233948"
           y="136.32404"
           style="stroke-width:0.422316">Name __________</tspan></text></g></g><metadata
     id="metadata33"><rdf:RDF><cc:License
         rdf:about="http://creativecommons.org/publicdomain/zero/1.0/"><cc:permits
           rdf:resource="http://creativecommons.org/ns#Reproduction" /><cc:permits
           rdf:resource="http://creativecommons.org/ns#Distribution" /><cc:permits
           rdf:resource="http://creativecommons.org/ns#DerivativeWorks" /></cc:License><cc:Work
         rdf:about=""><cc:license
           rdf:resource="http://creativecommons.org/publicdomain/zero/1.0/" /></cc:Work></rdf:RDF></metadata><g
     id="g2"
     inkscape:label="pen"
     style="display:inline"
     transform="matrix(-2.1809228,0.67407087,0.67407087,2.1809228,189.90714,-280.83973)"><path
       id="rect16"
       style="fill:url(#linearGradient20);stroke-width:1.9;stroke-linecap:round;stroke-linejoin:round;stroke-miterlimit:5"
       d="m 30.732889,144.66814 65.193318,20.43249 -20.548245,3.7777 c -41.672382,8.61005 -49.805148,5.83309 -60.641828,-26.85925 z"
       sodipodi:nodetypes="ccccc" /><g
       id="g32"
       inkscape:label="pen"
       style="display:inline"><path
         id="rect21"
         style="fill:#1f2020;fill-opacity:1;stroke-width:1.9;stroke-linecap:round;stroke-linejoin:round;stroke-miterlimit:5"
         d="m 90.169471,157.64058 5.222271,5.36164 c 0.376035,0.35034 0.322399,0.64464 -0.325489,0.86142 l -8.875894,0.70801 c -0.388851,-2.18928 1.801317,-5.58259 3.979112,-6.93107 z"
         sodipodi:nodetypes="ccccc" /><path
         id="rect22"
         style="fill:url(#linearGradient23);stroke-width:1.9;stroke-linecap:round;stroke-linejoin:round;stroke-miterlimit:5"
         d="m 84.524927,150.38728 6.945312,8.69346 c -1.269455,1.44824 -1.784705,3.19816 -1.795387,5.14992 l -10.488839,1.13393 c 3.662724,-5.16846 5.042593,-9.99502 5.338914,-14.97731 z"
         sodipodi:nodetypes="ccccc" /><path
         id="rect26"
         style="fill:url(#linearGradient28);stroke:#578abf;stroke-width:1.1;stroke-linecap:round;stroke-linejoin:round;stroke-miterlimit:5"
         d="m 40.892237,130.82842 42.763123,18.8425 c 1.943016,3.71649 -0.54926,12.39607 -4.409947,15.63528 L 35.413212,147.80004 c 4.172811,-1.59313 7.90683,-12.32176 5.479025,-16.97162 z"
         sodipodi:nodetypes="ccccc" /><path
         id="path32-2"
         style="fill:url(#linearGradient44);stroke-width:1.25792;stroke-linecap:round;stroke-linejoin:round;stroke-miterlimit:5"
         d="m 24.684531,132.37779 c -1.557715,4.96624 -6.027916,9.46466 -8.818825,9.46466 -2.790909,0 -2.845667,-4.49842 -1.287952,-9.46466 1.557716,-4.96625 5.082975,-8.99219 7.873884,-8.99219 2.79091,0 3.790609,4.02594 2.232893,8.99219 z"
         sodipodi:nodetypes="sssss" /><path
         id="rect32"
         style="fill:url(#linearGradient34);stroke-width:1.1;stroke-linecap:round;stroke-linejoin:round;stroke-miterlimit:5"
         d="m 22.773065,123.22024 10.29985,3.87426 c 0,0 0.856811,3.78861 -1.417411,9.59114 -3.298409,8.41568 -6.331101,8.26823 -6.331101,8.26823 l -10.677826,-3.40179 c 1.006046,0.57488 5.551162,0.73462 9.449404,-8.07924 2.905621,-6.56956 -0.75769,-10.2526 -1.322916,-10.2526 z"
         sodipodi:nodetypes="ccsccsc" /><path
         id="rect42"
         style="display:inline;fill:url(#linearGradient46);stroke-width:1.1;stroke-linecap:round;stroke-linejoin:round;stroke-miterlimit:5"
         d="m 32.789436,126.9055 8.102865,3.26004 c 1.390353,5.97539 -0.566763,13.88282 -5.740514,18.09562 l -9.543899,-3.3073 c 4.592833,-3.62668 7.860711,-9.42825 7.181548,-18.04836 z"
         sodipodi:nodetypes="ccccc" /><path
         id="rect52"
         style="fill:#494949;fill-opacity:0.638079;stroke-width:1.1;stroke-linecap:round;stroke-linejoin:round;stroke-miterlimit:5"
         d="m 38.884298,129.29149 2.645833,1.06306 c 0.996983,12.20299 -4.534897,16.37492 -5.929502,18.04836 l -3.047433,-1.03944 c 4.826635,-4.67503 7.185554,-10.81192 6.331102,-18.07198 z"
         sodipodi:nodetypes="ccccc" /><path
         id="rect53"
         style="fill:url(#linearGradient54);stroke-width:1.1;stroke-linecap:round;stroke-linejoin:round;stroke-miterlimit:5"
         d="m 22.350412,123.37829 c 0.460915,-0.20479 0.999033,0.0911 1.503392,0.23384 1.911321,3.98677 2.072368,6.72888 1.069078,9.88897 -1.210757,3.81355 -2.585009,7.97681 -7.937719,9.00414 l -2.265771,-0.94691 c 3.933622,-0.23726 7.01982,-4.42343 8.332603,-8.05723 1.149519,-3.18189 0.732065,-6.0153 -1.102487,-10.08943 z"
         sodipodi:nodetypes="ccaccacc" /></g></g></svg>
