<?xml version="1.0" encoding="UTF-8" standalone="no"?>
<!-- Created with Inkscape (http://www.inkscape.org/) -->

<svg
   width="256mm"
   height="256mm"
   viewBox="0 0 256 256"
   version="1.1"
   id="svg1"
   inkscape:version="1.3.2 (091e20ef0f, 2023-11-25)"
   xml:space="preserve"
   sodipodi:docname="view-image-02.svg"
   xmlns:inkscape="http://www.inkscape.org/namespaces/inkscape"
   xmlns:sodipodi="http://sodipodi.sourceforge.net/DTD/sodipodi-0.dtd"
   xmlns:xlink="http://www.w3.org/1999/xlink"
   xmlns="http://www.w3.org/2000/svg"
   xmlns:svg="http://www.w3.org/2000/svg"
   xmlns:rdf="http://www.w3.org/1999/02/22-rdf-syntax-ns#"
   xmlns:cc="http://creativecommons.org/ns#"
   xmlns:dc="http://purl.org/dc/elements/1.1/"><defs
     id="defs1"><linearGradient
       id="linearGradient14"
       inkscape:collect="always"><stop
         style="stop-color:#f4fb97;stop-opacity:1"
         offset="0"
         id="stop15" /><stop
         style="stop-color:#f1fa96;stop-opacity:1"
         offset="0.39870191"
         id="stop17" /><stop
         style="stop-color:#ddef91;stop-opacity:1"
         offset="0.7120567"
         id="stop18" /><stop
         style="stop-color:#96cb80;stop-opacity:1"
         offset="1"
         id="stop16" /></linearGradient><linearGradient
       id="linearGradient9"
       inkscape:collect="always"><stop
         style="stop-color:#589b25;stop-opacity:1"
         offset="0"
         id="stop10" /><stop
         style="stop-color:#5fa02f;stop-opacity:1"
         offset="0.16824494"
         id="stop12" /><stop
         style="stop-color:#80ba60;stop-opacity:1"
         offset="0.49124458"
         id="stop13" /><stop
         style="stop-color:#96cb80;stop-opacity:1"
         offset="0.8383007"
         id="stop14" /><stop
         style="stop-color:#96cb80;stop-opacity:1"
         offset="1"
         id="stop11" /></linearGradient><linearGradient
       id="linearGradient6"
       inkscape:collect="always"><stop
         style="stop-color:#233aa0;stop-opacity:1"
         offset="0"
         id="stop6" /><stop
         style="stop-color:#233aa0;stop-opacity:1"
         offset="0.3152554"
         id="stop8" /><stop
         style="stop-color:#3d69c9;stop-opacity:1;"
         offset="1"
         id="stop9" /></linearGradient><linearGradient
       id="linearGradient4"
       inkscape:collect="always"><stop
         style="stop-color:#65a4fc;stop-opacity:1;"
         offset="0"
         id="stop4" /><stop
         style="stop-color:#afe6fe;stop-opacity:1"
         offset="1"
         id="stop5" /></linearGradient><linearGradient
       id="linearGradient1"
       inkscape:collect="always"><stop
         style="stop-color:#a4c7ef;stop-opacity:1"
         offset="0"
         id="stop1" /><stop
         style="stop-color:#d6f5fa;stop-opacity:1"
         offset="1"
         id="stop2" /></linearGradient><linearGradient
       inkscape:collect="always"
       xlink:href="#linearGradient1"
       id="linearGradient2"
       x1="127.78033"
       y1="10.690778"
       x2="127.78033"
       y2="79.379051"
       gradientUnits="userSpaceOnUse" /><linearGradient
       inkscape:collect="always"
       xlink:href="#linearGradient4"
       id="linearGradient5"
       x1="81.926338"
       y1="47.247021"
       x2="84.099693"
       y2="119.62946"
       gradientUnits="userSpaceOnUse" /><linearGradient
       inkscape:collect="always"
       xlink:href="#linearGradient6"
       id="linearGradient7"
       x1="231.88838"
       y1="75.50074"
       x2="249.54816"
       y2="174.50124"
       gradientUnits="userSpaceOnUse" /><linearGradient
       inkscape:collect="always"
       xlink:href="#linearGradient9"
       id="linearGradient11"
       x1="17.575893"
       y1="97.139893"
       x2="28.6905"
       y2="218.3484"
       gradientUnits="userSpaceOnUse" /><linearGradient
       inkscape:collect="always"
       xlink:href="#linearGradient14"
       id="linearGradient16"
       x1="195.53362"
       y1="182.48077"
       x2="188.16045"
       y2="239.93315"
       gradientUnits="userSpaceOnUse" /></defs><sodipodi:namedview
     id="base"
     pagecolor="#ffffff"
     bordercolor="#000000"
     borderopacity="0.3"
     inkscape:pageopacity="0.0"
     inkscape:pageshadow="2"
     inkscape:zoom="0.98994949"
     inkscape:cx="505.07627"
     inkscape:cy="476.792"
     inkscape:document-units="mm"
     inkscape:showpageshadow="2"
     inkscape:pagecheckerboard="0"
     inkscape:deskcolor="#d1d1d1"
     inkscape:current-layer="svg1" /><metadata
     id="metadata1"><rdf:RDF><cc:Work
         rdf:about=""><dc:format>image/svg+xml</dc:format><dc:type
           rdf:resource="http://purl.org/dc/dcmitype/StillImage" /><cc:license
           rdf:resource="http://creativecommons.org/publicdomain/zero/1.0/" /></cc:Work><cc:License
         rdf:about="http://creativecommons.org/publicdomain/zero/1.0/"><cc:permits
           rdf:resource="http://creativecommons.org/ns#Reproduction" /><cc:permits
           rdf:resource="http://creativecommons.org/ns#Distribution" /><cc:permits
           rdf:resource="http://creativecommons.org/ns#DerivativeWorks" /></cc:License></rdf:RDF></metadata><g
     id="g2"
     style="display:inline"
     transform="matrix(1.0533388,0,0,1.0533388,-7.7003314,-5.7639699)"><rect
       style="display:inline;fill:#706f6f;fill-opacity:1;stroke:none;stroke-width:2.6;stroke-linecap:round;stroke-linejoin:round"
       id="rect1"
       width="234.8965"
       height="234.59583"
       x="14.967093"
       y="13.26325" /><g
       id="rect2"
       style="display:inline"><path
         style="color:#000000;fill:url(#linearGradient2);stroke-linecap:round;stroke-linejoin:round;-inkscape-stroke:none"
         d="M 11.759859,10.423512 H 238.93895 V 237.06807 H 11.759859 Z"
         id="path3" /><path
         id="rect4"
         style="opacity:1;fill:url(#linearGradient5);stroke-width:7;stroke-linecap:round;stroke-linejoin:round"
         d="M 11.71726,66.712794 48.806172,40.537942 c 3.645632,-2.414585 7.389555,-3.359032 10.536084,-0.283482 l 14.788314,9.071429 4.77195,-2.834822 c 2.180637,-1.402932 4.21328,-1.177935 6.142113,0.188988 l 14.646577,9.354912 11.90625,-9.732888 c 5.63898,-3.832279 8.8141,-1.007265 11.66076,0.268505 l 27.81268,12.695302 c 5.66125,2.167289 10.71601,5.304971 15.11738,9.488069 l 49.99605,33.141425 c -16.1935,13.72394 -202.31701,71.41603 -203.642728,8.95353 z"
         sodipodi:nodetypes="cccccccccccccc" /><path
         id="rect5"
         style="display:inline;opacity:1;fill:url(#linearGradient7);stroke-width:7;stroke-linecap:round;stroke-linejoin:round"
         d="m 86.745532,134.7485 c -0.876684,-0.73057 19.591228,-25.20593 37.419638,-28.72618 14.95398,-2.95269 27.17781,-2.42361 37.45403,-12.097211 10.88137,-10.243264 42.74497,-7.139876 55.89266,-13.416188 9.56828,-4.567608 1.30485,-3.167163 20.42415,-12.662203 0.89692,27.895888 1.71937,75.051382 1.32291,110.747032 -53.8245,-6.0283 -106.64464,-14.94414 -152.513388,-43.84525 z"
         sodipodi:nodetypes="csssccc" /><path
         id="rect9"
         style="display:inline;opacity:1;fill:url(#linearGradient11);stroke-width:7;stroke-linecap:round;stroke-linejoin:round"
         d="m 11.150297,94.683033 c 12.889028,1.388422 26.517032,4.257823 43.978872,15.319497 0,0 14.161912,4.71536 21.411008,7.17009 6.544194,2.21603 18.389514,10.63613 18.331844,10.86681 19.175159,2.25273 33.467789,12.36225 55.373509,16.53646 12.60176,2.40131 20.30329,-3.03407 34.86831,11.0558 3.91884,3.791 14.09853,5.17191 19.46577,6.52009 8.07061,2.02723 12.123,-0.71109 19.65477,2.55134 6.58409,2.85194 14.89418,4.99858 15.21354,3.40179 l -1.13393,28.25372 -226.785717,26.17485 z"
         sodipodi:nodetypes="ccscsssscccc" /><path
         id="rect14"
         style="display:inline;opacity:1;fill:url(#linearGradient16);stroke-width:7;stroke-linecap:round;stroke-linejoin:round"
         d="M 22.880822,201.67779 128.69949,199.9769 c 37.4592,-7.94308 74.72942,-13.54024 112.18863,-15.43678 L 240.54256,240.14168 11.429869,236.9472 9.9473,201.55759 Z"
         sodipodi:nodetypes="ccccccc" /><g
         id="g21"><path
           id="rect18"
           style="display:inline;opacity:1;fill:#335a15;fill-opacity:1;stroke-width:7;stroke-linecap:round;stroke-linejoin:round"
           d="m 133.70433,181.13838 17.5415,-16.29687 26.214,44.5573 c 0,0 -3.82239,3.24608 -6.04762,4.34673 -9.59383,4.7453 -21.14857,9.01295 -40.44345,11.33928 l -37.041673,1.13393 -82.587799,-0.94494 0.47247,-58.49182 12.74422,8.92043 C 23.937727,172.76913 43.16732,119.30677 55.376282,91.504825 l 18.313989,48.185815 18.982162,-35.73682 z"
           sodipodi:nodetypes="cccsccccccccc" /><path
           id="rect19"
           style="display:inline;opacity:1;fill:#2c4e12;fill-opacity:0.798122;stroke-width:7;stroke-linecap:round;stroke-linejoin:round"
           d="m 55.389643,122.10025 c 10.577571,11.73739 2.584015,38.12058 13.298626,38.12782 10.714611,0.007 14.01345,-33.41368 22.317005,-33.80958 8.303554,-0.39591 32.304756,71.62538 40.090436,72.69731 7.78568,1.07193 7.90879,-17.17464 15.50163,-15.76891 7.59284,1.40573 14.29892,34.47778 14.29892,34.47778 l -31.07009,7.34991 -39.622704,0.80181 -76.906807,-1.60362 c -1.424129,-10.22242 -1.688433,-27.92511 0.06682,-35.81412 0,0 2.827067,10.38247 8.285356,9.22079 0,0 23.163236,-87.41659 33.740808,-75.67919 z"
           sodipodi:nodetypes="zzzzzccccccz" /><path
           id="path19"
           style="display:inline;opacity:1;fill:#2c4e12;fill-opacity:1;stroke-width:7;stroke-linecap:round;stroke-linejoin:round"
           d="m 56.126601,131.4966 c 2.666724,9.22513 -7.240107,32.59964 12.428033,33.00778 19.66814,0.40814 13.746181,-31.27552 22.049736,-31.67142 8.303554,-0.39591 32.57202,73.49627 40.3577,74.5682 7.78568,1.07193 7.37425,-19.04553 14.96709,-17.6398 7.59284,1.40573 11.09169,28.99875 11.09169,28.99875 l -27.19468,6.41447 -39.622704,0.80181 -76.906807,-1.60362 c -1.424129,-10.22242 -1.688433,-27.92511 0.06682,-35.81412 0,0 2.158893,15.19332 7.617182,14.03164 0,0 32.479216,-80.31882 35.14594,-71.09369 z"
           sodipodi:nodetypes="zzzzzccccccz" /><path
           id="path20"
           style="display:inline;opacity:1;fill:#223c0e;fill-opacity:0.438967;stroke-width:7;stroke-linecap:round;stroke-linejoin:round"
           d="m 55.276155,131.02413 c 8.43086,7.52424 -6.389661,33.07211 13.278479,33.48025 19.66814,0.40814 13.746181,-31.27552 22.049736,-31.67142 8.303554,-0.39591 32.57202,73.49627 40.3577,74.5682 7.78568,1.07193 7.37425,-19.04553 14.96709,-17.6398 7.59284,1.40573 11.09169,28.99875 11.09169,28.99875 0,0 -9.40511,-2.59011 -19.63516,0.36685 -10.23005,2.95696 -24.70949,5.81258 -31.02374,-5.24581 -9.907839,-17.35194 -22.385739,-0.85356 -33.544804,-1.78937 -15.336729,-1.28616 -20.31878,-5.32461 -31.350177,-7.49058 -11.031397,-2.16598 -28.17031,19.77157 -28.17031,19.77157 -1.424129,-10.22242 -1.688433,-27.92511 0.06682,-35.81412 0,0 2.158893,15.19332 7.617182,14.03164 0,0 25.864633,-79.0904 34.295494,-71.56616 z"
           sodipodi:nodetypes="zzzzzczzzzcccz" /><path
           id="path21"
           style="display:inline;opacity:1;fill:#223c0e;fill-opacity:0.438967;stroke-width:7;stroke-linecap:round;stroke-linejoin:round"
           d="m 52.724816,139.52859 c 5.123569,9.88659 -3.365852,31.27673 16.302288,31.68487 19.66814,0.40814 14.40764,-31.93698 22.711195,-32.33288 8.303551,-0.39591 31.438091,67.44865 39.223771,68.52058 7.78568,1.07193 7.37425,-19.04553 14.96709,-17.6398 7.59284,1.40573 11.09169,28.99875 11.09169,28.99875 0,0 -11.106,-27.72553 -14.72147,-13.33479 -3.61546,14.39075 -27.35532,9.49785 -33.66957,-1.56054 -6.31426,-11.05838 -3.65444,-15.96146 -17.948967,-17.3104 -14.294527,-1.34894 -3.660897,18.03561 -18.997626,16.74945 -15.336729,-1.28616 -6.806131,-4.09619 -25.775028,-9.38046 -18.968897,-5.28428 -32.61153,30.4494 -32.61153,30.4494 -1.424129,-10.22242 -1.688433,-27.92511 0.06682,-35.81412 0,0 3.166848,22.04451 9.034593,14.12613 5.867744,-7.91837 25.203174,-73.04278 30.326744,-63.15619 z"
           sodipodi:nodetypes="zzzzzczzzzzcczz" /></g><path
         style="color:#000000;fill:#909090;stroke-linecap:round;stroke-linejoin:round;-inkscape-stroke:none"
         d="M 11.759766,6.9238281 A 3.50035,3.50035 0 0 0 8.2597656,10.423828 V 237.06836 a 3.50035,3.50035 0 0 0 3.5000004,3.5 H 238.93945 a 3.50035,3.50035 0 0 0 3.5,-3.5 V 10.423828 a 3.50035,3.50035 0 0 0 -3.5,-3.4999999 z m 3.5,6.9999999 H 235.43945 V 233.56836 H 15.259766 Z"
         id="path4" /></g></g></svg>
