<?xml version="1.0" encoding="UTF-8" standalone="no"?>
<!-- Created with Inkscape (http://www.inkscape.org/) -->

<svg
   width="256mm"
   height="256mm"
   viewBox="0 0 256 256"
   version="1.1"
   id="svg1"
   inkscape:version="1.3.2 (091e20ef0f, 2023-11-25)"
   sodipodi:docname="view-form-table.svg"
   xml:space="preserve"
   xmlns:inkscape="http://www.inkscape.org/namespaces/inkscape"
   xmlns:sodipodi="http://sodipodi.sourceforge.net/DTD/sodipodi-0.dtd"
   xmlns:xlink="http://www.w3.org/1999/xlink"
   xmlns="http://www.w3.org/2000/svg"
   xmlns:svg="http://www.w3.org/2000/svg"
   xmlns:rdf="http://www.w3.org/1999/02/22-rdf-syntax-ns#"
   xmlns:cc="http://creativecommons.org/ns#"
   xmlns:dc="http://purl.org/dc/elements/1.1/"><defs
     id="defs1"><linearGradient
       id="linearGradient15"
       inkscape:collect="always"><stop
         style="stop-color:#3f68a4;stop-opacity:1;"
         offset="0"
         id="stop15" /><stop
         style="stop-color:#415c88;stop-opacity:1;"
         offset="1"
         id="stop16" /></linearGradient><linearGradient
       id="linearGradient12"
       inkscape:collect="always"><stop
         style="stop-color:#e2e2e2;stop-opacity:1;"
         offset="0"
         id="stop13" /><stop
         style="stop-color:#d7d7d7;stop-opacity:1;"
         offset="1"
         id="stop14" /></linearGradient><linearGradient
       id="linearGradient2"
       inkscape:collect="always"><stop
         style="stop-color:#b4b4b4;stop-opacity:1;"
         offset="0"
         id="stop9" /><stop
         style="stop-color:#eeeeee;stop-opacity:1;"
         offset="0.5"
         id="stop11" /><stop
         style="stop-color:#b4b4b4;stop-opacity:1;"
         offset="0.75"
         id="stop12" /><stop
         style="stop-color:#eeeeee;stop-opacity:1;"
         offset="1"
         id="stop10" /></linearGradient><linearGradient
       id="SVGID_linearGradient2064_6"
       gradientUnits="userSpaceOnUse"
       gradientTransform="matrix(1.92,0,0,1.6896,-122.96,-107.9496)"
       x1="0"
       y1="8"
       x2="128"
       y2="136">
<stop
   offset="0%"
   style="stop-color:rgb(57,149,229);stop-opacity: 1"
   id="stop7" />
<stop
   offset="100%"
   style="stop-color:rgb(0,51,164);stop-opacity: 1"
   id="stop8" />
</linearGradient><linearGradient
       id="SVGID_linearGradient2830_3"
       gradientUnits="userSpaceOnUse"
       gradientTransform="matrix(1.92,0,0,1.6896,-130.65,-107.9496)"
       x1="120"
       y1="118"
       x2="4"
       y2="16">
<stop
   offset="0%"
   style="stop-color:rgb(223,223,236);stop-opacity: 1"
   id="stop1" />
<stop
   offset="100%"
   style="stop-color:rgb(255,255,255);stop-opacity: 1"
   id="stop2" />
</linearGradient><linearGradient
       id="SVGID_linearGradient6659_5"
       gradientUnits="userSpaceOnUse"
       gradientTransform="matrix(1.92,0,0,1.6896,-122.96,-107.9496)"
       x1="4"
       y1="68"
       x2="124"
       y2="68">
<stop
   offset="0%"
   style="stop-color:rgb(200,199,212);stop-opacity: 0"
   id="stop5" />
<stop
   offset="100%"
   style="stop-color:rgb(0,5,41);stop-opacity: 0.17254902"
   id="stop6" />
</linearGradient><linearGradient
       id="SVGID_linearGradient3603_4"
       gradientUnits="userSpaceOnUse"
       gradientTransform="matrix(1.92,0,0,1.6896,-122.96,-107.5908)"
       x1="62.952335"
       y1="6.0439444"
       x2="63.071777"
       y2="20.132242">
<stop
   offset="0%"
   style="stop-color:rgb(138,206,255);stop-opacity: 1"
   id="stop3" />
<stop
   offset="100%"
   style="stop-color:rgb(4,73,255);stop-opacity: 1"
   id="stop4" />
</linearGradient><linearGradient
       inkscape:collect="always"
       xlink:href="#linearGradient2"
       id="linearGradient10"
       x1="240.56064"
       y1="62.246365"
       x2="-18.842068"
       y2="201.71194"
       gradientUnits="userSpaceOnUse" /><linearGradient
       inkscape:collect="always"
       xlink:href="#linearGradient12"
       id="linearGradient14"
       x1="5.2916665"
       y1="41.010415"
       x2="247.95239"
       y2="41.010415"
       gradientUnits="userSpaceOnUse" /><linearGradient
       inkscape:collect="always"
       xlink:href="#linearGradient15"
       id="linearGradient16"
       x1="5.2916665"
       y1="69.925591"
       x2="246.81845"
       y2="69.925591"
       gradientUnits="userSpaceOnUse" /></defs><sodipodi:namedview
     id="base"
     pagecolor="#ffffff"
     bordercolor="#000000"
     borderopacity="0.3"
     inkscape:pageopacity="0.0"
     inkscape:pageshadow="2"
     inkscape:zoom="0.98994949"
     inkscape:cx="505.07627"
     inkscape:cy="476.792"
     inkscape:document-units="mm"
     inkscape:showpageshadow="2"
     inkscape:pagecheckerboard="0"
     inkscape:deskcolor="#d1d1d1"
     inkscape:current-layer="g100" /><metadata
     id="metadata1"><rdf:RDF><cc:Work
         rdf:about=""><dc:format>image/svg+xml</dc:format><dc:type
           rdf:resource="http://purl.org/dc/dcmitype/StillImage" /><cc:license
           rdf:resource="http://creativecommons.org/publicdomain/zero/1.0/" /></cc:Work><cc:License
         rdf:about="http://creativecommons.org/publicdomain/zero/1.0/"><cc:permits
           rdf:resource="http://creativecommons.org/ns#Reproduction" /><cc:permits
           rdf:resource="http://creativecommons.org/ns#Distribution" /><cc:permits
           rdf:resource="http://creativecommons.org/ns#DerivativeWorks" /></cc:License></rdf:RDF></metadata><g
     id="g100"
     style="display:inline"><g
       id="g4"
       transform="translate(0.38775976,1.0028799)"><path
         id="rect1"
         style="fill:#000000;fill-opacity:0.199561;stroke-width:4.10001;stroke-linecap:round;stroke-linejoin:round;stroke-miterlimit:5"
         d="M 7.4835467,28.33057 H 131.49661 l 110.64958,-4.40045 c 6.20117,0.01507 13.1169,0.202767 13.36348,6.805878 V 216.48832 c 0.32891,5.86379 0.0687,11.38101 -8.01809,12.2944 H 13.029389 c -8.7078744,0 -11.2469226,-6.63525 -11.2921372,-11.49259 z"
         sodipodi:nodetypes="ccccccccc" /><path
         id="path3"
         style="fill:#000000;fill-opacity:0.199561;stroke-width:4.10001;stroke-linecap:round;stroke-linejoin:round;stroke-miterlimit:5"
         d="M 5.8960466,26.743069 H 129.9091 l 110.64958,-3.064102 c 6.20117,0.01507 13.1169,-1.133581 13.36348,5.46953 V 214.90081 c 0.32891,5.86379 0.0687,11.38101 -8.01809,12.2944 H 11.441888 c -8.7078735,0 -10.3019812,-6.63525 -10.3471958,-11.49259 z"
         sodipodi:nodetypes="ccccccccc" /><path
         id="path4"
         style="fill:#000000;fill-opacity:0.199561;stroke-width:4.10001;stroke-linecap:round;stroke-linejoin:round;stroke-miterlimit:5"
         d="M 4.8377132,25.155568 H 128.85076 l 110.64958,-1.727755 c 6.20117,0.01507 13.2413,0.861305 13.36348,4.133183 V 213.3133 c 0.32891,5.86379 0.0687,11.38101 -8.01809,12.2944 H 10.383554 c -8.7078729,0 -9.73501616,-6.63525 -9.78023076,-11.49259 z"
         sodipodi:nodetypes="ccccccccc" /></g><path
       style="color:#000000;display:inline;fill:#fcfcff;fill-opacity:1;stroke-linecap:round;stroke-linejoin:round;stroke-miterlimit:5;-inkscape-stroke:none"
       d="M 9.1195891,26.726952 H 242.94799 c 3.03706,0.16117 4.7121,1.533018 4.54359,4.543582 V 217.5001 c 0.0146,1.46303 -1.19796,2.71347 -2.92932,2.72999 H 11.025035 C 7.9297279,219.9622 5.8799295,218.04859 5.8799295,215.2856 V 30.965513 c 0,-2.489449 0.9245895,-4.238561 3.2396596,-4.238561 z"
       id="path1"
       inkscape:label="colorheadbd" /><g
       id="g99"
       style="display:inline"><rect
         style="display:none;fill:#c4ddfa;fill-opacity:1;stroke:none;stroke-width:1.5;stroke-linecap:round;stroke-linejoin:round;stroke-miterlimit:5;stroke-dasharray:none;stroke-opacity:1"
         id="rect96"
         width="65.011902"
         height="24.946428"
         x="14.741072"
         y="87.690468"
         inkscape:label="firstgraydays" /><rect
         style="display:none;fill:#d9e8fa;fill-opacity:1;stroke:none;stroke-width:1.81563;stroke-linecap:round;stroke-linejoin:round;stroke-miterlimit:5;stroke-dasharray:none;stroke-opacity:1"
         id="rect97"
         width="95.25"
         height="24.946428"
         x="141.74097"
         y="184.52722"
         inkscape:label="lastgraydays" /><rect
         style="fill:url(#linearGradient14);fill-opacity:1;stroke:none;stroke-width:1.5;stroke-linecap:round;stroke-linejoin:round;stroke-miterlimit:5;stroke-dasharray:none;stroke-opacity:1"
         id="rect12"
         width="242.66072"
         height="29.104166"
         x="5.2916665"
         y="26.458332" /><path
         id="rect60"
         style="display:inline;fill:#94b5dc;fill-opacity:1;stroke:none;stroke-width:1.5;stroke-linecap:round;stroke-linejoin:round;stroke-miterlimit:5;stroke-dasharray:none;stroke-opacity:1"
         d="M 5.078243,80.715487 V 220.22997 H 246.42268 V 80.715487 Z m 14.104049,9.998873 h 24.284822 v 20.78839 H 19.182292 Z m 31.75,0 h 24.284822 v 20.78839 H 50.932292 Z m 31.560864,0 H 106.7785 v 20.78839 H 82.493156 Z m 31.939134,0 h 24.28482 v 20.78839 h -24.28482 z m 31.75,0 h 24.28482 v 20.78839 h -24.28482 z m 31.93914,0 h 24.28482 v 20.78839 h -24.28482 z m 31.80529,0 h 24.28482 v 20.78839 H 209.92672 Z M 19.182292,115.28289 h 24.284822 v 20.78839 H 19.182292 Z m 31.75,0 h 24.284822 v 20.78839 H 50.932292 Z m 31.560864,0 H 106.7785 v 20.78839 H 82.493156 Z m 31.939134,0 h 24.28482 v 20.78839 h -24.28482 z m 31.75,0 h 24.28482 v 20.78839 h -24.28482 z m 31.93914,0 h 24.28482 v 20.78839 h -24.28482 z m 31.80529,0 h 24.28482 v 20.78839 h -24.28482 z m -190.744428,23.8125 h 24.284822 v 20.78839 H 19.182292 Z m 31.75,0 h 24.284822 v 20.78839 H 50.932292 Z m 31.560864,0 H 106.7785 v 20.78839 H 82.493156 Z m 31.939134,0 h 24.28482 v 20.78839 h -24.28482 z m 31.75,0 h 24.28482 v 20.78839 h -24.28482 z m 31.93914,0 h 24.28482 v 20.78839 h -24.28482 z m 31.80529,0 h 24.28482 v 20.78839 h -24.28482 z m -190.744428,23.8125 h 24.284822 v 20.78839 H 19.182292 Z m 31.75,0 h 24.284822 v 20.78839 H 50.932292 Z m 31.560864,0 H 106.7785 v 20.78839 H 82.493156 Z m 31.939134,0 h 24.28482 v 20.78839 h -24.28482 z m 31.75,0 h 24.28482 v 20.78839 h -24.28482 z m 31.93914,0 h 24.28482 v 20.78839 h -24.28482 z m 31.80529,0 h 24.28482 v 20.78839 H 209.92672 Z M 19.182292,186.53125 h 24.284822 v 20.78891 H 19.182292 Z m 31.75,0 h 24.284822 v 20.78891 H 50.932292 Z m 31.560864,0 H 106.7785 v 20.78891 H 82.493156 Z m 31.939134,0 h 24.28482 v 20.78891 h -24.28482 z m 31.75,0 h 24.28482 v 20.78891 h -24.28482 z m 31.93914,0 h 24.28482 v 20.78891 h -24.28482 z m 31.80529,0 h 24.28482 v 20.78891 h -24.28482 z"
         inkscape:label="grid" /></g><g
       id="g101"
       inkscape:label="days"><path
         id="path102"
         style="display:none;fill:#85eb6f;stroke:#3b921b;stroke-width:4.1;stroke-linecap:round;stroke-linejoin:round;stroke-miterlimit:5"
         d="m 20.335101,115.66071 h 23.8125 v 19.27679 h -23.8125 z" /><path
         id="rect100"
         style="display:none;fill:#85eb6f;stroke:#3b921b;stroke-width:4.1;stroke-linecap:round;stroke-linejoin:round;stroke-miterlimit:5"
         d="m 51.026787,115.66071 h 23.8125 v 19.27679 h -23.8125 z" /><path
         id="path100"
         style="display:none;fill:#85eb6f;stroke:#3b921b;stroke-width:4.1;stroke-linecap:round;stroke-linejoin:round;stroke-miterlimit:5"
         d="M 82.776807,115.66071 H 106.58934 V 134.9375 H 82.776807 Z" /><path
         id="path101"
         style="display:none;fill:#85eb6f;stroke:#3b921b;stroke-width:4.1;stroke-linecap:round;stroke-linejoin:round;stroke-miterlimit:5"
         d="m 114.52691,115.66071 h 23.81263 v 19.27679 h -23.81263 z" /><path
         id="path103"
         style="display:none;fill:#85eb6f;stroke:#3b921b;stroke-width:4.1;stroke-linecap:round;stroke-linejoin:round;stroke-miterlimit:5"
         d="m 147.03286,115.66071 h 23.81263 v 19.27679 h -23.81263 z" /><path
         id="path104"
         style="display:none;fill:#85eb6f;stroke:#3b921b;stroke-width:4.1;stroke-linecap:round;stroke-linejoin:round;stroke-miterlimit:5"
         d="m 178.02691,115.66071 h 23.81263 v 19.27679 h -23.81263 z" /><path
         id="path105"
         style="display:none;fill:#85eb6f;stroke:#3b921b;stroke-width:4.1;stroke-linecap:round;stroke-linejoin:round;stroke-miterlimit:5"
         d="m 209.02096,115.66071 h 23.81263 v 19.27679 h -23.81263 z" /></g><path
       id="rect98"
       style="display:none;fill:#e8f3ff;fill-opacity:0.458586;stroke-width:1.5;stroke-linecap:round;stroke-linejoin:round;stroke-miterlimit:5"
       d="M 5.6126599,81.517204 H 243.21528 V 113.05501 C 117.3169,106.99218 45.419433,138.96271 5.6126599,156.35267 Z"
       sodipodi:nodetypes="ccccc"
       inkscape:label="shadowwhite" /><g
       id="g98"><rect
         style="display:inline;fill:url(#linearGradient16);fill-opacity:1;stroke:none;stroke-width:1.5;stroke-linecap:round;stroke-linejoin:round;stroke-miterlimit:5;stroke-dasharray:none;stroke-opacity:1"
         id="rect14"
         width="241.52678"
         height="24.946428"
         x="5.2916665"
         y="57.452377" /><path
         style="color:#000000;display:inline;fill:url(#linearGradient10);stroke:#919191;stroke-width:1.5;stroke-linecap:round;stroke-linejoin:round;stroke-miterlimit:5;stroke-dasharray:none;stroke-opacity:1"
         d="m 9.1191406,23.277344 c -2.026396,0 -4.2016352,1.057496 -5.3203125,2.666015 -1.1186773,1.608519 -1.3691406,3.349648 -1.3691406,5.021485 V 215.28516 c 0,2.23465 0.9228538,4.41968 2.4824219,5.90625 1.5595681,1.48656 3.6308823,2.28741 5.8164066,2.47656 0.09874,0.008 0.197795,0.0121 0.296875,0.0117 H 244.5625 c 0.0111,5e-5 0.0221,5e-5 0.0332,0 3.37689,-0.0322 6.37952,-2.82625 6.34571,-6.21485 V 31.271484 l -0.006,0.191407 c 0.12153,-2.171325 -0.52956,-4.504402 -2.13672,-6.033204 -1.60716,-1.528801 -3.66569,-2.04218 -5.66797,-2.148437 -0.0611,-0.0029 -0.12237,-0.0042 -0.18359,-0.0039 z m 4.8521754,6.90039 H 238.75247 c 3.45337,0 5.29445,1.693684 5.29445,4.441713 -0.0124,61.900298 -0.006,113.157523 -0.006,175.057893 -0.0956,5.91389 -0.91659,7.10196 -6.53701,7.10196 -11.45503,0 -221.327301,0.17196 -224.909435,0.17196 -2.0552,0 -3.2643969,-1.43845 -3.2643969,-3.23631 V 34.6398 c 0,-3.334238 1.3265269,-4.462066 4.6412379,-4.462066 z"
         id="path2"
         sodipodi:nodetypes="ssssscccccccsccscccccsssc"
         inkscape:label="frame" /></g></g></svg>
