<?xml version="1.0" encoding="UTF-8" standalone="no"?>
<!-- Created with Inkscape (http://www.inkscape.org/) -->

<svg
   width="256mm"
   height="256mm"
   viewBox="0 0 256 256"
   version="1.1"
   id="svg1"
   inkscape:version="1.4 (e7c3feb100, 2024-10-09)"
   xml:space="preserve"
   sodipodi:docname="vm_import_wizard.svg"
   xmlns:inkscape="http://www.inkscape.org/namespaces/inkscape"
   xmlns:sodipodi="http://sodipodi.sourceforge.net/DTD/sodipodi-0.dtd"
   xmlns:xlink="http://www.w3.org/1999/xlink"
   xmlns="http://www.w3.org/2000/svg"
   xmlns:svg="http://www.w3.org/2000/svg"
   xmlns:rdf="http://www.w3.org/1999/02/22-rdf-syntax-ns#"
   xmlns:cc="http://creativecommons.org/ns#"
   xmlns:dc="http://purl.org/dc/elements/1.1/"><defs
     id="defs1"><linearGradient
       id="linearGradient20"
       inkscape:collect="always"><stop
         style="stop-color:#606091;stop-opacity:1;"
         offset="0"
         id="stop21" /><stop
         style="stop-color:#606091;stop-opacity:0.32232347;"
         offset="1"
         id="stop22" /></linearGradient><linearGradient
       id="linearGradient19"
       inkscape:collect="always"><stop
         style="stop-color:#f4f4f5;stop-opacity:1;"
         offset="0"
         id="stop19" /><stop
         style="stop-color:#f4f4f5;stop-opacity:0.38610479;"
         offset="1"
         id="stop20" /></linearGradient><linearGradient
       id="linearGradient13"
       inkscape:collect="always"><stop
         style="stop-color:#d2d2e6;stop-opacity:1"
         offset="0"
         id="stop15" /><stop
         style="stop-color:#9898bf;stop-opacity:1"
         offset="1"
         id="stop16" /></linearGradient><linearGradient
       id="linearGradient12"
       inkscape:collect="always"><stop
         style="stop-color:#add9ff;stop-opacity:1"
         offset="0"
         id="stop13" /><stop
         style="stop-color:#40a9ff;stop-opacity:1"
         offset="1"
         id="stop14" /></linearGradient><linearGradient
       id="linearGradient11"
       inkscape:collect="always"><stop
         style="stop-color:#474747;stop-opacity:1;"
         offset="0"
         id="stop11" /><stop
         style="stop-color:#454545;stop-opacity:0;"
         offset="1"
         id="stop12" /></linearGradient><linearGradient
       id="linearGradient10"
       inkscape:collect="always"><stop
         style="stop-color:#565681;stop-opacity:1"
         offset="0"
         id="stop9" /><stop
         style="stop-color:#565681;stop-opacity:1"
         offset="1"
         id="stop10" /></linearGradient><linearGradient
       id="linearGradient7"
       inkscape:collect="always"><stop
         style="stop-color:#8b8ba8;stop-opacity:1"
         offset="0"
         id="stop7" /><stop
         style="stop-color:#dededf;stop-opacity:1"
         offset="1"
         id="stop8" /></linearGradient><linearGradient
       id="linearGradient5"
       inkscape:collect="always"><stop
         style="stop-color:#7575a5;stop-opacity:1"
         offset="0"
         id="stop5" /><stop
         style="stop-color:#8c8ca8;stop-opacity:1;"
         offset="0.5"
         id="stop23" /><stop
         style="stop-color:#c4c4d1;stop-opacity:1"
         offset="1"
         id="stop6" /></linearGradient><linearGradient
       id="linearGradient3"
       inkscape:collect="always"><stop
         style="stop-color:#e3e3f2;stop-opacity:1;"
         offset="0"
         id="stop3" /><stop
         style="stop-color:#9999e6;stop-opacity:1;"
         offset="1"
         id="stop4" /></linearGradient><linearGradient
       id="linearGradient1"
       inkscape:collect="always"><stop
         style="stop-color:#7373ac;stop-opacity:1;"
         offset="0"
         id="stop1" /><stop
         style="stop-color:#52527a;stop-opacity:1;"
         offset="1"
         id="stop2" /></linearGradient><linearGradient
       inkscape:collect="always"
       xlink:href="#linearGradient1"
       id="linearGradient2"
       x1="36.08139"
       y1="215.95378"
       x2="219.16101"
       y2="215.95378"
       gradientUnits="userSpaceOnUse" /><linearGradient
       inkscape:collect="always"
       xlink:href="#linearGradient3"
       id="linearGradient4"
       x1="104.60326"
       y1="175.18633"
       x2="192.98813"
       y2="238.8419"
       gradientUnits="userSpaceOnUse"
       gradientTransform="matrix(1.0043988,0,0,1.0043988,0.918592,-0.89527462)" /><linearGradient
       inkscape:collect="always"
       xlink:href="#linearGradient5"
       id="linearGradient6"
       x1="187.85417"
       y1="174.24702"
       x2="187.85417"
       y2="232.07739"
       gradientUnits="userSpaceOnUse" /><linearGradient
       inkscape:collect="always"
       xlink:href="#linearGradient7"
       id="linearGradient8"
       x1="162.71875"
       y1="175.00298"
       x2="162.71875"
       y2="231.32144"
       gradientUnits="userSpaceOnUse"
       gradientTransform="matrix(1,0,0,1.006978,-0.93544335,-1.6194424)" /><linearGradient
       inkscape:collect="always"
       xlink:href="#linearGradient10"
       id="linearGradient9"
       gradientUnits="userSpaceOnUse"
       x1="162.71875"
       y1="175.00298"
       x2="162.71875"
       y2="231.32144"
       gradientTransform="translate(50.081845)" /><radialGradient
       inkscape:collect="always"
       xlink:href="#linearGradient11"
       id="radialGradient12"
       cx="139.28423"
       cy="221.87201"
       fx="139.28423"
       fy="221.87201"
       r="54.239582"
       gradientTransform="matrix(0.95564087,0,0,0.46221858,-93.444763,152.65507)"
       gradientUnits="userSpaceOnUse" /><linearGradient
       inkscape:collect="always"
       xlink:href="#linearGradient12"
       id="linearGradient14"
       x1="114.92589"
       y1="16.570711"
       x2="114.92589"
       y2="159.29263"
       gradientUnits="userSpaceOnUse" /><linearGradient
       inkscape:collect="always"
       xlink:href="#linearGradient13"
       id="linearGradient16"
       x1="23.774046"
       y1="7.3705268"
       x2="228.33606"
       y2="171.03421"
       gradientUnits="userSpaceOnUse" /><radialGradient
       inkscape:collect="always"
       xlink:href="#linearGradient19"
       id="radialGradient20"
       cx="22.346561"
       cy="-3.6069839"
       fx="22.346561"
       fy="-3.6069839"
       r="108.74917"
       gradientTransform="matrix(1.946203,0,0,2.1885258,-21.144384,22.43884)"
       gradientUnits="userSpaceOnUse" /><radialGradient
       inkscape:collect="always"
       xlink:href="#linearGradient20"
       id="radialGradient22"
       cx="235.86388"
       cy="196.6356"
       fx="235.86388"
       fy="196.6356"
       r="108.70861"
       gradientTransform="matrix(2.0151961,0,0,1.6202833,-239.4481,-142.29402)"
       gradientUnits="userSpaceOnUse" /><radialGradient
       inkscape:collect="always"
       xlink:href="#linearGradient2-7"
       id="radialGradient3"
       cx="215.68651"
       cy="108.77869"
       fx="215.68651"
       fy="108.77869"
       r="27.979107"
       gradientUnits="userSpaceOnUse"
       gradientTransform="translate(-56.39387,-3.4745039)" /><linearGradient
       id="linearGradient2-7"
       inkscape:collect="always"><stop
         style="stop-color:#ffff9b;stop-opacity:1"
         offset="0"
         id="stop2-7" /><stop
         style="stop-color:#ffff9b;stop-opacity:1"
         offset="0.27790001"
         id="stop4-5" /><stop
         style="stop-color:#ffc600;stop-opacity:1;"
         offset="0.35010999"
         id="stop5-3" /><stop
         style="stop-color:#ffc600;stop-opacity:1;"
         offset="1"
         id="stop3-5" /></linearGradient><linearGradient
       id="linearGradient3-7"
       inkscape:collect="always"><stop
         style="stop-color:#0a5fab;stop-opacity:1;"
         offset="0"
         id="stop3-53" /><stop
         style="stop-color:#0a87ab;stop-opacity:1;"
         offset="0.47200167"
         id="stop5-5" /><stop
         style="stop-color:#56e8ee;stop-opacity:1;"
         offset="1"
         id="stop4-6" /></linearGradient><inkscape:path-effect
       effect="bend_path"
       id="path-effect136"
       is_visible="true"
       lpeversion="1"
       bendpath="m -60.00719,111.41697 c 27.505429,-175.695608 265.68565,-222.80287 273.01029,0"
       prop_scale="0.72090284"
       scale_y_rel="false"
       vertical="false"
       hide_knot="false"
       bendpath-nodetypes="cc" /><inkscape:path-effect
       effect="bend_path"
       id="path-effect8"
       is_visible="true"
       lpeversion="1"
       bendpath="m -60.00719,111.41697 c 27.505429,-175.695608 265.68565,-222.80287 273.01029,0"
       prop_scale="0.72090284"
       scale_y_rel="false"
       vertical="false"
       hide_knot="false"
       bendpath-nodetypes="cc" /><inkscape:path-effect
       effect="bend_path"
       id="path-effect121"
       is_visible="true"
       lpeversion="1"
       bendpath="m -60.00719,111.41697 c 27.505429,-175.695608 265.68565,-222.80287 273.01029,0"
       prop_scale="0.72090284"
       scale_y_rel="false"
       vertical="false"
       hide_knot="false"
       bendpath-nodetypes="cc" /><radialGradient
       inkscape:collect="always"
       xlink:href="#linearGradient3-7"
       id="radialGradient4"
       cx="-13.327981"
       cy="85.717598"
       fx="-13.327981"
       fy="85.717598"
       r="84.009003"
       gradientTransform="matrix(-1.7485016,1.2737676,-0.74675118,-1.0250657,238.13152,229.23948)"
       gradientUnits="userSpaceOnUse" /></defs><sodipodi:namedview
     id="base"
     pagecolor="#ffffff"
     bordercolor="#000000"
     borderopacity="0.3"
     inkscape:pageopacity="0.0"
     inkscape:pageshadow="2"
     inkscape:zoom="0.72112115"
     inkscape:cx="577.57286"
     inkscape:cy="524.18377"
     inkscape:document-units="mm"
     inkscape:showpageshadow="2"
     inkscape:pagecheckerboard="0"
     inkscape:deskcolor="#d1d1d1"
     inkscape:current-layer="svg1"
     showguides="true"><sodipodi:guide
       position="129.43884,223.75017"
       orientation="1,0"
       id="guide1"
       inkscape:locked="false" /></sodipodi:namedview><metadata
     id="metadata1"><rdf:RDF><cc:Work
         rdf:about=""><dc:format>image/svg+xml</dc:format><dc:type
           rdf:resource="http://purl.org/dc/dcmitype/StillImage" /><cc:license
           rdf:resource="http://creativecommons.org/publicdomain/zero/1.0/" /></cc:Work><cc:License
         rdf:about="http://creativecommons.org/publicdomain/zero/1.0/"><cc:permits
           rdf:resource="http://creativecommons.org/ns#Reproduction" /><cc:permits
           rdf:resource="http://creativecommons.org/ns#Distribution" /><cc:permits
           rdf:resource="http://creativecommons.org/ns#DerivativeWorks" /></cc:License></rdf:RDF></metadata><g
     id="g12"
     style="display:inline"
     transform="translate(0,1.0690781)"><g
       id="g4"
       style="display:inline"
       inkscape:label="foot"
       transform="matrix(1,0,0,0.92912373,0,14.971221)"><g
         id="g23"
         inkscape:label="shadow"
         style="display:inline"
         transform="translate(5.8208336,6.8344007)"><path
           id="path23"
           style="display:inline;fill:#000000;fill-opacity:0.119958;stroke-width:3.6083;stroke-linecap:round;stroke-linejoin:round"
           d="m 218.49955,218.39464 c -5.93393,16.83775 -40.3223,30.16603 -90.87835,30.16603 -50.556048,0 -89.949704,-14.66894 -91.53981,-32.60689 -0.79817,-9.00414 -0.789933,-10.8094 -0.684943,-10.8094 0,0 127.044943,-17.32258 152.322963,-17.32258 25.27802,0 30.66467,14.42987 30.66467,14.42987 0.44945,0 3.28869,7.13883 0.11547,16.14297 z"
           sodipodi:nodetypes="ssscscs"
           inkscape:label="shadow" /><path
           id="path24"
           style="display:inline;fill:#000000;fill-opacity:0.119958;stroke-width:3.6083;stroke-linecap:round;stroke-linejoin:round"
           d="m 216.62866,216.81252 c -5.93393,16.83775 -40.3223,30.16603 -90.87835,30.16603 -50.556045,0 -89.949701,-14.66894 -91.539807,-32.60689 -0.79817,-9.00414 -0.789933,-10.8094 -0.684943,-10.8094 0,0 127.04494,-17.32258 152.32296,-17.32258 25.27802,0 30.66467,14.42987 30.66467,14.42987 0.44945,0 3.28869,7.13883 0.11547,16.14297 z"
           sodipodi:nodetypes="ssscscs"
           inkscape:label="shadow" /><path
           id="path25"
           style="display:inline;fill:#000000;fill-opacity:0.119958;stroke-width:3.6083;stroke-linecap:round;stroke-linejoin:round"
           d="m 215.55958,215.08657 c -5.93393,16.83775 -40.3223,30.16603 -90.87835,30.16603 -50.556043,0 -89.949699,-14.66894 -91.539805,-32.60689 -0.79817,-9.00414 -0.789933,-10.8094 -0.684943,-10.8094 0,0 127.044938,-17.32258 152.322958,-17.32258 25.27802,0 30.66467,14.42987 30.66467,14.42987 0.44945,0 3.28869,7.13883 0.11547,16.14297 z"
           sodipodi:nodetypes="ssscscs"
           inkscape:label="shadow" /><path
           id="path26"
           style="display:inline;fill:#000000;fill-opacity:0.119958;stroke-width:3.6083;stroke-linecap:round;stroke-linejoin:round"
           d="m 213.95596,213.64828 c -5.93393,16.83775 -40.3223,30.16603 -90.87835,30.16603 -50.55604,0 -89.949696,-14.66894 -91.539802,-32.60689 -0.79817,-9.00414 -0.789933,-10.8094 -0.684943,-10.8094 0,0 127.044935,-17.32258 152.322955,-17.32258 25.27802,0 30.66467,14.42987 30.66467,14.42987 0.44945,0 3.28869,7.13883 0.11547,16.14297 z"
           sodipodi:nodetypes="ssscscs"
           inkscape:label="shadow" /></g><path
         id="path1"
         style="display:inline;fill:url(#linearGradient2);stroke-width:3.6083;stroke-linecap:round;stroke-linejoin:round"
         d="m 218.49955,215.95378 c 1e-5,18.00829 -40.3223,32.60689 -90.87835,32.60689 -50.556048,0 -89.949704,-14.66894 -91.53981,-32.60689 -0.79817,-9.00414 -0.789933,-10.8094 -0.684943,-10.8094 0,0 66.946733,-21.79748 92.224753,-21.79748 25.27802,0 90.76288,18.90477 90.76288,18.90477 0,0 0.11547,4.69797 0.11547,13.70211 z"
         sodipodi:nodetypes="ssscscs" /><path
         id="path2"
         style="display:inline;fill:url(#linearGradient4);stroke-width:2.04898;stroke-linecap:round;stroke-linejoin:round"
         d="m 218.35918,203.52574 c 0,17.32662 -40.98377,34.77442 -91.5398,34.77442 -50.556035,0 -91.539803,-17.4478 -91.539801,-34.77442 1e-6,-9.38912 26.186034,-22.53722 91.539801,-24.19108 62.95638,-1.5932 91.5398,15.93588 91.5398,24.19108 z"
         sodipodi:nodetypes="sssss" /></g><ellipse
       style="fill:url(#radialGradient12);stroke-width:1.91408;stroke-linecap:round;stroke-linejoin:round"
       id="path11"
       cx="39.660931"
       cy="255.20844"
       rx="51.833561"
       ry="25.070541"
       transform="matrix(0.9279782,-0.37263446,0.4074773,0.91321533,0,0)"
       inkscape:label="footshadow" /><g
       id="g6"
       inkscape:label="foot-neck"
       transform="matrix(1.0797342,0,0,1,-75.023882,0)"><path
         id="rect4"
         style="fill:url(#linearGradient6);stroke-width:2.04;stroke-linecap:round;stroke-linejoin:round"
         d="m 159.12798,174.24702 h 56.31845 v 58.20834 h -56.31845 z" /><path
         id="rect6"
         style="fill:url(#linearGradient8);stroke-width:2.04711;stroke-linecap:round;stroke-linejoin:round"
         d="m 158.94849,174.2241 h 5.66964 v 57.85328 h -5.66964 z" /><path
         id="path8"
         style="fill:url(#linearGradient9);stroke-width:2.04;stroke-linecap:round;stroke-linejoin:round"
         d="m 209.96578,174.625 h 5.66964 v 57.45238 h -5.66964 z" /><path
         id="path10"
         style="fill:#6b6b8e;fill-opacity:1;stroke-width:2.02315;stroke-linecap:round;stroke-linejoin:round"
         d="m 215.25745,226.9747 v 5.66964 h -56.50744 v -5.66964 z" /></g><g
       id="g1"><g
         id="g14"
         inkscape:label="monitorinner"><rect
           style="display:inline;fill:url(#linearGradient14);stroke-width:2.04;stroke-linecap:round;stroke-linejoin:round"
           id="rect12"
           width="196.71036"
           height="147.53278"
           x="31.003265"
           y="14.432554" /></g><path
         id="rect1"
         style="display:inline;fill:#d5d4e6;fill-opacity:1;stroke-width:2.04;stroke-linecap:round;stroke-linejoin:round"
         d="m 219.02344,16.036172 h 9.492 V 163.03443 H 32.786328 l -0.241565,-8.41923 186.478677,-0.14174 z"
         sodipodi:nodetypes="ccccccc" /><g
         id="g3"
         style="display:inline"><path
           id="path3"
           style="fill:#8e94ad;fill-opacity:1;stroke-width:2.0511;stroke-linecap:round;stroke-linejoin:round"
           d="M 38.018462,160.89627 H 29.872068 V 13.898016 H 219.00065 l 0.24421,8.41923 -181.226398,0.14174 z"
           sodipodi:nodetypes="ccccccc" /></g><g
         id="g18"
         inkscape:label="monitor"><path
           id="rect16"
           style="display:inline;fill:#000000;fill-opacity:0.119958;stroke-width:14.44;stroke-linecap:square;stroke-opacity:0.384289"
           d="M 230.37664,11.150224 V 173.11295 H 27.21436 v 12.09538 h 211.28839 v -5.03412 h 3.96875 V 11.150224 Z"
           sodipodi:nodetypes="ccccccccc" /><path
           style="color:#000000;display:inline;fill:url(#linearGradient16);stroke-linecap:square;-inkscape-stroke:none"
           d="M 16.390214,0.78248439 V 180.3338 H 238.54102 V 0.78248439 Z M 32.166016,16.291016 H 224.10156 V 159.4668 H 32.166016 Z"
           id="rect3"
           sodipodi:nodetypes="cccccccccc" /><path
           id="rect17"
           style="fill:url(#radialGradient22);stroke-width:14.4787;stroke-linecap:square;stroke-opacity:0.384289"
           d="M 233.92267,5.5180094 V 174.9671 h 4.81108 V 5.5180094 Z M 21.316528,175.32883 v 4.9997 H 233.68806 v -4.9997 z" /><path
           id="rect19"
           style="fill:url(#radialGradient20);stroke-width:14.44;stroke-linecap:square;stroke-opacity:0.384289"
           d="M 21.000785,0.83302409 V 5.2787476 H 233.9945 V 0.83302409 Z M 16.496151,5.4942383 V 175.25494 h 4.445723 V 5.4942383 Z" /></g></g></g><path
     id="path21"
     style="display:none;fill:#ffffff;stroke-width:15.2085;stroke-linecap:square"
     inkscape:label="play"
     d="M 166.71801,90.084416 92.056198,34.099017 V 146.82851 L 166.71801,90.408831 Z"
     sodipodi:nodetypes="ccccc" /><g
     id="g48"
     inkscape:label="new"
     transform="matrix(0.82388662,0,0,0.82388662,70.218305,-32.177326)"
     style="display:none"><path
       id="rect6-5"
       style="fill:#ff3500;stroke-width:5.177;stroke-linejoin:bevel"
       inkscape:transform-center-x="-0.26726953"
       inkscape:transform-center-y="-43.832202"
       d="m 157.42173,39.28862 h 3.74176 c 3.55361,0 6.41446,2.860852 6.41446,6.414466 v 31.537805 c 0,3.553615 -2.86085,6.414466 -6.41446,6.414466 h -3.74176 c -3.55362,0 -6.41447,-2.860851 -6.41447,-6.414466 V 45.703086 c 0,-3.553614 2.86085,-6.414466 6.41447,-6.414466 z" /><path
       id="use41"
       style="fill:#ff3500;stroke-width:5.177;stroke-linejoin:bevel"
       inkscape:transform-center-x="-0.26726953"
       inkscape:transform-center-y="-43.832202"
       d="m 157.42173,39.28862 h 3.74176 c 3.55361,0 6.41446,2.860852 6.41446,6.414466 v 31.537805 c 0,3.553615 -2.86085,6.414466 -6.41446,6.414466 h -3.74176 c -3.55362,0 -6.41447,-2.860851 -6.41447,-6.414466 V 45.703086 c 0,-3.553614 2.86085,-6.414466 6.41447,-6.414466 z" /><path
       id="use42"
       style="fill:#ff3500;stroke-width:5.177;stroke-linejoin:bevel"
       inkscape:transform-center-x="-0.26726953"
       inkscape:transform-center-y="-43.832202"
       d="m 204.57147,57.490216 2.64582,2.645824 c 2.51279,2.512782 2.51278,6.558636 0,9.071421 l -22.3006,22.300596 c -2.51278,2.512785 -6.55863,2.512786 -9.07142,4e-6 l -2.64582,-2.645824 c -2.51279,-2.512789 -2.51279,-6.558642 0,-9.071428 l 22.30059,-22.300595 c 2.51279,-2.512785 6.55864,-2.512786 9.07143,2e-6 z" /><path
       id="use43"
       style="fill:#ff3500;stroke-width:5.177;stroke-linejoin:bevel"
       inkscape:transform-center-x="-0.26726953"
       inkscape:transform-center-y="-43.832202"
       d="m 225.0409,103.70059 v 3.74176 c 0,3.55361 -2.86085,6.41446 -6.41447,6.41446 h -31.5378 c -3.55362,0 -6.41447,-2.86085 -6.41447,-6.41446 v -3.74176 c 0,-3.55362 2.86085,-6.41447 6.41447,-6.41447 h 31.5378 c 3.55362,0 6.41447,2.86085 6.41447,6.41447 z" /><path
       id="use44"
       style="fill:#ff3500;stroke-width:5.177;stroke-linejoin:bevel"
       inkscape:transform-center-x="-0.26726953"
       inkscape:transform-center-y="-43.832202"
       d="m 206.8393,150.85033 -2.64582,2.64582 c -2.51278,2.51279 -6.55864,2.51278 -9.07142,0 l -22.3006,-22.3006 c -2.51278,-2.51278 -2.51278,-6.55863 0,-9.07142 l 2.64582,-2.64582 c 2.51279,-2.51279 6.55865,-2.51279 9.07143,0 l 22.3006,22.30059 c 2.51278,2.51279 2.51278,6.55864 -1e-5,9.07143 z" /><path
       id="use45"
       style="fill:#ff3500;stroke-width:5.177;stroke-linejoin:bevel"
       inkscape:transform-center-x="-0.26726953"
       inkscape:transform-center-y="-43.832202"
       d="m 160.62893,171.31976 h -3.74176 c -3.55361,0 -6.41446,-2.86085 -6.41446,-6.41447 v -31.5378 c 0,-3.55362 2.86085,-6.41447 6.41446,-6.41447 h 3.74176 c 3.55362,0 6.41447,2.86085 6.41447,6.41447 v 31.5378 c 0,3.55362 -2.86085,6.41447 -6.41447,6.41447 z" /><path
       id="use46"
       style="fill:#ff3500;stroke-width:5.177;stroke-linejoin:bevel"
       inkscape:transform-center-x="-0.26726953"
       inkscape:transform-center-y="-43.832202"
       d="m 113.47919,153.11816 -2.64582,-2.64582 c -2.51279,-2.51278 -2.51278,-6.55864 0,-9.07142 l 22.3006,-22.3006 c 2.51278,-2.51278 6.55863,-2.51278 9.07142,0 l 2.64582,2.64582 c 2.51279,2.51279 2.51279,6.55865 0,9.07143 l -22.30059,22.3006 c -2.51279,2.51278 -6.55864,2.51278 -9.07143,-1e-5 z" /><path
       id="use47"
       style="fill:#ff3500;stroke-width:5.177;stroke-linejoin:bevel"
       inkscape:transform-center-x="-0.26726953"
       inkscape:transform-center-y="-43.832202"
       d="m 93.00976,106.90779 v -3.74176 c 0,-3.55361 2.860852,-6.41446 6.414466,-6.41446 h 31.537804 c 3.55362,0 6.41447,2.86085 6.41447,6.41446 v 3.74176 c 0,3.55362 -2.86085,6.41447 -6.41447,6.41447 H 99.424226 c -3.553614,0 -6.414466,-2.86085 -6.414466,-6.41447 z" /><path
       id="use48"
       style="fill:#ff3500;stroke-width:5.177;stroke-linejoin:bevel"
       inkscape:transform-center-x="-0.26726953"
       inkscape:transform-center-y="-43.832202"
       d="m 111.21136,59.758049 2.64582,-2.645824 c 2.51278,-2.512781 6.55864,-2.51278 9.07142,5e-6 l 22.3006,22.300595 c 2.51278,2.512786 2.51278,6.558639 0,9.071421 l -2.64582,2.645824 c -2.51279,2.512789 -6.55865,2.512788 -9.07143,3e-6 l -22.3006,-22.300596 c -2.51278,-2.512785 -2.51278,-6.558639 1e-5,-9.071428 z" /><circle
       style="fill:url(#radialGradient3);fill-opacity:1;stroke:#fdea00;stroke-width:5.177;stroke-linejoin:bevel;stroke-opacity:1"
       id="path1-6"
       cx="159.29263"
       cy="105.30418"
       r="25.390606" /></g><g
     id="g2"
     transform="matrix(0.72055952,0,0,0.72055952,-28.393586,71.271354)"><g
       id="g5"
       transform="translate(6.9490077,5.61266)"><g
         id="rect1-1"><path
           id="path6"
           style="color:#000000;fill:#343434;fill-opacity:0.224977;stroke-linecap:square;-inkscape-stroke:none"
           d="m 47.029171,6.5939128 c -2.342962,-0.00724 -4.30982,0.2589652 -6.111255,1.0562662 -1.803585,0.7982525 -3.487217,2.413751 -4.099492,4.384745 -1.224546,3.941989 0.890371,6.854072 2.935739,8.959143 l 47.308223,49.220769 -24.523568,38.496354 -0.132808,0.30645 c -12.491645,28.79537 -12.641379,54.45899 -2.454631,77.08573 10.186749,22.62673 30.293314,42.0448 57.495711,59.89867 3.56709,2.34121 7.56735,3.52863 11.50628,1.76578 1.96947,-0.88143 3.74146,-2.9567 4.19096,-5.27771 0.4495,-2.321 -0.10486,-4.58175 -1.18908,-6.85746 -5.10501,-10.71515 -11.0688,-23.59704 -9.70535,-39.75985 1.30947,-15.52282 9.52834,-34.56389 33.24035,-57.81043 l 50.58813,49.06833 c 2.5072,2.43226 6.04124,2.77006 8.9116,1.54099 2.87115,-1.2294 5.18671,-4.60015 4.94182,-8.30234 l 0.01,0.25167 -1.05885,-156.805272 C 218.80536,12.353121 218.03156,6.7107119 202.88544,6.7003662 L 47.036922,6.5939128 h -0.0039 z"
           sodipodi:nodetypes="cssccccssssssccsccssccc" /><path
           id="path8-2"
           style="color:#000000;fill:#343434;fill-opacity:0.224977;stroke-width:0.976695;stroke-linecap:square;-inkscape-stroke:none"
           d="m 48.920941,9.414059 c -2.288359,-0.00707 -4.209379,0.25293 -5.968831,1.03165 -1.761553,0.779649 -3.405947,2.357498 -4.003953,4.282558 -1.196008,3.850121 0.869621,6.694337 2.867321,8.750349 l 46.205701,48.073675 -23.952044,37.599189 -0.129713,0.29931 c -12.200526,28.12429 -12.346771,53.18982 -2.397426,75.28924 9.949346,22.09941 29.587326,41.06494 56.155764,58.50273 3.48396,2.28665 7.391,3.44639 11.23813,1.72463 1.92357,-0.86089 3.65426,-2.8878 4.09329,-5.15472 0.43902,-2.26691 -0.10242,-4.47497 -1.16137,-6.69764 -4.98604,-10.46544 -10.81084,-23.04711 -9.47917,-38.83325 1.27896,-15.16106 9.30629,-33.75837 32.46568,-56.46315 l 49.40917,47.92479 c 2.44877,2.37558 5.90045,2.7055 8.70392,1.50508 2.80424,-1.20075 5.06583,-4.49295 4.82665,-8.10886 l 0.01,0.24581 -1.03418,-153.150912 C 216.69387,15.039048 215.9381,9.5281361 201.14497,9.5180315 L 48.928512,9.414059 h -0.0038 z"
           sodipodi:nodetypes="cssccccssssssccsccssccc" /><path
           id="path9"
           style="color:#000000;fill:#343434;fill-opacity:0.224977;stroke-width:0.947564;stroke-linecap:square;-inkscape-stroke:none"
           d="m 51.285654,12.939242 c -2.220105,-0.0069 -4.083828,0.245386 -5.790802,1.000879 -1.709012,0.756395 -3.304359,2.287182 -3.884529,4.154825 -1.160335,3.735285 0.843683,6.494668 2.781799,8.489357 l 44.827548,46.639806 -23.237639,36.477741 -0.125844,0.29038 c -11.836628,27.28544 -11.978511,51.60335 -2.32592,73.04363 9.652592,21.44026 28.704841,39.84011 54.480833,56.7578 3.38005,2.21844 7.17056,3.34359 10.90294,1.67319 1.8662,-0.83522 3.54527,-2.80167 3.9712,-5.00098 0.42593,-2.19929 -0.0994,-4.34149 -1.12673,-6.49787 -4.83732,-10.15329 -10.48839,-22.35969 -9.19644,-37.67499 1.24081,-14.70886 9.02872,-32.75148 31.49734,-54.77905 l 47.93547,46.49536 c 2.37573,2.30472 5.72446,2.6248 8.44431,1.46019 2.7206,-1.16494 4.91474,-4.35894 4.68269,-7.867 l 0.01,0.23848 -1.00333,-148.582965 c -0.074,-10.861568 -0.80727,-16.208109 -15.15917,-16.217912 L 51.292999,12.939242 h -0.0037 z"
           sodipodi:nodetypes="cssccccssssssccsccssccc" /><path
           id="path10-7"
           style="color:#000000;fill:#343434;fill-opacity:0.224977;stroke-width:0.918433;stroke-linecap:square;-inkscape-stroke:none"
           d="m 53.650367,16.464425 c -2.151851,-0.0067 -3.958277,0.237842 -5.612773,0.970108 -1.656471,0.733141 -3.202771,2.216866 -3.765105,4.027092 -1.124662,3.620449 0.817745,6.294999 2.696277,8.228365 l 43.449395,45.205937 -22.523234,35.356293 -0.121975,0.28145 c -11.47273,26.44659 -11.610251,50.01688 -2.254414,70.79802 9.355838,20.78111 27.822356,38.61528 52.805902,55.01287 3.27614,2.15023 6.95012,3.24079 10.56775,1.62175 1.80883,-0.80955 3.43628,-2.71554 3.84911,-4.84724 0.41284,-2.13167 -0.0963,-4.20801 -1.09209,-6.2981 -4.6886,-9.84114 -10.16594,-21.67227 -8.91371,-36.51673 1.20266,-14.25666 8.75115,-31.74459 30.529,-53.09495 l 46.46177,45.06593 c 2.30269,2.23386 5.54847,2.5441 8.18471,1.4153 2.63695,-1.12913 4.76364,-4.22493 4.53872,-7.62514 l 0.01,0.23115 -0.97249,-144.015018 c -0.072,-10.527646 -0.78275,-15.709816 -14.69342,-15.719317 L 53.657486,16.464425 h -0.0036 z"
           sodipodi:nodetypes="cssccccssssssccsccssccc" /><path
           id="path11-0"
           style="color:#000000;fill:#343434;fill-opacity:0.224977;stroke-width:0.872051;stroke-linecap:square;-inkscape-stroke:none"
           d="m 57.415367,22.077078 c -2.04318,-0.0064 -3.75838,0.225831 -5.329322,0.921117 -1.572817,0.696116 -3.041028,2.104912 -3.574963,3.82372 -1.067866,3.437612 0.776448,5.977095 2.560112,7.812823 l 41.255155,42.92299 -21.385787,33.570762 -0.115815,0.26724 c -10.893345,25.11101 -11.023921,47.49097 -2.140564,67.22264 8.883359,19.73165 26.417298,36.66517 50.139147,52.23467 3.11069,2.04164 6.59913,3.07712 10.03407,1.53985 1.71748,-0.76867 3.26274,-2.57841 3.65473,-4.60245 0.39199,-2.02402 -0.0914,-3.9955 -1.03694,-5.98004 -4.45182,-9.34415 -9.65255,-20.5778 -8.46356,-34.6726 1.14192,-13.53668 8.30921,-30.14145 28.98725,-50.4136 l 44.1154,42.79006 c 2.18641,2.12104 5.26827,2.41562 7.77138,1.34382 2.50378,-1.07211 4.52307,-4.01157 4.30951,-7.24006 l 0.009,0.21948 -0.92338,-136.742114 C 207.21292,27.099397 206.53806,22.178932 193.3299,22.169911 L 57.422127,22.077078 h -0.0034 z"
           sodipodi:nodetypes="cssccccssssssccsccssccc" /></g></g><path
       id="path5"
       style="display:inline;fill:url(#radialGradient4);stroke:#0c5171;stroke-width:7.716;stroke-linecap:square;stroke-linejoin:miter;stroke-dasharray:none;stroke-opacity:1"
       d="M 53.86987,20.658033 201.1664,19.950714 c 7.85467,0.04797 7.63451,2.118856 7.50428,10.656867 l -0.32459,145.566109 c 0.25681,3.88247 -4.05872,5.19708 -6.15018,3.16674 l -49.05047,-47.57656 c -48.60993,45.85044 -34.36029,76.74911 -24.9897,96.41748 3.06088,6.42463 -2.74545,7.85175 -7.684,4.6104 C 71.348976,200.55079 49.260586,163.37275 71.494598,112.11956 L 95.415221,74.568195 49.979599,27.296894 c -2.698362,-2.777126 -3.319165,-6.663137 3.890271,-6.638861 z"
       sodipodi:nodetypes="ccccccsscccc" /></g></svg>
