<?xml version="1.0" encoding="UTF-8" standalone="no"?>
<!-- Created with Inkscape (http://www.inkscape.org/) -->

<svg
   width="256mm"
   height="256mm"
   viewBox="0 0 256 256"
   version="1.1"
   id="svg1"
   inkscape:version="1.3.2 (091e20ef0f, 2023-11-25)"
   sodipodi:docname="window-close.svg"
   xmlns:inkscape="http://www.inkscape.org/namespaces/inkscape"
   xmlns:sodipodi="http://sodipodi.sourceforge.net/DTD/sodipodi-0.dtd"
   xmlns:xlink="http://www.w3.org/1999/xlink"
   xmlns="http://www.w3.org/2000/svg"
   xmlns:svg="http://www.w3.org/2000/svg"
   xmlns:rdf="http://www.w3.org/1999/02/22-rdf-syntax-ns#"
   xmlns:cc="http://creativecommons.org/ns#"
   xmlns:dc="http://purl.org/dc/elements/1.1/">
  <defs
     id="defs1">
    <linearGradient
       id="linearGradient4"
       inkscape:collect="always">
      <stop
         style="stop-color:#ff4201;stop-opacity:1;"
         offset="0"
         id="stop4" />
      <stop
         style="stop-color:#dc0000;stop-opacity:1;"
         offset="0.44080997"
         id="stop6" />
      <stop
         style="stop-color:#c60000;stop-opacity:1;"
         offset="0.52375388"
         id="stop11" />
      <stop
         style="stop-color:#c60000;stop-opacity:1;"
         offset="0.6783489"
         id="stop7" />
      <stop
         style="stop-color:#8b0000;stop-opacity:1;"
         offset="0.875"
         id="stop8" />
      <stop
         style="stop-color:#890000;stop-opacity:1;"
         offset="0.9375"
         id="stop9" />
      <stop
         style="stop-color:#880000;stop-opacity:1;"
         offset="0.96875"
         id="stop10" />
      <stop
         style="stop-color:#8f0000;stop-opacity:1;"
         offset="1"
         id="stop5" />
    </linearGradient>
    <linearGradient
       id="linearGradient2"
       inkscape:collect="always">
      <stop
         style="stop-color:#ffc3c3;stop-opacity:1;"
         offset="0"
         id="stop2" />
      <stop
         style="stop-color:#ffc3c3;stop-opacity:0;"
         offset="1"
         id="stop3" />
    </linearGradient>
    <linearGradient
       inkscape:collect="always"
       xlink:href="#linearGradient2"
       id="linearGradient3"
       x1="135.69345"
       y1="28.726192"
       x2="135.69345"
       y2="122.84226"
       gradientUnits="userSpaceOnUse"
       gradientTransform="matrix(1.5257145,0,0,1.470803,-86.692619,-21.838476)" />
    <radialGradient
       inkscape:collect="always"
       xlink:href="#linearGradient4"
       id="radialGradient5"
       cx="123.97619"
       cy="124.73214"
       fx="123.97619"
       fy="124.73214"
       r="121.33036"
       gradientUnits="userSpaceOnUse" />
    <linearGradient
       id="light100to0">
      <stop
         style="stop-color:#ffffff;stop-opacity:0.79848868;"
         offset="0"
         id="stop2764" />
      <stop
         style="stop-color:#ffffff;stop-opacity:0.0000000;"
         offset="1.0000000"
         id="stop2765" />
    </linearGradient>
  </defs>
  <sodipodi:namedview
     id="base"
     pagecolor="#ffffff"
     bordercolor="#000000"
     borderopacity="0.3"
     inkscape:pageopacity="0.0"
     inkscape:pageshadow="2"
     inkscape:zoom="0.49497475"
     inkscape:cx="700.03572"
     inkscape:cy="29.294424"
     inkscape:document-units="mm"
     inkscape:showpageshadow="2"
     inkscape:pagecheckerboard="0"
     inkscape:deskcolor="#d1d1d1"
     inkscape:current-layer="svg1" />
  <metadata
     id="metadata1">
    <rdf:RDF>
      <cc:Work
         rdf:about="">
        <dc:format>image/svg+xml</dc:format>
        <dc:type
           rdf:resource="http://purl.org/dc/dcmitype/StillImage" />
        <cc:license
           rdf:resource="http://creativecommons.org/publicdomain/zero/1.0/" />
      </cc:Work>
      <cc:License
         rdf:about="http://creativecommons.org/publicdomain/zero/1.0/">
        <cc:permits
           rdf:resource="http://creativecommons.org/ns#Reproduction" />
        <cc:permits
           rdf:resource="http://creativecommons.org/ns#Distribution" />
        <cc:permits
           rdf:resource="http://creativecommons.org/ns#DerivativeWorks" />
      </cc:License>
    </rdf:RDF>
  </metadata>
  <circle
     style="fill:url(#radialGradient5);fill-rule:evenodd;stroke-width:6.16;stroke-linejoin:round;fill-opacity:1"
     id="path1"
     cx="123.97619"
     cy="124.73214"
     r="121.33036" />
  <circle
     style="fill:url(#radialGradient5);fill-rule:evenodd;stroke-width:6.16;stroke-linejoin:round;fill-opacity:1"
     id="circle11"
     cx="123.97619"
     cy="124.73214"
     r="121.33036" />
  <ellipse
     style="fill:url(#linearGradient3);fill-rule:evenodd;stroke-width:9.22772;stroke-linejoin:round"
     id="path2"
     cx="123.22023"
     cy="87.12352"
     rx="100.91964"
     ry="76.162201" />
  <path
     id="path11"
     style="fill:#808080;fill-opacity:1;fill-rule:evenodd;stroke:none;stroke-width:5.26254;stroke-linecap:round;stroke-linejoin:round;stroke-dasharray:none;stroke-opacity:1;paint-order:markers fill stroke"
     d="m 74.875585,52.61805 -0.889186,0.889187 c -0.308551,0.118944 -0.632207,0.324169 -0.984065,0.644836 -0.402561,0.366873 -8.830361,9.008437 -15.515321,15.85455 l -9.230095,9.230093 1.474098,1.474102 c 0.153193,0.397317 0.362442,0.774978 0.628524,1.096251 1.002234,1.210122 49.148773,49.089021 49.290423,49.229891 l -20.397024,20.39735 c -14.610113,14.22147 -31.389418,30.4761 -31.219066,30.77064 0.207626,0.35901 0.547849,0.6603 0.935793,0.93746 l 25.906252,25.90626 51.596452,-51.59612 51.59645,51.59612 L 204.68782,182.43 153.09137,130.83355 204.68782,79.236716 178.06915,52.61805 C 159.8052,71.130058 146.86896,83.497611 126.72746,103.20647 115.10519,91.86655 77.932035,54.837631 76.744508,54.172046 76.507673,54.039305 76.292669,53.929114 76.074706,53.81717 Z"
     sodipodi:nodetypes="ccscccsccscccccccccscc" />
  <path
     id="rect1"
     style="fill:#ffffff;fill-opacity:1;fill-rule:evenodd;stroke:none;stroke-width:5.26254;stroke-linecap:round;stroke-linejoin:round;stroke-dasharray:none;stroke-opacity:1;paint-order:markers fill stroke"
     d="m 72.22975,40.976376 -0.889186,0.889187 c -0.308551,0.118944 -0.632207,0.324169 -0.984065,0.644836 -0.402561,0.366873 -8.830361,9.008437 -15.515321,15.85455 l -9.230095,9.230093 1.474098,1.474102 c 0.153193,0.397317 0.362442,0.774978 0.628524,1.096251 1.002234,1.210122 49.148776,49.088955 49.290423,49.229825 l -20.397024,20.39735 c -14.610113,14.22147 -31.389418,30.4761 -31.219066,30.77064 0.207626,0.35901 0.547849,0.6603 0.935793,0.93746 l 25.906252,25.90626 51.596437,-51.59612 51.59645,51.59612 26.619,-26.61867 L 150.44552,119.19181 202.04197,67.595042 175.4233,40.976376 C 157.15935,59.488384 144.22311,71.855937 124.08161,91.564775 112.45934,80.224876 75.2862,43.195957 74.098673,42.530372 73.861838,42.397631 73.646834,42.28744 73.428871,42.175496 Z"
     sodipodi:nodetypes="ccscccsccscccccccccscc" />
</svg>
