<?xml version="1.0" encoding="UTF-8"?>
<svg version="1.1" xmlns="http://www.w3.org/2000/svg" width="64" height="64">
<path d="M0 0 C5.28 0 10.56 0 16 0 C16 0.66 16 1.32 16 2 C17.32 2 18.64 2 20 2 C20 2.66 20 3.32 20 4 C21.32 4 22.64 4 24 4 C24 4.66 24 5.32 24 6 C24.66 6 25.32 6 26 6 C26 6.66 26 7.32 26 8 C26.66 8 27.32 8 28 8 C28 8.66 28 9.32 28 10 C28.66 10 29.32 10 30 10 C30 10.66 30 11.32 30 12 C30.66 12 31.32 12 32 12 C32 12.66 32 13.32 32 14 C32.66 14 33.32 14 34 14 C34 14.66 34 15.32 34 16 C34.66 16 35.32 16 36 16 C36 17.98 36 19.96 36 22 C36.66 22 37.32 22 38 22 C38 27.28 38 32.56 38 38 C37.34 38 36.68 38 36 38 C36 39.98 36 41.96 36 44 C35.34 44 34.68 44 34 44 C34 44.66 34 45.32 34 46 C33.34 46 32.68 46 32 46 C32 46.66 32 47.32 32 48 C32.66 48 33.32 48 34 48 C34 48.66 34 49.32 34 50 C34.66 50 35.32 50 36 50 C36 50.66 36 51.32 36 52 C36.66 52 37.32 52 38 52 C38 52.66 38 53.32 38 54 C38.66 54 39.32 54 40 54 C40 54.66 40 55.32 40 56 C40.66 56 41.32 56 42 56 C42 57.98 42 59.96 42 62 C41.34 62 40.68 62 40 62 C40 62.66 40 63.32 40 64 C38.02 64 36.04 64 34 64 C34 63.34 34 62.68 34 62 C33.34 62 32.68 62 32 62 C32 61.34 32 60.68 32 60 C31.34 60 30.68 60 30 60 C30 59.34 30 58.68 30 58 C29.34 58 28.68 58 28 58 C28 57.34 28 56.68 28 56 C27.34 56 26.68 56 26 56 C26 55.34 26 54.68 26 54 C25.34 54 24.68 54 24 54 C24 54.66 24 55.32 24 56 C23.34 56 22.68 56 22 56 C22 56.66 22 57.32 22 58 C20.68 58 19.36 58 18 58 C18 58.66 18 59.32 18 60 C11.4 60 4.8 60 -2 60 C-2 59.34 -2 58.68 -2 58 C-3.32 58 -4.64 58 -6 58 C-6 57.34 -6 56.68 -6 56 C-7.32 56 -8.64 56 -10 56 C-10 55.34 -10 54.68 -10 54 C-10.66 54 -11.32 54 -12 54 C-12 53.34 -12 52.68 -12 52 C-12.66 52 -13.32 52 -14 52 C-14 51.34 -14 50.68 -14 50 C-14.66 50 -15.32 50 -16 50 C-16 49.34 -16 48.68 -16 48 C-16.66 48 -17.32 48 -18 48 C-18 46.68 -18 45.36 -18 44 C-18.66 44 -19.32 44 -20 44 C-20 42.02 -20 40.04 -20 38 C-20.66 38 -21.32 38 -22 38 C-22 32.72 -22 27.44 -22 22 C-21.34 22 -20.68 22 -20 22 C-20 20.02 -20 18.04 -20 16 C-19.34 16 -18.68 16 -18 16 C-18 15.34 -18 14.68 -18 14 C-17.34 14 -16.68 14 -16 14 C-16 13.34 -16 12.68 -16 12 C-15.34 12 -14.68 12 -14 12 C-14 11.34 -14 10.68 -14 10 C-13.34 10 -12.68 10 -12 10 C-12 9.34 -12 8.68 -12 8 C-11.34 8 -10.68 8 -10 8 C-10 7.34 -10 6.68 -10 6 C-9.34 6 -8.68 6 -8 6 C-8 5.34 -8 4.68 -8 4 C-6.68 4 -5.36 4 -4 4 C-4 3.34 -4 2.68 -4 2 C-2.68 2 -1.36 2 0 2 C0 1.34 0 0.68 0 0 Z " fill="#07A584" transform="translate(22,0)"/>
<path d="M0 0 C0.66 0 1.32 0 2 0 C2 0.66 2 1.32 2 2 C3.98 2 5.96 2 8 2 C8 2.66 8 3.32 8 4 C9.98 4 11.96 4 14 4 C14 2.68 14 1.36 14 0 C14.66 0 15.32 0 16 0 C16 5.28 16 10.56 16 16 C15.34 16 14.68 16 14 16 C14 17.98 14 19.96 14 22 C13.34 22 12.68 22 12 22 C12 22.66 12 23.32 12 24 C11.34 24 10.68 24 10 24 C10 24.66 10 25.32 10 26 C10.66 26 11.32 26 12 26 C12 26.66 12 27.32 12 28 C12.66 28 13.32 28 14 28 C14 28.66 14 29.32 14 30 C14.66 30 15.32 30 16 30 C16 30.66 16 31.32 16 32 C16.66 32 17.32 32 18 32 C18 32.66 18 33.32 18 34 C18.66 34 19.32 34 20 34 C20 35.98 20 37.96 20 40 C19.34 40 18.68 40 18 40 C18 40.66 18 41.32 18 42 C16.02 42 14.04 42 12 42 C12 41.34 12 40.68 12 40 C11.34 40 10.68 40 10 40 C10 39.34 10 38.68 10 38 C9.34 38 8.68 38 8 38 C8 37.34 8 36.68 8 36 C7.34 36 6.68 36 6 36 C6 35.34 6 34.68 6 34 C5.34 34 4.68 34 4 34 C4 33.34 4 32.68 4 32 C3.34 32 2.68 32 2 32 C2 32.66 2 33.32 2 34 C1.34 34 0.68 34 0 34 C0 34.66 0 35.32 0 36 C-1.32 36 -2.64 36 -4 36 C-4 36.66 -4 37.32 -4 38 C-10.6 38 -17.2 38 -24 38 C-24 37.34 -24 36.68 -24 36 C-25.32 36 -26.64 36 -28 36 C-28 35.34 -28 34.68 -28 34 C-29.32 34 -30.64 34 -32 34 C-32 33.34 -32 32.68 -32 32 C-32.66 32 -33.32 32 -34 32 C-34 31.34 -34 30.68 -34 30 C-34.66 30 -35.32 30 -36 30 C-36 29.34 -36 28.68 -36 28 C-36.66 28 -37.32 28 -38 28 C-38 27.34 -38 26.68 -38 26 C-37.34 26 -36.68 26 -36 26 C-36 24.68 -36 23.36 -36 22 C-35.34 22 -34.68 22 -34 22 C-34 19.36 -34 16.72 -34 14 C-32.02 14 -30.04 14 -28 14 C-28 14.66 -28 15.32 -28 16 C-27.34 16 -26.68 16 -26 16 C-26 16.66 -26 17.32 -26 18 C-24.68 18 -23.36 18 -22 18 C-22 18.66 -22 19.32 -22 20 C-21.34 20 -20.68 20 -20 20 C-20 22.64 -20 25.28 -20 28 C-19.34 28 -18.68 28 -18 28 C-18 28.66 -18 29.32 -18 30 C-16.68 30 -15.36 30 -14 30 C-14 30.66 -14 31.32 -14 32 C-13.34 32 -12.68 32 -12 32 C-12 31.34 -12 30.68 -12 30 C-11.34 30 -10.68 30 -10 30 C-10 28.68 -10 27.36 -10 26 C-6.7 26 -3.4 26 0 26 C0 26.66 0 27.32 0 28 C0.66 28 1.32 28 2 28 C2 28.66 2 29.32 2 30 C2.66 30 3.32 30 4 30 C4 29.34 4 28.68 4 28 C4.66 28 5.32 28 6 28 C6 27.34 6 26.68 6 26 C6.66 26 7.32 26 8 26 C8 25.34 8 24.68 8 24 C6.02 24 4.04 24 2 24 C2 23.34 2 22.68 2 22 C2.66 22 3.32 22 4 22 C4 21.34 4 20.68 4 20 C4.66 20 5.32 20 6 20 C6 16.7 6 13.4 6 10 C5.34 10 4.68 10 4 10 C4 9.34 4 8.68 4 8 C3.34 8 2.68 8 2 8 C2 7.34 2 6.68 2 6 C1.34 6 0.68 6 0 6 C0 5.34 0 4.68 0 4 C-3.3 4 -6.6 4 -10 4 C-10 3.34 -10 2.68 -10 2 C-6.7 2 -3.4 2 0 2 C0 1.34 0 0.68 0 0 Z " fill="#4D24CE" transform="translate(44,22)"/>
<path d="M0 0 C5.28 0 10.56 0 16 0 C16 0.66 16 1.32 16 2 C17.32 2 18.64 2 20 2 C20 2.66 20 3.32 20 4 C21.32 4 22.64 4 24 4 C24 4.66 24 5.32 24 6 C24.66 6 25.32 6 26 6 C26 6.66 26 7.32 26 8 C26.66 8 27.32 8 28 8 C28 8.66 28 9.32 28 10 C28.66 10 29.32 10 30 10 C30 10.66 30 11.32 30 12 C30.66 12 31.32 12 32 12 C32 12.66 32 13.32 32 14 C32.66 14 33.32 14 34 14 C34 14.66 34 15.32 34 16 C34.66 16 35.32 16 36 16 C36 19.3 36 22.6 36 26 C34.02 26 32.04 26 30 26 C30 25.34 30 24.68 30 24 C28.02 24 26.04 24 24 24 C24 22.68 24 21.36 24 20 C22.68 20 21.36 20 20 20 C20 19.34 20 18.68 20 18 C20.66 18 21.32 18 22 18 C22 17.34 22 16.68 22 16 C20.02 16 18.04 16 16 16 C16 15.34 16 14.68 16 14 C12.7 14 9.4 14 6 14 C6 14.66 6 15.32 6 16 C4.02 16 2.04 16 0 16 C0 16.66 0 17.32 0 18 C-0.66 18 -1.32 18 -2 18 C-2 18.66 -2 19.32 -2 20 C-1.34 20 -0.68 20 0 20 C0 20.66 0 21.32 0 22 C1.32 22 2.64 22 4 22 C4 22.66 4 23.32 4 24 C0.7 24 -2.6 24 -6 24 C-6 24.66 -6 25.32 -6 26 C-6.66 26 -7.32 26 -8 26 C-8 25.34 -8 24.68 -8 24 C-9.32 24 -10.64 24 -12 24 C-12 22.68 -12 21.36 -12 20 C-11.34 20 -10.68 20 -10 20 C-10 19.34 -10 18.68 -10 18 C-9.34 18 -8.68 18 -8 18 C-8 17.34 -8 16.68 -8 16 C-8.66 16 -9.32 16 -10 16 C-10 15.34 -10 14.68 -10 14 C-9.34 14 -8.68 14 -8 14 C-8 13.34 -8 12.68 -8 12 C-8.66 12 -9.32 12 -10 12 C-10 11.34 -10 10.68 -10 10 C-9.34 10 -8.68 10 -8 10 C-8 9.34 -8 8.68 -8 8 C-5.36 8 -2.72 8 0 8 C0 6.68 0 5.36 0 4 C-1.32 4 -2.64 4 -4 4 C-4 3.34 -4 2.68 -4 2 C-2.68 2 -1.36 2 0 2 C0 1.34 0 0.68 0 0 Z " fill="#09AD8A" transform="translate(22,0)"/>
<path d="M0 0 C0.66 0 1.32 0 2 0 C2 0.66 2 1.32 2 2 C3.98 2 5.96 2 8 2 C8 2.66 8 3.32 8 4 C9.98 4 11.96 4 14 4 C14 2.68 14 1.36 14 0 C14.66 0 15.32 0 16 0 C16 5.28 16 10.56 16 16 C15.34 16 14.68 16 14 16 C14 17.98 14 19.96 14 22 C13.34 22 12.68 22 12 22 C12 22.66 12 23.32 12 24 C11.34 24 10.68 24 10 24 C10 24.66 10 25.32 10 26 C10.66 26 11.32 26 12 26 C12 26.66 12 27.32 12 28 C12.66 28 13.32 28 14 28 C14 28.66 14 29.32 14 30 C14.66 30 15.32 30 16 30 C16 30.66 16 31.32 16 32 C16.66 32 17.32 32 18 32 C18 32.66 18 33.32 18 34 C18.66 34 19.32 34 20 34 C20 35.98 20 37.96 20 40 C19.34 40 18.68 40 18 40 C18 40.66 18 41.32 18 42 C16.02 42 14.04 42 12 42 C12 41.34 12 40.68 12 40 C11.34 40 10.68 40 10 40 C10 39.34 10 38.68 10 38 C9.34 38 8.68 38 8 38 C8 37.34 8 36.68 8 36 C7.34 36 6.68 36 6 36 C6 35.34 6 34.68 6 34 C5.34 34 4.68 34 4 34 C4 32.02 4 30.04 4 28 C4.66 28 5.32 28 6 28 C6 27.34 6 26.68 6 26 C6.66 26 7.32 26 8 26 C8 25.34 8 24.68 8 24 C6.02 24 4.04 24 2 24 C2 23.34 2 22.68 2 22 C2.66 22 3.32 22 4 22 C4 21.34 4 20.68 4 20 C4.66 20 5.32 20 6 20 C6 16.7 6 13.4 6 10 C5.34 10 4.68 10 4 10 C4 9.34 4 8.68 4 8 C3.34 8 2.68 8 2 8 C2 7.34 2 6.68 2 6 C1.34 6 0.68 6 0 6 C0 5.34 0 4.68 0 4 C-3.3 4 -6.6 4 -10 4 C-10 3.34 -10 2.68 -10 2 C-6.7 2 -3.4 2 0 2 C0 1.34 0 0.68 0 0 Z " fill="#4725BA" transform="translate(44,22)"/>
<path d="M0 0 C3.3 0 6.6 0 10 0 C10 0.66 10 1.32 10 2 C10.66 2 11.32 2 12 2 C12 2.66 12 3.32 12 4 C12.66 4 13.32 4 14 4 C14 4.66 14 5.32 14 6 C14.66 6 15.32 6 16 6 C16 9.3 16 12.6 16 16 C15.34 16 14.68 16 14 16 C14 16.66 14 17.32 14 18 C13.34 18 12.68 18 12 18 C12 18.66 12 19.32 12 20 C13.98 20 15.96 20 18 20 C18 20.66 18 21.32 18 22 C17.34 22 16.68 22 16 22 C16 22.66 16 23.32 16 24 C15.34 24 14.68 24 14 24 C14 24.66 14 25.32 14 26 C13.34 26 12.68 26 12 26 C12 25.34 12 24.68 12 24 C11.34 24 10.68 24 10 24 C10 23.34 10 22.68 10 22 C6.7 22 3.4 22 0 22 C0 21.34 0 20.68 0 20 C-0.66 20 -1.32 20 -2 20 C-2 19.34 -2 18.68 -2 18 C-2.66 18 -3.32 18 -4 18 C-4 17.34 -4 16.68 -4 16 C-4.66 16 -5.32 16 -6 16 C-6 12.7 -6 9.4 -6 6 C-5.34 6 -4.68 6 -4 6 C-4 5.34 -4 4.68 -4 4 C-3.34 4 -2.68 4 -2 4 C-2 3.34 -2 2.68 -2 2 C-1.34 2 -0.68 2 0 2 C0 1.34 0 0.68 0 0 Z " fill="#3DC8E7" transform="translate(34,26)"/>
<path d="M0 0 C2.64 0 5.28 0 8 0 C8 1.32 8 2.64 8 4 C5.36 4 2.72 4 0 4 C0 4.66 0 5.32 0 6 C-0.66 6 -1.32 6 -2 6 C-2 6.66 -2 7.32 -2 8 C-1.34 8 -0.68 8 0 8 C0 8.66 0 9.32 0 10 C-0.66 10 -1.32 10 -2 10 C-2 10.66 -2 11.32 -2 12 C-1.34 12 -0.68 12 0 12 C0 12.66 0 13.32 0 14 C-0.66 14 -1.32 14 -2 14 C-2 14.66 -2 15.32 -2 16 C-2.66 16 -3.32 16 -4 16 C-4 17.32 -4 18.64 -4 20 C-2.68 20 -1.36 20 0 20 C0 21.32 0 22.64 0 24 C-0.66 24 -1.32 24 -2 24 C-2 24.66 -2 25.32 -2 26 C-0.68 26 0.64 26 2 26 C2 26.66 2 27.32 2 28 C1.34 28 0.68 28 0 28 C0 28.66 0 29.32 0 30 C-0.66 30 -1.32 30 -2 30 C-2 29.34 -2 28.68 -2 28 C-3.98 28 -5.96 28 -8 28 C-8 27.34 -8 26.68 -8 26 C-8.66 26 -9.32 26 -10 26 C-10 25.34 -10 24.68 -10 24 C-10.66 24 -11.32 24 -12 24 C-12 20.04 -12 16.08 -12 12 C-11.34 12 -10.68 12 -10 12 C-10 11.34 -10 10.68 -10 10 C-9.34 10 -8.68 10 -8 10 C-8 9.34 -8 8.68 -8 8 C-7.34 8 -6.68 8 -6 8 C-6 7.34 -6 6.68 -6 6 C-5.34 6 -4.68 6 -4 6 C-4 5.34 -4 4.68 -4 4 C-3.34 4 -2.68 4 -2 4 C-2 3.34 -2 2.68 -2 2 C-1.34 2 -0.68 2 0 2 C0 1.34 0 0.68 0 0 Z " fill="#E9F5F7" transform="translate(14,4)"/>
<path d="M0 0 C3.3 0 6.6 0 10 0 C10 0.66 10 1.32 10 2 C11.98 2 13.96 2 16 2 C16 2.66 16 3.32 16 4 C15.34 4 14.68 4 14 4 C14 4.66 14 5.32 14 6 C15.32 6 16.64 6 18 6 C18 6.66 18 7.32 18 8 C17.34 8 16.68 8 16 8 C16 8.66 16 9.32 16 10 C12.7 10 9.4 10 6 10 C6 11.32 6 12.64 6 14 C5.34 14 4.68 14 4 14 C4 13.34 4 12.68 4 12 C2.02 12 0.04 12 -2 12 C-2 10.68 -2 9.36 -2 8 C-3.32 8 -4.64 8 -6 8 C-6 7.34 -6 6.68 -6 6 C-6.66 6 -7.32 6 -8 6 C-8 5.34 -8 4.68 -8 4 C-7.34 4 -6.68 4 -6 4 C-6 3.34 -6 2.68 -6 2 C-4.02 2 -2.04 2 0 2 C0 1.34 0 0.68 0 0 Z " fill="#0F7885" transform="translate(28,14)"/>
<path d="M0 0 C1.98 0 3.96 0 6 0 C6 0.66 6 1.32 6 2 C6.66 2 7.32 2 8 2 C8 2.66 8 3.32 8 4 C8.66 4 9.32 4 10 4 C10 4.66 10 5.32 10 6 C10.66 6 11.32 6 12 6 C12 6.66 12 7.32 12 8 C12.66 8 13.32 8 14 8 C14 9.98 14 11.96 14 14 C13.34 14 12.68 14 12 14 C12 14.66 12 15.32 12 16 C10.02 16 8.04 16 6 16 C6 15.34 6 14.68 6 14 C5.34 14 4.68 14 4 14 C4 13.34 4 12.68 4 12 C3.34 12 2.68 12 2 12 C2 11.34 2 10.68 2 10 C1.34 10 0.68 10 0 10 C0 9.34 0 8.68 0 8 C-0.66 8 -1.32 8 -2 8 C-2 6.02 -2 4.04 -2 2 C-1.34 2 -0.68 2 0 2 C0 1.34 0 0.68 0 0 Z " fill="#9B0EA1" transform="translate(50,48)"/>
<path d="M0 0 C3.3 0 6.6 0 10 0 C10 0.66 10 1.32 10 2 C10.66 2 11.32 2 12 2 C12 2.66 12 3.32 12 4 C12.66 4 13.32 4 14 4 C14 4.66 14 5.32 14 6 C13.34 6 12.68 6 12 6 C12 6.66 12 7.32 12 8 C11.34 8 10.68 8 10 8 C10 8.66 10 9.32 10 10 C3.4 10 -3.2 10 -10 10 C-10 9.34 -10 8.68 -10 8 C-9.34 8 -8.68 8 -8 8 C-8 7.34 -8 6.68 -8 6 C-7.34 6 -6.68 6 -6 6 C-6 5.34 -6 4.68 -6 4 C-5.34 4 -4.68 4 -4 4 C-4 4.66 -4 5.32 -4 6 C-3.34 6 -2.68 6 -2 6 C-2 5.34 -2 4.68 -2 4 C-1.34 4 -0.68 4 0 4 C0 2.68 0 1.36 0 0 Z " fill="#38307D" transform="translate(34,48)"/>
<path d="M0 0 C2.64 0 5.28 0 8 0 C8 0.66 8 1.32 8 2 C7.34 2 6.68 2 6 2 C6 2.66 6 3.32 6 4 C5.34 4 4.68 4 4 4 C4 4.66 4 5.32 4 6 C3.34 6 2.68 6 2 6 C2 6.66 2 7.32 2 8 C2.66 8 3.32 8 4 8 C4 8.66 4 9.32 4 10 C3.34 10 2.68 10 2 10 C2 10.66 2 11.32 2 12 C1.34 12 0.68 12 0 12 C0 12.66 0 13.32 0 14 C0.66 14 1.32 14 2 14 C2 14.66 2 15.32 2 16 C2.66 16 3.32 16 4 16 C4 16.66 4 17.32 4 18 C3.34 18 2.68 18 2 18 C2 18.66 2 19.32 2 20 C0.68 20 -0.64 20 -2 20 C-2 19.34 -2 18.68 -2 18 C-2.66 18 -3.32 18 -4 18 C-4 17.34 -4 16.68 -4 16 C-4.66 16 -5.32 16 -6 16 C-6 12.7 -6 9.4 -6 6 C-5.34 6 -4.68 6 -4 6 C-4 5.34 -4 4.68 -4 4 C-3.34 4 -2.68 4 -2 4 C-2 3.34 -2 2.68 -2 2 C-1.34 2 -0.68 2 0 2 C0 1.34 0 0.68 0 0 Z " fill="#61ECF3" transform="translate(34,26)"/>
<path d="M0 0 C1.32 0 2.64 0 4 0 C4 5.28 4 10.56 4 16 C3.34 16 2.68 16 2 16 C2 16.66 2 17.32 2 18 C1.34 18 0.68 18 0 18 C0 18.66 0 19.32 0 20 C-0.66 20 -1.32 20 -2 20 C-2 19.34 -2 18.68 -2 18 C-3.98 18 -5.96 18 -8 18 C-8 17.34 -8 16.68 -8 16 C-7.34 16 -6.68 16 -6 16 C-6 15.34 -6 14.68 -6 14 C-5.34 14 -4.68 14 -4 14 C-4 10.7 -4 7.4 -4 4 C-3.34 4 -2.68 4 -2 4 C-2 6.64 -2 9.28 -2 12 C-1.34 12 -0.68 12 0 12 C0 11.34 0 10.68 0 10 C0.66 10 1.32 10 2 10 C2 8.02 2 6.04 2 4 C1.34 4 0.68 4 0 4 C0 2.68 0 1.36 0 0 Z " fill="#423486" transform="translate(54,28)"/>
<path d="M0 0 C0.66 0 1.32 0 2 0 C2 1.98 2 3.96 2 6 C2.66 6 3.32 6 4 6 C4 6.66 4 7.32 4 8 C4.66 8 5.32 8 6 8 C6 8.66 6 9.32 6 10 C7.32 10 8.64 10 10 10 C10 10.66 10 11.32 10 12 C9.34 12 8.68 12 8 12 C8 13.98 8 15.96 8 18 C6.68 18 5.36 18 4 18 C4 19.32 4 20.64 4 22 C3.34 22 2.68 22 2 22 C2 20.02 2 18.04 2 16 C1.34 16 0.68 16 0 16 C0 10.72 0 5.44 0 0 Z " fill="#5D6BD7" transform="translate(0,22)"/>
<path d="M0 0 C0.66 0 1.32 0 2 0 C2 1.32 2 2.64 2 4 C1.34 4 0.68 4 0 4 C0 4.66 0 5.32 0 6 C-0.66 6 -1.32 6 -2 6 C-2 6.66 -2 7.32 -2 8 C-0.02 8 1.96 8 4 8 C4 8.66 4 9.32 4 10 C3.34 10 2.68 10 2 10 C2 10.66 2 11.32 2 12 C1.34 12 0.68 12 0 12 C0 12.66 0 13.32 0 14 C-0.66 14 -1.32 14 -2 14 C-2 13.34 -2 12.68 -2 12 C-2.66 12 -3.32 12 -4 12 C-4 11.34 -4 10.68 -4 10 C-7.3 10 -10.6 10 -14 10 C-14 9.34 -14 8.68 -14 8 C-13.34 8 -12.68 8 -12 8 C-12 7.34 -12 6.68 -12 6 C-10.68 6 -9.36 6 -8 6 C-8 6.66 -8 7.32 -8 8 C-7.34 8 -6.68 8 -6 8 C-6 7.34 -6 6.68 -6 6 C-5.34 6 -4.68 6 -4 6 C-4 5.34 -4 4.68 -4 4 C-3.34 4 -2.68 4 -2 4 C-2 3.34 -2 2.68 -2 2 C-1.34 2 -0.68 2 0 2 C0 1.34 0 0.68 0 0 Z " fill="#55ADDA" transform="translate(48,38)"/>
<path d="M0 0 C0.66 0 1.32 0 2 0 C2 0.66 2 1.32 2 2 C2.66 2 3.32 2 4 2 C4 2.66 4 3.32 4 4 C4.66 4 5.32 4 6 4 C6 4.66 6 5.32 6 6 C6.66 6 7.32 6 8 6 C8 9.3 8 12.6 8 16 C6.02 16 4.04 16 2 16 C2 15.34 2 14.68 2 14 C2.66 14 3.32 14 4 14 C4 12.68 4 11.36 4 10 C3.34 10 2.68 10 2 10 C2 8.02 2 6.04 2 4 C1.34 4 0.68 4 0 4 C0 2.68 0 1.36 0 0 Z " fill="#167687" transform="translate(50,10)"/>
<path d="M0 0 C2.64 0 5.28 0 8 0 C8 0.66 8 1.32 8 2 C8.66 2 9.32 2 10 2 C10 2.66 10 3.32 10 4 C10.66 4 11.32 4 12 4 C12 4.66 12 5.32 12 6 C10.68 6 9.36 6 8 6 C8 6.66 8 7.32 8 8 C6.68 8 5.36 8 4 8 C4 7.34 4 6.68 4 6 C2.68 6 1.36 6 0 6 C0 5.34 0 4.68 0 4 C-0.66 4 -1.32 4 -2 4 C-2 3.34 -2 2.68 -2 2 C-1.34 2 -0.68 2 0 2 C0 1.34 0 0.68 0 0 Z " fill="#462CC6" transform="translate(22,16)"/>
<path d="M0 0 C0.66 0 1.32 0 2 0 C2 1.32 2 2.64 2 4 C1.34 4 0.68 4 0 4 C0 6.64 0 9.28 0 12 C-0.66 12 -1.32 12 -2 12 C-2 13.32 -2 14.64 -2 16 C-3.32 16 -4.64 16 -6 16 C-6 13.36 -6 10.72 -6 8 C-4.68 8 -3.36 8 -2 8 C-2 6.02 -2 4.04 -2 2 C-1.34 2 -0.68 2 0 2 C0 1.34 0 0.68 0 0 Z " fill="#1B7A9B" transform="translate(10,32)"/>
<path d="M0 0 C0.66 0 1.32 0 2 0 C2 0.66 2 1.32 2 2 C2.66 2 3.32 2 4 2 C4 2.66 4 3.32 4 4 C4.66 4 5.32 4 6 4 C6 4.66 6 5.32 6 6 C6.66 6 7.32 6 8 6 C8 7.98 8 9.96 8 12 C6.68 12 5.36 12 4 12 C4 11.34 4 10.68 4 10 C3.34 10 2.68 10 2 10 C2 9.34 2 8.68 2 8 C1.34 8 0.68 8 0 8 C0 7.34 0 6.68 0 6 C0.66 6 1.32 6 2 6 C2 5.34 2 4.68 2 4 C0.68 4 -0.64 4 -2 4 C-2 3.34 -2 2.68 -2 2 C-1.34 2 -0.68 2 0 2 C0 1.34 0 0.68 0 0 Z " fill="#4EBCE4" transform="translate(42,26)"/>
<path d="M0 0 C0.66 0 1.32 0 2 0 C2 1.32 2 2.64 2 4 C3.32 4 4.64 4 6 4 C6 5.32 6 6.64 6 8 C5.34 8 4.68 8 4 8 C4 8.66 4 9.32 4 10 C5.32 10 6.64 10 8 10 C8 10.66 8 11.32 8 12 C7.34 12 6.68 12 6 12 C6 12.66 6 13.32 6 14 C5.34 14 4.68 14 4 14 C4 13.34 4 12.68 4 12 C2.02 12 0.04 12 -2 12 C-2 11.34 -2 10.68 -2 10 C-1.34 10 -0.68 10 0 10 C0 9.34 0 8.68 0 8 C0.66 8 1.32 8 2 8 C2 7.34 2 6.68 2 6 C1.34 6 0.68 6 0 6 C0 4.02 0 2.04 0 0 Z " fill="#BBE0E9" transform="translate(8,20)"/>
<path d="M0 0 C5.28 0 10.56 0 16 0 C16 0.66 16 1.32 16 2 C11.38 2 6.76 2 2 2 C2 2.66 2 3.32 2 4 C2.66 4 3.32 4 4 4 C4 5.32 4 6.64 4 8 C2.68 8 1.36 8 0 8 C0 6.68 0 5.36 0 4 C-1.32 4 -2.64 4 -4 4 C-4 3.34 -4 2.68 -4 2 C-2.68 2 -1.36 2 0 2 C0 1.34 0 0.68 0 0 Z " fill="#5136CA" transform="translate(22,0)"/>
<path d="M0 0 C2.64 0 5.28 0 8 0 C8 1.32 8 2.64 8 4 C5.36 4 2.72 4 0 4 C0 4.66 0 5.32 0 6 C-0.66 6 -1.32 6 -2 6 C-2 6.66 -2 7.32 -2 8 C-3.32 8 -4.64 8 -6 8 C-6 7.34 -6 6.68 -6 6 C-5.34 6 -4.68 6 -4 6 C-4 5.34 -4 4.68 -4 4 C-3.34 4 -2.68 4 -2 4 C-2 3.34 -2 2.68 -2 2 C-1.34 2 -0.68 2 0 2 C0 1.34 0 0.68 0 0 Z " fill="#A89ADD" transform="translate(14,4)"/>
<path d="M0 0 C0.66 0 1.32 0 2 0 C2 0.66 2 1.32 2 2 C2.66 2 3.32 2 4 2 C4 1.34 4 0.68 4 0 C6.64 0 9.28 0 12 0 C12 0.66 12 1.32 12 2 C10.68 2 9.36 2 8 2 C8 2.66 8 3.32 8 4 C5.36 4 2.72 4 0 4 C0 4.66 0 5.32 0 6 C-1.32 6 -2.64 6 -4 6 C-4 5.34 -4 4.68 -4 4 C-3.34 4 -2.68 4 -2 4 C-2 3.34 -2 2.68 -2 2 C-1.34 2 -0.68 2 0 2 C0 1.34 0 0.68 0 0 Z " fill="#3C3F74" transform="translate(28,52)"/>
<path d="M0 0 C1.32 0 2.64 0 4 0 C4 0.66 4 1.32 4 2 C3.34 2 2.68 2 2 2 C2 4.64 2 7.28 2 10 C1.34 10 0.68 10 0 10 C0 10.66 0 11.32 0 12 C-1.32 12 -2.64 12 -4 12 C-4 11.34 -4 10.68 -4 10 C-3.34 10 -2.68 10 -2 10 C-2 9.34 -2 8.68 -2 8 C-1.34 8 -0.68 8 0 8 C0 7.34 0 6.68 0 6 C-1.32 6 -2.64 6 -4 6 C-4 5.34 -4 4.68 -4 4 C-3.34 4 -2.68 4 -2 4 C-2 3.34 -2 2.68 -2 2 C-1.34 2 -0.68 2 0 2 C0 1.34 0 0.68 0 0 Z " fill="#23997A" transform="translate(16,24)"/>
<path d="M0 0 C1.98 0 3.96 0 6 0 C6 0.66 6 1.32 6 2 C7.32 2 8.64 2 10 2 C10 2.66 10 3.32 10 4 C6.7 4 3.4 4 0 4 C0 4.66 0 5.32 0 6 C-0.66 6 -1.32 6 -2 6 C-2 4.68 -2 3.36 -2 2 C-1.34 2 -0.68 2 0 2 C0 1.34 0 0.68 0 0 Z " fill="#097390" transform="translate(16,20)"/>
<path d="M0 0 C0.66 0 1.32 0 2 0 C2 0.66 2 1.32 2 2 C3.32 2 4.64 2 6 2 C6 2.66 6 3.32 6 4 C4.68 4 3.36 4 2 4 C2 4.66 2 5.32 2 6 C1.34 6 0.68 6 0 6 C0 6.66 0 7.32 0 8 C-1.32 8 -2.64 8 -4 8 C-4 6.68 -4 5.36 -4 4 C-3.34 4 -2.68 4 -2 4 C-2 3.34 -2 2.68 -2 2 C-1.34 2 -0.68 2 0 2 C0 1.34 0 0.68 0 0 Z " fill="#2A9A7B" transform="translate(14,16)"/>
<path d="M0 0 C0.66 0 1.32 0 2 0 C2 1.32 2 2.64 2 4 C1.34 4 0.68 4 0 4 C0 5.98 0 7.96 0 10 C-1.32 10 -2.64 10 -4 10 C-4 8.02 -4 6.04 -4 4 C-3.34 4 -2.68 4 -2 4 C-2 3.34 -2 2.68 -2 2 C-1.34 2 -0.68 2 0 2 C0 1.34 0 0.68 0 0 Z " fill="#897ADA" transform="translate(6,12)"/>
<path d="M0 0 C1.32 0 2.64 0 4 0 C4 0.66 4 1.32 4 2 C4.66 2 5.32 2 6 2 C6 2.66 6 3.32 6 4 C6.66 4 7.32 4 8 4 C8 4.66 8 5.32 8 6 C8.66 6 9.32 6 10 6 C10 6.66 10 7.32 10 8 C8.68 8 7.36 8 6 8 C6 7.34 6 6.68 6 6 C5.34 6 4.68 6 4 6 C4 5.34 4 4.68 4 4 C3.34 4 2.68 4 2 4 C2 3.34 2 2.68 2 2 C1.34 2 0.68 2 0 2 C0 1.34 0 0.68 0 0 Z " fill="#D8649A" transform="translate(50,52)"/>
<path d="M0 0 C1.98 0 3.96 0 6 0 C6 0.66 6 1.32 6 2 C5.34 2 4.68 2 4 2 C4 2.66 4 3.32 4 4 C3.34 4 2.68 4 2 4 C2 4.66 2 5.32 2 6 C1.34 6 0.68 6 0 6 C0 5.34 0 4.68 0 4 C-0.66 4 -1.32 4 -2 4 C-2 3.34 -2 2.68 -2 2 C-1.34 2 -0.68 2 0 2 C0 1.34 0 0.68 0 0 Z " fill="#C8C7C8" transform="translate(46,46)"/>
<path d="M0 0 C0.66 0 1.32 0 2 0 C2 1.32 2 2.64 2 4 C1.34 4 0.68 4 0 4 C0 6.64 0 9.28 0 12 C-0.66 12 -1.32 12 -2 12 C-2 8.7 -2 5.4 -2 2 C-1.34 2 -0.68 2 0 2 C0 1.34 0 0.68 0 0 Z " fill="#325D9F" transform="translate(10,32)"/>
<path d="M0 0 C0.66 0 1.32 0 2 0 C2 0.66 2 1.32 2 2 C3.98 2 5.96 2 8 2 C8 2.66 8 3.32 8 4 C4.7 4 1.4 4 -2 4 C-2 3.34 -2 2.68 -2 2 C-1.34 2 -0.68 2 0 2 C0 1.34 0 0.68 0 0 Z " fill="#4D23CF" transform="translate(36,14)"/>
<path d="M0 0 C0.66 0 1.32 0 2 0 C2 0.66 2 1.32 2 2 C2.66 2 3.32 2 4 2 C4 2.66 4 3.32 4 4 C3.34 4 2.68 4 2 4 C2 4.66 2 5.32 2 6 C1.34 6 0.68 6 0 6 C0 5.34 0 4.68 0 4 C-0.66 4 -1.32 4 -2 4 C-2 3.34 -2 2.68 -2 2 C-1.34 2 -0.68 2 0 2 C0 1.34 0 0.68 0 0 Z " fill="#BAFFFF" transform="translate(34,32)"/>
<path d="M0 0 C2.64 0 5.28 0 8 0 C8 1.32 8 2.64 8 4 C7.34 4 6.68 4 6 4 C6 3.34 6 2.68 6 2 C4.02 2 2.04 2 0 2 C0 1.34 0 0.68 0 0 Z " fill="#0A8879" transform="translate(26,24)"/>
<path d="M0 0 C0.66 0 1.32 0 2 0 C2 0.66 2 1.32 2 2 C2.66 2 3.32 2 4 2 C4 3.98 4 5.96 4 8 C3.34 8 2.68 8 2 8 C2 6.68 2 5.36 2 4 C1.34 4 0.68 4 0 4 C0 2.68 0 1.36 0 0 Z " fill="#4C32B9" transform="translate(54,14)"/>
<path d="M0 0 C1.32 0 2.64 0 4 0 C4 0.66 4 1.32 4 2 C4.66 2 5.32 2 6 2 C6 2.66 6 3.32 6 4 C4.02 4 2.04 4 0 4 C0 2.68 0 1.36 0 0 Z " fill="#2E4FAC" transform="translate(42,4)"/>
</svg>
