<?xml version="1.0" encoding="UTF-8"?>
<svg version="1.1" xmlns="http://www.w3.org/2000/svg" width="64" height="64">
<path d="M0 0 C17.16 0 34.32 0 52 0 C52 0.66 52 1.32 52 2 C52.66 2 53.32 2 54 2 C54 2.66 54 3.32 54 4 C54.66 4 55.32 4 56 4 C56 4.66 56 5.32 56 6 C56.66 6 57.32 6 58 6 C58 16.56 58 27.12 58 38 C57.34 38 56.68 38 56 38 C56 38.66 56 39.32 56 40 C55.34 40 54.68 40 54 40 C54 40.66 54 41.32 54 42 C53.34 42 52.68 42 52 42 C52 42.66 52 43.32 52 44 C34.84 44 17.68 44 0 44 C0 43.34 0 42.68 0 42 C-0.66 42 -1.32 42 -2 42 C-2 41.34 -2 40.68 -2 40 C-2.66 40 -3.32 40 -4 40 C-4 39.34 -4 38.68 -4 38 C-4.66 38 -5.32 38 -6 38 C-6 27.44 -6 16.88 -6 6 C-5.34 6 -4.68 6 -4 6 C-4 5.34 -4 4.68 -4 4 C-3.34 4 -2.68 4 -2 4 C-2 3.34 -2 2.68 -2 2 C-1.34 2 -0.68 2 0 2 C0 1.34 0 0.68 0 0 Z " fill="#D90992" transform="translate(6,10)"/>
<path d="M0 0 C0.66 0 1.32 0 2 0 C2 0.66 2 1.32 2 2 C2.66 2 3.32 2 4 2 C4 2.66 4 3.32 4 4 C4.66 4 5.32 4 6 4 C6 14.56 6 25.12 6 36 C5.34 36 4.68 36 4 36 C4 36.66 4 37.32 4 38 C3.34 38 2.68 38 2 38 C2 38.66 2 39.32 2 40 C1.34 40 0.68 40 0 40 C0 40.66 0 41.32 0 42 C-17.16 42 -34.32 42 -52 42 C-52 41.34 -52 40.68 -52 40 C-52.66 40 -53.32 40 -54 40 C-54 39.34 -54 38.68 -54 38 C-54.66 38 -55.32 38 -56 38 C-56 37.34 -56 36.68 -56 36 C-54.68 36 -53.36 36 -52 36 C-52 35.34 -52 34.68 -52 34 C-51.34 34 -50.68 34 -50 34 C-50 34.66 -50 35.32 -50 36 C-49.34 36 -48.68 36 -48 36 C-48 35.34 -48 34.68 -48 34 C-47.34 34 -46.68 34 -46 34 C-46 34.66 -46 35.32 -46 36 C-45.34 36 -44.68 36 -44 36 C-44 35.34 -44 34.68 -44 34 C-43.34 34 -42.68 34 -42 34 C-42 34.66 -42 35.32 -42 36 C-41.34 36 -40.68 36 -40 36 C-40 35.34 -40 34.68 -40 34 C-39.34 34 -38.68 34 -38 34 C-38 34.66 -38 35.32 -38 36 C-37.34 36 -36.68 36 -36 36 C-36 35.34 -36 34.68 -36 34 C-35.34 34 -34.68 34 -34 34 C-34 34.66 -34 35.32 -34 36 C-33.34 36 -32.68 36 -32 36 C-32 35.34 -32 34.68 -32 34 C-31.34 34 -30.68 34 -30 34 C-30 34.66 -30 35.32 -30 36 C-29.34 36 -28.68 36 -28 36 C-28 35.34 -28 34.68 -28 34 C-27.34 34 -26.68 34 -26 34 C-26 34.66 -26 35.32 -26 36 C-25.34 36 -24.68 36 -24 36 C-24 35.34 -24 34.68 -24 34 C-23.34 34 -22.68 34 -22 34 C-22 34.66 -22 35.32 -22 36 C-21.34 36 -20.68 36 -20 36 C-20 35.34 -20 34.68 -20 34 C-19.34 34 -18.68 34 -18 34 C-18 34.66 -18 35.32 -18 36 C-17.34 36 -16.68 36 -16 36 C-16 35.34 -16 34.68 -16 34 C-15.34 34 -14.68 34 -14 34 C-14 34.66 -14 35.32 -14 36 C-13.34 36 -12.68 36 -12 36 C-12 35.34 -12 34.68 -12 34 C-11.34 34 -10.68 34 -10 34 C-10 34.66 -10 35.32 -10 36 C-9.34 36 -8.68 36 -8 36 C-8 35.34 -8 34.68 -8 34 C-7.34 34 -6.68 34 -6 34 C-6 34.66 -6 35.32 -6 36 C-5.34 36 -4.68 36 -4 36 C-4 35.34 -4 34.68 -4 34 C-3.34 34 -2.68 34 -2 34 C-2 33.34 -2 32.68 -2 32 C-1.34 32 -0.68 32 0 32 C0 31.34 0 30.68 0 30 C-0.66 30 -1.32 30 -2 30 C-2 29.34 -2 28.68 -2 28 C-1.34 28 -0.68 28 0 28 C0 27.34 0 26.68 0 26 C-0.66 26 -1.32 26 -2 26 C-2 25.34 -2 24.68 -2 24 C-1.34 24 -0.68 24 0 24 C0 23.34 0 22.68 0 22 C-0.66 22 -1.32 22 -2 22 C-2 21.34 -2 20.68 -2 20 C-1.34 20 -0.68 20 0 20 C0 19.34 0 18.68 0 18 C-0.66 18 -1.32 18 -2 18 C-2 17.34 -2 16.68 -2 16 C-1.34 16 -0.68 16 0 16 C0 15.34 0 14.68 0 14 C-0.66 14 -1.32 14 -2 14 C-2 13.34 -2 12.68 -2 12 C-1.34 12 -0.68 12 0 12 C0 11.34 0 10.68 0 10 C-0.66 10 -1.32 10 -2 10 C-2 9.34 -2 8.68 -2 8 C-1.34 8 -0.68 8 0 8 C0 7.34 0 6.68 0 6 C-0.66 6 -1.32 6 -2 6 C-2 5.34 -2 4.68 -2 4 C-1.34 4 -0.68 4 0 4 C0 2.68 0 1.36 0 0 Z " fill="#852396" transform="translate(58,12)"/>
<path d="M0 0 C9.9 0 19.8 0 30 0 C30 0.66 30 1.32 30 2 C26.7 2 23.4 2 20 2 C20 2.66 20 3.32 20 4 C19.34 4 18.68 4 18 4 C18 3.34 18 2.68 18 2 C17.34 2 16.68 2 16 2 C16 2.66 16 3.32 16 4 C15.34 4 14.68 4 14 4 C14 4.66 14 5.32 14 6 C13.34 6 12.68 6 12 6 C12 6.66 12 7.32 12 8 C11.34 8 10.68 8 10 8 C10 8.66 10 9.32 10 10 C10.66 10 11.32 10 12 10 C12 10.66 12 11.32 12 12 C11.34 12 10.68 12 10 12 C10 12.66 10 13.32 10 14 C9.34 14 8.68 14 8 14 C8 13.34 8 12.68 8 12 C7.34 12 6.68 12 6 12 C6 12.66 6 13.32 6 14 C5.34 14 4.68 14 4 14 C4 14.66 4 15.32 4 16 C4.66 16 5.32 16 6 16 C6 16.66 6 17.32 6 18 C5.34 18 4.68 18 4 18 C4 18.66 4 19.32 4 20 C3.34 20 2.68 20 2 20 C2 19.34 2 18.68 2 18 C1.34 18 0.68 18 0 18 C0 21.3 0 24.6 0 28 C-0.66 28 -1.32 28 -2 28 C-2 19.42 -2 10.84 -2 2 C-1.34 2 -0.68 2 0 2 C0 1.34 0 0.68 0 0 Z " fill="#FB54D8" transform="translate(6,14)"/>
<path d="M0 0 C1.32 0 2.64 0 4 0 C4 0.66 4 1.32 4 2 C5.32 2 6.64 2 8 2 C8 2.66 8 3.32 8 4 C9.32 4 10.64 4 12 4 C12 4.66 12 5.32 12 6 C13.32 6 14.64 6 16 6 C16 6.66 16 7.32 16 8 C16.66 8 17.32 8 18 8 C18 8.66 18 9.32 18 10 C17.34 10 16.68 10 16 10 C16 10.66 16 11.32 16 12 C14.68 12 13.36 12 12 12 C12 12.66 12 13.32 12 14 C10.68 14 9.36 14 8 14 C8 14.66 8 15.32 8 16 C6.68 16 5.36 16 4 16 C4 16.66 4 17.32 4 18 C2.68 18 1.36 18 0 18 C0 12.06 0 6.12 0 0 Z " fill="#F2EEE3" transform="translate(24,20)"/>
<path d="M0 0 C1.32 0 2.64 0 4 0 C4 4.62 4 9.24 4 14 C3.34 14 2.68 14 2 14 C2 13.34 2 12.68 2 12 C1.34 12 0.68 12 0 12 C0 12.66 0 13.32 0 14 C-0.66 14 -1.32 14 -2 14 C-2 13.34 -2 12.68 -2 12 C-2.66 12 -3.32 12 -4 12 C-4 12.66 -4 13.32 -4 14 C-4.66 14 -5.32 14 -6 14 C-6 12.68 -6 11.36 -6 10 C-6.66 10 -7.32 10 -8 10 C-8 9.34 -8 8.68 -8 8 C-7.34 8 -6.68 8 -6 8 C-6 7.34 -6 6.68 -6 6 C-5.34 6 -4.68 6 -4 6 C-4 6.66 -4 7.32 -4 8 C-3.34 8 -2.68 8 -2 8 C-2 7.34 -2 6.68 -2 6 C-1.34 6 -0.68 6 0 6 C0 5.34 0 4.68 0 4 C-0.66 4 -1.32 4 -2 4 C-2 3.34 -2 2.68 -2 2 C-1.34 2 -0.68 2 0 2 C0 1.34 0 0.68 0 0 Z " fill="#F92DB4" transform="translate(18,20)"/>
<path d="M0 0 C1.32 0 2.64 0 4 0 C4 0.66 4 1.32 4 2 C5.32 2 6.64 2 8 2 C8 2.66 8 3.32 8 4 C8.66 4 9.32 4 10 4 C10 4.66 10 5.32 10 6 C9.34 6 8.68 6 8 6 C8 6.66 8 7.32 8 8 C7.34 8 6.68 8 6 8 C6 8.66 6 9.32 6 10 C5.34 10 4.68 10 4 10 C4 10.66 4 11.32 4 12 C3.34 12 2.68 12 2 12 C2 12.66 2 13.32 2 14 C1.34 14 0.68 14 0 14 C0 9.38 0 4.76 0 0 Z " fill="#FFFFFF" transform="translate(24,20)"/>
<path d="M0 0 C0.66 0 1.32 0 2 0 C2 0.66 2 1.32 2 2 C3.32 2 4.64 2 6 2 C6 2.66 6 3.32 6 4 C4.68 4 3.36 4 2 4 C2 9.94 2 15.88 2 22 C3.32 22 4.64 22 6 22 C6 22.66 6 23.32 6 24 C4.02 24 2.04 24 0 24 C0 17.4 0 10.8 0 4 C-0.66 4 -1.32 4 -2 4 C-2 3.34 -2 2.68 -2 2 C-1.34 2 -0.68 2 0 2 C0 1.34 0 0.68 0 0 Z " fill="#A91F7E" transform="translate(22,16)"/>
<path d="M0 0 C5.94 0 11.88 0 18 0 C18 0.66 18 1.32 18 2 C14.7 2 11.4 2 8 2 C8 2.66 8 3.32 8 4 C7.34 4 6.68 4 6 4 C6 3.34 6 2.68 6 2 C5.34 2 4.68 2 4 2 C4 2.66 4 3.32 4 4 C2.68 4 1.36 4 0 4 C0 2.68 0 1.36 0 0 Z " fill="#FB4DD3" transform="translate(18,14)"/>
<path d="M0 0 C2.64 0 5.28 0 8 0 C8 0.66 8 1.32 8 2 C6.68 2 5.36 2 4 2 C4 2.66 4 3.32 4 4 C3.34 4 2.68 4 2 4 C2 4.66 2 5.32 2 6 C1.34 6 0.68 6 0 6 C0 6.66 0 7.32 0 8 C-0.66 8 -1.32 8 -2 8 C-2 6.02 -2 4.04 -2 2 C-1.34 2 -0.68 2 0 2 C0 1.34 0 0.68 0 0 Z " fill="#FFA5FF" transform="translate(6,14)"/>
<path d="M0 0 C1.32 0 2.64 0 4 0 C4 2.64 4 5.28 4 8 C3.34 8 2.68 8 2 8 C2 7.34 2 6.68 2 6 C1.34 6 0.68 6 0 6 C0 5.34 0 4.68 0 4 C-0.66 4 -1.32 4 -2 4 C-2 3.34 -2 2.68 -2 2 C-1.34 2 -0.68 2 0 2 C0 1.34 0 0.68 0 0 Z " fill="#F81FA8" transform="translate(18,20)"/>
</svg>
