<?xml version="1.0" encoding="UTF-8" standalone="no"?>
<!-- Created with Inkscape (http://www.inkscape.org/) -->

<svg
   width="256mm"
   height="256mm"
   viewBox="0 0 256 256"
   version="1.1"
   id="svg1"
   inkscape:version="1.3.2 (091e20ef0f, 2023-11-25)"
   xml:space="preserve"
   sodipodi:docname="folder-amule-symbolic.svg"
   xmlns:inkscape="http://www.inkscape.org/namespaces/inkscape"
   xmlns:sodipodi="http://sodipodi.sourceforge.net/DTD/sodipodi-0.dtd"
   xmlns:xlink="http://www.w3.org/1999/xlink"
   xmlns="http://www.w3.org/2000/svg"
   xmlns:svg="http://www.w3.org/2000/svg"
   xmlns:rdf="http://www.w3.org/1999/02/22-rdf-syntax-ns#"
   xmlns:cc="http://creativecommons.org/ns#"
   xmlns:dc="http://purl.org/dc/elements/1.1/"><defs
     id="defs1"><linearGradient
       id="linearGradient17"
       inkscape:collect="always"><stop
         style="stop-color:#f0d456;stop-opacity:1;"
         offset="0"
         id="stop17" /><stop
         style="stop-color:#fff7bf;stop-opacity:1;"
         offset="1"
         id="stop18" /></linearGradient><linearGradient
       id="linearGradient14"
       inkscape:collect="always"><stop
         style="stop-color:#ad8222;stop-opacity:0.67121953;"
         offset="0"
         id="stop13" /><stop
         style="stop-color:#ffd21f;stop-opacity:0.46439025;"
         offset="1"
         id="stop14" /></linearGradient><linearGradient
       id="linearGradient10"
       inkscape:collect="always"><stop
         style="stop-color:#000000;stop-opacity:1;"
         offset="0"
         id="stop7" /><stop
         style="stop-color:#333333;stop-opacity:0;"
         offset="1"
         id="stop10" /></linearGradient><linearGradient
       id="linearGradient8"
       inkscape:collect="always"><stop
         style="stop-color:#0041c9;stop-opacity:1;"
         offset="0"
         id="stop8" /><stop
         style="stop-color:#0041c9;stop-opacity:0;"
         offset="1"
         id="stop9" /></linearGradient><linearGradient
       id="linearGradient4"
       inkscape:collect="always"><stop
         style="stop-color:#545454;stop-opacity:1;"
         offset="0"
         id="stop5" /><stop
         style="stop-color:#545454;stop-opacity:0;"
         offset="1"
         id="stop6" /></linearGradient><linearGradient
       id="linearGradient2"
       inkscape:collect="always"><stop
         style="stop-color:#bd9d3e;stop-opacity:0.65365851;"
         offset="0"
         id="stop3" /><stop
         style="stop-color:#ffe067;stop-opacity:0.73756099;"
         offset="1"
         id="stop4" /></linearGradient><linearGradient
       id="linearGradient1"
       inkscape:collect="always"><stop
         style="stop-color:#f1da68;stop-opacity:1;"
         offset="0"
         id="stop1" /><stop
         style="stop-color:#f6e699;stop-opacity:1;"
         offset="1"
         id="stop2" /></linearGradient><radialGradient
       inkscape:collect="always"
       xlink:href="#linearGradient2"
       id="radialGradient4"
       cx="117.17699"
       cy="193.48347"
       fx="117.17699"
       fy="193.48347"
       r="84.008925"
       gradientTransform="matrix(1.2382889,-0.60464603,0.85534707,1.7517139,-176.67888,-54.046245)"
       gradientUnits="userSpaceOnUse" /><linearGradient
       inkscape:collect="always"
       xlink:href="#linearGradient4"
       id="linearGradient6"
       x1="121.8749"
       y1="231.45541"
       x2="173.34261"
       y2="165.63113"
       gradientUnits="userSpaceOnUse" /><linearGradient
       inkscape:collect="always"
       xlink:href="#linearGradient8"
       id="linearGradient9"
       x1="205.26299"
       y1="215.95378"
       x2="186.01958"
       y2="196.71037"
       gradientUnits="userSpaceOnUse" /><radialGradient
       inkscape:collect="always"
       xlink:href="#linearGradient1"
       id="radialGradient9"
       gradientUnits="userSpaceOnUse"
       gradientTransform="matrix(1.6132075,-0.93138575,1.0511401,1.820628,-229.0801,-14.216478)"
       cx="113.84544"
       cy="173.95448"
       fx="113.84544"
       fy="173.95448"
       r="80.508925" /><radialGradient
       inkscape:collect="always"
       xlink:href="#linearGradient14"
       id="radialGradient10"
       gradientUnits="userSpaceOnUse"
       gradientTransform="matrix(1.2382889,-0.60464603,0.85534707,1.7517139,-176.67888,-54.046245)"
       cx="111.64073"
       cy="194.62402"
       fx="111.64073"
       fy="194.62402"
       r="84.008925" /><radialGradient
       inkscape:collect="always"
       xlink:href="#linearGradient10"
       id="radialGradient1"
       cx="30.959604"
       cy="178.49033"
       fx="30.959604"
       fy="178.49033"
       r="88.689827"
       gradientTransform="matrix(1.9098948,0.24871456,-0.28732096,2.2063557,23.114032,-210.41853)"
       gradientUnits="userSpaceOnUse" /><radialGradient
       inkscape:collect="always"
       xlink:href="#linearGradient17"
       id="radialGradient18"
       cx="127.70396"
       cy="192.54536"
       fx="127.70396"
       fy="192.54536"
       r="95.889676"
       gradientTransform="matrix(1.4466096,0.75863883,-0.84100323,1.6036661,95.956295,-195.71288)"
       gradientUnits="userSpaceOnUse" /><radialGradient
       xlink:href="#linearGradient980"
       id="radialGradient699"
       cx="25.139208"
       cy="227.04512"
       r="34.293636"
       fx="25.139208"
       fy="227.04512"
       gradientTransform="scale(1.8575459,0.5383447)"
       gradientUnits="userSpaceOnUse" /><linearGradient
       id="linearGradient980"><stop
         style="stop-color:#190019;stop-opacity:1;"
         offset="0"
         id="stop981" /><stop
         style="stop-color:#196f19;stop-opacity:1;"
         offset="1"
         id="stop982" /></linearGradient><radialGradient
       xlink:href="#linearGradient676"
       id="radialGradient697"
       cx="60.208889"
       cy="138.07115"
       r="10.553431"
       fx="60.208889"
       fy="138.07115"
       gradientTransform="scale(1.4374398,0.69568133)"
       gradientUnits="userSpaceOnUse" /><linearGradient
       id="linearGradient676"><stop
         style="stop-color:#b07a3a;stop-opacity:1;"
         offset="0"
         id="stop677-8" /><stop
         style="stop-color:#573e25;stop-opacity:1;"
         offset="1"
         id="stop678" /></linearGradient><linearGradient
       inkscape:collect="always"
       xlink:href="#linearGradient703"
       id="linearGradient1-9"
       x1="110.97462"
       y1="95.35141"
       x2="111.64099"
       y2="83.372017"
       gradientTransform="scale(0.88098168,1.1350974)"
       gradientUnits="userSpaceOnUse" /><linearGradient
       id="linearGradient703"><stop
         style="stop-color:#707070;stop-opacity:1;"
         offset="0"
         id="stop704" /><stop
         style="stop-color:#dddddf;stop-opacity:1;"
         offset="1"
         id="stop705" /></linearGradient><radialGradient
       xlink:href="#linearGradient676"
       id="radialGradient698"
       cx="25.241104"
       cy="137.9843"
       r="12.182159"
       fx="25.241104"
       fy="137.9843"
       gradientTransform="scale(1.4374394,0.69568152)"
       gradientUnits="userSpaceOnUse" /><linearGradient
       xlink:href="#linearGradient703"
       id="linearGradient694"
       x1="18.273685"
       y1="95.546097"
       x2="18.940052"
       y2="83.566681"
       gradientTransform="scale(0.88098094,1.1350983)"
       gradientUnits="userSpaceOnUse" /><radialGradient
       inkscape:collect="always"
       xlink:href="#linearGradient676"
       id="radialGradient1-6"
       cx="33.491917"
       cy="76.617531"
       fx="33.491917"
       fy="76.617531"
       r="12.711828"
       gradientTransform="scale(1.0582811,0.94492856)"
       gradientUnits="userSpaceOnUse" /><linearGradient
       id="linearGradient2-3"
       gradientTransform="scale(0.92025742,1.0866525)"
       x1="18.313948"
       y1="64.925941"
       x2="36.905769"
       y2="64.925941"
       gradientUnits="userSpaceOnUse"><stop
         style="stop-color:#b07a3a;stop-opacity:1;"
         offset="0"
         id="stop1-6" /><stop
         style="stop-color:#573e25;stop-opacity:1;"
         offset="1"
         id="stop2-7-5" /></linearGradient><radialGradient
       xlink:href="#linearGradient676"
       id="radialGradient696"
       cx="73.204811"
       cy="75.68222"
       r="12.711828"
       fx="73.204811"
       fy="75.68222"
       gradientTransform="scale(1.0582811,0.94492856)"
       gradientUnits="userSpaceOnUse" /><linearGradient
       inkscape:collect="always"
       xlink:href="#linearGradient812"
       id="linearGradient3-6"
       x1="48.385342"
       y1="182.6496"
       x2="48.427086"
       y2="191.46626"
       gradientTransform="scale(1.9200285,0.5208256)"
       gradientUnits="userSpaceOnUse" /><linearGradient
       id="linearGradient812"><stop
         style="stop-color:#ffffff;stop-opacity:0.5529;"
         offset="0"
         id="stop813" /><stop
         style="stop-color:#ffffff;stop-opacity:0;"
         offset="1"
         id="stop814" /></linearGradient><linearGradient
       xlink:href="#linearGradient703"
       id="linearGradient675-1"
       x1="101.3718"
       y1="82.268143"
       x2="105.63546"
       y2="62.224236"
       gradientTransform="scale(0.92025535,1.0866549)"
       gradientUnits="userSpaceOnUse" /><linearGradient
       id="linearGradient4-5"
       gradientTransform="scale(1.9199938,0.52083502)"
       x1="8.1229324"
       y1="180.87456"
       x2="22.420769"
       y2="180.87456"
       gradientUnits="userSpaceOnUse"><stop
         style="stop-color:#707070;stop-opacity:1;"
         offset="0"
         id="stop3-3" /><stop
         style="stop-color:#dddddf;stop-opacity:1;"
         offset="1"
         id="stop4-5-2" /></linearGradient><linearGradient
       inkscape:collect="always"
       xlink:href="#linearGradient812"
       id="linearGradient5-02"
       x1="18.575672"
       y1="120.24249"
       x2="18.623259"
       y2="130.29309"
       gradientTransform="scale(1.7047885,0.58658301)"
       gradientUnits="userSpaceOnUse" /><radialGradient
       xlink:href="#linearGradient676"
       id="radialGradient695"
       cx="308.71594"
       cy="295.01953"
       r="38.10957"
       fx="308.71594"
       fy="295.01953"
       gradientTransform="scale(0.81476651,1.2273455)"
       gradientUnits="userSpaceOnUse" /><linearGradient
       xlink:href="#linearGradient676"
       id="linearGradient680"
       gradientTransform="scale(0.93368968,1.0710197)"
       x1="24.477604"
       y1="17.096983"
       x2="53.134998"
       y2="17.096983"
       gradientUnits="userSpaceOnUse" /><linearGradient
       xlink:href="#linearGradient676"
       id="linearGradient679"
       gradientTransform="scale(0.51218964,1.9524018)"
       x1="112.58018"
       y1="1.5734881"
       x2="131.31755"
       y2="1.5734881"
       gradientUnits="userSpaceOnUse" /><linearGradient
       xlink:href="#linearGradient676"
       id="linearGradient649"
       x1="72.467018"
       y1="48.528385"
       x2="72.467033"
       y2="29.314993"
       gradientTransform="scale(0.85998803,1.1628069)"
       gradientUnits="userSpaceOnUse" /><linearGradient
       xlink:href="#linearGradient812"
       id="linearGradient848"
       x1="51.151138"
       y1="118.59911"
       x2="51.198723"
       y2="128.64972"
       gradientTransform="scale(1.7047892,0.5865828)"
       gradientUnits="userSpaceOnUse" /><linearGradient
       xlink:href="#linearGradient812"
       id="linearGradient816"
       x1="45.169682"
       y1="94.73996"
       x2="49.41716"
       y2="118.30567"
       gradientTransform="scale(1.2923332,0.77379427)"
       gradientUnits="userSpaceOnUse" /><linearGradient
       xlink:href="#linearGradient703"
       id="linearGradient681"
       x1="54.121799"
       y1="99.151703"
       x2="53.696484"
       y2="66.149193"
       gradientTransform="scale(1.1679421,0.85620682)"
       gradientUnits="userSpaceOnUse" /><linearGradient
       xlink:href="#linearGradient660"
       id="linearGradient659-8"
       x1="64.442101"
       y1="76.155396"
       x2="63.012356"
       y2="53.064438"
       gradientTransform="scale(0.90631582,1.1033681)"
       gradientUnits="userSpaceOnUse" /><linearGradient
       id="linearGradient660"><stop
         style="stop-color:#4c4c4c;stop-opacity:1;"
         offset="0"
         id="stop661-5" /><stop
         style="stop-color:#dddddf;stop-opacity:1;"
         offset="1"
         id="stop662" /></linearGradient><linearGradient
       xlink:href="#linearGradient812"
       id="linearGradient695"
       x1="272.71365"
       y1="489.5177"
       x2="274.315"
       y2="497.94843"
       gradientTransform="scale(1.3269772,0.75359247)"
       gradientUnits="userSpaceOnUse" /><linearGradient
       xlink:href="#linearGradient820"
       id="linearGradient819"
       x1="56.595409"
       y1="97.991722"
       x2="52.86974"
       y2="77.346329"
       gradientTransform="scale(1.162984,0.85985708)"
       gradientUnits="userSpaceOnUse" /><linearGradient
       id="linearGradient820"><stop
         style="stop-color:#3f3f3f;stop-opacity:1;"
         offset="0"
         id="stop821" /><stop
         style="stop-color:#3f3f3f;stop-opacity:0;"
         offset="1"
         id="stop822" /></linearGradient><linearGradient
       xlink:href="#linearGradient812"
       id="linearGradient853-0"
       x1="498.81085"
       y1="255.80345"
       x2="494.49777"
       y2="256.70004"
       gradientTransform="scale(0.70710373,1.4142197)"
       gradientUnits="userSpaceOnUse" /><linearGradient
       xlink:href="#linearGradient812"
       id="linearGradient811"
       x1="273.93744"
       y1="525.12439"
       x2="273.66449"
       y2="532.89966"
       gradientTransform="scale(1.3351417,0.74898415)"
       gradientUnits="userSpaceOnUse" /></defs><sodipodi:namedview
     id="base"
     pagecolor="#ffffff"
     bordercolor="#000000"
     borderopacity="0.3"
     inkscape:pageopacity="0.0"
     inkscape:pageshadow="2"
     inkscape:zoom="0.98994949"
     inkscape:cx="505.07627"
     inkscape:cy="476.792"
     inkscape:document-units="mm"
     inkscape:showpageshadow="2"
     inkscape:pagecheckerboard="0"
     inkscape:deskcolor="#d1d1d1"
     inkscape:current-layer="svg1"
     showguides="true" /><metadata
     id="metadata1"><rdf:RDF><cc:Work
         rdf:about=""><dc:format>image/svg+xml</dc:format><dc:type
           rdf:resource="http://purl.org/dc/dcmitype/StillImage" /><cc:license
           rdf:resource="http://creativecommons.org/publicdomain/zero/1.0/" /></cc:Work><cc:License
         rdf:about="http://creativecommons.org/publicdomain/zero/1.0/"><cc:permits
           rdf:resource="http://creativecommons.org/ns#Reproduction" /><cc:permits
           rdf:resource="http://creativecommons.org/ns#Distribution" /><cc:permits
           rdf:resource="http://creativecommons.org/ns#DerivativeWorks" /></cc:License></rdf:RDF></metadata><g
     id="g7"
     style="display:inline"
     transform="matrix(0.95695805,0,0,0.95695805,3.9601709,-7.6155763)"
     inkscape:label="folder-symbolic"><path
       id="rect4"
       style="fill:url(#linearGradient6);stroke-width:7;stroke-linecap:round;stroke-linejoin:round;stroke-miterlimit:5"
       d="m 87.664405,202.59031 c 54.609445,5.55107 158.367755,-48.88613 163.293795,13.44597 -18.3143,17.72109 -40.14779,30.20471 -71.11268,32.06812 L 10.690781,240.54258 Z"
       sodipodi:nodetypes="ccccc"
       inkscape:label="shadowbottom" /><g
       id="rect1"
       inkscape:label="back"><path
         style="color:#000000;fill:url(#radialGradient9);stroke-linecap:round;stroke-linejoin:round;stroke-miterlimit:5;-inkscape-stroke:none"
         d="m 7.6892255,11.339286 172.5248245,-0.755952 1.5119,119.653546 32.17614,9.77643 -0.12413,84.08858 -24.74077,20.90726 -183.4861211,-0.37798 z"
         id="path16"
         inkscape:label="colorhead"
         sodipodi:nodetypes="cccccccc" /><g
         id="g9"
         inkscape:label="lable"
         style="display:inline"><path
           id="rect7"
           style="display:inline;fill:#ffffff;fill-opacity:1;stroke-width:7;stroke-linecap:round;stroke-linejoin:round;stroke-miterlimit:5"
           d="m 191.36499,156.61995 h 16.03617 v 60.93745 h -16.03617 z"
           sodipodi:nodetypes="ccccc" /><path
           id="rect8"
           style="fill:url(#linearGradient9);stroke-width:7;stroke-linecap:round;stroke-linejoin:round;stroke-miterlimit:5"
           d="m 190.83043,200.45215 h 16.57071 v 18.17433 h -16.57071 z" /></g><path
         style="color:#000000;fill:url(#radialGradient10);stroke-linecap:round;stroke-linejoin:round;stroke-miterlimit:5;-inkscape-stroke:none"
         d="M 10.712891,9.3515625 C 8.7928653,9.351666 7.2312955,10.898422 7.2128906,12.818359 L 5.0742187,242.33008 c -0.018262,1.94587 1.5540454,3.53309 3.5000001,3.5332 H 186.95843 c 0.67118,-2.6e-4 1.32813,-0.19348 1.89258,-0.55664 l 24.55133,-20.5293 c 0.99979,-0.64275 1.6051,-1.74893 1.60743,-2.9375 l 0.125,-80.6875 c 0.002,-1.62747 -1.11843,-3.04145 -2.70313,-3.41211 l -30.98633,-7.2539 V 12.851563 c -1.9e-4,-1.932917 -1.56708,-3.4998072 -3.5,-3.5000005 z m 3.466797,6.9999995 H 174.44531 V 133.25977 c 7e-5,1.62601 1.11985,3.03787 2.70313,3.4082 l 30.98242,7.2539 -0.11719,76 -22.08454,18.94141 H 12.107422 Z"
         id="path17"
         inkscape:label="frame"
         sodipodi:nodetypes="ccccccccccccccccccccccc" /><path
         id="path6"
         style="display:inline;fill:url(#radialGradient1);stroke-width:7;stroke-linecap:round;stroke-linejoin:round;stroke-miterlimit:5"
         d="M 9.2326005,10.901076 C 73.571516,12.034181 162.68535,15.731073 173.23976,37.109223 c 0,0 -3.36949,35.512296 8.60107,87.324687 -0.21459,13.48763 8.87867,3.45792 7.89287,16.1085 -0.9858,12.65058 2.38189,75.77749 0.33786,85.90743 -4.08806,20.25988 -21.61035,18.85004 -31.65345,18.92584 L 7.6938331,242.665 Z"
         sodipodi:nodetypes="cccccccc"
         inkscape:label="shadowinside" /></g><g
       id="path4"
       inkscape:label="front"
       style="display:inline"><path
         style="color:#000000;display:inline;fill:url(#radialGradient18);stroke-linecap:round;stroke-linejoin:round;stroke-miterlimit:5;-inkscape-stroke:none"
         d="M 7.3760995,10.205358 178.74474,10.96131 197.26557,30.710565 v 74.177825 l -25.3244,20.5997 -2.04645,119.40248 -164.4085014,-1.5119 z"
         id="path14"
         inkscape:label="colorhead"
         sodipodi:nodetypes="cccccccc" /><path
         style="color:#000000;fill:url(#radialGradient4);stroke-linecap:round;stroke-linejoin:round;stroke-miterlimit:5;-inkscape-stroke:none"
         d="M 9.6445313,9.3515625 C 7.7116145,9.3517557 6.1447242,10.918646 6.1445312,12.851563 V 241.86765 c 1.933e-4,1.93292 1.5670835,3.49981 3.5000001,3.5 L 170.2726,246.50158 c 1.92683,-1.7e-4 3.4912,-1.55756 3.5,-3.48437 l 0.5293,-118.17541 22.66294,-19.64453 c 0.50293,-0.62264 0.77729,-1.39883 0.77735,-2.19922 V 32.222656 c -5.3e-4,-0.836405 -0.30054,-1.644973 -0.84571,-2.279297 L 180.26562,10.570313 C 179.60071,9.7967094 178.63141,9.3516448 177.61133,9.3515625 Z M 13.144531,16.351562 H 176.00195 l 14.74024,17.167969 v 68.242189 l -22.65904,19.63867 c -0.49845,0.6182 -0.77188,1.38752 -0.77539,2.18164 l -0.51953,115.91955 -153.643699,-1.13393 z"
         id="path15"
         inkscape:label="frame"
         sodipodi:nodetypes="ccccccccccccccccccccccc" /></g></g><g
     id="g1"
     inkscape:label="org-gnome-amule"
     transform="matrix(1.6490021,0,0,1.6490021,3.9084752,41.34833)"><ellipse
       style="fill:url(#radialGradient699);fill-opacity:1;fill-rule:evenodd;stroke:#00d40e;stroke-width:1pt;stroke-linecap:butt;stroke-linejoin:miter;stroke-opacity:1"
       id="path977"
       transform="matrix(0.882353,0,0,1.207921,18.58329,-43.71284)"
       cx="48.999027"
       cy="123.16953"
       rx="68.59864"
       ry="19.407459" /><path
       style="font-size:12px;fill:none;fill-rule:evenodd;stroke:#7e5a36;stroke-width:3.375;stroke-linecap:round;stroke-linejoin:round;stroke-dasharray:none;stroke-opacity:1"
       d="m 82.53042,87.29919 c 0,2.375 -0.3125,4.6875 -1.0625,6.81246 1.875,-0.125 4,-0.125 6.125,-0.125 3.1875,0 5.625,0 7.4375,0.0625 v -0.125 l 13.49998,-0.68746 0.375,7.00001 -1.75,2.4375 1.5,2.1875 -0.25,6.4375 -13.06248,-1 v -0.625 c -3.3125,1.625 -8.25,2.3125 -14.5625,2.3125 -7.0625,0 -11.5,-0.5625 -13.9375,-2.4375 -2.125,0.8125 -4.4375,1.1875 -6.875,1.1875 -1.5,0 -2.9375,-0.125 -4.3125,-0.5 -2.625,1.4375 -6.9375,1.9375 -13.375,1.9375 -6.3125,0 -11.25,-0.6875 -14.5625,-2.3125 v 0.625 l -13.06249,1 -0.25,-6.4375 1.5,-2.1875 -1.75,-2.4375 0.375,-7.00001 13.49999,0.68746 v 0.125 c 1.8125,-0.0625 4.25,-0.0625 7.4375,-0.0625 1.0625,0 2.125,0 3,0.0625 -0.6875,-2.18746 -1.0625,-4.49996 -1.0625,-6.93746 0,-0.125 0,-0.1875 0,-0.3125 0,0 -0.0625,0 -0.0625,0 -1.625,0.3125 -2.875,0.5 -3.75,0.625 l -13.12499,3 -1.6875,-7 1.3125,-2.8125 -1.9375,-2 -0.9375,-6.5 13.06249,-1.1875 c 0.875,-0.8125 2.3125,-1.37501 4.4375,-1.75 2.8125,-0.5 5.4375,-0.625 7.5625,0.06249 0.375,-4.31249 3.5625,-5.74999 1.0625,-16.37499 -1.125,-4.9375 -1.1875,-8.875 -0.3125,-12 l -0.75,0.875 1.5,-4.125 -4.1875,1.625 2.625,-3.625 -4.875,-2 4.5625,0.25 c -0.875,-1.62501 -1.8125,-3 -2.8125,-4.1875 -5.5,-6.5 -16.75,-10.6875 -16.25,-10.75 6.25,-1.125 17.625,-1.375 22.8125,5.4375 1.625,2.1875 2.625,5.3125 3.0625,8.625 0.875,-0.625 1.875,-1.125 3.125,-1.37501 l -3.25,-4.18749 4.125,2.1875 0.0625,-5.3125 2.5625,4.9375 2.9375,-3.1875 -1.8125,4.0625 c 1.125,-0.1875 2.3125,-0.37501 3.1875,-0.06251 -1,-2.24999 -0.72208,-6.47006 -1.34708,-9.28256 -2.125,-8.8125 1.87236,-13.649654 8.91624,-18.096463 -1.5,5.062499 0.61834,7.941533 -0.13166,18.129033 -0.1875,2.5625 -0.4375,5.125 -0.9375,7.25 l 5.0625,-2.1875 -3.875,3.56249 3.6875,2.5 -3.625,-0.12499 c 3.9375,2.4375 6.5625,7.625 7.875,16.0625 1.5625,12.25 6.75,8.6875 8.1875,17.93749 0.125,0.81251 0.125,1.62501 -0.125,2.31251 0.4375,-0.0625 0.875,0.0625 1.375,0.125 2.125,0.37499 3.5625,0.9375 4.4375,1.75 l 13.06248,1.1875 -0.9375,6.5 -1.93748,2 1.31248,2.8125 -1.68748,7 -13.125,-3 c -0.8125,-0.125 -1.9375,-0.3125 -3.4375,-0.5625 0.125,0.375 0.125,0.75 0.125,1.1875 z"
       id="path969"
       sodipodi:nodetypes="ccccccccccccccccccccccccccccccccccccccccccccccccccccccccccccccccccccccccccccccccc" /><path
       style="font-size:12px;fill:url(#radialGradient697);fill-rule:evenodd;stroke:none;stroke-width:1.40051"
       d="m 63.65788,102.0099 c 0,7.8001 4.1384,9.8019 17.1308,9.8019 12.9924,0 20.08112,-2.913 20.08112,-10.7132 0,-7.8002 -0.2671,-7.2895 -13.25952,-7.2895 -12.9924,0 -23.9524,0.4005 -23.9524,8.2008 z"
       id="path778"
       sodipodi:nodetypes="ccccc" /><path
       style="font-size:12px;fill:url(#linearGradient1-9);fill-rule:evenodd;stroke:#7e5a36;stroke-width:0.625;stroke-dasharray:none;stroke-opacity:1"
       d="m 108.8026,111.2615 0.2722,-6.3822 -1.5311,-2.2193 1.7896,-2.451 -0.3868,-6.99957 -13.50257,0.7196 0.0779,4.09714 2.0728,3.66793 -1.9168,4.5267 0.078,4.0973 z"
       id="path779"
       sodipodi:nodetypes="ccccccccccc" /><path
       style="font-size:12px;fill:url(#radialGradient698);fill-rule:evenodd;stroke:none;stroke-width:1.40051"
       d="m 59.45158,102.2309 c 0,7.8001 -4.1384,9.8019 -17.1308,9.8019 -12.9924,0 -20.0811,-2.913 -20.0811,-10.7132 0,-7.8002 0.2671,-7.2895 13.2595,-7.2895 12.9924,0 23.9524,0.4005 23.9524,8.2008 z"
       id="path781"
       sodipodi:nodetypes="ccccc" /><path
       style="font-size:12px;fill:url(#linearGradient694);fill-rule:evenodd;stroke:#7e5a36;stroke-width:0.625;stroke-dasharray:none;stroke-opacity:1"
       d="m 14.30678,111.4826 -0.2722,-6.3822 1.5311,-2.2193 -1.7896,-2.451 0.3868,-6.99964 13.5026,0.7196 -0.0779,4.09721 -2.0728,3.66793 1.9168,4.5267 -0.078,4.0973 z"
       id="path782"
       sodipodi:nodetypes="ccccccccccc" /><path
       style="font-size:12px;fill:url(#radialGradient1-6);fill-rule:evenodd;stroke:none;stroke-width:1.03029"
       d="m 49.02708,76.5736 c -1.3216,-7.4955 -7.2174,-8.6582 -14.314,-7.4069 -7.0966,1.2513 -7.1788,4.3711 -5.8571,11.8665 1.3216,7.4953 1.3811,6.9789 8.4777,5.7276 7.0966,-1.2513 13.0151,-2.6917 11.6934,-10.1872 z"
       id="path784"
       sodipodi:nodetypes="ccccc" /><path
       style="font-size:12px;fill:url(#linearGradient2-3);fill-rule:evenodd;stroke:#7e5a36;stroke-width:0.625;stroke-dasharray:none;stroke-opacity:1"
       d="m 17.20898,72.1024 0.9216,6.4994 1.9216,1.9901 -1.3055,2.7759 1.6855,7.0143 13.1634,-2.9708 -0.8405,-4.1304 -2.7249,-3.365 1.0439,-4.8962 -0.8406,-4.1306 z"
       id="path785"
       sodipodi:nodetypes="ccccccccccc" /><path
       style="font-size:12px;fill:url(#radialGradient696);fill-rule:evenodd;stroke:none;stroke-width:1.03029"
       d="m 70.41008,75.6898 c 1.3216,-7.4955 7.2174,-8.6582 14.314,-7.4069 7.0966,1.2513 7.1788,4.3711 5.8571,11.8665 -1.3216,7.4953 -1.3811,6.9789 -8.4777,5.7276 -7.0966,-1.2513 -13.0151,-2.6917 -11.6934,-10.1872 z"
       id="path787"
       sodipodi:nodetypes="ccccc" /><path
       style="font-size:12px;fill:url(#linearGradient3-6);fill-rule:evenodd;stroke-width:1"
       d="m 79.37738,98.30617 c -0.0606,1.94813 4.0861,3.40763 9.3861,3.26663 2.7237,-0.0725 5.1665,-0.5771 6.8792,-1.2506 l 10.74352,-0.0861 0.4423,-6.1007 -10.10562,0.3004 -1.8102,0.1257 c -1.653,0.1146 -4.3534,-0.1814 -6.7091,-0.1187 -5.3001,0.1411 -8.9158,-0.4932 -8.8262,3.86337 z"
       id="path851"
       sodipodi:nodetypes="ccccccscc" /><path
       style="font-size:12px;fill:url(#linearGradient675-1);fill-rule:evenodd;stroke:#7e5a36;stroke-width:0.625;stroke-dasharray:none;stroke-opacity:1"
       d="m 102.036,71.2186 -0.9216,6.4994 -1.92163,1.9901 1.30553,2.7759 -1.68553,7.0143 -13.1633,-2.9708 0.8404,-4.1304 2.7249,-3.365 -1.0439,-4.8962 0.8406,-4.1306 z"
       id="path788"
       sodipodi:nodetypes="ccccccccccc" /><path
       style="font-size:12px;fill:url(#linearGradient4-5);fill-rule:evenodd;stroke-width:1"
       d="m 43.04708,98.37657 c 0.0606,1.94813 -4.0861,3.40763 -9.3861,3.26663 -2.7237,-0.0725 -5.1665,-0.5771 -6.8792,-1.2506 l -10.7435,-0.0861 -0.4423,-6.1007 11.7613,1.05307 0.004,0.1256 c 1.5242,-0.65017 4.5039,-0.93397 6.8596,-0.87127 5.3001,0.1411 8.7653,1.91507 8.8262,3.86337 z"
       id="path850"
       sodipodi:nodetypes="ccccccccc" /><path
       style="font-size:12px;fill:url(#linearGradient5-02);fill-rule:evenodd;stroke-width:1"
       d="m 45.73588,72.2273 c 0.398,1.908 -3.4323,4.0654 -8.6763,4.8468 -2.6949,0.4016 -5.1882,0.3289 -6.9918,-0.037 l -10.5952,1.7808 -1.495,-5.9311 11.7655,-1.0054 0.0257,0.1231 c 1.3882,-0.9049 3.2879,-2.2012 5.6186,-2.5485 5.244,-0.7814 9.9502,0.8632 10.3485,2.7713 z"
       id="path847"
       sodipodi:nodetypes="ccccccccc" /><ellipse
       style="fill:url(#radialGradient695);fill-opacity:1;fill-rule:evenodd;stroke:#7e5a36;stroke-width:1.2451;stroke-linecap:butt;stroke-linejoin:miter;stroke-dasharray:none;stroke-opacity:1"
       id="path790"
       transform="matrix(1.056338,0,0,0.722223,-205.5341,-189.0162)"
       cx="251.35547"
       cy="382.28165"
       rx="21.372742"
       ry="32.510651" /><path
       style="font-size:12px;fill-rule:evenodd"
       d="m 39.61995,39.2615 2.60497,-3.6367 -4.85508,-2.0272 11.31179,0.6959 -6.37107,7.4491 1.48742,-4.1606 z"
       id="path792"
       sodipodi:nodetypes="ccccccc" /><path
       style="font-size:12px;fill:url(#linearGradient680);fill-rule:evenodd;stroke:none;stroke-width:1.25"
       d="m 22.87278,18.9103 c 6.24427,-1.0982 17.62052,-1.3825 22.76821,5.445 5.32158,7.0581 3.80953,24.6202 3.65848,24.6441 C 48.96924,49.2792 44.58877,36.2585 39.08522,29.6996 33.58169,23.1408 22.33991,18.9646 22.87278,18.9103 Z"
       id="path793"
       sodipodi:nodetypes="csccc" /><path
       style="font-size:12px;fill:#573e25;fill-opacity:1;fill-rule:evenodd"
       d="m 45.24208,40.02643 c 0.77333,-1.08081 -2.96884,-9.63097 -5.1486,-13.91476 -2.08943,-4.60431 -9.91272,-5.53191 -13.31777,-5.37212 3.62219,2.47774 8.28695,4.59523 11.40108,8.10411 3.14178,4.20928 7.76601,12.71694 7.06529,11.18277 z"
       id="path794"
       sodipodi:nodetypes="cscsc" /><path
       style="font-size:12px;fill-rule:evenodd"
       d="m 52.75355,24.3185 -0.0049,5.2665 -4.16728,-2.1921 5.80318,7.4732 3.87362,-8.8163 -2.88894,3.1792 z"
       id="path795"
       sodipodi:nodetypes="ccccccc" /><path
       style="font-size:12px;fill-rule:evenodd"
       d="m 71.02201,31.9293 -3.6917,-2.5264 3.86894,-3.5655 -10.3916,4.5228 8.53458,4.8208 -2.82072,-3.401 z"
       id="path796"
       sodipodi:nodetypes="ccccccc" /><path
       style="font-size:12px;fill:url(#linearGradient679);fill-rule:evenodd;stroke-width:1.25"
       d="M 67.23316,3.072081 C 59.9929,8.618706 55.98944,12.16548 58.33192,21.91784 60.1641,30.33695 63.03352,39.3102 63.98867,39.652 64.47015,39.8527 66.43795,29.8094 67.09525,20.793 67.83719,10.6136 65.73714,8.125376 67.23316,3.072081 Z"
       id="path983"
       sodipodi:nodetypes="ccccc" /><path
       style="font-size:12px;fill:url(#linearGradient649);fill-rule:evenodd;stroke-width:0.988168;stroke-opacity:0.919"
       d="m 75.44409,47.8206 c 1.54233,12.287 6.76966,8.7178 8.15722,17.9248 1.45987,12.3888 -14.16817,18.8985 -19.20428,19.7865 -5.03601,0.888 -18.98308,-0.0321 -21.82271,-12.6288 -1.78326,-7.8692 4.03822,-6.7835 0.90866,-20.0581 -3.44985,-14.7145 2.93985,-20.9984 13.01178,-22.7743 10.07212,-1.776 16.69728,2.766 18.94933,17.7499 z"
       id="path798"
       sodipodi:nodetypes="cscsscs" /><path
       style="font-size:12px;fill-rule:evenodd;stroke-width:1"
       d="m 51.89469,40.2074 c 0.11633,0.3137 -2.93304,0.8104 -4.70107,1.4861 -1.44249,0.5513 -3.7579,2.4992 -3.98178,2.1855 -0.38684,-0.5491 1.65442,-3.4743 2.83098,-3.919 1.67156,-0.632 5.6327,-0.3322 5.85187,0.2474 z"
       id="path799"
       sodipodi:nodetypes="cssss" /><path
       style="font-size:12px;fill-rule:evenodd;stroke-width:1"
       d="m 67.23941,35.89 c 2.04742,-0.0874 4.62589,1.7652 4.46578,2.5997 -0.07728,0.3985 -2.56633,-0.5778 -4.5585,-0.5628 -0.96726,0.0145 -4.21161,1.0318 -4.40925,0.5334 -0.30128,-0.6997 3.42663,-2.5236 4.50197,-2.5703 z"
       id="path800"
       sodipodi:nodetypes="cssss" /><path
       style="font-size:12px;fill:#ffffff;fill-rule:evenodd"
       d="m 55.64044,48.8101 c 3.1995,4.163 2.76075,7.1657 0.34304,9.3876 -2.4177,2.2219 -5.89859,2.8213 -9.09799,-1.3416 -3.1996,-4.163 -3.83332,-9.339 -1.4158,-11.5607 2.41771,-2.2219 6.97134,-0.6483 10.17075,3.5147 z"
       id="path801"
       sodipodi:nodetypes="ccccc" /><path
       style="font-size:12px;fill:#ffffff;fill-rule:evenodd"
       d="m 62.00972,47.0757 c -1.58273,5.0062 -0.14345,7.6777 2.88838,8.9387 3.03183,1.261 6.50782,0.6338 8.09045,-4.3724 1.58283,-5.0062 0.40805,-10.0868 -2.62357,-11.3477 -3.03182,-1.261 -6.77264,1.7751 -8.35526,6.7814 z"
       id="path803"
       sodipodi:nodetypes="ccccc" /><path
       style="font-size:12px;fill:url(#linearGradient848);fill-rule:evenodd;stroke-width:1"
       d="m 73.54028,71.2633 c -0.398,1.908 3.4323,4.0654 8.6763,4.8468 2.6949,0.4016 5.1882,0.3289 6.9918,-0.037 l 10.5952,1.7808 1.49502,-5.9311 -11.76552,-1.0054 -0.0257,0.1231 c -1.3882,-0.9049 -3.2879,-2.2012 -5.6186,-2.5485 -5.244,-0.7814 -9.9502,0.8632 -10.3485,2.7713 z"
       id="path849"
       sodipodi:nodetypes="ccccccccc" /><path
       style="font-size:12px;fill:url(#linearGradient816);fill-rule:evenodd;stroke-width:1"
       d="m 80.68208,81.5564 c 0,8.125 -9,14.68757 -20.0625,14.68757 -11.125,0 -20.125,-6.56257 -20.125,-14.68757 0,-3.625 1.8125,-6.9375 4.9375,-9.375 -1.4375,1.9375 -1.9375,4.0625 -1.5625,6.125 1.1875,6.625 10.5,10.5625 20.8125,8.75 7.1875,-1.25 12.9375,-5 15.1875,-9.4375 0.5625,1.25 0.8125,2.5625 0.8125,3.9375 z"
       id="path835" /><path
       style="font-size:12px;fill:url(#linearGradient681);fill-opacity:0.5;fill-rule:evenodd;stroke-width:0.988168;stroke-opacity:0.919"
       d="M 83.67967,67.0893 C 85.46653,78.3945 69.27931,84.671 64.2432,85.559 59.20719,86.447 44.7883,85.9055 42.65376,74.2531 40.53441,62.6783 50.1121,58.1684 60.18402,56.3925 70.25625,54.6165 81.61194,54.0249 83.67967,67.0893 Z"
       id="path805"
       sodipodi:nodetypes="ccscs" /><path
       style="font-size:12px;fill-rule:evenodd;stroke-width:0.680312"
       d="m 75.87683,66.3016 c 1.97195,-4.8611 0.71347,-7.0596 -1.70981,-7.6249 -2.42308,-0.5653 -5.09375,0.7166 -7.06571,5.5776 -1.97192,4.8612 -1.60609,9.2602 0.81709,9.8255 2.42326,0.5652 5.98641,-2.917 7.95843,-7.7782 z"
       id="path806"
       sodipodi:nodetypes="ccccc" /><path
       style="font-size:12px;fill-rule:evenodd;stroke-width:0.680312"
       d="m 49.71995,71.1378 c -3.5156,-3.8934 -3.08494,-6.3897 -1.00114,-7.7498 2.0836,-1.3599 5.03165,-1.0687 8.54724,2.8246 3.51562,3.8936 4.67639,8.1525 2.5927,9.5124 -2.08382,1.36 -6.62308,-0.6936 -10.1388,-4.5872 z"
       id="path807"
       sodipodi:nodetypes="ccccc" /><path
       style="font-size:12px;fill:url(#linearGradient659-8);fill-rule:evenodd"
       d="m 70.66118,74.301 c 0.23866,1.7439 2.71314,4.2495 2.57219,6.1147 -0.14066,1.8652 -5.17641,3.7164 -8.39205,4.5077 -6.0095,1.0596 -7.67763,0.1089 -8.44049,-1.5817 -0.76288,-1.6907 1.30602,-4.9181 0.7929,-6.666 -1.97204,-9.1109 -17.75761,-13.2471 3.82182,-19.9107 21.01381,-0.1961 8.36164,8.246 9.64563,17.536 z"
       id="path808"
       sodipodi:nodetypes="cscsscs" /><path
       style="font-size:12px;fill:none;fill-rule:evenodd;stroke:#7e5a36;stroke-width:1.25;stroke-opacity:1"
       d="m 75.29026,47.8478 c 1.54233,12.2869 6.76966,8.7177 8.15722,17.9247 C 84.90735,78.1613 69.27931,84.671 64.2432,85.559 59.20719,86.447 45.26012,85.5269 42.4205,72.9302 40.63724,65.061 46.45871,66.1467 43.32915,52.8721 39.8793,38.1576 46.269,31.8738 56.34093,30.0978 c 10.07212,-1.776 16.69728,2.766 18.94933,17.75 z"
       id="path809"
       sodipodi:nodetypes="cscsscs" /><ellipse
       style="fill:url(#linearGradient695);fill-opacity:1;fill-rule:evenodd;stroke:none;stroke-width:1pt;stroke-linecap:butt;stroke-linejoin:miter;stroke-opacity:1"
       id="path815"
       transform="matrix(1.309733,-0.172061,0.178389,1.3579,-485.793,-407.3304)"
       cx="364.0506"
       cy="373.97961"
       rx="8.9493256"
       ry="5.0823364" /><path
       style="font-size:12px;fill:url(#linearGradient819);fill-opacity:0.5;fill-rule:evenodd;stroke-width:0.988168;stroke-opacity:0.919"
       d="m 83.02188,66.9719 c 1.7202,10.9763 -13.8631,17.0703 -18.7114,17.9325 -4.848,0.8622 -18.7291,0.3363 -20.784,-10.9771 -2.0402,-11.2382 7.1801,-15.6169 16.8763,-17.3412 9.6965,-1.7244 20.6285,-2.2988 22.6191,10.3858 z"
       id="path842"
       sodipodi:nodetypes="ccscs" /><ellipse
       style="fill:url(#linearGradient853-0);fill-opacity:1;fill-rule:evenodd;stroke:none;stroke-width:1pt;stroke-linecap:butt;stroke-linejoin:miter;stroke-opacity:1"
       id="path852"
       transform="matrix(0.5909,-0.567835,0.567836,0.762536,-370.1114,-51.68074)"
       cx="349.84491"
       cy="363.60992"
       rx="2.65625"
       ry="5.3125458" /><ellipse
       style="font-size:12px;fill-rule:evenodd;stroke-width:1"
       id="path804"
       transform="matrix(1.438109,-0.291732,0.253577,1.654496,-487.4791,-191.0346)"
       cx="347.83392"
       cy="207.83772"
       rx="1.9566803"
       ry="2.2576904" /><ellipse
       style="fill:url(#linearGradient811);fill-opacity:1;fill-rule:evenodd;stroke:none;stroke-width:1pt;stroke-linecap:butt;stroke-linejoin:miter;stroke-opacity:1"
       id="path810"
       transform="matrix(1.893219,-0.392493,0.445393,1.229557,-813.2562,-283.0982)"
       cx="368.35953"
       cy="399.17038"
       rx="9.059845"
       ry="5.0823669" /><ellipse
       style="fill:#ffffff;fill-opacity:1;fill-rule:evenodd;stroke:none;stroke-width:1pt;stroke-linecap:butt;stroke-linejoin:miter;stroke-opacity:1"
       id="path974"
       transform="matrix(0.923079,0,0,1.062499,26.56828,-12.02452)"
       cx="42.460163"
       cy="58.694347"
       rx="0.88317108"
       ry="1.0869789" /><ellipse
       style="font-size:12px;fill-rule:evenodd;stroke-width:1"
       id="path984"
       transform="matrix(1.438109,-0.291732,0.253577,1.654496,-499.1642,-188.5888)"
       cx="347.83392"
       cy="207.83772"
       rx="1.9566803"
       ry="2.2576904" /><ellipse
       style="fill:#ffffff;fill-opacity:1;fill-rule:evenodd;stroke:none;stroke-width:1pt;stroke-linecap:butt;stroke-linejoin:miter;stroke-opacity:1"
       id="path985"
       transform="matrix(0.923079,0,0,1.062499,14.8832,-9.57881)"
       cx="42.460163"
       cy="58.694347"
       rx="0.88317108"
       ry="1.0869789" /></g></svg>
