<?xml version="1.0" encoding="UTF-8" standalone="no"?>
<!-- Created with Inkscape (http://www.inkscape.org/) -->

<svg
   width="256mm"
   height="256mm"
   viewBox="0 0 256 256"
   version="1.1"
   id="svg1"
   inkscape:version="1.3.2 (091e20ef0f, 2023-11-25)"
   xml:space="preserve"
   sodipodi:docname="folder-downloads-lin-symbolic.svg"
   xmlns:inkscape="http://www.inkscape.org/namespaces/inkscape"
   xmlns:sodipodi="http://sodipodi.sourceforge.net/DTD/sodipodi-0.dtd"
   xmlns:xlink="http://www.w3.org/1999/xlink"
   xmlns="http://www.w3.org/2000/svg"
   xmlns:svg="http://www.w3.org/2000/svg"
   xmlns:rdf="http://www.w3.org/1999/02/22-rdf-syntax-ns#"
   xmlns:cc="http://creativecommons.org/ns#"
   xmlns:dc="http://purl.org/dc/elements/1.1/"
   xmlns:a="http://ns.adobe.com/AdobeSVGViewerExtensions/3.0/"><defs
     id="defs1"><linearGradient
       id="linearGradient17"
       inkscape:collect="always"><stop
         style="stop-color:#ffffff;stop-opacity:0.04790419;"
         offset="0"
         id="stop17" /><stop
         style="stop-color:#ffffff;stop-opacity:1;"
         offset="1"
         id="stop18" /></linearGradient><linearGradient
       id="linearGradient15"
       inkscape:collect="always"><stop
         style="stop-color:#000000;stop-opacity:0.13173653;"
         offset="0"
         id="stop15" /><stop
         style="stop-color:#000000;stop-opacity:0.40269461;"
         offset="1"
         id="stop16" /></linearGradient><linearGradient
       id="linearGradient11"
       inkscape:collect="always"><stop
         style="stop-color:#ffffff;stop-opacity:0.13772455;"
         offset="0"
         id="stop13" /><stop
         style="stop-color:#ffffff;stop-opacity:1;"
         offset="1"
         id="stop14" /></linearGradient><linearGradient
       id="linearGradient6"
       inkscape:collect="always"><stop
         style="stop-color:#ffee8d;stop-opacity:0.73209548;"
         offset="0"
         id="stop3" /><stop
         style="stop-color:#f7e714;stop-opacity:0.37125748;"
         offset="1"
         id="stop6" /></linearGradient><linearGradient
       id="linearGradient9"
       inkscape:collect="always"><stop
         style="stop-color:#cea221;stop-opacity:1;"
         offset="0"
         id="stop9" /><stop
         style="stop-color:#cea221;stop-opacity:1;"
         offset="0.35811982"
         id="stop11" /><stop
         style="stop-color:#a38118;stop-opacity:1;"
         offset="0.48275998"
         id="stop12" /><stop
         style="stop-color:#765d13;stop-opacity:1;"
         offset="1"
         id="stop10" /></linearGradient><linearGradient
       id="linearGradient7"
       inkscape:collect="always"><stop
         style="stop-color:#000000;stop-opacity:0.18302387;"
         offset="0"
         id="stop7" /><stop
         style="stop-color:#b7b7b7;stop-opacity:0.18832891;"
         offset="1"
         id="stop8" /></linearGradient><linearGradient
       id="linearGradient4"
       inkscape:collect="always"><stop
         style="stop-color:#ffee8d;stop-opacity:0.73209548;"
         offset="0"
         id="stop4" /><stop
         style="stop-color:#d6bc48;stop-opacity:0.61803716;"
         offset="1"
         id="stop5" /></linearGradient><linearGradient
       id="linearGradient1"
       inkscape:collect="always"><stop
         style="stop-color:#ffeb9b;stop-opacity:1;"
         offset="0"
         id="stop1" /><stop
         style="stop-color:#c2a000;stop-opacity:1;"
         offset="1"
         id="stop2" /></linearGradient><linearGradient
       id="path3_3_"
       gradientUnits="userSpaceOnUse"
       x1="57.324699"
       y1="46.403801"
       x2="83.153503"
       y2="46.403801"><stop
         offset="0"
         style="stop-color:rgb(255,255,255)"
         id="stop8-0" /><stop
         offset="1"
         style="stop-color:rgb(223,223,236)"
         id="stop9-9" /><a:midPointStop
         offset="0"
         style="stop-color:#FFFFFF" /><a:midPointStop
         offset="0.5"
         style="stop-color:#FFFFFF" /><a:midPointStop
         offset="1"
         style="stop-color:#DFDFEC" /></linearGradient><linearGradient
       id="XMLID_4_-3-7"
       gradientUnits="userSpaceOnUse"
       x1="32.8545"
       y1="17.5103"
       x2="90.494102"
       y2="85.498703"><stop
         offset="0"
         style="stop-color:rgb(217,217,217)"
         id="stop10-6-6" /><stop
         offset="1"
         style="stop-color:rgb(87,87,151)"
         id="stop11-06" /><a:midPointStop
         offset="0"
         style="stop-color:#D9D9D9" /><a:midPointStop
         offset="0.5"
         style="stop-color:#D9D9D9" /><a:midPointStop
         offset="1"
         style="stop-color:#575797" /></linearGradient><linearGradient
       id="path11_3_"
       gradientUnits="userSpaceOnUse"
       x1="55.0952"
       y1="78.122101"
       x2="88.283401"
       y2="44.933899"><stop
         offset="0"
         style="stop-color:rgb(255,255,255)"
         id="stop12-2" /><stop
         offset="1"
         style="stop-color:rgb(223,223,236)"
         id="stop13-6" /><a:midPointStop
         offset="0"
         style="stop-color:#FFFFFF" /><a:midPointStop
         offset="0.5"
         style="stop-color:#FFFFFF" /><a:midPointStop
         offset="1"
         style="stop-color:#DFDFEC" /></linearGradient><linearGradient
       id="path16_3_"
       gradientUnits="userSpaceOnUse"
       x1="76.635696"
       y1="27.1621"
       x2="81.575798"
       y2="22.468901"><stop
         offset="0"
         style="stop-color:rgb(255,255,255)"
         id="stop14-1" /><stop
         offset="1"
         style="stop-color:rgb(223,223,236)"
         id="stop15-8-4" /><a:midPointStop
         offset="0"
         style="stop-color:#FFFFFF" /><a:midPointStop
         offset="0.5"
         style="stop-color:#FFFFFF" /><a:midPointStop
         offset="1"
         style="stop-color:#DFDFEC" /></linearGradient><linearGradient
       id="XMLID_5_-7"
       gradientUnits="userSpaceOnUse"
       x1="53.142101"
       y1="0.1851"
       x2="113.11"
       y2="70.919998"><stop
         offset="0"
         style="stop-color:rgb(217,217,217)"
         id="stop16-9-3" /><stop
         offset="1"
         style="stop-color:rgb(87,87,151)"
         id="stop17-2" /><a:midPointStop
         offset="0"
         style="stop-color:#D9D9D9" /><a:midPointStop
         offset="0.5"
         style="stop-color:#D9D9D9" /><a:midPointStop
         offset="1"
         style="stop-color:#575797" /></linearGradient><linearGradient
       id="XMLID_6_-7"
       gradientUnits="userSpaceOnUse"
       x1="65.5215"
       y1="109.3271"
       x2="65.5215"
       y2="46.861301"><stop
         offset="0"
         style="stop-color:#3FA600"
         id="stop14-2" /><stop
         offset="1"
         style="stop-color:#008300"
         id="stop15-4" /><a:midPointStop
         offset="0"
         style="stop-color:#3FA600" /><a:midPointStop
         offset="0.5"
         style="stop-color:#3FA600" /><a:midPointStop
         offset="1"
         style="stop-color:#008300" /></linearGradient><linearGradient
       inkscape:collect="always"
       xlink:href="#linearGradient1"
       id="linearGradient2"
       x1="52.515255"
       y1="83.787643"
       x2="102.84141"
       y2="235.06218"
       gradientUnits="userSpaceOnUse" /><linearGradient
       inkscape:collect="always"
       xlink:href="#linearGradient4"
       id="linearGradient5"
       x1="43.16869"
       y1="94.619362"
       x2="220.06821"
       y2="170.97055"
       gradientUnits="userSpaceOnUse"
       gradientTransform="translate(0,5.2916667)" /><linearGradient
       inkscape:collect="always"
       xlink:href="#linearGradient7"
       id="linearGradient8"
       x1="82.853554"
       y1="110.11504"
       x2="251.36699"
       y2="213.81561"
       gradientUnits="userSpaceOnUse" /><linearGradient
       inkscape:collect="always"
       xlink:href="#linearGradient9"
       id="linearGradient10"
       x1="110.0799"
       y1="45.966957"
       x2="209.36598"
       y2="194.65266"
       gradientUnits="userSpaceOnUse" /><linearGradient
       inkscape:collect="always"
       xlink:href="#linearGradient6"
       id="linearGradient20"
       gradientUnits="userSpaceOnUse"
       gradientTransform="translate(0,5.2916667)"
       x1="43.16869"
       y1="94.619362"
       x2="220.06821"
       y2="170.97055" /><linearGradient
       inkscape:collect="always"
       xlink:href="#linearGradient7"
       id="linearGradient21"
       gradientUnits="userSpaceOnUse"
       x1="82.853554"
       y1="110.11504"
       x2="251.36699"
       y2="213.81561" /><linearGradient
       inkscape:collect="always"
       xlink:href="#linearGradient9"
       id="linearGradient22"
       gradientUnits="userSpaceOnUse"
       x1="110.0799"
       y1="45.966957"
       x2="209.36598"
       y2="194.65266" /><linearGradient
       inkscape:collect="always"
       xlink:href="#linearGradient11"
       id="linearGradient14"
       x1="60.606758"
       y1="187.50502"
       x2="73.286491"
       y2="95.041725"
       gradientUnits="userSpaceOnUse" /><linearGradient
       inkscape:collect="always"
       xlink:href="#linearGradient15"
       id="linearGradient16"
       x1="100.16369"
       y1="95.159004"
       x2="189.06003"
       y2="184.36139"
       gradientUnits="userSpaceOnUse" /><linearGradient
       inkscape:collect="always"
       xlink:href="#linearGradient17"
       id="linearGradient18"
       x1="55.788521"
       y1="198.5321"
       x2="52.056183"
       y2="92.320793"
       gradientUnits="userSpaceOnUse" /><radialGradient
       inkscape:collect="always"
       xlink:href="#linearGradient13"
       id="radialGradient33"
       cx="123.59527"
       cy="202.965"
       fx="123.59527"
       fy="202.965"
       r="77.682922"
       gradientTransform="matrix(0.91368102,-0.60175708,0.88353753,1.3415238,-196.33068,41.50141)"
       gradientUnits="userSpaceOnUse" /><linearGradient
       id="linearGradient13"
       inkscape:collect="always"><stop
         style="stop-color:#336088;stop-opacity:1;"
         offset="0"
         id="stop13-7" /><stop
         style="stop-color:#7ab8ff;stop-opacity:1;"
         offset="1"
         id="stop14-5" /></linearGradient><radialGradient
       inkscape:collect="always"
       xlink:href="#linearGradient3"
       id="radialGradient12"
       cx="140.28177"
       cy="223.9221"
       fx="140.28177"
       fy="223.9221"
       r="117.54133"
       gradientTransform="matrix(1,0,0,0.26797175,0,163.9173)"
       gradientUnits="userSpaceOnUse" /><linearGradient
       id="linearGradient3"
       inkscape:collect="always"><stop
         style="stop-color:#000000;stop-opacity:0.77268291;"
         offset="0"
         id="stop11-0" /><stop
         style="stop-color:#000000;stop-opacity:0;"
         offset="1"
         id="stop12-9" /></linearGradient><filter
       id="a"
       height="1.0000342"
       width="1.0000092"
       x="-4.5839193e-06"
       y="-1.7106171e-05"><feOffset
         dx="0"
         dy="0"
         in="SourceAlpha"
         result="shadowOffsetOuter1"
         id="feOffset1" /><feGaussianBlur
         in="shadowOffsetOuter1"
         result="shadowBlurOuter1"
         stdDeviation="0.00044899816"
         id="feGaussianBlur1" /></filter><linearGradient
       id="c"
       x1="289.77637"
       x2="291.19351"
       xlink:href="#b"
       y1="138.69225"
       y2="96.78817"
       gradientTransform="scale(0.61576809,1.623988)"
       gradientUnits="userSpaceOnUse" /><linearGradient
       id="b"><stop
         offset="0"
         stop-color="#ffeed7"
         id="stop1-9" /><stop
         offset="1"
         stop-color="#bdbfc2"
         id="stop2-3" /></linearGradient><linearGradient
       id="e"
       x1="104.50885"
       x2="100.18904"
       xlink:href="#d"
       y1="5.6628642"
       y2="51.918793"
       gradientTransform="scale(1.1465328,0.87219488)"
       gradientUnits="userSpaceOnUse" /><linearGradient
       id="d"><stop
         offset="0"
         stop-color="#fff"
         stop-opacity=".8"
         id="stop3-19" /><stop
         offset="1"
         stop-color="#fff"
         stop-opacity="0"
         id="stop4-4" /></linearGradient><linearGradient
       id="f"
       x1="121.74679"
       x2="120.81263"
       xlink:href="#b"
       y1="53.924801"
       y2="35.182899"
       gradientTransform="scale(0.80696645,1.2392089)"
       gradientUnits="userSpaceOnUse" /><linearGradient
       id="g"
       x1="148.08321"
       x2="148.08276"
       xlink:href="#b"
       y1="59.380508"
       y2="37.695564"
       gradientTransform="scale(0.88070839,1.1354496)"
       gradientUnits="userSpaceOnUse" /><linearGradient
       id="i"
       x1="155.58861"
       x2="154.90092"
       xlink:href="#h"
       y1="41.362473"
       y2="49.220295"
       gradientTransform="scale(0.825109,1.2119611)"
       gradientUnits="userSpaceOnUse" /><linearGradient
       id="h"><stop
         offset="0"
         stop-color="#fff"
         stop-opacity=".65"
         id="stop9-3" /><stop
         offset="1"
         stop-color="#fff"
         stop-opacity="0"
         id="stop10-6" /></linearGradient><linearGradient
       id="j"
       x1="123.9845"
       x2="124.62241"
       xlink:href="#h"
       y1="40.584888"
       y2="46.677853"
       gradientTransform="scale(0.78277272,1.27751)"
       gradientUnits="userSpaceOnUse" /><linearGradient
       id="k"
       x1="148.01524"
       x2="148.01524"
       xlink:href="#b"
       y1="182.55482"
       y2="114.0479"
       gradientTransform="scale(0.81292571,1.2301247)"
       gradientUnits="userSpaceOnUse" /><linearGradient
       id="l"
       x1="108.9902"
       x2="101.37504"
       xlink:href="#b"
       y1="156.3929"
       y2="102.29666"
       gradientTransform="scale(0.69274229,1.4435383)"
       gradientUnits="userSpaceOnUse" /><linearGradient
       id="m"
       x1="104.4003"
       x2="104.69366"
       xlink:href="#d"
       y1="144.85883"
       y2="204.60101"
       gradientTransform="scale(1.1078988,0.90260955)"
       gradientUnits="userSpaceOnUse" /><linearGradient
       id="n"
       x1="102.8446"
       x2="103.19609"
       xlink:href="#h"
       y1="110.18868"
       y2="134.55942"
       gradientTransform="scale(1.136719,0.87972488)"
       gradientUnits="userSpaceOnUse" /><linearGradient
       id="o"
       x1="103.1627"
       x2="103.1627"
       xlink:href="#h"
       y1="63.007332"
       y2="108.0084"
       gradientTransform="scale(0.57191183,1.7485213)"
       gradientUnits="userSpaceOnUse" /><linearGradient
       id="p"
       x1="330.86072"
       x2="330.85519"
       xlink:href="#h"
       y1="58.717892"
       y2="99.45192"
       gradientTransform="scale(0.5729452,1.7453676)"
       gradientUnits="userSpaceOnUse" /><linearGradient
       id="r"
       x1="54.49184"
       x2="41.52343"
       xlink:href="#q"
       y1="225.12328"
       y2="269.05219"
       gradientTransform="scale(1.0116266,0.98850702)"
       gradientUnits="userSpaceOnUse" /><linearGradient
       id="q"><stop
         offset="0"
         stop-color="#ffa63f"
         id="stop25-4" /><stop
         offset="1"
         stop-color="#ff0"
         id="stop26-30" /></linearGradient><linearGradient
       id="s"
       x1="181.20529"
       x2="179.43167"
       xlink:href="#b"
       y1="222.52386"
       y2="145.70831"
       gradientTransform="scale(1.0209089,0.97951932)"
       gradientUnits="userSpaceOnUse" /><linearGradient
       id="t"
       x1="180.03931"
       x2="211.41542"
       xlink:href="#q"
       y1="200.21825"
       y2="249.23077"
       gradientTransform="scale(0.95626685,1.0457332)"
       gradientUnits="userSpaceOnUse" /><linearGradient
       id="u"
       x1="224.73553"
       x2="218.79765"
       xlink:href="#h"
       y1="142.26692"
       y2="186.40591"
       gradientTransform="scale(0.81152015,1.2322553)"
       gradientUnits="userSpaceOnUse" /><linearGradient
       id="v"
       x1="53.035789"
       x2="55.101501"
       xlink:href="#h"
       y1="186.02083"
       y2="244.90746"
       gradientTransform="scale(0.98730922,1.0128539)"
       gradientUnits="userSpaceOnUse" /><linearGradient
       id="w"
       x1="172.70966"
       x2="175.56216"
       xlink:href="#h"
       y1="182.05424"
       y2="200.62123"
       gradientTransform="scale(1.0442251,0.95764792)"
       gradientUnits="userSpaceOnUse" /><linearGradient
       id="x"
       x1="95.570847"
       x2="95.991547"
       xlink:href="#q"
       y1="77.674019"
       y2="119.35325"
       gradientTransform="scale(1.210709,0.82596234)"
       gradientUnits="userSpaceOnUse" /><linearGradient
       id="y"
       x1="89.542679"
       x2="89.431244"
       xlink:href="#h"
       y1="78.12915"
       y2="98.910095"
       gradientTransform="scale(1.2523967,0.79846905)"
       gradientUnits="userSpaceOnUse" /></defs><sodipodi:namedview
     id="base"
     pagecolor="#ffffff"
     bordercolor="#000000"
     borderopacity="0.3"
     inkscape:pageopacity="0.0"
     inkscape:pageshadow="2"
     inkscape:zoom="0.98994949"
     inkscape:cx="505.07627"
     inkscape:cy="476.792"
     inkscape:document-units="mm"
     inkscape:showpageshadow="2"
     inkscape:pagecheckerboard="0"
     inkscape:deskcolor="#d1d1d1"
     inkscape:current-layer="svg1"
     showguides="true"><sodipodi:guide
       position="46.49107,121.58221"
       orientation="1,0"
       id="guide16"
       inkscape:locked="false" /><sodipodi:guide
       position="98.651783,154.51339"
       orientation="0,-1"
       id="guide17"
       inkscape:locked="false" /></sodipodi:namedview><metadata
     id="metadata1"><rdf:RDF><cc:Work
         rdf:about=""><dc:format>image/svg+xml</dc:format><dc:type
           rdf:resource="http://purl.org/dc/dcmitype/StillImage" /><cc:license
           rdf:resource="http://creativecommons.org/publicdomain/zero/1.0/" /></cc:Work><cc:License
         rdf:about="http://creativecommons.org/publicdomain/zero/1.0/"><cc:permits
           rdf:resource="http://creativecommons.org/ns#Reproduction" /><cc:permits
           rdf:resource="http://creativecommons.org/ns#Distribution" /><cc:permits
           rdf:resource="http://creativecommons.org/ns#DerivativeWorks" /></cc:License></rdf:RDF></metadata><g
     id="g12"
     inkscape:label="shadowclose"
     style="display:inline"
     transform="matrix(1.0330579,0,0,1.0330579,-2.2035813,8.8493538)"><path
       style="color:#000000;display:inline;fill:#000000;fill-opacity:0.0929705;stroke-width:1.16609;stroke-linecap:round;stroke-linejoin:bevel;-inkscape-stroke:none"
       d="m 16.252978,44.341516 36.105011,-33.002229 61.957981,0.435815 33.87631,31.694784 c 0,0 64.12877,-2.115614 79.86291,-0.435815 24.52209,2.341258 21.16667,32.153051 21.16667,32.153051 l 0.11037,104.144978 c 0.48637,27.64938 -0.40781,45.25999 -29.66029,47.44855 L 36.130614,226.40267 C 11.402737,224.00742 9.4751688,205.49428 10.205359,188.98303 Z"
       id="path12"
       sodipodi:nodetypes="ccccccccccc"
       inkscape:label="shadow" /><path
       style="color:#000000;display:inline;fill:#000000;fill-opacity:0.0929705;stroke-width:1.16609;stroke-linecap:round;stroke-linejoin:bevel;-inkscape-stroke:none"
       d="m 16.252978,44.341516 36.105011,-33.002229 56.288341,0.435815 33.87631,31.694784 c 0,0 63.81419,-0.815135 78.72898,4.477875 25.40122,6.806235 21.73362,28.37329 21.73362,28.37329 l 0.65315,100.365219 c 0.15291,23.49695 -2.94787,40.38154 -25.10037,41.77891 L 41.044304,220.35505 C 21.259354,217.1328 10.22349,205.93759 10.205359,188.98303 Z"
       id="path14"
       sodipodi:nodetypes="ccccccscccc"
       inkscape:label="shadow" /><path
       style="color:#000000;display:inline;fill:#000000;fill-opacity:0.0929705;stroke-width:1.16609;stroke-linecap:round;stroke-linejoin:bevel;-inkscape-stroke:none"
       d="m 16.252978,44.341516 36.105011,-33.002229 50.240721,-0.698114 33.87631,31.694784 c 0,0 55.26431,0.640556 80.99684,9.391566 12.38959,4.213398 19.15438,6.906208 19.65476,18.545909 1.39024,32.339248 3.27511,68.180748 2.34194,102.255098 -0.25256,9.22222 -2.31668,19.70368 -4.68414,27.65066 -2.70543,9.08145 -10.52594,12.93783 -21.91604,11.86039 L 43.312161,211.6616 c -14.52793,-0.076 -31.881718,-7.49369 -33.106802,-22.67857 z"
       id="path15"
       sodipodi:nodetypes="ccccsssscccc"
       inkscape:label="shadow" /><path
       style="color:#000000;display:inline;fill:#000000;fill-opacity:0.0929705;stroke-width:1.16609;stroke-linecap:round;stroke-linejoin:bevel;-inkscape-stroke:none"
       d="m 16.252978,44.341516 36.105011,-33.002229 48.236201,0.237329 31.20361,31.29388 c 0,0 56.89843,-2.363022 81.26411,9.926105 21.18433,10.684576 18.6584,27.170577 18.6584,27.170577 l 2.7121,92.195472 c 0,32.74973 -5.17276,36.66642 -30.25748,35.15222 L 42.367221,204.29106 c -13.969449,0.1705 -30.178506,-3.91126 -32.161862,-19.45071 z"
       id="path16"
       sodipodi:nodetypes="ccccscccccc"
       inkscape:label="shadow" /></g><g
     id="g13"
     inkscape:label="shadowopen"
     style="display:none"
     transform="matrix(1.0068174,0,0,1.0068174,-1.9389142,9.1285845)"><path
       style="color:#000000;display:inline;fill:#000000;fill-opacity:0.0929705;stroke-width:1.16609;stroke-linecap:round;stroke-linejoin:bevel;-inkscape-stroke:none"
       d="m 16.252978,44.341516 36.105011,-33.002229 73.183301,0.435815 33.87631,31.694784 c 0,0 40.06412,5.288391 60.8358,7.390766 19.90983,2.015143 34.77394,20.150305 34.00533,42.193175 -0.41964,12.034643 0.54567,36.121743 0.54567,36.121743 l -0.36685,29.84405 c -3.37229,55.09309 -15.97567,67.3805 -34.76561,67.76103 -54.79223,1.10965 -100.65039,3.04728 -156.705016,2.26785 C 26.62644,228.5432 10.961311,193.51874 10.961311,193.51874 Z"
       id="path13"
       sodipodi:nodetypes="ccccssccsscc"
       inkscape:label="shadow" /><path
       style="color:#000000;display:inline;fill:#000000;fill-opacity:0.0929705;stroke-width:1.16609;stroke-linecap:round;stroke-linejoin:bevel;-inkscape-stroke:none"
       d="m 16.252978,44.341516 36.105011,-33.002229 62.492521,0.435815 33.87631,31.694784 c 0,0 43.43472,9.086572 65.43036,8.651349 17.27416,-0.3418 40.22607,21.832063 40.10155,40.932592 -0.12988,19.923203 -0.87504,24.665753 -1.88892,46.375883 -2.14937,46.02402 -10.40288,78.69306 -36.97418,78.79832 0,0 -117.138269,5.09652 -174.454164,0.69109 -14.259757,-1.09604 -30.736107,-29.93609 -30.736107,-29.93609 z"
       id="path22"
       sodipodi:nodetypes="ccccssssscc"
       inkscape:label="shadow" /><path
       style="color:#000000;display:inline;fill:#000000;fill-opacity:0.124717;stroke-width:1.16609;stroke-linecap:round;stroke-linejoin:bevel;-inkscape-stroke:none"
       d="m 16.252978,44.341516 36.105011,-33.002229 57.147131,0.435815 33.87631,31.694784 c 0,0 43.12388,9.373494 64.91712,9.407302 20.39888,0.03164 46.66344,25.415249 47.41707,45.783098 0.82469,22.288574 -6.28806,65.998724 -7.13024,69.814724 -5.87003,26.59754 -3.56567,35.68331 -38.53514,43.33855 0,0 -110.978839,8.49353 -166.970618,1.22563 -13.465677,-1.74788 -32.874263,-24.05616 -32.874263,-24.05616 z"
       id="path23"
       sodipodi:nodetypes="ccccssscscc"
       inkscape:label="shadow" /><path
       style="color:#000000;display:inline;fill:url(#linearGradient16);stroke-width:1.16609;stroke-linecap:round;stroke-linejoin:bevel;-inkscape-stroke:none"
       d="m 16.252978,44.341516 36.105011,-33.002229 50.732661,0.435815 33.87631,31.694784 72.37937,13.462201 c 0,0 30.91772,5.843599 38.11483,12.001167 9.82151,8.402891 11.79254,44.628786 -9.44459,97.064406 -21.23714,52.43562 -15.70419,40.42994 -76.98295,40.56311 0,0 -56.11246,0.17817 -111.852655,-0.27603 -13.55581,-0.11047 -38.975606,-17.30171 -38.975606,-17.30171 z"
       id="path24"
       sodipodi:nodetypes="cccccszcscc"
       inkscape:label="shadow" /></g><g
     id="rect1"
     style="display:inline"
     inkscape:label="back"
     transform="matrix(1.0272988,0,0,1.0272988,-2.0291602,8.9067299)"><path
       style="color:#000000;fill:url(#linearGradient2);stroke-linecap:round;stroke-linejoin:bevel;-inkscape-stroke:none"
       d="m 12.095239,51.404763 30.616074,-32.883928 52.538689,0.377976 28.726198,31.75 78.61905,-0.377976 V 176.85026 H 12.095239 Z"
       id="path2"
       sodipodi:nodetypes="cccccccc" /><path
       id="rect3"
       style="display:inline;fill:#ffffff;stroke-width:15.377;stroke-linecap:round;stroke-linejoin:bevel"
       d="m 17.639788,55.324789 28.330568,-30.468726 45.435817,0.534539 29.934187,31.270535 75.10273,-0.26727 v 14.432554 l -80.01642,0.26727 -30.150038,-31.270535 -35.927125,0.26727 -33.244258,36.138369 z"
       sodipodi:nodetypes="ccccccccccc" /><path
       style="color:#000000;fill:#cea221;stroke-linecap:round;stroke-linejoin:bevel;-inkscape-stroke:none"
       d="M 42.767578,10.832031 37.083984,13.28125 6.46875,46.166016 4.40625,51.404297 V 176.84951 c 0.9154791,4.21083 2.5425773,7.71003 7.689453,7.68946 H 202.5957 l 7.6875,-7.68946 V 50.271484 c 0.24504,-4.443094 -1.57408,-7.510076 -7.72461,-7.689453 l -75.18554,0.361328 -26.42188,-29.203125 -5.646483,-2.529296 z m 3.267578,15.402344 45.78125,0.328125 26.458984,29.244141 5.73828,2.53125 70.89258,-0.341797 V 169.16201 H 19.783203 V 54.431641 Z"
       id="path3"
       sodipodi:nodetypes="ccccccccccccccccccccccc" /></g><g
     id="g22"
     inkscape:label="arrow"
     transform="matrix(1.0636808,0,0,-1.0636808,-32.811396,257.09451)"><g
       id="g15"
       inkscape:label="shadow"><path
         id="path22-1"
         style="display:inline;opacity:0.774005;fill:#000000;fill-opacity:0.0936374;stroke:none;stroke-width:3.7202;stroke-linecap:square;stroke-linejoin:miter;stroke-dasharray:none;stroke-opacity:1"
         d="m 127.31463,107.88844 75.81131,82.31335 -37.7134,0.0537 -0.12278,45.74864 -76.425807,0.0627 -0.0517,-45.62933 -37.761632,-0.1332 z"
         sodipodi:nodetypes="cccccccc" /><path
         id="path20-9"
         style="display:inline;opacity:0.774005;fill:#000000;fill-opacity:0.0936374;stroke:none;stroke-width:3.7202;stroke-linecap:square;stroke-linejoin:miter;stroke-dasharray:none;stroke-opacity:1"
         d="m 126.10391,108.88033 75.81131,82.31335 -37.7134,0.0537 -0.12278,45.74864 -76.4258,0.0627 -0.0517,-45.62933 -37.761632,-0.1332 z"
         sodipodi:nodetypes="cccccccc" /><path
         id="path17-2"
         style="display:inline;opacity:0.774005;fill:#000000;fill-opacity:0.0936374;stroke:none;stroke-width:3.7202;stroke-linecap:square;stroke-linejoin:miter;stroke-dasharray:none;stroke-opacity:1"
         d="m 126.10673,109.25204 75.81131,82.31335 -37.7134,0.0537 -0.12278,45.74864 -76.425807,0.0627 -0.0517,-45.62933 -37.761632,-0.1332 z"
         sodipodi:nodetypes="cccccccc" /><path
         id="path16-6"
         style="display:inline;opacity:0.774005;fill:#000000;fill-opacity:0.0936374;stroke:none;stroke-width:3.7202;stroke-linecap:square;stroke-linejoin:miter;stroke-dasharray:none;stroke-opacity:1"
         d="m 125.10447,110.02466 75.81131,82.31335 -37.7134,0.0537 -0.12278,45.74864 -76.425808,0.0627 -0.0517,-45.62933 -37.761632,-0.1332 z"
         sodipodi:nodetypes="cccccccc" /><path
         id="path15-5"
         style="display:inline;opacity:0.774005;fill:#000000;fill-opacity:0.0936374;stroke:none;stroke-width:3.7202;stroke-linecap:square;stroke-linejoin:miter;stroke-dasharray:none;stroke-opacity:1"
         d="m 124.29466,110.74647 75.81131,82.31335 -37.7134,0.0537 -0.12278,45.74864 -76.425807,0.0627 -0.0517,-45.62933 -37.761632,-0.1332 z"
         sodipodi:nodetypes="cccccccc" /><path
         id="path14-3"
         style="display:inline;opacity:0.774005;fill:#000000;fill-opacity:0.158463;stroke:none;stroke-width:3.7202;stroke-linecap:square;stroke-linejoin:miter;stroke-dasharray:none;stroke-opacity:1"
         d="m 123.45093,112.18246 75.81131,82.31335 -37.7134,0.0537 -0.12278,45.74864 -76.425808,0.0627 -0.0517,-45.62933 -37.761632,-0.1332 z"
         sodipodi:nodetypes="cccccccc" /></g><path
       id="rect10"
       style="display:inline;opacity:1;fill:url(#radialGradient33);stroke:#253090;stroke-width:3.6;stroke-linecap:square;stroke-linejoin:miter;stroke-dasharray:none;stroke-opacity:1"
       d="m 121.51934,115.47172 73.36178,79.65373 -36.49485,0.052 -0.11881,44.27046 -73.956418,0.0607 -0.05003,-44.15501 -36.54152,-0.12889 z"
       sodipodi:nodetypes="cccccccc" /></g><g
     id="rect4"
     inkscape:label="close"
     style="display:inline"
     transform="matrix(1.046868,0,0,1.0272988,-6.4097406,12.476083)"><path
       style="color:#000000;fill:url(#linearGradient5);stroke-linejoin:bevel;-inkscape-stroke:none"
       d="m 39.948839,84.560004 h 80.330321 l 28.28539,-14.363095 h 67.59491 V 187.45551 H 39.948839 Z"
       id="path5"
       sodipodi:nodetypes="ccccccc" /><path
       id="rect7"
       style="fill:url(#linearGradient8);stroke-width:15.377;stroke-linejoin:bevel"
       d="M 38.443449,169.44888 H 195.37402 l 0.46773,-73.755263 h 17.3057 c -0.28876,34.032403 2.27179,61.637733 2.27179,95.671363 L 46.728804,187.08867 Z"
       sodipodi:nodetypes="ccccccc" /><path
       id="path7"
       style="display:inline;fill:url(#linearGradient18);stroke-width:15.377;stroke-linecap:round;stroke-linejoin:bevel"
       d="m 46.392076,181.98385 0.07351,-107.391098 102.868614,0.230236 61.47199,1.603617 v 20.312484 h -57.29851 l -88.12199,0.180167 -0.04755,85.323034 z"
       sodipodi:nodetypes="ccccccccc" /><path
       style="color:#000000;fill:url(#linearGradient10);stroke-linejoin:bevel;-inkscape-stroke:none"
       d="m 40.137595,62.33389 c -6.760736,-0.235673 -7.178598,4.309136 -7.6875,8.241352 L 31.694143,187.45508 c 0.674417,4.18151 3.271374,6.71512 7.6875,7.68945 H 216.16016 c 5.83804,0.29423 7.75626,-2.83094 7.6875,-7.68945 V 70.197079 c -0.16186,-5.049533 -2.53805,-7.943617 -7.6875,-7.827428 -58.45149,0 -116.731075,-0.03576 -176.022565,-0.03576 z M 208.4707,77.884579 V 179.76758 H 47.071096 L 47.827048,78.262742 c 59.235472,0.0065 101.404572,-0.378163 160.643652,-0.378163 z"
       id="path6"
       sodipodi:nodetypes="cccccccccccccc" /></g><g
     id="g20"
     inkscape:label="open"
     style="display:none"
     transform="matrix(1.0272988,0,-0.22903094,0.93647609,33.604309,21.96265)"><path
       style="color:#000000;fill:url(#linearGradient20);stroke-linejoin:bevel;-inkscape-stroke:none"
       d="m 22.886951,78.134409 h 97.392209 l 28.28539,-14.363095 h 67.59491 V 187.45551 H 22.886951 Z"
       id="path17" /><path
       id="path18"
       style="fill:url(#linearGradient21);stroke-width:15.377;stroke-linejoin:bevel"
       d="M 21.381561,169.44888 H 195.37402 l 0.46773,-80.180858 h 17.3057 c -0.28876,34.032398 2.27179,68.063328 2.27179,102.096958 L 29.666916,187.08867 Z"
       sodipodi:nodetypes="ccccccc" /><path
       id="path19"
       style="display:inline;fill:url(#linearGradient14);stroke-width:15.377;stroke-linecap:round;stroke-linejoin:bevel"
       d="m 26.196468,77.472204 c 0,0 61.529128,0.829797 93.811602,-0.801808 l 30.71274,-2.053499 61.47199,1.603617 V 96.532998 H 55.486552 c 5.546427,25.710512 7.894291,67.591662 -3.012082,95.226152 l -20.345138,-3.97048 c -1.199998,-29.74052 2.240856,-57.5062 -5.932864,-90.214271 z"
       sodipodi:nodetypes="cccccccccc" /><path
       style="color:#000000;fill:url(#linearGradient22);stroke-linejoin:bevel;-inkscape-stroke:none"
       d="m 149.95106,62.301535 -3.48047,0.833985 C 102.32048,62.548127 63.464386,62.567274 21.130351,62.567274 c -6.756833,-0.830807 -6.851232,3.729475 -7.6875,7.689454 11.672833,51.561032 8.047695,91.093652 4.459577,124.528112 -0.339785,3.16615 4.426923,5.1263 7.6875,7.68945 H 218.86337 c 3.67232,-2.70006 6.52227,-7.72863 8.2627,-15.89878 5.68917,-38.86151 6.4991,-77.72301 -1.8918,-116.584522 -1.05751,-2.362904 -1.02105,-4.580249 -7.6875,-7.689453 z m 1.83985,15.376953 h 58.0664 c 8.73588,37.930492 4.82746,73.639752 1.3166,109.418852 H 33.279381 c 6.637531,-31.51664 5.60206,-72.67072 -4.459577,-109.153112 45.521495,-0.874055 78.037736,0.03645 122.971106,-0.26574 z"
       id="path20"
       sodipodi:nodetypes="ccccscccccccccccc" /></g><g
     fill="none"
     transform="matrix(0.71177696,0,0,0.71177696,79.781292,61.842486)"
     id="g35"><path
       d="m 257.82263,223.9221 c 0,17.35564 -52.6179,31.49727 -117.54085,31.49727 -64.922957,0 -117.540855,-14.0498 -117.540855,-31.49727 0,-17.35564 52.617898,-31.49728 117.540855,-31.49728 64.92295,0 117.44902,14.14164 117.54085,31.49728 z"
       fill="#000000"
       fill-opacity="0.2"
       filter="url(#a)"
       id="path8-4"
       style="fill:url(#radialGradient12);fill-opacity:0.462156;filter:url(#a)"
       transform="matrix(0.64141419,0,0,3.1852672,80.826887,-569.55253)" /><path
       d="M 53.212582,215.4738 C 41.825812,199.12828 39.621921,145.86758 66.160442,113.0847 79.29196,97.381975 82.689625,86.454348 83.699742,71.669913 84.434372,54.865243 71.853827,4.8185507 119.23749,1.0535701 c 48.02645,-3.8568093 45.36342,43.5268479 45.08793,68.5961089 -0.18366,21.120623 15.51907,33.150191 26.35487,49.679381 19.92684,30.3035 18.27393,82.46225 -3.76498,110.74552 -27.91596,35.35409 -51.79144,20.01868 -67.67783,21.30428 -29.752524,1.74475 -30.762641,17.5393 -66.024898,-35.90506 z"
       fill="#000000"
       id="path9-8" /><path
       d="m 169.10052,122.45123 c 8.26459,7.62179 29.6607,41.69028 -4.22413,62.99456 -11.93774,7.43813 10.65214,35.7214 21.48794,22.03891 19.19222,-24.61012 6.97899,-63.91284 -4.59144,-77.96265 -7.71362,-9.91751 -19.65136,-13.77432 -12.67237,-7.07082 z"
       fill="url(#c)"
       id="path10-7"
       style="fill:url(#c)" /><path
       d="m 166.8048,117.8598 c 13.59066,11.01945 38.29261,49.58754 2.20389,74.74863 -11.84591,7.80545 10.46848,32.5074 23.04903,19.92685 43.61867,-43.89416 -1.10195,-94.30817 -16.52919,-111.66381 -13.77431,-15.151752 -25.98754,3.48949 -8.72373,16.98833 z"
       fill="#000000"
       stroke="#000000"
       stroke-width="0.9773"
       id="path11-1" /><path
       d="M 147.24527,25.020885 C 146.78612,37.60143 132.91998,48.529056 116.29896,49.539173 99.677952,50.54929 86.638263,40.999095 87.097407,28.418551 87.556551,15.838006 101.4227,4.9103795 118.04371,3.9002627 c 16.62101,-0.9182879 29.6607,8.5400783 29.20156,21.1206223 z"
       fill="url(#e)"
       id="path12-7"
       style="fill:url(#e)" /><path
       d="m 107.4834,54.957072 c 0.45914,8.172763 -3.39767,15.059922 -8.723736,15.335409 -5.32607,0.275486 -10.009339,-6.060701 -10.468483,-14.233463 -0.459144,-8.172763 3.397666,-15.059923 8.723736,-15.335409 5.326073,-0.275486 10.009333,6.0607 10.468483,14.233463 z"
       fill="url(#f)"
       id="path13-2"
       style="fill:url(#f)" /><path
       d="m 117.12542,55.599874 c 0.18366,9.458365 6.33619,16.988326 13.68249,16.804669 7.34631,-0.183658 13.13152,-7.989105 12.94786,-17.5393 -0.18366,-9.458366 -6.33618,-16.988327 -13.68249,-16.804669 -7.3463,0.183658 -13.22334,8.080934 -12.94786,17.5393 z"
       fill="url(#g)"
       id="path14-7"
       style="fill:url(#g)" /><path
       d="m 123.18612,57.711936 c -0.0918,5.234241 2.47938,9.458366 5.87705,9.458366 3.30583,0 6.15252,-4.224125 6.24435,-9.366537 0.0918,-5.234242 -2.47937,-9.458366 -5.87704,-9.458366 -3.39766,0 -6.15253,4.224124 -6.24436,9.366537 z"
       fill="#000000"
       id="path15-2" /><path
       d="m 101.97367,57.803765 c 0.45915,4.315953 -1.19377,7.989105 -3.581321,8.35642 -2.387549,0.275486 -4.683269,-2.938521 -5.142413,-7.254475 -0.459144,-4.315953 1.193774,-7.989105 3.581323,-8.35642 2.387549,-0.275486 4.683271,2.938521 5.142411,7.254475 z"
       fill="#000000"
       id="path16-2" /><path
       d="m 124.56355,54.773414 c -0.27548,2.938522 1.10195,5.326071 3.03035,5.509728 1.92841,0.183658 3.76499,-2.112062 4.04047,-4.958755 0.27549,-2.938521 -1.10194,-5.32607 -3.03035,-5.509727 -1.9284,-0.183658 -3.76498,2.112062 -4.04047,4.958754 z"
       fill="url(#i)"
       id="path17-6"
       style="fill:url(#i)" /><path
       d="m 99.953438,55.508045 c 0.275492,2.387549 -0.73463,4.499611 -2.203891,4.683268 -1.469261,0.183658 -2.846692,-1.652918 -3.122179,-4.132295 -0.275486,-2.387549 0.73463,-4.499611 2.203891,-4.683269 1.469261,-0.183657 2.846693,1.744747 3.122179,4.132296 z"
       fill="url(#j)"
       id="path18-1"
       style="fill:url(#j)" /><path
       d="m 71.027368,145.68392 c 6.519844,-14.78444 20.385992,-40.77198 20.661479,-60.88249 0,-15.97821 47.842803,-19.835019 51.699613,-3.856809 3.85681,15.97821 13.59066,39.853699 19.83502,51.424129 6.24435,11.47859 24.33463,48.11828 5.05058,80.0747 -17.35564,28.28327 -69.97354,50.6895 -98.073151,-3.85681 -9.550195,-18.91673 -7.805448,-42.33307 0.826459,-62.90272 z"
       fill="url(#k)"
       id="path19-0"
       style="fill:url(#k)" /><path
       d="m 65.150325,134.66446 c -5.601556,10.56032 -17.171984,38.29261 11.111284,53.44436 30.395331,16.16187 30.303501,49.31206 -6.244358,33.51751 -33.425681,-14.23346 -18.641245,-71.90194 -9.274708,-85.67626 6.060701,-9.64203 15.24358,-21.48794 4.407782,-1.28561 z"
       fill="url(#l)"
       id="path20-6"
       style="fill:url(#l)" /><path
       d="m 69.925423,122.72672 c -8.907393,14.50895 -30.211674,48.66926 -1.652919,66.48405 38.384436,23.6 27.548638,47.10817 -7.529961,25.89572 -49.403891,-29.56887 -5.968871,-89.25759 13.774319,-112.03113 22.589884,-25.528405 4.315954,4.68327 -4.591439,19.65136 z"
       fill="#000000"
       stroke="#000000"
       stroke-width="1.25"
       id="path21-1" /><path
       d="m 156.42815,151.28548 c 0,16.16186 -15.51907,37.09883 -42.14942,36.91517 -27.456809,0.18366 -39.119066,-20.75331 -39.119066,-36.91517 0,-16.16187 18.182101,-29.29339 40.588326,-29.29339 22.49805,0.0918 40.68016,13.13152 40.68016,29.29339 z"
       fill="url(#m)"
       id="path22-5"
       style="fill:url(#m)" /><path
       d="m 141.9192,100.50415 c -0.27549,16.71284 -11.20312,20.66148 -24.97743,20.66148 -13.77432,0 -23.783663,-2.47937 -24.977437,-20.66148 0,-11.386767 11.203117,-17.99844 24.977437,-17.99844 13.77431,-0.09183 24.97743,6.519845 24.97743,17.99844 z"
       fill="url(#n)"
       id="path23-94"
       style="fill:url(#n)" /><path
       d="m 58.630481,126.21622 c 8.999222,-13.68249 28.007782,-34.711288 3.581323,2.93852 -19.83502,31.03813 -7.346304,50.96498 -0.918288,56.47471 18.549416,16.52918 17.814786,27.64046 3.214008,18.91673 -31.313619,-18.64125 -24.793775,-50.0467 -5.877043,-78.32996 z"
       fill="url(#o)"
       id="path24-9"
       style="fill:url(#o)" /><path
       d="m 188.93554,131.81777 c -7.80545,-16.07004 -32.59922,-56.842021 1.19377,-9.45836 30.76265,42.88404 9.18288,72.7284 5.32607,75.66692 -3.85681,2.93852 -16.80467,8.9074 -13.03969,-1.46926 3.85681,-10.37665 22.9572,-30.02801 6.51985,-64.7393 z"
       fill="url(#p)"
       id="path25-0"
       style="fill:url(#p)" /><path
       d="M 51.83515,258.54151 C 31.2655,247.61388 1.4211424,260.65357 12.25694,231.0847 c 2.203891,-6.7035 -3.2140077,-16.80467 0.275487,-23.32451 4.132295,-7.98911 13.039688,-6.24436 18.365758,-11.57043 5.234241,-5.50973 8.540078,-15.05992 18.365759,-13.59066 9.733852,1.46926 16.253696,13.407 23.049027,28.09961 5.050584,10.46848 22.86537,25.25292 21.671595,37.007 -1.46926,17.99844 -21.947081,21.39611 -42.149416,10.8358 z"
       fill="url(#r)"
       stroke="#e68c3f"
       stroke-width="6.25"
       id="path26-9"
       style="fill:url(#r)" /><path
       d="m 201.60791,189.11894 c -3.12218,5.87704 -16.16187,15.33541 -24.8856,12.85603 -8.81556,-2.38755 -12.85603,-15.79455 -11.11128,-25.98755 1.65291,-11.38677 11.11128,-12.02957 23.04902,-6.33618 12.85603,6.33618 16.71284,11.66225 12.94786,19.4677 z"
       fill="url(#s)"
       id="path27-1"
       style="fill:url(#s)" /><path
       d="m 194.44527,253.49092 c 15.05992,-18.27393 48.57743,-14.50895 25.98755,-39.57821 -4.7751,-5.4179 -3.30584,-16.98832 -9.18288,-21.94708 -6.88716,-6.0607 -14.50895,-1.10194 -21.48794,-4.22412 -6.97899,-3.39767 -14.32529,-9.91751 -22.86537,-5.32607 -8.54008,4.68327 -9.45837,16.80467 -10.28483,32.78288 -0.73463,11.4786 -11.20311,30.67081 -5.60155,41.23113 8.08093,16.34552 29.10972,14.14163 43.43502,-2.93853 z"
       fill="url(#t)"
       stroke="#e68c3f"
       stroke-width="6.2507"
       id="path28-7"
       style="fill:url(#t)" /><path
       d="m 187.92542,229.06447 c 23.32452,-34.4358 5.96887,-34.16032 0.0918,-36.82335 -5.87704,-2.75486 -12.02957,-8.17276 -18.91673,-4.40778 -6.88716,3.85681 -7.25448,13.77432 -7.43813,26.814 -0.27549,9.36654 -8.08094,25.06927 -3.39767,33.793 5.69339,10.193 19.46771,-4.59144 29.6607,-19.37587 z"
       fill="url(#u)"
       id="path29-7"
       style="fill:url(#u)" /><path
       d="m 47.060053,234.02322 c -34.894942,-22.58988 -18.549416,-30.3035 -13.315175,-33.88483 6.336187,-4.59144 6.428015,-13.407 14.233463,-12.58054 7.805447,0.82646 12.396887,10.46848 17.631128,22.40623 3.85681,8.54007 17.263814,19.92684 16.253697,29.75253 -1.285603,11.57042 -19.743191,3.94863 -34.803113,-5.69339 z"
       fill="url(#v)"
       id="path30-1"
       style="fill:url(#v)" /><path
       d="m 199.58768,188.84345 c -2.75486,4.7751 -13.95798,12.30506 -21.39611,10.28483 -7.62179,-1.92841 -11.11128,-12.67237 -9.55019,-20.75331 1.37743,-9.18288 9.55019,-9.64202 19.83501,-5.05058 10.92763,4.95875 14.3253,9.18288 11.11129,15.51906 z"
       fill="#000000"
       id="path31-1" /><path
       d="m 192.05772,186.18042 c -1.74475,3.30583 -9.09105,8.54008 -14.23347,7.16264 -5.14241,-1.37743 -7.71361,-8.81556 -6.88715,-14.41712 0.73463,-6.33618 6.24435,-6.7035 13.22334,-3.58132 7.52996,3.48949 9.91751,6.42802 7.89728,10.8358 z"
       fill="url(#w)"
       id="path32-5"
       style="fill:url(#w)" /><path
       d="m 97.106746,66.343842 c 3.673154,-3.397665 12.580544,-13.774319 29.477044,-2.938521 3.12218,2.020234 5.69338,2.203891 11.66225,4.775097 12.02958,4.958755 6.33619,16.896498 -6.51984,20.936965 -5.50973,1.744747 -10.46848,8.448249 -20.38599,7.805448 C 102.80013,96.463687 100.59624,90.86213 95.361998,87.83178 86.08729,82.597539 84.709858,75.526722 89.760442,71.761741 c 5.050584,-3.76498 6.978988,-5.142412 7.346304,-5.417899 z"
       fill="url(#x)"
       stroke="#e68c3f"
       stroke-width="3.75"
       id="path33-9"
       style="fill:url(#x)" /><path
       d="m 138.4297,75.985866 c -5.05058,0.275486 -15.97821,11.203113 -27.45681,11.203113 -11.478596,0 -18.365755,-10.65214 -20.110503,-10.65214"
       stroke="#e68c3f"
       stroke-width="2.5"
       id="path34-7" /><path
       d="m 102.80013,65.425555 c 1.83658,-1.652919 7.62179,-6.15253 15.24358,-1.56109 1.65292,0.918288 3.30584,1.928405 5.69339,3.305837 4.86692,2.846692 2.47937,6.978988 -3.39767,9.550194 -2.66303,1.101946 -7.07082,3.489494 -10.37665,3.305837 -3.67316,-0.367315 -6.15253,-2.754864 -8.54008,-4.315953 -4.499612,-2.938522 -4.224126,-5.417899 -2.112063,-7.346304 1.561093,-1.469261 3.305833,-2.846693 3.489493,-2.938521 z"
       fill="url(#y)"
       id="path35-7"
       style="fill:url(#y)" /></g></svg>
