<?xml version="1.0" encoding="UTF-8" standalone="no"?>
<!-- Created with Inkscape (http://www.inkscape.org/) -->

<svg
   width="256mm"
   height="256mm"
   viewBox="0 0 256 256"
   version="1.1"
   id="svg1"
   inkscape:version="1.3.2 (091e20ef0f, 2023-11-25)"
   xml:space="preserve"
   sodipodi:docname="folder-important-symbolic.svg"
   xmlns:inkscape="http://www.inkscape.org/namespaces/inkscape"
   xmlns:sodipodi="http://sodipodi.sourceforge.net/DTD/sodipodi-0.dtd"
   xmlns:xlink="http://www.w3.org/1999/xlink"
   xmlns="http://www.w3.org/2000/svg"
   xmlns:svg="http://www.w3.org/2000/svg"
   xmlns:rdf="http://www.w3.org/1999/02/22-rdf-syntax-ns#"
   xmlns:cc="http://creativecommons.org/ns#"
   xmlns:dc="http://purl.org/dc/elements/1.1/"
   xmlns:a="http://ns.adobe.com/AdobeSVGViewerExtensions/3.0/"><defs
     id="defs1"><linearGradient
       id="linearGradient17"
       inkscape:collect="always"><stop
         style="stop-color:#ffffff;stop-opacity:0.04790419;"
         offset="0"
         id="stop17" /><stop
         style="stop-color:#ffffff;stop-opacity:0.68585366;"
         offset="1"
         id="stop18" /></linearGradient><linearGradient
       id="linearGradient15"
       inkscape:collect="always"><stop
         style="stop-color:#000000;stop-opacity:0.13173653;"
         offset="0"
         id="stop15" /><stop
         style="stop-color:#000000;stop-opacity:0.40269461;"
         offset="1"
         id="stop16" /></linearGradient><linearGradient
       id="linearGradient11"
       inkscape:collect="always"><stop
         style="stop-color:#ffffff;stop-opacity:0.13772455;"
         offset="0"
         id="stop13" /><stop
         style="stop-color:#ffffff;stop-opacity:1;"
         offset="1"
         id="stop14" /></linearGradient><linearGradient
       id="linearGradient6"
       inkscape:collect="always"><stop
         style="stop-color:#ffee8d;stop-opacity:0.73209548;"
         offset="0"
         id="stop3" /><stop
         style="stop-color:#f7e714;stop-opacity:0.37125748;"
         offset="1"
         id="stop6" /></linearGradient><linearGradient
       id="linearGradient9"
       inkscape:collect="always"><stop
         style="stop-color:#cea221;stop-opacity:1;"
         offset="0"
         id="stop9" /><stop
         style="stop-color:#cea221;stop-opacity:1;"
         offset="0.35811982"
         id="stop11" /><stop
         style="stop-color:#a38118;stop-opacity:1;"
         offset="0.48275998"
         id="stop12" /><stop
         style="stop-color:#765d13;stop-opacity:1;"
         offset="1"
         id="stop10" /></linearGradient><linearGradient
       id="linearGradient7"
       inkscape:collect="always"><stop
         style="stop-color:#000000;stop-opacity:0.18302387;"
         offset="0"
         id="stop7" /><stop
         style="stop-color:#b7b7b7;stop-opacity:0.18832891;"
         offset="1"
         id="stop8" /></linearGradient><linearGradient
       id="linearGradient4"
       inkscape:collect="always"><stop
         style="stop-color:#ffee8d;stop-opacity:0.73209548;"
         offset="0"
         id="stop4" /><stop
         style="stop-color:#d6bc48;stop-opacity:0.61803716;"
         offset="1"
         id="stop5" /></linearGradient><linearGradient
       id="linearGradient1"
       inkscape:collect="always"><stop
         style="stop-color:#ffeb9b;stop-opacity:1;"
         offset="0"
         id="stop1" /><stop
         style="stop-color:#c2a000;stop-opacity:1;"
         offset="1"
         id="stop2" /></linearGradient><linearGradient
       id="path3_3_"
       gradientUnits="userSpaceOnUse"
       x1="57.324699"
       y1="46.403801"
       x2="83.153503"
       y2="46.403801"><stop
         offset="0"
         style="stop-color:rgb(255,255,255)"
         id="stop8-0" /><stop
         offset="1"
         style="stop-color:rgb(223,223,236)"
         id="stop9-9" /><a:midPointStop
         offset="0"
         style="stop-color:#FFFFFF" /><a:midPointStop
         offset="0.5"
         style="stop-color:#FFFFFF" /><a:midPointStop
         offset="1"
         style="stop-color:#DFDFEC" /></linearGradient><linearGradient
       id="XMLID_4_-3-7"
       gradientUnits="userSpaceOnUse"
       x1="32.8545"
       y1="17.5103"
       x2="90.494102"
       y2="85.498703"><stop
         offset="0"
         style="stop-color:rgb(217,217,217)"
         id="stop10-6-6" /><stop
         offset="1"
         style="stop-color:rgb(87,87,151)"
         id="stop11-06" /><a:midPointStop
         offset="0"
         style="stop-color:#D9D9D9" /><a:midPointStop
         offset="0.5"
         style="stop-color:#D9D9D9" /><a:midPointStop
         offset="1"
         style="stop-color:#575797" /></linearGradient><linearGradient
       id="path11_3_"
       gradientUnits="userSpaceOnUse"
       x1="55.0952"
       y1="78.122101"
       x2="88.283401"
       y2="44.933899"><stop
         offset="0"
         style="stop-color:rgb(255,255,255)"
         id="stop12-2" /><stop
         offset="1"
         style="stop-color:rgb(223,223,236)"
         id="stop13-6" /><a:midPointStop
         offset="0"
         style="stop-color:#FFFFFF" /><a:midPointStop
         offset="0.5"
         style="stop-color:#FFFFFF" /><a:midPointStop
         offset="1"
         style="stop-color:#DFDFEC" /></linearGradient><linearGradient
       id="path16_3_"
       gradientUnits="userSpaceOnUse"
       x1="76.635696"
       y1="27.1621"
       x2="81.575798"
       y2="22.468901"><stop
         offset="0"
         style="stop-color:rgb(255,255,255)"
         id="stop14-1" /><stop
         offset="1"
         style="stop-color:rgb(223,223,236)"
         id="stop15-8-4" /><a:midPointStop
         offset="0"
         style="stop-color:#FFFFFF" /><a:midPointStop
         offset="0.5"
         style="stop-color:#FFFFFF" /><a:midPointStop
         offset="1"
         style="stop-color:#DFDFEC" /></linearGradient><linearGradient
       id="XMLID_5_-7"
       gradientUnits="userSpaceOnUse"
       x1="53.142101"
       y1="0.1851"
       x2="113.11"
       y2="70.919998"><stop
         offset="0"
         style="stop-color:rgb(217,217,217)"
         id="stop16-9-3" /><stop
         offset="1"
         style="stop-color:rgb(87,87,151)"
         id="stop17-2" /><a:midPointStop
         offset="0"
         style="stop-color:#D9D9D9" /><a:midPointStop
         offset="0.5"
         style="stop-color:#D9D9D9" /><a:midPointStop
         offset="1"
         style="stop-color:#575797" /></linearGradient><linearGradient
       id="XMLID_6_-7"
       gradientUnits="userSpaceOnUse"
       x1="65.5215"
       y1="109.3271"
       x2="65.5215"
       y2="46.861301"><stop
         offset="0"
         style="stop-color:#3FA600"
         id="stop14-2" /><stop
         offset="1"
         style="stop-color:#008300"
         id="stop15-4" /><a:midPointStop
         offset="0"
         style="stop-color:#3FA600" /><a:midPointStop
         offset="0.5"
         style="stop-color:#3FA600" /><a:midPointStop
         offset="1"
         style="stop-color:#008300" /></linearGradient><linearGradient
       inkscape:collect="always"
       xlink:href="#linearGradient1"
       id="linearGradient2"
       x1="52.515255"
       y1="83.787643"
       x2="102.84141"
       y2="235.06218"
       gradientUnits="userSpaceOnUse" /><linearGradient
       inkscape:collect="always"
       xlink:href="#linearGradient4"
       id="linearGradient5"
       x1="43.16869"
       y1="94.619362"
       x2="220.06821"
       y2="170.97055"
       gradientUnits="userSpaceOnUse"
       gradientTransform="translate(0,5.2916667)" /><linearGradient
       inkscape:collect="always"
       xlink:href="#linearGradient7"
       id="linearGradient8"
       x1="82.853554"
       y1="110.11504"
       x2="251.36699"
       y2="213.81561"
       gradientUnits="userSpaceOnUse" /><linearGradient
       inkscape:collect="always"
       xlink:href="#linearGradient9"
       id="linearGradient10"
       x1="110.0799"
       y1="45.966957"
       x2="209.36598"
       y2="194.65266"
       gradientUnits="userSpaceOnUse" /><linearGradient
       inkscape:collect="always"
       xlink:href="#linearGradient6"
       id="linearGradient20"
       gradientUnits="userSpaceOnUse"
       gradientTransform="translate(0,5.2916667)"
       x1="43.16869"
       y1="94.619362"
       x2="220.06821"
       y2="170.97055" /><linearGradient
       inkscape:collect="always"
       xlink:href="#linearGradient7"
       id="linearGradient21"
       gradientUnits="userSpaceOnUse"
       x1="82.853554"
       y1="110.11504"
       x2="251.36699"
       y2="213.81561" /><linearGradient
       inkscape:collect="always"
       xlink:href="#linearGradient9"
       id="linearGradient22"
       gradientUnits="userSpaceOnUse"
       x1="110.0799"
       y1="45.966957"
       x2="209.36598"
       y2="194.65266" /><linearGradient
       inkscape:collect="always"
       xlink:href="#linearGradient11"
       id="linearGradient14"
       x1="60.606758"
       y1="187.50502"
       x2="73.286491"
       y2="95.041725"
       gradientUnits="userSpaceOnUse" /><linearGradient
       inkscape:collect="always"
       xlink:href="#linearGradient15"
       id="linearGradient16"
       x1="100.16369"
       y1="95.159004"
       x2="189.06003"
       y2="184.36139"
       gradientUnits="userSpaceOnUse" /><linearGradient
       inkscape:collect="always"
       xlink:href="#linearGradient17"
       id="linearGradient18"
       x1="55.788521"
       y1="198.5321"
       x2="52.056183"
       y2="92.320793"
       gradientUnits="userSpaceOnUse" /><linearGradient
       inkscape:collect="always"
       xlink:href="#linearGradient3"
       id="linearGradient127"
       x1="25.925138"
       y1="24.722431"
       x2="55.59206"
       y2="24.722431"
       gradientUnits="userSpaceOnUse"
       gradientTransform="translate(-8.0180859,-0.53453906)" /><linearGradient
       id="linearGradient3"
       inkscape:collect="always"><stop
         style="stop-color:#ddb16f;stop-opacity:1;"
         offset="0"
         id="stop19" /><stop
         style="stop-color:#9c6a47;stop-opacity:1;"
         offset="1"
         id="stop20" /></linearGradient><linearGradient
       inkscape:collect="always"
       xlink:href="#linearGradient24"
       id="linearGradient128"
       x1="117.5987"
       y1="1.8706772"
       x2="113.32238"
       y2="254.17311"
       gradientUnits="userSpaceOnUse" /><linearGradient
       id="linearGradient24"
       inkscape:collect="always"><stop
         style="stop-color:#000000;stop-opacity:0;"
         offset="0"
         id="stop128" /><stop
         style="stop-color:#000000;stop-opacity:0.54617834;"
         offset="0.03184233"
         id="stop129" /><stop
         style="stop-color:#000000;stop-opacity:0.40445861;"
         offset="0.0773801"
         id="stop130" /><stop
         style="stop-color:#000000;stop-opacity:0.42356688;"
         offset="0.12079983"
         id="stop131" /><stop
         style="stop-color:#979797;stop-opacity:0.61783439;"
         offset="0.15874496"
         id="stop132" /><stop
         style="stop-color:#ffffff;stop-opacity:0.8566879;"
         offset="0.16725302"
         id="stop133" /><stop
         style="stop-color:#7a7a7a;stop-opacity:0.54936308;"
         offset="0.18854107"
         id="stop134" /><stop
         style="stop-color:#000000;stop-opacity:0.65605098;"
         offset="0.35807365"
         id="stop135" /><stop
         style="stop-color:#000000;stop-opacity:0.60031849;"
         offset="0.96875"
         id="stop136" /><stop
         style="stop-color:#010101;stop-opacity:0.58439493;"
         offset="1"
         id="stop137" /></linearGradient><linearGradient
       inkscape:collect="always"
       xlink:href="#linearGradient13-2"
       id="linearGradient129"
       gradientUnits="userSpaceOnUse"
       x1="282.32632"
       y1="28.264606"
       x2="325.64594"
       y2="43.894379" /><linearGradient
       id="linearGradient13-2"
       inkscape:collect="always"><stop
         style="stop-color:#2e210f;stop-opacity:1;"
         offset="0"
         id="stop13-0" /><stop
         style="stop-color:#7b3408;stop-opacity:1;"
         offset="1"
         id="stop14-61" /></linearGradient><linearGradient
       inkscape:collect="always"
       xlink:href="#linearGradient11-5"
       id="linearGradient130"
       gradientUnits="userSpaceOnUse"
       x1="206.27415"
       y1="-21.715059"
       x2="300.53143"
       y2="12.367661" /><linearGradient
       id="linearGradient11-5"
       inkscape:collect="always"><stop
         style="stop-color:#3e3b36;stop-opacity:1;"
         offset="0"
         id="stop11-5" /><stop
         style="stop-color:#705327;stop-opacity:0;"
         offset="1"
         id="stop12-4-8" /></linearGradient><linearGradient
       inkscape:collect="always"
       xlink:href="#linearGradient24-0"
       id="linearGradient131"
       gradientUnits="userSpaceOnUse"
       gradientTransform="matrix(0.91185895,0,0,0.98816356,16.252651,2.5279619)"
       x1="172.70212"
       y1="148.35159"
       x2="201.02669"
       y2="185.79865" /><linearGradient
       id="linearGradient24-0"
       inkscape:collect="always"><stop
         style="stop-color:#a89304;stop-opacity:0.78360201;"
         offset="0"
         id="stop24-6" /><stop
         style="stop-color:#a89304;stop-opacity:0;"
         offset="1"
         id="stop25-5-7" /></linearGradient><filter
       inkscape:collect="always"
       style="color-interpolation-filters:sRGB"
       id="filter25"
       x="-0.056581853"
       y="-0.036411396"
       width="1.1131637"
       height="1.0728228"><feGaussianBlur
         inkscape:collect="always"
         stdDeviation="1.0151958"
         id="feGaussianBlur25" /></filter><linearGradient
       inkscape:collect="always"
       xlink:href="#linearGradient4-1"
       id="linearGradient132"
       gradientUnits="userSpaceOnUse"
       x1="298.84302"
       y1="40.020332"
       x2="216.55293"
       y2="-42.269745" /><linearGradient
       id="linearGradient4-1"
       inkscape:collect="always"><stop
         style="stop-color:#eba400;stop-opacity:1;"
         offset="0"
         id="stop9-69" /><stop
         style="stop-color:#f7e900;stop-opacity:1;"
         offset="1"
         id="stop10-3" /></linearGradient><filter
       inkscape:collect="always"
       style="color-interpolation-filters:sRGB"
       id="filter18"
       x="-0.015915966"
       y="-0.030643443"
       width="1.0318319"
       height="1.0612869"><feGaussianBlur
         inkscape:collect="always"
         stdDeviation="0.46155789"
         id="feGaussianBlur18" /></filter><filter
       inkscape:collect="always"
       style="color-interpolation-filters:sRGB"
       id="filter19"
       x="-0.0042294978"
       y="-0.0071858062"
       width="1.008459"
       height="1.0143716"><feGaussianBlur
         inkscape:collect="always"
         stdDeviation="0.19747912"
         id="feGaussianBlur19" /></filter><linearGradient
       inkscape:collect="always"
       xlink:href="#linearGradient122"
       id="linearGradient123"
       x1="182.96982"
       y1="126.8516"
       x2="181.5627"
       y2="221.01566"
       gradientUnits="userSpaceOnUse"
       gradientTransform="matrix(1.0315025,0,0,1.0228429,-4.5292631,-4.7397275)" /><linearGradient
       id="linearGradient122"
       inkscape:collect="always"><stop
         style="stop-color:#ffe241;stop-opacity:1;"
         offset="0"
         id="stop122" /><stop
         style="stop-color:#f8ae00;stop-opacity:1;"
         offset="1"
         id="stop123" /></linearGradient><radialGradient
       inkscape:collect="always"
       xlink:href="#linearGradient126"
       id="radialGradient127"
       cx="176.72478"
       cy="150.29239"
       fx="176.72478"
       fy="150.29239"
       r="7.7545075"
       gradientTransform="matrix(4.1750139,0.47895296,-1.6001722,7.5134004,-320.03194,-1072.6976)"
       gradientUnits="userSpaceOnUse" /><linearGradient
       id="linearGradient126"
       inkscape:collect="always"><stop
         style="stop-color:#ffffff;stop-opacity:0.8689459;"
         offset="0"
         id="stop126" /><stop
         style="stop-color:#ffffff;stop-opacity:0;"
         offset="1"
         id="stop127" /></linearGradient><radialGradient
       inkscape:collect="always"
       xlink:href="#linearGradient127-4"
       id="radialGradient129"
       cx="179.82339"
       cy="211.26003"
       fx="179.82339"
       fy="211.26003"
       r="5.675715"
       gradientTransform="matrix(1.7068914,1.3084989,-2.1044298,2.7451557,317.71032,-603.18289)"
       gradientUnits="userSpaceOnUse" /><linearGradient
       id="linearGradient127-4"
       inkscape:collect="always"><stop
         style="stop-color:#ffffff;stop-opacity:0.64752;"
         offset="0"
         id="stop128-8" /><stop
         style="stop-color:#ffffff;stop-opacity:0;"
         offset="1"
         id="stop129-7" /></linearGradient></defs><sodipodi:namedview
     id="base"
     pagecolor="#ffffff"
     bordercolor="#000000"
     borderopacity="0.3"
     inkscape:pageopacity="0.0"
     inkscape:pageshadow="2"
     inkscape:zoom="0.98994949"
     inkscape:cx="505.07627"
     inkscape:cy="476.792"
     inkscape:document-units="mm"
     inkscape:showpageshadow="2"
     inkscape:pagecheckerboard="0"
     inkscape:deskcolor="#d1d1d1"
     inkscape:current-layer="svg1"
     showguides="true"><sodipodi:guide
       position="46.49107,121.58221"
       orientation="1,0"
       id="guide16"
       inkscape:locked="false" /><sodipodi:guide
       position="98.651783,154.51339"
       orientation="0,-1"
       id="guide17"
       inkscape:locked="false" /></sodipodi:namedview><metadata
     id="metadata1"><rdf:RDF><cc:Work
         rdf:about=""><dc:format>image/svg+xml</dc:format><dc:type
           rdf:resource="http://purl.org/dc/dcmitype/StillImage" /><cc:license
           rdf:resource="http://creativecommons.org/publicdomain/zero/1.0/" /></cc:Work><cc:License
         rdf:about="http://creativecommons.org/publicdomain/zero/1.0/"><cc:permits
           rdf:resource="http://creativecommons.org/ns#Reproduction" /><cc:permits
           rdf:resource="http://creativecommons.org/ns#Distribution" /><cc:permits
           rdf:resource="http://creativecommons.org/ns#DerivativeWorks" /></cc:License></rdf:RDF></metadata><g
     id="g12"
     inkscape:label="shadowclose"
     style="display:inline"
     transform="matrix(1.0330579,0,0,1.0330579,-2.2035813,8.8493538)"><path
       style="color:#000000;display:inline;fill:#000000;fill-opacity:0.0929705;stroke-width:1.16609;stroke-linecap:round;stroke-linejoin:bevel;-inkscape-stroke:none"
       d="m 16.252978,44.341516 36.105011,-33.002229 61.957981,0.435815 33.87631,31.694784 c 0,0 64.12877,-2.115614 79.86291,-0.435815 24.52209,2.341258 21.16667,32.153051 21.16667,32.153051 l 0.11037,104.144978 c 0.48637,27.64938 -0.40781,45.25999 -29.66029,47.44855 L 36.130614,226.40267 C 11.402737,224.00742 9.4751688,205.49428 10.205359,188.98303 Z"
       id="path12"
       sodipodi:nodetypes="ccccccccccc"
       inkscape:label="shadow" /><path
       style="color:#000000;display:inline;fill:#000000;fill-opacity:0.0929705;stroke-width:1.16609;stroke-linecap:round;stroke-linejoin:bevel;-inkscape-stroke:none"
       d="m 16.252978,44.341516 36.105011,-33.002229 56.288341,0.435815 33.87631,31.694784 c 0,0 63.81419,-0.815135 78.72898,4.477875 25.40122,6.806235 21.73362,28.37329 21.73362,28.37329 l 0.65315,100.365219 c 0.15291,23.49695 -2.94787,40.38154 -25.10037,41.77891 L 41.044304,220.35505 C 21.259354,217.1328 10.22349,205.93759 10.205359,188.98303 Z"
       id="path14"
       sodipodi:nodetypes="ccccccscccc"
       inkscape:label="shadow" /><path
       style="color:#000000;display:inline;fill:#000000;fill-opacity:0.0929705;stroke-width:1.16609;stroke-linecap:round;stroke-linejoin:bevel;-inkscape-stroke:none"
       d="m 16.252978,44.341516 36.105011,-33.002229 50.240721,-0.698114 33.87631,31.694784 c 0,0 55.26431,0.640556 80.99684,9.391566 12.38959,4.213398 19.15438,6.906208 19.65476,18.545909 1.39024,32.339248 3.27511,68.180748 2.34194,102.255098 -0.25256,9.22222 -2.31668,19.70368 -4.68414,27.65066 -2.70543,9.08145 -10.52594,12.93783 -21.91604,11.86039 L 43.312161,211.6616 c -14.52793,-0.076 -31.881718,-7.49369 -33.106802,-22.67857 z"
       id="path15"
       sodipodi:nodetypes="ccccsssscccc"
       inkscape:label="shadow" /><path
       style="color:#000000;display:inline;fill:#000000;fill-opacity:0.0929705;stroke-width:1.16609;stroke-linecap:round;stroke-linejoin:bevel;-inkscape-stroke:none"
       d="m 16.252978,44.341516 36.105011,-33.002229 48.236201,0.237329 31.20361,31.29388 c 0,0 56.89843,-2.363022 81.26411,9.926105 21.18433,10.684576 18.6584,27.170577 18.6584,27.170577 l 2.7121,92.195472 c 0,32.74973 -5.17276,36.66642 -30.25748,35.15222 L 42.367221,204.29106 c -13.969449,0.1705 -30.178506,-3.91126 -32.161862,-19.45071 z"
       id="path16"
       sodipodi:nodetypes="ccccscccccc"
       inkscape:label="shadow" /></g><g
     id="g13"
     inkscape:label="shadowopen"
     style="display:none"
     transform="matrix(1.0068174,0,0,1.0068174,-1.9389142,9.1285845)"><path
       style="color:#000000;display:inline;fill:#000000;fill-opacity:0.0929705;stroke-width:1.16609;stroke-linecap:round;stroke-linejoin:bevel;-inkscape-stroke:none"
       d="m 16.252978,44.341516 36.105011,-33.002229 73.183301,0.435815 33.87631,31.694784 c 0,0 40.06412,5.288391 60.8358,7.390766 19.90983,2.015143 34.77394,20.150305 34.00533,42.193175 -0.41964,12.034643 0.54567,36.121743 0.54567,36.121743 l -0.36685,29.84405 c -3.37229,55.09309 -15.97567,67.3805 -34.76561,67.76103 -54.79223,1.10965 -100.65039,3.04728 -156.705016,2.26785 C 26.62644,228.5432 10.961311,193.51874 10.961311,193.51874 Z"
       id="path13"
       sodipodi:nodetypes="ccccssccsscc"
       inkscape:label="shadow" /><path
       style="color:#000000;display:inline;fill:#000000;fill-opacity:0.0929705;stroke-width:1.16609;stroke-linecap:round;stroke-linejoin:bevel;-inkscape-stroke:none"
       d="m 16.252978,44.341516 36.105011,-33.002229 62.492521,0.435815 33.87631,31.694784 c 0,0 43.43472,9.086572 65.43036,8.651349 17.27416,-0.3418 40.22607,21.832063 40.10155,40.932592 -0.12988,19.923203 -0.87504,24.665753 -1.88892,46.375883 -2.14937,46.02402 -10.40288,78.69306 -36.97418,78.79832 0,0 -117.138269,5.09652 -174.454164,0.69109 -14.259757,-1.09604 -30.736107,-29.93609 -30.736107,-29.93609 z"
       id="path22"
       sodipodi:nodetypes="ccccssssscc"
       inkscape:label="shadow" /><path
       style="color:#000000;display:inline;fill:#000000;fill-opacity:0.124717;stroke-width:1.16609;stroke-linecap:round;stroke-linejoin:bevel;-inkscape-stroke:none"
       d="m 16.252978,44.341516 36.105011,-33.002229 57.147131,0.435815 33.87631,31.694784 c 0,0 43.12388,9.373494 64.91712,9.407302 20.39888,0.03164 46.66344,25.415249 47.41707,45.783098 0.82469,22.288574 -6.28806,65.998724 -7.13024,69.814724 -5.87003,26.59754 -3.56567,35.68331 -38.53514,43.33855 0,0 -110.978839,8.49353 -166.970618,1.22563 -13.465677,-1.74788 -32.874263,-24.05616 -32.874263,-24.05616 z"
       id="path23"
       sodipodi:nodetypes="ccccssscscc"
       inkscape:label="shadow" /><path
       style="color:#000000;display:inline;fill:url(#linearGradient16);stroke-width:1.16609;stroke-linecap:round;stroke-linejoin:bevel;-inkscape-stroke:none"
       d="m 16.252978,44.341516 36.105011,-33.002229 50.732661,0.435815 33.87631,31.694784 72.37937,13.462201 c 0,0 30.91772,5.843599 38.11483,12.001167 9.82151,8.402891 11.79254,44.628786 -9.44459,97.064406 -21.23714,52.43562 -15.70419,40.42994 -76.98295,40.56311 0,0 -56.11246,0.17817 -111.852655,-0.27603 -13.55581,-0.11047 -38.975606,-17.30171 -38.975606,-17.30171 z"
       id="path24"
       sodipodi:nodetypes="cccccszcscc"
       inkscape:label="shadow" /></g><g
     id="rect1"
     style="display:inline"
     inkscape:label="back"
     transform="matrix(1.0272988,0,0,1.0272988,-2.0291602,8.9067299)"><path
       style="color:#000000;fill:url(#linearGradient2);stroke-linecap:round;stroke-linejoin:bevel;-inkscape-stroke:none"
       d="m 12.095239,51.404763 30.616074,-32.883928 52.538689,0.377976 28.726198,31.75 78.61905,-0.377976 V 176.85026 H 12.095239 Z"
       id="path2"
       sodipodi:nodetypes="cccccccc" /><path
       id="rect3"
       style="display:inline;fill:#ffffff;stroke-width:15.377;stroke-linecap:round;stroke-linejoin:bevel"
       d="m 17.639788,55.324789 28.330568,-30.468726 45.435817,0.534539 29.934187,31.270535 75.10273,-0.26727 v 14.432554 l -80.01642,0.26727 -30.150038,-31.270535 -35.927125,0.26727 -33.244258,36.138369 z"
       sodipodi:nodetypes="ccccccccccc" /><path
       style="color:#000000;fill:#cea221;stroke-linecap:round;stroke-linejoin:bevel;-inkscape-stroke:none"
       d="M 42.767578,10.832031 37.083984,13.28125 6.46875,46.166016 4.40625,51.404297 V 176.84951 c 0.9154791,4.21083 2.5425773,7.71003 7.689453,7.68946 H 202.5957 l 7.6875,-7.68946 V 50.271484 c 0.24504,-4.443094 -1.57408,-7.510076 -7.72461,-7.689453 l -75.18554,0.361328 -26.42188,-29.203125 -5.646483,-2.529296 z m 3.267578,15.402344 45.78125,0.328125 26.458984,29.244141 5.73828,2.53125 70.89258,-0.341797 V 169.16201 H 19.783203 V 54.431641 Z"
       id="path3"
       sodipodi:nodetypes="ccccccccccccccccccccccc" /></g><g
     id="rect4"
     inkscape:label="close"
     style="display:inline"
     transform="matrix(1.046868,0,0,1.0272988,-6.4097406,12.476083)"><path
       style="color:#000000;fill:url(#linearGradient5);stroke-linejoin:bevel;-inkscape-stroke:none"
       d="m 39.948839,84.560004 11.398256,-14.3092 97.217455,-0.05389 h 67.59491 V 187.45551 H 39.948839 Z"
       id="path5"
       sodipodi:nodetypes="ccccccc" /><path
       id="rect7"
       style="fill:url(#linearGradient8);stroke-width:15.377;stroke-linejoin:bevel"
       d="M 38.443449,169.44888 H 195.37402 l 0.46773,-73.755263 h 17.3057 c -0.28876,34.032403 2.27179,61.637733 2.27179,95.671363 L 46.728804,187.08867 Z"
       sodipodi:nodetypes="ccccccc" /><path
       id="path7"
       style="display:inline;fill:url(#linearGradient18);stroke-width:15.377;stroke-linecap:round;stroke-linejoin:bevel"
       d="m 46.392076,181.98385 0.07351,-107.391098 102.868614,0.230236 61.47199,1.603617 v 20.312484 h -57.29851 l -88.12199,0.180167 -0.04755,85.323034 z"
       sodipodi:nodetypes="ccccccccc" /><path
       style="color:#000000;fill:url(#linearGradient10);stroke-linejoin:bevel;-inkscape-stroke:none"
       d="m 40.137595,62.33389 c -6.760736,-0.235673 -7.178598,4.309136 -7.6875,8.241352 L 31.694143,187.45508 c 0.674417,4.18151 3.271374,6.71512 7.6875,7.68945 H 216.16016 c 5.83804,0.29423 7.75626,-2.83094 7.6875,-7.68945 V 70.197079 c -0.16186,-5.049533 -2.53805,-7.943617 -7.6875,-7.827428 -58.45149,0 -116.731075,-0.03576 -176.022565,-0.03576 z M 208.4707,77.884579 V 179.76758 H 47.071096 L 47.827048,78.262742 c 59.235472,0.0065 101.404572,-0.378163 160.643652,-0.378163 z"
       id="path6"
       sodipodi:nodetypes="cccccccccccccc" /></g><g
     id="g20"
     inkscape:label="open"
     style="display:none"
     transform="matrix(1.0272988,0,-0.22903094,0.93647609,33.604309,21.96265)"><path
       style="color:#000000;fill:url(#linearGradient20);stroke-linejoin:bevel;-inkscape-stroke:none"
       d="m 22.886951,78.134409 h 97.392209 l 28.28539,-14.363095 h 67.59491 V 187.45551 H 22.886951 Z"
       id="path17" /><path
       id="path18"
       style="fill:url(#linearGradient21);stroke-width:15.377;stroke-linejoin:bevel"
       d="M 21.381561,169.44888 H 195.37402 l 0.46773,-80.180858 h 17.3057 c -0.28876,34.032398 2.27179,68.063328 2.27179,102.096958 L 29.666916,187.08867 Z"
       sodipodi:nodetypes="ccccccc" /><path
       id="path19"
       style="display:inline;fill:url(#linearGradient14);stroke-width:15.377;stroke-linecap:round;stroke-linejoin:bevel"
       d="m 26.196468,77.472204 c 0,0 61.529128,0.829797 93.811602,-0.801808 l 30.71274,-2.053499 61.47199,1.603617 V 96.532998 H 55.486552 c 5.546427,25.710512 7.894291,67.591662 -3.012082,95.226152 l -20.345138,-3.97048 c -1.199998,-29.74052 2.240856,-57.5062 -5.932864,-90.214271 z"
       sodipodi:nodetypes="cccccccccc" /><path
       style="color:#000000;fill:url(#linearGradient22);stroke-linejoin:bevel;-inkscape-stroke:none"
       d="m 149.95106,62.301535 -3.48047,0.833985 C 102.32048,62.548127 63.464386,62.567274 21.130351,62.567274 c -6.756833,-0.830807 -6.851232,3.729475 -7.6875,7.689454 11.672833,51.561032 8.047695,91.093652 4.459577,124.528112 -0.339785,3.16615 4.426923,5.1263 7.6875,7.68945 H 218.86337 c 3.67232,-2.70006 6.52227,-7.72863 8.2627,-15.89878 5.68917,-38.86151 6.4991,-77.72301 -1.8918,-116.584522 -1.05751,-2.362904 -1.02105,-4.580249 -7.6875,-7.689453 z m 1.83985,15.376953 h 58.0664 c 8.73588,37.930492 4.82746,73.639752 1.3166,109.418852 H 33.279381 c 6.637531,-31.51664 5.60206,-72.67072 -4.459577,-109.153112 45.521495,-0.874055 78.037736,0.03645 122.971106,-0.26574 z"
       id="path20"
       sodipodi:nodetypes="ccccscccccccccccc" /></g><g
     id="g50"
     inkscape:label="Important-Shild"
     transform="matrix(1.1437623,0,0,1.1437623,-34.626,-33.982685)"
     style="display:inline"><rect
       style="display:inline;fill:none;stroke:url(#linearGradient129);stroke-width:12.728;stroke-linecap:round;stroke-linejoin:round;stroke-miterlimit:1.8;stroke-dasharray:none;stroke-dashoffset:20.7632;stroke-opacity:1;paint-order:stroke fill markers"
       id="rect14"
       width="89.236641"
       height="89.236641"
       x="213.88118"
       y="-45.208675"
       transform="rotate(45)"
       inkscape:label="back-kontur" /><rect
       style="display:inline;fill:none;stroke:url(#linearGradient130);stroke-width:12.728;stroke-linecap:round;stroke-linejoin:round;stroke-miterlimit:1.8;stroke-dasharray:none;stroke-dashoffset:20.7632;stroke-opacity:1;paint-order:stroke fill markers"
       id="rect15"
       width="89.236641"
       height="89.236641"
       x="213.88118"
       y="-45.208675"
       transform="rotate(45)"
       inkscape:label="outer-kontur" /><g
       id="g51"
       style="display:none"
       inkscape:label="Man-Shild"><path
         id="path45"
         style="display:inline;fill:#1c1c1c;fill-opacity:1;stroke-width:1.828;stroke-linecap:round;stroke-linejoin:round;stroke-miterlimit:1.8;stroke-dashoffset:20.7632;paint-order:stroke fill markers"
         inkscape:label="inner-dark"
         transform="rotate(45)"
         d="m 223.23209,-45.352332 c 20.55267,0.712352 35.26741,0.143657 35.26741,0.143657 0,0 21.74886,0.330613 34.25845,0.330613 9.26819,0 10.45341,-0.277837 10.45433,8.754031 10e-4,12.487171 -0.0945,35.5336765 -0.0945,35.5336765 0,0 0.0945,22.1870535 0.0945,32.7943125 0,13.051857 0.91207,12.10739 -12.10739,12.10739 -10.76085,0 -32.60539,-0.283382 -32.60539,-0.283382 0,0 -27.73799,0.166985 -39.97614,0.166985 -3.38268,0 -5.00955,-1.93195 -5.00955,-5.209924 0,-10.523159 0.36737,-39.5753815 0.36737,-39.5753815 0,0 -0.24972,-27.7462055 -0.35255,-35.6252865 -0.13723,-10.515744 -0.87275,-9.503261 9.70346,-9.136691 z"
         sodipodi:nodetypes="scsscsscsscss" /><path
         id="path46"
         style="display:inline;fill:url(#linearGradient131);stroke-width:1.23402;stroke-linecap:round;stroke-linejoin:round;stroke-miterlimit:1.8;stroke-dashoffset:20.7632;paint-order:stroke fill markers;filter:url(#filter25)"
         d="m 175.34072,147.33917 2.73161,-0.68074 3.33456,0.15935 2.948,2.56751 -0.12181,6.66635 7.64378,-0.52804 9.71459,11.08855 -0.0305,6.46833 1.55313,1.98009 -0.33498,3.69619 -3.01488,1.71608 -1.84402,0.66709 -1.65148,-1.8988 -0.39746,-2.47957 0.7417,-6.17302 -5.49748,-4.96643 -0.73089,0.70952 0.54817,2.75563 1.09633,1.23755 0.9136,10.61003 12.18131,23.67868 -2.80171,7.44186 -6.82153,-0.21451 -1.09632,-1.60057 2.8017,-0.37126 -0.48726,-2.7474 -10.90227,-18.32415 -16.38388,24.77598 -7.36971,-7.76364 1.58357,-3.47343 3.77622,0.75079 15.05154,-24.05665 -4.19494,-8.41387 -1.94139,3.79673 -11.56464,8.61498 -2.24594,-3.52962 8.65636,-8.41389 2.01267,-6.37464 1.07898,-3.68538 3.79224,-1.35184 -0.0317,-1.83144 -3.04646,-0.19794 -0.54853,-3.1849 -0.97922,-0.94469 0.99285,-0.93178 -0.0394,-1.02014 0.0642,-2.70692 z"
         sodipodi:nodetypes="cccccccccccccccccccccccccccccccccccccccccccccccc"
         inkscape:label="Man" /><path
         id="path47"
         style="display:inline;fill:url(#linearGradient132);stroke-width:1.828;stroke-linecap:round;stroke-linejoin:round;stroke-miterlimit:1.8;stroke-dashoffset:20.7632;paint-order:stroke fill markers"
         inkscape:label="inner-cutted"
         d="m 215.17791,-43.689224 c -1.35845,1.31577 -1.64908,3.600077 -1.64908,7.473681 0,7.879744 0.35225,35.62504439 0.35225,35.62504439 0,0 -0.36723,29.05231661 -0.36723,39.57546561 0,3.277971 1.62706,5.209981 5.00974,5.209981 12.23813,0 39.97595,-0.166991 39.97595,-0.166991 0,0 21.84447,0.283556 32.60531,0.283556 13.01945,0 12.10742,0.94443 12.10742,-12.107414 0,-10.607249 -0.0943,-32.79459761 -0.0943,-32.79459761 0,0 0.0953,-23.04653439 0.0943,-35.53369239 -8.3e-4,-8.130112 -1.35312,-8.787321 -8.68428,-8.787321 -12.50958,0 -36.02845,-0.297442 -36.02845,-0.297442 0,0 -14.70232,-0.143605 -35.26731,-0.143605 -4.26962,0 -6.69586,0.347566 -8.05432,1.663335 z m 13.44262,21.341263 2.69963,-2.471616 4.12326,-0.448721 4.67612,4.864671 5.54944,-6.305108 15.46807,0.401583 4.60487,4.652369 2.62106,0.212302 2.38538,2.904259 -1.10974,3.566013 -0.95298,1.907427 -2.63934,-0.07783 -2.08246,-1.46638 -3.84189,-4.992198 -7.81717,0.709256 -0.0592,1.074298 2.39744,1.54677 1.73532,0.03544 8.30096,6.8839128 26.3901,7.4977977 3.15237,7.4977976 -5.44311,5.1361689 -1.99549,-0.294884 1.9067,-2.4387302 -2.34373,-1.5880612 -21.56672,-4.6578502 5.02436,30.4340646 -11.27064,0.159318 -1.25736,-3.713637 3.46589,-2.390862 -5.54287,-28.8858327 -9.27368,-2.7679622 1.21133,4.2222843 -2.80304,15.1326236 -4.2676,-0.78453 0.69208,-12.73299221 -3.00109,-6.12240359 -1.80036,-3.4739297 1.97357,-3.9080335 -1.33557,-1.285869 -2.50377,2.220947 -2.70438,-1.853713 -1.43532,0.08331 0.10304,-1.436782 -0.76078,-0.699391 -1.88696,-1.987086 -0.41693,-1.75286 z"
         transform="rotate(45)" /></g><path
       id="path49"
       style="display:inline;mix-blend-mode:normal;fill:#ffffff;fill-opacity:0.427419;stroke-width:1.3;stroke-linecap:round;stroke-linejoin:round;stroke-miterlimit:1.8;stroke-dashoffset:20.7632;paint-order:stroke fill markers;filter:url(#filter18)"
       inkscape:label="shadow-white-bottom"
       d="m 148.54961,212.40458 c 0,0 22.62454,23.03077 32.33273,32.78972 1.2832,1.28991 3.21352,1.22428 4.33599,0.0959 11.16735,-11.22569 32.93051,-32.88566 32.93051,-32.88566 -10.56315,12.15584 -9.55315,11.81843 -32.91243,35.29987 -1.12707,1.13296 -3.29523,1.11455 -4.35177,0.0525 -21.8829,-21.99738 -32.11446,-35.10481 -32.33503,-35.35235 z"
       sodipodi:nodetypes="csscsscc"
       transform="matrix(1,0,0,0.99479747,0,1.1044629)" /><path
       id="path50"
       style="display:inline;mix-blend-mode:normal;fill:#ffffff;fill-opacity:0.427419;stroke-width:1.3;stroke-linecap:round;stroke-linejoin:round;stroke-miterlimit:1.8;stroke-dashoffset:20.7632;paint-order:stroke fill markers;filter:url(#filter19)"
       d="m 115.07425,179.67923 c 0,0 42.30418,-42.4027 62.62094,-62.71946 4.52741,-4.52741 7.13456,-4.0885 11.18965,-0.0334 9.35892,9.35891 20.44061,20.17175 20.44061,20.17175 l 17.36808,17.36642 0.43891,1.61344 c -13.3855,-13.44014 -25.20715,-23.72476 -38.58967,-37.06005 -4.09124,-4.07681 -5.99066,-4.68755 -10.60905,-0.0692 -18.69211,18.69212 -61.91052,60.45085 -61.91052,60.45085 z"
       sodipodi:nodetypes="csscccsscc"
       inkscape:label="shadow-white-top" /><g
       id="g126"
       inkscape:label="Important Shild"><path
         id="rect122"
         style="display:inline;fill:url(#linearGradient123);stroke-width:0.908633"
         d="m 188.52136,123.53065 c 16.7425,16.18585 38.08341,36.43433 54.99947,52.52865 3.72504,2.86912 4.0814,5.68324 0.0265,9.87064 -16.66441,16.53586 -37.68897,37.67552 -54.69577,55.19956 -3.25404,2.95456 -7.01017,3.40842 -10.35282,0.10286 -16.05461,-16.92263 -37.01092,-37.96226 -54.08831,-55.0469 -3.64173,-4.19519 -2.49871,-7.44979 0.0495,-9.64173 17.61897,-17.12561 51.12052,-49.96679 54.61984,-52.9865 3.49931,-3.0197 7.27145,-2.03393 9.44164,-0.0267 2.17018,2.00728 -2e-5,7e-5 -2e-5,7e-5 z"
         sodipodi:nodetypes="ccccccczzc"
         inkscape:label="yellow-shild" /><path
         id="rect123"
         style="fill:#010100;stroke-width:1.2551"
         d="m 195.30195,146.92383 c 0,3.19663 -9.18751,52.3032 -9.66087,54.92658 -0.47331,2.62338 -2.94233,2.49195 -3.43687,-0.0942 -0.54862,-2.86907 -9.77411,-51.14181 -9.77411,-54.78072 0,-11.66446 22.87185,-11.81649 22.87185,-0.0516 0,1e-5 0,-4e-5 0,-4e-5 z"
         sodipodi:nodetypes="czsssc"
         inkscape:label="Black-imp" /><path
         id="rect126"
         style="fill:url(#radialGradient127);stroke-width:1.16692"
         d="m 177.99951,139.5467 c 2.70139,-1.11863 7.39267,-1.8119 10.84761,-0.36187 2.97091,0.73289 4.52125,2.35324 5.49424,4.29085 -16.16812,-0.71782 -7.26932,34.82444 -15.63745,38.72106 -4.66532,-33.05077 -9.87167,-38.03202 -0.7044,-42.65004 z"
         sodipodi:nodetypes="ccccc"
         inkscape:label="white-shadow" /></g><circle
       style="fill:#010100;fill-opacity:1;stroke-width:1.16967"
       id="path124"
       cx="184.54886"
       cy="217.10838"
       r="7.8698163"
       inkscape:label="black-point" /><path
       id="path126"
       style="display:inline;fill:url(#radialGradient129);stroke-width:1.16967"
       d="m 190.38465,212.1014 c -9.54302,-1.69981 -5.97877,8.4391 -12.29594,8.74309 -0.89485,-0.76628 -1.15303,-2.23243 -1.15303,-4.20657 0,-3.89757 3.52252,-7.2084 7.42009,-7.2084 3.89756,0 5.32192,1.99264 6.02888,2.67188 z"
       sodipodi:nodetypes="ccssc" /></g></svg>
