<?xml version="1.0" encoding="UTF-8" standalone="no"?>
<!-- Created with Inkscape (http://www.inkscape.org/) -->

<svg
   width="256mm"
   height="256mm"
   viewBox="0 0 256 256"
   version="1.1"
   id="svg1"
   inkscape:version="1.3.2 (091e20ef0f, 2023-11-25)"
   xml:space="preserve"
   sodipodi:docname="folder-deb-symbolic.svg"
   xmlns:inkscape="http://www.inkscape.org/namespaces/inkscape"
   xmlns:sodipodi="http://sodipodi.sourceforge.net/DTD/sodipodi-0.dtd"
   xmlns:xlink="http://www.w3.org/1999/xlink"
   xmlns="http://www.w3.org/2000/svg"
   xmlns:svg="http://www.w3.org/2000/svg"
   xmlns:rdf="http://www.w3.org/1999/02/22-rdf-syntax-ns#"
   xmlns:cc="http://creativecommons.org/ns#"
   xmlns:dc="http://purl.org/dc/elements/1.1/"
   xmlns:a="http://ns.adobe.com/AdobeSVGViewerExtensions/3.0/"><defs
     id="defs1"><linearGradient
       id="linearGradient17"
       inkscape:collect="always"><stop
         style="stop-color:#ffffff;stop-opacity:0.04790419;"
         offset="0"
         id="stop17" /><stop
         style="stop-color:#ffffff;stop-opacity:1;"
         offset="1"
         id="stop18" /></linearGradient><linearGradient
       id="linearGradient15"
       inkscape:collect="always"><stop
         style="stop-color:#000000;stop-opacity:0.13173653;"
         offset="0"
         id="stop15" /><stop
         style="stop-color:#000000;stop-opacity:0.40269461;"
         offset="1"
         id="stop16" /></linearGradient><linearGradient
       id="linearGradient11"
       inkscape:collect="always"><stop
         style="stop-color:#ffffff;stop-opacity:0.13772455;"
         offset="0"
         id="stop13" /><stop
         style="stop-color:#ffffff;stop-opacity:1;"
         offset="1"
         id="stop14" /></linearGradient><linearGradient
       id="linearGradient6"
       inkscape:collect="always"><stop
         style="stop-color:#ffee8d;stop-opacity:0.73209548;"
         offset="0"
         id="stop3" /><stop
         style="stop-color:#f7e714;stop-opacity:0.37125748;"
         offset="1"
         id="stop6" /></linearGradient><linearGradient
       id="linearGradient9"
       inkscape:collect="always"><stop
         style="stop-color:#cea221;stop-opacity:1;"
         offset="0"
         id="stop9" /><stop
         style="stop-color:#cea221;stop-opacity:1;"
         offset="0.35811982"
         id="stop11" /><stop
         style="stop-color:#a38118;stop-opacity:1;"
         offset="0.48275998"
         id="stop12" /><stop
         style="stop-color:#765d13;stop-opacity:1;"
         offset="1"
         id="stop10" /></linearGradient><linearGradient
       id="linearGradient7"
       inkscape:collect="always"><stop
         style="stop-color:#000000;stop-opacity:0.18302387;"
         offset="0"
         id="stop7" /><stop
         style="stop-color:#b7b7b7;stop-opacity:0.18832891;"
         offset="1"
         id="stop8" /></linearGradient><linearGradient
       id="linearGradient4"
       inkscape:collect="always"><stop
         style="stop-color:#ffee8d;stop-opacity:0.73209548;"
         offset="0"
         id="stop4" /><stop
         style="stop-color:#d6bc48;stop-opacity:0.61803716;"
         offset="1"
         id="stop5" /></linearGradient><linearGradient
       id="linearGradient1"
       inkscape:collect="always"><stop
         style="stop-color:#ffeb9b;stop-opacity:1;"
         offset="0"
         id="stop1" /><stop
         style="stop-color:#c2a000;stop-opacity:1;"
         offset="1"
         id="stop2" /></linearGradient><linearGradient
       id="path3_3_"
       gradientUnits="userSpaceOnUse"
       x1="57.324699"
       y1="46.403801"
       x2="83.153503"
       y2="46.403801"><stop
         offset="0"
         style="stop-color:rgb(255,255,255)"
         id="stop8-0" /><stop
         offset="1"
         style="stop-color:rgb(223,223,236)"
         id="stop9-9" /><a:midPointStop
         offset="0"
         style="stop-color:#FFFFFF" /><a:midPointStop
         offset="0.5"
         style="stop-color:#FFFFFF" /><a:midPointStop
         offset="1"
         style="stop-color:#DFDFEC" /></linearGradient><linearGradient
       id="XMLID_4_-3-7"
       gradientUnits="userSpaceOnUse"
       x1="32.8545"
       y1="17.5103"
       x2="90.494102"
       y2="85.498703"><stop
         offset="0"
         style="stop-color:rgb(217,217,217)"
         id="stop10-6-6" /><stop
         offset="1"
         style="stop-color:rgb(87,87,151)"
         id="stop11-06" /><a:midPointStop
         offset="0"
         style="stop-color:#D9D9D9" /><a:midPointStop
         offset="0.5"
         style="stop-color:#D9D9D9" /><a:midPointStop
         offset="1"
         style="stop-color:#575797" /></linearGradient><linearGradient
       id="path11_3_"
       gradientUnits="userSpaceOnUse"
       x1="55.0952"
       y1="78.122101"
       x2="88.283401"
       y2="44.933899"><stop
         offset="0"
         style="stop-color:rgb(255,255,255)"
         id="stop12-2" /><stop
         offset="1"
         style="stop-color:rgb(223,223,236)"
         id="stop13-6" /><a:midPointStop
         offset="0"
         style="stop-color:#FFFFFF" /><a:midPointStop
         offset="0.5"
         style="stop-color:#FFFFFF" /><a:midPointStop
         offset="1"
         style="stop-color:#DFDFEC" /></linearGradient><linearGradient
       id="path16_3_"
       gradientUnits="userSpaceOnUse"
       x1="76.635696"
       y1="27.1621"
       x2="81.575798"
       y2="22.468901"><stop
         offset="0"
         style="stop-color:rgb(255,255,255)"
         id="stop14-1" /><stop
         offset="1"
         style="stop-color:rgb(223,223,236)"
         id="stop15-8-4" /><a:midPointStop
         offset="0"
         style="stop-color:#FFFFFF" /><a:midPointStop
         offset="0.5"
         style="stop-color:#FFFFFF" /><a:midPointStop
         offset="1"
         style="stop-color:#DFDFEC" /></linearGradient><linearGradient
       id="XMLID_5_-7"
       gradientUnits="userSpaceOnUse"
       x1="53.142101"
       y1="0.1851"
       x2="113.11"
       y2="70.919998"><stop
         offset="0"
         style="stop-color:rgb(217,217,217)"
         id="stop16-9-3" /><stop
         offset="1"
         style="stop-color:rgb(87,87,151)"
         id="stop17-2" /><a:midPointStop
         offset="0"
         style="stop-color:#D9D9D9" /><a:midPointStop
         offset="0.5"
         style="stop-color:#D9D9D9" /><a:midPointStop
         offset="1"
         style="stop-color:#575797" /></linearGradient><linearGradient
       id="XMLID_6_-7"
       gradientUnits="userSpaceOnUse"
       x1="65.5215"
       y1="109.3271"
       x2="65.5215"
       y2="46.861301"><stop
         offset="0"
         style="stop-color:#3FA600"
         id="stop14-2" /><stop
         offset="1"
         style="stop-color:#008300"
         id="stop15-4" /><a:midPointStop
         offset="0"
         style="stop-color:#3FA600" /><a:midPointStop
         offset="0.5"
         style="stop-color:#3FA600" /><a:midPointStop
         offset="1"
         style="stop-color:#008300" /></linearGradient><linearGradient
       inkscape:collect="always"
       xlink:href="#linearGradient1"
       id="linearGradient2"
       x1="52.515255"
       y1="83.787643"
       x2="102.84141"
       y2="235.06218"
       gradientUnits="userSpaceOnUse" /><linearGradient
       inkscape:collect="always"
       xlink:href="#linearGradient4"
       id="linearGradient5"
       x1="43.16869"
       y1="94.619362"
       x2="220.06821"
       y2="170.97055"
       gradientUnits="userSpaceOnUse"
       gradientTransform="translate(0,5.2916667)" /><linearGradient
       inkscape:collect="always"
       xlink:href="#linearGradient7"
       id="linearGradient8"
       x1="82.853554"
       y1="110.11504"
       x2="251.36699"
       y2="213.81561"
       gradientUnits="userSpaceOnUse" /><linearGradient
       inkscape:collect="always"
       xlink:href="#linearGradient9"
       id="linearGradient10"
       x1="110.0799"
       y1="45.966957"
       x2="209.36598"
       y2="194.65266"
       gradientUnits="userSpaceOnUse" /><linearGradient
       inkscape:collect="always"
       xlink:href="#linearGradient6"
       id="linearGradient20"
       gradientUnits="userSpaceOnUse"
       gradientTransform="translate(0,5.2916667)"
       x1="43.16869"
       y1="94.619362"
       x2="220.06821"
       y2="170.97055" /><linearGradient
       inkscape:collect="always"
       xlink:href="#linearGradient7"
       id="linearGradient21"
       gradientUnits="userSpaceOnUse"
       x1="82.853554"
       y1="110.11504"
       x2="251.36699"
       y2="213.81561" /><linearGradient
       inkscape:collect="always"
       xlink:href="#linearGradient9"
       id="linearGradient22"
       gradientUnits="userSpaceOnUse"
       x1="110.0799"
       y1="45.966957"
       x2="209.36598"
       y2="194.65266" /><linearGradient
       inkscape:collect="always"
       xlink:href="#linearGradient11"
       id="linearGradient14"
       x1="60.606758"
       y1="187.50502"
       x2="74.973244"
       y2="30.256107"
       gradientUnits="userSpaceOnUse" /><linearGradient
       inkscape:collect="always"
       xlink:href="#linearGradient15"
       id="linearGradient16"
       x1="100.16369"
       y1="95.159004"
       x2="189.06003"
       y2="184.36139"
       gradientUnits="userSpaceOnUse" /><linearGradient
       inkscape:collect="always"
       xlink:href="#linearGradient17"
       id="linearGradient18"
       x1="55.788521"
       y1="198.5321"
       x2="48.226624"
       y2="15.571447"
       gradientUnits="userSpaceOnUse" /><linearGradient
       id="XMLID_1_-99"
       gradientUnits="userSpaceOnUse"
       x1="65.2314"
       y1="-24.0483"
       x2="58.715302"
       y2="122.3119">
				<stop
   offset="0.382"
   style="stop-color:#DCF0FF"
   id="stop1-3" />
				<stop
   offset="0.4435"
   style="stop-color:#C9E6FF"
   id="stop2-2" />
				<stop
   offset="0.6311"
   style="stop-color:#92CAFF"
   id="stop3-43" />
				<stop
   offset="0.793"
   style="stop-color:#6AB5FF"
   id="stop4-71" />
				<stop
   offset="0.9213"
   style="stop-color:#52A9FF"
   id="stop5-22" />
				<stop
   offset="1"
   style="stop-color:#49A4FF"
   id="stop6-0" />
				<a:midPointStop
   offset="0.382"
   style="stop-color:#DCF0FF" />
				<a:midPointStop
   offset="0.4"
   style="stop-color:#DCF0FF" />
				<a:midPointStop
   offset="1"
   style="stop-color:#49A4FF" />
			</linearGradient><linearGradient
       id="XMLID_2_-21"
       gradientUnits="userSpaceOnUse"
       x1="85.484398"
       y1="70.108902"
       x2="8.9447002"
       y2="40.5261">
				<stop
   offset="0"
   style="stop-color:#0032A4"
   id="stop7-7" />
				<stop
   offset="1"
   style="stop-color:#3995E5"
   id="stop8-5" />
				<a:midPointStop
   offset="0"
   style="stop-color:#0032A4" />
				<a:midPointStop
   offset="0.5"
   style="stop-color:#0032A4" />
				<a:midPointStop
   offset="1"
   style="stop-color:#3995E5" />
			</linearGradient><linearGradient
       id="XMLID_3_-1"
       gradientUnits="userSpaceOnUse"
       x1="5.9517002"
       y1="63.035599"
       x2="117.9541"
       y2="63.035599">
				<stop
   offset="0.0169"
   style="stop-color:#FFFFFF"
   id="stop9-7" />
				<stop
   offset="0.309"
   style="stop-color:#CFF0FF"
   id="stop10-4" />
				<stop
   offset="0.6348"
   style="stop-color:#6DB8FF"
   id="stop11-1" />
				<stop
   offset="1"
   style="stop-color:#1E65FF"
   id="stop12-7" />
				<a:midPointStop
   offset="0.0169"
   style="stop-color:#FFFFFF" />
				<a:midPointStop
   offset="0.5"
   style="stop-color:#FFFFFF" />
				<a:midPointStop
   offset="0.309"
   style="stop-color:#CFF0FF" />
				<a:midPointStop
   offset="0.5"
   style="stop-color:#CFF0FF" />
				<a:midPointStop
   offset="0.6348"
   style="stop-color:#6DB8FF" />
				<a:midPointStop
   offset="0.5"
   style="stop-color:#6DB8FF" />
				<a:midPointStop
   offset="1"
   style="stop-color:#1E65FF" />
			</linearGradient><linearGradient
       id="XMLID_4_-0"
       gradientUnits="userSpaceOnUse"
       x1="38.310501"
       y1="106.9429"
       x2="38.310501"
       y2="106.9429">
			<stop
   offset="0"
   style="stop-color:#FFFFFF"
   id="stop13-98" />
			<stop
   offset="1"
   style="stop-color:#B1B1C5"
   id="stop14-8" />
			<a:midPointStop
   offset="0"
   style="stop-color:#FFFFFF" />
			<a:midPointStop
   offset="0.5"
   style="stop-color:#FFFFFF" />
			<a:midPointStop
   offset="1"
   style="stop-color:#B1B1C5" />
		</linearGradient><linearGradient
       id="XMLID_5_-58"
       gradientUnits="userSpaceOnUse"
       x1="55.079601"
       y1="55.829601"
       x2="98.924797"
       y2="74.430603">
				<stop
   offset="0.1461"
   style="stop-color:#6AC5FF"
   id="stop15-43" />
				<stop
   offset="0.2539"
   style="stop-color:#61B3FA"
   id="stop16-71" />
				<stop
   offset="0.469"
   style="stop-color:#4886EC"
   id="stop17-38" />
				<stop
   offset="0.7682"
   style="stop-color:#213DD7"
   id="stop18-0" />
				<stop
   offset="1"
   style="stop-color:#0000C5"
   id="stop19-97" />
				<a:midPointStop
   offset="0.1461"
   style="stop-color:#6AC5FF" />
				<a:midPointStop
   offset="0.5526"
   style="stop-color:#6AC5FF" />
				<a:midPointStop
   offset="1"
   style="stop-color:#0000C5" />
			</linearGradient><linearGradient
       id="XMLID_6_-17"
       gradientUnits="userSpaceOnUse"
       x1="48.565399"
       y1="62.0425"
       x2="90.431099"
       y2="67.934402">
				<stop
   offset="0"
   style="stop-color:#CDF8FF"
   id="stop20-040" />
				<stop
   offset="1"
   style="stop-color:#0056FF"
   id="stop21-85" />
				<a:midPointStop
   offset="0"
   style="stop-color:#CDF8FF" />
				<a:midPointStop
   offset="0.5"
   style="stop-color:#CDF8FF" />
				<a:midPointStop
   offset="1"
   style="stop-color:#0056FF" />
			</linearGradient><linearGradient
       id="XMLID_7_-16"
       gradientUnits="userSpaceOnUse"
       x1="56.809601"
       y1="101.1333"
       x2="121.1883"
       y2="70.107399">
				<stop
   offset="0"
   style="stop-color:#FFFFFF"
   id="stop22-62" />
				<stop
   offset="1"
   style="stop-color:#B1B1C5"
   id="stop23-19" />
				<a:midPointStop
   offset="0"
   style="stop-color:#FFFFFF" />
				<a:midPointStop
   offset="0.5"
   style="stop-color:#FFFFFF" />
				<a:midPointStop
   offset="1"
   style="stop-color:#B1B1C5" />
			</linearGradient><linearGradient
       id="XMLID_8_-64"
       gradientUnits="userSpaceOnUse"
       x1="16.091801"
       y1="124.8345"
       x2="116.8589"
       y2="69.899002">
				<stop
   offset="0"
   style="stop-color:#FFFFFF"
   id="stop24-8" />
				<stop
   offset="1"
   style="stop-color:#B1B1C5"
   id="stop25-08" />
				<a:midPointStop
   offset="0"
   style="stop-color:#FFFFFF" />
				<a:midPointStop
   offset="0.5"
   style="stop-color:#FFFFFF" />
				<a:midPointStop
   offset="1"
   style="stop-color:#B1B1C5" />
			</linearGradient><linearGradient
       id="XMLID_9_-1"
       gradientUnits="userSpaceOnUse"
       x1="57.195801"
       y1="98.454597"
       x2="121.4817"
       y2="67.473396">
				<stop
   offset="0"
   style="stop-color:#FFFFFF"
   id="stop26-0" />
				<stop
   offset="1"
   style="stop-color:#B1B1C5"
   id="stop27-22" />
				<a:midPointStop
   offset="0"
   style="stop-color:#FFFFFF" />
				<a:midPointStop
   offset="0.5"
   style="stop-color:#FFFFFF" />
				<a:midPointStop
   offset="1"
   style="stop-color:#B1B1C5" />
			</linearGradient><linearGradient
       id="XMLID_10_-9"
       gradientUnits="userSpaceOnUse"
       x1="98.720703"
       y1="73.721199"
       x2="52.720901"
       y2="55.9422">
				<stop
   offset="0"
   style="stop-color:#0032A4"
   id="stop28-75" />
				<stop
   offset="1"
   style="stop-color:#3995E5"
   id="stop29-64" />
				<a:midPointStop
   offset="0"
   style="stop-color:#0032A4" />
				<a:midPointStop
   offset="0.5"
   style="stop-color:#0032A4" />
				<a:midPointStop
   offset="1"
   style="stop-color:#3995E5" />
			</linearGradient><linearGradient
       id="XMLID_11_-63"
       gradientUnits="userSpaceOnUse"
       x1="56.9995"
       y1="2.1143"
       x2="98.865196"
       y2="8.0060997">
				<stop
   offset="0"
   style="stop-color:#CDF8FF"
   id="stop30-79" />
				<stop
   offset="1"
   style="stop-color:#0056FF"
   id="stop31-7" />
				<a:midPointStop
   offset="0"
   style="stop-color:#CDF8FF" />
				<a:midPointStop
   offset="0.5"
   style="stop-color:#CDF8FF" />
				<a:midPointStop
   offset="1"
   style="stop-color:#0056FF" />
			</linearGradient><radialGradient
       cx="4.9929786"
       cy="43.5"
       r="2.5"
       fx="4.9929786"
       fy="43.5"
       id="radialGradient2873-966-168"
       xlink:href="#linearGradient3688-166-749"
       gradientUnits="userSpaceOnUse"
       gradientTransform="matrix(2.003784,0,0,1.4,27.98813,-17.4)" /><linearGradient
       id="linearGradient3688-166-749"><stop
         id="stop2883"
         style="stop-color:#181818;stop-opacity:1"
         offset="0" /><stop
         id="stop2885-7"
         style="stop-color:#181818;stop-opacity:0"
         offset="1" /></linearGradient><radialGradient
       cx="4.9929786"
       cy="43.5"
       r="2.5"
       fx="4.9929786"
       fy="43.5"
       id="radialGradient2875-742-326"
       xlink:href="#linearGradient3688-166-749"
       gradientUnits="userSpaceOnUse"
       gradientTransform="matrix(2.003784,0,0,1.4,-20.01187,-104.4)" /><linearGradient
       x1="25.058096"
       y1="47.027729"
       x2="25.058096"
       y2="39.999443"
       id="linearGradient2877-634-617"
       xlink:href="#linearGradient3702-501-757"
       gradientUnits="userSpaceOnUse" /><linearGradient
       id="linearGradient3702-501-757"><stop
         id="stop2895"
         style="stop-color:#181818;stop-opacity:0"
         offset="0" /><stop
         id="stop2897"
         style="stop-color:#181818;stop-opacity:1"
         offset="0.5" /><stop
         id="stop2899"
         style="stop-color:#181818;stop-opacity:0"
         offset="1" /></linearGradient><linearGradient
       id="linearGradient3993"><stop
         offset="0"
         style="stop-color:#a3c0d0;stop-opacity:1"
         id="stop3995" /><stop
         offset="1"
         style="stop-color:#427da1;stop-opacity:0.74358976;"
         id="stop4001" /></linearGradient><linearGradient
       id="linearGradient2508"><stop
         offset="0"
         style="stop-color:#2e4a5a;stop-opacity:0.76353276;"
         id="stop2510" /><stop
         offset="1"
         style="stop-color:#6e8796;stop-opacity:0.80911678;"
         id="stop2512" /></linearGradient><linearGradient
       id="linearGradient3575"><stop
         id="stop3577"
         style="stop-color:#fafafa;stop-opacity:0.76353276;"
         offset="0" /><stop
         id="stop3579"
         style="stop-color:#e6e6e6;stop-opacity:0.64672363;"
         offset="1" /></linearGradient><linearGradient
       id="linearGradient3308-4-6-931-761"><stop
         id="stop2919"
         style="stop-color:#ffffff;stop-opacity:0.7962963;"
         offset="0" /><stop
         id="stop2921-1"
         style="stop-color:#ffffff;stop-opacity:0"
         offset="1" /></linearGradient><linearGradient
       id="linearGradient121"><stop
         id="stop120"
         style="stop-color:#ffffff;stop-opacity:0.81908834;"
         offset="0" /><stop
         id="stop121"
         style="stop-color:#ffffff;stop-opacity:0"
         offset="1" /></linearGradient><linearGradient
       id="linearGradient56"><stop
         id="stop44-7"
         style="stop-color:#ffffff;stop-opacity:0.81481481;"
         offset="0" /><stop
         id="stop45-1"
         style="stop-color:#ffffff;stop-opacity:0"
         offset="1" /></linearGradient><linearGradient
       id="XMLID_1_-9"
       gradientUnits="userSpaceOnUse"
       x1="64.000504"
       y1="117.0137"
       x2="64.000504"
       y2="123.5619"
       gradientTransform="matrix(3.7278183,0,0,3.7278183,-169.30672,-355.72061)"><stop
   offset="0"
   style="stop-color:#FFFFFF"
   id="stop11-3" />
<stop
   offset="1"
   style="stop-color:#8a8585;stop-opacity:1;"
   id="stop13-7" />
<a:midPointStop
   offset="0"
   style="stop-color:#FFFFFF"
   id="midPointStop15" />
<a:midPointStop
   offset="0.5"
   style="stop-color:#FFFFFF"
   id="midPointStop17" />
<a:midPointStop
   offset="1"
   style="stop-color:#949494"
   id="midPointStop19" />
</linearGradient><linearGradient
       id="linearGradient12"
       inkscape:collect="always"><stop
         style="stop-color:#956300;stop-opacity:1;"
         offset="0"
         id="stop12-1" /><stop
         style="stop-color:#513600;stop-opacity:1;"
         offset="1"
         id="stop13-2" /></linearGradient><linearGradient
       id="linearGradient8-8"
       inkscape:collect="always"><stop
         style="stop-color:#744900;stop-opacity:0.65498155;"
         offset="0"
         id="stop9-8" /><stop
         style="stop-color:#5d3800;stop-opacity:0.41512915;"
         offset="0.50093067"
         id="stop11-9" /><stop
         style="stop-color:#774900;stop-opacity:0.22047971;"
         offset="1"
         id="stop10-2" /></linearGradient><linearGradient
       id="linearGradient7-8"
       inkscape:collect="always"><stop
         style="stop-color:#ffffff;stop-opacity:1;"
         offset="0"
         id="stop7-8" /><stop
         style="stop-color:#ffffff;stop-opacity:0;"
         offset="1"
         id="stop8-8" /></linearGradient><radialGradient
       inkscape:collect="always"
       xlink:href="#linearGradient7-8"
       id="radialGradient8"
       cx="96.371109"
       cy="52.985355"
       fx="96.371109"
       fy="52.985355"
       r="106.90794"
       gradientTransform="matrix(0.06475897,1.3960371,-1.1000662,0.05102957,171.24872,-60.267815)"
       gradientUnits="userSpaceOnUse" /><linearGradient
       inkscape:collect="always"
       xlink:href="#linearGradient8-8"
       id="linearGradient10-6"
       x1="126.30491"
       y1="216.68916"
       x2="254.08325"
       y2="91.72831"
       gradientUnits="userSpaceOnUse" /><linearGradient
       inkscape:collect="always"
       xlink:href="#linearGradient12"
       id="linearGradient13"
       x1="62.000706"
       y1="119.80061"
       x2="218.91676"
       y2="187.68706"
       gradientUnits="userSpaceOnUse" /><linearGradient
       id="linearGradient16-8"><stop
         id="stop15-3"
         style="stop-color:#ffffff;stop-opacity:0.78094059;"
         offset="0" /><stop
         id="stop16-8"
         style="stop-color:#ffffff;stop-opacity:0"
         offset="1" /></linearGradient><linearGradient
       id="linearGradient4222"><stop
         id="stop4224"
         style="stop-color:#ffffff;stop-opacity:0.83539605;"
         offset="0" /><stop
         id="stop4226"
         style="stop-color:#ffffff;stop-opacity:0"
         offset="1" /></linearGradient></defs><sodipodi:namedview
     id="base"
     pagecolor="#ffffff"
     bordercolor="#000000"
     borderopacity="0.3"
     inkscape:pageopacity="0.0"
     inkscape:pageshadow="2"
     inkscape:zoom="0.98994949"
     inkscape:cx="505.07627"
     inkscape:cy="476.792"
     inkscape:document-units="mm"
     inkscape:showpageshadow="2"
     inkscape:pagecheckerboard="0"
     inkscape:deskcolor="#d1d1d1"
     inkscape:current-layer="svg1"
     showguides="true"><sodipodi:guide
       position="46.49107,121.58221"
       orientation="1,0"
       id="guide16"
       inkscape:locked="false" /><sodipodi:guide
       position="98.651783,154.51339"
       orientation="0,-1"
       id="guide17"
       inkscape:locked="false" /></sodipodi:namedview><metadata
     id="metadata1"><rdf:RDF><cc:Work
         rdf:about=""><dc:format>image/svg+xml</dc:format><dc:type
           rdf:resource="http://purl.org/dc/dcmitype/StillImage" /><cc:license
           rdf:resource="http://creativecommons.org/publicdomain/zero/1.0/" /></cc:Work><cc:License
         rdf:about="http://creativecommons.org/publicdomain/zero/1.0/"><cc:permits
           rdf:resource="http://creativecommons.org/ns#Reproduction" /><cc:permits
           rdf:resource="http://creativecommons.org/ns#Distribution" /><cc:permits
           rdf:resource="http://creativecommons.org/ns#DerivativeWorks" /></cc:License></rdf:RDF></metadata><g
     id="g12"
     inkscape:label="shadowclose"
     style="display:inline"
     transform="matrix(1.0330579,0,0,1.0330579,-2.2035813,8.8493538)"><path
       style="color:#000000;display:inline;fill:#000000;fill-opacity:0.0929705;stroke-width:1.16609;stroke-linecap:round;stroke-linejoin:bevel;-inkscape-stroke:none"
       d="m 16.252978,44.341516 36.105011,-33.002229 61.957981,0.435815 33.87631,31.694784 c 0,0 64.12877,-2.115614 79.86291,-0.435815 24.52209,2.341258 21.16667,32.153051 21.16667,32.153051 l 0.11037,104.144978 c 0.48637,27.64938 -0.40781,45.25999 -29.66029,47.44855 L 36.130614,226.40267 C 11.402737,224.00742 9.4751688,205.49428 10.205359,188.98303 Z"
       id="path12"
       sodipodi:nodetypes="ccccccccccc"
       inkscape:label="shadow" /><path
       style="color:#000000;display:inline;fill:#000000;fill-opacity:0.0929705;stroke-width:1.16609;stroke-linecap:round;stroke-linejoin:bevel;-inkscape-stroke:none"
       d="m 16.252978,44.341516 36.105011,-33.002229 56.288341,0.435815 33.87631,31.694784 c 0,0 63.81419,-0.815135 78.72898,4.477875 25.40122,6.806235 21.73362,28.37329 21.73362,28.37329 l 0.65315,100.365219 c 0.15291,23.49695 -2.94787,40.38154 -25.10037,41.77891 L 41.044304,220.35505 C 21.259354,217.1328 10.22349,205.93759 10.205359,188.98303 Z"
       id="path14"
       sodipodi:nodetypes="ccccccscccc"
       inkscape:label="shadow" /><path
       style="color:#000000;display:inline;fill:#000000;fill-opacity:0.0929705;stroke-width:1.16609;stroke-linecap:round;stroke-linejoin:bevel;-inkscape-stroke:none"
       d="m 16.252978,44.341516 36.105011,-33.002229 50.240721,-0.698114 33.87631,31.694784 c 0,0 55.26431,0.640556 80.99684,9.391566 12.38959,4.213398 19.15438,6.906208 19.65476,18.545909 1.39024,32.339248 3.27511,68.180748 2.34194,102.255098 -0.25256,9.22222 -2.31668,19.70368 -4.68414,27.65066 -2.70543,9.08145 -10.52594,12.93783 -21.91604,11.86039 L 43.312161,211.6616 c -14.52793,-0.076 -31.881718,-7.49369 -33.106802,-22.67857 z"
       id="path15"
       sodipodi:nodetypes="ccccsssscccc"
       inkscape:label="shadow" /><path
       style="color:#000000;display:inline;fill:#000000;fill-opacity:0.0929705;stroke-width:1.16609;stroke-linecap:round;stroke-linejoin:bevel;-inkscape-stroke:none"
       d="m 16.252978,44.341516 36.105011,-33.002229 48.236201,0.237329 31.20361,31.29388 c 0,0 56.89843,-2.363022 81.26411,9.926105 21.18433,10.684576 18.6584,27.170577 18.6584,27.170577 l 2.7121,92.195472 c 0,32.74973 -5.17276,36.66642 -30.25748,35.15222 L 42.367221,204.29106 c -13.969449,0.1705 -30.178506,-3.91126 -32.161862,-19.45071 z"
       id="path16"
       sodipodi:nodetypes="ccccscccccc"
       inkscape:label="shadow" /></g><g
     id="g13"
     inkscape:label="shadowopen"
     style="display:none"
     transform="matrix(1.0068174,0,0,1.0068174,-1.9389142,9.1285845)"><path
       style="color:#000000;display:inline;fill:#000000;fill-opacity:0.0929705;stroke-width:1.16609;stroke-linecap:round;stroke-linejoin:bevel;-inkscape-stroke:none"
       d="m 16.252978,44.341516 36.105011,-33.002229 73.183301,0.435815 33.87631,31.694784 c 0,0 40.06412,5.288391 60.8358,7.390766 19.90983,2.015143 34.77394,20.150305 34.00533,42.193175 -0.41964,12.034643 0.54567,36.121743 0.54567,36.121743 l -0.36685,29.84405 c -3.37229,55.09309 -15.97567,67.3805 -34.76561,67.76103 -54.79223,1.10965 -100.65039,3.04728 -156.705016,2.26785 C 26.62644,228.5432 10.961311,193.51874 10.961311,193.51874 Z"
       id="path13"
       sodipodi:nodetypes="ccccssccsscc"
       inkscape:label="shadow" /><path
       style="color:#000000;display:inline;fill:#000000;fill-opacity:0.0929705;stroke-width:1.16609;stroke-linecap:round;stroke-linejoin:bevel;-inkscape-stroke:none"
       d="m 16.252978,44.341516 36.105011,-33.002229 62.492521,0.435815 33.87631,31.694784 c 0,0 43.43472,9.086572 65.43036,8.651349 17.27416,-0.3418 40.22607,21.832063 40.10155,40.932592 -0.12988,19.923203 -0.87504,24.665753 -1.88892,46.375883 -2.14937,46.02402 -10.40288,78.69306 -36.97418,78.79832 0,0 -117.138269,5.09652 -174.454164,0.69109 -14.259757,-1.09604 -30.736107,-29.93609 -30.736107,-29.93609 z"
       id="path22"
       sodipodi:nodetypes="ccccssssscc"
       inkscape:label="shadow" /><path
       style="color:#000000;display:inline;fill:#000000;fill-opacity:0.124717;stroke-width:1.16609;stroke-linecap:round;stroke-linejoin:bevel;-inkscape-stroke:none"
       d="m 16.252978,44.341516 36.105011,-33.002229 57.147131,0.435815 33.87631,31.694784 c 0,0 43.12388,9.373494 64.91712,9.407302 20.39888,0.03164 46.66344,25.415249 47.41707,45.783098 0.82469,22.288574 -6.28806,65.998724 -7.13024,69.814724 -5.87003,26.59754 -3.56567,35.68331 -38.53514,43.33855 0,0 -110.978839,8.49353 -166.970618,1.22563 -13.465677,-1.74788 -32.874263,-24.05616 -32.874263,-24.05616 z"
       id="path23"
       sodipodi:nodetypes="ccccssscscc"
       inkscape:label="shadow" /><path
       style="color:#000000;display:inline;fill:url(#linearGradient16);stroke-width:1.16609;stroke-linecap:round;stroke-linejoin:bevel;-inkscape-stroke:none"
       d="m 16.252978,44.341516 36.105011,-33.002229 50.732661,0.435815 33.87631,31.694784 72.37937,13.462201 c 0,0 30.91772,5.843599 38.11483,12.001167 9.82151,8.402891 11.79254,44.628786 -9.44459,97.064406 -21.23714,52.43562 -15.70419,40.42994 -76.98295,40.56311 0,0 -56.11246,0.17817 -111.852655,-0.27603 -13.55581,-0.11047 -38.975606,-17.30171 -38.975606,-17.30171 z"
       id="path24"
       sodipodi:nodetypes="cccccszcscc"
       inkscape:label="shadow" /></g><g
     id="rect1"
     style="display:inline"
     inkscape:label="back"
     transform="matrix(1.0272988,0,0,1.0272988,-2.0291602,8.9067299)"><path
       style="color:#000000;fill:url(#linearGradient2);stroke-linecap:round;stroke-linejoin:bevel;-inkscape-stroke:none"
       d="m 12.095239,51.404763 30.616074,-32.883928 52.538689,0.377976 28.726198,31.75 78.61905,-0.377976 V 176.85026 H 12.095239 Z"
       id="path2"
       sodipodi:nodetypes="cccccccc" /><path
       id="rect3"
       style="display:inline;fill:#ffffff;stroke-width:15.377;stroke-linecap:round;stroke-linejoin:bevel"
       d="m 17.639788,55.324789 28.330568,-30.468726 45.435817,0.534539 29.934187,31.270535 75.10273,-0.26727 v 14.432554 l -80.01642,0.26727 -30.150038,-31.270535 -35.927125,0.26727 -33.244258,36.138369 z"
       sodipodi:nodetypes="ccccccccccc" /><path
       style="color:#000000;fill:#cea221;stroke-linecap:round;stroke-linejoin:bevel;-inkscape-stroke:none"
       d="M 42.767578,10.832031 37.083984,13.28125 6.46875,46.166016 4.40625,51.404297 V 176.84951 c 0.9154791,4.21083 2.5425773,7.71003 7.689453,7.68946 H 202.5957 l 7.6875,-7.68946 V 50.271484 c 0.24504,-4.443094 -1.57408,-7.510076 -7.72461,-7.689453 l -75.18554,0.361328 -26.42188,-29.203125 -5.646483,-2.529296 z m 3.267578,15.402344 45.78125,0.328125 26.458984,29.244141 5.73828,2.53125 70.89258,-0.341797 V 169.16201 H 19.783203 V 54.431641 Z"
       id="path3"
       sodipodi:nodetypes="ccccccccccccccccccccccc" /></g><g
     id="rect4"
     inkscape:label="close"
     style="display:inline"
     transform="matrix(1.046868,0,0,1.0272988,-6.4097406,12.476083)"><path
       style="color:#000000;fill:url(#linearGradient5);stroke-linejoin:bevel;-inkscape-stroke:none"
       d="M 39.948839,84.560004 50.070576,71.031306 148.56455,70.196909 h 67.59491 V 187.45551 H 39.948839 Z"
       id="path5"
       sodipodi:nodetypes="ccccccc" /><path
       id="rect7"
       style="fill:url(#linearGradient8);stroke-width:15.377;stroke-linejoin:bevel"
       d="M 38.443449,169.44888 H 195.37402 l 0.46773,-73.755263 h 17.3057 c -0.28876,34.032403 2.27179,61.637733 2.27179,95.671363 L 46.728804,187.08867 Z"
       sodipodi:nodetypes="ccccccc" /><path
       id="path7"
       style="display:inline;fill:url(#linearGradient18);stroke-width:15.377;stroke-linecap:round;stroke-linejoin:bevel"
       d="m 46.392076,181.98385 0.07351,-107.391098 102.868614,0.230236 61.47199,1.603617 v 20.312484 h -57.29851 l -88.12199,0.180167 -0.04755,85.323034 z"
       sodipodi:nodetypes="ccccccccc" /><path
       style="color:#000000;fill:url(#linearGradient10);stroke-linejoin:bevel;-inkscape-stroke:none"
       d="m 40.137595,62.33389 c -6.760736,-0.235673 -7.178598,4.309136 -7.6875,8.241352 L 31.694143,187.45508 c 0.674417,4.18151 3.271374,6.71512 7.6875,7.68945 H 216.16016 c 5.83804,0.29423 7.75626,-2.83094 7.6875,-7.68945 V 70.197079 c -0.16186,-5.049533 -2.53805,-7.943617 -7.6875,-7.827428 -58.45149,0 -116.731075,-0.03576 -176.022565,-0.03576 z M 208.4707,77.884579 V 179.76758 H 47.071096 L 47.827048,78.262742 c 59.235472,0.0065 101.404572,-0.378163 160.643652,-0.378163 z"
       id="path6"
       sodipodi:nodetypes="cccccccccccccc" /></g><g
     id="g20"
     inkscape:label="open"
     style="display:none"
     transform="matrix(1.0272988,0,-0.22903094,0.93647609,33.604309,21.96265)"><path
       style="color:#000000;fill:url(#linearGradient20);stroke-linejoin:bevel;-inkscape-stroke:none"
       d="m 22.886951,78.134409 h 97.392209 l 28.28539,-14.363095 h 67.59491 V 187.45551 H 22.886951 Z"
       id="path17" /><path
       id="path18"
       style="fill:url(#linearGradient21);stroke-width:15.377;stroke-linejoin:bevel"
       d="M 21.381561,169.44888 H 195.37402 l 0.46773,-80.180858 h 17.3057 c -0.28876,34.032398 2.27179,68.063328 2.27179,102.096958 L 29.666916,187.08867 Z"
       sodipodi:nodetypes="ccccccc" /><path
       id="path19"
       style="display:inline;fill:url(#linearGradient14);stroke-width:15.377;stroke-linecap:round;stroke-linejoin:bevel"
       d="m 26.196468,77.472204 c 0,0 61.529128,0.829797 93.811602,-0.801808 l 30.71274,-2.053499 61.47199,1.603617 4.16268,20.312484 H 55.486552 c 5.546427,25.710512 7.894291,67.591662 -3.012082,95.226152 l -20.345138,-3.97048 c -1.199998,-29.74052 2.240856,-57.5062 -5.932864,-90.214271 z"
       sodipodi:nodetypes="cccccccccc" /><path
       style="color:#000000;fill:url(#linearGradient22);stroke-linejoin:bevel;-inkscape-stroke:none"
       d="m 149.95106,62.301535 -3.48047,0.833985 C 102.32048,62.548127 63.464386,62.567274 21.130351,62.567274 c -6.756833,-0.830807 -6.851232,3.729475 -7.6875,7.689454 11.672833,51.561032 8.047695,91.093652 4.459577,124.528112 -0.339785,3.16615 4.426923,5.1263 7.6875,7.68945 H 218.86337 c 3.67232,-2.70006 6.52227,-7.72863 8.2627,-15.89878 5.68917,-38.86151 6.4991,-77.72301 -1.8918,-116.584522 -1.05751,-2.362904 -1.02105,-4.580249 -7.6875,-7.689453 z m 1.83985,15.376953 h 58.0664 c 8.73588,37.930492 4.82746,73.639752 1.3166,109.418852 H 33.279381 c 6.637531,-31.51664 5.60206,-72.67072 -4.459577,-109.153112 45.521495,-0.874055 78.037736,0.03645 122.971106,-0.26574 z"
       id="path20"
       sodipodi:nodetypes="ccccscccccccccccc" /></g><g
     id="rect1-3"
     transform="matrix(0.71303557,0,0,0.71303557,83.20034,74.025601)"><g
       id="g6"
       inkscape:label="shadow"
       transform="matrix(1.0356867,0,0,1.0356867,-8.5900168,-5.8944615)"><path
         id="rect3-8"
         style="fill:#000000;fill-opacity:0.179443;stroke-width:4;stroke-linecap:square"
         d="m 31.270535,168.3798 199.917625,3.74177 c 0,0 16.6785,5.56099 5.87994,28.0633 -5.27804,10.99852 -57.06205,19.51068 -57.06205,19.51068 -3.84923,6.81265 -5.58023,5.24031 -10.82442,5.07812 0,0 -48.43471,25.63965 -56.39388,25.12334 -3.87039,-0.25107 -9.4168,-0.36523 -17.705034,-7.45351 -8.288228,-7.08829 -24.2053,-22.92853 -27.396707,-30.29832 -3.268882,-7.5487 -9.402186,-7.57701 -12.762121,-10.7576 -9.8741,-9.34703 -20.451583,-18.53068 -23.653353,-33.00778 z"
         sodipodi:nodetypes="ccsccssssc" /><path
         id="path3-0"
         style="fill:#000000;fill-opacity:0.179443;stroke-width:3.94755;stroke-linecap:square"
         d="m 31.344281,165.7071 197.295999,3.6927 c 0,0 16.45978,5.48807 5.80283,27.69529 -5.20882,10.85429 -56.31376,19.25483 -56.31376,19.25483 -3.79876,6.72331 -5.50706,5.17159 -10.68248,5.01153 0,0 -47.79956,25.30342 -55.65436,24.79388 -3.81963,-0.24777 -9.29331,-0.36044 -17.47285,-7.35577 -8.17954,-6.99533 -23.887883,-22.62785 -27.037439,-29.901 C 64.056205,201.44885 58.00333,201.42091 54.687456,198.28203 44.94284,189.05757 34.504065,179.99435 31.344281,165.7071 Z"
         sodipodi:nodetypes="ccsccssssc" /><path
         id="path4"
         style="fill:#000000;fill-opacity:0.179443;stroke-width:3.85571;stroke-linecap:square"
         d="m 33.215168,165.17256 192.703792,3.60683 c 0,0 16.07667,5.36045 5.66777,27.05128 -5.08759,10.60189 -55.00302,18.80708 -55.00302,18.80708 -3.71034,6.56697 -5.37888,5.05133 -10.43384,4.895 0,0 -46.68699,24.71502 -54.35896,24.21733 -3.73073,-0.24201 -9.07701,-0.35206 -17.066162,-7.18472 -7.989155,-6.83267 -23.331875,-22.10167 -26.408123,-29.2057 -3.150928,-7.27647 -9.062918,-7.30376 -12.301612,-10.36965 -9.517803,-9.00996 -19.713608,-17.86243 -22.799845,-31.81745 z"
         sodipodi:nodetypes="ccsccssssc" /><path
         id="path5-4"
         style="fill:#000000;fill-opacity:0.179443;stroke-width:3.74415;stroke-linecap:square"
         d="m 35.620594,165.17256 188.111576,3.48416 c 0,0 15.69356,5.17814 5.53271,26.13126 -4.96636,10.24132 -53.69228,18.16745 -53.69228,18.16745 -3.62192,6.34362 -5.2507,4.87953 -10.1852,4.72852 0,0 -45.57442,23.87445 -53.06356,23.39369 -3.64183,-0.23378 -8.8607,-0.34009 -16.659465,-6.94037 -7.79877,-6.60029 -22.775867,-21.34998 -25.778807,-28.2124 -3.07584,-7.029 -8.846945,-7.05536 -12.008459,-10.01698 -9.29099,-8.70353 -19.243825,-17.25492 -22.256515,-30.73533 z"
         sodipodi:nodetypes="ccsccssssc" /><path
         id="path6-7"
         style="fill:#000000;fill-opacity:0.179443;stroke-width:3.58596;stroke-linecap:square"
         d="m 40.472054,166.24164 180.164006,3.33696 c 0,0 15.03052,4.95936 5.29896,25.02723 -4.75653,9.80863 -51.42382,17.39989 -51.42382,17.39989 -3.4689,6.07561 -5.02886,4.67337 -9.75488,4.52874 0,0 -43.64894,22.86578 -50.82167,22.40533 -3.48797,-0.2239 -8.48634,-0.32572 -15.955624,-6.64715 -7.469273,-6.32143 -21.813599,-20.44796 -24.689667,-27.02044 -2.945888,-6.73203 -8.473168,-6.75728 -11.501111,-9.59377 -8.898453,-8.33582 -18.430788,-16.52592 -21.316194,-29.43679 z"
         sodipodi:nodetypes="ccsccssssc" /></g><path
       style="color:#000000;fill:#e6b334;stroke-linecap:square;-inkscape-stroke:none"
       d="m 19.654761,40.065474 c 0.245417,-3.613292 2.434584,-5.581872 5.953126,-6.425596 9.254453,-4.282355 58.332073,-9.339168 58.332073,-9.339168 2.317183,2.124303 4.429154,1.263241 7.341292,-1.244165 12.270008,-2.096149 23.506368,-6.560434 33.923368,-6.803572 11.60558,-4.173569 20.53049,-1.709569 27.30878,0.566964 13.78777,4.630709 21.45254,6.889589 31.19419,10.110049 2.75473,4.116527 8.82243,3.408187 15.03388,4.067993 13.99997,0.365586 23.13018,5.651914 32.20592,9.464465 6.63848,2.770585 5.76677,9.686081 6.51731,15.27561 2.4865,18.517759 -1.12685,38.971145 -4.25339,58.788726 0,0 -3.38151,5.40767 -3.19936,9.35769 0.11962,2.59409 1.98437,7.75408 1.98437,7.75408 l -3.13173,51.89019 c -0.19365,3.19612 0.49747,6.64502 -3.03216,8.888 -16.05737,9.74752 -34.96222,12.52773 -53.00605,16.08712 -3.13207,-1.28892 -6.33773,-1.84193 -9.9678,1.84911 -12.95274,10.80583 -31.33645,17.38758 -48.5776,24.85798 -5.95994,3.63623 -11.91988,3.79114 -17.879811,-0.13108 C 83.733245,225.03656 72.544565,213.30269 63.402314,199.23004 61.869943,193.22625 58.495316,193.3633 55.538877,192.1064 46.564104,184.80457 36.948524,178.14355 29.860119,168.95536 l -3.779762,-6.04762 C 21.585666,145.6891 22.431421,126.94462 24.946428,107.72321 v -5.66964 C 20.11754,82.61687 19.501429,61.495061 19.654761,40.065474 Z"
       id="path11"
       sodipodi:nodetypes="cccccscccscscccccccccccccc" /><g
       id="g1"
       transform="matrix(0.85496252,0,0,0.85496252,6.5806082,10.037939)"><path
         d="m 152.65508,156.73112 c -0.11741,0.13997 -1.51296,17.77707 -2.10182,22.44081 -0.51635,3.78107 -1.48802,11.87087 -9.5465,14.02868 -8.28337,2.21802 -9.56109,-6.55621 -9.91214,-10.42674 -0.42701,-4.28302 -0.13196,-8.01184 -0.002,-9.65041 0.41628,-5.26102 1.91432,-20.03682 14.5625,-23.42362 3.80713,-1.01941 5.84584,-0.48912 7.45579,-0.0662 l -0.45637,7.11163 z m -33.48274,21.62546 c -2.44453,30.89438 14.34679,26.39819 16.80841,25.73903 6.94019,-1.85835 11.71364,-6.78408 14.12617,-13.7553 l -0.54678,9.68872 c 2.13703,-0.68074 4.28001,-1.46798 7.74897,-2.39686 1.23193,-0.32988 2.23692,-0.59898 3.12675,-0.72875 0.89659,-0.24008 1.78157,-0.37298 2.78014,-0.53188 -1.51271,-3.02493 -2.23172,-10.55318 -0.87887,-27.65077 1.31768,-16.65309 3.54556,-44.80941 5.67617,-53.74645 -4.17452,2.94383 -7.74364,5.07983 -15.4073,7.77303 2.77057,2.36864 2.64055,4.01202 1.49648,18.47086 -2.07159,-0.0866 -4.69939,-0.13496 -9.28919,1.09405 -20.03558,5.3649 -24.63488,23.32954 -25.64144,36.05051 m 61.14976,-21.86601 c 0.83277,-9.1242 3.37817,-17.74186 11.32333,-19.86932 8.73266,-2.33832 8.654,6.90329 7.81602,14.74439 z m 30.134,-7.0044 c 1.01442,-12.82026 -0.56111,-24.73409 -17.12775,-20.29805 -22.83293,6.11394 -24.79271,30.88193 -25.20843,36.13591 -1.75977,22.24029 7.73116,28.27837 24.85829,23.69226 7.60688,-2.03688 11.39153,-4.11722 13.44999,-5.20998 0.20069,-3.91409 0.95799,-6.58401 1.90348,-10.1607 -2.46832,2.05889 -5.63753,4.72888 -12.35311,6.52713 -17.46287,4.676 -16.45614,-10.82689 -16.03144,-16.19427 l 29.78044,-7.97427 0.72993,-6.53686 m 36.04055,-5.00325 c -0.80617,10.18853 -3.79111,24.39507 -16.77537,27.87186 -1.79235,0.47993 -4.0029,0.74557 -5.43137,0.80878 0.0875,-3.88385 0.62498,-10.67702 1.24912,-18.56494 0.74575,-9.42489 2.14023,-14.61683 3.11893,-17.24423 2.96338,-8.40555 8.23311,-9.92072 9.2381,-10.18983 8.50796,-2.27815 9.27758,8.76362 8.6003,17.32315 z m -33.06845,20.54239 c -0.64172,8.11018 -1.00561,12.70907 -2.62594,16.57292 4.45097,0.52538 10.07894,-0.0188 16.91049,-1.84804 4.3651,-1.16883 17.01355,-4.55568 24.9237,-20.07643 3.74956,-7.22514 5.54435,-16.07228 6.05585,-22.53674 0.31208,-3.944 0.54762,-12.47769 -2.26306,-17.08991 -2.72366,-4.30679 -7.55444,-5.58914 -12.9245,-4.15121 -10.74735,2.87781 -14.57404,12.48193 -16.60595,17.42336 0.44211,-5.58732 2.09389,-25.11872 3.7767,-35.329072 -7.53387,5.236582 -12.05797,6.980362 -16.90232,8.708002 4.22665,0.5809 3.65397,7.81857 1.78998,31.37599 l -2.13228,26.94805"
         id="path4-3"
         sodipodi:nodetypes="ccscssccccsccsccscccsccscccsssccsccccscscsccccscscscccsc"
         style="stroke-width:2.3645" /><g
         id="g5"
         transform="matrix(1.219242,0.54846692,0,1.4747321,-1.4195257,44.576582)"><path
           fill="#d70751"
           d="m 60.969,47.645 c -1.494,0.02 0.281,0.768 2.232,1.069 0.541,-0.422 1.027,-0.846 1.463,-1.26 -1.213,0.297 -2.449,0.304 -3.695,0.191 m 8.017,-1.999 c 0.893,-1.229 1.541,-2.573 1.77,-3.963 -0.201,0.99 -0.736,1.845 -1.244,2.749 -2.793,1.759 -0.264,-1.044 -0.002,-2.111 -3.002,3.783 -0.414,2.268 -0.524,3.325 m 2.963,-7.704 c 0.182,-2.691 -0.529,-1.839 -0.768,-0.814 0.278,0.146 0.499,1.898 0.768,0.814 M 55.301,1.163 c 0.798,0.142 1.724,0.252 1.591,0.443 0.876,-0.193 1.073,-0.367 -1.591,-0.443 m 1.592,0.443 -0.561,0.117 0.523,-0.048 0.038,-0.069"
           id="path1" /><path
           fill="#d70751"
           d="m 81.762,38.962 c 0.09,2.416 -0.705,3.59 -1.424,5.666 l -1.293,0.643 c -1.057,2.054 0.105,1.304 -0.652,2.937 -1.652,1.467 -5.006,4.589 -6.08,4.875 -0.785,-0.017 0.531,-0.926 0.703,-1.281 -2.209,1.516 -1.773,2.276 -5.152,3.199 L 67.766,54.78 c -8.33,3.92 -19.902,-3.847 -19.75,-14.443 -0.088,0.672 -0.253,0.504 -0.437,0.774 -0.43,-5.451 2.518,-10.926 7.49,-13.165 4.863,-2.406 10.564,-1.42 14.045,1.829 -1.912,-2.506 -5.721,-5.163 -10.232,-4.917 -4.421,0.072 -8.558,2.881 -9.938,5.932 -2.264,1.425 -2.528,5.496 -3.514,6.242 -1.329,9.76 2.497,13.975 8.97,18.936 1.016,0.686 0.286,0.791 0.422,1.313 -2.15,-1.006 -4.118,-2.526 -5.738,-4.387 0.86,1.257 1.787,2.479 2.986,3.439 -2.029,-0.685 -4.738,-4.913 -5.527,-5.085 3.495,6.258 14.178,10.975 19.775,8.634 -2.59,0.096 -5.879,0.053 -8.787,-1.022 -1.225,-0.629 -2.884,-1.93 -2.587,-2.173 7.636,2.851 15.522,2.158 22.128,-3.137 1.682,-1.31 3.518,-3.537 4.049,-3.567 -0.799,1.202 0.137,0.578 -0.477,1.639 1.672,-2.701 -0.729,-1.1 1.73,-4.664 l 0.908,1.25 c -0.34,-2.244 2.785,-4.966 2.467,-8.512 0.717,-1.084 0.799,1.168 0.039,3.662 1.055,-2.767 0.279,-3.212 0.549,-5.496 0.291,0.768 0.678,1.583 0.875,2.394 -0.688,-2.675 0.703,-4.503 1.049,-6.058 -0.342,-0.15 -1.061,1.182 -1.227,-1.976 0.025,-1.372 0.383,-0.719 0.52,-1.057 -0.268,-0.155 -0.975,-1.207 -1.404,-3.224 0.309,-0.475 0.832,1.229 1.256,1.298 -0.273,-1.603 -0.742,-2.826 -0.762,-4.057 -1.24,-2.59 -0.439,0.346 -1.443,-1.112 -1.32,-4.114 1.094,-0.955 1.258,-2.823 1.998,2.895 3.137,7.385 3.662,9.244 -0.4,-2.267 -1.045,-4.464 -1.834,-6.589 0.609,0.257 -0.979,-4.663 0.791,-1.405 C 87.189,15.552 81,9.062 75.305,6.018 76,6.655 76.879,7.455 76.565,7.581 73.731,5.896 74.229,5.763 73.823,5.051 71.518,4.112 71.364,5.128 69.839,5.053 65.489,2.745 64.651,2.99 60.648,1.546 L 60.83,2.398 C 57.949,1.438 57.473,2.76 54.36,2.4 54.171,2.253 55.358,1.864 56.336,1.723 53.55,2.091 53.68,1.173 50.954,1.824 51.625,1.353 52.337,1.04 53.053,0.64 50.782,0.778 47.629,1.962 48.602,0.884 44.897,2.538 38.316,4.859 34.623,8.322 L 34.507,7.546 c -1.692,2.031 -7.379,6.066 -7.832,8.699 l -0.453,0.105 c -0.879,1.491 -1.45,3.18 -2.148,4.713 -1.151,1.963 -1.688,0.756 -1.524,1.064 -2.265,4.592 -3.392,8.45 -4.363,11.616 0.692,1.035 0.017,6.232 0.278,10.391 -1.136,20.544 14.418,40.489 31.42,45.093 2.492,0.893 6.197,0.861 9.349,0.949 -3.718,-1.064 -4.198,-0.563 -7.822,-1.826 -2.613,-1.232 -3.185,-2.637 -5.037,-4.244 l 0.733,1.295 c -3.63,-1.285 -2.111,-1.59 -5.065,-2.525 l 0.783,-1.021 c -1.177,-0.09 -3.117,-1.982 -3.647,-3.033 l -1.288,0.051 c -1.546,-1.906 -2.371,-3.283 -2.31,-4.35 l -0.416,0.742 c -0.471,-0.809 -5.691,-7.158 -2.983,-5.68 -0.503,-0.458 -1.172,-0.747 -1.897,-2.066 l 0.551,-0.629 c -1.301,-1.677 -2.398,-3.826 -2.314,-4.542 0.695,0.938 1.177,1.114 1.655,1.275 -3.291,-8.164 -3.476,-0.449 -5.967,-8.31 l 0.526,-0.042 c -0.403,-0.611 -0.65,-1.27 -0.974,-1.919 l 0.23,-2.285 c -2.368,-2.736 -0.662,-11.645 -0.319,-16.53 0.235,-1.986 1.977,-4.101 3.3,-7.418 l -0.806,-0.138 c 1.542,-2.688 8.802,-10.799 12.166,-10.383 1.629,-2.046 -0.324,-0.008 -0.643,-0.522 3.579,-3.703 4.704,-2.616 7.119,-3.283 2.603,-1.545 -2.235,0.604 -1.001,-0.589 4.503,-1.149 3.19,-2.614 9.063,-3.197 0.62,0.352 -1.437,0.544 -1.953,1.001 3.75,-1.836 11.869,-1.417 17.145,1.018 6.117,2.861 12.994,11.314 13.266,19.267 l 0.309,0.083 c -0.156,3.162 0.484,6.819 -0.627,10.177 l 0.751,-1.591"
           id="path2-6" /><path
           fill="#d70751"
           d="m 44.658,49.695 -0.211,1.047 c 0.983,1.335 1.763,2.781 3.016,3.821 -0.902,-1.759 -1.571,-2.486 -2.805,-4.868 m 2.321,-0.09 c -0.52,-0.576 -0.826,-1.268 -1.172,-1.956 0.33,1.211 1.006,2.252 1.633,3.312 l -0.461,-1.356 m 41.084,-8.93 -0.219,0.552 c -0.402,2.858 -1.273,5.686 -2.605,8.309 1.472,-2.767 2.421,-5.794 2.824,-8.861 M 55.598,0.446 C 56.607,0.077 58.08,0.243 59.154,0 57.756,0.117 56.365,0.187 54.992,0.362 l 0.606,0.084 M 20.127,19.308 c 0.233,2.154 -1.62,2.991 0.41,1.569 1.09,-2.454 -0.424,-0.677 -0.41,-1.569 m -2.388,9.974 c 0.469,-1.437 0.553,-2.299 0.732,-3.132 -1.293,1.654 -0.596,2.007 -0.732,3.132"
           id="path3-6" /></g></g><path
       id="rect6"
       style="display:inline;opacity:1;fill:url(#radialGradient8);stroke-width:4;stroke-linecap:square"
       d="m 20.579622,35.546667 v 5.613095 l 72.74392,34.794223 c 3.825767,1.674873 3.781717,5.674442 3.820806,9.372583 -3.010533,27.742352 -1.429276,47.321522 -0.03134,67.226592 l -0.03134,6.37243 c -9.372647,15.40546 -3.486088,47.65668 -0.06269,73.59902 l 8.285282,5.07825 c -0.91836,-24.49073 -3.42897,-49.49226 0.31663,-75.49121 l 0.31664,-9.34537 c -1.77185,-22.23125 -0.54055,-44.46249 0.63328,-66.693732 0.003,-5.567738 0.82393,-7.680742 2.70763,-8.15772 L 234.39551,47.841007 V 42.22843 L 107.76737,71.912991 c -5.42129,1.508568 -6.96738,0.684709 -11.120628,-1.211547 z"
       sodipodi:nodetypes="ccccccccccccccccc" /><path
       id="rect8"
       style="display:inline;opacity:1;fill:url(#linearGradient10-6);stroke-width:4;stroke-linecap:square"
       d="m 116.58273,72.714566 50.01027,-10.726465 9.73289,-2.267857 50.55432,-12.473215 c 3.14129,-1.515262 6.30219,-2.926004 10.48883,1.133929 1.89423,22.367908 1.54116,44.735817 -4.37128,67.103722 -2.01309,5.20459 -3.24271,10.94372 0,16.41558 l -3.74177,54.36785 -4.27631,7.32841 c -15.44287,7.88002 -33.33361,11.47625 -51.59002,14.43256 l -9.44249,1.7477 c -15.53109,12.69454 -34.72367,20.15836 -53.67262,27.97024 -3.35385,0.57515 -8.20235,0.60093 -8.22098,-6.4256 -1.58281,-20.06868 -4.405742,-38.01143 0.75595,-69.64211 l 0.18899,-8.40996 c -1.64541,-22.08216 -1.58936,-57.449944 -1.0157,-66.74441 0.57366,-9.294465 0.0702,-11.488263 14.59992,-13.810374 z"
       sodipodi:nodetypes="ccccccccccccccczc"
       inkscape:label="shadow" /><path
       style="color:#000000;display:inline;fill:url(#linearGradient13);stroke-linecap:square;-inkscape-stroke:none"
       d="m 131.84077,12.305863 c -14.43151,1.588082 -29.8153,4.902306 -40.895458,8.780074 l -0.548828,0.0918 -0.419922,0.363282 c -1.360688,1.171578 -2.431928,1.790147 -3.023437,1.921875 -0.591509,0.131728 -0.825842,0.129939 -1.662109,-0.636719 l -0.66211,-0.607422 -0.894531,0.0918 c 0,0 -12.292894,1.267842 -25.755859,3.072265 -6.731483,0.902212 -13.756188,1.937616 -19.710938,3.023438 -5.88046,1.072275 -10.558872,2.104708 -13.361328,3.373047 -1.91086,0.491325 -3.636304,1.301129 -4.9375,2.642578 -1.357368,1.399358 -2.160304,3.324537 -2.308594,5.507812 l -0.0059,0.06055 v 0.06055 c -0.152906,21.370082 0.45901,42.539587 5.292969,62.183597 v 5.375 c -2.514462,19.27926 -3.390818,38.22632 1.197265,55.80273 l 0.07813,0.29687 3.994141,6.39063 0.06055,0.0781 c 7.337161,9.51064 17.105822,16.24422 26,23.48047 l 0.21875,0.17774 0.259765,0.11133 c 1.754458,0.74589 3.197908,1.01981 4.19336,1.63867 0.995451,0.61886 1.837345,1.48119 2.515625,4.13867 l 0.08008,0.31836 0.179687,0.27734 c 9.271671,14.27187 20.620672,26.16791 33.433594,36.32617 l 0.07031,0.0547 0.07227,0.0488 c 6.491588,4.27211 13.577048,4.0998 20.021488,0.16797 l -0.2461,0.1289 c 17.15847,-7.43457 35.70369,-14.01198 49.06445,-25.1582 l 0.0742,-0.0625 0.0703,-0.0703 c 1.57364,-1.60007 2.78469,-2.09147 3.93945,-2.20508 1.15476,-0.11361 2.40278,0.21135 3.83984,0.80274 l 0.5586,0.22851 0.58984,-0.11523 c 17.97759,-3.54633 37.14982,-6.31854 53.6582,-16.33985 l 0.0176,-0.0117 0.0156,-0.01 c 2.20633,-1.40206 3.29913,-3.49979 3.66015,-5.40235 0.36103,-1.90255 0.21137,-3.64139 0.29688,-5.05273 l 3.15625,-52.30273 -0.14063,-0.38868 c 0,0 -0.44867,-1.242 -0.91211,-2.79687 -0.46343,-1.55487 -0.91448,-3.48885 -0.95507,-4.36914 -0.0629,-1.36416 0.59634,-3.54192 1.35937,-5.25391 0.76303,-1.71199 1.53711,-2.95117 1.53711,-2.95117 l 0.2168,-0.3457 0.0644,-0.4043 c 3.12258,-19.792496 6.80612,-40.401682 4.25977,-59.365232 -0.3472,-2.585718 -0.29811,-5.786759 -1.09571,-8.921875 -0.79719,-3.133516 -2.73909,-6.305812 -6.6289,-7.93164 l -0.006,-0.002 c -8.90718,-3.742331 -18.44647,-9.241088 -32.92383,-9.61914 l 0.16015,0.01172 c -3.2485,-0.34507 -6.3171,-0.34348 -8.71093,-0.72461 -2.39384,-0.38113 -3.90264,-1.016671 -4.87305,-2.466797 l -0.38086,-0.572265 -0.65234,-0.214844 c -8.57376,-4.99448 -26.73706,-9.168739 -41.07693,-11.859606 -3.26344,-0.612383 -5.95983,-1.466126 -11.41797,-0.865498 z m 11.33798,3.871745 c 13.67062,1.918032 30.57309,7.290035 39.39355,12.455204 1.79894,2.192284 4.40738,3.184207 7.04101,3.603516 2.88156,0.458782 5.95307,0.435264 8.91602,0.75 l 0.0801,0.0098 0.0801,0.002 c 13.5197,0.353044 22.23965,5.425876 31.48242,9.308594 h 0.004 l 0.002,0.002 c 2.74469,1.145502 3.68503,2.81586 4.29883,5.228515 0.6138,2.412656 0.60252,5.462992 1.00586,8.466797 2.41426,17.979729 -1.08068,38.160326 -4.19922,57.906256 -0.19206,0.31503 -0.79789,1.2757 -1.5664,3 -0.88219,1.97934 -1.82237,4.48054 -1.70313,7.0664 0.079,1.7138 0.6203,3.65448 1.11914,5.32813 0.42866,1.43819 0.73466,2.28316 0.84375,2.58984 l -3.10742,51.51367 c -0.10814,1.78478 -0.0101,3.36717 -0.23437,4.54883 -0.22373,1.17901 -0.55327,1.92701 -1.86915,2.76563 -15.45673,9.37262 -33.88266,12.197 -51.82421,15.7207 -1.54014,-0.58432 -3.22387,-1.05837 -5.10743,-0.87305 -2.1386,0.21041 -4.34396,1.2899 -6.40039,3.38086 l 0.14453,-0.13476 c -12.54469,10.46541 -30.76799,17.05238 -48.09179,24.55859 l -0.12891,0.0566 -0.11719,0.0723 c -5.45447,3.32784 -10.27671,3.46787 -15.679683,-0.0625 -12.485623,-9.91169 -23.485089,-21.45591 -32.476563,-35.29493 -0.891078,-2.93747 -2.339709,-4.91027 -4.023437,-5.95703 -1.72631,-1.07323 -3.340391,-1.38565 -4.53125,-1.85351 -8.954129,-7.26351 -18.273486,-13.80262 -25.041016,-22.55274 l -3.517578,-5.62304 c -4.320602,-16.75281 -3.530071,-35.15467 -1.041016,-54.17774 l 0.01758,-0.1289 v -6.04493 l -0.06055,-0.23632 c -4.7493,-19.116357 -5.382725,-40.045474 -5.232422,-61.392585 0.100336,-1.414645 0.51143,-2.277685 1.185547,-2.972656 0.678203,-0.699184 1.72663,-1.261499 3.234375,-1.623047 l 0.193359,-0.04492 0.179688,-0.08398 c 1.838325,-0.850657 6.687002,-2.04654 12.537109,-3.113281 5.850107,-1.066741 12.830675,-2.096857 19.525391,-2.994141 13.100699,-1.755869 24.570343,-2.937314 25.082031,-2.990234 1.321884,0.843259 2.813351,1.325355 4.230469,1.009765 1.596203,-0.355471 2.766975,-1.854363 4.308593,-2.447265 12.990533,-4.996125 27.247543,-8.000646 40.768393,-9.020823 4.61227,-0.348007 4.59777,-0.518751 10.27928,0.278385 z"
       id="path12-8"
       sodipodi:nodetypes="scccscccsscsccccccccccccscccccccccccsccccccscccssscccssccccscccsscsccccccsscsssccsccscccccccsccccccccscccsscscasc" /><path
       id="rect2"
       style="display:inline;opacity:1;fill:#030200;stroke-width:3.93791;stroke-linecap:square"
       d="m 85.987743,34.451391 c 0.229668,0.122429 -2.177405,-1.456434 -3.458052,-0.832973 -0.868088,0.422613 -1.628006,1.173131 -0.422457,1.973564 L 110.23762,56.875061 C 86.998574,53.723377 69.34179,53.184759 49.200636,55.496297 42.078648,55.03608 43.430374,62.234778 43.262611,65.809475 42.176364,88.955219 40.161006,134.41115 40.161006,134.41115 L 8.8232133,104.70336 c -2.6478793,-0.70827 -3.2525036,3.49812 -1.0113321,4.8537 l 31.7673708,28.98937 -9.23065,62.26558 c -1.144011,3.2085 1.62326,6.34606 3.815471,4.80469 l 9.158295,-63.81334 29.08457,27.22556 c 4.918738,4.73762 9.246913,5.78826 16.381732,3.89494 l 56.46633,-9.3351 -11.26293,69.37154 c -3.05953,1.15181 -0.74132,4.21384 3.45198,3.72398 3.64065,-0.4253 3.93076,-1.96401 4.36645,-3.65788 l 10.31316,-71.16011 61.19885,-3.28346 c 3.58776,-1.44828 3.05246,-5.07332 0.98509,-6.27216 l -61.60819,5.46066 12.7183,-70.058764 c 0.60478,-2.155146 0.7765,-4.240182 -2.0704,-5.836511 L 127.46077,61.997513 c 20.7285,-1.071478 57.12238,-6.342665 57.12238,-6.342665 l 2.12397,0.59358 c 0,0 -1.22056,-3.068866 -1.56031,-3.485407 -0.6795,-0.833082 -3.55762,-2.74383 -6.15296,-2.340733 -20.35388,3.949276 -39.3481,6.501465 -61.31309,6.342019 z m 30.449657,29.155349 43.5081,22.992551 -13.62762,72.291569 -57.842096,8.59241 c -4.903305,1.57989 -8.941098,0.51669 -13.432698,-2.84884 L 43.904191,137.66757 c 0,0 5.107898,-68.492091 5.595865,-73.033957 0.188532,-1.754806 1.846577,-3.677335 3.533669,-3.892549 23.229356,-2.963259 52.516145,0.06426 63.403675,2.865676 z"
       transform="matrix(0.98941046,-0.14514446,0.1344425,0.99092139,0,0)"
       sodipodi:nodetypes="cscccscccccccccccsccccccccccscccccccccssc" /></g></svg>
