<?xml version="1.0" encoding="UTF-8" standalone="no"?>
<!-- Created with Inkscape (http://www.inkscape.org/) -->

<svg
   width="256mm"
   height="256mm"
   viewBox="0 0 256 256"
   version="1.1"
   id="svg1"
   inkscape:version="1.3.2 (091e20ef0f, 2023-11-25)"
   xml:space="preserve"
   sodipodi:docname="folder-presentation-symbolic.svg"
   xmlns:inkscape="http://www.inkscape.org/namespaces/inkscape"
   xmlns:sodipodi="http://sodipodi.sourceforge.net/DTD/sodipodi-0.dtd"
   xmlns:xlink="http://www.w3.org/1999/xlink"
   xmlns="http://www.w3.org/2000/svg"
   xmlns:svg="http://www.w3.org/2000/svg"
   xmlns:rdf="http://www.w3.org/1999/02/22-rdf-syntax-ns#"
   xmlns:cc="http://creativecommons.org/ns#"
   xmlns:dc="http://purl.org/dc/elements/1.1/"
   xmlns:a="http://ns.adobe.com/AdobeSVGViewerExtensions/3.0/"><defs
     id="defs1"><linearGradient
       id="linearGradient17"
       inkscape:collect="always"><stop
         style="stop-color:#ffffff;stop-opacity:0.04790419;"
         offset="0"
         id="stop17" /><stop
         style="stop-color:#ffffff;stop-opacity:1;"
         offset="1"
         id="stop18" /></linearGradient><linearGradient
       id="linearGradient15"
       inkscape:collect="always"><stop
         style="stop-color:#000000;stop-opacity:0.13173653;"
         offset="0"
         id="stop15" /><stop
         style="stop-color:#000000;stop-opacity:0.40269461;"
         offset="1"
         id="stop16" /></linearGradient><linearGradient
       id="linearGradient11"
       inkscape:collect="always"><stop
         style="stop-color:#ffffff;stop-opacity:0.13772455;"
         offset="0"
         id="stop13" /><stop
         style="stop-color:#ffffff;stop-opacity:1;"
         offset="1"
         id="stop14" /></linearGradient><linearGradient
       id="linearGradient6"
       inkscape:collect="always"><stop
         style="stop-color:#ffee8d;stop-opacity:0.73209548;"
         offset="0"
         id="stop3" /><stop
         style="stop-color:#f7e714;stop-opacity:0.37125748;"
         offset="1"
         id="stop6" /></linearGradient><linearGradient
       id="linearGradient9"
       inkscape:collect="always"><stop
         style="stop-color:#cea221;stop-opacity:1;"
         offset="0"
         id="stop9" /><stop
         style="stop-color:#cea221;stop-opacity:1;"
         offset="0.35811982"
         id="stop11" /><stop
         style="stop-color:#a38118;stop-opacity:1;"
         offset="0.48275998"
         id="stop12" /><stop
         style="stop-color:#765d13;stop-opacity:1;"
         offset="1"
         id="stop10" /></linearGradient><linearGradient
       id="linearGradient7"
       inkscape:collect="always"><stop
         style="stop-color:#000000;stop-opacity:0.18302387;"
         offset="0"
         id="stop7" /><stop
         style="stop-color:#b7b7b7;stop-opacity:0.18832891;"
         offset="1"
         id="stop8" /></linearGradient><linearGradient
       id="linearGradient4"
       inkscape:collect="always"><stop
         style="stop-color:#ffee8d;stop-opacity:0.73209548;"
         offset="0"
         id="stop4" /><stop
         style="stop-color:#d6bc48;stop-opacity:0.61803716;"
         offset="1"
         id="stop5" /></linearGradient><linearGradient
       id="linearGradient1"
       inkscape:collect="always"><stop
         style="stop-color:#ffeb9b;stop-opacity:1;"
         offset="0"
         id="stop1" /><stop
         style="stop-color:#c2a000;stop-opacity:1;"
         offset="1"
         id="stop2" /></linearGradient><linearGradient
       id="path3_3_"
       gradientUnits="userSpaceOnUse"
       x1="57.324699"
       y1="46.403801"
       x2="83.153503"
       y2="46.403801"><stop
         offset="0"
         style="stop-color:rgb(255,255,255)"
         id="stop8-0" /><stop
         offset="1"
         style="stop-color:rgb(223,223,236)"
         id="stop9-9" /><a:midPointStop
         offset="0"
         style="stop-color:#FFFFFF" /><a:midPointStop
         offset="0.5"
         style="stop-color:#FFFFFF" /><a:midPointStop
         offset="1"
         style="stop-color:#DFDFEC" /></linearGradient><linearGradient
       id="XMLID_4_-3-7"
       gradientUnits="userSpaceOnUse"
       x1="32.8545"
       y1="17.5103"
       x2="90.494102"
       y2="85.498703"><stop
         offset="0"
         style="stop-color:rgb(217,217,217)"
         id="stop10-6-6" /><stop
         offset="1"
         style="stop-color:rgb(87,87,151)"
         id="stop11-06" /><a:midPointStop
         offset="0"
         style="stop-color:#D9D9D9" /><a:midPointStop
         offset="0.5"
         style="stop-color:#D9D9D9" /><a:midPointStop
         offset="1"
         style="stop-color:#575797" /></linearGradient><linearGradient
       id="path11_3_"
       gradientUnits="userSpaceOnUse"
       x1="55.0952"
       y1="78.122101"
       x2="88.283401"
       y2="44.933899"><stop
         offset="0"
         style="stop-color:rgb(255,255,255)"
         id="stop12-2" /><stop
         offset="1"
         style="stop-color:rgb(223,223,236)"
         id="stop13-6" /><a:midPointStop
         offset="0"
         style="stop-color:#FFFFFF" /><a:midPointStop
         offset="0.5"
         style="stop-color:#FFFFFF" /><a:midPointStop
         offset="1"
         style="stop-color:#DFDFEC" /></linearGradient><linearGradient
       id="path16_3_"
       gradientUnits="userSpaceOnUse"
       x1="76.635696"
       y1="27.1621"
       x2="81.575798"
       y2="22.468901"><stop
         offset="0"
         style="stop-color:rgb(255,255,255)"
         id="stop14-1" /><stop
         offset="1"
         style="stop-color:rgb(223,223,236)"
         id="stop15-8-4" /><a:midPointStop
         offset="0"
         style="stop-color:#FFFFFF" /><a:midPointStop
         offset="0.5"
         style="stop-color:#FFFFFF" /><a:midPointStop
         offset="1"
         style="stop-color:#DFDFEC" /></linearGradient><linearGradient
       id="XMLID_5_-7"
       gradientUnits="userSpaceOnUse"
       x1="53.142101"
       y1="0.1851"
       x2="113.11"
       y2="70.919998"><stop
         offset="0"
         style="stop-color:rgb(217,217,217)"
         id="stop16-9-3" /><stop
         offset="1"
         style="stop-color:rgb(87,87,151)"
         id="stop17-2" /><a:midPointStop
         offset="0"
         style="stop-color:#D9D9D9" /><a:midPointStop
         offset="0.5"
         style="stop-color:#D9D9D9" /><a:midPointStop
         offset="1"
         style="stop-color:#575797" /></linearGradient><linearGradient
       id="XMLID_6_-7"
       gradientUnits="userSpaceOnUse"
       x1="65.5215"
       y1="109.3271"
       x2="65.5215"
       y2="46.861301"><stop
         offset="0"
         style="stop-color:#3FA600"
         id="stop14-2" /><stop
         offset="1"
         style="stop-color:#008300"
         id="stop15-4" /><a:midPointStop
         offset="0"
         style="stop-color:#3FA600" /><a:midPointStop
         offset="0.5"
         style="stop-color:#3FA600" /><a:midPointStop
         offset="1"
         style="stop-color:#008300" /></linearGradient><linearGradient
       inkscape:collect="always"
       xlink:href="#linearGradient1"
       id="linearGradient2"
       x1="52.515255"
       y1="83.787643"
       x2="102.84141"
       y2="235.06218"
       gradientUnits="userSpaceOnUse" /><linearGradient
       inkscape:collect="always"
       xlink:href="#linearGradient4"
       id="linearGradient5"
       x1="43.16869"
       y1="94.619362"
       x2="220.06821"
       y2="170.97055"
       gradientUnits="userSpaceOnUse"
       gradientTransform="translate(0,5.2916667)" /><linearGradient
       inkscape:collect="always"
       xlink:href="#linearGradient7"
       id="linearGradient8"
       x1="82.853554"
       y1="110.11504"
       x2="251.36699"
       y2="213.81561"
       gradientUnits="userSpaceOnUse" /><linearGradient
       inkscape:collect="always"
       xlink:href="#linearGradient9"
       id="linearGradient10"
       x1="110.0799"
       y1="45.966957"
       x2="209.36598"
       y2="194.65266"
       gradientUnits="userSpaceOnUse" /><linearGradient
       inkscape:collect="always"
       xlink:href="#linearGradient6"
       id="linearGradient20"
       gradientUnits="userSpaceOnUse"
       gradientTransform="translate(0,5.2916667)"
       x1="43.16869"
       y1="94.619362"
       x2="220.06821"
       y2="170.97055" /><linearGradient
       inkscape:collect="always"
       xlink:href="#linearGradient7"
       id="linearGradient21"
       gradientUnits="userSpaceOnUse"
       x1="82.853554"
       y1="110.11504"
       x2="251.36699"
       y2="213.81561" /><linearGradient
       inkscape:collect="always"
       xlink:href="#linearGradient9"
       id="linearGradient22"
       gradientUnits="userSpaceOnUse"
       x1="110.0799"
       y1="45.966957"
       x2="209.36598"
       y2="194.65266" /><linearGradient
       inkscape:collect="always"
       xlink:href="#linearGradient11"
       id="linearGradient14"
       x1="60.606758"
       y1="187.50502"
       x2="74.973244"
       y2="30.256107"
       gradientUnits="userSpaceOnUse" /><linearGradient
       inkscape:collect="always"
       xlink:href="#linearGradient15"
       id="linearGradient16"
       x1="100.16369"
       y1="95.159004"
       x2="189.06003"
       y2="184.36139"
       gradientUnits="userSpaceOnUse" /><linearGradient
       inkscape:collect="always"
       xlink:href="#linearGradient17"
       id="linearGradient18"
       x1="55.788521"
       y1="198.5321"
       x2="48.226624"
       y2="15.571447"
       gradientUnits="userSpaceOnUse" /><linearGradient
       inkscape:collect="always"
       xlink:href="#linearGradient4-0"
       id="linearGradient6-7"
       x1="147.19566"
       y1="208.93666"
       x2="152.27531"
       y2="202.26196"
       gradientUnits="userSpaceOnUse" /><linearGradient
       id="linearGradient4-0"
       inkscape:collect="always"><stop
         style="stop-color:#fffff9;stop-opacity:1;"
         offset="0"
         id="stop5-9" /><stop
         style="stop-color:#7f7f78;stop-opacity:1;"
         offset="0.5"
         id="stop7-3" /><stop
         style="stop-color:#000000;stop-opacity:1;"
         offset="1"
         id="stop6-6" /></linearGradient><radialGradient
       inkscape:collect="always"
       xlink:href="#linearGradient3"
       id="radialGradient4"
       cx="137.07137"
       cy="196.08449"
       fx="137.07137"
       fy="196.08449"
       r="26.569036"
       gradientTransform="matrix(1.8429013,0,0,2.1947199,-115.53763,-235.55357)"
       gradientUnits="userSpaceOnUse" /><linearGradient
       id="linearGradient3"
       inkscape:collect="always"><stop
         style="stop-color:#777777;stop-opacity:1"
         offset="0"
         id="stop3-0" /><stop
         style="stop-color:#fffff9;stop-opacity:1;"
         offset="1"
         id="stop4-6" /></linearGradient><linearGradient
       inkscape:collect="always"
       xlink:href="#linearGradient9-6"
       id="linearGradient7-2"
       x1="148.15331"
       y1="237.58754"
       x2="160.93542"
       y2="237.58754"
       gradientUnits="userSpaceOnUse"
       gradientTransform="translate(-27.693472,-56.384287)" /><linearGradient
       id="linearGradient9-6"
       inkscape:collect="always"><stop
         style="stop-color:#ffffff;stop-opacity:1;"
         offset="0"
         id="stop8-1" /><stop
         style="stop-color:#838382;stop-opacity:1;"
         offset="0.5"
         id="stop10-8" /><stop
         style="stop-color:#5a5a58;stop-opacity:1;"
         offset="1"
         id="stop9-7" /></linearGradient><linearGradient
       inkscape:collect="always"
       xlink:href="#linearGradient10-9"
       id="linearGradient12"
       x1="104.79389"
       y1="213.88725"
       x2="106.29481"
       y2="215.29893"
       gradientUnits="userSpaceOnUse" /><linearGradient
       id="linearGradient10-9"
       inkscape:collect="always"><stop
         style="stop-color:#777777;stop-opacity:0;"
         offset="0"
         id="stop11-2" /><stop
         style="stop-color:#777777;stop-opacity:1;"
         offset="1"
         id="stop12-0" /></linearGradient><linearGradient
       inkscape:collect="always"
       xlink:href="#linearGradient13"
       id="linearGradient14-2"
       x1="124.6144"
       y1="172.52248"
       x2="126.21802"
       y2="184.61642"
       gradientUnits="userSpaceOnUse" /><linearGradient
       id="linearGradient13"
       inkscape:collect="always"><stop
         style="stop-color:#181818;stop-opacity:1;"
         offset="0"
         id="stop13-3" /><stop
         style="stop-color:#262626;stop-opacity:0.49803922;"
         offset="0.57058227"
         id="stop15-7" /><stop
         style="stop-color:#4d4d4d;stop-opacity:0.24705882;"
         offset="0.76628822"
         id="stop16-5" /><stop
         style="stop-color:#ffffff;stop-opacity:0;"
         offset="1"
         id="stop14-9" /></linearGradient><linearGradient
       inkscape:collect="always"
       xlink:href="#linearGradient16-2"
       id="linearGradient18-2"
       x1="51.091045"
       y1="71.929642"
       x2="195.68553"
       y2="157.73024"
       gradientUnits="userSpaceOnUse" /><linearGradient
       id="linearGradient16-2"
       inkscape:collect="always"><stop
         style="stop-color:#f9fafd;stop-opacity:1"
         offset="0"
         id="stop17-8" /><stop
         style="stop-color:#edeef7;stop-opacity:1"
         offset="0.4366051"
         id="stop19" /><stop
         style="stop-color:#d4d3e9;stop-opacity:1"
         offset="0.75"
         id="stop20" /><stop
         style="stop-color:#cdcce5;stop-opacity:1"
         offset="1"
         id="stop18-9" /></linearGradient><linearGradient
       inkscape:collect="always"
       xlink:href="#linearGradient20-3"
       id="linearGradient22-7"
       x1="52.538689"
       y1="72.571426"
       x2="198.05952"
       y2="51.215775"
       gradientUnits="userSpaceOnUse"
       gradientTransform="translate(0,-6.9925596)" /><linearGradient
       id="linearGradient20-3"
       inkscape:collect="always"><stop
         style="stop-color:#9596c9;stop-opacity:1"
         offset="0"
         id="stop21" /><stop
         style="stop-color:#9595c9;stop-opacity:1"
         offset="1"
         id="stop22" /></linearGradient><linearGradient
       inkscape:collect="always"
       xlink:href="#linearGradient33"
       id="linearGradient35"
       x1="129.3327"
       y1="24.939034"
       x2="132.21521"
       y2="48.751534"
       gradientUnits="userSpaceOnUse" /><linearGradient
       id="linearGradient33"
       inkscape:collect="always"><stop
         style="stop-color:#cdcccc;stop-opacity:1"
         offset="0"
         id="stop34" /><stop
         style="stop-color:#fafaff;stop-opacity:1;"
         offset="0.41840968"
         id="stop36" /><stop
         style="stop-color:#fafaff;stop-opacity:1;"
         offset="0.58087426"
         id="stop37" /><stop
         style="stop-color:#7b7c7c;stop-opacity:1"
         offset="1"
         id="stop35" /></linearGradient><radialGradient
       inkscape:collect="always"
       xlink:href="#linearGradient25"
       id="radialGradient26"
       cx="131.48373"
       cy="96.437988"
       fx="131.48373"
       fy="96.437988"
       r="9.0390072"
       gradientTransform="matrix(2.5748468,6.2285491e-7,-9.3014625e-7,3.4002155,-302.88087,-284.78529)"
       gradientUnits="userSpaceOnUse" /><linearGradient
       id="linearGradient25"
       inkscape:collect="always"><stop
         style="stop-color:#f4f4f9;stop-opacity:1;"
         offset="0"
         id="stop25" /><stop
         style="stop-color:#d3d3d9;stop-opacity:1;"
         offset="0.44601819"
         id="stop27" /><stop
         style="stop-color:#545456;stop-opacity:1;"
         offset="0.75"
         id="stop28" /><stop
         style="stop-color:#555557;stop-opacity:1;"
         offset="1"
         id="stop26" /></linearGradient><linearGradient
       inkscape:collect="always"
       xlink:href="#linearGradient28"
       id="linearGradient30"
       x1="121.64649"
       y1="11.93909"
       x2="132.34033"
       y2="11.738637"
       gradientUnits="userSpaceOnUse" /><linearGradient
       id="linearGradient28"
       inkscape:collect="always"><stop
         style="stop-color:#ababa8;stop-opacity:1"
         offset="0"
         id="stop29" /><stop
         style="stop-color:#fcfcfc;stop-opacity:1;"
         offset="0.43368897"
         id="stop31" /><stop
         style="stop-color:#f4f4f3;stop-opacity:1;"
         offset="0.56510466"
         id="stop32" /><stop
         style="stop-color:#c7c7c4;stop-opacity:1"
         offset="0.84694529"
         id="stop33" /><stop
         style="stop-color:#b2b2af;stop-opacity:1"
         offset="1"
         id="stop30" /></linearGradient></defs><sodipodi:namedview
     id="base"
     pagecolor="#ffffff"
     bordercolor="#000000"
     borderopacity="0.3"
     inkscape:pageopacity="0.0"
     inkscape:pageshadow="2"
     inkscape:zoom="0.98994949"
     inkscape:cx="505.07627"
     inkscape:cy="476.792"
     inkscape:document-units="mm"
     inkscape:showpageshadow="2"
     inkscape:pagecheckerboard="0"
     inkscape:deskcolor="#d1d1d1"
     inkscape:current-layer="svg1"
     showguides="true"><sodipodi:guide
       position="46.49107,121.58221"
       orientation="1,0"
       id="guide16"
       inkscape:locked="false" /><sodipodi:guide
       position="98.651783,154.51339"
       orientation="0,-1"
       id="guide17"
       inkscape:locked="false" /></sodipodi:namedview><metadata
     id="metadata1"><rdf:RDF><cc:Work
         rdf:about=""><dc:format>image/svg+xml</dc:format><dc:type
           rdf:resource="http://purl.org/dc/dcmitype/StillImage" /><cc:license
           rdf:resource="http://creativecommons.org/publicdomain/zero/1.0/" /></cc:Work><cc:License
         rdf:about="http://creativecommons.org/publicdomain/zero/1.0/"><cc:permits
           rdf:resource="http://creativecommons.org/ns#Reproduction" /><cc:permits
           rdf:resource="http://creativecommons.org/ns#Distribution" /><cc:permits
           rdf:resource="http://creativecommons.org/ns#DerivativeWorks" /></cc:License></rdf:RDF></metadata><g
     id="g12"
     inkscape:label="shadowclose"
     style="display:inline"
     transform="matrix(1.0330579,0,0,1.0330579,-2.2035813,8.8493538)"><path
       style="color:#000000;display:inline;fill:#000000;fill-opacity:0.0929705;stroke-width:1.16609;stroke-linecap:round;stroke-linejoin:bevel;-inkscape-stroke:none"
       d="m 16.252978,44.341516 36.105011,-33.002229 61.957981,0.435815 33.87631,31.694784 c 0,0 64.12877,-2.115614 79.86291,-0.435815 24.52209,2.341258 21.16667,32.153051 21.16667,32.153051 l 0.11037,104.144978 c 0.48637,27.64938 -0.40781,45.25999 -29.66029,47.44855 L 36.130614,226.40267 C 11.402737,224.00742 9.4751688,205.49428 10.205359,188.98303 Z"
       id="path12"
       sodipodi:nodetypes="ccccccccccc"
       inkscape:label="shadow" /><path
       style="color:#000000;display:inline;fill:#000000;fill-opacity:0.0929705;stroke-width:1.16609;stroke-linecap:round;stroke-linejoin:bevel;-inkscape-stroke:none"
       d="m 16.252978,44.341516 36.105011,-33.002229 56.288341,0.435815 33.87631,31.694784 c 0,0 63.81419,-0.815135 78.72898,4.477875 25.40122,6.806235 21.73362,28.37329 21.73362,28.37329 l 0.65315,100.365219 c 0.15291,23.49695 -2.94787,40.38154 -25.10037,41.77891 L 41.044304,220.35505 C 21.259354,217.1328 10.22349,205.93759 10.205359,188.98303 Z"
       id="path14"
       sodipodi:nodetypes="ccccccscccc"
       inkscape:label="shadow" /><path
       style="color:#000000;display:inline;fill:#000000;fill-opacity:0.0929705;stroke-width:1.16609;stroke-linecap:round;stroke-linejoin:bevel;-inkscape-stroke:none"
       d="m 16.252978,44.341516 36.105011,-33.002229 50.240721,-0.698114 33.87631,31.694784 c 0,0 55.26431,0.640556 80.99684,9.391566 12.38959,4.213398 19.15438,6.906208 19.65476,18.545909 1.39024,32.339248 3.27511,68.180748 2.34194,102.255098 -0.25256,9.22222 -2.31668,19.70368 -4.68414,27.65066 -2.70543,9.08145 -10.52594,12.93783 -21.91604,11.86039 L 43.312161,211.6616 c -14.52793,-0.076 -31.881718,-7.49369 -33.106802,-22.67857 z"
       id="path15"
       sodipodi:nodetypes="ccccsssscccc"
       inkscape:label="shadow" /><path
       style="color:#000000;display:inline;fill:#000000;fill-opacity:0.0929705;stroke-width:1.16609;stroke-linecap:round;stroke-linejoin:bevel;-inkscape-stroke:none"
       d="m 16.252978,44.341516 36.105011,-33.002229 48.236201,0.237329 31.20361,31.29388 c 0,0 56.89843,-2.363022 81.26411,9.926105 21.18433,10.684576 18.6584,27.170577 18.6584,27.170577 l 2.7121,92.195472 c 0,32.74973 -5.17276,36.66642 -30.25748,35.15222 L 42.367221,204.29106 c -13.969449,0.1705 -30.178506,-3.91126 -32.161862,-19.45071 z"
       id="path16"
       sodipodi:nodetypes="ccccscccccc"
       inkscape:label="shadow" /></g><g
     id="g13"
     inkscape:label="shadowopen"
     style="display:none"
     transform="matrix(1.0068174,0,0,1.0068174,-1.9389142,9.1285845)"><path
       style="color:#000000;display:inline;fill:#000000;fill-opacity:0.0929705;stroke-width:1.16609;stroke-linecap:round;stroke-linejoin:bevel;-inkscape-stroke:none"
       d="m 16.252978,44.341516 36.105011,-33.002229 73.183301,0.435815 33.87631,31.694784 c 0,0 40.06412,5.288391 60.8358,7.390766 19.90983,2.015143 34.77394,20.150305 34.00533,42.193175 -0.41964,12.034643 0.54567,36.121743 0.54567,36.121743 l -0.36685,29.84405 c -3.37229,55.09309 -15.97567,67.3805 -34.76561,67.76103 -54.79223,1.10965 -100.65039,3.04728 -156.705016,2.26785 C 26.62644,228.5432 10.961311,193.51874 10.961311,193.51874 Z"
       id="path13"
       sodipodi:nodetypes="ccccssccsscc"
       inkscape:label="shadow" /><path
       style="color:#000000;display:inline;fill:#000000;fill-opacity:0.0929705;stroke-width:1.16609;stroke-linecap:round;stroke-linejoin:bevel;-inkscape-stroke:none"
       d="m 16.252978,44.341516 36.105011,-33.002229 62.492521,0.435815 33.87631,31.694784 c 0,0 43.43472,9.086572 65.43036,8.651349 17.27416,-0.3418 40.22607,21.832063 40.10155,40.932592 -0.12988,19.923203 -0.87504,24.665753 -1.88892,46.375883 -2.14937,46.02402 -10.40288,78.69306 -36.97418,78.79832 0,0 -117.138269,5.09652 -174.454164,0.69109 -14.259757,-1.09604 -30.736107,-29.93609 -30.736107,-29.93609 z"
       id="path22"
       sodipodi:nodetypes="ccccssssscc"
       inkscape:label="shadow" /><path
       style="color:#000000;display:inline;fill:#000000;fill-opacity:0.124717;stroke-width:1.16609;stroke-linecap:round;stroke-linejoin:bevel;-inkscape-stroke:none"
       d="m 16.252978,44.341516 36.105011,-33.002229 57.147131,0.435815 33.87631,31.694784 c 0,0 43.12388,9.373494 64.91712,9.407302 20.39888,0.03164 46.66344,25.415249 47.41707,45.783098 0.82469,22.288574 -6.28806,65.998724 -7.13024,69.814724 -5.87003,26.59754 -3.56567,35.68331 -38.53514,43.33855 0,0 -110.978839,8.49353 -166.970618,1.22563 -13.465677,-1.74788 -32.874263,-24.05616 -32.874263,-24.05616 z"
       id="path23"
       sodipodi:nodetypes="ccccssscscc"
       inkscape:label="shadow" /><path
       style="color:#000000;display:inline;fill:url(#linearGradient16);stroke-width:1.16609;stroke-linecap:round;stroke-linejoin:bevel;-inkscape-stroke:none"
       d="m 16.252978,44.341516 36.105011,-33.002229 50.732661,0.435815 33.87631,31.694784 72.37937,13.462201 c 0,0 30.91772,5.843599 38.11483,12.001167 9.82151,8.402891 11.79254,44.628786 -9.44459,97.064406 -21.23714,52.43562 -15.70419,40.42994 -76.98295,40.56311 0,0 -56.11246,0.17817 -111.852655,-0.27603 -13.55581,-0.11047 -38.975606,-17.30171 -38.975606,-17.30171 z"
       id="path24"
       sodipodi:nodetypes="cccccszcscc"
       inkscape:label="shadow" /></g><g
     id="rect1"
     style="display:inline"
     inkscape:label="back"
     transform="matrix(1.0272988,0,0,1.0272988,-2.0291602,8.9067299)"><path
       style="color:#000000;fill:url(#linearGradient2);stroke-linecap:round;stroke-linejoin:bevel;-inkscape-stroke:none"
       d="m 12.095239,51.404763 30.616074,-32.883928 52.538689,0.377976 28.726198,31.75 78.61905,-0.377976 V 176.85026 H 12.095239 Z"
       id="path2"
       sodipodi:nodetypes="cccccccc" /><path
       id="rect3"
       style="display:inline;fill:#ffffff;stroke-width:15.377;stroke-linecap:round;stroke-linejoin:bevel"
       d="m 17.639788,55.324789 28.330568,-30.468726 45.435817,0.534539 29.934187,31.270535 75.10273,-0.26727 v 14.432554 l -80.01642,0.26727 -30.150038,-31.270535 -35.927125,0.26727 -33.244258,36.138369 z"
       sodipodi:nodetypes="ccccccccccc" /><path
       style="color:#000000;fill:#cea221;stroke-linecap:round;stroke-linejoin:bevel;-inkscape-stroke:none"
       d="M 42.767578,10.832031 37.083984,13.28125 6.46875,46.166016 4.40625,51.404297 V 176.84951 c 0.9154791,4.21083 2.5425773,7.71003 7.689453,7.68946 H 202.5957 l 7.6875,-7.68946 V 50.271484 c 0.24504,-4.443094 -1.57408,-7.510076 -7.72461,-7.689453 l -75.18554,0.361328 -26.42188,-29.203125 -5.646483,-2.529296 z m 3.267578,15.402344 45.78125,0.328125 26.458984,29.244141 5.73828,2.53125 70.89258,-0.341797 V 169.16201 H 19.783203 V 54.431641 Z"
       id="path3"
       sodipodi:nodetypes="ccccccccccccccccccccccc" /></g><g
     id="rect4"
     inkscape:label="close"
     style="display:inline"
     transform="matrix(1.046868,0,0,1.0272988,-6.4097406,12.476083)"><path
       style="color:#000000;fill:url(#linearGradient5);stroke-linejoin:bevel;-inkscape-stroke:none"
       d="M 39.948839,84.560004 50.070576,71.031306 148.56455,70.196909 h 67.59491 V 187.45551 H 39.948839 Z"
       id="path5"
       sodipodi:nodetypes="ccccccc" /><path
       id="rect7"
       style="fill:url(#linearGradient8);stroke-width:15.377;stroke-linejoin:bevel"
       d="M 38.443449,169.44888 H 195.37402 l 0.46773,-73.755263 h 17.3057 c -0.28876,34.032403 2.27179,61.637733 2.27179,95.671363 L 46.728804,187.08867 Z"
       sodipodi:nodetypes="ccccccc" /><path
       id="path7"
       style="display:inline;fill:url(#linearGradient18);stroke-width:15.377;stroke-linecap:round;stroke-linejoin:bevel"
       d="m 46.392076,181.98385 0.07351,-107.391098 102.868614,0.230236 61.47199,1.603617 v 20.312484 h -57.29851 l -88.12199,0.180167 -0.04755,85.323034 z"
       sodipodi:nodetypes="ccccccccc" /><path
       style="color:#000000;fill:url(#linearGradient10);stroke-linejoin:bevel;-inkscape-stroke:none"
       d="m 40.137595,62.33389 c -6.760736,-0.235673 -7.178598,4.309136 -7.6875,8.241352 L 31.694143,187.45508 c 0.674417,4.18151 3.271374,6.71512 7.6875,7.68945 H 216.16016 c 5.83804,0.29423 7.75626,-2.83094 7.6875,-7.68945 V 70.197079 c -0.16186,-5.049533 -2.53805,-7.943617 -7.6875,-7.827428 -58.45149,0 -116.731075,-0.03576 -176.022565,-0.03576 z M 208.4707,77.884579 V 179.76758 H 47.071096 L 47.827048,78.262742 c 59.235472,0.0065 101.404572,-0.378163 160.643652,-0.378163 z"
       id="path6"
       sodipodi:nodetypes="cccccccccccccc" /></g><g
     id="g20"
     inkscape:label="open"
     style="display:none"
     transform="matrix(1.0272988,0,-0.22903094,0.93647609,33.604309,21.96265)"><path
       style="color:#000000;fill:url(#linearGradient20);stroke-linejoin:bevel;-inkscape-stroke:none"
       d="m 22.886951,78.134409 h 97.392209 l 28.28539,-14.363095 h 67.59491 V 187.45551 H 22.886951 Z"
       id="path17" /><path
       id="path18"
       style="fill:url(#linearGradient21);stroke-width:15.377;stroke-linejoin:bevel"
       d="M 21.381561,169.44888 H 195.37402 l 0.46773,-80.180858 h 17.3057 c -0.28876,34.032398 2.27179,68.063328 2.27179,102.096958 L 29.666916,187.08867 Z"
       sodipodi:nodetypes="ccccccc" /><path
       id="path19"
       style="display:inline;fill:url(#linearGradient14);stroke-width:15.377;stroke-linecap:round;stroke-linejoin:bevel"
       d="m 26.196468,77.472204 c 0,0 61.529128,0.829797 93.811602,-0.801808 l 30.71274,-2.053499 61.47199,1.603617 4.16268,20.312484 H 55.486552 c 5.546427,25.710512 7.894291,67.591662 -3.012082,95.226152 l -20.345138,-3.97048 c -1.199998,-29.74052 2.240856,-57.5062 -5.932864,-90.214271 z"
       sodipodi:nodetypes="cccccccccc" /><path
       style="color:#000000;fill:url(#linearGradient22);stroke-linejoin:bevel;-inkscape-stroke:none"
       d="m 149.95106,62.301535 -3.48047,0.833985 C 102.32048,62.548127 63.464386,62.567274 21.130351,62.567274 c -6.756833,-0.830807 -6.851232,3.729475 -7.6875,7.689454 11.672833,51.561032 8.047695,91.093652 4.459577,124.528112 -0.339785,3.16615 4.426923,5.1263 7.6875,7.68945 H 218.86337 c 3.67232,-2.70006 6.52227,-7.72863 8.2627,-15.89878 5.68917,-38.86151 6.4991,-77.72301 -1.8918,-116.584522 -1.05751,-2.362904 -1.02105,-4.580249 -7.6875,-7.689453 z m 1.83985,15.376953 h 58.0664 c 8.73588,37.930492 4.82746,73.639752 1.3166,109.418852 H 33.279381 c 6.637531,-31.51664 5.60206,-72.67072 -4.459577,-109.153112 45.521495,-0.874055 78.037736,0.03645 122.971106,-0.26574 z"
       id="path20"
       sodipodi:nodetypes="ccccscccccccccccc" /></g><g
     id="g16"
     style="display:inline"
     transform="matrix(0.85914878,0,0,0.85914878,55.452621,44.645051)"><g
       id="g37"
       style="display:inline"><path
         id="rect37"
         style="fill:#7b7c7c;fill-opacity:0.138518;stroke-width:2.6;stroke-linecap:round;stroke-linejoin:round"
         d="M 39.823159,43.564931 207.76291,13.881801 c 7.97174,-1.108629 22.2838,-2.243834 24.01789,13.97433 1.09177,11.6029 -6.55483,20.204195 -17.89837,20.419425 L 213.08062,162.6335 c -0.067,9.5612 -5.92752,9.45931 -13.8312,10.69079 l -52.31801,8.15172 c -3.26316,0.52004 -5.69809,-0.0483 -4.00904,4.00904 4.77154,1.17756 5.26534,6.27358 3.88827,9.01953 l 32.66084,25.99278 c 3.68521,2.93283 3.33934,5.84423 1.73725,8.55262 -3.75858,6.35401 -8.12937,6.23269 -11.09168,4.00905 L 137.6271,208.67068 c -4.06774,2.76772 -8.89126,2.1344 -13.64745,1.80407 l -23.13552,25.99196 c -2.988137,3.35707 -5.4671,6.90416 -10.841118,7.55037 -2.678374,0.32206 -4.741612,-0.40578 -6.564808,-1.67044 -1.87334,-1.29943 -2.802358,-5.30389 -1.085782,-7.16616 l 32.651848,-35.42303 10.37765,-16.64635 -63.027535,13.98315 c -7.574242,1.6804 -13.890625,1.67472 -13.890625,-4.06521 1.729993,-42.30589 1.311716,-84.76703 2.851989,-126.746199 C 42.134626,74.07789 34.585123,72.66821 29.176843,64.461983 23.768564,56.255756 31.865854,47.104587 39.823159,43.564931 Z"
         sodipodi:nodetypes="ccccsscccsssccssssccscczc" /><path
         id="path37"
         style="fill:#616262;fill-opacity:0.217497;stroke-width:2.6;stroke-linecap:round;stroke-linejoin:round"
         d="M 40.390123,43.942907 207.61863,14.96136 c 7.97174,-1.108629 19.05718,-1.379352 20.8213,11.424788 1.76412,12.80414 -6.83777,18.908512 -17.38774,19.343632 l 0.7944,114.15442 c 0.061,8.75913 -6.34859,10.65179 -14.26117,11.82472 l -53.6865,7.95827 c -3.26316,0.52004 -5.14734,2.67304 -3.45829,6.73038 4.77154,1.17756 5.73306,6.00631 4.35599,8.75226 l 33.68267,25.34753 c 3.6339,2.73465 2.88529,7.20624 0.79231,9.56843 -1.73747,1.96097 -4.8974,5.17232 -8.96556,2.09555 l -33.18007,-25.09428 c -4.06774,2.76772 -9.12512,2.40167 -13.88131,2.07134 l -23.0687,26.1256 c -2.974752,3.36894 -8.118345,6.89036 -10.06699,7.2406 -1.317097,0.23673 -4.837497,-0.19525 -5.668505,-0.89295 -1.74609,-1.46598 -2.31665,-4.17202 -0.651469,-6.08038 l 31.215274,-35.77382 11.24628,-17.81565 -63.65993,13.87678 c -7.5804,1.6524 -12.614955,2.14719 -12.614955,-3.59274 1.729993,-42.30589 -0.0112,-85.00326 1.529072,-126.982434 -9.181123,7.795049 -17.8935,2.600657 -20.768742,-2.387822 -2.875243,-4.988479 -0.996257,-13.388646 9.654128,-18.912677 z"
         sodipodi:nodetypes="cczcsscccsssccssssccscczc" /><path
         id="path38"
         style="fill:#6b6c6c;fill-opacity:0.348724;stroke-width:2.6;stroke-linecap:round;stroke-linejoin:round"
         d="M 41.949275,44.226389 203.76058,15.211433 c 7.97174,-1.108629 22.59497,0.283514 23.07295,11.241532 0.47798,10.958018 -6.9028,17.694172 -17.64315,17.308569 l 1.37104,115.208766 c 0.0986,8.28549 -4.77394,10.01256 -12.68581,11.19036 l -55.78076,8.30382 c -3.26316,0.52004 -4.74644,4.10961 -3.05739,8.16695 4.77154,1.17756 5.90011,6.07313 4.52304,8.81908 l 32.24609,24.51231 c 3.6206,2.75224 4.48891,7.00579 2.39593,9.36798 -1.73747,1.96097 -4.42664,4.29967 -8.49784,1.22692 l -32.62596,-24.62459 c -7.24156,2.06614 -10.64423,1.54025 -14.44827,1.1264 l -23.541172,26.78706 c -2.966838,3.37591 -5.846583,5.37302 -9.358284,6.76813 -1.704405,0.67712 -3.486859,0.42644 -4.676318,-0.37323 -1.564476,-1.0518 -1.415425,-2.56973 0.198978,-4.52123 l 29.750616,-35.96281 12.33296,-19.23306 -64.770234,14.20751 c -7.578234,1.6623 -11.410155,2.73778 -11.410155,-3.00215 1.729993,-42.30589 -0.524202,-86.74555 1.01607,-128.724726 -9.181123,7.795049 -17.286004,3.846851 -20.161246,-1.141628 -2.875243,-4.988479 1.980305,-14.097351 9.93761,-17.637007 z"
         sodipodi:nodetypes="cczcsscccsssccssssccscczc" /><path
         id="path39"
         style="fill:#5b5b5b;fill-opacity:0.348724;stroke-width:2.6;stroke-linecap:round;stroke-linejoin:round"
         d="M 41.949275,44.226389 205.89955,15.884931 c 7.97174,-1.108629 18.75216,2.850659 19.26355,10.501217 0.51139,7.650557 -4.90065,16.299113 -17.44506,16.18078 l 1.1942,115.860732 c 0.0867,8.40881 -4.17954,9.10245 -12.08209,10.3413 l -55.06603,8.63246 c -3.26316,0.52004 -6.70719,4.18048 -3.6716,9.8206 4.77154,1.17756 5.66387,5.83689 4.2868,8.58284 l 31.51377,23.82723 c 3.6277,2.74287 5.24486,6.62781 3.15188,8.99 -1.73747,1.96097 -4.21065,3.51304 -8.21436,0.35285 l -31.98575,-25.24678 c -4.06774,2.76772 -10.59412,2.39217 -15.35031,2.06184 l -23.307307,27.02092 c -2.935485,3.4032 -4.510235,5.37302 -8.021936,6.76813 -1.704405,0.67712 -3.319816,0.56008 -4.509275,-0.23959 -1.564476,-1.0518 -0.363624,-3.05763 1.234648,-5.02237 l 28.11359,-34.55964 13.06529,-20.39061 -63.967036,13.94765 c -7.580302,1.65284 -11.693637,4.0607 -11.693637,-1.67923 1.729993,-42.30589 0.161456,-89.32376 1.701728,-131.302931 -9.181123,7.795049 -18.488717,5.383651 -21.363959,0.395172 -2.875243,-4.988479 1.245314,-12.961456 9.202619,-16.501112 z"
         sodipodi:nodetypes="cczcsscccsssccssssccscczc" /><path
         id="path40"
         style="fill:#343434;fill-opacity:0.348724;stroke-width:2.6;stroke-linecap:round;stroke-linejoin:round"
         d="M 41.949275,44.226389 204.48214,16.593636 c 12.38169,-3.64769 17.60279,1.433459 18.83358,8.844214 1.23079,7.410755 -5.18066,16.607857 -17.26951,15.112684 l 0.78716,117.192046 c 0.0553,8.23962 -1.95758,7.57411 -9.83785,8.94752 l -57.12128,9.95537 c -3.26316,0.52004 -6.04573,5.31441 -3.01014,10.95453 4.77154,1.17756 5.66387,5.83689 4.2868,8.58284 l 32.44151,23.88356 c 3.66244,2.69631 4.47646,5.72578 2.38348,8.08797 -1.73747,1.96097 -3.61551,2.65228 -7.613,-0.51578 l -31.54165,-24.99711 c -4.06774,2.76772 -10.98811,2.67704 -15.66078,2.04603 l -23.918157,27.39108 c -2.956092,3.38532 -4.179506,4.97142 -7.691207,6.36653 -1.704405,0.67712 -2.422123,0.5837 -3.611582,-0.21597 -1.564476,-1.0518 0.317636,-3.27335 1.91973,-5.23498 l 27.145026,-33.23672 14.11766,-21.64344 -64.852363,13.79731 c -5.585835,1.18839 -10.724785,4.4282 -10.724785,-1.31173 1.729993,-42.30589 -1.872132,-89.75275 -0.33186,-131.731919 -9.181123,7.795049 -17.449283,4.674946 -19.710314,1.056631 -2.26103,-3.618316 0.489362,-12.158257 8.446667,-15.697913 z"
         sodipodi:nodetypes="cczcsscccsssccssssccscczc" /></g><g
       id="rect1-6"
       style="display:inline"><path
         style="color:#000000;display:inline;fill:url(#linearGradient6-7);stroke-linecap:square;-inkscape-stroke:none"
         d="m 121.09521,188.22533 0.21471,-15.33669 10.57301,-1.7009 0.26137,17.19792 c 5.86569,1.1895 7.60197,3.52795 7.00587,7.85482 l 31.26801,23.78514 -4.25223,5.92283 -30.206,-23.8079 c -5.5254,2.6829 -11.24767,2.13348 -16.242,1.09888 l -28.717418,31.23069 -4.877669,-4.57698 27.693187,-30.7096 0.0861,-5.92757 c -0.03,-2.22658 2.29388,-3.96831 7.19301,-5.03064 z"
         id="path1" /><path
         style="color:#000000;display:inline;fill:url(#radialGradient4);stroke-linecap:square;-inkscape-stroke:none"
         d="m 121.09521,188.22533 0.21471,-15.33669 10.57301,-1.7009 0.26137,17.19792 c 5.86569,1.1895 7.60197,3.52795 7.00587,7.85482 -0.64238,2.1772 -1.4884,4.25259 -3.19022,5.90007 -5.5254,2.6829 -11.24767,2.13348 -16.242,1.09888 l -28.717418,31.23069 -4.877669,-4.57698 27.693187,-30.7096 0.0861,-5.92757 c -0.03,-2.22658 2.29388,-3.96831 7.19301,-5.03064 z"
         id="path3-1"
         sodipodi:nodetypes="cccccccccccsc" /><path
         d="m 121.18299,189.25562 0.21471,-15.33668 10.57301,-1.7009 0.26137,17.19791 c 5.40003,3.93014 -15.41003,3.08031 -11.04909,-0.16033 z"
         style="color:#000000;display:inline;fill:url(#linearGradient7-2);stroke-linecap:square;-inkscape-stroke:none"
         id="path1-7"
         sodipodi:nodetypes="ccccc" /><path
         style="color:#000000;fill:#565654;stroke-linecap:square;-inkscape-stroke:none"
         d="m 133.16016,169.66602 -13.13477,2.11328 -0.2168,15.46679 c -2.01936,0.51676 -3.70447,1.13867 -4.91211,1.99805 -1.41972,1.0103 -2.31607,2.4593 -2.29492,4.0293 l -0.0781,5.40234 -28.218753,31.29297 c -5.269183,5.29844 1.293732,12.57565 6.763672,6.34766 l 29.132811,-31.68164 c 4.70382,0.91384 10.13641,1.27564 15.50391,-1.03907 l 30.72461,24.21485 c 5.07148,3.97623 11.64228,-2.93129 5.78125,-8.05469 L 140.4258,195.57617 c 0.13654,-2.01485 -0.15867,-3.87375 -1.36914,-5.28515 -1.20497,-1.40499 -3.15063,-2.24418 -5.62695,-2.86329 z m -2.55274,3.04296 0.25391,16.74219 1.02539,0.20899 c 2.79471,0.56673 4.39639,1.38845 5.19726,2.32226 0.80087,0.93381 1.04974,2.11707 0.7793,4.08008 l -0.10547,0.75195 30.86719,23.48047 -2.72266,3.79102 -29.77734,-23.47071 -0.73242,0.35547 c -5.14542,2.4984 -10.51945,2.00923 -15.41016,0.9961 l -0.72265,-0.15039 -28.328129,30.80664 -2.990235,-2.80664 27.167974,-30.125 0.0937,-6.43555 -0.002,-0.0176 c -0.009,-0.65658 0.24363,-1.19221 1.20313,-1.875 0.94328,-0.67125 2.58039,-1.33199 4.86523,-1.83789 h 1.10742 l -1.37304,-2.50977 0.0918,-0.0898 1.28125,2.59961 0.0176,-1.28125 0.19922,-14.24609 z"
         id="path2-2"
         sodipodi:nodetypes="cccscccccccccscccccscccccccccccccscccccccc" /><path
         id="rect10"
         style="fill:url(#linearGradient12);stroke-width:2.6;stroke-linecap:square"
         d="m 115.28273,200.23287 4.04031,1.63848 -28.230791,30.96196 -4.724697,-4.25223 z"
         sodipodi:nodetypes="ccccc" /><path
         id="rect12"
         style="fill:url(#linearGradient14-2);stroke-width:2.6;stroke-linecap:square"
         d="m 120.27129,172.05475 12.89575,-2.27179 0.0668,14.69982 -13.22984,-0.13363 z"
         sodipodi:nodetypes="ccccc" /></g><g
       id="rect16"><path
         style="color:#000000;fill:url(#linearGradient18-2);stroke-linecap:round;stroke-linejoin:round;-inkscape-stroke:none"
         d="M 47.549414,61.759948 202.32303,39.459352 V 161.47434 L 47.53271,192.09733 Z"
         id="path22-9" /><path
         id="rect20"
         style="fill:url(#linearGradient22-7);stroke-width:2.6;stroke-linecap:round;stroke-linejoin:round"
         d="M 48.002975,62.649548 202.21725,39.687495 v 7.559524 L 48.002975,70.209072 Z"
         sodipodi:nodetypes="ccccc" /><path
         style="color:#000000;fill:#4c4c4a;stroke-linecap:round;stroke-linejoin:round;-inkscape-stroke:none"
         d="M 202.13672,38.171875 47.363281,60.472656 A 1.30013,1.30013 0 0 0 46.25,61.759766 L 46.23242,192.09766 a 1.30013,1.30013 0 0 0 1.552734,1.27539 L 202.57617,162.75 a 1.30013,1.30013 0 0 0 1.04688,-1.27539 V 39.458984 a 1.30013,1.30013 0 0 0 -1.48633,-1.287109 z m -1.11328,2.789062 V 160.40625 L 48.832031,190.51562 48.849609,62.886719 Z"
         id="path23-3" /><g
         id="rect23"
         style="display:inline"><path
           style="color:#000000;fill:url(#linearGradient35);stroke-linecap:round;stroke-linejoin:round;-inkscape-stroke:none"
           d="M 42.144344,28.348215 120.33817,22.111608 120.23186,10.48884 c 4.34279,-4.9968611 11.04793,-3.3061459 13.02837,0.188988 l 0.0709,10.205357 77.57961,-5.386161 c 10.26321,0.91588 10.06915,18.865591 0.37798,21.922621 L 46.49107,60.854169 C 28.453866,71.296896 18.902898,30.177051 42.144344,28.348215 Z"
           id="path24-1"
           sodipodi:nodetypes="ccccccccc" /><path
           d="m 38.404536,28.954223 c 0,0 11.137093,2.340349 12.239524,15.128543 1.102431,12.788194 -5.286916,17.110137 -5.286916,17.110137 -9.820414,2.949574 -18.035542,-4.030462 -17.652863,-13.388389 0.400944,-9.80458 3.15539,-17.869055 10.700255,-18.850291 z"
           style="color:#000000;fill:url(#radialGradient26);stroke-linecap:round;stroke-linejoin:round;-inkscape-stroke:none"
           id="path1-5"
           sodipodi:nodetypes="czcsc" /><path
           d="m 126.41331,25.516813 c -2.4851,-0.04131 -4.77421,-0.500896 -6.31729,-1.89078 l -0.0532,-13.099395 c 4.34279,-4.9968613 11.04793,-3.3061463 13.02837,0.188988 l 0.0354,11.856151 c -1.65775,1.978588 -3.98086,2.917007 -6.39572,2.93603"
           style="color:#000000;display:inline;fill:url(#linearGradient30);stroke-linecap:round;stroke-linejoin:round;-inkscape-stroke:none"
           id="path1-9"
           sodipodi:nodetypes="cccccc" /><path
           style="color:#000000;fill:#4c4c4a;stroke-linecap:round;stroke-linejoin:round;-inkscape-stroke:none"
           d="M 127.70703,6.0722656 C 124.84499,5.825442 121.68631,6.8334691 119.25,9.6367188 A 1.30013,1.30013 0 0 0 118.93164,10.5 l 0.0957,10.412109 -76.986324,6.140625 c -6.195993,0.48819 -10.43825,3.721301 -12.707032,8.00586 -2.26903,4.285029 -2.687997,9.539701 -1.773437,14.384765 0.91456,4.845065 3.156296,9.328843 6.570312,12.015625 3.330362,2.620947 7.912791,3.252574 12.658203,0.666016 L 211.47266,38.707031 a 1.30013,1.30013 0 0 0 0.20703,-0.04687 c 5.53936,-1.747363 8.22811,-7.593752 8.20312,-13.011719 -0.0125,-2.708983 -0.69082,-5.375989 -2.14844,-7.503906 -1.45761,-2.127917 -3.76836,-3.678988 -6.70898,-3.941406 a 1.30013,1.30013 0 0 0 -0.20508,-0.0039 l -76.19922,5.291015 -0.0605,-8.822265 a 1.30013,1.30013 0 0 0 -0.16993,-0.63086 c -1.25611,-2.2168338 -3.82154,-3.7180198 -6.68359,-3.9648434 z m -0.14844,2.6542969 c 1.97581,0.2128128 3.62436,1.2340553 4.40625,2.4355465 l 0.0664,9.730469 a 1.30013,1.30013 0 0 0 1.39062,1.287109 l 77.41407,-5.375 c 2.16508,0.2063 3.67222,1.229485 4.7539,2.808594 1.08968,1.590774 1.68287,3.773775 1.69336,6.048828 0.0209,4.533111 -2.22159,9.164492 -6.34375,10.494141 L 46.308594,59.566406 a 1.30013,1.30013 0 0 0 -0.46875,0.16211 c -4.146089,2.400398 -7.37811,1.830818 -10.101563,-0.3125 -2.723452,-2.143319 -4.800397,-6.096927 -5.623047,-10.455079 -0.822649,-4.358151 -0.397527,-9.072587 1.515625,-12.685546 1.913153,-3.612959 5.191624,-6.204084 10.615235,-6.63086 a 1.30013,1.30013 0 0 0 0.002,0 l 78.193366,-6.236328 a 1.30013,1.30013 0 0 0 1.19726,-1.308594 l -0.10156,-11.050781 c 1.84872,-1.9198545 4.06156,-2.5333679 6.02148,-2.3222655 z"
           id="path25" /></g></g></g></svg>
