<?xml version="1.0" encoding="UTF-8" standalone="no"?>
<!-- Created with Inkscape (http://www.inkscape.org/) -->

<svg
   width="256mm"
   height="256mm"
   viewBox="0 0 256 256"
   version="1.1"
   id="svg1"
   inkscape:version="1.3.2 (091e20ef0f, 2023-11-25)"
   xml:space="preserve"
   sodipodi:docname="folder-templates-symbolic.svg"
   xmlns:inkscape="http://www.inkscape.org/namespaces/inkscape"
   xmlns:sodipodi="http://sodipodi.sourceforge.net/DTD/sodipodi-0.dtd"
   xmlns:xlink="http://www.w3.org/1999/xlink"
   xmlns="http://www.w3.org/2000/svg"
   xmlns:svg="http://www.w3.org/2000/svg"
   xmlns:rdf="http://www.w3.org/1999/02/22-rdf-syntax-ns#"
   xmlns:cc="http://creativecommons.org/ns#"
   xmlns:dc="http://purl.org/dc/elements/1.1/"
   xmlns:a="http://ns.adobe.com/AdobeSVGViewerExtensions/3.0/"><defs
     id="defs1"><linearGradient
       id="linearGradient17"
       inkscape:collect="always"><stop
         style="stop-color:#ffffff;stop-opacity:0.04790419;"
         offset="0"
         id="stop17" /><stop
         style="stop-color:#ffffff;stop-opacity:1;"
         offset="1"
         id="stop18" /></linearGradient><linearGradient
       id="linearGradient15"
       inkscape:collect="always"><stop
         style="stop-color:#000000;stop-opacity:0.13173653;"
         offset="0"
         id="stop15" /><stop
         style="stop-color:#000000;stop-opacity:0.40269461;"
         offset="1"
         id="stop16" /></linearGradient><linearGradient
       id="linearGradient11"
       inkscape:collect="always"><stop
         style="stop-color:#ffffff;stop-opacity:0.13772455;"
         offset="0"
         id="stop13" /><stop
         style="stop-color:#ffffff;stop-opacity:1;"
         offset="1"
         id="stop14" /></linearGradient><linearGradient
       id="linearGradient6"
       inkscape:collect="always"><stop
         style="stop-color:#ffee8d;stop-opacity:0.73209548;"
         offset="0"
         id="stop3" /><stop
         style="stop-color:#f7e714;stop-opacity:0.37125748;"
         offset="1"
         id="stop6" /></linearGradient><linearGradient
       id="linearGradient9"
       inkscape:collect="always"><stop
         style="stop-color:#cea221;stop-opacity:1;"
         offset="0"
         id="stop9" /><stop
         style="stop-color:#cea221;stop-opacity:1;"
         offset="0.35811982"
         id="stop11" /><stop
         style="stop-color:#a38118;stop-opacity:1;"
         offset="0.48275998"
         id="stop12" /><stop
         style="stop-color:#765d13;stop-opacity:1;"
         offset="1"
         id="stop10" /></linearGradient><linearGradient
       id="linearGradient7"
       inkscape:collect="always"><stop
         style="stop-color:#000000;stop-opacity:0.18302387;"
         offset="0"
         id="stop7" /><stop
         style="stop-color:#b7b7b7;stop-opacity:0.18832891;"
         offset="1"
         id="stop8" /></linearGradient><linearGradient
       id="linearGradient4"
       inkscape:collect="always"><stop
         style="stop-color:#ffee8d;stop-opacity:0.73209548;"
         offset="0"
         id="stop4" /><stop
         style="stop-color:#d6bc48;stop-opacity:0.61803716;"
         offset="1"
         id="stop5" /></linearGradient><linearGradient
       id="linearGradient1"
       inkscape:collect="always"><stop
         style="stop-color:#ffeb9b;stop-opacity:1;"
         offset="0"
         id="stop1" /><stop
         style="stop-color:#c2a000;stop-opacity:1;"
         offset="1"
         id="stop2" /></linearGradient><linearGradient
       id="path3_3_"
       gradientUnits="userSpaceOnUse"
       x1="57.324699"
       y1="46.403801"
       x2="83.153503"
       y2="46.403801"><stop
         offset="0"
         style="stop-color:rgb(255,255,255)"
         id="stop8-0" /><stop
         offset="1"
         style="stop-color:rgb(223,223,236)"
         id="stop9-9" /><a:midPointStop
         offset="0"
         style="stop-color:#FFFFFF" /><a:midPointStop
         offset="0.5"
         style="stop-color:#FFFFFF" /><a:midPointStop
         offset="1"
         style="stop-color:#DFDFEC" /></linearGradient><linearGradient
       id="XMLID_4_-3-7"
       gradientUnits="userSpaceOnUse"
       x1="32.8545"
       y1="17.5103"
       x2="90.494102"
       y2="85.498703"><stop
         offset="0"
         style="stop-color:rgb(217,217,217)"
         id="stop10-6-6" /><stop
         offset="1"
         style="stop-color:rgb(87,87,151)"
         id="stop11-06" /><a:midPointStop
         offset="0"
         style="stop-color:#D9D9D9" /><a:midPointStop
         offset="0.5"
         style="stop-color:#D9D9D9" /><a:midPointStop
         offset="1"
         style="stop-color:#575797" /></linearGradient><linearGradient
       id="path11_3_"
       gradientUnits="userSpaceOnUse"
       x1="55.0952"
       y1="78.122101"
       x2="88.283401"
       y2="44.933899"><stop
         offset="0"
         style="stop-color:rgb(255,255,255)"
         id="stop12-2" /><stop
         offset="1"
         style="stop-color:rgb(223,223,236)"
         id="stop13-6" /><a:midPointStop
         offset="0"
         style="stop-color:#FFFFFF" /><a:midPointStop
         offset="0.5"
         style="stop-color:#FFFFFF" /><a:midPointStop
         offset="1"
         style="stop-color:#DFDFEC" /></linearGradient><linearGradient
       id="path16_3_"
       gradientUnits="userSpaceOnUse"
       x1="76.635696"
       y1="27.1621"
       x2="81.575798"
       y2="22.468901"><stop
         offset="0"
         style="stop-color:rgb(255,255,255)"
         id="stop14-1" /><stop
         offset="1"
         style="stop-color:rgb(223,223,236)"
         id="stop15-8-4" /><a:midPointStop
         offset="0"
         style="stop-color:#FFFFFF" /><a:midPointStop
         offset="0.5"
         style="stop-color:#FFFFFF" /><a:midPointStop
         offset="1"
         style="stop-color:#DFDFEC" /></linearGradient><linearGradient
       id="XMLID_5_-7"
       gradientUnits="userSpaceOnUse"
       x1="53.142101"
       y1="0.1851"
       x2="113.11"
       y2="70.919998"><stop
         offset="0"
         style="stop-color:rgb(217,217,217)"
         id="stop16-9-3" /><stop
         offset="1"
         style="stop-color:rgb(87,87,151)"
         id="stop17-2" /><a:midPointStop
         offset="0"
         style="stop-color:#D9D9D9" /><a:midPointStop
         offset="0.5"
         style="stop-color:#D9D9D9" /><a:midPointStop
         offset="1"
         style="stop-color:#575797" /></linearGradient><linearGradient
       id="XMLID_6_-7"
       gradientUnits="userSpaceOnUse"
       x1="65.5215"
       y1="109.3271"
       x2="65.5215"
       y2="46.861301"><stop
         offset="0"
         style="stop-color:#3FA600"
         id="stop14-2" /><stop
         offset="1"
         style="stop-color:#008300"
         id="stop15-4" /><a:midPointStop
         offset="0"
         style="stop-color:#3FA600" /><a:midPointStop
         offset="0.5"
         style="stop-color:#3FA600" /><a:midPointStop
         offset="1"
         style="stop-color:#008300" /></linearGradient><linearGradient
       inkscape:collect="always"
       xlink:href="#linearGradient1"
       id="linearGradient2"
       x1="52.515255"
       y1="83.787643"
       x2="102.84141"
       y2="235.06218"
       gradientUnits="userSpaceOnUse" /><linearGradient
       inkscape:collect="always"
       xlink:href="#linearGradient4"
       id="linearGradient5"
       x1="43.16869"
       y1="94.619362"
       x2="220.06821"
       y2="170.97055"
       gradientUnits="userSpaceOnUse"
       gradientTransform="translate(0,5.2916667)" /><linearGradient
       inkscape:collect="always"
       xlink:href="#linearGradient7"
       id="linearGradient8"
       x1="82.853554"
       y1="110.11504"
       x2="251.36699"
       y2="213.81561"
       gradientUnits="userSpaceOnUse" /><linearGradient
       inkscape:collect="always"
       xlink:href="#linearGradient9"
       id="linearGradient10"
       x1="110.0799"
       y1="45.966957"
       x2="209.36598"
       y2="194.65266"
       gradientUnits="userSpaceOnUse" /><linearGradient
       inkscape:collect="always"
       xlink:href="#linearGradient6"
       id="linearGradient20"
       gradientUnits="userSpaceOnUse"
       gradientTransform="translate(0,5.2916667)"
       x1="43.16869"
       y1="94.619362"
       x2="220.06821"
       y2="170.97055" /><linearGradient
       inkscape:collect="always"
       xlink:href="#linearGradient7"
       id="linearGradient21"
       gradientUnits="userSpaceOnUse"
       x1="82.853554"
       y1="110.11504"
       x2="251.36699"
       y2="213.81561" /><linearGradient
       inkscape:collect="always"
       xlink:href="#linearGradient9"
       id="linearGradient22"
       gradientUnits="userSpaceOnUse"
       x1="110.0799"
       y1="45.966957"
       x2="209.36598"
       y2="194.65266" /><linearGradient
       inkscape:collect="always"
       xlink:href="#linearGradient11"
       id="linearGradient14"
       x1="60.606758"
       y1="187.50502"
       x2="74.973244"
       y2="30.256107"
       gradientUnits="userSpaceOnUse" /><linearGradient
       inkscape:collect="always"
       xlink:href="#linearGradient15"
       id="linearGradient16"
       x1="100.16369"
       y1="95.159004"
       x2="189.06003"
       y2="184.36139"
       gradientUnits="userSpaceOnUse" /><linearGradient
       inkscape:collect="always"
       xlink:href="#linearGradient17"
       id="linearGradient18"
       x1="55.788521"
       y1="198.5321"
       x2="48.226624"
       y2="15.571447"
       gradientUnits="userSpaceOnUse" /><linearGradient
       inkscape:collect="always"
       xlink:href="#linearGradient12"
       id="linearGradient14-0"
       x1="73.583481"
       y1="62.020954"
       x2="207.02971"
       y2="229.59895"
       gradientUnits="userSpaceOnUse" /><linearGradient
       id="linearGradient12"
       inkscape:collect="always"><stop
         style="stop-color:#fdfeff;stop-opacity:1;"
         offset="0"
         id="stop13-8" /><stop
         style="stop-color:#99ccff;stop-opacity:1;"
         offset="1"
         id="stop14-6" /></linearGradient><linearGradient
       inkscape:collect="always"
       xlink:href="#linearGradient16-4"
       id="linearGradient17-2"
       x1="57.531055"
       y1="26.420616"
       x2="147.13231"
       y2="144.34076"
       gradientUnits="userSpaceOnUse" /><linearGradient
       id="linearGradient16-4"
       inkscape:collect="always"><stop
         style="stop-color:#cdcdcd;stop-opacity:0.17462483;"
         offset="0"
         id="stop16-7" /><stop
         style="stop-color:#cdcdcd;stop-opacity:1;"
         offset="1"
         id="stop17-9" /></linearGradient><linearGradient
       inkscape:collect="always"
       xlink:href="#linearGradient18-3"
       id="linearGradient19"
       x1="209.82518"
       y1="58.53635"
       x2="210.58252"
       y2="194.57654"
       gradientUnits="userSpaceOnUse" /><linearGradient
       id="linearGradient18-3"
       inkscape:collect="always"><stop
         style="stop-color:#9797ff;stop-opacity:1;"
         offset="0"
         id="stop18-9" /><stop
         style="stop-color:#ccccff;stop-opacity:1;"
         offset="0.30000001"
         id="stop20" /><stop
         style="stop-color:#ccccff;stop-opacity:1;"
         offset="1"
         id="stop19" /></linearGradient><linearGradient
       inkscape:collect="always"
       xlink:href="#linearGradient9-8"
       id="linearGradient10-2"
       x1="31.622168"
       y1="100.24049"
       x2="221.19499"
       y2="240.28973"
       gradientUnits="userSpaceOnUse" /><linearGradient
       id="linearGradient9-8"
       inkscape:collect="always"><stop
         style="stop-color:#97c9fc;stop-opacity:1;"
         offset="0"
         id="stop9-3" /><stop
         style="stop-color:#7788bb;stop-opacity:1"
         offset="0.25"
         id="stop12-0" /><stop
         style="stop-color:#57578a;stop-opacity:1"
         offset="0.5"
         id="stop11-1" /><stop
         style="stop-color:#444482;stop-opacity:1;"
         offset="1"
         id="stop10-7" /></linearGradient><linearGradient
       inkscape:collect="always"
       xlink:href="#linearGradient22-8"
       id="linearGradient23"
       x1="177.19191"
       y1="58.990749"
       x2="207.31995"
       y2="58.990749"
       gradientUnits="userSpaceOnUse" /><linearGradient
       id="linearGradient22-8"
       inkscape:collect="always"><stop
         style="stop-color:#adaeae;stop-opacity:0.8253752;"
         offset="0"
         id="stop22" /><stop
         style="stop-color:#8ac5fe;stop-opacity:0.83628923;"
         offset="1"
         id="stop23" /></linearGradient><linearGradient
       inkscape:collect="always"
       xlink:href="#linearGradient24"
       id="linearGradient25"
       x1="176.32031"
       y1="20.126524"
       x2="176.32031"
       y2="56.695721"
       gradientUnits="userSpaceOnUse" /><linearGradient
       id="linearGradient24"
       inkscape:collect="always"><stop
         style="stop-color:#c7fafe;stop-opacity:1;"
         offset="0"
         id="stop24" /><stop
         style="stop-color:#9acdff;stop-opacity:1"
         offset="1"
         id="stop25" /></linearGradient><linearGradient
       inkscape:collect="always"
       xlink:href="#linearGradient26"
       id="linearGradient27"
       x1="172.59729"
       y1="13.51158"
       x2="210.54449"
       y2="51.28627"
       gradientUnits="userSpaceOnUse" /><linearGradient
       id="linearGradient26"
       inkscape:collect="always"><stop
         style="stop-color:#7b91c4;stop-opacity:1;"
         offset="0"
         id="stop26" /><stop
         style="stop-color:#5c5e91;stop-opacity:1"
         offset="1"
         id="stop27" /></linearGradient></defs><sodipodi:namedview
     id="base"
     pagecolor="#ffffff"
     bordercolor="#000000"
     borderopacity="0.3"
     inkscape:pageopacity="0.0"
     inkscape:pageshadow="2"
     inkscape:zoom="0.98994949"
     inkscape:cx="505.07627"
     inkscape:cy="476.792"
     inkscape:document-units="mm"
     inkscape:showpageshadow="2"
     inkscape:pagecheckerboard="0"
     inkscape:deskcolor="#d1d1d1"
     inkscape:current-layer="svg1"
     showguides="true"><sodipodi:guide
       position="46.49107,121.58221"
       orientation="1,0"
       id="guide16"
       inkscape:locked="false" /><sodipodi:guide
       position="98.651783,154.51339"
       orientation="0,-1"
       id="guide17"
       inkscape:locked="false" /></sodipodi:namedview><metadata
     id="metadata1"><rdf:RDF><cc:Work
         rdf:about=""><dc:format>image/svg+xml</dc:format><dc:type
           rdf:resource="http://purl.org/dc/dcmitype/StillImage" /><cc:license
           rdf:resource="http://creativecommons.org/publicdomain/zero/1.0/" /></cc:Work><cc:License
         rdf:about="http://creativecommons.org/publicdomain/zero/1.0/"><cc:permits
           rdf:resource="http://creativecommons.org/ns#Reproduction" /><cc:permits
           rdf:resource="http://creativecommons.org/ns#Distribution" /><cc:permits
           rdf:resource="http://creativecommons.org/ns#DerivativeWorks" /></cc:License></rdf:RDF></metadata><g
     id="g12"
     inkscape:label="shadowclose"
     style="display:inline"
     transform="matrix(1.0330579,0,0,1.0330579,-2.2035813,8.8493538)"><path
       style="color:#000000;display:inline;fill:#000000;fill-opacity:0.0929705;stroke-width:1.16609;stroke-linecap:round;stroke-linejoin:bevel;-inkscape-stroke:none"
       d="m 16.252978,44.341516 36.105011,-33.002229 61.957981,0.435815 33.87631,31.694784 c 0,0 64.12877,-2.115614 79.86291,-0.435815 24.52209,2.341258 21.16667,32.153051 21.16667,32.153051 l 0.11037,104.144978 c 0.48637,27.64938 -0.40781,45.25999 -29.66029,47.44855 L 36.130614,226.40267 C 11.402737,224.00742 9.4751688,205.49428 10.205359,188.98303 Z"
       id="path12"
       sodipodi:nodetypes="ccccccccccc"
       inkscape:label="shadow" /><path
       style="color:#000000;display:inline;fill:#000000;fill-opacity:0.0929705;stroke-width:1.16609;stroke-linecap:round;stroke-linejoin:bevel;-inkscape-stroke:none"
       d="m 16.252978,44.341516 36.105011,-33.002229 56.288341,0.435815 33.87631,31.694784 c 0,0 63.81419,-0.815135 78.72898,4.477875 25.40122,6.806235 21.73362,28.37329 21.73362,28.37329 l 0.65315,100.365219 c 0.15291,23.49695 -2.94787,40.38154 -25.10037,41.77891 L 41.044304,220.35505 C 21.259354,217.1328 10.22349,205.93759 10.205359,188.98303 Z"
       id="path14"
       sodipodi:nodetypes="ccccccscccc"
       inkscape:label="shadow" /><path
       style="color:#000000;display:inline;fill:#000000;fill-opacity:0.0929705;stroke-width:1.16609;stroke-linecap:round;stroke-linejoin:bevel;-inkscape-stroke:none"
       d="m 16.252978,44.341516 36.105011,-33.002229 50.240721,-0.698114 33.87631,31.694784 c 0,0 55.26431,0.640556 80.99684,9.391566 12.38959,4.213398 19.15438,6.906208 19.65476,18.545909 1.39024,32.339248 3.27511,68.180748 2.34194,102.255098 -0.25256,9.22222 -2.31668,19.70368 -4.68414,27.65066 -2.70543,9.08145 -10.52594,12.93783 -21.91604,11.86039 L 43.312161,211.6616 c -14.52793,-0.076 -31.881718,-7.49369 -33.106802,-22.67857 z"
       id="path15"
       sodipodi:nodetypes="ccccsssscccc"
       inkscape:label="shadow" /><path
       style="color:#000000;display:inline;fill:#000000;fill-opacity:0.0929705;stroke-width:1.16609;stroke-linecap:round;stroke-linejoin:bevel;-inkscape-stroke:none"
       d="m 16.252978,44.341516 36.105011,-33.002229 48.236201,0.237329 31.20361,31.29388 c 0,0 56.89843,-2.363022 81.26411,9.926105 21.18433,10.684576 18.6584,27.170577 18.6584,27.170577 l 2.7121,92.195472 c 0,32.74973 -5.17276,36.66642 -30.25748,35.15222 L 42.367221,204.29106 c -13.969449,0.1705 -30.178506,-3.91126 -32.161862,-19.45071 z"
       id="path16"
       sodipodi:nodetypes="ccccscccccc"
       inkscape:label="shadow" /></g><g
     id="g13"
     inkscape:label="shadowopen"
     style="display:none"
     transform="matrix(1.0068174,0,0,1.0068174,-1.9389142,9.1285845)"><path
       style="color:#000000;display:inline;fill:#000000;fill-opacity:0.0929705;stroke-width:1.16609;stroke-linecap:round;stroke-linejoin:bevel;-inkscape-stroke:none"
       d="m 16.252978,44.341516 36.105011,-33.002229 73.183301,0.435815 33.87631,31.694784 c 0,0 40.06412,5.288391 60.8358,7.390766 19.90983,2.015143 34.77394,20.150305 34.00533,42.193175 -0.41964,12.034643 0.54567,36.121743 0.54567,36.121743 l -0.36685,29.84405 c -3.37229,55.09309 -15.97567,67.3805 -34.76561,67.76103 -54.79223,1.10965 -100.65039,3.04728 -156.705016,2.26785 C 26.62644,228.5432 10.961311,193.51874 10.961311,193.51874 Z"
       id="path13"
       sodipodi:nodetypes="ccccssccsscc"
       inkscape:label="shadow" /><path
       style="color:#000000;display:inline;fill:#000000;fill-opacity:0.0929705;stroke-width:1.16609;stroke-linecap:round;stroke-linejoin:bevel;-inkscape-stroke:none"
       d="m 16.252978,44.341516 36.105011,-33.002229 62.492521,0.435815 33.87631,31.694784 c 0,0 43.43472,9.086572 65.43036,8.651349 17.27416,-0.3418 40.22607,21.832063 40.10155,40.932592 -0.12988,19.923203 -0.87504,24.665753 -1.88892,46.375883 -2.14937,46.02402 -10.40288,78.69306 -36.97418,78.79832 0,0 -117.138269,5.09652 -174.454164,0.69109 -14.259757,-1.09604 -30.736107,-29.93609 -30.736107,-29.93609 z"
       id="path22"
       sodipodi:nodetypes="ccccssssscc"
       inkscape:label="shadow" /><path
       style="color:#000000;display:inline;fill:#000000;fill-opacity:0.124717;stroke-width:1.16609;stroke-linecap:round;stroke-linejoin:bevel;-inkscape-stroke:none"
       d="m 16.252978,44.341516 36.105011,-33.002229 57.147131,0.435815 33.87631,31.694784 c 0,0 43.12388,9.373494 64.91712,9.407302 20.39888,0.03164 46.66344,25.415249 47.41707,45.783098 0.82469,22.288574 -6.28806,65.998724 -7.13024,69.814724 -5.87003,26.59754 -3.56567,35.68331 -38.53514,43.33855 0,0 -110.978839,8.49353 -166.970618,1.22563 -13.465677,-1.74788 -32.874263,-24.05616 -32.874263,-24.05616 z"
       id="path23"
       sodipodi:nodetypes="ccccssscscc"
       inkscape:label="shadow" /><path
       style="color:#000000;display:inline;fill:url(#linearGradient16);stroke-width:1.16609;stroke-linecap:round;stroke-linejoin:bevel;-inkscape-stroke:none"
       d="m 16.252978,44.341516 36.105011,-33.002229 50.732661,0.435815 33.87631,31.694784 72.37937,13.462201 c 0,0 30.91772,5.843599 38.11483,12.001167 9.82151,8.402891 11.79254,44.628786 -9.44459,97.064406 -21.23714,52.43562 -15.70419,40.42994 -76.98295,40.56311 0,0 -56.11246,0.17817 -111.852655,-0.27603 -13.55581,-0.11047 -38.975606,-17.30171 -38.975606,-17.30171 z"
       id="path24"
       sodipodi:nodetypes="cccccszcscc"
       inkscape:label="shadow" /></g><g
     id="rect1"
     style="display:inline"
     inkscape:label="back"
     transform="matrix(1.0272988,0,0,1.0272988,-2.0291602,8.9067299)"><path
       style="color:#000000;fill:url(#linearGradient2);stroke-linecap:round;stroke-linejoin:bevel;-inkscape-stroke:none"
       d="m 12.095239,51.404763 30.616074,-32.883928 52.538689,0.377976 28.726198,31.75 78.61905,-0.377976 V 176.85026 H 12.095239 Z"
       id="path2"
       sodipodi:nodetypes="cccccccc" /><path
       id="rect3"
       style="display:inline;fill:#ffffff;stroke-width:15.377;stroke-linecap:round;stroke-linejoin:bevel"
       d="m 17.639788,55.324789 28.330568,-30.468726 45.435817,0.534539 29.934187,31.270535 75.10273,-0.26727 v 14.432554 l -80.01642,0.26727 -30.150038,-31.270535 -35.927125,0.26727 -33.244258,36.138369 z"
       sodipodi:nodetypes="ccccccccccc" /><path
       style="color:#000000;fill:#cea221;stroke-linecap:round;stroke-linejoin:bevel;-inkscape-stroke:none"
       d="M 42.767578,10.832031 37.083984,13.28125 6.46875,46.166016 4.40625,51.404297 V 176.84951 c 0.9154791,4.21083 2.5425773,7.71003 7.689453,7.68946 H 202.5957 l 7.6875,-7.68946 V 50.271484 c 0.24504,-4.443094 -1.57408,-7.510076 -7.72461,-7.689453 l -75.18554,0.361328 -26.42188,-29.203125 -5.646483,-2.529296 z m 3.267578,15.402344 45.78125,0.328125 26.458984,29.244141 5.73828,2.53125 70.89258,-0.341797 V 169.16201 H 19.783203 V 54.431641 Z"
       id="path3"
       sodipodi:nodetypes="ccccccccccccccccccccccc" /></g><g
     id="rect4"
     inkscape:label="close"
     style="display:inline"
     transform="matrix(1.046868,0,0,1.0272988,-6.4097406,12.476083)"><path
       style="color:#000000;fill:url(#linearGradient5);stroke-linejoin:bevel;-inkscape-stroke:none"
       d="M 39.948839,84.560004 50.070576,71.031306 148.56455,70.196909 h 67.59491 V 187.45551 H 39.948839 Z"
       id="path5"
       sodipodi:nodetypes="ccccccc" /><path
       id="rect7"
       style="fill:url(#linearGradient8);stroke-width:15.377;stroke-linejoin:bevel"
       d="M 38.443449,169.44888 H 195.37402 l 0.46773,-73.755263 h 17.3057 c -0.28876,34.032403 2.27179,61.637733 2.27179,95.671363 L 46.728804,187.08867 Z"
       sodipodi:nodetypes="ccccccc" /><path
       id="path7"
       style="display:inline;fill:url(#linearGradient18);stroke-width:15.377;stroke-linecap:round;stroke-linejoin:bevel"
       d="m 46.392076,181.98385 0.07351,-107.391098 102.868614,0.230236 61.47199,1.603617 v 20.312484 h -57.29851 l -88.12199,0.180167 -0.04755,85.323034 z"
       sodipodi:nodetypes="ccccccccc" /><path
       style="color:#000000;fill:url(#linearGradient10);stroke-linejoin:bevel;-inkscape-stroke:none"
       d="m 40.137595,62.33389 c -6.760736,-0.235673 -7.178598,4.309136 -7.6875,8.241352 L 31.694143,187.45508 c 0.674417,4.18151 3.271374,6.71512 7.6875,7.68945 H 216.16016 c 5.83804,0.29423 7.75626,-2.83094 7.6875,-7.68945 V 70.197079 c -0.16186,-5.049533 -2.53805,-7.943617 -7.6875,-7.827428 -58.45149,0 -116.731075,-0.03576 -176.022565,-0.03576 z M 208.4707,77.884579 V 179.76758 H 47.071096 L 47.827048,78.262742 c 59.235472,0.0065 101.404572,-0.378163 160.643652,-0.378163 z"
       id="path6"
       sodipodi:nodetypes="cccccccccccccc" /></g><g
     id="g20"
     inkscape:label="open"
     style="display:none"
     transform="matrix(1.0272988,0,-0.22903094,0.93647609,33.604309,21.96265)"><path
       style="color:#000000;fill:url(#linearGradient20);stroke-linejoin:bevel;-inkscape-stroke:none"
       d="m 22.886951,78.134409 h 97.392209 l 28.28539,-14.363095 h 67.59491 V 187.45551 H 22.886951 Z"
       id="path17" /><path
       id="path18"
       style="fill:url(#linearGradient21);stroke-width:15.377;stroke-linejoin:bevel"
       d="M 21.381561,169.44888 H 195.37402 l 0.46773,-80.180858 h 17.3057 c -0.28876,34.032398 2.27179,68.063328 2.27179,102.096958 L 29.666916,187.08867 Z"
       sodipodi:nodetypes="ccccccc" /><path
       id="path19"
       style="display:inline;fill:url(#linearGradient14);stroke-width:15.377;stroke-linecap:round;stroke-linejoin:bevel"
       d="m 26.196468,77.472204 c 0,0 61.529128,0.829797 93.811602,-0.801808 l 30.71274,-2.053499 61.47199,1.603617 4.16268,20.312484 H 55.486552 c 5.546427,25.710512 7.894291,67.591662 -3.012082,95.226152 l -20.345138,-3.97048 c -1.199998,-29.74052 2.240856,-57.5062 -5.932864,-90.214271 z"
       sodipodi:nodetypes="cccccccccc" /><path
       style="color:#000000;fill:url(#linearGradient22);stroke-linejoin:bevel;-inkscape-stroke:none"
       d="m 149.95106,62.301535 -3.48047,0.833985 C 102.32048,62.548127 63.464386,62.567274 21.130351,62.567274 c -6.756833,-0.830807 -6.851232,3.729475 -7.6875,7.689454 11.672833,51.561032 8.047695,91.093652 4.459577,124.528112 -0.339785,3.16615 4.426923,5.1263 7.6875,7.68945 H 218.86337 c 3.67232,-2.70006 6.52227,-7.72863 8.2627,-15.89878 5.68917,-38.86151 6.4991,-77.72301 -1.8918,-116.584522 -1.05751,-2.362904 -1.02105,-4.580249 -7.6875,-7.689453 z m 1.83985,15.376953 h 58.0664 c 8.73588,37.930492 4.82746,73.639752 1.3166,109.418852 H 33.279381 c 6.637531,-31.51664 5.60206,-72.67072 -4.459577,-109.153112 45.521495,-0.874055 78.037736,0.03645 122.971106,-0.26574 z"
       id="path20"
       sodipodi:nodetypes="ccccscccccccccccc" /></g><g
     id="g28"
     transform="matrix(0.69634739,0,0,0.69634739,101.11664,84.830456)"><g
       id="g7"
       inkscape:label="shadow"
       style="display:inline"><path
         id="rect1-9"
         style="fill:#000000;fill-opacity:0.0602258;stroke-width:3.72791;stroke-linecap:square"
         d="M 48.380952,13.418155 H 179.16071 l 43.46726,43.278274 V 244.17261 H 48.380952 Z"
         sodipodi:nodetypes="cccccc" /><path
         id="path1"
         style="fill:#000000;fill-opacity:0.0752823;stroke-width:3.72791;stroke-linecap:square"
         d="m 47.563027,12.60023 129.443423,-0.133635 43.46726,43.278274 1.33635,187.609821 H 47.563027 Z"
         sodipodi:nodetypes="cccccc" /><path
         id="path2-1"
         style="fill:#000000;fill-opacity:0.0602258;stroke-width:3.72791;stroke-linecap:square"
         d="m 46.493949,11.793049 128.975701,-0.868626 43.46726,43.278274 1.80407,188.344813 H 46.493949 Z"
         sodipodi:nodetypes="cccccc" /><path
         id="path3-5"
         style="fill:#000000;fill-opacity:0.0602258;stroke-width:3.72791;stroke-linecap:square"
         d="m 45.964782,12.33296 129.777508,0.467722 43.46726,42.209196 1.00226,187.008462 H 45.964782 Z"
         sodipodi:nodetypes="cccccc" /><path
         id="path4"
         style="fill:#000000;fill-opacity:0.0602258;stroke-width:3.72791;stroke-linecap:square"
         d="m 45.435615,12.338332 129.443415,0.935443 43.46726,41.674657 1.33635,186.540738 H 45.435615 Z"
         sodipodi:nodetypes="cccccc" /><path
         id="path5-4"
         style="fill:#000000;fill-opacity:0.0602258;stroke-width:3.72791;stroke-linecap:square"
         d="M 44.906448,12.744609 174.8844,13.412783 218.35166,54.151996 219.15347,240.96 H 44.906448 Z"
         sodipodi:nodetypes="cccccc" /><path
         id="path6-9"
         style="fill:#000000;fill-opacity:0.0602258;stroke-width:3.72791;stroke-linecap:square"
         d="m 44.377281,15.021772 129.911129,0.534539 43.46726,37.932883 0.86863,186.941636 H 44.377281 Z"
         sodipodi:nodetypes="cccccc" /><path
         id="path7-2"
         style="fill:#000000;fill-opacity:0.0602258;stroke-width:3.72791;stroke-linecap:square"
         d="m 43.848114,13.423527 129.710676,1.069078 43.46726,39.001961 1.06908,186.407094 H 43.848114 Z"
         sodipodi:nodetypes="cccccc" /></g><g
       id="g14"
       style="display:inline"><path
         style="color:#000000;fill:url(#linearGradient14-0);stroke-linecap:square;-inkscape-stroke:none"
         d="M 46.153822,14.648159 H 173.78301 l 40.90293,41.140298 V 236.0795 H 46.554726 Z"
         id="path15-5"
         inkscape:label="headbgground" /><path
         id="rect16"
         style="display:inline;fill:url(#linearGradient17-2);fill-opacity:1;stroke-width:4.99999;stroke-linecap:square"
         d="M 45.435818,14.165285 H 176.70315 l 0.20408,8.220982 H 53.433709 V 235.97952 h -7.997891 z"
         sodipodi:nodetypes="ccccccc" /><path
         id="rect17"
         style="fill:url(#linearGradient19);stroke-width:4.99999;stroke-linecap:square"
         d="M 47.058037,227.91965 H 207.27506 l -0.0668,-168.246312 7.31651,0.0667 0.0668,168.546562 -7.08265,0.0331 v 7.34846 H 47.058037 Z"
         sodipodi:nodetypes="ccccccccc" /><path
         style="color:#000000;fill:url(#linearGradient10-2);stroke-linecap:square;-inkscape-stroke:none"
         d="M 43.648437,12.148438 44.058594,238.58008 H 217.18555 V 54.757812 L 174.82227,12.148438 Z m 4.608862,4.999999 H 172.74414 l 39.44141,39.671875 V 233.58008 H 48.775405 Z"
         id="path16-7"
         inkscape:label="headframe"
         sodipodi:nodetypes="cccccccccccc" /></g><g
       id="rect23"
       style="display:inline"><rect
         style="display:inline;fill:url(#linearGradient23);fill-opacity:0.834379;stroke:none;stroke-width:4.99999;stroke-linecap:square;stroke-dasharray:none;stroke-opacity:1"
         id="rect20"
         width="30.128031"
         height="11.286353"
         x="177.19191"
         y="53.347572" /><path
         style="color:#000000;display:inline;fill:url(#linearGradient25);stroke-linecap:square;stroke-linejoin:bevel;-inkscape-stroke:none"
         d="m 174.15254,15.119046 40.91592,41.955358 H 174.814 Z"
         id="path25" /><g
         id="g27"><path
           id="rect27"
           style="display:inline;fill:#0a6db5;fill-opacity:0.459222;stroke-width:4.99999;stroke-linecap:square;stroke-linejoin:bevel"
           d="m 182.94047,23.245534 33.07293,33.82887 -33.07293,-0.09449 z"
           sodipodi:nodetypes="cccc" /><path
           id="path27"
           style="display:inline;fill:#1882cf;fill-opacity:0.459222;stroke-width:4.99999;stroke-linecap:square;stroke-linejoin:bevel"
           d="m 175.28645,49.514879 34.91556,0.188989 4.67746,7.087054 -39.68751,-0.472471 z"
           sodipodi:nodetypes="ccccc" /></g><path
         style="color:#000000;display:inline;fill:url(#linearGradient27);stroke-linecap:square;stroke-linejoin:bevel;-inkscape-stroke:none"
         d="m 175.94141,13.373047 -4.28907,1.785156 6.5e-4,44.600911 c 0,0 29.8634,-0.184895 43.41537,-0.184895 l 1.78906,-4.246094 z m 1.4286,7.056744 34.22551,34.144428 h -34.32013 z"
         id="path26"
         sodipodi:nodetypes="cccccccccc" /></g><rect
       style="fill:#939393;fill-opacity:0.986867;stroke-width:2.42512;stroke-linecap:round;stroke-linejoin:round"
       id="rect3-4"
       width="55.079464"
       height="8.1599236"
       x="64.762642"
       y="33.906281" /><rect
       style="fill:#939393;fill-opacity:0.986867;stroke-width:2.79797;stroke-linecap:round;stroke-linejoin:round"
       id="rect4-9"
       width="73.318115"
       height="8.1599236"
       x="64.901405"
       y="106.59429" /><rect
       style="fill:#939393;fill-opacity:0.986867;stroke-width:2.11628;stroke-linecap:round;stroke-linejoin:round"
       id="rect5"
       width="41.944096"
       height="8.1599236"
       x="64.901405"
       y="132.64908" /><rect
       style="fill:#939393;fill-opacity:0.986867;stroke-width:2.42257;stroke-linecap:round;stroke-linejoin:round"
       id="rect8"
       width="54.96368"
       height="8.1599236"
       x="64.878426"
       y="65.52597" /><rect
       style="fill:#939393;fill-opacity:0.986867;stroke-width:3.76591;stroke-linecap:round;stroke-linejoin:round"
       id="rect9"
       width="132.82057"
       height="8.1599236"
       x="64.540779"
       y="189.45476" /></g></svg>
