<?xml version="1.0" encoding="UTF-8" standalone="no"?>
<!-- Created with Inkscape (http://www.inkscape.org/) -->

<svg
   width="256mm"
   height="256mm"
   viewBox="0 0 256 256"
   version="1.1"
   id="svg1"
   inkscape:version="1.3.2 (091e20ef0f, 2023-11-25)"
   xml:space="preserve"
   sodipodi:docname="folder-news-symbolic.svg"
   xmlns:inkscape="http://www.inkscape.org/namespaces/inkscape"
   xmlns:sodipodi="http://sodipodi.sourceforge.net/DTD/sodipodi-0.dtd"
   xmlns:xlink="http://www.w3.org/1999/xlink"
   xmlns="http://www.w3.org/2000/svg"
   xmlns:svg="http://www.w3.org/2000/svg"
   xmlns:rdf="http://www.w3.org/1999/02/22-rdf-syntax-ns#"
   xmlns:cc="http://creativecommons.org/ns#"
   xmlns:dc="http://purl.org/dc/elements/1.1/"
   xmlns:a="http://ns.adobe.com/AdobeSVGViewerExtensions/3.0/"><defs
     id="defs1"><linearGradient
       id="linearGradient17"
       inkscape:collect="always"><stop
         style="stop-color:#ffffff;stop-opacity:0.04790419;"
         offset="0"
         id="stop17" /><stop
         style="stop-color:#ffffff;stop-opacity:1;"
         offset="1"
         id="stop18" /></linearGradient><linearGradient
       id="linearGradient15"
       inkscape:collect="always"><stop
         style="stop-color:#000000;stop-opacity:0.13173653;"
         offset="0"
         id="stop15" /><stop
         style="stop-color:#000000;stop-opacity:0.40269461;"
         offset="1"
         id="stop16" /></linearGradient><linearGradient
       id="linearGradient11"
       inkscape:collect="always"><stop
         style="stop-color:#ffffff;stop-opacity:0.13772455;"
         offset="0"
         id="stop13" /><stop
         style="stop-color:#ffffff;stop-opacity:1;"
         offset="1"
         id="stop14" /></linearGradient><linearGradient
       id="linearGradient6"
       inkscape:collect="always"><stop
         style="stop-color:#ffee8d;stop-opacity:0.73209548;"
         offset="0"
         id="stop3" /><stop
         style="stop-color:#f7e714;stop-opacity:0.37125748;"
         offset="1"
         id="stop6" /></linearGradient><linearGradient
       id="linearGradient9"
       inkscape:collect="always"><stop
         style="stop-color:#cea221;stop-opacity:1;"
         offset="0"
         id="stop9" /><stop
         style="stop-color:#cea221;stop-opacity:1;"
         offset="0.35811982"
         id="stop11" /><stop
         style="stop-color:#a38118;stop-opacity:1;"
         offset="0.48275998"
         id="stop12" /><stop
         style="stop-color:#765d13;stop-opacity:1;"
         offset="1"
         id="stop10" /></linearGradient><linearGradient
       id="linearGradient7"
       inkscape:collect="always"><stop
         style="stop-color:#000000;stop-opacity:0.18302387;"
         offset="0"
         id="stop7" /><stop
         style="stop-color:#b7b7b7;stop-opacity:0.18832891;"
         offset="1"
         id="stop8" /></linearGradient><linearGradient
       id="linearGradient4"
       inkscape:collect="always"><stop
         style="stop-color:#ffee8d;stop-opacity:0.73209548;"
         offset="0"
         id="stop4" /><stop
         style="stop-color:#d6bc48;stop-opacity:0.61803716;"
         offset="1"
         id="stop5" /></linearGradient><linearGradient
       id="linearGradient1"
       inkscape:collect="always"><stop
         style="stop-color:#ffeb9b;stop-opacity:1;"
         offset="0"
         id="stop1" /><stop
         style="stop-color:#c2a000;stop-opacity:1;"
         offset="1"
         id="stop2" /></linearGradient><linearGradient
       id="path3_3_"
       gradientUnits="userSpaceOnUse"
       x1="57.324699"
       y1="46.403801"
       x2="83.153503"
       y2="46.403801"><stop
         offset="0"
         style="stop-color:rgb(255,255,255)"
         id="stop8-0" /><stop
         offset="1"
         style="stop-color:rgb(223,223,236)"
         id="stop9-9" /><a:midPointStop
         offset="0"
         style="stop-color:#FFFFFF" /><a:midPointStop
         offset="0.5"
         style="stop-color:#FFFFFF" /><a:midPointStop
         offset="1"
         style="stop-color:#DFDFEC" /></linearGradient><linearGradient
       id="XMLID_4_-3-7"
       gradientUnits="userSpaceOnUse"
       x1="32.8545"
       y1="17.5103"
       x2="90.494102"
       y2="85.498703"><stop
         offset="0"
         style="stop-color:rgb(217,217,217)"
         id="stop10-6-6" /><stop
         offset="1"
         style="stop-color:rgb(87,87,151)"
         id="stop11-06" /><a:midPointStop
         offset="0"
         style="stop-color:#D9D9D9" /><a:midPointStop
         offset="0.5"
         style="stop-color:#D9D9D9" /><a:midPointStop
         offset="1"
         style="stop-color:#575797" /></linearGradient><linearGradient
       id="path11_3_"
       gradientUnits="userSpaceOnUse"
       x1="55.0952"
       y1="78.122101"
       x2="88.283401"
       y2="44.933899"><stop
         offset="0"
         style="stop-color:rgb(255,255,255)"
         id="stop12-2" /><stop
         offset="1"
         style="stop-color:rgb(223,223,236)"
         id="stop13-6" /><a:midPointStop
         offset="0"
         style="stop-color:#FFFFFF" /><a:midPointStop
         offset="0.5"
         style="stop-color:#FFFFFF" /><a:midPointStop
         offset="1"
         style="stop-color:#DFDFEC" /></linearGradient><linearGradient
       id="path16_3_"
       gradientUnits="userSpaceOnUse"
       x1="76.635696"
       y1="27.1621"
       x2="81.575798"
       y2="22.468901"><stop
         offset="0"
         style="stop-color:rgb(255,255,255)"
         id="stop14-1" /><stop
         offset="1"
         style="stop-color:rgb(223,223,236)"
         id="stop15-8-4" /><a:midPointStop
         offset="0"
         style="stop-color:#FFFFFF" /><a:midPointStop
         offset="0.5"
         style="stop-color:#FFFFFF" /><a:midPointStop
         offset="1"
         style="stop-color:#DFDFEC" /></linearGradient><linearGradient
       id="XMLID_5_-7"
       gradientUnits="userSpaceOnUse"
       x1="53.142101"
       y1="0.1851"
       x2="113.11"
       y2="70.919998"><stop
         offset="0"
         style="stop-color:rgb(217,217,217)"
         id="stop16-9-3" /><stop
         offset="1"
         style="stop-color:rgb(87,87,151)"
         id="stop17-2" /><a:midPointStop
         offset="0"
         style="stop-color:#D9D9D9" /><a:midPointStop
         offset="0.5"
         style="stop-color:#D9D9D9" /><a:midPointStop
         offset="1"
         style="stop-color:#575797" /></linearGradient><linearGradient
       id="XMLID_6_-7"
       gradientUnits="userSpaceOnUse"
       x1="65.5215"
       y1="109.3271"
       x2="65.5215"
       y2="46.861301"><stop
         offset="0"
         style="stop-color:#3FA600"
         id="stop14-2" /><stop
         offset="1"
         style="stop-color:#008300"
         id="stop15-4" /><a:midPointStop
         offset="0"
         style="stop-color:#3FA600" /><a:midPointStop
         offset="0.5"
         style="stop-color:#3FA600" /><a:midPointStop
         offset="1"
         style="stop-color:#008300" /></linearGradient><linearGradient
       inkscape:collect="always"
       xlink:href="#linearGradient1"
       id="linearGradient2"
       x1="52.515255"
       y1="83.787643"
       x2="102.84141"
       y2="235.06218"
       gradientUnits="userSpaceOnUse" /><linearGradient
       inkscape:collect="always"
       xlink:href="#linearGradient4"
       id="linearGradient5"
       x1="43.16869"
       y1="94.619362"
       x2="220.06821"
       y2="170.97055"
       gradientUnits="userSpaceOnUse"
       gradientTransform="translate(0,5.2916667)" /><linearGradient
       inkscape:collect="always"
       xlink:href="#linearGradient7"
       id="linearGradient8"
       x1="82.853554"
       y1="110.11504"
       x2="251.36699"
       y2="213.81561"
       gradientUnits="userSpaceOnUse" /><linearGradient
       inkscape:collect="always"
       xlink:href="#linearGradient9"
       id="linearGradient10"
       x1="110.0799"
       y1="45.966957"
       x2="209.36598"
       y2="194.65266"
       gradientUnits="userSpaceOnUse" /><linearGradient
       inkscape:collect="always"
       xlink:href="#linearGradient6"
       id="linearGradient20"
       gradientUnits="userSpaceOnUse"
       gradientTransform="translate(0,5.2916667)"
       x1="43.16869"
       y1="94.619362"
       x2="220.06821"
       y2="170.97055" /><linearGradient
       inkscape:collect="always"
       xlink:href="#linearGradient7"
       id="linearGradient21"
       gradientUnits="userSpaceOnUse"
       x1="82.853554"
       y1="110.11504"
       x2="251.36699"
       y2="213.81561" /><linearGradient
       inkscape:collect="always"
       xlink:href="#linearGradient9"
       id="linearGradient22"
       gradientUnits="userSpaceOnUse"
       x1="110.0799"
       y1="45.966957"
       x2="209.36598"
       y2="194.65266" /><linearGradient
       inkscape:collect="always"
       xlink:href="#linearGradient11"
       id="linearGradient14"
       x1="60.606758"
       y1="187.50502"
       x2="74.973244"
       y2="30.256107"
       gradientUnits="userSpaceOnUse" /><linearGradient
       inkscape:collect="always"
       xlink:href="#linearGradient15"
       id="linearGradient16"
       x1="100.16369"
       y1="95.159004"
       x2="189.06003"
       y2="184.36139"
       gradientUnits="userSpaceOnUse" /><linearGradient
       inkscape:collect="always"
       xlink:href="#linearGradient17"
       id="linearGradient18"
       x1="55.788521"
       y1="198.5321"
       x2="48.226624"
       y2="15.571447"
       gradientUnits="userSpaceOnUse" /><linearGradient
       inkscape:collect="always"
       xlink:href="#SVGID_1_"
       id="linearGradient1735"
       gradientUnits="userSpaceOnUse"
       x1="41.009998"
       y1="26.042999"
       x2="70.039001"
       y2="85.660004" /><linearGradient
       x1="41.009998"
       y1="26.042999"
       x2="70.039001"
       gradientUnits="userSpaceOnUse"
       y2="85.660004"
       id="SVGID_1_">
						<stop
   id="stop5-9"
   offset="0"
   stop-color="#fff" />
						<stop
   id="stop7-0"
   offset="1"
   stop-color="#B8B8B8" />
					</linearGradient><linearGradient
       inkscape:collect="always"
       xlink:href="#SVGID_2_"
       id="linearGradient1737"
       gradientUnits="userSpaceOnUse"
       x1="2.7598"
       y1="61.278999"
       x2="112.06"
       y2="61.278999" /><linearGradient
       x1="2.7598"
       y1="61.278999"
       x2="112.06"
       gradientUnits="userSpaceOnUse"
       y2="61.278999"
       id="SVGID_2_">
						<stop
   id="stop12-9"
   offset="0"
   stop-color="#8C94A3" />
						<stop
   id="stop14-1-2"
   offset="1"
   stop-color="#616161" />
					</linearGradient><linearGradient
       inkscape:collect="always"
       xlink:href="#SVGID_3_"
       id="linearGradient1739"
       gradientUnits="userSpaceOnUse"
       x1="8.0332003"
       y1="43.903999"
       x2="31.704"
       y2="96.068001" /><linearGradient
       x1="8.0332003"
       y1="43.903999"
       x2="31.704"
       gradientUnits="userSpaceOnUse"
       y2="96.068001"
       id="SVGID_3_">
					<stop
   id="stop20-7"
   offset=".1099"
   stop-color="#E8E8E8" />
					<stop
   id="stop22-7"
   offset=".1209"
   stop-color="#B7B7B7" />
					<stop
   id="stop24-1"
   offset=".5"
   stop-color="#BDBDBD" />
					<stop
   id="stop26-1"
   offset="1"
   stop-color="#A1A1A0" />
				</linearGradient><linearGradient
       inkscape:collect="always"
       xlink:href="#SVGID_4_"
       id="linearGradient1741"
       gradientUnits="userSpaceOnUse"
       x1="17.882"
       y1="36.577"
       x2="41.183998"
       y2="87.929001" /><linearGradient
       x1="17.882"
       y1="36.577"
       x2="41.183998"
       gradientUnits="userSpaceOnUse"
       y2="87.929001"
       id="SVGID_4_">
					<stop
   id="stop31-5"
   offset="0"
   stop-color="#E8E8E8" />
					<stop
   id="stop33-9"
   offset="1"
   stop-color="#BDBDBD" />
				</linearGradient><linearGradient
       inkscape:collect="always"
       xlink:href="#SVGID_5_"
       id="linearGradient1743"
       gradientUnits="userSpaceOnUse"
       x1="23.361"
       y1="35.227001"
       x2="39.993999"
       y2="71.879997" /><linearGradient
       x1="23.361"
       y1="35.227001"
       x2="39.993999"
       gradientUnits="userSpaceOnUse"
       y2="71.879997"
       id="SVGID_5_">
					<stop
   id="stop39-7"
   offset="0"
   stop-color="#D6D6D6" />
					<stop
   id="stop41-7"
   offset="1"
   stop-color="#969696" />
				</linearGradient><linearGradient
       inkscape:collect="always"
       xlink:href="#SVGID_6_"
       id="linearGradient1745"
       gradientUnits="userSpaceOnUse"
       x1="8.1781998"
       y1="59.518002"
       x2="116.56"
       y2="59.518002" /><linearGradient
       x1="8.1781998"
       y1="59.518002"
       x2="116.56"
       gradientUnits="userSpaceOnUse"
       y2="59.518002"
       id="SVGID_6_">
						<stop
   id="stop49-6"
   offset="0"
   stop-color="#8C94A3" />
						<stop
   id="stop51"
   offset="1"
   stop-color="#616161" />
					</linearGradient><linearGradient
       inkscape:collect="always"
       xlink:href="#SVGID_7_"
       id="linearGradient1747"
       gradientUnits="userSpaceOnUse"
       x1="23.476999"
       y1="35.323002"
       x2="36.139999"
       y2="39.804001" /><linearGradient
       x1="23.476999"
       y1="35.323002"
       x2="36.139999"
       gradientUnits="userSpaceOnUse"
       y2="39.804001"
       id="SVGID_7_">
				<stop
   id="stop61"
   offset="0"
   stop-color="#fff" />
				<stop
   id="stop63-7"
   offset=".1283"
   stop-color="#F4F4F4" />
				<stop
   id="stop65"
   offset=".354"
   stop-color="#D7D7D7" />
				<stop
   id="stop67"
   offset=".6504"
   stop-color="#A7A7A7" />
				<stop
   id="stop69"
   offset="1"
   stop-color="#666" />
			</linearGradient><linearGradient
       inkscape:collect="always"
       xlink:href="#SVGID_8_"
       id="linearGradient1749"
       gradientUnits="userSpaceOnUse"
       x1="73.625"
       y1="51.348"
       x2="89.502998"
       y2="46.185001" /><linearGradient
       x1="73.625"
       y1="51.348"
       x2="89.502998"
       gradientUnits="userSpaceOnUse"
       y2="46.185001"
       id="SVGID_8_">
				<stop
   id="stop88"
   offset="0"
   stop-color="#fff" />
				<stop
   id="stop90"
   offset="1"
   stop-color="#9C9C9C" />
			</linearGradient><linearGradient
       inkscape:collect="always"
       xlink:href="#SVGID_9_"
       id="linearGradient1751"
       gradientUnits="userSpaceOnUse"
       x1="10.891"
       y1="66.746002"
       x2="37.953999"
       y2="66.746002" /><linearGradient
       x1="10.891"
       y1="66.746002"
       x2="37.953999"
       gradientUnits="userSpaceOnUse"
       y2="66.746002"
       id="SVGID_9_">
				<stop
   id="stop103"
   offset="0"
   stop-color="#424242" />
				<stop
   id="stop105"
   offset="1"
   stop-color="#8C94A3" />
			</linearGradient></defs><sodipodi:namedview
     id="base"
     pagecolor="#ffffff"
     bordercolor="#000000"
     borderopacity="0.3"
     inkscape:pageopacity="0.0"
     inkscape:pageshadow="2"
     inkscape:zoom="0.98994949"
     inkscape:cx="505.07627"
     inkscape:cy="476.792"
     inkscape:document-units="mm"
     inkscape:showpageshadow="2"
     inkscape:pagecheckerboard="0"
     inkscape:deskcolor="#d1d1d1"
     inkscape:current-layer="svg1"
     showguides="true"><sodipodi:guide
       position="46.49107,121.58221"
       orientation="1,0"
       id="guide16"
       inkscape:locked="false" /><sodipodi:guide
       position="98.651783,154.51339"
       orientation="0,-1"
       id="guide17"
       inkscape:locked="false" /></sodipodi:namedview><metadata
     id="metadata1"><rdf:RDF><cc:Work
         rdf:about=""><dc:format>image/svg+xml</dc:format><dc:type
           rdf:resource="http://purl.org/dc/dcmitype/StillImage" /><cc:license
           rdf:resource="http://creativecommons.org/publicdomain/zero/1.0/" /></cc:Work><cc:License
         rdf:about="http://creativecommons.org/publicdomain/zero/1.0/"><cc:permits
           rdf:resource="http://creativecommons.org/ns#Reproduction" /><cc:permits
           rdf:resource="http://creativecommons.org/ns#Distribution" /><cc:permits
           rdf:resource="http://creativecommons.org/ns#DerivativeWorks" /></cc:License></rdf:RDF></metadata><g
     id="g12"
     inkscape:label="shadowclose"
     style="display:inline"
     transform="matrix(1.0330579,0,0,1.0330579,-2.2035813,8.8493538)"><path
       style="color:#000000;display:inline;fill:#000000;fill-opacity:0.0929705;stroke-width:1.16609;stroke-linecap:round;stroke-linejoin:bevel;-inkscape-stroke:none"
       d="m 16.252978,44.341516 36.105011,-33.002229 61.957981,0.435815 33.87631,31.694784 c 0,0 64.12877,-2.115614 79.86291,-0.435815 24.52209,2.341258 21.16667,32.153051 21.16667,32.153051 l 0.11037,104.144978 c 0.48637,27.64938 -0.40781,45.25999 -29.66029,47.44855 L 36.130614,226.40267 C 11.402737,224.00742 9.4751688,205.49428 10.205359,188.98303 Z"
       id="path12"
       sodipodi:nodetypes="ccccccccccc"
       inkscape:label="shadow" /><path
       style="color:#000000;display:inline;fill:#000000;fill-opacity:0.0929705;stroke-width:1.16609;stroke-linecap:round;stroke-linejoin:bevel;-inkscape-stroke:none"
       d="m 16.252978,44.341516 36.105011,-33.002229 56.288341,0.435815 33.87631,31.694784 c 0,0 63.81419,-0.815135 78.72898,4.477875 25.40122,6.806235 21.73362,28.37329 21.73362,28.37329 l 0.65315,100.365219 c 0.15291,23.49695 -2.94787,40.38154 -25.10037,41.77891 L 41.044304,220.35505 C 21.259354,217.1328 10.22349,205.93759 10.205359,188.98303 Z"
       id="path14"
       sodipodi:nodetypes="ccccccscccc"
       inkscape:label="shadow" /><path
       style="color:#000000;display:inline;fill:#000000;fill-opacity:0.0929705;stroke-width:1.16609;stroke-linecap:round;stroke-linejoin:bevel;-inkscape-stroke:none"
       d="m 16.252978,44.341516 36.105011,-33.002229 50.240721,-0.698114 33.87631,31.694784 c 0,0 55.26431,0.640556 80.99684,9.391566 12.38959,4.213398 19.15438,6.906208 19.65476,18.545909 1.39024,32.339248 3.27511,68.180748 2.34194,102.255098 -0.25256,9.22222 -2.31668,19.70368 -4.68414,27.65066 -2.70543,9.08145 -10.52594,12.93783 -21.91604,11.86039 L 43.312161,211.6616 c -14.52793,-0.076 -31.881718,-7.49369 -33.106802,-22.67857 z"
       id="path15"
       sodipodi:nodetypes="ccccsssscccc"
       inkscape:label="shadow" /><path
       style="color:#000000;display:inline;fill:#000000;fill-opacity:0.0929705;stroke-width:1.16609;stroke-linecap:round;stroke-linejoin:bevel;-inkscape-stroke:none"
       d="m 16.252978,44.341516 36.105011,-33.002229 48.236201,0.237329 31.20361,31.29388 c 0,0 56.89843,-2.363022 81.26411,9.926105 21.18433,10.684576 18.6584,27.170577 18.6584,27.170577 l 2.7121,92.195472 c 0,32.74973 -5.17276,36.66642 -30.25748,35.15222 L 42.367221,204.29106 c -13.969449,0.1705 -30.178506,-3.91126 -32.161862,-19.45071 z"
       id="path16"
       sodipodi:nodetypes="ccccscccccc"
       inkscape:label="shadow" /></g><g
     id="g13"
     inkscape:label="shadowopen"
     style="display:none"
     transform="matrix(1.0068174,0,0,1.0068174,-1.9389142,9.1285845)"><path
       style="color:#000000;display:inline;fill:#000000;fill-opacity:0.0929705;stroke-width:1.16609;stroke-linecap:round;stroke-linejoin:bevel;-inkscape-stroke:none"
       d="m 16.252978,44.341516 36.105011,-33.002229 73.183301,0.435815 33.87631,31.694784 c 0,0 40.06412,5.288391 60.8358,7.390766 19.90983,2.015143 34.77394,20.150305 34.00533,42.193175 -0.41964,12.034643 0.54567,36.121743 0.54567,36.121743 l -0.36685,29.84405 c -3.37229,55.09309 -15.97567,67.3805 -34.76561,67.76103 -54.79223,1.10965 -100.65039,3.04728 -156.705016,2.26785 C 26.62644,228.5432 10.961311,193.51874 10.961311,193.51874 Z"
       id="path13"
       sodipodi:nodetypes="ccccssccsscc"
       inkscape:label="shadow" /><path
       style="color:#000000;display:inline;fill:#000000;fill-opacity:0.0929705;stroke-width:1.16609;stroke-linecap:round;stroke-linejoin:bevel;-inkscape-stroke:none"
       d="m 16.252978,44.341516 36.105011,-33.002229 62.492521,0.435815 33.87631,31.694784 c 0,0 43.43472,9.086572 65.43036,8.651349 17.27416,-0.3418 40.22607,21.832063 40.10155,40.932592 -0.12988,19.923203 -0.87504,24.665753 -1.88892,46.375883 -2.14937,46.02402 -10.40288,78.69306 -36.97418,78.79832 0,0 -117.138269,5.09652 -174.454164,0.69109 -14.259757,-1.09604 -30.736107,-29.93609 -30.736107,-29.93609 z"
       id="path22"
       sodipodi:nodetypes="ccccssssscc"
       inkscape:label="shadow" /><path
       style="color:#000000;display:inline;fill:#000000;fill-opacity:0.124717;stroke-width:1.16609;stroke-linecap:round;stroke-linejoin:bevel;-inkscape-stroke:none"
       d="m 16.252978,44.341516 36.105011,-33.002229 57.147131,0.435815 33.87631,31.694784 c 0,0 43.12388,9.373494 64.91712,9.407302 20.39888,0.03164 46.66344,25.415249 47.41707,45.783098 0.82469,22.288574 -6.28806,65.998724 -7.13024,69.814724 -5.87003,26.59754 -3.56567,35.68331 -38.53514,43.33855 0,0 -110.978839,8.49353 -166.970618,1.22563 -13.465677,-1.74788 -32.874263,-24.05616 -32.874263,-24.05616 z"
       id="path23"
       sodipodi:nodetypes="ccccssscscc"
       inkscape:label="shadow" /><path
       style="color:#000000;display:inline;fill:url(#linearGradient16);stroke-width:1.16609;stroke-linecap:round;stroke-linejoin:bevel;-inkscape-stroke:none"
       d="m 16.252978,44.341516 36.105011,-33.002229 50.732661,0.435815 33.87631,31.694784 72.37937,13.462201 c 0,0 30.91772,5.843599 38.11483,12.001167 9.82151,8.402891 11.79254,44.628786 -9.44459,97.064406 -21.23714,52.43562 -15.70419,40.42994 -76.98295,40.56311 0,0 -56.11246,0.17817 -111.852655,-0.27603 -13.55581,-0.11047 -38.975606,-17.30171 -38.975606,-17.30171 z"
       id="path24"
       sodipodi:nodetypes="cccccszcscc"
       inkscape:label="shadow" /></g><g
     id="rect1"
     style="display:inline"
     inkscape:label="back"
     transform="matrix(1.0272988,0,0,1.0272988,-2.0291602,8.9067299)"><path
       style="color:#000000;fill:url(#linearGradient2);stroke-linecap:round;stroke-linejoin:bevel;-inkscape-stroke:none"
       d="m 12.095239,51.404763 30.616074,-32.883928 52.538689,0.377976 28.726198,31.75 78.61905,-0.377976 V 176.85026 H 12.095239 Z"
       id="path2"
       sodipodi:nodetypes="cccccccc" /><path
       id="rect3"
       style="display:inline;fill:#ffffff;stroke-width:15.377;stroke-linecap:round;stroke-linejoin:bevel"
       d="m 17.639788,55.324789 28.330568,-30.468726 45.435817,0.534539 29.934187,31.270535 75.10273,-0.26727 v 14.432554 l -80.01642,0.26727 -30.150038,-31.270535 -35.927125,0.26727 -33.244258,36.138369 z"
       sodipodi:nodetypes="ccccccccccc" /><path
       style="color:#000000;fill:#cea221;stroke-linecap:round;stroke-linejoin:bevel;-inkscape-stroke:none"
       d="M 42.767578,10.832031 37.083984,13.28125 6.46875,46.166016 4.40625,51.404297 V 176.84951 c 0.9154791,4.21083 2.5425773,7.71003 7.689453,7.68946 H 202.5957 l 7.6875,-7.68946 V 50.271484 c 0.24504,-4.443094 -1.57408,-7.510076 -7.72461,-7.689453 l -75.18554,0.361328 -26.42188,-29.203125 -5.646483,-2.529296 z m 3.267578,15.402344 45.78125,0.328125 26.458984,29.244141 5.73828,2.53125 70.89258,-0.341797 V 169.16201 H 19.783203 V 54.431641 Z"
       id="path3"
       sodipodi:nodetypes="ccccccccccccccccccccccc" /></g><g
     id="rect4"
     inkscape:label="close"
     style="display:inline"
     transform="matrix(1.046868,0,0,1.0272988,-6.4097406,12.476083)"><path
       style="color:#000000;fill:url(#linearGradient5);stroke-linejoin:bevel;-inkscape-stroke:none"
       d="M 39.948839,84.560004 50.070576,71.031306 148.56455,70.196909 h 67.59491 V 187.45551 H 39.948839 Z"
       id="path5"
       sodipodi:nodetypes="ccccccc" /><path
       id="rect7"
       style="fill:url(#linearGradient8);stroke-width:15.377;stroke-linejoin:bevel"
       d="M 38.443449,169.44888 H 195.37402 l 0.46773,-73.755263 h 17.3057 c -0.28876,34.032403 2.27179,61.637733 2.27179,95.671363 L 46.728804,187.08867 Z"
       sodipodi:nodetypes="ccccccc" /><path
       id="path7"
       style="display:inline;fill:url(#linearGradient18);stroke-width:15.377;stroke-linecap:round;stroke-linejoin:bevel"
       d="m 46.392076,181.98385 0.07351,-107.391098 102.868614,0.230236 61.47199,1.603617 v 20.312484 h -57.29851 l -88.12199,0.180167 -0.04755,85.323034 z"
       sodipodi:nodetypes="ccccccccc" /><path
       style="color:#000000;fill:url(#linearGradient10);stroke-linejoin:bevel;-inkscape-stroke:none"
       d="m 40.137595,62.33389 c -6.760736,-0.235673 -7.178598,4.309136 -7.6875,8.241352 L 31.694143,187.45508 c 0.674417,4.18151 3.271374,6.71512 7.6875,7.68945 H 216.16016 c 5.83804,0.29423 7.75626,-2.83094 7.6875,-7.68945 V 70.197079 c -0.16186,-5.049533 -2.53805,-7.943617 -7.6875,-7.827428 -58.45149,0 -116.731075,-0.03576 -176.022565,-0.03576 z M 208.4707,77.884579 V 179.76758 H 47.071096 L 47.827048,78.262742 c 59.235472,0.0065 101.404572,-0.378163 160.643652,-0.378163 z"
       id="path6"
       sodipodi:nodetypes="cccccccccccccc" /></g><g
     id="g20"
     inkscape:label="open"
     style="display:none"
     transform="matrix(1.0272988,0,-0.22903094,0.93647609,33.604309,21.96265)"><path
       style="color:#000000;fill:url(#linearGradient20);stroke-linejoin:bevel;-inkscape-stroke:none"
       d="m 22.886951,78.134409 h 97.392209 l 28.28539,-14.363095 h 67.59491 V 187.45551 H 22.886951 Z"
       id="path17" /><path
       id="path18"
       style="fill:url(#linearGradient21);stroke-width:15.377;stroke-linejoin:bevel"
       d="M 21.381561,169.44888 H 195.37402 l 0.46773,-80.180858 h 17.3057 c -0.28876,34.032398 2.27179,68.063328 2.27179,102.096958 L 29.666916,187.08867 Z"
       sodipodi:nodetypes="ccccccc" /><path
       id="path19"
       style="display:inline;fill:url(#linearGradient14);stroke-width:15.377;stroke-linecap:round;stroke-linejoin:bevel"
       d="m 26.196468,77.472204 c 0,0 61.529128,0.829797 93.811602,-0.801808 l 30.71274,-2.053499 61.47199,1.603617 4.16268,20.312484 H 55.486552 c 5.546427,25.710512 7.894291,67.591662 -3.012082,95.226152 l -20.345138,-3.97048 c -1.199998,-29.74052 2.240856,-57.5062 -5.932864,-90.214271 z"
       sodipodi:nodetypes="cccccccccc" /><path
       style="color:#000000;fill:url(#linearGradient22);stroke-linejoin:bevel;-inkscape-stroke:none"
       d="m 149.95106,62.301535 -3.48047,0.833985 C 102.32048,62.548127 63.464386,62.567274 21.130351,62.567274 c -6.756833,-0.830807 -6.851232,3.729475 -7.6875,7.689454 11.672833,51.561032 8.047695,91.093652 4.459577,124.528112 -0.339785,3.16615 4.426923,5.1263 7.6875,7.68945 H 218.86337 c 3.67232,-2.70006 6.52227,-7.72863 8.2627,-15.89878 5.68917,-38.86151 6.4991,-77.72301 -1.8918,-116.584522 -1.05751,-2.362904 -1.02105,-4.580249 -7.6875,-7.689453 z m 1.83985,15.376953 h 58.0664 c 8.73588,37.930492 4.82746,73.639752 1.3166,109.418852 H 33.279381 c 6.637531,-31.51664 5.60206,-72.67072 -4.459577,-109.153112 45.521495,-0.874055 78.037736,0.03645 122.971106,-0.26574 z"
       id="path20"
       sodipodi:nodetypes="ccccscccccccccccc" /></g><g
     id="g1521"
     transform="matrix(-1.939026,-0.12282732,-0.12282732,1.939026,268.09832,58.863823)"><g
       transform="matrix(-1,0,0,1,120.78956,0)"
       style="opacity:0.19"
       id="Layer_15">
			<path
   inkscape:connector-curvature="0"
   id="path2-3"
   d="m 15.413,37.116 71.89,-17.145 c 0,0 12.998,39.112 29.947,50.217 0,0 0.958,0.708 0.75,1.25 -0.141,0.365 -0.888,0.621 -1.515,0.873 -11.396,4.57 -63.97,25.402 -78.985,33.314 0,0 -7.963,-4.705 -17.314,-22.531 C 13.998,71.292 4.702,42.478 4.702,42.478 l 3.653,-0.73 0.828,-2.97 2.679,-0.537 3.556,-1.12 z" />
		</g><g
       transform="matrix(-1,0,0,1,120.78956,0)"
       id="Layer_8">
			<g
   id="Layer_3">
					<linearGradient
   x1="41.009998"
   y1="26.042999"
   x2="70.039001"
   gradientUnits="userSpaceOnUse"
   y2="85.660004"
   id="linearGradient2-8">
						<stop
   id="stop1-6"
   offset="0"
   stop-color="#fff" />
						<stop
   id="stop2-5"
   offset="1"
   stop-color="#B8B8B8" />
					</linearGradient>
					<path
   inkscape:connector-curvature="0"
   style="fill:url(#linearGradient1735)"
   id="path10-6"
   d="m 14.536,35.947 71.89,-17.145 c 0,0 7.014,38.965 23.963,50.069 0,0 -69.747,32.926 -74.13,34.971 0,0 -7.598,-4.092 -16.95,-21.918 C 13.115,70.121 3.819,41.306 3.819,41.306 l 3.653,-0.73 0.828,-2.971 2.679,-0.536 3.556,-1.12 z" />
					<linearGradient
   x1="2.7598"
   y1="61.278999"
   x2="112.06"
   gradientUnits="userSpaceOnUse"
   y2="61.278999"
   id="linearGradient4-9">
						<stop
   id="stop3-6"
   offset="0"
   stop-color="#8C94A3" />
						<stop
   id="stop4-3"
   offset="1"
   stop-color="#616161" />
					</linearGradient>
					<path
   inkscape:connector-curvature="0"
   style="fill:url(#linearGradient1737)"
   id="path17-7"
   d="M 35.871,104.56 C 35.709,104.476 27.993,100.242 18.582,82.3 12.325,70.357 3.051,41.58 3.042,41.555 l -0.282,-0.873 4.059,-0.813 0.829,-2.972 3.12,-0.623 3.522,-1.108 0.246,0.78 -0.19,-0.796 72.731,-17.346 0.154,0.852 c 0.01,0.02 1.743,9.686 5.593,20.747 3.831,11.066 9.842,23.464 18.012,28.783 l 1.227,0.801 -1.325,0.623 c 0,0.004 -69.744,32.924 -74.131,34.973 l -0.374,0.174 -0.364,-0.19 z M 10.013,56.911 c 3.089,8.662 6.965,18.816 10.021,24.632 6.968,13.283 12.921,18.828 15.391,20.732 0.39,0.301 0.684,0.506 0.886,0.639 C 39.784,101.285 57.454,92.949 74.618,84.85 89.744,77.709 104.457,70.766 108.773,68.729 93.659,57.348 86.921,25.407 85.793,19.794 l -71.056,16.941 -3.548,1.12 -2.233,0.444 -0.828,2.971 -3.242,0.649 c 0.708,2.166 2.673,8.107 5.13,14.986 z" />
			</g>
			<g
   id="Layer_5">
				<linearGradient
   x1="8.0332003"
   y1="43.903999"
   x2="31.704"
   gradientUnits="userSpaceOnUse"
   y2="96.068001"
   id="linearGradient10-9">
					<stop
   id="stop6-4"
   offset=".1099"
   stop-color="#E8E8E8" />
					<stop
   id="stop8-81"
   offset=".1209"
   stop-color="#B7B7B7" />
					<stop
   id="stop9-2"
   offset=".5"
   stop-color="#BDBDBD" />
					<stop
   id="stop10-9"
   offset="1"
   stop-color="#A1A1A0" />
				</linearGradient>
				<path
   inkscape:connector-curvature="0"
   style="fill:url(#linearGradient1739)"
   id="path29"
   d="M 21.062,70.332 C 18.033,63.396 9.665,42.473 9.665,42.473 l -1.899,0.731 c 0,0 12.858,40.037 25.424,55.816 4.478,5.625 1.169,1.607 1.169,1.607 v -1.61 c 0,0 -10.152,-21.487 -13.297,-28.688 z" />
				<linearGradient
   x1="17.882"
   y1="36.577"
   x2="41.183998"
   gradientUnits="userSpaceOnUse"
   y2="87.929001"
   id="linearGradient13-3">
					<stop
   id="stop11-9"
   offset="0"
   stop-color="#E8E8E8" />
					<stop
   id="stop13-0"
   offset="1"
   stop-color="#BDBDBD" />
				</linearGradient>
				<path
   inkscape:connector-curvature="0"
   style="fill:url(#linearGradient1741)"
   id="path36"
   d="m 10.834,38.966 c 0,0 7.598,21.041 11.543,30.685 3.945,9.645 13.297,28.348 13.297,28.348 L 48.678,86.31 27.345,33.998 Z" />
			</g>
			<g
   id="Layer_7">
				<linearGradient
   x1="23.361"
   y1="35.227001"
   x2="39.993999"
   gradientUnits="userSpaceOnUse"
   y2="71.879997"
   id="linearGradient16-7">
					<stop
   id="stop15-8"
   offset="0"
   stop-color="#D6D6D6" />
					<stop
   id="stop16-8"
   offset="1"
   stop-color="#969696" />
				</linearGradient>
				<path
   inkscape:connector-curvature="0"
   style="fill:url(#linearGradient1743)"
   id="path44"
   d="m 11.272,40.135 c 0,0 16.949,25.133 19.872,34.484 2.923,9.351 21.771,-4.531 21.771,-4.531 L 36.258,32.099 Z" />
			</g>
			<g
   id="Layer_6">
					<path
   style="fill:#ffffff"
   inkscape:connector-curvature="0"
   id="path47-5"
   d="m 9.665,31.605 c 0,0 43.25,-13.248 60.298,-15.099 C 83.92,14.992 86.23,15.24 86.23,15.24 c 0,0 11.763,43.908 28.712,55.014 l -1.826,0.949 c 0,0 -69.771,27.16 -76.2,31.836 0,0 -0.17,-13.961 -9.132,-40.457 C 21.69,44.547 9.671,31.604 9.671,31.604 Z" />
					<linearGradient
   x1="8.1781998"
   y1="59.518002"
   x2="116.56"
   gradientUnits="userSpaceOnUse"
   y2="59.518002"
   id="linearGradient18-3">
						<stop
   id="stop17-0"
   offset="0"
   stop-color="#8C94A3" />
						<stop
   id="stop18-9"
   offset="1"
   stop-color="#616161" />
					</linearGradient>
					<path
   inkscape:connector-curvature="0"
   style="fill:url(#linearGradient1745)"
   id="path54"
   d="M 36.097,103.05 C 36.09,103.042 36.058,99.646 34.904,92.886 33.747,86.126 31.475,76.056 27.008,62.847 23.992,53.928 19.498,46.244 15.763,40.796 12.025,35.352 9.072,32.173 9.065,32.164 L 9.666,31.609 9.905,32.391 9.666,31.609 9.065,32.164 8.179,31.208 9.425,30.827 c 0.033,-0.005 43.22,-13.252 60.449,-15.13 10.527,-1.142 14.448,-1.287 15.791,-1.287 0.443,0 0.612,0.017 0.655,0.021 l 0.555,0.061 0.146,0.541 c 0.013,0.022 2.929,10.931 7.969,23.244 5.015,12.31 12.232,25.981 20.4,31.296 l 1.171,0.764 c 0,0 -20.586,8.422 -38.827,15.791 -18.194,7.344 -37.383,15.396 -40.336,17.578 l -1.283,0.928 -0.017,-1.59 z M 28.558,62.32 c 7.361,21.76 8.819,35.123 9.106,39.297 C 43.16,98.529 60.395,91.375 77.12,84.607 94.872,77.433 113.374,70.146 113.374,70.146 97.732,58.386 87.071,21.183 85.609,16.042 c -1.29,0.002 -5.216,0.154 -15.561,1.277 -8.402,0.906 -23.484,4.678 -36.408,8.216 -10.366,2.838 -19.348,5.523 -22.515,6.481 2.868,3.334 12.245,14.967 17.437,30.301 z" />
			</g>
		</g><g
       transform="matrix(-1,0,0,1,120.78956,0)"
       id="Layer_9">
			<path
   style="fill:none;stroke:#979797"
   inkscape:connector-curvature="0"
   id="path58"
   d="m 29.099,45.688 c 0,0 18.045,-7.16 27.981,-10.74 8.738,-3.148 26.228,-7.744 26.228,-7.744" />
		</g><g
       transform="matrix(-1,0,0,1,120.78956,0)"
       id="Layer_10">
			<linearGradient
   x1="23.476999"
   y1="35.323002"
   x2="36.139999"
   gradientUnits="userSpaceOnUse"
   y2="39.804001"
   id="linearGradient27">
				<stop
   id="stop19-6"
   offset="0"
   stop-color="#fff" />
				<stop
   id="stop21-3"
   offset=".1283"
   stop-color="#F4F4F4" />
				<stop
   id="stop23-85"
   offset=".354"
   stop-color="#D7D7D7" />
				<stop
   id="stop25-6"
   offset=".6504"
   stop-color="#A7A7A7" />
				<stop
   id="stop27-1"
   offset="1"
   stop-color="#666" />
			</linearGradient>
			<polygon
   style="fill:url(#linearGradient1747)"
   id="polygon72"
   points="22.913,35.167 32.362,31.271 36.648,39.843 27.199,43.836 " />
		</g><g
       transform="matrix(0.7398635,-0.18136557,-0.23704021,1.2448804,31.523962,1.5675815)"
       id="Layer_11">
			<g
   style="fill:#7f7f7f"
   id="g83">
				<path
   inkscape:connector-curvature="0"
   id="path75"
   d="m 73.071197,31.211 c 0.294,-0.601 0.81,-0.833 1.237,-0.718 l 0.485,0.13 c 0.059,0.017 0.09,-0.02 0.106,-0.05 l 0.129,-0.265 c 0.021,-0.04 0.018,-0.063 -0.04,-0.081 -0.059,-0.017 -0.158,-0.034 -0.334,-0.086 -0.18,-0.041 -0.443,-0.107 -0.842,-0.224 -0.398,-0.117 -0.635,-0.209 -0.773,-0.252 -0.153,-0.045 -0.267,-0.031 -0.406,0.032 -0.089,0.044 -3.616,1.937 -3.815,2.042 -0.199,0.104 -3.209,1.625 -3.65,1.868 l -0.046,-0.014 0.591,-1.208 c 0.444,-0.905 0.7,-1.399 0.972,-1.9 0.207,-0.393 0.753,-1.373 0.909,-1.524 0.218,-0.228 0.51,-0.305 0.838,-0.208 l 0.374,0.11 c 0.048,0.014 0.081,0.001 0.107,-0.051 l 0.128,-0.264 c 0.02,-0.041 0.005,-0.067 -0.041,-0.081 -0.165,-0.048 -0.554,-0.128 -1.303,-0.349 -0.703,-0.208 -0.97,-0.319 -1.123,-0.364 -0.083,-0.026 -0.108,10e-4 -0.128,0.042 l -0.125,0.255 c -0.02,0.04 -0.012,0.077 0.035,0.091 l 0.317,0.092 c 0.316,0.093 0.348,0.299 0.183,0.694 -0.287,0.693 -0.78,1.701 -1.105,2.362 l -1.862,3.798 c -0.07,0.145 -0.107,0.25 -0.061,0.264 0.141,0.04 0.307,-0.051 0.362,-0.081 0.021,-0.016 1.081,-0.566 2.195,-1.144 1.255,-0.645 2.567,-1.328 2.669,-1.368 0.177,-0.063 3.484,-1.777 3.594,-1.837 l 0.07,0.02 -1.105,2.256 c -0.463,0.946 -1.369,2.575 -1.491,2.771 -0.241,0.383 -0.407,0.555 -0.723,0.462 l -0.351,-0.104 c -0.083,-0.025 -0.109,0.003 -0.14,0.064 l -0.109,0.223 c -0.031,0.062 -0.028,0.084 0.054,0.109 0.118,0.034 0.836,0.211 1.151,0.304 0.247,0.072 1.04,0.341 1.157,0.374 0.047,0.014 0.067,-0.002 0.093,-0.052 l 0.131,-0.265 c 0.014,-0.029 0.017,-0.063 -0.041,-0.081 l -0.398,-0.117 c -0.34,-0.099 -0.41,-0.26 -0.223,-0.775 0.07,-0.199 0.615,-1.365 1.501,-3.174 z" />
				<path
   inkscape:connector-curvature="0"
   id="path77"
   d="m 61.574197,30.098 c -0.094,-0.027 -1.327,-0.438 -1.458,-0.5 -0.315,-0.151 -0.369,-0.26 -0.321,-0.604 0.015,-0.112 0.067,-0.33 0.15,-0.527 0.025,-0.051 -10e-4,-0.081 -0.047,-0.094 l -0.297,-0.076 c -0.06,-0.018 -0.102,0.015 -0.11,0.059 -0.05,0.185 -0.459,1.018 -0.534,1.17 -0.175,0.356 -0.459,0.831 -0.588,1.037 -0.025,0.05 -0.012,0.077 0.03,0.101 l 0.241,0.107 c 0.054,0.025 0.094,0.003 0.14,-0.065 0.088,-0.124 0.273,-0.337 0.364,-0.44 0.175,-0.191 0.376,-0.307 0.698,-0.248 0.575,0.112 1.383,0.351 1.571,0.405 l -0.309,0.629 c -0.269,0.549 -0.775,1.53 -0.875,1.732 -0.271,0.526 -0.663,0.642 -1.056,0.596 -0.255,-0.028 -0.609,-0.098 -0.902,-0.184 -0.199,-0.058 -0.782,-0.241 -1.017,-0.334 -0.189,-0.078 -0.65,-0.342 -0.845,-0.654 -0.091,-0.144 -0.389,-1.068 -0.438,-1.352 -0.011,-0.06 -0.025,-0.111 -0.112,-0.102 l -0.232,0.038 c -0.074,0.012 -0.087,0.042 -0.093,0.135 l -0.11,1.676 c -0.01,0.104 0.043,0.187 0.183,0.229 0.06,0.017 0.321,0.083 1.029,0.28 0.703,0.207 1.845,0.53 3.673,1.066 0.433,0.128 0.756,0.236 0.989,0.304 0.243,0.083 0.39,0.138 0.496,0.169 0.071,0.019 0.114,0.012 0.14,-0.041 l 0.134,-0.274 c 0.02,-0.041 -0.01,-0.062 -0.093,-0.084 l -0.467,-0.138 c -0.54,-0.159 -0.552,-0.243 -0.368,-0.62 l 1.182,-2.409 0.487,-0.996 c 0.414,-0.844 1.058,-2.107 1.119,-2.206 0.208,-0.312 0.36,-0.348 0.793,-0.221 l 0.422,0.124 c 0.06,0.018 0.099,0.018 0.129,-0.043 l 0.134,-0.273 c 0.017,-0.032 10e-4,-0.059 -0.057,-0.075 -0.257,-0.076 -0.683,-0.167 -1.456,-0.394 l -0.517,-0.152 c -1.159,-0.341 -2.315,-0.692 -3.474,-1.034 -0.188,-0.054 -0.401,-0.139 -0.458,-0.157 -0.06,-0.018 -0.092,-0.004 -0.119,0.023 -0.117,0.127 -1.315,1.369 -1.399,1.46 -0.032,0.038 -0.046,0.068 -0.011,0.102 l 0.137,0.134 c 0.024,0.03 0.087,0.013 0.109,-0.004 0.043,-0.035 1.382,-0.745 1.739,-0.815 0.316,-0.071 0.702,-0.094 1.026,-0.013 l 2.105,0.573 z" />
				<path
   inkscape:connector-curvature="0"
   id="path79"
   d="m 51.371197,30.039 -0.023,-0.007 c 0.037,-0.187 0.42,-5.041 0.581,-5.48 0.028,-0.084 0.196,-0.234 0.359,-0.324 0.167,-0.091 0.354,-0.116 0.564,-0.055 l 0.294,0.086 c 0.059,0.017 0.079,0.002 0.109,-0.061 l 0.12,-0.244 c 0.02,-0.041 0.023,-0.075 -0.047,-0.094 -0.105,-0.031 -0.533,-0.122 -1.445,-0.391 -0.984,-0.289 -1.415,-0.45 -1.532,-0.485 -0.069,-0.021 -0.096,0.007 -0.115,0.047 l -0.125,0.254 c -0.021,0.041 -0.023,0.075 0.047,0.094 l 0.468,0.139 c 0.295,0.086 0.29,0.341 0.13,0.503 l -4.328,4.565 -0.023,-0.007 c 0.029,-0.363 0.433,-5.151 0.718,-5.73 0.079,-0.163 0.247,-0.288 0.564,-0.196 l 0.315,0.094 c 0.069,0.02 0.097,-0.007 0.127,-0.067 l 0.114,-0.234 c 0.02,-0.041 0.023,-0.074 -0.061,-0.098 -0.115,-0.034 -0.541,-0.124 -1.266,-0.338 -0.658,-0.192 -0.982,-0.324 -1.076,-0.351 -0.07,-0.02 -0.092,-0.004 -0.116,0.047 l -0.125,0.253 c -0.02,0.041 -0.035,0.071 0.048,0.095 l 0.28,0.083 c 0.199,0.058 0.309,0.219 0.334,0.412 0.024,0.17 -0.4,6.755 -0.404,7.312 0.003,0.129 -0.013,0.297 0.116,0.335 0.141,0.042 0.238,-0.021 0.366,-0.147 l 4.902,-4.942 0.024,0.007 c -0.03,0.305 -0.457,6.156 -0.442,6.29 0.01,0.119 0.034,0.23 0.141,0.26 0.093,0.028 0.185,0.007 0.291,-0.099 l 5.8,-5.737 c 0.255,-0.25 0.46,-0.283 0.683,-0.218 l 0.398,0.118 c 0.059,0.017 0.09,-0.021 0.11,-0.063 l 0.119,-0.242 c 0.025,-0.053 0.023,-0.075 -0.058,-0.1 -0.095,-0.028 -0.472,-0.103 -1.269,-0.338 -0.844,-0.247 -1.31,-0.419 -1.427,-0.454 -0.082,-0.025 -0.108,0.002 -0.123,0.033 l -0.124,0.254 c -0.025,0.051 -0.028,0.084 0.054,0.109 l 0.199,0.058 c 0.305,0.09 0.34,0.264 0.16,0.467 z" />
				<path
   inkscape:connector-curvature="0"
   id="path81"
   d="m 41.155197,28.116 c 0.185,-0.049 0.27,-0.058 0.327,-0.041 0.072,0.021 0.083,0.105 0.104,0.227 0.017,0.132 0.067,0.16 0.15,0.185 0.07,0.021 0.156,-0.013 0.186,-0.131 0.077,-0.269 0.593,-1.593 0.702,-1.898 0.019,-0.064 -0.005,-0.071 -0.051,-0.085 l -0.181,-0.042 c -0.046,-0.015 -0.081,0 -0.11,0.06 -0.171,0.32 -0.358,0.651 -1,1.057 -0.585,0.373 -1.364,0.458 -2.01,0.269 -0.703,-0.207 -1.408,-0.844 -0.96,-1.76 0.514,-1.047 1.57,-1.178 2.645,-1.188 0.42,-0.004 1.388,-0.01 2.115,-0.319 0.551,-0.222 0.984,-0.64 1.313,-1.312 0.25,-0.508 0.13,-1.112 -0.088,-1.515 -0.253,-0.469 -0.771,-0.783 -1.403,-0.969 -0.666,-0.196 -1.268,-0.174 -1.505,-0.152 -0.133,0.019 -0.185,-0.009 -0.222,-0.076 l -0.089,-0.167 c -0.04,-0.059 -0.065,-0.088 -0.125,-0.105 -0.058,-0.018 -0.132,0.053 -0.177,0.144 -0.175,0.356 -0.836,1.348 -0.955,1.568 -0.026,0.053 -0.023,0.075 0.017,0.1 l 0.127,0.071 c 0.031,0.02 0.059,0.017 0.084,-0.01 0.24,-0.267 0.587,-0.619 1.279,-0.915 0.462,-0.201 0.941,-0.224 1.491,-0.063 1.043,0.307 1.091,1.089 0.837,1.606 -0.14,0.284 -0.375,0.601 -0.798,0.779 -0.485,0.195 -1.25,0.224 -1.634,0.216 -0.917,-0.013 -1.657,-0.036 -2.301,0.29 -0.459,0.224 -0.863,0.558 -1.191,1.23 -0.59,1.2 -0.248,2.474 1.296,2.928 0.824,0.24 1.504,0.197 2.127,0.018 z" />
			</g>
		</g><g
       transform="matrix(-1,0,0,1,120.78956,0)"
       id="Layer_13">
			<line
   style="fill:none;stroke:#999999"
   id="line86"
   x1="68.306999"
   y1="36.530998"
   x2="79.801003"
   y2="32.439999" />
			<linearGradient
   x1="73.625"
   y1="51.348"
   x2="89.502998"
   gradientUnits="userSpaceOnUse"
   y2="46.185001"
   id="linearGradient29-2">
				<stop
   id="stop28-1"
   offset="0"
   stop-color="#fff" />
				<stop
   id="stop29-5"
   offset="1"
   stop-color="#9C9C9C" />
			</linearGradient>
			<polygon
   style="fill:url(#linearGradient1749);stroke:#cccccc"
   id="polygon93"
   points="79.021,64.488 68.404,39.648 84.77,32.829 96.264,56.5 " />
		</g><g
       transform="matrix(-1,0,0,1,120.78956,0)"
       id="Layer_14">
			<g
   style="fill:#6b6b6b"
   id="g100">
				<path
   inkscape:connector-curvature="0"
   id="path96"
   d="m 91.772,46.046 v -0.111 c -0.19,-0.473 -0.38,-0.789 -0.635,-0.931 -0.22,-0.379 -0.617,-0.868 -1.154,-1.436 -1.028,-1.104 -2.23,-2.083 -3.622,-2.98 -0.252,-0.158 -0.521,-0.331 -0.774,-0.474 -0.458,-0.314 -0.979,-0.566 -1.55,-0.803 -0.868,-0.378 -1.721,-0.677 -2.575,-0.865 -1.942,-0.439 -3.712,-0.311 -5.338,0.339 0.047,0.063 0.174,0.11 0.363,0.11 0.127,0 0.917,-0.064 2.385,-0.208 1.612,-0.002 3.144,0.248 4.583,0.736 0.331,0.237 0.885,0.615 1.643,1.167 1.408,0.993 2.167,1.592 2.324,1.813 0.382,0.552 0.919,1.183 1.647,1.924 0.695,0.694 1.233,1.136 1.643,1.325 0.128,0.078 0.239,0.188 0.397,0.299 0.157,0.125 0.316,0.188 0.426,0.188 0.127,0 0.205,-0.016 0.205,-0.047 0,-0.015 0,-0.031 0.032,-0.046 z" />
				<path
   inkscape:connector-curvature="0"
   id="path98"
   d="m 88.172,47.204 c 0.017,-0.379 0.016,-0.647 0.016,-0.821 -0.002,-0.664 -0.16,-1.122 -0.477,-1.374 -0.27,-0.205 -0.648,-0.299 -1.153,-0.283 -0.158,-0.173 -0.348,-0.347 -0.57,-0.536 -0.899,-0.725 -1.485,-1.198 -1.723,-1.435 -0.143,-0.095 -0.27,-0.189 -0.396,-0.284 0,-0.047 -0.016,-0.079 -0.03,-0.079 L 83.791,42.36 h -0.079 c -0.237,-0.173 -0.442,-0.299 -0.601,-0.426 -0.507,-0.346 -0.948,-0.615 -1.359,-0.804 -1.154,-0.519 -2.434,-0.581 -3.809,-0.168 -2.241,0.65 -3.662,1.601 -4.292,2.786 -0.236,0.459 -0.378,0.996 -0.423,1.597 0,0.142 -0.016,0.663 -0.014,1.564 0,0.489 0.001,0.79 0.017,0.899 0,0.174 0.015,0.301 0.031,0.443 l 0.001,0.015 v 0.19 c 0,0.031 0,0.031 0.016,0.047 -0.109,0.537 -0.251,1.138 -0.408,1.754 -0.078,0.315 -0.125,0.806 -0.124,1.469 0,0.016 0,0.315 0.002,0.869 0,0.126 0.016,0.221 0.031,0.315 -0.031,0.048 -0.079,0.064 -0.126,0.111 -0.142,0.095 -0.236,0.174 -0.315,0.237 -0.142,0.08 -0.237,0.144 -0.284,0.238 -0.221,0.221 -0.331,0.553 -0.331,0.963 10e-4,0.317 0.113,0.648 0.303,1.027 0.031,0.063 0.253,0.395 0.649,1.026 0.632,0.962 0.949,1.957 0.951,2.92 0.001,0.174 0.316,0.521 0.315,0 -10e-4,-1.169 -0.318,-2.195 -0.95,-3.079 -0.317,-0.41 -0.523,-0.709 -0.651,-0.915 -0.205,-0.332 -0.3,-0.647 -0.301,-0.963 0,-0.142 0.078,-0.332 0.252,-0.569 0.063,-0.031 0.142,-0.079 0.221,-0.126 0.237,-0.143 0.41,-0.238 0.49,-0.27 0.142,-0.048 0.268,-0.127 0.363,-0.237 0.047,-0.032 0.109,-0.095 0.189,-0.174 0.124,-0.111 0.268,-0.221 0.44,-0.348 0.079,-0.063 0.159,-0.126 0.269,-0.206 0.27,-0.206 0.441,-0.348 0.521,-0.443 0.379,-0.301 0.631,-0.491 0.789,-0.554 0.096,0.221 0.222,0.489 0.381,0.805 0.252,0.506 0.491,0.899 0.728,1.168 0.078,0.142 0.237,0.3 0.428,0.489 0.222,0.205 0.538,0.457 0.95,0.819 0.142,0.127 0.409,0.41 0.79,0.805 0.11,0.095 0.3,0.251 0.537,0.472 h 0.015 c 0.255,0.269 0.396,0.395 0.46,0.395 0.111,0 0.205,-0.048 0.253,-0.159 0.047,-0.079 0.062,-0.157 0.062,-0.284 0,-0.174 -0.142,-0.396 -0.411,-0.647 -0.316,-0.252 -0.521,-0.442 -0.616,-0.537 0.205,-0.031 0.316,-0.095 0.395,-0.19 l 0.014,-0.016 c 0,-0.158 0.128,-0.285 0.364,-0.348 0.017,-0.017 0.017,-0.017 0.032,-0.017 0.031,-0.016 0.063,-0.016 0.095,-0.032 0.095,-0.031 0.269,-0.063 0.536,-0.111 0.095,-0.032 0.174,-0.048 0.238,-0.064 0.078,-0.031 0.189,-0.047 0.3,-0.063 0.079,0 0.157,-0.016 0.204,-0.016 0.08,-0.032 0.143,-0.047 0.206,-0.063 0.063,0.015 0.158,0.015 0.268,0.015 0.902,-10e-4 1.405,-0.16 1.453,-0.46 0.016,-0.063 0,-0.221 -0.033,-0.474 -0.016,-0.237 -0.016,-0.411 0.032,-0.569 0.125,-0.348 0.505,-0.632 1.136,-0.902 -0.016,0.679 10e-4,1.469 0.052,2.353 0,0.237 -0.175,0.522 -0.553,0.839 -0.474,0.395 -0.82,0.696 -1.057,0.901 -0.126,0.127 -0.49,0.413 -1.152,0.855 l -0.711,0.475 c -0.016,-0.016 -0.063,-0.016 -0.079,-0.016 -0.221,0 -0.314,0.111 -0.313,0.348 0,0.285 0.568,0.71 1.706,1.293 0.57,0.314 5.329,3.72 5.456,3.72 0.142,0 0.394,-0.522 0.786,-1.55 0.394,-1.058 0.582,-1.817 0.581,-2.275 l -0.001,-0.948 c 0,-0.142 0.631,-0.964 0.647,-0.996 0.063,-0.269 0.094,-0.664 0.092,-1.185 -0.016,-0.474 -0.032,-0.758 -0.032,-0.837 0.048,-0.568 0.046,-1.09 0.014,-1.58 -0.08,-0.932 -0.364,-1.484 -0.841,-1.657 -0.663,-0.236 -0.979,-0.726 -0.949,-1.468 0.189,-0.854 0.236,-1.454 0.188,-1.802 -0.036,-0.214 -0.052,-0.498 -0.053,-0.83 z m -13.994,0.699 z m -0.194,-3.111 c -0.3,0.332 -0.505,0.585 -0.599,0.744 0.156,-0.87 0.502,-1.644 1.054,-2.34 1.15,-1.471 2.919,-2.216 5.319,-2.219 1.106,-10e-4 2.341,0.471 3.652,1.385 -0.633,0.032 -1.675,0.113 -3.112,0.226 -1.988,0.161 -3.205,0.289 -3.615,0.416 -0.822,0.222 -1.405,0.476 -1.69,0.745 -0.267,0.251 -0.614,0.6 -1.009,1.043 z m -0.645,1.091 c 0.016,0.015 0.048,0.031 0.109,0.046 0.506,-0.253 0.821,-0.585 0.962,-0.965 0.174,-0.474 0.347,-0.759 0.505,-0.885 0.789,-0.633 3.742,-1.111 8.876,-1.402 0,-0.016 0,-0.016 0.016,-0.016 0.142,0.095 0.269,0.205 0.396,0.315 0.696,0.552 1.327,1.152 1.882,1.782 -0.096,0 -0.206,0.017 -0.317,0.048 -0.157,0.016 -0.314,0.048 -0.474,0.08 0,0 -0.03,0 -0.03,-0.016 -1.691,-0.629 -3.051,-0.801 -4.075,-0.5 -2.29,0.446 -3.979,0.906 -5.085,1.414 -0.537,0.253 -0.947,0.491 -1.216,0.76 -0.11,0.063 -0.204,0.127 -0.284,0.174 -0.077,0.032 -0.142,0.079 -0.189,0.095 -0.077,0.047 -0.189,0.126 -0.299,0.221 -0.396,0.364 -0.632,0.65 -0.71,0.871 -0.13,-0.711 -0.147,-1.391 -0.067,-2.022 z m 1.708,1.814 c 0.032,-0.08 0.079,-0.159 0.11,-0.238 0.283,-0.505 0.551,-0.822 0.788,-1.012 0.441,-0.333 1.357,-0.649 2.716,-0.967 1.421,-0.319 2.699,-0.478 3.837,-0.479 0.632,-10e-4 1.249,0.077 1.85,0.25 -0.442,0.206 -0.838,0.459 -1.185,0.744 -0.601,0.506 -1.104,0.712 -1.516,0.586 -0.301,-0.079 -0.49,-0.125 -0.553,-0.141 -0.269,-0.016 -0.553,0.048 -0.885,0.19 -0.142,0.063 -0.268,0.126 -0.362,0.19 -0.063,-0.016 -0.143,-0.031 -0.221,-0.031 -0.253,0 -0.411,0.142 -0.49,0.443 l 0.001,0.9 c 0.002,0.521 0.002,0.837 0.019,0.948 0.047,0.316 0.142,0.631 0.302,0.948 0.063,0.095 0.143,0.22 0.236,0.394 0.016,0.016 0.063,0.032 0.078,0.047 0.634,0.536 0.966,0.899 0.967,1.057 0,0.095 -0.016,0.158 -0.048,0.19 -0.063,0.047 -0.157,0.095 -0.316,0.095 0,0.016 0,0.016 -0.016,0.032 -0.095,0.079 -0.269,0.111 -0.521,0.111 -0.269,0 -0.458,-0.063 -0.568,-0.189 -0.189,0 -0.284,0.095 -0.284,0.301 0,0.126 0.015,0.173 0.047,0.126 0.078,0.031 0.284,0.046 0.631,0.046 0.27,0 0.601,-0.063 0.98,-0.19 0.205,-0.08 0.363,-0.143 0.474,-0.206 0.126,-0.033 0.222,-0.049 0.285,-0.111 0.078,-0.048 0.11,-0.158 0.109,-0.285 0,-0.205 -0.08,-0.363 -0.222,-0.521 -0.016,-0.047 -0.174,-0.189 -0.444,-0.41 -0.458,-0.379 -0.68,-0.852 -0.68,-1.421 -0.002,-0.11 0.093,-0.379 0.284,-0.806 0.077,-0.189 0.124,-0.348 0.188,-0.442 h 0.236 c 0.047,0.016 0.079,0.031 0.127,0.047 0.032,0.031 0.047,0.047 0.095,0.079 l -0.175,0.158 0.017,0.031 c 0.016,0.048 0.048,0.048 0.096,0.048 0.063,0 0.126,-0.032 0.221,-0.095 0.348,0.015 1.342,0.014 2.954,0.012 0.063,0.031 0.11,0.047 0.143,0.079 0,0.031 0,0.047 10e-4,0.079 0,0.458 0.032,1.137 0.081,2.021 0,0.11 -0.016,0.252 -0.031,0.379 -0.046,0.048 -0.078,0.08 -0.126,0.126 -0.032,0.032 -0.079,0.08 -0.111,0.111 0,0.016 -0.016,0.016 -0.016,0.016 -0.726,0.349 -1.183,0.665 -1.404,0.95 -0.078,0.095 -0.158,0.237 -0.236,0.443 -0.03,0.079 -0.047,0.142 -0.078,0.22 -0.206,0.049 -0.411,0.159 -0.633,0.349 -0.047,0.032 -0.063,0.064 -0.094,0.08 -0.063,0.111 -0.125,0.206 -0.188,0.269 -0.016,0.158 -0.08,0.269 -0.19,0.348 -0.252,0.206 -0.771,0.302 -1.547,0.303 H 79.717 79.7 79.669 79.558 79.433 c 0,0 -0.095,0.016 -0.143,0.016 h -0.047 -0.017 c -0.205,-0.016 -0.412,-0.173 -0.616,-0.41 -0.096,-0.063 -0.19,-0.11 -0.284,-0.158 -0.664,-0.314 -1.075,-0.377 -1.232,-0.171 -0.238,-0.348 -0.507,-0.757 -0.808,-1.247 -0.143,-0.206 -0.253,-0.395 -0.364,-0.553 0.283,-0.189 0.71,-0.443 1.215,-0.775 0.71,-0.459 1.073,-0.743 1.136,-0.854 0.016,0 0.032,-0.032 0.048,-0.032 0.047,-0.063 0.079,-0.111 0.079,-0.127 0,-0.079 -0.017,-0.111 -0.048,-0.111 v -0.126 c 0,-0.08 0,-0.126 -0.017,-0.158 0,-0.047 -0.015,-0.063 -0.015,-0.078 -0.127,-0.016 -0.268,-0.031 -0.38,-0.016 -0.048,-0.063 -0.096,-0.125 -0.143,-0.173 -0.411,-0.521 -0.886,-0.788 -1.424,-0.788 -0.172,0.159 -0.361,0.317 -0.567,0.475 -0.125,0.111 -0.252,0.222 -0.363,0.301 -0.031,-0.063 -0.078,-0.142 -0.125,-0.221 -0.16,-0.255 -0.255,-0.586 -0.271,-0.996 z" />
			</g>
		</g><g
       transform="matrix(-1,0,0,1,120.78956,0)"
       id="Layer_16">
			<linearGradient
   x1="10.891"
   y1="66.746002"
   x2="37.953999"
   gradientUnits="userSpaceOnUse"
   y2="66.746002"
   id="linearGradient32">
				<stop
   id="stop30-9"
   offset="0"
   stop-color="#424242" />
				<stop
   id="stop32-8"
   offset="1"
   stop-color="#8C94A3" />
			</linearGradient>
			<path
   inkscape:connector-curvature="0"
   style="fill:url(#linearGradient1751)"
   id="path108"
   d="M 34.91,87.414 C 33.278,79.252 30.848,69.006 27.657,60.695 22.13,46.29 10.913,32.226 10.891,32.202 h 0.002 l 0.456,-0.366 c 0.01,0.012 11.275,14.126 16.853,28.65 6.42,16.727 9.749,41.079 9.753,41.094 l -0.58,0.076 C 37.371,101.636 36.541,95.574 34.91,87.41 Z" />
		</g><g
       transform="matrix(-1,0,0,1,120.78956,0)"
       style="fill:none;stroke:#8b9298;stroke-width:0.5"
       id="Layer_1">
			<line
   id="line111"
   y1="50.801998"
   x2="55.546001"
   x1="31.437"
   y2="42.473" />
			<line
   id="line113"
   y1="53.139"
   x2="63.290001"
   x1="31.875"
   y2="41.450001" />
			<line
   id="line115"
   y1="54.747002"
   x2="60.952"
   x1="32.896999"
   y2="44.373001" />
			<line
   id="line117"
   y1="56.938"
   x2="64.313004"
   x1="33.335999"
   y2="45.688" />
			<line
   id="line119"
   y1="58.838001"
   x2="66.211998"
   x1="34.213001"
   y2="47.147999" />
			<line
   id="line121"
   y1="61.028999"
   x2="66.211998"
   x1="34.943001"
   y2="48.902" />
			<line
   id="line123"
   y1="63.075001"
   x2="66.358002"
   x1="35.528"
   y2="50.948002" />
			<line
   id="line125"
   y1="65.267998"
   x2="68.987999"
   x1="36.403999"
   y2="52.409" />
			<line
   id="line127"
   y1="67.313004"
   x2="67.819"
   x1="37.134998"
   y2="55.039001" />
			<line
   id="line129"
   y1="69.212997"
   x2="67.674004"
   x1="38.158001"
   y2="57.23" />
			<line
   id="line131"
   y1="71.403999"
   x2="67.527"
   x1="39.181"
   y2="59.568001" />
			<line
   id="line133"
   y1="73.448997"
   x2="70.596001"
   x1="39.473"
   y2="60.153" />
			<line
   id="line135"
   y1="75.787003"
   x2="71.473"
   x1="40.349998"
   y2="62.199001" />
			<line
   id="line137"
   y1="77.688004"
   x2="70.888"
   x1="41.226002"
   y2="64.828003" />
			<line
   id="line139"
   y1="80.171997"
   x2="74.833"
   x1="42.249001"
   y2="65.121002" />
			<line
   id="line141"
   y1="81.924004"
   x2="72.933998"
   x1="42.833"
   y2="68.335999" />
			<line
   id="line143"
   y1="84.700996"
   x2="73.664001"
   x1="43.709999"
   y2="70.527" />
			<line
   id="line145"
   y1="86.746002"
   x2="73.957001"
   x1="44.441002"
   y2="73.012001" />
			<line
   id="line147"
   y1="89.084"
   x2="75.271004"
   x1="45.171001"
   y2="74.18" />
			<line
   id="line149"
   y1="91.130997"
   x2="78.925003"
   x1="46.486"
   y2="75.640999" />
			<line
   id="line151"
   y1="93.760002"
   x2="73.518997"
   x1="46.778999"
   y2="80.609001" />
			<line
   id="line153"
   y1="67.896004"
   x2="99.234001"
   x1="80.531998"
   y2="59.715" />
			<line
   id="line155"
   y1="69.066002"
   x2="99.819"
   x1="81.115997"
   y2="60.883999" />
			<line
   id="line157"
   y1="70.234001"
   x2="97.969002"
   x1="81.75"
   y2="63.222" />
			<line
   id="line159"
   y1="71.551003"
   x2="98.211998"
   x1="81.992996"
   y2="64.537003" />
			<line
   id="line161"
   y1="72.816002"
   x2="101.62"
   x1="82.577003"
   y2="64.244003" />
			<line
   id="line163"
   y1="73.986"
   x2="98.698997"
   x1="82.772003"
   y2="67.07" />
			<line
   id="line165"
   y1="76.810997"
   x2="94.413002"
   x1="83.307999"
   y2="71.987999" />
			<line
   id="line167"
   y1="75.056999"
   x2="98.308998"
   x1="83.307999"
   y2="68.773003" />
		</g></g></svg>
