<?xml version="1.0" encoding="UTF-8" standalone="no"?>
<!-- Created with Inkscape (http://www.inkscape.org/) -->

<svg
   width="256mm"
   height="256mm"
   viewBox="0 0 256 256"
   version="1.1"
   id="svg1"
   inkscape:version="1.3.2 (091e20ef0f, 2023-11-25)"
   xml:space="preserve"
   sodipodi:docname="folder-build-symbolic.svg"
   xmlns:inkscape="http://www.inkscape.org/namespaces/inkscape"
   xmlns:sodipodi="http://sodipodi.sourceforge.net/DTD/sodipodi-0.dtd"
   xmlns:xlink="http://www.w3.org/1999/xlink"
   xmlns="http://www.w3.org/2000/svg"
   xmlns:svg="http://www.w3.org/2000/svg"
   xmlns:rdf="http://www.w3.org/1999/02/22-rdf-syntax-ns#"
   xmlns:cc="http://creativecommons.org/ns#"
   xmlns:dc="http://purl.org/dc/elements/1.1/"
   xmlns:a="http://ns.adobe.com/AdobeSVGViewerExtensions/3.0/"><defs
     id="defs1"><linearGradient
       id="linearGradient17"
       inkscape:collect="always"><stop
         style="stop-color:#ffffff;stop-opacity:0.04790419;"
         offset="0"
         id="stop17" /><stop
         style="stop-color:#ffffff;stop-opacity:1;"
         offset="1"
         id="stop18" /></linearGradient><linearGradient
       id="linearGradient15"
       inkscape:collect="always"><stop
         style="stop-color:#000000;stop-opacity:0.13173653;"
         offset="0"
         id="stop15" /><stop
         style="stop-color:#000000;stop-opacity:0.40269461;"
         offset="1"
         id="stop16" /></linearGradient><linearGradient
       id="linearGradient11"
       inkscape:collect="always"><stop
         style="stop-color:#ffffff;stop-opacity:0.13772455;"
         offset="0"
         id="stop13" /><stop
         style="stop-color:#ffffff;stop-opacity:1;"
         offset="1"
         id="stop14" /></linearGradient><linearGradient
       id="linearGradient6"
       inkscape:collect="always"><stop
         style="stop-color:#ffee8d;stop-opacity:0.73209548;"
         offset="0"
         id="stop3" /><stop
         style="stop-color:#f7e714;stop-opacity:0.37125748;"
         offset="1"
         id="stop6" /></linearGradient><linearGradient
       id="linearGradient9"
       inkscape:collect="always"><stop
         style="stop-color:#cea221;stop-opacity:1;"
         offset="0"
         id="stop9" /><stop
         style="stop-color:#cea221;stop-opacity:1;"
         offset="0.35811982"
         id="stop11" /><stop
         style="stop-color:#a38118;stop-opacity:1;"
         offset="0.48275998"
         id="stop12" /><stop
         style="stop-color:#765d13;stop-opacity:1;"
         offset="1"
         id="stop10" /></linearGradient><linearGradient
       id="linearGradient7"
       inkscape:collect="always"><stop
         style="stop-color:#000000;stop-opacity:0.18302387;"
         offset="0"
         id="stop7" /><stop
         style="stop-color:#b7b7b7;stop-opacity:0.18832891;"
         offset="1"
         id="stop8" /></linearGradient><linearGradient
       id="linearGradient4"
       inkscape:collect="always"><stop
         style="stop-color:#ffee8d;stop-opacity:0.73209548;"
         offset="0"
         id="stop4" /><stop
         style="stop-color:#d6bc48;stop-opacity:0.61803716;"
         offset="1"
         id="stop5" /></linearGradient><linearGradient
       id="linearGradient1"
       inkscape:collect="always"><stop
         style="stop-color:#ffeb9b;stop-opacity:1;"
         offset="0"
         id="stop1" /><stop
         style="stop-color:#c2a000;stop-opacity:1;"
         offset="1"
         id="stop2" /></linearGradient><linearGradient
       id="path3_3_"
       gradientUnits="userSpaceOnUse"
       x1="57.324699"
       y1="46.403801"
       x2="83.153503"
       y2="46.403801"><stop
         offset="0"
         style="stop-color:rgb(255,255,255)"
         id="stop8-0" /><stop
         offset="1"
         style="stop-color:rgb(223,223,236)"
         id="stop9-9" /><a:midPointStop
         offset="0"
         style="stop-color:#FFFFFF" /><a:midPointStop
         offset="0.5"
         style="stop-color:#FFFFFF" /><a:midPointStop
         offset="1"
         style="stop-color:#DFDFEC" /></linearGradient><linearGradient
       id="XMLID_4_-3-7"
       gradientUnits="userSpaceOnUse"
       x1="32.8545"
       y1="17.5103"
       x2="90.494102"
       y2="85.498703"><stop
         offset="0"
         style="stop-color:rgb(217,217,217)"
         id="stop10-6-6" /><stop
         offset="1"
         style="stop-color:rgb(87,87,151)"
         id="stop11-06" /><a:midPointStop
         offset="0"
         style="stop-color:#D9D9D9" /><a:midPointStop
         offset="0.5"
         style="stop-color:#D9D9D9" /><a:midPointStop
         offset="1"
         style="stop-color:#575797" /></linearGradient><linearGradient
       id="path11_3_"
       gradientUnits="userSpaceOnUse"
       x1="55.0952"
       y1="78.122101"
       x2="88.283401"
       y2="44.933899"><stop
         offset="0"
         style="stop-color:rgb(255,255,255)"
         id="stop12-2" /><stop
         offset="1"
         style="stop-color:rgb(223,223,236)"
         id="stop13-6" /><a:midPointStop
         offset="0"
         style="stop-color:#FFFFFF" /><a:midPointStop
         offset="0.5"
         style="stop-color:#FFFFFF" /><a:midPointStop
         offset="1"
         style="stop-color:#DFDFEC" /></linearGradient><linearGradient
       id="path16_3_"
       gradientUnits="userSpaceOnUse"
       x1="76.635696"
       y1="27.1621"
       x2="81.575798"
       y2="22.468901"><stop
         offset="0"
         style="stop-color:rgb(255,255,255)"
         id="stop14-1" /><stop
         offset="1"
         style="stop-color:rgb(223,223,236)"
         id="stop15-8-4" /><a:midPointStop
         offset="0"
         style="stop-color:#FFFFFF" /><a:midPointStop
         offset="0.5"
         style="stop-color:#FFFFFF" /><a:midPointStop
         offset="1"
         style="stop-color:#DFDFEC" /></linearGradient><linearGradient
       id="XMLID_5_-7"
       gradientUnits="userSpaceOnUse"
       x1="53.142101"
       y1="0.1851"
       x2="113.11"
       y2="70.919998"><stop
         offset="0"
         style="stop-color:rgb(217,217,217)"
         id="stop16-9-3" /><stop
         offset="1"
         style="stop-color:rgb(87,87,151)"
         id="stop17-2" /><a:midPointStop
         offset="0"
         style="stop-color:#D9D9D9" /><a:midPointStop
         offset="0.5"
         style="stop-color:#D9D9D9" /><a:midPointStop
         offset="1"
         style="stop-color:#575797" /></linearGradient><linearGradient
       id="XMLID_6_-7"
       gradientUnits="userSpaceOnUse"
       x1="65.5215"
       y1="109.3271"
       x2="65.5215"
       y2="46.861301"><stop
         offset="0"
         style="stop-color:#3FA600"
         id="stop14-2" /><stop
         offset="1"
         style="stop-color:#008300"
         id="stop15-4" /><a:midPointStop
         offset="0"
         style="stop-color:#3FA600" /><a:midPointStop
         offset="0.5"
         style="stop-color:#3FA600" /><a:midPointStop
         offset="1"
         style="stop-color:#008300" /></linearGradient><linearGradient
       inkscape:collect="always"
       xlink:href="#linearGradient1"
       id="linearGradient2"
       x1="52.515255"
       y1="83.787643"
       x2="102.84141"
       y2="235.06218"
       gradientUnits="userSpaceOnUse" /><linearGradient
       inkscape:collect="always"
       xlink:href="#linearGradient4"
       id="linearGradient5"
       x1="43.16869"
       y1="94.619362"
       x2="220.06821"
       y2="170.97055"
       gradientUnits="userSpaceOnUse"
       gradientTransform="translate(0,5.2916667)" /><linearGradient
       inkscape:collect="always"
       xlink:href="#linearGradient7"
       id="linearGradient8"
       x1="82.853554"
       y1="110.11504"
       x2="251.36699"
       y2="213.81561"
       gradientUnits="userSpaceOnUse" /><linearGradient
       inkscape:collect="always"
       xlink:href="#linearGradient9"
       id="linearGradient10"
       x1="110.0799"
       y1="45.966957"
       x2="209.36598"
       y2="194.65266"
       gradientUnits="userSpaceOnUse" /><linearGradient
       inkscape:collect="always"
       xlink:href="#linearGradient6"
       id="linearGradient20"
       gradientUnits="userSpaceOnUse"
       gradientTransform="translate(0,5.2916667)"
       x1="43.16869"
       y1="94.619362"
       x2="220.06821"
       y2="170.97055" /><linearGradient
       inkscape:collect="always"
       xlink:href="#linearGradient7"
       id="linearGradient21"
       gradientUnits="userSpaceOnUse"
       x1="82.853554"
       y1="110.11504"
       x2="251.36699"
       y2="213.81561" /><linearGradient
       inkscape:collect="always"
       xlink:href="#linearGradient9"
       id="linearGradient22"
       gradientUnits="userSpaceOnUse"
       x1="110.0799"
       y1="45.966957"
       x2="209.36598"
       y2="194.65266" /><linearGradient
       inkscape:collect="always"
       xlink:href="#linearGradient11"
       id="linearGradient14"
       x1="60.606758"
       y1="187.50502"
       x2="74.973244"
       y2="30.256107"
       gradientUnits="userSpaceOnUse" /><linearGradient
       inkscape:collect="always"
       xlink:href="#linearGradient15"
       id="linearGradient16"
       x1="100.16369"
       y1="95.159004"
       x2="189.06003"
       y2="184.36139"
       gradientUnits="userSpaceOnUse" /><linearGradient
       inkscape:collect="always"
       xlink:href="#linearGradient17"
       id="linearGradient18"
       x1="55.788521"
       y1="198.5321"
       x2="48.226624"
       y2="15.571447"
       gradientUnits="userSpaceOnUse" /><linearGradient
       id="XMLID_1_-99"
       gradientUnits="userSpaceOnUse"
       x1="65.2314"
       y1="-24.0483"
       x2="58.715302"
       y2="122.3119">
				<stop
   offset="0.382"
   style="stop-color:#DCF0FF"
   id="stop1-3" />
				<stop
   offset="0.4435"
   style="stop-color:#C9E6FF"
   id="stop2-2" />
				<stop
   offset="0.6311"
   style="stop-color:#92CAFF"
   id="stop3-43" />
				<stop
   offset="0.793"
   style="stop-color:#6AB5FF"
   id="stop4-71" />
				<stop
   offset="0.9213"
   style="stop-color:#52A9FF"
   id="stop5-22" />
				<stop
   offset="1"
   style="stop-color:#49A4FF"
   id="stop6-0" />
				<a:midPointStop
   offset="0.382"
   style="stop-color:#DCF0FF" />
				<a:midPointStop
   offset="0.4"
   style="stop-color:#DCF0FF" />
				<a:midPointStop
   offset="1"
   style="stop-color:#49A4FF" />
			</linearGradient><linearGradient
       id="XMLID_2_-21"
       gradientUnits="userSpaceOnUse"
       x1="85.484398"
       y1="70.108902"
       x2="8.9447002"
       y2="40.5261">
				<stop
   offset="0"
   style="stop-color:#0032A4"
   id="stop7-7" />
				<stop
   offset="1"
   style="stop-color:#3995E5"
   id="stop8-5" />
				<a:midPointStop
   offset="0"
   style="stop-color:#0032A4" />
				<a:midPointStop
   offset="0.5"
   style="stop-color:#0032A4" />
				<a:midPointStop
   offset="1"
   style="stop-color:#3995E5" />
			</linearGradient><linearGradient
       id="XMLID_3_-1"
       gradientUnits="userSpaceOnUse"
       x1="5.9517002"
       y1="63.035599"
       x2="117.9541"
       y2="63.035599">
				<stop
   offset="0.0169"
   style="stop-color:#FFFFFF"
   id="stop9-7" />
				<stop
   offset="0.309"
   style="stop-color:#CFF0FF"
   id="stop10-4" />
				<stop
   offset="0.6348"
   style="stop-color:#6DB8FF"
   id="stop11-1" />
				<stop
   offset="1"
   style="stop-color:#1E65FF"
   id="stop12-7" />
				<a:midPointStop
   offset="0.0169"
   style="stop-color:#FFFFFF" />
				<a:midPointStop
   offset="0.5"
   style="stop-color:#FFFFFF" />
				<a:midPointStop
   offset="0.309"
   style="stop-color:#CFF0FF" />
				<a:midPointStop
   offset="0.5"
   style="stop-color:#CFF0FF" />
				<a:midPointStop
   offset="0.6348"
   style="stop-color:#6DB8FF" />
				<a:midPointStop
   offset="0.5"
   style="stop-color:#6DB8FF" />
				<a:midPointStop
   offset="1"
   style="stop-color:#1E65FF" />
			</linearGradient><linearGradient
       id="XMLID_4_-0"
       gradientUnits="userSpaceOnUse"
       x1="38.310501"
       y1="106.9429"
       x2="38.310501"
       y2="106.9429">
			<stop
   offset="0"
   style="stop-color:#FFFFFF"
   id="stop13-98" />
			<stop
   offset="1"
   style="stop-color:#B1B1C5"
   id="stop14-8" />
			<a:midPointStop
   offset="0"
   style="stop-color:#FFFFFF" />
			<a:midPointStop
   offset="0.5"
   style="stop-color:#FFFFFF" />
			<a:midPointStop
   offset="1"
   style="stop-color:#B1B1C5" />
		</linearGradient><linearGradient
       id="XMLID_5_-58"
       gradientUnits="userSpaceOnUse"
       x1="55.079601"
       y1="55.829601"
       x2="98.924797"
       y2="74.430603">
				<stop
   offset="0.1461"
   style="stop-color:#6AC5FF"
   id="stop15-43" />
				<stop
   offset="0.2539"
   style="stop-color:#61B3FA"
   id="stop16-71" />
				<stop
   offset="0.469"
   style="stop-color:#4886EC"
   id="stop17-38" />
				<stop
   offset="0.7682"
   style="stop-color:#213DD7"
   id="stop18-0" />
				<stop
   offset="1"
   style="stop-color:#0000C5"
   id="stop19-97" />
				<a:midPointStop
   offset="0.1461"
   style="stop-color:#6AC5FF" />
				<a:midPointStop
   offset="0.5526"
   style="stop-color:#6AC5FF" />
				<a:midPointStop
   offset="1"
   style="stop-color:#0000C5" />
			</linearGradient><linearGradient
       id="XMLID_6_-17"
       gradientUnits="userSpaceOnUse"
       x1="48.565399"
       y1="62.0425"
       x2="90.431099"
       y2="67.934402">
				<stop
   offset="0"
   style="stop-color:#CDF8FF"
   id="stop20-040" />
				<stop
   offset="1"
   style="stop-color:#0056FF"
   id="stop21-85" />
				<a:midPointStop
   offset="0"
   style="stop-color:#CDF8FF" />
				<a:midPointStop
   offset="0.5"
   style="stop-color:#CDF8FF" />
				<a:midPointStop
   offset="1"
   style="stop-color:#0056FF" />
			</linearGradient><linearGradient
       id="XMLID_7_-16"
       gradientUnits="userSpaceOnUse"
       x1="56.809601"
       y1="101.1333"
       x2="121.1883"
       y2="70.107399">
				<stop
   offset="0"
   style="stop-color:#FFFFFF"
   id="stop22-62" />
				<stop
   offset="1"
   style="stop-color:#B1B1C5"
   id="stop23-19" />
				<a:midPointStop
   offset="0"
   style="stop-color:#FFFFFF" />
				<a:midPointStop
   offset="0.5"
   style="stop-color:#FFFFFF" />
				<a:midPointStop
   offset="1"
   style="stop-color:#B1B1C5" />
			</linearGradient><linearGradient
       id="XMLID_8_-64"
       gradientUnits="userSpaceOnUse"
       x1="16.091801"
       y1="124.8345"
       x2="116.8589"
       y2="69.899002">
				<stop
   offset="0"
   style="stop-color:#FFFFFF"
   id="stop24-8" />
				<stop
   offset="1"
   style="stop-color:#B1B1C5"
   id="stop25-08" />
				<a:midPointStop
   offset="0"
   style="stop-color:#FFFFFF" />
				<a:midPointStop
   offset="0.5"
   style="stop-color:#FFFFFF" />
				<a:midPointStop
   offset="1"
   style="stop-color:#B1B1C5" />
			</linearGradient><linearGradient
       id="XMLID_9_-1"
       gradientUnits="userSpaceOnUse"
       x1="57.195801"
       y1="98.454597"
       x2="121.4817"
       y2="67.473396">
				<stop
   offset="0"
   style="stop-color:#FFFFFF"
   id="stop26-0" />
				<stop
   offset="1"
   style="stop-color:#B1B1C5"
   id="stop27-22" />
				<a:midPointStop
   offset="0"
   style="stop-color:#FFFFFF" />
				<a:midPointStop
   offset="0.5"
   style="stop-color:#FFFFFF" />
				<a:midPointStop
   offset="1"
   style="stop-color:#B1B1C5" />
			</linearGradient><linearGradient
       id="XMLID_10_-9"
       gradientUnits="userSpaceOnUse"
       x1="98.720703"
       y1="73.721199"
       x2="52.720901"
       y2="55.9422">
				<stop
   offset="0"
   style="stop-color:#0032A4"
   id="stop28-75" />
				<stop
   offset="1"
   style="stop-color:#3995E5"
   id="stop29-64" />
				<a:midPointStop
   offset="0"
   style="stop-color:#0032A4" />
				<a:midPointStop
   offset="0.5"
   style="stop-color:#0032A4" />
				<a:midPointStop
   offset="1"
   style="stop-color:#3995E5" />
			</linearGradient><linearGradient
       id="XMLID_11_-63"
       gradientUnits="userSpaceOnUse"
       x1="56.9995"
       y1="2.1143"
       x2="98.865196"
       y2="8.0060997">
				<stop
   offset="0"
   style="stop-color:#CDF8FF"
   id="stop30-79" />
				<stop
   offset="1"
   style="stop-color:#0056FF"
   id="stop31-7" />
				<a:midPointStop
   offset="0"
   style="stop-color:#CDF8FF" />
				<a:midPointStop
   offset="0.5"
   style="stop-color:#CDF8FF" />
				<a:midPointStop
   offset="1"
   style="stop-color:#0056FF" />
			</linearGradient><radialGradient
       cx="4.9929786"
       cy="43.5"
       r="2.5"
       fx="4.9929786"
       fy="43.5"
       id="radialGradient2873-966-168"
       xlink:href="#linearGradient3688-166-749"
       gradientUnits="userSpaceOnUse"
       gradientTransform="matrix(2.003784,0,0,1.4,27.98813,-17.4)" /><linearGradient
       id="linearGradient3688-166-749"><stop
         id="stop2883"
         style="stop-color:#181818;stop-opacity:1"
         offset="0" /><stop
         id="stop2885-7"
         style="stop-color:#181818;stop-opacity:0"
         offset="1" /></linearGradient><radialGradient
       cx="4.9929786"
       cy="43.5"
       r="2.5"
       fx="4.9929786"
       fy="43.5"
       id="radialGradient2875-742-326"
       xlink:href="#linearGradient3688-166-749"
       gradientUnits="userSpaceOnUse"
       gradientTransform="matrix(2.003784,0,0,1.4,-20.01187,-104.4)" /><linearGradient
       x1="25.058096"
       y1="47.027729"
       x2="25.058096"
       y2="39.999443"
       id="linearGradient2877-634-617"
       xlink:href="#linearGradient3702-501-757"
       gradientUnits="userSpaceOnUse" /><linearGradient
       id="linearGradient3702-501-757"><stop
         id="stop2895"
         style="stop-color:#181818;stop-opacity:0"
         offset="0" /><stop
         id="stop2897"
         style="stop-color:#181818;stop-opacity:1"
         offset="0.5" /><stop
         id="stop2899"
         style="stop-color:#181818;stop-opacity:0"
         offset="1" /></linearGradient><linearGradient
       id="linearGradient3993"><stop
         offset="0"
         style="stop-color:#a3c0d0;stop-opacity:1"
         id="stop3995" /><stop
         offset="1"
         style="stop-color:#427da1;stop-opacity:0.74358976;"
         id="stop4001" /></linearGradient><linearGradient
       id="linearGradient2508"><stop
         offset="0"
         style="stop-color:#2e4a5a;stop-opacity:0.76353276;"
         id="stop2510" /><stop
         offset="1"
         style="stop-color:#6e8796;stop-opacity:0.80911678;"
         id="stop2512" /></linearGradient><linearGradient
       id="linearGradient3575"><stop
         id="stop3577"
         style="stop-color:#fafafa;stop-opacity:0.76353276;"
         offset="0" /><stop
         id="stop3579"
         style="stop-color:#e6e6e6;stop-opacity:0.64672363;"
         offset="1" /></linearGradient><linearGradient
       id="linearGradient3308-4-6-931-761"><stop
         id="stop2919"
         style="stop-color:#ffffff;stop-opacity:0.7962963;"
         offset="0" /><stop
         id="stop2921-1"
         style="stop-color:#ffffff;stop-opacity:0"
         offset="1" /></linearGradient><linearGradient
       id="linearGradient121"><stop
         id="stop120"
         style="stop-color:#ffffff;stop-opacity:0.81908834;"
         offset="0" /><stop
         id="stop121"
         style="stop-color:#ffffff;stop-opacity:0"
         offset="1" /></linearGradient><linearGradient
       id="linearGradient56"><stop
         id="stop44-7"
         style="stop-color:#ffffff;stop-opacity:0.81481481;"
         offset="0" /><stop
         id="stop45-1"
         style="stop-color:#ffffff;stop-opacity:0"
         offset="1" /></linearGradient><linearGradient
       id="linearGradient24"
       inkscape:collect="always"><stop
         style="stop-color:#cedce5;stop-opacity:1;"
         offset="0"
         id="stop25" /><stop
         style="stop-color:#c7d4da;stop-opacity:1;"
         offset="0.43541908"
         id="stop34" /><stop
         style="stop-color:#a9b1b5;stop-opacity:1;"
         offset="0.5"
         id="stop33" /><stop
         style="stop-color:#31383b;stop-opacity:1;"
         offset="1"
         id="stop32" /></linearGradient><linearGradient
       id="linearGradient20-1"
       inkscape:collect="always"><stop
         style="stop-color:#141414;stop-opacity:1;"
         offset="0"
         id="stop21" /><stop
         style="stop-color:#808080;stop-opacity:1;"
         offset="0.5"
         id="stop23" /><stop
         style="stop-color:#e6f7ff;stop-opacity:1;"
         offset="1"
         id="stop22" /></linearGradient><linearGradient
       id="linearGradient17-1"
       inkscape:collect="always"><stop
         style="stop-color:#e6f7ff;stop-opacity:1;"
         offset="0"
         id="stop18-03" /><stop
         style="stop-color:#adadac;stop-opacity:1;"
         offset="0.45238096"
         id="stop20" /><stop
         style="stop-color:#6b6b6b;stop-opacity:1;"
         offset="0.68015873"
         id="stop24" /><stop
         style="stop-color:#181818;stop-opacity:1;"
         offset="1"
         id="stop19" /></linearGradient><linearGradient
       id="linearGradient12"
       inkscape:collect="always"><stop
         style="stop-color:#8e5b1b;stop-opacity:1;"
         offset="0"
         id="stop13-4" /><stop
         style="stop-color:#b77624;stop-opacity:1;"
         offset="0.32944915"
         id="stop17-0" /><stop
         style="stop-color:#d28627;stop-opacity:1"
         offset="0.53276008"
         id="stop15-3" /><stop
         style="stop-color:#d38727;stop-opacity:0.73565573;"
         offset="0.71979231"
         id="stop16-91" /><stop
         style="stop-color:#d68b26;stop-opacity:0;"
         offset="1"
         id="stop14-9" /></linearGradient><linearGradient
       id="linearGradient9-6"
       inkscape:collect="always"><stop
         style="stop-color:#f7d577;stop-opacity:1"
         offset="0"
         id="stop9-93" /><stop
         style="stop-color:#f3ce62;stop-opacity:1"
         offset="0.37856829"
         id="stop11-38" /><stop
         style="stop-color:#ebc546;stop-opacity:1"
         offset="0.60857612"
         id="stop12-0" /><stop
         style="stop-color:#e9bd2c;stop-opacity:1"
         offset="1"
         id="stop10-5" /></linearGradient><linearGradient
       id="XMLID_1_-9"
       gradientUnits="userSpaceOnUse"
       x1="64.000504"
       y1="117.0137"
       x2="64.000504"
       y2="123.5619"
       gradientTransform="matrix(3.7278183,0,0,3.7278183,-169.30672,-355.72061)"><stop
   offset="0"
   style="stop-color:#FFFFFF"
   id="stop11-3" />
<stop
   offset="1"
   style="stop-color:#8a8585;stop-opacity:1;"
   id="stop13-7" />
<a:midPointStop
   offset="0"
   style="stop-color:#FFFFFF"
   id="midPointStop15" />
<a:midPointStop
   offset="0.5"
   style="stop-color:#FFFFFF"
   id="midPointStop17" />
<a:midPointStop
   offset="1"
   style="stop-color:#949494"
   id="midPointStop19" />
</linearGradient><linearGradient
       inkscape:collect="always"
       xlink:href="#linearGradient9-6"
       id="linearGradient10-4"
       x1="83.68808"
       y1="69.044151"
       x2="191.56625"
       y2="104.3995"
       gradientUnits="userSpaceOnUse" /><linearGradient
       inkscape:collect="always"
       xlink:href="#linearGradient17-1"
       id="linearGradient19"
       x1="93.338097"
       y1="76.596308"
       x2="149.02277"
       y2="76.596308"
       gradientUnits="userSpaceOnUse" /><radialGradient
       inkscape:collect="always"
       xlink:href="#linearGradient20-1"
       id="radialGradient23"
       cx="136.84215"
       cy="34.700867"
       fx="136.84215"
       fy="34.700867"
       r="27.753942"
       gradientTransform="matrix(1.7889727,-0.05468597,0.03821656,1.2501997,-97.287032,0.56606774)"
       gradientUnits="userSpaceOnUse" /><linearGradient
       inkscape:collect="always"
       xlink:href="#linearGradient24"
       id="linearGradient32"
       x1="96.270378"
       y1="29.315733"
       x2="149.25001"
       y2="40.1875"
       gradientUnits="userSpaceOnUse" /><radialGradient
       inkscape:collect="always"
       xlink:href="#linearGradient12"
       id="radialGradient1"
       cx="132.12936"
       cy="103.60181"
       fx="132.12936"
       fy="103.60181"
       r="43.663849"
       gradientTransform="matrix(2.9035877,-0.02622752,0.00576492,0.63822194,-252.11708,39.21182)"
       gradientUnits="userSpaceOnUse" /></defs><sodipodi:namedview
     id="base"
     pagecolor="#ffffff"
     bordercolor="#000000"
     borderopacity="0.3"
     inkscape:pageopacity="0.0"
     inkscape:pageshadow="2"
     inkscape:zoom="0.98994949"
     inkscape:cx="505.07627"
     inkscape:cy="476.792"
     inkscape:document-units="mm"
     inkscape:showpageshadow="2"
     inkscape:pagecheckerboard="0"
     inkscape:deskcolor="#d1d1d1"
     inkscape:current-layer="svg1"
     showguides="true"><sodipodi:guide
       position="46.49107,121.58221"
       orientation="1,0"
       id="guide16"
       inkscape:locked="false" /><sodipodi:guide
       position="98.651783,154.51339"
       orientation="0,-1"
       id="guide17"
       inkscape:locked="false" /></sodipodi:namedview><metadata
     id="metadata1"><rdf:RDF><cc:Work
         rdf:about=""><dc:format>image/svg+xml</dc:format><dc:type
           rdf:resource="http://purl.org/dc/dcmitype/StillImage" /><cc:license
           rdf:resource="http://creativecommons.org/publicdomain/zero/1.0/" /></cc:Work><cc:License
         rdf:about="http://creativecommons.org/publicdomain/zero/1.0/"><cc:permits
           rdf:resource="http://creativecommons.org/ns#Reproduction" /><cc:permits
           rdf:resource="http://creativecommons.org/ns#Distribution" /><cc:permits
           rdf:resource="http://creativecommons.org/ns#DerivativeWorks" /></cc:License></rdf:RDF></metadata><g
     id="g12"
     inkscape:label="shadowclose"
     style="display:inline"
     transform="matrix(1.0330579,0,0,1.0330579,-2.2035813,8.8493538)"><path
       style="color:#000000;display:inline;fill:#000000;fill-opacity:0.0929705;stroke-width:1.16609;stroke-linecap:round;stroke-linejoin:bevel;-inkscape-stroke:none"
       d="m 16.252978,44.341516 36.105011,-33.002229 61.957981,0.435815 33.87631,31.694784 c 0,0 64.12877,-2.115614 79.86291,-0.435815 24.52209,2.341258 21.16667,32.153051 21.16667,32.153051 l 0.11037,104.144978 c 0.48637,27.64938 -0.40781,45.25999 -29.66029,47.44855 L 36.130614,226.40267 C 11.402737,224.00742 9.4751688,205.49428 10.205359,188.98303 Z"
       id="path12"
       sodipodi:nodetypes="ccccccccccc"
       inkscape:label="shadow" /><path
       style="color:#000000;display:inline;fill:#000000;fill-opacity:0.0929705;stroke-width:1.16609;stroke-linecap:round;stroke-linejoin:bevel;-inkscape-stroke:none"
       d="m 16.252978,44.341516 36.105011,-33.002229 56.288341,0.435815 33.87631,31.694784 c 0,0 63.81419,-0.815135 78.72898,4.477875 25.40122,6.806235 21.73362,28.37329 21.73362,28.37329 l 0.65315,100.365219 c 0.15291,23.49695 -2.94787,40.38154 -25.10037,41.77891 L 41.044304,220.35505 C 21.259354,217.1328 10.22349,205.93759 10.205359,188.98303 Z"
       id="path14"
       sodipodi:nodetypes="ccccccscccc"
       inkscape:label="shadow" /><path
       style="color:#000000;display:inline;fill:#000000;fill-opacity:0.0929705;stroke-width:1.16609;stroke-linecap:round;stroke-linejoin:bevel;-inkscape-stroke:none"
       d="m 16.252978,44.341516 36.105011,-33.002229 50.240721,-0.698114 33.87631,31.694784 c 0,0 55.26431,0.640556 80.99684,9.391566 12.38959,4.213398 19.15438,6.906208 19.65476,18.545909 1.39024,32.339248 3.27511,68.180748 2.34194,102.255098 -0.25256,9.22222 -2.31668,19.70368 -4.68414,27.65066 -2.70543,9.08145 -10.52594,12.93783 -21.91604,11.86039 L 43.312161,211.6616 c -14.52793,-0.076 -31.881718,-7.49369 -33.106802,-22.67857 z"
       id="path15"
       sodipodi:nodetypes="ccccsssscccc"
       inkscape:label="shadow" /><path
       style="color:#000000;display:inline;fill:#000000;fill-opacity:0.0929705;stroke-width:1.16609;stroke-linecap:round;stroke-linejoin:bevel;-inkscape-stroke:none"
       d="m 16.252978,44.341516 36.105011,-33.002229 48.236201,0.237329 31.20361,31.29388 c 0,0 56.89843,-2.363022 81.26411,9.926105 21.18433,10.684576 18.6584,27.170577 18.6584,27.170577 l 2.7121,92.195472 c 0,32.74973 -5.17276,36.66642 -30.25748,35.15222 L 42.367221,204.29106 c -13.969449,0.1705 -30.178506,-3.91126 -32.161862,-19.45071 z"
       id="path16"
       sodipodi:nodetypes="ccccscccccc"
       inkscape:label="shadow" /></g><g
     id="g13"
     inkscape:label="shadowopen"
     style="display:none"
     transform="matrix(1.0068174,0,0,1.0068174,-1.9389142,9.1285845)"><path
       style="color:#000000;display:inline;fill:#000000;fill-opacity:0.0929705;stroke-width:1.16609;stroke-linecap:round;stroke-linejoin:bevel;-inkscape-stroke:none"
       d="m 16.252978,44.341516 36.105011,-33.002229 73.183301,0.435815 33.87631,31.694784 c 0,0 40.06412,5.288391 60.8358,7.390766 19.90983,2.015143 34.77394,20.150305 34.00533,42.193175 -0.41964,12.034643 0.54567,36.121743 0.54567,36.121743 l -0.36685,29.84405 c -3.37229,55.09309 -15.97567,67.3805 -34.76561,67.76103 -54.79223,1.10965 -100.65039,3.04728 -156.705016,2.26785 C 26.62644,228.5432 10.961311,193.51874 10.961311,193.51874 Z"
       id="path13"
       sodipodi:nodetypes="ccccssccsscc"
       inkscape:label="shadow" /><path
       style="color:#000000;display:inline;fill:#000000;fill-opacity:0.0929705;stroke-width:1.16609;stroke-linecap:round;stroke-linejoin:bevel;-inkscape-stroke:none"
       d="m 16.252978,44.341516 36.105011,-33.002229 62.492521,0.435815 33.87631,31.694784 c 0,0 43.43472,9.086572 65.43036,8.651349 17.27416,-0.3418 40.22607,21.832063 40.10155,40.932592 -0.12988,19.923203 -0.87504,24.665753 -1.88892,46.375883 -2.14937,46.02402 -10.40288,78.69306 -36.97418,78.79832 0,0 -117.138269,5.09652 -174.454164,0.69109 -14.259757,-1.09604 -30.736107,-29.93609 -30.736107,-29.93609 z"
       id="path22"
       sodipodi:nodetypes="ccccssssscc"
       inkscape:label="shadow" /><path
       style="color:#000000;display:inline;fill:#000000;fill-opacity:0.124717;stroke-width:1.16609;stroke-linecap:round;stroke-linejoin:bevel;-inkscape-stroke:none"
       d="m 16.252978,44.341516 36.105011,-33.002229 57.147131,0.435815 33.87631,31.694784 c 0,0 43.12388,9.373494 64.91712,9.407302 20.39888,0.03164 46.66344,25.415249 47.41707,45.783098 0.82469,22.288574 -6.28806,65.998724 -7.13024,69.814724 -5.87003,26.59754 -3.56567,35.68331 -38.53514,43.33855 0,0 -110.978839,8.49353 -166.970618,1.22563 -13.465677,-1.74788 -32.874263,-24.05616 -32.874263,-24.05616 z"
       id="path23"
       sodipodi:nodetypes="ccccssscscc"
       inkscape:label="shadow" /><path
       style="color:#000000;display:inline;fill:url(#linearGradient16);stroke-width:1.16609;stroke-linecap:round;stroke-linejoin:bevel;-inkscape-stroke:none"
       d="m 16.252978,44.341516 36.105011,-33.002229 50.732661,0.435815 33.87631,31.694784 72.37937,13.462201 c 0,0 30.91772,5.843599 38.11483,12.001167 9.82151,8.402891 11.79254,44.628786 -9.44459,97.064406 -21.23714,52.43562 -15.70419,40.42994 -76.98295,40.56311 0,0 -56.11246,0.17817 -111.852655,-0.27603 -13.55581,-0.11047 -38.975606,-17.30171 -38.975606,-17.30171 z"
       id="path24"
       sodipodi:nodetypes="cccccszcscc"
       inkscape:label="shadow" /></g><g
     id="rect1"
     style="display:inline"
     inkscape:label="back"
     transform="matrix(1.0272988,0,0,1.0272988,-2.0291602,8.9067299)"><path
       style="color:#000000;fill:url(#linearGradient2);stroke-linecap:round;stroke-linejoin:bevel;-inkscape-stroke:none"
       d="m 12.095239,51.404763 30.616074,-32.883928 52.538689,0.377976 28.726198,31.75 78.61905,-0.377976 V 176.85026 H 12.095239 Z"
       id="path2"
       sodipodi:nodetypes="cccccccc" /><path
       id="rect3"
       style="display:inline;fill:#ffffff;stroke-width:15.377;stroke-linecap:round;stroke-linejoin:bevel"
       d="m 17.639788,55.324789 28.330568,-30.468726 45.435817,0.534539 29.934187,31.270535 75.10273,-0.26727 v 14.432554 l -80.01642,0.26727 -30.150038,-31.270535 -35.927125,0.26727 -33.244258,36.138369 z"
       sodipodi:nodetypes="ccccccccccc" /><path
       style="color:#000000;fill:#cea221;stroke-linecap:round;stroke-linejoin:bevel;-inkscape-stroke:none"
       d="M 42.767578,10.832031 37.083984,13.28125 6.46875,46.166016 4.40625,51.404297 V 176.84951 c 0.9154791,4.21083 2.5425773,7.71003 7.689453,7.68946 H 202.5957 l 7.6875,-7.68946 V 50.271484 c 0.24504,-4.443094 -1.57408,-7.510076 -7.72461,-7.689453 l -75.18554,0.361328 -26.42188,-29.203125 -5.646483,-2.529296 z m 3.267578,15.402344 45.78125,0.328125 26.458984,29.244141 5.73828,2.53125 70.89258,-0.341797 V 169.16201 H 19.783203 V 54.431641 Z"
       id="path3"
       sodipodi:nodetypes="ccccccccccccccccccccccc" /></g><g
     id="rect4"
     inkscape:label="close"
     style="display:inline"
     transform="matrix(1.046868,0,0,1.0272988,-6.4097406,12.476083)"><path
       style="color:#000000;fill:url(#linearGradient5);stroke-linejoin:bevel;-inkscape-stroke:none"
       d="M 39.948839,84.560004 50.070576,71.031306 148.56455,70.196909 h 67.59491 V 187.45551 H 39.948839 Z"
       id="path5"
       sodipodi:nodetypes="ccccccc" /><path
       id="rect7"
       style="fill:url(#linearGradient8);stroke-width:15.377;stroke-linejoin:bevel"
       d="M 38.443449,169.44888 H 195.37402 l 0.46773,-73.755263 h 17.3057 c -0.28876,34.032403 2.27179,61.637733 2.27179,95.671363 L 46.728804,187.08867 Z"
       sodipodi:nodetypes="ccccccc" /><path
       id="path7"
       style="display:inline;fill:url(#linearGradient18);stroke-width:15.377;stroke-linecap:round;stroke-linejoin:bevel"
       d="m 46.392076,181.98385 0.07351,-107.391098 102.868614,0.230236 61.47199,1.603617 v 20.312484 h -57.29851 l -88.12199,0.180167 -0.04755,85.323034 z"
       sodipodi:nodetypes="ccccccccc" /><path
       style="color:#000000;fill:url(#linearGradient10);stroke-linejoin:bevel;-inkscape-stroke:none"
       d="m 40.137595,62.33389 c -6.760736,-0.235673 -7.178598,4.309136 -7.6875,8.241352 L 31.694143,187.45508 c 0.674417,4.18151 3.271374,6.71512 7.6875,7.68945 H 216.16016 c 5.83804,0.29423 7.75626,-2.83094 7.6875,-7.68945 V 70.197079 c -0.16186,-5.049533 -2.53805,-7.943617 -7.6875,-7.827428 -58.45149,0 -116.731075,-0.03576 -176.022565,-0.03576 z M 208.4707,77.884579 V 179.76758 H 47.071096 L 47.827048,78.262742 c 59.235472,0.0065 101.404572,-0.378163 160.643652,-0.378163 z"
       id="path6"
       sodipodi:nodetypes="cccccccccccccc" /></g><g
     id="g20"
     inkscape:label="open"
     style="display:none"
     transform="matrix(1.0272988,0,-0.22903094,0.93647609,33.604309,21.96265)"><path
       style="color:#000000;fill:url(#linearGradient20);stroke-linejoin:bevel;-inkscape-stroke:none"
       d="m 22.886951,78.134409 h 97.392209 l 28.28539,-14.363095 h 67.59491 V 187.45551 H 22.886951 Z"
       id="path17" /><path
       id="path18"
       style="fill:url(#linearGradient21);stroke-width:15.377;stroke-linejoin:bevel"
       d="M 21.381561,169.44888 H 195.37402 l 0.46773,-80.180858 h 17.3057 c -0.28876,34.032398 2.27179,68.063328 2.27179,102.096958 L 29.666916,187.08867 Z"
       sodipodi:nodetypes="ccccccc" /><path
       id="path19"
       style="display:inline;fill:url(#linearGradient14);stroke-width:15.377;stroke-linecap:round;stroke-linejoin:bevel"
       d="m 26.196468,77.472204 c 0,0 61.529128,0.829797 93.811602,-0.801808 l 30.71274,-2.053499 61.47199,1.603617 4.16268,20.312484 H 55.486552 c 5.546427,25.710512 7.894291,67.591662 -3.012082,95.226152 l -20.345138,-3.97048 c -1.199998,-29.74052 2.240856,-57.5062 -5.932864,-90.214271 z"
       sodipodi:nodetypes="cccccccccc" /><path
       style="color:#000000;fill:url(#linearGradient22);stroke-linejoin:bevel;-inkscape-stroke:none"
       d="m 149.95106,62.301535 -3.48047,0.833985 C 102.32048,62.548127 63.464386,62.567274 21.130351,62.567274 c -6.756833,-0.830807 -6.851232,3.729475 -7.6875,7.689454 11.672833,51.561032 8.047695,91.093652 4.459577,124.528112 -0.339785,3.16615 4.426923,5.1263 7.6875,7.68945 H 218.86337 c 3.67232,-2.70006 6.52227,-7.72863 8.2627,-15.89878 5.68917,-38.86151 6.4991,-77.72301 -1.8918,-116.584522 -1.05751,-2.362904 -1.02105,-4.580249 -7.6875,-7.689453 z m 1.83985,15.376953 h 58.0664 c 8.73588,37.930492 4.82746,73.639752 1.3166,109.418852 H 33.279381 c 6.637531,-31.51664 5.60206,-72.67072 -4.459577,-109.153112 45.521495,-0.874055 78.037736,0.03645 122.971106,-0.26574 z"
       id="path20"
       sodipodi:nodetypes="ccccscccccccccccc" /></g><g
     style="overflow:visible"
     id="g91"
     transform="matrix(0.69520193,0,0,0.69520193,79.483055,84.759846)"><g
       id="g9"
       style="display:inline"><path
         id="rect1-0"
         style="display:inline;fill:#a4bfe4;stroke-width:38.0334;stroke-linecap:square;stroke-linejoin:round;stroke-opacity:0.849303"
         d="M 15.909904,152.02797 126.39535,42.072858 c -0.3554,-17.315184 35.39311,-12.507325 35.88567,0.353553 l -0.53033,19.798991 43.31029,-14.142136 25.1023,18.119612 -0.35356,39.686372 22.98097,0.17677 0.11838,61.87248 h -31.08973 l 8.11538,5.84188 -0.0947,33.96442 -28.13783,18.3526 -25.63259,-19.35704 c -7.95495,3.4847 -15.90991,5.53191 -23.86486,6.66226 l 0.7071,28.75937 -37.0789,0.0331 0.48613,-31.96343 c -9.32178,1.43603 -21.964745,-1.86051 -24.183501,-4.3361 l -28.906004,20.49916 -26.99034,-17.91975 12.374369,-41.24421 -32.17336,0.7955 z"
         sodipodi:nodetypes="cccccccccccccccccccccccc" /><path
         id="rect2"
         style="display:inline;fill:#ac4120;fill-opacity:1;stroke-width:38.0334;stroke-linecap:square;stroke-linejoin:round;stroke-opacity:0.849303"
         d="m 102.38226,202.00053 c -8.635593,-1.45934 -16.652685,-3.94951 -24.228297,-7.17548 l -26.815378,20.63259 -28.56363,-19.13435 0.2327,-33.74395 12.482701,-5.39039 -32.5692,-0.31158 L 3.1019569,122.81578 37.032756,100.0042 23.213555,88.692621 23.144364,54.88104 l 52.180801,8.18842 140.430805,-7.56158 0.7071,33.322409 -12.55114,10.429826 35.53212,23.511295 0.35355,33.76435 -31.87647,-0.0259 8.8955,6.38985 0.0884,33.94113 -28.19039,18.37942 -26.06851,-19.86742 c -8.01773,4.4202 -16.03545,5.53345 -24.05318,6.52613 l 0.17677,28.99138 -36.38745,0.53487 z"
         sodipodi:nodetypes="cccccccccccccccccccccccccc" /><path
         id="rect3-0"
         style="display:inline;fill:#b2591f;fill-opacity:1;stroke-width:38.0334;stroke-linecap:square;stroke-linejoin:round;stroke-opacity:0.849303"
         d="m 41.058058,123.30286 c 0,0 2.385858,5.73778 3.916369,8.57367 1.807541,3.34921 6.98268,9.33059 6.98268,9.33059 l -10.987437,7.77817 z"
         sodipodi:nodetypes="csccc" /><path
         id="path3-4"
         style="display:inline;fill:#b2591f;fill-opacity:1;stroke-width:38.0334;stroke-linecap:square;stroke-linejoin:round;stroke-opacity:0.849303"
         d="m 78.645147,160.77253 c 7.132327,2.98172 14.731704,5.5451 23.564113,7.71882 l 0.17593,33.58449 c -8.4436,-1.66233 -16.785762,-3.58549 -24.415518,-7.34055 z"
         sodipodi:nodetypes="ccccc" /><path
         id="path4"
         style="display:inline;fill:#b2591f;fill-opacity:1;stroke-width:38.0334;stroke-linecap:square;stroke-linejoin:round;stroke-opacity:0.849303"
         d="m 138.89255,168.58059 c 7.48588,-2.40997 23.52122,-6.73829 23.52122,-6.73829 l 0.17593,33.84966 c -5.25282,2.94213 -14.88935,6.19494 -23.13519,6.32106 z"
         sodipodi:nodetypes="ccccc" /><path
         id="path5-6"
         style="fill:#b2591f;fill-opacity:1;stroke-width:38.0334;stroke-linecap:square;stroke-linejoin:round;stroke-opacity:0.849303"
         d="m 189.98546,142.41856 11.05402,-19.7323 -0.34996,28.01695 z"
         sodipodi:nodetypes="cccc" /><path
         id="path6-2"
         style="fill:#84421b;stroke-width:38.0334;stroke-linecap:square;stroke-linejoin:round;stroke-opacity:0.849303"
         d="m 102.4355,196.64703 36.6848,0.45778 0.17593,33.53716 -36.79877,-0.0625 z"
         sodipodi:nodetypes="ccccc" /><path
         id="path7-6"
         style="fill:#b2591f;fill-opacity:1;stroke-width:38.0334;stroke-linecap:square;stroke-linejoin:round;stroke-opacity:0.849303"
         d="m 102.4355,196.64703 36.6848,0.45778 0.17593,33.53716 -36.79877,-0.0625 z"
         sodipodi:nodetypes="ccccc" /><path
         id="path8"
         style="fill:#b2591f;fill-opacity:1;stroke-width:38.0334;stroke-linecap:square;stroke-linejoin:round;stroke-opacity:0.849303"
         d="m 22.935496,162.39703 28.1848,19.70778 0.17593,33.53716 -28.29877,-19.3125 z"
         sodipodi:nodetypes="ccccc" /><path
         id="path9"
         style="fill:#b2591f;fill-opacity:1;stroke-width:38.0334;stroke-linecap:square;stroke-linejoin:round;stroke-opacity:0.849303"
         d="m 188.6855,180.89703 28.4348,-17.29222 0.17593,33.53716 -28.54877,17.6875 z"
         sodipodi:nodetypes="ccccc" /><path
         id="rect9"
         style="fill:url(#linearGradient10-4);stroke-width:1.64124976;stroke-linecap:square;stroke-linejoin:round;stroke-opacity:1;stroke:#000000;stroke-dasharray:none"
         d="m 51.250004,36.249998 27.9375,21.000001 C 112.29156,41.480863 139.80268,47.808898 161.86996,55.918893 l 26.45811,-19.445437 28.60842,18.694137 c -10.60593,7.281015 -17.41976,12.994776 -27.23246,19.972245 6.12474,6.590289 9.01469,12.764615 11.55852,19.802517 l 38.33116,-0.0442 -0.0294,27.886525 -37.85961,-0.0442 c -2.40374,6.95036 -5.74954,13.54745 -11.90244,19.09188 l 26.10456,21.21321 -27.02644,18.81318 -26.12337,-20.13901 c -7.24402,4.36838 -14.51214,6.39849 -23.48132,6.98268 l 0.03,28.54944 -36.70642,-0.0884 0.0258,-28.53848 c -8.854419,-1.20783 -16.934254,-3.96483 -24.625001,-7.5 L 51.250008,181.5625 23.750006,162.75 50.648659,141.24784 C 45.863776,135.23162 41.858275,129.18151 40.875003,123 L 2.922336,122.60355 3.0000016,95.249998 41.250003,94.499999 c 1.936244,-6.874267 5.124814,-12.910386 9.750001,-17.9375 L 24.500003,55.187498 Z"
         sodipodi:nodetypes="ccccccccccccccccccccccccccccc" /><path
         id="rect12"
         style="display:inline;fill:url(#radialGradient1);stroke-width:38.0334;stroke-linecap:square;stroke-linejoin:round;stroke-opacity:0.849303"
         d="m 117.96552,70.042151 72.26399,5.360467 c 5.22645,5.697991 8.52397,12.272774 11.17284,19.142396 l 38.28063,-0.07053 -0.39351,28.048816 -37.00571,-0.16906 -8.7557,15.33094 c -26.8847,7.92789 -54.28344,0.47515 -79.73411,-13.66117 z"
         sodipodi:nodetypes="ccccccccc" /><path
         id="rect17"
         style="display:inline;fill:url(#linearGradient19);stroke:#000000;stroke-width:2;stroke-linecap:square;stroke-linejoin:round;stroke-dasharray:none;stroke-opacity:1"
         d="M 93.338097,32.637399 C 112.56823,29.07169 131.206,28.696404 149.02277,32.668619 v 79.054251 c -6.96133,18.73114 -52.166032,15.08386 -55.684673,1.06066 z"
         sodipodi:nodetypes="ccccc" /><ellipse
         style="fill:url(#radialGradient23);fill-opacity:1;stroke:#000000;stroke-width:2;stroke-linecap:square;stroke-linejoin:round;stroke-dasharray:none;stroke-opacity:1"
         id="path20-7"
         cx="121.26881"
         cy="31.515989"
         rx="26.72047"
         ry="14.378942" /><path
         id="rect24"
         style="fill:url(#linearGradient32);stroke-width:38.0334;stroke-linecap:square;stroke-linejoin:round;stroke-opacity:0.849303"
         d="m 94.060668,28.97833 c 0,0 2.433059,15.543118 27.683062,15.543118 25.25,0 26.80315,-15.608916 26.80315,-15.608916 l 1.38383,3.587166 c 0,0 -4.80575,14.875303 -28.80575,14.875303 -24.624951,0 -28.876252,-14.880205 -28.876252,-14.880205 z"
         sodipodi:nodetypes="csccscc" /></g></g></svg>
