<?xml version="1.0" encoding="UTF-8" standalone="no"?>
<!-- Created with Inkscape (http://www.inkscape.org/) -->

<svg
   width="256mm"
   height="256mm"
   viewBox="0 0 256 256"
   version="1.1"
   id="svg1"
   inkscape:version="1.3.2 (091e20ef0f, 2023-11-25)"
   xml:space="preserve"
   sodipodi:docname="folder-photos-symbolic.svg"
   xmlns:inkscape="http://www.inkscape.org/namespaces/inkscape"
   xmlns:sodipodi="http://sodipodi.sourceforge.net/DTD/sodipodi-0.dtd"
   xmlns:xlink="http://www.w3.org/1999/xlink"
   xmlns="http://www.w3.org/2000/svg"
   xmlns:svg="http://www.w3.org/2000/svg"
   xmlns:rdf="http://www.w3.org/1999/02/22-rdf-syntax-ns#"
   xmlns:cc="http://creativecommons.org/ns#"
   xmlns:dc="http://purl.org/dc/elements/1.1/"
   xmlns:a="http://ns.adobe.com/AdobeSVGViewerExtensions/3.0/"><defs
     id="defs1"><linearGradient
       id="linearGradient17"
       inkscape:collect="always"><stop
         style="stop-color:#ffffff;stop-opacity:0.04790419;"
         offset="0"
         id="stop17" /><stop
         style="stop-color:#ffffff;stop-opacity:1;"
         offset="1"
         id="stop18" /></linearGradient><linearGradient
       id="linearGradient15"
       inkscape:collect="always"><stop
         style="stop-color:#000000;stop-opacity:0.13173653;"
         offset="0"
         id="stop15" /><stop
         style="stop-color:#000000;stop-opacity:0.40269461;"
         offset="1"
         id="stop16" /></linearGradient><linearGradient
       id="linearGradient11"
       inkscape:collect="always"><stop
         style="stop-color:#ffffff;stop-opacity:0.13772455;"
         offset="0"
         id="stop13" /><stop
         style="stop-color:#ffffff;stop-opacity:1;"
         offset="1"
         id="stop14" /></linearGradient><linearGradient
       id="linearGradient6"
       inkscape:collect="always"><stop
         style="stop-color:#ffee8d;stop-opacity:0.73209548;"
         offset="0"
         id="stop3" /><stop
         style="stop-color:#f7e714;stop-opacity:0.37125748;"
         offset="1"
         id="stop6" /></linearGradient><linearGradient
       id="linearGradient9"
       inkscape:collect="always"><stop
         style="stop-color:#cea221;stop-opacity:1;"
         offset="0"
         id="stop9" /><stop
         style="stop-color:#cea221;stop-opacity:1;"
         offset="0.35811982"
         id="stop11" /><stop
         style="stop-color:#a38118;stop-opacity:1;"
         offset="0.48275998"
         id="stop12" /><stop
         style="stop-color:#765d13;stop-opacity:1;"
         offset="1"
         id="stop10" /></linearGradient><linearGradient
       id="linearGradient7"
       inkscape:collect="always"><stop
         style="stop-color:#000000;stop-opacity:0.18302387;"
         offset="0"
         id="stop7" /><stop
         style="stop-color:#b7b7b7;stop-opacity:0.18832891;"
         offset="1"
         id="stop8" /></linearGradient><linearGradient
       id="linearGradient4"
       inkscape:collect="always"><stop
         style="stop-color:#ffee8d;stop-opacity:0.73209548;"
         offset="0"
         id="stop4" /><stop
         style="stop-color:#d6bc48;stop-opacity:0.61803716;"
         offset="1"
         id="stop5" /></linearGradient><linearGradient
       id="linearGradient1"
       inkscape:collect="always"><stop
         style="stop-color:#ffeb9b;stop-opacity:1;"
         offset="0"
         id="stop1" /><stop
         style="stop-color:#c2a000;stop-opacity:1;"
         offset="1"
         id="stop2" /></linearGradient><linearGradient
       id="path3_3_"
       gradientUnits="userSpaceOnUse"
       x1="57.324699"
       y1="46.403801"
       x2="83.153503"
       y2="46.403801"><stop
         offset="0"
         style="stop-color:rgb(255,255,255)"
         id="stop8-0" /><stop
         offset="1"
         style="stop-color:rgb(223,223,236)"
         id="stop9-9" /><a:midPointStop
         offset="0"
         style="stop-color:#FFFFFF" /><a:midPointStop
         offset="0.5"
         style="stop-color:#FFFFFF" /><a:midPointStop
         offset="1"
         style="stop-color:#DFDFEC" /></linearGradient><linearGradient
       id="XMLID_4_-3-7"
       gradientUnits="userSpaceOnUse"
       x1="32.8545"
       y1="17.5103"
       x2="90.494102"
       y2="85.498703"><stop
         offset="0"
         style="stop-color:rgb(217,217,217)"
         id="stop10-6-6" /><stop
         offset="1"
         style="stop-color:rgb(87,87,151)"
         id="stop11-06" /><a:midPointStop
         offset="0"
         style="stop-color:#D9D9D9" /><a:midPointStop
         offset="0.5"
         style="stop-color:#D9D9D9" /><a:midPointStop
         offset="1"
         style="stop-color:#575797" /></linearGradient><linearGradient
       id="path11_3_"
       gradientUnits="userSpaceOnUse"
       x1="55.0952"
       y1="78.122101"
       x2="88.283401"
       y2="44.933899"><stop
         offset="0"
         style="stop-color:rgb(255,255,255)"
         id="stop12-2" /><stop
         offset="1"
         style="stop-color:rgb(223,223,236)"
         id="stop13-6" /><a:midPointStop
         offset="0"
         style="stop-color:#FFFFFF" /><a:midPointStop
         offset="0.5"
         style="stop-color:#FFFFFF" /><a:midPointStop
         offset="1"
         style="stop-color:#DFDFEC" /></linearGradient><linearGradient
       id="path16_3_"
       gradientUnits="userSpaceOnUse"
       x1="76.635696"
       y1="27.1621"
       x2="81.575798"
       y2="22.468901"><stop
         offset="0"
         style="stop-color:rgb(255,255,255)"
         id="stop14-1" /><stop
         offset="1"
         style="stop-color:rgb(223,223,236)"
         id="stop15-8-4" /><a:midPointStop
         offset="0"
         style="stop-color:#FFFFFF" /><a:midPointStop
         offset="0.5"
         style="stop-color:#FFFFFF" /><a:midPointStop
         offset="1"
         style="stop-color:#DFDFEC" /></linearGradient><linearGradient
       id="XMLID_5_-7"
       gradientUnits="userSpaceOnUse"
       x1="53.142101"
       y1="0.1851"
       x2="113.11"
       y2="70.919998"><stop
         offset="0"
         style="stop-color:rgb(217,217,217)"
         id="stop16-9-3" /><stop
         offset="1"
         style="stop-color:rgb(87,87,151)"
         id="stop17-2" /><a:midPointStop
         offset="0"
         style="stop-color:#D9D9D9" /><a:midPointStop
         offset="0.5"
         style="stop-color:#D9D9D9" /><a:midPointStop
         offset="1"
         style="stop-color:#575797" /></linearGradient><linearGradient
       id="XMLID_6_-7"
       gradientUnits="userSpaceOnUse"
       x1="65.5215"
       y1="109.3271"
       x2="65.5215"
       y2="46.861301"><stop
         offset="0"
         style="stop-color:#3FA600"
         id="stop14-2" /><stop
         offset="1"
         style="stop-color:#008300"
         id="stop15-4" /><a:midPointStop
         offset="0"
         style="stop-color:#3FA600" /><a:midPointStop
         offset="0.5"
         style="stop-color:#3FA600" /><a:midPointStop
         offset="1"
         style="stop-color:#008300" /></linearGradient><linearGradient
       inkscape:collect="always"
       xlink:href="#linearGradient1"
       id="linearGradient2"
       x1="52.515255"
       y1="83.787643"
       x2="102.84141"
       y2="235.06218"
       gradientUnits="userSpaceOnUse" /><linearGradient
       inkscape:collect="always"
       xlink:href="#linearGradient4"
       id="linearGradient5"
       x1="43.16869"
       y1="94.619362"
       x2="220.06821"
       y2="170.97055"
       gradientUnits="userSpaceOnUse"
       gradientTransform="translate(0,5.2916667)" /><linearGradient
       inkscape:collect="always"
       xlink:href="#linearGradient7"
       id="linearGradient8"
       x1="82.853554"
       y1="110.11504"
       x2="251.36699"
       y2="213.81561"
       gradientUnits="userSpaceOnUse" /><linearGradient
       inkscape:collect="always"
       xlink:href="#linearGradient9"
       id="linearGradient10"
       x1="110.0799"
       y1="45.966957"
       x2="209.36598"
       y2="194.65266"
       gradientUnits="userSpaceOnUse" /><linearGradient
       inkscape:collect="always"
       xlink:href="#linearGradient6"
       id="linearGradient20"
       gradientUnits="userSpaceOnUse"
       gradientTransform="translate(0,5.2916667)"
       x1="43.16869"
       y1="94.619362"
       x2="220.06821"
       y2="170.97055" /><linearGradient
       inkscape:collect="always"
       xlink:href="#linearGradient7"
       id="linearGradient21"
       gradientUnits="userSpaceOnUse"
       x1="82.853554"
       y1="110.11504"
       x2="251.36699"
       y2="213.81561" /><linearGradient
       inkscape:collect="always"
       xlink:href="#linearGradient9"
       id="linearGradient22"
       gradientUnits="userSpaceOnUse"
       x1="110.0799"
       y1="45.966957"
       x2="209.36598"
       y2="194.65266" /><linearGradient
       inkscape:collect="always"
       xlink:href="#linearGradient11"
       id="linearGradient14"
       x1="60.606758"
       y1="187.50502"
       x2="74.973244"
       y2="30.256107"
       gradientUnits="userSpaceOnUse" /><linearGradient
       inkscape:collect="always"
       xlink:href="#linearGradient15"
       id="linearGradient16"
       x1="100.16369"
       y1="95.159004"
       x2="189.06003"
       y2="184.36139"
       gradientUnits="userSpaceOnUse" /><linearGradient
       inkscape:collect="always"
       xlink:href="#linearGradient17"
       id="linearGradient18"
       x1="55.788521"
       y1="198.5321"
       x2="48.226624"
       y2="15.571447"
       gradientUnits="userSpaceOnUse" /><linearGradient
       gradientTransform="matrix(-0.014,-0.014,-0.0162,0.0162,32.75,6.3)"
       gradientUnits="userSpaceOnUse"
       id="gradient15"
       spreadMethod="pad"
       x1="-819.20001"
       x2="819.20001"><stop
         offset="0.0"
         stop-color="#dddddd"
         id="stop156" /><stop
         offset="1.0"
         stop-color="#ffffff"
         id="stop158" /></linearGradient><linearGradient
       gradientTransform="matrix(0,-0.0283,-0.0112,0,10.6,30.75)"
       gradientUnits="userSpaceOnUse"
       id="gradient16"
       spreadMethod="pad"
       x1="-819.20001"
       x2="819.20001"><stop
         offset="0.0"
         stop-color="#cccccc"
         id="stop161" /><stop
         offset="1.0"
         stop-color="#ffffff"
         id="stop163" /></linearGradient><linearGradient
       gradientTransform="matrix(0,-0.0016,-0.0058,0,18.35,8.8)"
       gradientUnits="userSpaceOnUse"
       id="gradient17"
       spreadMethod="pad"
       x1="-819.20001"
       x2="819.20001"><stop
         offset="0.0"
         stop-color="#dddddd"
         id="stop166" /><stop
         offset="1.0"
         stop-color="#ffffff"
         id="stop168" /></linearGradient><linearGradient
       gradientTransform="matrix(0.0055,0,0,-0.0224,21.1,35.4)"
       gradientUnits="userSpaceOnUse"
       id="gradient18"
       spreadMethod="pad"
       x1="-819.20001"
       x2="819.20001"><stop
         offset="0.0"
         stop-color="#999999"
         id="stop171" /><stop
         offset="1.0"
         stop-color="#ffffff"
         id="stop173" /></linearGradient><linearGradient
       gradientTransform="matrix(0,-0.0118,-0.0102,0,42.5,28.85)"
       gradientUnits="userSpaceOnUse"
       id="gradient19"
       spreadMethod="pad"
       x1="-819.20001"
       x2="819.20001"><stop
         offset="0.0"
         stop-color="#666666"
         id="stop176" /><stop
         offset="1.0"
         stop-color="#999999"
         id="stop178" /></linearGradient><linearGradient
       gradientTransform="matrix(0,-0.0289,-0.0246,0,38.85,28.45)"
       gradientUnits="userSpaceOnUse"
       id="gradient20"
       spreadMethod="pad"
       x1="-819.20001"
       x2="819.20001"><stop
         offset="0.0"
         stop-color="#ffffff"
         id="stop181" /><stop
         offset="1.0"
         stop-color="#999999"
         id="stop183" /></linearGradient><linearGradient
       gradientTransform="matrix(0,0.0191,0.0165,0,41.45,29)"
       gradientUnits="userSpaceOnUse"
       id="gradient21"
       spreadMethod="pad"
       x1="-819.20001"
       x2="819.20001"><stop
         offset="0.0"
         stop-color="#ffffff"
         id="stop186" /><stop
         offset="1.0"
         stop-color="#999999"
         id="stop188" /></linearGradient><linearGradient
       gradientTransform="matrix(0,0.0033,0.0028,0,42.8,28.95)"
       gradientUnits="userSpaceOnUse"
       id="gradient22"
       spreadMethod="pad"
       x1="-819.20001"
       x2="819.20001"><stop
         offset="0.0"
         stop-color="#0099ff"
         id="stop191" /><stop
         offset="1.0"
         stop-color="#003399"
         id="stop193" /></linearGradient></defs><sodipodi:namedview
     id="base"
     pagecolor="#ffffff"
     bordercolor="#000000"
     borderopacity="0.3"
     inkscape:pageopacity="0.0"
     inkscape:pageshadow="2"
     inkscape:zoom="0.98994949"
     inkscape:cx="505.07627"
     inkscape:cy="476.792"
     inkscape:document-units="mm"
     inkscape:showpageshadow="2"
     inkscape:pagecheckerboard="0"
     inkscape:deskcolor="#d1d1d1"
     inkscape:current-layer="svg1"
     showguides="true"><sodipodi:guide
       position="46.49107,121.58221"
       orientation="1,0"
       id="guide16"
       inkscape:locked="false" /><sodipodi:guide
       position="98.651783,154.51339"
       orientation="0,-1"
       id="guide17"
       inkscape:locked="false" /></sodipodi:namedview><metadata
     id="metadata1"><rdf:RDF><cc:Work
         rdf:about=""><dc:format>image/svg+xml</dc:format><dc:type
           rdf:resource="http://purl.org/dc/dcmitype/StillImage" /><cc:license
           rdf:resource="http://creativecommons.org/publicdomain/zero/1.0/" /></cc:Work><cc:License
         rdf:about="http://creativecommons.org/publicdomain/zero/1.0/"><cc:permits
           rdf:resource="http://creativecommons.org/ns#Reproduction" /><cc:permits
           rdf:resource="http://creativecommons.org/ns#Distribution" /><cc:permits
           rdf:resource="http://creativecommons.org/ns#DerivativeWorks" /></cc:License></rdf:RDF></metadata><g
     id="g12"
     inkscape:label="shadowclose"
     style="display:inline"
     transform="matrix(1.0330579,0,0,1.0330579,-2.2035813,8.8493538)"><path
       style="color:#000000;display:inline;fill:#000000;fill-opacity:0.0929705;stroke-width:1.16609;stroke-linecap:round;stroke-linejoin:bevel;-inkscape-stroke:none"
       d="m 16.252978,44.341516 36.105011,-33.002229 61.957981,0.435815 33.87631,31.694784 c 0,0 64.12877,-2.115614 79.86291,-0.435815 24.52209,2.341258 21.16667,32.153051 21.16667,32.153051 l 0.11037,104.144978 c 0.48637,27.64938 -0.40781,45.25999 -29.66029,47.44855 L 36.130614,226.40267 C 11.402737,224.00742 9.4751688,205.49428 10.205359,188.98303 Z"
       id="path12"
       sodipodi:nodetypes="ccccccccccc"
       inkscape:label="shadow" /><path
       style="color:#000000;display:inline;fill:#000000;fill-opacity:0.0929705;stroke-width:1.16609;stroke-linecap:round;stroke-linejoin:bevel;-inkscape-stroke:none"
       d="m 16.252978,44.341516 36.105011,-33.002229 56.288341,0.435815 33.87631,31.694784 c 0,0 63.81419,-0.815135 78.72898,4.477875 25.40122,6.806235 21.73362,28.37329 21.73362,28.37329 l 0.65315,100.365219 c 0.15291,23.49695 -2.94787,40.38154 -25.10037,41.77891 L 41.044304,220.35505 C 21.259354,217.1328 10.22349,205.93759 10.205359,188.98303 Z"
       id="path14"
       sodipodi:nodetypes="ccccccscccc"
       inkscape:label="shadow" /><path
       style="color:#000000;display:inline;fill:#000000;fill-opacity:0.0929705;stroke-width:1.16609;stroke-linecap:round;stroke-linejoin:bevel;-inkscape-stroke:none"
       d="m 16.252978,44.341516 36.105011,-33.002229 50.240721,-0.698114 33.87631,31.694784 c 0,0 55.26431,0.640556 80.99684,9.391566 12.38959,4.213398 19.15438,6.906208 19.65476,18.545909 1.39024,32.339248 3.27511,68.180748 2.34194,102.255098 -0.25256,9.22222 -2.31668,19.70368 -4.68414,27.65066 -2.70543,9.08145 -10.52594,12.93783 -21.91604,11.86039 L 43.312161,211.6616 c -14.52793,-0.076 -31.881718,-7.49369 -33.106802,-22.67857 z"
       id="path15"
       sodipodi:nodetypes="ccccsssscccc"
       inkscape:label="shadow" /><path
       style="color:#000000;display:inline;fill:#000000;fill-opacity:0.0929705;stroke-width:1.16609;stroke-linecap:round;stroke-linejoin:bevel;-inkscape-stroke:none"
       d="m 16.252978,44.341516 36.105011,-33.002229 48.236201,0.237329 31.20361,31.29388 c 0,0 56.89843,-2.363022 81.26411,9.926105 21.18433,10.684576 18.6584,27.170577 18.6584,27.170577 l 2.7121,92.195472 c 0,32.74973 -5.17276,36.66642 -30.25748,35.15222 L 42.367221,204.29106 c -13.969449,0.1705 -30.178506,-3.91126 -32.161862,-19.45071 z"
       id="path16"
       sodipodi:nodetypes="ccccscccccc"
       inkscape:label="shadow" /></g><g
     id="g13"
     inkscape:label="shadowopen"
     style="display:none"
     transform="matrix(1.0068174,0,0,1.0068174,-1.9389142,9.1285845)"><path
       style="color:#000000;display:inline;fill:#000000;fill-opacity:0.0929705;stroke-width:1.16609;stroke-linecap:round;stroke-linejoin:bevel;-inkscape-stroke:none"
       d="m 16.252978,44.341516 36.105011,-33.002229 73.183301,0.435815 33.87631,31.694784 c 0,0 40.06412,5.288391 60.8358,7.390766 19.90983,2.015143 34.77394,20.150305 34.00533,42.193175 -0.41964,12.034643 0.54567,36.121743 0.54567,36.121743 l -0.36685,29.84405 c -3.37229,55.09309 -15.97567,67.3805 -34.76561,67.76103 -54.79223,1.10965 -100.65039,3.04728 -156.705016,2.26785 C 26.62644,228.5432 10.961311,193.51874 10.961311,193.51874 Z"
       id="path13"
       sodipodi:nodetypes="ccccssccsscc"
       inkscape:label="shadow" /><path
       style="color:#000000;display:inline;fill:#000000;fill-opacity:0.0929705;stroke-width:1.16609;stroke-linecap:round;stroke-linejoin:bevel;-inkscape-stroke:none"
       d="m 16.252978,44.341516 36.105011,-33.002229 62.492521,0.435815 33.87631,31.694784 c 0,0 43.43472,9.086572 65.43036,8.651349 17.27416,-0.3418 40.22607,21.832063 40.10155,40.932592 -0.12988,19.923203 -0.87504,24.665753 -1.88892,46.375883 -2.14937,46.02402 -10.40288,78.69306 -36.97418,78.79832 0,0 -117.138269,5.09652 -174.454164,0.69109 -14.259757,-1.09604 -30.736107,-29.93609 -30.736107,-29.93609 z"
       id="path22"
       sodipodi:nodetypes="ccccssssscc"
       inkscape:label="shadow" /><path
       style="color:#000000;display:inline;fill:#000000;fill-opacity:0.124717;stroke-width:1.16609;stroke-linecap:round;stroke-linejoin:bevel;-inkscape-stroke:none"
       d="m 16.252978,44.341516 36.105011,-33.002229 57.147131,0.435815 33.87631,31.694784 c 0,0 43.12388,9.373494 64.91712,9.407302 20.39888,0.03164 46.66344,25.415249 47.41707,45.783098 0.82469,22.288574 -6.28806,65.998724 -7.13024,69.814724 -5.87003,26.59754 -3.56567,35.68331 -38.53514,43.33855 0,0 -110.978839,8.49353 -166.970618,1.22563 -13.465677,-1.74788 -32.874263,-24.05616 -32.874263,-24.05616 z"
       id="path23"
       sodipodi:nodetypes="ccccssscscc"
       inkscape:label="shadow" /><path
       style="color:#000000;display:inline;fill:url(#linearGradient16);stroke-width:1.16609;stroke-linecap:round;stroke-linejoin:bevel;-inkscape-stroke:none"
       d="m 16.252978,44.341516 36.105011,-33.002229 50.732661,0.435815 33.87631,31.694784 72.37937,13.462201 c 0,0 30.91772,5.843599 38.11483,12.001167 9.82151,8.402891 11.79254,44.628786 -9.44459,97.064406 -21.23714,52.43562 -15.70419,40.42994 -76.98295,40.56311 0,0 -56.11246,0.17817 -111.852655,-0.27603 -13.55581,-0.11047 -38.975606,-17.30171 -38.975606,-17.30171 z"
       id="path24"
       sodipodi:nodetypes="cccccszcscc"
       inkscape:label="shadow" /></g><g
     id="rect1"
     style="display:inline"
     inkscape:label="back"
     transform="matrix(1.0272988,0,0,1.0272988,-2.0291602,8.9067299)"><path
       style="color:#000000;fill:url(#linearGradient2);stroke-linecap:round;stroke-linejoin:bevel;-inkscape-stroke:none"
       d="m 12.095239,51.404763 30.616074,-32.883928 52.538689,0.377976 28.726198,31.75 78.61905,-0.377976 V 176.85026 H 12.095239 Z"
       id="path2"
       sodipodi:nodetypes="cccccccc" /><path
       id="rect3"
       style="display:inline;fill:#ffffff;stroke-width:15.377;stroke-linecap:round;stroke-linejoin:bevel"
       d="m 17.639788,55.324789 28.330568,-30.468726 45.435817,0.534539 29.934187,31.270535 75.10273,-0.26727 v 14.432554 l -80.01642,0.26727 -30.150038,-31.270535 -35.927125,0.26727 -33.244258,36.138369 z"
       sodipodi:nodetypes="ccccccccccc" /><path
       style="color:#000000;fill:#cea221;stroke-linecap:round;stroke-linejoin:bevel;-inkscape-stroke:none"
       d="M 42.767578,10.832031 37.083984,13.28125 6.46875,46.166016 4.40625,51.404297 V 176.84951 c 0.9154791,4.21083 2.5425773,7.71003 7.689453,7.68946 H 202.5957 l 7.6875,-7.68946 V 50.271484 c 0.24504,-4.443094 -1.57408,-7.510076 -7.72461,-7.689453 l -75.18554,0.361328 -26.42188,-29.203125 -5.646483,-2.529296 z m 3.267578,15.402344 45.78125,0.328125 26.458984,29.244141 5.73828,2.53125 70.89258,-0.341797 V 169.16201 H 19.783203 V 54.431641 Z"
       id="path3"
       sodipodi:nodetypes="ccccccccccccccccccccccc" /></g><g
     id="rect4"
     inkscape:label="close"
     style="display:inline"
     transform="matrix(1.046868,0,0,1.0272988,-6.4097406,12.476083)"><path
       style="color:#000000;fill:url(#linearGradient5);stroke-linejoin:bevel;-inkscape-stroke:none"
       d="M 39.948839,84.560004 50.070576,71.031306 148.56455,70.196909 h 67.59491 V 187.45551 H 39.948839 Z"
       id="path5"
       sodipodi:nodetypes="ccccccc" /><path
       id="rect7"
       style="fill:url(#linearGradient8);stroke-width:15.377;stroke-linejoin:bevel"
       d="M 38.443449,169.44888 H 195.37402 l 0.46773,-73.755263 h 17.3057 c -0.28876,34.032403 2.27179,61.637733 2.27179,95.671363 L 46.728804,187.08867 Z"
       sodipodi:nodetypes="ccccccc" /><path
       id="path7"
       style="display:inline;fill:url(#linearGradient18);stroke-width:15.377;stroke-linecap:round;stroke-linejoin:bevel"
       d="m 46.392076,181.98385 0.07351,-107.391098 102.868614,0.230236 61.47199,1.603617 v 20.312484 h -57.29851 l -88.12199,0.180167 -0.04755,85.323034 z"
       sodipodi:nodetypes="ccccccccc" /><path
       style="color:#000000;fill:url(#linearGradient10);stroke-linejoin:bevel;-inkscape-stroke:none"
       d="m 40.137595,62.33389 c -6.760736,-0.235673 -7.178598,4.309136 -7.6875,8.241352 L 31.694143,187.45508 c 0.674417,4.18151 3.271374,6.71512 7.6875,7.68945 H 216.16016 c 5.83804,0.29423 7.75626,-2.83094 7.6875,-7.68945 V 70.197079 c -0.16186,-5.049533 -2.53805,-7.943617 -7.6875,-7.827428 -58.45149,0 -116.731075,-0.03576 -176.022565,-0.03576 z M 208.4707,77.884579 V 179.76758 H 47.071096 L 47.827048,78.262742 c 59.235472,0.0065 101.404572,-0.378163 160.643652,-0.378163 z"
       id="path6"
       sodipodi:nodetypes="cccccccccccccc" /></g><g
     id="g20"
     inkscape:label="open"
     style="display:none"
     transform="matrix(1.0272988,0,-0.22903094,0.93647609,33.604309,21.96265)"><path
       style="color:#000000;fill:url(#linearGradient20);stroke-linejoin:bevel;-inkscape-stroke:none"
       d="m 22.886951,78.134409 h 97.392209 l 28.28539,-14.363095 h 67.59491 V 187.45551 H 22.886951 Z"
       id="path17" /><path
       id="path18"
       style="fill:url(#linearGradient21);stroke-width:15.377;stroke-linejoin:bevel"
       d="M 21.381561,169.44888 H 195.37402 l 0.46773,-80.180858 h 17.3057 c -0.28876,34.032398 2.27179,68.063328 2.27179,102.096958 L 29.666916,187.08867 Z"
       sodipodi:nodetypes="ccccccc" /><path
       id="path19"
       style="display:inline;fill:url(#linearGradient14);stroke-width:15.377;stroke-linecap:round;stroke-linejoin:bevel"
       d="m 26.196468,77.472204 c 0,0 61.529128,0.829797 93.811602,-0.801808 l 30.71274,-2.053499 61.47199,1.603617 4.16268,20.312484 H 55.486552 c 5.546427,25.710512 7.894291,67.591662 -3.012082,95.226152 l -20.345138,-3.97048 c -1.199998,-29.74052 2.240856,-57.5062 -5.932864,-90.214271 z"
       sodipodi:nodetypes="cccccccccc" /><path
       style="color:#000000;fill:url(#linearGradient22);stroke-linejoin:bevel;-inkscape-stroke:none"
       d="m 149.95106,62.301535 -3.48047,0.833985 C 102.32048,62.548127 63.464386,62.567274 21.130351,62.567274 c -6.756833,-0.830807 -6.851232,3.729475 -7.6875,7.689454 11.672833,51.561032 8.047695,91.093652 4.459577,124.528112 -0.339785,3.16615 4.426923,5.1263 7.6875,7.68945 H 218.86337 c 3.67232,-2.70006 6.52227,-7.72863 8.2627,-15.89878 5.68917,-38.86151 6.4991,-77.72301 -1.8918,-116.584522 -1.05751,-2.362904 -1.02105,-4.580249 -7.6875,-7.689453 z m 1.83985,15.376953 h 58.0664 c 8.73588,37.930492 4.82746,73.639752 1.3166,109.418852 H 33.279381 c 6.637531,-31.51664 5.60206,-72.67072 -4.459577,-109.153112 45.521495,-0.874055 78.037736,0.03645 122.971106,-0.26574 z"
       id="path20"
       sodipodi:nodetypes="ccccscccccccccccc" /></g><g
     id="g2"
     transform="matrix(2.6365087,0,0,2.6365087,94.399394,109.53521)"><path
       style="fill:#666666;fill-rule:evenodd;stroke:none"
       inkscape:connector-curvature="0"
       id="path10"
       d="m 39.7,25.5 c 0.833333,-1.066667 1.866667,-1.666667 3.1,-1.8 1.2,-0.1 2.233333,0.3 3.1,1.2 0.833333,0.9 1.25,2.066667 1.25,3.5 l -0.05,0.95 c -0.166667,1 -0.583333,1.916667 -1.25,2.75 -0.833333,1.033333 -1.85,1.633333 -3.05,1.8 -1.233333,0.1 -2.266667,-0.3 -3.1,-1.2 -0.4,-0.4 -0.7,-0.866667 -0.9,-1.4 -0.266667,-0.6 -0.4,-1.283333 -0.4,-2.05 0,-1.433333 0.433333,-2.683333 1.3,-3.75 m -4.6,-12.25 -0.25,-2.5 6.1,-1.1 v 2.5 l -5.85,1.1 m 21,-5.7 V 10.5 L 46,12.4 V 9.45 L 56.1,7.55 M 44.55,2.2 52,3.7 41.7,5.55 35.5,3.95 44.55,2.2 m 0.55,26.45 c 0,-0.7 -0.216667,-1.3 -0.65,-1.8 -0.466667,-0.5 -1,-0.7 -1.6,-0.6 -0.666667,0.03333 -1.216667,0.333333 -1.65,0.9 -0.466667,0.6 -0.7,1.266667 -0.7,2 0,0.633333 0.183333,1.183333 0.55,1.65 l 0.15,0.15 c 0.433333,0.466667 0.983333,0.683333 1.65,0.65 0.633333,-0.1 1.166667,-0.433333 1.6,-1 l 0.4,-0.7 0.25,-1.25"
       sodipodi:nodetypes="cccccccccsccccccccccccccccccccscccccc" /><path
       style="fill:#999999;fill-rule:evenodd;stroke:none"
       inkscape:connector-curvature="0"
       id="path12-7"
       d="M 1.45,12.85 12.8,16.4 12.35,46.9 1.9,41.8 1.85,41.55 1.65,40.35 1.8,40.4 11.1,44.8 11.35,17.25 1.65,14.1 1.45,12.9 v -0.05 m 3.35,4.6 1.3,0.4 V 39.5 L 4.8,38.85 V 17.45 M 21.85,24 21.65,24.75 Q 21.45,25 20.9,25.05 L 20.55,25 q -0.6,-0.2 -0.6,-1 0,-0.8 0.5,-1 l 0.45,-0.1 q 0.45,0 0.7,0.25 L 21.85,24 m -0.95,4.6 q 0.95,0 0.95,1.05 0,1.05 -0.95,1.05 -0.95,0 -0.95,-1.05 0,-0.95 0.8,-1.05 h 0.15 m 0.7,5.3 q 0.35,0.25 0.4,0.9 l -0.05,0.45 q -0.2,0.55 -0.95,0.6 -0.95,-0.05 -0.95,-1.05 0,-1.1 0.95,-1.05 h 0.05 l 0.55,0.15 m 0.4,6.15 q -0.05,1.1 -1,1.1 -0.95,0 -0.95,-1.1 0,-1 0.95,-1 0.95,0 1,1 m -0.05,5.25 q -0.05,1 -0.95,1 -0.95,0 -0.95,-1 0,-1.1 0.95,-1.1 0.9,0 0.95,1.1" /><path
       style="fill:#333333;fill-rule:evenodd;stroke:none"
       inkscape:connector-curvature="0"
       id="path14-5"
       d="M 32.8,1.85 35.3,1.45 43.7,0 c 7.566667,1.7 11.983333,2.6 13.25,2.7 1.833333,0.5666667 3.033333,1.85 3.6,3.85 L 60.4,26.3 60.3,37 c -0.266667,2.8 -1.3,4.483333 -3.1,5.05 -24.266667,8.233333 -36.966667,12.433333 -38.1,12.6 -2.415486,0.596996 -4.760043,0.902399 -6.75,-0.25 L 2.9,48.95 c -1.5333333,-0.7 -2.36666667,-2.366667 -2.5,-5 L 0,14.1 C 0,9.7333333 1.8833333,7.2166667 5.65,6.55 L 19.45,4.15 20.55,4 22.7,3.6 31.55,2.05 32.8,1.85 m -9.6,6 c 1.3,0.4 1.966667,0.9333333 2,1.6 L 25,10 57.2,3.8 44.15,1.25 7.75,7.4 12,8.45 c 0.333333,-0.2333333 0.8,-0.4333333 1.4,-0.6 1.3,-0.4666667 2.933333,-0.7 4.9,-0.7 l 1.3,0.05 1.1,0.1 2.2,0.45 0.3,0.1 M 23.15,8.8 22.95,8.35 C 22.616667,8.0166667 21.883333,7.7833333 20.75,7.65 L 19.65,7.6 18.4,7.55 c -3.2,0 -4.8,0.4166667 -4.8,1.25 0,0.8666667 1.6,1.3 4.8,1.3 h 1.35 L 20.85,10 C 21.983333,9.8333333 22.7,9.5833333 23,9.25 L 23.15,8.8 m -0.9,2.95 -1.25,0.5 c -0.433333,0.2 -0.8,0.45 -1.1,0.75 -0.733333,0.733333 -1.133333,1.733333 -1.2,3 l 1.4,0.25 1.1,0.25 2.25,0.8 c 1.2,0.566667 2.1,1.266667 2.7,2.1 0.4,0.6 0.65,1.283333 0.75,2.05 l -0.15,12.7 -0.2,11.65 c -0.133333,3.233333 -1.6,5.35 -4.4,6.35 l 34.4,-11.2 c 1.533333,-0.566667 2.366667,-2.016667 2.5,-4.35 V 6.95 C 58.916667,5.1166667 58.016667,4.4 56.35,4.8 l -27.4,5.6 -5.85,1.2 -0.85,0.15 M 17.05,17 v -0.8 c -0.03333,-1.633333 0.783333,-3.116667 2.45,-4.45 H 18.3 L 13.4,11.1 C 12,10.633333 11.316667,10.083333 11.35,9.45 V 9.3 L 5.4,7.55 C 2.9333333,7.95 1.6166667,9.7166667 1.45,12.85 V 12.9 13 l 0.35,27.4 -0.15,-0.05 0.2,1.2 0.05,3 c -0.1666667,1.666667 0.45,2.783333 1.85,3.35 5.3,3.233333 8.45,5.066667 9.45,5.5 1.5,0.633333 2.666667,0.733333 3.5,0.3 6.3,-1.566667 9.133333,-4.616667 8.5,-9.15 l 0.45,-22.7 -0.1,-0.55 C 25.283333,20.233333 24.6,19.35 23.5,18.65 22.9,18.283333 22.166667,17.966667 21.3,17.7 L 20.15,17.45 17.05,17 m 22.65,8.5 c -0.866667,1.066667 -1.3,2.316667 -1.3,3.75 0,0.766667 0.133333,1.45 0.4,2.05 0.2,0.533333 0.5,1 0.9,1.4 0.833333,0.9 1.866667,1.3 3.1,1.2 1.2,-0.166667 2.216667,-0.766667 3.05,-1.8 0.666667,-0.833333 1.083333,-1.75 1.25,-2.75 l 0.05,-0.95 c 0,-1.433333 -0.416667,-2.6 -1.25,-3.5 -0.866667,-0.9 -1.9,-1.3 -3.1,-1.2 -1.233333,0.133333 -2.266667,0.733333 -3.1,1.8 m -3.4,6.4 c -0.233333,-0.766667 -0.35,-1.583333 -0.35,-2.45 0,-2.133333 0.666667,-4 2,-5.6 1.266667,-1.7 2.833333,-2.616667 4.7,-2.75 1.833333,-0.166667 3.4,0.433333 4.7,1.8 1.266667,1.4 1.9,3.166667 1.9,5.3 v 0.65 c -0.133333,1.833333 -0.766667,3.483333 -1.9,4.95 -1.3,1.566667 -2.866667,2.45 -4.7,2.65 -1.866667,0.2 -3.433333,-0.383333 -4.7,-1.75 -0.8,-0.8 -1.35,-1.733333 -1.65,-2.8 m -3.95,-2.25 c 0,-3.266667 0.983333,-6.133333 2.95,-8.6 2,-2.466667 4.416667,-3.816667 7.25,-4.05 2.766667,-0.233333 5.116667,0.7 7.05,2.8 1.933333,2.1 2.9,4.75 2.9,7.95 v 0.35 c -0.1,3 -1.083333,5.7 -2.95,8.1 -1.933333,2.4 -4.283333,3.766667 -7.05,4.1 -2.8,0.3 -5.183333,-0.6 -7.15,-2.7 -1.333333,-1.366667 -2.216667,-2.983333 -2.65,-4.85 -0.233333,-0.966667 -0.35,-2 -0.35,-3.1 m 2.15,2.7 c 0.366667,1.466667 1.066667,2.766667 2.1,3.9 1.633333,1.7 3.616667,2.433333 5.95,2.2 2.266667,-0.266667 4.216667,-1.4 5.85,-3.4 1.5,-1.9 2.3,-4.083333 2.4,-6.55 v -0.45 c 0.03333,-2.666667 -0.766667,-4.866667 -2.4,-6.6 -1.6,-1.733333 -3.55,-2.5 -5.85,-2.3 -2.333333,0.2 -4.316667,1.333333 -5.95,3.4 -1.633333,2.033333 -2.433333,4.4 -2.4,7.1 -0.03333,0.933333 0.06667,1.833333 0.3,2.7 M 56.1,7.55 46,9.45 V 12.4 L 56.1,10.5 V 7.55 m 0.85,-1.9 v 5.5 L 46,13.25 45.8,7.8 56.95,5.65"
       sodipodi:nodetypes="cccccccccccccccccccccccccccccccccccccssccccccsccccccccccccccccccccccccccccccccccccccccccsccccccccccscccsccccccccssccccccccccccccccccccccccccc" /><path
       inkscape:connector-curvature="0"
       style="fill:url(#gradient15);fill-rule:evenodd;stroke:none"
       id="path46"
       d="M 23.2,7.85 22.9,7.75 20.7,7.3 19.6,7.2 18.3,7.15 q -2.95,0 -4.9,0.7 Q 12.5,8.1 12,8.45 L 7.75,7.4 44.15,1.25 57.2,3.8 25,10 25.2,9.45 q -0.05,-1 -2,-1.6 M 44.55,2.2 35.5,3.95 41.7,5.55 52,3.7 44.55,2.2" /><path
       inkscape:connector-curvature="0"
       style="fill:url(#gradient16);fill-rule:evenodd;stroke:none"
       id="path48"
       d="M 1.45,12.85 Q 1.7,8.15 5.4,7.55 L 11.35,9.3 V 9.45 Q 11.3,10.4 13.4,11.1 l 4.9,0.65 h 1.2 q -2.5,2 -2.45,4.45 V 17 L 16.8,53.6 16.7,53.7 Q 15.45,54.35 13.2,53.4 11.7,52.75 3.75,47.9 1.65,47.05 1.9,44.55 L 1.85,41.55 1.9,41.8 12.35,46.9 12.8,16.4 1.45,12.85 m 3.35,4.6 v 21.4 L 6.1,39.5 V 17.85 l -1.3,-0.4 m -3.35,-4.55 0.2,1.2 9.7,3.15 L 11.1,44.8 1.8,40.4 1.45,13 v -0.1" /><path
       inkscape:connector-curvature="0"
       style="fill:url(#gradient17);fill-rule:evenodd;stroke:none"
       id="path50"
       d="M 23.15,8.8 23,9.25 Q 22.55,9.75 20.85,10 l -1.1,0.1 H 18.4 q -4.8,0 -4.8,-1.3 0,-1.25 4.8,-1.25 l 1.25,0.05 1.1,0.05 q 1.7,0.2 2.2,0.7 l 0.2,0.45" /><path
       inkscape:connector-curvature="0"
       style="fill:url(#gradient18);fill-rule:evenodd;stroke:none"
       id="path52"
       d="m 16.7,53.7 0.1,-0.1 0.25,-36.6 3.1,0.45 1.15,0.25 q 1.3,0.4 2.2,0.95 1.65,1.05 2.05,2.65 l 0.1,0.55 -0.45,22.7 q 0.95,6.8 -8.5,9.15 M 21.6,33.9 21.05,33.75 H 21 q -0.95,-0.05 -0.95,1.05 0,1 0.95,1.05 0.75,-0.05 0.95,-0.6 L 22,34.8 q -0.05,-0.65 -0.4,-0.9 m -0.7,-5.3 h -0.15 q -0.8,0.1 -0.8,1.05 0,1.05 0.95,1.05 0.95,0 0.95,-1.05 0,-1.05 -0.95,-1.05 M 21.85,24 21.6,23.15 Q 21.35,22.9 20.9,22.9 L 20.45,23 q -0.5,0.2 -0.5,1 0,0.8 0.6,1 l 0.35,0.05 Q 21.45,25 21.65,24.75 L 21.85,24 m 0.1,21.3 Q 21.9,44.2 21,44.2 q -0.95,0 -0.95,1.1 0,1 0.95,1 0.9,0 0.95,-1 M 22,40.05 q -0.05,-1 -1,-1 -0.95,0 -0.95,1 0,1.1 0.95,1.1 0.95,0 1,-1.1" /><path
       inkscape:connector-curvature="0"
       style="fill:url(#gradient19);fill-rule:evenodd;stroke:none"
       id="path54"
       d="m 36.3,31.9 q 0.45,1.6 1.65,2.8 1.9,2.05 4.7,1.75 2.75,-0.3 4.7,-2.65 1.7,-2.2 1.9,-4.95 V 28.2 q 0,-3.2 -1.9,-5.3 -1.95,-2.05 -4.7,-1.8 -2.8,0.2 -4.7,2.75 -2,2.4 -2,5.6 0,1.3 0.35,2.45 m -1.8,0.45 q -0.35,-1.3 -0.3,-2.7 -0.05,-4.05 2.4,-7.1 2.45,-3.1 5.95,-3.4 3.45,-0.3 5.85,2.3 2.45,2.6 2.4,6.6 v 0.45 q -0.15,3.7 -2.4,6.55 -2.45,3 -5.85,3.4 -3.5,0.35 -5.95,-2.2 -1.55,-1.7 -2.1,-3.9" /><path
       inkscape:connector-curvature="0"
       style="fill:url(#gradient20);fill-rule:evenodd;stroke:none"
       id="path56"
       d="m 22.25,11.75 0.85,-0.15 5.85,-1.2 27.4,-5.6 q 2.5,-0.6 2.7,2.15 V 36.6 q -0.2,3.5 -2.5,4.35 l -34.4,11.2 q 4.2,-1.5 4.4,-6.35 l 0.2,-11.65 0.15,-12.7 Q 26.75,20.3 26.15,19.4 25.25,18.15 23.45,17.3 L 21.2,16.5 20.1,16.25 18.7,16 q 0.1,-1.9 1.2,-3 0.45,-0.45 1.1,-0.75 l 1.25,-0.5 m 5.7,18.55 q 0,1.85 0.35,3.5 0.8,4.2 3.65,7.25 4.05,4.15 9.65,3.55 5.55,-0.65 9.45,-5.5 3.9,-5 3.9,-11.35 v -0.2 Q 54.95,21.25 51.1,17.1 47.15,12.9 41.65,13.35 36,13.85 32,18.8 27.95,23.75 27.95,30.3 m 7.15,-17.05 5.85,-1.1 v -2.5 l -6.1,1.1 0.25,2.5 M 56.95,5.65 45.8,7.8 46,13.25 56.95,11.15 v -5.5" /><path
       inkscape:connector-curvature="0"
       style="fill:url(#gradient21);fill-rule:evenodd;stroke:none"
       id="path58"
       d="m 27.95,30.3 q 0,-6.55 4.05,-11.5 4,-4.95 9.65,-5.45 5.5,-0.45 9.45,3.75 3.85,4.15 3.85,10.45 v 0.2 q 0,6.35 -3.9,11.35 -3.9,4.85 -9.45,5.5 Q 36,45.2 31.95,41.05 29.1,38 28.3,33.8 27.95,32.15 27.95,30.3 m 4.4,-0.65 q 0,1.65 0.35,3.1 0.65,2.8 2.65,4.85 2.95,3.15 7.15,2.7 4.15,-0.5 7.05,-4.1 2.8,-3.6 2.95,-8.1 v -0.35 q 0,-4.8 -2.9,-7.95 -2.9,-3.15 -7.05,-2.8 -4.25,0.35 -7.25,4.05 -2.95,3.7 -2.95,8.6" /><path
       inkscape:connector-curvature="0"
       style="fill:url(#gradient22);fill-rule:evenodd;stroke:none"
       id="path60"
       d="m 45.1,28.65 -0.25,1.25 -0.4,0.7 q -0.65,0.85 -1.6,1 -1,0.05 -1.65,-0.65 L 41.05,30.8 q -0.55,-0.7 -0.55,-1.65 0,-1.1 0.7,-2 0.65,-0.85 1.65,-0.9 0.9,-0.15 1.6,0.6 0.65,0.75 0.65,1.8" /></g></svg>
