<?xml version="1.0" encoding="UTF-8"?>
<svg version="1.1" xmlns="http://www.w3.org/2000/svg" width="64" height="64">
<path d="M0 0 C1.32 0 2.64 0 4 0 C4 0.66 4 1.32 4 2 C4.66 2 5.32 2 6 2 C6 2.66 6 3.32 6 4 C6.66 4 7.32 4 8 4 C8 4.66 8 5.32 8 6 C8.66 6 9.32 6 10 6 C10 6.66 10 7.32 10 8 C10.66 8 11.32 8 12 8 C12 8.66 12 9.32 12 10 C12.66 10 13.32 10 14 10 C14 10.66 14 11.32 14 12 C17.96 12 21.92 12 26 12 C26 12.66 26 13.32 26 14 C26.66 14 27.32 14 28 14 C28 15.32 28 16.64 28 18 C28.66 18 29.32 18 30 18 C30 18.66 30 19.32 30 20 C30.66 20 31.32 20 32 20 C32 23.3 32 26.6 32 30 C32.66 30 33.32 30 34 30 C34 30.66 34 31.32 34 32 C33.34 32 32.68 32 32 32 C32 40.58 32 49.16 32 58 C31.34 58 30.68 58 30 58 C30 58.66 30 59.32 30 60 C29.34 60 28.68 60 28 60 C28 60.66 28 61.32 28 62 C11.5 62 -5 62 -22 62 C-22 60.68 -22 59.36 -22 58 C-22.66 58 -23.32 58 -24 58 C-24 56.02 -24 54.04 -24 52 C-24.66 52 -25.32 52 -26 52 C-26 49.36 -26 46.72 -26 44 C-26.66 44 -27.32 44 -28 44 C-28 41.36 -28 38.72 -28 36 C-28.66 36 -29.32 36 -30 36 C-30 32.7 -30 29.4 -30 26 C-29.34 26 -28.68 26 -28 26 C-28 25.34 -28 24.68 -28 24 C-26.68 24 -25.36 24 -24 24 C-24 20.04 -24 16.08 -24 12 C-23.34 12 -22.68 12 -22 12 C-22 11.34 -22 10.68 -22 10 C-21.34 10 -20.68 10 -20 10 C-20 9.34 -20 8.68 -20 8 C-15.38 8 -10.76 8 -6 8 C-6 7.34 -6 6.68 -6 6 C-5.34 6 -4.68 6 -4 6 C-4 5.34 -4 4.68 -4 4 C-3.34 4 -2.68 4 -2 4 C-2 3.34 -2 2.68 -2 2 C-1.34 2 -0.68 2 0 2 C0 1.34 0 0.68 0 0 Z " fill="#F9DA82" transform="translate(30,0)"/>
<path d="M0 0 C0.66 0 1.32 0 2 0 C2 1.32 2 2.64 2 4 C2.66 4 3.32 4 4 4 C4 6.64 4 9.28 4 12 C3.34 12 2.68 12 2 12 C2 12.66 2 13.32 2 14 C2.66 14 3.32 14 4 14 C4 15.32 4 16.64 4 18 C3.34 18 2.68 18 2 18 C2 18.66 2 19.32 2 20 C1.34 20 0.68 20 0 20 C0 20.66 0 21.32 0 22 C-0.66 22 -1.32 22 -2 22 C-2 22.66 -2 23.32 -2 24 C-2.66 24 -3.32 24 -4 24 C-4 24.66 -4 25.32 -4 26 C-4.66 26 -5.32 26 -6 26 C-6 26.66 -6 27.32 -6 28 C-6.66 28 -7.32 28 -8 28 C-8 27.34 -8 26.68 -8 26 C-8.66 26 -9.32 26 -10 26 C-10 24.68 -10 23.36 -10 22 C-10.66 22 -11.32 22 -12 22 C-12 22.66 -12 23.32 -12 24 C-12.66 24 -13.32 24 -14 24 C-14 24.66 -14 25.32 -14 26 C-15.32 26 -16.64 26 -18 26 C-18 25.34 -18 24.68 -18 24 C-17.34 24 -16.68 24 -16 24 C-16 23.34 -16 22.68 -16 22 C-17.32 22 -18.64 22 -20 22 C-20 23.32 -20 24.64 -20 26 C-21.32 26 -22.64 26 -24 26 C-24 26.66 -24 27.32 -24 28 C-25.32 28 -26.64 28 -28 28 C-28 27.34 -28 26.68 -28 26 C-28.66 26 -29.32 26 -30 26 C-30 26.66 -30 27.32 -30 28 C-31.32 28 -32.64 28 -34 28 C-34 27.34 -34 26.68 -34 26 C-34.66 26 -35.32 26 -36 26 C-36 26.66 -36 27.32 -36 28 C-37.32 28 -38.64 28 -40 28 C-40 24.7 -40 21.4 -40 18 C-40.66 18 -41.32 18 -42 18 C-42 15.36 -42 12.72 -42 10 C-42.66 10 -43.32 10 -44 10 C-44 7.36 -44 4.72 -44 2 C-29.48 2 -14.96 2 0 2 C0 1.34 0 0.68 0 0 Z " fill="#FBF58B" transform="translate(48,26)"/>
<path d="M0 0 C1.32 0 2.64 0 4 0 C4 0.66 4 1.32 4 2 C4.66 2 5.32 2 6 2 C6 2.66 6 3.32 6 4 C6.66 4 7.32 4 8 4 C8 4.66 8 5.32 8 6 C8.66 6 9.32 6 10 6 C10 6.66 10 7.32 10 8 C10.66 8 11.32 8 12 8 C12 8.66 12 9.32 12 10 C12.66 10 13.32 10 14 10 C14 10.66 14 11.32 14 12 C17.96 12 21.92 12 26 12 C26 12.66 26 13.32 26 14 C26.66 14 27.32 14 28 14 C28 15.32 28 16.64 28 18 C28.66 18 29.32 18 30 18 C30 18.66 30 19.32 30 20 C30.66 20 31.32 20 32 20 C32 23.3 32 26.6 32 30 C31.34 30 30.68 30 30 30 C30 29.34 30 28.68 30 28 C29.34 28 28.68 28 28 28 C28 27.34 28 26.68 28 26 C27.34 26 26.68 26 26 26 C26 25.34 26 24.68 26 24 C25.34 24 24.68 24 24 24 C24 23.34 24 22.68 24 22 C24.66 22 25.32 22 26 22 C26 20.68 26 19.36 26 18 C25.34 18 24.68 18 24 18 C24 17.34 24 16.68 24 16 C22.68 16 21.36 16 20 16 C20 16.66 20 17.32 20 18 C19.34 18 18.68 18 18 18 C18 17.34 18 16.68 18 16 C17.34 16 16.68 16 16 16 C16 15.34 16 14.68 16 14 C14.02 14 12.04 14 10 14 C10 15.32 10 16.64 10 18 C10.66 18 11.32 18 12 18 C12 18.66 12 19.32 12 20 C12.66 20 13.32 20 14 20 C14 20.66 14 21.32 14 22 C14.66 22 15.32 22 16 22 C16 22.66 16 23.32 16 24 C17.32 24 18.64 24 20 24 C20 24.66 20 25.32 20 26 C4.16 26 -11.68 26 -28 26 C-28 25.34 -28 24.68 -28 24 C-26.68 24 -25.36 24 -24 24 C-24 20.04 -24 16.08 -24 12 C-23.34 12 -22.68 12 -22 12 C-22 11.34 -22 10.68 -22 10 C-21.34 10 -20.68 10 -20 10 C-20 9.34 -20 8.68 -20 8 C-15.38 8 -10.76 8 -6 8 C-6 7.34 -6 6.68 -6 6 C-5.34 6 -4.68 6 -4 6 C-4 5.34 -4 4.68 -4 4 C-3.34 4 -2.68 4 -2 4 C-2 3.34 -2 2.68 -2 2 C-1.34 2 -0.68 2 0 2 C0 1.34 0 0.68 0 0 Z " fill="#30CEEA" transform="translate(30,0)"/>
<path d="M0 0 C0.66 0 1.32 0 2 0 C2 8.58 2 17.16 2 26 C1.34 26 0.68 26 0 26 C0 26.66 0 27.32 0 28 C-0.66 28 -1.32 28 -2 28 C-2 28.66 -2 29.32 -2 30 C-18.5 30 -35 30 -52 30 C-52 28.68 -52 27.36 -52 26 C-35.5 26 -19 26 -2 26 C-2 22.04 -2 18.08 -2 14 C-2.66 14 -3.32 14 -4 14 C-4 10.7 -4 7.4 -4 4 C-3.34 4 -2.68 4 -2 4 C-2 3.34 -2 2.68 -2 2 C-1.34 2 -0.68 2 0 2 C0 1.34 0 0.68 0 0 Z " fill="#4D23CF" transform="translate(60,32)"/>
<path d="M0 0 C1.32 0 2.64 0 4 0 C4 1.98 4 3.96 4 6 C4.66 6 5.32 6 6 6 C6 7.98 6 9.96 6 12 C5.34 12 4.68 12 4 12 C4 11.34 4 10.68 4 10 C2.68 10 1.36 10 0 10 C0 10.66 0 11.32 0 12 C-0.66 12 -1.32 12 -2 12 C-2 12.66 -2 13.32 -2 14 C-2.66 14 -3.32 14 -4 14 C-4 14.66 -4 15.32 -4 16 C-4.66 16 -5.32 16 -6 16 C-6 16.66 -6 17.32 -6 18 C-6.66 18 -7.32 18 -8 18 C-8 18.66 -8 19.32 -8 20 C-8.66 20 -9.32 20 -10 20 C-10 20.66 -10 21.32 -10 22 C-10.66 22 -11.32 22 -12 22 C-12 22.66 -12 23.32 -12 24 C-13.98 24 -15.96 24 -18 24 C-18 23.34 -18 22.68 -18 22 C-17.34 22 -16.68 22 -16 22 C-16 21.34 -16 20.68 -16 20 C-15.34 20 -14.68 20 -14 20 C-14 19.34 -14 18.68 -14 18 C-13.34 18 -12.68 18 -12 18 C-12 17.34 -12 16.68 -12 16 C-11.34 16 -10.68 16 -10 16 C-10 15.34 -10 14.68 -10 14 C-9.34 14 -8.68 14 -8 14 C-8 13.34 -8 12.68 -8 12 C-9.32 12 -10.64 12 -12 12 C-12 12.66 -12 13.32 -12 14 C-12.66 14 -13.32 14 -14 14 C-14 14.66 -14 15.32 -14 16 C-14.66 16 -15.32 16 -16 16 C-16 16.66 -16 17.32 -16 18 C-16.66 18 -17.32 18 -18 18 C-18 18.66 -18 19.32 -18 20 C-18.66 20 -19.32 20 -20 20 C-20 21.32 -20 22.64 -20 24 C-20.66 24 -21.32 24 -22 24 C-22 19.38 -22 14.76 -22 10 C-21.34 10 -20.68 10 -20 10 C-20 9.34 -20 8.68 -20 8 C-15.38 8 -10.76 8 -6 8 C-6 7.34 -6 6.68 -6 6 C-5.34 6 -4.68 6 -4 6 C-4 5.34 -4 4.68 -4 4 C-3.34 4 -2.68 4 -2 4 C-2 3.34 -2 2.68 -2 2 C-1.34 2 -0.68 2 0 2 C0 1.34 0 0.68 0 0 Z " fill="#DBF7FA" transform="translate(30,0)"/>
<path d="M0 0 C0.66 0 1.32 0 2 0 C2 0.66 2 1.32 2 2 C2.66 2 3.32 2 4 2 C4 2.66 4 3.32 4 4 C4.66 4 5.32 4 6 4 C6 4.66 6 5.32 6 6 C6.66 6 7.32 6 8 6 C8 6.66 8 7.32 8 8 C8.66 8 9.32 8 10 8 C10 8.66 10 9.32 10 10 C13.96 10 17.92 10 22 10 C22 10.66 22 11.32 22 12 C22.66 12 23.32 12 24 12 C24 13.32 24 14.64 24 16 C24.66 16 25.32 16 26 16 C26 16.66 26 17.32 26 18 C26.66 18 27.32 18 28 18 C28 21.3 28 24.6 28 28 C27.34 28 26.68 28 26 28 C26 27.34 26 26.68 26 26 C25.34 26 24.68 26 24 26 C24 25.34 24 24.68 24 24 C23.34 24 22.68 24 22 24 C22 23.34 22 22.68 22 22 C21.34 22 20.68 22 20 22 C20 21.34 20 20.68 20 20 C20.66 20 21.32 20 22 20 C22 18.68 22 17.36 22 16 C21.34 16 20.68 16 20 16 C20 15.34 20 14.68 20 14 C18.68 14 17.36 14 16 14 C16 14.66 16 15.32 16 16 C15.34 16 14.68 16 14 16 C14 15.34 14 14.68 14 14 C13.34 14 12.68 14 12 14 C12 13.34 12 12.68 12 12 C10.02 12 8.04 12 6 12 C6 13.32 6 14.64 6 16 C3.36 16 0.72 16 -2 16 C-2 15.34 -2 14.68 -2 14 C-0.68 14 0.64 14 2 14 C2 13.34 2 12.68 2 12 C-0.64 12 -3.28 12 -6 12 C-6 11.34 -6 10.68 -6 10 C-5.34 10 -4.68 10 -4 10 C-4 9.34 -4 8.68 -4 8 C-2.68 8 -1.36 8 0 8 C0 8.66 0 9.32 0 10 C0.66 10 1.32 10 2 10 C2 8.02 2 6.04 2 4 C1.34 4 0.68 4 0 4 C0 2.68 0 1.36 0 0 Z " fill="#AFB6EB" transform="translate(34,2)"/>
<path d="M0 0 C15.84 0 31.68 0 48 0 C48 0.66 48 1.32 48 2 C33.48 2 18.96 2 4 2 C4 4.64 4 7.28 4 10 C4.66 10 5.32 10 6 10 C6 12.64 6 15.28 6 18 C6.66 18 7.32 18 8 18 C8 20.64 8 23.28 8 26 C6.68 26 5.36 26 4 26 C4 23.36 4 20.72 4 18 C3.34 18 2.68 18 2 18 C2 15.36 2 12.72 2 10 C1.34 10 0.68 10 0 10 C0 6.7 0 3.4 0 0 Z " fill="#CDC1F0" transform="translate(0,26)"/>
<path d="M0 0 C1.98 0 3.96 0 6 0 C6 0.66 6 1.32 6 2 C6.66 2 7.32 2 8 2 C8 2.66 8 3.32 8 4 C8.66 4 9.32 4 10 4 C10 3.34 10 2.68 10 2 C11.32 2 12.64 2 14 2 C14 2.66 14 3.32 14 4 C14.66 4 15.32 4 16 4 C16 5.32 16 6.64 16 8 C15.34 8 14.68 8 14 8 C14 8.66 14 9.32 14 10 C14.66 10 15.32 10 16 10 C16 10.66 16 11.32 16 12 C16.66 12 17.32 12 18 12 C18 12.66 18 13.32 18 14 C18.66 14 19.32 14 20 14 C20 14.66 20 15.32 20 16 C21.32 16 22.64 16 24 16 C24 16.66 24 17.32 24 18 C22.68 18 21.36 18 20 18 C20 18.66 20 19.32 20 20 C19.34 20 18.68 20 18 20 C18 20.66 18 21.32 18 22 C17.34 22 16.68 22 16 22 C16 21.34 16 20.68 16 20 C15.34 20 14.68 20 14 20 C14 18.02 14 16.04 14 14 C13.34 14 12.68 14 12 14 C12 13.34 12 12.68 12 12 C11.34 12 10.68 12 10 12 C10 11.34 10 10.68 10 10 C8.68 10 7.36 10 6 10 C6 9.34 6 8.68 6 8 C5.34 8 4.68 8 4 8 C4 7.34 4 6.68 4 6 C3.34 6 2.68 6 2 6 C2 5.34 2 4.68 2 4 C1.34 4 0.68 4 0 4 C0 2.68 0 1.36 0 0 Z " fill="#B5CAE6" transform="translate(40,14)"/>
<path d="M0 0 C0.66 0 1.32 0 2 0 C2 3.96 2 7.92 2 12 C2.66 12 3.32 12 4 12 C4 10.68 4 9.36 4 8 C4.66 8 5.32 8 6 8 C6 7.34 6 6.68 6 6 C6.66 6 7.32 6 8 6 C8 5.34 8 4.68 8 4 C8.66 4 9.32 4 10 4 C10 3.34 10 2.68 10 2 C10.66 2 11.32 2 12 2 C12 1.34 12 0.68 12 0 C13.32 0 14.64 0 16 0 C16 0.66 16 1.32 16 2 C15.34 2 14.68 2 14 2 C14 2.66 14 3.32 14 4 C13.34 4 12.68 4 12 4 C12 4.66 12 5.32 12 6 C11.34 6 10.68 6 10 6 C10 6.66 10 7.32 10 8 C9.34 8 8.68 8 8 8 C8 8.66 8 9.32 8 10 C7.34 10 6.68 10 6 10 C6 10.66 6 11.32 6 12 C18.54 12 31.08 12 44 12 C44 12.66 44 13.32 44 14 C28.16 14 12.32 14 -4 14 C-4 13.34 -4 12.68 -4 12 C-2.68 12 -1.36 12 0 12 C0 8.04 0 4.08 0 0 Z " fill="#756A37" transform="translate(6,12)"/>
<path d="M0 0 C0.66 0 1.32 0 2 0 C2 3.96 2 7.92 2 12 C-15.16 12 -32.32 12 -50 12 C-50 10.02 -50 8.04 -50 6 C-49.34 6 -48.68 6 -48 6 C-48 7.32 -48 8.64 -48 10 C-32.16 10 -16.32 10 0 10 C0 6.7 0 3.4 0 0 Z " fill="#7F7B12" transform="translate(56,46)"/>
<path d="M0 0 C3.3 0 6.6 0 10 0 C10 1.32 10 2.64 10 4 C10.66 4 11.32 4 12 4 C12 4.66 12 5.32 12 6 C12.66 6 13.32 6 14 6 C14 9.3 14 12.6 14 16 C13.34 16 12.68 16 12 16 C12 15.34 12 14.68 12 14 C11.34 14 10.68 14 10 14 C10 13.34 10 12.68 10 12 C9.34 12 8.68 12 8 12 C8 11.34 8 10.68 8 10 C7.34 10 6.68 10 6 10 C6 9.34 6 8.68 6 8 C6.66 8 7.32 8 8 8 C8 6.68 8 5.36 8 4 C7.34 4 6.68 4 6 4 C6 3.34 6 2.68 6 2 C4.68 2 3.36 2 2 2 C2 2.66 2 3.32 2 4 C1.34 4 0.68 4 0 4 C0 2.68 0 1.36 0 0 Z " fill="#6C6061" transform="translate(48,14)"/>
<path d="M0 0 C4.62 0 9.24 0 14 0 C14 0.66 14 1.32 14 2 C12.68 2 11.36 2 10 2 C10 2.66 10 3.32 10 4 C9.34 4 8.68 4 8 4 C8 4.66 8 5.32 8 6 C7.34 6 6.68 6 6 6 C6 6.66 6 7.32 6 8 C5.34 8 4.68 8 4 8 C4 8.66 4 9.32 4 10 C3.34 10 2.68 10 2 10 C2 11.32 2 12.64 2 14 C1.34 14 0.68 14 0 14 C0 9.38 0 4.76 0 0 Z " fill="#ECEA8B" transform="translate(8,10)"/>
<path d="M0 0 C0.66 0 1.32 0 2 0 C2 0.66 2 1.32 2 2 C8.6 2 15.2 2 22 2 C22 1.34 22 0.68 22 0 C22.66 0 23.32 0 24 0 C24 0.66 24 1.32 24 2 C24.66 2 25.32 2 26 2 C26 2.66 26 3.32 26 4 C16.76 4 7.52 4 -2 4 C-2 3.34 -2 2.68 -2 2 C-1.34 2 -0.68 2 0 2 C0 1.34 0 0.68 0 0 Z " fill="#547BE2" transform="translate(20,20)"/>
<path d="M0 0 C1.32 0 2.64 0 4 0 C4 0.66 4 1.32 4 2 C3.34 2 2.68 2 2 2 C2 2.66 2 3.32 2 4 C1.34 4 0.68 4 0 4 C0 4.66 0 5.32 0 6 C-0.66 6 -1.32 6 -2 6 C-2 6.66 -2 7.32 -2 8 C-2.66 8 -3.32 8 -4 8 C-4 8.66 -4 9.32 -4 10 C-9.28 10 -14.56 10 -20 10 C-20 9.34 -20 8.68 -20 8 C-15.38 8 -10.76 8 -6 8 C-6 7.34 -6 6.68 -6 6 C-5.34 6 -4.68 6 -4 6 C-4 5.34 -4 4.68 -4 4 C-3.34 4 -2.68 4 -2 4 C-2 3.34 -2 2.68 -2 2 C-1.34 2 -0.68 2 0 2 C0 1.34 0 0.68 0 0 Z " fill="#6043CC" transform="translate(30,0)"/>
<path d="M0 0 C1.98 0 3.96 0 6 0 C6 0.66 6 1.32 6 2 C6.66 2 7.32 2 8 2 C8 4.64 8 7.28 8 10 C7.34 10 6.68 10 6 10 C6 9.34 6 8.68 6 8 C5.34 8 4.68 8 4 8 C4 7.34 4 6.68 4 6 C3.34 6 2.68 6 2 6 C2 5.34 2 4.68 2 4 C1.34 4 0.68 4 0 4 C0 2.68 0 1.36 0 0 Z " fill="#DCF6FA" transform="translate(40,14)"/>
<path d="M0 0 C3.3 0 6.6 0 10 0 C10 0.66 10 1.32 10 2 C8.68 2 7.36 2 6 2 C6 2.66 6 3.32 6 4 C4.02 4 2.04 4 0 4 C0 4.66 0 5.32 0 6 C-0.66 6 -1.32 6 -2 6 C-2 6.66 -2 7.32 -2 8 C-2.66 8 -3.32 8 -4 8 C-4 6.68 -4 5.36 -4 4 C-3.34 4 -2.68 4 -2 4 C-2 3.34 -2 2.68 -2 2 C-1.34 2 -0.68 2 0 2 C0 1.34 0 0.68 0 0 Z " fill="#7CE3F7" transform="translate(26,14)"/>
<path d="M0 0 C0.66 0 1.32 0 2 0 C2 0.66 2 1.32 2 2 C2.66 2 3.32 2 4 2 C4 5.3 4 8.6 4 12 C3.34 12 2.68 12 2 12 C2 11.34 2 10.68 2 10 C1.34 10 0.68 10 0 10 C0 9.34 0 8.68 0 8 C-0.66 8 -1.32 8 -2 8 C-2 7.34 -2 6.68 -2 6 C-1.34 6 -0.68 6 0 6 C0 4.02 0 2.04 0 0 Z " fill="#4F2ACB" transform="translate(58,18)"/>
<path d="M0 0 C1.32 0 2.64 0 4 0 C4 0.66 4 1.32 4 2 C3.34 2 2.68 2 2 2 C2 2.66 2 3.32 2 4 C1.34 4 0.68 4 0 4 C0 4.66 0 5.32 0 6 C-0.66 6 -1.32 6 -2 6 C-2 6.66 -2 7.32 -2 8 C-2.66 8 -3.32 8 -4 8 C-4 8.66 -4 9.32 -4 10 C-4.66 10 -5.32 10 -6 10 C-6 10.66 -6 11.32 -6 12 C-6.66 12 -7.32 12 -8 12 C-8 10.68 -8 9.36 -8 8 C-7.34 8 -6.68 8 -6 8 C-6 7.34 -6 6.68 -6 6 C-5.34 6 -4.68 6 -4 6 C-4 5.34 -4 4.68 -4 4 C-3.34 4 -2.68 4 -2 4 C-2 3.34 -2 2.68 -2 2 C-1.34 2 -0.68 2 0 2 C0 1.34 0 0.68 0 0 Z " fill="#90966C" transform="translate(18,12)"/>
<path d="M0 0 C0.66 0 1.32 0 2 0 C2 0.66 2 1.32 2 2 C5.96 2 9.92 2 14 2 C14 2.66 14 3.32 14 4 C11.36 4 8.72 4 6 4 C6 4.66 6 5.32 6 6 C5.34 6 4.68 6 4 6 C4 5.34 4 4.68 4 4 C2.68 4 1.36 4 0 4 C0 2.68 0 1.36 0 0 Z " fill="#5E3ECD" transform="translate(42,10)"/>
<path d="M0 0 C1.98 0 3.96 0 6 0 C6 0.66 6 1.32 6 2 C5.34 2 4.68 2 4 2 C4 2.66 4 3.32 4 4 C3.34 4 2.68 4 2 4 C2 4.66 2 5.32 2 6 C1.34 6 0.68 6 0 6 C0 6.66 0 7.32 0 8 C-0.66 8 -1.32 8 -2 8 C-2 6.02 -2 4.04 -2 2 C-1.34 2 -0.68 2 0 2 C0 1.34 0 0.68 0 0 Z " fill="#F4DA61" transform="translate(12,12)"/>
<path d="M0 0 C2.64 0 5.28 0 8 0 C8 0.66 8 1.32 8 2 C7.34 2 6.68 2 6 2 C6 2.66 6 3.32 6 4 C3.36 4 0.72 4 -2 4 C-2 3.34 -2 2.68 -2 2 C-1.34 2 -0.68 2 0 2 C0 1.34 0 0.68 0 0 Z " fill="#49C0E5" transform="translate(26,18)"/>
<path d="M0 0 C0.66 0 1.32 0 2 0 C2 0.66 2 1.32 2 2 C2.66 2 3.32 2 4 2 C4 2.66 4 3.32 4 4 C4.66 4 5.32 4 6 4 C6 4.66 6 5.32 6 6 C5.34 6 4.68 6 4 6 C4 6.66 4 7.32 4 8 C3.34 8 2.68 8 2 8 C2 7.34 2 6.68 2 6 C1.34 6 0.68 6 0 6 C0 4.02 0 2.04 0 0 Z " fill="#BCC6E7" transform="translate(54,28)"/>
<path d="M0 0 C2.64 0 5.28 0 8 0 C8 1.32 8 2.64 8 4 C7.34 4 6.68 4 6 4 C6 3.34 6 2.68 6 2 C4.68 2 3.36 2 2 2 C2 2.66 2 3.32 2 4 C1.34 4 0.68 4 0 4 C0 2.68 0 1.36 0 0 Z " fill="#7F811C" transform="translate(48,14)"/>
<path d="M0 0 C1.32 0 2.64 0 4 0 C4 0.66 4 1.32 4 2 C4.66 2 5.32 2 6 2 C6 2.66 6 3.32 6 4 C3.36 4 0.72 4 -2 4 C-2 3.34 -2 2.68 -2 2 C-1.34 2 -0.68 2 0 2 C0 1.34 0 0.68 0 0 Z " fill="#79B1E2" transform="translate(30,10)"/>
<path d="M0 0 C0.66 0 1.32 0 2 0 C2 0.66 2 1.32 2 2 C2.66 2 3.32 2 4 2 C4 3.98 4 5.96 4 8 C3.34 8 2.68 8 2 8 C2 6.68 2 5.36 2 4 C1.34 4 0.68 4 0 4 C0 2.68 0 1.36 0 0 Z " fill="#9A9513" transform="translate(50,26)"/>
<path d="M0 0 C1.32 0 2.64 0 4 0 C4 0.66 4 1.32 4 2 C4.66 2 5.32 2 6 2 C6 3.32 6 4.64 6 6 C5.34 6 4.68 6 4 6 C4 5.34 4 4.68 4 4 C3.34 4 2.68 4 2 4 C2 3.34 2 2.68 2 2 C1.34 2 0.68 2 0 2 C0 1.34 0 0.68 0 0 Z " fill="#F4DA61" transform="translate(50,16)"/>
<path d="M0 0 C0.66 0 1.32 0 2 0 C2 0.66 2 1.32 2 2 C2.66 2 3.32 2 4 2 C4 2.66 4 3.32 4 4 C1.36 4 -1.28 4 -4 4 C-4 3.34 -4 2.68 -4 2 C-2.68 2 -1.36 2 0 2 C0 1.34 0 0.68 0 0 Z " fill="#8BACD1" transform="translate(36,14)"/>
</svg>
