<?xml version="1.0" encoding="UTF-8"?>
<svg version="1.1" xmlns="http://www.w3.org/2000/svg" width="1080" height="934">
<path d="M0 0 C5.22932438 0.11408696 10.4584778 0.2339299 15.68756104 0.35858154 C17.45779038 0.40003226 19.22805412 0.44004461 20.99835205 0.47845459 C101.61455002 2.23608351 183.42817722 19.78154833 323 95 C323.54317871 95.40428223 324.08635742 95.80856445 324.64599609 96.22509766 C332.38819412 102.0162526 339.80053497 108.13510647 347.13232422 114.43554688 C348.53882535 115.61369841 349.96604481 116.7671821 351.40283203 117.90820312 C358.37580739 123.46846852 364.74449992 129.43407015 371.01660156 135.75585938 C372.62347307 137.37346287 374.24078494 138.98006913 375.859375 140.5859375 C382.36146894 147.07991017 388.29050281 153.79076293 394 161 C395.68990762 163.02629529 397.39342661 165.03988053 399.1015625 167.05078125 C400.61962559 170.34431813 399.51187597 173.48961071 398.37765503 176.83634949 C397.56795514 178.94574238 396.71735622 181.03409394 395.8515625 183.12109375 C395.52777618 183.91587631 395.20398987 184.71065887 394.87039185 185.52952576 C393.7941825 188.16783891 392.70947948 190.80257678 391.625 193.4375 C390.85641443 195.31824361 390.08852517 197.1992719 389.32128906 199.08056641 C387.70321082 203.04703254 386.08243138 207.01237938 384.45996094 210.97705078 C380.92019812 219.63462913 377.41967628 228.30803707 373.918396 236.98123169 C372.33568884 240.90112514 370.75125597 244.82032022 369.16690063 248.73954773 C363.16341755 263.59097212 357.16587135 278.44479492 351.16809082 293.29852295 C344.94892343 308.70044354 338.72627896 324.10095297 332.5 339.5 C323.21249501 362.47048791 313.9342072 385.4446936 304.65722656 408.41943359 C299.83529478 420.36100361 295.01261093 432.30226992 290.19006348 444.24359131 C288.87930843 447.48921522 287.56855845 450.73484117 286.2578125 453.98046875 C285.82509033 455.05196167 285.39236816 456.12345459 284.9465332 457.22741699 C282.30124966 463.77765461 279.65614333 470.32796376 277.01116943 476.87832642 C267.78931474 499.71652539 258.56487565 522.55367246 249.3324585 545.38760376 C243.05094779 560.92344499 236.7743328 576.4612586 230.5 592 C223.83693542 608.50145773 217.17075845 625.00165103 210.5 641.5 C204.31079979 656.80755017 198.1246432 672.11632541 191.94204712 687.42654419 C190.63449724 690.66398521 189.32646057 693.90122917 188.01831055 697.13842773 C183.85923165 707.4322486 179.70518086 717.72803541 175.56604004 728.02989197 C173.61954437 732.87436864 171.67006606 737.71764467 169.72064209 742.5609436 C168.78715337 744.88220323 167.85488807 747.20395525 166.92388916 749.5262146 C165.63588832 752.73875847 164.34378626 755.9496239 163.05078125 759.16015625 C162.66846848 760.11691254 162.2861557 761.07366882 161.89225769 762.05941772 C161.53891861 762.93449982 161.18557953 763.80958191 160.8215332 764.71118164 C160.51625198 765.47145157 160.21097076 766.2317215 159.8964386 767.01502991 C159 769 159 769 157 772 C156.34 772 155.68 772 155 772 C153.48552334 770.17832727 152.08238503 768.34804658 150.6875 766.4375 C141.72242296 754.5384868 131.87468685 743.69436887 121.375 733.125 C120.51672607 732.25746094 119.65845215 731.38992188 118.77416992 730.49609375 C112.82420397 724.57503038 106.5510221 719.24055427 100 714 C98.97272936 713.13627933 97.9493445 712.26786429 96.93359375 711.390625 C76.57891998 693.93466064 53.61230516 679.59676467 30 667 C29.13858398 666.53384277 28.27716797 666.06768555 27.38964844 665.58740234 C4.05624186 652.97306516 -20.00030154 642.82496863 -45 634 C-46.00353516 633.64309082 -47.00707031 633.28618164 -48.04101562 632.91845703 C-102.32679622 613.74552623 -159.84480515 605.03564855 -217 600 C-218.00625427 599.91072235 -218.00625427 599.91072235 -219.03283691 599.81964111 C-226.3521427 599.17152803 -233.67349595 598.56073948 -241 598 C-236.00608384 584.28993885 -230.48339397 570.80680114 -224.9375 557.3125 C-216.56281799 536.98821975 -216.56281799 536.98821975 -208.70043945 516.46240234 C-204.73225039 505.68894272 -200.36310957 495.10159264 -195.9178772 484.51702881 C-193.67382398 479.17187574 -191.44123002 473.82193397 -189.20703125 468.47265625 C-188.75839218 467.39910889 -188.30975311 466.32556152 -187.84751892 465.21948242 C-163.85964719 407.79990247 -140.93899216 349.93175676 -117.85473633 292.14477539 C-117.38653473 290.97536407 -116.91833313 289.80595276 -116.4359436 288.60110474 C-115.43196016 286.08328333 -114.43461977 283.56356044 -113.44467163 281.04025269 C-111.15205711 275.2167025 -108.84897382 269.46654545 -105.95028687 263.91156006 C-103.91974707 259.82700526 -102.30480672 255.55340006 -100.61328125 251.3203125 C-100.19980438 250.29354401 -99.78632751 249.26677551 -99.36032104 248.20889282 C-98.00797412 244.8488219 -96.66024857 241.48691768 -95.3125 238.125 C-94.35557792 235.7449751 -93.39829774 233.36509416 -92.44067383 230.98535156 C-90.98818796 227.3756136 -89.5359797 223.76576642 -88.08506775 220.15539551 C-85.38834997 213.44531644 -82.68362733 206.73864491 -79.9609375 200.0390625 C-52.9291369 133.51246619 -26.5129878 66.734478 0 0 Z " fill="#000000" transform="translate(680,162)"/>
<path d="M0 0 C5.62824564 0.0655869 11.14695931 0.72877696 16.72265625 1.45703125 C17.7789624 1.59238281 18.83526855 1.72773438 19.92358398 1.8671875 C28.41143187 2.98433284 36.77451314 4.42507762 45.16015625 6.14453125 C46.59615767 6.43067541 48.03236154 6.7158051 49.46875 7 C53.03422708 7.70663429 56.59769499 8.42282574 60.16015625 9.14453125 C59.5577557 13.82828465 58.2634579 17.73231815 56.44140625 22.08203125 C56.15617599 22.76930298 55.87094574 23.45657471 55.57707214 24.16467285 C54.94659827 25.68272648 54.31338709 27.19964539 53.67782593 28.71557617 C51.86165572 33.05037748 50.0688098 37.39483435 48.2734375 41.73828125 C47.87558548 42.69955933 47.47773346 43.6608374 47.06782532 44.65124512 C41.84944873 57.28125575 36.75666732 69.96218504 31.65467834 82.63951874 C30.30456889 85.993809 28.95352392 89.3477224 27.60253906 92.70166016 C25.99321422 96.69708792 24.38394619 100.69253848 22.77505493 104.68814087 C15.96491033 121.59999532 9.13325134 138.50314895 2.29258728 155.40267944 C0.2294089 160.50000663 -1.83086084 165.59849479 -3.88842773 170.6980896 C-5.12651248 173.76543447 -6.36662152 176.83195777 -7.6072998 179.89825439 C-8.17207333 181.29531516 -8.73597912 182.69272707 -9.2989502 184.09051514 C-10.05244359 185.96102138 -10.80931513 187.83016579 -11.56640625 189.69921875 C-11.98486816 190.73546387 -12.40333008 191.77170898 -12.83447266 192.83935547 C-13.83984375 195.14453125 -13.83984375 195.14453125 -14.83984375 196.14453125 C-20.56345235 195.95400458 -26.16502937 194.72588124 -31.71484375 193.39453125 C-60.50027964 186.81035054 -89.32011617 182.88784718 -118.83984375 182.14453125 C-119.656203 182.12368469 -120.47256226 182.10283813 -121.31365967 182.08135986 C-134.82170522 181.73756725 -148.33046833 181.43086777 -161.83984375 181.14453125 C-159.75465979 173.54904833 -156.99536174 166.37323679 -153.94384766 159.11489868 C-152.40212118 155.44497922 -150.87915409 151.76728231 -149.35546875 148.08984375 C-148.84264343 146.85301598 -148.84264343 146.85301598 -148.31945801 145.59120178 C-143.33680356 133.54679015 -138.47906871 121.45126669 -133.60740662 109.36165237 C-132.84677669 107.47423457 -132.08585233 105.58693576 -131.3248291 103.69967651 C-126.14567629 90.8549399 -120.97353862 78.00751068 -115.83984375 65.14453125 C-107.24127519 66.45100353 -98.65401513 67.81391187 -90.07421875 69.23828125 C-88.9153717 69.43047241 -87.75652466 69.62266357 -86.56256104 69.82067871 C-84.13570865 70.2235929 -81.70893119 70.62695859 -79.28222656 71.03076172 C-75.5856674 71.64522547 -71.88854528 72.25622376 -68.19140625 72.8671875 C-65.81897491 73.26150518 -63.44657787 73.6560293 -61.07421875 74.05078125 C-59.98026794 74.23104858 -58.88631714 74.41131592 -57.75921631 74.5970459 C-52.38136312 75.495945 -47.06527246 76.47919748 -41.769104 77.78063965 C-39.51194165 78.26809722 -39.51194165 78.26809722 -35.83984375 78.14453125 C-35.26061913 76.70086937 -35.26061913 76.70086937 -34.66969299 75.2280426 C-31.037793 66.1768464 -27.40320777 57.12673267 -23.76596165 48.07768345 C-21.89591632 43.4249744 -20.02683335 38.7718835 -18.15991211 34.11791992 C-16.35963305 29.63018635 -14.55687532 25.14345608 -12.7523632 20.65742302 C-12.06288422 18.94209545 -11.37431316 17.22640266 -10.68664742 15.51034737 C-9.72649283 13.11474265 -8.76317561 10.72043375 -7.79907227 8.32641602 C-7.36965584 7.25179863 -7.36965584 7.25179863 -6.93156433 6.1554718 C-4.51422376 0.16991483 -4.51422376 0.16991483 0 0 Z " fill="#EB49D2" transform="translate(734.83984375,249.85546875)"/>
<path d="M0 0 C1.45092041 0.22660812 1.45092041 0.22660812 2.93115234 0.45779419 C5.71115452 0.89746119 8.48866272 1.35015239 11.265625 1.80859375 C12.08943665 1.93990692 12.91324829 2.07122009 13.76202393 2.20651245 C19.3008479 3.14513177 24.47209042 4.64348848 29.75 6.5625 C23.47616813 23.33626693 16.78697659 39.9283326 10 56.5 C4.26567285 70.50246958 -1.46346762 84.50530442 -7.0625 98.5625 C-13.06343234 113.62209561 -19.11690446 128.6603216 -25.18340683 143.69360352 C-25.91993745 145.5189741 -26.6562151 147.34444675 -27.39248657 149.16992188 C-34.30838906 166.31580351 -41.26362359 183.44522937 -48.25 200.5625 C-52.98306387 200.01039422 -57.59315745 199.35764637 -62.25 198.328125 C-63.36971191 198.08610352 -64.48942383 197.84408203 -65.64306641 197.59472656 C-66.83335449 197.3365918 -68.02364258 197.07845703 -69.25 196.8125 C-81.7967529 194.13469088 -94.37819133 192.02267013 -107.078125 190.21191406 C-108.36460937 190.02338867 -109.65109375 189.83486328 -110.9765625 189.640625 C-112.11689941 189.47981445 -113.25723633 189.31900391 -114.43212891 189.15332031 C-117.25 188.5625 -117.25 188.5625 -120.25 186.5625 C-107.31976548 155.03840476 -94.39856092 123.64103498 -79.40405273 93.02832031 C-78.25887821 90.58146974 -77.25333942 88.07084854 -76.25 85.5625 C-102.65 85.5625 -129.05 85.5625 -156.25 85.5625 C-152.71131859 76.12601624 -149.17456566 66.73051553 -145.38671875 57.3984375 C-144.95043655 56.31905914 -144.51415436 55.23968079 -144.06465149 54.12759399 C-142.6908115 50.7301329 -141.31416797 47.333816 -139.9375 43.9375 C-139.02912215 41.69147691 -138.12091814 39.4453835 -137.21289062 37.19921875 C-131.59330838 23.30607797 -125.93646695 9.42839243 -120.25 -4.4375 C-80.21792215 -7.68597097 -39.62972975 -6.20645888 0 0 Z " fill="#5DFAFA" transform="translate(666.25,499.4375)"/>
<path d="M0 0 C14.8246758 2.68116358 29.4042469 9.94316016 42.9375 16.3125 C44.02708008 16.81563721 45.11666016 17.31877441 46.23925781 17.8371582 C47.24182617 18.32015381 48.24439453 18.80314941 49.27734375 19.30078125 C50.16671631 19.72528564 51.05608887 20.14979004 51.97241211 20.5871582 C54 22 54 22 54.70979309 23.85586548 C55.22196992 27.63997944 53.16032031 30.9142095 51.609375 34.28515625 C51.23746033 35.1179863 50.86554565 35.95081635 50.48236084 36.80888367 C49.24879857 39.56496485 47.99934381 42.3135413 46.75 45.0625 C45.89006304 46.97699468 45.03135537 48.89204195 44.17382812 50.80761719 C42.37649956 54.82002839 40.57377837 58.82995401 38.76757812 62.83837891 C34.71435464 71.84635562 30.73177949 80.8855229 26.7467041 89.92379761 C25.5186134 92.70780456 24.28848549 95.49090175 23.05761719 98.27368164 C22.67285217 99.14386429 22.28808716 100.01404694 21.8916626 100.91059875 C21.17845916 102.52355853 20.46505661 104.13643028 19.75140381 105.74919128 C19.12395178 107.16924501 18.49844167 108.59015899 17.87524414 110.01208496 C17.29120371 111.33859799 16.69920795 112.66163651 16.09936523 113.9810791 C14.81788596 116.84484648 14 118.82286358 14 122 C14.85416504 122.45213867 15.70833008 122.90427734 16.58837891 123.37011719 C32.88131924 131.99733954 49.15230154 140.65722584 65.31445312 149.52783203 C70.32990666 152.27721247 75.35309197 155.01243289 80.375 157.75 C82.23700887 158.76557054 84.09899097 159.78119017 85.9609375 160.796875 C86.74259277 161.22323242 87.52424805 161.64958984 88.32958984 162.08886719 C88.8808252 162.38954102 89.43206055 162.69021484 90 163 C89.43093444 167.03847091 88.54879333 170.55179829 87.01318359 174.32641602 C86.60070877 175.34892456 86.18823395 176.37143311 85.76325989 177.42492676 C85.08767281 179.07277161 85.08767281 179.07277161 84.3984375 180.75390625 C83.92931442 181.91200806 83.46019135 183.07010986 82.97685242 184.26330566 C81.71006341 187.38736521 80.43795983 190.50915463 79.16334915 193.63002396 C77.84853013 196.85303276 76.54064948 200.07885376 75.23217773 203.30444336 C73.14217823 208.45439369 71.04846833 213.60281824 68.95166016 218.75 C66.33910653 225.16360549 63.73535275 231.58074272 61.13671875 238 C60.78027283 238.88042465 60.4238269 239.7608493 60.05657959 240.66795349 C59.38017624 242.33867933 58.70378412 244.00940971 58.02740479 245.68014526 C55.68851309 251.45488055 53.34420867 257.22742151 51 263 C47.68071714 261.42165419 45.41782391 259.67155918 42.75 257.125 C9.44097838 226.65287009 -34.00061815 205.26852528 -76 190 C-75.3460846 186.1027358 -74.19150286 182.68731017 -72.70947266 179.02783203 C-71.98964706 177.2411763 -71.98964706 177.2411763 -71.25527954 175.41842651 C-70.72495665 174.11485483 -70.19454841 172.81131786 -69.6640625 171.5078125 C-69.11187223 170.14184731 -68.56007202 168.77572439 -68.00863647 167.40945435 C-66.52688656 163.74124528 -65.03981702 160.07521445 -63.55175781 156.40956116 C-61.99877732 152.5812914 -60.45078664 148.75100525 -58.90234375 144.92089844 C-56.42083261 138.78445162 -53.93666273 132.6490886 -51.45019531 126.51464844 C-48.51148352 119.26430331 -45.57801261 112.01185494 -42.6484375 104.7578125 C-39.60263249 97.21648621 -36.55463614 89.67605413 -33.50390625 82.13671875 C-30.31933642 74.26628878 -27.14076292 66.39345564 -23.96484375 58.51953125 C-7.92680439 18.76757543 -7.92680439 18.76757543 0 0 Z " fill="#84E469" transform="translate(857,276)"/>
<path d="M0 0 C6.08861497 1.15203243 11.52633136 3.47123645 17.25 5.8125 C18.44423584 6.30097412 19.63847168 6.78944824 20.86889648 7.29272461 C60.92672337 23.82548883 96.50786986 45.02715474 127 76 C121.72259902 90.47199092 115.91314392 104.72647606 110.125 119 C109.14043884 121.43221632 108.15606242 123.86450743 107.171875 126.296875 C104.78337783 132.19878008 102.39260714 138.09975998 100 144 C95.68133209 143.37031125 92.30714688 141.83224455 88.42138672 139.87304688 C87.46191635 139.39243553 87.46191635 139.39243553 86.48306274 138.90211487 C84.37909265 137.84654928 82.27945981 136.7826379 80.1796875 135.71875 C78.71457682 134.98212453 77.24916902 134.24608975 75.78347778 133.51062012 C71.93185597 131.57626227 68.08372017 129.63507372 64.2364502 127.69207764 C58.07243908 124.58043894 51.90330449 121.47897505 45.73395157 118.37794495 C43.57965579 117.29381507 41.42691375 116.20664893 39.27438354 115.11901855 C37.95623041 114.45493064 36.63804567 113.79090542 35.31982422 113.12695312 C34.16908417 112.54594849 33.01834412 111.96494385 31.83273315 111.36633301 C29.02256299 109.9367872 29.02256299 109.9367872 26 109 C25.74082291 109.83170967 25.74082291 109.83170967 25.47640991 110.68022156 C23.74790029 116.06444321 21.6892717 121.12152222 19.2265625 126.20703125 C18.86668747 126.96141479 18.50681244 127.71579834 18.1360321 128.49304199 C17.36797551 130.10179569 16.59761292 131.7094502 15.82510376 133.31607056 C14.188538 136.72041865 12.56408438 140.1304985 10.9389801 143.54032898 C10.11827311 145.26220046 9.29701527 146.98380949 8.47520447 148.70515442 C-2.3222115 171.32812321 -12.65908116 194.16587097 -23 217 C-27.414048 215.6095017 -31.56397948 213.91669058 -35.76953125 211.98828125 C-37.07672406 211.39205153 -38.38393501 210.79586158 -39.69116211 210.19970703 C-40.36549286 209.89083557 -41.03982361 209.58196411 -41.73458862 209.26373291 C-53.39188933 203.92721654 -65.07403077 198.71368175 -77 194 C-75.09551938 187.26392373 -72.84426854 180.78991456 -70.1875 174.31640625 C-69.79812759 173.35626617 -69.40875519 172.3961261 -69.00758362 171.40689087 C-68.14011232 169.26888819 -67.27063453 167.13169884 -66.39944458 164.99520874 C-64.15276203 159.48430325 -61.91918539 153.96808633 -59.68466377 148.4522419 C-58.8186069 146.31477398 -57.95202159 144.17752073 -57.08543396 142.04026794 C-48.01111036 119.65145366 -39.02272612 97.22790386 -30.01812744 74.81098557 C-28.09381149 70.02079622 -26.16897527 65.23081604 -24.2440958 60.44085312 C-22.39533027 55.84026417 -20.54673557 51.2396066 -18.6981945 46.63892746 C-17.83507075 44.49077583 -16.97191905 42.34263542 -16.10873604 40.1945076 C-10.7271255 26.80113715 -5.35650421 13.40343192 0 0 Z " fill="#F1D80D" transform="translate(756,525)"/>
<path d="M0 0 C1.71874868 0.00503033 3.4374988 0.00959049 5.15625 0.01367188 C9.31253651 0.0245439 13.4687517 0.04172196 17.625 0.0625 C15.63500908 7.18339409 13.17171801 13.98103843 10.34375 20.80859375 C9.93016235 21.81801529 9.51657471 22.82743683 9.0904541 23.8674469 C7.77302625 27.08012157 6.44921315 30.29011702 5.125 33.5 C4.26778981 35.58640808 3.41101604 37.67299553 2.5546875 39.75976562 C-0.0870892 46.19460691 -2.73106743 52.62854421 -5.375 59.0625 C-9.005 67.9725 -12.635 76.8825 -16.375 86.0625 C-46.735 86.0625 -77.095 86.0625 -108.375 86.0625 C-104.99992254 74.81224181 -104.99992254 74.81224181 -103.21777344 70.42358398 C-102.82015808 69.43813095 -102.42254272 68.45267792 -102.01287842 67.43736267 C-101.38001923 65.88862206 -101.38001923 65.88862206 -100.734375 64.30859375 C-100.06646942 62.65900414 -100.06646942 62.65900414 -99.3850708 60.97608948 C-97.96925099 57.48233679 -96.5471914 53.99116314 -95.125 50.5 C-94.18579526 48.18440807 -93.24698985 45.86865412 -92.30859375 43.55273438 C-90.49945706 39.08900722 -88.68140799 34.62906419 -86.85742188 30.17138672 C-85.29918796 26.35710561 -83.77161123 22.53393608 -82.28320312 18.69189453 C-81.96973938 17.89501724 -81.65627563 17.09813995 -81.33331299 16.27711487 C-80.7670061 14.83465413 -80.21107096 13.38805552 -79.66815186 11.93663025 C-78.66971428 9.41855442 -77.83348797 7.44305992 -75.72314453 5.69140625 C-72.10134322 4.72137504 -68.44823233 4.36734867 -64.7265625 4.02734375 C-63.45309464 3.90196983 -63.45309464 3.90196983 -62.15390015 3.77406311 C-59.4365932 3.50862272 -56.71836225 3.25437929 -54 3 C-52.20956835 2.82555682 -50.41920284 2.65043331 -48.62890625 2.47460938 C-43.54635652 1.9797414 -38.46141934 1.51563992 -33.375 1.0625 C-32.14410645 0.94994873 -30.91321289 0.83739746 -29.64501953 0.72143555 C-19.7627947 -0.09355616 -9.90715182 -0.05105786 0 0 Z " fill="#000000" transform="translate(652.375,162.9375)"/>
<path d="M0 0 C-2.132214 7.83569423 -5.02944644 15.21436777 -8.1875 22.6875 C-8.97334364 24.56301993 -9.7572397 26.43934614 -10.54096985 28.31575012 C-11.10382914 29.66329039 -11.66722685 31.01060587 -12.23112488 32.35771179 C-16.46939857 42.49273949 -20.61144245 52.66762224 -24.77059937 62.83529663 C-25.78782447 65.32145323 -26.80596427 67.80723362 -27.82421875 70.29296875 C-28.13097534 71.04372681 -28.43773193 71.79448486 -28.75378418 72.56799316 C-30.88679968 77.77359936 -30.88679968 77.77359936 -32 80 C-33.2388369 80.0154612 -33.2388369 80.0154612 -34.50270081 80.03123474 C-42.39815591 80.13040916 -50.29355724 80.23306048 -58.18892002 80.33933926 C-62.2451478 80.3938246 -66.30138294 80.44709983 -70.35766602 80.49731445 C-88.58833452 80.72388651 -106.78994651 81.03383936 -125 82 C-122.30116485 73.44511148 -118.95295748 65.16403935 -115.6171875 56.84375 C-114.99595295 55.28965181 -114.3748719 53.73549226 -113.75393677 52.18127441 C-112.45954364 48.94309177 -111.16330216 45.70565709 -109.86572266 42.46875 C-108.1998764 38.31273387 -106.53873186 34.15485694 -104.87893486 29.99642181 C-103.60089432 26.79591596 -102.32040518 23.59639431 -101.03915787 20.39717102 C-100.42517218 18.863209 -99.81195777 17.32893803 -99.19952011 15.7943573 C-98.34758255 13.66072424 -97.49236461 11.52843633 -96.63623047 9.39648438 C-96.1500827 8.18230835 -95.66393494 6.96813232 -95.16305542 5.71716309 C-94 3 -94 3 -93 2 C-90.06346676 1.76432473 -87.14912726 1.59607916 -84.20703125 1.47265625 C-83.27808548 1.43133072 -82.34913971 1.39000519 -81.39204407 1.34742737 C-70.05569446 0.87454969 -58.71296577 0.68117418 -47.36889648 0.49731445 C-43.67489807 0.43729525 -39.98101062 0.3723458 -36.28710938 0.30664062 C-24.19045683 0.09708657 -12.09862508 -0.07365092 0 0 Z " fill="#000000" transform="translate(462,679)"/>
<path d="M0 0 C-0.58051411 4.19204783 -1.55402359 7.80603875 -3.14550781 11.72314453 C-3.81190277 13.37614059 -3.81190277 13.37614059 -4.49176025 15.06253052 C-4.97401062 16.24072357 -5.45626099 17.41891663 -5.953125 18.6328125 C-6.45590118 19.87323382 -6.95815015 21.11386895 -7.4598999 22.35470581 C-8.78087035 25.61722275 -10.10925312 28.87667174 -11.43914795 32.13555908 C-12.7753583 35.41397658 -14.1040216 38.69544876 -15.43359375 41.9765625 C-20.76159013 55.11354202 -20.76159013 55.11354202 -22.69055176 59.76373291 C-23.58332607 61.97020129 -24.43227155 64.19479008 -25.24206543 66.43304443 C-25.64654907 67.51587708 -26.05103271 68.59870972 -26.46777344 69.71435547 C-26.81273865 70.6837204 -27.15770386 71.65308533 -27.51312256 72.65182495 C-29 75 -29 75 -31.61654663 76.3104248 C-35.69121873 77.14087598 -39.5196625 77.30753363 -43.66748047 77.31884766 C-44.51691727 77.32889328 -45.36635406 77.3389389 -46.24153137 77.34928894 C-49.03341022 77.38004029 -51.82519352 77.39713363 -54.6171875 77.4140625 C-56.5591819 77.43278062 -58.50116822 77.45235452 -60.44314575 77.4727478 C-65.5426761 77.52400688 -70.6422328 77.56366594 -75.74188232 77.60089111 C-80.95038335 77.64096977 -86.15877536 77.6920445 -91.3671875 77.7421875 C-101.57804834 77.83887311 -111.78897083 77.92330147 -122 78 C-121.43610338 74.91564154 -120.75275617 72.06314794 -119.6081543 69.14477539 C-119.32622223 68.42012589 -119.04429016 67.69547638 -118.7538147 66.9488678 C-118.44704803 66.17296799 -118.14028137 65.39706818 -117.82421875 64.59765625 C-117.50262787 63.77490707 -117.18103699 62.9521579 -116.84970093 62.10447693 C-115.79984951 59.42214318 -114.74390052 56.74226052 -113.6875 54.0625 C-112.96324279 52.21753328 -112.2392045 50.37248061 -111.51538086 48.52734375 C-109.35083128 43.01536143 -107.17673738 37.50717874 -105 32 C-104.67704956 31.1823114 -104.35409912 30.3646228 -104.0213623 29.52215576 C-102.2990808 25.16256756 -100.5727341 20.80463441 -98.83877563 16.44967651 C-98.32230341 15.15251642 -97.80649247 13.85509284 -97.29135132 12.55740356 C-96.58372754 10.77674727 -95.8720623 8.99769857 -95.16015625 7.21875 C-94.76449463 6.22810547 -94.36883301 5.23746094 -93.96118164 4.21679688 C-93 2 -93 2 -92 1 C-89.60503238 0.87502054 -87.23745329 0.81397805 -84.84082031 0.79467773 C-83.71612587 0.77982834 -83.71612587 0.77982834 -82.56871033 0.76467896 C-80.07188125 0.73292159 -77.57503377 0.70822462 -75.078125 0.68359375 C-73.33949301 0.66301029 -71.60086587 0.64201346 -69.86224365 0.62062073 C-65.26410069 0.56526151 -60.66591085 0.5159672 -56.06768799 0.46777344 C-52.35070942 0.42783796 -48.63378637 0.38372544 -44.91685867 0.33933926 C-13.21082876 -0.03888566 -13.21082876 -0.03888566 0 0 Z " fill="#000000" transform="translate(530,509)"/>
<path d="M0 0 C-2.12371647 7.71639183 -4.91406123 15.04465477 -7.96484375 22.4375 C-8.4394252 23.59822021 -8.91400665 24.75894043 -9.40296936 25.95483398 C-10.65573505 29.01663259 -11.91242955 32.07677636 -13.17120361 35.1361084 C-14.44214797 38.22747428 -15.70814704 41.32085767 -16.97460938 44.4140625 C-18.40467417 47.90681813 -19.83530742 51.39932458 -21.26951599 54.89038086 C-21.91522301 56.46251343 -21.91522301 56.46251343 -22.57397461 58.06640625 C-22.98283905 59.06172363 -23.39170349 60.05704102 -23.81295776 61.08251953 C-25.30922161 64.75999656 -26.7641059 68.45321175 -28.20655823 72.15209961 C-29 74 -29 74 -30 75 C-31.52164675 75.12287744 -33.0488427 75.17783766 -34.57519531 75.20532227 C-36.04947746 75.23523254 -36.04947746 75.23523254 -37.55354309 75.26574707 C-38.63415512 75.2824646 -39.71476715 75.29918213 -40.828125 75.31640625 C-41.94881882 75.33723267 -43.06951263 75.35805908 -44.22416687 75.3795166 C-47.89937284 75.44588201 -51.57465275 75.50452716 -55.25 75.5625 C-57.75854569 75.60534229 -60.26709061 75.64822978 -62.77563477 75.69116211 C-82.51810934 76.01579753 -102.25543826 76.12415561 -122 76 C-121.3181493 71.76657608 -119.9197998 67.95986736 -118.31616211 64.0065918 C-118.04291611 63.32311172 -117.7696701 62.63963165 -117.48814392 61.93544006 C-116.58862326 59.68837287 -115.68302972 57.44380726 -114.77734375 55.19921875 C-114.15062961 53.63709861 -113.52429726 52.07482525 -112.89833069 50.5124054 C-111.25322942 46.40917777 -109.60296005 42.30804809 -107.95159912 38.20733643 C-106.26603361 34.01903837 -104.58537332 29.82877325 -102.90429688 25.63867188 C-99.60765744 17.42385065 -96.30555387 9.21123782 -93 1 C-61.99690028 0.34158142 -31.01066886 -0.18071485 0 0 Z " fill="#000000" transform="translate(598,341)"/>
<path d="M0 0 C0.68922043 0.00085602 1.37844086 0.00171204 2.08854675 0.00259399 C10.70488807 0.01408169 19.32119709 0.03429638 27.9375 0.0625 C21.81571807 16.12005903 15.57335872 32.12211677 9.12036133 48.04956055 C7.84032202 51.21063781 6.56554835 54.37380839 5.29101562 57.53710938 C4.4742647 59.55741555 3.65721976 61.57760289 2.83984375 63.59765625 C2.46077377 64.53899918 2.0817038 65.4803421 1.69114685 66.45021057 C1.34310501 67.3071904 0.99506317 68.16417023 0.63647461 69.04711914 C0.17874916 70.17858116 0.17874916 70.17858116 -0.28822327 71.332901 C-1.0625 73.0625 -1.0625 73.0625 -2.0625 74.0625 C-7.86291983 75.06609758 -13.77872883 75.24603624 -19.65234375 75.37890625 C-20.86219185 75.41014587 -20.86219185 75.41014587 -22.09648132 75.4420166 C-24.73089661 75.50785935 -27.36540227 75.56694732 -30 75.625 C-30.9042572 75.64617889 -31.8085144 75.66735779 -32.74017334 75.68917847 C-53.51375545 76.1698778 -74.28472184 76.16589577 -95.0625 76.0625 C-93.03216112 69.69461898 -90.70047923 63.50763447 -88.1484375 57.33203125 C-87.7744986 56.42031662 -87.40055969 55.50860199 -87.01528931 54.56925964 C-85.82545918 51.67002757 -84.63159199 48.77247899 -83.4375 45.875 C-82.65988125 43.98253485 -81.8825356 42.08995746 -81.10546875 40.19726562 C-79.5530717 36.41693872 -77.99920142 32.63722239 -76.44433594 28.85791016 C-72.63654107 19.59845014 -68.85006997 10.33024707 -65.0625 1.0625 C-43.3758969 0.1244807 -21.70332838 -0.02714613 0 0 Z " fill="#000000" transform="translate(468.0625,594.9375)"/>
<path d="M0 0 C-1.94848484 6.9055206 -4.28278438 13.54325791 -6.984375 20.1875 C-7.36305725 21.12948242 -7.7417395 22.07146484 -8.13189697 23.04199219 C-9.33382036 26.02967089 -10.54162819 29.01492432 -11.75 32 C-12.9388539 34.94690193 -14.12643577 37.89430845 -15.31262207 40.84228516 C-16.09004379 42.77146376 -16.87021065 44.69953852 -17.65319824 46.62646484 C-19.49970653 51.18577362 -21.29335066 55.75156685 -22.96289062 60.37890625 C-23.26906311 61.21389648 -23.5752356 62.04888672 -23.89068604 62.90917969 C-24.4572046 64.46531747 -25.00881618 66.02699711 -25.54241943 67.59472656 C-27.39661758 72.65036351 -27.39661758 72.65036351 -30.05979919 74.193573 C-33.96652142 75.26509379 -37.72055059 75.26252491 -41.73754883 75.22705078 C-42.60634674 75.22734283 -43.47514465 75.22763489 -44.37026978 75.22793579 C-47.23262634 75.22654608 -50.09472034 75.2110017 -52.95703125 75.1953125 C-54.94528562 75.1915811 -56.93354184 75.18873473 -58.92179871 75.18673706 C-64.14803162 75.17911063 -69.3741529 75.15947059 -74.6003418 75.1373291 C-79.9360198 75.11684938 -85.27171588 75.10773079 -90.60742188 75.09765625 C-101.07166356 75.07622381 -111.53582249 75.04209976 -122 75 C-115.87821807 58.94244097 -109.63585872 42.94038323 -103.18286133 27.01293945 C-101.90282202 23.85186219 -100.62804835 20.68869161 -99.35351562 17.52539062 C-98.5367647 15.50508445 -97.71971976 13.48489711 -96.90234375 11.46484375 C-96.52327377 10.52350082 -96.1442038 9.5821579 -95.75364685 8.61228943 C-95.40560501 7.7553096 -95.05756317 6.89832977 -94.69897461 6.01538086 C-94.39382431 5.26107285 -94.08867401 4.50676483 -93.77427673 3.729599 C-93 2 -93 2 -92 1 C-90.19074751 0.87644472 -88.37673631 0.82205596 -86.56347656 0.79467773 C-84.81203339 0.7647599 -84.81203339 0.7647599 -83.02520752 0.73423767 C-81.74329529 0.71752518 -80.46138306 0.70081268 -79.140625 0.68359375 C-77.79904626 0.6629676 -76.45747319 0.6419699 -75.11590576 0.62062073 C-72.27766401 0.57648655 -69.43940009 0.5356525 -66.60107422 0.49731445 C-63.05713521 0.44937386 -59.51332226 0.39552142 -55.96950531 0.33934593 C-37.31169559 0.04526544 -18.66024937 -0.0606961 0 0 Z " fill="#000000" transform="translate(564,425)"/>
<path d="M0 0 C30.36 0 60.72 0 92 0 C90.21803121 5.34590638 88.47891142 10.48675638 86.38037109 15.68139648 C86.13770004 16.28421951 85.89502899 16.88704254 85.64500427 17.50813293 C84.85708412 19.46351491 84.06534444 21.41732339 83.2734375 23.37109375 C82.71940133 24.74340856 82.16558224 26.11581103 81.61196899 27.48829651 C80.4587792 30.34564937 79.30384177 33.20228671 78.14746094 36.05834961 C76.66434113 39.72146203 75.18434799 43.38582724 73.70548058 47.05065823 C72.29171828 50.5537421 70.876371 54.05618488 69.4609375 57.55859375 C69.1913258 58.22614622 68.9217141 58.89369869 68.64393234 59.58148003 C67.88378225 61.46279787 67.12234283 63.3435946 66.36083984 65.22436523 C65.92798676 66.29420151 65.49513367 67.36403778 65.04916382 68.46629333 C64.41468069 69.9985556 63.74167331 71.51665338 63 73 C55.81690259 74.35826838 48.49934475 74.22032408 41.2109375 74.31640625 C39.86259454 74.33706363 38.51425676 74.35806173 37.16592407 74.37937927 C34.34014039 74.42315976 31.51433551 74.46407231 28.68847656 74.50268555 C25.13649541 74.5512672 21.58461812 74.60499752 18.03274155 74.66065407 C2.02144505 74.9105796 -13.98649444 75.06703328 -30 75 C-27.7372867 67.94657331 -25.1097941 61.10036466 -22.32421875 54.23828125 C-21.87657669 53.13002487 -21.42893463 52.02176849 -20.96772766 50.87992859 C-20.0234855 48.54385716 -19.07792004 46.20832023 -18.13110352 43.87329102 C-16.6994366 40.3419428 -15.27222461 36.80882006 -13.84570312 33.27539062 C-12.92213962 30.99208045 -11.99831961 28.708874 -11.07421875 26.42578125 C-10.65524826 25.38883621 -10.23627777 24.35189117 -9.80461121 23.28352356 C-6.63534274 15.47448931 -3.3216129 7.7504301 0 0 Z " fill="#000000" transform="translate(540,258)"/>
<path d="M0 0 C28.71 0 57.42 0 87 0 C86.23747566 4.57514604 85.48117676 7.72313114 83.79101562 11.89770508 C83.33384155 13.03520706 82.87666748 14.17270905 82.40563965 15.34468079 C81.66344177 17.16373177 81.66344177 17.16373177 80.90625 19.01953125 C80.39394866 20.28632814 79.882115 21.55331426 79.37072754 22.82048035 C78.30184456 25.46543553 77.22894441 28.10871049 76.15283203 30.75073242 C74.7714806 34.14244627 73.3978164 37.53720659 72.02680206 40.93311024 C70.97207308 43.54441183 69.91458934 46.15459006 68.85612488 48.7643795 C68.10130256 50.62590528 67.3478246 52.487976 66.59436035 54.35005188 C66.13718628 55.47179306 65.68001221 56.59353424 65.20898438 57.74926758 C64.80562866 58.74154861 64.40227295 59.73382965 63.98669434 60.75617981 C63 63 63 63 62 64 C60.37233168 64.09462842 58.74052012 64.11885856 57.11010742 64.11523438 C55.53293694 64.114328 55.53293694 64.114328 53.92390442 64.11340332 C52.76694565 64.10691772 51.60998688 64.10043213 50.41796875 64.09375 C49.21544968 64.09016479 48.0129306 64.08657959 46.77397156 64.08288574 C32.95847109 64.02303112 19.14548188 63.78775504 5.33233643 63.53643799 C1.89151 63.47436524 -1.54936422 63.41505911 -4.99023438 63.35546875 C-11.66020116 63.23942721 -18.33011778 63.12080006 -25 63 C-20.51513652 50.80695109 -15.74963872 38.73364784 -10.91186523 26.67675781 C-9.67032562 23.58219246 -8.43165638 20.48648914 -7.19335938 17.390625 C-6.40381026 15.41920497 -5.6141028 13.44784835 -4.82421875 11.4765625 C-4.45447433 10.55275787 -4.08472992 9.62895325 -3.70378113 8.67715454 C-3.19238335 7.40344498 -3.19238335 7.40344498 -2.6706543 6.10400391 C-2.37120407 5.35728424 -2.07175385 4.61056458 -1.76322937 3.84121704 C-1.22373751 2.5397451 -0.63006042 1.26012085 0 0 Z " fill="#000000" transform="translate(481,157)"/>
<path d="M0 0 C0.72065643 0.00198395 1.44131287 0.0039679 2.18380737 0.00601196 C2.94353851 0.00469269 3.70326965 0.00337341 4.48602295 0.00201416 C7.02855246 0.00006811 9.57097611 0.00651837 12.11349487 0.01382446 C12.982323 0.01471069 13.85115112 0.01559692 14.74630737 0.01651001 C37.16585378 0.04306377 59.57698394 0.57972626 81.98849487 1.13882446 C81.34093165 4.96490753 80.23176532 8.32804617 78.7795105 11.92300415 C78.32233643 13.06058167 77.86516235 14.19815918 77.39413452 15.37020874 C76.65193665 17.19700165 76.65193665 17.19700165 75.89474487 19.06069946 C75.3825956 20.32898722 74.87075941 21.59740145 74.35922241 22.86593628 C73.28932043 25.51644391 72.21646075 28.16572783 71.1413269 30.81411743 C69.761185 34.21419334 68.3872297 37.61672718 67.01529694 41.02012253 C65.96042468 43.6356556 64.90295577 46.25013223 63.84461975 48.86426544 C63.33680026 50.1191578 62.8296477 51.37432026 62.32316589 52.62975311 C61.61715611 54.37827582 60.90741238 56.12528947 60.19747925 57.8722229 C59.79412354 58.86752014 59.39076782 59.86281738 58.97518921 60.88827515 C57.98849487 63.13882446 57.98849487 63.13882446 56.98849487 64.13882446 C55.25983536 64.23786411 53.52711753 64.26681651 51.79562378 64.26821899 C50.12459091 64.27294724 50.12459091 64.27294724 48.4197998 64.277771 C47.1972348 64.27574677 45.9746698 64.27372253 44.71505737 64.27163696 C42.81558853 64.27307205 42.81558853 64.27307205 40.87774658 64.27453613 C38.1722786 64.27521953 35.46689948 64.27385399 32.76144409 64.26919556 C30.0426717 64.26473123 27.32396611 64.26453214 24.60519409 64.26919556 C6.37324616 64.29838823 -11.79812208 63.96638597 -30.01150513 63.13882446 C-25.70529306 50.49446249 -20.90608926 38.07722606 -15.92337036 25.68521118 C-14.67920705 22.58956416 -13.4417187 19.49130437 -12.2048645 16.39273071 C-11.41553724 14.42252383 -10.6258382 12.45246584 -9.83572388 10.48257446 C-9.46597946 9.55674561 -9.09623505 8.63091675 -8.71528625 7.67703247 C-8.20388847 6.40805115 -8.20388847 6.40805115 -7.68215942 5.11343384 C-7.3827092 4.36750977 -7.08325897 3.62158569 -6.7747345 2.85305786 C-5.25709817 -0.55559356 -3.52161723 0.01684046 0 0 Z " fill="#000000" transform="translate(382.0115051269531,413.8611755371094)"/>
<path d="M0 0 C10.16215022 -0.02321736 20.32429407 -0.04096289 30.48646545 -0.05181217 C35.20566752 -0.05702048 39.92485138 -0.06408073 44.64404297 -0.07543945 C49.20223163 -0.08634142 53.76040282 -0.09229229 58.31860352 -0.09487724 C60.05363235 -0.09671835 61.78866028 -0.10031349 63.52368164 -0.10573006 C65.96242301 -0.1130376 68.40109311 -0.11398687 70.83984375 -0.11352539 C71.90476295 -0.1189183 71.90476295 -0.1189183 72.99119568 -0.12442017 C77.75082657 -0.11473725 82.29769145 0.33587499 87 1 C84.69511376 8.2000659 81.99356743 15.1812247 79.1484375 22.18359375 C78.68893707 23.32031021 78.22943665 24.45702667 77.75601196 25.62818909 C76.79076779 28.01460628 75.82422401 30.40049819 74.85644531 32.78588867 C73.37024166 36.44922881 71.88790384 40.11411448 70.40625 43.77929688 C69.46636823 46.10165252 68.52627171 48.42392127 67.5859375 50.74609375 C67.14116058 51.84497421 66.69638367 52.94385468 66.23812866 54.07603455 C65.82745148 55.08791336 65.41677429 56.09979218 64.99365234 57.14233398 C64.63185883 58.03452133 64.27006531 58.92670868 63.89730835 59.84593201 C63.31193787 61.25116558 62.68078484 62.63843032 62 64 C32.99087457 64.20190525 4.00154912 63.61740271 -25 63 C-23.38084558 57.39382786 -21.69277564 51.91194098 -19.43359375 46.5234375 C-18.70366211 44.77160156 -18.70366211 44.77160156 -17.95898438 42.984375 C-17.45689453 41.79328125 -16.95480469 40.6021875 -16.4375 39.375 C-15.7249707 37.66957031 -15.7249707 37.66957031 -14.99804688 35.9296875 C-13.96795484 33.46496794 -12.93603333 31.00108692 -11.90185547 28.53808594 C-9.45651919 22.70950386 -7.02797589 16.8739177 -4.59765625 11.0390625 C-4.14595566 9.95466888 -3.69425507 8.87027527 -3.22886658 7.75302124 C-2.15246796 5.16872652 -1.07617423 2.58438817 0 0 Z " fill="#000000" transform="translate(274,670)"/>
<path d="M0 0 C1.29461655 0.00222061 2.58923309 0.00444122 3.92308044 0.00672913 C4.99131546 0.00651009 4.99131546 0.00651009 6.08113098 0.00628662 C8.4457143 0.00698581 10.81021979 0.01477846 13.17478943 0.02259827 C14.81003781 0.02446243 16.44528675 0.02588634 18.08053589 0.02688599 C22.39273103 0.03071134 26.7048927 0.04054177 31.01707458 0.05158997 C35.41404263 0.06180371 39.81101607 0.06638353 44.20799255 0.07142639 C52.84147149 0.08216402 61.47492317 0.09924065 70.10838318 0.12025452 C69.54559519 4.05209778 68.72321932 7.52152563 67.25071716 11.20765686 C66.87039841 12.16819977 66.49007965 13.12874268 66.09823608 14.11839294 C65.68779556 15.13736664 65.27735504 16.15634033 64.85447693 17.20619202 C64.43416702 18.26311249 64.01385712 19.32003296 63.58081055 20.40898132 C62.24141348 23.7733283 60.89377263 27.13430213 59.54588318 30.49525452 C58.63452969 32.78019299 57.72371614 35.0653469 56.8134613 37.35072327 C54.58468694 42.94307896 52.34914099 48.53269039 50.10838318 54.12025452 C25.41863879 54.23729312 0.78051915 54.11753716 -23.89161682 53.12025452 C-21.79948075 46.60462849 -19.43671543 40.23080767 -16.91505432 33.87025452 C-16.54433807 32.93093079 -16.17362183 31.99160706 -15.79167175 31.02381897 C-15.01465509 29.05695777 -14.23643083 27.09057324 -13.45704651 25.12464905 C-12.25959157 22.10252426 -11.06757317 19.07829304 -9.87599182 16.05384827 C-9.1185027 14.13835577 -8.36070154 12.22298664 -7.60255432 10.30775452 C-7.06663162 8.94698792 -7.06663162 8.94698792 -6.5198822 7.55873108 C-6.18928802 6.7269635 -5.85869385 5.89519592 -5.51808167 5.03822327 C-5.08198074 3.93643738 -5.08198074 3.93643738 -4.6370697 2.81239319 C-3.40045794 0.00534979 -3.27369703 0.1361442 0 0 Z " fill="#EB48D0" transform="translate(422.89161682128906,328.87974548339844)"/>
<path d="M0 0 C24.09 0 48.18 0 73 0 C72.31588337 3.42058314 71.73780148 5.96698055 70.48120117 9.09667969 C70.17385544 9.86808289 69.8665097 10.63948608 69.54985046 11.43426514 C69.2175795 12.25517639 68.88530853 13.07608765 68.54296875 13.921875 C68.02661613 15.211008 68.02661613 15.211008 67.49983215 16.52618408 C66.7713648 18.34248902 66.04082283 20.15796308 65.30834961 21.97265625 C64.19769701 24.72473292 63.09340208 27.47929068 61.99023438 30.234375 C61.27902082 32.00535897 60.56744375 33.77619701 59.85546875 35.546875 C59.52927048 36.35968933 59.2030722 37.17250366 58.86698914 38.00994873 C56.69182847 43.39296574 54.39074714 48.70928609 52 54 C27.65063301 54.16896646 3.33903389 53.68622351 -21 53 C-20.37693391 47.62866674 -18.60423597 43.10839241 -16.54296875 38.1640625 C-16.19873367 37.32587982 -15.8544986 36.48769714 -15.49983215 35.62411499 C-14.77230142 33.85626045 -14.04174404 32.0896488 -13.30834961 30.32421875 C-12.19518429 27.64350522 -11.09193541 24.95887993 -9.99023438 22.2734375 C-9.27922984 20.54923823 -8.56765948 18.82527215 -7.85546875 17.1015625 C-7.52927048 16.30859772 -7.2030722 15.51563293 -6.86698914 14.69863892 C-6.55018692 13.93779999 -6.2333847 13.17696106 -5.90698242 12.39306641 C-5.63464279 11.73609772 -5.36230316 11.07912903 -5.08171082 10.4022522 C-3.49724225 6.88348079 -1.72582113 3.45164226 0 0 Z " fill="#5DFAFB" transform="translate(315,590)"/>
<path d="M0 0 C36.63 0.495 36.63 0.495 74 1 C70.625 11.125 70.625 11.125 69.00708008 15.15258789 C68.64199341 16.06512329 68.27690674 16.97765869 67.90075684 17.91784668 C67.52745239 18.84343384 67.15414795 19.769021 66.76953125 20.72265625 C66.24329163 22.03598938 66.24329163 22.03598938 65.7064209 23.37585449 C64.41130122 26.60588212 63.11164236 29.83408822 61.8125 33.0625 C58.904375 40.301875 55.99625 47.54125 53 55 C28.91 54.67 4.82 54.34 -20 54 C-19.28581652 49.71489909 -18.69113377 46.78972559 -17.14233398 42.91259766 C-16.75670288 41.9387915 -16.37107178 40.96498535 -15.97375488 39.96166992 C-15.56862671 38.95595947 -15.16349854 37.95024902 -14.74609375 36.9140625 C-14.37359497 35.97651123 -14.00109619 35.03895996 -13.61730957 34.07299805 C-12.23055733 30.58773167 -10.83341527 27.10660653 -9.4375 23.625 C-6.323125 15.82875 -3.20875 8.0325 0 0 Z " fill="#EC49D2" transform="translate(453,246)"/>
<path d="M0 0 C8.91012483 -0.02318661 17.82023925 -0.04094732 26.73038769 -0.05181217 C30.86787673 -0.05702717 35.00534511 -0.0640997 39.14282227 -0.07543945 C43.13690201 -0.08631749 47.1309619 -0.09228727 51.12505531 -0.09487724 C52.6476504 -0.09672263 54.17024442 -0.10032618 55.69283104 -0.10573006 C57.82804068 -0.11300573 59.9631686 -0.11398819 62.09838867 -0.11352539 C63.3130632 -0.115746 64.52773773 -0.11796661 65.77922058 -0.12025452 C68.64995538 -0.01306965 71.21233078 0.33577182 74 1 C72.62232157 4.69277891 71.23831944 8.38313257 69.84960938 12.07177734 C69.15979227 13.90741598 68.47431146 15.74468243 67.7890625 17.58203125 C63.16534065 29.84773781 58.08652018 41.92020015 53 54 C45.71399782 53.89133214 38.42807199 53.77849223 31.14221191 53.66066074 C27.75726945 53.6060413 24.37231804 53.55273585 20.98730469 53.50268555 C-7.83385452 53.07132673 -7.83385452 53.07132673 -21 52 C-19.56419267 48.39515697 -18.12597431 44.79127954 -16.6875 41.1875 C-16.30271484 40.22134766 -15.91792969 39.25519531 -15.52148438 38.25976562 C-10.41691429 25.47855525 -5.19977592 12.74269109 0 0 Z " fill="#5CFAFB" transform="translate(348,506)"/>
<path d="M0 0 C0.70706085 0.00359528 1.4141217 0.00719055 2.14260864 0.01089478 C3.25473473 0.01067574 3.25473473 0.01067574 4.389328 0.01045227 C6.85130696 0.01115152 9.31321119 0.01894442 11.775177 0.02676392 C13.47768614 0.02862806 15.18019582 0.03005198 16.88270569 0.03105164 C21.37245148 0.03487714 25.86216513 0.0447077 30.35189819 0.05575562 C34.92983566 0.06596903 39.50777831 0.07054911 44.08572388 0.07559204 C53.07467032 0.08632994 62.06359287 0.10340675 71.05252075 0.12442017 C70.51040066 3.84118603 69.80898963 7.16631662 68.39431763 10.64517212 C68.05726807 11.48236282 67.72021851 12.31955353 67.37295532 13.18211365 C67.00939941 14.06670761 66.64584351 14.95130157 66.27127075 15.86270142 C65.89772461 16.78407394 65.52417847 17.70544647 65.13931274 18.65473938 C64.35204407 20.59315724 63.56182265 22.53037818 62.76882935 24.46646118 C61.55063142 27.44153427 60.3418573 30.42030299 59.134552 33.39981079 C58.36817123 35.28349669 57.60126269 37.16696798 56.83377075 39.05020142 C56.47021484 39.94491653 56.10665894 40.83963165 55.73208618 41.76145935 C55.39503662 42.58288925 55.05798706 43.40431915 54.71072388 44.25064087 C54.26557434 45.33935234 54.26557434 45.33935234 53.81143188 46.45005798 C53.05252075 48.12442017 53.05252075 48.12442017 52.05252075 49.12442017 C49.67951206 49.2193675 47.33573372 49.25001336 44.96243286 49.23794556 C44.22101547 49.23809158 43.47959808 49.23823761 42.7157135 49.23838806 C40.25373454 49.23768882 37.79183032 49.22989591 35.3298645 49.22207642 C33.62735536 49.22021228 31.92484568 49.21878836 30.22233582 49.2177887 C25.73259002 49.21396319 21.24287637 49.20413263 16.75314331 49.19308472 C12.17520584 49.1828713 7.5972632 49.17829123 3.01931763 49.17324829 C-5.96962882 49.16251039 -14.95855136 49.14543358 -23.94747925 49.12442017 C-23.40535915 45.4076543 -22.70394812 42.08252371 -21.28927612 38.60366821 C-20.78370178 37.34788216 -20.78370178 37.34788216 -20.26791382 36.06672668 C-19.90435791 35.18213272 -19.540802 34.29753876 -19.16622925 33.38613892 C-18.60591003 32.00408012 -18.60591003 32.00408012 -18.03427124 30.59410095 C-17.24700257 28.65568309 -16.45678114 26.71846215 -15.66378784 24.78237915 C-14.44558992 21.80730606 -13.23681579 18.82853734 -12.0295105 15.84902954 C-11.26312973 13.96534364 -10.49622118 12.08187236 -9.72872925 10.19863892 C-9.36517334 9.3039238 -9.00161743 8.40920868 -8.62704468 7.48738098 C-8.12147034 6.25523613 -8.12147034 6.25523613 -7.60568237 4.99819946 C-7.30891602 4.27239182 -7.01214966 3.54658417 -6.70639038 2.79878235 C-5.18698592 -0.55343277 -3.47476035 0.00745358 0 0 Z " fill="#000000" transform="translate(197.94747924804688,641.8755798339844)"/>
<path d="M0 0 C25.41 0 50.82 0 77 0 C76.31153201 4.13080792 75.83270752 6.85338161 74.32592773 10.53662109 C73.9809021 11.38861084 73.63587646 12.24060059 73.28039551 13.1184082 C72.91845093 13.99456787 72.55650635 14.87072754 72.18359375 15.7734375 C71.85041138 16.59303955 71.517229 17.4126416 71.1739502 18.25708008 C69.93520288 21.2991384 68.68572178 24.33681697 67.4375 27.375 C64.653125 34.18125 61.86875 40.9875 59 48 C33.59 48 8.18 48 -18 48 C-17.28967696 44.44838481 -16.63012815 41.76009958 -15.32592773 38.48510742 C-14.9809021 37.61269409 -14.63587646 36.74028076 -14.28039551 35.84143066 C-13.91845093 34.93856323 -13.55650635 34.0356958 -13.18359375 33.10546875 C-12.85041138 32.26520142 -12.517229 31.42493408 -12.1739502 30.5592041 C-10.93309701 27.43346067 -9.68486162 24.31065187 -8.4375 21.1875 C-5.653125 14.195625 -2.86875 7.20375 0 0 Z " fill="#000000" transform="translate(399,129)"/>
<path d="M0 0 C25.41 0 50.82 0 77 0 C76.31153201 4.13080792 75.83270752 6.85338161 74.32592773 10.53662109 C73.9809021 11.38861084 73.63587646 12.24060059 73.28039551 13.1184082 C72.91845093 13.99456787 72.55650635 14.87072754 72.18359375 15.7734375 C71.85041138 16.59303955 71.517229 17.4126416 71.1739502 18.25708008 C69.93520288 21.2991384 68.68572178 24.33681697 67.4375 27.375 C64.653125 34.18125 61.86875 40.9875 59 48 C33.26 48 7.52 48 -19 48 C-12.95791019 31.8877605 -6.47665081 15.94252506 0 0 Z " fill="#000000" transform="translate(295,387)"/>
<path d="M0 0 C1.15249741 0.00222061 2.30499481 0.00444122 3.49241638 0.00672913 C5.4443264 0.00684242 5.4443264 0.00684242 7.43566895 0.00695801 C8.86661313 0.01206543 10.29755694 0.01728144 11.72850037 0.02259827 C13.18438672 0.02446249 14.64027369 0.02588637 16.09616089 0.02688599 C19.93488791 0.03071086 23.77357731 0.04054088 27.61228943 0.05158997 C31.52667227 0.06180474 35.44106117 0.06638375 39.35545349 0.07142639 C47.04101755 0.08216318 54.72655057 0.09923923 62.41209412 0.12025452 C61.83579212 3.33321688 61.08618166 6.2344093 59.84568787 9.25209045 C59.52865906 10.02929443 59.21163025 10.80649841 58.88499451 11.60725403 C58.54331238 12.43138794 58.20163025 13.25552185 57.84959412 14.10462952 C57.32256897 15.38892853 57.32256897 15.38892853 56.78489685 16.69917297 C56.04395678 18.50203664 55.30082714 20.3040018 54.5556488 22.1051178 C53.41125008 24.87229542 52.27443342 27.64249723 51.13865662 30.41322327 C50.41774652 32.1647082 49.69640734 33.91601659 48.97459412 35.66712952 C48.63291199 36.49936035 48.29122986 37.33159119 47.93919373 38.18904114 C45.52792732 44.00442131 45.52792732 44.00442131 44.41209412 45.12025452 C42.3871518 45.21434931 40.35889542 45.23768573 38.33177185 45.23377991 C36.37986183 45.23366661 36.37986183 45.23366661 34.38851929 45.23355103 C32.9575751 45.2284436 31.52663129 45.2232276 30.09568787 45.21791077 C28.63980152 45.21604655 27.18391454 45.21462266 25.72802734 45.21362305 C21.88930033 45.20979817 18.05061092 45.19996816 14.2118988 45.18891907 C10.29751596 45.17870429 6.38312706 45.17412529 2.46873474 45.16908264 C-5.21682931 45.15834585 -12.90236234 45.14126981 -20.58790588 45.12025452 C-18.79788293 38.83988522 -16.78304184 32.76696548 -14.26759338 26.74134827 C-13.81140121 25.6341317 -13.81140121 25.6341317 -13.34599304 24.50454712 C-12.71130017 22.96689639 -12.07431355 21.43019051 -11.43507385 19.89442444 C-10.4529684 17.53386912 -9.47891049 15.17010781 -8.50587463 12.80580139 C-7.88524373 11.30495887 -7.26416666 9.80430075 -6.64259338 8.30384827 C-6.35093292 7.5966716 -6.05927246 6.88949493 -5.7587738 6.16088867 C-3.25111701 0.15107254 -3.25111701 0.15107254 0 0 Z " fill="#EB48D1" transform="translate(375.58790588378906,213.87974548339844)"/>
<path d="M0 0 C8.16235313 -0.04632061 16.32465143 -0.08186773 24.48710346 -0.10362434 C28.27717541 -0.11406591 32.0671575 -0.12823182 35.85717773 -0.15087891 C39.51409477 -0.17259413 43.17092531 -0.18456582 46.82790184 -0.18975449 C48.22377064 -0.19345263 49.61963466 -0.20067411 51.01546669 -0.21146011 C52.96900449 -0.22595663 54.92262913 -0.22681676 56.8762207 -0.22705078 C58.5450103 -0.23371262 58.5450103 -0.23371262 60.24751282 -0.24050903 C63 0 63 0 66 2 C63.5982685 7.80283119 61.19540617 13.60519316 58.79174805 19.40722656 C57.97377747 21.38205286 57.15606814 23.35698738 56.33862305 25.33203125 C55.16523414 28.16695024 53.99091362 31.00148174 52.81640625 33.8359375 C52.26636681 35.16569107 52.26636681 35.16569107 51.70521545 36.52230835 C51.19479958 37.753358 51.19479958 37.753358 50.67407227 39.00927734 C50.22439842 40.0951564 50.22439842 40.0951564 49.76564026 41.20297241 C49.21852513 42.48710157 48.62423115 43.75153769 48 45 C26.55 45 5.1 45 -17 45 C-15.07957799 38.5985933 -13.14835392 32.51562651 -10.64453125 26.3671875 C-10.33803146 25.6044754 -10.03153168 24.84176331 -9.71574402 24.05593872 C-8.75209332 21.66061666 -7.78242482 19.26778737 -6.8125 16.875 C-6.1512898 15.23453734 -5.49047918 13.59391356 -4.83007812 11.953125 C-3.22465388 7.96687713 -1.61383429 3.98285006 0 0 Z " fill="#5CFAFA" transform="translate(267,474)"/>
<path d="M0 0 C7.6497323 -0.02547408 15.29945356 -0.04291882 22.94921875 -0.05493164 C25.54850676 -0.05994271 28.14779198 -0.06675334 30.74707031 -0.07543945 C34.49544975 -0.08764682 38.24379173 -0.09326073 41.9921875 -0.09765625 C43.14363251 -0.10281754 44.29507751 -0.10797882 45.48141479 -0.11329651 C52.05195939 -0.11374751 58.47809516 0.18837112 65 1 C64.29025596 5.99465835 62.32884399 10.39789162 60.40234375 15.01953125 C59.9320575 16.16198303 59.9320575 16.16198303 59.45227051 17.32751465 C58.28561535 20.15788231 57.11109402 22.98500244 55.9375 25.8125 C53.318125 32.144375 50.69875 38.47625 48 45 C26.55 45 5.1 45 -17 45 C-15.875 38.25 -15.875 38.25 -14.41772461 34.73876953 C-14.09746811 33.95841339 -13.77721161 33.17805725 -13.44725037 32.37405396 C-13.10243118 31.55194427 -12.757612 30.72983459 -12.40234375 29.8828125 C-12.04862198 29.02565643 -11.69490021 28.16850037 -11.33045959 27.28536987 C-10.20534967 24.56276934 -9.07156896 21.84387923 -7.9375 19.125 C-7.17064782 17.27367604 -6.40436544 15.42211595 -5.63867188 13.5703125 C-3.76570231 9.04411381 -1.88495086 4.52122141 0 0 Z " fill="#5CFAFB" transform="translate(234,557)"/>
<path d="M0 0 C21.45 0 42.9 0 65 0 C64.32358405 3.38207973 63.75595174 5.92497282 62.52539062 9.02416992 C62.22838257 9.77812546 61.93137451 10.53208099 61.62536621 11.30888367 C61.14565369 12.50756828 61.14565369 12.50756828 60.65625 13.73046875 C60.32709595 14.56210037 59.99794189 15.39373199 59.65881348 16.25056458 C58.60981329 18.89779183 57.55487744 21.54261006 56.5 24.1875 C55.7899976 25.97837017 55.08035813 27.76938428 54.37109375 29.56054688 C49.19040337 42.61919326 49.19040337 42.61919326 48 45 C26.55 45 5.1 45 -17 45 C-15.0795289 38.59842966 -13.14861181 32.51577223 -10.64453125 26.3671875 C-10.37233765 25.68922119 -10.10014404 25.01125488 -9.81970215 24.31274414 C-8.82208295 21.83156821 -7.81687552 19.35344869 -6.8125 16.875 C-4.564375 11.30625 -2.31625 5.7375 0 0 Z " fill="#EC48D1" transform="translate(338,300)"/>
<path d="M0 0 C20.46 0 40.92 0 62 0 C61.17509855 4.94940868 60.00890958 8.84733555 58.05859375 13.3671875 C57.67676941 14.27223022 57.67676941 14.27223022 57.28723145 15.19555664 C56.34441527 17.42505115 55.39030751 19.6497571 54.4375 21.875 C52.313125 26.86625 50.18875 31.8575 48 37 C27.54 37 7.08 37 -14 37 C-13.177563 32.06537799 -12.20892862 28.66144204 -10.3125 24.140625 C-10.04993408 23.51017273 -9.78736816 22.87972046 -9.5168457 22.23016357 C-8.68383897 20.23422745 -7.84200062 18.24215612 -7 16.25 C-6.43432666 14.89737331 -5.86921696 13.54451075 -5.3046875 12.19140625 C-1.26021635 2.52043269 -1.26021635 2.52043269 0 0 Z " fill="#000000" transform="translate(123,610)"/>
<path d="M0 0 C20.46 0 40.92 0 62 0 C61.17455703 4.9526578 60.15811522 8.53224387 58.3125 13.11328125 C58.04993408 13.76830124 57.78736816 14.42332123 57.5168457 15.09819031 C56.96492816 16.47163875 56.41011357 17.84392625 55.85253906 19.21508789 C54.99651363 21.32107715 54.14990386 23.43066806 53.3046875 25.54101562 C49.15303743 35.84696257 49.15303743 35.84696257 48 37 C46.06693502 37.09396057 44.13041162 37.11743517 42.19506836 37.11352539 C40.33325172 37.11341209 40.33325172 37.11341209 38.43382263 37.11329651 C37.0691626 37.10818911 35.70450298 37.1029731 34.33984375 37.09765625 C32.95121817 37.095792 31.56259193 37.09436813 30.17396545 37.09336853 C26.51278885 37.08954387 22.8516517 37.07971403 19.19049072 37.06866455 C15.45707737 37.05844932 11.72365766 37.05387067 7.99023438 37.04882812 C0.66013823 37.03809171 -6.66992536 37.02101591 -14 37 C-10.21083147 24.36943823 -4.97529846 12.21209622 0 0 Z " fill="#000000" transform="translate(330,96)"/>
<path d="M0 0 C1.11696762 0.00222061 2.23393524 0.00444122 3.38475037 0.00672913 C4.64598221 0.00680466 5.90721405 0.00688019 7.20666504 0.00695801 C8.59341979 0.01206542 9.98017414 0.01728142 11.3669281 0.02259827 C12.77797394 0.0244625 14.18902042 0.02588638 15.60006714 0.02688599 C19.3204272 0.03071072 23.04074845 0.04054062 26.76109314 0.05158997 C30.55482966 0.06180504 34.34857243 0.06638381 38.14231873 0.07142639 C45.59090416 0.08216294 53.03945758 0.09923882 60.48802185 0.12025452 C57.07315995 9.38436425 53.56631786 18.56924697 49.61302185 27.62025452 C48.87691239 29.31479888 48.14109211 31.00946888 47.40550232 32.70423889 C46.76634216 34.1762441 46.12718201 35.64824931 45.48802185 37.12025452 C39.39061265 37.145315 33.29323463 37.16328173 27.19578552 37.17518616 C25.12937395 37.18015851 23.06296578 37.18693874 20.99656677 37.19569397 C8.45189407 37.24744341 -3.99957839 37.05770688 -16.51197815 36.12025452 C-14.3324406 28.20797436 -11.46657289 20.65911734 -8.38697815 13.05775452 C-7.93193909 11.9188678 -7.47690002 10.77998108 -7.0080719 9.60658264 C-3.20422162 0.1533939 -3.20422162 0.1533939 0 0 Z " fill="#000000" transform="translate(228.51197814941406,354.87974548339844)"/>
<path d="M0 0 C17.49 0 34.98 0 53 0 C47.21542553 17.3537234 47.21542553 17.3537234 44.25 24.375 C43.94707031 25.10976563 43.64414063 25.84453125 43.33203125 26.6015625 C41.14174107 31.85825893 41.14174107 31.85825893 40 33 C38.37325222 33.09340434 36.74245949 33.11745171 35.11303711 33.11352539 C34.07203354 33.11344986 33.03102997 33.11337433 31.95848083 33.11329651 C30.8262056 33.10813522 29.69393036 33.10297394 28.52734375 33.09765625 C27.37456436 33.0962413 26.22178497 33.09482635 25.03407288 33.09336853 C21.33518936 33.08775005 17.63636536 33.07519442 13.9375 33.0625 C11.43684983 33.05748738 8.93619871 33.05292406 6.43554688 33.04882812 C0.29034412 33.03777462 -5.85482369 33.02101852 -12 33 C-11.40405108 28.4992514 -10.23171075 24.69723284 -8.49609375 20.5078125 C-8.05193115 19.4264502 -7.60776855 18.34508789 -7.15014648 17.23095703 C-6.58497314 15.87599121 -6.0197998 14.52102539 -5.4375 13.125 C-3.643125 8.79375 -1.84875 4.4625 0 0 Z " fill="#5CFBFB" transform="translate(163,526)"/>
<path d="M0 0 C0.8821669 0.00202423 1.7643338 0.00404846 2.67323303 0.00613403 C4.03388634 0.00469894 4.03388634 0.00469894 5.42202759 0.00323486 C7.35138518 0.00255236 9.28074505 0.00441148 11.21009827 0.00857544 C14.13341098 0.01386737 17.05656611 0.00866188 19.97987366 0.00222778 C21.85682712 0.00288964 23.73378048 0.00417301 25.61073303 0.00613403 C26.47468185 0.0041098 27.33863068 0.00208557 28.22875977 0 C34.11766295 0.02218069 39.89128507 0.45530748 45.73963928 1.13894653 C45.07480425 5.18242058 43.82013586 8.70966903 42.27088928 12.49832153 C41.78233459 13.6958606 41.29377991 14.89339966 40.79042053 16.12722778 C40.53599182 16.74420532 40.28156311 17.36118286 40.01942444 17.99685669 C39.23717594 19.89492366 38.4625231 21.79596073 37.68885803 23.69754028 C33.87651543 33.00207039 33.87651543 33.00207039 32.73963928 34.13894653 C31.11189153 34.20290279 29.48129719 34.19599454 27.85267639 34.16067505 C26.81167282 34.14057877 25.77066925 34.12048248 24.69812012 34.09977722 C22.99970726 34.05922462 22.99970726 34.05922462 21.26698303 34.01785278 C19.53781395 33.98243629 19.53781395 33.98243629 17.77371216 33.94630432 C14.07473615 33.8694435 10.37595782 33.78551603 6.67713928 33.70144653 C4.17649807 33.64824828 1.67584707 33.59550776 -0.82481384 33.54324341 C-6.9701197 33.41379819 -13.11527755 33.27854361 -19.26036072 33.13894653 C-16.93376119 26.04526877 -14.36548026 19.08754112 -11.63536072 12.13894653 C-11.22801697 11.09093872 -10.82067322 10.04293091 -10.40098572 8.96316528 C-10.01168884 7.9692981 -9.62239197 6.97543091 -9.22129822 5.95144653 C-8.86857849 5.05039185 -8.51585876 4.14933716 -8.15245056 3.22097778 C-6.39772298 -0.87434702 -4.19115909 0.01634001 0 0 Z " fill="#EB47CF" transform="translate(274.26036071777344,267.8610534667969)"/>
<path d="M0 0 C1.40897804 0.00333092 1.40897804 0.00333092 2.84642029 0.00672913 C3.90744461 0.00680466 4.96846893 0.00688019 6.06164551 0.00695801 C7.79286903 0.01469994 7.79286903 0.01469994 9.55906677 0.02259827 C10.73404221 0.02401321 11.90901764 0.02542816 13.11959839 0.02688599 C16.88981116 0.0325046 20.65996556 0.04506026 24.43016052 0.05775452 C26.97898779 0.06276712 29.52781599 0.06733044 32.0766449 0.07142639 C38.34033685 0.08248007 44.60399452 0.0992363 50.86766052 0.12025452 C47.69153417 8.66903131 44.51791439 17.20771688 40.99266052 25.62025452 C40.68586365 26.35888733 40.37906677 27.09752014 40.06297302 27.85853577 C39.33365283 29.61346247 38.60106375 31.36703023 37.86766052 33.12025452 C0.99061495 33.32664404 0.99061495 33.32664404 -14.13233948 32.12025452 C-13.54357181 27.82169054 -12.50422808 24.12047922 -10.88233948 20.10072327 C-10.43890198 18.99664124 -9.99546448 17.8925592 -9.53858948 16.75502014 C-9.07452698 15.61742249 -8.61046448 14.47982483 -8.13233948 13.30775452 C-7.66827698 12.15082092 -7.20421448 10.99388733 -6.72608948 9.80189514 C-2.8306856 0.15963815 -2.8306856 0.15963815 0 0 Z " fill="#EC48D1" transform="translate(304.13233947753906,182.87974548339844)"/>
<path d="M0 0 C1.40897804 0.00333092 1.40897804 0.00333092 2.84642029 0.00672913 C3.90744461 0.00680466 4.96846893 0.00688019 6.06164551 0.00695801 C7.79286903 0.01469994 7.79286903 0.01469994 9.55906677 0.02259827 C10.73404221 0.02401321 11.90901764 0.02542816 13.11959839 0.02688599 C16.88981116 0.0325046 20.65996556 0.04506026 24.43016052 0.05775452 C26.97898779 0.06276712 29.52781599 0.06733044 32.0766449 0.07142639 C38.34033685 0.08248007 44.60399452 0.0992363 50.86766052 0.12025452 C47.69153417 8.66903131 44.51791439 17.20771688 40.99266052 25.62025452 C40.68586365 26.35888733 40.37906677 27.09752014 40.06297302 27.85853577 C39.33365283 29.61346247 38.60106375 31.36703023 37.86766052 33.12025452 C20.52124091 33.3237979 3.20147063 32.70358152 -14.13233948 32.12025452 C-13.54357181 27.82169054 -12.50422808 24.12047922 -10.88233948 20.10072327 C-10.43890198 18.99664124 -9.99546448 17.8925592 -9.53858948 16.75502014 C-9.07452698 15.61742249 -8.61046448 14.47982483 -8.13233948 13.30775452 C-7.66827698 12.15082092 -7.20421448 10.99388733 -6.72608948 9.80189514 C-2.8306856 0.15963815 -2.8306856 0.15963815 0 0 Z " fill="#5CFAFB" transform="translate(199.13233947753906,442.87974548339844)"/>
<path d="M0 0 C4.90722293 -0.02500545 9.81440752 -0.04300225 14.72167969 -0.05493164 C16.38574877 -0.05991292 18.04981359 -0.06670037 19.71386719 -0.07543945 C29.19649973 -0.12393667 38.55909079 -0.0400008 48 1 C45.76188601 8.00406547 43.12994735 14.77276643 40.3125 21.5625 C39.89677734 22.57119141 39.48105469 23.57988281 39.05273438 24.61914062 C38.03784021 27.0805506 37.02021747 29.54079283 36 32 C19.97593466 32.15457298 4.00894072 31.68503035 -12 31 C-9.76188601 23.99593453 -7.12994735 17.22723357 -4.3125 10.4375 C-3.89677734 9.42880859 -3.48105469 8.42011719 -3.05273438 7.38085938 C-2.03784021 4.9194494 -1.02021747 2.45920717 0 0 Z " fill="#000000" transform="translate(276,45)"/>
<path d="M0 0 C15.84 0 31.68 0 48 0 C45 10 45 10 36 31 C20.16 31 4.32 31 -12 31 C-8.31218222 20.55118295 -4.36482808 10.18459885 0 0 Z " fill="#000000" transform="translate(67,563)"/>
<path d="M0 0 C0.89440292 -0.00315216 1.78880585 -0.00630432 2.71031189 -0.009552 C4.1696389 -0.00651566 4.1696389 -0.00651566 5.65844727 -0.00341797 C7.14744286 -0.00485306 7.14744286 -0.00485306 8.66651917 -0.00631714 C10.77068139 -0.00699913 12.8748457 -0.00514353 14.97900391 -0.00097656 C18.20748611 0.00436579 21.43582883 -0.00091802 24.66430664 -0.00732422 C26.70402049 -0.00666333 28.74373425 -0.00538194 30.78344727 -0.00341797 C31.75430771 -0.0054422 32.72516815 -0.00746643 33.72544861 -0.009552 C34.62300369 -0.00639984 35.52055878 -0.00324768 36.4453125 0 C37.23727524 0.00079559 38.02923798 0.00159119 38.84519958 0.00241089 C40.78735352 0.12939453 40.78735352 0.12939453 42.78735352 1.12939453 C40.9655854 8.07488545 38.44728231 14.58694706 35.66235352 21.19189453 C35.30141602 22.04952393 34.94047852 22.90715332 34.56860352 23.79077148 C31.92310645 29.99364159 31.92310645 29.99364159 30.78735352 31.12939453 C29.31381004 31.22243471 27.83584761 31.24685718 26.359375 31.24291992 C25.41847519 31.24284439 24.47757538 31.24276886 23.50816345 31.24269104 C22.48525711 31.23752975 21.46235077 31.23236847 20.40844727 31.22705078 C19.3666481 31.22563583 18.32484894 31.22422089 17.2514801 31.22276306 C13.90924258 31.21714533 10.56707095 31.20458983 7.22485352 31.19189453 C4.96508885 31.18688182 2.70532315 31.18231851 0.44555664 31.17822266 C-5.10720039 31.16717014 -10.65991873 31.15041477 -16.21264648 31.12939453 C-15.48669342 27.26769368 -14.42868221 23.85985062 -12.96264648 20.20751953 C-12.51920898 19.10021484 -12.07577148 17.99291016 -11.61889648 16.85205078 C-11.15483398 15.70607422 -10.69077148 14.56009766 -10.21264648 13.37939453 C-9.74858398 12.21794922 -9.28452148 11.05650391 -8.80639648 9.85986328 C-4.84134592 0.00486843 -4.84134592 0.00486843 0 0 Z " fill="#000000" transform="translate(176.212646484375,303.87060546875)"/>
<path d="M0 0 C12.54 0.33 25.08 0.66 38 1 C36.65794468 7.03924894 35.34265623 12.21679885 33 17.8125 C32.73960937 18.45380859 32.47921875 19.09511719 32.2109375 19.75585938 C31.49201515 21.51140966 30.74704037 23.25622913 30 25 C29.73960937 25.79277344 29.47921875 26.58554687 29.2109375 27.40234375 C28 29 28 29 25.2265625 29.609375 C24.03804687 29.65578125 22.84953125 29.7021875 21.625 29.75 C20.97813232 29.77819824 20.33126465 29.80639648 19.66479492 29.83544922 C17.44300648 29.91930995 15.22307743 29.96426952 13 30 C12.14196777 30.01514648 11.28393555 30.03029297 10.39990234 30.04589844 C7.70401633 30.08586637 5.00863792 30.11025895 2.3125 30.125 C1.45156738 30.12983398 0.59063477 30.13466797 -0.29638672 30.13964844 C-1.10994629 30.13739258 -1.92350586 30.13513672 -2.76171875 30.1328125 C-3.48319092 30.13168457 -4.20466309 30.13055664 -4.94799805 30.12939453 C-7.07180629 29.99547206 -8.95631765 29.57914398 -11 29 C-8.88358776 22.35842432 -6.43223512 15.89518762 -3.8125 9.4375 C-2.554375 6.323125 -1.29625 3.20875 0 0 Z " fill="#5BFAFA" transform="translate(142,391)"/>
<path d="M0 0 C4.5898398 -0.0248244 9.17964001 -0.04291873 13.76953125 -0.05493164 C15.32910849 -0.05994272 16.88868108 -0.06675337 18.44824219 -0.07543945 C20.69727736 -0.08764686 22.9462501 -0.09326068 25.1953125 -0.09765625 C26.23161301 -0.10539818 26.23161301 -0.10539818 27.28884888 -0.11329651 C31.29915055 -0.11375529 35.06545295 0.2264734 39 1 C36.94667156 7.51451685 34.50410276 13.78764898 31.8125 20.0625 C30.554375 23.011875 29.29625 25.96125 28 29 C15.13 29 2.26 29 -11 29 C-9.55625 25.143125 -8.1125 21.28625 -6.625 17.3125 C-6.17334473 16.10505127 -5.72168945 14.89760254 -5.25634766 13.65356445 C-4.89589355 12.691521 -4.53543945 11.72947754 -4.1640625 10.73828125 C-3.79748535 9.75899658 -3.4309082 8.77971191 -3.05322266 7.77075195 C-2.06397286 5.16829577 -1.04249871 2.58152349 0 0 Z " fill="#EC47D0" transform="translate(247,131)"/>
<path d="M0 0 C12.54 0 25.08 0 38 0 C37.22074679 3.89626603 36.32698304 7.06836861 34.93359375 10.73828125 C34.57064209 11.70032471 34.20769043 12.66236816 33.83374023 13.65356445 C33.37298096 14.86101318 32.91222168 16.06846191 32.4375 17.3125 C30.973125 21.169375 29.50875 25.02625 28 29 C15.13 29 2.26 29 -11 29 C-9.9275 25.885625 -8.855 22.77125 -7.75 19.5625 C-7.4209668 18.60029541 -7.09193359 17.63809082 -6.75292969 16.64672852 C-6.47868164 15.85709717 -6.20443359 15.06746582 -5.921875 14.25390625 C-5.64956055 13.46314697 -5.37724609 12.6723877 -5.09667969 11.85766602 C-3.55524633 7.84108599 -1.74728924 3.9314008 0 0 Z " fill="#EB48D0" transform="translate(213,217)"/>
<path d="M0 0 C12.87 0 25.74 0 39 0 C35.625 10.125 35.625 10.125 33.95703125 14.03515625 C33.63968018 14.78418213 33.3223291 15.53320801 32.99536133 16.30493164 C32.40984497 17.66992798 32.40984497 17.66992798 31.8125 19.0625 C30.554375 22.011875 29.29625 24.96125 28 28 C15.13 28 2.26 28 -11 28 C-9.9275 24.865 -8.855 21.73 -7.75 18.5 C-7.2564502 17.04303711 -7.2564502 17.04303711 -6.75292969 15.55664062 C-6.34155762 14.36844727 -6.34155762 14.36844727 -5.921875 13.15625 C-5.64956055 12.36025391 -5.37724609 11.56425781 -5.09667969 10.74414062 C-3.62565259 7.0632981 -1.77271105 3.54542211 0 0 Z " fill="#5CFBFB" transform="translate(107,479)"/>
<path d="M0 0 C-2.41833814 9.37393925 -6.25409213 18.09463411 -10 27 C-21.88 27 -33.76 27 -46 27 C-44.0407293 21.12218791 -42.05105767 15.29553048 -39.875 9.5 C-39.47861328 8.42878906 -39.47861328 8.42878906 -39.07421875 7.3359375 C-37.12115312 2.12115312 -37.12115312 2.12115312 -36 1 C-33.34787186 0.75336122 -30.72106147 0.57139032 -28.0625 0.4375 C-27.2679541 0.3950415 -26.4734082 0.35258301 -25.65478516 0.30883789 C-17.1029665 -0.10842638 -8.55930938 -0.09105648 0 0 Z " fill="#000000" transform="translate(150,255)"/>
<path d="M0 0 C1.36067544 0.00502513 2.72135267 0.00958624 4.08203125 0.01367188 C7.38806725 0.02539541 10.69401001 0.04180573 14 0.0625 C12.10309464 6.05272745 9.93044144 11.8235849 7.375 17.5625 C7.06304687 18.27664063 6.75109375 18.99078125 6.4296875 19.7265625 C4.13632015 24.92617985 4.13632015 24.92617985 3 26.0625 C-5.03349534 27.08242652 -13.16268603 27.16214551 -21.25 27.1875 C-22.0838623 27.19209229 -22.91772461 27.19668457 -23.77685547 27.20141602 C-29.75303026 27.18598487 -29.75303026 27.18598487 -32 26.0625 C-31.38965243 22.57673718 -30.48391539 19.4753077 -29.15234375 16.19921875 C-28.61577148 14.86987305 -28.61577148 14.86987305 -28.06835938 13.51367188 C-27.50858398 12.1456543 -27.50858398 12.1456543 -26.9375 10.75 C-26.56044922 9.81865234 -26.18339844 8.88730469 -25.79492188 7.92773438 C-24.86716875 5.63771083 -23.93541999 3.34940004 -23 1.0625 C-15.34125934 -0.17813784 -7.74288354 -0.04929358 0 0 Z " fill="#000000" transform="translate(32,513.9375)"/>
<path d="M0 0 C11.88 0 23.76 0 36 0 C32.625 10.125 32.625 10.125 31.17578125 13.59765625 C30.86962891 14.33564453 30.56347656 15.07363281 30.24804688 15.83398438 C29.93931641 16.56939453 29.63058594 17.30480469 29.3125 18.0625 C28.99216797 18.83271484 28.67183594 19.60292969 28.34179688 20.39648438 C27.56400964 22.26549549 26.7824152 24.13292153 26 26 C13.98168818 26.79553837 2.04394251 27.12812705 -10 27 C-7.58166186 17.62606075 -3.74590787 8.90536589 0 0 Z " fill="#000000" transform="translate(217,0)"/>
<path d="M0 0 C1.11181641 0.00322266 2.22363281 0.00644531 3.36914062 0.00976562 C4.51962891 0.01814453 5.67011719 0.02652344 6.85546875 0.03515625 C8.02529297 0.03966797 9.19511719 0.04417969 10.40039062 0.04882812 C13.28130233 0.06058695 16.16210919 0.07702199 19.04296875 0.09765625 C18.51150623 3.72553606 17.86269304 6.98269284 16.44921875 10.3671875 C16.14113281 11.11033203 15.83304688 11.85347656 15.515625 12.61914062 C15.19464844 13.37517578 14.87367187 14.13121094 14.54296875 14.91015625 C14.06150391 16.07321289 14.06150391 16.07321289 13.5703125 17.25976562 C11.19070136 22.94992364 11.19070136 22.94992364 10.04296875 24.09765625 C7.89738048 24.1854123 5.74892454 24.20460844 3.6015625 24.1953125 C2.29638672 24.19208984 0.99121094 24.18886719 -0.35351562 24.18554688 C-1.74218815 24.17719026 -3.13086002 24.1687253 -4.51953125 24.16015625 C-5.91210781 24.15514291 -7.30468606 24.15057972 -8.69726562 24.14648438 C-12.11722995 24.13465059 -15.53710969 24.11816505 -18.95703125 24.09765625 C-18.04174218 19.1192701 -16.47193118 14.5790901 -14.70703125 9.84765625 C-14.41957031 9.02007812 -14.13210937 8.1925 -13.8359375 7.33984375 C-13.54074219 6.55351562 -13.24554688 5.7671875 -12.94140625 4.95703125 C-12.55033691 3.88146973 -12.55033691 3.88146973 -12.15136719 2.78417969 C-10.95703125 1.09765625 -10.95703125 1.09765625 -8.70532227 0.36254883 C-5.7828563 0.08086849 -2.93640431 -0.01505848 0 0 Z " fill="#5EFBFB" transform="translate(91.95703125,342.90234375)"/>
<path d="M0 0 C2.93145279 -0.04094554 5.85869278 -0.03013396 8.7902832 -0.00512695 C9.80348633 -0.00061523 10.81668945 0.00389648 11.8605957 0.00854492 C14.33722147 0.02022712 16.81371977 0.03660723 19.2902832 0.05737305 C17.42511768 5.83361244 15.39456385 11.49987672 13.1027832 17.11987305 C12.1746582 19.40924805 11.2465332 21.69862305 10.2902832 24.05737305 C0.3902832 24.38737305 -9.5097168 24.71737305 -19.7097168 25.05737305 C-15.95278153 12.53425548 -15.95278153 12.53425548 -14.0222168 7.49487305 C-13.58522461 6.29733398 -13.14823242 5.09979492 -12.69799805 3.8659668 C-10.7097168 1.05737305 -10.7097168 1.05737305 -7.22143555 0.15893555 C-4.81386591 0.04465831 -2.4098859 0.0510247 0 0 Z " fill="#EC49CF" transform="translate(197.709716796875,81.942626953125)"/>
<path d="M0 0 C-0.54973427 5.83028038 -2.2453859 10.58290168 -4.5625 15.9375 C-4.89185547 16.71673828 -5.22121094 17.49597656 -5.56054688 18.29882812 C-6.36633349 20.20235303 -7.18214217 22.10163025 -8 24 C-18.03442033 24.87801178 -27.93605753 25.1176305 -38 25 C-37.40227336 21.56506424 -36.52472216 18.55768504 -35.15234375 15.35546875 C-34.79462891 14.51435547 -34.43691406 13.67324219 -34.06835938 12.80664062 C-33.50858398 11.51016602 -33.50858398 11.51016602 -32.9375 10.1875 C-32.56044922 9.30384766 -32.18339844 8.42019531 -31.79492188 7.50976562 C-30.86751446 5.33798876 -29.93576366 3.16818633 -29 1 C-25.8543649 0.82945079 -22.70846763 0.66429189 -19.5625 0.5 C-18.68400391 0.45230469 -17.80550781 0.40460938 -16.90039062 0.35546875 C-11.25801331 0.06398062 -5.64989797 -0.04598086 0 0 Z " fill="#5BFAFA" transform="translate(76,429)"/>
<path d="M0 0 C-0.73996365 4.99728878 -2.60529452 9.51183102 -4.4375 14.1875 C-4.75009766 15.00669922 -5.06269531 15.82589844 -5.38476562 16.66992188 C-5.68962891 17.45302734 -5.99449219 18.23613281 -6.30859375 19.04296875 C-6.58501709 19.75477295 -6.86144043 20.46657715 -7.14624023 21.19995117 C-8 23 -8 23 -10 25 C-12.88916016 25.22705078 -12.88916016 25.22705078 -16.5390625 25.1953125 C-18.49199219 25.18564453 -18.49199219 25.18564453 -20.484375 25.17578125 C-21.86458595 25.15906929 -23.24479429 25.14213939 -24.625 25.125 C-26.01301452 25.11497006 -27.40103589 25.10584423 -28.7890625 25.09765625 C-32.19278192 25.07401931 -35.59641228 25.03814731 -39 25 C-36.03 17.41 -33.06 9.82 -30 2 C-20.99769813 0.87471227 -20.99769813 0.87471227 -16.9140625 0.68359375 C-16.04652344 0.64169922 -15.17898437 0.59980469 -14.28515625 0.55664062 C-13.40730469 0.51732422 -12.52945313 0.47800781 -11.625 0.4375 C-10.27341797 0.37272461 -10.27341797 0.37272461 -8.89453125 0.30664062 C-2.4015377 0 -2.4015377 0 0 0 Z " fill="#EB47D0" transform="translate(182,167)"/>
</svg>
