<?xml version="1.0" encoding="UTF-8" standalone="no"?>
<!-- Created with Inkscape (http://www.inkscape.org/) -->

<svg
   width="256mm"
   height="256mm"
   viewBox="0 0 256 256"
   version="1.1"
   id="svg1"
   inkscape:version="1.3.2 (091e20ef0f, 2023-11-25)"
   xml:space="preserve"
   sodipodi:docname="Recycle Bin Empty.svg"
   xmlns:inkscape="http://www.inkscape.org/namespaces/inkscape"
   xmlns:sodipodi="http://sodipodi.sourceforge.net/DTD/sodipodi-0.dtd"
   xmlns:xlink="http://www.w3.org/1999/xlink"
   xmlns="http://www.w3.org/2000/svg"
   xmlns:svg="http://www.w3.org/2000/svg"
   xmlns:rdf="http://www.w3.org/1999/02/22-rdf-syntax-ns#"
   xmlns:cc="http://creativecommons.org/ns#"
   xmlns:dc="http://purl.org/dc/elements/1.1/"><defs
     id="defs1"><linearGradient
       id="linearGradient30"
       inkscape:collect="always"><stop
         style="stop-color:#c1c2df;stop-opacity:1"
         offset="0"
         id="stop31" /><stop
         style="stop-color:#a8a9c8;stop-opacity:1;"
         offset="0.7029953"
         id="stop33" /><stop
         style="stop-color:#9090b2;stop-opacity:1;"
         offset="1"
         id="stop32" /></linearGradient><linearGradient
       id="linearGradient27"
       inkscape:collect="always"><stop
         style="stop-color:#fdfebe;stop-opacity:1;"
         offset="0"
         id="stop28" /><stop
         style="stop-color:#fdfed1;stop-opacity:1;"
         offset="0.22731777"
         id="stop30" /><stop
         style="stop-color:#fefeee;stop-opacity:1;"
         offset="1"
         id="stop29" /></linearGradient><linearGradient
       id="linearGradient25"
       inkscape:collect="always"><stop
         style="stop-color:#e9f2f2;stop-opacity:1;"
         offset="0"
         id="stop25" /><stop
         style="stop-color:#e0dde6;stop-opacity:1;"
         offset="0.50147766"
         id="stop27" /><stop
         style="stop-color:#b9aed0;stop-opacity:1;"
         offset="1"
         id="stop26" /></linearGradient><linearGradient
       id="linearGradient11"
       inkscape:collect="always"><stop
         style="stop-color:#91caff;stop-opacity:1"
         offset="0"
         id="stop11" /><stop
         style="stop-color:#5fafef;stop-opacity:1"
         offset="1"
         id="stop12" /></linearGradient><linearGradient
       id="linearGradient7"
       inkscape:collect="always"><stop
         style="stop-color:#fbfdff;stop-opacity:1;"
         offset="0"
         id="stop7" /><stop
         style="stop-color:#fbfdff;stop-opacity:0.5451389;"
         offset="0.32867435"
         id="stop9" /><stop
         style="stop-color:#e4f2ff;stop-opacity:0.2048611;"
         offset="0.64010012"
         id="stop10" /><stop
         style="stop-color:#4ca6ff;stop-opacity:0;"
         offset="1"
         id="stop8" /></linearGradient><linearGradient
       id="linearGradient3"
       inkscape:collect="always"><stop
         style="stop-color:#84caff;stop-opacity:1;"
         offset="0"
         id="stop4" /><stop
         style="stop-color:#d2f6ff;stop-opacity:1;"
         offset="1"
         id="stop5" /></linearGradient><linearGradient
       id="linearGradient1"
       inkscape:collect="always"><stop
         style="stop-color:#fffdfd;stop-opacity:1;"
         offset="0"
         id="stop1" /><stop
         style="stop-color:#e8f9fe;stop-opacity:1;"
         offset="0.5"
         id="stop3" /><stop
         style="stop-color:#d2f6ff;stop-opacity:1"
         offset="1"
         id="stop2" /></linearGradient><radialGradient
       inkscape:collect="always"
       xlink:href="#linearGradient1"
       id="radialGradient2"
       cx="131.63333"
       cy="163.48744"
       fx="131.63333"
       fy="163.48744"
       r="79.697021"
       gradientTransform="matrix(1.2349293,0.27980194,-0.18410012,0.42396706,-34.379632,87.471106)"
       gradientUnits="userSpaceOnUse" /><radialGradient
       inkscape:collect="always"
       xlink:href="#linearGradient3"
       id="radialGradient5"
       cx="156.93642"
       cy="212.61479"
       fx="156.93642"
       fy="212.61479"
       r="79.697021"
       gradientTransform="matrix(1.5915706,-0.9160449,0.6225587,0.45664754,-253.27674,242.32258)"
       gradientUnits="userSpaceOnUse" /><linearGradient
       inkscape:collect="always"
       xlink:href="#linearGradient7"
       id="linearGradient8"
       x1="144.17328"
       y1="61.024162"
       x2="142.53413"
       y2="227.1637"
       gradientUnits="userSpaceOnUse" /><linearGradient
       inkscape:collect="always"
       xlink:href="#linearGradient11"
       id="linearGradient12"
       x1="202.94391"
       y1="28.196934"
       x2="89.448929"
       y2="184.54961"
       gradientUnits="userSpaceOnUse" /><linearGradient
       inkscape:collect="always"
       xlink:href="#linearGradient25"
       id="linearGradient26"
       x1="48.00563"
       y1="107.93365"
       x2="135.65927"
       y2="210.17941"
       gradientUnits="userSpaceOnUse" /><linearGradient
       inkscape:collect="always"
       xlink:href="#linearGradient27"
       id="linearGradient29"
       x1="123.34776"
       y1="26.005325"
       x2="159.53029"
       y2="116.93042"
       gradientUnits="userSpaceOnUse" /><linearGradient
       inkscape:collect="always"
       xlink:href="#linearGradient30"
       id="linearGradient32"
       x1="147.80005"
       y1="56.687878"
       x2="101.03433"
       y2="146.75368"
       gradientUnits="userSpaceOnUse" /></defs><sodipodi:namedview
     id="base"
     pagecolor="#ffffff"
     bordercolor="#000000"
     borderopacity="0.3"
     inkscape:pageopacity="0.0"
     inkscape:pageshadow="2"
     inkscape:zoom="0.98994949"
     inkscape:cx="505.07627"
     inkscape:cy="476.792"
     inkscape:document-units="mm"
     inkscape:showpageshadow="2"
     inkscape:pagecheckerboard="0"
     inkscape:deskcolor="#d1d1d1"
     inkscape:current-layer="svg1"
     showguides="true" /><metadata
     id="metadata1"><rdf:RDF><cc:Work
         rdf:about=""><dc:format>image/svg+xml</dc:format><dc:type
           rdf:resource="http://purl.org/dc/dcmitype/StillImage" /><cc:license
           rdf:resource="http://creativecommons.org/publicdomain/zero/1.0/" /></cc:Work><cc:License
         rdf:about="http://creativecommons.org/publicdomain/zero/1.0/"><cc:permits
           rdf:resource="http://creativecommons.org/ns#Reproduction" /><cc:permits
           rdf:resource="http://creativecommons.org/ns#Distribution" /><cc:permits
           rdf:resource="http://creativecommons.org/ns#DerivativeWorks" /></cc:License></rdf:RDF></metadata><g
     id="g12"
     style="display:inline"><g
       id="g24"
       inkscape:label="shadow"><path
         id="rect20"
         style="fill:#000000;fill-opacity:0.123438;stroke-width:2.6;stroke-linecap:round;stroke-linejoin:round"
         d="M 52.387501,74.612495 224.36667,14.816662 c 6.56946,-1.21421 17.31431,7.661118 19.63007,16.195993 12.14534,44.762362 -0.37875,117.569715 -14.51998,171.580675 -1.65759,6.33099 -8.10682,13.29911 -13.20257,17.84608 -26.21695,23.39358 -46.67672,24.41976 -72.03867,29.74682 -13.42667,2.82016 -28.61269,3.90315 -41.04802,3.02001 -24.327376,-1.72769 -41.861637,-10.83271 -54.239582,-26.06146 z"
         sodipodi:nodetypes="ccssssscc" /><path
         id="path21"
         style="fill:#000000;fill-opacity:0.123438;stroke-width:2.6;stroke-linecap:round;stroke-linejoin:round"
         d="M 52.387501,74.612495 222.97761,15.345829 c 6.56946,-1.21421 17.90962,7.330388 20.22538,15.865263 12.14534,44.762362 -3.81833,115.916068 -17.95956,169.927028 -1.65759,6.33099 -6.78391,11.71161 -11.87966,16.25858 -26.21695,23.39358 -44.56005,24.81664 -69.922,30.1437 -13.42667,2.82016 -28.34811,3.90315 -40.78344,3.02001 -24.327373,-1.72769 -40.00955,-9.24521 -52.387495,-24.47396 z"
         sodipodi:nodetypes="ccssssscc" /><path
         id="path22"
         style="fill:#000000;fill-opacity:0.226562;stroke-width:2.6;stroke-linecap:round;stroke-linejoin:round"
         d="M 52.387501,74.612495 221.29381,16.281272 c 6.56946,-1.21421 17.72253,6.394945 20.03829,14.92982 12.14534,44.762362 -5.65161,112.807208 -18.20534,168.008788 -1.45124,6.38145 -6.78391,11.71161 -11.87966,16.25858 -26.21695,23.39358 -42.44338,24.48982 -67.80533,29.81688 -13.42667,2.82016 -28.34811,3.90315 -40.78344,3.02001 -24.327373,-1.72769 -38.887018,-7.00015 -51.264963,-22.2289 z"
         sodipodi:nodetypes="ccssssscc" /><path
         id="path23"
         style="fill:#000000;fill-opacity:0.2375;stroke-width:2.6;stroke-linecap:round;stroke-linejoin:round"
         d="M 52.387501,74.612495 219.17714,16.545855 c 6.56946,-1.21421 18.85784,6.48635 20.78664,15.116909 10.08737,45.136539 -6.26766,115.001376 -18.42452,167.689416 -1.47135,6.37685 -6.65162,10.2564 -11.74737,14.80337 -26.21695,23.39358 -42.48488,24.40957 -67.84683,29.73663 -13.42667,2.82016 -28.5352,2.49998 -40.97053,1.61684 -24.327371,-1.72769 -36.080686,-4.94218 -48.458631,-20.17093 z"
         sodipodi:nodetypes="ccssssscc" /><path
         id="path24"
         style="fill:#000000;fill-opacity:0.317188;stroke-width:2.6;stroke-linecap:round;stroke-linejoin:round"
         d="M 52.387501,74.612495 219.17714,16.545855 c 6.56946,-1.21421 17.85568,7.676404 19.66411,16.332985 7.74876,37.091727 -7.61327,112.61462 -17.91805,163.186 -1.30668,6.41261 -7.44537,12.37306 -12.54112,16.92003 -26.21695,23.39358 -42.85242,24.73834 -68.21437,30.0654 -13.42667,2.82016 -27.78684,4.8386 -40.222168,3.95546 -24.327371,-1.72769 -35.051698,-6.43889 -47.429643,-21.66764 z"
         sodipodi:nodetypes="ccssssscc" /></g><path
       id="rect11"
       style="display:inline;fill:url(#linearGradient12);stroke:#badcf5;stroke-width:2.5;stroke-linecap:round;stroke-linejoin:bevel"
       d="m 83.655358,50.246671 c 47.626162,0.378 65.902062,-14.051025 97.954282,-35.012308 10.33665,-6.7598947 31.06478,-9.5056368 42.89675,-1.069079 13.65501,9.736447 14.23048,29.637154 13.09621,47.440342 -2.9245,45.901974 -11.87886,90.026604 -21.66644,135.685144 -7.59515,14.72205 -25.70719,28.16943 -61.78847,37.90641 -25.55092,4.66854 -50.51115,12.48748 -78.076111,6.41447 -15.447435,-2.38167 -25.82715,-9.83106 -29.165786,-24.32152 L 19.510671,114.12409 c 0,0 -12.9573448,-36.318361 1.603617,-53.854812 16.384765,-19.732944 62.54107,-10.022607 62.54107,-10.022607 z"
       sodipodi:nodetypes="cssscccccsc"
       inkscape:label="back" /><path
       id="path1"
       style="fill:url(#radialGradient5);stroke:url(#radialGradient2);stroke-width:2.27602;stroke-linecap:round;stroke-linejoin:bevel"
       inkscape:label="bottom"
       transform="matrix(0.98198883,-0.18893898,0.18369962,0.98298243,0,0)"
       d="m 176.61808,224.81534 c -1e-5,19.25766 -43.27156,35.875 -89.532853,35.875 -46.261296,0 -77.9941317,-16.61734 -77.9941397,-35.875 -5.3e-6,-19.25766 37.5021917,-34.86908 83.7634967,-34.86908 46.261306,0 83.763506,15.61142 83.763496,34.86908 z"
       sodipodi:nodetypes="sssss" /><g
       id="g25"
       style="display:inline"
       inkscape:label="crapntrash"><path
         id="rect24"
         style="display:inline;fill:url(#linearGradient26);stroke-width:2.6;stroke-linecap:round;stroke-linejoin:round"
         d="m 25.929167,88.106247 c 18.121623,6.958156 55.342386,8.222087 89.164583,-19.314583 l 21.63486,4.11595 14.59292,6.112011 c -24.11717,37.700795 -32.0448,78.347875 -15.25371,121.037475 3.38603,10.46619 6.61625,23.64644 -8.13788,23.14715 -12.58191,-0.42579 -60.595248,-6.9745 -96.709106,-111.41779 -2.968626,-8.22197 -4.235031,-15.979697 -5.291667,-23.680213 z"
         sodipodi:nodetypes="cccccscc" /><path
         id="rect27"
         style="display:inline;fill:url(#linearGradient29);stroke:#fce290;stroke-width:5.5;stroke-linecap:round;stroke-linejoin:round"
         d="m 71.46787,30.682542 c 37.83078,-4.907815 68.47522,-14.948729 99.53117,-24.6957039 9.45961,40.1225949 21.18772,84.7821999 32.55343,128.7170019 l -87.18332,10.85114 C 102.57974,107.26417 87.237598,68.973356 71.46787,30.682542 Z"
         sodipodi:nodetypes="ccccc" /><path
         id="rect30"
         style="fill:url(#linearGradient32);stroke-width:5.5;stroke-linecap:round;stroke-linejoin:round"
         d="m 74.087113,107.76307 c 61.675297,1.74509 57.852307,-40.175337 72.216227,-69.971159 14.52278,23.393858 29.11614,46.717133 28.0633,85.686619 4.36509,37.47202 -22.19116,46.92157 -49.01723,56.1266 C 100.64152,163.7265 81.867658,141.56477 74.087113,107.76307 Z"
         sodipodi:nodetypes="ccccc" /></g><g
       id="g20"
       inkscape:label="front"
       style="display:inline"><g
         id="rect5"
         inkscape:label="front"><path
           style="color:#000000;display:inline;fill:url(#linearGradient8);stroke-linecap:round;stroke-linejoin:bevel;-inkscape-stroke:none"
           d="m 25.900862,55.728564 c 22.107377,-16.214543 64.366771,-3.037697 79.323828,0.780272 26.85194,6.854283 57.73015,20.004983 93.4963,4.439829 43.41106,-18.892158 31.50455,-43.339651 24.86726,-46.100683 15.15855,7.528846 16.33451,31.806047 13.21384,63.960059 -3.84348,39.601429 -20.02603,119.328889 -20.02603,119.328889 -19.18338,31.56763 -95.20974,54.40894 -140.140843,43.9337 C 55.083867,237.04615 51.492044,226.36029 48.256648,221.05841 41.619467,199.59805 31.389077,157.75949 23.056543,128.13394 16.270458,101.02697 5.0337652,72.162373 25.900862,55.728564 Z"
           id="path19" /><path
           style="color:#000000;fill:#badcf5;stroke-linecap:round;stroke-linejoin:bevel;-inkscape-stroke:none"
           d="m 217.70858,12.350538 c 0.15576,0.07737 4.38735,1.52984 6.02397,3.081884 1.62695,1.54288 2.23668,3.343737 3.37682,5.817578 1.23783,2.685783 1.9373,6.240772 1.19141,10.300781 -1.49177,8.120018 -8.82217,18.564639 -30.23828,27.884766 -35.1357,15.290785 -65.38144,2.379002 -92.42969,-4.525391 C 98.234224,53.021577 83.814526,48.732672 68.431641,46.966797 53.048756,45.200922 36.74273,44.558955 25.11287,53.088816 l -0.04492,0.0332 C 14.152422,61.718502 10.420265,75.235445 12.464846,88.064449 19.800303,134.09177 33.346586,177.77609 46.679687,221.54685 l 0.167969,0.3711 c 1.502366,2.46194 3.344897,6.73439 7.56836,10.92187 4.223462,4.18749 10.835931,8.27153 21.84375,10.83789 22.924197,5.34455 53.345114,2.18495 80.587894,-6.23046 27.24278,-8.41542 51.33556,-21.99357 61.33789,-38.45313 0.3651,-0.80081 15.58229,-78.09891 19.66445,-120.159639 1.56612,-16.136564 1.54555,-30.341817 -0.29675,-41.638672 -2.43507,-14.760557 -6.37972,-18.447155 -12.56278,-23.337487 -1.94418,-1.537701 -7.28189,-1.507784 -7.28189,-1.507784 z m 14.03361,13.526415 c 1.65457,3.353809 2.91194,7.274663 3.67968,11.982422 1.75515,10.762438 1.01498,27.252499 -0.26171,40.789062 -3.82662,40.573273 -20.18921,117.019493 -22.08724,120.248313 -8.94731,15.22062 -30.51589,27.15402 -57.19792,35.39622 -26.79897,8.27832 -56.858373,11.3006 -78.865234,6.16992 -10.54351,-2.45811 -16.502357,-6.22977 -20.271485,-9.9668 -3.688657,-3.65724 -5.262778,-7.27606 -6.953125,-10.09179 C 38.201485,178.76257 32.018834,171.49631 15.753905,87.792989 13.387782,75.616337 17.156141,63.568948 27.089432,55.733368 37.566875,48.06496 53.055189,48.524026 68.05664,50.246114 c 15.01289,1.723401 29.201311,5.931941 36.75977,7.861328 26.65558,6.804159 58.16596,20.193007 94.5625,4.353515 21.9949,-9.572012 30.4176,-20.797444 32.16601,-30.314453 0.40806,-2.221129 0.42225,-4.317262 0.19727,-6.269531 z"
           id="path20"
           sodipodi:nodetypes="casssssccsccssscscscssasssscscssssss" /></g><g
         id="rect12"
         inkscape:label="abottom"><path
           style="color:#000000;fill:#009900;stroke-linecap:round;stroke-linejoin:round;-inkscape-stroke:none"
           d="m 122.88951,158.84449 c 0.10379,-1.48471 -0.0456,-3.13822 2.24424,-3.16556 l 42.49869,0.23624 c 1.72173,-0.14737 2.32767,1.45525 1.5119,2.50409 l -13.41816,19.70202 c 20.42316,8.93431 30.01559,-2.26355 40.64194,-27.49245 1.49891,-3.89335 6.12755,-3.94068 7.06135,-0.35839 1.2427,31.82293 -19.75416,70.90995 -66.22411,53.45874 l -8.97693,11.52827 c -0.97464,1.05291 -1.93652,2.20152 -3.40179,-0.42524 z"
           id="path13"
           inkscape:label="path13" /><path
           style="color:#000000;fill:#068c06;fill-opacity:1;stroke-linecap:round;stroke-linejoin:round;-inkscape-stroke:none"
           d="m 200.20815,148.80451 c -2.01302,0.0699 -4.00209,1.45071 -4.91211,3.81445 -5.27948,12.52806 -9.71808,20.58502 -15.63332,25.14091 -5.59772,4.31135 -14.74519,3.66527 -23.84065,0.0529 l 11.99125,-17.49312 -0.0488,0.0664 c 0.70065,-0.90083 0.83192,-2.11306 0.32617,-3.09375 -0.50574,-0.9807 -1.70187,-1.61285 -2.97461,-1.50391 l 0.11914,-0.004 -38.58266,-0.0827 c -0.007,-6e-5 -0.0143,-6e-5 -0.0215,0 -0.72905,0.009 -1.38932,0.14849 -1.94726,0.47656 -0.55795,0.32807 -0.95594,0.84504 -1.17188,1.3418 -0.43188,0.99351 -0.36168,1.89106 -0.4082,2.55664 -0.003,0.0448 -0.004,0.0898 -0.002,0.13476 l 1.2288,51.92503 c 0.007,0.20621 0.0635,0.40772 0.16407,0.58789 0.41543,0.74474 0.82036,1.2988 1.34375,1.71094 0.52339,0.41214 1.25734,0.63591 1.88867,0.53125 1.26266,-0.20931 1.78575,-1.05643 2.25781,-1.56641 0.0253,-0.027 0.0494,-0.055 0.0723,-0.084 l 7.19736,-9.4521 c 23.11258,8.35574 39.76237,3.24884 50.8327,-8.49733 11.22287,-11.90802 16.04622,-26.2376 15.41293,-42.45505 -0.004,-0.093 -0.0175,-0.18533 -0.041,-0.27539 -0.5995,-2.29982 -1.23791,-3.9018 -3.25093,-3.83193 z m -0.47716,2.4559 c 0.88512,-0.0307 0.82151,0.75748 1.16946,1.96001 -0.10262,9.26914 -4.73675,28.61696 -15.27286,39.79629 -10.58235,11.22839 -25.51516,16.71549 -48.39074,8.12485 -0.53238,-0.19986 -1.13286,-0.0306 -1.48242,0.41797 l -7.70518,10.10444 c -0.42193,0.44195 -0.69299,0.62005 -0.66015,0.65039 -0.0881,-0.0794 -0.27324,-0.33743 -0.47461,-0.65039 l -0.94395,-50.99442 c 0.0549,-0.78207 0.10458,-1.4403 0.19336,-1.64454 0.0459,-0.10562 0.0442,-0.10066 0.10546,-0.13671 0.0613,-0.036 0.24234,-0.11418 0.65821,-0.11914 l 38.29196,-0.38502 c 0.0398,4.9e-4 0.0795,-8.4e-4 0.11914,-0.004 0.44899,-0.0384 0.41574,0.0575 0.43945,0.10351 0.0237,0.046 0.0507,0.15864 -0.0645,0.30664 -0.017,0.0216 -0.0332,0.0438 -0.0488,0.0664 l -12.95024,18.89937 c -0.45907,0.67284 -0.19347,1.59728 0.55274,1.92383 6.972,5.54668 18.53784,7.52409 27.98128,0.14042 6.59965,-5.16016 11.71989,-12.49871 16.45949,-26.23076 0.005,-0.0123 0.0106,-0.0247 0.0156,-0.0371 0.58889,-1.52961 1.09779,-2.26057 2.00726,-2.29214 z"
           id="path14"
           sodipodi:nodetypes="ccscccsccccssccccsscccsccccccsccccccsccccsccccscccc" /><path
           style="color:#000000;fill:#f8f7fd;stroke-linecap:round;stroke-linejoin:round;-inkscape-stroke:none"
           d="m 200.06641,146.34766 c -2.01302,0.0699 -4.00209,1.45071 -4.91211,3.81445 -5.27948,12.52806 -10.31133,21.43825 -16.22657,25.99414 -5.59772,4.31135 -12.0725,4.90139 -21.16796,1.28906 l 12.45898,-18.29492 -0.0488,0.0664 c 0.70065,-0.90083 0.83192,-2.11306 0.32617,-3.09375 -0.50574,-0.9807 -1.70187,-1.61285 -2.97461,-1.50391 l 0.11914,-0.004 -42.49999,-0.23632 a 1.30013,1.30013 0 0 0 -0.0215,0 c -0.72905,0.009 -1.38932,0.14849 -1.94726,0.47656 -0.55795,0.32807 -0.95594,0.84504 -1.17188,1.3418 -0.43188,0.99351 -0.36168,1.89106 -0.4082,2.55664 a 1.30013,1.30013 0 0 0 -0.002,0.13476 l 1.9375,55.98828 a 1.30013,1.30013 0 0 0 0.16407,0.58789 c 0.41543,0.74474 0.82036,1.2988 1.34375,1.71094 0.52339,0.41214 1.25734,0.63591 1.88867,0.53125 1.26266,-0.20931 1.78575,-1.05643 2.25781,-1.56641 a 1.30013,1.30013 0 0 0 0.0723,-0.084 l 8.42578,-10.82227 c 23.11258,8.35574 40.40623,2.88094 51.47656,-8.86523 11.22287,-11.90802 16.20556,-29.93294 15.57227,-46.15039 a 1.30013,1.30013 0 0 0 -0.041,-0.27539 c -0.5995,-2.29982 -2.60807,-3.66557 -4.62109,-3.5957 z m 0.0898,2.59765 c 0.88512,-0.0307 1.62471,0.3795 1.97266,1.58203 0.55884,15.55299 -4.32913,32.87927 -14.86524,44.0586 -10.58235,11.22839 -26.72598,16.51642 -49.60156,7.92578 a 1.30013,1.30013 0 0 0 -1.48242,0.41797 l -8.9336,11.47461 c -0.42193,0.44195 -0.69299,0.62005 -0.66015,0.65039 -0.0881,-0.0794 -0.27324,-0.33743 -0.47461,-0.65039 l -1.91992,-55.52539 c 0.0549,-0.78207 0.10458,-1.4403 0.19336,-1.64454 0.0459,-0.10562 0.0442,-0.10066 0.10546,-0.13671 0.0613,-0.036 0.24234,-0.11418 0.65821,-0.11914 l 42.47656,0.23632 a 1.30013,1.30013 0 0 0 0.11914,-0.004 c 0.44899,-0.0384 0.41574,0.0575 0.43945,0.10351 0.0237,0.046 0.0507,0.15864 -0.0645,0.30664 a 1.30013,1.30013 0 0 0 -0.0488,0.0664 l -13.41797,19.70117 a 1.30013,1.30013 0 0 0 0.55274,1.92383 c 10.46275,4.57703 18.67148,4.01618 25.30859,-1.0957 6.63712,-5.11188 11.71196,-14.404 17.05274,-27.08399 a 1.30013,1.30013 0 0 0 0.0156,-0.0371 c 0.58889,-1.52961 1.66475,-2.11882 2.57422,-2.15039 z"
           id="path17" /></g><g
         id="path12"
         inkscape:label="atop"><path
           style="color:#000000;fill:#009900;stroke-linecap:round;stroke-linejoin:round;-inkscape-stroke:none"
           d="m 198.75721,142.67778 c -0.10379,1.48471 0.0456,3.13822 -2.24424,3.16556 l -43.63262,0.51971 c -1.72173,0.14737 -2.32767,-1.45525 -1.5119,-2.50409 l 13.38036,-18.87047 c -20.42316,-8.93431 -32.62362,2.56593 -43.24997,27.79483 -1.49891,3.89335 -6.12755,3.94068 -7.06135,0.35839 0.4601,-29.21197 22.54296,-69.682788 66.98006,-55.34862 l 12.5677,-11.52827 c 0.97464,-1.05291 1.93652,-2.20152 3.40179,0.42524 z"
           id="path15"
           sodipodi:nodetypes="ccccccccccc" /><path
           style="color:#000000;fill:#068c06;fill-opacity:1;stroke-linecap:round;stroke-linejoin:round;-inkscape-stroke:none"
           d="m 194.29687,85.987816 c -1.24195,0.20588 -1.7643,1.024875 -2.23047,1.537109 l -10.74227,10.651693 c -23.20813,-8.428669 -38.48344,-1.386166 -49.75136,10.845932 -11.39862,12.37396 -18.07565,25.62699 -17.44191,41.85571 0.004,0.093 0.0175,0.18533 0.041,0.27539 0.5995,2.29982 1.71037,3.71281 3.72339,3.64294 2.01302,-0.0699 4.00209,-1.45071 4.91211,-3.81445 5.28015,-12.52981 11.27668,-19.26662 17.41209,-24.30217 5.83456,-4.78864 15.6545,-5.56809 24.80565,-1.94794 l -12.80442,17.03346 0.10547,-0.16015 c -0.70065,0.90083 -0.82997,2.11501 -0.32422,3.0957 0.50574,0.98069 1.70187,1.61089 2.97461,1.50195 l -0.0957,0.004 39.87779,-0.83498 c 0.72905,-0.009 1.38737,-0.1485 1.94531,-0.47656 0.55794,-0.32807 0.95593,-0.84309 1.17187,-1.33985 0.43188,-0.99351 0.36168,-1.89301 0.40821,-2.55859 0.003,-0.0403 0.003,-0.0807 0.002,-0.1211 l -0.59071,-52.044344 c -0.006,-0.211025 -0.0627,-0.417493 -0.16602,-0.601562 -0.41543,-0.744736 -0.82035,-1.2988 -1.34375,-1.710938 -0.52339,-0.412137 -1.25734,-0.635906 -1.88867,-0.53125 z m 0.31427,2.971262 c 0.0871,0.07843 0.59133,-0.370776 0.47071,0.644531 l 0.60257,51.262451 c -0.0552,0.78711 -0.10416,1.44715 -0.19336,1.65234 -0.0459,0.10563 -0.0442,0.10067 -0.10547,0.13672 -0.0613,0.036 -0.24234,0.11222 -0.6582,0.11719 l -38.80203,0.4608 c -0.032,8.2e-4 -0.0639,0.003 -0.0957,0.006 -0.44899,0.0384 -0.41769,-0.0595 -0.44141,-0.10547 -0.0237,-0.046 -0.0487,-0.15863 0.0664,-0.30664 0.0396,-0.05 0.0755,-0.1029 0.10742,-0.1582 l 12.89899,-17.47205 c 0.37696,-0.67025 -0.30388,-2.08169 -1.00821,-2.39036 -13.21096,-6.57725 -22.4632,-3.85307 -29.25795,1.72363 -6.79475,5.5767 -13.35309,12.69256 -18.69364,25.37201 -0.005,0.0123 -0.0106,0.0247 -0.0156,0.0371 -0.58889,1.52961 -0.77075,2.22837 -1.68022,2.25994 -0.88512,0.0307 -0.67193,-0.60954 -0.71116,-1.86078 -0.33789,-10.7785 5.653,-27.8975 16.39061,-39.5539 10.78458,-11.707385 24.85335,-18.516253 47.7123,-9.93186 0.45832,0.17252 0.97471,0.0729 1.33593,-0.25781 l 11.31436,-10.879653 c 0.0264,-0.02369 0.0518,-0.04845 0.0762,-0.07422 0.44596,-0.48177 0.72295,-0.650463 0.6875,-0.68164 z"
           id="path16"
           sodipodi:nodetypes="sccsccscscccscccssccccsscccsccccsccccsccssscccccc" /><path
           style="color:#000000;fill:#f8f7fd;stroke-linecap:round;stroke-linejoin:round;-inkscape-stroke:none"
           d="m 195.28906,83.814453 c -1.24195,0.20588 -1.7643,1.024875 -2.23047,1.537109 l -11.9707,10.982422 c -23.20813,-8.428669 -39.61736,-0.866449 -50.88528,11.365646 -11.39862,12.37396 -17.69768,29.26501 -17.06394,45.49373 0.004,0.093 0.0175,0.18533 0.041,0.27539 0.5995,2.29982 2.60807,3.66557 4.62109,3.5957 2.01302,-0.0699 4.00209,-1.45071 4.91211,-3.81445 5.28015,-12.52981 12.35339,-20.34179 18.4888,-25.37734 5.83456,-4.78864 12.48947,-5.76859 21.64062,-2.14844 l -12.60598,17.49648 0.10547,-0.16015 c -0.70065,0.90083 -0.82997,2.11501 -0.32422,3.0957 0.50574,0.98069 1.70187,1.61089 2.97461,1.50195 l -0.0957,0.004 43.63282,-0.51953 c 0.72905,-0.009 1.38737,-0.1485 1.94531,-0.47656 0.55794,-0.32807 0.95593,-0.84309 1.17187,-1.33985 0.43188,-0.99351 0.36168,-1.89301 0.40821,-2.55859 0.003,-0.0403 0.003,-0.0807 0.002,-0.1211 L 198.6875,86.658203 c -0.006,-0.211025 -0.0627,-0.417493 -0.16602,-0.601562 -0.41543,-0.744736 -0.82035,-1.2988 -1.34375,-1.710938 -0.52339,-0.412137 -1.25734,-0.635906 -1.88867,-0.53125 z m 0.33789,2.652344 c 0.0871,0.07843 0.5677,-0.630634 0.51796,0.97526 l 1.31017,55.194663 c -0.0552,0.78711 -0.10416,1.44715 -0.19336,1.65234 -0.0459,0.10563 -0.0442,0.10067 -0.10547,0.13672 -0.0613,0.036 -0.24234,0.11222 -0.6582,0.11719 l -43.63282,0.51953 c -0.032,8.2e-4 -0.0639,0.003 -0.0957,0.006 -0.44899,0.0384 -0.41769,-0.0595 -0.44141,-0.10547 -0.0237,-0.046 -0.0487,-0.15863 0.0664,-0.30664 0.0396,-0.05 0.0755,-0.1029 0.10742,-0.1582 l 13.37943,-18.87149 c 0.37696,-0.67025 0.093,-1.51945 -0.61133,-1.82812 -10.49898,-4.59288 -18.924,-3.51225 -25.71875,2.06445 -6.79475,5.5767 -13.90997,13.73696 -19.25052,26.41641 -0.005,0.0123 -0.0106,0.0247 -0.0156,0.0371 -0.58889,1.52961 -1.66475,2.11882 -2.57422,2.15039 -0.88512,0.0307 -1.62471,-0.3795 -1.97266,-1.58203 -0.55697,-15.54626 5.63883,-31.76703 16.37644,-43.42343 10.78458,-11.707382 25.98727,-19.035967 48.84622,-10.451574 0.45833,0.172524 0.97471,0.07287 1.33593,-0.257813 l 12.56641,-11.529297 c 0.0264,-0.02369 0.0518,-0.04845 0.0762,-0.07422 0.44596,-0.48177 0.72295,-0.650463 0.6875,-0.68164 z"
           id="path18"
           sodipodi:nodetypes="sccsccscscccscccssccccsscccsccccsccccsccscscccccc" /></g></g></g></svg>
