<?xml version="1.0" encoding="UTF-8" standalone="no"?>
<!-- Created with Inkscape (http://www.inkscape.org/) -->

<svg
   width="256mm"
   height="256mm"
   viewBox="0 0 256 256"
   version="1.1"
   id="svg1"
   inkscape:version="1.3.2 (091e20ef0f, 2023-11-25)"
   xml:space="preserve"
   sodipodi:docname="trashcan_empty.svg"
   xmlns:inkscape="http://www.inkscape.org/namespaces/inkscape"
   xmlns:sodipodi="http://sodipodi.sourceforge.net/DTD/sodipodi-0.dtd"
   xmlns:xlink="http://www.w3.org/1999/xlink"
   xmlns="http://www.w3.org/2000/svg"
   xmlns:svg="http://www.w3.org/2000/svg"
   xmlns:rdf="http://www.w3.org/1999/02/22-rdf-syntax-ns#"
   xmlns:cc="http://creativecommons.org/ns#"
   xmlns:dc="http://purl.org/dc/elements/1.1/"><defs
     id="defs1"><linearGradient
       id="linearGradient88"
       inkscape:collect="always"><stop
         style="stop-color:#000000;stop-opacity:0;"
         offset="0"
         id="stop88" /><stop
         style="stop-color:#000000;stop-opacity:0.71208227;"
         offset="1"
         id="stop89" /></linearGradient><linearGradient
       id="linearGradient74"
       inkscape:collect="always"><stop
         style="stop-color:#898989;stop-opacity:0.8766067;"
         offset="0"
         id="stop74" /><stop
         style="stop-color:#ffffff;stop-opacity:0;"
         offset="1"
         id="stop75" /></linearGradient><linearGradient
       id="linearGradient72"
       inkscape:collect="always"><stop
         style="stop-color:#ffffff;stop-opacity:0.57840616;"
         offset="0"
         id="stop72" /><stop
         style="stop-color:#ffffff;stop-opacity:0;"
         offset="1"
         id="stop73" /></linearGradient><linearGradient
       id="linearGradient70"
       inkscape:collect="always"><stop
         style="stop-color:#ffffff;stop-opacity:0;"
         offset="0"
         id="stop70" /><stop
         style="stop-color:#ffffff;stop-opacity:0.44987145;"
         offset="1"
         id="stop71" /></linearGradient><linearGradient
       id="linearGradient57"
       inkscape:collect="always"><stop
         style="stop-color:#8f8f8f;stop-opacity:1;"
         offset="0"
         id="stop58" /><stop
         style="stop-color:#f0f0f0;stop-opacity:1;"
         offset="0.12920266"
         id="stop60" /><stop
         style="stop-color:#ffffff;stop-opacity:1;"
         offset="0.33285302"
         id="stop61" /><stop
         style="stop-color:#a9a9a9;stop-opacity:1;"
         offset="0.47598463"
         id="stop62" /><stop
         style="stop-color:#424242;stop-opacity:1;"
         offset="0.60704845"
         id="stop63" /><stop
         style="stop-color:#6d6d6d;stop-opacity:1;"
         offset="0.79702502"
         id="stop65" /><stop
         style="stop-color:#c8c8c8;stop-opacity:1;"
         offset="0.91495556"
         id="stop64" /><stop
         style="stop-color:#cbcbcb;stop-opacity:1;"
         offset="1"
         id="stop59" /></linearGradient><linearGradient
       id="linearGradient54"
       inkscape:collect="always"><stop
         style="stop-color:#f0f0f0;stop-opacity:0.51670951;"
         offset="0"
         id="stop54" /><stop
         style="stop-color:#f0f0f0;stop-opacity:0.33419022;"
         offset="0.37051687"
         id="stop56" /><stop
         style="stop-color:#f0f0f0;stop-opacity:0.14652957;"
         offset="0.7028507"
         id="stop57" /><stop
         style="stop-color:#ffffff;stop-opacity:0;"
         offset="1"
         id="stop55" /></linearGradient><linearGradient
       id="linearGradient42"
       inkscape:collect="always"><stop
         style="stop-color:#000000;stop-opacity:0.84061694;"
         offset="0"
         id="stop42" /><stop
         style="stop-color:#000000;stop-opacity:0;"
         offset="1"
         id="stop43" /></linearGradient><linearGradient
       id="linearGradient40"
       inkscape:collect="always"><stop
         style="stop-color:#000000;stop-opacity:0.7275064;"
         offset="0"
         id="stop40" /><stop
         style="stop-color:#000000;stop-opacity:0;"
         offset="1"
         id="stop41" /></linearGradient><linearGradient
       id="linearGradient38"
       inkscape:collect="always"><stop
         style="stop-color:#0c0c0c;stop-opacity:0.19023137;"
         offset="0"
         id="stop38" /><stop
         style="stop-color:#111111;stop-opacity:0.44215938;"
         offset="1"
         id="stop39" /></linearGradient><linearGradient
       id="linearGradient2"
       inkscape:collect="always"><stop
         style="stop-color:#75b2f5;stop-opacity:0.83547556;"
         offset="0"
         id="stop36" /><stop
         style="stop-color:#8ebff5;stop-opacity:0;"
         offset="1"
         id="stop37" /></linearGradient><linearGradient
       id="linearGradient30"
       inkscape:collect="always"><stop
         style="stop-color:#333333;stop-opacity:1;"
         offset="0"
         id="stop30" /><stop
         style="stop-color:#474747;stop-opacity:1;"
         offset="0.30526474"
         id="stop32" /><stop
         style="stop-color:#999999;stop-opacity:1;"
         offset="0.59210157"
         id="stop33" /><stop
         style="stop-color:#a6a6a6;stop-opacity:1;"
         offset="0.71810788"
         id="stop34" /><stop
         style="stop-color:#6a6a6a;stop-opacity:1;"
         offset="0.86090642"
         id="stop35" /><stop
         style="stop-color:#585858;stop-opacity:1;"
         offset="1"
         id="stop31" /></linearGradient><linearGradient
       id="linearGradient23"
       inkscape:collect="always"><stop
         style="stop-color:#565656;stop-opacity:1;"
         offset="0"
         id="stop23" /><stop
         style="stop-color:#a4a4a4;stop-opacity:1;"
         offset="0.0904967"
         id="stop27" /><stop
         style="stop-color:#bdbdbd;stop-opacity:1;"
         offset="0.21057738"
         id="stop47" /><stop
         style="stop-color:#f0f0f0;stop-opacity:1;"
         offset="0.34396428"
         id="stop29" /><stop
         style="stop-color:#a5a5a5;stop-opacity:1;"
         offset="0.51369864"
         id="stop25" /><stop
         style="stop-color:#3c3c3c;stop-opacity:1;"
         offset="0.61815"
         id="stop26" /><stop
         style="stop-color:#565656;stop-opacity:1;"
         offset="0.82160628"
         id="stop28" /><stop
         style="stop-color:#b6b6b6;stop-opacity:1;"
         offset="0.91308784"
         id="stop46" /><stop
         style="stop-color:#787878;stop-opacity:1;"
         offset="1"
         id="stop24" /></linearGradient><linearGradient
       id="linearGradient15"
       inkscape:collect="always"><stop
         style="stop-color:#7b7b7b;stop-opacity:1;"
         offset="0"
         id="stop15" /><stop
         style="stop-color:#b4b4b4;stop-opacity:1;"
         offset="0.17393984"
         id="stop17" /><stop
         style="stop-color:#bababa;stop-opacity:1;"
         offset="0.27868164"
         id="stop22" /><stop
         style="stop-color:#bfbfbf;stop-opacity:0.97674417;"
         offset="0.36936113"
         id="stop20" /><stop
         style="stop-color:#757575;stop-opacity:1;"
         offset="0.53584212"
         id="stop18" /><stop
         style="stop-color:#565656;stop-opacity:0.99741602;"
         offset="0.75441563"
         id="stop19" /><stop
         style="stop-color:#bcbcbc;stop-opacity:1;"
         offset="0.89023089"
         id="stop21" /><stop
         style="stop-color:#bbbbbb;stop-opacity:1;"
         offset="1"
         id="stop16" /></linearGradient><linearGradient
       id="linearGradient5"
       inkscape:collect="always"><stop
         style="stop-color:#101010;stop-opacity:1;"
         offset="0"
         id="stop5" /><stop
         style="stop-color:#424242;stop-opacity:1;"
         offset="0.09827586"
         id="stop11" /><stop
         style="stop-color:#494949;stop-opacity:1;"
         offset="0.15706895"
         id="stop12" /><stop
         style="stop-color:#797979;stop-opacity:1;"
         offset="0.35241377"
         id="stop7" /><stop
         style="stop-color:#c7c7c7;stop-opacity:1;"
         offset="0.41758621"
         id="stop8" /><stop
         style="stop-color:#c7c7c7;stop-opacity:1;"
         offset="0.55637932"
         id="stop9" /><stop
         style="stop-color:#787878;stop-opacity:1;"
         offset="0.68831891"
         id="stop13" /><stop
         style="stop-color:#8e8e8e;stop-opacity:1;"
         offset="0.84118533"
         id="stop14" /><stop
         style="stop-color:#c7c7c7;stop-opacity:1;"
         offset="0.9375"
         id="stop10" /><stop
         style="stop-color:#c7c7c7;stop-opacity:1;"
         offset="1"
         id="stop6" /></linearGradient><linearGradient
       id="linearGradient1"
       inkscape:collect="always"><stop
         style="stop-color:#cccccc;stop-opacity:1;"
         offset="0"
         id="stop1" /><stop
         style="stop-color:#cccccc;stop-opacity:1;"
         offset="0.5"
         id="stop3" /><stop
         style="stop-color:#bcbcbc;stop-opacity:1;"
         offset="0.75"
         id="stop4" /><stop
         style="stop-color:#a7a7a7;stop-opacity:1;"
         offset="1"
         id="stop2" /></linearGradient><radialGradient
       inkscape:collect="always"
       xlink:href="#linearGradient1"
       id="radialGradient2"
       cx="123.75806"
       cy="224.01112"
       fx="123.75806"
       fy="224.01112"
       r="62.941975"
       gradientTransform="matrix(1.3736304,-0.0092162,0.00309121,0.4607311,-49.750829,118.02816)"
       gradientUnits="userSpaceOnUse" /><linearGradient
       inkscape:collect="always"
       xlink:href="#linearGradient5"
       id="linearGradient6"
       x1="60.476189"
       y1="197.29502"
       x2="197.49256"
       y2="197.29502"
       gradientUnits="userSpaceOnUse" /><linearGradient
       inkscape:collect="always"
       xlink:href="#linearGradient15"
       id="linearGradient16"
       x1="31.003263"
       y1="17.870223"
       x2="226.91182"
       y2="17.870223"
       gradientUnits="userSpaceOnUse" /><linearGradient
       inkscape:collect="always"
       xlink:href="#linearGradient23"
       id="linearGradient24"
       x1="60.93745"
       y1="237.73623"
       x2="195.90855"
       y2="240.67622"
       gradientUnits="userSpaceOnUse" /><radialGradient
       inkscape:collect="always"
       xlink:href="#linearGradient30"
       id="radialGradient31"
       cx="90.472427"
       cy="183.46497"
       fx="90.472427"
       fy="183.46497"
       r="69.134759"
       gradientTransform="matrix(2.3036815,-0.04227406,0.0071939,0.39202481,-114.25564,141.71531)"
       gradientUnits="userSpaceOnUse" /><linearGradient
       inkscape:collect="always"
       xlink:href="#linearGradient38"
       id="linearGradient39"
       x1="30.972456"
       y1="127.7828"
       x2="225.81462"
       y2="127.7828"
       gradientUnits="userSpaceOnUse" /><linearGradient
       inkscape:collect="always"
       xlink:href="#linearGradient40"
       id="linearGradient41"
       x1="54.255718"
       y1="158.7581"
       x2="58.799297"
       y2="191.63226"
       gradientUnits="userSpaceOnUse" /><linearGradient
       inkscape:collect="always"
       xlink:href="#linearGradient42"
       id="linearGradient43"
       x1="207.13388"
       y1="126.95303"
       x2="197.77945"
       y2="192.43407"
       gradientUnits="userSpaceOnUse" /><radialGradient
       inkscape:collect="always"
       xlink:href="#linearGradient2"
       id="radialGradient47"
       cx="127.10278"
       cy="37.964622"
       fx="127.10278"
       fy="37.964622"
       r="96.350662"
       gradientTransform="matrix(1.4462736,-0.0122995,0.01740473,2.046589,-58.854441,-49.662957)"
       gradientUnits="userSpaceOnUse" /><radialGradient
       inkscape:collect="always"
       xlink:href="#linearGradient54"
       id="radialGradient55"
       cx="59.196117"
       cy="128.25496"
       fx="59.196117"
       fy="128.25496"
       r="39.928691"
       gradientTransform="matrix(1.7409684,-0.08820439,0.1511811,2.9839959,-60.603286,-262.39343)"
       gradientUnits="userSpaceOnUse" /><linearGradient
       inkscape:collect="always"
       xlink:href="#linearGradient57"
       id="linearGradient59"
       x1="30.238094"
       y1="35.529761"
       x2="226.97469"
       y2="35.529761"
       gradientUnits="userSpaceOnUse" /><linearGradient
       inkscape:collect="always"
       xlink:href="#linearGradient70"
       id="linearGradient71"
       x1="159.29264"
       y1="126.95302"
       x2="203.65938"
       y2="128.02209"
       gradientUnits="userSpaceOnUse" /><linearGradient
       inkscape:collect="always"
       xlink:href="#linearGradient72"
       id="linearGradient73"
       x1="48.108517"
       y1="122.67671"
       x2="90.251907"
       y2="125.88395"
       gradientUnits="userSpaceOnUse" /><linearGradient
       inkscape:collect="always"
       xlink:href="#linearGradient74"
       id="linearGradient75"
       x1="144.33127"
       y1="226.50577"
       x2="146.53259"
       y2="178.50279"
       gradientUnits="userSpaceOnUse" /><linearGradient
       id="linearGradient7613"
       y2="110.58"
       xlink:href="#linearGradient12669"
       spreadMethod="reflect"
       gradientUnits="userSpaceOnUse"
       x2="878.83002"
       y1="189.88"
       x1="841.96002"
       inkscape:collect="always" /><linearGradient
       id="linearGradient12669"><stop
         id="stop12671"
         style="stop-color:#c0c0c0"
         offset="0" /><stop
         id="stop12675"
         style="stop-color:#edf1f2"
         offset=".5" /><stop
         id="stop12677"
         style="stop-color:#d1d3d6"
         offset=".75" /><stop
         id="stop12673"
         style="stop-color:#ffffff"
         offset="1" /></linearGradient><linearGradient
       id="linearGradient7615"
       y2="162.59"
       xlink:href="#linearGradient12669"
       spreadMethod="reflect"
       gradientUnits="userSpaceOnUse"
       x2="939.72998"
       y1="120.16"
       x1="885.90997"
       inkscape:collect="always" /><linearGradient
       id="linearGradient7617"
       y2="90.245003"
       xlink:href="#linearGradient12669"
       spreadMethod="repeat"
       gradientUnits="userSpaceOnUse"
       x2="904.65997"
       y1="125.6"
       x1="848.14001"
       inkscape:collect="always" /><linearGradient
       inkscape:collect="always"
       xlink:href="#linearGradient12669"
       id="linearGradient77"
       gradientUnits="userSpaceOnUse"
       x1="841.96002"
       y1="189.88"
       x2="878.83002"
       y2="110.58"
       spreadMethod="reflect" /><linearGradient
       inkscape:collect="always"
       xlink:href="#linearGradient12669"
       id="linearGradient78"
       gradientUnits="userSpaceOnUse"
       x1="885.90997"
       y1="120.16"
       x2="939.72998"
       y2="162.59"
       spreadMethod="reflect" /><linearGradient
       inkscape:collect="always"
       xlink:href="#linearGradient12669"
       id="linearGradient79"
       gradientUnits="userSpaceOnUse"
       x1="848.14001"
       y1="125.6"
       x2="904.65997"
       y2="90.245003"
       spreadMethod="repeat" /><linearGradient
       inkscape:collect="always"
       xlink:href="#linearGradient12669"
       id="linearGradient81"
       gradientUnits="userSpaceOnUse"
       x1="841.96002"
       y1="189.88"
       x2="878.83002"
       y2="110.58"
       spreadMethod="reflect" /><linearGradient
       inkscape:collect="always"
       xlink:href="#linearGradient12669"
       id="linearGradient82"
       gradientUnits="userSpaceOnUse"
       x1="885.90997"
       y1="120.16"
       x2="939.72998"
       y2="162.59"
       spreadMethod="reflect" /><linearGradient
       inkscape:collect="always"
       xlink:href="#linearGradient12669"
       id="linearGradient83"
       gradientUnits="userSpaceOnUse"
       x1="848.14001"
       y1="125.6"
       x2="904.65997"
       y2="90.245003"
       spreadMethod="repeat" /><linearGradient
       inkscape:collect="always"
       xlink:href="#linearGradient12669"
       id="linearGradient85"
       gradientUnits="userSpaceOnUse"
       x1="841.96002"
       y1="189.88"
       x2="878.83002"
       y2="110.58"
       spreadMethod="reflect" /><linearGradient
       inkscape:collect="always"
       xlink:href="#linearGradient12669"
       id="linearGradient86"
       gradientUnits="userSpaceOnUse"
       x1="885.90997"
       y1="120.16"
       x2="939.72998"
       y2="162.59"
       spreadMethod="reflect"
       gradientTransform="translate(-24.778009,10.388361)" /><linearGradient
       inkscape:collect="always"
       xlink:href="#linearGradient12669"
       id="linearGradient87"
       gradientUnits="userSpaceOnUse"
       x1="848.14001"
       y1="125.6"
       x2="904.65997"
       y2="90.245003"
       spreadMethod="repeat" /><linearGradient
       inkscape:collect="always"
       xlink:href="#linearGradient88"
       id="linearGradient90"
       gradientUnits="userSpaceOnUse"
       x1="104.23512"
       y1="88.897469"
       x2="170.78522"
       y2="100.1228"
       gradientTransform="matrix(0.92740648,-0.36761543,0.39430422,0.99473596,697.76069,125.4582)" /></defs><sodipodi:namedview
     id="base"
     pagecolor="#ffffff"
     bordercolor="#000000"
     borderopacity="0.3"
     inkscape:pageopacity="0.0"
     inkscape:pageshadow="2"
     inkscape:zoom="0.98994949"
     inkscape:cx="505.07627"
     inkscape:cy="476.792"
     inkscape:document-units="mm"
     inkscape:showpageshadow="2"
     inkscape:pagecheckerboard="0"
     inkscape:deskcolor="#d1d1d1"
     inkscape:current-layer="rect23"
     showguides="true" /><metadata
     id="metadata1"><rdf:RDF><cc:Work
         rdf:about=""><dc:format>image/svg+xml</dc:format><dc:type
           rdf:resource="http://purl.org/dc/dcmitype/StillImage" /><cc:license
           rdf:resource="http://creativecommons.org/publicdomain/zero/1.0/" /></cc:Work><cc:License
         rdf:about="http://creativecommons.org/publicdomain/zero/1.0/"><cc:permits
           rdf:resource="http://creativecommons.org/ns#Reproduction" /><cc:permits
           rdf:resource="http://creativecommons.org/ns#Distribution" /><cc:permits
           rdf:resource="http://creativecommons.org/ns#DerivativeWorks" /></cc:License></rdf:RDF></metadata><g
     id="g4"
     style="display:inline"
     inkscape:label="back"><path
       id="rect35"
       style="display:inline;fill:#8ebff5;fill-opacity:0.486275;stroke-width:1.712;stroke-linecap:square;stroke-miterlimit:2.5"
       d="m 89.268023,15.501631 100.493327,2.405426 c 18.0374,5.555764 30.85377,8.899076 27.39513,9.955789 C 202.31139,35.413033 101.14356,42.514477 37.952274,32.87415 27.287787,23.672992 60.844775,19.902541 89.268023,15.501631 Z"
       sodipodi:nodetypes="ccccc" /><ellipse
       style="display:inline;fill:url(#radialGradient2);stroke-width:0.215944;stroke-linecap:square;stroke-miterlimit:2.5;stroke-opacity:0.89781"
       id="path1"
       cx="131.36298"
       cy="216.62196"
       rx="62.941975"
       ry="20.446121" /><path
       id="rect4"
       style="fill:#f0f0f0;stroke-width:0.211667;stroke-linecap:square;stroke-miterlimit:2.5;stroke-opacity:0.89781"
       d="m 103.1875,199.00447 c 29.22999,-5.47157 62.99377,0.52269 66.90178,2.83482 -13.59396,-2.61089 -35.28961,-3.81297 -53.8616,-3.40178 z"
       sodipodi:nodetypes="cccc" /><path
       id="rect5"
       style="display:inline;fill:url(#linearGradient6);stroke-width:0.211667;stroke-linecap:square;stroke-miterlimit:2.5;stroke-opacity:0.89781"
       d="m 60.476189,199.76042 c 0.04384,-6.63263 10.298619,-13.81588 18.261259,-16.72623 16.475823,-6.02193 34.244592,-9.18829 51.785552,-9.36506 15.13182,-0.1525 30.70467,1.74008 44.82688,7.17687 4.21244,1.62172 9.04865,4.33714 13.25235,7.13401 4.2037,2.79687 12.71938,8.28107 9.52412,16.30894 l -3.94108,10.21254 c -13.54427,-9.82278 -18.3418,-11.29017 -24.00218,-13.16631 -13.82725,-4.58307 -29.93552,-5.3223 -45.01146,-4.74538 -13.04569,0.49922 -26.525159,1.92202 -38.522133,7.07099 -8.985975,3.85668 -19.132111,9.9007 -23.716463,17.2663 z"
       sodipodi:nodetypes="csassccsaacc" /><path
       id="rect14"
       style="display:inline;fill:#f5f5f5;fill-opacity:0.609756;stroke-width:0.211667;stroke-linecap:square;stroke-miterlimit:2.5;stroke-opacity:0.89781"
       d="m 61.0904,196.31138 c 2.721723,-4.51271 8.67633,-10.29276 21.547998,-14.6804 8.241289,-2.80926 21.904952,-6.39541 42.849692,-7.76194 7.17581,-0.46818 21.58936,-0.47484 37.13615,3.07106 6.49388,1.48112 31.6717,8.49845 36.36191,22.55279 -2.32205,7.00908 -1.91803,-0.23977 -2.50467,-0.90973 0.34092,-0.49243 -5.46192,-12.16449 -33.64533,-19.75655 -11.86611,-3.1965 -22.46507,-3.59007 -34.75283,-3.77222 -7.75046,-0.11489 -34.193676,4.07887 -46.251479,8.61435 -11.567159,4.35093 -17.711041,9.05772 -20.977676,13.82381 z"
       sodipodi:nodetypes="csssccssscc" /><path
       id="path22"
       style="fill:#0b0b0b;fill-opacity:0.243902;stroke-width:0.211667;stroke-linecap:square;stroke-miterlimit:2.5;stroke-opacity:0.89781"
       d="m 31.466517,29.954613 c 0,0 5.119183,-4.329718 23.009301,-8.40997 24.371688,-5.558524 49.700882,-6.50589 74.697542,-6.626047 22.11597,-0.10631 55.1971,3.207952 66.14248,5.226816 19.87195,3.665359 22.62782,4.106207 25.00956,8.645628 l -2.56559,-0.002 c 0,0 6.73016,-0.841852 -22.29888,-6.288027 -21.26937,-3.990338 -44.63058,-4.95836 -66.47656,-5.492084 -27.90026,-0.681638 -48.836713,0.912063 -73.307807,6.015193 -8.089293,1.686918 -16.749022,5.235606 -20.808261,7.11948 z"
       sodipodi:nodetypes="csasccssscc" /><path
       id="rect15"
       style="fill:url(#linearGradient16);stroke-width:0.211667;stroke-linecap:square;stroke-miterlimit:2.5;stroke-opacity:0.89781"
       d="M 30.035887,20.863236 C 31.106141,16.812098 34.590122,14.699273 42.697401,12.907505 50.80468,11.115737 67.976478,8.9835678 75.633676,7.7285635 93.503381,4.7997434 129.90248,5.2717182 129.90248,5.2717182 c 0,0 34.98908,1.0113448 52.37893,2.8348215 10.17203,1.0666257 26.81312,4.7804193 34.37442,7.1072873 7.5613,2.326869 7.97995,2.936082 10.32281,5.967283 l -1.40317,9.488069 C 212.03166,23.539151 196.24206,20.646516 180.10804,18.940453 163.96028,17.232937 146.66396,16.216195 129.90248,16.105632 110.94515,15.980584 91.796353,15.532347 73.082337,18.562477 58.798466,20.875288 44.29337,23.080363 31.33735,30.468727 Z"
       sodipodi:nodetypes="csscssccsaacc" /><path
       id="rect22"
       style="fill:#fafafa;fill-opacity:0.678492;stroke-width:0.211667;stroke-linecap:square;stroke-miterlimit:2.5;stroke-opacity:0.89781"
       d="m 30.497954,20.31622 c 0.330777,-3.493451 3.635608,-5.708035 14.91405,-7.889761 C 72.31644,7.2220075 93.082239,4.8547689 128.6064,5.0129332 c 22.20621,0.098869 55.53119,2.6065963 66.47657,4.6254597 19.87195,3.6653591 29.25084,6.8490781 31.63258,11.3884991 l -2.70733,0.328729 c 0,0 -1.26302,-4.671404 -30.29206,-10.117579 C 172.44679,7.2477044 150.13608,8.1893906 128.41741,7.2760417 103.42504,6.2250218 78.465782,8.7058598 53.81436,12.85119 43.502151,14.585269 33.189733,18.172774 34.937087,20.505209 Z"
       sodipodi:nodetypes="csssccssscc" /></g><g
     id="g12687"
     transform="matrix(0.75078397,0.01243752,-0.01243752,0.75078397,-540.10265,53.030492)"
     style="display:none"><path
       id="path12564"
       style="display:inline;fill:url(#linearGradient7613);fill-rule:evenodd"
       d="m 868.57,84.286 -42.49,9.634 -17.52,36.08 -0.36,30.7 17.09,36.62 16.15,6.96 27.12,12.88 0.35,-15.69 10.38,8.17 28.21,-22.51 6.51,-11.21 15.62,-64.14 -39.63,-10.34 -4.98,9.77 z" /><path
       id="path12455"
       style="fill:url(#linearGradient7615);fill-rule:evenodd"
       d="m 884.28,72.129 -23.22,7.75 1.81,-2.75 -38.59,1.438 -5.72,22.153 13.59,22.85 22.69,-34.284 40.87,29.284 21.44,-22.128 -23.59,-5 z m 39.28,35.001 -4.03,19.34 c -3.75,-2.31 -7.36,-4.45 -8.82,-5.03 l 7.22,12.75 -1.06,5.22 -16.16,-13.69 -16.43,20.72 13.59,15 6.41,-3.81 v 9.5 l -4.28,10 V 193 l -18.57,-7.28 -2.87,12.85 20.72,20 22.15,-17.13 -15.68,-6.15 20.68,-19.57 -18.15,-20.47 12.56,-7.5 1.31,15.1 8.56,-29.28 c 0,0 -1.93,-1.26 -4.37,-2.82 l 17.94,-19.31 z m -74.28,6.44 -0.72,15 29.31,11.43 1.41,-15 z m -44.28,2.87 -10,30.69 11.43,-4.56 -5,27.43 12.6,5.13 -6.88,15.59 17.85,18.57 1.75,-9.13 8.25,0.56 16.43,20 -12.87,-39.28 -10.94,14.25 3.81,-19.97 -10.72,-15.72 -2.34,5.29 -9.87,-23.54 4.37,-1.75 6.41,14.29 20.72,-26.44 -26.79,5.09 -2.5,-4.37 15.72,-7.13 z m 114.9,21.25 0.1,0.16 0.4,4.56 -2.72,-2.31 z m -75.62,10.16 -10,24.28 17.15,7.87 19.28,-12.15 z" /><path
       id="path12354"
       style="fill:url(#linearGradient7617);fill-rule:evenodd"
       d="m 851.01,66.429 v 18.562 l 20,8.594 12.84,-12.875 z m 64.28,4.281 -24.28,37.16 18.56,5.71 11.44,-11.43 -7.16,-12.878 z m -82.87,24.281 -24.29,25.719 35.72,20 8.57,-32.84 -12.85,-11.441 z m 34.31,22.879 -1.44,15.71 -8.56,12.85 17.12,5.72 8.57,-34.28 z m -60,27.12 -8.6,17.16 11.44,22.84 28.56,2.88 v -18.6 z m 117.12,1.44 -37.12,12.84 35.69,22.88 z m -42.84,17.15 -22.88,21.41 -25.71,37.16 44.31,-11.44 z" /></g><g
     id="g77"
     transform="matrix(0.82925039,0.01627816,-0.01373739,0.98262213,-573.71703,-11.043965)"
     style="display:none"><path
       id="path75"
       style="fill:url(#linearGradient77);fill-rule:evenodd"
       d="m 868.57,84.286 -42.49,9.634 -17.52,36.08 -0.36,30.7 17.09,36.62 16.15,6.96 27.12,12.88 0.35,-15.69 10.38,8.17 28.21,-22.51 6.51,-11.21 15.62,-64.14 -39.63,-10.34 -4.98,9.77 z" /><path
       id="path76"
       style="fill:url(#linearGradient78);fill-rule:evenodd"
       d="m 884.28,72.129 -23.22,7.75 1.81,-2.75 -38.59,1.438 -5.72,22.153 13.59,22.85 22.69,-34.284 40.87,29.284 21.44,-22.128 -23.59,-5 z m 39.28,35.001 -4.03,19.34 c -3.75,-2.31 -7.36,-4.45 -8.82,-5.03 l 7.22,12.75 -1.06,5.22 -16.16,-13.69 -16.43,20.72 13.59,15 6.41,-3.81 v 9.5 l -4.28,10 V 193 l -18.57,-7.28 -2.87,12.85 20.72,20 22.15,-17.13 -15.68,-6.15 20.68,-19.57 -18.15,-20.47 12.56,-7.5 1.31,15.1 8.56,-29.28 c 0,0 -1.93,-1.26 -4.37,-2.82 l 17.94,-19.31 z m -74.28,6.44 -0.72,15 29.31,11.43 1.41,-15 z m -44.28,2.87 -10,30.69 11.43,-4.56 -5,27.43 12.6,5.13 -6.88,15.59 17.85,18.57 1.75,-9.13 8.25,0.56 16.43,20 -12.87,-39.28 -10.94,14.25 3.81,-19.97 -10.72,-15.72 -2.34,5.29 -9.87,-23.54 4.37,-1.75 6.41,14.29 20.72,-26.44 -26.79,5.09 -2.5,-4.37 15.72,-7.13 z m 114.9,21.25 0.1,0.16 0.4,4.56 -2.72,-2.31 z m -75.62,10.16 -10,24.28 17.15,7.87 19.28,-12.15 z" /><path
       id="path77"
       style="fill:url(#linearGradient79);fill-rule:evenodd"
       d="m 851.01,66.429 v 18.562 l 20,8.594 12.84,-12.875 z m 64.28,4.281 -24.28,37.16 18.56,5.71 11.44,-11.43 -7.16,-12.878 z m -82.87,24.281 -24.29,25.719 35.72,20 8.57,-32.84 -12.85,-11.441 z m 34.31,22.879 -1.44,15.71 -8.56,12.85 17.12,5.72 8.57,-34.28 z m -60,27.12 -8.6,17.16 11.44,22.84 28.56,2.88 v -18.6 z m 117.12,1.44 -37.12,12.84 35.69,22.88 z m -42.84,17.15 -22.88,21.41 -25.71,37.16 44.31,-11.44 z" /></g><g
     id="g81"
     transform="matrix(1.1145828,0.0183629,-0.01846422,1.1084669,-838.34764,-88.844293)"
     style="display:none"><path
       id="path79"
       style="fill:url(#linearGradient81);fill-rule:evenodd"
       d="m 868.57,84.286 -42.49,9.634 -17.52,36.08 -0.36,30.7 17.09,36.62 16.15,6.96 27.12,12.88 0.35,-15.69 10.38,8.17 28.21,-22.51 6.51,-11.21 15.62,-64.14 -39.63,-10.34 -4.98,9.77 z" /><path
       id="path80"
       style="fill:url(#linearGradient82);fill-rule:evenodd"
       d="m 884.28,72.129 -23.22,7.75 1.81,-2.75 -38.59,1.438 -5.72,22.153 13.59,22.85 22.69,-34.284 40.87,29.284 21.44,-22.128 -23.59,-5 z m 39.28,35.001 -4.03,19.34 c -3.75,-2.31 -7.36,-4.45 -8.82,-5.03 l 7.22,12.75 -1.06,5.22 -16.16,-13.69 -16.43,20.72 13.59,15 6.41,-3.81 v 9.5 l -4.28,10 V 193 l -18.57,-7.28 -2.87,12.85 20.72,20 22.15,-17.13 -15.68,-6.15 20.68,-19.57 -18.15,-20.47 12.56,-7.5 1.31,15.1 8.56,-29.28 c 0,0 -1.93,-1.26 -4.37,-2.82 l 17.94,-19.31 z m -74.28,6.44 -0.72,15 29.31,11.43 1.41,-15 z m -44.28,2.87 -10,30.69 11.43,-4.56 -5,27.43 12.6,5.13 -6.88,15.59 17.85,18.57 1.75,-9.13 8.25,0.56 16.43,20 -12.87,-39.28 -10.94,14.25 3.81,-19.97 -10.72,-15.72 -2.34,5.29 -9.87,-23.54 4.37,-1.75 6.41,14.29 20.72,-26.44 -26.79,5.09 -2.5,-4.37 15.72,-7.13 z m 114.9,21.25 0.1,0.16 0.4,4.56 -2.72,-2.31 z m -75.62,10.16 -10,24.28 17.15,7.87 19.28,-12.15 z" /><path
       id="path81"
       style="fill:url(#linearGradient83);fill-rule:evenodd"
       d="m 851.01,66.429 v 18.562 l 20,8.594 12.84,-12.875 z m 64.28,4.281 -24.28,37.16 18.56,5.71 11.44,-11.43 -7.16,-12.878 z m -82.87,24.281 -24.29,25.719 35.72,20 8.57,-32.84 -12.85,-11.441 z m 34.31,22.879 -1.44,15.71 -8.56,12.85 17.12,5.72 8.57,-34.28 z m -60,27.12 -8.6,17.16 11.44,22.84 28.56,2.88 v -18.6 z m 117.12,1.44 -37.12,12.84 35.69,22.88 z m -42.84,17.15 -22.88,21.41 -25.71,37.16 44.31,-11.44 z" /></g><g
     id="g85"
     transform="matrix(0.93185715,0.34437788,-0.36937963,0.86878367,-603.63183,-350.41376)"
     style="display:none"><path
       id="path83"
       style="fill:url(#linearGradient85);fill-rule:evenodd"
       d="m 868.57,84.286 -42.49,9.634 -17.52,36.08 -0.36,30.7 17.09,36.62 16.15,6.96 27.12,12.88 0.35,-15.69 10.38,8.17 28.21,-22.51 6.51,-11.21 15.62,-64.14 -39.63,-10.34 -4.98,9.77 z" /><path
       id="path84"
       style="fill:url(#linearGradient86);fill-rule:evenodd"
       d="m 859.50199,82.517361 -23.22,7.75 1.81,-2.75 -38.59,1.438 -5.72,22.152999 13.59,22.85 22.69,-34.283999 40.87,29.283999 21.44,-22.128 -23.59,-5 z m 39.28,35.000999 -4.03,19.34 c -3.75,-2.31 -7.36,-4.45 -8.82,-5.03 l 7.22,12.75 -1.06,5.22 -16.16,-13.69 -16.43,20.72 13.59,15 6.41,-3.81 v 9.5 l -4.28,10 v 15.87 l -18.57,-7.28 -2.87,12.85 20.72,20 22.15,-17.13 -15.68,-6.15 20.68,-19.57 -18.15,-20.47 12.56,-7.5 1.31,15.1 8.56,-29.28 c 0,0 -1.93,-1.26 -4.37,-2.82 l 17.94,-19.31 z m -74.28,6.44 -0.72,15 29.31,11.43 1.41,-15 z m -44.28,2.87 -10,30.69 11.43,-4.56 -5,27.43 12.6,5.13 -6.88,15.59 17.85,18.57 1.75,-9.13 8.25,0.56 16.43,20 -12.87,-39.28 -10.94,14.25 3.81,-19.97 -10.72,-15.72 -2.34,5.29 -9.87,-23.54 4.37,-1.75 6.41,14.29 20.72,-26.44 -26.79,5.09 -2.5,-4.37 15.72,-7.13 z m 114.9,21.25 0.1,0.16 0.4,4.56 -2.72,-2.31 z m -75.62,10.16 -10,24.28 17.15,7.87 19.28,-12.15 z" /><path
       id="path85"
       style="fill:url(#linearGradient87);fill-rule:evenodd"
       d="m 851.01,66.429 v 18.562 l 20,8.594 12.84,-12.875 z m 64.28,4.281 -24.28,37.16 18.56,5.71 11.44,-11.43 -7.16,-12.878 z m -82.87,24.281 -24.29,25.719 35.72,20 8.57,-32.84 -12.85,-11.441 z m 34.31,22.879 -1.44,15.71 -8.56,12.85 17.12,5.72 8.57,-34.28 z m -60,27.12 -8.6,17.16 11.44,22.84 28.56,2.88 v -18.6 z m 117.12,1.44 -37.12,12.84 35.69,22.88 z m -42.84,17.15 -22.88,21.41 -25.71,37.16 44.31,-11.44 z" /><path
       style="color:#000000;display:inline;fill:url(#linearGradient90);fill-opacity:0.346578;stroke-width:1.03319;stroke-linecap:square;stroke-miterlimit:2.5;-inkscape-stroke:none"
       d="m 739.51873,143.97625 c 33.94826,6.09203 140.75789,-34.94261 178.71245,-70.839977 l 45.28703,176.474877 c 0.33535,16.0886 -10.45978,26.90167 -19.92906,34.88159 -21.68717,18.27613 -46.41052,22.56149 -71.74104,28.52762 -16.44396,-0.41924 -35.5233,2.14626 -42.5004,-8.99472 z"
       id="path87-6"
       sodipodi:nodetypes="cccsccc"
       transform="translate(5.2199598e-6,-1.333969e-5)" /></g><g
     id="rect23"
     inkscape:label="front"
     style="display:inline"><g
       id="g44"
       style="display:inline"><path
         style="color:#000000;fill:url(#linearGradient24);stroke-linecap:square;stroke-miterlimit:2.5;-inkscape-stroke:none"
         d="m 60.135642,203.39209 c 1.293029,7.20659 7.661801,10.38461 15.568443,13.89801 10.547853,4.68704 36.323945,8.83233 54.857075,9.08717 15.03908,0.2068 30.93401,-0.34308 44.70082,-6.1472 18.16447,-7.65818 22.51746,-15.368 22.51746,-15.368 -0.99124,7.10469 -4.19955,18.95037 -8.69576,26.48261 -3.23311,5.41624 -9.42468,7.10235 -15.15805,9.73241 -10.61286,4.86843 -22.60725,6.7345 -34.27731,7.75082 -10.95187,0.95378 -32.94096,-1.60362 -32.94096,-1.60362 -25.174895,-1.62159 -37.725464,-13.37194 -41.493598,-19.2434 -1.747417,-2.7228 -5.07812,-24.5888 -5.07812,-24.5888 z"
         id="path29"
         sodipodi:nodetypes="cssscssscsc" /><path
         style="color:#000000;fill:url(#radialGradient31);stroke-linecap:square;stroke-miterlimit:2.5;-inkscape-stroke:none"
         d="m 60.978516,203.24023 -0.508278,-3.87649 c 0,0 -0.05062,3.2173 -0.09059,4.93519 -0.08209,3.5276 0.455037,4.61452 1.506788,10.42495 0.52688,2.91076 1.297635,5.90759 1.860863,8.36328 0.281614,1.22785 0.604244,2.50791 0.871466,3.39601 0.267222,0.88811 0.541873,0.83851 0.867561,1.34599 3.954391,6.16168 15.697401,18.04455 41.118754,19.68201 0.92645,-0.0383 21.90747,2.71741 33.07032,1.74526 11.70976,-1.01978 23.84813,-2.46518 34.60779,-7.40095 5.58646,-2.56267 12.0986,-4.77706 15.74548,-9.76018 5.88585,-8.04247 6.34317,-21.91706 7.32945,-28.98622 l -1.02754,1.66941 c 0,0 -0.14899,0.34902 -0.70508,1.10547 -0.55609,0.75645 -1.49542,1.86555 -3,3.2207 -3.00916,2.71031 -8.68641,6.53837 -17.69582,10.33676 -13.5673,5.72 -29.34751,6.28647 -44.35742,6.08007 -18.41642,-0.25323 -44.275399,-4.46072 -54.521482,-9.01367 -3.943733,-1.75244 -7.456802,-3.4105 -10.085937,-5.45703 -2.629136,-2.04653 -4.379095,-4.42618 -4.986328,-7.81055 z m 134.781754,4.99723 c -1.56157,7.02707 -2.42191,16.24273 -7.22325,22.47878 -3.61424,4.69423 -9.08839,6.88514 -14.96866,9.58259 -10.46603,4.80107 -22.36381,6.66292 -33.99414,7.67578 -10.72144,0.93371 -32.76758,-1.60156 -32.76758,-1.60156 l -0.0215,-0.002 -0.0234,-0.002 c -24.928374,-1.60571 -37.246257,-13.26838 -40.828126,-18.84961 -0.111166,-0.17322 -0.369749,-0.7942 -0.619141,-1.62305 -0.249392,-0.82885 -0.520505,-1.89267 -0.796875,-3.09765 -0.552739,-2.40996 -1.132028,-5.38908 -1.65625,-8.28516 -0.484347,-2.67579 -0.536049,-3.16935 -0.867187,-5.19726 0.858053,1.11432 1.769848,2.19071 2.919921,3.08593 2.855163,2.22248 6.480459,3.90897 10.44336,5.66993 10.849602,4.82112 36.541598,8.90371 55.191408,9.16015 15.06821,0.2072 31.07862,-0.32466 45.04492,-6.21289 9.15504,-3.85978 15.00434,-7.78275 18.17824,-10.64144 0.97609,-0.87915 1.40116,-1.46335 1.98828,-2.14063 z"
         id="path30"
         sodipodi:nodetypes="ccssssscssaccssssssscsasscccsssscssssscs" /></g><g
       id="rect1"
       style="display:inline"><path
         style="color:#000000;display:inline;fill:url(#linearGradient75);stroke-linecap:square;stroke-miterlimit:2.5;-inkscape-stroke:none"
         d="m 32.072342,30.468725 c 29.384656,16.983698 144.073338,18.116342 192.701318,0 L 201.78848,199.38307 c -5.6303,14.093 -19.68395,19.76962 -31.45559,23.44143 -26.96017,8.40942 -51.58173,3.6183 -77.389916,0.0783 C 77.774409,216.87564 59.047541,212.534 56.661139,200.45214 Z"
         id="path73"
         sodipodi:nodetypes="cccsccc" /><path
         style="color:#000000;display:inline;fill:url(#radialGradient47);stroke-linecap:square;stroke-miterlimit:2.5;-inkscape-stroke:none"
         d="m 32.072342,30.468725 c 29.384656,16.983698 144.073338,18.116342 192.701318,0 L 201.78848,199.38307 c -5.6303,14.093 -19.68395,19.76962 -31.45559,23.44143 -26.96017,8.40942 -51.58173,3.6183 -77.389916,0.0783 C 77.774409,216.87564 59.047541,212.534 56.661139,200.45214 Z"
         id="path45"
         sodipodi:nodetypes="cccsccc" /><path
         style="color:#000000;display:inline;fill:url(#linearGradient39);fill-opacity:0.604856;stroke-linecap:square;stroke-miterlimit:2.5;-inkscape-stroke:none"
         d="m 31.223221,28.743524 0.118318,2.18236 24.474867,169.669816 0.0059,0.0215 c 1.271905,6.43939 6.843845,10.70549 13.8125,14.09961 6.968655,3.39412 15.454706,5.98744 22.992187,8.98242 l 0.0957,0.0371 0.103516,0.0137 c 38.462331,5.27574 58.865781,4.7067 77.383431,-0.88374 4.79603,-1.44791 12.49046,-4.72946 17.86006,-7.93993 5.3696,-3.21046 10.29537,-7.40925 13.1914,-14.6582 l 0.0391,-0.0976 24.51432,-171.002511 -1.33984,0.498047 C 200.37241,38.645282 159.5674,42.91673 121.20898,42.775391 102.02978,42.704721 83.451642,41.538108 67.859375,39.333984 52.267108,37.129861 39.640858,33.855778 32.5,29.728516 Z M 223.74219,31.699219 199.63411,199.70563 c -2.73763,6.79402 -7.25835,10.6499 -12.44336,13.75 -5.13316,3.0691 -9.22171,5.33183 -14.73804,7.08148 -25.05266,7.94608 -53.6269,5.04441 -79.310132,1.52734 -7.601246,-3.01274 -16.010019,-5.59922 -22.759766,-8.88672 C 63.601786,209.875 58.61887,205.93212 57.501953,200.29297 L 33.146484,31.90625 c 7.670706,3.995462 19.671713,7.030508 34.47461,9.123047 15.695888,2.218772 34.337526,3.386121 53.582036,3.457031 37.8444,0.139446 77.89146,-3.964828 102.53906,-12.787109 z"
         id="path46"
         sodipodi:nodetypes="ccccscccssccccssccccsscsccssc" /></g><g
       id="g49"
       inkscape:label="resycle"
       style="display:inline"><path
         id="rect47"
         style="fill:#265fc7;stroke-width:1.712;stroke-linecap:square;stroke-miterlimit:2.5;stroke-opacity:0.604856"
         d="m 63.68899,107.15625 c 1.647433,-5.61918 2.357374,-11.120567 5.929501,-14.953686 1.435843,-2.011189 3.888357,-2.364397 7.181547,-1.960751 l 17.079799,2.551339 c 1.779638,0.431542 3.559276,0.860896 5.338914,3.118303 l 9.995809,14.679005 c 0.91517,1.48906 3.45676,1.95727 4.84451,0.71206 l 1.64889,-0.74449 c 1.03504,-0.21521 1.68511,0.0315 1.46466,1.32292 l -7.74851,15.02455 c -1.56588,2.36464 -4.59217,2.7378 -8.92969,1.32292 l -11.953497,-2.64583 c -1.371826,-0.4464 -2.446108,-0.9469 -1.086681,-1.88989 l 2.787574,-1.22841 c 0.452626,-0.12128 0.720167,-0.67372 0.236236,-1.51191 L 77.841643,94.529424 c -0.7592,-1.587501 -2.979049,-3.420797 -4.967159,-2.485012 l -0.243995,0.795986 c 2.734226,-0.466065 3.746688,1.259297 5.019997,3.449038 l 6.390159,13.370894 c 0.519553,1.19074 0.732117,1.81889 0.4267,2.84074 l -5.195697,10.49474 c -1.054691,1.13751 -2.109382,1.23043 -3.164073,0.1004 L 66.6124,112.89676 c -1.216247,-1.38965 -3.377398,-2.29116 -2.92341,-5.74051 z"
         sodipodi:nodetypes="cccccccccccccccsccccccccc" /><path
         id="rect48"
         style="fill:#265fc7;stroke-width:1.712;stroke-linecap:square;stroke-miterlimit:2.5;stroke-opacity:0.604856"
         d="m 137.51016,157.55538 c 0.38589,-4.27679 -2.45361,-5.86576 -3.97563,-8.55263 5.70403,5.82062 2.04994,10.99215 -1.97112,10.82442 l -19.34362,-2.00453 -8.38558,-14.29892 1.77066,-3.60813 12.46144,-6.28084 c 2.90575,-1.06715 5.56885,-1.55195 6.71514,1.60362 l 11.25873,16.97161 c 2.65658,3.34087 1.44742,6.68174 -0.10022,10.02261 l -9.73814,15.33697 c -1.52987,2.32044 -3.57916,3.78753 -6.86598,3.22155 l -13.29537,-1.5297 c -3.14703,-0.63936 -4.22934,-1.25223 -4.06324,0.1636 l 0.094,1.86872 c 0.84137,5.23852 -0.88652,3.00284 -2.764406,0.3308 L 91.67344,168.61365 c -1.492811,-2.22107 -1.356717,-4.18762 0,-5.96345 l 6.147199,-9.43796 c 0.960794,-1.07458 2.944331,-5.35678 2.939961,1.921 -7e-4,1.17589 -0.39454,2.25175 1.60362,2.18828 l 25.92515,3.65824 c 4.26644,0.60672 7.38844,-0.2702 9.22079,-3.42438 z"
         sodipodi:nodetypes="cccccccccccccccccccsccc" /><path
         id="rect49"
         style="fill:#265fc7;stroke-width:1.712;stroke-linecap:square;stroke-miterlimit:2.5;stroke-opacity:0.604856"
         d="m 60.003721,144.67039 c -1.322252,-0.70075 -2.359001,-1.36581 -2.267857,-1.88988 l 2.173362,-16.15848 0.09449,-2.74033 -1.783574,-2.52771 c -0.864903,-1.52318 -0.531291,-2.51616 1.405598,-1.63003 l 5.386161,2.64584 c 2.551862,1.07031 3.881585,1.44326 5.197172,4.63021 l 6.236607,13.79613 c 0.839888,1.5142 1.030585,4.90386 -1.984375,0.29529 -0.95667,-1.57656 -2.032439,-1.30847 -2.845302,1.19585 l -2.169106,6.50521 0.728767,1.11234 10.427754,2.66763 c 1.269419,0.33775 2.304359,0.98814 2.078869,3.3191 l 1.133929,16.07581 c -0.198747,1.32796 -0.318091,2.77503 -1.984375,1.90169 l -13.229167,-5.10268 c -1.291722,-0.65653 -2.286654,-1.55331 -2.645832,-2.96475 L 58.680804,147.08 c -0.979393,-2.18547 0.146894,-1.59526 1.057123,-1.28986 l 10.371909,4.26237 -0.940192,-1.21257 z"
         sodipodi:nodetypes="cccccccccccccccccccccccc" /><path
         id="path51"
         style="display:inline;fill:url(#radialGradient55);fill-opacity:1;stroke-width:1.712;stroke-linecap:square;stroke-miterlimit:2.5;stroke-opacity:0.604856"
         d="m 74.490544,90.095276 c -2.146387,0.02333 -3.795173,0.598975 -4.872054,2.107365 -3.572124,3.833115 -4.281923,9.334439 -5.929354,14.953609 -0.453988,3.44935 1.70709,4.35109 2.923336,5.74073 l 9.495027,10.19938 c 1.05469,1.13003 2.109458,1.03674 3.164148,-0.10077 l 5.195549,-10.49445 c 0.305416,-1.02185 0.09322,-1.64991 -0.426331,-2.84065 L 77.650557,96.289213 c -1.273307,-2.189739 -2.285625,-3.91495 -5.019848,-3.448885 l 0.243913,-0.795817 c 1.988108,-0.935784 4.207939,0.89762 4.967138,2.48512 l 12.636438,26.422679 c 0.483931,0.83819 0.216464,1.39077 -0.236161,1.51205 l -2.787944,1.22835 c -1.359425,0.94299 -0.285069,1.44341 1.086756,1.88981 l 11.953791,2.64583 c 4.33752,1.41488 7.36381,1.04172 8.92969,-1.32292 l 7.74836,-15.0244 c 0.22045,-1.29142 -0.42947,-1.53813 -1.46451,-1.32292 l -1.64899,0.74466 c -1.38775,1.24521 -3.9295,0.77695 -4.84467,-0.7121 L 99.21875,95.911458 C 97.439114,93.654054 95.659694,93.224844 93.880058,92.793302 L 76.799963,90.242037 C 75.976667,90.141126 75.206006,90.087501 74.490544,90.095276 Z M 58.467232,119.39065 c -0.870409,-0.0232 -0.895689,0.8208 -0.247013,1.96318 l 1.783354,2.52801 -0.09457,2.74041 -2.172994,16.15818 c -0.09114,0.52407 0.945312,1.18906 2.267562,1.88981 l 9.165848,4.16977 0.940511,1.21233 -10.371976,-4.26227 c -0.910227,-0.3054 -2.036691,-0.89563 -1.0573,1.28984 l 7.276042,18.72186 c 0.359176,1.41142 1.354113,2.30814 2.645833,2.96467 l 13.229167,5.10253 c 1.66628,0.87334 1.785628,-0.57373 1.984375,-1.90169 l -1.133781,-16.0755 c 0.225488,-2.33096 -0.809526,-2.98143 -2.078943,-3.31918 l -10.427787,-2.66754 -0.728638,-1.11259 2.16886,-6.50503 c 0.812861,-2.50432 1.888636,-2.77235 2.845304,-1.19579 3.014954,4.60855 2.824261,1.21861 1.984375,-0.29559 L 70.209151,127 c -1.315583,-3.18695 -2.645241,-3.5599 -5.197099,-4.63021 l -5.386234,-2.64583 c -0.484222,-0.22153 -0.868449,-0.32559 -1.158586,-0.33331 z m 63.166688,13.4338 c -1.07168,-0.0121 -2.29648,0.34341 -3.56774,0.81029 l -12.46126,6.28075 -1.77095,3.60805 8.38605,14.29887 19.34353,2.00453 c 3.32334,0.13862 6.39018,-3.37081 4.13618,-7.87859 1.1084,1.44755 2.04092,3.04135 1.81022,5.60482 0.24666,-1.78105 -0.0534,-3.5623 -1.46967,-5.34334 l -11.25875,-16.97157 c -0.64479,-1.77501 -1.76974,-2.39821 -3.14761,-2.41381 z m 15.87603,24.72872 c -1.2e-4,8.7e-4 -3.9e-4,0.002 -5.1e-4,0.003 l 5.1e-4,-5.2e-4 c 7e-5,-7.2e-4 -6e-5,-0.001 0,-0.002 z m -5.1e-4,0.003 c -1.8324,3.15366 -4.95397,4.03076 -9.22011,3.42408 l -25.92504,-3.65818 c -1.99814,0.0635 -1.60422,-1.0126 -1.60352,-2.18849 0.004,-7.27778 -1.979592,-2.9954 -2.940384,-1.92082 l -6.146912,9.43767 c -1.356715,1.77583 -1.492807,3.74239 0,5.96346 l 7.633126,13.01109 c 1.87788,2.67204 3.60606,4.90779 2.76469,-0.33073 l -0.0941,-1.86862 c -0.1661,-1.41581 0.91629,-0.80317 4.06332,-0.16381 l 13.29531,1.52962 c 3.28682,0.56598 5.33586,-0.90107 6.86573,-3.22151 l 9.73842,-15.33705 c 0.72218,-1.55895 1.35303,-3.11774 1.56942,-4.67671 z"
         inkscape:label="light" /></g><g
       id="g69"
       inkscape:label="whiteshadowglass"><path
         id="rect65"
         style="fill:url(#linearGradient73);fill-opacity:1;stroke-width:1.712;stroke-linecap:square;stroke-miterlimit:2.5;stroke-opacity:0.604856"
         d="m 32.874151,34.2105 61.386797,9.529991 1.421543,169.807859 c -7.750817,-2.96823 -29.666918,5.68918 -36.615926,-9.08716 z"
         sodipodi:nodetypes="ccccc" /><path
         id="path66"
         style="fill:url(#linearGradient71);stroke-width:1.712;stroke-linecap:square;stroke-miterlimit:2.5;stroke-opacity:0.604856"
         d="m 168.3798,44.099472 55.05753,-6.681738 -23.78699,163.034416 c -7.21628,8.52436 -22.98518,17.7163 -40.09043,17.37251 z"
         sodipodi:nodetypes="ccccc" /></g><g
       id="g43"
       style="display:inline"
       inkscape:label="innerglassline"><path
         id="rect39"
         style="fill:url(#linearGradient41);fill-opacity:0.200883;stroke-width:1.712;stroke-linecap:square;stroke-miterlimit:2.5;stroke-opacity:0.604856"
         d="m 37.150467,37.150467 h 2.138156 L 61.204724,195.37403 h -2.138156 z"
         sodipodi:nodetypes="ccccc" /><path
         id="path39"
         style="fill:url(#linearGradient43);fill-opacity:0.200883;stroke-width:1.712;stroke-linecap:square;stroke-miterlimit:2.5;stroke-opacity:0.604856"
         d="m 220.49736,32.339615 h -2.13815 L 195.37402,195.6413 h 2.13816 z"
         sodipodi:nodetypes="ccccc" /></g><path
       id="path69"
       style="display:inline;fill:#0b0b0b;fill-opacity:0.243902;stroke-width:0.211667;stroke-linecap:square;stroke-miterlimit:2.5;stroke-opacity:0.89781"
       d="m 32.978422,35.326815 c 0,0 6.845656,4.512111 18.662575,7.654018 24.202105,6.434906 56.083073,8.173966 84.335933,8.515928 20.3415,0.246205 50.02953,-2.056577 60.85081,-4.659852 12.87939,-3.098395 21.86793,-5.452052 27.83095,-11.812569 l -1.22924,-0.799809 c 0,0 2.57242,3.109709 -26.45662,8.555884 -21.26937,3.990338 -44.63058,4.95836 -66.47656,5.492084 C 102.59601,48.954137 81.659562,47.360436 57.188468,42.257306 49.099175,40.570388 40.439446,37.0217 36.380207,35.137826 Z"
       sodipodi:nodetypes="csasccssscc" /><path
       id="rect57"
       style="display:inline;fill:url(#linearGradient59);stroke-width:1.7822;stroke-linecap:square;stroke-miterlimit:2.5;stroke-opacity:0.604856"
       d="m 31.574442,20.398267 c 0,0 12.971981,6.588581 19.972057,8.327923 25.280135,6.281477 37.514135,7.181547 77.815841,7.181547 22.59983,0 50.3595,-1.688891 75.17002,-5.669642 8.18506,-1.313261 21.95314,-8.609294 21.46635,-8.987907 0.75537,-0.115954 1.03703,0.544107 0.93069,1.023868 l -1.43894,11.436576 c -0.15024,0.730686 -0.64283,1.290196 -1.50577,1.664534 0,0 -12.63041,6.424491 -19.45233,8.092096 -24.42877,5.971568 -50.02239,6.571062 -75.17002,6.425595 C 103.30205,49.742111 76.951642,48.141948 51.546499,42.333333 44.98849,40.833914 32.607161,35.361735 32.607161,35.361735 32.107187,35.031161 31.577877,34.817934 31.422628,33.108461 L 29.936721,21.831026 c -0.02286,-0.798357 0.890028,-1.647889 1.637721,-1.432759 z"
       sodipodi:nodetypes="cassccccaaacccc" /><path
       id="path65"
       style="display:inline;fill:#fafafa;fill-opacity:0.678492;stroke-width:0.211667;stroke-linecap:square;stroke-miterlimit:2.5;stroke-opacity:0.89781"
       d="m 30.332997,20.757161 c 0.921761,3.502693 8.238976,7.742926 25.873358,10.851382 24.617988,4.339473 49.437435,6.072591 74.289925,6.376144 21.69388,0.264972 54.01929,-1.961351 64.96467,-3.980215 19.87195,-3.665359 31.54834,-8.692864 31.39102,-12.965016 l -3.03273,0.358201 c -0.82581,2.903282 -14.85259,8.031611 -34.27425,10.79525 -14.57844,2.074464 -33.44698,3.135217 -41.69897,3.312007 -30.03207,0.643404 -67.012536,-1.498959 -91.639665,-5.786251 -8.157739,-1.420166 -22.397563,-7.969885 -20.98202,-9.374567 -0.236235,-0.08662 -3.305234,-0.02091 -4.029992,-0.0814 -0.724758,-0.06048 -0.87831,0.07141 -0.861346,0.49446 z"
       sodipodi:nodetypes="csasccssscscc" /></g></svg>
