<?xml version="1.0" encoding="UTF-8" standalone="no"?>
<svg
   version="1.1"
   width="256px"
   height="256px"
   style="shape-rendering:geometricPrecision; text-rendering:geometricPrecision; image-rendering:optimizeQuality; fill-rule:evenodd; clip-rule:evenodd"
   id="svg197"
   sodipodi:docname="dialog-input-devices.svg"
   inkscape:version="1.3.2 (091e20ef0f, 2023-11-25)"
   xmlns:inkscape="http://www.inkscape.org/namespaces/inkscape"
   xmlns:sodipodi="http://sodipodi.sourceforge.net/DTD/sodipodi-0.dtd"
   xmlns="http://www.w3.org/2000/svg"
   xmlns:svg="http://www.w3.org/2000/svg">
  <defs
     id="defs197" />
  <sodipodi:namedview
     id="namedview197"
     pagecolor="#ffffff"
     bordercolor="#000000"
     borderopacity="0.25"
     inkscape:showpageshadow="2"
     inkscape:pageopacity="0.0"
     inkscape:pagecheckerboard="0"
     inkscape:deskcolor="#d1d1d1"
     inkscape:current-layer="svg197" />
  <g
     id="g197">
    <path
       fill="#828282"
       d="m 42.5,15.5 c 23,0 46,0 69,0 0,1.6667 0,3.3333 0,5 -8.849,-0.3264 -17.5161,0.007 -26,1 0,1.6667 0,3.3333 0,5 0,7 0,14 0,21 7,0 14,0 21,0 1.667,0 3.333,0 5,0 0,1.6667 0,3.3333 0,5 -23.3333,0 -46.6667,0 -70,0 0,19.6667 0,39.3333 0,59 -1.6667,0 -3.3333,0 -5,0 0,-5.333 0,-10.667 0,-16 -1.6667,0 -3.3333,0 -5,0 -1.6667,0 -3.3333,0 -5,0 -3.6667,0 -7.3333,0 -11,0 0,1.6667 0,3.3333 0,5 0,2 0,4 0,6 5.3333,0 10.6667,0 16,0 0,1.667 0,3.333 0,5 -5.3333,0 -10.6667,0 -16,0 0,1.667 0,3.333 0,5 0,0.333 0,0.667 0,1 0,1.667 0,3.333 0,5 0,1.667 0,3.333 0,5 7,0 14,0 21,0 0,1.667 0,3.333 0,5 -7,0 -14,0 -21,0 0,1.667 0,3.333 0,5 7.1866,-0.325 14.1866,0.009 21,1 -1.6667,0 -3.3333,0 -5,0 -5.3333,0 -10.6667,0 -16,0 0,1.667 0,3.333 0,5 0,1.667 0,3.333 0,5 7,0 14,0 21,0 0,1.667 0,3.333 0,5 -7.1866,-0.325 -14.1866,0.009 -21,1 0,1.667 0,3.333 0,5 0,1.667 0,3.333 0,5 0,2 0,4 0,6 8.6667,0 17.3333,0 26,0 0,-3.667 0,-7.333 0,-11 0.3333,0 0.6667,0 1,0 0,5.333 0,10.667 0,16 -9,0 -18,0 -27,0 0,1.667 0,3.333 0,5 9,0 18,0 27,0 1.6667,0 3.3333,0 5,0 5.3333,0 10.6667,0 16,0 1.6667,0 3.3333,0 5,0 16,0 32,0 48,0 0,1.667 0,3.333 0,5 -3.542,-0.313 -6.875,0.021 -10,1 0,1.667 0,3.333 0,5 -3.667,0 -7.3333,0 -11,0 0,-1.667 0,-3.333 0,-5 -30,0 -60,0 -90,0 0,1.667 0,3.333 0,5 -0.95115,-1.419 -1.28448,-3.085 -1,-5 -1.66667,0 -3.33333,0 -5,0 0,-0.333 0,-0.667 0,-1 1.66667,0 3.33333,0 5,0 0,-1.667 0,-3.333 0,-5 0.33333,0 0.66667,0 1,0 1.66667,0 3.33333,0 5,0 0,-30 0,-60 0,-90 9,0 18,0 27,0 0.2947,-2.2354 -0.0386,-4.2354 -1,-6 0,-1.6667 0,-3.3333 0,-5 0.997,-19.1595 1.3303,-38.4928 1,-58 1.3333,0 2.6667,0 4,0 -0.3264,8.8494 0.007,17.5161 1,26 12.3333,0 24.6667,0 37,0 1.6667,0 3.3333,0 5,0 0,-9 0,-18 0,-27 -1.6667,0 -3.3333,0 -5,0 -12.3333,0 -24.6667,0 -37,0 0,-1.6667 0,-3.3333 0,-5 z"
       id="path1" />
    <path
       fill="#bcbcbc"
       d="m 42.5,15.5 c 0,1.6667 0,3.3333 0,5 12.3333,0 24.6667,0 37,0 0,2 0,4 0,6 -12.3333,0 -24.6667,0 -37,0 0,7 0,14 0,21 -0.993,-8.4839 -1.3264,-17.1506 -1,-26 -1.3333,0 -2.6667,0 -4,0 0.3303,19.5072 -0.003,38.8405 -1,58 0,-19.6667 0,-39.3333 0,-59 1.6667,0 3.3333,0 5,0 -0.2845,-1.9147 0.0489,-3.5813 1,-5 z"
       id="path2" />
    <path
       fill="#020202"
       d="m 79.5,20.5 c 1.6667,0 3.3333,0 5,0 0,9 0,18 0,27 -1.6667,0 -3.3333,0 -5,0 0,-7 0,-14 0,-21 0,-2 0,-4 0,-6 z"
       id="path3" />
    <path
       fill="#c1c1c1"
       d="m 85.5,21.5 c 8.6667,0 17.333,0 26,0 0,8.6667 0,17.3333 0,26 -1.667,0 -3.333,0 -5,0 -7,0 -14,0 -21,0 0,-7 0,-14 0,-21 0,-1.6667 0,-3.3333 0,-5 z"
       id="path4" />
    <path
       fill="#000000"
       d="m 111.5,21.5 c 1.667,0 3.333,0 5,0 0,19.3333 0,38.6667 0,58 0,1.6667 0,3.3333 0,5 0,2 0,4 0,6 0,5.3333 0,10.667 0,16 -1.667,0 -3.333,0 -5,0 0,-17.6667 0,-35.3333 0,-53 0,-0.3333 0,-0.6667 0,-1 0,-1.6667 0,-3.3333 0,-5 0,-8.6667 0,-17.3333 0,-26 z"
       id="path5" />
    <path
       fill="#a5a5a5"
       d="m 85.5,21.5 c 8.4839,-0.993 17.151,-1.3264 26,-1 2,0 4,0 6,0 0,19.6667 0,39.3333 0,59 -0.333,0 -0.667,0 -1,0 0,-19.3333 0,-38.6667 0,-58 -1.667,0 -3.333,0 -5,0 -8.667,0 -17.3333,0 -26,0 z"
       id="path6" />
    <path
       fill="#ededed"
       d="m 85.5,26.5 c 7,0 14,0 21,0 0,7 0,14 0,21 0,-7 0,-14 0,-21 -7,0 -14,0 -21,0 z"
       id="path7" />
    <path
       fill="#f5f5f5"
       d="m 79.5,26.5 c 0,7 0,14 0,21 -12.3333,0 -24.6667,0 -37,0 0,-7 0,-14 0,-21 12.3333,0 24.6667,0 37,0 z"
       id="path8" />
    <path
       fill="#a7a7a7"
       d="m 111.5,52.5 c 0,0.3333 0,0.6667 0,1 -23,0 -46,0 -69,0 0,1.6667 0,3.3333 0,5 0,10.3333 0,20.6667 0,31 0,5.6667 0,11.333 0,17 1.6667,0 3.3333,0 5,0 0,1.667 0,3.333 0,5 0,1.667 0,3.333 0,5 -1.6667,0 -3.3333,0 -5,0 0.2845,-1.915 -0.0489,-3.581 -1,-5 0,-19.6667 0,-39.3333 0,-59 23.3333,0 46.6667,0 70,0 z"
       id="path9" />
    <path
       fill="#f7f7f7"
       d="m 42.5,58.5 c 17.6667,0 35.3333,0 53,0 0,1.6667 0,3.3333 0,5 -1.6667,0 -3.3333,0 -5,0 0,2 0,4 0,6 1.6667,0 3.3333,0 5,0 0,1.3333 0,2.6667 0,4 -1.6667,0 -3.3333,0 -5,0 0,2 0,4 0,6 1.6667,0 3.3333,0 5,0 0,1.6667 0,3.3333 0,5 -4.438,-1.0749 -6.438,0.5917 -6,5 -4.4083,-0.438 -6.0749,1.562 -5,6 -1.6667,0 -3.3333,0 -5,0 0,1.6667 0,3.3333 0,5 -1.6667,0 -3.3333,0 -5,0 0,-1.6667 0,-3.3333 0,-5 -2,0 -4,0 -6,0 0,1.6667 0,3.3333 0,5 -1.6667,0 -3.3333,0 -5,0 0,-1.6667 0,-3.3333 0,-5 -1.6667,0 -3.3333,0 -5,0 1.0749,-4.438 -0.5917,-6.438 -5,-6 0.438,-4.4083 -1.562,-6.0749 -6,-5 0,1.6667 0,3.3333 0,5 -1.6667,0 -3.3333,0 -5,0 0,-10.3333 0,-20.6667 0,-31 z"
       id="path10" />
    <path
       fill="#5e5f5e"
       d="m 5.5,79.5 c 10.3333,0 20.6667,0 31,0 0,1.6667 0,3.3333 0,5 -10.3333,0 -20.6667,0 -31,0 0,-1.6667 0,-3.3333 0,-5 z"
       id="path11" />
    <path
       fill="#5e5e5e"
       d="m 116.5,79.5 c 0.333,0 0.667,0 1,0 44,0 88,0 132,0 0,1.6667 0,3.3333 0,5 -3.333,0 -6.667,0 -10,0 -41,0 -82,0 -123,0 0,-1.6667 0,-3.3333 0,-5 z"
       id="path12" />
    <path
       fill="#5e5f5e"
       d="m -0.5,85.5 c 1.66667,0 3.33333,0 5,0 0,31.667 0,63.333 0,95 0,1.667 0,3.333 0,5 -1.66667,0 -3.33333,0 -5,0 0,-33.333 0,-66.667 0,-100 z"
       id="path13" />
    <path
       fill="#c2c2c2"
       d="m 5.5,79.5 c 0,1.6667 0,3.3333 0,5 10.3333,0 20.6667,0 31,0 0.9614,1.7646 1.2947,3.7646 1,6 -9,0 -18,0 -27,0 8.4839,-0.993 17.1506,-1.3264 26,-1 0,-1.3333 0,-2.6667 0,-4 -10.3333,0 -20.6667,0 -31,0 0,31.667 0,63.333 0,95 -0.33333,0 -0.66667,0 -1,0 0,-31.667 0,-63.333 0,-95 -1.66667,0 -3.33333,0 -5,0 0,-0.3333 0,-0.6667 0,-1 1.66667,0 3.33333,0 5,0 -0.28448,-1.9147 0.04885,-3.5813 1,-5 z"
       id="path14" />
    <path
       fill="#f2f2f2"
       d="m 10.5,90.5 c 0,30 0,60 0,90 -1.66667,0 -3.33333,0 -5,0 0,-31.667 0,-63.333 0,-95 10.3333,0 20.6667,0 31,0 0,1.3333 0,2.6667 0,4 -8.8494,-0.3264 -17.5161,0.007 -26,1 z"
       id="path15" />
    <path
       fill="#eeeeee"
       d="m 95.5,58.5 c 3.3333,0 6.667,0 10,0 0,14 0,28 0,42 -1.667,0 -3.333,0 -5,0 0,2 0,4 0,6 -1.6667,0 -3.3333,0 -5,0 0,1.667 0,3.333 0,5 -16,0 -32,0 -48,0 0,-1.667 0,-3.333 0,-5 -1.6667,0 -3.3333,0 -5,0 0,-5.667 0,-11.3333 0,-17 1.6667,0 3.3333,0 5,0 0,-1.6667 0,-3.3333 0,-5 4.438,-1.0749 6.438,0.5917 6,5 4.4083,-0.438 6.0749,1.562 5,6 1.6667,0 3.3333,0 5,0 0,1.6667 0,3.3333 0,5 1.6667,0 3.3333,0 5,0 0,-1.6667 0,-3.3333 0,-5 2,0 4,0 6,0 0,1.6667 0,3.3333 0,5 1.6667,0 3.3333,0 5,0 0,-1.6667 0,-3.3333 0,-5 1.6667,0 3.3333,0 5,0 -1.0749,-4.438 0.5917,-6.438 5,-6 -0.438,-4.4083 1.562,-6.0749 6,-5 0,-1.6667 0,-3.3333 0,-5 -1.6667,0 -3.3333,0 -5,0 0,-2 0,-4 0,-6 1.6667,0 3.3333,0 5,0 0,-1.3333 0,-2.6667 0,-4 -1.6667,0 -3.3333,0 -5,0 0,-2 0,-4 0,-6 1.6667,0 3.3333,0 5,0 0,-1.6667 0,-3.3333 0,-5 z"
       id="path16" />
    <path
       fill="#f7f8f7"
       d="m 239.5,85.5 c 0,1.3333 0,2.6667 0,4 -40.667,0 -81.333,0 -122,0 0,-1.3333 0,-2.6667 0,-4 40.667,0 81.333,0 122,0 z"
       id="path17" />
    <path
       fill="#848484"
       d="m 249.5,79.5 c 0.951,1.4187 1.284,3.0853 1,5 1.667,0 3.333,0 5,0 0,0.3333 0,0.6667 0,1 -1.667,0 -3.333,0 -5,0 -0.998,33.162 -1.332,66.496 -1,100 -14.177,-0.329 -28.177,0.004 -42,1 -5.333,0 -10.667,0 -16,0 -3.667,0 -7.333,0 -11,0 0,-1.667 0,-3.333 0,-5 0.934,1.068 1.268,2.401 1,4 3.333,0 6.667,0 10,0 0,-1.333 0,-2.667 0,-4 17.841,0.33 35.508,-0.003 53,-1 0,-1.667 0,-3.333 0,-5 0,-5.333 0,-10.667 0,-16 0,-21.333 0,-42.667 0,-64 -1.667,0 -3.333,0 -5,0 -1.667,0 -3.333,0 -5,0 -3.667,0 -7.333,0 -11,0 -1.667,0 -3.333,0 -5,0 0,5.333 0,10.667 0,16 -5.333,0 -10.667,0 -16,0 0,-1.667 0,-3.333 0,-5 5,0 10,0 15,0 0,-3.667 0,-7.3333 0,-11 -1.667,0 -3.333,0 -5,0 -3.333,0 -6.667,0 -10,0 -2,0 -4,0 -6,0 -1.667,0 -3.333,0 -5,0 -3.333,0 -6.667,0 -10,0 -0.333,0 -0.667,0 -1,0 -1.667,0 -3.333,0 -5,0 -3.333,0 -6.667,0 -10,0 0,3.6667 0,7.333 0,11 3.333,0 6.667,0 10,0 0,1.667 0,3.333 0,5 -3.667,0 -7.333,0 -11,0 0,-5.333 0,-10.667 0,-16 -1.667,0 -3.333,0 -5,0 -9,0 -18,0 -27,0 -0.331,24.839 0.002,49.506 1,74 1.667,0 3.333,0 5,0 1.667,0 3.333,0 5,0 0,0.333 0,0.667 0,1 -3.667,0 -7.333,0 -11,0 0,1.667 0,3.333 0,5 2,0 4,0 6,0 0,5.333 0,10.667 0,16 0,1.667 0,3.333 0,5 -0.951,-1.419 -1.284,-3.085 -1,-5 -1.667,0 -3.333,0 -5,0 0,-1.667 0,-3.333 0,-5 -1.667,0 -3.333,0 -5,0 0,-2 0,-4 0,-6 -3.667,0 -7.333,0 -11,0 0,-1.667 0,-3.333 0,-5 -16,0 -32,0 -48,0 -0.3214,-5.526 0.0119,-10.86 1,-16 0,1.667 0,3.333 0,5 0,2 0,4 0,6 19.3333,0 38.667,0 58,0 0,-2 0,-4 0,-6 0,-1.667 0,-3.333 0,-5 0,-1.667 0,-3.333 0,-5 0,-5.333 0,-10.667 0,-16 0,-9 0,-18 0,-27 -5.333,0 -10.667,0 -16,0 0,-1.667 0,-3.333 0,-5 1.667,0 3.333,0 5,0 0,-5.333 0,-10.6667 0,-16 41.17,0.332 82.17,-0.0014 123,-1 0,-1.3333 0,-2.6667 0,-4 0,-0.3333 0,-0.6667 0,-1 3.333,0 6.667,0 10,0 0,-1.6667 0,-3.3333 0,-5 z"
       id="path18" />
    <path
       fill="#585858"
       d="m 250.5,85.5 c 0,33.333 0,66.667 0,100 1.667,0 3.333,0 5,0 0,0.333 0,0.667 0,1 -1.667,0 -3.333,0 -5,0 0.284,1.915 -0.049,3.581 -1,5 0,-1.667 0,-3.333 0,-5 -14,0 -28,0 -42,0 13.823,-0.996 27.823,-1.329 42,-1 -0.332,-33.504 0.002,-66.838 1,-100 z"
       id="path19" />
    <path
       fill="#000000"
       d="m 250.5,85.5 c 1.667,0 3.333,0 5,0 0,33.333 0,66.667 0,100 -1.667,0 -3.333,0 -5,0 0,-33.333 0,-66.667 0,-100 z"
       id="path20" />
    <path
       fill="#cccccc"
       d="m 116.5,84.5 c 41,0 82,0 123,0 0,0.3333 0,0.6667 0,1 -40.667,0 -81.333,0 -122,0 0,1.3333 0,2.6667 0,4 40.667,0 81.333,0 122,0 -40.83,0.9986 -81.83,1.332 -123,1 0,-2 0,-4 0,-6 z"
       id="path21" />
    <path
       fill="#f6f6f6"
       d="m 26.5,95.5 c 0,1.6667 0,3.3333 0,5 -3.6667,0 -7.3333,0 -11,0 0,-1.6667 0,-3.3333 0,-5 3.6667,0 7.3333,0 11,0 z"
       id="path22" />
    <path
       fill="#07370a"
       d="m 31.5,95.5 c 1.6667,0 3.3333,0 5,0 0,5.333 0,10.667 0,16 1.6667,0 3.3333,0 5,0 0.9511,1.419 1.2845,3.085 1,5 0,3.667 0,7.333 0,11 0,1.667 0,3.333 0,5 5.3333,0 10.6667,0 16,0 0,-1.667 0,-3.333 0,-5 1.6667,0 3.3333,0 5,0 0,1.667 0,3.333 0,5 5.3333,0 10.6667,0 16,0 0,-1.667 0,-3.333 0,-5 1.6667,0 3.3333,0 5,0 0,1.667 0,3.333 0,5 5.3333,0 10.6667,0 16,0 0,-1.667 0,-3.333 0,-5 0,-1.667 0,-3.333 0,-5 1.667,0 3.333,0 5,0 0.333,0 0.667,0 1,0 0,1.667 0,3.333 0,5 0,1.667 0,3.333 0,5 5.333,0 10.667,0 16,0 0,-5.333 0,-10.667 0,-16 -3.667,0 -7.333,0 -11,0 0,-1.667 0,-3.333 0,-5 5.333,0 10.667,0 16,0 0,9 0,18 0,27 -1.667,0 -3.333,0 -5,0 -5.333,-1.333 -10.667,-1.333 -16,0 -0.333,0 -0.667,0 -1,0 -1.333,0 -2.667,0 -4,0 -0.333,0 -0.667,0 -1,0 -1.6667,0 -3.3333,0 -5,0 -3.3333,0 -6.6667,0 -10,0 -0.3333,0 -0.6667,0 -1,0 -1.6667,0 -3.3333,0 -5,0 -1.6667,0 -3.3333,0 -5,0 -3.6667,0 -7.3333,0 -11,0 -1.6667,0 -3.3333,0 -5,0 -5.3333,-1.333 -10.6667,-1.333 -16,0 -0.3333,0 -0.6667,0 -1,0 -1.3333,0 -2.6667,0 -4,0 -0.3333,0 -0.6667,0 -1,0 -6.8134,-0.991 -13.8134,-1.325 -21,-1 0,-1.667 0,-3.333 0,-5 7,0 14,0 21,0 0,-1.667 0,-3.333 0,-5 0,-3.667 0,-7.333 0,-11 -7,0 -14,0 -21,0 0,-1.667 0,-3.333 0,-5 5.3333,0 10.6667,0 16,0 0,-1.667 0,-3.333 0,-5 0,-3.667 0,-7.3333 0,-11 z"
       id="path23" />
    <path
       fill="#c3c3c3"
       d="m 159.5,95.5 c 0,1.6667 0,3.3333 0,5 -3.333,0 -6.667,0 -10,0 0.295,2.235 -0.039,4.235 -1,6 0,-2 0,-4 0,-6 -5,0 -10,0 -15,0 0,23 0,46 0,69 -0.998,-24.494 -1.331,-49.161 -1,-74 9,0 18,0 27,0 z"
       id="path24" />
    <path
       fill="#000000"
       d="m 159.5,95.5 c 1.667,0 3.333,0 5,0 0,5.333 0,10.667 0,16 0,1.667 0,3.333 0,5 0,5.333 0,10.667 0,16 0,2 0,4 0,6 0,3.333 0,6.667 0,10 0,2 0,4 0,6 5.333,0 10.667,0 16,0 0,1.667 0,3.333 0,5 -5,0 -10,0 -15,0 -0.982,3.462 -1.315,7.129 -1,11 -1.667,0 -3.333,0 -5,0 0,-23 0,-46 0,-69 0,-0.333 0,-0.667 0,-1 0,-1.6667 0,-3.3333 0,-5 z"
       id="path25" />
    <path
       fill="#053708"
       d="m 175.5,95.5 c 1.667,0 3.333,0 5,0 0,3.6667 0,7.333 0,11 0,1.667 0,3.333 0,5 5.333,0 10.667,0 16,0 0,-1.667 0,-3.333 0,-5 0,-3.667 0,-7.3333 0,-11 2,0 4,0 6,0 0,1.6667 0,3.3333 0,5 0,2 0,4 0,6 0,1.667 0,3.333 0,5 5.333,0 10.667,0 16,0 0,-5.333 0,-10.667 0,-16 1.667,0 3.333,0 5,0 0,1.6667 0,3.3333 0,5 0,2 0,4 0,6 0,1.667 0,3.333 0,5 5.333,0 10.667,0 16,0 0,-1.667 0,-3.333 0,-5 0,-3.667 0,-7.3333 0,-11 1.667,0 3.333,0 5,0 0,21.333 0,42.667 0,64 -1.667,0 -3.333,0 -5,0 0,-1.667 0,-3.333 0,-5 0,-2 0,-4 0,-6 0,-3.333 0,-6.667 0,-10 -1.667,0 -3.333,0 -5,0 -9,0 -18,0 -27,0 0,1.667 0,3.333 0,5 -1.667,0 -3.333,0 -5,0 0,-2 0,-4 0,-6 -5.526,-0.321 -10.86,0.012 -16,1 -0.951,1.419 -1.284,3.085 -1,5 -1.333,0 -2.667,0 -4,0 -0.333,0 -0.667,0 -1,0 0,-1.667 0,-3.333 0,-5 -1.667,0 -3.333,0 -5,0 -3.333,0 -6.667,0 -10,0 -0.333,0 -0.667,0 -1,0 0,-2 0,-4 0,-6 2,0 4,0 6,0 0,-5.333 0,-10.667 0,-16 -2,0 -4,0 -6,0 0,-1.667 0,-3.333 0,-5 3.667,0 7.333,0 11,0 0,-1.667 0,-3.333 0,-5 0,-3.667 0,-7.3333 0,-11 z"
       id="path26" />
    <path
       fill="#f7f8f7"
       d="m 202.5,95.5 c 3.333,0 6.667,0 10,0 0,1.6667 0,3.3333 0,5 -3.333,0 -6.667,0 -10,0 0,-1.6667 0,-3.3333 0,-5 z"
       id="path27" />
    <path
       fill="#f6f6f6"
       d="m 223.5,95.5 c 3.667,0 7.333,0 11,0 0,1.6667 0,3.3333 0,5 -3.667,0 -7.333,0 -11,0 0,-1.6667 0,-3.3333 0,-5 z"
       id="path28" />
    <path
       fill="#c3c3c3"
       d="m 26.5,95.5 c 1.6667,0 3.3333,0 5,0 0,3.6667 0,7.333 0,11 -5.3333,0 -10.6667,0 -16,0 0,-2 0,-4 0,-6 3.6667,0 7.3333,0 11,0 0,-1.6667 0,-3.3333 0,-5 z"
       id="path29" />
    <path
       fill="#c6c6c6"
       d="m 117.5,95.5 c 3.333,0 6.667,0 10,0 0,3.6667 0,7.333 0,11 -3.333,0 -6.667,0 -10,0 0,-3.667 0,-7.3333 0,-11 z"
       id="path30" />
    <path
       fill="#f5f5f5"
       d="m 148.5,106.5 c -1.667,0 -3.333,0 -5,0 -1.667,0 -3.333,0 -5,0 0,21 0,42 0,63 -1.667,0 -3.333,0 -5,0 0,-23 0,-46 0,-69 5,0 10,0 15,0 0,2 0,4 0,6 z"
       id="path31" />
    <path
       fill="#959595"
       d="m 159.5,100.5 c 0,0.333 0,0.667 0,1 -1.667,0 -3.333,0 -5,0 0,22.667 0,45.333 0,68 -2,0 -4,0 -6,0 0,-21 0,-42 0,-63 0.961,-1.765 1.295,-3.765 1,-6 3.333,0 6.667,0 10,0 z"
       id="path32" />
    <path
       fill="#767676"
       d="m 159.5,101.5 c 0,23 0,46 0,69 -5.333,0 -10.667,0 -16,0 0,-0.333 0,-0.667 0,-1 1.667,0 3.333,0 5,0 2,0 4,0 6,0 0,-22.667 0,-45.333 0,-68 1.667,0 3.333,0 5,0 z"
       id="path33" />
    <path
       fill="#c6c6c6"
       d="m 175.5,95.5 c 0,3.6667 0,7.333 0,11 -3.333,0 -6.667,0 -10,0 0,-3.667 0,-7.3333 0,-11 3.333,0 6.667,0 10,0 z"
       id="path34" />
    <path
       fill="#c0c0c0"
       d="m 180.5,95.5 c 0.333,0 0.667,0 1,0 0,1.6667 0,3.3333 0,5 3.333,0 6.667,0 10,0 0,-1.6667 0,-3.3333 0,-5 1.667,0 3.333,0 5,0 0,3.6667 0,7.333 0,11 -5.333,0 -10.667,0 -16,0 0,-3.667 0,-7.3333 0,-11 z"
       id="path35" />
    <path
       fill="#f7f8f7"
       d="m 181.5,95.5 c 3.333,0 6.667,0 10,0 0,1.6667 0,3.3333 0,5 -3.333,0 -6.667,0 -10,0 0,-1.6667 0,-3.3333 0,-5 z"
       id="path36" />
    <path
       fill="#c3c3c3"
       d="m 212.5,95.5 c 1.667,0 3.333,0 5,0 0,3.6667 0,7.333 0,11 -5,0 -10,0 -15,0 0,-2 0,-4 0,-6 3.333,0 6.667,0 10,0 0,-1.6667 0,-3.3333 0,-5 z"
       id="path37" />
    <path
       fill="#c3c3c3"
       d="m 234.5,95.5 c 1.667,0 3.333,0 5,0 0,3.6667 0,7.333 0,11 -5.333,0 -10.667,0 -16,0 0,-2 0,-4 0,-6 3.667,0 7.333,0 11,0 0,-1.6667 0,-3.3333 0,-5 z"
       id="path38" />
    <path
       fill="#000000"
       d="m 106.5,106.5 c 1.667,0 3.333,0 5,0 0,1.667 0,3.333 0,5 0,1.667 0,3.333 0,5 -1.667,0 -3.333,0 -5,0 0,-3.333 0,-6.667 0,-10 z"
       id="path39" />
    <path
       fill="#b1b2b1"
       d="m 143.5,106.5 c 1.667,0 3.333,0 5,0 0,21 0,42 0,63 -1.667,0 -3.333,0 -5,0 0,-21 0,-42 0,-63 z"
       id="path40" />
    <path
       fill="#838483"
       d="m 180.5,106.5 c 5.333,0 10.667,0 16,0 0,1.667 0,3.333 0,5 -5.333,0 -10.667,0 -16,0 0,-1.667 0,-3.333 0,-5 z"
       id="path41" />
    <path
       fill="#858685"
       d="m 223.5,106.5 c 5.333,0 10.667,0 16,0 0,1.667 0,3.333 0,5 -5.333,0 -10.667,0 -16,0 0,-1.667 0,-3.333 0,-5 z"
       id="path42" />
    <path
       fill="#c6c6c6"
       d="m 111.5,53.5 c 0,17.6667 0,35.3333 0,53 -1.667,0 -3.333,0 -5,0 -0.951,1.419 -1.284,3.085 -1,5 -1.667,0 -3.333,0 -5,0 0,1.667 0,3.333 0,5 -1.9147,-0.284 -3.5813,0.049 -5,1 0,1.333 0,2.667 0,4 -14,0 -28,0 -42,0 0.2845,-1.915 -0.0489,-3.581 -1,-5 -1.6667,0 -3.3333,0 -5,0 0,-1.667 0,-3.333 0,-5 16,0 32,0 48,0 0,-1.667 0,-3.333 0,-5 1.6667,0 3.3333,0 5,0 0,-2 0,-4 0,-6 1.667,0 3.333,0 5,0 0,-14 0,-28 0,-42 -3.333,0 -6.6667,0 -10,0 -17.6667,0 -35.3333,0 -53,0 0,-1.6667 0,-3.3333 0,-5 23,0 46,0 69,0 z"
       id="path43" />
    <path
       fill="#898989"
       d="m 105.5,111.5 c 0,1.667 0,3.333 0,5 -1.667,0 -3.333,0 -5,0 0,-1.667 0,-3.333 0,-5 1.667,0 3.333,0 5,0 z"
       id="path44" />
    <path
       fill="#535353"
       d="m 106.5,106.5 c 0,3.333 0,6.667 0,10 0,0.333 0,0.667 0,1 0,1.667 0,3.333 0,5 -0.333,0 -0.667,0 -1,0 0,-1.667 0,-3.333 0,-5 -3.333,0 -6.6667,0 -10,0 1.4187,-0.951 3.0853,-1.284 5,-1 1.667,0 3.333,0 5,0 0,-1.667 0,-3.333 0,-5 -0.284,-1.915 0.049,-3.581 1,-5 z"
       id="path45" />
    <path
       fill="#98aa98"
       d="m 212.5,117.5 c -1.667,0 -3.333,0 -5,0 -3.333,0 -6.667,0 -10,0 0,1.667 0,3.333 0,5 0,1.667 0,3.333 0,5 -0.333,0 -0.667,0 -1,0 0,-3.667 0,-7.333 0,-11 5.526,-0.321 10.86,0.012 16,1 z"
       id="path46" />
    <path
       fill="#f4f4f4"
       d="m 15.5,117.5 c 5.3333,0 10.6667,0 16,0 0,1.667 0,3.333 0,5 -5.3333,0 -10.6667,0 -16,0 0,-1.667 0,-3.333 0,-5 z"
       id="path47" />
    <path
       fill="#171717"
       d="m 47.5,116.5 c 1.6667,0 3.3333,0 5,0 0,2 0,4 0,6 -1.6667,0 -3.3333,0 -5,0 0,-2 0,-4 0,-6 z"
       id="path48" />
    <path
       fill="#050805"
       d="m 95.5,117.5 c 3.3333,0 6.667,0 10,0 0,1.667 0,3.333 0,5 -1.667,0 -3.333,0 -5,0 -1.6667,0 -3.3333,0 -5,0 0,-0.333 0,-0.667 0,-1 0,-1.333 0,-2.667 0,-4 z"
       id="path49" />
    <path
       fill="#f5f5f5"
       d="m 106.5,117.5 c 3.333,0 6.667,0 10,0 0,1.667 0,3.333 0,5 -3.333,0 -6.667,0 -10,0 0,-1.667 0,-3.333 0,-5 z"
       id="path50" />
    <path
       fill="#f4f4f4"
       d="m 175.5,117.5 c 3.667,0 7.333,0 11,0 0,1.667 0,3.333 0,5 -3.667,0 -7.333,0 -11,0 0,-1.667 0,-3.333 0,-5 z"
       id="path51" />
    <path
       fill="#f5f5f5"
       d="m 207.5,117.5 c 0,1.667 0,3.333 0,5 -3.333,0 -6.667,0 -10,0 0,-1.667 0,-3.333 0,-5 3.333,0 6.667,0 10,0 z"
       id="path52" />
    <path
       fill="#f4f4f4"
       d="m 218.5,117.5 c 5.333,0 10.667,0 16,0 0,1.667 0,3.333 0,5 -5.333,0 -10.667,0 -16,0 0,-1.667 0,-3.333 0,-5 z"
       id="path53" />
    <path
       fill="#c1c2c1"
       d="m 15.5,117.5 c 0,-0.333 0,-0.667 0,-1 7,0 14,0 21,0 0,3.667 0,7.333 0,11 -7,0 -14,0 -21,0 0,-1.667 0,-3.333 0,-5 5.3333,0 10.6667,0 16,0 0,-1.667 0,-3.333 0,-5 -5.3333,0 -10.6667,0 -16,0 z"
       id="path54" />
    <path
       fill="#d2d2d2"
       d="m 42.5,116.5 c 1.6667,0 3.3333,0 5,0 0,2 0,4 0,6 1.6667,0 3.3333,0 5,0 0,1.667 0,3.333 0,5 -3.3333,0 -6.6667,0 -10,0 0,-3.667 0,-7.333 0,-11 z"
       id="path55" />
    <path
       fill="#000000"
       d="m 95.5,122.5 c 0,1.667 0,3.333 0,5 -3.6667,0 -7.3333,0 -11,0 -1.6667,0 -3.3333,0 -5,0 -5.3333,0 -10.6667,0 -16,0 -1.6667,0 -3.3333,0 -5,0 -1.6667,0 -3.3333,0 -5,0 0,-1.667 0,-3.333 0,-5 14,0 28,0 42,0 z"
       id="path56" />
    <path
       fill="#bfc0bf"
       d="m 95.5,122.5 c 1.6667,0 3.3333,0 5,0 0,1.667 0,3.333 0,5 -1.6667,0 -3.3333,0 -5,0 0,-1.667 0,-3.333 0,-5 z"
       id="path57" />
    <path
       fill="#c5c5c5"
       d="m 116.5,117.5 c 1.667,0 3.333,0 5,0 0,3.333 0,6.667 0,10 -5,0 -10,0 -15,0 0,-1.667 0,-3.333 0,-5 3.333,0 6.667,0 10,0 0,-1.667 0,-3.333 0,-5 z"
       id="path58" />
    <path
       fill="#c1c3c1"
       d="m 175.5,117.5 c 5.14,-0.988 10.474,-1.321 16,-1 0,3.667 0,7.333 0,11 -5.333,0 -10.667,0 -16,0 0,-1.667 0,-3.333 0,-5 3.667,0 7.333,0 11,0 0,-1.667 0,-3.333 0,-5 -3.667,0 -7.333,0 -11,0 z"
       id="path59" />
    <path
       fill="#c4c4c4"
       d="m 207.5,117.5 c 1.667,0 3.333,0 5,0 0,3.333 0,6.667 0,10 -5,0 -10,0 -15,0 0,-1.667 0,-3.333 0,-5 3.333,0 6.667,0 10,0 0,-1.667 0,-3.333 0,-5 z"
       id="path60" />
    <path
       fill="#c1c2c1"
       d="m 218.5,117.5 c 6.813,-0.991 13.813,-1.325 21,-1 0,3.667 0,7.333 0,11 -7,0 -14,0 -21,0 0,-1.667 0,-3.333 0,-5 5.333,0 10.667,0 16,0 0,-1.667 0,-3.333 0,-5 -5.333,0 -10.667,0 -16,0 z"
       id="path61" />
    <path
       fill="#808180"
       d="m 52.5,116.5 c 0.9511,1.419 1.2845,3.085 1,5 14,0 28,0 42,0 0,0.333 0,0.667 0,1 -14,0 -28,0 -42,0 0,1.667 0,3.333 0,5 1.6667,0 3.3333,0 5,0 0,1.667 0,3.333 0,5 -5.3333,0 -10.6667,0 -16,0 0,-1.667 0,-3.333 0,-5 3.3333,0 6.6667,0 10,0 0,-1.667 0,-3.333 0,-5 0,-2 0,-4 0,-6 z"
       id="path62" />
    <path
       fill="#858685"
       d="m 63.5,127.5 c 5.3333,0 10.6667,0 16,0 0,1.667 0,3.333 0,5 -5.3333,0 -10.6667,0 -16,0 0,-1.667 0,-3.333 0,-5 z"
       id="path63" />
    <path
       fill="#838483"
       d="m 84.5,127.5 c 3.6667,0 7.3333,0 11,0 1.6667,0 3.3333,0 5,0 0,1.667 0,3.333 0,5 -5.3333,0 -10.6667,0 -16,0 0,-1.667 0,-3.333 0,-5 z"
       id="path64" />
    <path
       fill="#858985"
       d="m 106.5,117.5 c 0,-0.333 0,-0.667 0,-1 1.667,0 3.333,0 5,0 3.667,0 7.333,0 11,0 0,5.333 0,10.667 0,16 -5.333,0 -10.667,0 -16,0 0,-1.667 0,-3.333 0,-5 5,0 10,0 15,0 0,-3.333 0,-6.667 0,-10 -1.667,0 -3.333,0 -5,0 -3.333,0 -6.667,0 -10,0 z"
       id="path65" />
    <path
       fill="#7f847f"
       d="m 164.5,116.5 c 2,0 4,0 6,0 0,5.333 0,10.667 0,16 -2,0 -4,0 -6,0 0,-5.333 0,-10.667 0,-16 z"
       id="path66" />
    <path
       fill="#c3c3c3"
       d="m 165.5,117.5 c 1.333,0 2.667,0 4,0 0,3.333 0,6.667 0,10 -1.333,0 -2.667,0 -4,0 0,-3.333 0,-6.667 0,-10 z"
       id="path67" />
    <path
       fill="#858685"
       d="m 175.5,127.5 c 5.333,0 10.667,0 16,0 0,1.667 0,3.333 0,5 -5.333,0 -10.667,0 -16,0 0,-1.667 0,-3.333 0,-5 z"
       id="path68" />
    <path
       fill="#838483"
       d="m 196.5,127.5 c 0.333,0 0.667,0 1,0 5,0 10,0 15,0 0,1.667 0,3.333 0,5 -5.333,0 -10.667,0 -16,0 0,-1.667 0,-3.333 0,-5 z"
       id="path69" />
    <path
       fill="#858685"
       d="m 218.5,127.5 c 7,0 14,0 21,0 0,1.667 0,3.333 0,5 -7,0 -14,0 -21,0 0,-1.667 0,-3.333 0,-5 z"
       id="path70" />
    <path
       fill="#f7f8f7"
       d="m 31.5,138.5 c 0,1.667 0,3.333 0,5 -5.3333,0 -10.6667,0 -16,0 0,-1.667 0,-3.333 0,-5 5.3333,0 10.6667,0 16,0 z"
       id="path71" />
    <path
       fill="#000100"
       d="m 37.5,138.5 c 1.3333,0 2.6667,0 4,0 0,5.333 0,10.667 0,16 -1.3333,0 -2.6667,0 -4,0 0,-5.333 0,-10.667 0,-16 z"
       id="path72" />
    <path
       fill="#000100"
       d="m 58.5,138.5 c 1.6667,0 3.3333,0 5,0 0,1.667 0,3.333 0,5 0,1.667 0,3.333 0,5 0,2 0,4 0,6 -1.6667,0 -3.3333,0 -5,0 0,-5.333 0,-10.667 0,-16 z"
       id="path73" />
    <path
       fill="#f6f6f6"
       d="m 63.5,138.5 c 3.6667,0 7.3333,0 11,0 0,1.667 0,3.333 0,5 -3.6667,0 -7.3333,0 -11,0 0,-1.667 0,-3.333 0,-5 z"
       id="path74" />
    <path
       fill="#000100"
       d="m 79.5,138.5 c 1.6667,0 3.3333,0 5,0 0,3.333 0,6.667 0,10 0,2 0,4 0,6 -1.6667,0 -3.3333,0 -5,0 0,-2 0,-4 0,-6 0,-3.333 0,-6.667 0,-10 z"
       id="path75" />
    <path
       fill="#000100"
       d="m 101.5,138.5 c 1.333,0 2.667,0 4,0 0,5.333 0,10.667 0,16 -1.333,0 -2.667,0 -4,0 0,-5.333 0,-10.667 0,-16 z"
       id="path76" />
    <path
       fill="#000100"
       d="m 122.5,138.5 c 1.667,0 3.333,0 5,0 0,5.333 0,10.667 0,16 -1.667,0 -3.333,0 -5,0 0,-5.333 0,-10.667 0,-16 z"
       id="path77" />
    <path
       fill="#d7d7d7"
       d="m 143.5,106.5 c 0,21 0,42 0,63 -1.667,0 -3.333,0 -5,0 0,-21 0,-42 0,-63 1.667,0 3.333,0 5,0 z"
       id="path78" />
    <path
       fill="#f7f8f7"
       d="m 186.5,138.5 c 3.333,0 6.667,0 10,0 0,1.667 0,3.333 0,5 -3.333,0 -6.667,0 -10,0 0,-1.667 0,-3.333 0,-5 z"
       id="path79" />
    <path
       fill="#f7f7f7"
       d="m 234.5,138.5 c 0,1.667 0,3.333 0,5 -9,0 -18,0 -27,0 0,-1.667 0,-3.333 0,-5 9,0 18,0 27,0 z"
       id="path80" />
    <path
       fill="#c4c4c4"
       d="m 31.5,138.5 c 1.6667,0 3.3333,0 5,0 0,3.333 0,6.667 0,10 -7,0 -14,0 -21,0 0,-1.667 0,-3.333 0,-5 5.3333,0 10.6667,0 16,0 0,-1.667 0,-3.333 0,-5 z"
       id="path81" />
    <path
       fill="#c4c4c4"
       d="m 74.5,138.5 c 1.6667,0 3.3333,0 5,0 0,3.333 0,6.667 0,10 -5.3333,0 -10.6667,0 -16,0 0,-1.667 0,-3.333 0,-5 3.6667,0 7.3333,0 11,0 0,-1.667 0,-3.333 0,-5 z"
       id="path82" />
    <path
       fill="#c1c1c1"
       d="m 84.5,138.5 c 0.3333,0 0.6667,0 1,0 0,1.667 0,3.333 0,5 3.3333,0 6.6667,0 10,0 0,-1.667 0,-3.333 0,-5 1.6667,0 3.3333,0 5,0 0,3.333 0,6.667 0,10 -5,0 -10,0 -15,0 -0.3333,0 -0.6667,0 -1,0 0,-3.333 0,-6.667 0,-10 z"
       id="path83" />
    <path
       fill="#f7f8f7"
       d="m 85.5,138.5 c 3.3333,0 6.6667,0 10,0 0,1.667 0,3.333 0,5 -3.3333,0 -6.6667,0 -10,0 0,-1.667 0,-3.333 0,-5 z"
       id="path84" />
    <path
       fill="#c1c1c1"
       d="m 164.5,138.5 c 0.333,0 0.667,0 1,0 0,1.667 0,3.333 0,5 3.333,0 6.667,0 10,0 0,-1.667 0,-3.333 0,-5 1.667,0 3.333,0 5,0 0,1.667 0,3.333 0,5 0,1.667 0,3.333 0,5 -5,0 -10,0 -15,0 -0.333,0 -0.667,0 -1,0 0,-3.333 0,-6.667 0,-10 z"
       id="path85" />
    <path
       fill="#f7f8f7"
       d="m 165.5,138.5 c 3.333,0 6.667,0 10,0 0,1.667 0,3.333 0,5 -3.333,0 -6.667,0 -10,0 0,-1.667 0,-3.333 0,-5 z"
       id="path86" />
    <path
       fill="#c5c5c5"
       d="m 196.5,138.5 c 1.667,0 3.333,0 5,0 0,3.333 0,6.667 0,10 -5,0 -10,0 -15,0 0,-1.667 0,-3.333 0,-5 3.333,0 6.667,0 10,0 0,-1.667 0,-3.333 0,-5 z"
       id="path87" />
    <path
       fill="#000100"
       d="m 202.5,143.5 c 1.667,0 3.333,0 5,0 0,1.667 0,3.333 0,5 0,2 0,4 0,6 -1.667,0 -3.333,0 -5,0 0,-3.667 0,-7.333 0,-11 z"
       id="path88" />
    <path
       fill="#c2c2c2"
       d="m 234.5,138.5 c 1.667,0 3.333,0 5,0 0,3.333 0,6.667 0,10 -10.667,0 -21.333,0 -32,0 0,-1.667 0,-3.333 0,-5 9,0 18,0 27,0 0,-1.667 0,-3.333 0,-5 z"
       id="path89" />
    <path
       fill="#828282"
       d="m 63.5,148.5 c 5.3333,0 10.6667,0 16,0 0,2 0,4 0,6 -5.3333,0 -10.6667,0 -16,0 0,-2 0,-4 0,-6 z"
       id="path90" />
    <path
       fill="#7a7e7a"
       d="m 186.5,138.5 c 5.14,-0.988 10.474,-1.321 16,-1 0,2 0,4 0,6 0,3.667 0,7.333 0,11 -5.333,0 -10.667,0 -16,0 0,-2 0,-4 0,-6 5,0 10,0 15,0 0,-3.333 0,-6.667 0,-10 -1.667,0 -3.333,0 -5,0 -3.333,0 -6.667,0 -10,0 z"
       id="path91" />
    <path
       fill="#828282"
       d="m 207.5,148.5 c 10.667,0 21.333,0 32,0 0,2 0,4 0,6 -10.667,0 -21.333,0 -32,0 0,-2 0,-4 0,-6 z"
       id="path92" />
    <path
       fill="#4f504f"
       d="m 36.5,138.5 c 0.3333,0 0.6667,0 1,0 0,5.333 0,10.667 0,16 -0.3333,0 -0.6667,0 -1,0 -7,0 -14,0 -21,0 6.8134,-0.991 13.8134,-1.325 21,-1 0,-1.667 0,-3.333 0,-5 0,-3.333 0,-6.667 0,-10 z"
       id="path93" />
    <path
       fill="#565d56"
       d="m 58.5,138.5 c 0,5.333 0,10.667 0,16 -5.3333,0 -10.6667,0 -16,0 -0.3333,0 -0.6667,0 -1,0 0,-5.333 0,-10.667 0,-16 0.3333,0 0.6667,0 1,0 5.3333,-1.333 10.6667,-1.333 16,0 z"
       id="path94" />
    <path
       fill="#898989"
       d="m 42.5,148.5 c 5,0 10,0 15,0 0,1.667 0,3.333 0,5 -5,0 -10,0 -15,0 0,-1.667 0,-3.333 0,-5 z"
       id="path95" />
    <path
       fill="#c0c0c0"
       d="m 52.5,138.5 c 1.6667,0 3.3333,0 5,0 0,3.333 0,6.667 0,10 -5,0 -10,0 -15,0 0,-1.667 0,-3.333 0,-5 3.3333,0 6.6667,0 10,0 0,-1.667 0,-3.333 0,-5 z"
       id="path96" />
    <path
       fill="#f7f8f7"
       d="m 42.5,138.5 c 3.3333,0 6.6667,0 10,0 0,1.667 0,3.333 0,5 -3.3333,0 -6.6667,0 -10,0 0,-1.667 0,-3.333 0,-5 z"
       id="path97" />
    <path
       fill="#4f4f4f"
       d="m 100.5,138.5 c 0.333,0 0.667,0 1,0 0,5.333 0,10.667 0,16 -0.333,0 -0.667,0 -1,0 -5.3333,0 -10.6667,0 -16,0 0,-2 0,-4 0,-6 0.3333,0 0.6667,0 1,0 0,1.667 0,3.333 0,5 5,0 10,0 15,0 0,-1.667 0,-3.333 0,-5 0,-3.333 0,-6.667 0,-10 z"
       id="path98" />
    <path
       fill="#898989"
       d="m 85.5,148.5 c 5,0 10,0 15,0 0,1.667 0,3.333 0,5 -5,0 -10,0 -15,0 0,-1.667 0,-3.333 0,-5 z"
       id="path99" />
    <path
       fill="#575e56"
       d="m 122.5,138.5 c 0,5.333 0,10.667 0,16 -5.333,0 -10.667,0 -16,0 -0.333,0 -0.667,0 -1,0 0,-5.333 0,-10.667 0,-16 0.333,0 0.667,0 1,0 5.333,-1.333 10.667,-1.333 16,0 z"
       id="path100" />
    <path
       fill="#898989"
       d="m 106.5,148.5 c 5,0 10,0 15,0 0,1.667 0,3.333 0,5 -5,0 -10,0 -15,0 0,-1.667 0,-3.333 0,-5 z"
       id="path101" />
    <path
       fill="#c5c5c5"
       d="m 116.5,138.5 c 1.667,0 3.333,0 5,0 0,3.333 0,6.667 0,10 -5,0 -10,0 -15,0 0,-1.667 0,-3.333 0,-5 3.333,0 6.667,0 10,0 0,-1.667 0,-3.333 0,-5 z"
       id="path102" />
    <path
       fill="#f7f8f7"
       d="m 106.5,138.5 c 3.333,0 6.667,0 10,0 0,1.667 0,3.333 0,5 -3.333,0 -6.667,0 -10,0 0,-1.667 0,-3.333 0,-5 z"
       id="path103" />
    <path
       fill="#353a35"
       d="m 186.5,138.5 c 0,1.667 0,3.333 0,5 0,1.667 0,3.333 0,5 0,2 0,4 0,6 -2,0 -4,0 -6,0 -5.333,0 -10.667,0 -16,0 0,-2 0,-4 0,-6 0.333,0 0.667,0 1,0 0,1.667 0,3.333 0,5 5,0 10,0 15,0 0,-1.667 0,-3.333 0,-5 0,-1.667 0,-3.333 0,-5 0.333,0 0.667,0 1,0 0,3.333 0,6.667 0,10 1.333,0 2.667,0 4,0 0,-3.333 0,-6.667 0,-10 -0.284,-1.915 0.049,-3.581 1,-5 z"
       id="path104" />
    <path
       fill="#898989"
       d="m 165.5,148.5 c 5,0 10,0 15,0 0,1.667 0,3.333 0,5 -5,0 -10,0 -15,0 0,-1.667 0,-3.333 0,-5 z"
       id="path105" />
    <path
       fill="#000000"
       d="m 181.5,143.5 c 1.333,0 2.667,0 4,0 0,3.333 0,6.667 0,10 -1.333,0 -2.667,0 -4,0 0,-3.333 0,-6.667 0,-10 z"
       id="path106" />
    <path
       fill="#000000"
       d="m 15.5,154.5 c 7,0 14,0 21,0 0,1.667 0,3.333 0,5 -7,0 -14,0 -21,0 0,-1.667 0,-3.333 0,-5 z"
       id="path107" />
    <path
       fill="#012d00"
       d="m 36.5,154.5 c 0.3333,0 0.6667,0 1,0 1.3333,0 2.6667,0 4,0 0.3333,0 0.6667,0 1,0 0,1.667 0,3.333 0,5 -0.3333,0 -0.6667,0 -1,0 -1.6667,0 -3.3333,0 -5,0 0,-1.667 0,-3.333 0,-5 z"
       id="path108" />
    <path
       fill="#000000"
       d="m 42.5,154.5 c 5.3333,0 10.6667,0 16,0 0,1.667 0,3.333 0,5 -3.6667,0 -7.3333,0 -11,0 0,1.667 0,3.333 0,5 0,2 0,4 0,6 0,1.667 0,3.333 0,5 -1.6667,0 -3.3333,0 -5,0 0,-5.333 0,-10.667 0,-16 0,-1.667 0,-3.333 0,-5 z"
       id="path109" />
    <path
       fill="#003300"
       d="m 58.5,154.5 c 1.6667,0 3.3333,0 5,0 0,1.667 0,3.333 0,5 -1.6667,0 -3.3333,0 -5,0 0,-1.667 0,-3.333 0,-5 z"
       id="path110" />
    <path
       fill="#000000"
       d="m 63.5,154.5 c 5.3333,0 10.6667,0 16,0 0,1.667 0,3.333 0,5 -3.3333,0 -6.6667,0 -10,0 -0.9881,5.14 -1.3214,10.474 -1,16 -1.6667,0 -3.3333,0 -5,0 0,-1.667 0,-3.333 0,-5 0,-3.667 0,-7.333 0,-11 0,-1.667 0,-3.333 0,-5 z"
       id="path111" />
    <path
       fill="#003300"
       d="m 79.5,154.5 c 1.6667,0 3.3333,0 5,0 0,1.667 0,3.333 0,5 -1.6667,0 -3.3333,0 -5,0 0,-1.667 0,-3.333 0,-5 z"
       id="path112" />
    <path
       fill="#000100"
       d="m 84.5,154.5 c 5.3333,0 10.6667,0 16,0 0,1.667 0,3.333 0,5 -5.3333,0 -10.6667,0 -16,0 0,-1.667 0,-3.333 0,-5 z"
       id="path113" />
    <path
       fill="#012d00"
       d="m 100.5,154.5 c 0.333,0 0.667,0 1,0 1.333,0 2.667,0 4,0 0.333,0 0.667,0 1,0 0,1.667 0,3.333 0,5 -2,0 -4,0 -6,0 0,-1.667 0,-3.333 0,-5 z"
       id="path114" />
    <path
       fill="#000100"
       d="m 106.5,154.5 c 5.333,0 10.667,0 16,0 0,1.667 0,3.333 0,5 -5.333,0 -10.667,0 -16,0 0,-1.667 0,-3.333 0,-5 z"
       id="path115" />
    <path
       fill="#003300"
       d="m 122.5,154.5 c 1.667,0 3.333,0 5,0 0,1.667 0,3.333 0,5 -1.667,0 -3.333,0 -5,0 0,-1.667 0,-3.333 0,-5 z"
       id="path116" />
    <path
       fill="#012d00"
       d="m 180.5,154.5 c 2,0 4,0 6,0 0,1.667 0,3.333 0,5 -0.333,0 -0.667,0 -1,0 -1.667,0 -3.333,0 -5,0 0,-1.667 0,-3.333 0,-5 z"
       id="path117" />
    <path
       fill="#000000"
       d="m 186.5,154.5 c 5.333,0 10.667,0 16,0 0,1.667 0,3.333 0,5 -3.667,0 -7.333,0 -11,0 0,1.667 0,3.333 0,5 0,2 0,4 0,6 0,1.667 0,3.333 0,5 -1.667,0 -3.333,0 -5,0 0,-5.333 0,-10.667 0,-16 0,-1.667 0,-3.333 0,-5 z"
       id="path118" />
    <path
       fill="#003300"
       d="m 202.5,154.5 c 1.667,0 3.333,0 5,0 0,1.667 0,3.333 0,5 -1.667,0 -3.333,0 -5,0 0,-1.667 0,-3.333 0,-5 z"
       id="path119" />
    <path
       fill="#000000"
       d="m 207.5,154.5 c 10.667,0 21.333,0 32,0 0,1.667 0,3.333 0,5 -1.667,0 -3.333,0 -5,0 -7,0 -14,0 -21,0 -0.988,5.14 -1.321,10.474 -1,16 -1.667,0 -3.333,0 -5,0 0,-1.667 0,-3.333 0,-5 0,-3.667 0,-7.333 0,-11 0,-1.667 0,-3.333 0,-5 z"
       id="path120" />
    <path
       fill="#f7f8f7"
       d="m 15.5,159.5 c 7,0 14,0 21,0 0,1.667 0,3.333 0,5 -7,0 -14,0 -21,0 0,-1.667 0,-3.333 0,-5 z"
       id="path121" />
    <path
       fill="#f6f6f6"
       d="m 58.5,159.5 c 0,1.667 0,3.333 0,5 -3.6667,0 -7.3333,0 -11,0 0,-1.667 0,-3.333 0,-5 3.6667,0 7.3333,0 11,0 z"
       id="path122" />
    <path
       fill="#f7f8f7"
       d="m 69.5,159.5 c 3.3333,0 6.6667,0 10,0 1.6667,0 3.3333,0 5,0 5.3333,0 10.6667,0 16,0 2,0 4,0 6,0 5.333,0 10.667,0 16,0 1.667,0 3.333,0 5,0 0,1.667 0,3.333 0,5 -19.333,0 -38.6667,0 -58,0 0,-1.667 0,-3.333 0,-5 z"
       id="path123" />
    <path
       fill="#f6f6f6"
       d="m 202.5,159.5 c 0,1.667 0,3.333 0,5 -3.667,0 -7.333,0 -11,0 0,-1.667 0,-3.333 0,-5 3.667,0 7.333,0 11,0 z"
       id="path124" />
    <path
       fill="#f7f7f7"
       d="m 213.5,159.5 c 7,0 14,0 21,0 0,1.667 0,3.333 0,5 -7,0 -14,0 -21,0 0,-1.667 0,-3.333 0,-5 z"
       id="path125" />
    <path
       fill="#000000"
       d="m 239.5,159.5 c 1.667,0 3.333,0 5,0 0,5.333 0,10.667 0,16 -1.667,0 -3.333,0 -5,0 0,-1.667 0,-3.333 0,-5 0,-3.667 0,-7.333 0,-11 z"
       id="path126" />
    <path
       fill="#c2c2c2"
       d="m 36.5,159.5 c 1.6667,0 3.3333,0 5,0 0,3.667 0,7.333 0,11 -8.6667,0 -17.3333,0 -26,0 0,-2 0,-4 0,-6 7,0 14,0 21,0 0,-1.667 0,-3.333 0,-5 z"
       id="path127" />
    <path
       fill="#c3c3c3"
       d="m 58.5,159.5 c 1.6667,0 3.3333,0 5,0 0,3.667 0,7.333 0,11 -5.3333,0 -10.6667,0 -16,0 0,-2 0,-4 0,-6 3.6667,0 7.3333,0 11,0 0,-1.667 0,-3.333 0,-5 z"
       id="path128" />
    <path
       fill="#c0c0c0"
       d="m 69.5,164.5 c 19.3333,0 38.667,0 58,0 0,2 0,4 0,6 -19.333,0 -38.6667,0 -58,0 0,-2 0,-4 0,-6 z"
       id="path129" />
    <path
       fill="#c3c3c3"
       d="m 202.5,159.5 c 1.667,0 3.333,0 5,0 0,3.667 0,7.333 0,11 -5.333,0 -10.667,0 -16,0 0,-2 0,-4 0,-6 3.667,0 7.333,0 11,0 0,-1.667 0,-3.333 0,-5 z"
       id="path130" />
    <path
       fill="#c1c1c1"
       d="m 234.5,159.5 c 1.667,0 3.333,0 5,0 0,3.667 0,7.333 0,11 -8.667,0 -17.333,0 -26,0 0,-2 0,-4 0,-6 7,0 14,0 21,0 0,-1.667 0,-3.333 0,-5 z"
       id="path131" />
    <path
       fill="#858685"
       d="m 47.5,170.5 c 5.3333,0 10.6667,0 16,0 0,1.667 0,3.333 0,5 -5.3333,0 -10.6667,0 -16,0 0,-1.667 0,-3.333 0,-5 z"
       id="path132" />
    <path
       fill="#030303"
       d="m 143.5,170.5 c 5.333,0 10.667,0 16,0 0,3.333 0,6.667 0,10 1.667,0 3.333,0 5,0 0,2 0,4 0,6 -1.667,0 -3.333,0 -5,0 0,1.667 0,3.333 0,5 -1.667,0 -3.333,0 -5,0 0,-5.333 0,-10.667 0,-16 -2,0 -4,0 -6,0 -1.667,0 -3.333,0 -5,0 -1.667,0 -3.333,0 -5,0 -2,0 -4,0 -6,0 0,-1.667 0,-3.333 0,-5 3.667,0 7.333,0 11,0 z"
       id="path133" />
    <path
       fill="#7a7a7a"
       d="m 165.5,159.5 c 0,1.667 0,3.333 0,5 0,2 0,4 0,6 6.667,0 13.333,0 20,0 0,-3.667 0,-7.333 0,-11 0.333,0 0.667,0 1,0 0,5.333 0,10.667 0,16 -2,0 -4,0 -6,0 0,1.667 0,3.333 0,5 -5.333,0 -10.667,0 -16,0 -1.667,0 -3.333,0 -5,0 0,-3.333 0,-6.667 0,-10 1.667,0 3.333,0 5,0 -0.315,-3.871 0.018,-7.538 1,-11 z"
       id="path134" />
    <path
       fill="#c2c2c2"
       d="m 180.5,159.5 c 1.667,0 3.333,0 5,0 0,3.667 0,7.333 0,11 -6.667,0 -13.333,0 -20,0 0,-2 0,-4 0,-6 5,0 10,0 15,0 0,-1.667 0,-3.333 0,-5 z"
       id="path135" />
    <path
       fill="#f7f8f7"
       d="m 165.5,159.5 c 5,0 10,0 15,0 0,1.667 0,3.333 0,5 -5,0 -10,0 -15,0 0,-1.667 0,-3.333 0,-5 z"
       id="path136" />
    <path
       fill="#858685"
       d="m 191.5,170.5 c 5.333,0 10.667,0 16,0 0,1.667 0,3.333 0,5 -3.667,0 -7.333,0 -11,0 -1.667,0 -3.333,0 -5,0 0,-1.667 0,-3.333 0,-5 z"
       id="path137" />
    <path
       fill="#858585"
       d="m 213.5,159.5 c 0,1.667 0,3.333 0,5 0,2 0,4 0,6 8.667,0 17.333,0 26,0 0,1.667 0,3.333 0,5 -9,0 -18,0 -27,0 -0.321,-5.526 0.012,-10.86 1,-16 z"
       id="path138" />
    <path
       fill="#000000"
       d="m 42.5,175.5 c 0,1.667 0,3.333 0,5 -9,0 -18,0 -27,0 0,-1.667 0,-3.333 0,-5 9,0 18,0 27,0 z"
       id="path139" />
    <path
       fill="#003300"
       d="m 42.5,175.5 c 1.6667,0 3.3333,0 5,0 0,1.667 0,3.333 0,5 -1.6667,0 -3.3333,0 -5,0 0,-1.667 0,-3.333 0,-5 z"
       id="path140" />
    <path
       fill="#000000"
       d="m 47.5,175.5 c 5.3333,0 10.6667,0 16,0 0,1.667 0,3.333 0,5 -5.3333,0 -10.6667,0 -16,0 0,-1.667 0,-3.333 0,-5 z"
       id="path141" />
    <path
       fill="#003300"
       d="m 63.5,175.5 c 1.6667,0 3.3333,0 5,0 0,1.667 0,3.333 0,5 -1.6667,0 -3.3333,0 -5,0 0,-1.667 0,-3.333 0,-5 z"
       id="path142" />
    <path
       fill="#000000"
       d="m 68.5,175.5 c 16,0 32,0 48,0 0,1.667 0,3.333 0,5 -16,0 -32,0 -48,0 0,-1.667 0,-3.333 0,-5 z"
       id="path143" />
    <path
       fill="#f7f8f7"
       d="m 138.5,175.5 c 1.667,0 3.333,0 5,0 0,5.333 0,10.667 0,16 -1.667,0 -3.333,0 -5,0 0,-5.333 0,-10.667 0,-16 z"
       id="path144" />
    <path
       fill="#bfc0bf"
       d="m 143.5,175.5 c 1.667,0 3.333,0 5,0 0,5.333 0,10.667 0,16 -1.667,0 -3.333,0 -5,0 0,-5.333 0,-10.667 0,-16 z"
       id="path145" />
    <path
       fill="#060906"
       d="m 186.5,175.5 c 0,1.667 0,3.333 0,5 -2,0 -4,0 -6,0 0,-1.667 0,-3.333 0,-5 2,0 4,0 6,0 z"
       id="path146" />
    <path
       fill="#003300"
       d="m 186.5,175.5 c 1.667,0 3.333,0 5,0 1.667,0 3.333,0 5,0 0,1.667 0,3.333 0,5 -3.333,0 -6.667,0 -10,0 0,-1.667 0,-3.333 0,-5 z"
       id="path147" />
    <path
       fill="#000100"
       d="m 196.5,175.5 c 3.667,0 7.333,0 11,0 0,1.667 0,3.333 0,5 -3.667,0 -7.333,0 -11,0 0,-1.667 0,-3.333 0,-5 z"
       id="path148" />
    <path
       fill="#003300"
       d="m 207.5,175.5 c 1.667,0 3.333,0 5,0 0,1.667 0,3.333 0,5 -1.667,0 -3.333,0 -5,0 0,-1.667 0,-3.333 0,-5 z"
       id="path149" />
    <path
       fill="#000000"
       d="m 212.5,175.5 c 9,0 18,0 27,0 0,1.667 0,3.333 0,5 -9,0 -18,0 -27,0 0,-1.667 0,-3.333 0,-5 z"
       id="path150" />
    <path
       fill="#003300"
       d="m 239.5,175.5 c 1.667,0 3.333,0 5,0 0,1.667 0,3.333 0,5 -1.667,0 -3.333,0 -5,0 0,-1.667 0,-3.333 0,-5 z"
       id="path151" />
    <path
       fill="#5b5e5b"
       d="m 180.5,181.5 c 0,-0.333 0,-0.667 0,-1 2,0 4,0 6,0 3.333,0 6.667,0 10,0 3.667,0 7.333,0 11,0 1.667,0 3.333,0 5,0 9,0 18,0 27,0 1.667,0 3.333,0 5,0 -17.492,0.997 -35.159,1.33 -53,1 0,1.333 0,2.667 0,4 -3.333,0 -6.667,0 -10,0 0.268,-1.599 -0.066,-2.932 -1,-4 z"
       id="path152" />
    <path
       fill="#000000"
       d="m 95.5,191.5 c -3.3333,0 -6.6667,0 -10,0 -0.3333,0 -0.6667,0 -1,0 -26.3333,0 -52.6667,0 -79,0 0,-1.667 0,-3.333 0,-5 30,0 60,0 90,0 0,1.667 0,3.333 0,5 z"
       id="path153" />
    <path
       fill="#e5e5e5"
       d="m 106.5,186.5 c 5,0 10,0 15,0 0,1.667 0,3.333 0,5 -1.667,0 -3.333,0 -5,0 0,1.667 0,3.333 0,5 -1.667,0 -3.333,0 -5,0 0,2 0,4 0,6 1.667,0 3.333,0 5,0 0,1.667 0,3.333 0,5 -3.333,0 -6.667,0 -10,0 0,-1.667 0,-3.333 0,-5 -5.333,0 -10.6667,0 -16,0 0,-1.667 0,-3.333 0,-5 1.9147,0.284 3.5813,-0.049 5,-1 0,-1.667 0,-3.333 0,-5 3.6667,0 7.333,0 11,0 0,-1.667 0,-3.333 0,-5 z"
       id="path154" />
    <path
       fill="#858685"
       d="m 127.5,186.5 c 0,3.333 0,6.667 0,10 -1.667,0 -3.333,0 -5,0 0,-3.333 0,-6.667 0,-10 1.667,0 3.333,0 5,0 z"
       id="path155" />
    <path
       fill="#131313"
       d="m 164.5,186.5 c 2,0 4,0 6,0 0,3.333 0,6.667 0,10 -2,0 -4,0 -6,0 0,-3.333 0,-6.667 0,-10 z"
       id="path156" />
    <path
       fill="#b4b4b4"
       d="m 164.5,180.5 c 5.333,0 10.667,0 16,0 0,0.333 0,0.667 0,1 0,1.667 0,3.333 0,5 3.667,0 7.333,0 11,0 0,1.667 0,3.333 0,5 3.667,0 7.333,0 11,0 0,3.667 0,7.333 0,11 -1.667,0 -3.333,0 -5,0 -0.951,1.419 -1.284,3.085 -1,5 -3.333,0 -6.667,0 -10,0 0,-1.667 0,-3.333 0,-5 1.667,0 3.333,0 5,0 0,-2 0,-4 0,-6 -1.667,0 -3.333,0 -5,0 0,-1.667 0,-3.333 0,-5 -3.667,0 -7.333,0 -11,0 0,1.667 0,3.333 0,5 -1.667,0 -3.333,0 -5,0 0,-3.333 0,-6.667 0,-10 -2,0 -4,0 -6,0 0,-2 0,-4 0,-6 z"
       id="path157" />
    <path
       fill="#000000"
       d="m 207.5,186.5 c 14,0 28,0 42,0 0,1.667 0,3.333 0,5 -12,0 -24,0 -36,0 -0.995,12.155 -1.329,24.489 -1,37 -3.333,0 -6.667,0 -10,0 0,-1.667 0,-3.333 0,-5 1.667,0 3.333,0 5,0 0,-12.333 0,-24.667 0,-37 z"
       id="path158" />
    <path
       fill="#858685"
       d="m 85.5,191.5 c 3.3333,0 6.6667,0 10,0 0,1.667 0,3.333 0,5 -3.3333,0 -6.6667,0 -10,0 0,-1.667 0,-3.333 0,-5 z"
       id="path159" />
    <path
       fill="#d6d6d6"
       d="m 116.5,180.5 c 3.667,0 7.333,0 11,0 0,2 0,4 0,6 -1.667,0 -3.333,0 -5,0 0,3.333 0,6.667 0,10 0,2 0,4 0,6 1.667,0 3.333,0 5,0 1.667,0 3.333,0 5,0 0,1.667 0,3.333 0,5 5.333,0 10.667,0 16,0 3.667,0 7.333,0 11,0 1.667,0 3.333,0 5,0 0,1.667 0,3.333 0,5 4.438,-1.075 6.438,0.592 6,5 -2,0 -4,0 -6,0 0,2 0,4 0,6 -3.333,0 -6.667,0 -10,0 0,1.667 0,3.333 0,5 -0.333,0 -0.667,0 -1,0 0,-1.667 0,-3.333 0,-5 -1.667,0 -3.333,0 -5,0 0,-1.667 0,-3.333 0,-5 -5.333,0 -10.667,0 -16,0 0,-2 0,-4 0,-6 -5,0 -10,0 -15,0 0.284,-1.915 -0.049,-3.581 -1,-5 0,-1.667 0,-3.333 0,-5 -1.667,0 -3.333,0 -5,0 0,-2 0,-4 0,-6 1.667,0 3.333,0 5,0 0,-1.667 0,-3.333 0,-5 1.667,0 3.333,0 5,0 0,-1.667 0,-3.333 0,-5 -5,0 -10,0 -15,0 3.125,-0.979 6.458,-1.313 10,-1 0,-1.667 0,-3.333 0,-5 z"
       id="path160" />
    <path
       fill="#e5e5e5"
       d="m 127.5,186.5 c 1.667,0 3.333,0 5,0 0,1.667 0,3.333 0,5 1.667,0 3.333,0 5,0 -0.284,1.915 0.049,3.581 1,5 1.419,0.951 3.085,1.284 5,1 0,1.333 0,2.667 0,4 -3.333,0 -6.667,0 -10,0 0,-1.667 0,-3.333 0,-5 -2,0 -4,0 -6,0 0,-3.333 0,-6.667 0,-10 z"
       id="path161" />
    <path
       fill="#000000"
       d="m 138.5,191.5 c 1.667,0 3.333,0 5,0 1.667,0 3.333,0 5,0 1.667,0 3.333,0 5,0 0,1.667 0,3.333 0,5 -5,0 -10,0 -15,0 0,-1.667 0,-3.333 0,-5 z"
       id="path162" />
    <path
       fill="#7a7979"
       d="m 148.5,175.5 c 2,0 4,0 6,0 0,5.333 0,10.667 0,16 1.667,0 3.333,0 5,0 0,-1.667 0,-3.333 0,-5 1.667,0 3.333,0 5,0 0,3.333 0,6.667 0,10 2,0 4,0 6,0 0,2 0,4 0,6 -0.951,-1.419 -1.284,-3.085 -1,-5 -1.333,0 -2.667,0 -4,0 0,1.667 0,3.333 0,5 -2,0 -4,0 -6,0 -3.667,0 -7.333,0 -11,0 1.765,-0.961 3.765,-1.295 6,-1 0,-1.333 0,-2.667 0,-4 -3.667,0 -7.333,0 -11,0 -1.915,0.284 -3.581,-0.049 -5,-1 5,0 10,0 15,0 0,-1.667 0,-3.333 0,-5 -1.667,0 -3.333,0 -5,0 0,-5.333 0,-10.667 0,-16 z"
       id="path163" />
    <path
       fill="#810806"
       d="m 186.5,196.5 c -2,0 -4,0 -6,0 -1.667,0 -3.333,0 -5,0 0,-1.667 0,-3.333 0,-5 3.667,0 7.333,0 11,0 0,1.667 0,3.333 0,5 z"
       id="path164" />
    <path
       fill="#ababab"
       d="m 213.5,191.5 c 0,12.667 0,25.333 0,38 -3.667,0 -7.333,0 -11,0 0,-0.333 0,-0.667 0,-1 3.333,0 6.667,0 10,0 -0.329,-12.511 0.005,-24.845 1,-37 z"
       id="path165" />
    <path
       fill="#888888"
       d="m 79.5,197.5 c 1.6667,0 3.3333,0 5,0 0,10.333 0,20.667 0,31 0,0.333 0,0.667 0,1 -1.6667,0 -3.3333,0 -5,0 0,-10.667 0,-21.333 0,-32 z"
       id="path166" />
    <path
       fill="#f7f7f7"
       d="m 90.5,197.5 c 0,1.667 0,3.333 0,5 5.3333,0 10.667,0 16,0 0,1.667 0,3.333 0,5 3.333,0 6.667,0 10,0 0.951,1.419 1.284,3.085 1,5 5,0 10,0 15,0 0,2 0,4 0,6 5.333,0 10.667,0 16,0 0,1.667 0,3.333 0,5 1.667,0 3.333,0 5,0 0,1.667 0,3.333 0,5 -3.333,0 -6.667,0 -10,0 0,-1.667 0,-3.333 0,-5 -5.333,0 -10.667,0 -16,0 0,-1.667 0,-3.333 0,-5 -5.333,0 -10.667,0 -16,0 0,-2 0,-4 0,-6 -5.333,0 -10.667,0 -16,0 0,-1.667 0,-3.333 0,-5 -3.3333,0 -6.6667,0 -10,0 0,-3.333 0,-6.667 0,-10 1.6667,0 3.3333,0 5,0 z"
       id="path167" />
    <path
       fill="#090909"
       d="m 164.5,196.5 c 0,1.667 0,3.333 0,5 -1.667,0 -3.333,0 -5,0 0,-1.667 0,-3.333 0,-5 1.667,0 3.333,0 5,0 z"
       id="path168" />
    <path
       fill="#831612"
       d="m 170.5,196.5 c 1.667,0 3.333,0 5,0 0,2 0,4 0,6 -1.667,0 -3.333,0 -5,0 0,-2 0,-4 0,-6 z"
       id="path169" />
    <path
       fill="#baadad"
       d="m 175.5,196.5 c 1.667,0 3.333,0 5,0 0,2 0,4 0,6 -1.667,0 -3.333,0 -5,0 0,-2 0,-4 0,-6 z"
       id="path170" />
    <path
       fill="#151515"
       d="m 186.5,196.5 c 1.667,0 3.333,0 5,0 0,2 0,4 0,6 -1.667,0 -3.333,0 -5,0 0,-2 0,-4 0,-6 z"
       id="path171" />
    <path
       fill="#b6b6b7"
       d="m 122.5,196.5 c 1.667,0 3.333,0 5,0 2,0 4,0 6,0 0,1.667 0,3.333 0,5 3.333,0 6.667,0 10,0 0,-1.333 0,-2.667 0,-4 3.667,0 7.333,0 11,0 0,1.333 0,2.667 0,4 -2.235,-0.295 -4.235,0.039 -6,1 -5.333,0 -10.667,0 -16,0 0,-1.667 0,-3.333 0,-5 -1.667,0 -3.333,0 -5,0 0,1.667 0,3.333 0,5 -1.667,0 -3.333,0 -5,0 0,-2 0,-4 0,-6 z"
       id="path172" />
    <path
       fill="#898989"
       d="m 132.5,202.5 c -1.667,0 -3.333,0 -5,0 0,-1.667 0,-3.333 0,-5 1.667,0 3.333,0 5,0 0,1.667 0,3.333 0,5 z"
       id="path173" />
    <path
       fill="#da140f"
       d="m 180.5,196.5 c 2,0 4,0 6,0 0,2 0,4 0,6 -2,0 -4,0 -6,0 0,-2 0,-4 0,-6 z"
       id="path174" />
    <path
       fill="#878787"
       d="m 132.5,202.5 c 5.333,0 10.667,0 16,0 0,1.667 0,3.333 0,5 -5.333,0 -10.667,0 -16,0 0,-1.667 0,-3.333 0,-5 z"
       id="path175" />
    <path
       fill="#050505"
       d="m 148.5,202.5 c 3.667,0 7.333,0 11,0 0,1.667 0,3.333 0,5 -3.667,0 -7.333,0 -11,0 0,-1.667 0,-3.333 0,-5 z"
       id="path176" />
    <path
       fill="#858685"
       d="m 170.5,202.5 c 1.667,0 3.333,0 5,0 0,1.667 0,3.333 0,5 -1.667,0 -3.333,0 -5,0 0,-1.667 0,-3.333 0,-5 z"
       id="path177" />
    <path
       fill="#810806"
       d="m 175.5,202.5 c 1.667,0 3.333,0 5,0 2,0 4,0 6,0 0,1.667 0,3.333 0,5 -3.667,0 -7.333,0 -11,0 0,-1.667 0,-3.333 0,-5 z"
       id="path178" />
    <path
       fill="#636363"
       d="m 191.5,186.5 c 5.333,0 10.667,0 16,0 0,12.333 0,24.667 0,37 -1.667,0 -3.333,0 -5,0 0,1.667 0,3.333 0,5 0,0.333 0,0.667 0,1 0,1.667 0,3.333 0,5 -3.667,0 -7.333,0 -11,0 -3.333,0 -6.667,0 -10,0 0,1.667 0,3.333 0,5 -0.333,0 -0.667,0 -1,0 0,-2 0,-4 0,-6 3.667,0 7.333,0 11,0 3.333,0 6.667,0 10,0 0,-1.667 0,-3.333 0,-5 -3.333,0 -6.667,0 -10,0 0,-1.667 0,-3.333 0,-5 1.667,0 3.333,0 5,0 0,-1.667 0,-3.333 0,-5 -1.667,0 -3.333,0 -5,0 0,-2 0,-4 0,-6 2,0 4,0 6,0 0,-3.333 0,-6.667 0,-10 1.667,0 3.333,0 5,0 0,-3.667 0,-7.333 0,-11 -3.667,0 -7.333,0 -11,0 0,-1.667 0,-3.333 0,-5 z"
       id="path179" />
    <path
       fill="#e0e0e0"
       d="m 85.5,207.5 c 3.3333,0 6.6667,0 10,0 0,1.667 0,3.333 0,5 5.333,0 10.667,0 16,0 0,2 0,4 0,6 5.333,0 10.667,0 16,0 0,1.667 0,3.333 0,5 0,1.667 0,3.333 0,5 -1.667,0 -3.333,0 -5,0 0,-1.667 0,-3.333 0,-5 -2,0 -4,0 -6,0 0,1.667 0,3.333 0,5 -7,0 -14,0 -21,0 0,-1.667 0,-3.333 0,-5 -3.3333,0 -6.6667,0 -10,0 0,-5.333 0,-10.667 0,-16 z"
       id="path180" />
    <path
       fill="#c1c1c1"
       d="m 170.5,202.5 c 0,1.667 0,3.333 0,5 1.667,0 3.333,0 5,0 3.667,0 7.333,0 11,0 0,1.667 0,3.333 0,5 -3.667,0 -7.333,0 -11,0 0,2 0,4 0,6 -3.333,0 -6.667,0 -10,0 0.284,1.915 -0.049,3.581 -1,5 0,-2 0,-4 0,-6 2,0 4,0 6,0 0.438,-4.408 -1.562,-6.075 -6,-5 0,-1.667 0,-3.333 0,-5 -1.667,0 -3.333,0 -5,0 0,-1.667 0,-3.333 0,-5 2,0 4,0 6,0 0,-1.667 0,-3.333 0,-5 1.333,0 2.667,0 4,0 -0.284,1.915 0.049,3.581 1,5 z"
       id="path181" />
    <path
       fill="#7a7a7a"
       d="m 197.5,202.5 c 0,3.333 0,6.667 0,10 -2,0 -4,0 -6,0 0,2 0,4 0,6 1.667,0 3.333,0 5,0 0,1.667 0,3.333 0,5 -1.667,0 -3.333,0 -5,0 0,1.667 0,3.333 0,5 0,1.667 0,3.333 0,5 -3.667,0 -7.333,0 -11,0 0,2 0,4 0,6 -1.667,0 -3.333,0 -5,0 0,-7 0,-14 0,-21 0,-2 0,-4 0,-6 3.667,0 7.333,0 11,0 0,-1.667 0,-3.333 0,-5 3.333,0 6.667,0 10,0 -0.284,-1.915 0.049,-3.581 1,-5 z"
       id="path182" />
    <path
       fill="#b7b7b7"
       d="m 84.5,191.5 c 0.3333,0 0.6667,0 1,0 0,1.667 0,3.333 0,5 3.3333,0 6.6667,0 10,0 -1.4187,0.951 -3.0853,1.284 -5,1 -1.6667,0 -3.3333,0 -5,0 0,3.333 0,6.667 0,10 0,5.333 0,10.667 0,16 3.3333,0 6.6667,0 10,0 0,1.667 0,3.333 0,5 -3.6667,0 -7.3333,0 -11,0 0,-10.333 0,-20.667 0,-31 -1.6667,0 -3.3333,0 -5,0 1.4187,-0.951 3.0853,-1.284 5,-1 0,-1.667 0,-3.333 0,-5 z"
       id="path183" />
    <path
       fill="#9c9c9f"
       d="m 175.5,218.5 c 0,7 0,14 0,21 -1.667,0 -3.333,0 -5,0 -0.951,1.419 -1.284,3.085 -1,5 -3.542,-0.313 -6.875,0.021 -10,1 0,1.333 0,2.667 0,4 -1.667,0 -3.333,0 -5,0 0,-7 0,-14 0,-21 0,-1.667 0,-3.333 0,-5 3.333,0 6.667,0 10,0 0.951,-1.419 1.284,-3.085 1,-5 3.333,0 6.667,0 10,0 z"
       id="path184" />
    <path
       fill="#000000"
       d="m 95.5,229.5 c 0,1.333 0,2.667 0,4 -3.3333,0 -6.6667,0 -10,0 0,-1.333 0,-2.667 0,-4 3.3333,0 6.6667,0 10,0 z"
       id="path185" />
    <path
       fill="#bbbbbb"
       d="m 127.5,223.5 c 5.333,0 10.667,0 16,0 0,1.667 0,3.333 0,5 3.333,0 6.667,0 10,0 0.333,0 0.667,0 1,0 0,7 0,14 0,21 -3.667,0 -7.333,0 -11,0 0,-1.333 0,-2.667 0,-4 -5.333,0 -10.667,0 -16,0 -5.526,0.321 -10.86,-0.012 -16,-1 5.333,0 10.667,0 16,0 0,-1.667 0,-3.333 0,-5 -5.333,0 -10.667,0 -16,0 0,-1.667 0,-3.333 0,-5 -5.14,-0.988 -10.474,-1.321 -16,-1 0,-1.333 0,-2.667 0,-4 0,-0.333 0,-0.667 0,-1 7,0 14,0 21,0 0,-1.667 0,-3.333 0,-5 2,0 4,0 6,0 0,1.667 0,3.333 0,5 1.667,0 3.333,0 5,0 0,-1.667 0,-3.333 0,-5 z"
       id="path186" />
    <path
       fill="#080808"
       d="m 191.5,228.5 c 3.333,0 6.667,0 10,0 0,1.667 0,3.333 0,5 -3.333,0 -6.667,0 -10,0 0,-1.667 0,-3.333 0,-5 z"
       id="path187" />
    <path
       fill="#5a5a5a"
       d="m 84.5,228.5 c 3.6667,0 7.3333,0 11,0 0,0.333 0,0.667 0,1 -3.3333,0 -6.6667,0 -10,0 0,1.333 0,2.667 0,4 3.3333,0 6.6667,0 10,0 5.526,-0.321 10.86,0.012 16,1 -5.333,0 -10.667,0 -16,0 -3.6667,0 -7.3333,0 -11,0 0,-1.667 0,-3.333 0,-5 0,-0.333 0,-0.667 0,-1 z"
       id="path188" />
    <path
       fill="#000000"
       d="m 95.5,234.5 c 5.333,0 10.667,0 16,0 0,1.667 0,3.333 0,5 -5.333,0 -10.667,0 -16,0 0,-1.667 0,-3.333 0,-5 z"
       id="path189" />
    <path
       fill="#000000"
       d="m 191.5,234.5 c 0,1.667 0,3.333 0,5 -3.333,0 -6.667,0 -10,0 0,-1.667 0,-3.333 0,-5 3.333,0 6.667,0 10,0 z"
       id="path190" />
    <path
       fill="#000000"
       d="m 111.5,239.5 c 5.333,0 10.667,0 16,0 0,1.667 0,3.333 0,5 -5.333,0 -10.667,0 -16,0 0,-1.667 0,-3.333 0,-5 z"
       id="path191" />
    <path
       fill="#000000"
       d="m 170.5,239.5 c 1.667,0 3.333,0 5,0 1.667,0 3.333,0 5,0 0,1.667 0,3.333 0,5 -3.333,0 -6.667,0 -10,0 0,-1.667 0,-3.333 0,-5 z"
       id="path192" />
    <path
       fill="#acacac"
       d="m 180.5,239.5 c 0.333,0 0.667,0 1,0 0,2 0,4 0,6 -3.667,0 -7.333,0 -11,0 0,-0.333 0,-0.667 0,-1 3.333,0 6.667,0 10,0 0,-1.667 0,-3.333 0,-5 z"
       id="path193" />
    <path
       fill="#000000"
       d="m 127.5,245.5 c 5.333,0 10.667,0 16,0 0,1.333 0,2.667 0,4 5.14,0.988 10.474,1.321 16,1 0,1.667 0,3.333 0,5 -7,0 -14,0 -21,0 0,-2 0,-4 0,-6 -3.667,0 -7.333,0 -11,0 0,-1.333 0,-2.667 0,-4 z"
       id="path194" />
    <path
       fill="#000000"
       d="m 159.5,245.5 c 3.333,0 6.667,0 10,0 0,1.333 0,2.667 0,4 -3.333,0 -6.667,0 -10,0 0,-1.333 0,-2.667 0,-4 z"
       id="path195" />
    <path
       fill="#5a5a5a"
       d="m 170.5,239.5 c 0,1.667 0,3.333 0,5 0,0.333 0,0.667 0,1 0,1.667 0,3.333 0,5 -3.667,0 -7.333,0 -11,0 -5.526,0.321 -10.86,-0.012 -16,-1 3.667,0 7.333,0 11,0 1.667,0 3.333,0 5,0 3.333,0 6.667,0 10,0 0,-1.333 0,-2.667 0,-4 -3.333,0 -6.667,0 -10,0 3.125,-0.979 6.458,-1.313 10,-1 -0.284,-1.915 0.049,-3.581 1,-5 z"
       id="path196" />
    <path
       fill="#666666"
       d="m 127.5,249.5 c 3.667,0 7.333,0 11,0 0,2 0,4 0,6 -0.333,0 -0.667,0 -1,0 0,-1.667 0,-3.333 0,-5 -3.542,0.313 -6.875,-0.021 -10,-1 z"
       id="path197" />
  </g>
</svg>
