<?xml version="1.0" encoding="UTF-8" standalone="no"?>
<!-- Created with Inkscape (http://www.inkscape.org/) -->

<svg
   width="256mm"
   height="256mm"
   viewBox="0 0 256 256"
   version="1.1"
   id="svg1"
   inkscape:version="1.3.2 (091e20ef0f, 2023-11-25)"
   xml:space="preserve"
   sodipodi:docname="preferences-desktop-default-applications-01.svg"
   xmlns:inkscape="http://www.inkscape.org/namespaces/inkscape"
   xmlns:sodipodi="http://sodipodi.sourceforge.net/DTD/sodipodi-0.dtd"
   xmlns:xlink="http://www.w3.org/1999/xlink"
   xmlns="http://www.w3.org/2000/svg"
   xmlns:svg="http://www.w3.org/2000/svg"
   xmlns:rdf="http://www.w3.org/1999/02/22-rdf-syntax-ns#"
   xmlns:cc="http://creativecommons.org/ns#"
   xmlns:dc="http://purl.org/dc/elements/1.1/"><defs
     id="defs1"><linearGradient
       id="linearGradient38"
       inkscape:collect="always"><stop
         style="stop-color:#ffffff;stop-opacity:0;"
         offset="0"
         id="stop39" /><stop
         style="stop-color:#ffffff;stop-opacity:0.6678201;"
         offset="1"
         id="stop40" /></linearGradient><linearGradient
       id="linearGradient36"
       inkscape:collect="always"><stop
         style="stop-color:#010100;stop-opacity:1;"
         offset="0"
         id="stop36" /><stop
         style="stop-color:#010100;stop-opacity:0;"
         offset="1"
         id="stop37" /></linearGradient><linearGradient
       id="linearGradient34"
       inkscape:collect="always"><stop
         style="stop-color:#000000;stop-opacity:0;"
         offset="0"
         id="stop34" /><stop
         style="stop-color:#000000;stop-opacity:0.24913494;"
         offset="0.43379188"
         id="stop38" /><stop
         style="stop-color:#000000;stop-opacity:0.31833911;"
         offset="1"
         id="stop35" /></linearGradient><linearGradient
       id="linearGradient32"
       inkscape:collect="always"><stop
         style="stop-color:#ffffff;stop-opacity:1;"
         offset="0"
         id="stop32" /><stop
         style="stop-color:#b7b7b7;stop-opacity:0;"
         offset="1"
         id="stop33" /></linearGradient><linearGradient
       id="linearGradient23"
       inkscape:collect="always"><stop
         style="stop-color:#ffffff;stop-opacity:0;"
         offset="0"
         id="stop23" /><stop
         style="stop-color:#ffffff;stop-opacity:0;"
         offset="0.27948859"
         id="stop25" /><stop
         style="stop-color:#cdcdcd;stop-opacity:0;"
         offset="0.40735132"
         id="stop26" /><stop
         style="stop-color:#ffffff;stop-opacity:0;"
         offset="0.66802472"
         id="stop27" /><stop
         style="stop-color:#ffffff;stop-opacity:0.91695499;"
         offset="1"
         id="stop24" /></linearGradient><linearGradient
       id="linearGradient17"
       inkscape:collect="always"><stop
         style="stop-color:#525354;stop-opacity:0;"
         offset="0"
         id="stop14" /><stop
         style="stop-color:#525354;stop-opacity:0;"
         offset="0.96435785"
         id="stop15" /><stop
         style="stop-color:#f6ffff;stop-opacity:0.47404844;"
         offset="0.98217893"
         id="stop16" /><stop
         style="stop-color:#fcfcfc;stop-opacity:1;"
         offset="1"
         id="stop17" /></linearGradient><linearGradient
       id="linearGradient11"
       inkscape:collect="always"><stop
         style="stop-color:#525354;stop-opacity:0;"
         offset="0"
         id="stop10" /><stop
         style="stop-color:#525354;stop-opacity:0;"
         offset="0.96435785"
         id="stop12" /><stop
         style="stop-color:#222323;stop-opacity:1;"
         offset="0.98217893"
         id="stop13" /><stop
         style="stop-color:#1c1c1c;stop-opacity:1;"
         offset="1"
         id="stop11" /></linearGradient><radialGradient
       inkscape:collect="always"
       xlink:href="#linearGradient17"
       id="radialGradient10"
       gradientUnits="userSpaceOnUse"
       cx="106.64642"
       cy="122.32539"
       fx="106.64642"
       fy="122.32539"
       r="94.580376"
       gradientTransform="matrix(1.0299728,0,0,1.0299727,-3.1362122,-3.5484479)" /><radialGradient
       inkscape:collect="always"
       xlink:href="#linearGradient11"
       id="radialGradient13"
       gradientUnits="userSpaceOnUse"
       gradientTransform="matrix(1.0299728,0,0,1.0299727,-3.1362122,-3.5484479)"
       cx="103.7106"
       cy="118.28865"
       fx="103.7106"
       fy="118.28865"
       r="94.580376" /><linearGradient
       inkscape:collect="always"
       xlink:href="#linearGradient32"
       id="linearGradient33"
       x1="187.99318"
       y1="133.01085"
       x2="199.10196"
       y2="140.57027"
       gradientUnits="userSpaceOnUse" /><linearGradient
       inkscape:collect="always"
       xlink:href="#linearGradient34"
       id="linearGradient35"
       x1="200.03172"
       y1="134.75111"
       x2="219.85397"
       y2="147.98027"
       gradientUnits="userSpaceOnUse" /><linearGradient
       inkscape:collect="always"
       xlink:href="#linearGradient36"
       id="linearGradient37"
       x1="122.04675"
       y1="201.95125"
       x2="144.97768"
       y2="187.53145"
       gradientUnits="userSpaceOnUse" /><linearGradient
       inkscape:collect="always"
       xlink:href="#linearGradient38"
       id="linearGradient40"
       x1="142.30843"
       y1="184.89375"
       x2="152.44862"
       y2="177.57057"
       gradientUnits="userSpaceOnUse" /><radialGradient
       inkscape:collect="always"
       xlink:href="#linearGradient23"
       id="radialGradient44"
       cx="133.77791"
       cy="156.8484"
       fx="133.77791"
       fy="156.8484"
       r="86.462059"
       gradientUnits="userSpaceOnUse"
       gradientTransform="matrix(1.5140984,0,0,1.5140984,-64.205624,-73.664794)" /><radialGradient
       inkscape:collect="always"
       xlink:href="#linearGradient23-2"
       id="radialGradient44-6"
       cx="98.297279"
       cy="117.97856"
       fx="98.297279"
       fy="117.97856"
       r="86.462059"
       gradientUnits="userSpaceOnUse"
       gradientTransform="matrix(1.5140984,0,0,1.5140984,-64.085788,-73.581915)" /><linearGradient
       id="linearGradient23-2"
       inkscape:collect="always"><stop
         style="stop-color:#ffffff;stop-opacity:0;"
         offset="0"
         id="stop23-9" /><stop
         style="stop-color:#ffffff;stop-opacity:0;"
         offset="0.27948859"
         id="stop25-1" /><stop
         style="stop-color:#cdcdcd;stop-opacity:0;"
         offset="0.40735132"
         id="stop26-2" /><stop
         style="stop-color:#262626;stop-opacity:0;"
         offset="0.66802472"
         id="stop27-7" /><stop
         style="stop-color:#282828;stop-opacity:0.91695499;"
         offset="1"
         id="stop24-0" /></linearGradient></defs><sodipodi:namedview
     id="base"
     pagecolor="#ffffff"
     bordercolor="#000000"
     borderopacity="0.3"
     inkscape:pageopacity="0.0"
     inkscape:pageshadow="2"
     inkscape:zoom="0.98994949"
     inkscape:cx="505.07627"
     inkscape:cy="476.792"
     inkscape:document-units="mm"
     inkscape:showpageshadow="2"
     inkscape:pagecheckerboard="0"
     inkscape:deskcolor="#d1d1d1"
     inkscape:current-layer="svg1"
     showguides="true"><sodipodi:guide
       position="106.16406,132.87425"
       orientation="1,0"
       id="guide17"
       inkscape:locked="false" /><sodipodi:guide
       position="71.626486,135.80357"
       orientation="0,-1"
       id="guide18"
       inkscape:locked="false" /></sodipodi:namedview><metadata
     id="metadata1"><rdf:RDF><cc:Work
         rdf:about=""><dc:format>image/svg+xml</dc:format><dc:type
           rdf:resource="http://purl.org/dc/dcmitype/StillImage" /><cc:license
           rdf:resource="http://creativecommons.org/publicdomain/zero/1.0/" /></cc:Work><cc:License
         rdf:about="http://creativecommons.org/publicdomain/zero/1.0/"><cc:permits
           rdf:resource="http://creativecommons.org/ns#Reproduction" /><cc:permits
           rdf:resource="http://creativecommons.org/ns#Distribution" /><cc:permits
           rdf:resource="http://creativecommons.org/ns#DerivativeWorks" /></cc:License></rdf:RDF></metadata><g
     id="g17"
     style="display:inline"><circle
       style="display:inline;fill:#525354;fill-opacity:1;stroke-width:6.00001;stroke-linecap:square"
       id="circle9"
       cx="105.95074"
       cy="120.21935"
       r="94.580376"
       inkscape:label="colorheadring" /><circle
       style="display:inline;fill:url(#radialGradient10);fill-opacity:1;stroke-width:6.00001;stroke-linecap:square"
       id="circle8"
       cx="105.95074"
       cy="120.21935"
       r="94.580376"
       inkscape:label="lis" /><circle
       style="display:inline;fill:url(#radialGradient13);fill-opacity:1;stroke-width:6.00001;stroke-linecap:square"
       id="circle13"
       cx="105.95074"
       cy="120.21935"
       r="94.580376"
       inkscape:label="dsh" /><g
       id="g6"
       style="display:inline"
       inkscape:label="shadow"><circle
         style="fill:#535353;fill-opacity:0.108883;stroke-width:6.00001;stroke-linecap:square"
         id="path1"
         cx="103.09301"
         cy="120.29092"
         r="101.39211" /><circle
         style="fill:#535353;fill-opacity:0.108883;stroke-width:6.00001;stroke-linecap:square"
         id="circle1"
         cx="103.09301"
         cy="120.29092"
         r="100.25819" /><circle
         style="fill:#535353;fill-opacity:0.21529745;stroke-width:6.00001;stroke-linecap:square"
         id="circle2"
         cx="103.282"
         cy="120.76339"
         r="99.12426" /><circle
         style="fill:#535353;fill-opacity:0.34277621;stroke-width:6.00001;stroke-linecap:square"
         id="circle3"
         cx="103.94346"
         cy="121.23586"
         r="97.990334" /><circle
         style="fill:#191919;fill-opacity:0.22063;stroke-width:6.00001;stroke-linecap:square"
         id="circle4"
         cx="105.20966"
         cy="121.87842"
         r="97.045395" /><circle
         style="fill:#2e2e2e;fill-opacity:0.209169;stroke-width:6.00001;stroke-linecap:square"
         id="circle5"
         cx="105.63489"
         cy="122.40759"
         r="95.533493" /><circle
         style="fill:#2a2a2a;fill-opacity:0.252149;stroke-width:6.00001;stroke-linecap:square"
         id="circle6"
         cx="104.70888"
         cy="120.95238"
         r="95.533493" /></g><g
       id="g45"><ellipse
         style="display:inline;fill:#000000;fill-opacity:0.1983;stroke-width:5.9903;stroke-linecap:square"
         id="circle26"
         cx="104.58244"
         cy="118.6611"
         inkscape:label="drund"
         rx="88.330986"
         ry="88.796715" /><ellipse
         style="display:inline;fill:#000000;fill-opacity:0.1983;stroke-width:5.97768;stroke-linecap:square"
         id="ellipse26"
         cx="105.70498"
         cy="118.47401"
         inkscape:label="drund"
         rx="88.144882"
         ry="88.609627" /><ellipse
         style="display:inline;fill:#000000;fill-opacity:0.1983;stroke-width:5.96871;stroke-linecap:square"
         id="ellipse27"
         cx="106.49873"
         cy="119.20161"
         inkscape:label="drund"
         rx="88.012589"
         ry="88.476639" /></g><g
       id="g7"
       style="display:inline"><g
         id="g23"
         style="display:inline"><path
           d="m 106.17078,120.20403 v 86.1782 a 86.462059,86.462059 0 0 0 86.22264,-86.1782 z"
           style="fill:#fbd00b;fill-opacity:1;stroke-width:6.00001;stroke-linecap:square"
           id="path23" /><path
           d="m 19.507853,120.20403 a 86.462059,86.462059 0 0 0 86.442787,86.19371 86.462059,86.462059 0 0 0 0.20567,-0.0145 V 120.204 Z"
           style="fill:#4993ff;fill-opacity:1;stroke-width:6.00001;stroke-linecap:square"
           id="path22" /><path
           d="m 106.17078,33.489429 v 86.700131 h 86.22368 a 86.462059,86.462059 0 0 0 0.0181,-0.25373 86.462059,86.462059 0 0 0 -86.24176,-86.446401 z"
           style="fill:#8cd041;fill-opacity:1;stroke-width:6.00001;stroke-linecap:square"
           id="path21" /><path
           d="m 105.95064,33.473926 a 86.462059,86.462059 0 0 0 -86.461907,86.461904 86.462059,86.462059 0 0 0 0.01809,0.25373 H 106.15631 V 33.488395 a 86.462059,86.462059 0 0 0 -0.20567,-0.01447 z"
           style="fill:#e64600;fill-opacity:1;stroke-width:6.00001;stroke-linecap:square"
           id="path20" /></g><circle
         style="display:inline;fill:url(#radialGradient44-6);stroke-width:6.00001;stroke-linecap:square"
         id="circle44"
         cx="106.07059"
         cy="120.01875"
         r="86.462059"
         inkscape:label="dark" /><circle
         style="display:inline;fill:url(#radialGradient44);stroke-width:6.00001;stroke-linecap:square"
         id="circle7"
         cx="105.95074"
         cy="119.93587"
         r="86.462059"
         inkscape:label="light" /></g></g><g
     id="g38"
     style="display:inline"><g
       id="g28"><g
         id="g44"
         transform="translate(-2.0579754,-0.93544334)"
         inkscape:label="okshadow"><path
           id="path27"
           style="display:inline;fill:#626262;fill-opacity:0.186969;stroke-width:6.65053;stroke-linecap:square"
           d="m 109.39057,159.0263 c -0.72234,-1.08992 -0.57526,-2.76698 0.0367,-3.92248 3.23777,-6.11351 10.23342,-10.68766 17.05777,-11.82187 1.46691,-0.2438 3.57274,0.36056 4.29147,1.2185 10.86943,12.97487 15.90214,23.72052 27.71732,38.64302 26.20976,-46.30598 46.93404,-82.12504 69.14339,-111.384267 1.6028,-2.111578 7.7856,-0.561224 11.42689,0.572649 6.51835,2.029771 13.93327,4.900627 17.42121,10.769458 1.33299,2.242893 1.95579,5.69674 0.43296,7.815327 -49.11772,68.333383 -64.59027,103.372593 -91.34377,148.929873 -1.94894,3.31876 -9.70735,2.14516 -11.47571,-1.27324 -12.75963,-24.66545 -27.41493,-53.45362 -44.70823,-79.54697 z"
           sodipodi:nodetypes="saascsaassss" /><path
           id="path40"
           style="display:inline;fill:#626262;fill-opacity:0.186969;stroke-width:6.65053;stroke-linecap:square"
           d="m 112.10336,158.65212 c -0.72406,-1.08878 -0.5937,-2.77693 0.0367,-3.92248 2.84138,-5.16332 9.06358,-8.46627 14.84691,-9.60047 1.09829,-0.2154 2.63041,-0.27416 3.29928,0.62319 12.34327,16.55974 18.41202,22.99106 28.35632,41.09406 23.28369,-46.4939 58.31283,-95.63353 70.33912,-110.871074 1.86512,-2.363139 5.90141,-2.261826 8.8644,-1.729159 6.53009,1.173934 13.895,4.505494 16.98558,10.376477 0.95255,1.809503 0.50296,5.007261 -0.32675,6.126022 -31.36289,42.289024 -67.07337,103.827294 -89.9226,145.988964 -1.42882,2.63648 -7.53789,1.3342 -8.89602,-1.33938 -11.81109,-23.25097 -28.43897,-53.97372 -43.58294,-76.74615 z"
           sodipodi:nodetypes="saascsaassss" /><path
           id="path41"
           style="display:inline;fill:#3b3b3b;fill-opacity:0.186969;stroke-width:6.65053;stroke-linecap:square"
           d="m 113.88849,158.49713 c -1.06648,-1.58521 -1.21187,-2.98245 0.0367,-3.92248 0,0 6.36626,-5.5556 10.04567,-7.56325 3.57398,-1.95011 5.37451,-1.87485 6.47428,-0.66665 10.74013,16.24604 18.44022,24.40988 28.38452,42.51288 24.2668,-44.96047 42.9801,-75.30215 72.59634,-110.820414 1.65652,-1.986633 4.91365,-2.406936 7.47842,-2.071238 4.53154,0.593124 8.97595,3.364408 11.82621,6.936895 1.55214,1.945435 3.8529,5.015867 2.25295,7.118209 -32.8003,43.099678 -68.94842,103.406408 -88.85521,144.062478 -1.14139,2.33109 -6.5898,1.13387 -7.69096,-1.21649 -14.02562,-29.9369 -25.65692,-49.26194 -42.54892,-74.36994 z"
           sodipodi:nodetypes="sssccsaassss" /><path
           id="path42"
           style="display:inline;fill:#313131;fill-opacity:0.186969;stroke-width:6.65053;stroke-linecap:square"
           d="m 110.38276,158.43099 c -1.06648,-1.58521 -0.0593,-3.56096 1.59112,-5.6092 1.6504,-2.04824 3.43857,-4.27871 5.77927,-5.57888 3.32657,-1.84777 9.97164,-3.99152 11.07141,-2.78332 12.19534,14.39396 20.01585,28.13693 29.96015,46.23993 24.2668,-44.96047 47.64907,-81.85773 73.86402,-111.707891 0.90145,-1.026458 2.65734,-2.507303 7.07019,-1.959292 4.41285,0.548011 9.1814,4.903353 11.06846,9.348866 0.63992,1.507536 0.76229,3.709397 -0.32675,4.902324 -38.33664,48.084253 -59.06179,85.910183 -87.56503,141.055433 -0.52817,1.02185 -4.74781,0.36504 -5.15878,-0.67793 -13.10619,-33.26107 -30.46206,-48.12204 -47.35406,-73.23004 z"
           sodipodi:nodetypes="szaccszacsss" /><path
           id="path43"
           style="display:inline;fill:#404040;fill-opacity:0.41926348;stroke-width:6.65053;stroke-linecap:square"
           d="m 115.19032,158.09086 c -1.034,-1.60659 0.008,-3.34284 1.00153,-4.54893 0,0 2.18968,-1.95006 4.60033,-3.82617 0.88324,-0.6874 7.89178,-4.51306 8.99155,-3.30486 10.74013,16.24604 20.38791,25.58319 30.33221,43.68619 24.2668,-44.96047 40.47768,-73.22402 74.02817,-111.614614 0.89896,-1.028646 4.62795,-1.643604 5.44006,-0.924061 0,0 8.20113,4.734185 9.93765,8.805027 0.58217,1.364743 0.83403,3.18647 -0.17508,4.447732 -38.41876,48.018656 -60.26705,83.917636 -86.4344,139.062886 -0.49311,1.03922 -4.5672,0.66838 -4.97817,-0.37459 -12.43962,-31.56945 -22.84327,-40.48788 -42.74385,-71.40861 z"
           sodipodi:nodetypes="sssccssassss" /><path
           id="path44"
           style="display:inline;fill:#626262;fill-opacity:0.186969;stroke-width:6.65053;stroke-linecap:square"
           d="m 116.20359,157.33958 c -1.06648,-1.58521 -1.29208,-3.09974 0.0367,-3.92248 l 9.38421,-5.81039 c 1.09975,-0.64679 3.15863,-1.21339 4.2584,-0.005 10.74013,16.24604 20.75641,23.55067 30.70071,41.65367 24.2668,-44.96047 39.57393,-71.50446 73.12442,-109.895058 0.89896,-1.028646 3.71326,-2.181986 4.63415,-1.608216 4.09819,2.553413 7.79302,5.429505 10.13949,9.384289 0.60082,0.854957 0.96073,1.758095 -0.12831,2.951022 -38.33664,48.084243 -60.95752,84.922223 -87.12487,140.067473 -0.49311,1.03922 -2.13505,0.76192 -2.54602,-0.28105 -13.10619,-33.26107 -25.58688,-47.42607 -42.47888,-72.53407 z"
           sodipodi:nodetypes="sscccssccssss" /></g><path
         id="rect27"
         style="display:inline;fill:#66b728;stroke-width:6.00001;stroke-linecap:square"
         d="m 115.29219,155.67423 c -0.96216,-1.43015 -1.14248,-2.76029 0.0331,-3.5388 l 9.98803,-6.61459 c 0.99218,-0.58351 1.98437,-0.52778 2.97656,0.56224 9.68959,14.65694 19.49022,29.05477 28.46182,45.38703 21.89314,-40.56266 45.84392,-79.52249 76.11267,-114.157913 0.81102,-0.928029 1.88482,-1.131683 2.62929,-0.496096 l 9.64076,8.450128 c 0.54205,0.771329 0.86675,1.586127 -0.11576,2.662368 -34.58674,43.380883 -63.48661,90.014063 -87.0944,139.765283 -0.44488,0.93756 -1.92621,0.68738 -2.29698,-0.25357 -11.82421,-30.00763 -25.09539,-49.11402 -40.33509,-71.76608 z"
         sodipodi:nodetypes="sscccssccsss"
         inkscape:label="colorheadok" /><g
         id="g29"
         style="display:inline"><path
           d="m 120.59781,148.64364 -5.27255,3.49178 c -1.17558,0.77851 -0.99523,2.10865 -0.0331,3.5388 15.23964,22.652 28.51085,41.75862 40.335,71.76616 0.18588,0.47173 0.68395,0.75249 1.15755,0.81442 l -0.0331,-23.26525 C 144.9246,186.01538 133.01552,167.11153 120.59781,148.64364 Z"
           style="display:inline;fill:url(#linearGradient37);stroke-width:6.00001;stroke-linecap:square"
           id="path32"
           sodipodi:nodetypes="cccsccc" /><path
           d="m 126.80156,145.1746 c -0.49609,-0.0772 -0.99219,0.0545 -1.48828,0.34623 l -10.09033,6.70089 c 12.64162,18.35876 29.72715,46.353 41.36502,65.29686 l 0.1637,-26.04861 c -8.97157,-16.33223 -18.77227,-30.72999 -28.46183,-45.3869 -0.49609,-0.54501 -0.99218,-0.83122 -1.48828,-0.90847 z"
           style="display:inline;fill:url(#linearGradient40);stroke-width:6.00001;stroke-linecap:square"
           id="path31"
           sodipodi:nodetypes="ccccccc" /><path
           d="m 235.97009,77.27332 c -33.50087,37.73658 -55.67618,74.05256 -79.20978,118.29287 l 0.0121,32.70256 c 0.46413,0.0537 0.93339,-0.11421 1.15187,-0.57464 23.60773,-49.75107 52.50778,-96.38487 87.09443,-139.765627 0.98251,-1.076238 0.6578,-1.891041 0.11575,-2.66237 z"
           style="display:inline;fill:url(#linearGradient35);stroke-width:6.00001;stroke-linecap:square"
           id="path30"
           sodipodi:nodetypes="ccccccc" /><path
           d="m 234.20379,76.478019 c -0.46288,0.08747 -0.93394,0.370044 -1.33945,0.834058 -30.25923,34.624543 -54.20446,73.571253 -76.092,114.120163 0.0705,2.88226 -0.69902,27.64514 0.41072,29.44316 23.39526,-44.00057 52.57509,-99.58085 85.88169,-137.154412 l -7.57111,-6.905005 c -0.37224,-0.317793 -0.82696,-0.425432 -1.28985,-0.337964 z"
           style="display:inline;fill:url(#linearGradient33);stroke-width:6.00001;stroke-linecap:square"
           id="path29"
           sodipodi:nodetypes="scccccs" /></g></g></g></svg>
