<?xml version="1.0" encoding="UTF-8" standalone="no"?>
<!-- Created with Inkscape (http://www.inkscape.org/) -->

<svg
   width="256mm"
   height="256mm"
   viewBox="0 0 256 256"
   version="1.1"
   id="svg1"
   inkscape:version="1.3.2 (091e20ef0f, 2023-11-25)"
   xml:space="preserve"
   sodipodi:docname="preferences-desktop-display-color.svg"
   xmlns:inkscape="http://www.inkscape.org/namespaces/inkscape"
   xmlns:sodipodi="http://sodipodi.sourceforge.net/DTD/sodipodi-0.dtd"
   xmlns:xlink="http://www.w3.org/1999/xlink"
   xmlns="http://www.w3.org/2000/svg"
   xmlns:svg="http://www.w3.org/2000/svg"
   xmlns:rdf="http://www.w3.org/1999/02/22-rdf-syntax-ns#"
   xmlns:cc="http://creativecommons.org/ns#"
   xmlns:dc="http://purl.org/dc/elements/1.1/"><defs
     id="defs1"><linearGradient
       id="linearGradient36"
       inkscape:collect="always"><stop
         style="stop-color:#000000;stop-opacity:1;"
         offset="0"
         id="stop37" /><stop
         style="stop-color:#000000;stop-opacity:0;"
         offset="1"
         id="stop38" /></linearGradient><linearGradient
       id="light100to0"><stop
         style="stop-color:#ffffff;stop-opacity:1.0000000;"
         offset="0.0000000"
         id="stop2764" /><stop
         style="stop-color:#ffffff;stop-opacity:0.0000000;"
         offset="1.0000000"
         id="stop2765" /></linearGradient><linearGradient
       inkscape:collect="always"
       id="linearGradient3722"><stop
         style="stop-color:#f85b00;stop-opacity:1;"
         offset="0"
         id="stop3724" /><stop
         style="stop-color:#f85b00;stop-opacity:0;"
         offset="1"
         id="stop3726" /></linearGradient><linearGradient
       id="linearGradient3699"><stop
         id="stop3701"
         offset="0"
         style="stop-color:#00ce20;stop-opacity:1;" /><stop
         id="stop3703"
         offset="1"
         style="stop-color:#086500;stop-opacity:1;" /></linearGradient><linearGradient
       id="linearGradient3693"><stop
         style="stop-color:#00ff28;stop-opacity:1;"
         offset="0"
         id="stop3695" /><stop
         style="stop-color:#086500;stop-opacity:1;"
         offset="1"
         id="stop3697" /></linearGradient><linearGradient
       gradientTransform="matrix(0,1,-1,0,-39.9985,140.0029)"
       y2="-383.9971"
       x2="-12.0029"
       y1="-383.9971"
       x1="-84.002403"
       gradientUnits="userSpaceOnUse"
       id="linearGradient3681"><stop
         id="stop3683"
         style="stop-color:#03ff00;stop-opacity:1;"
         offset="0" /><stop
         id="stop3685"
         style="stop-color:#00f507;stop-opacity:0;"
         offset="1" /></linearGradient><linearGradient
       gradientTransform="matrix(0,1,-1,0,-39.9985,140.0029)"
       y2="-383.9971"
       x2="-12.0029"
       y1="-383.9971"
       x1="-84.002403"
       gradientUnits="userSpaceOnUse"
       id="linearGradient3667"><stop
         id="stop3669"
         style="stop-color:#00f2ff;stop-opacity:1;"
         offset="0" /><stop
         id="stop3671"
         style="stop-color:#acf4ff;stop-opacity:0;"
         offset="1" /></linearGradient><linearGradient
       id="linearGradient3661"><stop
         id="stop3663"
         offset="0"
         style="stop-color:#008dff;stop-opacity:1;" /><stop
         id="stop3665"
         offset="1"
         style="stop-color:#000765;stop-opacity:1;" /></linearGradient><linearGradient
       inkscape:collect="always"
       id="linearGradient3140"><stop
         style="stop-color:#542e00;stop-opacity:1;"
         offset="0"
         id="stop3142" /><stop
         style="stop-color:#542e00;stop-opacity:0;"
         offset="1"
         id="stop3144" /></linearGradient><linearGradient
       id="linearGradient5231"><stop
         style="stop-color:#e9ffe9;stop-opacity:1.0000000;"
         offset="0.0000000"
         id="stop5233" /><stop
         style="stop-color:#ffffee;stop-opacity:0.57254905;"
         offset="0.016975958"
         id="stop6003" /><stop
         style="stop-color:#ffffd0;stop-opacity:0.14509805;"
         offset="0.17400357"
         id="stop5237" /><stop
         style="stop-color:#ffffff;stop-opacity:0.14563107;"
         offset="0.54878050"
         id="stop6001" /><stop
         style="stop-color:#ffffff;stop-opacity:0.0000000;"
         offset="1.0000000"
         id="stop5235" /></linearGradient><linearGradient
       id="linearGradient18251"><stop
         style="stop-color:#ffa100;stop-opacity:1.0000000;"
         offset="0.0000000"
         id="stop18253" /><stop
         style="stop-color:#ffff00;stop-opacity:0.0000000;"
         offset="1.0000000"
         id="stop18255" /></linearGradient><linearGradient
       id="linearGradient7417"><stop
         style="stop-color:#ff5900;stop-opacity:1.0000000;"
         offset="0.0000000"
         id="stop7419" /><stop
         style="stop-color:#ffff00;stop-opacity:1.0000000;"
         offset="1.0000000"
         id="stop7421" /></linearGradient><linearGradient
       inkscape:collect="always"
       xlink:href="#linearGradient36"
       id="linearGradient18333"
       gradientUnits="userSpaceOnUse"
       gradientTransform="scale(1.506975,0.663581)"
       x1="24.937645"
       y1="67.262123"
       x2="20.156658"
       y2="44.913742" /><linearGradient
       inkscape:collect="always"
       xlink:href="#linearGradient3140"
       id="linearGradient3146"
       x1="32.613049"
       y1="39.310211"
       x2="32.257198"
       y2="53.060791"
       gradientUnits="userSpaceOnUse" /><clipPath
       clipPathUnits="userSpaceOnUse"
       id="clipPath3188"><path
         sodipodi:nodetypes="ccsszzz"
         id="path3190"
         d="M 26.976529,42.423929 C 25.902648,42.490391 24.432756,42.496024 24.435236,43.960191 C 24.623181,44.34851 24.767371,44.830788 26.872003,45.612683 C 29.410607,46.555804 34.113417,47.327091 37.574314,46.040776 C 42.800842,44.098227 34.848793,40.004672 33.764292,40.175908 C 32.685577,40.346232 34.655001,42.440294 32.539769,42.583215 C 30.427846,42.725912 29.166935,42.288366 26.976529,42.423929 z"
         style="fill:url(#linearGradient3192);fill-opacity:1;fill-rule:evenodd;stroke:none;stroke-width:0.69999999;stroke-linecap:butt;stroke-linejoin:miter;stroke-miterlimit:4;stroke-opacity:1" /></clipPath><linearGradient
       inkscape:collect="always"
       xlink:href="#linearGradient7417"
       id="linearGradient3192"
       gradientUnits="userSpaceOnUse"
       gradientTransform="matrix(1.500584,0,0,0.666407,1.9998306,5.6460418)"
       spreadMethod="reflect"
       x1="20.682898"
       y1="57.744148"
       x2="22.552622"
       y2="61.49741" /><clipPath
       clipPathUnits="userSpaceOnUse"
       id="clipPath3436"><path
         style="fill:url(#linearGradient3440);fill-opacity:1;fill-rule:evenodd;stroke:none;stroke-width:0.1;stroke-linecap:butt;stroke-linejoin:miter;stroke-miterlimit:4;stroke-opacity:1"
         d="M -7.03082,52.330923 C -6.951056,52.630565 -6.934601,53.87339 -8.062747,54.489419 C -8.903546,54.948541 -11.38699,55.325187 -13.089639,53.426259 C -14.855973,51.456305 -13.686268,49.162786 -12.370936,48.011974 C -11.686154,47.412843 -10.891313,47.170491 -10.60116,47.344489 C -10.293765,47.528826 -10.285011,47.899706 -10.530328,48.074046 C -11.119575,48.492809 -11.644091,49.683466 -11.06199,50.508123 C -10.374778,51.481691 -9.206572,51.079541 -8.60205,51.004218 C -8.102498,50.941974 -7.319476,51.24655 -7.03082,52.330923 z"
         id="path3438"
         sodipodi:nodetypes="cssssssss" /></clipPath><linearGradient
       inkscape:collect="always"
       xlink:href="#linearGradient7417"
       id="linearGradient3440"
       gradientUnits="userSpaceOnUse"
       gradientTransform="matrix(-0.8166093,-0.2601357,-5.8168184e-2,0.7202564,9.6988617,15.530984)"
       spreadMethod="reflect"
       x1="20.682898"
       y1="57.744148"
       x2="22.552622"
       y2="61.49741" /><clipPath
       clipPathUnits="userSpaceOnUse"
       id="clipPath3442"><path
         style="fill:url(#linearGradient3440);fill-opacity:1;fill-rule:evenodd;stroke:none;stroke-width:0.1;stroke-linecap:butt;stroke-linejoin:miter;stroke-miterlimit:4;stroke-opacity:1"
         d="M -7.03082,52.330923 C -6.951056,52.630565 -6.934601,53.87339 -8.062747,54.489419 C -8.903546,54.948541 -11.38699,55.325187 -13.089639,53.426259 C -14.855973,51.456305 -13.686268,49.162786 -12.370936,48.011974 C -11.686154,47.412843 -10.891313,47.170491 -10.60116,47.344489 C -10.293765,47.528826 -10.285011,47.899706 -10.530328,48.074046 C -11.119575,48.492809 -11.644091,49.683466 -11.06199,50.508123 C -10.374778,51.481691 -9.206572,51.079541 -8.60205,51.004218 C -8.102498,50.941974 -7.319476,51.24655 -7.03082,52.330923 z"
         id="path3444"
         sodipodi:nodetypes="cssssssss" /></clipPath><linearGradient
       y2="82.680611"
       x2="309.21854"
       y1="65.788521"
       x1="351.02234"
       gradientUnits="userSpaceOnUse"
       id="linearGradient8922"
       xlink:href="#linearGradient7321"
       inkscape:collect="always" /><clipPath
       id="clipPath5163"
       clipPathUnits="userSpaceOnUse"><circle
         id="circle5165"
         ry="8.0010004"
         cy="92"
         cx="343.99899"
         rx="8.0010004"
         r="36"
         style="fill:url(#linearGradient5167);fill-opacity:1"
         sodipodi:cx="343.99899"
         sodipodi:cy="92"
         sodipodi:rx="36"
         sodipodi:ry="36" /></clipPath><linearGradient
       id="linearGradient3273"><stop
         style="stop-color:#ffffff;stop-opacity:0.55035973;"
         offset="0"
         id="stop3275" /><stop
         style="stop-color:#ffffff;stop-opacity:0;"
         offset="1"
         id="stop3277" /></linearGradient><linearGradient
       id="linearGradient3290"><stop
         id="stop3292"
         offset="0"
         style="stop-color:yellow;stop-opacity:1;" /><stop
         id="stop3294"
         offset="1"
         style="stop-color:#ffb66d;stop-opacity:1;" /></linearGradient><linearGradient
       id="linearGradient3711"
       gradientUnits="userSpaceOnUse"
       x1="-84.002403"
       y1="-383.9971"
       x2="-23.516129"
       y2="-383.9975"
       gradientTransform="matrix(0,1,-1,0,-39.9985,140.0029)"><stop
         offset="0"
         style="stop-color:white;stop-opacity:1;"
         id="stop3713" /><stop
         offset="1"
         style="stop-color:white;stop-opacity:0;"
         id="stop3715" /></linearGradient><linearGradient
       id="linearGradient4770"
       gradientUnits="userSpaceOnUse"
       x1="-84.002403"
       y1="-383.9971"
       x2="-12.0029"
       y2="-383.9971"
       gradientTransform="matrix(0,1,-1,0,-39.9985,140.0029)"><stop
         offset="0"
         style="stop-color:#ffbe00;stop-opacity:1"
         id="stop4772" /><stop
         offset="1"
         style="stop-color:#f5d600;stop-opacity:0;"
         id="stop4774" /></linearGradient><linearGradient
       id="linearGradient5958"
       gradientUnits="userSpaceOnUse"
       x1="-84.002403"
       y1="-383.9971"
       x2="-12.0029"
       y2="-383.9971"
       gradientTransform="matrix(0,1,-1,0,-39.9985,140.0029)"><stop
         offset="0"
         style="stop-color:#8c0000;stop-opacity:1;"
         id="stop5960" /><stop
         offset="1"
         style="stop-color:#bf0000;stop-opacity:1;"
         id="stop5962" /></linearGradient><linearGradient
       id="linearGradient6740"><stop
         id="stop6742"
         offset="0"
         style="stop-color:#4d0000;stop-opacity:0;" /><stop
         style="stop-color:#4d0000;stop-opacity:1;"
         offset="0.5"
         id="stop6748" /><stop
         id="stop6744"
         offset="1"
         style="stop-color:#4d0000;stop-opacity:0;" /></linearGradient><linearGradient
       id="linearGradient7321"><stop
         id="stop7323"
         offset="0"
         style="stop-color:#8c0000;stop-opacity:1;" /><stop
         id="stop7325"
         offset="1"
         style="stop-color:#650000;stop-opacity:1;" /></linearGradient><linearGradient
       id="linearGradient4296"><stop
         style="stop-color:#ff0000;stop-opacity:1;"
         offset="0"
         id="stop4298" /><stop
         style="stop-color:#650000;stop-opacity:1;"
         offset="1"
         id="stop4300" /></linearGradient><radialGradient
       inkscape:collect="always"
       xlink:href="#linearGradient3667"
       id="radialGradient3585"
       gradientUnits="userSpaceOnUse"
       gradientTransform="matrix(0.6662862,-0.6560105,0.9893764,1.0048737,31.05592,226.43791)"
       cx="345.80753"
       cy="85.250488"
       fx="345.80753"
       fy="85.250488"
       r="36" /><radialGradient
       inkscape:collect="always"
       xlink:href="#linearGradient4770"
       id="radialGradient3637"
       gradientUnits="userSpaceOnUse"
       gradientTransform="matrix(0.6662862,-0.6560105,0.9893764,1.0048737,31.05592,226.43791)"
       cx="345.80753"
       cy="85.250488"
       fx="345.80753"
       fy="85.250488"
       r="36" /><radialGradient
       inkscape:collect="always"
       xlink:href="#linearGradient3681"
       id="radialGradient3655"
       gradientUnits="userSpaceOnUse"
       gradientTransform="matrix(0.6662862,-0.6560105,0.9893764,1.0048737,31.05592,226.43791)"
       cx="345.80753"
       cy="85.250488"
       fx="345.80753"
       fy="85.250488"
       r="36" /><linearGradient
       inkscape:collect="always"
       xlink:href="#linearGradient3722"
       id="linearGradient3728"
       x1="160.29355"
       y1="123.12172"
       x2="241.80727"
       y2="71.63022"
       gradientUnits="userSpaceOnUse" /><clipPath
       clipPathUnits="userSpaceOnUse"
       id="clipPath3739"><path
         sodipodi:nodetypes="cssssssss"
         id="path3741"
         d="M 241.39794,87.718739 C 242.42021,91.558959 242.63109,107.48707 228.17265,115.38218 C 217.39688,121.26631 185.56879,126.0935 163.74745,101.75661 C 141.10992,76.509516 156.10099,47.115514 172.95843,32.366608 C 181.73467,24.688094 191.92144,21.581982 195.64007,23.811985 C 199.57968,26.174506 199.69187,30.927745 196.54786,33.162105 C 188.99601,38.528978 182.27376,53.788606 189.73403,64.357538 C 198.54141,76.834788 213.51326,71.680791 221.26088,70.71548 C 227.6632,69.917806 237.69849,73.821209 241.39794,87.718739 z"
         style="fill:url(#linearGradient3728);fill-opacity:1;fill-rule:evenodd;stroke:none;stroke-width:0.1;stroke-linecap:butt;stroke-linejoin:miter;stroke-miterlimit:4;stroke-opacity:1" /></clipPath><radialGradient
       inkscape:collect="always"
       xlink:href="#light100to0"
       id="radialGradient3839"
       cx="63.782036"
       cy="10.506776"
       fx="63.782036"
       fy="10.506776"
       r="2.5240418"
       gradientTransform="matrix(1,0,0,1.2046138,0,-2.1498311)"
       gradientUnits="userSpaceOnUse" /><radialGradient
       inkscape:collect="always"
       xlink:href="#light100to0"
       id="radialGradient3843"
       gradientUnits="userSpaceOnUse"
       gradientTransform="matrix(1,0,0,1.2046138,0,-2.1498311)"
       cx="63.782036"
       cy="10.506776"
       fx="63.782036"
       fy="10.506776"
       r="2.5240418" /><radialGradient
       inkscape:collect="always"
       xlink:href="#light100to0"
       id="radialGradient3847"
       gradientUnits="userSpaceOnUse"
       gradientTransform="matrix(1,0,0,1.2046138,0,-2.1498311)"
       cx="63.782036"
       cy="10.506776"
       fx="63.782036"
       fy="10.506776"
       r="2.5240418" /><linearGradient
       id="linearGradient11"
       inkscape:collect="always"><stop
         style="stop-color:#f9fdff;stop-opacity:0;"
         offset="0"
         id="stop12-9" /><stop
         style="stop-color:#f8fdff;stop-opacity:0;"
         offset="0.37806126"
         id="stop20-1" /><stop
         style="stop-color:#7e8081;stop-opacity:1;"
         offset="0.5"
         id="stop16-9" /><stop
         style="stop-color:#3a3b3b;stop-opacity:1;"
         offset="0.75"
         id="stop18-6" /><stop
         style="stop-color:#f9fdff;stop-opacity:0;"
         offset="1"
         id="stop14-9" /></linearGradient><linearGradient
       id="linearGradient7"
       inkscape:collect="always"><stop
         style="stop-color:#7d7d7d;stop-opacity:1;"
         offset="0"
         id="stop8-3" /><stop
         style="stop-color:#000000;stop-opacity:1;"
         offset="1"
         id="stop10-3" /></linearGradient><linearGradient
       id="linearGradient5"
       inkscape:collect="always"><stop
         style="stop-color:#f3ffff;stop-opacity:0;"
         offset="0"
         id="stop5-8" /><stop
         style="stop-color:#000000;stop-opacity:1;"
         offset="0.31396723"
         id="stop7-0" /><stop
         style="stop-color:#000000;stop-opacity:1;"
         offset="1"
         id="stop6-5" /></linearGradient><linearGradient
       id="redtodarkred"><stop
         style="stop-color:#ff0000;stop-opacity:1.0000000;"
         offset="0.0000000"
         id="stop3856" /><stop
         style="stop-color:#920000;stop-opacity:1.0000000;"
         offset="1.0000000"
         id="stop3855" /></linearGradient><linearGradient
       id="orangelesstoyelow"><stop
         style="stop-color:#ff7d00;stop-opacity:1.0000000;"
         offset="0.0000000"
         id="stop2689" /><stop
         style="stop-color:#ffbe00;stop-opacity:1.0000000;"
         offset="0.25358382"
         id="stop2690" /><stop
         style="stop-color:#ffff00;stop-opacity:1.0000000;"
         offset="1.0000000"
         id="stop2691" /></linearGradient><linearGradient
       id="XMLID_1_"
       gradientUnits="userSpaceOnUse"
       x1="100.6055"
       y1="37.1133"
       x2="100.6055"
       y2="139.7401"><stop
         offset="0"
         style="stop-color:#FFA700"
         id="stop9-4" /><stop
         offset="0.691"
         style="stop-color:#FFFF00"
         id="stop11-0" /><stop
         offset="0.792"
         style="stop-color:#FFFC00"
         id="stop13-0" /><stop
         offset="0.8546"
         style="stop-color:#FFF400"
         id="stop15-4" /><stop
         offset="0.9067"
         style="stop-color:#FFE500"
         id="stop17-6" /><stop
         offset="0.953"
         style="stop-color:#FFD100"
         id="stop19-2" /><stop
         offset="0.9952"
         style="stop-color:#FFB700"
         id="stop21-6" /><stop
         offset="1"
         style="stop-color:#FFB300"
         id="stop23-7" /><midPointStop
         offset="0"
         style="stop-color:#FFA700"
         id="midPointStop25" /><midPointStop
         offset="0.5"
         style="stop-color:#FFA700"
         id="midPointStop27" /><midPointStop
         offset="0.691"
         style="stop-color:#FFFF00"
         id="midPointStop29" /><midPointStop
         offset="0.7952"
         style="stop-color:#FFFF00"
         id="midPointStop31" /><midPointStop
         offset="1"
         style="stop-color:#FFB300"
         id="midPointStop33" /></linearGradient><linearGradient
       id="light75to0"><stop
         style="stop-color:#ffffff;stop-opacity:0.72916669;"
         offset="0.0000000"
         id="stop2769" /><stop
         style="stop-color:#ffffff;stop-opacity:0.0000000;"
         offset="1.0000000"
         id="stop2770" /></linearGradient><linearGradient
       inkscape:collect="always"
       xlink:href="#light100to25to0"
       id="linearGradient9038"
       gradientUnits="userSpaceOnUse"
       gradientTransform="matrix(0.583981,-0.05632389,0.240585,1.738144,24.49778,48.99001)"
       x1="117.48062"
       y1="0.76412511"
       x2="122.9659"
       y2="-4.4011321" /><linearGradient
       id="light100to25to0"><stop
         style="stop-color:#ffffff;stop-opacity:1.0000000;"
         offset="0.0000000"
         id="stop2785" /><stop
         style="stop-color:#ffffff;stop-opacity:0.28749999;"
         offset="0.50000000"
         id="stop2786" /><stop
         style="stop-color:#ffffff;stop-opacity:0.0000000;"
         offset="1.0000000"
         id="stop2787" /></linearGradient><radialGradient
       inkscape:collect="always"
       xlink:href="#light100to25to0"
       id="radialGradient9037"
       gradientUnits="userSpaceOnUse"
       gradientTransform="matrix(0.407853,-0.182096,0.912747,2.044345,0,0)"
       cx="151.53014"
       cy="30.823576"
       fx="151.53014"
       fy="30.823576"
       r="35.001339" /><linearGradient
       inkscape:collect="always"
       xlink:href="#linearGradient5"
       id="linearGradient6"
       x1="61.454903"
       y1="55.025368"
       x2="81.836364"
       y2="40.368974"
       gradientUnits="userSpaceOnUse" /><linearGradient
       inkscape:collect="always"
       xlink:href="#linearGradient7"
       id="linearGradient10"
       x1="16.19108"
       y1="47.294064"
       x2="83.646613"
       y2="40.351562"
       gradientUnits="userSpaceOnUse" /><linearGradient
       inkscape:collect="always"
       xlink:href="#linearGradient11"
       id="linearGradient14-5"
       x1="21.856924"
       y1="75.852875"
       x2="81.836364"
       y2="40.368974"
       gradientUnits="userSpaceOnUse" /><linearGradient
       gradientTransform="matrix(0,0.0116,0.0204,0,17.205556,44.532653)"
       gradientUnits="userSpaceOnUse"
       id="gradient5"
       spreadMethod="pad"
       x1="-819.20001"
       x2="819.20001"><stop
         offset="0.0"
         stop-color="#9999cc"
         id="stop74" /><stop
         offset="1.0"
         stop-color="#666699"
         id="stop76" /></linearGradient><radialGradient
       cx="0"
       cy="0"
       gradientTransform="matrix(0.0311,0,0,0.0311,8.1055556,42.032653)"
       gradientUnits="userSpaceOnUse"
       id="gradient6"
       r="819.20001"
       spreadMethod="pad"><stop
         offset="0.0"
         stop-color="#ffffff"
         id="stop79" /><stop
         offset="0.2823529411764706"
         stop-color="#dddddd"
         id="stop81" /><stop
         offset="1.0"
         stop-color="#9999cc"
         id="stop83" /></radialGradient><linearGradient
       gradientTransform="matrix(-0.0059,-0.0057,-0.007,0.0072,22.305556,42.032653)"
       gradientUnits="userSpaceOnUse"
       id="gradient7"
       spreadMethod="pad"
       x1="-819.20001"
       x2="819.20001"><stop
         offset="0.0"
         stop-color="#666699"
         id="stop86" /><stop
         offset="1.0"
         stop-color="#9999cc"
         id="stop88" /></linearGradient><linearGradient
       gradientTransform="matrix(-0.0027,0.0108,0.0081,0.002,21.605556,40.132653)"
       gradientUnits="userSpaceOnUse"
       id="gradient8"
       spreadMethod="pad"
       x1="-819.20001"
       x2="819.20001"><stop
         offset="0.0"
         stop-color="#333399"
         id="stop91" /><stop
         offset="0.27450980392156865"
         stop-color="#6666cc"
         id="stop93" /><stop
         offset="1.0"
         stop-color="#999999"
         id="stop95" /></linearGradient><linearGradient
       gradientTransform="matrix(-0.0177,-0.0171,-0.0191,0.0197,19.255556,21.332653)"
       gradientUnits="userSpaceOnUse"
       id="gradient9"
       spreadMethod="pad"
       x1="-819.20001"
       x2="819.20001"><stop
         offset="0.0"
         stop-color="#6666cc"
         id="stop98" /><stop
         offset="1.0"
         stop-color="#999999"
         id="stop100" /></linearGradient><radialGradient
       cx="0"
       cy="0"
       gradientTransform="matrix(0.0404,0,0,0.0404,19.005556,5.5826531)"
       gradientUnits="userSpaceOnUse"
       id="gradient10"
       r="819.20001"
       spreadMethod="pad"><stop
         offset="0.0"
         stop-color="#ccffff"
         id="stop103" /><stop
         offset="0.09411764705882353"
         stop-color="#ccffff"
         id="stop105" /><stop
         offset="1.0"
         stop-color="#0099ff"
         id="stop107" /></radialGradient><linearGradient
       gradientTransform="matrix(-0.0121,-0.0117,-0.0182,0.0189,21.505556,22.382653)"
       gradientUnits="userSpaceOnUse"
       id="gradient11"
       spreadMethod="pad"
       x1="-819.20001"
       x2="819.20001"><stop
         offset="0.0"
         stop-color="#9999cc"
         id="stop110" /><stop
         offset="1.0"
         stop-color="#ffffff"
         id="stop112" /></linearGradient><linearGradient
       gradientTransform="matrix(-0.0141,0.0075,9e-4,0.0018,21.455556,32.682653)"
       gradientUnits="userSpaceOnUse"
       id="gradient12"
       spreadMethod="pad"
       x1="-819.20001"
       x2="819.20001"><stop
         offset="0.0"
         stop-color="#6666cc"
         id="stop115" /><stop
         offset="0.0784313725490196"
         stop-color="#9999cc"
         id="stop117" /><stop
         offset="1.0"
         stop-color="#ffffff"
         id="stop119" /></linearGradient><linearGradient
       gradientTransform="matrix(-0.0021,0.006,0.0051,0.0017,19.155556,42.632653)"
       gradientUnits="userSpaceOnUse"
       id="gradient13"
       spreadMethod="pad"
       x1="-819.20001"
       x2="819.20001"><stop
         offset="0.0"
         stop-color="#9999cc"
         id="stop122" /><stop
         offset="1.0"
         stop-color="#eeeeee"
         id="stop124" /></linearGradient><linearGradient
       id="l"
       gradientTransform="matrix(1.5078887,0.40403789,0.40403755,-1.5078898,15.113751,42.492446)"
       gradientUnits="userSpaceOnUse"
       x1="8"
       x2="24.00001"
       xlink:href="#linearGradient4300"
       y1="24.000031"
       y2="8" /><linearGradient
       inkscape:collect="always"
       id="linearGradient4300"><stop
         style="stop-color:#e51561"
         id="stop4302" /><stop
         offset="0.312499"
         style="stop-color:#e4156c"
         id="stop4304" /><stop
         offset="0.562499"
         style="stop-color:#e71e2c"
         id="stop4306" /><stop
         offset="0.75"
         style="stop-color:#e8301e"
         id="stop4308" /><stop
         offset="1"
         style="stop-color:#e6320e"
         id="stop4310" /></linearGradient><linearGradient
       id="m"
       gradientTransform="matrix(-1.5078887,-0.40403789,-0.40403755,1.5078898,106.88621,-10.492446)"
       gradientUnits="userSpaceOnUse"
       x1="8"
       x2="24.00001"
       xlink:href="#linearGradient4328"
       y1="23.999973"
       y2="8" /><linearGradient
       inkscape:collect="always"
       id="linearGradient4328"><stop
         style="stop-color:#bec900"
         id="stop4330" /><stop
         offset="0.312499"
         style="stop-color:#9ec80a"
         id="stop4332" /><stop
         offset="0.562499"
         style="stop-color:#71b93d"
         id="stop4334" /><stop
         offset="0.75"
         style="stop-color:#35a48f"
         id="stop4336" /><stop
         offset="1"
         style="stop-color:#018fca"
         id="stop4338" /></linearGradient><linearGradient
       id="n"
       gradientTransform="matrix(-1.5078887,-0.40403789,0.40403755,-1.5078898,87.492393,61.88626)"
       gradientUnits="userSpaceOnUse"
       x1="8"
       x2="24.00001"
       xlink:href="#linearGradient4316"
       y1="24"
       y2="8" /><linearGradient
       inkscape:collect="always"
       id="linearGradient4316"><stop
         style="stop-color:#c1cc00"
         id="stop4318" /><stop
         offset="0.312499"
         style="stop-color:#dfcd00"
         id="stop4320" /><stop
         offset="0.562499"
         style="stop-color:#f0cc00"
         id="stop4322" /><stop
         offset="0.75"
         style="stop-color:#fd8c08"
         id="stop4324" /><stop
         offset="1"
         style="stop-color:#f25c13"
         id="stop4326" /></linearGradient><linearGradient
       id="i"
       gradientTransform="matrix(-0.40403755,-1.5078898,-1.5078887,0.40403789,106.88621,42.492466)"
       gradientUnits="userSpaceOnUse"
       x1="8"
       x2="24.00001"
       xlink:href="#linearGradient4328"
       y1="23.999973"
       y2="8" /><linearGradient
       id="q"
       gradientTransform="matrix(-1.1038511,-1.103852,-1.1038511,1.103852,113.98484,16.00003)"
       gradientUnits="userSpaceOnUse"
       x1="8"
       x2="24.00001"
       xlink:href="#linearGradient4328"
       y1="23.999973"
       y2="8" /><linearGradient
       id="r"
       gradientTransform="matrix(0.40403755,1.5078898,-1.5078887,0.40403789,87.49235,-29.88624)"
       gradientUnits="userSpaceOnUse"
       x1="8"
       x2="24.00001"
       xlink:href="#linearGradient4288"
       y1="23.999973"
       y2="8" /><linearGradient
       inkscape:collect="always"
       id="linearGradient4288"><stop
         style="stop-color:#e81877"
         id="stop4290" /><stop
         offset="0.312499"
         style="stop-color:#dd1d8c"
         id="stop4294-9" /><stop
         offset="0.562499"
         style="stop-color:#6d57b1"
         id="stop4296" /><stop
         offset="0.75"
         style="stop-color:#2a78c1"
         id="stop4298-0" /><stop
         offset="1"
         style="stop-color:#018dcb"
         id="stop4292-2" /></linearGradient><linearGradient
       id="k"
       gradientTransform="matrix(1.5078887,0.40403789,-0.40403755,1.5078898,34.50755,-29.88626)"
       gradientUnits="userSpaceOnUse"
       x1="8"
       x2="24.00001"
       xlink:href="#linearGradient4288"
       y1="23.999973"
       y2="8" /><linearGradient
       id="p"
       gradientTransform="matrix(1.1038511,1.103852,1.1038511,-1.103852,8.015131,16.00003)"
       gradientUnits="userSpaceOnUse"
       x1="8"
       x2="24.00001"
       xlink:href="#linearGradient4300"
       y1="24.000031"
       y2="8" /><linearGradient
       id="h"
       gradientTransform="matrix(-1.1038511,-1.103852,1.1038511,-1.103852,60.999973,68.984915)"
       gradientUnits="userSpaceOnUse"
       x1="8"
       x2="24.00001"
       xlink:href="#linearGradient4316"
       y1="24"
       y2="8" /><linearGradient
       id="e"
       gradientTransform="matrix(-0.40403755,-1.5078898,1.5078887,-0.40403789,34.507553,61.88627)"
       gradientUnits="userSpaceOnUse"
       x1="8"
       x2="24.00001"
       xlink:href="#linearGradient4316"
       y1="24"
       y2="8" /><linearGradient
       id="j"
       gradientTransform="matrix(0.40403755,1.5078898,1.5078887,-0.40403789,15.113754,-10.492425)"
       gradientUnits="userSpaceOnUse"
       x1="8"
       x2="24.00001"
       xlink:href="#linearGradient4300"
       y1="24.000031"
       y2="8" /><linearGradient
       id="o"
       gradientTransform="matrix(1.1038511,1.103852,-1.1038511,1.103852,60.99999,-36.98486)"
       gradientUnits="userSpaceOnUse"
       x1="8"
       x2="24.00001"
       xlink:href="#linearGradient4288"
       y1="23.999973"
       y2="8" /></defs><sodipodi:namedview
     id="base"
     pagecolor="#ffffff"
     bordercolor="#000000"
     borderopacity="0.3"
     inkscape:pageopacity="0.0"
     inkscape:pageshadow="2"
     inkscape:zoom="0.98994949"
     inkscape:cx="505.07627"
     inkscape:cy="476.792"
     inkscape:document-units="mm"
     inkscape:showpageshadow="2"
     inkscape:pagecheckerboard="0"
     inkscape:deskcolor="#d1d1d1"
     inkscape:current-layer="svg1" /><metadata
     id="metadata1"><rdf:RDF><cc:Work
         rdf:about=""><dc:format>image/svg+xml</dc:format><dc:type
           rdf:resource="http://purl.org/dc/dcmitype/StillImage" /><cc:license
           rdf:resource="http://creativecommons.org/publicdomain/zero/1.0/" /></cc:Work><cc:License
         rdf:about="http://creativecommons.org/publicdomain/zero/1.0/"><cc:permits
           rdf:resource="http://creativecommons.org/ns#Reproduction" /><cc:permits
           rdf:resource="http://creativecommons.org/ns#Distribution" /><cc:permits
           rdf:resource="http://creativecommons.org/ns#DerivativeWorks" /></cc:License></rdf:RDF></metadata><g
     id="g91"
     transform="matrix(0.81243792,0,0,0.81243792,64.095068,44.831194)"
     style="display:none"><g
       id="g5319"
       transform="matrix(5.3664544,-1.0650837,1.0038118,5.0577344,-475.29651,-16.458945)"><path
         style="fill:#000000;fill-opacity:0.1;stroke:none;stroke-width:0.330901;stroke-linejoin:round;stroke-miterlimit:4;stroke-opacity:0.0875"
         d="M 55.680183,33.80902 74.96082,78.23367 c 0.330413,0.905873 0.504488,1.681139 1.51612,1.312159 l 2.139852,-0.799218 c 1.011631,-0.368983 0.90019,-1.339885 0.569794,-2.245757 C 73.052645,61.050116 61.51232,31.059449 61.51232,31.059449 56.879163,28.664855 56.48295,30.046316 55.680183,33.80902 Z"
         id="path1816"
         sodipodi:nodetypes="ccccccc"
         transform="matrix(1.095529,-0.161395,0.06257485,0.996904,26.11163,9.028099)" /><path
         transform="matrix(0.687595,-0.33629,0.35803,0.727112,39.95577,47.0526)"
         style="fill:#000000;fill-opacity:1;stroke:none;stroke-width:0.9625;stroke-linecap:round;stroke-linejoin:round;stroke-miterlimit:4;stroke-dashoffset:0;stroke-opacity:0.0367347"
         d="m 64.887311,5.2407156 h 2.766452 c 1.305242,0 2.336284,0.9420527 2.356033,2.1097211 l 1.038309,61.3891463 c 0.01975,1.167668 -1.050791,2.10972 -2.356033,2.10972 H 65.92562 c -1.305242,0 -2.336283,-0.942052 -2.356032,-2.10972 L 62.531279,7.3504367 c -0.01975,-1.1676684 1.05079,-2.1097211 2.356032,-2.1097211 z"
         id="rect1353"
         sodipodi:nodetypes="sssssssss" /><path
         style="fill:url(#radialGradient9037);fill-opacity:1;stroke:none;stroke-width:0.9625;stroke-linecap:round;stroke-linejoin:round;stroke-miterlimit:4;stroke-dashoffset:0;stroke-opacity:0.0367347"
         d="m 65.466106,-12.653219 2.351434,-0.818474 c 1.109432,-0.386165 1.170633,0.421387 1.516427,1.414835 l 19.940531,51.659352 c 0.345793,0.993446 0.127136,2.343012 -0.982297,2.729178 l -2.185109,0.688631 c -1.109433,0.386166 -1.435384,-0.03199 -1.781177,-1.025441 L 64.087698,-10.162945 c -0.345794,-0.993448 0.268976,-2.104109 1.378408,-2.490274 z"
         id="path1976"
         transform="matrix(0.76865,-0.06678086,0.100746,0.798325,39.95577,47.0526)"
         sodipodi:nodetypes="ccccccccc" /><path
         style="fill:url(#linearGradient9038);fill-opacity:1;fill-rule:evenodd;stroke:none;stroke-width:0.253549pt;stroke-linecap:butt;stroke-linejoin:miter;stroke-opacity:1"
         d="m 87.769355,29.266184 c 5.79073,11.814124 12.208825,19.478757 16.277825,31.845742 1.96392,5.968986 1.79378,6.770446 1.05528,7.131304 C 98.30401,54.678799 93.092692,45.532364 86.294215,31.967936 c 0.655983,-0.79107 0.819155,-1.910683 1.47514,-2.701752 z"
         id="path2607"
         sodipodi:nodetypes="csccc" /><g
         id="rect1-9"
         transform="matrix(0.15871515,0.03342305,-0.0315003,0.16840299,84.684896,26.851553)"><path
           style="color:#000000;fill:#f9fdff;stroke-linecap:round;stroke-linejoin:round;stroke-miterlimit:5;-inkscape-stroke:none"
           d="m 12.487499,12.912605 13.58284,-10 c 5.919698,-3.02659323 9.053685,-0.4817641 12.128296,2.1818182 L 77.65318,52.968725 c 5.056294,5.806018 6.075623,12.314117 0,20.05612 -6.603031,6.41133 -13.584803,7.532091 -20.67375,4.727273 L 52.851135,73.206663 13.032953,25.150543 C 9.8130059,20.906617 9.1639107,17.580517 12.487499,12.912605 Z"
           id="path1-8" /><path
           style="color:#000000;fill:url(#linearGradient14-5);stroke:none;stroke-linecap:round;stroke-linejoin:round;stroke-miterlimit:5;-inkscape-stroke:none"
           d="m 12.487499,12.912605 13.58284,-10 c 5.919698,-3.02659323 9.053685,-0.4817641 12.128296,2.1818182 L 77.65318,52.968725 c 5.056294,5.806018 6.075623,12.314117 0,20.05612 -6.603031,6.41133 -13.584803,7.532091 -20.67375,4.727273 L 52.851135,73.206663 13.032953,25.150543 C 9.8130059,20.906617 9.1639107,17.580517 12.487499,12.912605 Z"
           id="path3" /><path
           style="color:#000000;fill:url(#linearGradient6);stroke-linecap:round;stroke-linejoin:round;stroke-miterlimit:5;-inkscape-stroke:none"
           d="m 12.487499,12.912605 13.58284,-10 c 5.919698,-3.02659323 9.053685,-0.4817641 12.128296,2.1818182 L 77.65318,52.968725 c 5.056294,5.806018 6.075623,12.314117 0,20.05612 -6.603031,6.41133 -13.584803,7.532091 -20.67375,4.727273 L 52.851135,73.206663 13.032953,25.150543 C 9.8130059,20.906617 9.1639107,17.580517 12.487499,12.912605 Z"
           id="path4-7" /><path
           style="color:#000000;fill:url(#linearGradient10);stroke-linecap:round;stroke-linejoin:round;stroke-miterlimit:5;-inkscape-stroke:none"
           d="M 29.828125,-0.17773437 C 28.407863,-0.00450178 26.875192,0.46786398 25.246094,1.3007812 A 1.8101809,1.8101809 0 0 0 24.998047,1.4550781 L 11.414063,11.455078 a 1.8101809,1.8101809 0 0 0 -0.400391,0.408203 c -1.811895,2.54477 -2.6998245,5.013976 -2.5117189,7.464844 0.1881056,2.450868 1.3776463,4.65932 3.0898439,6.916016 a 1.8101809,1.8101809 0 0 0 0.04687,0.06055 l 39.818359,48.056641 a 1.8101809,1.8101809 0 0 0 0.05469,0.0625 l 4.126953,4.544922 a 1.8101809,1.8101809 0 0 0 0.675781,0.466797 c 7.620371,3.015081 15.614733,1.670762 22.599609,-5.111328 a 1.8101809,1.8101809 0 0 0 0.16211,-0.181641 c 3.220224,-4.103444 4.707453,-8.112968 4.560547,-11.941406 -0.146906,-3.828438 -1.91059,-7.311713 -4.619141,-10.421875 L 39.595703,3.9433594 A 1.8101809,1.8101809 0 0 0 39.382812,3.7265625 C 37.831089,2.3822805 36.096962,0.87170068 33.736328,0.140625 32.556011,-0.22491284 31.248387,-0.35096697 29.828125,-0.17773437 Z m 0.404297,3.56054687 c 0.928354,-0.1176041 1.706127,-0.0085 2.433594,0.2167969 1.423722,0.4409191 2.770013,1.5057643 4.253906,2.7871093 L 76.255859,54.119141 a 1.8101809,1.8101809 0 0 0 0.0332,0.03906 c 2.347739,2.69585 3.622543,5.36903 3.730469,8.181641 0.106872,2.785137 -0.939933,5.875827 -3.732422,9.46875 -6.077118,5.846157 -11.925196,6.764802 -18.314453,4.345703 l -3.753906,-4.134766 -39.744141,-47.96289 -0.0039,-0.0059 C 12.966294,22.0666 12.221741,20.491246 12.111331,19.052692 12.004506,17.660841 12.466655,16.164178 13.859378,14.150349 L 26.970703,4.4980469 C 28.26002,3.8480636 29.325198,3.4977397 30.232422,3.3828125 Z"
           id="path2-2"
           inkscape:label="frame" /></g></g><path
       id="rect20"
       style="fill:#fdfd00;fill-opacity:1;stroke:#000000;stroke-width:1;stroke-linecap:round;stroke-linejoin:round;stroke-miterlimit:5;stroke-dasharray:none;stroke-opacity:1;paint-order:normal"
       d="m 11.205759,11.053596 2.503946,7.975495 -4.4307715,-2.313405 -0.890618,1.705764 4.4307675,2.313406 -7.9754945,2.503944 0.810668,2.582116 7.9746045,-2.503663 -2.312793,4.429599 1.706042,0.891509 2.313406,-4.43077 2.503662,7.974605 2.582118,-0.810668 -2.503385,-7.973712 4.429602,2.312793 0.89123,-1.706936 -4.429598,-2.312794 7.973712,-2.503383 -0.810669,-2.582117 -7.974606,2.503663 2.313411,-4.43077 -1.706659,-0.890338 -2.312794,4.429598 -2.503662,-7.974603 z" /><path
       id="path22"
       style="fill:#fdfd00;fill-opacity:1;stroke:#000000;stroke-width:1;stroke-linecap:round;stroke-linejoin:round;stroke-miterlimit:5;stroke-dasharray:none;stroke-opacity:1"
       d="M 62.431576,0.74643278 61.675903,12.805031 56.89696,7.3870786 l -2.085812,1.8398043 4.77894,5.4179521 -12.058595,-0.755675 -0.244654,3.904047 12.057249,0.75559 -5.416519,4.777681 1.839718,2.087158 5.417952,-4.778944 -0.755594,12.057249 3.904049,0.244655 0.755504,-12.055901 4.777686,5.41652 2.087243,-1.841068 -4.777678,-5.41652 12.055899,0.755507 0.244653,-3.904047 -12.057252,-0.755592 5.417959,-4.778941 -1.841156,-2.0858978 -5.416519,4.7776808 0.755592,-12.05724812 z" /><path
       id="path23"
       style="fill:#fdfd00;fill-opacity:1;stroke:#000000;stroke-width:1;stroke-linecap:round;stroke-linejoin:round;stroke-miterlimit:5;stroke-dasharray:none;stroke-opacity:1"
       d="m 123.71004,3.6975997 -5.14454,15.7003913 -4.46309,-8.813365 -3.39298,1.718202 4.46309,8.813365 -15.700402,-5.14454 -1.665575,5.0831 15.698637,5.143963 -8.81102,4.461902 1.71762,3.394734 8.81336,-4.463079 -5.14399,15.698629 5.08312,1.665583 5.14338,-15.696884 4.46192,8.811037 3.39531,-1.719382 -4.46191,-8.811034 15.69689,5.143393 1.66557,-5.083104 -15.69863,-5.143965 8.81337,-4.463071 -1.71997,-3.393562 -8.81104,4.461896 5.14396,-15.6986333 z" /><path
       id="path24"
       style="fill:#fdfd00;fill-opacity:1;stroke:#000000;stroke-width:1;stroke-linecap:round;stroke-linejoin:round;stroke-miterlimit:5;stroke-dasharray:none;stroke-opacity:1"
       d="m 158.64277,53.172288 -7.56971,11.150785 -1.51411,-7.915144 -3.04719,0.5829 1.51412,7.915144 -11.1508,-7.569715 -2.45074,3.610137 11.14954,7.568864 -7.91304,1.513704 0.58205,3.048425 7.91514,-1.5141 -7.56889,11.149527 3.61016,2.450751 7.56801,-11.148298 1.51372,7.913057 3.04926,-0.583303 -1.5137,-7.913049 11.1483,7.568024 2.45074,-3.61014 -11.14954,-7.568865 7.91515,-1.514092 -0.58417,-3.048037 -7.91304,1.513699 7.56885,-11.14954 z" /><path
       id="path25"
       style="fill:#fdfd00;fill-opacity:1;stroke:#000000;stroke-width:1;stroke-linecap:round;stroke-linejoin:round;stroke-miterlimit:5;stroke-dasharray:none;stroke-opacity:1"
       d="m 157.58969,98.889827 -8.81454,5.602473 1.35808,-6.095606 -2.3467,-0.522838 -1.35807,6.095614 -5.60249,-8.814551 -2.85376,1.813837 5.60186,8.813554 -6.09399,-1.35772 -0.52382,2.34732 6.09559,1.35808 -8.81356,5.60183 1.81385,2.85378 8.81256,-5.60123 -1.35771,6.094 2.3483,0.52319 1.35772,-6.09399 5.60122,8.81257 2.85376,-1.81384 -5.60184,-8.81355 6.0956,1.35809 0.5222,-2.34769 -6.09398,-1.35772 8.81354,-5.60186 z" /><path
       id="path26"
       style="fill:#fdfd00;fill-opacity:1;stroke:#000000;stroke-width:1;stroke-linecap:round;stroke-linejoin:round;stroke-miterlimit:5;stroke-dasharray:none;stroke-opacity:1"
       d="m 128.79116,109.17502 -8.81454,5.60247 1.35808,-6.09561 -2.3467,-0.52283 -1.35807,6.09561 -5.60249,-8.81455 -2.85376,1.81384 5.60186,8.81355 -6.09399,-1.35772 -0.52382,2.34732 6.09559,1.35808 -8.81356,5.60183 1.81385,2.85378 8.81256,-5.60123 -1.35771,6.094 2.3483,0.52319 1.35772,-6.09399 5.60122,8.81257 2.85376,-1.81384 -5.60184,-8.81355 6.0956,1.35809 0.5222,-2.34769 -6.09398,-1.35772 8.81354,-5.60186 z" /><path
       id="path27"
       style="fill:#fdfd00;fill-opacity:1;stroke:#000000;stroke-width:1;stroke-linecap:round;stroke-linejoin:round;stroke-miterlimit:5;stroke-dasharray:none;stroke-opacity:1"
       d="m 87.733356,125.97677 -10.368736,-1.25423 4.914266,-3.85368 -1.4836,-1.8919 -4.914259,3.85368 1.254224,-10.36875 -3.356944,-0.40606 -1.254078,10.36758 -3.852652,-4.91296 -1.893058,1.48345 3.853662,4.91426 -10.367573,-1.25411 -0.406065,3.35697 10.366419,1.25393 -4.91296,3.85267 1.484609,1.89319 4.912962,-3.85265 -1.253952,10.36642 3.356945,0.40606 1.254093,-10.36757 3.853663,4.91427 1.892039,-1.48477 -3.852644,-4.91295 10.367576,1.25407 z" /><path
       id="path28"
       style="fill:#fdfd00;fill-opacity:1;stroke:#000000;stroke-width:1;stroke-linecap:round;stroke-linejoin:round;stroke-miterlimit:5;stroke-dasharray:none;stroke-opacity:1"
       d="m 50.963803,103.35421 -7.308068,-0.884 3.463661,-2.716141 -1.045667,-1.333445 -3.463657,2.716146 0.883999,-7.308083 -2.366033,-0.286198 -0.883896,7.307251 -2.715418,-3.462738 -1.33426,1.045562 2.716129,3.463656 -7.307249,-0.88392 -0.286202,2.36605 7.306436,0.8838 -3.462742,2.71543 1.046379,1.33435 3.462743,-2.71542 -0.883808,7.30644 2.366034,0.2862 0.883907,-7.30725 2.71613,3.46367 1.333542,-1.0465 -2.715411,-3.46273 7.307251,0.88389 z" /><path
       id="path29"
       style="fill:#fdfd00;fill-opacity:1;stroke:#000000;stroke-width:1;stroke-linecap:round;stroke-linejoin:round;stroke-miterlimit:5;stroke-dasharray:none;stroke-opacity:1"
       d="m 62.118797,79.131575 -5.239747,-2.532926 3.286339,-1.144464 -0.4406,-1.26518 -3.286337,1.144468 2.53293,-5.239757 -1.696402,-0.820049 -2.532639,5.239162 -1.144159,-3.285463 -1.265762,0.440313 1.144455,3.286331 -5.239155,-2.532656 -0.820056,1.696413 5.238578,2.532358 -3.285469,1.144167 0.4409,1.26604 3.285467,-1.14416 -2.532365,5.238578 1.696402,0.820051 2.532647,-5.239159 1.144452,3.286342 1.265466,-0.441197 -1.144156,-3.285455 5.239163,2.532635 z" /></g><g
     id="g2"
     transform="matrix(4.6716407,0,0,4.6716407,41.751185,1.6253005)"><path
       inkscape:connector-curvature="0"
       style="fill:url(#gradient5);fill-rule:evenodd;stroke:none"
       id="path28-7"
       d="m 0.55555556,44.482653 q 0,3.95 4.90000004,6.75 4.8500004,2.8 11.8000004,2.8 6.9,0 11.8,-2.8 4.85,-2.8 4.85,-6.75 0,-3.95 -4.85,-6.7 -4.9,-2.8 -11.8,-2.8 -6.95,0 -11.8000004,2.8 -4.90000004,2.75 -4.90000004,6.7" /><path
       inkscape:connector-curvature="0"
       style="fill:url(#gradient6);fill-rule:evenodd;stroke:none"
       id="path30"
       d="m 1.6555556,44.332653 q 0,3.65 4.5,6.2 4.5500004,2.6 10.9500004,2.6 6.4,0 10.95,-2.6 4.55,-2.55 4.55,-6.2 0,-3.6 -4.55,-6.2 -4.55,-2.55 -10.95,-2.55 -6.4,0 -10.9500004,2.55 -4.5,2.6 -4.5,6.2" /><path
       inkscape:connector-curvature="0"
       style="fill:url(#gradient7);fill-rule:evenodd;stroke:none"
       id="path32"
       d="m 26.005556,31.632653 0.9,5.25 -0.25,-5.5 -0.65,0.25 -0.35,-2 q -1.4,-0.7 -1.9,-0.45 l -7.95,5.35 q -1.1,0.45 -1,0.75 1.65,3.25 2.65,6.45 l 1.75,7.1 2.45,1.5 q 4.75,-1.45 6.25,-3.05 0.15,-2.85 -0.75,-8.7 l -0.25,-1.7 v 6 q -2.25,2.05 -6,2.95 l 0.7,3.5 -1.65,-4.3 q -0.7,-3.8 -1.8,-6.5 l -1.5,-3.3 9.35,-3.6" /><path
       inkscape:connector-curvature="0"
       style="fill:url(#gradient8);fill-rule:evenodd;stroke:none"
       id="path34"
       d="m 26.905556,31.432653 -10.5,4.1 q 3.15,5.8 4.35,12.55 l 1,0.9 q 4.5,-1.6 6.15,-3.1 0,-8.15 -1,-14.45" /><path
       inkscape:connector-curvature="0"
       style="fill:url(#gradient9);fill-rule:evenodd;stroke:none"
       id="path36"
       d="m 8.6055556,39.882653 25.1000004,-10.8 q 1.1,-0.5 0.95,-1.95 l -2.9,-25.4999999 q -0.3,-2.00000004 -1.8,-1.55000004 L 1.9055556,5.0326531 q -2.45000004,0.5 -1.75000004,2.65 0.45,1.25 6.85000004,31.7999999 0.45,0.8 1.6,0.4" /><g
       id="g1"><path
         inkscape:connector-curvature="0"
         style="display:inline;fill:url(#gradient10);fill-rule:evenodd;stroke:none"
         id="path38"
         d="m 9.2055556,37.132653 23.8500004,-9.55 -3,-22.9999999 -25.4500004,5.3 4.6,27.2499999" /></g><path
       inkscape:connector-curvature="0"
       style="fill:url(#gradient11);fill-rule:evenodd;stroke:none"
       id="path40"
       d="m 8.2055556,38.632653 -5.65,-30.6499999 q 0.3,-1 0.7,-1.15 l 26.5500004,-4.9 q 0.8,-1.20000004 -0.55,-0.9 l -27.0000004,5 q -0.9,0.3 -1,1.65 l 6.25,31.4499999 q 0.05,0.4 0.5,0.25 0.4,-0.1 0.2,-0.75" /><path
       inkscape:connector-curvature="0"
       style="fill:url(#gradient12);fill-rule:evenodd;stroke:none"
       id="path42"
       d="m 9.2055556,37.132653 q 0,0.65 0.65,0.4 l 23.9500004,-9.8 -0.75,-0.2 -23.8500004,9.6" /><path
       inkscape:connector-curvature="0"
       style="fill:url(#gradient13);fill-rule:evenodd;stroke:none"
       id="path44"
       d="m 18.855556,42.082653 1.35,5.9 1.45,0.9 q -0.45,-5.4 -2.2,-11.35 -1.35,-0.65 -2.75,-1.25 1.65,3.9 2.15,5.8" /></g><g
     id="g41"
     style="clip-rule:nonzero;display:inline;fill-rule:nonzero;stroke:none;stroke-width:0;stroke-miterlimit:4"
     transform="matrix(4.0763659,-1.1951019,0.74879524,4.277952,-1892.4763,-1708.3243)"><path
       d="M 45,11.712891 44.914572,33.803559 56.558119,32.753332 61,16 Z"
       fill="url(#l)"
       transform="translate(339.57143,513.798)"
       id="path24-4"
       style="fill:url(#l)"
       sodipodi:nodetypes="ccccc" /><path
       d="M 64.010552,5.6475419 61,16 73.210528,19.322184 73.882649,6.408502 Z"
       fill="url(#m)"
       transform="translate(339.57143,513.798)"
       id="path25-9"
       style="fill:url(#m)"
       sodipodi:nodetypes="ccccc" /><path
       d="M 61,16 56.547985,32.719263 72.681598,31.279548 73.234306,19.28197 Z"
       fill="url(#n)"
       transform="translate(339.57143,513.798)"
       id="path26-4"
       style="fill:url(#n)"
       sodipodi:nodetypes="ccccc" /><path
       d="M 73.565974,11.846882 61,16 l 4.287109,16 7.338243,-0.161862 z"
       fill="url(#i)"
       opacity="0.3"
       transform="translate(339.57143,513.798)"
       id="path27-4"
       style="fill:url(#i)"
       sodipodi:nodetypes="ccccc" /><path
       d="M 73.760775,6.4616703 61,16 70.318986,31.017116 73.639382,11.858112 Z"
       fill="url(#q)"
       opacity="0.35"
       transform="translate(339.57143,513.798)"
       id="path28-4"
       style="fill:url(#q)"
       sodipodi:nodetypes="ccccc" /><path
       d="M 57.812678,5.1121196 61,16 73.616869,11.826184 73.826338,6.4320479 Z"
       fill="url(#r)"
       opacity="0.3"
       transform="translate(339.57143,513.798)"
       id="path29-1"
       style="fill:url(#r)"
       sodipodi:nodetypes="ccccc" /><path
       d="m 45,4 v 7.712891 L 61,16 64.009724,5.621432 Z"
       fill="url(#k)"
       transform="translate(339.57143,513.798)"
       id="path30-3"
       style="fill:url(#k)"
       sodipodi:nodetypes="ccccc" /><path
       d="M 45,4 44.883078,33.646071 61,16 49,4 Z"
       fill="url(#p)"
       opacity="0.35"
       transform="translate(339.57143,513.798)"
       id="path31"
       style="fill:url(#p)"
       sodipodi:nodetypes="ccccc" /><path
       d="M 61,16 44.95754,33.794045 71.937421,31.292538 Z"
       fill="url(#h)"
       opacity="0.35"
       transform="translate(339.57143,513.798)"
       id="path32-6"
       style="fill:url(#h)"
       sodipodi:nodetypes="cccc" /><path
       d="M 61,16 45.986689,21.225412 44.9141,33.834126 65.287109,32 Z"
       fill="url(#e)"
       opacity="0.3"
       transform="translate(339.57143,513.798)"
       id="path33"
       style="fill:url(#e)"
       sodipodi:nodetypes="ccccc" /><path
       d="M 45,4 V 20.287109 L 61,16 57.599903,5.0085007 Z"
       fill="url(#j)"
       opacity="0.3"
       transform="translate(339.57143,513.798)"
       id="path34-0"
       style="fill:url(#j)"
       sodipodi:nodetypes="ccccc" /><path
       d="M 49,4 61,16 73.788224,6.4495814 Z"
       fill="url(#o)"
       opacity="0.35"
       transform="translate(339.57143,513.798)"
       id="path35"
       style="fill:url(#o)"
       sodipodi:nodetypes="cccc" /></g></svg>
