<?xml version="1.0" encoding="UTF-8" standalone="no"?>
<!-- Created with Inkscape (http://www.inkscape.org/) -->

<svg
   width="256mm"
   height="256mm"
   viewBox="0 0 256 256"
   version="1.1"
   id="svg1"
   inkscape:version="1.3.2 (091e20ef0f, 2023-11-25)"
   xml:space="preserve"
   sodipodi:docname="preferences-desktop-effects.svg"
   xmlns:inkscape="http://www.inkscape.org/namespaces/inkscape"
   xmlns:sodipodi="http://sodipodi.sourceforge.net/DTD/sodipodi-0.dtd"
   xmlns:xlink="http://www.w3.org/1999/xlink"
   xmlns="http://www.w3.org/2000/svg"
   xmlns:svg="http://www.w3.org/2000/svg"
   xmlns:rdf="http://www.w3.org/1999/02/22-rdf-syntax-ns#"
   xmlns:cc="http://creativecommons.org/ns#"
   xmlns:dc="http://purl.org/dc/elements/1.1/"><defs
     id="defs1"><linearGradient
       id="linearGradient36"
       inkscape:collect="always"><stop
         style="stop-color:#000000;stop-opacity:1;"
         offset="0"
         id="stop37" /><stop
         style="stop-color:#000000;stop-opacity:0;"
         offset="1"
         id="stop38" /></linearGradient><linearGradient
       id="light100to0"><stop
         style="stop-color:#ffffff;stop-opacity:1.0000000;"
         offset="0.0000000"
         id="stop2764" /><stop
         style="stop-color:#ffffff;stop-opacity:0.0000000;"
         offset="1.0000000"
         id="stop2765" /></linearGradient><linearGradient
       inkscape:collect="always"
       id="linearGradient3722"><stop
         style="stop-color:#f85b00;stop-opacity:1;"
         offset="0"
         id="stop3724" /><stop
         style="stop-color:#f85b00;stop-opacity:0;"
         offset="1"
         id="stop3726" /></linearGradient><linearGradient
       id="linearGradient3699"><stop
         id="stop3701"
         offset="0"
         style="stop-color:#00ce20;stop-opacity:1;" /><stop
         id="stop3703"
         offset="1"
         style="stop-color:#086500;stop-opacity:1;" /></linearGradient><linearGradient
       id="linearGradient3693"><stop
         style="stop-color:#00ff28;stop-opacity:1;"
         offset="0"
         id="stop3695" /><stop
         style="stop-color:#086500;stop-opacity:1;"
         offset="1"
         id="stop3697" /></linearGradient><linearGradient
       gradientTransform="matrix(0,1,-1,0,-39.9985,140.0029)"
       y2="-383.9971"
       x2="-12.0029"
       y1="-383.9971"
       x1="-84.002403"
       gradientUnits="userSpaceOnUse"
       id="linearGradient3681"><stop
         id="stop3683"
         style="stop-color:#03ff00;stop-opacity:1;"
         offset="0" /><stop
         id="stop3685"
         style="stop-color:#00f507;stop-opacity:0;"
         offset="1" /></linearGradient><linearGradient
       gradientTransform="matrix(0,1,-1,0,-39.9985,140.0029)"
       y2="-383.9971"
       x2="-12.0029"
       y1="-383.9971"
       x1="-84.002403"
       gradientUnits="userSpaceOnUse"
       id="linearGradient3667"><stop
         id="stop3669"
         style="stop-color:#00f2ff;stop-opacity:1;"
         offset="0" /><stop
         id="stop3671"
         style="stop-color:#acf4ff;stop-opacity:0;"
         offset="1" /></linearGradient><linearGradient
       id="linearGradient3661"><stop
         id="stop3663"
         offset="0"
         style="stop-color:#008dff;stop-opacity:1;" /><stop
         id="stop3665"
         offset="1"
         style="stop-color:#000765;stop-opacity:1;" /></linearGradient><linearGradient
       inkscape:collect="always"
       id="linearGradient3140"><stop
         style="stop-color:#542e00;stop-opacity:1;"
         offset="0"
         id="stop3142" /><stop
         style="stop-color:#542e00;stop-opacity:0;"
         offset="1"
         id="stop3144" /></linearGradient><linearGradient
       id="linearGradient5231"><stop
         style="stop-color:#e9ffe9;stop-opacity:1.0000000;"
         offset="0.0000000"
         id="stop5233" /><stop
         style="stop-color:#ffffee;stop-opacity:0.57254905;"
         offset="0.016975958"
         id="stop6003" /><stop
         style="stop-color:#ffffd0;stop-opacity:0.14509805;"
         offset="0.17400357"
         id="stop5237" /><stop
         style="stop-color:#ffffff;stop-opacity:0.14563107;"
         offset="0.54878050"
         id="stop6001" /><stop
         style="stop-color:#ffffff;stop-opacity:0.0000000;"
         offset="1.0000000"
         id="stop5235" /></linearGradient><linearGradient
       id="linearGradient18251"><stop
         style="stop-color:#ffa100;stop-opacity:1.0000000;"
         offset="0.0000000"
         id="stop18253" /><stop
         style="stop-color:#ffff00;stop-opacity:0.0000000;"
         offset="1.0000000"
         id="stop18255" /></linearGradient><linearGradient
       id="linearGradient7417"><stop
         style="stop-color:#ff5900;stop-opacity:1.0000000;"
         offset="0.0000000"
         id="stop7419" /><stop
         style="stop-color:#ffff00;stop-opacity:1.0000000;"
         offset="1.0000000"
         id="stop7421" /></linearGradient><linearGradient
       inkscape:collect="always"
       xlink:href="#linearGradient36"
       id="linearGradient18333"
       gradientUnits="userSpaceOnUse"
       gradientTransform="scale(1.506975,0.663581)"
       x1="24.937645"
       y1="67.262123"
       x2="20.156658"
       y2="44.913742" /><linearGradient
       inkscape:collect="always"
       xlink:href="#linearGradient3140"
       id="linearGradient3146"
       x1="32.613049"
       y1="39.310211"
       x2="32.257198"
       y2="53.060791"
       gradientUnits="userSpaceOnUse" /><clipPath
       clipPathUnits="userSpaceOnUse"
       id="clipPath3188"><path
         sodipodi:nodetypes="ccsszzz"
         id="path3190"
         d="M 26.976529,42.423929 C 25.902648,42.490391 24.432756,42.496024 24.435236,43.960191 C 24.623181,44.34851 24.767371,44.830788 26.872003,45.612683 C 29.410607,46.555804 34.113417,47.327091 37.574314,46.040776 C 42.800842,44.098227 34.848793,40.004672 33.764292,40.175908 C 32.685577,40.346232 34.655001,42.440294 32.539769,42.583215 C 30.427846,42.725912 29.166935,42.288366 26.976529,42.423929 z"
         style="fill:url(#linearGradient3192);fill-opacity:1;fill-rule:evenodd;stroke:none;stroke-width:0.69999999;stroke-linecap:butt;stroke-linejoin:miter;stroke-miterlimit:4;stroke-opacity:1" /></clipPath><linearGradient
       inkscape:collect="always"
       xlink:href="#linearGradient7417"
       id="linearGradient3192"
       gradientUnits="userSpaceOnUse"
       gradientTransform="matrix(1.500584,0,0,0.666407,1.9998306,5.6460418)"
       spreadMethod="reflect"
       x1="20.682898"
       y1="57.744148"
       x2="22.552622"
       y2="61.49741" /><clipPath
       clipPathUnits="userSpaceOnUse"
       id="clipPath3436"><path
         style="fill:url(#linearGradient3440);fill-opacity:1;fill-rule:evenodd;stroke:none;stroke-width:0.1;stroke-linecap:butt;stroke-linejoin:miter;stroke-miterlimit:4;stroke-opacity:1"
         d="M -7.03082,52.330923 C -6.951056,52.630565 -6.934601,53.87339 -8.062747,54.489419 C -8.903546,54.948541 -11.38699,55.325187 -13.089639,53.426259 C -14.855973,51.456305 -13.686268,49.162786 -12.370936,48.011974 C -11.686154,47.412843 -10.891313,47.170491 -10.60116,47.344489 C -10.293765,47.528826 -10.285011,47.899706 -10.530328,48.074046 C -11.119575,48.492809 -11.644091,49.683466 -11.06199,50.508123 C -10.374778,51.481691 -9.206572,51.079541 -8.60205,51.004218 C -8.102498,50.941974 -7.319476,51.24655 -7.03082,52.330923 z"
         id="path3438"
         sodipodi:nodetypes="cssssssss" /></clipPath><linearGradient
       inkscape:collect="always"
       xlink:href="#linearGradient7417"
       id="linearGradient3440"
       gradientUnits="userSpaceOnUse"
       gradientTransform="matrix(-0.8166093,-0.2601357,-5.8168184e-2,0.7202564,9.6988617,15.530984)"
       spreadMethod="reflect"
       x1="20.682898"
       y1="57.744148"
       x2="22.552622"
       y2="61.49741" /><clipPath
       clipPathUnits="userSpaceOnUse"
       id="clipPath3442"><path
         style="fill:url(#linearGradient3440);fill-opacity:1;fill-rule:evenodd;stroke:none;stroke-width:0.1;stroke-linecap:butt;stroke-linejoin:miter;stroke-miterlimit:4;stroke-opacity:1"
         d="M -7.03082,52.330923 C -6.951056,52.630565 -6.934601,53.87339 -8.062747,54.489419 C -8.903546,54.948541 -11.38699,55.325187 -13.089639,53.426259 C -14.855973,51.456305 -13.686268,49.162786 -12.370936,48.011974 C -11.686154,47.412843 -10.891313,47.170491 -10.60116,47.344489 C -10.293765,47.528826 -10.285011,47.899706 -10.530328,48.074046 C -11.119575,48.492809 -11.644091,49.683466 -11.06199,50.508123 C -10.374778,51.481691 -9.206572,51.079541 -8.60205,51.004218 C -8.102498,50.941974 -7.319476,51.24655 -7.03082,52.330923 z"
         id="path3444"
         sodipodi:nodetypes="cssssssss" /></clipPath><linearGradient
       y2="82.680611"
       x2="309.21854"
       y1="65.788521"
       x1="351.02234"
       gradientUnits="userSpaceOnUse"
       id="linearGradient8922"
       xlink:href="#linearGradient7321"
       inkscape:collect="always" /><clipPath
       id="clipPath5163"
       clipPathUnits="userSpaceOnUse"><circle
         id="circle5165"
         ry="8.0010004"
         cy="92"
         cx="343.99899"
         rx="8.0010004"
         r="36"
         style="fill:url(#linearGradient5167);fill-opacity:1"
         sodipodi:cx="343.99899"
         sodipodi:cy="92"
         sodipodi:rx="36"
         sodipodi:ry="36" /></clipPath><linearGradient
       id="linearGradient3273"><stop
         style="stop-color:#ffffff;stop-opacity:0.55035973;"
         offset="0"
         id="stop3275" /><stop
         style="stop-color:#ffffff;stop-opacity:0;"
         offset="1"
         id="stop3277" /></linearGradient><linearGradient
       id="linearGradient3290"><stop
         id="stop3292"
         offset="0"
         style="stop-color:yellow;stop-opacity:1;" /><stop
         id="stop3294"
         offset="1"
         style="stop-color:#ffb66d;stop-opacity:1;" /></linearGradient><linearGradient
       id="linearGradient3711"
       gradientUnits="userSpaceOnUse"
       x1="-84.002403"
       y1="-383.9971"
       x2="-23.516129"
       y2="-383.9975"
       gradientTransform="matrix(0,1,-1,0,-39.9985,140.0029)"><stop
         offset="0"
         style="stop-color:white;stop-opacity:1;"
         id="stop3713" /><stop
         offset="1"
         style="stop-color:white;stop-opacity:0;"
         id="stop3715" /></linearGradient><linearGradient
       id="linearGradient4770"
       gradientUnits="userSpaceOnUse"
       x1="-84.002403"
       y1="-383.9971"
       x2="-12.0029"
       y2="-383.9971"
       gradientTransform="matrix(0,1,-1,0,-39.9985,140.0029)"><stop
         offset="0"
         style="stop-color:#ffbe00;stop-opacity:1"
         id="stop4772" /><stop
         offset="1"
         style="stop-color:#f5d600;stop-opacity:0;"
         id="stop4774" /></linearGradient><linearGradient
       id="linearGradient5958"
       gradientUnits="userSpaceOnUse"
       x1="-84.002403"
       y1="-383.9971"
       x2="-12.0029"
       y2="-383.9971"
       gradientTransform="matrix(0,1,-1,0,-39.9985,140.0029)"><stop
         offset="0"
         style="stop-color:#8c0000;stop-opacity:1;"
         id="stop5960" /><stop
         offset="1"
         style="stop-color:#bf0000;stop-opacity:1;"
         id="stop5962" /></linearGradient><linearGradient
       id="linearGradient6740"><stop
         id="stop6742"
         offset="0"
         style="stop-color:#4d0000;stop-opacity:0;" /><stop
         style="stop-color:#4d0000;stop-opacity:1;"
         offset="0.5"
         id="stop6748" /><stop
         id="stop6744"
         offset="1"
         style="stop-color:#4d0000;stop-opacity:0;" /></linearGradient><linearGradient
       id="linearGradient7321"><stop
         id="stop7323"
         offset="0"
         style="stop-color:#8c0000;stop-opacity:1;" /><stop
         id="stop7325"
         offset="1"
         style="stop-color:#650000;stop-opacity:1;" /></linearGradient><linearGradient
       id="linearGradient4296"><stop
         style="stop-color:#ff0000;stop-opacity:1;"
         offset="0"
         id="stop4298" /><stop
         style="stop-color:#650000;stop-opacity:1;"
         offset="1"
         id="stop4300" /></linearGradient><radialGradient
       inkscape:collect="always"
       xlink:href="#linearGradient3667"
       id="radialGradient3585"
       gradientUnits="userSpaceOnUse"
       gradientTransform="matrix(0.6662862,-0.6560105,0.9893764,1.0048737,31.05592,226.43791)"
       cx="345.80753"
       cy="85.250488"
       fx="345.80753"
       fy="85.250488"
       r="36" /><radialGradient
       inkscape:collect="always"
       xlink:href="#linearGradient4770"
       id="radialGradient3637"
       gradientUnits="userSpaceOnUse"
       gradientTransform="matrix(0.6662862,-0.6560105,0.9893764,1.0048737,31.05592,226.43791)"
       cx="345.80753"
       cy="85.250488"
       fx="345.80753"
       fy="85.250488"
       r="36" /><radialGradient
       inkscape:collect="always"
       xlink:href="#linearGradient3681"
       id="radialGradient3655"
       gradientUnits="userSpaceOnUse"
       gradientTransform="matrix(0.6662862,-0.6560105,0.9893764,1.0048737,31.05592,226.43791)"
       cx="345.80753"
       cy="85.250488"
       fx="345.80753"
       fy="85.250488"
       r="36" /><linearGradient
       inkscape:collect="always"
       xlink:href="#linearGradient3722"
       id="linearGradient3728"
       x1="160.29355"
       y1="123.12172"
       x2="241.80727"
       y2="71.63022"
       gradientUnits="userSpaceOnUse" /><clipPath
       clipPathUnits="userSpaceOnUse"
       id="clipPath3739"><path
         sodipodi:nodetypes="cssssssss"
         id="path3741"
         d="M 241.39794,87.718739 C 242.42021,91.558959 242.63109,107.48707 228.17265,115.38218 C 217.39688,121.26631 185.56879,126.0935 163.74745,101.75661 C 141.10992,76.509516 156.10099,47.115514 172.95843,32.366608 C 181.73467,24.688094 191.92144,21.581982 195.64007,23.811985 C 199.57968,26.174506 199.69187,30.927745 196.54786,33.162105 C 188.99601,38.528978 182.27376,53.788606 189.73403,64.357538 C 198.54141,76.834788 213.51326,71.680791 221.26088,70.71548 C 227.6632,69.917806 237.69849,73.821209 241.39794,87.718739 z"
         style="fill:url(#linearGradient3728);fill-opacity:1;fill-rule:evenodd;stroke:none;stroke-width:0.1;stroke-linecap:butt;stroke-linejoin:miter;stroke-miterlimit:4;stroke-opacity:1" /></clipPath><radialGradient
       inkscape:collect="always"
       xlink:href="#light100to0"
       id="radialGradient3839"
       cx="63.782036"
       cy="10.506776"
       fx="63.782036"
       fy="10.506776"
       r="2.5240418"
       gradientTransform="matrix(1,0,0,1.2046138,0,-2.1498311)"
       gradientUnits="userSpaceOnUse" /><radialGradient
       inkscape:collect="always"
       xlink:href="#light100to0"
       id="radialGradient3843"
       gradientUnits="userSpaceOnUse"
       gradientTransform="matrix(1,0,0,1.2046138,0,-2.1498311)"
       cx="63.782036"
       cy="10.506776"
       fx="63.782036"
       fy="10.506776"
       r="2.5240418" /><radialGradient
       inkscape:collect="always"
       xlink:href="#light100to0"
       id="radialGradient3847"
       gradientUnits="userSpaceOnUse"
       gradientTransform="matrix(1,0,0,1.2046138,0,-2.1498311)"
       cx="63.782036"
       cy="10.506776"
       fx="63.782036"
       fy="10.506776"
       r="2.5240418" /><linearGradient
       id="redtodarkred"><stop
         style="stop-color:#ff0000;stop-opacity:1.0000000;"
         offset="0.0000000"
         id="stop3856" /><stop
         style="stop-color:#920000;stop-opacity:1.0000000;"
         offset="1.0000000"
         id="stop3855" /></linearGradient><linearGradient
       id="orangelesstoyelow"><stop
         style="stop-color:#ff7d00;stop-opacity:1.0000000;"
         offset="0.0000000"
         id="stop2689" /><stop
         style="stop-color:#ffbe00;stop-opacity:1.0000000;"
         offset="0.25358382"
         id="stop2690" /><stop
         style="stop-color:#ffff00;stop-opacity:1.0000000;"
         offset="1.0000000"
         id="stop2691" /></linearGradient><linearGradient
       id="XMLID_1_"
       gradientUnits="userSpaceOnUse"
       x1="100.6055"
       y1="37.1133"
       x2="100.6055"
       y2="139.7401"><stop
         offset="0"
         style="stop-color:#FFA700"
         id="stop9-4" /><stop
         offset="0.691"
         style="stop-color:#FFFF00"
         id="stop11-0" /><stop
         offset="0.792"
         style="stop-color:#FFFC00"
         id="stop13-0" /><stop
         offset="0.8546"
         style="stop-color:#FFF400"
         id="stop15-4" /><stop
         offset="0.9067"
         style="stop-color:#FFE500"
         id="stop17-6" /><stop
         offset="0.953"
         style="stop-color:#FFD100"
         id="stop19-2" /><stop
         offset="0.9952"
         style="stop-color:#FFB700"
         id="stop21-6" /><stop
         offset="1"
         style="stop-color:#FFB300"
         id="stop23-7" /><midPointStop
         offset="0"
         style="stop-color:#FFA700"
         id="midPointStop25" /><midPointStop
         offset="0.5"
         style="stop-color:#FFA700"
         id="midPointStop27" /><midPointStop
         offset="0.691"
         style="stop-color:#FFFF00"
         id="midPointStop29" /><midPointStop
         offset="0.7952"
         style="stop-color:#FFFF00"
         id="midPointStop31" /><midPointStop
         offset="1"
         style="stop-color:#FFB300"
         id="midPointStop33" /></linearGradient><linearGradient
       id="light75to0"><stop
         style="stop-color:#ffffff;stop-opacity:0.72916669;"
         offset="0.0000000"
         id="stop2769" /><stop
         style="stop-color:#ffffff;stop-opacity:0.0000000;"
         offset="1.0000000"
         id="stop2770" /></linearGradient><linearGradient
       id="light100to25to0"><stop
         style="stop-color:#ffffff;stop-opacity:1.0000000;"
         offset="0.0000000"
         id="stop2785" /><stop
         style="stop-color:#ffffff;stop-opacity:0.28749999;"
         offset="0.50000000"
         id="stop2786" /><stop
         style="stop-color:#ffffff;stop-opacity:0.0000000;"
         offset="1.0000000"
         id="stop2787" /></linearGradient><linearGradient
       gradientTransform="matrix(0,0.0116,0.0204,0,17.205556,44.532653)"
       gradientUnits="userSpaceOnUse"
       id="gradient5"
       spreadMethod="pad"
       x1="-819.20001"
       x2="819.20001"><stop
         offset="0.0"
         stop-color="#9999cc"
         id="stop74" /><stop
         offset="1.0"
         stop-color="#666699"
         id="stop76" /></linearGradient><radialGradient
       cx="0"
       cy="0"
       gradientTransform="matrix(0.0311,0,0,0.0311,8.1055556,42.032653)"
       gradientUnits="userSpaceOnUse"
       id="gradient6"
       r="819.20001"
       spreadMethod="pad"><stop
         offset="0.0"
         stop-color="#ffffff"
         id="stop79" /><stop
         offset="0.2823529411764706"
         stop-color="#dddddd"
         id="stop81" /><stop
         offset="1.0"
         stop-color="#9999cc"
         id="stop83" /></radialGradient><linearGradient
       gradientTransform="matrix(-0.0059,-0.0057,-0.007,0.0072,22.305556,42.032653)"
       gradientUnits="userSpaceOnUse"
       id="gradient7"
       spreadMethod="pad"
       x1="-819.20001"
       x2="819.20001"><stop
         offset="0.0"
         stop-color="#666699"
         id="stop86" /><stop
         offset="1.0"
         stop-color="#9999cc"
         id="stop88" /></linearGradient><linearGradient
       gradientTransform="matrix(-0.0027,0.0108,0.0081,0.002,21.605556,40.132653)"
       gradientUnits="userSpaceOnUse"
       id="gradient8"
       spreadMethod="pad"
       x1="-819.20001"
       x2="819.20001"><stop
         offset="0.0"
         stop-color="#333399"
         id="stop91" /><stop
         offset="0.27450980392156865"
         stop-color="#6666cc"
         id="stop93" /><stop
         offset="1.0"
         stop-color="#999999"
         id="stop95" /></linearGradient><linearGradient
       gradientTransform="matrix(-0.0177,-0.0171,-0.0191,0.0197,19.255556,21.332653)"
       gradientUnits="userSpaceOnUse"
       id="gradient9"
       spreadMethod="pad"
       x1="-819.20001"
       x2="819.20001"><stop
         offset="0.0"
         stop-color="#6666cc"
         id="stop98" /><stop
         offset="1.0"
         stop-color="#999999"
         id="stop100" /></linearGradient><radialGradient
       cx="0"
       cy="0"
       gradientTransform="matrix(0.0404,0,0,0.0404,19.005556,5.5826531)"
       gradientUnits="userSpaceOnUse"
       id="gradient10"
       r="819.20001"
       spreadMethod="pad"><stop
         offset="0.0"
         stop-color="#ccffff"
         id="stop103" /><stop
         offset="0.09411764705882353"
         stop-color="#ccffff"
         id="stop105" /><stop
         offset="1.0"
         stop-color="#0099ff"
         id="stop107" /></radialGradient><linearGradient
       gradientTransform="matrix(-0.0121,-0.0117,-0.0182,0.0189,21.505556,22.382653)"
       gradientUnits="userSpaceOnUse"
       id="gradient11"
       spreadMethod="pad"
       x1="-819.20001"
       x2="819.20001"><stop
         offset="0.0"
         stop-color="#9999cc"
         id="stop110" /><stop
         offset="1.0"
         stop-color="#ffffff"
         id="stop112" /></linearGradient><linearGradient
       gradientTransform="matrix(-0.0141,0.0075,9e-4,0.0018,21.455556,32.682653)"
       gradientUnits="userSpaceOnUse"
       id="gradient12"
       spreadMethod="pad"
       x1="-819.20001"
       x2="819.20001"><stop
         offset="0.0"
         stop-color="#6666cc"
         id="stop115" /><stop
         offset="0.0784313725490196"
         stop-color="#9999cc"
         id="stop117" /><stop
         offset="1.0"
         stop-color="#ffffff"
         id="stop119" /></linearGradient><linearGradient
       gradientTransform="matrix(-0.0021,0.006,0.0051,0.0017,19.155556,42.632653)"
       gradientUnits="userSpaceOnUse"
       id="gradient13"
       spreadMethod="pad"
       x1="-819.20001"
       x2="819.20001"><stop
         offset="0.0"
         stop-color="#9999cc"
         id="stop122" /><stop
         offset="1.0"
         stop-color="#eeeeee"
         id="stop124" /></linearGradient><linearGradient
       id="l"
       gradientTransform="matrix(1.5078887,0.40403789,0.40403755,-1.5078898,15.113751,42.492446)"
       gradientUnits="userSpaceOnUse"
       x1="8"
       x2="24.00001"
       xlink:href="#linearGradient4300"
       y1="24.000031"
       y2="8" /><linearGradient
       inkscape:collect="always"
       id="linearGradient4300"><stop
         style="stop-color:#e51561"
         id="stop4302" /><stop
         offset="0.312499"
         style="stop-color:#e4156c"
         id="stop4304" /><stop
         offset="0.562499"
         style="stop-color:#e71e2c"
         id="stop4306" /><stop
         offset="0.75"
         style="stop-color:#e8301e"
         id="stop4308" /><stop
         offset="1"
         style="stop-color:#e6320e"
         id="stop4310" /></linearGradient><linearGradient
       id="m"
       gradientTransform="matrix(-1.5078887,-0.40403789,-0.40403755,1.5078898,106.88621,-10.492446)"
       gradientUnits="userSpaceOnUse"
       x1="8"
       x2="24.00001"
       xlink:href="#linearGradient4328"
       y1="23.999973"
       y2="8" /><linearGradient
       inkscape:collect="always"
       id="linearGradient4328"><stop
         style="stop-color:#bec900"
         id="stop4330" /><stop
         offset="0.312499"
         style="stop-color:#9ec80a"
         id="stop4332" /><stop
         offset="0.562499"
         style="stop-color:#71b93d"
         id="stop4334" /><stop
         offset="0.75"
         style="stop-color:#35a48f"
         id="stop4336" /><stop
         offset="1"
         style="stop-color:#018fca"
         id="stop4338" /></linearGradient><linearGradient
       id="n"
       gradientTransform="matrix(-1.5078887,-0.40403789,0.40403755,-1.5078898,87.492393,61.88626)"
       gradientUnits="userSpaceOnUse"
       x1="8"
       x2="24.00001"
       xlink:href="#linearGradient4316"
       y1="24"
       y2="8" /><linearGradient
       inkscape:collect="always"
       id="linearGradient4316"><stop
         style="stop-color:#c1cc00"
         id="stop4318" /><stop
         offset="0.312499"
         style="stop-color:#dfcd00"
         id="stop4320" /><stop
         offset="0.562499"
         style="stop-color:#f0cc00"
         id="stop4322" /><stop
         offset="0.75"
         style="stop-color:#fd8c08"
         id="stop4324" /><stop
         offset="1"
         style="stop-color:#f25c13"
         id="stop4326" /></linearGradient><linearGradient
       id="i"
       gradientTransform="matrix(-0.40403755,-1.5078898,-1.5078887,0.40403789,106.88621,42.492466)"
       gradientUnits="userSpaceOnUse"
       x1="8"
       x2="24.00001"
       xlink:href="#linearGradient4328"
       y1="23.999973"
       y2="8" /><linearGradient
       id="q"
       gradientTransform="matrix(-1.1038511,-1.103852,-1.1038511,1.103852,113.98484,16.00003)"
       gradientUnits="userSpaceOnUse"
       x1="8"
       x2="24.00001"
       xlink:href="#linearGradient4328"
       y1="23.999973"
       y2="8" /><linearGradient
       id="r"
       gradientTransform="matrix(0.40403755,1.5078898,-1.5078887,0.40403789,87.49235,-29.88624)"
       gradientUnits="userSpaceOnUse"
       x1="8"
       x2="24.00001"
       xlink:href="#linearGradient4288"
       y1="23.999973"
       y2="8" /><linearGradient
       inkscape:collect="always"
       id="linearGradient4288"><stop
         style="stop-color:#e81877"
         id="stop4290" /><stop
         offset="0.312499"
         style="stop-color:#dd1d8c"
         id="stop4294-9" /><stop
         offset="0.562499"
         style="stop-color:#6d57b1"
         id="stop4296" /><stop
         offset="0.75"
         style="stop-color:#2a78c1"
         id="stop4298-0" /><stop
         offset="1"
         style="stop-color:#018dcb"
         id="stop4292-2" /></linearGradient><linearGradient
       id="k"
       gradientTransform="matrix(1.5078887,0.40403789,-0.40403755,1.5078898,34.50755,-29.88626)"
       gradientUnits="userSpaceOnUse"
       x1="8"
       x2="24.00001"
       xlink:href="#linearGradient4288"
       y1="23.999973"
       y2="8" /><linearGradient
       id="p"
       gradientTransform="matrix(1.1038511,1.103852,1.1038511,-1.103852,8.015131,16.00003)"
       gradientUnits="userSpaceOnUse"
       x1="8"
       x2="24.00001"
       xlink:href="#linearGradient4300"
       y1="24.000031"
       y2="8" /><linearGradient
       id="h"
       gradientTransform="matrix(-1.1038511,-1.103852,1.1038511,-1.103852,60.999973,68.984915)"
       gradientUnits="userSpaceOnUse"
       x1="8"
       x2="24.00001"
       xlink:href="#linearGradient4316"
       y1="24"
       y2="8" /><linearGradient
       id="e"
       gradientTransform="matrix(-0.40403755,-1.5078898,1.5078887,-0.40403789,34.507553,61.88627)"
       gradientUnits="userSpaceOnUse"
       x1="8"
       x2="24.00001"
       xlink:href="#linearGradient4316"
       y1="24"
       y2="8" /><linearGradient
       id="j"
       gradientTransform="matrix(0.40403755,1.5078898,1.5078887,-0.40403789,15.113754,-10.492425)"
       gradientUnits="userSpaceOnUse"
       x1="8"
       x2="24.00001"
       xlink:href="#linearGradient4300"
       y1="24.000031"
       y2="8" /><linearGradient
       id="o"
       gradientTransform="matrix(1.1038511,1.103852,-1.1038511,1.103852,60.99999,-36.98486)"
       gradientUnits="userSpaceOnUse"
       x1="8"
       x2="24.00001"
       xlink:href="#linearGradient4288"
       y1="23.999973"
       y2="8" /><linearGradient
       id="linearGradient24"
       inkscape:collect="always"><stop
         style="stop-color:#49484d;stop-opacity:0;"
         offset="0"
         id="stop24" /><stop
         style="stop-color:#49484d;stop-opacity:0.29803922;"
         offset="0.6474098"
         id="stop26" /><stop
         style="stop-color:#49484d;stop-opacity:0.78893441;"
         offset="1"
         id="stop25" /></linearGradient><linearGradient
       id="linearGradient22"
       inkscape:collect="always"><stop
         style="stop-color:#5a3766;stop-opacity:1;"
         offset="0"
         id="stop22" /><stop
         style="stop-color:#eade00;stop-opacity:1;"
         offset="1"
         id="stop23" /></linearGradient><linearGradient
       id="linearGradient17"
       inkscape:collect="always"><stop
         style="stop-color:#7475c4;stop-opacity:1"
         offset="0"
         id="stop17" /><stop
         style="stop-color:#f2eaff;stop-opacity:1;"
         offset="1"
         id="stop18" /></linearGradient><linearGradient
       id="linearGradient3"
       inkscape:collect="always"><stop
         style="stop-color:#e2e2e2;stop-opacity:0.82745099;"
         offset="0"
         id="stop4" /><stop
         style="stop-color:#e2e200;stop-opacity:1;"
         offset="1"
         id="stop5" /></linearGradient><linearGradient
       id="linearGradient1"
       inkscape:collect="always"><stop
         style="stop-color:#e2d4a7;stop-opacity:1;"
         offset="0"
         id="stop1" /><stop
         style="stop-color:#e2c76f;stop-opacity:1;"
         offset="0.5"
         id="stop3" /><stop
         style="stop-color:#e2b830;stop-opacity:1;"
         offset="1"
         id="stop2" /></linearGradient><radialGradient
       inkscape:collect="always"
       xlink:href="#linearGradient1"
       id="radialGradient2"
       cx="88.880142"
       cy="53.2104"
       fx="88.880142"
       fy="53.2104"
       r="111.16227"
       gradientTransform="matrix(0.7469212,0.01593874,-0.00904938,0.42407237,24.405424,35.265891)"
       gradientUnits="userSpaceOnUse" /><radialGradient
       inkscape:collect="always"
       xlink:href="#linearGradient3"
       id="radialGradient5"
       cx="55.098136"
       cy="51.205293"
       fx="55.098136"
       fy="51.205293"
       r="21.951716"
       gradientTransform="matrix(1,0,0,0.97406248,0,1.3281381)"
       gradientUnits="userSpaceOnUse" /><radialGradient
       inkscape:collect="always"
       xlink:href="#linearGradient3"
       id="radialGradient6"
       gradientUnits="userSpaceOnUse"
       gradientTransform="matrix(0.38513788,0,0,0.37514835,20.743083,41.917587)"
       cx="55.098136"
       cy="51.205293"
       fx="55.098136"
       fy="51.205293"
       r="21.951716" /><radialGradient
       inkscape:collect="always"
       xlink:href="#linearGradient3"
       id="radialGradient7"
       gradientUnits="userSpaceOnUse"
       gradientTransform="matrix(0.38513788,0,0,0.37514835,10.726714,54.863272)"
       cx="55.098136"
       cy="51.205293"
       fx="55.098136"
       fy="51.205293"
       r="21.951716" /><radialGradient
       inkscape:collect="always"
       xlink:href="#linearGradient3"
       id="radialGradient8"
       gradientUnits="userSpaceOnUse"
       gradientTransform="matrix(0.54440922,0,0,0.53028859,12.723479,59.675965)"
       cx="55.098136"
       cy="51.205293"
       fx="55.098136"
       fy="51.205293"
       r="21.951716" /><radialGradient
       inkscape:collect="always"
       xlink:href="#linearGradient3"
       id="radialGradient9"
       gradientUnits="userSpaceOnUse"
       gradientTransform="matrix(0.54440922,0,0,0.53028859,45.040443,2.696054)"
       cx="55.098136"
       cy="51.205293"
       fx="55.098136"
       fy="51.205293"
       r="21.951716" /><radialGradient
       inkscape:collect="always"
       xlink:href="#linearGradient3"
       id="radialGradient10"
       gradientUnits="userSpaceOnUse"
       gradientTransform="matrix(0.65930989,0,0,0.64220902,75.08984,-8.2320364)"
       cx="55.098136"
       cy="51.205293"
       fx="55.098136"
       fy="51.205293"
       r="21.951716" /><radialGradient
       inkscape:collect="always"
       xlink:href="#linearGradient3"
       id="radialGradient11"
       gradientUnits="userSpaceOnUse"
       gradientTransform="matrix(0.4869589,0,0,0.47432839,103.86285,20.586067)"
       cx="55.098136"
       cy="51.205293"
       fx="55.098136"
       fy="51.205293"
       r="21.951716" /><radialGradient
       inkscape:collect="always"
       xlink:href="#linearGradient3"
       id="radialGradient12"
       gradientUnits="userSpaceOnUse"
       gradientTransform="matrix(0.9306927,0,0,0.90655283,98.790982,13.153711)"
       cx="55.098136"
       cy="51.205293"
       fx="55.098136"
       fy="51.205293"
       r="21.951716" /><radialGradient
       inkscape:collect="always"
       xlink:href="#linearGradient3"
       id="radialGradient13"
       gradientUnits="userSpaceOnUse"
       gradientTransform="matrix(0.62630941,0,0,0.61006449,129.99449,58.80421)"
       cx="55.098136"
       cy="51.205293"
       fx="55.098136"
       fy="51.205293"
       r="21.951716" /><radialGradient
       inkscape:collect="always"
       xlink:href="#linearGradient3"
       id="radialGradient14"
       gradientUnits="userSpaceOnUse"
       gradientTransform="matrix(0.46803008,0,0,0.45589054,187.75935,83.269444)"
       cx="55.098136"
       cy="51.205293"
       fx="55.098136"
       fy="51.205293"
       r="21.951716" /><radialGradient
       inkscape:collect="always"
       xlink:href="#linearGradient3"
       id="radialGradient15"
       gradientUnits="userSpaceOnUse"
       gradientTransform="matrix(0.33410147,0,0,0.3254357,216.3865,64.291547)"
       cx="55.098136"
       cy="51.205293"
       fx="55.098136"
       fy="51.205293"
       r="21.951716" /><radialGradient
       inkscape:collect="always"
       xlink:href="#linearGradient3"
       id="radialGradient16"
       gradientUnits="userSpaceOnUse"
       gradientTransform="matrix(0.37784989,0,0,0.36804939,188.85271,40.727941)"
       cx="55.098136"
       cy="51.205293"
       fx="55.098136"
       fy="51.205293"
       r="21.951716" /><linearGradient
       inkscape:collect="always"
       xlink:href="#linearGradient17"
       id="linearGradient18"
       x1="86.178566"
       y1="152.51338"
       x2="100.73064"
       y2="134.7485"
       gradientUnits="userSpaceOnUse" /><linearGradient
       inkscape:collect="always"
       xlink:href="#linearGradient22"
       id="linearGradient23"
       x1="48.685169"
       y1="119.74816"
       x2="56.573925"
       y2="109.85919"
       gradientUnits="userSpaceOnUse" /><linearGradient
       inkscape:collect="always"
       xlink:href="#linearGradient24"
       id="linearGradient25"
       x1="82.767601"
       y1="28.989626"
       x2="94.922531"
       y2="56.203911"
       gradientUnits="userSpaceOnUse" /></defs><sodipodi:namedview
     id="base"
     pagecolor="#ffffff"
     bordercolor="#000000"
     borderopacity="0.3"
     inkscape:pageopacity="0.0"
     inkscape:pageshadow="2"
     inkscape:zoom="0.98994949"
     inkscape:cx="505.07627"
     inkscape:cy="476.792"
     inkscape:document-units="mm"
     inkscape:showpageshadow="2"
     inkscape:pagecheckerboard="0"
     inkscape:deskcolor="#d1d1d1"
     inkscape:current-layer="svg1" /><metadata
     id="metadata1"><rdf:RDF><cc:Work
         rdf:about=""><dc:format>image/svg+xml</dc:format><dc:type
           rdf:resource="http://purl.org/dc/dcmitype/StillImage" /><cc:license
           rdf:resource="http://creativecommons.org/publicdomain/zero/1.0/" /></cc:Work><cc:License
         rdf:about="http://creativecommons.org/publicdomain/zero/1.0/"><cc:permits
           rdf:resource="http://creativecommons.org/ns#Reproduction" /><cc:permits
           rdf:resource="http://creativecommons.org/ns#Distribution" /><cc:permits
           rdf:resource="http://creativecommons.org/ns#DerivativeWorks" /></cc:License></rdf:RDF></metadata><g
     id="g2"
     transform="matrix(4.6716407,0,0,4.6716407,41.751185,1.6253005)"><path
       inkscape:connector-curvature="0"
       style="fill:url(#gradient5);fill-rule:evenodd;stroke:none"
       id="path28-7"
       d="m 0.55555556,44.482653 q 0,3.95 4.90000004,6.75 4.8500004,2.8 11.8000004,2.8 6.9,0 11.8,-2.8 4.85,-2.8 4.85,-6.75 0,-3.95 -4.85,-6.7 -4.9,-2.8 -11.8,-2.8 -6.95,0 -11.8000004,2.8 -4.90000004,2.75 -4.90000004,6.7" /><path
       inkscape:connector-curvature="0"
       style="fill:url(#gradient6);fill-rule:evenodd;stroke:none"
       id="path30"
       d="m 1.6555556,44.332653 q 0,3.65 4.5,6.2 4.5500004,2.6 10.9500004,2.6 6.4,0 10.95,-2.6 4.55,-2.55 4.55,-6.2 0,-3.6 -4.55,-6.2 -4.55,-2.55 -10.95,-2.55 -6.4,0 -10.9500004,2.55 -4.5,2.6 -4.5,6.2" /><path
       inkscape:connector-curvature="0"
       style="fill:url(#gradient7);fill-rule:evenodd;stroke:none"
       id="path32"
       d="m 26.005556,31.632653 0.9,5.25 -0.25,-5.5 -0.65,0.25 -0.35,-2 q -1.4,-0.7 -1.9,-0.45 l -7.95,5.35 q -1.1,0.45 -1,0.75 1.65,3.25 2.65,6.45 l 1.75,7.1 2.45,1.5 q 4.75,-1.45 6.25,-3.05 0.15,-2.85 -0.75,-8.7 l -0.25,-1.7 v 6 q -2.25,2.05 -6,2.95 l 0.7,3.5 -1.65,-4.3 q -0.7,-3.8 -1.8,-6.5 l -1.5,-3.3 9.35,-3.6" /><path
       inkscape:connector-curvature="0"
       style="fill:url(#gradient8);fill-rule:evenodd;stroke:none"
       id="path34"
       d="m 26.905556,31.432653 -10.5,4.1 q 3.15,5.8 4.35,12.55 l 1,0.9 q 4.5,-1.6 6.15,-3.1 0,-8.15 -1,-14.45" /><path
       inkscape:connector-curvature="0"
       style="fill:url(#gradient9);fill-rule:evenodd;stroke:none"
       id="path36"
       d="m 8.6055556,39.882653 25.1000004,-10.8 q 1.1,-0.5 0.95,-1.95 l -2.9,-25.4999999 q -0.3,-2.00000004 -1.8,-1.55000004 L 1.9055556,5.0326531 q -2.45000004,0.5 -1.75000004,2.65 0.45,1.25 6.85000004,31.7999999 0.45,0.8 1.6,0.4" /><g
       id="g1"><path
         inkscape:connector-curvature="0"
         style="display:inline;fill:url(#gradient10);fill-rule:evenodd;stroke:none"
         id="path38"
         d="m 9.2055556,37.132653 23.8500004,-9.55 -3,-22.9999999 -25.4500004,5.3 4.6,27.2499999" /></g><path
       inkscape:connector-curvature="0"
       style="fill:url(#gradient11);fill-rule:evenodd;stroke:none"
       id="path40"
       d="m 8.2055556,38.632653 -5.65,-30.6499999 q 0.3,-1 0.7,-1.15 l 26.5500004,-4.9 q 0.8,-1.20000004 -0.55,-0.9 l -27.0000004,5 q -0.9,0.3 -1,1.65 l 6.25,31.4499999 q 0.05,0.4 0.5,0.25 0.4,-0.1 0.2,-0.75" /><path
       inkscape:connector-curvature="0"
       style="fill:url(#gradient12);fill-rule:evenodd;stroke:none"
       id="path42"
       d="m 9.2055556,37.132653 q 0,0.65 0.65,0.4 l 23.9500004,-9.8 -0.75,-0.2 -23.8500004,9.6" /><path
       inkscape:connector-curvature="0"
       style="fill:url(#gradient13);fill-rule:evenodd;stroke:none"
       id="path44"
       d="m 18.855556,42.082653 1.35,5.9 1.45,0.9 q -0.45,-5.4 -2.2,-11.35 -1.35,-0.65 -2.75,-1.25 1.65,3.9 2.15,5.8" /></g><g
     id="g17"
     style="display:inline"
     transform="matrix(0.85854244,0,0,0.85854244,47.232166,22.290356)"><path
       id="path23"
       style="display:inline;fill:url(#linearGradient25);fill-opacity:0.244565;stroke-width:6.89999;stroke-linecap:round;stroke-linejoin:round"
       d="M 198.29252,104.97786 C 175.25346,105.93241 173.29535,73.177897 169.84174,62.185061 147.72288,-8.2192992 79.343833,18.319546 66.428398,25.598779 38.580085,41.29429 24.688719,64.267177 27.094408,89.029435 28.170466,100.10553 49.820671,113.48463 49.820671,113.48463 l 12.570022,-6.41447 -1.327994,-8.552657 C 56.087215,66.473975 95.133083,38.685014 123.15637,54.998426 c 17.50351,10.189455 22.75431,43.260517 46.27103,55.324824 20.11153,10.31741 45.78156,25.93055 70.29189,-9.62173 3.95211,-5.732542 4.75978,-13.500084 4.27632,-20.446123 -0.29252,-4.202802 -2.17189,-8.424386 -4.27631,-11.893493 -3.41585,-5.630959 -13.36348,-10.156243 -13.36348,-10.156243 -33.86186,-7.379258 -29.2502,38.599704 -4.27631,28.063301 3.66101,-1.544567 -0.40289,-2.970092 -1.93771,-3.0736 -2.86388,-0.19314 -7.24437,-1.235527 -8.01809,-4.142678 -2.05752,-7.730918 2.49803,-15.166536 12.09395,-12.361215 4.50824,1.317962 8.11175,4.246411 10.15624,9.95579 2.20611,6.013564 0.57536,14.280033 -3.80859,19.042954 -7.58103,8.236417 -20.54521,8.801747 -32.27279,9.287647 z"
       sodipodi:nodetypes="sssaccsssssscsssscas"
       inkscape:label="mcshadow" /><path
       id="rect1"
       style="display:inline;fill:url(#radialGradient2);stroke-width:6.89999;stroke-linecap:round;stroke-linejoin:round"
       d="M 196.17584,99.156992 C 173.13678,100.11154 171.17867,67.35706 167.72506,56.364224 145.6062,-14.040135 77.227165,12.498709 64.31173,19.777942 36.463417,35.473453 19.111192,56.812848 19.686073,82.452646 20.135786,102.50993 40.407815,111.05049 40.407815,111.05049 L 54.982358,100.49334 53.654364,91.940714 C 48.678862,59.897188 93.016415,32.864177 121.03969,49.177589 c 17.50351,10.189455 22.75432,43.260491 46.27103,55.324791 20.11153,10.31741 47.25901,24.69257 70.29189,-9.621701 3.88055,-5.781221 4.75978,-13.50008 4.27632,-20.446119 -0.29252,-4.202802 -2.17189,-8.424386 -4.27631,-11.893493 -3.41585,-5.630959 -13.36348,-10.156243 -13.36348,-10.156243 -33.86186,-7.379258 -29.2502,38.599704 -4.27631,28.063301 3.66101,-1.544567 -0.40289,-2.970092 -1.93771,-3.0736 -2.86388,-0.19314 -7.24437,-1.235527 -8.01809,-4.142678 -2.05752,-7.730918 2.49803,-15.166536 12.09395,-12.361215 4.50824,1.317962 8.11175,4.246411 10.15624,9.95579 2.20611,6.013564 0.57536,14.280033 -3.80859,19.042954 -7.58103,8.236394 -20.54521,8.801721 -32.27279,9.287616 z"
       sodipodi:nodetypes="ssssccsssssscsssscas" /><g
       id="g16"><path
         id="rect3"
         style="fill:url(#radialGradient5);fill-opacity:0.827451;stroke-width:6.57472;stroke-linecap:round;stroke-linejoin:round"
         d="M 51.855287,47.596374 55.298588,29.82295 58.608255,47.596374 77.049852,51.038249 58.608255,54.279673 55.231771,72.587636 51.855287,54.279673 33.14642,51.105067 Z"
         sodipodi:nodetypes="ccccccccc" /><path
         id="path5"
         style="fill:url(#radialGradient6);fill-opacity:0.827451;stroke-width:2.53217;stroke-linecap:round;stroke-linejoin:round"
         d="m 40.714519,59.737237 1.326145,-6.845219 1.274679,6.845219 7.102558,1.325596 -7.102558,1.248395 -1.300412,7.05109 -1.300412,-7.05109 -7.205494,-1.222661 z"
         sodipodi:nodetypes="ccccccccc" /><path
         id="path6"
         style="fill:url(#radialGradient7);fill-opacity:0.827451;stroke-width:2.53217;stroke-linecap:round;stroke-linejoin:round"
         d="m 30.69815,72.682922 1.326145,-6.845219 1.274679,6.845219 7.102558,1.325596 -7.102558,1.248395 -1.300412,7.05109 -1.300412,-7.05109 -7.205494,-1.222661 z"
         sodipodi:nodetypes="ccccccccc" /><path
         id="path7"
         style="fill:url(#radialGradient8);fill-opacity:0.827451;stroke-width:3.57933;stroke-linecap:round;stroke-linejoin:round"
         d="m 40.953978,84.864821 1.874564,-9.676017 1.801814,9.676017 10.039777,1.873788 -10.039777,1.764661 -1.838189,9.967024 -1.838189,-9.967024 -10.185281,-1.728285 z"
         sodipodi:nodetypes="ccccccccc" /><path
         id="path8"
         style="fill:url(#radialGradient9);fill-opacity:0.827451;stroke-width:3.57933;stroke-linecap:round;stroke-linejoin:round"
         d="m 73.270942,27.88491 1.874564,-9.676017 1.801814,9.676017 10.039777,1.873788 -10.039777,1.764661 -1.838189,9.967024 -1.838189,-9.967024 -10.185281,-1.728285 z"
         sodipodi:nodetypes="ccccccccc" /><path
         id="path9"
         style="fill:url(#radialGradient10);fill-opacity:0.827451;stroke-width:4.33477;stroke-linecap:round;stroke-linejoin:round"
         d="m 109.27854,22.27307 2.2702,-11.718195 2.1821,11.718195 12.15874,2.269262 -12.15874,2.137102 -2.22615,12.070621 -2.22615,-12.070621 -12.334938,-2.093049 z"
         sodipodi:nodetypes="ccccccccc" /><path
         id="path10"
         style="fill:url(#radialGradient11);fill-opacity:0.827451;stroke-width:3.20161;stroke-linecap:round;stroke-linejoin:round"
         d="m 129.11424,43.116796 1.67674,-8.654927 1.61168,8.654927 8.98031,1.676052 -8.98031,1.57844 -1.64421,8.915225 -1.64421,-8.915225 -9.11045,-1.545903 z"
         sodipodi:nodetypes="ccccccccc" /><path
         id="path11"
         style="fill:url(#radialGradient12);fill-opacity:0.827451;stroke-width:6.11903;stroke-linecap:round;stroke-linejoin:round"
         d="m 147.05231,56.215221 3.20465,-16.541596 3.0803,16.541596 17.16347,3.203328 -17.16347,3.01677 -3.14248,17.039086 -3.14247,-17.039086 -17.4122,-2.954584 z"
         sodipodi:nodetypes="ccccccccc" /><path
         id="path12"
         style="fill:url(#radialGradient13);fill-opacity:0.827451;stroke-width:4.1178;stroke-linecap:round;stroke-linejoin:round"
         d="m 162.47193,87.782441 2.15657,-11.131662 2.07289,11.131662 11.55015,2.155679 -11.55015,2.030135 -2.11473,11.466445 -2.11473,-11.466445 -11.71753,-1.988287 z"
         sodipodi:nodetypes="ccccccccc" /><path
         id="path13"
         style="fill:url(#radialGradient14);fill-opacity:0.827451;stroke-width:3.07716;stroke-linecap:round;stroke-linejoin:round"
         d="m 212.02917,104.92437 1.61157,-8.318498 1.54903,8.318498 8.63123,1.6109 -8.63123,1.51709 -1.5803,8.56867 -1.5803,-8.56867 -8.75631,-1.48582 z"
         sodipodi:nodetypes="ccccccccc" /><path
         id="path14"
         style="fill:url(#radialGradient15);fill-opacity:0.827451;stroke-width:2.19662;stroke-linecap:round;stroke-linejoin:round"
         d="m 233.71141,79.749832 1.15042,-5.938128 1.10576,5.938128 6.16138,1.149935 -6.16138,1.082969 -1.12809,6.116712 -1.12809,-6.116712 -6.25066,-1.060647 z"
         sodipodi:nodetypes="ccccccccc" /><path
         id="path15"
         style="fill:url(#radialGradient16);fill-opacity:0.827451;stroke-width:2.48425;stroke-linecap:round;stroke-linejoin:round"
         d="m 208.4462,58.210386 1.30106,-6.715687 1.25055,6.715687 6.96817,1.300511 -6.96817,1.224777 -1.2758,6.917655 -1.27581,-6.917655 -7.06914,-1.199532 z"
         sodipodi:nodetypes="ccccccccc" /></g><g
       id="rect17"><g
         id="g26"
         style="display:inline"><path
           style="color:#000000;fill:#49484d;fill-opacity:0.244565;stroke-linecap:round;stroke-linejoin:round;-inkscape-stroke:none"
           d="M 65.484371,98.179318 200.51635,211.66667 c 20.79931,20.76845 -1.88121,45.1734 -19.15461,30.093 L 50.648805,127.56697 C 39.994477,118.25919 54.108951,88.666913 65.484371,98.179318 Z"
           id="path26"
           inkscape:label="shadow"
           sodipodi:nodetypes="cccsc" /><path
           style="color:#000000;fill:#49484d;fill-opacity:0.244565;stroke-linecap:round;stroke-linejoin:round;-inkscape-stroke:none"
           d="M 64.350442,99.691223 198.61697,211.78884 c 20.79931,20.76845 -1.01651,42.60585 -18.28991,27.52545 L 51.215769,126.62203 c -10.65847,-9.30304 1.759253,-36.443212 13.134673,-26.930807 z"
           id="path27"
           inkscape:label="shadow"
           sodipodi:nodetypes="cccsc" /><path
           style="color:#000000;fill:#49484d;fill-opacity:0.244565;stroke-linecap:round;stroke-linejoin:round;-inkscape-stroke:none"
           d="M 64.350442,99.691223 196.73659,212.42262 c 22.37861,19.05617 -0.14595,39.42745 -17.41932,24.34705 L 51.215769,126.62203 C 40.488589,117.3983 52.975022,90.178818 64.350442,99.691223 Z"
           id="path28"
           inkscape:label="shadow"
           sodipodi:nodetypes="cscsc" /><path
           style="color:#000000;fill:#49484d;fill-opacity:0.244565;stroke-linecap:round;stroke-linejoin:round;-inkscape-stroke:none"
           d="M 64.350442,99.691223 195.13297,212.02172 c 22.29723,19.15132 0.0507,36.99419 -17.41932,22.14207 L 51.215769,126.62203 C 40.437071,117.45856 52.975022,90.178818 64.350442,99.691223 Z"
           id="path29"
           inkscape:label="shadow"
           sodipodi:nodetypes="csssc" /></g><path
         style="color:#000000;fill:url(#linearGradient18);stroke-linecap:round;stroke-linejoin:round;-inkscape-stroke:none"
         d="M 59.436752,101.95908 195.60266,215.82441 c 11.72788,9.80714 -2.63716,26.27459 -13.86294,16.86383 L 46.113091,118.49554 C 35.29082,109.38358 48.061332,92.446675 59.436752,101.95908 Z"
         id="path21" /><path
         id="rect22"
         style="fill:url(#linearGradient23);stroke-width:4.30001;stroke-linecap:round;stroke-linejoin:round"
         d="m 56.563469,100.48007 15.779355,12.56167 c -5.859399,2.80355 -11.085081,4.58121 -14.165285,14.68015 l -15.64572,-13.22984 c -0.811916,-9.24494 2.06842,-15.412998 14.03165,-14.01198 z"
         sodipodi:nodetypes="ccccc" /><path
         style="color:#000000;fill:#4b46ae;stroke-linecap:round;stroke-linejoin:round;-inkscape-stroke:none"
         d="m 53.207031,97.035156 c -0.845916,-0.0647 -1.679878,-0.03316 -2.490234,0.08789 -3.241423,0.484186 -6.029436,2.321116 -7.960938,4.798834 -3.863002,4.95542 -4.259265,12.97169 1.972657,18.21875 l 135.626954,114.1914 a 2.1502151,2.1502151 0 0 0 0.004,0.004 c 3.21602,2.69604 6.89862,3.65024 10.22266,3.19726 3.32405,-0.45297 6.25621,-2.22361 8.33789,-4.68164 2.08169,-2.45803 3.34609,-5.65124 3.19141,-9.02929 -0.15468,-3.37806 -1.80411,-6.86621 -5.12891,-9.64649 L 60.816406,100.31055 C 58.388976,98.28067 55.74478,97.229263 53.207031,97.035156 Z M 51.351562,101.375 c 2.014184,-0.30087 4.253948,0.18468 6.705079,2.23438 L 194.22266,217.47461 c 2.53913,2.12328 3.49226,4.36921 3.59179,6.54297 0.0995,2.17376 -0.72897,4.34826 -2.17578,6.05664 -1.44681,1.70837 -3.47852,2.9029 -5.63867,3.19726 -2.15898,0.29421 -4.4795,-0.22187 -6.875,-2.22851 l -0.004,-0.002 L 47.498047,116.85156 c -4.590339,-3.8649 -4.012097,-8.8742 -1.351563,-12.28711 1.330267,-1.70645 3.190895,-2.88858 5.205078,-3.18945 z"
         id="path22" /></g></g></svg>
