<?xml version="1.0" encoding="UTF-8" standalone="no"?>
<!-- Created with Inkscape (http://www.inkscape.org/) -->

<svg
   width="256mm"
   height="256mm"
   viewBox="0 0 256 256"
   version="1.1"
   id="svg1"
   inkscape:version="1.3.2 (091e20ef0f, 2023-11-25)"
   xml:space="preserve"
   sodipodi:docname="Network Connections.svg"
   xmlns:inkscape="http://www.inkscape.org/namespaces/inkscape"
   xmlns:sodipodi="http://sodipodi.sourceforge.net/DTD/sodipodi-0.dtd"
   xmlns:xlink="http://www.w3.org/1999/xlink"
   xmlns="http://www.w3.org/2000/svg"
   xmlns:svg="http://www.w3.org/2000/svg"
   xmlns:rdf="http://www.w3.org/1999/02/22-rdf-syntax-ns#"
   xmlns:cc="http://creativecommons.org/ns#"
   xmlns:dc="http://purl.org/dc/elements/1.1/"><defs
     id="defs1"><linearGradient
       id="linearGradient11"
       inkscape:collect="always"><stop
         style="stop-color:#b0d1fe;stop-opacity:1"
         offset="0"
         id="stop11" /><stop
         style="stop-color:#b0d1fe;stop-opacity:1"
         offset="0.25984782"
         id="stop13" /><stop
         style="stop-color:#f0ffff;stop-opacity:1"
         offset="0.42080495"
         id="stop14" /><stop
         style="stop-color:#efffff;stop-opacity:1"
         offset="1"
         id="stop12" /></linearGradient><linearGradient
       id="linearGradient9"
       inkscape:collect="always"><stop
         style="stop-color:#7c95d0;stop-opacity:1;"
         offset="0"
         id="stop9" /><stop
         style="stop-color:#7c95d0;stop-opacity:0;"
         offset="1"
         id="stop10" /></linearGradient><linearGradient
       id="linearGradient7"
       inkscape:collect="always"><stop
         style="stop-color:#7c95d0;stop-opacity:1"
         offset="0"
         id="stop7" /><stop
         style="stop-color:#cbeaff;stop-opacity:0;"
         offset="1"
         id="stop8" /></linearGradient><linearGradient
       id="linearGradient4"
       inkscape:collect="always"><stop
         style="stop-color:#748ab6;stop-opacity:1;"
         offset="0"
         id="stop5" /><stop
         style="stop-color:#505e7c;stop-opacity:1;"
         offset="1"
         id="stop6" /></linearGradient><linearGradient
       id="linearGradient1"
       inkscape:collect="always"><stop
         style="stop-color:#000000;stop-opacity:1;"
         offset="0"
         id="stop1" /><stop
         style="stop-color:#254171;stop-opacity:1;"
         offset="0.55533391"
         id="stop4" /><stop
         style="stop-color:#4a83e3;stop-opacity:1;"
         offset="0.92437494"
         id="stop3" /><stop
         style="stop-color:#4a83e3;stop-opacity:1;"
         offset="1"
         id="stop2" /></linearGradient><linearGradient
       gradientTransform="matrix(-0.06871152,-0.06871152,-0.06871152,0.06871152,79.642904,79.419814)"
       gradientUnits="userSpaceOnUse"
       id="gradient0"
       spreadMethod="pad"
       x1="-819.20001"
       x2="819.20001"><stop
         offset="0.0"
         stop-color="#003399"
         id="stop4093" /><stop
         offset="0.47058823529411764"
         stop-color="#0099ff"
         id="stop4095" /><stop
         offset="1.0"
         stop-color="#ccffff"
         id="stop4097" /></linearGradient><radialGradient
       cx="0"
       cy="0"
       gradientTransform="matrix(0.15259312,0,0,0.15259312,70.050061,40.602264)"
       gradientUnits="userSpaceOnUse"
       id="gradient1"
       r="819.20001"
       spreadMethod="pad"><stop
         offset="0.0"
         stop-color="#ffffff"
         id="stop4100" /><stop
         offset="0.0784313725490196"
         stop-color="#ccffff"
         id="stop4102" /><stop
         offset="0.2980392156862745"
         stop-color="#0099ff"
         id="stop4104" /><stop
         offset="0.5372549019607843"
         stop-color="#0066cc"
         id="stop4106" /><stop
         offset="0.7529411764705882"
         stop-color="#003399"
         id="stop4108" /><stop
         offset="1.0"
         stop-color="#9999ff"
         id="stop4110" /></radialGradient><radialGradient
       cx="0"
       cy="0"
       gradientTransform="matrix(0.00490797,0,0,0.00490797,47.964214,14.05463)"
       gradientUnits="userSpaceOnUse"
       id="gradient2"
       r="819.20001"
       spreadMethod="pad"><stop
         offset="0.0"
         stop-color="#00bf00"
         id="stop4113" /><stop
         offset="0.9294117647058824"
         stop-color="#006600"
         id="stop4115" /></radialGradient><radialGradient
       cx="0"
       cy="0"
       gradientTransform="matrix(0.01293919,0,0,0.01293919,57.557057,16.731702)"
       gradientUnits="userSpaceOnUse"
       id="gradient3"
       r="819.20001"
       spreadMethod="pad"><stop
         offset="0.0"
         stop-color="#00bf00"
         id="stop4118" /><stop
         offset="0.9294117647058824"
         stop-color="#006600"
         id="stop4120" /></radialGradient><radialGradient
       cx="0"
       cy="0"
       gradientTransform="matrix(4.4617873e-4,0,0,4.4617873e-4,54.656895,8.9235749)"
       gradientUnits="userSpaceOnUse"
       id="gradient4"
       r="819.20001"
       spreadMethod="pad"><stop
         offset="0.0"
         stop-color="#00bf00"
         id="stop4123" /><stop
         offset="0.9294117647058824"
         stop-color="#006600"
         id="stop4125" /></radialGradient><radialGradient
       cx="0"
       cy="0"
       gradientTransform="matrix(0.00669268,0,0,0.00669268,60.457219,10.4852)"
       gradientUnits="userSpaceOnUse"
       id="gradient5"
       r="819.20001"
       spreadMethod="pad"><stop
         offset="0.0"
         stop-color="#00bf00"
         id="stop4128" /><stop
         offset="0.9294117647058824"
         stop-color="#006600"
         id="stop4130" /></radialGradient><radialGradient
       cx="0"
       cy="0"
       gradientTransform="matrix(0.03167869,0,0,0.03167869,86.112495,23.647472)"
       gradientUnits="userSpaceOnUse"
       id="gradient6"
       r="819.20001"
       spreadMethod="pad"><stop
         offset="0.0"
         stop-color="#00bf00"
         id="stop4133" /><stop
         offset="0.9294117647058824"
         stop-color="#006600"
         id="stop4135" /></radialGradient><radialGradient
       cx="0"
       cy="0"
       gradientTransform="matrix(0.00401561,0,0,0.00401561,40.602265,16.954792)"
       gradientUnits="userSpaceOnUse"
       id="gradient7"
       r="819.20001"
       spreadMethod="pad"><stop
         offset="0.0"
         stop-color="#00bf00"
         id="stop4138" /><stop
         offset="0.9294117647058824"
         stop-color="#006600"
         id="stop4140" /></radialGradient><radialGradient
       cx="0"
       cy="0"
       gradientTransform="matrix(0.00133854,0,0,0.00133854,59.78795,38.81755)"
       gradientUnits="userSpaceOnUse"
       id="gradient8"
       r="819.20001"
       spreadMethod="pad"><stop
         offset="0.0"
         stop-color="#00bf00"
         id="stop4143" /><stop
         offset="0.9294117647058824"
         stop-color="#006600"
         id="stop4145" /></radialGradient><radialGradient
       cx="0"
       cy="0"
       gradientTransform="matrix(0.01383154,0,0,0.01383154,67.819168,30.563243)"
       gradientUnits="userSpaceOnUse"
       id="gradient9"
       r="819.20001"
       spreadMethod="pad"><stop
         offset="0.0"
         stop-color="#00bf00"
         id="stop4148" /><stop
         offset="0.9294117647058824"
         stop-color="#006600"
         id="stop4150" /></radialGradient><radialGradient
       cx="0"
       cy="0"
       gradientTransform="matrix(0.00758504,0,0,0.00758504,108.42144,37.479013)"
       gradientUnits="userSpaceOnUse"
       id="gradient10"
       r="819.20001"
       spreadMethod="pad"><stop
         offset="0.0"
         stop-color="#00bf00"
         id="stop4153" /><stop
         offset="0.9294117647058824"
         stop-color="#006600"
         id="stop4155" /></radialGradient><radialGradient
       cx="0"
       cy="0"
       gradientTransform="matrix(0.05978795,0,0,0.05978795,130.95347,77.858188)"
       gradientUnits="userSpaceOnUse"
       id="gradient11"
       r="819.20001"
       spreadMethod="pad"><stop
         offset="0.0"
         stop-color="#00bf00"
         id="stop4158" /><stop
         offset="0.9294117647058824"
         stop-color="#006600"
         id="stop4160" /></radialGradient><radialGradient
       cx="0"
       cy="0"
       gradientTransform="matrix(8.9235746e-4,0,0,8.9235746e-4,124.03769,68.934614)"
       gradientUnits="userSpaceOnUse"
       id="gradient12"
       r="819.20001"
       spreadMethod="pad"><stop
         offset="0.0"
         stop-color="#00bf00"
         id="stop4163" /><stop
         offset="0.9294117647058824"
         stop-color="#006600"
         id="stop4165" /></radialGradient><radialGradient
       cx="0"
       cy="0"
       gradientTransform="matrix(0.00178472,0,0,0.00178472,102.17493,83.881601)"
       gradientUnits="userSpaceOnUse"
       id="gradient13"
       r="819.20001"
       spreadMethod="pad"><stop
         offset="0.0"
         stop-color="#00bf00"
         id="stop4168" /><stop
         offset="0.9294117647058824"
         stop-color="#006600"
         id="stop4170" /></radialGradient><radialGradient
       cx="0"
       cy="0"
       gradientTransform="matrix(4.4617873e-4,0,0,4.4617873e-4,73.842581,84.32778)"
       gradientUnits="userSpaceOnUse"
       id="gradient14"
       r="819.20001"
       spreadMethod="pad"><stop
         offset="0.0"
         stop-color="#00bf00"
         id="stop4173" /><stop
         offset="0.9294117647058824"
         stop-color="#006600"
         id="stop4175" /></radialGradient><radialGradient
       cx="0"
       cy="0"
       gradientTransform="matrix(0.00223089,0,0,0.00223089,71.611687,84.32778)"
       gradientUnits="userSpaceOnUse"
       id="gradient15"
       r="819.20001"
       spreadMethod="pad"><stop
         offset="0.0"
         stop-color="#00bf00"
         id="stop4178" /><stop
         offset="0.9294117647058824"
         stop-color="#006600"
         id="stop4180" /></radialGradient><radialGradient
       cx="0"
       cy="0"
       gradientTransform="matrix(0.00223089,0,0,0.00223089,74.734937,86.558673)"
       gradientUnits="userSpaceOnUse"
       id="gradient16"
       r="819.20001"
       spreadMethod="pad"><stop
         offset="0.0"
         stop-color="#00bf00"
         id="stop4183" /><stop
         offset="0.9294117647058824"
         stop-color="#006600"
         id="stop4185" /></radialGradient><radialGradient
       cx="0"
       cy="0"
       gradientTransform="matrix(4.4617873e-4,0,0,4.4617873e-4,74.734937,84.32778)"
       gradientUnits="userSpaceOnUse"
       id="gradient17"
       r="819.20001"
       spreadMethod="pad"><stop
         offset="0.0"
         stop-color="#00bf00"
         id="stop4188" /><stop
         offset="0.9294117647058824"
         stop-color="#006600"
         id="stop4190" /></radialGradient><radialGradient
       cx="0"
       cy="0"
       gradientTransform="matrix(0.00133854,0,0,0.00133854,64.919006,78.081277)"
       gradientUnits="userSpaceOnUse"
       id="gradient18"
       r="819.20001"
       spreadMethod="pad"><stop
         offset="0.0"
         stop-color="#00bf00"
         id="stop4193" /><stop
         offset="0.9294117647058824"
         stop-color="#006600"
         id="stop4195" /></radialGradient><radialGradient
       cx="0"
       cy="0"
       gradientTransform="matrix(8.9235746e-4,0,0,8.9235746e-4,62.911202,77.412009)"
       gradientUnits="userSpaceOnUse"
       id="gradient19"
       r="819.20001"
       spreadMethod="pad"><stop
         offset="0.0"
         stop-color="#00bf00"
         id="stop4198" /><stop
         offset="0.9294117647058824"
         stop-color="#006600"
         id="stop4200" /></radialGradient><radialGradient
       cx="0"
       cy="0"
       gradientTransform="matrix(0.00133854,0,0,0.00133854,64.249737,80.312171)"
       gradientUnits="userSpaceOnUse"
       id="gradient20"
       r="819.20001"
       spreadMethod="pad"><stop
         offset="0.0"
         stop-color="#00bf00"
         id="stop4203" /><stop
         offset="0.9294117647058824"
         stop-color="#006600"
         id="stop4205" /></radialGradient><radialGradient
       cx="0"
       cy="0"
       gradientTransform="matrix(0.00758504,0,0,0.00758504,63.357381,82.543065)"
       gradientUnits="userSpaceOnUse"
       id="gradient21"
       r="819.20001"
       spreadMethod="pad"><stop
         offset="0.0"
         stop-color="#00bf00"
         id="stop4208" /><stop
         offset="0.9294117647058824"
         stop-color="#006600"
         id="stop4210" /></radialGradient><radialGradient
       cx="0"
       cy="0"
       gradientTransform="matrix(0.00133854,0,0,0.00133854,66.257542,79.865993)"
       gradientUnits="userSpaceOnUse"
       id="gradient22"
       r="819.20001"
       spreadMethod="pad"><stop
         offset="0.0"
         stop-color="#00bf00"
         id="stop4213" /><stop
         offset="0.9294117647058824"
         stop-color="#006600"
         id="stop4215" /></radialGradient><radialGradient
       cx="0"
       cy="0"
       gradientTransform="matrix(0.12626858,0,0,0.12626858,63.357381,37.032834)"
       gradientUnits="userSpaceOnUse"
       id="gradient23"
       r="819.20001"
       spreadMethod="pad"><stop
         offset="0.0"
         stop-color="#00bf00"
         id="stop4218" /><stop
         offset="0.9294117647058824"
         stop-color="#006600"
         id="stop4220" /></radialGradient><linearGradient
       gradientTransform="matrix(0,0.0038,0.0166,0,14.8,4.1)"
       gradientUnits="userSpaceOnUse"
       id="gradient3-7"
       spreadMethod="pad"
       x1="-819.20001"
       x2="819.20001"><stop
         offset="0.0"
         stop-color="#9999cc"
         id="stop68" /><stop
         offset="1.0"
         stop-color="#ffffff"
         id="stop70" /></linearGradient><linearGradient
       gradientTransform="matrix(-0.0166,0,0,0.0182,14.55,16.15)"
       gradientUnits="userSpaceOnUse"
       id="gradient4-5"
       spreadMethod="pad"
       x1="-819.20001"
       x2="819.20001"><stop
         offset="0.0"
         stop-color="#9999cc"
         id="stop73" /><stop
         offset="1.0"
         stop-color="#eeeeee"
         id="stop75" /></linearGradient><linearGradient
       gradientTransform="matrix(-0.018,0,0,0.0198,14.75,16.2)"
       gradientUnits="userSpaceOnUse"
       id="gradient5-9"
       spreadMethod="pad"
       x1="-819.20001"
       x2="819.20001"><stop
         offset="0.0"
         stop-color="#333366"
         id="stop78" /><stop
         offset="1.0"
         stop-color="#666699"
         id="stop80" /></linearGradient><linearGradient
       gradientTransform="matrix(-0.0113,-0.0012,-4e-4,0.0042,9.85,22.05)"
       gradientUnits="userSpaceOnUse"
       id="gradient12-2"
       spreadMethod="pad"
       x1="-819.20001"
       x2="819.20001"><stop
         offset="0.0"
         stop-color="#9999cc"
         id="stop117" /><stop
         offset="1.0"
         stop-color="#9999cc"
         id="stop119" /></linearGradient><linearGradient
       gradientTransform="matrix(0,0.0164,0.006,0,23.55,17.7)"
       gradientUnits="userSpaceOnUse"
       id="gradient14-2"
       spreadMethod="pad"
       x1="-819.20001"
       x2="819.20001"><stop
         offset="0.0"
         stop-color="#6666cc"
         id="stop127" /><stop
         offset="1.0"
         stop-color="#aaaaaa"
         id="stop129" /></linearGradient><linearGradient
       gradientTransform="matrix(8e-4,0.0078,0.0245,-0.0026,125.50936,123.86935)"
       gradientUnits="userSpaceOnUse"
       id="gradient24"
       spreadMethod="pad"
       x1="-819.20001"
       x2="819.20001"><stop
         offset="0.0"
         stop-color="#7d7dc5"
         id="stop231" /><stop
         offset="0.43529411764705883"
         stop-color="#7d7dc5"
         id="stop233" /><stop
         offset="1.0"
         stop-color="#ffffff"
         id="stop235" /></linearGradient><linearGradient
       gradientTransform="matrix(-6e-4,0.0066,0.0252,0.0022,126.45936,127.21935)"
       gradientUnits="userSpaceOnUse"
       id="gradient25"
       spreadMethod="pad"
       x1="-819.20001"
       x2="819.20001"><stop
         offset="0.0"
         stop-color="#335cae"
         id="stop238" /><stop
         offset="0.7098039215686275"
         stop-color="#7d7dc5"
         id="stop240" /><stop
         offset="1.0"
         stop-color="#a7a7d3"
         id="stop242" /></linearGradient><linearGradient
       gradientTransform="matrix(-0.0148,-0.0138,-0.0125,0.0134,115.65936,108.61935)"
       gradientUnits="userSpaceOnUse"
       id="gradient26"
       spreadMethod="pad"
       x1="-819.20001"
       x2="819.20001"><stop
         offset="0.0"
         stop-color="#5858b5"
         id="stop245" /><stop
         offset="0.5647058823529412"
         stop-color="#a7a7d3"
         id="stop247" /><stop
         offset="1.0"
         stop-color="#a5adbb"
         id="stop249" /></linearGradient><radialGradient
       cx="0"
       cy="0"
       gradientTransform="matrix(0.025,0,0,0.025,111.05936,102.46935)"
       gradientUnits="userSpaceOnUse"
       id="gradient27"
       r="819.20001"
       spreadMethod="pad"><stop
         offset="0.0"
         stop-color="#ccffff"
         id="stop252" /><stop
         offset="1.0"
         stop-color="#0099ff"
         id="stop254" /></radialGradient><linearGradient
       gradientTransform="matrix(0,0.0022,0.0072,0,129.55936,126.56935)"
       gradientUnits="userSpaceOnUse"
       id="gradient28"
       spreadMethod="pad"
       x1="-819.20001"
       x2="819.20001"><stop
         offset="0.0"
         stop-color="#7d7dc5"
         id="stop257" /><stop
         offset="0.24705882352941178"
         stop-color="#7d7dc5"
         id="stop259" /><stop
         offset="1.0"
         stop-color="#a7a7d3"
         id="stop261" /></linearGradient><linearGradient
       inkscape:collect="always"
       xlink:href="#linearGradient1"
       id="linearGradient2"
       x1="152.87817"
       y1="127.2203"
       x2="157.68903"
       y2="176.13062"
       gradientUnits="userSpaceOnUse" /><linearGradient
       inkscape:collect="always"
       xlink:href="#linearGradient4"
       id="linearGradient6"
       x1="162.2677"
       y1="134.03566"
       x2="180.37183"
       y2="208.33659"
       gradientUnits="userSpaceOnUse" /><linearGradient
       inkscape:collect="always"
       xlink:href="#linearGradient7"
       id="linearGradient8"
       x1="130.16025"
       y1="137.91107"
       x2="221.56644"
       y2="243.74982"
       gradientUnits="userSpaceOnUse" /><linearGradient
       inkscape:collect="always"
       xlink:href="#linearGradient9"
       id="linearGradient10"
       x1="189.83998"
       y1="177.55885"
       x2="222.50432"
       y2="203.58339"
       gradientUnits="userSpaceOnUse" /><linearGradient
       inkscape:collect="always"
       xlink:href="#linearGradient11"
       id="linearGradient12"
       x1="222.02184"
       y1="242.54912"
       x2="218.64775"
       y2="196.814"
       gradientUnits="userSpaceOnUse" /></defs><sodipodi:namedview
     id="base"
     pagecolor="#ffffff"
     bordercolor="#000000"
     borderopacity="0.3"
     inkscape:pageopacity="0.0"
     inkscape:pageshadow="2"
     inkscape:zoom="0.98994949"
     inkscape:cx="505.07627"
     inkscape:cy="476.792"
     inkscape:document-units="mm"
     inkscape:showpageshadow="2"
     inkscape:pagecheckerboard="0"
     inkscape:deskcolor="#d1d1d1"
     inkscape:current-layer="svg1"
     showguides="true" /><metadata
     id="metadata1"><rdf:RDF><cc:Work
         rdf:about=""><dc:format>image/svg+xml</dc:format><dc:type
           rdf:resource="http://purl.org/dc/dcmitype/StillImage" /><cc:license
           rdf:resource="http://creativecommons.org/publicdomain/zero/1.0/" /></cc:Work><cc:License
         rdf:about="http://creativecommons.org/publicdomain/zero/1.0/"><cc:permits
           rdf:resource="http://creativecommons.org/ns#Reproduction" /><cc:permits
           rdf:resource="http://creativecommons.org/ns#Distribution" /><cc:permits
           rdf:resource="http://creativecommons.org/ns#DerivativeWorks" /></cc:License></rdf:RDF></metadata><g
     id="g16"
     style="display:inline"
     transform="matrix(1.0170934,0,0,1.0170934,4.5071866,-0.05854138)"><g
       id="g22"
       inkscape:label="shadow"
       transform="matrix(0.96932072,0,0,0.96932072,-2.1470793,3.7112669)"><path
         id="path17"
         style="fill:#777777;fill-opacity:0.124646;stroke-width:2.5;stroke-linecap:round;stroke-linejoin:round"
         d="m 227.84727,113.05499 c -0.13363,24.52572 -5.218,34.64278 -5.218,34.64278 l 18.13165,16.8704 -4.92084,25.01601 c 0,0 5.95294,3.80883 8.18651,6.47696 8.18688,9.77974 14.73267,17.88123 11.26011,33.07029 -5.16338,22.58478 -19.0927,21.26486 -37.64289,22.33263 l -41.08217,1.87479 c -4.47065,1.68053 -5.9206,4.85122 -5.77444,7.41868 l -35.30772,2.60783 2.24365,-9.55293 c 7.19008,-17.33866 20.52508,-19.84846 34.98416,-22.64914 l 43.64228,-1.59971 c 11.8998,-1.28261 19.92792,-6.28256 13.27194,-16.55509 -1.20692,-1.8627 -7.57507,-5.73067 -7.57507,-5.73067 l -7.18149,2.06702 -23.38055,8.26808 -15.31475,-12.04365 c 0,0 -1.81102,2.32792 -14.84111,7.83918 -13.03009,5.51126 -27.35594,8.55887 -42.39359,8.55887 -60.15062,0 -108.91233,-48.76171 -108.912325,-108.91233 1e-6,-60.150602 48.76171,-108.9123097 108.912325,-108.9123079 60.15061,0 109.24006,48.7625999 108.91232,108.9123079 z"
         sodipodi:nodetypes="scccsscccccccsccccsssss"
         inkscape:label="shadow" /><path
         id="path18"
         style="fill:#777777;fill-opacity:0.212465;stroke-width:2.5;stroke-linecap:round;stroke-linejoin:round"
         d="m 227.1791,111.31774 c -0.13363,24.52572 -5.218,34.64278 -5.218,34.64278 l 18.13165,16.8704 -4.92084,25.01601 c 0,0 5.95294,3.80883 8.18651,6.47696 8.18688,9.77974 14.73267,17.88123 11.26011,33.07029 -5.16338,22.58478 -19.0927,21.26486 -37.64289,22.33263 l -41.08217,1.87479 c -4.47065,1.68053 -5.9206,4.85122 -5.77444,7.41868 l -35.30772,2.60783 2.24365,-9.55293 c 7.19008,-17.33866 20.52508,-19.84846 34.98416,-22.64914 l 43.64228,-1.59971 c 11.8998,-1.28261 19.92792,-6.28256 13.27194,-16.55509 -1.20692,-1.8627 -7.57507,-5.73067 -7.57507,-5.73067 l -7.18149,2.06702 -23.38055,8.26808 -15.31475,-12.04365 c 0,0 -1.81102,2.32792 -14.84111,7.83918 -13.03009,5.51126 -27.35594,8.55887 -42.39359,8.55887 C 58.116156,220.23007 9.3544462,171.46836 9.3544512,111.31774 9.3544522,51.167136 58.116161,2.4054284 118.26678,2.4054302 c 60.15061,0 109.24006,48.7625998 108.91232,108.9123098 z"
         sodipodi:nodetypes="scccsscccccccsccccsssss"
         inkscape:label="shadow" /><path
         id="path19"
         style="fill:#777777;fill-opacity:0.212465;stroke-width:2.5;stroke-linecap:round;stroke-linejoin:round"
         d="m 227.04547,110.11503 c -0.13363,24.52572 -5.218,34.64278 -5.218,34.64278 l 18.13165,16.8704 -4.92084,25.01601 c 0,0 5.95294,3.80883 8.18651,6.47696 8.18688,9.77974 14.73267,17.88123 11.26011,33.07029 -5.16338,22.58478 -19.0927,21.26486 -37.64289,22.33263 l -41.08217,1.87479 c -4.47065,1.68053 -5.9206,4.85122 -5.77444,7.41868 l -35.30772,2.60783 2.24365,-9.55293 c 7.19008,-17.33866 20.52508,-19.84846 34.98416,-22.64914 l 43.64228,-1.59971 c 11.8998,-1.28261 19.92792,-6.28256 13.27194,-16.55509 -1.20692,-1.8627 -7.57507,-5.73067 -7.57507,-5.73067 l -7.18149,2.06702 -23.38055,8.26808 -15.31475,-12.04365 c 0,0 -1.81102,2.32792 -14.84111,7.83918 -13.03009,5.51126 -27.35594,8.55887 -42.39359,8.55887 C 57.982522,219.02736 9.2208115,170.26565 9.2208165,110.11503 9.2208175,49.964423 57.982527,1.2027155 118.13315,1.2027173 c 60.15061,0 109.24006,48.7625997 108.91232,108.9123127 z"
         sodipodi:nodetypes="scccsscccccccsccccsssss"
         inkscape:label="shadow" /><path
         id="path20"
         style="fill:#777777;fill-opacity:0.212465;stroke-width:2.5;stroke-linecap:round;stroke-linejoin:round"
         d="m 225.97639,108.11051 c -0.13363,24.52572 -5.218,34.64278 -5.218,34.64278 l 18.13165,16.8704 -4.92084,25.01601 c 0,0 5.95294,3.80883 8.18651,6.47696 8.18688,9.77974 14.73267,17.88123 11.26011,33.07029 -5.16338,22.58478 -19.0927,21.26486 -37.64289,22.33263 l -41.08217,1.87479 c -4.47065,1.68053 -5.9206,4.85122 -5.77444,7.41868 l -35.30772,2.60783 2.24365,-9.55293 c 7.19008,-17.33866 20.52508,-19.84846 34.98416,-22.64914 l 43.64228,-1.59971 c 11.8998,-1.28261 19.92792,-6.28256 13.27194,-16.55509 -1.20692,-1.8627 -7.57507,-5.73067 -7.57507,-5.73067 l -7.18149,2.06702 -23.38055,8.26808 -15.31475,-12.04365 c 0,0 -1.81102,2.32792 -14.84111,7.83918 -13.03009,5.51126 -27.35594,8.55887 -42.39359,8.55887 -60.150626,0 -108.9123366,-48.76171 -108.9123316,-108.91233 1e-6,-60.150608 48.7617106,-108.91231596 108.9123316,-108.91231416 60.15061,0 109.24006,48.76260016 108.91232,108.91231416 z"
         sodipodi:nodetypes="scccsscccccccsccccsssss"
         inkscape:label="shadow" /><path
         id="path21"
         style="fill:#777777;fill-opacity:0.212465;stroke-width:2.5;stroke-linecap:round;stroke-linejoin:round"
         d="m 224.90731,106.10599 c -0.13363,24.52572 -5.218,34.64278 -5.218,34.64278 l 18.13165,16.8704 -4.92084,25.01601 c 0,0 5.95294,3.80883 8.18651,6.47696 8.18688,9.77974 14.73267,17.88123 11.26011,33.07029 -5.16338,22.58478 -19.0927,21.26486 -37.64289,22.33263 l -41.08217,1.87479 c -4.47065,1.68053 -5.9206,4.85122 -5.77444,7.41868 l -35.30772,2.60783 2.24365,-9.55293 c 7.19008,-17.33866 20.52508,-19.84846 34.98416,-22.64914 l 43.64228,-1.59971 c 11.8998,-1.28261 19.92792,-6.28256 13.27194,-16.55509 -1.20692,-1.8627 -7.57507,-5.73067 -7.57507,-5.73067 l -7.18149,2.06702 -23.38055,8.26808 -15.31475,-12.04365 c 0,0 -1.81102,2.32792 -14.84111,7.83918 -13.03009,5.51126 -27.35594,8.55887 -42.39359,8.55887 -60.150624,0 -108.9123347,-48.76171 -108.9123297,-108.91233 1e-6,-60.150609 48.7617107,-108.9123174 108.9123297,-108.9123156 60.15061,0 109.24006,48.7626006 108.91232,108.9123156 z"
         sodipodi:nodetypes="scccsscccccccsccccsssss"
         inkscape:label="shadow" /><path
         id="path22"
         style="fill:#777777;fill-opacity:0.212465;stroke-width:2.5;stroke-linecap:round;stroke-linejoin:round"
         d="m 223.96237,104.4051 c -0.13363,24.52572 -5.218,34.64278 -5.218,34.64278 l 18.13165,16.8704 -4.92084,25.01601 c 0,0 5.95294,3.80883 8.18651,6.47696 8.18688,9.77974 14.73267,17.88123 11.26011,33.07029 -5.16338,22.58478 -19.0927,21.26486 -37.64289,22.33263 l -41.08217,1.87479 c -4.47065,1.68053 -5.9206,4.85122 -5.77444,7.41868 l -35.30772,2.60783 2.24365,-9.55293 c 7.19008,-17.33866 20.52508,-19.84846 34.98416,-22.64914 l 43.64228,-1.59971 c 11.8998,-1.28261 19.92792,-6.28256 13.27194,-16.55509 -1.20692,-1.8627 -7.57507,-5.73067 -7.57507,-5.73067 l -7.18149,2.06702 -23.38055,8.26808 -15.31475,-12.04365 c 0,0 -1.81102,2.32792 -14.84111,7.83918 -13.03009,5.51126 -27.35594,8.55887 -42.39359,8.55887 -60.150624,0 -108.9123352,-48.76171 -108.9123302,-108.91233 1e-6,-60.150612 48.7617112,-108.9123203 108.9123302,-108.9123185 60.15061,0 109.24006,48.7626005 108.91232,108.9123185 z"
         sodipodi:nodetypes="scccsscccccccsccccsssss"
         inkscape:label="shadow" /></g><g
       id="g2"
       transform="matrix(1.3207751,0,0,1.3207751,1.668927,1.547147)"
       style="display:inline"
       inkscape:label="eath"><path
         inkscape:connector-curvature="0"
         style="fill:url(#gradient0);fill-rule:evenodd;stroke:none"
         id="path3998"
         d="m 0,79.419814 q 0,32.794126 23.201294,56.218516 23.424384,23.20129 56.44161,23.20129 32.794146,0 56.218516,-23.20129 23.20131,-23.42439 23.20131,-56.218516 0,-33.017226 -23.20131,-56.218521 Q 112.43705,0 79.642904,0 46.625678,0 23.201294,23.201293 0,46.402588 0,79.419814" /><path
         inkscape:connector-curvature="0"
         style="fill:url(#gradient1);fill-rule:evenodd;stroke:none"
         id="path4000"
         d="m 4.4617874,79.419814 q 0,31.009416 21.8627576,53.095266 22.085848,22.08585 53.318359,22.08585 31.009426,0 53.318366,-22.08585 21.86275,-22.08585 21.86275,-53.095266 0,-31.232512 -21.86275,-53.318359 Q 110.65233,4.0156086 79.642904,4.0156086 q -31.232511,0 -53.318359,22.0858464 Q 4.4617874,48.187302 4.4617874,79.419814" /><path
         inkscape:connector-curvature="0"
         style="fill:url(#gradient2);fill-rule:evenodd;stroke:none"
         id="path4002"
         d="m 46.848768,11.823737 h 1.561625 v 0.892357 h -0.446179 v 2.453982 h 0.446179 V 14.05463 h 3.123251 v 2.007804 h -0.892358 v 0.446179 H 47.964214 V 16.062434 H 46.402589 V 15.616255 H 45.95641 V 14.500809 H 45.510231 V 14.05463 h -0.892357 v -0.446179 h -0.446179 v -0.446179 h 0.892357 v -0.446179 h 0.892358 v -0.446177 h 0.892358 v -0.446179" /><path
         inkscape:connector-curvature="0"
         style="fill:url(#gradient3);fill-rule:evenodd;stroke:none"
         id="path4004"
         d="m 49.748929,10.4852 h 1.338536 v -0.446178 h 0.446179 v 0.892357 h 0.892358 v 0.446179 h 0.446178 v 0.446179 h 1.784715 v 0.892357 h 0.446179 v 0.892357 h 0.892357 v 0.446179 h 0.669268 v 0.446179 h 1.784715 V 14.05463 h 1.784715 v 0.446179 h 1.784715 v 0.669267 h 0.892358 v 3.123252 h 2.900162 v 0.892357 h 0.446178 v 1.338536 h -4.684877 v -1.784715 h -1.338536 v -0.446178 h -0.892357 v 0.446178 h -3.346341 v 0.446179 h -0.446179 v 1.338536 H 55.103074 V 20.9704 h -0.446179 v 0.446179 h -0.892358 v 0.446179 h -0.446178 v 1.338535 h -1.338536 v -3.12325 h -0.446179 v -0.892358 h 0.446179 v -0.446179 h 0.446179 v -0.892357 h 0.892357 V 14.05463 H 52.87218 v -0.446179 h -0.446178 v 0.446179 h -0.446179 v -0.446179 h -1.338537 v -1.784714 h -1.784714 v -0.892358 h 0.892357 V 10.4852" /><path
         inkscape:connector-curvature="0"
         style="fill:url(#gradient4);fill-rule:evenodd;stroke:none"
         id="path4006"
         d="M 54.656895,8.7004853 V 9.1466639 H 54.210716 V 8.7004853 h 0.446179" /><path
         inkscape:connector-curvature="0"
         style="fill:url(#gradient5);fill-rule:evenodd;stroke:none"
         id="path4008"
         d="m 62.018844,7.8081278 h 1.338537 v 0.4461788 h 0.446178 v 0.4461787 h 0.446178 V 10.4852 h 1.115448 v 1.338537 h -0.446179 v 0.892357 h -0.669269 v 0.446178 h -0.446178 v 0.892358 h -3.123251 v -1.338536 h -0.446179 v -0.446178 h 0.446179 V 11.377558 H 59.78795 v -0.446179 h 0.446179 V 10.4852 H 59.78795 V 9.5928429 H 59.341772 V 10.039022 H 58.003236 V 9.5928429 H 57.110878 V 9.1466639 H 56.664699 V 8.7004853 H 55.549252 V 8.2543066 h 1.561626 V 7.8081278 h 1.784715 v 0.8923575 h 0.892357 v 0.4461786 h 0.446179 V 7.8081278 h 0.446179 V 6.9157703 h 1.338536 v 0.8923575" /><path
         inkscape:connector-curvature="0"
         style="fill:url(#gradient6);fill-rule:evenodd;stroke:none"
         id="path4010"
         d="m 67.149899,6.2465023 h 1.784716 V 5.8003236 h 1.784714 V 5.3541448 h 0.446179 V 4.9079661 h 2.453983 v 0.4461787 h 1.338536 V 4.9079661 h 3.123251 v 0.4461787 h 0.446179 v 0.4461788 h 0.446179 v 0.4461787 h 0.446179 v 2.0078043 h 0.446179 v 0.4461787 h 0.446178 v 0.4461786 h -0.892357 v 0.446179 h -0.892358 v 0.4461791 h 1.338537 V 9.5928429 h 2.453983 V 9.1466639 H 84.55087 V 8.7004853 h 2.230894 V 8.2543066 h 0.446178 V 7.8081278 h 1.338536 V 7.3619491 h 0.446179 V 6.9157703 h 1.561626 V 6.2465023 H 91.46664 V 5.8003236 h 5.131055 v 0.4461787 h 1.784716 v 0.669268 h 1.784719 v 0.4461788 h 2.0078 v 0.4461787 h 0.44618 v 0.8923575 h -0.44618 v 0.4461786 h 2.67708 V 10.4852 h -0.44618 v 0.446179 h -0.44618 v 0.446179 h -0.44618 v 0.446179 h 0.89236 v -0.446179 h 0.44618 v -0.446179 h 0.44617 V 9.5928429 h 2.2309 v 0.4461791 h 0.89236 v 0.892357 h -0.44618 v 1.338537 h -0.44618 v 0.446177 h -0.89236 v 0.446179 h -0.44618 v 0.892358 h -0.44618 v 0.446179 h 2.2309 v 0.669267 h -0.44618 v 0.446179 h -3.56943 v 0.446179 h -0.44618 v 1.338537 h 0.44618 v -0.446179 h 0.89236 v -0.892358 h 1.78471 v 0.446179 h 0.44618 v 0.892358 h -1.78472 v 1.338535 h -0.89235 v -0.446178 h -0.89236 v 1.338536 h -0.44618 v 0.446179 h 0.44618 v 1.784715 h 0.44618 V 20.9704 h 0.44618 v -1.784715 h 1.33853 v 0.446179 h 1.33854 v 0.892357 h 0.44618 v 0.892358 h 0.44618 v 0.446179 h 0.44618 v 0.892358 h -2.2309 v 0.446177 h 0.44618 v 0.669269 h 0.44618 v 1.338536 h -0.44618 v 0.446179 h -0.44618 v 0.446178 h -0.44618 v 0.446179 h -0.44618 v 0.446179 h -1.33853 v 1.784715 h 0.44618 v 0.446178 h 0.44618 v 1.784716 h -0.44618 v 1.115446 h -0.44618 v 0.446179 h -1.33854 v 0.446179 h -0.44618 v 0.446179 h -1.56162 v 0.446178 h -0.892363 v -0.446178 h -0.44618 v 0.446178 h -0.44618 v 0.446179 h -1.784713 v 0.892358 h -0.446179 v 0.446178 h -0.446179 v 0.446179 h -0.446178 v 0.446178 h -1.338536 v 0.446179 h -1.338536 v 0.892358 h -0.446179 v 1.338536 H 91.46664 v 1.561626 h -0.446179 v 1.338535 H 89.012657 V 41.717712 H 86.781764 V 41.271533 H 86.335585 V 40.825354 H 85.889406 V 39.709906 H 85.443227 V 39.263728 H 84.997049 V 38.371371 H 84.55087 v -0.892358 h -0.446179 v -0.892358 h -0.446179 v -1.784714 h -0.446179 v -0.446179 h 0.446179 v -0.446179 h 0.446179 v -0.892357 h 0.892358 v -0.446179 h 0.446178 V 32.124868 H 84.997049 V 31.4556 h -1.338537 v -0.446178 h -0.446179 v -0.446179 h 0.446179 v -0.446179 h -1.784714 v -0.446179 h 0.446179 v -0.446179 h 0.446177 V 25.655277 H 82.319977 V 25.209098 H 81.873798 V 23.870562 H 81.427619 V 23.201293 H 80.75835 v -0.446177 h -3.56943 v 0.446177 h -1.338535 v 0.669269 h -0.892358 v -1.115446 h -2.900162 v -0.892358 h -0.446178 v -1.338537 h 2.007804 v -0.446178 h -0.446179 v -0.446179 h -1.115447 v -0.446179 h -0.892357 v -0.446179 h -0.446179 v -0.446178 h 0.446179 v -0.446179 h 0.446179 v -0.446178 h 2.453983 v -0.446179 h 0.446178 v -0.446179 h 1.784716 v -0.446179 h 0.446178 v -0.446179 h -0.446178 v -1.115446 h -1.338537 v -0.892358 h 0.446179 v -0.892358 h -0.446179 v 0.446179 h -1.784715 v 0.446179 h -0.669268 v 0.892358 h -0.446179 v 0.669267 h -0.446178 v 0.446179 h -0.446179 v 0.446179 H 70.27315 v 0.446179 h -0.446178 v 1.338536 h -0.892357 v 0.446179 h -1.784716 v -0.446179 h -1.784714 v -0.446178 h -1.115448 v -0.446179 h -0.446178 v -0.892358 h 0.446178 v -0.446179 h 0.669269 v -1.115446 h 0.446179 V 14.05463 h 0.446179 v -0.446179 h 0.446178 v -0.446179 h 0.892357 v -0.892356 h 0.446179 v -1.338537 h -0.446179 v -0.892357 h 1.784716 V 10.4852 h 0.446178 V 9.5928429 h 2.230894 V 9.1466639 H 67.596078 V 8.7004853 H 66.70372 v -1.784715 h 0.446179 V 6.2465023 M 101.72875,31.009422 h 0.44618 v -0.446179 h -0.44618 v 0.446179" /><path
         inkscape:connector-curvature="0"
         style="fill:url(#gradient7);fill-rule:evenodd;stroke:none"
         id="path4012"
         d="m 38.594461,16.954792 v -0.446179 h 1.115446 v -0.446179 h 0.446179 v -0.446179 h 0.892358 v -0.446179 h 0.892358 v 0.446179 h 1.338535 v 0.446179 h 0.446179 v 0.892358 h -0.446179 v 0.892357 H 42.38698 v 0.446179 h -1.784715 v 0.446178 h -2.453983 v -0.892357 h -0.892358 v -0.446178 h 0.892358 v -0.446179 h 0.446179" /><path
         inkscape:connector-curvature="0"
         style="fill:url(#gradient8);fill-rule:evenodd;stroke:none"
         id="path4014"
         d="m 58.895593,38.371371 h 1.784715 v 0.892357 h -1.784715 v -0.892357" /><path
         inkscape:connector-curvature="0"
         style="fill:url(#gradient9);fill-rule:evenodd;stroke:none"
         id="path4016"
         d="m 60.680308,23.201293 v -1.338535 h 4.238698 v 0.892358 h 0.446179 v 0.446177 h -0.446179 v 0.669269 h 0.892358 v 0.446179 h 2.677072 v 0.446179 h 0.446179 v 0.892357 h 1.338535 v 0.892357 h 0.892358 v 0.446179 h 0.446179 v 0.892358 h 0.892357 v 2.230893 h -0.892357 v 0.446179 h 0.892357 v 0.446179 h 1.115447 V 31.4556 h 0.446179 v 1.115447 h 1.338536 v 1.338536 h 0.446179 v 0.892358 h -0.892358 v 0.446179 h -1.338536 v 0.446178 h -0.446179 v 0.446179 h 0.446179 v 0.892357 h 0.446179 v 1.784716 h -0.892358 v -0.446179 h -0.669268 v 0.892357 H 71.165508 V 38.81755 H 70.719329 V 38.371371 H 69.826972 V 37.925192 H 69.380793 V 37.032834 H 68.488436 V 36.586655 H 66.257542 V 36.140477 H 65.811364 V 35.24812 h 0.446178 v -0.892358 h 0.892357 v 0.446179 h 0.446179 v -0.446179 h 0.446179 v -1.338536 h 0.446179 v -2.453983 h -0.446179 v -0.446179 h -0.446179 v -0.446179 h -0.446179 v -0.446179 h -1.338535 v -0.446178 h -0.892358 v 1.784715 h -0.669269 v 0.446179 H 63.803559 V 30.563243 H 62.911202 V 28.778528 H 62.018844 V 28.33235 H 61.126486 V 26.993813 H 60.680308 V 26.101455 H 60.234129 V 25.655277 H 59.78795 V 24.76292 h 0.446179 v -1.561627 h 0.446179 m 2.677073,6.023413 v 0.892358 h 0.446178 v -0.892358 h -0.446178 m 8.700484,5.577235 v -0.892358 h -0.446178 v 0.892358 h 0.446178" /><path
         inkscape:connector-curvature="0"
         style="fill:url(#gradient10);fill-rule:evenodd;stroke:none"
         id="path4018"
         d="m 114.44485,36.586655 v 1.338537 h -0.44618 v 0.446179 h -0.44618 v 0.446179 h -0.89236 v 0.446178 h -0.89236 v 0.446178 h -2.90015 v 0.669269 h -2.2309 v -0.669269 h -1.33854 v -0.446178 h -0.44617 V 38.81755 h -0.89236 v -0.446179 h -1.33854 v -0.892358 h 0.44618 v -0.446179 h 0.44618 v -0.446179 h -0.89236 v -0.892357 h 0.44618 v -0.892357 h 0.44618 v -0.446179 h 1.33854 v 0.446179 h 0.44617 v 0.446179 h 0.44618 v 0.446178 h 0.44618 V 35.24812 h 0.44618 v -0.446179 h 1.78472 v 0.446179 h 2.45398 v -0.446179 h 1.78471 v 0.446179 h 0.44618 v 0.446178 h 0.44618 v 0.446179 h 0.44618 v 0.446178 h 0.44618" /><path
         inkscape:connector-curvature="0"
         style="fill:url(#gradient11);fill-rule:evenodd;stroke:none"
         id="path4020"
         d="m 117.12192,49.07966 h 0.66927 v -1.561626 h 0.44618 v -0.446178 h 1.78472 v 0.892357 h -0.44618 v 0.669268 h 0.44618 v 0.446179 h 1.33853 v 3.792519 h 0.44618 v 0.446179 h 0.44617 v 0.892358 h 0.44618 v 0.446178 h 0.44618 v 0.446179 h 0.44618 v 1.784715 h 0.44618 v -0.446179 h 0.44618 V 55.99543 h 0.44618 v -0.892357 h 0.44617 v -0.892357 h 2.00781 v -0.446179 h 0.89236 v -1.784715 h -0.44618 v -2.007804 h 0.44618 v -0.446179 h 0.44618 V 49.07966 h -2.23089 v -0.446179 h -0.44618 v -1.561625 h -0.66928 v -0.892358 h 0.66928 v -1.784714 h -0.66928 v -1.338537 h 0.66928 v -0.446179 h -0.66928 v -0.446179 h 1.11546 v -0.446177 h 0.44618 v -0.446179 h 0.44617 v -0.446179 h 0.89236 v -0.446179 h 0.44618 v -0.669269 h 0.44618 v -0.446178 h 0.44618 V 38.81755 h 0.44618 v -0.446179 h 0.44618 v -0.446179 h 0.44618 v -0.892358 h 0.44617 v -0.892357 h 0.44618 V 35.24812 h 0.89236 v -1.338537 h 0.44618 v -0.892357 h 0.44618 v -0.892358 h 0.44618 v -1.561625 h 0.66926 v -0.892358 h 0.44618 v -0.446179 h 1.33854 v 0.446179 h 0.44618 v 0.446179 h 0.44617 v 0.446179 h 0.44618 v 0.446179 h 0.44618 v 1.115446 h 0.44618 v 0.446179 h 0.44618 v 0.446179 h 0.44618 v 0.446179 h 0.44618 v 0.892357 h 0.44618 v 0.446179 h 0.44618 v 0.892357 h 0.44617 v 0.446179 h 0.44618 v 0.446178 h 0.44618 v 0.892358 h 0.66927 v 0.446179 h 0.44617 v 0.892358 h 0.44618 v 0.446178 h 0.44618 v 1.115447 h 0.44618 v 0.892358 h 0.44618 v 0.446179 h 0.44618 v 0.892356 h 0.44618 v 0.892358 h 0.44618 v 0.892358 h 0.44618 v 0.892357 h 0.44618 v 0.892357 h 0.44617 v 0.892358 h 0.44618 v 0.892357 h 0.44618 v 1.115447 h 0.44618 v 1.338536 h 0.44618 v 0.892358 h 0.44618 v 1.561625 h 0.44618 v 0.892358 h 0.66926 v 1.338536 h 0.44618 v 1.338536 h 0.44618 v 1.338537 h 0.44618 v 1.784714 h 0.44618 v 2.007804 h 0.44618 v 1.784716 h 0.44617 v 2.230893 h 0.44618 v 2.230894 h 0.44618 v 22.978204 h -0.89236 v 0.446179 h 0.44618 v 2.453983 h -0.44618 v 2.230894 h -0.44617 v 1.784715 h -0.44618 v 1.784713 h -0.44618 v 1.784705 h -0.44618 v 1.11546 h -0.44618 v 0.44617 h -0.44618 v 0.89236 h -0.66926 v 0.89236 h 0.66926 v 0.89236 h -0.66926 v 0.89236 h -0.44618 v 1.33853 h -0.44618 v 0.89235 h -0.44618 v 1.56163 h -0.44618 v 0.89236 h -0.44618 v 0.89236 h -0.44618 v 0.89235 h -0.44617 v 0.89236 h -0.44618 v 0.89236 h -0.44618 v 0.89236 h -0.44618 v 0.89236 h -0.44618 v 0.89235 h -0.44618 v 0.44618 H 144.785 v 1.11544 h -0.44618 v 0.89236 h -0.44618 v 0.44618 h -0.44618 v 0.89236 h -0.44617 v 0.44618 h -0.66927 v 0.89236 h -0.44618 v 0.44617 h -0.44618 v 0.44618 h -0.44617 v 0.89236 h -0.44618 v 0.44618 h -0.44618 v 0.89236 h -2.67708 v 0.66926 h -2.23089 v -0.66926 h -1.11544 v -2.2309 h -0.44618 v -0.89235 h -0.44618 v -0.44618 h -0.44618 V 121.5837 H 132.292 v -1.78472 h -0.44618 v -0.89236 h -0.44618 V 117.345 h -0.44617 v -1.33853 h -0.44618 v -1.33854 h -0.44618 v -0.89236 h -0.44618 v -0.89236 h -0.44618 v -1.33853 h 0.44618 v -2.00781 h 0.89236 v -0.89236 h -0.44618 v -0.44617 h 0.44618 v -0.44618 h 0.44618 v -1.33853 h -0.44618 v -0.89236 h -0.44618 v -0.44618 h -0.44618 v -1.78472 h -0.44618 v -0.44618 h -0.44618 v -1.56163 h -0.89236 v -0.44618 h -0.44618 v -1.784705 h 0.44618 v -0.892354 h 0.44618 v -1.338537 h -0.44618 v -0.446179 h -2.90016 v -0.446178 h -0.89236 v -0.446179 h -2.23089 v 0.446179 h -1.78471 v 0.446178 h -0.44618 v -0.446178 h -3.34635 v 0.446178 h -2.67707 v -0.446178 h -0.44618 v -0.446179 h -0.44618 v -0.446179 h -0.44618 V 94.58989 h -0.89236 v -0.892357 h -0.44617 v -1.115447 h -0.44618 v -0.446179 h -0.44618 v -0.446178 h -1.11544 V 91.24355 h -0.44618 v -0.446179 h -0.44618 v -0.446178 h -0.44618 v -0.446179 h -0.44618 v -2.677072 h 0.44618 v -0.446179 h 0.44618 v -0.892358 h -0.44618 v -2.007804 h -0.44618 v -0.446179 h 0.44618 v -0.892357 h 0.44618 v -0.446179 h 0.89236 v -2.230893 h 1.56162 v -0.892358 h 0.44618 v -0.446179 h 0.44617 v -0.446179 h 0.89236 v -0.446179 h 0.44618 V 77.18892 h 0.44618 v -0.446178 h 0.44618 v -1.115448 h 0.44618 v -0.892357 h 0.44618 v -0.446178 h 0.44618 V 73.84258 h 0.44617 v -1.338537 h 0.44618 v -0.446179 h -0.44618 v -0.892357 h -0.89235 v -6.469591 h 0.89235 v -0.446179 h 0.89236 v 0.446179 h 4.23871 v -2.677073 h -0.44618 v -0.446179 h -0.44618 v -0.446179 h -0.44618 v -0.446178 h -0.89236 v -1.561626 h 0.89236 v -0.446179 h 1.33854 v -0.446178 h -1.78472 v 0.446178 h -2.00781 v -0.892356 h 0.44618 v -0.446179 h 0.66927 v -0.446179 h 0.89236 v -0.446179 h -0.89236 V 55.99543 h -0.66927 v 0.446179 h -1.33854 v 0.446179 h -1.78471 v -2.677072 h -0.89236 v -0.892358 h 0.44618 v -0.446179 h 0.89236 v 0.446179 h 0.44618 v -1.338536 h 2.90016 v -1.115447 h -0.66927 V 49.07966 m 13.38537,-2.900162 v 0.446179 h -0.44618 v 0.446179 h -0.44618 v 0.892357 h -0.44618 v 0.669268 h -0.44618 v 0.446179 h 0.89236 v -0.446179 h 0.44618 v 1.338537 h 0.44618 v 0.892357 h -0.44618 v 2.007804 h 2.23089 v 0.446179 h 1.78472 v -0.446179 h 0.66926 v -0.446178 h 0.89236 v 0.446178 h 0.44618 v -0.446178 h 0.89236 v -1.115447 h 0.44617 v -1.338536 h 0.44618 v -0.446179 h 0.44618 V 49.07966 h 0.44618 v -0.446179 h 0.44618 v 0.446179 h 0.44618 v 0.446179 h 0.44618 v -0.892358 h -0.44618 v -2.007804 h 0.44618 v -0.446179 h -0.44618 V 45.73332 h -0.89236 v -0.446179 h -0.44618 v -4.461787 h -0.44618 v 0.446179 h -0.89235 v 0.446179 h -0.44618 v 0.446177 h -0.44618 v 2.677073 h 0.89236 v 1.784715 h -0.44618 v 0.446179 h -0.44618 v 0.892357 h -0.44618 v 1.115447 h -0.44618 v 1.338536 h -0.44618 v 0.892358 h -1.11544 v 0.669268 h -1.78472 v -0.669268 h -0.44618 v -0.892358 h -0.44617 V 49.07966 h -0.44618 v -1.115447 h 0.44618 v -1.784715 h -0.44618 m 10.4852,-8.700485 h -1.33854 v 0.446179 h -0.44618 v 0.446179 h -0.44618 v 2.007804 h 0.44618 v -0.669269 h 0.44618 v -0.446178 h 0.44618 V 38.81755 h 0.44618 v -0.446179 h 0.44618 v -0.892358 m 2.0078,8.700485 V 45.73332 h 0.44617 v -0.446179 h -1.11544 v 0.446179 h -1.33853 v 0.446178 h 2.0078 m -9.81593,18.962596 v 0.892358 h 0.89236 v 0.446178 h 0.66926 v 0.446179 h 0.89236 v 0.892358 h 0.44618 v 2.007804 h -0.44618 v 0.446179 h -0.89236 v 0.446179 h -1.11544 v 0.892357 h -0.44618 v -0.446179 h -1.78472 v -0.446178 h -0.44617 v -0.892358 h 1.33853 v -2.007804 h -0.89236 v -0.446179 h -0.44617 V 66.48063 h -0.89236 v -0.446178 h -0.44618 v 3.34634 h -0.44618 v 0.446179 h -1.33854 v -2.900162 h 0.44618 v -1.338536 h -0.89236 v 0.446179 h -2.00781 v -0.446179 h -0.44617 v 1.338536 h -0.44618 v 0.446179 h -1.33854 v 0.446179 h -0.89236 v 1.561625 h -0.44617 v 0.446179 h -0.44618 v 1.784715 h 0.89235 v -0.446179 h 3.12325 v -0.446178 h 4.23871 v 0.446178 h 0.44618 v 2.677073 h 0.44618 v 0.446179 h 1.33853 v 0.446178 h 1.33854 v 0.446179 h 0.44618 v 0.892357 h 0.44618 v 0.669269 h 1.11544 v 0.446178 h 1.33854 v -0.446178 h -0.44618 v -1.115448 h 0.44618 v -0.446178 h 3.12325 v 0.446178 h 2.23089 v 0.446179 h 5.13106 v -0.446179 h 0.44618 v -0.446178 h 0.44617 v -0.892357 h 0.44618 V 73.84258 h 0.44618 v -0.892358 h -0.44618 v -0.446179 h -2.23089 v -0.446179 h -0.44618 v 0.446179 h -1.78472 v -0.446179 h -0.89235 v -0.446178 h -0.66927 v -0.892357 h -0.44618 V 70.27315 h -0.44618 v -1.784715 h -0.44617 v 0.446179 h -0.44618 v 1.784715 h -0.44618 v 0.446178 h -0.44618 v 0.892357 h -1.33854 v -0.446178 h -0.44618 v -0.446179 h -0.44618 V 70.27315 h -0.44617 v -1.784715 h -0.44618 v -1.561626 h -0.44618 V 66.48063 h -0.89236 v -0.446178 h -0.44618 v -0.446179 h -0.66926 v -0.446179 h -0.89236 m 11.15446,14.27772 v 0.446179 h 0.89236 V 78.973635 H 144.785 v -0.446179 h -0.44618 v -0.446179 h -0.44618 v -0.446179 h -0.44618 v 1.784716 h 0.89236 m -11.60064,-3.79252 v 0.446179 h 0.44618 v -0.446179 h -0.44618 m 15.17007,5.131056 h 0.44618 v 0.892357 h 0.44618 v 0.892358 h 0.44618 v 0.892357 h 0.44618 v 0.892358 h 0.44618 v 1.115446 h 0.44618 v 1.784716 h 1.11544 v 0.892356 h 0.44618 v 0.446179 h 0.44618 v 0.446179 h 0.89236 v 0.446179 h 0.44617 v -0.892358 h -0.44617 v -1.338535 h -0.44618 v -0.446179 h -0.44618 v -1.338537 h -0.44618 v -0.446178 h -0.44618 V 84.32778 h -0.44618 v -0.892358 h -0.66926 v -0.892357 h -0.44618 v -0.892358 h -0.44618 v -0.446178 h -0.44618 v -0.892358 h -0.44618 v -0.446178 h -0.44618 v -0.446179 h -0.89235 v 0.446179 h 0.44617 V 80.75835 M 118.23737,53.318358 v 0.446179 h -0.44618 v 0.446179 h 1.33854 v -0.892358 h -0.89236 m 1.33854,6.246502 v 1.115447 h 0.44618 v 0.446178 h 0.44618 V 59.56486 h -0.89236 m 4.0156,-1.784714 v 0.446178 h -0.89236 v 0.446178 h -0.89235 v 0.446179 h 3.12325 v -0.446179 h -0.44618 v -0.892356 h -0.89236 m -6.91577,14.277718 h 1.11545 v 0.446179 h 1.78472 v -0.446179 h 0.89236 v -0.892357 h -1.78472 v 0.446179 h -2.00781 v 0.446178" /><path
         inkscape:connector-curvature="0"
         style="fill:url(#gradient12);fill-rule:evenodd;stroke:none"
         id="path4022"
         d="m 124.48387,69.380792 h -1.33854 v -0.892357 h 1.33854 v 0.892357" /><path
         inkscape:connector-curvature="0"
         style="fill:url(#gradient13);fill-rule:evenodd;stroke:none"
         id="path4024"
         d="m 103.06729,83.435422 h -0.44618 v 0.892358 h -0.44618 v 0.669268 h -0.89236 v -1.561626 h 0.44618 v -0.892357 h 1.33854 v 0.892357" /><path
         inkscape:connector-curvature="0"
         style="fill:url(#gradient14);fill-rule:evenodd;stroke:none"
         id="path4026"
         d="M 74.06567,83.881601 V 84.32778 H 73.619491 V 83.881601 H 74.06567" /><path
         inkscape:connector-curvature="0"
         style="fill:url(#gradient15);fill-rule:evenodd;stroke:none"
         id="path4028"
         d="m 71.611687,84.997048 h -1.784715 v -1.561626 h 3.34634 v 0.892358 h -1.561625 v 0.669268" /><path
         inkscape:connector-curvature="0"
         style="fill:url(#gradient16);fill-rule:evenodd;stroke:none"
         id="path4030"
         d="m 74.06567,87.674121 v -2.230895 h 0.446178 v -0.446178 h 0.892358 v 3.12325 H 74.511848 V 87.674121 H 74.06567" /><path
         inkscape:connector-curvature="0"
         style="fill:url(#gradient17);fill-rule:evenodd;stroke:none"
         id="path4032"
         d="m 74.958027,83.881601 v 0.446179 h -0.446179 v -0.446179 h 0.446179" /><path
         inkscape:connector-curvature="0"
         style="fill:url(#gradient18);fill-rule:evenodd;stroke:none"
         id="path4034"
         d="m 64.919006,78.527456 v 0.446179 H 64.249737 V 77.18892 h 1.115448 v 1.338536 h -0.446179" /><path
         inkscape:connector-curvature="0"
         style="fill:url(#gradient19);fill-rule:evenodd;stroke:none"
         id="path4036"
         d="M 63.803559,77.635098 H 62.018844 V 77.18892 h 1.784715 v 0.446178" /><path
         inkscape:connector-curvature="0"
         style="fill:url(#gradient20);fill-rule:evenodd;stroke:none"
         id="path4038"
         d="m 63.803559,81.204529 v -0.892358 h -0.446178 v -0.892357 h 1.561625 v 1.784715 h -1.115447" /><path
         inkscape:connector-curvature="0"
         style="fill:url(#gradient21);fill-rule:evenodd;stroke:none"
         id="path4040"
         d="m 63.803559,81.204529 v 0.446178 h 1.115447 v 0.446179 h 0.892358 v -0.446179 h 1.784714 v 0.892358 h 0.892358 v 0.446178 h 0.892357 v 1.338537 h -1.338536 v 0.669268 H 66.257542 V 84.32778 h -1.338536 v -0.892358 h -1.115447 v 0.446179 h 0.446178 v 1.115447 h -0.892356 v -2.007805 h -1.338537 v -0.446178 h -0.892358 v -0.446179 h -0.446178 v -0.446179 h -1.338536 v -0.446178 h -0.446179 v 0.446178 h -1.338536 v -1.338536 h 0.892357 v -0.446178 h 1.784715 v 0.446178 h 1.338536 v 0.446179 h 1.338537 v 0.446179 h 0.892357" /><path
         inkscape:connector-curvature="0"
         style="fill:url(#gradient22);fill-rule:evenodd;stroke:none"
         id="path4042"
         d="m 67.149899,79.419814 v 0.892357 h -1.784714 v -0.892357 h 1.784714" /><path
         inkscape:connector-curvature="0"
         style="fill:url(#gradient23);fill-rule:evenodd;stroke:none"
         id="path4044"
         d="m 58.895593,38.371371 h -1.338536 v -0.892358 h -0.892358 v -1.338536 h 0.446179 V 35.24812 h 0.892358 v -0.446179 h 0.446178 v -0.446179 h 0.446179 v 0.892358 h 0.892357 v 0.446178 h 0.446179 v 0.446179 h 0.892357 v 0.892357 h 0.446179 v 0.446179 h 0.446179 v 0.446179 h 0.892358 v -0.446179 h 0.446179 v -0.446179 h 0.892356 v 1.784716 h -1.338535 v 0.446178 h 0.446179 v 0.446178 h 2.900161 v 0.669269 h 0.446178 v 0.446179 h 0.446179 v 0.446179 h 0.892358 v 3.123251 h 0.446179 v 0.446178 h 1.338536 v -0.446178 h 0.892357 v -1.338537 h 0.446179 v -0.446179 h 0.892357 v 0.892358 h 0.446179 v 0.892358 h 0.669268 v 0.892357 h 0.446179 v 1.338536 h 0.446179 v 0.892357 h 0.446178 v 0.446179 h 0.446179 v 1.561626 h 0.446179 v 0.446179 h 1.784714 v 0.446178 h 0.446179 v 0.446179 h 0.446179 v 1.115447 h 0.446179 v 1.784715 h -0.446179 v 0.446179 H 77.18892 v 0.446178 h -0.446178 v 0.446179 h -0.446178 v 0.446178 H 75.850385 V 55.99543 H 74.958027 V 55.549251 H 73.619491 V 55.99543 H 70.27315 v 0.446179 h 1.338537 v 1.784715 h -0.446179 v 1.338536 h 0.446179 v 0.669269 h 0.892357 v 0.446178 h 0.669268 v 0.446178 h 0.446179 v 0.892358 h -1.115447 v 0.446179 h -0.892357 v 0.446179 h -1.784715 v -0.446179 h -0.892357 v 0.446179 h -0.446179 v 0.446179 h -0.446179 v 0.446178 h 0.446179 v 0.446179 h 0.446179 v 0.446179 h -0.446179 v 0.446178 h -3.123251 v 2.677073 h -1.115448 v 1.115447 h -0.892356 v 0.446178 h 0.446178 v 0.892358 h -0.446178 v 0.446179 h -0.446179 v 0.446178 h -0.892358 v 0.892357 h -0.446179 v 0.446179 h -0.446179 v 0.446179 H 60.234129 V 73.84258 H 59.78795 v 1.784714 h 0.446179 v 1.115448 h 0.446179 v 0.892356 h 0.446178 v 1.338537 h -0.446178 v 0.446179 H 59.341772 V 78.973635 H 58.895593 V 78.527456 H 58.449414 V 78.081277 H 58.003236 V 77.18892 H 57.557057 V 75.627294 H 57.110878 V 75.181116 H 52.87218 v 0.446178 h -4.015608 v 0.446179 h -0.892358 v 0.669269 h -0.669268 v 0.446178 h -0.446178 v 1.784715 h 0.446178 v 1.338536 h 0.669268 v 0.892358 h 0.446179 v 1.338536 h 0.446179 v 0.446178 h 1.338535 v 0.446179 h 1.338537 v -0.446179 h 0.892358 v -0.446178 h 0.446178 v -0.892358 h 1.338536 v -0.446178 h 2.453983 v 1.338536 h -0.669268 v 2.900161 h 2.900162 v 3.123251 h -0.446179 v 0.446179 h 0.446179 v 0.892358 h 0.446179 v 0.446179 h 0.892357 v 0.446178 h 0.892357 v -0.446178 h 1.784716 v 0.446178 h 0.446179 v -0.446178 h 0.446178 v -0.892358 h 0.446178 v -0.446179 h 1.561627 v -0.446179 h 0.892356 v -0.446179 h 2.230895 v 0.892358 h 0.892357 v 0.446179 h 0.446178 v 0.446179 h 0.446179 v -0.446179 h 2.900162 v 0.446179 h 0.892357 v 0.446179 h 0.446179 v 0.446178 h 0.446179 v 0.446179 h 0.446179 v 0.446179 h 0.446179 v 0.446178 h 0.446178 v 0.446179 h 0.892357 v 0.446179 h 1.784716 v 0.669268 h 0.446179 v 0.446178 h 0.892356 v 0.446179 h 0.669269 v 0.446179 h 0.446179 v 0.446179 h 0.446179 v 2.230894 h 4.015608 v 1.338533 h 1.338536 v 0.44618 h 1.784715 v 0.44618 h 1.561625 v 0.446165 h 0.446179 v 0.44618 h 1.115447 v 0.44618 h 0.892357 v 3.79253 h -0.446178 v 0.44618 h -0.446179 v 0.89236 h -0.669268 v 0.44617 H 91.46664 v 0.89236 h -0.446179 v 0.89235 h -0.446178 v 2.00781 h -0.446179 v 2.23089 h -0.669268 v 0.89236 h -0.446179 v 0.44618 h -0.446179 v 0.44618 h -0.446179 v 0.44618 h -0.446178 v 0.44618 h -0.892357 v 0.44618 h -1.784715 v 0.89235 h -0.892358 v 0.44618 h -0.446179 v 0.44618 h -0.446179 v 1.56162 h -0.446179 v 0.89236 h -0.446177 v 0.89236 h -0.446179 v 0.44618 h -0.446179 v 1.33853 H 80.75835 v 0.89236 h -0.446178 v 0.89236 h -0.446178 v 0.89236 h -0.446179 v 0.66926 h -2.677073 v 0.44618 h 0.446178 v 2.90017 h -0.446178 v 0.44618 h -0.892357 v 0.44618 h -0.892358 v -0.44618 h -1.338536 v 1.33853 h -0.446179 v 0.89236 h -1.561625 v 0.44618 h 0.446178 v 1.33854 h -0.446178 v 0.89235 h -0.446179 v 1.33853 h -0.446179 v 0.44618 h -0.892357 v 1.56163 h 0.892357 v 2.2309 H 70.27315 v 0.44617 h -0.446178 v 0.44618 h -0.446179 v 0.89236 h -0.446178 v 0.44618 h -0.446179 v 0.89236 h 0.446179 v 1.78471 h 0.446178 v 0.44618 h 0.446179 v 0.66927 h 1.338536 v 0.44617 h 0.446179 v 0.44618 h 0.446178 v 1.33854 h -0.446178 v 0.89236 h -0.892358 v -0.44618 h -0.892357 v 0.44618 h -0.892357 v -0.44618 h -1.784716 v -0.89236 h -0.892357 v -1.33854 h 0.892357 v -1.11544 H 66.70372 v -0.44618 h -0.892356 v 0.44618 h -0.892358 v -0.44618 h -0.669269 v -0.44618 h -0.446178 v -0.44617 h -0.446178 v -5.35415 h 0.446178 v -2.00781 h 0.446178 v -0.44618 h 0.669269 v -3.56942 h -0.669269 v -0.89236 h 0.669269 v -0.89236 h 0.446179 v -0.44618 h -0.446179 v -3.34634 h 0.446179 v -1.33854 h 0.446179 v -2.45398 h 0.446178 v -3.12325 h 0.446178 v -1.33854 h 0.446179 v -7.36194 H 66.70372 v -0.44618 h -0.446178 v -0.44618 h -0.446178 v -0.44618 h -0.892358 v -0.44618 h -1.115447 v -0.66927 h -0.446178 v -0.44618 h -0.446179 v -0.44618 h -0.446179 v -0.44617 h -0.446179 v -2.23089 h -0.446179 v -0.89236 h -0.446179 v -0.89236 h -0.446178 v -0.44618 h -0.446179 v -0.44618 H 59.78795 v -1.33853 h -0.446178 v -1.11546 h 0.446178 v -1.784705 h 0.446179 v -0.446176 h 0.892357 v -0.892357 h 0.446179 v -1.338537 h 0.446179 v -0.892357 h 0.446179 V 94.58989 h 0.446179 V 92.582086 H 62.465023 V 92.135907 H 60.680308 V 91.689729 H 57.557057 V 91.24355 H 56.664699 V 89.905014 H 55.995431 V 89.012656 H 55.549252 V 88.566477 H 54.656895 V 88.120298 H 53.318359 V 87.674121 H 52.87218 V 87.227942 H 52.426002 V 86.781763 H 51.979823 V 86.335584 H 46.848768 V 85.443226 H 44.617874 V 84.997048 H 43.725516 V 84.32778 H 41.940802 V 83.881601 H 41.048444 V 82.543065 H 40.602265 V 80.75835 h -0.446179 v -0.446179 h -0.446179 v -0.446178 h -1.115446 v -0.892358 h -0.892358 v -0.446179 h -0.446179 v -0.892358 h -0.892356 v 0.892358 h 0.446177 v 0.446179 h 0.446179 v 0.892358 h 0.446179 v 0.446178 h 0.446179 v 0.892358 H 36.809745 V 80.75835 H 35.917389 V 79.865993 H 35.47121 V 79.419814 H 35.025031 V 78.527456 H 34.578852 V 78.081277 H 34.132673 V 77.635098 H 33.240316 V 76.742742 H 32.794137 V 75.627294 H 32.347959 V 75.181116 H 31.90178 V 74.288759 H 31.455601 V 73.84258 H 30.786333 V 72.504043 H 30.340154 V 72.057864 H 29.001618 V 71.611686 H 28.555439 V 71.165507 H 28.109261 V 70.27315 h -0.892358 v -0.892358 h -0.446179 v -0.446178 h -0.446179 v -1.115447 h -0.446178 v -0.892358 h -0.446178 v -4.461787 h 0.446178 v -2.230893 h 0.446178 V 56.887788 H 25.878367 V 56.441609 H 25.432189 V 55.99543 H 24.539831 V 55.549251 H 24.093652 V 55.103073 H 23.201294 V 54.656894 H 22.532027 V 53.764537 H 22.085848 V 53.318358 H 21.639669 V 52.872179 H 21.19349 V 51.310554 H 20.747311 V 49.972018 H 21.19349 V 49.525839 H 20.301133 V 49.07966 H 19.854954 V 47.518034 H 18.962597 V 46.625677 H 18.516418 V 46.179498 H 18.070239 V 45.73332 H 16.731703 V 45.287141 H 14.723899 V 44.840962 H 14.27772 v -0.446178 h -0.446179 v -0.892358 h 0.446179 v -0.892358 h 0.446179 v -0.892356 h 0.446178 v -0.446179 h 0.446179 v -0.892358 h 0.446179 v -1.115447 h 0.669268 V 38.81755 h 0.446179 v -0.892358 h 0.446178 v -0.446179 h 0.446179 v -0.892358 h 0.446179 v -0.446178 h 0.446179 v -0.446179 h 0.446179 v -0.892357 h 0.446178 v -0.446179 h 0.446179 v -0.892357 h 0.446178 v -0.446179 h 0.446179 v -0.446179 h 0.446179 v -0.446179 h 0.446179 v -1.115446 h 0.446179 v -0.446179 h 0.669267 v -0.446179 h 0.446179 v -0.446179 h 0.446179 v -0.446179 h 0.446179 V 28.778528 H 24.98601 V 28.33235 h 0.446179 v -0.446179 h 0.446178 v -0.446179 h 0.446178 v -0.446179 h 0.446179 v -0.446179 h 2.230894 v 0.446179 h 0.892358 v 0.446179 h 0.892357 v 0.446179 h 0.669268 v 0.446179 h 0.446179 v 0.446178 h 0.446179 v -0.892357 h 0.892357 v 0.446179 h 0.446179 v 0.446178 h 0.446178 v 1.338536 h -0.446178 v 0.446179 h 2.230894 v -0.446179 h 0.892356 v 0.446179 h 0.446179 V 31.4556 h 0.446179 v -0.446178 h 0.446179 v -0.446179 h -0.446179 v -1.338537 h 0.446179 v -0.446178 h 2.007804 V 28.33235 h 0.446179 v 0.446178 h 0.446179 v 0.892357 h 1.338536 v 0.446179 h 0.446179 v 0.446179 h 0.446178 v 0.446179 h 0.446179 v -0.446179 h 1.784715 v -1.338537 h 2.900162 v 0.892358 h -0.446179 v 0.446179 h 1.338536 v -0.446179 h 0.446179 V 29.224706 H 49.30275 v -0.446178 h -0.446178 v -0.892357 h -0.446179 v -0.446179 h -1.115447 v 0.446179 h -0.892357 v -0.446179 h -0.892358 v -1.338537 h -0.446179 v 0.892358 h -0.446178 v 0.446179 H 42.38698 v -0.446179 h -1.338536 v 0.446179 h -2.453983 v 0.446179 h -2.230893 v -0.446179 h -0.446179 v -0.446179 h -1.338537 v -0.446179 h -0.446179 v -1.338536 h 3.56943 V 24.76292 h -0.892358 v -0.446179 h -0.892356 v 0.446179 h -1.784716 v -0.446179 h -0.892357 v -1.561625 h -0.446179 v -0.892358 h -0.446178 v 0.446179 h -0.892358 v -0.446179 h 0.446179 v -0.446179 h 0.892357 V 20.9704 h 0.446179 v -0.446179 h 0.446179 v -0.446178 h 0.446178 v -0.446179 h 0.446179 v 0.446179 h 0.446179 v -0.892358 h 0.446179 v -0.446179 h 0.446179 v 0.446179 h 0.892356 v 1.338536 h 0.446179 v -0.892357 h 1.338537 v 0.446179 h 2.007804 v 0.446178 h 0.446179 v -0.446178 h 1.338536 v 0.446178 h 0.446179 v 2.677072 h 0.446178 v 1.115448 h 1.338537 v 0.446179 h 1.338536 v 1.338535 h 0.892358 v -0.892357 h 1.115446 v -0.892357 h 0.446179 v -0.446179 h 0.446179 v -1.115446 h -0.446179 v 0.446177 H 45.95641 V 22.755116 H 45.064052 V 21.862758 H 44.617874 V 21.416579 H 44.171695 V 20.9704 h -0.446179 v -1.338536 h 1.338536 v -1.784715 h 0.446179 v -0.446178 h 2.900162 v 0.446178 h 0.446179 v 4.015609 h 2.230893 v 2.007804 h 0.446179 v 1.784715 h 0.446179 v 2.230894 h 1.338536 v 0.446179 h 0.446178 v -0.446179 h 0.892358 v 1.784714 h 0.446179 v 0.446179 h 0.446178 v -1.338536 h 0.446179 V 28.33235 h 0.669268 v -0.446179 h -0.669268 v -1.338537 h 2.453983 v 1.338537 h 0.892358 v 1.338535 h -0.446179 v 0.446179 h -0.446179 v 0.446179 h 0.892358 v 2.453983 h -0.446179 v 0.446179 h -0.446179 v 0.892357 h -1.784715 v 0.446179 h -1.115447 v -0.446179 h -1.338536 v 0.446179 h 0.892358 v 1.338536 h -0.446179 v 0.446179 h -0.446179 v 0.892357 h -0.446179 v 2.230894 h -2.230893 v 0.446178 h -0.892358 v 1.115448 h -0.446179 v 0.446179 h -0.446178 v 0.446179 H 49.30275 v 0.446177 h -0.446178 v 1.338537 h -0.446179 v 0.892358 h 0.446179 v 0.446178 h 0.446178 v 0.446179 h 0.446179 v -0.446179 h 0.446178 v 0.892358 h 0.446179 v 0.446178 h 0.892358 v 0.892358 h 0.446179 v 1.561625 h 0.446179 v 0.446179 h 0.446178 v 0.446179 h 4.238698 v 0.446179 h 0.446179 v 1.338536 h 0.446179 v 1.561625 h 0.446178 v 0.446179 h 0.446179 v 0.892358 h 0.446179 v 0.446178 h 0.446178 v -0.446178 h 0.446179 V 53.318358 H 59.78795 v -3.34634 h 0.446179 v -0.446179 h 0.446179 V 49.07966 h 0.446178 v -0.446179 h 0.446179 v -0.669268 h -0.446179 v -1.784715 h -0.446178 v -2.677072 h 0.446178 v -1.338537 h -0.446178 v -1.784714 h 0.446178 v -2.453983 h -0.892357 v -0.446179 h -0.892357 v 0.446179 h -0.446179 v 0.446179 m 22.978205,59.78795 v -0.446179 h -0.446179 v 0.446179 h 0.446179 m -1.115448,0 v 0.446178 h 0.669269 V 98.159321 H 80.75835 M 69.380793,56.887788 h -0.446178 v 0.446179 h 0.446178 v -0.446179 m 0.892357,-0.446179 h -0.446178 v 0.446179 h 0.446178 v -0.446179 m -1.784714,1.338537 v -0.446179 h -0.446179 v 0.446179 h 0.446179 M 55.549252,58.672502 H 54.656895 V 58.226324 H 54.210716 V 57.780146 H 52.87218 v 0.446178 h -0.446178 v 0.446178 h -0.446179 v 0.446179 h 1.784714 v -0.446179 h 0.446179 v 0.446179 h 1.338536 v -0.446179 m 1.561626,1.561627 v 0.446178 h 0.892358 v 1.338536 h 0.446178 v -1.338536 h 0.446179 v -0.446178 h -1.784715 m 4.461787,1.784714 h 0.446179 v -0.446179 h -0.892358 v 1.338537 h 0.446179 v -0.892358 m 1.338537,0 h 0.446179 v -0.446179 h -0.446179 v 0.446179 M 60.234129,60.680307 H 59.78795 v 0.446178 h 0.446179 v -0.446178 m 0.446179,2.677073 h 0.446178 v -0.446179 h -1.784714 v 0.446179 h -0.446179 v 0.446178 h 1.784715 V 63.35738 m -1.784715,-2.677073 v 0.446178 h 0.446179 v -0.446178 h -0.446179 m -3.346341,0.892357 h -0.446178 v 0.446179 h -0.446179 v 1.338537 h -0.446179 v 0.446178 h 0.892358 v -1.338536 h 0.446178 v -0.892358 m -20.9704,13.608452 h -0.446179 v 0.446178 h 0.446179 v -0.446178" /></g><g
       id="rect4"
       style="display:inline"><path
         id="rect1"
         style="display:inline;fill:url(#linearGradient2);stroke-width:3.13701;stroke-linecap:round;stroke-linejoin:round"
         d="m 131.22934,122.67671 c 19.66477,-0.20226 34.68648,-5.04759 51.04848,-8.55262 l -4.54358,60.13564 -58.93294,7.61718 c 9.8794,-20.30544 12.39623,-39.59816 12.42804,-59.2002 z"
         sodipodi:nodetypes="ccccc"
         inkscape:label="eathhole" /><path
         style="color:#000000;display:inline;fill:#cbeaff;stroke-linecap:round;stroke-linejoin:round;-inkscape-stroke:none"
         d="m 138.71288,135.77292 44.36674,-12.2944 39.43896,35.06241 -7.77702,33.82549 -35.80462,13.83202 -43.69856,-34.34414 z"
         id="path6"
         inkscape:label="colorhead"
         sodipodi:nodetypes="ccccccc" /><path
         id="rect7"
         style="fill:url(#linearGradient8);stroke-width:3.13701;stroke-linecap:round;stroke-linejoin:round"
         d="m 139.91559,135.63929 42.11164,34.84259 -3.96875,33.89181 -42.55283,-32.78666 z"
         sodipodi:nodetypes="ccccc" /><path
         id="rect8"
         style="display:inline;fill:url(#linearGradient10);stroke-width:3.13701;stroke-linecap:round;stroke-linejoin:round"
         d="m 181.81009,170.05023 40.43528,-11.64984 -7.16022,34.1673 -36.8832,13.29666 z"
         sodipodi:nodetypes="ccccc" /><g
         id="rect14"
         style="display:inline"><path
           style="color:#000000;fill:#b1d1f5;stroke-linecap:round;stroke-linejoin:round;-inkscape-stroke:none"
           d="m 147.93368,133.63476 28.8651,-8.28536 19.24341,17.77343 -27.12785,8.15172 z"
           id="path14" /><path
           id="rect15"
           style="fill:#91acdd;stroke-width:2.5;stroke-linecap:round;stroke-linejoin:round"
           d="m 160.07292,130.16555 18.23735,17.90662 -2.17337,1.18117 -19.60751,-17.90662 z"
           sodipodi:nodetypes="ccccc" /><path
           id="path16"
           style="fill:#91acdd;stroke-width:2.5;stroke-linecap:round;stroke-linejoin:round"
           d="m 168.76637,126.95275 18.23735,17.90662 -2.17337,1.18117 -19.60751,-17.90662 z"
           sodipodi:nodetypes="ccccc" /><path
           style="color:#000000;fill:#91acdd;fill-opacity:1;stroke-linecap:round;stroke-linejoin:round;-inkscape-stroke:none"
           d="m 176.45312,124.14844 -28.86523,8.28515 c -0.96147,0.27657 -1.2247,1.51432 -0.45898,2.15821 l 20.98046,17.63867 c 0.3227,0.27122 0.76036,0.36154 1.16407,0.24023 l 27.1289,-8.15039 c 0.92631,-0.2787 1.1987,-1.45871 0.48828,-2.11523 l -19.24414,-17.77344 c -0.32096,-0.29646 -0.77342,-0.40383 -1.19336,-0.2832 z m -0.97849,2.07598 18.11133,16.33222 -24.38477,7.32617 -19.32747,-16.6875 z"
           id="path15"
           sodipodi:nodetypes="cccccccccccccc" /></g><path
         style="color:#000000;display:inline;fill:url(#linearGradient6);stroke-linecap:round;stroke-linejoin:round;-inkscape-stroke:none"
         d="m 182.66016,121.9668 -44.36524,12.29492 c -0.62598,0.17344 -1.08031,0.71476 -1.14258,1.36133 l -3.47461,36.08007 c -0.0517,0.53229 0.17138,1.05424 0.5918,1.38477 l 42.94132,33.77679 c 0.40253,0.31614 0.93398,0.41601 1.42382,0.26758 l 36.41927,-13.07618 c 0.5441,-0.16461 0.95657,-0.6107 1.07813,-1.16601 l 7.41856,-34.02953 c 0.12027,-0.55267 -0.0663,-1.1273 -0.48828,-1.50391 L 184.125,122.30859 c -0.39825,-0.35587 -0.95021,-0.48466 -1.46484,-0.34179 z m 0.0137,2.44875 38.53402,34.33383 -7.94492,32.57037 -34.75326,12.57423 -41.62686,-32.74359 3.28711,-34.15234 z"
         id="path7"
         sodipodi:nodetypes="cccccccccccccccccccc"
         inkscape:label="frame" /><path
         id="rect10"
         style="display:inline;fill:url(#linearGradient12);fill-opacity:1;stroke:#869dc8;stroke-width:2.5;stroke-linecap:round;stroke-linejoin:round;stroke-dasharray:none;stroke-opacity:1"
         d="m 194.98548,189.75634 c -2.32996,-3.00055 2.58578,-11.19371 8.50125,-14.20443 11.94908,5.02186 34.07378,17.12511 33.36005,39.50034 -0.4554,14.277 -6.14519,19.83527 -19.73316,22.67857 -8.07542,1.6898 -24.64685,2.26786 -24.64685,2.26786 l -24.75344,0.94494 c -8.16457,0.31168 -12.39533,0.2611 -14.13592,8.01595 l -0.51498,5.19158 -26.54988,0.18024 0.39285,-5.0225 c 3.10518,-10.81815 16.32785,-25.1816 41.94986,-24.61825 l 23.62751,-0.56696 c 13.2452,-0.618 27.43487,-1.17781 28.10752,-11.74019 -0.92613,-12.27389 -16.24502,-16.96174 -25.60481,-22.62715 z"
         sodipodi:nodetypes="ccsscsccccccsc" /></g></g></svg>
