<?xml version="1.0" encoding="UTF-8" standalone="no"?>
<!-- Created with Inkscape (http://www.inkscape.org/) -->

<svg
   width="256mm"
   height="256mm"
   viewBox="0 0 256 256"
   version="1.1"
   id="svg1"
   inkscape:version="1.3.2 (091e20ef0f, 2023-11-25)"
   xml:space="preserve"
   sodipodi:docname="preferences-system-windows-effect-trackmouse.svg"
   xmlns:inkscape="http://www.inkscape.org/namespaces/inkscape"
   xmlns:sodipodi="http://sodipodi.sourceforge.net/DTD/sodipodi-0.dtd"
   xmlns:xlink="http://www.w3.org/1999/xlink"
   xmlns="http://www.w3.org/2000/svg"
   xmlns:svg="http://www.w3.org/2000/svg"
   xmlns:rdf="http://www.w3.org/1999/02/22-rdf-syntax-ns#"
   xmlns:cc="http://creativecommons.org/ns#"
   xmlns:dc="http://purl.org/dc/elements/1.1/"
   xmlns:a="http://ns.adobe.com/AdobeSVGViewerExtensions/3.0/"><defs
     id="defs1"><linearGradient
       id="linearGradient49"
       inkscape:collect="always"><stop
         style="stop-color:#596fbc;stop-opacity:1"
         offset="0"
         id="stop47" /><stop
         style="stop-color:#5e70b3;stop-opacity:1;"
         offset="0.29999852"
         id="stop48" /><stop
         style="stop-color:#0022aa;stop-opacity:1"
         offset="1"
         id="stop49" /></linearGradient><linearGradient
       id="linearGradient43"
       inkscape:collect="always"><stop
         style="stop-color:#596fbc;stop-opacity:1"
         offset="0"
         id="stop44" /><stop
         style="stop-color:#5e70b3;stop-opacity:1;"
         offset="0.40000001"
         id="stop46" /><stop
         style="stop-color:#0022aa;stop-opacity:1"
         offset="1"
         id="stop45" /></linearGradient><linearGradient
       id="linearGradient38"
       inkscape:collect="always"><stop
         style="stop-color:#6a7cbc;stop-opacity:1;"
         offset="0"
         id="stop39" /><stop
         style="stop-color:#0029bc;stop-opacity:1;"
         offset="0.5"
         id="stop41" /><stop
         style="stop-color:#002095;stop-opacity:1;"
         offset="0.83487946"
         id="stop42" /><stop
         style="stop-color:#002486;stop-opacity:1;"
         offset="1"
         id="stop40" /></linearGradient><linearGradient
       id="linearGradient35"
       inkscape:collect="always"><stop
         style="stop-color:#0021bc;stop-opacity:0.98550725;"
         offset="0"
         id="stop36" /><stop
         style="stop-color:#0023a2;stop-opacity:0.99215686;"
         offset="0.45650041"
         id="stop38" /><stop
         style="stop-color:#001a6e;stop-opacity:1;"
         offset="1"
         id="stop37" /></linearGradient><linearGradient
       id="linearGradient30"
       inkscape:collect="always"><stop
         style="stop-color:#002486;stop-opacity:1"
         offset="0"
         id="stop30" /><stop
         style="stop-color:#002486;stop-opacity:1"
         offset="0.53118312"
         id="stop43" /><stop
         style="stop-color:#0026a1;stop-opacity:1;"
         offset="0.76559156"
         id="stop50" /><stop
         style="stop-color:#0055e4;stop-opacity:1"
         offset="1"
         id="stop31" /></linearGradient><linearGradient
       id="linearGradient4"
       inkscape:collect="always"><stop
         style="stop-color:#253f7f;stop-opacity:1"
         offset="0"
         id="stop20" /><stop
         style="stop-color:#1b418a;stop-opacity:1"
         offset="0.33367017"
         id="stop24" /><stop
         style="stop-color:#0c459e;stop-opacity:1"
         offset="0.56207711"
         id="stop22" /><stop
         style="stop-color:#055bd8;stop-opacity:1"
         offset="0.79273558"
         id="stop23" /><stop
         style="stop-color:#016aff;stop-opacity:1"
         offset="1"
         id="stop21" /></linearGradient><linearGradient
       id="linearGradient17"
       inkscape:collect="always"><stop
         style="stop-color:#016aff;stop-opacity:1"
         offset="0"
         id="stop17" /><stop
         style="stop-color:#0c449b;stop-opacity:1;"
         offset="0.5"
         id="stop19" /><stop
         style="stop-color:#253f7f;stop-opacity:1;"
         offset="1"
         id="stop18" /></linearGradient><linearGradient
       id="linearGradient2"
       inkscape:collect="always"><stop
         style="stop-color:#165bbc;stop-opacity:0.92156863"
         offset="0"
         id="stop2" /><stop
         style="stop-color:#238cfe;stop-opacity:1"
         offset="0.01301398"
         id="stop11" /><stop
         style="stop-color:#0052e2;stop-opacity:1;"
         offset="0.02533229"
         id="stop9" /><stop
         style="stop-color:#0054e3;stop-opacity:1;"
         offset="0.03082864"
         id="stop16" /><stop
         style="stop-color:#0054e3;stop-opacity:1"
         offset="0.04563211"
         id="stop12" /><stop
         style="stop-color:#0055e4;stop-opacity:1"
         offset="0.05856774"
         id="stop10" /><stop
         style="stop-color:#4c85ea;stop-opacity:1;"
         offset="0.08229581"
         id="stop8" /><stop
         style="stop-color:#69a4ff;stop-opacity:1;"
         offset="0.13100992"
         id="stop13" /><stop
         style="stop-color:#0045bc;stop-opacity:1"
         offset="0.13934122"
         id="stop15" /><stop
         style="stop-color:#334c86;stop-opacity:1;"
         offset="0.15100679"
         id="stop14" /><stop
         style="stop-color:#0029bc;stop-opacity:1;"
         offset="0.18331479"
         id="stop7" /><stop
         style="stop-color:#0029bc;stop-opacity:1;"
         offset="0.5"
         id="stop6" /><stop
         style="stop-color:#0029bc;stop-opacity:1;"
         offset="1"
         id="stop5" /></linearGradient><linearGradient
       inkscape:collect="always"
       xlink:href="#linearGradient2"
       id="linearGradient5"
       x1="113.15929"
       y1="7.6648154"
       x2="111.02113"
       y2="219.95973"
       gradientUnits="userSpaceOnUse" /><linearGradient
       inkscape:collect="always"
       xlink:href="#linearGradient17"
       id="linearGradient18"
       x1="7.2029138"
       y1="66.884198"
       x2="9.3228207"
       y2="66.884201"
       gradientUnits="userSpaceOnUse" /><radialGradient
       inkscape:collect="always"
       xlink:href="#linearGradient4"
       id="radialGradient21"
       cx="10.881392"
       cy="218.21021"
       fx="10.881392"
       fy="218.21021"
       r="2.7639142"
       gradientTransform="matrix(-3.0583129e-7,-2.0025764,0.97437522,-5.5795273e-7,-202.88561,237.21351)"
       gradientUnits="userSpaceOnUse" /><linearGradient
       inkscape:collect="always"
       xlink:href="#linearGradient30"
       id="linearGradient31"
       x1="-215.65332"
       y1="251.75995"
       x2="-215.65332"
       y2="249.3564"
       gradientUnits="userSpaceOnUse"
       gradientTransform="matrix(0,-1,1.9879679,0,-246.34583,0)" /><linearGradient
       inkscape:collect="always"
       xlink:href="#linearGradient35"
       id="linearGradient37"
       x1="241.76753"
       y1="218.89293"
       x2="241.76753"
       y2="221.80754"
       gradientUnits="userSpaceOnUse"
       gradientTransform="matrix(1,0,0,1.7486777,0,-163.80661)" /><radialGradient
       inkscape:collect="always"
       xlink:href="#linearGradient38"
       id="radialGradient40"
       cx="246.12991"
       cy="218.15485"
       fx="246.12991"
       fy="218.15485"
       r="3.7235149"
       gradientTransform="matrix(1.5524705,-0.00728809,0.00367373,0.78255927,-137.11303,49.071223)"
       gradientUnits="userSpaceOnUse" /><linearGradient
       inkscape:collect="always"
       xlink:href="#linearGradient43"
       id="linearGradient45"
       x1="241.02252"
       y1="218.12653"
       x2="241.02252"
       y2="219.69385"
       gradientUnits="userSpaceOnUse" /><linearGradient
       inkscape:collect="always"
       xlink:href="#linearGradient49"
       id="linearGradient46"
       gradientUnits="userSpaceOnUse"
       x1="223.60962"
       y1="219.44943"
       x2="223.60962"
       y2="220.88448"
       gradientTransform="rotate(-90,170.25444,142.19123)" /><linearGradient
       id="SVGID_XMLID_3__9"
       gradientUnits="userSpaceOnUse"
       gradientTransform="matrix(1.98,0,0,1.98,-126.43,-126.43)"
       x1="63.997601"
       y1="14.0005"
       x2="63.997601"
       y2="63.0005">
<stop
   offset="0%"
   style="stop-color:rgb(255,255,255);stop-opacity: 1"
   id="stop31-0" />
<stop
   offset="100%"
   style="stop-color:rgb(255,255,255);stop-opacity: 0"
   id="stop32" />
</linearGradient><linearGradient
       id="SVGID_XMLID_2__8"
       gradientUnits="userSpaceOnUse"
       gradientTransform="matrix(1.98,0,0,1.98,-126.43,-126.43)"
       x1="68.054878"
       y1="118.06909"
       x2="23.2307"
       y2="22.761999">
<stop
   offset="0%"
   style="stop-color:rgb(255,84,84);stop-opacity: 1"
   id="stop26" />
<stop
   offset="19.439999999999998%"
   style="stop-color:rgb(249,79,79);stop-opacity: 1"
   id="stop27" />
<stop
   offset="46.650000000000006%"
   style="stop-color:rgb(230,66,66);stop-opacity: 1"
   id="stop28" />
<stop
   offset="78.3%"
   style="stop-color:rgb(201,45,45);stop-opacity: 1"
   id="stop29" />
<stop
   offset="100%"
   style="stop-color:rgb(176,28,28);stop-opacity: 1"
   id="stop30-9" />
</linearGradient><linearGradient
       id="SVGID_XMLID_1__7"
       gradientUnits="userSpaceOnUse"
       gradientTransform="matrix(1.98,0,0,1.98,-126.43,-126.43)"
       x1="115.60217"
       y1="117.39095"
       x2="13.810602"
       y2="13.381392">
<stop
   offset="0"
   style="stop-color:#ff9090;stop-opacity:1;"
   id="stop21-3" />
<stop
   offset="0.1944"
   style="stop-color:#fa8080;stop-opacity:1;"
   id="stop22-6" />
<stop
   offset="0.46650001"
   style="stop-color:#e74f4f;stop-opacity:1;"
   id="stop23-0" />
<stop
   offset="0.63636678"
   style="stop-color:#9d2323;stop-opacity:1;"
   id="stop24-6" />
<stop
   offset="1"
   style="stop-color:#881515;stop-opacity:1;"
   id="stop25" />
</linearGradient><linearGradient
       id="XMLID_1_"
       gradientUnits="userSpaceOnUse"
       x1="57.584499"
       y1="154.013"
       x2="57.584499"
       y2="-101.487">
				<stop
   offset="0"
   style="stop-color:rgb(255,255,255)"
   id="stop1-5" />
				<stop
   offset="0.258"
   style="stop-color:rgb(241,241,241)"
   id="stop2-6" />
				<stop
   offset="0.7396"
   style="stop-color:rgb(206,206,206)"
   id="stop3-2" />
				<stop
   offset="0.8595"
   style="stop-color:rgb(196,196,196)"
   id="stop4-4" />
			</linearGradient><linearGradient
       id="XMLID_2_"
       gradientUnits="userSpaceOnUse"
       x1="-32.668499"
       y1="-26.8843"
       x2="49.8302"
       y2="55.614399">
				<stop
   offset="0"
   style="stop-color:rgb(178,178,178)"
   id="stop5-9" />
				<stop
   offset="1"
   style="stop-color:rgb(130,130,130)"
   id="stop6-1" />
				<a:midPointStop
   offset="0"
   style="stop-color:#B2B2B2" />
				<a:midPointStop
   offset="0.5"
   style="stop-color:#B2B2B2" />
				<a:midPointStop
   offset="1"
   style="stop-color:#828282" />
			</linearGradient><linearGradient
       id="XMLID_3_"
       gradientUnits="userSpaceOnUse"
       x1="36.686501"
       y1="24.869101"
       x2="197.66901"
       y2="110.512">
				<stop
   offset="0"
   style="stop-color:rgb(255,255,255)"
   id="stop7-2" />
				<stop
   offset="0.5033"
   style="stop-color:rgb(231,231,231)"
   id="stop8-7" />
				<stop
   offset="1"
   style="stop-color:rgb(212,212,212)"
   id="stop9-0" />
				<a:midPointStop
   offset="0"
   style="stop-color:#FFFFFF" />
				<a:midPointStop
   offset="0.452"
   style="stop-color:#FFFFFF" />
				<a:midPointStop
   offset="1"
   style="stop-color:#D4D4D4" />
			</linearGradient><linearGradient
       id="XMLID_4_"
       gradientUnits="userSpaceOnUse"
       x1="21.8281"
       y1="52.800301"
       x2="182.81"
       y2="138.44299">
			<stop
   offset="0"
   style="stop-color:rgb(255,255,255)"
   id="stop10-9" />
			<stop
   offset="0.5033"
   style="stop-color:rgb(231,231,231)"
   id="stop11-3" />
			<stop
   offset="1"
   style="stop-color:rgb(212,212,212)"
   id="stop12-6" />
		</linearGradient><linearGradient
       id="XMLID_5_"
       gradientUnits="userSpaceOnUse"
       x1="-10.3584"
       y1="10.0996"
       x2="120.962"
       y2="10.0996">
			<stop
   offset="0"
   style="stop-color:rgb(179,202,255)"
   id="stop13-0" />
			<stop
   offset="1"
   style="stop-color:rgb(0,83,189)"
   id="stop14-6" />
			<a:midPointStop
   offset="0"
   style="stop-color:#B3CAFF" />
			<a:midPointStop
   offset="0.5"
   style="stop-color:#B3CAFF" />
			<a:midPointStop
   offset="1"
   style="stop-color:#0053BD" />
		</linearGradient><linearGradient
       id="XMLID_6_"
       gradientUnits="userSpaceOnUse"
       x1="56.498001"
       y1="146.564"
       x2="56.498001"
       y2="35.892899">
					<stop
   offset="0"
   style="stop-color:rgb(179,202,255)"
   id="stop16-2" />
					<stop
   offset="1"
   style="stop-color:rgb(0,83,189)"
   id="stop17-6" />
				</linearGradient><radialGradient
       id="XMLID_7_"
       cx="55.805698"
       cy="109.628"
       r="80.572601"
       fx="55.805698"
       fy="109.628"
       gradientUnits="userSpaceOnUse">
					<stop
   offset="0"
   style="stop-color:rgb(255,255,255)"
   id="stop18-1" />
					<stop
   offset="0.0626"
   style="stop-color:rgb(230,249,255)"
   id="stop19-8" />
					<stop
   offset="0.1386"
   style="stop-color:rgb(206,242,255)"
   id="stop20-6" />
					<stop
   offset="0.1854"
   style="stop-color:rgb(197,240,255)"
   id="stop21-1" />
					<stop
   offset="1"
   style="stop-color:rgb(29,116,217)"
   id="stop22-0" />
				</radialGradient><linearGradient
       id="XMLID_8_"
       gradientUnits="userSpaceOnUse"
       x1="56.496601"
       y1="28.2969"
       x2="56.496601"
       y2="57.5648">
					<stop
   offset="0%"
   style="stop-color:rgb(255,255,255)"
   id="stop23-6" />
					<stop
   offset="100%"
   style="stop-opacity:0;stop-color:rgb(255,255,255)"
   id="stop24-3" />
				</linearGradient><linearGradient
       id="XMLID_9_"
       gradientUnits="userSpaceOnUse"
       x1="56.496101"
       y1="146.565"
       x2="56.496101"
       y2="35.900501">
				<stop
   offset="0"
   style="stop-color:rgb(179,202,255)"
   id="stop25-2" />
				<stop
   offset="1"
   style="stop-color:rgb(0,83,189)"
   id="stop26-0" />
			</linearGradient><radialGradient
       id="XMLID_10_"
       cx="56.101601"
       cy="94.906303"
       r="56.520599"
       fx="56.101601"
       fy="94.906303"
       gradientUnits="userSpaceOnUse">
				<stop
   offset="0"
   style="stop-color:rgb(157,255,0)"
   id="stop27-6" />
				<stop
   offset="0.764"
   style="stop-color:rgb(0,151,0)"
   id="stop28-1" />
			</radialGradient><radialGradient
       id="XMLID_11_"
       cx="51.3433"
       cy="92.532204"
       r="53.667999"
       fx="51.3433"
       fy="92.532204"
       gradientUnits="userSpaceOnUse">
				<stop
   offset="0"
   style="stop-color:rgb(255,255,255)"
   id="stop29-5" />
				<stop
   offset="0.9719"
   style="stop-color:rgb(255,255,255)"
   id="stop30-5" />
			</radialGradient><radialGradient
       id="XMLID_12_"
       cx="56.378399"
       cy="86.194298"
       r="33.141602"
       fx="56.378399"
       fy="86.194298"
       gradientUnits="userSpaceOnUse">
				<stop
   offset="0"
   style="stop-color:rgb(255,255,255)"
   id="stop31-4" />
				<stop
   offset="0.3045"
   style="stop-color:rgb(252,253,255)"
   id="stop32-7" />
				<stop
   offset="0.5184"
   style="stop-color:rgb(243,248,255)"
   id="stop33-6" />
				<stop
   offset="0.7047"
   style="stop-color:rgb(227,238,255)"
   id="stop34-5" />
				<stop
   offset="0.874"
   style="stop-color:rgb(206,225,255)"
   id="stop35-6" />
				<stop
   offset="1"
   style="stop-color:rgb(184,212,255)"
   id="stop36-9" />
			</radialGradient><linearGradient
       id="XMLID_13_"
       gradientUnits="userSpaceOnUse"
       x1="55.023899"
       y1="38.641102"
       x2="55.023899"
       y2="69.925598">
				<stop
   offset="0%"
   style="stop-color:rgb(255,255,255)"
   id="stop43-3" />
				<stop
   offset="100%"
   style="stop-opacity:0;stop-color:rgb(255,255,255)"
   id="stop44-7" />
			</linearGradient><radialGradient
       id="XMLID_14_"
       cx="102.131"
       cy="117.697"
       r="34.736401"
       fx="102.131"
       fy="117.697"
       gradientUnits="userSpaceOnUse">
				<stop
   offset="0"
   style="stop-color:rgb(0,0,0)"
   id="stop45-4" />
				<stop
   offset="1"
   style="stop-color:rgb(0,0,0)"
   id="stop46-5" />
				<a:midPointStop
   offset="0"
   style="stop-color:#000000" />
				<a:midPointStop
   offset="0.5"
   style="stop-color:#000000" />
				<a:midPointStop
   offset="1"
   style="stop-color:#000000" />
			</radialGradient><linearGradient
       id="XMLID_15_"
       gradientUnits="userSpaceOnUse"
       x1="97.681602"
       y1="97.628899"
       x2="88.753403"
       y2="135.242">
				<stop
   offset="0"
   style="stop-color:rgb(255,255,255)"
   id="stop47-2" />
				<stop
   offset="1"
   style="stop-color:rgb(204,204,204)"
   id="stop48-5" />
				<a:midPointStop
   offset="0"
   style="stop-color:#FFFFFF" />
				<a:midPointStop
   offset="0.5"
   style="stop-color:#FFFFFF" />
				<a:midPointStop
   offset="1"
   style="stop-color:#CCCCCC" />
			</linearGradient><linearGradient
       id="XMLID_16_"
       gradientUnits="userSpaceOnUse"
       x1="75.972702"
       y1="87.541"
       x2="89.768402"
       y2="101.337">
				<stop
   offset="0"
   style="stop-color:rgb(178,178,178)"
   id="stop49-4" />
				<stop
   offset="1"
   style="stop-color:rgb(130,130,130)"
   id="stop50-7" />
				<a:midPointStop
   offset="0"
   style="stop-color:#B2B2B2" />
				<a:midPointStop
   offset="0.5"
   style="stop-color:#B2B2B2" />
				<a:midPointStop
   offset="1"
   style="stop-color:#828282" />
			</linearGradient><linearGradient
       id="linearGradient4227"><stop
         style="stop-color:#2e3436"
         id="stop4229" /><stop
         offset="1"
         style="stop-color:#555753"
         id="stop4231" /></linearGradient><linearGradient
       id="c"
       gradientUnits="userSpaceOnUse"
       x1="393.57101"
       x2="407.57101"
       y1="527.67297"
       y2="541.67297"><stop
         offset="0"
         stop-color="#292c30"
         id="stop1" /><stop
         offset="1"
         stop-opacity="0"
         id="stop2-5" /></linearGradient><linearGradient
       id="d"
       gradientTransform="matrix(2.85714,0,0,2.8,-885.347,-966.434)"
       gradientUnits="userSpaceOnUse"
       x1="428.371"
       x2="428.371"
       y1="530.79797"
       y2="525.79797"><stop
         offset="0"
         stop-color="#da4453"
         id="stop15-6" /><stop
         offset="1"
         stop-color="#fa4e5f"
         id="stop16-2-6" /></linearGradient><linearGradient
       id="e"
       gradientUnits="userSpaceOnUse"
       x1="353.57101"
       x2="353.57101"
       y1="505.798"
       y2="519.79797"><stop
         offset="0"
         stop-color="#31363b"
         id="stop13-2" /><stop
         offset="1"
         stop-color="#4d4d4d"
         id="stop14-9" /></linearGradient><linearGradient
       id="f"
       gradientUnits="userSpaceOnUse"
       x1="350.57101"
       x2="350.57101"
       y1="505.798"
       y2="519.79797"><stop
         offset="0"
         stop-color="#7f8c8d"
         id="stop11-1" /><stop
         offset="1"
         stop-color="#afb0b3"
         id="stop12-2" /></linearGradient><linearGradient
       id="g"
       gradientUnits="userSpaceOnUse"
       x1="356.57101"
       x2="356.57101"
       y1="519.79797"
       y2="505.798"><stop
         offset="0"
         stop-color="#afb0b3"
         id="stop9-7" /><stop
         offset="1"
         stop-color="#bdc3c7"
         id="stop10-0" /></linearGradient><linearGradient
       id="h"
       gradientUnits="userSpaceOnUse"
       x1="358.57101"
       x2="358.57101"
       y1="519.79797"
       y2="505.798"><stop
         offset="0"
         stop-color="#4d4d4d"
         id="stop7-9" /><stop
         offset="1"
         stop-color="#585858"
         id="stop8-3" /></linearGradient><linearGradient
       gradientUnits="userSpaceOnUse"
       y2="4"
       x2="0"
       y1="37"
       id="linearGradient4503"
       xlink:href="#linearGradient4816"
       inkscape:collect="always" /><linearGradient
       inkscape:collect="always"
       id="linearGradient4816"><stop
         id="stop10565"
         stop-color="#da4453" /><stop
         id="stop10567"
         stop-color="#ff7336"
         offset="1" /></linearGradient><linearGradient
       gradientUnits="userSpaceOnUse"
       y2="25.40625"
       x2="23.53125"
       y1="22.3125"
       x1="20.4375"
       id="linearGradient4503-6"
       xlink:href="#linearGradient4293"
       inkscape:collect="always" /><linearGradient
       inkscape:collect="always"
       id="linearGradient4293"><stop
         id="stop7-2-8" /><stop
         offset="1"
         stop-opacity="0"
         id="stop9-7-2" /></linearGradient><linearGradient
       inkscape:collect="always"
       xlink:href="#linearGradient4526"
       id="linearGradient10730"
       x1="20"
       y1="32.972656"
       x2="42"
       y2="32.972656"
       gradientUnits="userSpaceOnUse"
       gradientTransform="matrix(6.5521336,0,0,6.5521336,-76.747978,-77.445625)" /><linearGradient
       id="linearGradient4526"
       inkscape:collect="always"><stop
         id="stop6552"
         stop-color="#ffc169" /><stop
         id="stop6554"
         stop-color="#ffa92d"
         offset="1" /></linearGradient></defs><sodipodi:namedview
     id="base"
     pagecolor="#ffffff"
     bordercolor="#000000"
     borderopacity="0.3"
     inkscape:pageopacity="0.0"
     inkscape:pageshadow="2"
     inkscape:zoom="0.98994949"
     inkscape:cx="505.07627"
     inkscape:cy="476.792"
     inkscape:document-units="mm"
     inkscape:showpageshadow="2"
     inkscape:pagecheckerboard="0"
     inkscape:deskcolor="#d1d1d1"
     inkscape:current-layer="svg1"
     showguides="true"><sodipodi:guide
       position="146.19643,131.18513"
       orientation="0,-1"
       id="guide1"
       inkscape:locked="false" /><sodipodi:guide
       position="129.09118,155.23938"
       orientation="1,0"
       id="guide2"
       inkscape:locked="false" /></sodipodi:namedview><metadata
     id="metadata1"><rdf:RDF><cc:Work
         rdf:about=""><dc:format>image/svg+xml</dc:format><dc:type
           rdf:resource="http://purl.org/dc/dcmitype/StillImage" /><cc:license
           rdf:resource="http://creativecommons.org/publicdomain/zero/1.0/" /></cc:Work><cc:License
         rdf:about="http://creativecommons.org/publicdomain/zero/1.0/"><cc:permits
           rdf:resource="http://creativecommons.org/ns#Reproduction" /><cc:permits
           rdf:resource="http://creativecommons.org/ns#Distribution" /><cc:permits
           rdf:resource="http://creativecommons.org/ns#DerivativeWorks" /></cc:License></rdf:RDF></metadata><g
     id="g4"
     transform="translate(0,9.087164)"><g
       id="g1"
       inkscape:label="inner"
       style="display:inline"><path
         id="rect1"
         style="fill:#eeead7;fill-opacity:1;stroke-width:4.30001;stroke-linecap:round;stroke-linejoin:round"
         d="M 8.0180855,33.141422 H 248.82793 V 219.69554 H 8.0180855 Z"
         inkscape:label="bg"
         sodipodi:nodetypes="ccccc" /></g><g
       id="g16"
       inkscape:label="wind"
       style="display:inline"><path
         id="rect4"
         style="color:#000000;display:inline;fill:url(#linearGradient5);stroke-linecap:round;stroke-linejoin:round;-inkscape-stroke:none"
         d="m 13.08964,8.2804269 c -4.2902263,0 -7.7762692,2.9909831 -7.7762692,7.2812101 0,13.245128 -0.6809125,162.437253 -0.6809125,205.336193 -9.38e-5,1.18767 1.3969039,2.11745 2.5845694,2.11736 l 242.2173623,-1.1817 c 1.18767,9e-5 2.27075,-0.94657 2.27066,-2.13424 l 0.0734,-204.137613 c 0,-4.290227 -3.51447,-7.2812101 -7.80469,-7.2812101 z M 11.937773,36.060644 244.03937,36.227559 c 2.67289,0.03481 3.45647,1.238697 3.44113,3.194637 V 215.50002 c 0.008,1.76143 -0.78919,2.78693 -2.82773,2.67943 l -233.649824,0.0269 c -0.804279,0 -1.3699423,-0.60492 -1.3699423,-1.34462 V 37.96492 c 0.019516,-1.316678 0.8197903,-1.8192 2.3047693,-1.904276 z"
         sodipodi:nodetypes="sscccccssccccccscc" /><path
         id="rect16"
         style="fill:#016aff;fill-opacity:1;stroke-width:4.30001;stroke-linecap:round;stroke-linejoin:round;stroke-opacity:0.274436"
         d="M 3.348743,15.149714 C 3.4973988,9.3298649 5.8156842,8.4371689 12.275867,8.2604019 11.522951,9.6801079 7.2784492,9.8859699 7.3786538,14.641113 L 7.9709443,219.01978 c -0.523934,0.0848 -3.0831625,1.5255 -1.7276824,4.76832 -3.2826037,-1.76521 -2.6541938,-4.31296 -2.9239817,-5.76156 z"
         sodipodi:nodetypes="ccccccc" /><path
         id="path1"
         style="fill:url(#radialGradient21);stroke-width:4.30001;stroke-linecap:round;stroke-linejoin:round;stroke-opacity:0.274436"
         d="m 9.6448894,215.44628 c 0,0 -2.6759268,1.23771 -2.6758057,2.76417 1.606e-4,1.52626 1.2373966,1.5398 2.7636556,1.53996 1.5264607,1.2e-4 2.7640117,-0.0135 2.7641727,-1.53996 -6.9e-5,-0.004 -1.47e-4,-0.008 -2.33e-4,-0.0119 -8.6e-5,-0.004 -1.81e-4,-0.008 -2.84e-4,-0.0119 h -1.617989 c -0.707773,0 -1.1921755,-0.67492 -1.1921755,-1.06793 l -0.01757,-1.67195 -0.023771,-5.2e-4 z"
         sodipodi:nodetypes="csscscccccc" /><path
         id="path31"
         style="fill:url(#radialGradient40);stroke-width:4.30001;stroke-linecap:round;stroke-linejoin:round;stroke-opacity:0.274436"
         d="m 250.41899,214.14765 c -0.17309,2.63876 -0.39274,1.80177 -2.96299,1.71364 -0.10075,3.36538 -4.27534,6.01389 -5.30392,7.23541 0.038,1.52055 3.98641,1.08662 6.77034,1.09066 2.22602,1.7e-4 5.11455,-2.89914 5.11437,-5.28432 0,-4.03405 -2.17379,-4.62252 -3.6178,-4.75539 z"
         sodipodi:nodetypes="cccccc" /><path
         id="rect17"
         style="fill:url(#linearGradient18);stroke-width:4.30001;stroke-linecap:round;stroke-linejoin:round;stroke-opacity:0.274436"
         d="M 7.2029138,35.591724 H 9.6731203 V 216.84261 H 7.2029138 Z"
         sodipodi:nodetypes="ccccc" /><path
         id="rect24"
         style="fill:url(#linearGradient37);fill-opacity:0.985507;stroke-width:5.68622;stroke-linecap:round;stroke-linejoin:round;stroke-opacity:0.274436"
         d="M 10.996745,218.82228 H 247.61693 v 5.34962 H 7.6067707 c -5.1960687,-0.89224 0.2700243,-6.45107 3.3899743,-5.34962 z"
         sodipodi:nodetypes="ccccc" /><path
         id="rect27"
         style="fill:url(#linearGradient31);stroke-width:2.72747;stroke-linecap:round;stroke-linejoin:round;stroke-opacity:0.274436"
         d="M 250.46177,218.1805 249.34598,17.34083 c 0.27489,-1.488557 -8.16787,-5.113041 -7.10056,-7.4931801 1.0673,-2.38014 11.64466,-3.515935 11.94071,6.2537181 0.5921,19.539307 -0.067,202.079132 -0.067,202.079132 z"
         sodipodi:nodetypes="ccsscc" /><path
         id="rect43"
         style="fill:url(#linearGradient45);stroke-width:4.30001;stroke-linecap:round;stroke-linejoin:round;stroke-opacity:0.274436"
         d="M 11.747303,218.209 H 245.44591 c 1.32556,-0.46503 2.32408,-0.091 2.7092,-0.0786 -0.90276,1.23825 -2.14873,1.37659 -2.7092,1.5984 H 15.104204 c -2.242051,-0.19775 -2.844883,-0.84627 -3.356901,-1.51977 z"
         sodipodi:nodetypes="ccccccc" /><path
         id="path46"
         style="fill:url(#linearGradient46);stroke-width:4.30001;stroke-linecap:round;stroke-linejoin:round;stroke-opacity:0.274436"
         d="m 247.46284,215.93713 0.0662,-174.230621 c 2.32134,2.018439 1.81742,52.525138 1.81742,58.266932 l -0.36377,116.161469 c -0.0155,1.26279 -1.38356,2.88643 -2.21734,2.60169 -0.26699,-0.0912 -1.26187,-0.16956 -0.47845,-0.72528 1.23889,-0.8788 1.09884,-1.73447 1.17602,-2.07419 h -4e-5 z"
         sodipodi:nodetypes="ccccssccc" /><g
         id="g7"
         transform="matrix(1,0,0,0.9285714,0,3.3217789)"
         style="display:inline"><path
           id="rect7"
           style="fill:#c5def2;stroke-width:0.899999;stroke-linecap:round;stroke-linejoin:round"
           d="m 186.01959,11.67762 h 17.68329 v 17.939569 h -17.68329 z"
           sodipodi:nodetypes="ccccc" /><path
           id="rect8"
           style="fill:#c5def2;stroke-width:0.899999;stroke-linecap:round;stroke-linejoin:round"
           d="m 206.59935,11.67762 h 17.54579 v 17.800069 h -17.54579 z"
           sodipodi:nodetypes="ccccc" /><path
           id="rect9"
           style="fill:#f97257;stroke-width:0.899999;stroke-linecap:round;stroke-linejoin:round"
           d="m 227.44638,11.67762 h 17.41238 v 17.664741 h -17.41238 z"
           sodipodi:nodetypes="ccccc" /></g></g></g><path
     sodipodi:nodetypes="sccccscccsssscccccccsccsssscss"
     inkscape:connector-curvature="0"
     id="path10677"
     d="m 126.36811,66.701333 c -39.805146,0 -72.073414,32.268587 -72.073414,72.073477 0.03671,37.24363 28.43226,68.32954 65.521284,71.71504 v -6.52656 c -33.47886,-3.36451 -58.966942,-31.5407 -58.969266,-65.18848 0,-36.18616 29.334999,-65.521342 65.521396,-65.521342 36.18646,0 65.52127,29.335182 65.52127,65.521342 h -0.10353 c 0.10353,26.20849 -27.82235,45.84197 -54.77169,45.8649 -26.9639,-0.005 -56.512139,-19.65641 -56.512139,-45.8649 0,-25.33053 20.534449,-45.864984 45.864919,-45.864984 25.33042,0 45.86499,20.534454 45.86499,45.864984 0,14.47496 -16.13424,26.20849 -36.03688,26.20849 -19.9025,0 -36.03667,-11.73353 -36.03667,-26.20849 0.0118,-13.54395 13.10427,-26.20851 32.76076,-26.0808 6.55202,-0.12416 12.92623,8.93381 13.10415,16.25256 0,9.04652 -5.86697,16.38038 -13.10415,16.38038 -6.22081,-0.007 -13.10433,-5.38323 -12.82282,-13.10435 h -6.60323 c -0.23007,13.10435 9.66572,19.64009 19.42605,19.65642 10.85581,0 19.65629,-10.26719 19.65629,-22.93245 0,-12.66526 -8.80048,-22.93245 -19.65629,-22.93245 -26.20863,0 -38.797952,15.88243 -39.312967,32.76069 0,18.09304 19.067757,32.76063 42.588877,32.76063 23.52121,0 42.58887,-14.66759 42.58887,-32.76063 0,-28.94933 -23.46788,-52.417121 -52.41698,-52.417121 -28.949153,0 -52.417057,23.467791 -52.417057,52.417121 0,32.76063 32.510197,52.37973 63.064277,52.41706 30.56864,0 61.42626,-19.65643 61.42626,-52.41706 0,-39.80489 -32.26845,-72.073477 -72.07348,-72.073477 z"
     style="display:inline;fill:url(#linearGradient10730);fill-opacity:1;stroke:none;stroke-width:13.1043;stroke-miterlimit:4;stroke-dasharray:none;stroke-opacity:1" /><g
     id="g10598"
     transform="matrix(5.1251619,0,0,5.1251619,78.796009,-14.529278)"
     style="display:inline"><path
       id="path10600"
       d="m 33.998141,4.0000036 -2.32998,1.1433323 C 29.336498,6.28749 26.873667,8.8935726 26.873667,8.8935726 l 0.366385,2.9440044 c -0.138214,0.200594 -0.283271,0.414892 -0.429358,0.629254 l -1.036182,-1.856859 -1.685944,2.098446 1.190751,2.042263 c -0.007,0.01055 -0.016,0.02316 -0.02289,0.03371 l -1.491303,-1.693928 c 0,0 -0.970744,1.143227 -3.95009,5.402027 -2.979343,4.258798 -5.441392,9.216873 -5.441392,9.216873 l 0.114513,3.368191 c -0.160296,0.237251 -0.329898,0.494296 -0.486607,0.724761 l -0.469433,-2.758602 -1.036183,1.716401 -0.260474,1.654599 -0.581066,0.699482 c 0,0 -0.962143,3.59886 -0.777767,4.249373 0.184376,0.650512 2.624004,-0.628356 2.624004,-0.628356 l 0.128818,-0.856798 1.975044,-0.634871 -2.198311,-0.438229 c 0.05297,-0.08873 0.117951,-0.196685 0.171733,-0.286536 0.263028,0.08114 0.572702,0.172055 1.153543,0.278107 1.392519,0.254258 2.329979,-0.252823 2.329979,-0.252823 l 1.004697,-1.272554 c 0,0 -0.777223,0.540572 -1.651596,0.699483 -0.861376,0.156545 -2.32595,-0.205336 -2.370053,-0.216305 0.07688,-0.127419 0.15934,-0.264068 0.237578,-0.393284 0.369821,-0.09422 3.70254,-0.963621 5.661795,-2.345653 2.072589,-1.461976 6.185613,-5.975096 6.185613,-5.975096 2e-6,0 -0.992112,-0.0089 -3.129469,-0.04066 -2.01397,-0.02995 -3.794105,-0.01618 -4,0 0.09296,-0.1486 0,-1.000001 0,-1.000001 l 8.586422,-1.344329 c 0,0 0.551994,-1.048869 1.393983,-2.733319 C 29.822393,18.237898 32,14 32,14 c 0,0 -1.462458,-0.04151 -2.767704,-0.221298 -1.245817,-0.1716 -2.425205,-0.471709 -2.536074,-0.500031 0.01508,-0.02315 0.03087,-0.04715 0.0458,-0.07024 0.181331,-0.08387 1.345798,-0.619878 2.215486,-0.890506 0.938861,-0.292152 3.801246,-0.696672 3.801246,-0.696672 0,0 0.02289,-0.404522 0.228991,-1.236034 0.206093,-0.8315125 0.618277,-2.7417463 0.618277,-2.7417463 l -4.98055,2.8063573 c 0.20965,-0.288471 0.407755,-0.5450382 0.612549,-0.8174671 L 33.789214,6.969277 c 0,0 0.0458,-0.584307 0.137386,-1.3483995 C 34.018178,4.856796 33.998143,4 33.998141,4.0000036 Z"
       inkscape:connector-curvature="0"
       style="fill:url(#linearGradient4503);fill-rule:evenodd" /><path
       id="path10602"
       d="m 34,4 c 0,0 -4.620614,4.9406035 -9.222089,11.274539 -4.601474,6.333936 -9.267705,13.499315 -13.933784,21.679993 -4.0519049,7.103892 -2.5856438,7.045452 -2.5856438,7.045452 0,0 0.4595098,-1.18371 3.6773598,-6.761361 C 15.011638,31.907204 18.902715,25.022719 25.409918,15.534086 28.511393,11.011597 34,4 34,4 Z"
       inkscape:connector-curvature="0"
       style="fill:#31363b;fill-rule:evenodd" /><path
       id="path10604"
       d="m 33.998047,4 -0.707031,0.8828125 -2.57667,3.297716 -3.972158,5.0284555 c 0.181331,-0.08387 1.345155,-0.619997 2.214843,-0.890625 0.938861,-0.292152 3.800782,-0.697265 3.800781,-0.697265 0,0 0.02437,-0.404816 0.230469,-1.236328 0.206093,-0.8315125 0.617188,-2.7421879 0.617188,-2.7421879 L 29.30516,10.051392 C 29.51481,9.7629215 29.713647,9.5074149 29.918441,9.234986 L 33.789062,6.96875 c 0,0 0.04513,-0.5835637 0.136719,-1.3476562 C 34.017361,4.8570123 33.998047,3.9999964 33.998047,4 Z M 26.742188,13.208984 19,24 27.585938,22.65625 c 0,0 0.552542,-1.049925 1.394531,-2.734375 C 29.822455,18.237429 32,14 32,14 c 0,0 -1.462332,-0.04092 -2.767578,-0.220703 -1.245817,-0.1716 -2.42624,-0.471678 -2.53711,-0.5 0.01508,-0.02315 0.03195,-0.04722 0.04688,-0.07031 z M 19,24 11.035156,37.519531 C 11.615562,37.723447 13.5,36.734375 13.5,36.734375 l 0.128906,-0.855469 1.976563,-0.634765 -2.199219,-0.439453 c 0.05297,-0.08873 0.118093,-0.195306 0.171875,-0.285157 0.263028,0.08114 0.573456,0.171292 1.154297,0.277344 1.392519,0.254258 2.328125,-0.251953 2.328125,-0.251953 l 1.005859,-1.273438 c 0,0 -0.77797,0.540308 -1.652344,0.699219 -0.861375,0.156545 -2.325037,-0.205828 -2.36914,-0.216797 0.07688,-0.127419 0.15809,-0.263362 0.236328,-0.392578 0.369821,-0.09422 3.702854,-0.963671 5.662109,-2.345703 2.072589,-1.461976 6.185547,-5.974609 6.185547,-5.974609 2e-6,0 -0.991549,-0.0093 -3.128906,-0.04102 -2.01397,-0.02995 -3.794105,-0.01618 -4,0 0.09296,-0.1486 0,-1 0,-1 z"
       inkscape:connector-curvature="0"
       style="opacity:0.2;fill:url(#linearGradient4503-6);fill-rule:evenodd" /></g></svg>
