<?xml version="1.0" encoding="UTF-8" standalone="no"?>
<!-- Created with Inkscape (http://www.inkscape.org/) -->

<svg
   width="256mm"
   height="256mm"
   viewBox="0 0 256 256"
   version="1.1"
   id="svg1"
   inkscape:version="1.3.2 (091e20ef0f, 2023-11-25)"
   xml:space="preserve"
   sodipodi:docname="preferences-desktop-accessibility-01.svg"
   xmlns:inkscape="http://www.inkscape.org/namespaces/inkscape"
   xmlns:sodipodi="http://sodipodi.sourceforge.net/DTD/sodipodi-0.dtd"
   xmlns:xlink="http://www.w3.org/1999/xlink"
   xmlns="http://www.w3.org/2000/svg"
   xmlns:svg="http://www.w3.org/2000/svg"
   xmlns:rdf="http://www.w3.org/1999/02/22-rdf-syntax-ns#"
   xmlns:cc="http://creativecommons.org/ns#"
   xmlns:dc="http://purl.org/dc/elements/1.1/"><defs
     id="defs1"><linearGradient
       id="linearGradient12"
       inkscape:collect="always"><stop
         style="stop-color:#006c00;stop-opacity:1;"
         offset="0"
         id="stop12" /><stop
         style="stop-color:#83f854;stop-opacity:1"
         offset="1"
         id="stop13" /></linearGradient><linearGradient
       id="linearGradient3"
       inkscape:collect="always"><stop
         style="stop-color:#1c8c13;stop-opacity:1"
         offset="0"
         id="stop3" /><stop
         style="stop-color:#6bdf47;stop-opacity:1"
         offset="1"
         id="stop4" /></linearGradient><linearGradient
       inkscape:collect="always"
       xlink:href="#linearGradient3"
       id="linearGradient4"
       x1="109.24993"
       y1="21.694862"
       x2="110.75518"
       y2="143.94679"
       gradientUnits="userSpaceOnUse" /><linearGradient
       inkscape:collect="always"
       xlink:href="#linearGradient12"
       id="linearGradient13"
       x1="104.80085"
       y1="15.223411"
       x2="108.3414"
       y2="254.96417"
       gradientUnits="userSpaceOnUse" /></defs><sodipodi:namedview
     id="base"
     pagecolor="#ffffff"
     bordercolor="#000000"
     borderopacity="0.3"
     inkscape:pageopacity="0.0"
     inkscape:pageshadow="2"
     inkscape:zoom="0.98994949"
     inkscape:cx="505.07627"
     inkscape:cy="476.792"
     inkscape:document-units="mm"
     inkscape:showpageshadow="2"
     inkscape:pagecheckerboard="0"
     inkscape:deskcolor="#d1d1d1"
     inkscape:current-layer="svg1"
     showguides="true"><sodipodi:guide
       position="30.710565,108.58928"
       orientation="0,-1"
       id="guide2"
       inkscape:locked="false" /><sodipodi:guide
       position="91.848212,36.206843"
       orientation="1,0"
       id="guide3"
       inkscape:locked="false" /></sodipodi:namedview><metadata
     id="metadata1"><rdf:RDF><cc:Work
         rdf:about=""><dc:format>image/svg+xml</dc:format><dc:type
           rdf:resource="http://purl.org/dc/dcmitype/StillImage" /><cc:license
           rdf:resource="http://creativecommons.org/publicdomain/zero/1.0/" /></cc:Work><cc:License
         rdf:about="http://creativecommons.org/publicdomain/zero/1.0/"><cc:permits
           rdf:resource="http://creativecommons.org/ns#Reproduction" /><cc:permits
           rdf:resource="http://creativecommons.org/ns#Distribution" /><cc:permits
           rdf:resource="http://creativecommons.org/ns#DerivativeWorks" /></cc:License></rdf:RDF></metadata><g
     id="g6"
     inkscape:label="shadow"
     style="display:inline"><path
       id="path1"
       style="display:inline;fill:#2e2e2e;fill-opacity:0.0927152;stroke:none;stroke-width:1.63053;stroke-linecap:round;stroke-linejoin:round"
       d="M 106.85623,3.9208973 C 93.318036,3.9211298 82.343297,14.896098 82.343347,28.434295 c 2.42e-4,13.53799 10.974896,24.512636 24.512883,24.512869 13.53819,4.6e-5 24.51315,-10.974682 24.51339,-24.512869 5e-5,-13.538394 -10.975,-24.5134435 -24.51339,-24.5133977 z M 93.988215,56.943032 C 49.907857,61.890499 6.2506513,99.636147 5.6161947,150.51595 4.8778211,209.72931 54.374834,249.69975 97.251899,251.11553 132.03101,252.26391 167.61805,230.71881 186.39691,202.31294 L 167.20822,185.76108 C 150.00603,212.2311 124.50142,224.72051 93.137187,220.00706 54.725305,212.23844 34.633218,182.66982 34.804382,150.30334 34.931454,126.27472 50.924287,90.373545 94.108286,82.807224 l -0.03476,74.256946 69.538364,0.18274 50.57139,50.61089 36.99549,-35.31082 -18.00113,-18.94117 -18.59886,17.96691 -38.2336,-38.2952 -58.7641,0.31333 V 80.94086 l 38.40421,-0.279637 -0.13587,-23.703446 z"
       sodipodi:nodetypes="ccccccsscccsccccccccccccc" /><path
       id="path7"
       style="display:inline;fill:#545454;fill-opacity:0.147351;stroke:none;stroke-width:1.63053;stroke-linecap:round;stroke-linejoin:round"
       d="M 102.53915,6.2642542 C 89.000955,6.2644851 78.026214,17.239454 78.026264,30.777652 c 2.42e-4,13.537991 10.974898,24.512638 24.512886,24.512869 13.53819,4.6e-5 24.51315,-10.974682 24.51339,-24.512869 5e-5,-13.538394 -10.975,-24.5134436 -24.51339,-24.5133978 z M 89.671132,59.286389 C 45.590774,64.233856 6.3696114,101.57404 6.4726612,152.45771 c 0.1120729,55.3391 44.2048328,91.40342 83.2493578,94.71732 37.568881,3.18866 73.578951,-14.11286 92.357811,-42.51873 l -19.18869,-16.55186 c -17.20219,26.47002 -42.7068,38.95943 -74.071036,34.24598 C 50.408222,214.5818 30.316135,185.01318 30.487299,152.6467 30.614371,128.61808 46.607204,92.716902 89.791203,85.150581 l -0.03476,74.256949 69.538367,0.18274 50.57139,50.61089 36.99549,-35.31082 -18.00113,-18.94117 -18.59886,17.96691 -38.2336,-38.2952 -58.7641,0.31333 V 83.284217 l 38.40421,-0.279637 -0.13587,-23.703446 z"
       sodipodi:nodetypes="ccccccsscccsccccccccccccc" /><path
       id="path8"
       style="display:inline;fill:#313131;fill-opacity:0.299669;stroke:none;stroke-width:1.63053;stroke-linecap:round;stroke-linejoin:round"
       d="M 104.1159,5.338308 C 90.577707,5.3385416 79.602968,16.31351 79.603019,29.851706 c 2.42e-4,13.537989 10.974895,24.512635 24.512881,24.512869 13.53819,4.6e-5 24.51315,-10.974682 24.51339,-24.512869 5e-5,-13.538394 -10.975,-24.5134438 -24.51339,-24.513398 z M 91.247887,58.360443 C 47.167529,63.30791 7.5175163,100.041 7.2340575,150.92397 6.8736602,215.61798 61.48899,243.6766 90.944421,246.46169 133.98781,250.53157 164.87772,232.13622 183.65658,203.73035 L 164.46789,187.17849 C 147.2657,213.64851 121.76109,226.13792 90.396859,221.42447 51.984977,213.65585 31.89289,184.08723 32.064054,151.72075 32.191126,127.69213 48.183959,91.790956 91.367958,84.224635 l -0.03476,74.256945 69.538362,0.18274 50.57139,50.61089 36.99549,-35.31082 -18.00113,-18.94117 -18.59886,17.96691 -38.2336,-38.2952 -58.7641,0.31333 V 82.358271 l 38.40421,-0.279637 -0.13587,-23.703446 z"
       sodipodi:nodetypes="ccccccsscccsccccccccccccc" /><path
       id="path9"
       style="display:inline;fill:#3f3f3f;fill-opacity:0.364238;stroke:none;stroke-width:1.63053;stroke-linecap:round;stroke-linejoin:round"
       d="M 104.77736,3.6374151 C 91.239166,3.6376476 80.264427,14.612616 80.264477,28.150813 c 2.42e-4,13.53799 10.974896,24.512636 24.512883,24.512869 13.53819,4.6e-5 24.51315,-10.974682 24.51339,-24.512869 5e-5,-13.538394 -10.975,-24.5134437 -24.51339,-24.5133979 z M 91.909345,56.65955 C 47.828987,61.607017 8.0763743,99.046441 7.7929155,149.92942 7.4325182,214.62343 61.229131,242.68441 90.684562,245.4695 133.72795,249.53938 165.53918,230.43533 184.31804,202.02946 L 165.12935,185.4776 c -17.20219,26.47002 -42.7068,38.95943 -74.071033,34.24598 C 52.646435,211.95496 32.554348,182.38634 32.725512,150.01986 32.852584,125.99124 48.845417,90.090063 92.029416,82.523742 l -0.03476,74.256948 69.538364,0.18274 50.57139,50.61089 36.99549,-35.31082 -18.00113,-18.94117 -18.59886,17.96691 -38.2336,-38.2952 -58.7641,0.31333 V 80.657378 l 38.40421,-0.279637 -0.13587,-23.703446 z"
       sodipodi:nodetypes="ccccccsscccsccccccccccccc" /><path
       id="path10"
       style="display:inline;fill:#313131;fill-opacity:0.364238;stroke:none;stroke-width:1.63053;stroke-linecap:round;stroke-linejoin:round"
       d="m 103.35995,3.448427 c -13.538194,2.32e-4 -24.512935,10.975201 -24.512884,24.513398 2.42e-4,13.537991 10.974896,24.512637 24.512884,24.512869 13.53819,4.6e-5 24.51315,-10.974682 24.51339,-24.512869 5e-5,-13.538394 -10.975,-24.5134438 -24.51339,-24.513398 z M 90.491934,56.470562 C 46.411576,61.418029 8.7020497,98.705925 8.4185909,149.5889 c -0.3603973,64.69401 51.6293641,91.41825 81.0847951,94.20334 43.043394,4.06988 74.618384,-13.5459 93.397244,-41.95177 l -19.18869,-16.55186 c -17.20219,26.47002 -42.7068,38.95943 -74.071034,34.24598 C 51.229024,211.76597 31.136937,182.19735 31.308101,149.83087 31.435173,125.80225 47.428006,89.901075 90.612005,82.334754 l -0.03476,74.256946 69.538365,0.18274 50.57139,50.61089 36.99549,-35.31082 -18.00113,-18.94117 -18.59886,17.96691 -38.2336,-38.2952 -58.7641,0.31333 V 80.46839 l 38.40421,-0.279637 -0.13587,-23.703446 z"
       sodipodi:nodetypes="ccccccsscccsccccccccccccc" /><path
       id="path11"
       style="display:inline;fill:#2e2e2e;fill-opacity:0.364238;stroke:none;stroke-width:1.63053;stroke-linecap:round;stroke-linejoin:round"
       d="m 104.01142,3.398314 c -13.538195,2.314e-4 -24.512936,10.9752 -24.512885,24.513398 2.42e-4,13.537991 10.974897,24.512638 24.512885,24.512869 13.53819,4.6e-5 24.51315,-10.974682 24.51339,-24.512869 5e-5,-13.538394 -10.975,-24.5134438 -24.51339,-24.513398 z M 91.143403,56.420449 C 47.063045,61.367916 9.3217893,98.746254 9.0383305,149.62923 8.6779332,214.32324 60.841165,239.58688 90.296596,242.37197 133.33999,246.44185 164.77324,230.19623 183.5521,201.79036 L 164.36341,185.2385 c -17.20219,26.47002 -42.7068,38.95943 -74.071035,34.24598 C 51.880493,211.71586 31.788406,182.14724 31.95957,149.78076 32.086642,125.75214 48.079475,89.850962 91.263474,82.284641 l -0.03476,74.256949 69.538366,0.18274 50.57139,50.61089 36.99549,-35.31082 -18.00113,-18.94117 -18.59886,17.96691 -38.2336,-38.2952 -58.7641,0.31333 V 80.418277 l 38.40421,-0.279637 -0.13587,-23.703446 z"
       sodipodi:nodetypes="ccccccsscccsccccccccccccc" /></g><path
     id="path6"
     style="display:inline;fill:url(#linearGradient13);stroke:url(#linearGradient4);stroke-width:1.6;stroke-linecap:round;stroke-linejoin:round"
     d="M 104.03448,2.6060425 C 90.749812,2.6062778 79.9806,13.37572 79.980648,26.660388 c 2.37e-4,13.284466 10.769366,24.053594 24.053832,24.053829 13.28466,4.5e-5 24.0541,-10.769165 24.05434,-24.053829 5e-5,-13.284866 -10.76947,-24.0543908 -24.05434,-24.0543455 z M 93.076489,55.5625 C 49.821603,60.417319 9.929241,97.244385 9.6510905,147.17448 9.2974423,210.65699 63.017171,237.84876 91.921004,240.5817 c 42.237326,3.99366 73.406476,-14.49765 91.833676,-42.37158 l -18.82935,-16.2419 C 148.04528,207.94255 123.01828,220.19807 92.241398,215.57289 54.548837,207.94975 34.833005,178.93485 35.000964,147.17448 35.125656,123.59583 50.818999,88.366976 93.194312,80.942346 l -0.03411,72.866354 68.236148,0.17932 49.62436,49.66312 36.30269,-34.64957 -17.66403,-18.58646 -18.25057,17.63045 -37.51761,-37.57807 -57.66366,0.30747 V 79.110933 l 37.68504,-0.274401 -0.13333,-23.259563 z"
     sodipodi:nodetypes="ccccccsscccsccccccccccccc" /></svg>
