<?xml version="1.0" encoding="UTF-8" standalone="no"?>
<svg
   height="37.05px"
   width="45.25px"
   version="1.1"
   id="svg63"
   sodipodi:docname="preferences-system-users.svg"
   inkscape:version="1.3.2 (091e20ef0f, 2023-11-25)"
   xmlns:inkscape="http://www.inkscape.org/namespaces/inkscape"
   xmlns:sodipodi="http://sodipodi.sourceforge.net/DTD/sodipodi-0.dtd"
   xmlns="http://www.w3.org/2000/svg"
   xmlns:svg="http://www.w3.org/2000/svg">
  <sodipodi:namedview
     id="namedview63"
     pagecolor="#ffffff"
     bordercolor="#000000"
     borderopacity="0.25"
     inkscape:showpageshadow="2"
     inkscape:pageopacity="0.0"
     inkscape:pagecheckerboard="0"
     inkscape:deskcolor="#d1d1d1"
     inkscape:current-layer="svg63" />
  <g
     transform="matrix(1, 0, 0, 1, 22.6, 18.5)"
     id="g21">
    <g
       id="g64">
      <path
         d="M1.8 13.95 Q4.8 15.0 9.5 15.35 13.8 15.75 17.35 15.4 21.05 15.05 21.55 14.2 22.8 12.15 21.45 9.0 20.2 6.15 17.8 4.4 12.25 0.25 4.25 2.5 0.65 3.5 -0.75 5.4 -2.2 7.35 -1.85 10.95 -1.65 12.75 1.8 13.95"
         fill="url(#gradient0)"
         fill-rule="evenodd"
         stroke="none"
         id="path1" />
      <path
         d="M1.8 13.95 Q-1.65 12.75 -1.85 10.95 -2.2 7.35 -0.75 5.4 0.65 3.5 4.25 2.5 12.25 0.25 17.8 4.4 20.2 6.15 21.45 9.0 22.8 12.15 21.55 14.2 21.05 15.05 17.35 15.4 13.8 15.75 9.5 15.35 4.8 15.0 1.8 13.95 Z"
         fill="none"
         stroke="#006600"
         stroke-linecap="round"
         stroke-linejoin="round"
         stroke-width="1.0"
         id="path2" />
      <path
         d="M15.95 3.45 Q13.6 2.05 10.35 2.05 L7.1 1.85 5.65 2.05 Q4.7 7.65 8.0 14.5 12.2 7.2 15.95 3.45"
         fill="url(#gradient1)"
         fill-rule="evenodd"
         stroke="none"
         id="path3" />
      <path
         d="M15.95 3.45 Q12.2 7.2 8.0 14.5 4.7 7.65 5.65 2.05 L7.1 1.85 10.35 2.05 Q13.6 2.05 15.95 3.45 Z"
         fill="none"
         stroke="#006600"
         stroke-linecap="round"
         stroke-linejoin="round"
         stroke-width="1.0"
         id="path4" />
      <path
         d="M9.95 4.1 Q13.35 4.55 16.2 1.5 18.8 -1.3 19.7 -5.55 20.65 -9.95 19.1 -13.25 17.4 -17.0 13.0 -17.75 8.45 -18.55 5.65 -15.45 3.1 -12.75 2.75 -8.15 2.4 -3.65 4.25 -0.15 6.25 3.65 9.95 4.1"
         fill="url(#gradient2)"
         fill-rule="evenodd"
         stroke="none"
         id="path5" />
      <path
         d="M9.95 4.1 Q6.25 3.65 4.25 -0.15 2.4 -3.65 2.75 -8.15 3.1 -12.75 5.65 -15.45 8.45 -18.55 13.0 -17.75 17.4 -17.0 19.1 -13.25 20.65 -9.95 19.7 -5.55 18.8 -1.3 16.2 1.5 13.35 4.55 9.95 4.1 Z"
         fill="none"
         stroke="#996600"
         stroke-linecap="round"
         stroke-linejoin="round"
         stroke-width="1.0"
         id="path6" />
      <path
         d="M19.6 -9.25 Q17.3 -14.35 11.35 -12.1 6.25 -10.15 3.9 -12.5 7.95 -7.3 12.15 -9.7 15.4 -11.55 19.6 -9.25"
         fill="url(#gradient3)"
         fill-rule="evenodd"
         stroke="none"
         id="path7" />
      <path
         d="M20.1 -8.15 Q20.05 -16.7 12.6 -17.9 6.5 -18.8 3.7 -12.25 4.8 -10.9 7.45 -10.4 8.85 -10.1 10.05 -10.65 11.9 -11.5 14.0 -11.8 16.9 -12.2 18.7 -10.5 20.05 -9.3 20.1 -8.15"
         fill="url(#gradient4)"
         fill-rule="evenodd"
         stroke="none"
         id="path8" />
      <path
         d="M20.1 -8.15 Q20.05 -9.3 18.7 -10.5 16.9 -12.2 14.0 -11.8 11.9 -11.5 10.05 -10.65 8.85 -10.1 7.45 -10.4 4.8 -10.9 3.7 -12.25 6.5 -18.8 12.6 -17.9 20.05 -16.7 20.1 -8.15 Z"
         fill="none"
         stroke="#996600"
         stroke-linecap="round"
         stroke-linejoin="round"
         stroke-width="1.0"
         id="path9" />
      <path
         d="M8.4 -10.75 L10.9 -11.8 Q12.55 -12.6 14.45 -12.6 18.7 -12.6 19.6 -8.85 20.1 -12.15 16.8 -13.55 13.2 -15.1 10.65 -13.95 L8.9 -12.9 Q7.95 -12.25 7.45 -12.15 6.05 -11.8 5.35 -12.15 L4.95 -12.45 4.65 -12.6 Q4.65 -13.35 4.25 -12.7 3.85 -12.0 4.2 -11.7 4.8 -11.2 6.1 -10.9 L8.4 -10.75"
         fill="url(#gradient5)"
         fill-rule="evenodd"
         stroke="none"
         id="path10" />
    </g>
    <g
       id="g63">
      <path
         d="M-16.4 17.9 Q-12.85 18.2 -8.55 17.85 2.45 16.9 2.8 13.4 3.15 9.85 1.7 7.9 0.3 6.0 -3.3 5.0 -11.25 2.75 -16.85 6.85 -19.25 8.6 -20.5 11.5 -21.85 14.65 -20.6 16.7 -20.1 17.55 -16.4 17.9"
         fill="url(#gradient6)"
         fill-rule="evenodd"
         stroke="none"
         id="path11" />
      <path
         d="M-16.4 17.9 Q-12.85 18.2 -8.55 17.85 2.45 16.9 2.8 13.4 3.15 9.85 1.7 7.9 0.3 6.0 -3.3 5.0 -11.25 2.75 -16.85 6.85 -19.25 8.6 -20.5 11.5 -21.85 14.65 -20.6 16.7 -20.1 17.55 -16.4 17.9 Z"
         fill="none"
         stroke="#0236b0"
         stroke-linecap="round"
         stroke-linejoin="round"
         stroke-width="1.0"
         id="path12" />
      <path
         d="M-8.35 4.75 Q-11.6 4.75 -13.95 6.15 -10.2 9.9 -5.9 16.95 -2.7 10.35 -3.65 4.75 L-5.1 4.55 -8.35 4.75"
         fill="url(#gradient7)"
         fill-rule="evenodd"
         stroke="none"
         id="path13" />
      <path
         d="M-8.35 4.75 Q-11.6 4.75 -13.95 6.15 -10.2 9.9 -5.9 16.95 -2.7 10.35 -3.65 4.75 L-5.1 4.55 -8.35 4.75 Z"
         fill="none"
         stroke="#0236b0"
         stroke-linecap="round"
         stroke-linejoin="round"
         stroke-width="1.0"
         id="path14" />
      <path
         d="M-11.3 -15.2 Q-15.7 -14.45 -17.45 -10.75 -19.0 -7.5 -18.1 -3.2 -17.2 1.0 -14.6 3.75 -11.8 6.75 -8.4 6.35 -4.7 5.9 -2.7 2.1 -0.8 -1.35 -1.15 -5.75 -1.5 -10.3 -3.95 -12.95 -6.8 -16.0 -11.3 -15.2"
         fill="url(#gradient8)"
         fill-rule="evenodd"
         stroke="none"
         id="path15" />
      <path
         d="M-11.3 -15.2 Q-15.7 -14.45 -17.45 -10.75 -19.0 -7.5 -18.1 -3.2 -17.2 1.0 -14.6 3.75 -11.8 6.75 -8.4 6.35 -4.7 5.9 -2.7 2.1 -0.8 -1.35 -1.15 -5.75 -1.5 -10.3 -3.95 -12.95 -6.8 -16.0 -11.3 -15.2 Z"
         fill="none"
         stroke="#996600"
         stroke-linecap="round"
         stroke-linejoin="round"
         stroke-width="1.0"
         id="path16" />
      <path
         d="M-1.05 -8.1 Q-2.2 -12.55 -9.3 -9.65 -14.4 -7.55 -17.5 -8.2 -11.7 -6.0 -7.55 -7.95 -4.45 -9.45 -1.05 -8.1"
         fill="url(#gradient9)"
         fill-rule="evenodd"
         stroke="none"
         id="path17" />
      <path
         d="M-0.65 -5.8 Q-1.0 -10.5 -3.6 -13.3 -6.55 -16.55 -11.35 -15.7 -15.95 -14.9 -17.8 -11.05 -19.45 -7.65 -18.5 -3.15 -17.6 1.25 -14.85 4.1 -11.9 7.2 -8.3 6.75 -4.35 6.3 -2.2 2.3 -0.3 -1.25 -0.65 -5.8 M-1.55 -5.75 Q-1.25 -1.45 -3.0 1.85 -4.95 5.4 -8.4 5.85 -11.6 6.25 -14.25 3.4 -16.75 0.7 -17.6 -3.3 -18.45 -7.45 -17.0 -10.55 -15.35 -14.1 -11.2 -14.8 -6.9 -15.5 -4.25 -12.7 -1.85 -10.15 -1.55 -5.75"
         fill="url(#gradient10)"
         fill-rule="evenodd"
         stroke="none"
         id="path18" />
      <path
         d="M-1.65 -8.8 Q-2.35 -16.0 -11.0 -16.0 -14.7 -16.0 -17.8 -13.1 -20.7 -10.35 -21.7 -6.5 -22.75 -2.45 -21.1 0.5 -19.25 3.85 -14.5 4.55 -12.4 4.65 -11.85 3.65 -16.3 2.8 -15.7 -2.9 -15.5 -5.0 -14.65 -6.8 -13.8 -8.55 -13.0 -8.65 -11.05 -8.85 -8.9 -9.85 -7.05 -10.75 -5.55 -10.7 -2.55 -10.65 -1.65 -8.8"
         fill="url(#gradient11)"
         fill-rule="evenodd"
         stroke="none"
         id="path19" />
      <path
         d="M-1.65 -8.8 Q-2.35 -16.0 -11.0 -16.0 -14.7 -16.0 -17.8 -13.1 -20.7 -10.35 -21.7 -6.5 -22.75 -2.45 -21.1 0.5 -19.25 3.85 -14.5 4.55 -12.4 4.65 -11.85 3.65 -16.3 2.8 -15.7 -2.9 -15.5 -5.0 -14.65 -6.8 -13.8 -8.55 -13.0 -8.65 -11.05 -8.85 -8.9 -9.85 -7.05 -10.75 -5.55 -10.7 -2.55 -10.65 -1.65 -8.8 Z"
         fill="none"
         stroke="#000000"
         stroke-linecap="round"
         stroke-linejoin="round"
         stroke-width="1.0"
         id="path20" />
      <path
         d="M-8.5 -11.55 Q-7.25 -12.25 -5.15 -11.85 L-3.6 -11.6 Q-4.55 -13.4 -6.6 -13.55 -8.3 -13.65 -10.1 -12.65 -11.25 -12.0 -13.45 -11.3 L-16.6 -10.5 Q-17.45 -10.4 -16.9 -10.2 L-15.1 -10.0 Q-11.35 -9.9 -8.5 -11.55"
         fill="url(#gradient12)"
         fill-rule="evenodd"
         stroke="none"
         id="path21" />
    </g>
  </g>
  <defs
     id="defs63">
    <radialGradient
       cx="0"
       cy="0"
       gradientTransform="matrix(0.0208, 0.0, 0.0, 0.0208, 9.3, 3.45)"
       gradientUnits="userSpaceOnUse"
       id="gradient0"
       r="819.2"
       spreadMethod="pad">
      <stop
         offset="0.0"
         stop-color="#ccffcc"
         id="stop21" />
      <stop
         offset="1.0"
         stop-color="#009900"
         id="stop22" />
    </radialGradient>
    <linearGradient
       gradientTransform="matrix(-7.0E-4, 0.0077, 0.0063, 5.0E-4, 10.9, 8.6)"
       gradientUnits="userSpaceOnUse"
       id="gradient1"
       spreadMethod="pad"
       x1="-819.2"
       x2="819.2">
      <stop
         offset="0.0"
         stop-color="#99ccff"
         id="stop23" />
      <stop
         offset="0.09411764705882353"
         stop-color="#99ccff"
         id="stop24" />
      <stop
         offset="0.396078431372549"
         stop-color="#ffffff"
         id="stop25" />
      <stop
         offset="1.0"
         stop-color="#ccffff"
         id="stop26" />
    </linearGradient>
    <radialGradient
       cx="0"
       cy="0"
       gradientTransform="matrix(0.0277, 0.0, 0.0, 0.0277, 10.05, -16.25)"
       gradientUnits="userSpaceOnUse"
       id="gradient2"
       r="819.2"
       spreadMethod="pad">
      <stop
         offset="0.0"
         stop-color="#ffff99"
         id="stop27" />
      <stop
         offset="0.24313725490196078"
         stop-color="#ffcc66"
         id="stop28" />
      <stop
         offset="0.7137254901960784"
         stop-color="#ff9933"
         id="stop29" />
      <stop
         offset="1.0"
         stop-color="#996600"
         id="stop30" />
    </radialGradient>
    <linearGradient
       gradientTransform="matrix(0.0, 0.0022, 0.0096, 0.0, 11.75, -10.85)"
       gradientUnits="userSpaceOnUse"
       id="gradient3"
       spreadMethod="pad"
       x1="-819.2"
       x2="819.2">
      <stop
         offset="0.0"
         stop-color="#ff9933"
         id="stop31" />
      <stop
         offset="0.48627450980392156"
         stop-color="#ff9933"
         id="stop32" />
      <stop
         offset="1.0"
         stop-color="#ffcc66"
         id="stop33" />
    </linearGradient>
    <radialGradient
       cx="0"
       cy="0"
       gradientTransform="matrix(0.016, 0.0, 0.0, 0.016, 10.65, -17.2)"
       gradientUnits="userSpaceOnUse"
       id="gradient4"
       r="819.2"
       spreadMethod="pad">
      <stop
         offset="0.0"
         stop-color="#f0ddbd"
         id="stop34" />
      <stop
         offset="0.3803921568627451"
         stop-color="#d8a650"
         id="stop35" />
      <stop
         offset="0.8196078431372549"
         stop-color="#996600"
         id="stop36" />
      <stop
         offset="1.0"
         stop-color="#926821"
         id="stop37" />
    </radialGradient>
    <linearGradient
       gradientTransform="matrix(-0.0075, 0.0035, 0.0026, 0.0056, 12.05, -12.45)"
       gradientUnits="userSpaceOnUse"
       id="gradient5"
       spreadMethod="pad"
       x1="-819.2"
       x2="819.2">
      <stop
         offset="0.0"
         stop-color="#996600"
         id="stop38" />
      <stop
         offset="0.3411764705882353"
         stop-color="#f0ddbd"
         id="stop39" />
      <stop
         offset="0.6784313725490196"
         stop-color="#d8a650"
         id="stop40" />
      <stop
         offset="1.0"
         stop-color="#996600"
         id="stop41" />
    </linearGradient>
    <radialGradient
       cx="0"
       cy="0"
       gradientTransform="matrix(0.0208, 0.0, 0.0, 0.0208, -8.35, 5.9)"
       gradientUnits="userSpaceOnUse"
       id="gradient6"
       r="819.2"
       spreadMethod="pad">
      <stop
         offset="0.0"
         stop-color="#99ccff"
         id="stop42" />
      <stop
         offset="0.6235294117647059"
         stop-color="#5465fd"
         id="stop43" />
      <stop
         offset="1.0"
         stop-color="#0236b0"
         id="stop44" />
    </radialGradient>
    <linearGradient
       gradientTransform="matrix(7.0E-4, 0.0076, 0.0063, -5.0E-4, -8.5, 10.35)"
       gradientUnits="userSpaceOnUse"
       id="gradient7"
       spreadMethod="pad"
       x1="-819.2"
       x2="819.2">
      <stop
         offset="0.0"
         stop-color="#5465fd"
         id="stop45" />
      <stop
         offset="0.30980392156862746"
         stop-color="#99ccff"
         id="stop46" />
      <stop
         offset="1.0"
         stop-color="#ccffff"
         id="stop47" />
    </linearGradient>
    <radialGradient
       cx="0"
       cy="0"
       gradientTransform="matrix(0.0274, 0.0, 0.0, 0.0274, -8.45, -13.75)"
       gradientUnits="userSpaceOnUse"
       id="gradient8"
       r="819.2"
       spreadMethod="pad">
      <stop
         offset="0.0"
         stop-color="#ffcc66"
         id="stop48" />
      <stop
         offset="0.34509803921568627"
         stop-color="#ff9933"
         id="stop49" />
      <stop
         offset="1.0"
         stop-color="#660000"
         id="stop50" />
    </radialGradient>
    <linearGradient
       gradientTransform="matrix(4.0E-4, 0.002, 0.0096, -0.0019, -8.6, -8.75)"
       gradientUnits="userSpaceOnUse"
       id="gradient9"
       spreadMethod="pad"
       x1="-819.2"
       x2="819.2">
      <stop
         offset="0.0"
         stop-color="#990000"
         id="stop51" />
      <stop
         offset="0.9254901960784314"
         stop-color="#ff9933"
         id="stop52" />
      <stop
         offset="1.0"
         stop-color="#ff9933"
         id="stop53" />
    </linearGradient>
    <linearGradient
       gradientTransform="matrix(0.0, 0.0139, 0.0111, 0.0, -9.7, -4.5)"
       gradientUnits="userSpaceOnUse"
       id="gradient10"
       spreadMethod="pad"
       x1="-819.2"
       x2="819.2">
      <stop
         offset="0.0"
         stop-color="#996600"
         id="stop54" />
      <stop
         offset="1.0"
         stop-color="#660000"
         id="stop55" />
    </linearGradient>
    <radialGradient
       cx="0"
       cy="0"
       gradientTransform="matrix(0.0264, 0.0, 0.0, 0.0264, -11.7, -14.45)"
       gradientUnits="userSpaceOnUse"
       id="gradient11"
       r="819.2"
       spreadMethod="pad">
      <stop
         offset="0.0"
         stop-color="#999999"
         id="stop56" />
      <stop
         offset="0.1803921568627451"
         stop-color="#666666"
         id="stop57" />
      <stop
         offset="0.8784313725490196"
         stop-color="#000000"
         id="stop58" />
      <stop
         offset="1.0"
         stop-color="#000000"
         id="stop59" />
    </radialGradient>
    <linearGradient
       gradientTransform="matrix(-0.0082, 0.0011, 2.0E-4, 0.0016, -10.25, -11.7)"
       gradientUnits="userSpaceOnUse"
       id="gradient12"
       spreadMethod="pad"
       x1="-819.2"
       x2="819.2">
      <stop
         offset="0.0"
         stop-color="#333333"
         id="stop60" />
      <stop
         offset="0.40784313725490196"
         stop-color="#bdbdbd"
         id="stop61" />
      <stop
         offset="0.5843137254901961"
         stop-color="#999999"
         id="stop62" />
      <stop
         offset="1.0"
         stop-color="#333333"
         id="stop63" />
    </linearGradient>
  </defs>
</svg>
