<?xml version="1.0" encoding="UTF-8" standalone="no"?>
<!-- Created with Inkscape (http://www.inkscape.org/) -->

<svg
   width="256mm"
   height="256mm"
   viewBox="0 0 256 256"
   version="1.1"
   id="svg1"
   inkscape:version="1.3.2 (091e20ef0f, 2023-11-25)"
   xml:space="preserve"
   sodipodi:docname="preferences-system-bluetooth-01.svg"
   xmlns:inkscape="http://www.inkscape.org/namespaces/inkscape"
   xmlns:sodipodi="http://sodipodi.sourceforge.net/DTD/sodipodi-0.dtd"
   xmlns:xlink="http://www.w3.org/1999/xlink"
   xmlns="http://www.w3.org/2000/svg"
   xmlns:svg="http://www.w3.org/2000/svg"
   xmlns:rdf="http://www.w3.org/1999/02/22-rdf-syntax-ns#"
   xmlns:cc="http://creativecommons.org/ns#"
   xmlns:dc="http://purl.org/dc/elements/1.1/"><defs
     id="defs1"><linearGradient
       id="linearGradient19"
       inkscape:collect="always"><stop
         style="stop-color:#3c3c50;stop-opacity:0.42685372;"
         offset="0"
         id="stop18" /><stop
         style="stop-color:#4d4d67;stop-opacity:0;"
         offset="1"
         id="stop19" /></linearGradient><linearGradient
       id="linearGradient13"
       inkscape:collect="always"><stop
         style="stop-color:#8fa2c0;stop-opacity:1;"
         offset="0"
         id="stop13" /><stop
         style="stop-color:#90a3c2;stop-opacity:1;"
         offset="0.34980899"
         id="stop17" /><stop
         style="stop-color:#9cacc5;stop-opacity:1;"
         offset="0.58369493"
         id="stop15" /><stop
         style="stop-color:#99abc8;stop-opacity:1"
         offset="0.76584208"
         id="stop16" /><stop
         style="stop-color:#8ea2c1;stop-opacity:1"
         offset="1"
         id="stop14" /></linearGradient><linearGradient
       id="linearGradient4"
       inkscape:collect="always"><stop
         style="stop-color:#3c3c50;stop-opacity:0.32264528;"
         offset="0"
         id="stop4" /><stop
         style="stop-color:#4d4d67;stop-opacity:0;"
         offset="1"
         id="stop5" /></linearGradient><linearGradient
       id="linearGradient2"
       inkscape:collect="always"><stop
         style="stop-color:#6d6dd2;stop-opacity:1;"
         offset="0"
         id="stop2" /><stop
         style="stop-color:#cbcbf4;stop-opacity:1;"
         offset="1"
         id="stop3" /></linearGradient><linearGradient
       inkscape:collect="always"
       xlink:href="#linearGradient2"
       id="linearGradient3"
       x1="124.70478"
       y1="32.491936"
       x2="133.24037"
       y2="228.13322"
       gradientUnits="userSpaceOnUse" /><linearGradient
       inkscape:collect="always"
       xlink:href="#linearGradient4"
       id="linearGradient5"
       x1="65.881943"
       y1="60.851405"
       x2="82.719924"
       y2="60.851405"
       gradientUnits="userSpaceOnUse" /><linearGradient
       inkscape:collect="always"
       xlink:href="#linearGradient4"
       id="linearGradient6"
       gradientUnits="userSpaceOnUse"
       x1="69.222809"
       y1="60.817997"
       x2="75.236382"
       y2="59.448242" /><radialGradient
       inkscape:collect="always"
       xlink:href="#linearGradient4"
       id="radialGradient7"
       cx="43.285675"
       cy="102.19268"
       fx="43.285675"
       fy="102.19268"
       r="16.427292"
       gradientTransform="matrix(1,0,0,1.8075351,0,-78.893586)"
       gradientUnits="userSpaceOnUse" /><linearGradient
       inkscape:collect="always"
       xlink:href="#linearGradient19"
       id="linearGradient7"
       gradientUnits="userSpaceOnUse"
       x1="37.472809"
       y1="210.87454"
       x2="78.260193"
       y2="188.33812" /><linearGradient
       inkscape:collect="always"
       xlink:href="#linearGradient4"
       id="linearGradient8"
       gradientUnits="userSpaceOnUse"
       x1="66.070648"
       y1="228.51433"
       x2="77.99292"
       y2="204.24066" /><linearGradient
       inkscape:collect="always"
       xlink:href="#linearGradient4"
       id="linearGradient9"
       gradientUnits="userSpaceOnUse"
       x1="115.58553"
       y1="237.633"
       x2="117.06621"
       y2="217.94229" /><linearGradient
       inkscape:collect="always"
       xlink:href="#linearGradient4"
       id="linearGradient10"
       gradientUnits="userSpaceOnUse"
       x1="163.42677"
       y1="224.9377"
       x2="154.75121"
       y2="211.16032" /><linearGradient
       inkscape:collect="always"
       xlink:href="#linearGradient4"
       id="linearGradient11"
       gradientUnits="userSpaceOnUse"
       x1="154.73332"
       y1="224.37073"
       x2="134.52948"
       y2="223.53905"
       gradientTransform="translate(71.628234,-118.93494)" /><linearGradient
       inkscape:collect="always"
       xlink:href="#linearGradient4"
       id="linearGradient12"
       gradientUnits="userSpaceOnUse"
       gradientTransform="translate(46.237629,-176.39789)"
       x1="163.42677"
       y1="224.9377"
       x2="140.67159"
       y2="238.84708" /><radialGradient
       inkscape:collect="always"
       xlink:href="#linearGradient13"
       id="radialGradient14"
       cx="135.96394"
       cy="126.47153"
       fx="135.96394"
       fy="126.47153"
       r="98.205167"
       gradientTransform="matrix(0.91561814,0.34278585,-0.46302727,1.2367961,69.565191,-74.720349)"
       gradientUnits="userSpaceOnUse" /></defs><sodipodi:namedview
     id="base"
     pagecolor="#ffffff"
     bordercolor="#000000"
     borderopacity="0.3"
     inkscape:pageopacity="0.0"
     inkscape:pageshadow="2"
     inkscape:zoom="0.98994949"
     inkscape:cx="505.07627"
     inkscape:cy="476.792"
     inkscape:document-units="mm"
     inkscape:showpageshadow="2"
     inkscape:pagecheckerboard="0"
     inkscape:deskcolor="#d1d1d1"
     inkscape:current-layer="svg1"
     showguides="true" /><metadata
     id="metadata1"><rdf:RDF><cc:Work
         rdf:about=""><dc:format>image/svg+xml</dc:format><dc:type
           rdf:resource="http://purl.org/dc/dcmitype/StillImage" /><cc:license
           rdf:resource="http://creativecommons.org/publicdomain/zero/1.0/" /></cc:Work><cc:License
         rdf:about="http://creativecommons.org/publicdomain/zero/1.0/"><cc:permits
           rdf:resource="http://creativecommons.org/ns#Reproduction" /><cc:permits
           rdf:resource="http://creativecommons.org/ns#Distribution" /><cc:permits
           rdf:resource="http://creativecommons.org/ns#DerivativeWorks" /></cc:License></rdf:RDF></metadata><g
     id="g1"
     transform="matrix(0.94229853,0,0,0.94229853,-29.539759,37.596451)"><path
       style="display:inline;fill:#0156f3;fill-opacity:1;stroke-width:3.58881"
       d="m 154.1256,230.60967 c -16.18307,-1.32449 -32.06063,-7.62103 -44.81829,-17.7736 -3.29697,-2.62371 -12.919156,-12.25063 -15.612704,-15.62035 -7.980122,-9.98347 -14.2393,-23.02457 -16.715905,-34.82789 C 75.058865,153.23797 75.17037,156.95978 75.045335,97.855819 74.926187,41.579666 74.99581,37.56467 76.2131,30.400479 79.146058,13.139903 86.983812,-2.0078121 99.41295,-14.436947 c 10.79451,-10.794506 23.371,-17.980678 38.00073,-21.713511 9.26495,-2.363988 15.50888,-2.849238 34.03154,-2.644795 16.85059,0.185973 21.40673,0.732115 31.44877,3.769651 18.39956,5.565536 35.10427,18.423516 45.72131,35.19271873 2.1741,3.43390257 6.14667,11.51262027 7.5992,15.45397427 2.15896,5.858221 3.94504,13.511137 4.86751,20.856445 0.11556,0.919156 0.35135,2.559961 0.52433,3.646234 0.4659,2.926265 0.68288,108.71262 0.23542,114.70447 -1.26358,16.91537 -7.41671,32.7138 -17.81074,45.72985 -2.64862,3.31678 -8.95409,9.62226 -12.27087,12.27087 -12.87426,10.2808 -28.61028,16.46602 -45.25886,17.78954 -4.66865,0.37115 -27.80993,0.36483 -32.37555,-0.007 z"
       id="path1"
       sodipodi:nodetypes="csssscsssssssscssscc" /><path
       d="m 157.53124,213.00794 c 1.22382,-1.17035 3.78118,-3.51736 10.8511,-9.95871 3.75577,-3.42179 8.54145,-7.79519 10.63488,-9.71865 2.09339,-1.92346 6.06229,-5.54669 8.81976,-8.05161 2.75746,-2.50492 5.08194,-4.62487 5.16549,-4.711 0.0836,-0.0861 2.47639,-2.26681 5.31743,-4.84594 2.84102,-2.5791 5.23386,-4.76519 5.31741,-4.85796 0.0836,-0.093 2.40805,-2.21922 5.16552,-4.72547 2.75743,-2.50621 5.0819,-4.62537 5.16545,-4.7092 0.0836,-0.084 1.5812,-1.45139 3.32809,-3.03905 1.74689,-1.58762 3.39871,-3.09169 3.67074,-3.34237 0.27203,-0.25085 1.23556,-1.13944 2.14123,-1.97503 1.28857,-1.18883 5.85009,-5.33438 8.35867,-7.59633 3.07684,-2.77441 3.50821,-3.27842 3.11466,-3.63902 -0.22394,-0.20528 -2.11636,-1.92049 -4.20533,-3.81179 -4.6576,-4.21686 -9.15094,-8.31166 -11.9963,-10.93228 -2.12884,-1.96071 -4.71243,-4.31709 -12.00806,-10.95195 -2.08898,-1.89981 -4.48182,-4.08626 -5.3174,-4.85879 -1.98982,-1.83969 -5.04017,-4.62744 -8.9654,-8.19364 -1.74746,-1.58766 -4.13955,-3.775401 -5.31571,-4.861663 -1.17616,-1.086262 -3.52906,-3.248164 -5.22861,-4.804201 l -3.09015,-2.82917 2.33628,-2.182286 c 1.28494,-1.200243 4.04556,-3.824025 6.13475,-5.830638 2.08916,-2.006613 7.33977,-6.99833 11.66803,-11.092772 4.32828,-4.094406 8.84556,-8.401521 10.03841,-9.57133 1.19281,-1.169846 3.05232,-2.930446 4.13223,-3.912453 1.07995,-0.982008 3.67646,-3.443216 5.77006,-5.469353 4.77578,-4.621889 10.88103,-10.291318 11.42739,-10.611655 0.74978,-0.439558 0.4387,-1.024607 -1.48462,-2.792026 C 226.64189,37.445004 214.83265,26.047793 208.7963,20.137304 207.17484,18.549649 202.44517,13.969282 198.28588,9.9586388 194.12663,5.9480318 189.6171,1.57255 188.26477,0.23535803 185.78759,-2.2140432 184.78376,-3.1863247 169.59834,-17.844296 c -4.58801,-4.428668 -9.32532,-9.043452 -10.52735,-10.255035 -1.20204,-1.21162 -2.33158,-2.202958 -2.51013,-2.202958 -0.22896,0 -0.3273,14.806405 -0.33412,50.211703 -0.007,39.518295 -0.0886,50.114626 -0.3798,49.755889 -0.29859,-0.367531 -2.55506,-2.449115 -7.08195,-6.532826 -0.18518,-0.167238 -1.82427,-1.671203 -3.64222,-3.34237 -4.59974,-4.228448 -6.79032,-6.234487 -10.45188,-9.571366 -1.74212,-1.587655 -3.38274,-3.091691 -3.64584,-3.342406 -0.26306,-0.250858 -1.9109,-1.74829 -3.66174,-3.328086 -1.75087,-1.579796 -3.89415,-3.544564 -4.76285,-4.366223 -2.13438,-2.018743 -2.7387,-2.412652 -3.25377,-2.120989 -0.49127,0.278133 -1.77359,1.427666 -9.22572,8.26974 -1.71341,1.573156 -3.38731,3.050814 -3.71974,3.283657 -0.87215,0.610887 -0.75246,1.108943 0.53506,2.226715 1.21506,1.054896 4.73648,4.259384 11.16957,10.164382 2.1848,2.005429 5.39977,4.945206 7.1444,6.532825 1.74466,1.58762 4.13707,3.77536 5.3165,4.861659 1.17943,1.086262 3.57241,3.274003 5.3178,4.861622 1.74538,1.587619 4.06702,3.706993 5.1592,4.709708 2.44711,2.246633 8.05083,7.369198 9.00789,8.234461 l 0.70585,0.638091 -1.28659,1.142715 c -1.35374,1.202288 -9.68574,9.120938 -15.86593,15.078728 -2.00852,1.93623 -4.88244,4.65568 -6.38651,6.04323 -1.50407,1.38754 -3.56176,3.35841 -4.57262,4.37975 -1.01086,1.02134 -3.54043,3.42416 -5.62126,5.33965 -2.08087,1.9155 -4.67289,4.3767 -5.76008,5.46935 -1.0872,1.09266 -2.6938,2.64162 -3.57026,3.44214 -0.87646,0.80052 -1.59358,1.7043 -1.59358,2.00841 0,0.31043 1.22902,1.67174 2.80053,3.10232 1.54025,1.40215 3.01676,2.75448 3.28111,3.00516 0.26449,0.25086 1.68688,1.54965 3.16113,2.88659 1.47429,1.33698 3.01296,2.73848 3.41932,3.11452 0.40632,0.376 0.84441,0.68367 0.97353,0.68367 0.1292,0 1.06118,-0.85461 2.07122,-1.8991 1.01003,-1.04448 3.3199,-3.26643 5.13308,-4.93759 1.81314,-1.67121 4.94187,-4.63453 6.95275,-6.58515 2.01085,-1.95063 4.00738,-3.86491 4.43674,-4.25393 0.42933,-0.38907 2.18882,-2.00633 3.90994,-3.59395 1.72113,-1.58762 3.24993,-2.93217 3.39735,-2.9879 0.1475,-0.0556 0.26809,-0.24871 0.26809,-0.42865 0,-0.18016 0.39897,-0.68363 0.88661,-1.11899 0.48765,-0.4354 2.15369,-1.95167 3.70226,-3.3695 1.54857,-1.41784 3.43984,-3.148 4.2029,-3.84481 l 1.38729,-1.26692 0.0768,50.71898 c 0.0485,31.8373 0.18446,50.71898 0.36602,50.71898 0.15899,0 0.61085,-0.30756 1.00404,-0.68366 z m 17.84775,-71.06799 v -28.63902 l 0.98753,0.91543 c 0.54313,0.50348 1.73957,1.59979 2.6587,2.43627 0.91917,0.83648 2.76507,2.52674 4.10201,3.75612 3.88866,3.57583 7.96627,7.28838 12.18116,11.09066 0.46643,0.42075 6.49119,5.95991 9.08153,8.34952 1.17372,1.08274 2.17245,2.05273 2.21946,2.15547 0.047,0.10264 -0.56829,0.77727 -1.36734,1.49887 -0.79905,0.72164 -2.13645,1.9394 -2.97207,2.70618 -0.83559,0.76679 -2.94854,2.69312 -4.69543,4.28074 -1.74689,1.58762 -3.39469,3.09169 -3.66174,3.34237 -0.267,0.25086 -1.91093,1.75475 -3.65305,3.34241 -4.07556,3.7142 -6.37761,5.82407 -10.43114,9.56038 -1.8065,1.66517 -3.54671,3.21116 -3.86709,3.43557 -0.57288,0.40127 -0.58253,-0.0653 -0.58253,-28.23097 z m -0.0725,-101.388145 c -0.0434,-14.570405 -0.0287,-26.491619 0.0323,-26.491583 0.16365,3.6e-5 3.45768,3.124673 6.41587,6.085767 1.42393,1.425262 3.58023,3.495038 4.79185,4.599496 1.21162,1.104457 2.20296,2.082193 2.20296,2.172739 0,0.09044 0.84488,0.960546 1.87749,1.93333 1.03264,0.972784 2.98108,2.862761 4.3299,4.199989 1.34882,1.337228 3.23862,3.156684 4.19956,4.043265 0.96094,0.886545 1.74714,1.6707 1.74714,1.742549 0,0.07178 0.49106,0.58067 1.09125,1.130691 l 1.09122,1.000023 -1.62297,1.483616 c -2.86771,2.621413 -12.17319,11.487864 -14.68905,13.996015 -1.34107,1.336976 -4.00896,3.858082 -5.92865,5.602497 -1.91973,1.744378 -3.93327,3.581492 -4.47457,4.082419 l -0.9842,0.910769 z"
       style="display:inline;fill:#ffffff;fill-opacity:1;stroke-width:3.58881"
       id="path1-9"
       inkscape:label="path1-9" /></g><g
     id="g17"
     transform="matrix(0.68328335,0,0,0.68328335,95.931201,89.433128)"
     style="display:inline"><g
       id="g18"
       inkscape:label="shd"><path
         id="path17"
         style="display:inline;fill:#3e444e;fill-opacity:0.147424;stroke-width:4.79999;stroke-linecap:round;stroke-linejoin:round"
         d="m 136.53809,19.66632 c -6.40057,0.0319 -2.91314,7.291677 -9.44659,8.338175 l -3.02255,19.607071 c -1.64272,4.614615 -4.2656,7.494635 -10.50479,3.977019 0,0 -9.2143,-18.465711 -16.45216,-23.548121 -7.237858,-5.08241 -24.717358,10.863294 -22.784416,19.106141 l 13.055199,26.288191 c 1.029945,3.465249 -1.752096,10.106454 -7.65793,8.247042 L 63.381148,75.496169 c -6.083946,8.001247 -9.416657,16.919799 -12.335165,25.976201 l 14.991333,11.69284 c 3.777162,2.59633 3.19762,9.23383 -1.567863,9.87123 l -18.667077,4.43797 c -1.40933,7.62723 -1.455345,18.73542 0.07493,27.3327 l 21.962484,6.54999 c 3.991597,1.19046 5.248846,5.42218 2.039152,9.47952 L 42.211676,185.9322 c 2.727495,7.27908 3.856086,12.9679 10.067971,15.919 6.211885,2.9511 28.593456,-1.46806 28.593456,-1.46806 6.269651,-1.4692 8.84623,1.19797 8.82065,6.77943 l -21.373741,10.28051 c 3.626116,5.31767 22.205559,18.93769 34.110958,17.63665 1.64993,-0.18031 13.59402,-14.24357 13.59402,-14.24357 5.26492,-4.46304 3.59607,-0.38864 0.45919,4.03844 0,0 -5.05522,8.97848 -2.45848,12.22347 7.87599,9.84214 33.6257,5.50554 37.80693,0.8528 1.98146,-2.2049 2.96926,-16.29125 3.22254,-18.51825 0.36119,-3.17577 -2.77915,-3.14389 0.80706,-1.85116 1.99822,3.72648 11.97952,13.51354 16.53267,13.38802 4.84737,-0.13363 22.41097,-15.73538 23.32135,-18.33334 0.55512,-1.58415 -4.48905,-14.0184 -6.88847,-20.97546 -1.22719,-3.55822 4.20651,-6.2379 7.09673,-5.47822 4.50361,1.18375 14.73413,6.02504 16.92403,5.19916 2.1899,-0.82588 13.54375,-25.30652 13.23021,-27.68356 -0.31354,-2.37705 -11.65554,-6.99043 -16.44862,-10.79471 -2.5009,-1.98497 -1.41735,-7.78542 2.79208,-9.16275 4.20943,-1.37733 18.76492,-5.77129 19.82131,-7.13382 1.05639,-1.36253 1.62996,-24.60421 -0.80113,-28.78064 -2.43108,-4.17643 -11.98467,-4.93954 -18.29191,-4.84887 -2.24414,0.0323 -5.43801,0.44221 -3.83868,-2.90379 0,0 14.2493,-11.784591 15.20166,-14.290083 0.95236,-2.505492 -8.17984,-24.904978 -13.00489,-29.882192 -4.82506,-4.977214 -19.43041,2.530004 -19.43041,2.530004 -4.1989,0.311839 -6.54841,6.098322 -3.88393,2.474636 2.66448,-3.623686 8.48854,-13.081661 8.15041,-15.587679 -0.33813,-2.506018 -28.82588,-22.512059 -32.16083,-20.858453 -3.33496,1.653606 -8.4863,10.602158 -8.4863,10.602158 -5.3353,2.207553 -1.05625,13.149923 -2.64429,9.861487 0,0 1.5779,-16.428746 -1.23568,-20.70617 -2.81359,-4.277423 -13.14593,-4.561501 -15.27945,-4.550868 z m 7.02579,59.210152 c 1.16102,-0.0064 2.2785,0.0833 3.36886,0.222578 17.44576,2.228432 36.89483,15.562232 36.89483,45.01019 0,29.44793 -19.09111,62.83216 -50.58066,56.46061 C 101.75734,174.19829 90.088446,153.85923 96.244184,125.87082 103.03018,95.016817 126.14859,78.97253 143.56388,78.876472 Z"
         inkscape:label="shd1"
         sodipodi:nodetypes="sccczcccccccccccczcccsccasscsssszzszzzsczzczzzcczsscssss" /><path
         id="path19"
         style="display:inline;fill:#3e444e;fill-opacity:0.156306;stroke-width:4.77398;stroke-linecap:round;stroke-linejoin:round"
         d="m 136.02698,19.666319 c -6.36589,0.03173 -2.89736,7.252166 -9.39541,8.292993 l -3.00617,19.50083 c -1.63382,4.58961 -4.24248,7.454024 -10.44787,3.955468 0,0 -9.07784,-16.947173 -16.796198,-22.521761 C 88.662976,23.319261 74.31036,40.772628 72.972386,42.603727 L 87.13802,73.143446 c 1.024364,3.446473 -1.742602,10.051691 -7.616435,8.202355 L 63.26644,75.19365 c -6.05098,7.957891 -9.365632,16.828118 -12.268327,25.83544 l 14.910102,11.62949 c 3.756695,2.58226 3.180294,9.18379 -1.559368,9.81774 l -18.565928,4.41392 c -1.401693,7.58591 -1.447459,18.6339 0.07453,27.1846 l 21.84348,6.5145 c 3.969967,1.18401 5.220404,5.3928 2.028102,9.42815 L 42.21168,185.03128 c 2.712716,7.23964 3.835192,12.89763 10.013417,15.83273 6.178225,2.93511 28.43852,-1.46009 28.43852,-1.46009 6.235678,-1.46125 8.798296,1.19147 8.772855,6.74269 l -21.257926,10.2248 c 3.606468,5.28886 22.085236,18.83508 33.926124,17.54109 1.64099,-0.17934 13.52036,-14.1664 13.52036,-14.1664 5.23639,-4.43885 3.57658,-0.38653 0.4567,4.01656 0,0 -5.04795,8.94603 -2.44516,12.15724 7.84314,9.67651 33.20725,5.00323 37.36583,0.37571 1.97073,-2.19296 3.18941,-15.73051 3.44132,-17.94543 0.35923,-3.15857 -2.63264,-3.65416 0.93415,-2.36844 1.98738,3.70629 11.38224,13.4999 15.91072,13.37506 4.8211,-0.13291 22.28954,-15.65012 23.19498,-18.234 0.55212,-1.57557 -4.06382,-13.47472 -6.45024,-20.39409 -1.22054,-3.53893 4.18372,-6.2041 7.05828,-5.44853 4.4792,1.17733 14.65429,5.99239 16.83232,5.17099 2.17804,-0.82141 12.99943,-24.51843 12.68758,-26.8826 -0.31184,-2.36416 -11.12144,-7.60351 -15.88855,-11.38717 -2.48734,-1.97422 -1.40966,-7.74324 2.77696,-9.1131 4.18662,-1.36987 18.66323,-5.74003 19.7139,-7.09517 1.05066,-1.35515 1.62113,-24.47089 -0.79679,-28.62469 -2.41791,-4.1538 -11.97408,-3.99367 -18.1928,-4.8226 -4.24084,-0.56529 -5.40854,0.43981 -3.81787,-2.888054 0,0 14.17208,-11.720735 15.11928,-14.212651 0.94721,-2.491915 -9.2638,-23.638148 -12.18615,-28.230385 -2.92234,-4.592238 -18.7643,0.688139 -18.7643,0.688139 -4.17615,0.310149 -7.82202,6.403546 -5.17198,2.799495 2.65005,-3.60405 8.44255,-13.010777 8.10625,-15.503216 -0.3363,-2.492438 -28.66968,-22.390076 -31.98657,-20.745429 -3.31688,1.644645 -8.44031,10.544709 -8.44031,10.544709 -5.3064,2.195591 -1.05052,13.078669 -2.62997,9.808051 0,0 1.56935,-16.339725 -1.22898,-20.593971 -2.79835,-4.254246 -13.07469,-4.536784 -15.19665,-4.526209 z m 6.95228,58.551128 c 1.15472,-0.0063 2.27789,0.05936 3.36235,0.197876 17.35123,2.216357 36.7186,15.839592 36.7186,45.127987 0,29.28836 -20.22279,64.66155 -51.54172,58.32453 C 100.19955,175.53081 89.22249,152.99266 95.344874,125.1559 102.0941,94.469087 125.65833,78.312985 142.97926,78.217447 Z"
         inkscape:label="shd1"
         sodipodi:nodetypes="sccczcccccccccccczcccsccasscsssszzszzzsczzczzzcczsscssss" /><path
         id="path20"
         style="display:inline;fill:#3e444e;fill-opacity:0.321492;stroke-width:4.73367;stroke-linecap:round;stroke-linejoin:round"
         d="m 135.23478,19.666317 c -6.31214,0.03146 -2.8729,7.190926 -9.31607,8.222964 l -2.98079,19.33616 c -1.62002,4.550854 -4.20666,7.39108 -10.35965,3.922067 0,0 -8.97607,-16.47585 -16.11391,-21.488035 -7.137851,-5.012186 -17.897722,6.952761 -24.518228,13.031571 L 86.75865,72.691868 c 1.015714,3.41737 -1.727887,9.966812 -7.55212,8.133092 l -16.117882,-6.1002 c -5.999884,7.890692 -9.286546,16.686016 -12.16473,25.61728 l 14.784197,11.53129 c 3.724972,2.56045 3.153439,9.10624 -1.5462,9.73483 l -18.409153,4.37665 c -1.389856,7.52185 -1.435236,18.47655 0.0739,26.95505 l 21.659028,6.45949 c 3.936443,1.17401 5.176321,5.34726 2.010976,9.34853 L 42.21168,183.63489 c 2.689809,7.17851 3.802807,12.78872 9.928861,15.69903 6.126054,2.91033 28.198377,-1.44776 28.198377,-1.44776 6.183023,-1.44891 8.724001,1.18141 8.698775,6.68576 l -21.078418,10.13846 c 3.576014,5.2442 23.032671,19.33749 31.938752,18.19616 1.623543,-0.20806 15.107083,-14.84997 15.107083,-14.84997 5.19217,-4.40137 3.54638,-0.38327 0.45284,3.98264 0,0 -4.98536,8.85443 -2.42451,12.05458 7.76716,9.70615 33.16108,5.42946 37.28455,0.84102 1.95409,-2.17444 2.92823,-16.06616 3.17801,-18.26237 0.3562,-3.1319 -2.61266,-3.41609 0.92401,-2.14122 1.97059,3.67499 11.68589,13.64245 16.17613,13.51866 4.78039,-0.13178 22.10132,-15.51796 22.99912,-18.08002 0.54746,-1.56227 -4.42702,-13.82471 -6.79329,-20.68565 -1.21023,-3.50905 4.14839,-6.15171 6.99868,-5.40252 4.44138,1.16739 14.53055,5.94179 16.69018,5.12732 2.15965,-0.81447 13.07706,-23.04649 12.76784,-25.39069 -0.30921,-2.3442 -11.21492,-8.80421 -15.94178,-12.55592 -2.46633,-1.95755 -1.39775,-7.67785 2.75351,-9.03614 4.15127,-1.3583 18.88362,-5.40808 19.92541,-6.75178 1.04179,-1.34371 1.22946,-24.54773 -1.16804,-28.66645 -2.39749,-4.11873 -11.44698,-5.04589 -17.63827,-5.65051 -1.62285,-0.15848 -5.76377,1.30473 -4.18653,-1.995037 0,0 14.0524,-11.621762 14.99161,-14.092636 0.93921,-2.470872 -6.78726,-20.609979 -11.42738,-26.596134 -4.64012,-5.986154 -19.93355,1.939017 -19.93355,1.939017 -4.14089,0.30753 -7.08414,3.696918 -4.45648,0.123301 2.62768,-3.573617 8.37126,-12.900911 8.0378,-15.372303 -0.33346,-2.471391 -28.42758,-22.201008 -31.71647,-20.570249 -3.28887,1.630758 -8.36903,10.455667 -8.36903,10.455667 -5.26159,2.177051 -1.04165,12.968229 -2.60776,9.725229 0,0 1.55609,-16.201748 -1.21861,-20.42007 -2.77472,-4.218322 -12.96428,-4.498474 -15.06832,-4.487988 z m 6.92871,57.88342 c 1.14497,-0.0062 2.25866,0.05886 3.33396,0.196205 17.20471,2.197641 36.3734,15.879124 36.3734,44.920198 0,29.04104 -21.54595,65.68303 -52.60041,59.39952 C 98.215965,175.78214 88.029101,151.58573 94.099786,123.98403 100.79202,93.556341 124.98882,77.644468 142.16349,77.549737 Z"
         inkscape:label="shd1"
         sodipodi:nodetypes="sccczcccccccccccczcccsccasscsssszzszzzsczzczzzcczsscssss" /><path
         id="path21"
         style="display:inline;fill:#3e444e;fill-opacity:0.321492;stroke-width:4.7107;stroke-linecap:round;stroke-linejoin:round"
         d="m 134.78332,19.666316 c -6.28151,0.03131 -2.85896,7.156027 -9.27086,8.183056 l -2.96632,19.242318 c -1.61216,4.528768 -4.18624,7.35521 -10.30937,3.903032 0,0 -9.63794,-15.524302 -16.741143,-20.512162 -7.10321,-4.987861 -16.647109,6.963093 -23.235484,13.012401 l 14.282312,28.939562 c 1.010784,3.400785 -1.719501,9.918442 -7.515468,8.093621 L 62.987328,74.457549 c -5.970765,7.852397 -9.241477,16.605036 -12.105692,25.492955 l 14.712446,11.475326 c 3.706894,2.54802 3.138135,9.06205 -1.538696,9.68759 l -18.31981,4.3554 c -1.38311,7.48535 -1.42827,18.38688 0.07354,26.82424 l 21.553912,6.42814 c 3.917339,1.16831 5.1512,5.32131 2.001217,9.30316 L 42.21168,182.83912 c 2.676755,7.14367 3.784351,12.72665 9.880674,15.62284 6.096323,2.8962 28.061525,-1.44074 28.061525,-1.44074 6.153016,-1.44187 8.681662,1.17568 8.656558,6.65332 l -20.97612,10.08925 c 3.558659,5.21875 22.784651,19.57758 30.358079,18.48973 1.612333,-0.2316 16.459434,-15.15978 16.459434,-15.15978 5.16697,-4.38001 3.52917,-0.38141 0.45064,3.96331 0,0 -4.91216,8.77284 -2.41274,11.99608 7.39631,9.53823 32.8584,4.6944 36.15866,1.92362 2.22813,-1.87066 3.85896,-17.07487 4.10753,-19.26042 0.35447,-3.1167 -2.33401,-4.39691 1.18549,-3.12822 1.96103,3.65715 11.36321,14.57363 15.83166,14.45044 4.75719,-0.13114 21.99405,-15.44265 22.8875,-17.99227 0.5448,-1.55469 -4.40554,-13.75762 -6.76032,-20.58526 -1.20436,-3.49202 4.12825,-6.12185 6.96471,-5.3763 4.41982,1.16172 14.46003,5.91295 16.60918,5.10244 2.14917,-0.81052 12.68286,-22.84016 12.37514,-25.17298 -0.30771,-2.33282 -10.82976,-8.85597 -15.53368,-12.58947 -2.45436,-1.94805 -1.39096,-7.64059 2.74015,-8.99229 4.13112,-1.35171 18.41583,-5.66394 19.45256,-7.00111 1.03674,-1.33719 1.59964,-24.1465 -0.78622,-28.24523 -2.38586,-4.09874 -11.78512,-4.85354 -16.81573,-5.02594 -1.57364,-0.0539 -6.47274,0.70125 -4.90315,-2.582498 0,0 13.9842,-11.565359 14.91885,-14.024242 0.93465,-2.45888 -6.68447,-17.355195 -11.37192,-25.338632 -4.80386,-8.181709 -17.9561,8.418053 -17.9561,8.418053 -4.1208,0.306037 -8.93047,-3.937896 -6.31556,-7.494169 2.61492,-3.556274 8.33063,-12.838301 7.99879,-15.297699 -0.33184,-2.459396 -28.28962,-22.093262 -31.56255,-20.470417 -3.2729,1.622843 -8.32841,10.404923 -8.32841,10.404923 -5.23605,2.166486 -1.03659,12.905292 -2.5951,9.678031 0,0 1.54854,-16.123118 -1.2127,-20.320967 -2.76125,-4.19785 -12.90136,-4.476642 -14.99519,-4.466207 z m 6.89508,57.320394 c 1.13942,-0.0062 2.2477,0.05857 3.31778,0.195253 17.12122,2.186975 36.19688,16.084166 36.19688,44.984297 0,28.9001 -22.961,66.62083 -53.86475,60.36781 -30.903758,-6.25302 -39.946793,-31.9193 -33.90557,-59.38705 6.65976,-30.280012 31.16435,-46.066039 48.25566,-46.16031 z"
         inkscape:label="shd1"
         sodipodi:nodetypes="sccczcccccccccccczcccsccasscsssszzszzzsczsczzzcczsscssss" /><path
         id="path22"
         style="display:inline;fill:#3e444e;fill-opacity:0.321492;stroke-width:4.68773;stroke-linecap:round;stroke-linejoin:round"
         d="m 134.33186,19.666315 c -6.25088,0.03116 -2.84502,7.121128 -9.22565,8.143148 l -2.95185,19.148476 c -1.6043,4.506682 -4.16582,7.31934 -10.25909,3.883997 0,0 -9.91561,-14.881785 -16.984178,-19.84532 C 87.842523,26.03308 77.79405,39.682237 71.237806,45.702043 L 86.32626,72.177178 c 1.005854,3.3842 -1.711115,9.870072 -7.478816,8.05415 L 62.886008,74.190338 C 56.944362,82.00444 53.6896,90.714394 50.839354,99.558968 l 14.640695,11.419362 c 3.688816,2.53559 3.122831,9.01786 -1.531192,9.64035 l -18.230467,4.33415 c -1.376364,7.44885 -1.421304,18.29721 0.07318,26.69343 l 21.448796,6.39679 c 3.898235,1.16261 5.126079,5.29536 1.991458,9.25779 L 42.21168,182.04335 c 2.663701,7.10883 3.765895,12.66458 9.832487,15.54665 6.066592,2.88207 27.924673,-1.43372 27.924673,-1.43372 6.123009,-1.43483 8.639323,1.16995 8.614341,6.62088 L 67.709359,212.8172 c 3.541304,5.1933 25.371452,19.67593 29.6751,19.20852 1.611468,-0.17502 16.914091,-15.89481 16.914091,-15.89481 5.14177,-4.35865 3.51196,-0.37955 0.44844,3.94398 0,0 -4.86359,8.71113 -2.40097,11.93758 7.07298,9.2668 33.12268,4.29008 34.89103,2.39201 1.97348,-2.11825 4.93143,-17.46937 5.17879,-19.64426 0.35274,-3.1015 -2.32263,-4.37547 1.1797,-3.11296 1.95147,3.63931 11.64189,14.97027 16.08855,14.84768 4.73399,-0.1305 21.68632,-15.03325 22.57542,-17.57043 0.54214,-1.54711 -4.51769,-14.49234 -6.86098,-21.28668 -1.19849,-3.47499 4.10811,-6.09199 6.93074,-5.35008 4.39826,1.15605 14.38951,5.88411 16.52818,5.07756 2.13869,-0.80657 12.76113,-22.1141 12.45491,-24.43554 -0.30621,-2.32144 -10.91707,-9.42746 -15.59805,-13.14275 -2.44239,-1.93855 -1.38417,-7.60333 2.72679,-8.94844 4.11097,-1.34512 18.32602,-5.63632 19.35769,-6.96696 1.03169,-1.33067 1.59184,-24.02875 -0.78238,-28.10749 -2.37423,-4.07875 -8.23116,-4.75614 -14.38959,-4.60183 -1.94312,0.0487 -8.78531,0.29823 -7.22337,-2.969499 0,0 13.916,-11.508956 14.84609,-13.955848 0.93009,-2.446888 -7.81195,-19.822788 -11.31646,-25.215059 -3.50451,-5.392271 -17.86853,8.377 -17.86853,8.377 -4.10071,0.304544 -8.88692,-3.918692 -6.28476,-7.457621 2.60216,-3.538931 8.29,-12.775691 7.95978,-15.223095 -0.33022,-2.447401 -28.15166,-21.985516 -31.40863,-20.370585 -3.25693,1.614928 -8.28779,10.354179 -8.28779,10.354179 -5.21051,2.155921 -1.03153,12.842355 -2.58244,9.630833 0,0 1.54099,-16.044488 -1.20679,-20.221864 -2.74778,-4.177378 -12.83844,-4.45481 -14.92206,-4.444426 z m 6.4126,56.863674 c 1.13387,-0.0062 2.23674,0.05828 3.3016,0.194301 17.03773,2.176309 36.46921,16.182902 36.46921,44.94209 0,28.75916 -24.10878,67.09089 -54.86182,60.86836 C 94.900409,176.31222 86.403203,149.92729 92.414964,122.59349 99.042244,92.461157 123.73651,76.6238 140.74446,76.529989 Z"
         inkscape:label="shd1"
         sodipodi:nodetypes="sccczcccccccccccczcccsccasscsssszzszzzsczzczzzcczsscssss" /><path
         id="path23"
         style="display:inline;fill:#3e444e;fill-opacity:0.321492;stroke-width:4.68773;stroke-linecap:round;stroke-linejoin:round"
         d="m 134.33186,19.666315 c -6.25088,0.03116 -2.84502,7.121128 -9.22565,8.143148 l -2.95185,19.148476 c -1.6043,4.506682 -4.16582,7.31934 -10.25909,3.883997 0,0 -10.44181,-13.879523 -17.510364,-18.843058 -7.068569,-4.963536 -14.252248,8.485168 -20.808492,14.504974 L 86.32626,72.177178 c 1.005854,3.3842 -1.711115,9.870072 -7.478816,8.05415 L 62.886008,74.190338 C 56.944362,82.00444 53.6896,90.714394 50.839354,99.558968 l 14.640695,11.419362 c 3.688816,2.53559 3.122831,9.01786 -1.531192,9.64035 l -18.230467,4.33415 c -1.376364,7.44885 -1.421304,18.29721 0.07318,26.69343 l 21.448796,6.39679 c 3.898235,1.16261 5.126079,5.29536 1.991458,9.25779 L 42.21168,182.04335 c 2.663701,7.10883 3.765895,12.66458 9.832487,15.54665 6.066592,2.88207 27.924673,-1.43372 27.924673,-1.43372 6.123009,-1.43483 8.639323,1.16995 8.614341,6.62088 L 67.709359,212.8172 c 3.541304,5.1933 23.8123,19.43969 29.580606,19.16127 1.619059,-0.0781 17.008585,-15.84756 17.008585,-15.84756 5.14177,-4.35865 3.51196,-0.37955 0.44844,3.94398 0,0 -4.84161,8.69447 -2.40097,11.93758 7.12154,9.4631 33.12268,5.04603 35.41075,2.91173 2.11704,-1.97477 4.41171,-17.98909 4.65907,-20.16398 0.35274,-3.1015 -2.32263,-4.37547 1.1797,-3.11296 1.95147,3.63931 11.3078,14.50255 15.75446,14.37996 4.73399,-0.1305 21.08497,-14.36508 21.97407,-16.90226 0.54214,-1.54711 -4.11679,-13.82416 -6.46008,-20.6185 -1.19849,-3.47499 4.64265,-6.96062 7.46528,-6.21871 4.39826,1.15605 14.38951,5.88411 16.52818,5.07756 2.13869,-0.80657 11.91069,-22.01961 11.60447,-24.34105 -0.30621,-2.32144 -10.06663,-9.52195 -14.74761,-13.23724 -2.44239,-1.93855 -1.38417,-7.60333 2.72679,-8.94844 4.11097,-1.34512 18.32602,-5.63632 19.35769,-6.96696 1.03169,-1.33067 1.59184,-24.02875 -0.78238,-28.10749 -2.37423,-4.07875 -13.11262,-3.38988 -19.46771,-4.06729 -1.36181,-0.14515 -3.70719,-0.23631 -2.14525,-3.504039 0,0 13.916,-11.508956 14.84609,-13.955848 0.93009,-2.446888 -8.51615,-18.250953 -12.09604,-25.167812 -1.20034,-2.319233 -18.22288,1.620676 -18.22288,1.620676 -4.10071,0.304544 -7.75299,2.790385 -5.15083,-0.748544 2.60216,-3.538931 8.29,-12.775691 7.95978,-15.223095 -0.33022,-2.447401 -28.15166,-21.985516 -31.40863,-20.370585 -3.25693,1.614928 -8.28779,10.354179 -8.28779,10.354179 -5.21051,2.155921 -1.03153,12.842355 -2.58244,9.630833 0,0 1.54099,-16.044488 -1.20679,-20.221864 -2.74778,-4.177378 -12.83844,-4.45481 -14.92206,-4.444426 z m 6.22362,56.249462 c 1.13387,-0.0062 2.23674,0.05828 3.3016,0.194301 17.03773,2.176309 36.65819,16.797114 36.65819,45.556302 0,28.75916 -24.84377,67.69225 -55.59681,61.46972 C 94.165418,176.91358 85.174781,149.59656 91.186542,122.26276 97.813822,92.130428 123.54753,76.009588 140.55548,75.915777 Z"
         inkscape:label="shd1"
         sodipodi:nodetypes="sccczcccccccccccczcccsccasscsssszzszzzsczsczzzcczsscssss" /></g><path
       id="path1-7"
       style="display:inline;fill:url(#radialGradient14);stroke-width:4.79999;stroke-linecap:round;stroke-linejoin:round"
       d="m 130.53173,19.221858 c -6.40057,0.0319 -12.66848,0.743574 -19.20193,1.790072 l -3.02255,19.607071 c -1.64272,4.614615 -5.46831,9.632791 -11.172955,-6.713762 L 86.937235,30.013707 C 78.80501,34.403983 71.827334,40.404531 65.114071,46.568509 l 6.507096,19.873722 c 1.029945,3.465249 -0.148479,9.304645 -6.054313,7.445233 L 47.953619,67.83543 C 41.869673,75.836677 38.202875,85.423403 35.284367,94.479797 L 50.2757,106.1726 c 3.777162,2.59633 3.19762,9.23383 -1.567863,9.87123 L 30.04076,120.4818 c -1.40933,7.62723 -1.455345,18.73542 0.07493,27.3327 6.810042,3.4603 14.479613,4.77177 21.962484,6.54999 3.991597,1.19046 5.248846,5.42218 2.039152,9.47952 l -17.367415,11.93003 c 2.727495,7.27908 6.184006,13.86292 10.667361,20.64034 l 11.279746,3.72471 c 6.269651,-1.4692 15.260699,-5.55059 15.235119,0.0309 l -7.294128,16.23364 c 5.610491,4.65621 12.675653,8.27387 20.031335,11.68352 l 10.18626,3.12895 c 2.525407,-7.60346 11.917446,-20.40699 14.166726,-16.07441 l 0.82589,17.6812 c 3.323,1.87613 6.89662,3.0004 10.57455,3.81173 l 13.64816,-5.67633 3.22254,-18.51825 c 2.08382,-4.71687 5.30575,-4.88114 8.89196,-3.58841 l 11.2541,12.85348 c 3.90638,1.37116 10.29975,3.21222 10.29975,3.21222 0,0 7.01112,-16.16688 10.21527,-19.27377 l -6.88847,-20.97546 c 0.83296,-4.63585 3.24008,-6.38581 7.09673,-5.47822 l 16.92403,5.19916 c 4.74409,-7.38545 8.86063,-15.39778 11.84424,-24.54372 l -15.06265,-13.93455 c -1.54223,-2.88941 -3.04772,-5.78121 2.79208,-9.16275 l 18.35133,-6.73292 c 0.34619,-4.37217 10.37434,-23.96933 10.37434,-23.96933 0,0 -4.57114,-2.39923 -10.50869,-3.36957 l -17.63045,-0.73838 c -5.51787,-1.4561 -5.29627,-5.510889 -3.69694,-8.856874 l 12.69757,-34.606304 c -3.65989,-1.670829 -6.00063,-3.167702 -9.98108,-3.849082 l -17.39879,6.923977 c -4.1989,0.311839 -7.4154,-1.857763 -6.43527,-7.636227 L 170.0941,29.065184 c -1.49938,-0.691464 -3.72537,-1.973661 -11.08866,-4.038512 l -12.45505,16.177307 c -5.3353,2.207553 2.06206,-15.009304 0.47402,-18.29774 l -10.03313,-3.476642 c -2.17781,-0.153172 -4.32603,-0.218372 -6.45955,-0.207739 z m -2.72955,51.85885 c 1.16102,-0.0064 2.29031,0.05968 3.38067,0.198954 17.44576,2.228432 36.88302,16.389055 36.88302,45.836968 0,29.44793 -25.43876,69.31345 -56.92831,62.9419 C 79.64807,173.68697 72.909419,146.4414 79.065157,118.45299 85.851148,87.599029 110.38689,71.176766 127.80218,71.080708 Z"
       sodipodi:nodetypes="scccccccccccccccccccccccccccccccccccccccccccccccccccsscssss" /><g
       id="g4"
       style="display:inline;fill:url(#linearGradient5);fill-opacity:1"><path
         id="rect4"
         style="fill:url(#linearGradient6);fill-opacity:1;stroke-width:4.79999;stroke-linecap:round;stroke-linejoin:round"
         d="m 65.881943,45.836723 10.156242,4.009043 6.681739,22.45064 c -0.767579,9.925257 -11.641415,5.46762 -16.370259,2.255087 2.243189,-1.275639 5.581177,-2.832216 5.61266,-6.41447 z"
         sodipodi:nodetypes="cccccc" /><path
         id="path6"
         style="fill:url(#radialGradient7);stroke-width:4.79999;stroke-linecap:round;stroke-linejoin:round"
         d="m 47.887801,68.003881 10.477186,3.624352 12.970749,48.203817 -30.577128,3.91374 c -0.767579,9.92526 -10.403942,-3.57088 -10.403942,-3.57088 l 19.597806,-4.46908 c 2.793698,-2.40871 3.39372,-5.34922 2.029969,-8.7658 L 35.605562,93.943354 c 0,0 6.466907,-17.823757 12.282239,-25.939473 z"
         sodipodi:nodetypes="ccccccccc" /><path
         id="path7"
         style="fill:url(#linearGradient7);fill-opacity:1;stroke-width:4.79999;stroke-linecap:round;stroke-linejoin:round"
         d="m 36.805415,175.85107 10.794077,3.34758 11.358956,21.1143 -11.630973,-3.99808 c -5.511308,-8.46372 -8.398381,-14.06119 -10.52206,-20.4638 z"
         sodipodi:nodetypes="ccccc" /><path
         id="path8"
         style="fill:url(#linearGradient8);fill-opacity:1;stroke-width:4.79999;stroke-linecap:round;stroke-linejoin:round"
         d="m 66.776081,215.8814 5.913338,-13.59734 11.191912,2.77292 -6.481287,14.633 19.816392,11.69711 c -4.356842,-1.38318 -7.463055,-2.02935 -10.644721,-3.35067 -3.774056,-1.0804 -16.769921,-8.7592 -19.795634,-12.15502 z"
         sodipodi:nodetypes="ccccccc" /><path
         id="path9"
         style="fill:url(#linearGradient9);fill-opacity:1;stroke-width:4.79999;stroke-linecap:round;stroke-linejoin:round"
         d="m 112.18047,233.07932 -0.654,-16.24318 c 3.41392,-2.93292 7.27305,-3.44403 10.43596,1.78074 l 0.79476,18.22377 z"
         sodipodi:nodetypes="ccccc" /><path
         id="path10"
         style="fill:url(#linearGradient10);fill-opacity:1;stroke-width:4.79999;stroke-linecap:round;stroke-linejoin:round"
         d="m 159.92149,221.78718 -8.10414,-9.19394 c 1.67667,-1.19567 5.83648,-2.04087 8.09735,0.64484 l 10.04897,11.8093 z"
         sodipodi:nodetypes="ccccc" /><path
         id="path11"
         style="fill:url(#linearGradient11);fill-opacity:1;stroke-width:4.79999;stroke-linecap:round;stroke-linejoin:round"
         d="m 216.33618,102.805 -13.30131,-0.26426 c 1.67667,-1.19567 1.20627,0.69946 3.46714,3.38517 l 18.83691,0.092 c -2.68586,-1.17599 -5.56514,-2.2875 -9.00274,-3.21291 z"
         sodipodi:nodetypes="ccccc" /><path
         id="path12"
         style="fill:url(#linearGradient12);fill-opacity:1;stroke-width:4.79999;stroke-linecap:round;stroke-linejoin:round"
         d="m 196.23723,54.366226 -13.67928,5.452637 c 0.44824,3.623526 2.81267,6.558088 6.96342,5.55853 l 17.514,-6.900521 z"
         sodipodi:nodetypes="ccccc" /></g><path
       id="path3"
       style="fill:url(#linearGradient3);fill-opacity:1;stroke-width:4.79999;stroke-linecap:round;stroke-linejoin:round"
       d="m 141.00173,22.510254 c -6.40057,0.0319 -12.66848,0.743574 -19.20193,1.790072 l -3.02255,19.607071 c -1.64272,4.614615 -4.2656,7.494635 -10.50479,3.977019 L 97.540816,33.63619 C 89.408591,38.026466 82.29728,43.692927 75.584017,49.856905 l 6.507096,19.873722 c 1.029945,3.465249 -1.752096,10.106454 -7.65793,8.247042 L 58.089478,71.792 c -6.083946,8.001247 -9.416657,16.919799 -12.335165,25.976193 l 14.991333,11.692827 c 3.777162,2.59633 3.19762,9.23383 -1.567863,9.87123 l -18.667077,4.43797 c -1.40933,7.62723 -1.455345,18.73542 0.07493,27.3327 l 21.962484,6.54999 c 3.991597,1.19046 5.248846,5.42218 2.039152,9.47952 l -17.367415,11.93003 c 2.727495,7.27908 6.718545,14.19701 11.2019,20.97443 l 17.159676,-3.35794 c 6.269651,-1.4692 8.84623,1.19797 8.82065,6.77943 l -7.294128,16.23364 c 5.610491,4.65621 12.675653,8.27387 20.031335,11.68352 l 13.594,-14.24357 c 5.26492,-4.46304 8.50976,-3.03447 10.75904,1.29811 l 1.22679,18.0821 23.82181,-2.2655 3.22254,-18.51825 c 2.08382,-4.71687 5.30575,-4.88114 8.89196,-3.58841 l 11.2541,12.85348 c 7.41185,-4.20668 14.10672,-9.84776 20.51502,-16.06155 l -6.2203,-20.04002 c -1.39626,-4.49837 2.57191,-7.32125 6.42856,-6.41366 l 16.92403,5.19916 c 4.74409,-7.38545 8.86063,-15.39778 11.84424,-24.54372 l -14.49569,-13.93455 c -2.36119,-2.26979 -3.61468,-5.78121 2.22512,-9.16275 l 18.35133,-6.73292 c 0.69239,-8.74434 0.68496,-17.8387 -0.13435,-27.3389 l -17.63045,-0.31316 c -5.51787,-1.45611 -5.29627,-5.936133 -3.69694,-9.282118 l 15.20166,-14.290084 c -3.37641,-8.899623 -8.0795,-16.20788 -12.67416,-23.645585 l -17.2098,6.40426 c -4.1989,0.311839 -7.4154,-1.857763 -6.43527,-7.636227 l 8.15041,-15.587679 c -6.41307,-5.699649 -13.74174,-9.911161 -21.5775,-13.298929 l -12.45505,16.177307 c -5.3353,2.207553 -7.67083,0.01525 -9.25887,-3.273186 l -0.30024,-18.501196 c -2.17781,-0.153172 -4.32603,-0.218372 -6.45955,-0.207739 z m -2.72955,51.85885 c 1.16102,-0.0064 2.29031,0.05968 3.38067,0.198954 17.44576,2.228432 36.88302,16.389055 36.88302,45.836992 0,29.44793 -25.43876,69.31345 -56.92831,62.9419 C 90.118016,176.97539 83.379365,149.72982 89.535103,121.74141 96.321094,90.887425 120.85689,74.465162 138.27218,74.369104 Z"
       sodipodi:nodetypes="scccccccccccccccccccccccccccccscccsccccccccccccccsssssss" /></g></svg>
