<?xml version="1.0" encoding="UTF-8" standalone="no"?>
<!-- Created with Inkscape (http://www.inkscape.org/) -->

<svg
   width="256mm"
   height="256mm"
   viewBox="0 0 256 256"
   version="1.1"
   id="svg1"
   inkscape:version="1.3.2 (091e20ef0f, 2023-11-25)"
   xml:space="preserve"
   sodipodi:docname="preferences-desktop-baloo-01.svg"
   xmlns:inkscape="http://www.inkscape.org/namespaces/inkscape"
   xmlns:sodipodi="http://sodipodi.sourceforge.net/DTD/sodipodi-0.dtd"
   xmlns:xlink="http://www.w3.org/1999/xlink"
   xmlns="http://www.w3.org/2000/svg"
   xmlns:svg="http://www.w3.org/2000/svg"
   xmlns:rdf="http://www.w3.org/1999/02/22-rdf-syntax-ns#"
   xmlns:cc="http://creativecommons.org/ns#"
   xmlns:dc="http://purl.org/dc/elements/1.1/"><defs
     id="defs1"><linearGradient
       id="linearGradient39"
       inkscape:collect="always"><stop
         style="stop-color:#de8431;stop-opacity:1"
         offset="0"
         id="stop40" /><stop
         style="stop-color:#e39a44;stop-opacity:1"
         offset="0.5"
         id="stop42" /><stop
         style="stop-color:#ecbc5a;stop-opacity:1"
         offset="1"
         id="stop41" /></linearGradient><linearGradient
       id="linearGradient38"
       inkscape:collect="always"><stop
         style="stop-color:#f3d672;stop-opacity:0.02569593;"
         offset="0"
         id="stop30" /><stop
         style="stop-color:#ecb854;stop-opacity:0;"
         offset="0.23503685"
         id="stop34" /><stop
         style="stop-color:#ecba56;stop-opacity:0;"
         offset="0.24275669"
         id="stop39" /><stop
         style="stop-color:#edbc58;stop-opacity:1"
         offset="0.25453943"
         id="stop35" /><stop
         style="stop-color:#e7a84c;stop-opacity:0.63811564;"
         offset="0.28138313"
         id="stop36" /><stop
         style="stop-color:#efc561;stop-opacity:0;"
         offset="1"
         id="stop38" /></linearGradient><linearGradient
       id="linearGradient15"
       inkscape:collect="always"><stop
         style="stop-color:#f5da74;stop-opacity:1;"
         offset="0"
         id="stop16" /><stop
         style="stop-color:#f5da74;stop-opacity:1;"
         offset="0.89655173"
         id="stop18" /><stop
         style="stop-color:#edbf5b;stop-opacity:1"
         offset="0.95043105"
         id="stop19" /><stop
         style="stop-color:#ecb855;stop-opacity:1"
         offset="1"
         id="stop17" /></linearGradient><linearGradient
       id="linearGradient7"
       inkscape:collect="always"><stop
         style="stop-color:#f3d672;stop-opacity:1"
         offset="0"
         id="stop7" /><stop
         style="stop-color:#db7a27;stop-opacity:1"
         offset="0.13670018"
         id="stop11" /><stop
         style="stop-color:#d86a1e;stop-opacity:1"
         offset="0.17596242"
         id="stop15" /><stop
         style="stop-color:#dd6d23;stop-opacity:0.98715204;"
         offset="0.21522467"
         id="stop12" /><stop
         style="stop-color:#ecb854;stop-opacity:1"
         offset="0.23922533"
         id="stop13" /><stop
         style="stop-color:#edbc58;stop-opacity:1"
         offset="0.25453943"
         id="stop14" /><stop
         style="stop-color:#e7a84c;stop-opacity:1"
         offset="0.28138313"
         id="stop9" /><stop
         style="stop-color:#ecb959;stop-opacity:1"
         offset="0.68845636"
         id="stop10" /><stop
         style="stop-color:#efc561;stop-opacity:1"
         offset="1"
         id="stop8" /></linearGradient><linearGradient
       id="linearGradient2"
       inkscape:collect="always"><stop
         style="stop-color:#f8ec9b;stop-opacity:1"
         offset="0"
         id="stop2" /><stop
         style="stop-color:#faf0bb;stop-opacity:1"
         offset="0.18918867"
         id="stop4" /><stop
         style="stop-color:#fbfbfb;stop-opacity:1;"
         offset="0.43470797"
         id="stop6" /><stop
         style="stop-color:#faf1bb;stop-opacity:1"
         offset="0.67653662"
         id="stop5" /><stop
         style="stop-color:#f8eb90;stop-opacity:1"
         offset="1"
         id="stop3" /></linearGradient><linearGradient
       inkscape:collect="always"
       xlink:href="#linearGradient2"
       id="linearGradient3"
       x1="33.275063"
       y1="42.696308"
       x2="169.58252"
       y2="41.627228"
       gradientUnits="userSpaceOnUse" /><linearGradient
       inkscape:collect="always"
       xlink:href="#linearGradient7"
       id="linearGradient8"
       x1="35.151783"
       y1="190.689"
       x2="181.99553"
       y2="183.50745"
       gradientUnits="userSpaceOnUse" /><linearGradient
       inkscape:collect="always"
       xlink:href="#linearGradient15"
       id="linearGradient17"
       x1="23.8125"
       y1="89.533109"
       x2="67.657734"
       y2="89.533109"
       gradientUnits="userSpaceOnUse" /><linearGradient
       inkscape:collect="always"
       xlink:href="#linearGradient15"
       id="linearGradient29"
       gradientUnits="userSpaceOnUse"
       x1="23.8125"
       y1="89.533109"
       x2="67.657734"
       y2="89.533109" /><linearGradient
       inkscape:collect="always"
       xlink:href="#linearGradient38"
       id="linearGradient30"
       gradientUnits="userSpaceOnUse"
       x1="35.151783"
       y1="190.689"
       x2="181.99553"
       y2="183.50745"
       gradientTransform="translate(-0.41577335,-0.01417382)" /><linearGradient
       inkscape:collect="always"
       xlink:href="#linearGradient39"
       id="linearGradient41"
       x1="155.37511"
       y1="72.154518"
       x2="111.65743"
       y2="203.9184"
       gradientUnits="userSpaceOnUse" /><linearGradient
       inkscape:collect="always"
       xlink:href="#linearGradient2"
       id="linearGradient98"
       gradientUnits="userSpaceOnUse"
       x1="33.275063"
       y1="42.696308"
       x2="169.58252"
       y2="41.627228" /><linearGradient
       inkscape:collect="always"
       xlink:href="#linearGradient7"
       id="linearGradient99"
       gradientUnits="userSpaceOnUse"
       x1="35.151783"
       y1="190.689"
       x2="181.99553"
       y2="183.50745" /><linearGradient
       inkscape:collect="always"
       xlink:href="#linearGradient15"
       id="linearGradient100"
       gradientUnits="userSpaceOnUse"
       x1="23.8125"
       y1="89.533109"
       x2="67.657734"
       y2="89.533109" /><linearGradient
       inkscape:collect="always"
       xlink:href="#linearGradient15"
       id="linearGradient101"
       gradientUnits="userSpaceOnUse"
       x1="23.8125"
       y1="89.533109"
       x2="67.657734"
       y2="89.533109" /><linearGradient
       inkscape:collect="always"
       xlink:href="#linearGradient39"
       id="linearGradient102"
       gradientUnits="userSpaceOnUse"
       x1="155.37511"
       y1="72.154518"
       x2="111.65743"
       y2="203.9184" /><linearGradient
       inkscape:collect="always"
       xlink:href="#linearGradient38"
       id="linearGradient103"
       gradientUnits="userSpaceOnUse"
       gradientTransform="translate(-0.41577335,-0.01417382)"
       x1="35.151783"
       y1="190.689"
       x2="181.99553"
       y2="183.50745" /><linearGradient
       inkscape:collect="always"
       xlink:href="#linearGradient2"
       id="linearGradient120"
       gradientUnits="userSpaceOnUse"
       x1="33.275063"
       y1="42.696308"
       x2="169.58252"
       y2="41.627228" /><linearGradient
       inkscape:collect="always"
       xlink:href="#linearGradient7"
       id="linearGradient121"
       gradientUnits="userSpaceOnUse"
       x1="35.151783"
       y1="190.689"
       x2="181.99553"
       y2="183.50745" /><linearGradient
       inkscape:collect="always"
       xlink:href="#linearGradient15"
       id="linearGradient122"
       gradientUnits="userSpaceOnUse"
       x1="23.8125"
       y1="89.533109"
       x2="67.657734"
       y2="89.533109" /><linearGradient
       inkscape:collect="always"
       xlink:href="#linearGradient15"
       id="linearGradient123"
       gradientUnits="userSpaceOnUse"
       x1="23.8125"
       y1="89.533109"
       x2="67.657734"
       y2="89.533109" /><linearGradient
       inkscape:collect="always"
       xlink:href="#linearGradient39"
       id="linearGradient124"
       gradientUnits="userSpaceOnUse"
       x1="155.37511"
       y1="72.154518"
       x2="111.65743"
       y2="203.9184" /><linearGradient
       inkscape:collect="always"
       xlink:href="#linearGradient38"
       id="linearGradient125"
       gradientUnits="userSpaceOnUse"
       gradientTransform="translate(-0.41577335,-0.01417382)"
       x1="35.151783"
       y1="190.689"
       x2="181.99553"
       y2="183.50745" /><radialGradient
       inkscape:collect="always"
       xlink:href="#linearGradient1"
       id="radialGradient2"
       cx="23.321339"
       cy="197.96892"
       fx="23.321339"
       fy="197.96892"
       r="19.310223"
       gradientUnits="userSpaceOnUse"
       gradientTransform="matrix(1.7399222,0,0,1.7399222,-16.824538,-125.86657)" /><linearGradient
       id="linearGradient1"
       inkscape:collect="always"><stop
         style="stop-color:#bebec0;stop-opacity:1;"
         offset="0"
         id="stop1" /><stop
         style="stop-color:#a6a9ad;stop-opacity:1;"
         offset="0.29852211"
         id="stop3-4" /><stop
         style="stop-color:#6e6f74;stop-opacity:1;"
         offset="0.466699"
         id="stop5-5" /><stop
         style="stop-color:#585a5c;stop-opacity:1;"
         offset="0.55620557"
         id="stop7-0" /><stop
         style="stop-color:#5f6163;stop-opacity:1;"
         offset="0.61873716"
         id="stop6-3" /><stop
         style="stop-color:#adb1b4;stop-opacity:1;"
         offset="0.90824175"
         id="stop4-6" /><stop
         style="stop-color:#b3b6ba;stop-opacity:1;"
         offset="1"
         id="stop2-1" /></linearGradient><linearGradient
       inkscape:collect="always"
       xlink:href="#linearGradient7-0"
       id="linearGradient9"
       x1="13.978382"
       y1="218.6252"
       x2="39.853786"
       y2="243.47713"
       gradientUnits="userSpaceOnUse" /><linearGradient
       id="linearGradient7-0"
       inkscape:collect="always"><stop
         style="stop-color:#6f6e6f;stop-opacity:1;"
         offset="0"
         id="stop8-6" /><stop
         style="stop-color:#4b4b4b;stop-opacity:1;"
         offset="0.58352816"
         id="stop10-3" /><stop
         style="stop-color:#2a2a2a;stop-opacity:1;"
         offset="0.70758665"
         id="stop11-2" /><stop
         style="stop-color:#6f6e6f;stop-opacity:1;"
         offset="1"
         id="stop9-0" /></linearGradient><radialGradient
       inkscape:collect="always"
       xlink:href="#linearGradient18"
       id="radialGradient11"
       gradientUnits="userSpaceOnUse"
       gradientTransform="matrix(1.7399222,0,0,1.7399222,47.052879,-192.68395)"
       cx="23.321339"
       cy="197.96892"
       fx="23.321339"
       fy="197.96892"
       r="19.310223" /><linearGradient
       id="linearGradient18"
       inkscape:collect="always"><stop
         style="stop-color:#dfdfff;stop-opacity:1;"
         offset="0"
         id="stop12-6" /><stop
         style="stop-color:#bdc1c5;stop-opacity:1;"
         offset="0.34028512"
         id="stop13-1" /><stop
         style="stop-color:#84858b;stop-opacity:1;"
         offset="0.45675543"
         id="stop14-5" /><stop
         style="stop-color:#727281;stop-opacity:1;"
         offset="0.53035229"
         id="stop15-5" /><stop
         style="stop-color:#727576;stop-opacity:1;"
         offset="0.61873716"
         id="stop16-4" /><stop
         style="stop-color:#bcb4ca;stop-opacity:1;"
         offset="0.90824175"
         id="stop17-7" /><stop
         style="stop-color:#b3b6ba;stop-opacity:1;"
         offset="1"
         id="stop18-6" /></linearGradient><linearGradient
       inkscape:collect="always"
       xlink:href="#linearGradient19"
       id="linearGradient20"
       x1="70.692787"
       y1="151.34138"
       x2="102.93512"
       y2="182.38379"
       gradientUnits="userSpaceOnUse" /><linearGradient
       id="linearGradient19"
       inkscape:collect="always"><stop
         style="stop-color:#e9a649;stop-opacity:1"
         offset="0"
         id="stop19-5" /><stop
         style="stop-color:#f2d374;stop-opacity:1"
         offset="0.2150688"
         id="stop23" /><stop
         style="stop-color:#f5d458;stop-opacity:1;"
         offset="0.28361344"
         id="stop25" /><stop
         style="stop-color:#d68d34;stop-opacity:1"
         offset="0.5"
         id="stop21" /><stop
         style="stop-color:#9d6b17;stop-opacity:1;"
         offset="0.625"
         id="stop24" /><stop
         style="stop-color:#8a6825;stop-opacity:1;"
         offset="0.71773702"
         id="stop22" /><stop
         style="stop-color:#8f8cad;stop-opacity:1"
         offset="1"
         id="stop20" /></linearGradient><linearGradient
       inkscape:collect="always"
       xlink:href="#linearGradient25"
       id="linearGradient27"
       x1="98.037575"
       y1="138.76451"
       x2="115.141"
       y2="155.48996"
       gradientUnits="userSpaceOnUse"
       gradientTransform="translate(-1.0596443e-8,-0.2362351)" /><linearGradient
       id="linearGradient25"
       inkscape:collect="always"><stop
         style="stop-color:#d6d7ff;stop-opacity:1;"
         offset="0"
         id="stop26" /><stop
         style="stop-color:#cbccd5;stop-opacity:1;"
         offset="0.10303285"
         id="stop36-6" /><stop
         style="stop-color:#c8c2d2;stop-opacity:1;"
         offset="0.21023951"
         id="stop35-9" /><stop
         style="stop-color:#9b9b9a;stop-opacity:1"
         offset="0.32840538"
         id="stop28" /><stop
         style="stop-color:#686868;stop-opacity:1;"
         offset="0.43417853"
         id="stop29" /><stop
         style="stop-color:#767676;stop-opacity:1"
         offset="0.52145815"
         id="stop30-3" /><stop
         style="stop-color:#929293;stop-opacity:1"
         offset="0.58919686"
         id="stop31" /><stop
         style="stop-color:#a6a6a7;stop-opacity:1"
         offset="0.68212771"
         id="stop32" /><stop
         style="stop-color:#807f7f;stop-opacity:1"
         offset="0.84106386"
         id="stop33" /><stop
         style="stop-color:#696868;stop-opacity:1"
         offset="0.94711173"
         id="stop34-7" /><stop
         style="stop-color:#696868;stop-opacity:1"
         offset="1"
         id="stop27" /></linearGradient><linearGradient
       inkscape:collect="always"
       xlink:href="#linearGradient36"
       id="linearGradient38-4"
       x1="99.958809"
       y1="130.69479"
       x2="122.27581"
       y2="154.08087"
       gradientUnits="userSpaceOnUse"
       gradientTransform="translate(0.06681738,0.13363473)" /><linearGradient
       id="linearGradient36"
       inkscape:collect="always"><stop
         style="stop-color:#c2c2c2;stop-opacity:1;"
         offset="0"
         id="stop37" /><stop
         style="stop-color:#d1d3ea;stop-opacity:1;"
         offset="0.07130131"
         id="stop47" /><stop
         style="stop-color:#b8b7b8;stop-opacity:1;"
         offset="0.17603907"
         id="stop44" /><stop
         style="stop-color:#9b9a9c;stop-opacity:1"
         offset="0.25"
         id="stop41-5" /><stop
         style="stop-color:#7d7c7e;stop-opacity:1"
         offset="0.375"
         id="stop42-2" /><stop
         style="stop-color:#a5a4a7;stop-opacity:1"
         offset="0.5"
         id="stop39-5" /><stop
         style="stop-color:#ded8e8;stop-opacity:1;"
         offset="0.625"
         id="stop43" /><stop
         style="stop-color:#e2e1e5;stop-opacity:1;"
         offset="0.70292795"
         id="stop45" /><stop
         style="stop-color:#99979d;stop-opacity:1;"
         offset="0.85146397"
         id="stop46" /><stop
         style="stop-color:#7d7c7e;stop-opacity:1"
         offset="1"
         id="stop38-4" /></linearGradient><radialGradient
       inkscape:collect="always"
       xlink:href="#linearGradient51"
       id="radialGradient53"
       cx="185.98419"
       cy="103.20739"
       fx="185.98419"
       fy="103.20739"
       r="73.327377"
       gradientUnits="userSpaceOnUse"
       gradientTransform="matrix(1.3917529,0,0,1.3917526,-211.97497,-22.686777)" /><linearGradient
       id="linearGradient51"
       inkscape:collect="always"><stop
         style="stop-color:#e4fbfd;stop-opacity:0.73875803;"
         offset="0"
         id="stop52" /><stop
         style="stop-color:#e2f8fd;stop-opacity:0.71948606;"
         offset="0.2962963"
         id="stop58" /><stop
         style="stop-color:#b5e8f9;stop-opacity:0.73233402;"
         offset="0.47037038"
         id="stop54" /><stop
         style="stop-color:#a4bddf;stop-opacity:0.7044968;"
         offset="0.5625"
         id="stop57" /><stop
         style="stop-color:#6d9fd3;stop-opacity:0.57601714;"
         offset="0.65092593"
         id="stop56" /><stop
         style="stop-color:#88acdf;stop-opacity:0.7044968;"
         offset="0.75"
         id="stop55" /><stop
         style="stop-color:#c4e6fd;stop-opacity:0.75160599;"
         offset="1"
         id="stop53" /></linearGradient><radialGradient
       inkscape:collect="always"
       xlink:href="#linearGradient58"
       id="radialGradient60"
       cx="45.735134"
       cy="125.86607"
       fx="45.735134"
       fy="125.86607"
       r="73.327377"
       gradientUnits="userSpaceOnUse"
       gradientTransform="matrix(0.75257731,0,0,0.75257731,11.31591,31.142123)" /><linearGradient
       id="linearGradient58"
       inkscape:collect="always"><stop
         style="stop-color:#fdfdfd;stop-opacity:1;"
         offset="0"
         id="stop59" /><stop
         style="stop-color:#fdfdfd;stop-opacity:0;"
         offset="1"
         id="stop60" /></linearGradient><radialGradient
       inkscape:collect="always"
       xlink:href="#linearGradient62"
       id="radialGradient63"
       cx="49.088997"
       cy="142.74153"
       fx="49.088997"
       fy="142.74153"
       r="63.130951"
       gradientTransform="matrix(1.4360581,0,0,1.4554465,-21.405654,-64.291931)"
       gradientUnits="userSpaceOnUse" /><linearGradient
       id="linearGradient62"
       inkscape:collect="always"><stop
         style="stop-color:#c8f8fe;stop-opacity:0;"
         offset="0"
         id="stop62" /><stop
         style="stop-color:#d2f9fe;stop-opacity:0;"
         offset="0.30672121"
         id="stop65" /><stop
         style="stop-color:#dcfafe;stop-opacity:0.32941176;"
         offset="0.81996578"
         id="stop64" /><stop
         style="stop-color:#e3f9fe;stop-opacity:0.66381156;"
         offset="1"
         id="stop63" /></linearGradient><radialGradient
       inkscape:collect="always"
       xlink:href="#linearGradient65"
       id="radialGradient67"
       cx="-18.871384"
       cy="56.589523"
       fx="-18.871384"
       fy="56.589523"
       r="23.385406"
       gradientUnits="userSpaceOnUse"
       gradientTransform="translate(3.0238095,-1.5119048)" /><linearGradient
       id="linearGradient65"
       inkscape:collect="always"><stop
         style="stop-color:#c8eafd;stop-opacity:0.70021415;"
         offset="0"
         id="stop66" /><stop
         style="stop-color:#c8eafd;stop-opacity:0.56316918;"
         offset="0.60286009"
         id="stop68" /><stop
         style="stop-color:#c8eafd;stop-opacity:0.21413276;"
         offset="0.89857572"
         id="stop69" /><stop
         style="stop-color:#c8eafd;stop-opacity:0;"
         offset="1"
         id="stop67" /></linearGradient><linearGradient
       inkscape:collect="always"
       xlink:href="#linearGradient47"
       id="linearGradient49"
       x1="89.887199"
       y1="86.178581"
       x2="243.86578"
       y2="84.383194"
       gradientUnits="userSpaceOnUse"
       gradientTransform="translate(0.47247024)" /><linearGradient
       id="linearGradient47"
       inkscape:collect="always"><stop
         style="stop-color:#9596c6;stop-opacity:1"
         offset="0"
         id="stop48" /><stop
         style="stop-color:#6a6b9b;stop-opacity:1"
         offset="0.3725104"
         id="stop50" /><stop
         style="stop-color:#9091c0;stop-opacity:1"
         offset="0.68625522"
         id="stop51" /><stop
         style="stop-color:#676a93;stop-opacity:1"
         offset="1"
         id="stop49" /></linearGradient></defs><sodipodi:namedview
     id="base"
     pagecolor="#ffffff"
     bordercolor="#000000"
     borderopacity="0.3"
     inkscape:pageopacity="0.0"
     inkscape:pageshadow="2"
     inkscape:zoom="0.98994949"
     inkscape:cx="505.07627"
     inkscape:cy="476.792"
     inkscape:document-units="mm"
     inkscape:showpageshadow="2"
     inkscape:pagecheckerboard="0"
     inkscape:deskcolor="#d1d1d1"
     inkscape:current-layer="svg1" /><metadata
     id="metadata1"><rdf:RDF><cc:Work
         rdf:about=""><dc:format>image/svg+xml</dc:format><dc:type
           rdf:resource="http://purl.org/dc/dcmitype/StillImage" /><cc:license
           rdf:resource="http://creativecommons.org/publicdomain/zero/1.0/" /></cc:Work><cc:License
         rdf:about="http://creativecommons.org/publicdomain/zero/1.0/"><cc:permits
           rdf:resource="http://creativecommons.org/ns#Reproduction" /><cc:permits
           rdf:resource="http://creativecommons.org/ns#Distribution" /><cc:permits
           rdf:resource="http://creativecommons.org/ns#DerivativeWorks" /></cc:License></rdf:RDF></metadata><g
     id="g125"
     transform="matrix(1.0736625,0,0,1.0736625,-12.348771,-16.739391)"><g
       id="rect1"
       style="display:inline"
       transform="matrix(0.77318995,0,0,0.77318995,2.2193223,3.1092044)"><g
         id="g80"
         transform="matrix(1.2933433,0,0,1.2933433,-2.8703455,-4.0212685)"><path
           id="rect77"
           style="fill:#444444;fill-opacity:0.233522;stroke-width:5.246;stroke-linecap:square"
           d="M 36.395467,40.935788 123.452,17.248381 c 4.95928,0.258607 7.93605,2.467151 7.43179,7.211528 l 14.38196,4.214244 c 0,0 13.63961,-5.351538 13.67578,2.738697 0.14679,32.826473 0.63486,113.5727 0.65081,117.24436 0.0164,3.77098 -1.06384,6.77412 -5.12258,8.17407 l -85.160124,29.3736 c -2.515178,0.90023 -5.07545,1.34953 -7.716385,0.99219 -15.031178,-1.25015 -30.842158,-6.20416 -34.741683,-16.71382 z"
           sodipodi:nodetypes="ccccssscccc" /><path
           id="path77"
           style="fill:#444444;fill-opacity:0.233522;stroke-width:5.246;stroke-linecap:square"
           d="M 36.395467,40.935788 122.60155,17.626357 c 4.95928,0.258607 7.9833,2.561645 7.47904,7.306022 l 14.5237,4.166997 c 0,0 13.63961,-5.304291 13.67578,2.785944 0.14679,32.826473 0.35138,112.95849 0.36733,116.63015 0.0164,3.77098 -0.54551,5.87241 -4.60286,7.27638 L 69.242819,185.1358 c -2.515178,0.90023 -4.540911,1.54998 -7.181846,1.19264 -12.805607,-1.11525 -26.761151,-3.25357 -35.209405,-15.84519 z"
           sodipodi:nodetypes="ccccssscccc" /><path
           id="path78"
           style="fill:#444444;fill-opacity:0.365348;stroke-width:5.246;stroke-linecap:square"
           d="M 36.395467,40.935788 122.12908,18.713039 c 4.95928,0.258607 7.51083,1.852939 7.00657,6.597316 l 15.3269,4.261491 c 0,0 12.97815,-5.115303 13.01432,2.974932 0.14679,32.826473 -0.0266,112.060792 -0.0106,115.732452 0.0164,3.77098 -0.87511,5.4032 -4.93358,6.80391 l -83.242574,28.72974 c -2.515178,0.90023 -4.540911,1.54998 -7.181846,1.19264 -12.471517,-0.063 -26.104426,-2.35065 -35.256652,-14.52227 z"
           sodipodi:nodetypes="ccccssscccc" /><path
           id="path79"
           style="fill:#121212;fill-opacity:0.233522;stroke-width:5.246;stroke-linecap:square"
           d="M 36.395467,40.935788 121.18414,19.374497 c 4.95928,0.258607 7.51083,1.852939 7.00657,6.597316 l 15.65763,3.978009 c 0,0 12.2222,-4.453844 12.25837,3.636391 0.14679,32.826473 0.0206,110.312647 0.0366,113.984307 0.0164,3.77098 -0.87866,5.39296 -4.93358,6.80391 l -81.683419,28.42264 c -2.515178,0.90023 -4.540911,1.54998 -7.181846,1.19264 -12.719003,-3.28035 -26.792748,-7.21197 -35.492887,-13.50646 z"
           sodipodi:nodetypes="ccccssscccc" /><path
           id="path80"
           style="fill:#1f1f1f;fill-opacity:0.233522;stroke-width:5.246;stroke-linecap:square"
           d="M 36.395467,40.935788 119.71416,21.111749 c 4.95928,0.258607 7.91173,0.115687 7.40747,4.860064 l 15.524,5.514809 c 0,0 11.75448,-5.389288 11.79065,2.700947 0.14679,32.826473 0.35468,108.909481 0.37068,112.581141 0.0164,3.77098 -0.88032,5.38819 -4.93358,6.80391 l -80.514112,28.12196 c -2.515178,0.90023 -4.540911,1.54998 -7.181846,1.19264 -12.719003,-3.28035 -26.625705,-6.10948 -35.325844,-12.40397 z"
           sodipodi:nodetypes="ccccssscccc" /></g><path
         style="color:#000000;fill:#d69564;stroke-linecap:round;stroke-linejoin:round;-inkscape-stroke:none"
         d="m 154.53321,19.855558 c 1.99971,-0.445942 3.16925,0.02302 3.62577,1.277743 l 0.0995,9.879883 c 7.10846,2.520786 14.32994,4.274592 21.52739,4.92645 l 9.69176,-2.15486 c 1.51745,-0.417184 2.67531,0.394202 2.80633,1.909109 l 1.61777,146.112667 -0.18899,7.9375 -120.396876,42.71033 c 0,0 -14.660649,-0.27473 -24.086308,-5.10056 -9.42566,-4.82582 -14.935964,-10.08105 -14.935964,-10.08105 -1.723241,-0.81736 -1.836574,-2.7527 -1.999604,-4.65354 L 21.204334,47.961875 c -0.122092,-1.812791 -0.493327,-3.585693 2.133238,-4.09706 z"
         id="path6" /><path
         id="rect2"
         style="display:inline;fill:url(#linearGradient3);stroke-width:3.946;stroke-linecap:round;stroke-linejoin:round"
         d="M 28.063306,51.850287 151.14092,29.56669 c 7.7713,4.865732 19.17873,6.495162 30.33509,8.652851 L 60.536555,67.886459 C 46.604362,65.027289 34.483949,60.718696 28.063306,51.850287 Z"
         sodipodi:nodetypes="ccccc" /><path
         id="rect7"
         style="fill:url(#linearGradient8);stroke-width:3.946;stroke-linecap:round;stroke-linejoin:round"
         d="m 56.932663,62.224334 c 2.396002,0.356935 4.786982,0.460553 7.184764,0.340445 2.397782,-0.120108 4.802366,-0.463941 7.225578,-1.001905 L 192.01191,34.773811 192.25406,189.45425 72.413713,231.97303 C 57.019548,231.08443 43.9646,225.30475 32.486957,216.22706 L 21.072171,44.790182 c 11.601028,9.933858 20.467456,15.141032 35.860492,17.434152 z"
         sodipodi:nodetypes="ssscccccs" /><g
         id="g19"><path
           id="rect15"
           style="fill:url(#linearGradient17);stroke-width:3.946;stroke-linecap:round;stroke-linejoin:round"
           d="m 24.462494,80.835315 c 12.97745,10.613488 28.644409,12.943771 42.911758,13.847719 V 109.89658 C 53.50844,112.48454 38.210288,107.5306 25.732025,98.554508 Z"
           sodipodi:nodetypes="ccccc" /><path
           id="rect19"
           style="fill:#edbf5b;stroke-width:3.946;stroke-linecap:round;stroke-linejoin:round"
           d="m 24.473959,81.028641 c 13.507829,8.840225 28.03806,13.271342 43.561753,13.418155 l 0.330729,2.267859 C 52.325457,96.213942 37.372219,92.673702 24.473959,83.249253 Z"
           sodipodi:nodetypes="ccccc" /><path
           id="path19"
           style="fill:#edbf5b;stroke-width:3.946;stroke-linecap:round;stroke-linejoin:round"
           d="m 25.418899,96.28943 c 13.507829,8.84022 28.03806,13.27134 43.561753,13.41815 l 0.330729,2.26786 C 53.270397,111.47473 38.317159,107.93449 25.418899,98.510042 Z"
           sodipodi:nodetypes="ccccc" /></g><g
         id="g29"
         style="display:inline"
         transform="translate(5.6126602,93.410699)"><path
           id="path27"
           style="fill:url(#linearGradient29);stroke-width:3.946;stroke-linecap:round;stroke-linejoin:round"
           d="m 24.462494,79.843127 c 12.97745,10.613488 28.644409,13.935959 42.911758,14.839907 V 109.89658 C 53.50844,112.48454 38.210288,106.53841 25.732025,97.56232 Z"
           sodipodi:nodetypes="ccccc" /><path
           id="path28"
           style="fill:#edbf5b;stroke-width:3.946;stroke-linecap:round;stroke-linejoin:round"
           d="m 24.473959,80.036453 c 13.507829,8.840225 28.03806,14.26353 43.561753,14.410343 l 0.330729,2.267859 C 52.325457,96.213942 37.372219,91.681514 24.473959,82.257065 Z"
           sodipodi:nodetypes="ccccc" /><path
           id="path29"
           style="fill:#edbf5b;stroke-width:3.946;stroke-linecap:round;stroke-linejoin:round"
           d="m 25.418899,95.297242 c 13.507829,8.840218 28.03806,14.263528 43.561753,14.410338 l 0.330729,2.26786 C 53.270397,111.47473 38.317159,106.9423 25.418899,97.517854 Z"
           sodipodi:nodetypes="ccccc" /></g><path
         d="M 69.581582,71.905037 70.92723,61.548699 191.59613,34.759637 191.83828,189.44007 77.610598,232.22612"
         style="display:inline;fill:url(#linearGradient41);stroke-width:3.946;stroke-linecap:round;stroke-linejoin:round"
         id="path39"
         sodipodi:nodetypes="ccccc" /><path
         d="m 63.701652,62.550604 c 2.397782,-0.120107 4.802367,-0.46394 7.225578,-1.001905 l 120.6689,-26.789062 0.24215,154.680433 -119.840342,42.51878"
         style="display:inline;fill:url(#linearGradient30);stroke-width:3.946;stroke-linecap:round;stroke-linejoin:round"
         id="path1" /><path
         id="rect39"
         style="display:inline;fill:#f2f2f2;stroke:#f2ce6c;stroke-width:5.246;stroke-linecap:square"
         d="M 94.693519,85.854963 157.61608,69.358628 158.56102,93.549102 96.383931,113.58184 Z"
         sodipodi:nodetypes="ccccc" /><path
         style="color:#000000;display:inline;fill:#be652d;stroke-linecap:round;stroke-linejoin:round;-inkscape-stroke:none"
         d="m 155.89258,17.710937 c -0.58191,-0.0016 -1.17756,0.08238 -1.78906,0.21875 l 0.0742,-0.01563 -131.195308,24.009766 a 1.9731973,1.9731973 0 0 0 -0.02148,0.0039 c -1.750218,0.340751 -3.205552,1.577881 -3.611328,2.929688 -0.405775,1.351807 -0.168215,2.420677 -0.113281,3.236328 L 30.326167,212.75194 a 1.9731973,1.9731973 0 0 0 0.002,0.0352 c 0.07997,0.9324 0.132389,2.01554 0.501953,3.16797 0.369564,1.15243 1.225914,2.4397 2.617188,3.09961 l -0.515625,-0.35352 c 0,0 5.733239,5.45974 15.398437,10.4082 10.137332,5.1902 24.949219,5.31836 24.949219,5.31836 a 1.9731973,1.9731973 0 0 0 0.695312,-0.11328 L 194.37305,191.60352 a 1.9731973,1.9731973 0 0 0 1.3125,-1.8125 l 0.18945,-7.9375 a 1.9731973,1.9731973 0 0 0 0,-0.0684 L 194.25781,35.671875 a 1.9731973,1.9731973 0 0 0 -0.008,-0.148438 c -0.10589,-1.2244 -0.7006,-2.42666 -1.73242,-3.134765 -1.03182,-0.708106 -2.36485,-0.835123 -3.5625,-0.50586 l 0.0937,-0.02344 -9.33399,2.074219 c -6.48544,-0.610741 -13.0192,-2.190827 -19.4978,-4.396482 l -0.084,-8.423828 a 1.9731973,1.9731973 0 0 0 -0.11914,-0.654297 c -0.38635,-1.061867 -1.29978,-2.051149 -2.41406,-2.457031 -0.55714,-0.202941 -1.12512,-0.289415 -1.70703,-0.291016 z m 0.29883,4.003907 0.0937,9.318359 a 1.9731973,1.9731973 0 0 0 1.31445,1.839844 c 7.23348,2.56512 14.61183,4.361412 22.00781,5.03125 a 1.9731973,1.9731973 0 0 0 0.60742,-0.03906 L 189.9062,35.71094 A 1.9731973,1.9731973 0 0 0 190,35.6875 c 0.3198,-0.08792 0.32593,-0.01889 0.28516,-0.04687 -0.0326,-0.02235 0.003,0.04089 0.0273,0.177734 l 1.61523,145.976556 -0.15429,6.54297 -118.720706,42.11719 C 72.545743,230.43897 58.685866,229.97872 50.128906,225.59766 40.942803,220.89449 35.65625,215.8457 35.65625,215.8457 a 1.9731973,1.9731973 0 0 0 -0.517578,-0.35547 c -0.331966,-0.15745 -0.392111,-0.24544 -0.550781,-0.74023 -0.15867,-0.49479 -0.245065,-1.33039 -0.328125,-2.29883 L 23.173828,47.830078 c -0.06716,-0.997138 -0.07769,-1.722209 -0.04297,-1.837891 0.03472,-0.115681 -0.292359,-0.02079 0.583985,-0.191406 L 154.88867,21.796875 a 1.9731973,1.9731973 0 0 0 0.0742,-0.01563 c 0.74132,-0.165316 1.11815,-0.09879 1.22852,-0.06641 z"
         id="path7" /></g><g
       id="g98"
       style="display:inline"
       transform="matrix(0.77318995,0,0,0.77318995,44.552656,17.850276)"><g
         id="g85"
         transform="matrix(1.2933433,0,0,1.2933433,-2.8703455,-4.0212685)"><path
           id="path81"
           style="fill:#444444;fill-opacity:0.233522;stroke-width:5.246;stroke-linecap:square"
           d="M 36.395467,40.935788 123.452,17.248381 c 4.95928,0.258607 7.93605,2.467151 7.43179,7.211528 l 14.38196,4.214244 c 0,0 13.63961,-5.351538 13.67578,2.738697 0.14679,32.826473 0.63486,113.5727 0.65081,117.24436 0.0164,3.77098 -1.06384,6.77412 -5.12258,8.17407 l -85.160124,29.3736 c -2.515178,0.90023 -5.07545,1.34953 -7.716385,0.99219 -15.031178,-1.25015 -30.842158,-6.20416 -34.741683,-16.71382 z"
           sodipodi:nodetypes="ccccssscccc" /><path
           id="path82"
           style="fill:#444444;fill-opacity:0.233522;stroke-width:5.246;stroke-linecap:square"
           d="M 36.395467,40.935788 122.60155,17.626357 c 4.95928,0.258607 7.9833,2.561645 7.47904,7.306022 l 14.5237,4.166997 c 0,0 13.63961,-5.304291 13.67578,2.785944 0.14679,32.826473 0.35138,112.95849 0.36733,116.63015 0.0164,3.77098 -0.54551,5.87241 -4.60286,7.27638 L 69.242819,185.1358 c -2.515178,0.90023 -4.540911,1.54998 -7.181846,1.19264 -12.805607,-1.11525 -26.761151,-3.25357 -35.209405,-15.84519 z"
           sodipodi:nodetypes="ccccssscccc" /><path
           id="path83"
           style="fill:#444444;fill-opacity:0.365348;stroke-width:5.246;stroke-linecap:square"
           d="M 36.395467,40.935788 122.12908,18.713039 c 4.95928,0.258607 7.51083,1.852939 7.00657,6.597316 l 15.3269,4.261491 c 0,0 12.97815,-5.115303 13.01432,2.974932 0.14679,32.826473 -0.0266,112.060792 -0.0106,115.732452 0.0164,3.77098 -0.87511,5.4032 -4.93358,6.80391 l -83.242574,28.72974 c -2.515178,0.90023 -4.540911,1.54998 -7.181846,1.19264 -12.471517,-0.063 -26.104426,-2.35065 -35.256652,-14.52227 z"
           sodipodi:nodetypes="ccccssscccc" /><path
           id="path84"
           style="fill:#121212;fill-opacity:0.233522;stroke-width:5.246;stroke-linecap:square"
           d="M 36.395467,40.935788 121.18414,19.374497 c 4.95928,0.258607 7.51083,1.852939 7.00657,6.597316 l 15.65763,3.978009 c 0,0 12.2222,-4.453844 12.25837,3.636391 0.14679,32.826473 0.0206,110.312647 0.0366,113.984307 0.0164,3.77098 -0.87866,5.39296 -4.93358,6.80391 l -81.683419,28.42264 c -2.515178,0.90023 -4.540911,1.54998 -7.181846,1.19264 -12.719003,-3.28035 -26.792748,-7.21197 -35.492887,-13.50646 z"
           sodipodi:nodetypes="ccccssscccc" /><path
           id="path85"
           style="fill:#1f1f1f;fill-opacity:0.233522;stroke-width:5.246;stroke-linecap:square"
           d="M 36.395467,40.935788 119.71416,21.111749 c 4.95928,0.258607 7.91173,0.115687 7.40747,4.860064 l 15.524,5.514809 c 0,0 11.75448,-5.389288 11.79065,2.700947 0.14679,32.826473 0.35468,108.909481 0.37068,112.581141 0.0164,3.77098 -0.88032,5.38819 -4.93358,6.80391 l -80.514112,28.12196 c -2.515178,0.90023 -4.540911,1.54998 -7.181846,1.19264 -12.719003,-3.28035 -26.625705,-6.10948 -35.325844,-12.40397 z"
           sodipodi:nodetypes="ccccssscccc" /></g><path
         style="color:#000000;fill:#d69564;stroke-linecap:round;stroke-linejoin:round;-inkscape-stroke:none"
         d="m 154.53321,19.855558 c 1.99971,-0.445942 3.16925,0.02302 3.62577,1.277743 l 0.0995,9.879883 c 7.10846,2.520786 14.32994,4.274592 21.52739,4.92645 l 9.69176,-2.15486 c 1.51745,-0.417184 2.67531,0.394202 2.80633,1.909109 l 1.61777,146.112667 -0.18899,7.9375 -120.396876,42.71033 c 0,0 -14.660649,-0.27473 -24.086308,-5.10056 -9.42566,-4.82582 -14.935964,-10.08105 -14.935964,-10.08105 -1.723241,-0.81736 -1.836574,-2.7527 -1.999604,-4.65354 L 21.204334,47.961875 c -0.122092,-1.812791 -0.493327,-3.585693 2.133238,-4.09706 z"
         id="path86" /><path
         id="path87"
         style="display:inline;fill:url(#linearGradient98);stroke-width:3.946;stroke-linecap:round;stroke-linejoin:round"
         d="M 28.063306,51.850287 151.14092,29.56669 c 7.7713,4.865732 19.17873,6.495162 30.33509,8.652851 L 60.536555,67.886459 C 46.604362,65.027289 34.483949,60.718696 28.063306,51.850287 Z"
         sodipodi:nodetypes="ccccc" /><path
         id="path88"
         style="fill:url(#linearGradient99);stroke-width:3.946;stroke-linecap:round;stroke-linejoin:round"
         d="m 56.932663,62.224334 c 2.396002,0.356935 4.786982,0.460553 7.184764,0.340445 2.397782,-0.120108 4.802366,-0.463941 7.225578,-1.001905 L 192.01191,34.773811 192.25406,189.45425 72.413713,231.97303 C 57.019548,231.08443 43.9646,225.30475 32.486957,216.22706 L 21.072171,44.790182 c 11.601028,9.933858 20.467456,15.141032 35.860492,17.434152 z"
         sodipodi:nodetypes="ssscccccs" /><g
         id="g91"><path
           id="path89"
           style="fill:url(#linearGradient100);stroke-width:3.946;stroke-linecap:round;stroke-linejoin:round"
           d="m 24.462494,80.835315 c 12.97745,10.613488 28.644409,12.943771 42.911758,13.847719 V 109.89658 C 53.50844,112.48454 38.210288,107.5306 25.732025,98.554508 Z"
           sodipodi:nodetypes="ccccc" /><path
           id="path90"
           style="fill:#edbf5b;stroke-width:3.946;stroke-linecap:round;stroke-linejoin:round"
           d="m 24.473959,81.028641 c 13.507829,8.840225 28.03806,13.271342 43.561753,13.418155 l 0.330729,2.267859 C 52.325457,96.213942 37.372219,92.673702 24.473959,83.249253 Z"
           sodipodi:nodetypes="ccccc" /><path
           id="path91"
           style="fill:#edbf5b;stroke-width:3.946;stroke-linecap:round;stroke-linejoin:round"
           d="m 25.418899,96.28943 c 13.507829,8.84022 28.03806,13.27134 43.561753,13.41815 l 0.330729,2.26786 C 53.270397,111.47473 38.317159,107.93449 25.418899,98.510042 Z"
           sodipodi:nodetypes="ccccc" /></g><g
         id="g94"
         style="display:inline"
         transform="translate(5.6126602,93.410699)"><path
           id="path92"
           style="fill:url(#linearGradient101);stroke-width:3.946;stroke-linecap:round;stroke-linejoin:round"
           d="m 24.462494,79.843127 c 12.97745,10.613488 28.644409,13.935959 42.911758,14.839907 V 109.89658 C 53.50844,112.48454 38.210288,106.53841 25.732025,97.56232 Z"
           sodipodi:nodetypes="ccccc" /><path
           id="path93"
           style="fill:#edbf5b;stroke-width:3.946;stroke-linecap:round;stroke-linejoin:round"
           d="m 24.473959,80.036453 c 13.507829,8.840225 28.03806,14.26353 43.561753,14.410343 l 0.330729,2.267859 C 52.325457,96.213942 37.372219,91.681514 24.473959,82.257065 Z"
           sodipodi:nodetypes="ccccc" /><path
           id="path94"
           style="fill:#edbf5b;stroke-width:3.946;stroke-linecap:round;stroke-linejoin:round"
           d="m 25.418899,95.297242 c 13.507829,8.840218 28.03806,14.263528 43.561753,14.410338 l 0.330729,2.26786 C 53.270397,111.47473 38.317159,106.9423 25.418899,97.517854 Z"
           sodipodi:nodetypes="ccccc" /></g><path
         d="M 69.581582,71.905037 70.92723,61.548699 191.59613,34.759637 191.83828,189.44007 77.610598,232.22612"
         style="display:inline;fill:url(#linearGradient102);stroke-width:3.946;stroke-linecap:round;stroke-linejoin:round"
         id="path95"
         sodipodi:nodetypes="ccccc" /><path
         d="m 63.701652,62.550604 c 2.397782,-0.120107 4.802367,-0.46394 7.225578,-1.001905 l 120.6689,-26.789062 0.24215,154.680433 -119.840342,42.51878"
         style="display:inline;fill:url(#linearGradient103);stroke-width:3.946;stroke-linecap:round;stroke-linejoin:round"
         id="path96" /><path
         id="path97"
         style="display:inline;fill:#f2f2f2;stroke:#f2ce6c;stroke-width:5.246;stroke-linecap:square"
         d="M 94.693519,85.854963 157.61608,69.358628 158.56102,93.549102 96.383931,113.58184 Z"
         sodipodi:nodetypes="ccccc" /><path
         style="color:#000000;display:inline;fill:#be652d;stroke-linecap:round;stroke-linejoin:round;-inkscape-stroke:none"
         d="m 155.89258,17.710937 c -0.58191,-0.0016 -1.17756,0.08238 -1.78906,0.21875 l 0.0742,-0.01563 -131.195308,24.009766 a 1.9731973,1.9731973 0 0 0 -0.02148,0.0039 c -1.750218,0.340751 -3.205552,1.577881 -3.611328,2.929688 -0.405775,1.351807 -0.168215,2.420677 -0.113281,3.236328 L 30.326167,212.75194 a 1.9731973,1.9731973 0 0 0 0.002,0.0352 c 0.07997,0.9324 0.132389,2.01554 0.501953,3.16797 0.369564,1.15243 1.225914,2.4397 2.617188,3.09961 l -0.515625,-0.35352 c 0,0 5.733239,5.45974 15.398437,10.4082 10.137332,5.1902 24.949219,5.31836 24.949219,5.31836 a 1.9731973,1.9731973 0 0 0 0.695312,-0.11328 L 194.37305,191.60352 a 1.9731973,1.9731973 0 0 0 1.3125,-1.8125 l 0.18945,-7.9375 a 1.9731973,1.9731973 0 0 0 0,-0.0684 L 194.25781,35.671875 a 1.9731973,1.9731973 0 0 0 -0.008,-0.148438 c -0.10589,-1.2244 -0.7006,-2.42666 -1.73242,-3.134765 -1.03182,-0.708106 -2.36485,-0.835123 -3.5625,-0.50586 l 0.0937,-0.02344 -9.33399,2.074219 c -6.48544,-0.610741 -13.0192,-2.190827 -19.4978,-4.396482 l -0.084,-8.423828 a 1.9731973,1.9731973 0 0 0 -0.11914,-0.654297 c -0.38635,-1.061867 -1.29978,-2.051149 -2.41406,-2.457031 -0.55714,-0.202941 -1.12512,-0.289415 -1.70703,-0.291016 z m 0.29883,4.003907 0.0937,9.318359 a 1.9731973,1.9731973 0 0 0 1.31445,1.839844 c 7.23348,2.56512 14.61183,4.361412 22.00781,5.03125 a 1.9731973,1.9731973 0 0 0 0.60742,-0.03906 L 189.9062,35.71094 A 1.9731973,1.9731973 0 0 0 190,35.6875 c 0.3198,-0.08792 0.32593,-0.01889 0.28516,-0.04687 -0.0326,-0.02235 0.003,0.04089 0.0273,0.177734 l 1.61523,145.976556 -0.15429,6.54297 -118.720706,42.11719 C 72.545743,230.43897 58.685866,229.97872 50.128906,225.59766 40.942803,220.89449 35.65625,215.8457 35.65625,215.8457 a 1.9731973,1.9731973 0 0 0 -0.517578,-0.35547 c -0.331966,-0.15745 -0.392111,-0.24544 -0.550781,-0.74023 -0.15867,-0.49479 -0.245065,-1.33039 -0.328125,-2.29883 L 23.173828,47.830078 c -0.06716,-0.997138 -0.07769,-1.722209 -0.04297,-1.837891 0.03472,-0.115681 -0.292359,-0.02079 0.583985,-0.191406 L 154.88867,21.796875 a 1.9731973,1.9731973 0 0 0 0.0742,-0.01563 c 0.74132,-0.165316 1.11815,-0.09879 1.22852,-0.06641 z"
         id="path98" /></g><g
       id="g120"
       style="display:inline"
       transform="matrix(0.77318995,0,0,0.77318995,85.374085,32.969324)"><g
         id="g107"
         transform="matrix(1.2933433,0,0,1.2933433,-2.8703455,-4.0212685)"><path
           id="path103"
           style="fill:#444444;fill-opacity:0.233522;stroke-width:5.246;stroke-linecap:square"
           d="M 36.395467,40.935788 123.452,17.248381 c 4.95928,0.258607 7.93605,2.467151 7.43179,7.211528 l 14.38196,4.214244 c 0,0 13.63961,-5.351538 13.67578,2.738697 0.14679,32.826473 0.63486,113.5727 0.65081,117.24436 0.0164,3.77098 -1.06384,6.77412 -5.12258,8.17407 l -85.160124,29.3736 c -2.515178,0.90023 -5.07545,1.34953 -7.716385,0.99219 -15.031178,-1.25015 -30.842158,-6.20416 -34.741683,-16.71382 z"
           sodipodi:nodetypes="ccccssscccc" /><path
           id="path104"
           style="fill:#444444;fill-opacity:0.233522;stroke-width:5.246;stroke-linecap:square"
           d="M 36.395467,40.935788 122.60155,17.626357 c 4.95928,0.258607 7.9833,2.561645 7.47904,7.306022 l 14.5237,4.166997 c 0,0 13.63961,-5.304291 13.67578,2.785944 0.14679,32.826473 0.35138,112.95849 0.36733,116.63015 0.0164,3.77098 -0.54551,5.87241 -4.60286,7.27638 L 69.242819,185.1358 c -2.515178,0.90023 -4.540911,1.54998 -7.181846,1.19264 -12.805607,-1.11525 -26.761151,-3.25357 -35.209405,-15.84519 z"
           sodipodi:nodetypes="ccccssscccc" /><path
           id="path105"
           style="fill:#444444;fill-opacity:0.365348;stroke-width:5.246;stroke-linecap:square"
           d="M 36.395467,40.935788 122.12908,18.713039 c 4.95928,0.258607 7.51083,1.852939 7.00657,6.597316 l 15.3269,4.261491 c 0,0 12.97815,-5.115303 13.01432,2.974932 0.14679,32.826473 -0.0266,112.060792 -0.0106,115.732452 0.0164,3.77098 -0.87511,5.4032 -4.93358,6.80391 l -83.242574,28.72974 c -2.515178,0.90023 -4.540911,1.54998 -7.181846,1.19264 -12.471517,-0.063 -26.104426,-2.35065 -35.256652,-14.52227 z"
           sodipodi:nodetypes="ccccssscccc" /><path
           id="path106"
           style="fill:#121212;fill-opacity:0.233522;stroke-width:5.246;stroke-linecap:square"
           d="M 36.395467,40.935788 121.18414,19.374497 c 4.95928,0.258607 7.51083,1.852939 7.00657,6.597316 l 15.65763,3.978009 c 0,0 12.2222,-4.453844 12.25837,3.636391 0.14679,32.826473 0.0206,110.312647 0.0366,113.984307 0.0164,3.77098 -0.87866,5.39296 -4.93358,6.80391 l -81.683419,28.42264 c -2.515178,0.90023 -4.540911,1.54998 -7.181846,1.19264 -12.719003,-3.28035 -26.792748,-7.21197 -35.492887,-13.50646 z"
           sodipodi:nodetypes="ccccssscccc" /><path
           id="path107"
           style="fill:#1f1f1f;fill-opacity:0.233522;stroke-width:5.246;stroke-linecap:square"
           d="M 36.395467,40.935788 119.71416,21.111749 c 4.95928,0.258607 7.91173,0.115687 7.40747,4.860064 l 15.524,5.514809 c 0,0 11.75448,-5.389288 11.79065,2.700947 0.14679,32.826473 0.35468,108.909481 0.37068,112.581141 0.0164,3.77098 -0.88032,5.38819 -4.93358,6.80391 l -80.514112,28.12196 c -2.515178,0.90023 -4.540911,1.54998 -7.181846,1.19264 -12.719003,-3.28035 -26.625705,-6.10948 -35.325844,-12.40397 z"
           sodipodi:nodetypes="ccccssscccc" /></g><path
         style="color:#000000;fill:#d69564;stroke-linecap:round;stroke-linejoin:round;-inkscape-stroke:none"
         d="m 154.53321,19.855558 c 1.99971,-0.445942 3.16925,0.02302 3.62577,1.277743 l 0.0995,9.879883 c 7.10846,2.520786 14.32994,4.274592 21.52739,4.92645 l 9.69176,-2.15486 c 1.51745,-0.417184 2.67531,0.394202 2.80633,1.909109 l 1.61777,146.112667 -0.18899,7.9375 -120.396876,42.71033 c 0,0 -14.660649,-0.27473 -24.086308,-5.10056 -9.42566,-4.82582 -14.935964,-10.08105 -14.935964,-10.08105 -1.723241,-0.81736 -1.836574,-2.7527 -1.999604,-4.65354 L 21.204334,47.961875 c -0.122092,-1.812791 -0.493327,-3.585693 2.133238,-4.09706 z"
         id="path108" /><path
         id="path109"
         style="display:inline;fill:url(#linearGradient120);stroke-width:3.946;stroke-linecap:round;stroke-linejoin:round"
         d="M 28.063306,51.850287 151.14092,29.56669 c 7.7713,4.865732 19.17873,6.495162 30.33509,8.652851 L 60.536555,67.886459 C 46.604362,65.027289 34.483949,60.718696 28.063306,51.850287 Z"
         sodipodi:nodetypes="ccccc" /><path
         id="path110"
         style="fill:url(#linearGradient121);stroke-width:3.946;stroke-linecap:round;stroke-linejoin:round"
         d="m 56.932663,62.224334 c 2.396002,0.356935 4.786982,0.460553 7.184764,0.340445 2.397782,-0.120108 4.802366,-0.463941 7.225578,-1.001905 L 192.01191,34.773811 192.25406,189.45425 72.413713,231.97303 C 57.019548,231.08443 43.9646,225.30475 32.486957,216.22706 L 21.072171,44.790182 c 11.601028,9.933858 20.467456,15.141032 35.860492,17.434152 z"
         sodipodi:nodetypes="ssscccccs" /><g
         id="g113"><path
           id="path111"
           style="fill:url(#linearGradient122);stroke-width:3.946;stroke-linecap:round;stroke-linejoin:round"
           d="m 24.462494,80.835315 c 12.97745,10.613488 28.644409,12.943771 42.911758,13.847719 V 109.89658 C 53.50844,112.48454 38.210288,107.5306 25.732025,98.554508 Z"
           sodipodi:nodetypes="ccccc" /><path
           id="path112"
           style="fill:#edbf5b;stroke-width:3.946;stroke-linecap:round;stroke-linejoin:round"
           d="m 24.473959,81.028641 c 13.507829,8.840225 28.03806,13.271342 43.561753,13.418155 l 0.330729,2.267859 C 52.325457,96.213942 37.372219,92.673702 24.473959,83.249253 Z"
           sodipodi:nodetypes="ccccc" /><path
           id="path113"
           style="fill:#edbf5b;stroke-width:3.946;stroke-linecap:round;stroke-linejoin:round"
           d="m 25.418899,96.28943 c 13.507829,8.84022 28.03806,13.27134 43.561753,13.41815 l 0.330729,2.26786 C 53.270397,111.47473 38.317159,107.93449 25.418899,98.510042 Z"
           sodipodi:nodetypes="ccccc" /></g><g
         id="g116"
         style="display:inline"
         transform="translate(5.6126602,93.410699)"><path
           id="path114"
           style="fill:url(#linearGradient123);stroke-width:3.946;stroke-linecap:round;stroke-linejoin:round"
           d="m 24.462494,79.843127 c 12.97745,10.613488 28.644409,13.935959 42.911758,14.839907 V 109.89658 C 53.50844,112.48454 38.210288,106.53841 25.732025,97.56232 Z"
           sodipodi:nodetypes="ccccc" /><path
           id="path115"
           style="fill:#edbf5b;stroke-width:3.946;stroke-linecap:round;stroke-linejoin:round"
           d="m 24.473959,80.036453 c 13.507829,8.840225 28.03806,14.26353 43.561753,14.410343 l 0.330729,2.267859 C 52.325457,96.213942 37.372219,91.681514 24.473959,82.257065 Z"
           sodipodi:nodetypes="ccccc" /><path
           id="path116"
           style="fill:#edbf5b;stroke-width:3.946;stroke-linecap:round;stroke-linejoin:round"
           d="m 25.418899,95.297242 c 13.507829,8.840218 28.03806,14.263528 43.561753,14.410338 l 0.330729,2.26786 C 53.270397,111.47473 38.317159,106.9423 25.418899,97.517854 Z"
           sodipodi:nodetypes="ccccc" /></g><path
         d="M 69.581582,71.905037 70.92723,61.548699 191.59613,34.759637 191.83828,189.44007 77.610598,232.22612"
         style="display:inline;fill:url(#linearGradient124);stroke-width:3.946;stroke-linecap:round;stroke-linejoin:round"
         id="path117"
         sodipodi:nodetypes="ccccc" /><path
         d="m 63.701652,62.550604 c 2.397782,-0.120107 4.802367,-0.46394 7.225578,-1.001905 l 120.6689,-26.789062 0.24215,154.680433 -119.840342,42.51878"
         style="display:inline;fill:url(#linearGradient125);stroke-width:3.946;stroke-linecap:round;stroke-linejoin:round"
         id="path118" /><path
         id="path119"
         style="display:inline;fill:#f2f2f2;stroke:#f2ce6c;stroke-width:5.246;stroke-linecap:square"
         d="M 94.693519,85.854963 157.61608,69.358628 158.56102,93.549102 96.383931,113.58184 Z"
         sodipodi:nodetypes="ccccc" /><path
         style="color:#000000;display:inline;fill:#be652d;stroke-linecap:round;stroke-linejoin:round;-inkscape-stroke:none"
         d="m 155.89258,17.710937 c -0.58191,-0.0016 -1.17756,0.08238 -1.78906,0.21875 l 0.0742,-0.01563 -131.195308,24.009766 a 1.9731973,1.9731973 0 0 0 -0.02148,0.0039 c -1.750218,0.340751 -3.205552,1.577881 -3.611328,2.929688 -0.405775,1.351807 -0.168215,2.420677 -0.113281,3.236328 L 30.326167,212.75194 a 1.9731973,1.9731973 0 0 0 0.002,0.0352 c 0.07997,0.9324 0.132389,2.01554 0.501953,3.16797 0.369564,1.15243 1.225914,2.4397 2.617188,3.09961 l -0.515625,-0.35352 c 0,0 5.733239,5.45974 15.398437,10.4082 10.137332,5.1902 24.949219,5.31836 24.949219,5.31836 a 1.9731973,1.9731973 0 0 0 0.695312,-0.11328 L 194.37305,191.60352 a 1.9731973,1.9731973 0 0 0 1.3125,-1.8125 l 0.18945,-7.9375 a 1.9731973,1.9731973 0 0 0 0,-0.0684 L 194.25781,35.671875 a 1.9731973,1.9731973 0 0 0 -0.008,-0.148438 c -0.10589,-1.2244 -0.7006,-2.42666 -1.73242,-3.134765 -1.03182,-0.708106 -2.36485,-0.835123 -3.5625,-0.50586 l 0.0937,-0.02344 -9.33399,2.074219 c -6.48544,-0.610741 -13.0192,-2.190827 -19.4978,-4.396482 l -0.084,-8.423828 a 1.9731973,1.9731973 0 0 0 -0.11914,-0.654297 c -0.38635,-1.061867 -1.29978,-2.051149 -2.41406,-2.457031 -0.55714,-0.202941 -1.12512,-0.289415 -1.70703,-0.291016 z m 0.29883,4.003907 0.0937,9.318359 a 1.9731973,1.9731973 0 0 0 1.31445,1.839844 c 7.23348,2.56512 14.61183,4.361412 22.00781,5.03125 a 1.9731973,1.9731973 0 0 0 0.60742,-0.03906 L 189.9062,35.71094 A 1.9731973,1.9731973 0 0 0 190,35.6875 c 0.3198,-0.08792 0.32593,-0.01889 0.28516,-0.04687 -0.0326,-0.02235 0.003,0.04089 0.0273,0.177734 l 1.61523,145.976556 -0.15429,6.54297 -118.720706,42.11719 C 72.545743,230.43897 58.685866,229.97872 50.128906,225.59766 40.942803,220.89449 35.65625,215.8457 35.65625,215.8457 a 1.9731973,1.9731973 0 0 0 -0.517578,-0.35547 c -0.331966,-0.15745 -0.392111,-0.24544 -0.550781,-0.74023 -0.15867,-0.49479 -0.245065,-1.33039 -0.328125,-2.29883 L 23.173828,47.830078 c -0.06716,-0.997138 -0.07769,-1.722209 -0.04297,-1.837891 0.03472,-0.115681 -0.292359,-0.02079 0.583985,-0.191406 L 154.88867,21.796875 a 1.9731973,1.9731973 0 0 0 0.0742,-0.01563 c 0.74132,-0.165316 1.11815,-0.09879 1.22852,-0.06641 z"
         id="path120" /></g><g
       id="g70"
       transform="matrix(0.80538508,0,0,0.80538508,9.8414536,55.899613)"
       style="display:inline"><g
         id="g18"
         style="display:inline"><circle
           style="display:inline;fill:url(#radialGradient2);stroke-width:4.1661;stroke-linecap:round;stroke-linejoin:round;stroke-opacity:0.274436"
           id="path1-7"
           cx="31.003265"
           cy="225.57549"
           r="18.708864" /><path
           id="rect7-4"
           style="fill:url(#linearGradient9);stroke-width:4.30001;stroke-linecap:round;stroke-linejoin:round;stroke-opacity:0.274436"
           d="m 14.828829,216.43089 26.253381,25.41059 c -1.408661,0.94012 -3.130003,1.57324 -5.03458,1.84558 l -23.108682,-22.4935 c 0.194721,-1.78844 0.876907,-3.35189 1.889881,-4.76267 z"
           sodipodi:nodetypes="ccccc" /><circle
           style="display:inline;fill:url(#radialGradient11);stroke-width:4.1661;stroke-linecap:round;stroke-linejoin:round;stroke-opacity:0.274436"
           id="circle11"
           cx="94.880684"
           cy="158.7581"
           r="18.708864" /><path
           id="rect18"
           style="display:inline;fill:url(#linearGradient20);stroke-width:4.30001;stroke-linecap:round;stroke-linejoin:round;stroke-opacity:0.274436"
           d="m 80.031706,141.73113 c 1.470497,-1.51641 2.634147,-1.24352 3.645887,-0.25916 l 29.110147,28.32246 c 1.74782,1.70053 0.97627,2.99328 -0.0628,4.05699 l -67.322564,69.39725 c -0.973737,0.94911 -2.213484,1.25524 -3.407687,0.13363 L 12.652454,214.81619 c -0.786607,-0.6004 -1.221383,-2.34271 -0.09079,-3.5086 z"
           sodipodi:nodetypes="sssscccss" /><path
           id="rect25"
           style="fill:url(#linearGradient27);stroke-width:4.30001;stroke-linecap:round;stroke-linejoin:round;stroke-opacity:0.274436"
           d="m 96.383927,140.13468 3.212797,-3.16555 17.670386,16.72544 -3.87426,3.77977 z"
           sodipodi:nodetypes="ccccc" /><path
           id="rect36"
           style="fill:url(#linearGradient38-4);stroke-width:4.30001;stroke-linecap:round;stroke-linejoin:round;stroke-opacity:0.274436"
           d="m 102.76514,127.48755 c 6.08054,9.29863 14.41164,16.628 23.31927,23.45291 l -3.83962,3.97395 c -1.87686,1.94253 -3.55503,1.41365 -4.91345,0.0685 L 98.522233,136.35756 c -1.310004,-1.2972 -1.503965,-2.86191 -0.167042,-4.2596 z"
           sodipodi:nodetypes="ccssssc" /></g><g
         id="g51"><g
           id="g60"
           transform="translate(151.94643,-5.6696429)"><circle
             style="fill:url(#radialGradient53);stroke:none;stroke-width:7.2;stroke-linecap:round;stroke-linejoin:round;stroke-dasharray:none;stroke-opacity:1"
             id="path51"
             cx="14.741086"
             cy="88.824402"
             r="73.327377" /><circle
             style="fill:url(#radialGradient60);fill-opacity:1;stroke:none;stroke-width:7.2;stroke-linecap:round;stroke-linejoin:round;stroke-dasharray:none;stroke-opacity:1"
             id="circle58"
             cx="14.741086"
             cy="88.824402"
             r="73.327377" /><path
             style="color:#000000;fill:url(#radialGradient63);stroke-linecap:round;stroke-linejoin:round;-inkscape-stroke:none"
             d="m 16.579398,25.49278 c -36.59526,0.458431 -64.83185,28.233716 -64.83185,64.831845 0,36.598135 29.74562,63.130955 66.34375,63.130955 36.59813,-1e-5 59.91815,-27.09979 59.91815,-63.697919 0,-36.598125 -31.25752,-64.642854 -61.43005,-64.264881 z m 2.45684,14.382719 c 32.70092,0.62861 53.66388,24.356749 53.47489,53.661924 -0.21092,32.706287 -22.8468,54.797797 -55.55376,54.797807 -32.70696,0 -51.96298,-18.31108 -52.71893,-58.199593 -0.51589,-27.221421 25.30364,-50.827104 54.7978,-50.260138 z"
             id="path61"
             sodipodi:nodetypes="ssssssssss" /><circle
             style="fill:#ffffff;fill-opacity:1;stroke:none;stroke-width:7.2;stroke-linecap:round;stroke-linejoin:round;stroke-dasharray:none;stroke-opacity:1"
             id="path60"
             cx="47.945999"
             cy="129.28683"
             r="13.229165" /><circle
             style="fill:url(#radialGradient67);fill-opacity:1;stroke:none;stroke-width:7.2;stroke-linecap:round;stroke-linejoin:round;stroke-dasharray:none;stroke-opacity:1"
             id="circle65"
             cx="-15.847574"
             cy="55.077618"
             r="23.385406" /><path
             id="circle69"
             style="fill:#ffffff;fill-opacity:0.689266;stroke:none;stroke-width:7.2;stroke-linecap:round;stroke-linejoin:round;stroke-dasharray:none;stroke-opacity:1"
             d="m 142.12466,24.375773 c -0.38167,-5.5e-4 -0.76217,0.01183 -1.1405,0.03824 -17.07361,1.19201 -28.12387,11.249432 -28.12387,27.74611 0,16.496676 11.88404,24.441388 28.05307,24.615551 7.9555,0.08569 22.71956,-6.641377 24.55354,-23.893115 1.66661,-15.677346 -11.51045,-28.489748 -23.34224,-28.506787 z m -1.1405,4.454509 c 12.87472,0 24.1196,11.824625 23.3655,24.052278 -0.81055,13.14279 -10.70317,23.554635 -23.57789,23.554635 -12.87471,0 -24.15667,-10.138036 -24.15667,-23.521045 0,-2.982791 0.57402,-5.831218 1.60404,-8.458915 a 13.229165,13.229165 0 0 0 12.88138,10.368359 13.229165,13.229165 0 0 0 13.22917,-13.229167 13.229165,13.229165 0 0 0 -8.23154,-12.247314 c 1.59168,-0.338323 3.22685,-0.518831 4.88601,-0.518831 z"
             transform="translate(-151.94643,5.6696429)" /></g><path
           style="color:#000000;fill:url(#linearGradient49);stroke-linecap:round;stroke-linejoin:round;-inkscape-stroke:none"
           d="m 167.25391,5.6601562 c -43.43471,6e-7 -78.72266,35.2879548 -78.72266,78.7226558 -2e-6,43.434708 35.28795,78.722658 78.72266,78.722658 43.4347,0 78.72265,-35.28795 78.72265,-78.722658 0,-43.434701 -35.28795,-78.7226546 -78.72265,-78.7226558 z m 0,7.2011718 c 39.54353,10e-7 71.52343,31.977948 71.52343,71.521484 1e-5,39.543538 -31.9799,71.523438 -71.52343,71.523438 -39.54354,0 -71.52149,-31.9799 -71.521488,-71.523438 0,-39.543537 31.977948,-71.521483 71.521488,-71.521484 z"
           id="path47" /></g></g></g></svg>
