<?xml version="1.0" encoding="UTF-8" standalone="no"?>
<!-- Created with Inkscape (http://www.inkscape.org/) -->

<svg
   width="256mm"
   height="256mm"
   viewBox="0 0 256 256"
   version="1.1"
   id="svg1"
   inkscape:version="1.3.2 (091e20ef0f, 2023-11-25)"
   xml:space="preserve"
   sodipodi:docname="preferences-desktop-theme-applications.svg"
   xmlns:inkscape="http://www.inkscape.org/namespaces/inkscape"
   xmlns:sodipodi="http://sodipodi.sourceforge.net/DTD/sodipodi-0.dtd"
   xmlns="http://www.w3.org/2000/svg"
   xmlns:svg="http://www.w3.org/2000/svg"
   xmlns:rdf="http://www.w3.org/1999/02/22-rdf-syntax-ns#"
   xmlns:cc="http://creativecommons.org/ns#"
   xmlns:dc="http://purl.org/dc/elements/1.1/"><defs
     id="defs1"><linearGradient
       id="light100to0"><stop
         style="stop-color:#ffffff;stop-opacity:1.0000000;"
         offset="0.0000000"
         id="stop2764" /><stop
         style="stop-color:#ffffff;stop-opacity:0.0000000;"
         offset="1.0000000"
         id="stop2765" /></linearGradient><linearGradient
       gradientTransform="matrix(-0.0073,0,0,0.0162,-8.95,-9.1)"
       gradientUnits="userSpaceOnUse"
       id="gradient0"
       spreadMethod="pad"
       x1="-819.20001"
       x2="819.20001"><stop
         offset="0.0"
         stop-color="#666699"
         id="stop28" /><stop
         offset="1.0"
         stop-color="#9999cc"
         id="stop29" /></linearGradient><linearGradient
       gradientTransform="matrix(-0.007,0,0,0.0156,-8.85,-8.8)"
       gradientUnits="userSpaceOnUse"
       id="gradient1"
       spreadMethod="pad"
       x1="-819.20001"
       x2="819.20001"><stop
         offset="0.0"
         stop-color="#9999cc"
         id="stop30" /><stop
         offset="1.0"
         stop-color="#eeeeee"
         id="stop31" /></linearGradient><linearGradient
       gradientTransform="matrix(0,0.0106,0.0192,0,-9.65,15.95)"
       gradientUnits="userSpaceOnUse"
       id="gradient2"
       spreadMethod="pad"
       x1="-819.20001"
       x2="819.20001"><stop
         offset="0.0"
         stop-color="#9999cc"
         id="stop32" /><stop
         offset="1.0"
         stop-color="#666699"
         id="stop33" /></linearGradient><radialGradient
       cx="0"
       cy="0"
       gradientTransform="matrix(0.0291,0,0,0.0291,-18.15,13.65)"
       gradientUnits="userSpaceOnUse"
       id="gradient3"
       r="819.20001"
       spreadMethod="pad"><stop
         offset="0.0"
         stop-color="#ffffff"
         id="stop34" /><stop
         offset="0.2823529411764706"
         stop-color="#dddddd"
         id="stop35" /><stop
         offset="1.0"
         stop-color="#9999cc"
         id="stop36" /></radialGradient><linearGradient
       gradientTransform="matrix(-0.0066,0,0,0.0102,-4.85,12.35)"
       gradientUnits="userSpaceOnUse"
       id="gradient4"
       spreadMethod="pad"
       x1="-819.20001"
       x2="819.20001"><stop
         offset="0.0"
         stop-color="#666699"
         id="stop37" /><stop
         offset="1.0"
         stop-color="#9999cc"
         id="stop38" /></linearGradient><linearGradient
       gradientTransform="matrix(0,0.0103,0.0069,0,-4.8,12.55)"
       gradientUnits="userSpaceOnUse"
       id="gradient5"
       spreadMethod="pad"
       x1="-819.20001"
       x2="819.20001"><stop
         offset="0.0"
         stop-color="#333399"
         id="stop39" /><stop
         offset="0.28627450980392155"
         stop-color="#6666cc"
         id="stop40" /><stop
         offset="1.0"
         stop-color="#cccccc"
         id="stop41" /></linearGradient><linearGradient
       gradientTransform="matrix(-0.0161,-0.0161,-0.0178,0.0178,-8.05,-5)"
       gradientUnits="userSpaceOnUse"
       id="gradient6"
       spreadMethod="pad"
       x1="-819.20001"
       x2="819.20001"><stop
         offset="0.0"
         stop-color="#6666cc"
         id="stop42" /><stop
         offset="1.0"
         stop-color="#999999"
         id="stop43" /></linearGradient><radialGradient
       cx="0"
       cy="0"
       gradientTransform="matrix(0.0368,0,0,0.0368,-8.2,-19.55)"
       gradientUnits="userSpaceOnUse"
       id="gradient7"
       r="819.20001"
       spreadMethod="pad"><stop
         offset="0.0"
         stop-color="#ccffff"
         id="stop44" /><stop
         offset="0.09411764705882353"
         stop-color="#ccffff"
         id="stop45" /><stop
         offset="1.0"
         stop-color="#0099ff"
         id="stop46" /></radialGradient><linearGradient
       gradientTransform="matrix(-0.0112,-0.0112,-0.0173,0.0173,-5.95,-3.95)"
       gradientUnits="userSpaceOnUse"
       id="gradient8"
       spreadMethod="pad"
       x1="-819.20001"
       x2="819.20001"><stop
         offset="0.0"
         stop-color="#9999cc"
         id="stop47" /><stop
         offset="1.0"
         stop-color="#ffffff"
         id="stop48" /></linearGradient><linearGradient
       gradientTransform="matrix(-0.0132,0.007,9e-4,0.0018,-5.65,5.15)"
       gradientUnits="userSpaceOnUse"
       id="gradient9"
       spreadMethod="pad"
       x1="-819.20001"
       x2="819.20001"><stop
         offset="0.0"
         stop-color="#6666cc"
         id="stop49" /><stop
         offset="0.0784313725490196"
         stop-color="#9999cc"
         id="stop50" /><stop
         offset="1.0"
         stop-color="#ffffff"
         id="stop51" /></linearGradient><linearGradient
       gradientTransform="matrix(-0.002,0.006,0.0051,0.0017,-7.55,14.75)"
       gradientUnits="userSpaceOnUse"
       id="gradient10"
       spreadMethod="pad"
       x1="-819.20001"
       x2="819.20001"><stop
         offset="0.0"
         stop-color="#9999cc"
         id="stop52" /><stop
         offset="1.0"
         stop-color="#eeeeee"
         id="stop53" /></linearGradient><linearGradient
       gradientTransform="matrix(-0.0039,0.0039,0.0089,0.0089,-3.45,-2.15)"
       gradientUnits="userSpaceOnUse"
       id="gradient11"
       spreadMethod="pad"
       x1="-819.20001"
       x2="819.20001"><stop
         offset="0.0"
         stop-color="#0066cc"
         id="stop54" /><stop
         offset="0.7137254901960784"
         stop-color="#0099ff"
         id="stop55" /><stop
         offset="1.0"
         stop-color="#0099ff"
         id="stop56" /></linearGradient><linearGradient
       gradientTransform="matrix(-0.0047,0.0047,0.0126,0.0126,13.55,3.35)"
       gradientUnits="userSpaceOnUse"
       id="gradient12"
       spreadMethod="pad"
       x1="-819.20001"
       x2="819.20001"><stop
         offset="0.0"
         stop-color="#006600"
         id="stop57" /><stop
         offset="1.0"
         stop-color="#333333"
         id="stop58" /></linearGradient><linearGradient
       gradientTransform="matrix(-0.004,0.004,0.0119,0.0119,13.55,3.65)"
       gradientUnits="userSpaceOnUse"
       id="gradient13"
       spreadMethod="pad"
       x1="-819.20001"
       x2="819.20001"><stop
         offset="0.0"
         stop-color="#006600"
         id="stop59" /><stop
         offset="1.0"
         stop-color="#66cc33"
         id="stop60" /></linearGradient><linearGradient
       gradientTransform="matrix(-0.0031,-0.0058,-0.0068,0.0036,-6.5,-9.35)"
       gradientUnits="userSpaceOnUse"
       id="gradient14"
       spreadMethod="pad"
       x1="-819.20001"
       x2="819.20001"><stop
         offset="0.0"
         stop-color="#660000"
         id="stop61" /><stop
         offset="0.16862745098039217"
         stop-color="#660000"
         id="stop62" /><stop
         offset="0.3058823529411765"
         stop-color="#996600"
         id="stop63" /><stop
         offset="0.615686274509804"
         stop-color="#ffcc66"
         id="stop64" /><stop
         offset="1.0"
         stop-color="#996600"
         id="stop65" /></linearGradient><linearGradient
       gradientTransform="matrix(-0.0019,-0.0023,-5e-4,4e-4,-8.9,-9.4)"
       gradientUnits="userSpaceOnUse"
       id="gradient15"
       spreadMethod="pad"
       x1="-819.20001"
       x2="819.20001"><stop
         offset="0.0"
         stop-color="#ffcc66"
         id="stop66" /><stop
         offset="0.32941176470588235"
         stop-color="#ffcc66"
         id="stop67" /><stop
         offset="0.44313725490196076"
         stop-color="#ffff99"
         id="stop68" /><stop
         offset="0.7215686274509804"
         stop-color="#ffcc66"
         id="stop69" /><stop
         offset="1.0"
         stop-color="#ffcc66"
         id="stop70" /></linearGradient><linearGradient
       gradientTransform="matrix(-0.0021,-0.0025,-5e-4,4e-4,-7,-9.65)"
       gradientUnits="userSpaceOnUse"
       id="gradient16"
       spreadMethod="pad"
       x1="-819.20001"
       x2="819.20001"><stop
         offset="0.0"
         stop-color="#ffcc66"
         id="stop71" /><stop
         offset="0.32941176470588235"
         stop-color="#ffcc66"
         id="stop72" /><stop
         offset="0.44313725490196076"
         stop-color="#ffff99"
         id="stop73" /><stop
         offset="0.7215686274509804"
         stop-color="#ffcc66"
         id="stop74" /><stop
         offset="1.0"
         stop-color="#ffcc66"
         id="stop75" /></linearGradient><linearGradient
       gradientTransform="matrix(-0.0019,-0.0022,-5e-4,4e-4,-5.25,-10.9)"
       gradientUnits="userSpaceOnUse"
       id="gradient17"
       spreadMethod="pad"
       x1="-819.20001"
       x2="819.20001"><stop
         offset="0.0"
         stop-color="#ffcc66"
         id="stop76" /><stop
         offset="0.32941176470588235"
         stop-color="#ffcc66"
         id="stop77" /><stop
         offset="0.44313725490196076"
         stop-color="#ffff99"
         id="stop78" /><stop
         offset="0.7215686274509804"
         stop-color="#ffcc66"
         id="stop79" /><stop
         offset="1.0"
         stop-color="#ffcc66"
         id="stop80" /></linearGradient><linearGradient
       gradientTransform="matrix(-0.0021,-0.0025,-4e-4,4e-4,-3.7,-11.45)"
       gradientUnits="userSpaceOnUse"
       id="gradient18"
       spreadMethod="pad"
       x1="-819.20001"
       x2="819.20001"><stop
         offset="0.0"
         stop-color="#ffcc66"
         id="stop81" /><stop
         offset="0.32941176470588235"
         stop-color="#ffcc66"
         id="stop82" /><stop
         offset="0.44313725490196076"
         stop-color="#ffff99"
         id="stop83" /><stop
         offset="0.7215686274509804"
         stop-color="#ffcc66"
         id="stop84" /><stop
         offset="1.0"
         stop-color="#ffcc66"
         id="stop85" /></linearGradient><linearGradient
       gradientTransform="matrix(0,-0.005,-0.0049,0,-9.55,-7)"
       gradientUnits="userSpaceOnUse"
       id="gradient19"
       spreadMethod="pad"
       x1="-819.20001"
       x2="819.20001"><stop
         offset="0.0"
         stop-color="#660000"
         id="stop86" /><stop
         offset="0.4588235294117647"
         stop-color="#996600"
         id="stop87" /><stop
         offset="0.8392156862745098"
         stop-color="#ffcc66"
         id="stop88" /><stop
         offset="1.0"
         stop-color="#996600"
         id="stop89" /></linearGradient><linearGradient
       gradientTransform="matrix(0.01,0.01,0.0022,-0.0022,13.55,3.65)"
       gradientUnits="userSpaceOnUse"
       id="gradient20"
       spreadMethod="pad"
       x1="-819.20001"
       x2="819.20001"><stop
         offset="0.0"
         stop-color="#ccffcc"
         id="stop90" /><stop
         offset="0.43529411764705883"
         stop-color="#99ff66"
         id="stop91" /><stop
         offset="1.0"
         stop-color="#66cc33"
         id="stop92" /></linearGradient><linearGradient
       gradientTransform="matrix(-0.0042,-0.0042,-0.0044,0.0044,-0.9,-4.25)"
       gradientUnits="userSpaceOnUse"
       id="gradient21"
       spreadMethod="pad"
       x1="-819.20001"
       x2="819.20001"><stop
         offset="0.0"
         stop-color="#333333"
         id="stop93" /><stop
         offset="1.0"
         stop-color="#0066cc"
         id="stop94" /></linearGradient><linearGradient
       gradientTransform="matrix(-0.0061,0,0,0.0045,-0.85,-4.4)"
       gradientUnits="userSpaceOnUse"
       id="gradient22"
       spreadMethod="pad"
       x1="-819.20001"
       x2="819.20001"><stop
         offset="0.0"
         stop-color="#99ccff"
         id="stop95" /><stop
         offset="1.0"
         stop-color="#ffffff"
         id="stop96" /></linearGradient><linearGradient
       gradientTransform="matrix(-0.0034,-0.0019,-0.0017,0.003,-1.35,-5.15)"
       gradientUnits="userSpaceOnUse"
       id="gradient23"
       spreadMethod="pad"
       x1="-819.20001"
       x2="819.20001"><stop
         offset="0.0"
         stop-color="#0066cc"
         id="stop97" /><stop
         offset="0.6078431372549019"
         stop-color="#99ccff"
         id="stop98" /><stop
         offset="1.0"
         stop-color="#99ccff"
         id="stop99" /></linearGradient><linearGradient
       gradientTransform="matrix(0.0027,0,0,-0.0016,-1.9,-6)"
       gradientUnits="userSpaceOnUse"
       id="gradient24"
       spreadMethod="pad"
       x1="-819.20001"
       x2="819.20001"><stop
         offset="0.0"
         stop-color="#99ccff"
         id="stop100" /><stop
         offset="1.0"
         stop-color="#ccffff"
         id="stop101" /></linearGradient><radialGradient
       cx="0"
       cy="0"
       gradientTransform="matrix(0.0024,0,0,0.0024,3.75,-2.75)"
       gradientUnits="userSpaceOnUse"
       id="gradient25"
       r="819.20001"
       spreadMethod="pad"><stop
         offset="0.0"
         stop-color="#ffffff"
         id="stop102" /><stop
         offset="1.0"
         stop-color="#ccffcc"
         id="stop103" /></radialGradient></defs><sodipodi:namedview
     id="base"
     pagecolor="#ffffff"
     bordercolor="#000000"
     borderopacity="0.3"
     inkscape:pageopacity="0.0"
     inkscape:pageshadow="2"
     inkscape:zoom="0.98994949"
     inkscape:cx="505.07627"
     inkscape:cy="476.792"
     inkscape:document-units="mm"
     inkscape:showpageshadow="2"
     inkscape:pagecheckerboard="0"
     inkscape:deskcolor="#d1d1d1"
     inkscape:current-layer="g28" /><metadata
     id="metadata1"><rdf:RDF><cc:Work
         rdf:about=""><dc:format>image/svg+xml</dc:format><dc:type
           rdf:resource="http://purl.org/dc/dcmitype/StillImage" /><cc:license
           rdf:resource="http://creativecommons.org/publicdomain/zero/1.0/" /></cc:Work><cc:License
         rdf:about="http://creativecommons.org/publicdomain/zero/1.0/"><cc:permits
           rdf:resource="http://creativecommons.org/ns#Reproduction" /><cc:permits
           rdf:resource="http://creativecommons.org/ns#Distribution" /><cc:permits
           rdf:resource="http://creativecommons.org/ns#DerivativeWorks" /></cc:License></rdf:RDF></metadata><g
     transform="matrix(4.7976112,0,0,4.7976112,127.01205,126.57916)"
     id="g28"><path
       d="m -14.9,-19.85 4.25,24.05 7.7,-26.6 -11.95,2.55"
       fill="url(#gradient0)"
       fill-rule="evenodd"
       stroke="none"
       id="path1"
       style="fill:url(#gradient0)" /><path
       d="m -14.55,-19.6 4.45,23.55 7,-25.5 -11.45,1.95"
       fill="url(#gradient1)"
       fill-rule="evenodd"
       stroke="none"
       id="path2"
       style="fill:url(#gradient1)" /><path
       d="m -25.3,15.95 q 0,3.6 4.6,6.15 4.6,2.55 11.1,2.55 6.5,0 11.05,-2.55 4.6,-2.55 4.6,-6.15 0,-3.6 -4.6,-6.15 Q -3.1,7.25 -9.6,7.25 q -6.5,0 -11.1,2.55 -4.6,2.55 -4.6,6.15"
       fill="url(#gradient2)"
       fill-rule="evenodd"
       stroke="none"
       id="path3"
       style="fill:url(#gradient2)" /><path
       d="m -24.3,15.8 q 0,3.3 4.3,5.65 4.25,2.35 10.25,2.35 6.05,0 10.3,-2.35 4.25,-2.35 4.25,-5.65 0,-3.3 -4.25,-5.65 -4.25,-2.3 -10.3,-2.3 -6,0 -10.25,2.3 -4.3,2.35 -4.3,5.65"
       fill="url(#gradient3)"
       fill-rule="evenodd"
       stroke="none"
       id="path4"
       style="display:inline;fill:url(#gradient3)" /><path
       d="M -5,21.85 Q -0.35,20.8 1.5,18.5 1.9,11.05 0.25,3.3 0.2,3.1 -5.75,5.1 -11.7,7.05 -11.65,7.25 -8.2,14 -7.05,20.4 L -5,21.85 M 0.55,18 Q -1.5,19.8 -5.1,20.7 L -6,19.95 Q -7.1,13.9 -10.2,7.5 L -0.8,4 q 1.35,6.55 1.35,14"
       fill="url(#gradient4)"
       fill-rule="evenodd"
       stroke="none"
       id="path5"
       style="fill:url(#gradient4)" /><path
       d="m -10.4,7.75 q 3.1,6.15 4.2,12.3 L -5.05,21 q 3.75,-0.85 5.9,-2.8 0,-7.45 -1.35,-14.15 l -9.9,3.7"
       fill="url(#gradient5)"
       fill-rule="evenodd"
       stroke="none"
       id="path6"
       style="fill:url(#gradient5)" /><path
       d="m -26.1,-17.3 q 0.4,1.15 6.85,28.65 0.45,0.75 1.5,0.35 L 5.85,1.85 Q 6.9,1.45 6.75,0.1 l -2.7,-23.25 q -0.3,-1.8 -1.7,-1.4 l -26.75,4.85 q -2.35,0.45 -1.7,2.4"
       fill="url(#gradient6)"
       fill-rule="evenodd"
       stroke="none"
       id="path7"
       style="fill:url(#gradient6)" /><path
       d="m 5.25,0.55 -2.8,-21 -24.5,5.2 4.85,24.5 22.45,-8.7"
       fill="url(#gradient7)"
       fill-rule="evenodd"
       stroke="none"
       id="path8"
       style="display:inline;fill:url(#gradient7)" /><path
       d="m -18.3,10.75 -6,-28.3 q 0,-0.7 0.35,-0.85 l 26.5,-5.35 q 0.6,-0.55 -0.7,-0.3 l -26.35,4.9 q -0.85,0.25 -0.9,1.45 l 6.6,28.75 0.4,0.35 q 0.3,0 0.1,-0.65"
       fill="url(#gradient8)"
       fill-rule="evenodd"
       stroke="none"
       id="path9"
       style="fill:url(#gradient8)" /><path
       d="m -17.15,9.2 q 0,0.6 0.6,0.4 L 5.95,0.65 5.25,0.45 -17.15,9.2"
       fill="url(#gradient9)"
       fill-rule="evenodd"
       stroke="none"
       id="path10"
       style="fill:url(#gradient9)" /><path
       d="m -10.1,8.45 q 1.75,3.95 2.25,5.7 l 1.55,5.9 1.35,0.95 Q -5.35,16.1 -7.5,9.6 l -2.6,-1.15"
       fill="url(#gradient10)"
       fill-rule="evenodd"
       stroke="none"
       id="path11"
       style="fill:url(#gradient10)" /><g
       id="g1"
       style="display:inline"><path
         d="m -13.4,-10.35 q 0.4,7 3.25,8.7 l 3.3,2.15 q 1.9,1.3 3.25,3.3 l 8.3,-3.05 -18.1,-11.1"
         fill="url(#gradient11)"
         fill-rule="evenodd"
         stroke="none"
         id="path12"
         style="fill:url(#gradient11)" /><path
         d="m 25.75,12.35 q 1.1,-1.5 -0.3,-2.7 Q 12.7,-1 10.1,-2.4 9.4,-2.8 3.25,-5.4 2.35,-5.75 0.7,-3.8 q -1.65,1.95 -0.95,2.9 2.5,3.7 5.95,5.7 2.35,1.35 9.25,4.5 l 7.6,3.35 q 2.05,1.25 3.2,-0.3"
         fill="url(#gradient12)"
         fill-rule="evenodd"
         stroke="none"
         id="path13"
         style="fill:url(#gradient12)" /><path
         d="m 22.8,12 2.4,-0.1 Q 25.85,10.85 24.5,9.7 12.9,0.15 10.35,-1.3 L 6.4,-3.1 3.5,-4.3 Q 2.6,-4.6 1.4,-3.3 0.2,-1.95 0.9,-1 3.2,2.3 6.6,4.3 9,5.7 15.5,8.75 L 22.8,12"
         fill="url(#gradient13)"
         fill-rule="evenodd"
         stroke="none"
         id="path14"
         style="fill:url(#gradient13)" /><path
         d="m -9.55,-12.95 q -0.85,0.65 -1.75,0.65 -0.5,0 -1,0.8 -0.4,0.7 -1.3,0.3 0.15,2 1,3.5 0.9,1.6 2.9,3.25 2.4,2.05 3.7,1.3 l 7.05,-4.6 q -0.15,-2.6 -2.3,-3.8 -0.95,-0.55 -1.6,-4.1 -0.8,0.8 -1.65,1 l -3,0.5 -2.05,1.2"
         fill="url(#gradient14)"
         fill-rule="evenodd"
         stroke="none"
         id="path15"
         style="fill:url(#gradient14)" /><path
         d="m -10.45,-10.8 q 0.05,1.65 0.55,2.15 0.5,0.5 2.6,1.5 l -2,-2.2 -1.15,-1.45"
         fill="url(#gradient15)"
         fill-rule="evenodd"
         stroke="none"
         id="path16"
         style="fill:url(#gradient15)" /><path
         d="m -8.65,-11.55 q 0.1,1.65 0.6,2.15 l 2.75,2.2 -1.45,-2.3 -1.9,-2.05"
         fill="url(#gradient16)"
         fill-rule="evenodd"
         stroke="none"
         id="path17"
         style="fill:url(#gradient16)" /><path
         d="m -6.85,-12.3 q 0.7,2.4 1.2,2.9 0.5,0.5 1.95,0.75 l -1.4,-1.55 -1.75,-2.1"
         fill="url(#gradient17)"
         fill-rule="evenodd"
         stroke="none"
         id="path18"
         style="fill:url(#gradient17)" /><path
         d="m -5.35,-13.2 q 0.1,1.65 0.6,2.15 L -2,-9 l -2.2,-2.8 -1.15,-1.4"
         fill="url(#gradient18)"
         fill-rule="evenodd"
         stroke="none"
         id="path19"
         style="fill:url(#gradient18)" /><path
         d="m -5.95,-3 q 1,-0.15 -0.45,-0.95 l -2.7,-1.4 q -0.9,-0.55 -2.1,-2.4 -1.1,-1.6 -1.25,-2.25 -0.15,-0.65 -1.15,-1.15 0.2,3 1.5,4.6 3.5,4.15 6.15,3.55"
         fill="url(#gradient19)"
         fill-rule="evenodd"
         stroke="none"
         id="path20"
         style="fill:url(#gradient19)" /><path
         d="M 23.25,10.35 Q 23.6,9.9 23.1,9.55 15.55,2.95 10.4,-0.2 5.1,-3.4 4.45,-3.3 3.9,-3.4 3.8,-2.85 3.7,-2.3 4.25,-2.2 q 0.5,-0.1 5.55,3 5.1,3.1 12.65,9.65 0.45,0.35 0.8,-0.1"
         fill="url(#gradient20)"
         fill-rule="evenodd"
         stroke="none"
         id="path21"
         style="fill:url(#gradient20)" /><path
         d="M 1.2,1 Q 1.25,0.65 1.65,0 1.1,-1.05 2,-2.55 3,-4.1 4.7,-3.9 L 5.55,-4.5 1.15,-9.25 -7,-4.55 -6.45,-2.4 1.2,1"
         fill="url(#gradient21)"
         fill-rule="evenodd"
         stroke="none"
         id="path22"
         style="fill:url(#gradient21)" /><path
         d="M 0.35,-0.7 Q 0.85,-2.9 2.2,-3.9 3.25,-4.7 4.15,-4.85 L 1,-8.15 l -6.85,4.1 0.25,1 5.95,2.35"
         fill="url(#gradient22)"
         fill-rule="evenodd"
         stroke="none"
         id="path23"
         style="fill:url(#gradient22)" /><path
         d="M 1.5,-4.5 Q 2.15,-4.7 2.85,-5.2 L 0.65,-7.5 -5,-4.15 q 3.9,1.6 4.5,1.25 l 2,-1.6"
         fill="url(#gradient23)"
         fill-rule="evenodd"
         stroke="none"
         id="path24"
         style="fill:url(#gradient23)" /><path
         d="m 0.3,-7.35 -4.4,2.65 q 2.35,0.2 3.6,-0.6 1,-0.65 0.8,-2.05"
         fill="url(#gradient24)"
         fill-rule="evenodd"
         stroke="none"
         id="path25"
         style="fill:url(#gradient24)" /><path
         d="m 3.15,-2.55 q 0,1.05 1.25,1.05 1.2,0 1.2,-1.05 0,-1.05 -1.2,-1.05 -1.25,0 -1.25,1.05"
         fill="url(#gradient25)"
         fill-rule="evenodd"
         stroke="none"
         id="path26"
         style="fill:url(#gradient25)" /><path
         d="m -3.75,-4.9 q 0,0.4 0.7,0.4 0.65,0 0.65,-0.4 0,-0.4 -0.65,-0.4 -0.7,0 -0.7,0.4"
         fill="#ffffff"
         fill-rule="evenodd"
         stroke="none"
         id="path27" /><path
         d="m -5.85,-4.05 0.1,0.5 5.1,1.9 q 1.05,0.35 1.15,-0.8 -1.75,0.3 -6.35,-1.6"
         fill="#ffffff"
         fill-rule="evenodd"
         stroke="none"
         id="path28" /></g></g></svg>
