<?xml version="1.0" encoding="UTF-8" standalone="no"?>
<!-- Created with Inkscape (http://www.inkscape.org/) -->

<svg
   width="256mm"
   height="256mm"
   viewBox="0 0 256 256"
   version="1.1"
   id="svg1"
   inkscape:version="1.3.2 (091e20ef0f, 2023-11-25)"
   xml:space="preserve"
   sodipodi:docname="preferences-system-session-services.svg"
   xmlns:inkscape="http://www.inkscape.org/namespaces/inkscape"
   xmlns:sodipodi="http://sodipodi.sourceforge.net/DTD/sodipodi-0.dtd"
   xmlns="http://www.w3.org/2000/svg"
   xmlns:svg="http://www.w3.org/2000/svg"
   xmlns:rdf="http://www.w3.org/1999/02/22-rdf-syntax-ns#"
   xmlns:cc="http://creativecommons.org/ns#"
   xmlns:dc="http://purl.org/dc/elements/1.1/"><defs
     id="defs1" /><sodipodi:namedview
     id="base"
     pagecolor="#ffffff"
     bordercolor="#000000"
     borderopacity="0.3"
     inkscape:pageopacity="0.0"
     inkscape:pageshadow="2"
     inkscape:zoom="0.98994949"
     inkscape:cx="505.07627"
     inkscape:cy="476.792"
     inkscape:document-units="mm"
     inkscape:showpageshadow="2"
     inkscape:pagecheckerboard="0"
     inkscape:deskcolor="#d1d1d1"
     inkscape:current-layer="svg1" /><metadata
     id="metadata1"><rdf:RDF><cc:Work
         rdf:about=""><dc:format>image/svg+xml</dc:format><dc:type
           rdf:resource="http://purl.org/dc/dcmitype/StillImage" /><cc:license
           rdf:resource="http://creativecommons.org/publicdomain/zero/1.0/" /></cc:Work><cc:License
         rdf:about="http://creativecommons.org/publicdomain/zero/1.0/"><cc:permits
           rdf:resource="http://creativecommons.org/ns#Reproduction" /><cc:permits
           rdf:resource="http://creativecommons.org/ns#Distribution" /><cc:permits
           rdf:resource="http://creativecommons.org/ns#DerivativeWorks" /></cc:License></rdf:RDF></metadata><g
     id="g1"
     transform="matrix(0.78641353,0,0,0.78641353,70.353013,0.22611435)"><path
       id="rect12"
       style="fill:#fbfdfe;fill-opacity:1;stroke:none;stroke-width:4.60415;stroke-linecap:square;stroke-dasharray:none"
       d="M 80.830642,8.9071614 V 17.00043 h -8.255398 v 7.661746 h -7.652475 v 8.29089 H 64.51948 V 249.53643 h 8.677649 V 33.52857 h 95.814201 v -7.652476 h 8.16546 v -8.102145 h 8.48891 V 8.9071614 h -8.67805 V 17.00043 h -8.47963 v 7.661746 H 81.236351 v -6.888227 h 8.255004 V 8.9071614 Z M 32.891676,40.866467 v 8.866788 h 24.495575 v -8.866788 z m 0,71.831633 v 8.86679 h 24.495575 v -8.86679 z m 0,71.57996 v 8.86638 h 24.495575 v -8.86638 z" /><path
       style="fill:#bfbfbf"
       d="m 160.38603,220.05451 v -27.8722 h -3.98175 -3.98174 v -3.98174 -3.98174 h -3.98174 -3.98175 v -3.98175 -3.98174 h -27.8722 -27.872196 v 3.98174 3.98175 h -3.981743 -3.981743 v 3.98174 3.98174 H 76.769425 72.787682 V 172.2736 152.36488 h 3.981743 3.981743 v 3.98175 3.98174 h 7.963486 7.963485 v 3.98174 3.98174 h 31.853941 31.85395 V 144.4014 120.51094 h -3.98175 -3.98174 v -3.98174 -3.98175 h -3.98174 -3.98175 v -3.98174 -3.98174 h -27.8722 -27.872196 v 3.98174 3.98174 h -3.981743 -3.981743 v 3.98175 3.98174 H 76.769425 72.787682 V 100.60223 80.693512 h 3.981743 3.981743 V 68.748283 56.803055 h 3.981743 3.981743 v 11.945228 11.945229 h -3.981743 -3.981743 v 3.981743 3.981743 h 7.963486 7.963485 v 3.981743 3.981742 h 31.853941 31.85395 V 72.730026 48.839569 h -3.98175 -3.98174 v -3.981743 -3.981743 h -3.98174 -3.98175 v -3.981742 -3.981743 h 11.94523 11.94523 V 140.41965 247.92671 h -3.98174 -3.98174 z m -87.598348,11.94523 v -7.96349 h 3.981743 3.981743 v 3.98175 3.98174 h 7.963486 7.963485 v 3.98174 3.98175 H 84.732911 72.787682 Z m 119.452288,-27.8722 v -11.94523 h 7.96348 7.96349 v 3.98174 3.98175 h -3.98174 -3.98175 v 7.96348 7.96349 h -3.98174 -3.98174 z M 40.933739,196.16405 v -3.98174 h 7.963486 7.963486 v 3.98174 3.98175 h -7.963486 -7.963486 z m 71.671371,-7.96348 v -3.98174 h 7.96349 7.96348 v 3.98174 3.98174 h -7.96348 -7.96349 z m 79.63486,-55.7444 v -11.94523 h 7.96348 7.96349 v 3.98174 3.98175 h -3.98174 -3.98175 v 7.96348 7.96349 h -3.98174 -3.98174 z m -143.342745,0 v -3.98174 h -3.981743 -3.981743 v -3.98175 -3.98174 h 7.963486 7.963486 v 7.96349 7.96348 H 52.878968 48.897225 Z M 112.60511,116.5292 v -3.98175 h 7.96349 7.96348 v 3.98175 3.98174 h -7.96348 -7.96349 z M 192.23997,60.784798 V 48.839569 h 7.96348 7.96349 v 3.981743 3.981743 h -3.98174 -3.98175 v 7.963486 7.963485 h -3.98174 -3.98174 z m -143.342745,0 v -3.981743 h -3.981743 -3.981743 v -3.981743 -3.981743 h 7.963486 7.963486 v 7.963486 7.963486 H 52.878968 48.897225 Z M 72.787682,40.876083 v -7.963485 h 7.963486 7.963486 v 3.981743 3.981742 h -3.981743 -3.981743 v 3.981743 3.981743 h -3.981743 -3.981743 z m 39.817428,3.981743 v -3.981743 h 7.96349 7.96348 v 3.981743 3.981743 h -7.96348 -7.96349 z M 80.751168,20.967369 v -3.981743 h 3.981743 3.981743 V 13.003883 9.0221405 H 132.51383 176.313 v 3.9817425 3.981743 h -3.98175 -3.98174 v 3.981743 3.981743 H 124.55034 80.751168 Z"
       id="path9" /><path
       style="fill:#fefe00"
       d="m 104.64163,156.34663 v -3.98175 h -3.98175 -3.981741 v -7.96348 -7.96349 h 3.981741 3.98175 v -3.98174 -3.98174 h 7.96348 7.96349 v 3.98174 3.98174 h 3.98174 3.98174 v 11.94523 11.94523 h -11.94523 -11.94522 z"
       id="path8" /><path
       style="fill:#7f7f7f"
       d="m 56.860711,235.98148 v -11.94523 h -3.981743 -3.981743 v -3.98174 -3.98174 h -3.981743 -3.981743 v -7.96349 -7.96348 h -3.981742 -3.981743 v -3.98175 -3.98174 h -3.981743 -3.981743 v -7.96348 -7.96349 h 15.926971 15.926972 v -11.94523 -11.94523 h -3.981743 -3.981743 v -3.98174 -3.98174 h -3.981743 -3.981743 v -7.96349 -7.96348 h -3.981742 -3.981743 v -3.98175 -3.98174 h -3.981743 -3.981743 v -7.96349 -7.96348 H 40.933739 56.860711 V 92.638741 80.693512 h -3.981743 -3.981743 v -3.981743 -3.981743 h -3.981743 -3.981743 v -7.963485 -7.963486 h -3.981742 -3.981743 v -3.981743 -3.981743 h -3.981743 -3.981743 v -7.963486 -7.963485 h 15.926971 15.926972 v -3.981743 -3.981743 h 3.981743 3.981743 v -3.981743 -3.981743 h 3.981742 3.981743 V 13.003883 9.0221405 h 3.981743 3.981743 V 5.0403976 1.0586548 h 55.744402 55.7444 V 20.967369 40.876083 h 3.98174 3.98174 v -3.981742 -3.981743 h 15.92698 15.92697 v 3.981743 3.981742 h -7.96349 -7.96348 v 3.981743 3.981743 h 3.98174 3.98174 v 3.981743 3.981743 h -3.98174 -3.98174 v 7.963486 7.963485 h -3.98175 -3.98174 v 3.981743 3.981743 h -3.98174 -3.98175 v -3.981743 -3.981743 h 3.98175 3.98174 v -7.963485 -7.963486 h 3.98174 3.98175 V 52.821312 48.839569 H 204.1852 192.23997 v 19.908714 19.908715 h -3.98174 -3.98175 v 3.981743 3.981742 h 3.98175 3.98174 v 7.963487 7.96348 h 3.98174 3.98174 v -3.98174 -3.98174 h 15.92698 15.92697 v 3.98174 3.98174 h -7.96349 -7.96348 v 3.98175 3.98174 h 3.98174 3.98174 v 3.98174 3.98175 h -3.98174 -3.98174 v 7.96348 7.96349 h -3.98175 -3.98174 v 3.98174 3.98174 h -3.98174 -3.98175 v -3.98174 -3.98174 h 3.98175 3.98174 v -7.96349 -7.96348 h 3.98174 3.98175 v -3.98175 -3.98174 H 204.1852 192.23997 v 19.90871 19.90872 h -3.98174 -3.98175 v 3.98174 3.98174 h 3.98175 3.98174 v 7.96349 7.96349 h 3.98174 3.98174 v -3.98175 -3.98174 h 15.92698 15.92697 v 3.98174 3.98175 h -7.96349 -7.96348 v 3.98174 3.98174 h 3.98174 3.98174 v 3.98174 3.98175 h -3.98174 -3.98174 v 7.96348 7.96349 h -3.98175 -3.98174 v 3.98174 3.98174 h -3.98174 -3.98175 v -3.98174 -3.98174 h 3.98175 3.98174 v -7.96349 -7.96348 h 3.98174 3.98175 v -3.98175 -3.98174 H 204.1852 192.23997 v 19.90872 19.90871 h -3.98174 -3.98175 v -19.90871 -19.90872 h -3.98174 -3.98174 v 27.8722 27.8722 h -3.98175 -3.98174 V 136.43791 24.949112 h 3.98174 3.98175 v -3.981743 -3.981743 h 3.98174 3.98174 V 13.003883 9.0221405 H 132.51383 80.751168 v 3.9817425 3.981743 h -3.981743 -3.981743 v 3.981743 3.981743 h -3.981743 -3.981742 v 111.488798 111.4888 h -3.981743 -3.981743 z m 0,-43.79917 v -7.96348 H 44.915482 32.970254 v 3.98174 3.98174 h 3.981743 3.981742 v 3.98174 3.98175 h 7.963486 7.963486 z m 135.379259,-3.98174 v -3.98174 h -3.98174 -3.98175 v 3.98174 3.98174 h 3.98175 3.98174 z m -7.96349,-47.78092 v -19.90871 h 3.98175 3.98174 v -3.98174 -3.98175 h -3.98174 -3.98175 v 3.98175 3.98174 h -3.98174 -3.98174 v 19.90871 19.90872 h 3.98174 3.98174 z M 56.860711,124.49268 V 112.54745 H 44.915482 32.970254 v 3.98175 3.98174 h 3.981743 3.981742 v 3.98174 3.98175 h 3.981743 3.981743 v 3.98174 3.98174 h 3.981743 3.981743 z M 184.27648,68.748283 V 48.839569 h 3.98175 3.98174 v -3.981743 -3.981743 h -3.98174 -3.98175 v 3.981743 3.981743 h -3.98174 -3.98174 v 19.908714 19.908715 h 3.98174 3.98174 z M 56.860711,52.821312 V 40.876083 H 44.915482 32.970254 v 3.981743 3.981743 h 3.981743 3.981742 v 3.981743 3.981743 h 3.981743 3.981743 v 3.981743 3.981743 h 3.981743 3.981743 z M 72.787682,243.94497 v -3.98174 h 11.945229 11.945228 v -3.98175 -3.98174 h 3.981741 3.98175 v 3.98174 3.98175 h 15.92697 15.92697 v -3.98175 -3.98174 h 3.98174 3.98174 v -3.98174 -3.98175 h -3.98174 -3.98174 v -7.96348 -7.96349 h -3.98174 -3.98175 v -3.98174 -3.98174 h -3.98174 -3.98174 v -3.98175 -3.98174 h 3.98174 3.98174 v -3.98174 -3.98174 h 3.98175 3.98174 v -3.98175 -3.98174 h 3.98174 3.98174 v 3.98174 3.98175 h 3.98175 3.98174 v 3.98174 3.98174 h 3.98174 3.98175 v 27.8722 27.8722 H 116.58685 72.787682 Z m 79.634858,-35.83569 v -15.92697 h -3.98174 -3.98175 v -3.98174 -3.98174 h -3.98174 -3.98174 v 3.98174 3.98174 h 3.98174 3.98174 v 15.92697 15.92697 h 3.98175 3.98174 z m -71.671372,3.98175 V 200.1458 h -3.981743 -3.981743 v -3.98175 -3.98174 h 3.981743 3.981743 v -3.98174 -3.98174 h 3.981743 3.981743 v -3.98175 -3.98174 h 3.981743 3.981742 v 3.98174 3.98175 h -3.981742 -3.981743 v 3.98174 3.98174 h -3.981743 -3.981743 v 3.98174 3.98175 h 3.981743 3.981743 v 11.94523 11.94522 h -3.981743 -3.981743 z m 15.926971,-47.78092 v -3.98174 h 3.981741 3.98175 v 3.98174 3.98174 h -3.98175 -3.981741 z m 39.817431,0 v -3.98174 h 3.98174 3.98174 v -3.98174 -3.98175 h -3.98174 -3.98174 v -7.96348 -7.96349 h -3.98174 -3.98175 v -3.98174 -3.98174 h -3.98174 -3.98174 v -3.98175 -3.98174 h 3.98174 3.98174 v -3.98174 -3.98175 h 3.98175 3.98174 v -3.98174 -3.98174 h 3.98174 3.98174 v 3.98174 3.98174 h 3.98175 3.98174 v 3.98175 3.98174 h 3.98174 3.98175 v 23.89046 23.89045 H 148.4408 136.49557 Z m 15.92697,-27.8722 v -15.92697 h -3.98174 -3.98175 v -3.98174 -3.98175 h -3.98174 -3.98174 v 3.98175 3.98174 h 3.98174 3.98174 v 15.92697 15.92697 h 3.98175 3.98174 z m -71.671372,3.98174 v -11.94522 h -3.981743 -3.981743 v -3.98175 -3.98174 h 3.981743 3.981743 v -3.98174 -3.98175 h 3.981743 3.981743 v -3.98174 -3.98174 h 3.981743 3.981742 v 3.98174 3.98174 h -3.981742 -3.981743 v 3.98175 3.98174 h -3.981743 -3.981743 v 3.98174 3.98175 h 3.981743 3.981743 v 11.94522 11.94523 H 84.732911 80.751168 Z M 96.678139,92.638741 v -3.981743 h 3.981741 3.98175 v 3.981743 3.981742 h -3.98175 -3.981741 z m 39.817431,0 v -3.981743 h 3.98174 3.98174 v -3.981743 -3.981743 h -3.98174 -3.98174 v -7.963486 -7.963485 h -3.98174 -3.98175 v -3.981743 -3.981743 h -3.98174 -3.98174 v -3.981743 -3.981743 h 3.98174 3.98174 v -3.981743 -3.981743 h 3.98175 3.98174 v -3.981742 -3.981743 h 3.98174 3.98174 v 3.981743 3.981742 h 3.98175 3.98174 v 3.981743 3.981743 h 3.98174 3.98175 V 72.730026 96.620483 H 148.4408 136.49557 Z m 15.92697,-27.8722 V 48.839569 h -3.98174 -3.98175 v -3.981743 -3.981743 h -3.98174 -3.98174 v 3.981743 3.981743 h 3.98174 3.98174 v 15.926972 15.926971 h 3.98175 3.98174 z M 72.787682,52.821312 v -3.981743 h 3.981743 3.981743 v -3.981743 -3.981743 h 3.981743 3.981743 v -3.981742 -3.981743 h 3.981743 3.981742 v 3.981743 3.981742 h -3.981742 -3.981743 v 3.981743 3.981743 h -3.981743 -3.981743 v 3.981743 3.981743 h -3.981743 -3.981743 z"
       id="path7" /><path
       style="fill:#fe0000"
       d="m 104.64163,84.675255 v -3.981743 h -3.98175 -3.981741 v -7.963486 -7.963485 h 3.981741 3.98175 v -3.981743 -3.981743 h 7.96348 7.96349 v 3.981743 3.981743 h 3.98174 3.98174 v 11.945228 11.945229 h -11.94523 -11.94522 z"
       id="path6" /><path
       style="fill:#00fe00"
       d="m 104.64163,228.018 v -3.98175 h -3.98175 -3.981741 v -7.96348 -7.96349 h 3.981741 3.98175 v -3.98174 -3.98174 h 7.96348 7.96349 v 3.98174 3.98174 h 3.98174 3.98174 v 11.94523 11.94523 h -11.94523 -11.94522 z"
       id="path5" /><path
       style="fill:#7f7f00"
       d="m 104.64163,164.31011 v -3.98174 h -3.98175 -3.981741 v -3.98174 -3.98175 h 3.981741 3.98175 v 3.98175 3.98174 h 11.94522 11.94523 v 3.98174 3.98174 h -11.94523 -11.94522 z m -7.963491,-31.85394 v -3.98174 h 3.981741 3.98175 v 3.98174 3.98174 h -3.98175 -3.981741 z"
       id="path4" /><path
       style="fill:#7f0000"
       d="m 104.64163,92.638741 v -3.981743 h -3.98175 -3.981741 v -3.981743 -3.981743 h 3.981741 3.98175 v 3.981743 3.981743 h 11.94522 11.94523 v 3.981743 3.981742 H 116.58685 104.64163 Z M 96.678139,60.784798 v -3.981743 h 3.981741 3.98175 v 3.981743 3.981743 h -3.98175 -3.981741 z"
       id="path3" /><path
       style="fill:#007f00"
       d="m 104.64163,235.98148 v -3.98174 h -3.98175 -3.981741 v -3.98174 -3.98175 h 3.981741 3.98175 v 3.98175 3.98174 h 11.94522 11.94523 v 3.98174 3.98175 h -11.94523 -11.94522 z m -7.963491,-31.85394 v -3.98174 h 3.981741 3.98175 v 3.98174 3.98174 h -3.98175 -3.981741 z"
       id="path2" /><path
       style="fill:#000000"
       d="m 64.824197,251.90845 v -3.98174 H 120.5686 176.313 v -27.8722 -27.8722 h 3.98174 3.98174 v -3.98174 -3.98174 h 3.98175 3.98174 v -7.96349 -7.96349 h -3.98174 -3.98175 v -3.98174 -3.98174 h -3.98174 -3.98174 v -19.90872 -19.90871 h 3.98174 3.98174 v -3.98174 -3.98175 h 3.98175 3.98174 v -7.96348 -7.963487 h -3.98174 -3.98175 V 92.638741 88.656998 H 180.29474 176.313 V 68.748283 48.839569 h 3.98174 3.98174 v -3.981743 -3.981743 h 3.98175 3.98174 V 24.949112 9.0221405 h 3.98174 3.98174 V 24.949112 40.876083 h -3.98174 -3.98174 v 3.981743 3.981743 h -3.98174 -3.98175 v 19.908714 19.908715 h 3.98175 3.98174 v -7.963486 -7.963486 h 3.98174 3.98174 v -7.963485 -7.963486 h 3.98175 3.98174 v -3.981743 -3.981743 h 3.98174 3.98175 v -3.981743 -3.981743 h 7.96348 7.96349 v 7.963486 7.963486 h -3.98175 -3.98174 v 7.963486 7.963485 h -3.98174 -3.98174 v 3.981743 3.981743 h -3.98175 -3.98174 v 3.981743 3.981743 h -3.98174 -3.98175 v 11.945232 11.94522 h -3.98174 -3.98174 v 3.98175 3.98174 h -3.98174 -3.98175 v 19.90871 19.90872 h 3.98175 3.98174 v -7.96349 -7.96348 h 3.98174 3.98174 v -7.96349 -7.96348 h 3.98175 3.98174 v -3.98175 -3.98174 h 3.98174 3.98175 v -3.98174 -3.98175 h 7.96348 7.96349 v 7.96349 7.96349 h -3.98175 -3.98174 v 7.96348 7.96349 h -3.98174 -3.98174 v 3.98174 3.98174 h -3.98175 -3.98174 v 7.96349 7.96348 h -3.98174 -3.98175 v 7.96349 7.96349 h -3.98174 -3.98174 v 3.98174 3.98174 h -3.98174 -3.98175 v 19.90872 19.90871 h 3.98175 3.98174 v -7.96349 -7.96348 h 3.98174 3.98174 v -7.96349 -7.96348 h 3.98175 3.98174 v -3.98175 -3.98174 h 3.98174 3.98175 v -3.98174 -3.98174 h 7.96348 7.96349 v 7.96348 7.96349 h -3.98175 -3.98174 v 7.96348 7.96349 h -3.98174 -3.98174 v 3.98174 3.98174 h -3.98175 -3.98174 v 3.98175 3.98174 h -3.98174 -3.98175 v 3.98174 3.98175 h -7.96348 -7.96349 v 3.98174 3.98174 h -3.98174 -3.98174 v 3.98174 3.98175 H 120.5686 64.824197 Z M 208.16694,220.05451 v -3.98174 h 3.98174 3.98175 v -7.96349 -7.96348 h 3.98174 3.98174 v -3.98175 -3.98174 h -3.98174 -3.98174 v 3.98174 3.98175 h -3.98175 -3.98174 v 7.96348 7.96349 h -3.98174 -3.98175 v 3.98174 3.98174 h 3.98175 3.98174 z m 0,-71.67137 v -3.98174 h 3.98174 3.98175 v -7.96349 -7.96348 h 3.98174 3.98174 v -3.98175 -3.98174 h -3.98174 -3.98174 v 3.98174 3.98175 h -3.98175 -3.98174 v 7.96348 7.96349 h -3.98174 -3.98175 v 3.98174 3.98174 h 3.98175 3.98174 z m 0,-71.671371 v -3.981743 h 3.98174 3.98175 v -7.963485 -7.963486 h 3.98174 3.98174 v -3.981743 -3.981743 h -3.98174 -3.98174 v 3.981743 3.981743 h -3.98175 -3.98174 v 7.963486 7.963485 h -3.98174 -3.98175 v 3.981743 3.981743 h 3.98175 3.98174 z M 128.53208,224.03625 v -15.92697 h -3.98174 -3.98174 v -3.98174 -3.98174 H 108.62337 96.678139 v 15.92697 15.92697 H 88.714654 80.751168 V 228.018 224.03625 H 76.769425 72.787682 V 212.09103 200.1458 h 3.981743 3.981743 v -3.98175 -3.98174 h 3.981743 3.981743 v -3.98174 -3.98174 h 3.981743 3.981742 v -3.98175 -3.98174 h 19.908711 19.90872 v 3.98174 3.98175 h 3.98174 3.98174 v 3.98174 3.98174 h 3.98175 3.98174 v 15.92697 15.92697 h -3.98174 -3.98175 v 3.98175 3.98174 h -3.98174 -3.98174 v 3.98174 3.98175 h -3.98174 -3.98175 z M 88.714654,212.09103 V 200.1458 h -3.981743 -3.981743 v 11.94523 11.94522 h 3.981743 3.981743 z m 55.744396,-3.98175 v -15.92697 h -3.98174 -3.98174 v -3.98174 -3.98174 H 116.58685 96.678139 v 3.98174 3.98174 h 11.945231 11.94523 v 3.98174 3.98175 h 3.98174 3.98174 v 3.98174 3.98174 h 3.98175 3.98174 v 7.96349 7.96348 h 3.98174 3.98174 z m -15.92697,-55.7444 v -15.92697 h -3.98174 -3.98174 v -3.98174 -3.98174 H 108.62337 96.678139 v 15.92697 15.92697 h -7.963485 -7.963486 v -3.98174 -3.98175 h -3.981743 -3.981743 v -11.94523 -11.94522 h 3.981743 3.981743 v -3.98175 -3.98174 h 3.981743 3.981743 v -3.98174 -3.98175 h 3.981743 3.981742 v -3.98174 -3.98174 h 19.908711 19.90872 v 3.98174 3.98174 h 3.98174 3.98174 v 3.98175 3.98174 h 3.98175 3.98174 v 15.92697 15.92697 h -3.98174 -3.98175 v 3.98175 3.98174 h -3.98174 -3.98174 v 3.98174 3.98174 h -3.98174 -3.98175 z M 88.714654,140.41965 v -11.94522 h -3.981743 -3.981743 v 11.94522 11.94523 h 3.981743 3.981743 z m 55.744396,-3.98174 v -15.92697 h -3.98174 -3.98174 v -3.98174 -3.98175 H 116.58685 96.678139 v 3.98175 3.98174 h 11.945231 11.94523 v 3.98174 3.98175 h 3.98174 3.98174 v 3.98174 3.98174 h 3.98175 3.98174 v 7.96349 7.96348 h 3.98174 3.98174 z M 128.53208,80.693512 V 64.766541 h -3.98174 -3.98174 V 60.784798 56.803055 H 108.62337 96.678139 V 72.730026 88.656998 H 88.714654 80.751168 V 84.675255 80.693512 H 76.769425 72.787682 V 68.748283 56.803055 h 3.981743 3.981743 v -3.981743 -3.981743 h 3.981743 3.981743 v -3.981743 -3.981743 h 3.981743 3.981742 v -3.981742 -3.981743 h 19.908711 19.90872 v 3.981743 3.981742 h 3.98174 3.98174 v 3.981743 3.981743 h 3.98175 3.98174 v 15.926972 15.926971 h -3.98174 -3.98175 v 3.981743 3.981743 h -3.98174 -3.98174 v 3.981743 3.981742 h -3.98174 -3.98175 z M 88.714654,68.748283 V 56.803055 h -3.981743 -3.981743 v 11.945228 11.945229 h 3.981743 3.981743 z M 144.45905,64.766541 V 48.839569 h -3.98174 -3.98174 V 44.857826 40.876083 H 116.58685 96.678139 v 3.981743 3.981743 h 11.945231 11.94523 v 3.981743 3.981743 h 3.98174 3.98174 v 3.981743 3.981743 h 3.98175 3.98174 v 7.963485 7.963486 h 3.98174 3.98174 z"
       id="path1" /></g><g
     style="shape-rendering:crispEdges"
     id="g2"
     transform="matrix(4.8490688,0,0,4.8490688,0.28271858,122.83468)"><path
       stroke="#010101"
       d="m 9,0 h 1 M 0,9 h 1 m -1,1 h 1 m 17,0 h 1 M 0,11 h 1 m 8,5 h 1 m -1,1 h 1 m -1,1 h 1 m -1,1 h 1 m -1,1 h 1 m 8,5 h 1 m -1,1 h 1"
       id="path1-6" /><path
       stroke="#000000"
       d="m 10,0 h 3 M 8,1 h 1 m 4,0 h 1 M 8,2 h 1 m 4,0 h 1 M 4,3 h 2 m 2,0 h 1 m 1,0 h 2 m 1,0 h 1 m 2,0 h 2 M 3,4 h 1 m 2,0 h 3 m 4,0 h 3 m 2,0 h 1 M 3,5 h 1 m 4,0 h 1 m 4,0 h 1 m 4,0 h 1 M 3,6 h 2 m 3,0 h 1 m 4,0 h 1 m 3,0 h 2 M 3,7 h 2 m 2,0 h 2 m 4,0 h 2 m 2,0 h 2 M 1,8 h 3 m 2,0 h 1 m 1,0 h 1 m 4,0 h 1 m 1,0 h 1 m 2,0 h 3 M 7,9 h 2 m 4,0 h 2 m 6,0 h 1 M 1,10 h 3 m 4,0 h 6 m 5,0 h 3 M 3,11 h 1 m 13,0 h 1 m 4,0 h 1 M 1,12 h 3 m 3,0 h 2 m 4,0 h 2 m 2,0 h 1 m 4,0 h 1 m 2,0 h 2 M 3,13 h 2 m 1,0 h 1 m 2,0 h 1 m 2,0 h 1 m 2,0 h 3 m 1,0 h 2 m 1,0 h 3 m 2,0 h 1 M 3,14 h 1 m 1,0 h 1 m 1,0 h 1 m 1,0 h 1 m 2,0 h 1 m 4,0 h 1 m 4,0 h 1 m 4,0 h 1 M 3,15 h 1 m 1,0 h 2 m 1,0 h 6 m 3,0 h 1 m 4,0 h 1 m 3,0 h 2 M 4,16 h 2 m 6,0 h 2 m 2,0 h 2 m 4,0 h 2 m 2,0 h 2 m -18,1 h 3 m 2,0 h 1 m 1,0 h 1 m 4,0 h 1 m 1,0 h 1 m 2,0 h 3 m -14,1 h 2 m 4,0 h 2 m 6,0 h 1 m -21,1 h 3 m 4,0 h 6 m 4,0 h 4 m -19,1 h 1 m 14,0 h 1 m 2,0 h 1 m -21,1 h 3 m 3,0 h 2 m 4,0 h 2 m 3,0 h 3 m -18,1 h 2 m 1,0 h 1 m 2,0 h 1 m 2,0 h 1 m 2,0 h 1 m 1,0 h 2 m -16,1 h 1 m 1,0 h 1 m 1,0 h 1 m 1,0 h 1 m 2,0 h 1 m 1,0 h 1 m 1,0 h 1 m 1,0 h 1 m -16,1 h 1 m 1,0 h 2 m 1,0 h 6 m 1,0 h 2 m 1,0 h 1 m -15,1 h 2 m 6,0 h 1 m 3,0 h 2 m -8,1 h 3"
       id="path2-7" /><path
       stroke="#fefefe"
       d="m 9,1 h 1 M 9,4 h 1 M 9,5 h 1 M 9,6 h 1 M 9,7 h 1 M 9,8 h 1 M 9,9 h 1 m 8,2 h 1 m -1,3 h 1 m -1,1 h 1 m -1,1 h 1 m -1,1 h 1 m -1,1 h 1 m -1,3 h 1"
       id="path3-5" /><path
       stroke="#ffffff"
       d="m 10,1 h 1 M 7,8 h 1 m 6,0 h 1 m 4,3 h 1 m -6,2 h 1 m 11,0 h 1 m -14,1 h 1 m 1,0 h 1 m 7,0 h 1 m 1,0 h 1 m -12,1 h 1 m 1,0 h 1 m 7,0 h 1 m -10,1 h 1 m 9,0 h 1 m -12,1 h 1 m 1,0 h 1 m 6,0 h 1 m 2,0 h 1 m -16,1 h 1 m 1,0 h 1 m 1,0 h 1 m 9,0 h 1 m 1,0 h 1 m 1,0 h 1 m -16,1 h 1 m 1,0 h 1 m 7,0 h 1 m 1,0 h 1 m -14,1 h 1 m 1,0 h 1 m 1,0 h 1 m 1,0 h 1 m 1,0 h 1 m 1,0 h 1 m 1,0 h 1 m -12,1 h 1 m 5,0 h 1 m 3,0 h 1 m 1,0 h 1 m -8,1 h 1 m 5,0 h 1 m -6,1 h 1"
       id="path4-3" /><path
       stroke="#c6c6c6"
       d="m 11,1 h 2 m -3,1 h 2 M 4,4 h 2 m 4,0 h 1 m 5,0 h 2 M 4,5 h 4 m 2,0 h 1 m 3,0 h 4 M 5,6 h 3 m 2,0 h 1 m 3,0 h 3 M 5,7 h 2 m 3,0 h 1 m 4,0 h 2 M 4,8 h 2 m 4,0 h 1 m 5,0 h 2 M 1,9 h 6 m 3,0 h 1 m 4,0 h 6 M 4,10 h 4 m 6,0 h 4 M 4,11 h 13 m 3,0 h 2 M 4,12 h 3 m 3,0 h 3 m 2,0 h 2 m 2,0 h 2 M 5,13 h 1 m 4,0 h 2 m -2,1 h 2 m 7,0 h 1 m -1,1 h 1 m -1,1 h 1 m -1,1 h 1 m -1,1 h 1"
       id="path5-5" /><path
       stroke="#838383"
       d="m 9,2 h 1 M 9,3 h 1 m 8,9 h 1 m -1,1 h 1"
       id="path6-6" /><path
       stroke="#848484"
       d="m 12,2 h 1 m -1,1 h 1 m -2,1 h 2 m -2,1 h 2 m -2,1 h 2 m -2,1 h 2 m -2,1 h 2 m -2,1 h 2 M 1,11 h 2 m 18,1 h 1 M 7,13 h 2 m 12,0 h 1 M 4,14 h 1 m 3,0 h 1 m 11,0 h 2 M 4,15 h 1 m 15,0 h 2 m -12,1 h 2 m 8,0 h 2 m -2,1 h 2 m -2,1 h 2 m -11,2 h 1 m 17,0 h 1 m -17,3 h 1 m 12,0 h 1 m -14,1 h 1 m 12,0 h 1 m -8,1 h 2"
       id="path7-2" /><path
       stroke="#c5c5c5"
       d="m 9,12 h 1"
       id="path8-9" /><path
       stroke="#ffff00"
       d="m 13,13 h 1 m 11,0 h 1 m -12,1 h 1 m 1,0 h 1 m 7,0 h 1 m 1,0 h 1 m -12,1 h 1 m 7,0 h 1 m 1,0 h 1 m -12,1 h 1 m 9,0 h 1 m -12,1 h 1 m 11,0 h 1 m -16,1 h 1 m 1,0 h 1 m 1,0 h 1 m 9,0 h 1 m 1,0 h 1 m 1,0 h 1 m -16,1 h 1 m 1,0 h 1 m 7,0 h 1 m 1,0 h 1 m -12,1 h 1 m 1,0 h 1 m 3,0 h 1 m 1,0 h 1 m 1,0 h 1 m 1,0 h 1 m -14,1 h 1 m 1,0 h 1 m 3,0 h 1 m 1,0 h 1 m 3,0 h 1 m -12,1 h 1 m 5,0 h 1 m -2,1 h 1"
       id="path9-1" /><path
       stroke="#840084"
       d="M 6,14 H 7"
       id="path10" /><path
       stroke="#848400"
       d="m 10,20 h 1 m 17,0 h 1 m -13,2 h 2 m 4,0 h 2 m -9,1 h 1 m 1,0 h 1 m 4,0 h 1 m 1,0 h 1"
       id="path11" /><path
       stroke="#ffff01"
       d="m 18,20 h 1"
       id="path12" /></g></svg>
