<?xml version="1.0" encoding="UTF-8" standalone="no"?>
<!-- Created with Inkscape (http://www.inkscape.org/) -->

<svg
   width="256mm"
   height="256mm"
   viewBox="0 0 256 256"
   version="1.1"
   id="svg1"
   inkscape:version="1.3.2 (091e20ef0f, 2023-11-25)"
   xml:space="preserve"
   sodipodi:docname="firewall.svg"
   xmlns:inkscape="http://www.inkscape.org/namespaces/inkscape"
   xmlns:sodipodi="http://sodipodi.sourceforge.net/DTD/sodipodi-0.dtd"
   xmlns:xlink="http://www.w3.org/1999/xlink"
   xmlns="http://www.w3.org/2000/svg"
   xmlns:svg="http://www.w3.org/2000/svg"
   xmlns:rdf="http://www.w3.org/1999/02/22-rdf-syntax-ns#"
   xmlns:cc="http://creativecommons.org/ns#"
   xmlns:dc="http://purl.org/dc/elements/1.1/"><defs
     id="defs1"><linearGradient
       id="linearGradient20"
       inkscape:collect="always"><stop
         style="stop-color:#403418;stop-opacity:1;"
         offset="0"
         id="stop20" /><stop
         style="stop-color:#403418;stop-opacity:0;"
         offset="1"
         id="stop21" /></linearGradient><linearGradient
       id="linearGradient18"
       inkscape:collect="always"><stop
         style="stop-color:#403418;stop-opacity:1;"
         offset="0"
         id="stop18" /><stop
         style="stop-color:#403418;stop-opacity:0;"
         offset="1"
         id="stop19" /></linearGradient><linearGradient
       id="linearGradient15"
       inkscape:collect="always"><stop
         style="stop-color:#a12704;stop-opacity:1"
         offset="0"
         id="stop12" /><stop
         style="stop-color:#cb4701;stop-opacity:1"
         offset="0.32144028"
         id="stop13" /><stop
         style="stop-color:#da4f00;stop-opacity:1"
         offset="0.54458153"
         id="stop16" /><stop
         style="stop-color:#cb3700;stop-opacity:1"
         offset="0.75"
         id="stop14" /><stop
         style="stop-color:#b71c00;stop-opacity:1"
         offset="1"
         id="stop15" /></linearGradient><linearGradient
       id="linearGradient11"
       inkscape:collect="always"><stop
         style="stop-color:#fe881d;stop-opacity:1"
         offset="0"
         id="stop8" /><stop
         style="stop-color:#ba2f03;stop-opacity:1"
         offset="0.5"
         id="stop9" /><stop
         style="stop-color:#8e1901;stop-opacity:1"
         offset="0.75"
         id="stop10" /><stop
         style="stop-color:#871501;stop-opacity:1"
         offset="1"
         id="stop11" /></linearGradient><linearGradient
       id="linearGradient4"
       inkscape:collect="always"><stop
         style="stop-color:#ffffe8;stop-opacity:1"
         offset="0"
         id="stop4" /><stop
         style="stop-color:#fffc8d;stop-opacity:1"
         offset="0.5"
         id="stop6" /><stop
         style="stop-color:#fbe070;stop-opacity:1"
         offset="0.75"
         id="stop7" /><stop
         style="stop-color:#f7c05c;stop-opacity:1"
         offset="1"
         id="stop5" /></linearGradient><linearGradient
       gradientTransform="matrix(-0.06871152,-0.06871152,-0.06871152,0.06871152,79.642904,79.419814)"
       gradientUnits="userSpaceOnUse"
       id="gradient0"
       spreadMethod="pad"
       x1="-819.20001"
       x2="819.20001"><stop
         offset="0.0"
         stop-color="#003399"
         id="stop4093" /><stop
         offset="0.47058823529411764"
         stop-color="#0099ff"
         id="stop4095" /><stop
         offset="1.0"
         stop-color="#ccffff"
         id="stop4097" /></linearGradient><radialGradient
       cx="0"
       cy="0"
       gradientTransform="matrix(0.15259312,0,0,0.15259312,70.050061,40.602264)"
       gradientUnits="userSpaceOnUse"
       id="gradient1"
       r="819.20001"
       spreadMethod="pad"><stop
         offset="0.0"
         stop-color="#ffffff"
         id="stop4100" /><stop
         offset="0.0784313725490196"
         stop-color="#ccffff"
         id="stop4102" /><stop
         offset="0.2980392156862745"
         stop-color="#0099ff"
         id="stop4104" /><stop
         offset="0.5372549019607843"
         stop-color="#0066cc"
         id="stop4106" /><stop
         offset="0.7529411764705882"
         stop-color="#003399"
         id="stop4108" /><stop
         offset="1.0"
         stop-color="#9999ff"
         id="stop4110" /></radialGradient><radialGradient
       cx="0"
       cy="0"
       gradientTransform="matrix(0.00490797,0,0,0.00490797,47.964214,14.05463)"
       gradientUnits="userSpaceOnUse"
       id="gradient2"
       r="819.20001"
       spreadMethod="pad"><stop
         offset="0.0"
         stop-color="#00bf00"
         id="stop4113" /><stop
         offset="0.9294117647058824"
         stop-color="#006600"
         id="stop4115" /></radialGradient><radialGradient
       cx="0"
       cy="0"
       gradientTransform="matrix(0.01293919,0,0,0.01293919,57.557057,16.731702)"
       gradientUnits="userSpaceOnUse"
       id="gradient3"
       r="819.20001"
       spreadMethod="pad"><stop
         offset="0.0"
         stop-color="#00bf00"
         id="stop4118" /><stop
         offset="0.9294117647058824"
         stop-color="#006600"
         id="stop4120" /></radialGradient><radialGradient
       cx="0"
       cy="0"
       gradientTransform="matrix(4.4617873e-4,0,0,4.4617873e-4,54.656895,8.9235749)"
       gradientUnits="userSpaceOnUse"
       id="gradient4"
       r="819.20001"
       spreadMethod="pad"><stop
         offset="0.0"
         stop-color="#00bf00"
         id="stop4123" /><stop
         offset="0.9294117647058824"
         stop-color="#006600"
         id="stop4125" /></radialGradient><radialGradient
       cx="0"
       cy="0"
       gradientTransform="matrix(0.00669268,0,0,0.00669268,60.457219,10.4852)"
       gradientUnits="userSpaceOnUse"
       id="gradient5"
       r="819.20001"
       spreadMethod="pad"><stop
         offset="0.0"
         stop-color="#00bf00"
         id="stop4128" /><stop
         offset="0.9294117647058824"
         stop-color="#006600"
         id="stop4130" /></radialGradient><radialGradient
       cx="0"
       cy="0"
       gradientTransform="matrix(0.03167869,0,0,0.03167869,86.112495,23.647472)"
       gradientUnits="userSpaceOnUse"
       id="gradient6"
       r="819.20001"
       spreadMethod="pad"><stop
         offset="0.0"
         stop-color="#00bf00"
         id="stop4133" /><stop
         offset="0.9294117647058824"
         stop-color="#006600"
         id="stop4135" /></radialGradient><radialGradient
       cx="0"
       cy="0"
       gradientTransform="matrix(0.00401561,0,0,0.00401561,40.602265,16.954792)"
       gradientUnits="userSpaceOnUse"
       id="gradient7"
       r="819.20001"
       spreadMethod="pad"><stop
         offset="0.0"
         stop-color="#00bf00"
         id="stop4138" /><stop
         offset="0.9294117647058824"
         stop-color="#006600"
         id="stop4140" /></radialGradient><radialGradient
       cx="0"
       cy="0"
       gradientTransform="matrix(0.00133854,0,0,0.00133854,59.78795,38.81755)"
       gradientUnits="userSpaceOnUse"
       id="gradient8"
       r="819.20001"
       spreadMethod="pad"><stop
         offset="0.0"
         stop-color="#00bf00"
         id="stop4143" /><stop
         offset="0.9294117647058824"
         stop-color="#006600"
         id="stop4145" /></radialGradient><radialGradient
       cx="0"
       cy="0"
       gradientTransform="matrix(0.01383154,0,0,0.01383154,67.819168,30.563243)"
       gradientUnits="userSpaceOnUse"
       id="gradient9"
       r="819.20001"
       spreadMethod="pad"><stop
         offset="0.0"
         stop-color="#00bf00"
         id="stop4148" /><stop
         offset="0.9294117647058824"
         stop-color="#006600"
         id="stop4150" /></radialGradient><radialGradient
       cx="0"
       cy="0"
       gradientTransform="matrix(0.00758504,0,0,0.00758504,108.42144,37.479013)"
       gradientUnits="userSpaceOnUse"
       id="gradient10"
       r="819.20001"
       spreadMethod="pad"><stop
         offset="0.0"
         stop-color="#00bf00"
         id="stop4153" /><stop
         offset="0.9294117647058824"
         stop-color="#006600"
         id="stop4155" /></radialGradient><radialGradient
       cx="0"
       cy="0"
       gradientTransform="matrix(0.05978795,0,0,0.05978795,130.95347,77.858188)"
       gradientUnits="userSpaceOnUse"
       id="gradient11"
       r="819.20001"
       spreadMethod="pad"><stop
         offset="0.0"
         stop-color="#00bf00"
         id="stop4158" /><stop
         offset="0.9294117647058824"
         stop-color="#006600"
         id="stop4160" /></radialGradient><radialGradient
       cx="0"
       cy="0"
       gradientTransform="matrix(8.9235746e-4,0,0,8.9235746e-4,124.03769,68.934614)"
       gradientUnits="userSpaceOnUse"
       id="gradient12"
       r="819.20001"
       spreadMethod="pad"><stop
         offset="0.0"
         stop-color="#00bf00"
         id="stop4163" /><stop
         offset="0.9294117647058824"
         stop-color="#006600"
         id="stop4165" /></radialGradient><radialGradient
       cx="0"
       cy="0"
       gradientTransform="matrix(0.00178472,0,0,0.00178472,102.17493,83.881601)"
       gradientUnits="userSpaceOnUse"
       id="gradient13"
       r="819.20001"
       spreadMethod="pad"><stop
         offset="0.0"
         stop-color="#00bf00"
         id="stop4168" /><stop
         offset="0.9294117647058824"
         stop-color="#006600"
         id="stop4170" /></radialGradient><radialGradient
       cx="0"
       cy="0"
       gradientTransform="matrix(4.4617873e-4,0,0,4.4617873e-4,73.842581,84.32778)"
       gradientUnits="userSpaceOnUse"
       id="gradient14"
       r="819.20001"
       spreadMethod="pad"><stop
         offset="0.0"
         stop-color="#00bf00"
         id="stop4173" /><stop
         offset="0.9294117647058824"
         stop-color="#006600"
         id="stop4175" /></radialGradient><radialGradient
       cx="0"
       cy="0"
       gradientTransform="matrix(0.00223089,0,0,0.00223089,71.611687,84.32778)"
       gradientUnits="userSpaceOnUse"
       id="gradient15"
       r="819.20001"
       spreadMethod="pad"><stop
         offset="0.0"
         stop-color="#00bf00"
         id="stop4178" /><stop
         offset="0.9294117647058824"
         stop-color="#006600"
         id="stop4180" /></radialGradient><radialGradient
       cx="0"
       cy="0"
       gradientTransform="matrix(0.00223089,0,0,0.00223089,74.734937,86.558673)"
       gradientUnits="userSpaceOnUse"
       id="gradient16"
       r="819.20001"
       spreadMethod="pad"><stop
         offset="0.0"
         stop-color="#00bf00"
         id="stop4183" /><stop
         offset="0.9294117647058824"
         stop-color="#006600"
         id="stop4185" /></radialGradient><radialGradient
       cx="0"
       cy="0"
       gradientTransform="matrix(4.4617873e-4,0,0,4.4617873e-4,74.734937,84.32778)"
       gradientUnits="userSpaceOnUse"
       id="gradient17"
       r="819.20001"
       spreadMethod="pad"><stop
         offset="0.0"
         stop-color="#00bf00"
         id="stop4188" /><stop
         offset="0.9294117647058824"
         stop-color="#006600"
         id="stop4190" /></radialGradient><radialGradient
       cx="0"
       cy="0"
       gradientTransform="matrix(0.00133854,0,0,0.00133854,64.919006,78.081277)"
       gradientUnits="userSpaceOnUse"
       id="gradient18"
       r="819.20001"
       spreadMethod="pad"><stop
         offset="0.0"
         stop-color="#00bf00"
         id="stop4193" /><stop
         offset="0.9294117647058824"
         stop-color="#006600"
         id="stop4195" /></radialGradient><radialGradient
       cx="0"
       cy="0"
       gradientTransform="matrix(8.9235746e-4,0,0,8.9235746e-4,62.911202,77.412009)"
       gradientUnits="userSpaceOnUse"
       id="gradient19"
       r="819.20001"
       spreadMethod="pad"><stop
         offset="0.0"
         stop-color="#00bf00"
         id="stop4198" /><stop
         offset="0.9294117647058824"
         stop-color="#006600"
         id="stop4200" /></radialGradient><radialGradient
       cx="0"
       cy="0"
       gradientTransform="matrix(0.00133854,0,0,0.00133854,64.249737,80.312171)"
       gradientUnits="userSpaceOnUse"
       id="gradient20"
       r="819.20001"
       spreadMethod="pad"><stop
         offset="0.0"
         stop-color="#00bf00"
         id="stop4203" /><stop
         offset="0.9294117647058824"
         stop-color="#006600"
         id="stop4205" /></radialGradient><radialGradient
       cx="0"
       cy="0"
       gradientTransform="matrix(0.00758504,0,0,0.00758504,63.357381,82.543065)"
       gradientUnits="userSpaceOnUse"
       id="gradient21"
       r="819.20001"
       spreadMethod="pad"><stop
         offset="0.0"
         stop-color="#00bf00"
         id="stop4208" /><stop
         offset="0.9294117647058824"
         stop-color="#006600"
         id="stop4210" /></radialGradient><radialGradient
       cx="0"
       cy="0"
       gradientTransform="matrix(0.00133854,0,0,0.00133854,66.257542,79.865993)"
       gradientUnits="userSpaceOnUse"
       id="gradient22"
       r="819.20001"
       spreadMethod="pad"><stop
         offset="0.0"
         stop-color="#00bf00"
         id="stop4213" /><stop
         offset="0.9294117647058824"
         stop-color="#006600"
         id="stop4215" /></radialGradient><radialGradient
       cx="0"
       cy="0"
       gradientTransform="matrix(0.12626858,0,0,0.12626858,63.357381,37.032834)"
       gradientUnits="userSpaceOnUse"
       id="gradient23"
       r="819.20001"
       spreadMethod="pad"><stop
         offset="0.0"
         stop-color="#00bf00"
         id="stop4218" /><stop
         offset="0.9294117647058824"
         stop-color="#006600"
         id="stop4220" /></radialGradient><linearGradient
       inkscape:collect="always"
       xlink:href="#linearGradient4"
       id="linearGradient5"
       x1="59.601101"
       y1="102.76514"
       x2="229.58452"
       y2="76.305458"
       gradientUnits="userSpaceOnUse" /><linearGradient
       inkscape:collect="always"
       xlink:href="#linearGradient11"
       id="linearGradient7"
       gradientUnits="userSpaceOnUse"
       x1="21.648829"
       y1="203.52576"
       x2="80.180855"
       y2="228.38184" /><linearGradient
       inkscape:collect="always"
       xlink:href="#linearGradient15"
       id="linearGradient12"
       gradientUnits="userSpaceOnUse"
       x1="96.484299"
       y1="119.33586"
       x2="226.11002"
       y2="181.34239" /><linearGradient
       inkscape:collect="always"
       xlink:href="#linearGradient18"
       id="linearGradient19"
       x1="50.24667"
       y1="143.52373"
       x2="82.051743"
       y2="143.52373"
       gradientUnits="userSpaceOnUse" /><linearGradient
       inkscape:collect="always"
       xlink:href="#linearGradient20"
       id="linearGradient21"
       x1="106.50692"
       y1="102.71914"
       x2="108.7787"
       y2="96.972839"
       gradientUnits="userSpaceOnUse" /><linearGradient
       inkscape:collect="always"
       xlink:href="#linearGradient20"
       id="linearGradient22"
       gradientUnits="userSpaceOnUse"
       x1="183.54832"
       y1="83.775826"
       x2="185.32849"
       y2="78.151878" /><linearGradient
       inkscape:collect="always"
       xlink:href="#linearGradient18"
       id="linearGradient34"
       gradientUnits="userSpaceOnUse"
       x1="50.24667"
       y1="143.52373"
       x2="82.051743"
       y2="143.52373" /><linearGradient
       inkscape:collect="always"
       xlink:href="#linearGradient8"
       id="linearGradient20-6"
       x1="172.01285"
       y1="112.85851"
       x2="246.51562"
       y2="113.52668"
       gradientUnits="userSpaceOnUse" /><linearGradient
       id="linearGradient8"
       inkscape:collect="always"><stop
         style="stop-color:#9c9c9c;stop-opacity:0.45962733;"
         offset="0"
         id="stop19-2" /><stop
         style="stop-color:#9c9c9c;stop-opacity:1"
         offset="1"
         id="stop20-9" /></linearGradient><linearGradient
       inkscape:collect="always"
       xlink:href="#linearGradient40"
       id="linearGradient42"
       x1="174.7908"
       y1="139.45126"
       x2="77.79776"
       y2="237.1581"
       gradientUnits="userSpaceOnUse" /><linearGradient
       id="linearGradient40"
       inkscape:collect="always"><stop
         style="stop-color:#dc380e;stop-opacity:1;"
         offset="0"
         id="stop41" /><stop
         style="stop-color:#cc4e41;stop-opacity:1;"
         offset="0.74888241"
         id="stop45" /><stop
         style="stop-color:#bd6575;stop-opacity:1"
         offset="0.84558725"
         id="stop43" /><stop
         style="stop-color:#b179a5;stop-opacity:1"
         offset="0.94415152"
         id="stop44" /><stop
         style="stop-color:#b07aa8;stop-opacity:1"
         offset="1"
         id="stop42" /></linearGradient><linearGradient
       inkscape:collect="always"
       xlink:href="#linearGradient30"
       id="linearGradient31"
       x1="132.85863"
       y1="113.67634"
       x2="76.540161"
       y2="167.72693"
       gradientUnits="userSpaceOnUse"
       gradientTransform="translate(41.766369,25.135417)" /><linearGradient
       id="linearGradient30"
       inkscape:collect="always"><stop
         style="stop-color:#ebbb2c;stop-opacity:1"
         offset="0"
         id="stop30" /><stop
         style="stop-color:#dc380e;stop-opacity:0;"
         offset="1"
         id="stop31" /></linearGradient><linearGradient
       inkscape:collect="always"
       xlink:href="#linearGradient32"
       id="linearGradient33"
       x1="176.40535"
       y1="137.86661"
       x2="100.27381"
       y2="211.19398"
       gradientUnits="userSpaceOnUse" /><linearGradient
       id="linearGradient32"
       inkscape:collect="always"><stop
         style="stop-color:#9a200f;stop-opacity:1;"
         offset="0"
         id="stop32" /><stop
         style="stop-color:#9a200f;stop-opacity:1;"
         offset="0.29680544"
         id="stop34" /><stop
         style="stop-color:#d5360f;stop-opacity:1"
         offset="0.75"
         id="stop35" /><stop
         style="stop-color:#de5731;stop-opacity:1"
         offset="1"
         id="stop33" /></linearGradient><radialGradient
       inkscape:collect="always"
       xlink:href="#linearGradient35"
       id="radialGradient37"
       cx="94.822922"
       cy="233.77266"
       fx="94.822922"
       fy="233.77266"
       r="54.309376"
       gradientTransform="matrix(2.6477813,-2.71785,0.5207131,0.50728859,-280.53239,376.27345)"
       gradientUnits="userSpaceOnUse" /><linearGradient
       id="linearGradient35"
       inkscape:collect="always"><stop
         style="stop-color:#877b5a;stop-opacity:0;"
         offset="0"
         id="stop36" /><stop
         style="stop-color:#a2946c;stop-opacity:0;"
         offset="0.10405651"
         id="stop39" /><stop
         style="stop-color:#beae7f;stop-opacity:0.22567287;"
         offset="0.20695651"
         id="stop38" /><stop
         style="stop-color:#f6df9e;stop-opacity:1;"
         offset="0.50589132"
         id="stop40" /><stop
         style="stop-color:#f6d278;stop-opacity:1;"
         offset="1"
         id="stop37" /></linearGradient><radialGradient
       inkscape:collect="always"
       xlink:href="#linearGradient48"
       id="radialGradient49"
       cx="124.07069"
       cy="245.59003"
       fx="124.07069"
       fy="245.59003"
       r="11.054911"
       gradientUnits="userSpaceOnUse"
       gradientTransform="matrix(0.93581135,0,0,0.93581135,-30.899304,-6.015508)" /><linearGradient
       id="linearGradient48"
       inkscape:collect="always"><stop
         style="stop-color:#61240a;stop-opacity:1;"
         offset="0"
         id="stop48" /><stop
         style="stop-color:#c64b17;stop-opacity:1;"
         offset="1"
         id="stop49" /></linearGradient><radialGradient
       inkscape:collect="always"
       xlink:href="#linearGradient21-1"
       id="radialGradient22"
       cx="161.75662"
       cy="138.1256"
       fx="161.75662"
       fy="138.1256"
       r="39.325058"
       gradientTransform="matrix(0.5202294,0.55251378,-0.72963267,0.6869989,187.87538,-50.296414)"
       gradientUnits="userSpaceOnUse" /><linearGradient
       id="linearGradient21-1"
       inkscape:collect="always"><stop
         style="stop-color:#a93d17;stop-opacity:1"
         offset="0"
         id="stop21-2" /><stop
         style="stop-color:#ac3317;stop-opacity:1"
         offset="0.26413018"
         id="stop23" /><stop
         style="stop-color:#8f4419;stop-opacity:1"
         offset="0.4820829"
         id="stop24" /><stop
         style="stop-color:#834527;stop-opacity:1;"
         offset="0.79503679"
         id="stop29" /><stop
         style="stop-color:#662a26;stop-opacity:1"
         offset="1"
         id="stop22" /></linearGradient><linearGradient
       inkscape:collect="always"
       xlink:href="#XMLID_34_-7"
       id="linearGradient3031"
       gradientUnits="userSpaceOnUse"
       x1="64.586403"
       y1="53.105499"
       x2="73.503799"
       y2="62.0233" /><linearGradient
       id="XMLID_34_-7"
       gradientUnits="userSpaceOnUse"
       x1="64.586403"
       y1="53.105499"
       x2="73.503799"
       y2="62.0233"><stop
         offset="0"
         style="stop-color:#31f300;stop-opacity:1;"
         id="stop144-0" /><stop
         offset="0.1798"
         style="stop-color:#85ee75;stop-opacity:1;"
         id="stop146" /><stop
         offset="0.50559998"
         style="stop-color:#3ab420;stop-opacity:1;"
         id="stop148" /><stop
         offset="1"
         style="stop-color:#1d9900;stop-opacity:1;"
         id="stop150-4" /></linearGradient><linearGradient
       inkscape:collect="always"
       xlink:href="#linearGradient19-7"
       id="linearGradient20-1"
       x1="65.800766"
       y1="45.311989"
       x2="80.705116"
       y2="60.111618"
       gradientUnits="userSpaceOnUse" /><linearGradient
       id="linearGradient19-7"
       inkscape:collect="always"><stop
         style="stop-color:#2bf300;stop-opacity:1;"
         offset="0"
         id="stop19-5" /><stop
         style="stop-color:#1af300;stop-opacity:1;"
         offset="0.25"
         id="stop24-3" /><stop
         style="stop-color:#0ff300;stop-opacity:1;"
         offset="0.375"
         id="stop25-5" /><stop
         style="stop-color:#09aa00;stop-opacity:1;"
         offset="0.44662106"
         id="stop21-6" /><stop
         style="stop-color:#01b400;stop-opacity:1;"
         offset="0.59223878"
         id="stop22-2" /><stop
         style="stop-color:#006b03;stop-opacity:1;"
         offset="0.875"
         id="stop23-9" /><stop
         style="stop-color:#1df300;stop-opacity:1;"
         offset="1"
         id="stop20-1" /></linearGradient><linearGradient
       inkscape:collect="always"
       xlink:href="#XMLID_38_-2"
       id="linearGradient3072"
       gradientUnits="userSpaceOnUse"
       gradientTransform="matrix(0.67564,0.106512,0.106512,0.67564,48.168883,44.327711)"
       x1="47.877399"
       y1="-8.1499004"
       x2="52.3013"
       y2="-3.7261" /><linearGradient
       id="XMLID_38_-2"
       gradientUnits="userSpaceOnUse"
       x1="47.877399"
       y1="-8.1499004"
       x2="52.3013"
       y2="-3.7261"
       gradientTransform="matrix(1.2065,0.1902,0.1902,1.2065,35.8319,31.1386)"><stop
         offset="0"
         style="stop-color:#0df300;stop-opacity:1;"
         id="stop182-7" /><stop
         offset="0.26969999"
         style="stop-color:#3cad20;stop-opacity:1;"
         id="stop184-0" /><stop
         offset="0.6573"
         style="stop-color:#28d62b;stop-opacity:1;"
         id="stop186-9" /><stop
         offset="1"
         style="stop-color:#d6e084;stop-opacity:1;"
         id="stop188-3" /></linearGradient><linearGradient
       inkscape:collect="always"
       xlink:href="#XMLID_39_-6"
       id="linearGradient3069"
       gradientUnits="userSpaceOnUse"
       gradientTransform="matrix(0.366296,0.299992,0.299992,0.366296,-38.773861,111.57106)"
       x1="1180.4746"
       y1="-1103.4536"
       x2="1184.8984"
       y2="-1099.0298" /><linearGradient
       id="XMLID_39_-6"
       gradientUnits="userSpaceOnUse"
       x1="1180.4746"
       y1="-1103.4536"
       x2="1184.8984"
       y2="-1099.0298"
       gradientTransform="matrix(0.6541,0.5357,0.5357,0.6541,-119.423,151.216)"><stop
         offset="0"
         style="stop-color:#4eff3e;stop-opacity:1;"
         id="stop193-0" /><stop
         offset="0.26969999"
         style="stop-color:#2fad20;stop-opacity:1;"
         id="stop195-6" /><stop
         offset="0.6573"
         style="stop-color:#3fd628;stop-opacity:1;"
         id="stop197-2" /><stop
         offset="1"
         style="stop-color:#e8e88d;stop-opacity:1;"
         id="stop199-6" /></linearGradient><linearGradient
       inkscape:collect="always"
       xlink:href="#XMLID_40_-1"
       id="linearGradient3066"
       gradientUnits="userSpaceOnUse"
       gradientTransform="matrix(-0.549584,-0.001176,-0.001176,-0.549584,-204.65818,59.751903)"
       x1="-523.88568"
       y1="23.861799"
       x2="-527.36761"
       y2="20.379101" /><linearGradient
       id="XMLID_40_-1"
       gradientUnits="userSpaceOnUse"
       x1="-523.88568"
       y1="23.861799"
       x2="-527.36761"
       y2="20.379101"
       gradientTransform="matrix(-0.9814,-0.0021,-0.0021,-0.9814,-415.645,58.6818)"><stop
         offset="0.2079"
         style="stop-color:#32bd00;stop-opacity:1;"
         id="stop204-8" /><stop
         offset="0.27000001"
         style="stop-color:#08bd06;stop-opacity:1;"
         id="stop206-7" /><stop
         offset="0.37259999"
         style="stop-color:#10b903;stop-opacity:1;"
         id="stop208-9" /><stop
         offset="0.50309998"
         style="stop-color:#21c801;stop-opacity:1;"
         id="stop210-2" /><stop
         offset="0.75279999"
         style="stop-color:#14cb01;stop-opacity:1;"
         id="stop212" /><stop
         offset="0.97189999"
         style="stop-color:#b6cb54;stop-opacity:1;"
         id="stop214" /></linearGradient><linearGradient
       inkscape:collect="always"
       xlink:href="#XMLID_41_"
       id="linearGradient3063"
       gradientUnits="userSpaceOnUse"
       gradientTransform="matrix(-0.549584,-0.001176,-0.001176,-0.549584,-204.65818,59.751903)"
       x1="-492.05319"
       y1="-8.2593002"
       x2="-496.4357"
       y2="-12.339531" /><linearGradient
       id="XMLID_41_"
       gradientUnits="userSpaceOnUse"
       x1="-492.05319"
       y1="-8.2593002"
       x2="-495.40201"
       y2="-11.609"
       gradientTransform="matrix(-0.9814,-0.0021,-0.0021,-0.9814,-415.645,58.6818)"><stop
         offset="0.2079"
         style="stop-color:#13c700;stop-opacity:1;"
         id="stop219" /><stop
         offset="0.27000001"
         style="stop-color:#1bd605;stop-opacity:1;"
         id="stop221" /><stop
         offset="0.37259999"
         style="stop-color:#63fb3c;stop-opacity:1;"
         id="stop223" /><stop
         offset="0.50309998"
         style="stop-color:#55fe41;stop-opacity:1;"
         id="stop225" /><stop
         offset="0.75279999"
         style="stop-color:#4eff3e;stop-opacity:1;"
         id="stop227" /><stop
         offset="0.97189999"
         style="stop-color:#dee373;stop-opacity:1;"
         id="stop229" /></linearGradient><linearGradient
       inkscape:collect="always"
       xlink:href="#XMLID_42_"
       id="linearGradient3060"
       gradientUnits="userSpaceOnUse"
       gradientTransform="matrix(0.602504,0.054096,0.054096,0.602504,35.182819,36.038143)"
       x1="69.661102"
       y1="2.6816001"
       x2="73.694504"
       y2="6.7150002" /><linearGradient
       id="XMLID_42_"
       gradientUnits="userSpaceOnUse"
       x1="69.661102"
       y1="2.6816001"
       x2="73.694504"
       y2="6.7150002"
       gradientTransform="matrix(1.0759,0.0966,0.0966,1.0759,12.6425,16.3358)"><stop
         offset="0"
         style="stop-color:#6fff43;stop-opacity:1;"
         id="stop234" /><stop
         offset="0.47749999"
         style="stop-color:#a5f68f;stop-opacity:1;"
         id="stop236" /><stop
         offset="0.78649998"
         style="stop-color:#e9f100;stop-opacity:1;"
         id="stop238" /></linearGradient><linearGradient
       inkscape:collect="always"
       xlink:href="#XMLID_43_"
       id="linearGradient3057"
       gradientUnits="userSpaceOnUse"
       x1="55.711685"
       y1="56.215038"
       x2="61.1525"
       y2="61.442001"
       gradientTransform="matrix(0.56,0,0,0.56,28.103019,26.890095)" /><linearGradient
       id="XMLID_43_"
       gradientUnits="userSpaceOnUse"
       x1="56.774399"
       y1="57.063999"
       x2="61.1525"
       y2="61.442001"><stop
         offset="0"
         style="stop-color:#1af300;stop-opacity:1;"
         id="stop243" /><stop
         offset="0.47749999"
         style="stop-color:#14bb00;stop-opacity:1;"
         id="stop245" /><stop
         offset="0.78649998"
         style="stop-color:#eff68a;stop-opacity:1;"
         id="stop247" /></linearGradient><linearGradient
       inkscape:collect="always"
       xlink:href="#XMLID_35_-0"
       id="linearGradient3033"
       gradientUnits="userSpaceOnUse"
       gradientTransform="matrix(0.9027,-0.086,-0.086,0.9027,-18.4803,-14.1634)"
       x1="71.991203"
       y1="115.9727"
       x2="78.807442"
       y2="122.97023" /><linearGradient
       id="XMLID_35_-0"
       gradientUnits="userSpaceOnUse"
       x1="71.991203"
       y1="115.9727"
       x2="80.866203"
       y2="124.8477"
       gradientTransform="matrix(0.9027,-0.086,-0.086,0.9027,-18.4803,-14.1634)"><stop
         offset="0"
         style="stop-color: rgb(224, 224, 224);"
         id="stop159" /><stop
         offset="0.2921"
         style="stop-color: rgb(255, 255, 255);"
         id="stop161" /><stop
         offset="1"
         style="stop-color: rgb(99, 99, 99);"
         id="stop163" /></linearGradient><linearGradient
       inkscape:collect="always"
       xlink:href="#XMLID_36_-2"
       id="linearGradient3035"
       gradientUnits="userSpaceOnUse"
       x1="9.0531998"
       y1="110.1631"
       x2="17.5065"
       y2="118.6163" /><linearGradient
       id="XMLID_36_-2"
       gradientUnits="userSpaceOnUse"
       x1="9.0531998"
       y1="110.1631"
       x2="17.5065"
       y2="118.6163"><stop
         offset="0"
         style="stop-color: rgb(255, 255, 255);"
         id="stop168" /><stop
         offset="1"
         style="stop-color: rgb(177, 177, 177);"
         id="stop170" /></linearGradient><linearGradient
       inkscape:collect="always"
       xlink:href="#XMLID_37_-3"
       id="linearGradient3037"
       gradientUnits="userSpaceOnUse"
       gradientTransform="matrix(0.9204,-0.0796,-0.0796,0.9204,-13.4588,-13.4578)"
       x1="41.2607"
       y1="153.6055"
       x2="41.991199"
       y2="134.8568" /><linearGradient
       id="XMLID_37_-3"
       gradientUnits="userSpaceOnUse"
       x1="41.2607"
       y1="153.6055"
       x2="41.991199"
       y2="134.8568"
       gradientTransform="matrix(0.9204,-0.0796,-0.0796,0.9204,-13.4588,-13.4578)"><stop
         offset="0"
         style="stop-color: rgb(185, 185, 185);"
         id="stop175" /><stop
         offset="1"
         style="stop-color: rgb(240, 240, 240);"
         id="stop177-7" /></linearGradient><linearGradient
       id="XMLID_44_"
       gradientUnits="userSpaceOnUse"
       x1="56.450699"
       y1="67.164101"
       x2="60.409199"
       y2="71.123001"><stop
         offset="0"
         style="stop-color: rgb(204, 204, 204);"
         id="stop252" /><stop
         offset="1"
         style="stop-color: rgb(153, 153, 153);"
         id="stop254" /></linearGradient></defs><sodipodi:namedview
     id="base"
     pagecolor="#ffffff"
     bordercolor="#000000"
     borderopacity="0.3"
     inkscape:pageopacity="0.0"
     inkscape:pageshadow="2"
     inkscape:zoom="0.98994949"
     inkscape:cx="505.07627"
     inkscape:cy="476.792"
     inkscape:document-units="mm"
     inkscape:showpageshadow="2"
     inkscape:pagecheckerboard="0"
     inkscape:deskcolor="#d1d1d1"
     inkscape:current-layer="svg1" /><metadata
     id="metadata1"><rdf:RDF><cc:Work
         rdf:about=""><dc:format>image/svg+xml</dc:format><dc:type
           rdf:resource="http://purl.org/dc/dcmitype/StillImage" /><cc:license
           rdf:resource="http://creativecommons.org/publicdomain/zero/1.0/" /></cc:Work><cc:License
         rdf:about="http://creativecommons.org/publicdomain/zero/1.0/"><cc:permits
           rdf:resource="http://creativecommons.org/ns#Reproduction" /><cc:permits
           rdf:resource="http://creativecommons.org/ns#Distribution" /><cc:permits
           rdf:resource="http://creativecommons.org/ns#DerivativeWorks" /></cc:License></rdf:RDF></metadata><g
     id="g2"
     transform="matrix(1.2393286,0,0,1.2393286,1.3947187,11.975284)"
     style="display:inline"><g
       id="g34"
       inkscape:label="shadow"
       transform="matrix(0.83558622,0,0,0.83558622,-0.3038434,-11.615209)"><circle
         style="fill:#1f1f1f;fill-opacity:0.150925;stroke:none;stroke-width:3.99809;stroke-linecap:square;stroke-dasharray:none;stroke-opacity:1"
         id="path32"
         cx="107.25074"
         cy="117.4561"
         r="102.71503" /><circle
         style="fill:#1f1f1f;fill-opacity:0.293087;stroke:none;stroke-width:3.90614;stroke-linecap:square;stroke-dasharray:none;stroke-opacity:1"
         id="circle32"
         cx="104.88839"
         cy="115.09375"
         r="100.35268" /><circle
         style="fill:#1f1f1f;fill-opacity:0.14703;stroke:none;stroke-width:3.81787;stroke-linecap:square;stroke-dasharray:none;stroke-opacity:1"
         id="circle33"
         cx="102.62054"
         cy="112.8259"
         r="98.084824" /><circle
         style="fill:#1f1f1f;fill-opacity:0.293087;stroke:none;stroke-width:3.72591;stroke-linecap:square;stroke-dasharray:none;stroke-opacity:1"
         id="circle34"
         cx="100.25819"
         cy="110.46355"
         r="95.722473" /></g><path
       inkscape:connector-curvature="0"
       style="fill:url(#gradient0);fill-rule:evenodd;stroke:none"
       id="path3998"
       d="m 0,79.419814 q 0,32.794126 23.201294,56.218516 23.424384,23.20129 56.44161,23.20129 32.794146,0 56.218516,-23.20129 23.20131,-23.42439 23.20131,-56.218516 0,-33.017226 -23.20131,-56.218521 Q 112.43705,0 79.642904,0 46.625678,0 23.201294,23.201293 0,46.402588 0,79.419814" /><path
       inkscape:connector-curvature="0"
       style="fill:url(#gradient1);fill-rule:evenodd;stroke:none"
       id="path4000"
       d="m 4.4617874,79.419814 q 0,31.009416 21.8627576,53.095266 22.085848,22.08585 53.318359,22.08585 31.009426,0 53.318366,-22.08585 21.86275,-22.08585 21.86275,-53.095266 0,-31.232512 -21.86275,-53.318359 Q 110.65233,4.0156086 79.642904,4.0156086 q -31.232511,0 -53.318359,22.0858464 Q 4.4617874,48.187302 4.4617874,79.419814" /><path
       inkscape:connector-curvature="0"
       style="fill:url(#gradient2);fill-rule:evenodd;stroke:none"
       id="path4002"
       d="m 46.848768,11.823737 h 1.561625 v 0.892357 h -0.446179 v 2.453982 h 0.446179 V 14.05463 h 3.123251 v 2.007804 h -0.892358 v 0.446179 H 47.964214 V 16.062434 H 46.402589 V 15.616255 H 45.95641 V 14.500809 H 45.510231 V 14.05463 h -0.892357 v -0.446179 h -0.446179 v -0.446179 h 0.892357 v -0.446179 h 0.892358 v -0.446177 h 0.892358 v -0.446179" /><path
       inkscape:connector-curvature="0"
       style="fill:url(#gradient3);fill-rule:evenodd;stroke:none"
       id="path4004"
       d="m 49.748929,10.4852 h 1.338536 v -0.446178 h 0.446179 v 0.892357 h 0.892358 v 0.446179 h 0.446178 v 0.446179 h 1.784715 v 0.892357 h 0.446179 v 0.892357 h 0.892357 v 0.446179 h 0.669268 v 0.446179 h 1.784715 V 14.05463 h 1.784715 v 0.446179 h 1.784715 v 0.669267 h 0.892358 v 3.123252 h 2.900162 v 0.892357 h 0.446178 v 1.338536 h -4.684877 v -1.784715 h -1.338536 v -0.446178 h -0.892357 v 0.446178 h -3.346341 v 0.446179 h -0.446179 v 1.338536 H 55.103074 V 20.9704 h -0.446179 v 0.446179 h -0.892358 v 0.446179 h -0.446178 v 1.338535 h -1.338536 v -3.12325 h -0.446179 v -0.892358 h 0.446179 v -0.446179 h 0.446179 v -0.892357 h 0.892357 V 14.05463 H 52.87218 v -0.446179 h -0.446178 v 0.446179 h -0.446179 v -0.446179 h -1.338537 v -1.784714 h -1.784714 v -0.892358 h 0.892357 V 10.4852" /><path
       inkscape:connector-curvature="0"
       style="fill:url(#gradient4);fill-rule:evenodd;stroke:none"
       id="path4006"
       d="M 54.656895,8.7004853 V 9.1466639 H 54.210716 V 8.7004853 h 0.446179" /><path
       inkscape:connector-curvature="0"
       style="fill:url(#gradient5);fill-rule:evenodd;stroke:none"
       id="path4008"
       d="m 62.018844,7.8081278 h 1.338537 v 0.4461788 h 0.446178 v 0.4461787 h 0.446178 V 10.4852 h 1.115448 v 1.338537 h -0.446179 v 0.892357 h -0.669269 v 0.446178 h -0.446178 v 0.892358 h -3.123251 v -1.338536 h -0.446179 v -0.446178 h 0.446179 V 11.377558 H 59.78795 v -0.446179 h 0.446179 V 10.4852 H 59.78795 V 9.5928429 H 59.341772 V 10.039022 H 58.003236 V 9.5928429 H 57.110878 V 9.1466639 H 56.664699 V 8.7004853 H 55.549252 V 8.2543066 h 1.561626 V 7.8081278 h 1.784715 v 0.8923575 h 0.892357 v 0.4461786 h 0.446179 V 7.8081278 h 0.446179 V 6.9157703 h 1.338536 v 0.8923575" /><path
       inkscape:connector-curvature="0"
       style="fill:url(#gradient6);fill-rule:evenodd;stroke:none"
       id="path4010"
       d="m 67.149899,6.2465023 h 1.784716 V 5.8003236 h 1.784714 V 5.3541448 h 0.446179 V 4.9079661 h 2.453983 v 0.4461787 h 1.338536 V 4.9079661 h 3.123251 v 0.4461787 h 0.446179 v 0.4461788 h 0.446179 v 0.4461787 h 0.446179 v 2.0078043 h 0.446179 v 0.4461787 h 0.446178 v 0.4461786 h -0.892357 v 0.446179 h -0.892358 v 0.4461791 h 1.338537 V 9.5928429 h 2.453983 V 9.1466639 H 84.55087 V 8.7004853 h 2.230894 V 8.2543066 h 0.446178 V 7.8081278 h 1.338536 V 7.3619491 h 0.446179 V 6.9157703 h 1.561626 V 6.2465023 H 91.46664 V 5.8003236 h 5.131055 v 0.4461787 h 1.784716 v 0.669268 h 1.784719 v 0.4461788 h 2.0078 v 0.4461787 h 0.44618 v 0.8923575 h -0.44618 v 0.4461786 h 2.67708 V 10.4852 h -0.44618 v 0.446179 h -0.44618 v 0.446179 h -0.44618 v 0.446179 h 0.89236 v -0.446179 h 0.44618 v -0.446179 h 0.44617 V 9.5928429 h 2.2309 v 0.4461791 h 0.89236 v 0.892357 h -0.44618 v 1.338537 h -0.44618 v 0.446177 h -0.89236 v 0.446179 h -0.44618 v 0.892358 h -0.44618 v 0.446179 h 2.2309 v 0.669267 h -0.44618 v 0.446179 h -3.56943 v 0.446179 h -0.44618 v 1.338537 h 0.44618 v -0.446179 h 0.89236 v -0.892358 h 1.78471 v 0.446179 h 0.44618 v 0.892358 h -1.78472 v 1.338535 h -0.89235 v -0.446178 h -0.89236 v 1.338536 h -0.44618 v 0.446179 h 0.44618 v 1.784715 h 0.44618 V 20.9704 h 0.44618 v -1.784715 h 1.33853 v 0.446179 h 1.33854 v 0.892357 h 0.44618 v 0.892358 h 0.44618 v 0.446179 h 0.44618 v 0.892358 h -2.2309 v 0.446177 h 0.44618 v 0.669269 h 0.44618 v 1.338536 h -0.44618 v 0.446179 h -0.44618 v 0.446178 h -0.44618 v 0.446179 h -0.44618 v 0.446179 h -1.33853 v 1.784715 h 0.44618 v 0.446178 h 0.44618 v 1.784716 h -0.44618 v 1.115446 h -0.44618 v 0.446179 h -1.33854 v 0.446179 h -0.44618 v 0.446179 h -1.56162 v 0.446178 h -0.892363 v -0.446178 h -0.44618 v 0.446178 h -0.44618 v 0.446179 h -1.784713 v 0.892358 h -0.446179 v 0.446178 h -0.446179 v 0.446179 h -0.446178 v 0.446178 h -1.338536 v 0.446179 h -1.338536 v 0.892358 h -0.446179 v 1.338536 H 91.46664 v 1.561626 h -0.446179 v 1.338535 H 89.012657 V 41.717712 H 86.781764 V 41.271533 H 86.335585 V 40.825354 H 85.889406 V 39.709906 H 85.443227 V 39.263728 H 84.997049 V 38.371371 H 84.55087 v -0.892358 h -0.446179 v -0.892358 h -0.446179 v -1.784714 h -0.446179 v -0.446179 h 0.446179 v -0.446179 h 0.446179 v -0.892357 h 0.892358 v -0.446179 h 0.446178 V 32.124868 H 84.997049 V 31.4556 h -1.338537 v -0.446178 h -0.446179 v -0.446179 h 0.446179 v -0.446179 h -1.784714 v -0.446179 h 0.446179 v -0.446179 h 0.446177 V 25.655277 H 82.319977 V 25.209098 H 81.873798 V 23.870562 H 81.427619 V 23.201293 H 80.75835 v -0.446177 h -3.56943 v 0.446177 h -1.338535 v 0.669269 h -0.892358 v -1.115446 h -2.900162 v -0.892358 h -0.446178 v -1.338537 h 2.007804 v -0.446178 h -0.446179 v -0.446179 h -1.115447 v -0.446179 h -0.892357 v -0.446179 h -0.446179 v -0.446178 h 0.446179 v -0.446179 h 0.446179 v -0.446178 h 2.453983 v -0.446179 h 0.446178 v -0.446179 h 1.784716 v -0.446179 h 0.446178 v -0.446179 h -0.446178 v -1.115446 h -1.338537 v -0.892358 h 0.446179 v -0.892358 h -0.446179 v 0.446179 h -1.784715 v 0.446179 h -0.669268 v 0.892358 h -0.446179 v 0.669267 h -0.446178 v 0.446179 h -0.446179 v 0.446179 H 70.27315 v 0.446179 h -0.446178 v 1.338536 h -0.892357 v 0.446179 h -1.784716 v -0.446179 h -1.784714 v -0.446178 h -1.115448 v -0.446179 h -0.446178 v -0.892358 h 0.446178 v -0.446179 h 0.669269 v -1.115446 h 0.446179 V 14.05463 h 0.446179 v -0.446179 h 0.446178 v -0.446179 h 0.892357 v -0.892356 h 0.446179 v -1.338537 h -0.446179 v -0.892357 h 1.784716 V 10.4852 h 0.446178 V 9.5928429 h 2.230894 V 9.1466639 H 67.596078 V 8.7004853 H 66.70372 v -1.784715 h 0.446179 V 6.2465023 M 101.72875,31.009422 h 0.44618 v -0.446179 h -0.44618 v 0.446179" /><path
       inkscape:connector-curvature="0"
       style="fill:url(#gradient7);fill-rule:evenodd;stroke:none"
       id="path4012"
       d="m 38.594461,16.954792 v -0.446179 h 1.115446 v -0.446179 h 0.446179 v -0.446179 h 0.892358 v -0.446179 h 0.892358 v 0.446179 h 1.338535 v 0.446179 h 0.446179 v 0.892358 h -0.446179 v 0.892357 H 42.38698 v 0.446179 h -1.784715 v 0.446178 h -2.453983 v -0.892357 h -0.892358 v -0.446178 h 0.892358 v -0.446179 h 0.446179" /><path
       inkscape:connector-curvature="0"
       style="fill:url(#gradient8);fill-rule:evenodd;stroke:none"
       id="path4014"
       d="m 58.895593,38.371371 h 1.784715 v 0.892357 h -1.784715 v -0.892357" /><path
       inkscape:connector-curvature="0"
       style="fill:url(#gradient9);fill-rule:evenodd;stroke:none"
       id="path4016"
       d="m 60.680308,23.201293 v -1.338535 h 4.238698 v 0.892358 h 0.446179 v 0.446177 h -0.446179 v 0.669269 h 0.892358 v 0.446179 h 2.677072 v 0.446179 h 0.446179 v 0.892357 h 1.338535 v 0.892357 h 0.892358 v 0.446179 h 0.446179 v 0.892358 h 0.892357 v 2.230893 h -0.892357 v 0.446179 h 0.892357 v 0.446179 h 1.115447 V 31.4556 h 0.446179 v 1.115447 h 1.338536 v 1.338536 h 0.446179 v 0.892358 h -0.892358 v 0.446179 h -1.338536 v 0.446178 h -0.446179 v 0.446179 h 0.446179 v 0.892357 h 0.446179 v 1.784716 h -0.892358 v -0.446179 h -0.669268 v 0.892357 H 71.165508 V 38.81755 H 70.719329 V 38.371371 H 69.826972 V 37.925192 H 69.380793 V 37.032834 H 68.488436 V 36.586655 H 66.257542 V 36.140477 H 65.811364 V 35.24812 h 0.446178 v -0.892358 h 0.892357 v 0.446179 h 0.446179 v -0.446179 h 0.446179 v -1.338536 h 0.446179 v -2.453983 h -0.446179 v -0.446179 h -0.446179 v -0.446179 h -0.446179 v -0.446179 h -1.338535 v -0.446178 h -0.892358 v 1.784715 h -0.669269 v 0.446179 H 63.803559 V 30.563243 H 62.911202 V 28.778528 H 62.018844 V 28.33235 H 61.126486 V 26.993813 H 60.680308 V 26.101455 H 60.234129 V 25.655277 H 59.78795 V 24.76292 h 0.446179 v -1.561627 h 0.446179 m 2.677073,6.023413 v 0.892358 h 0.446178 v -0.892358 h -0.446178 m 8.700484,5.577235 v -0.892358 h -0.446178 v 0.892358 h 0.446178" /><path
       inkscape:connector-curvature="0"
       style="fill:url(#gradient10);fill-rule:evenodd;stroke:none"
       id="path4018"
       d="m 114.44485,36.586655 v 1.338537 h -0.44618 v 0.446179 h -0.44618 v 0.446179 h -0.89236 v 0.446178 h -0.89236 v 0.446178 h -2.90015 v 0.669269 h -2.2309 v -0.669269 h -1.33854 v -0.446178 h -0.44617 V 38.81755 h -0.89236 v -0.446179 h -1.33854 v -0.892358 h 0.44618 v -0.446179 h 0.44618 v -0.446179 h -0.89236 v -0.892357 h 0.44618 v -0.892357 h 0.44618 v -0.446179 h 1.33854 v 0.446179 h 0.44617 v 0.446179 h 0.44618 v 0.446178 h 0.44618 V 35.24812 h 0.44618 v -0.446179 h 1.78472 v 0.446179 h 2.45398 v -0.446179 h 1.78471 v 0.446179 h 0.44618 v 0.446178 h 0.44618 v 0.446179 h 0.44618 v 0.446178 h 0.44618" /><path
       inkscape:connector-curvature="0"
       style="fill:url(#gradient11);fill-rule:evenodd;stroke:none"
       id="path4020"
       d="m 117.12192,49.07966 h 0.66927 v -1.561626 h 0.44618 v -0.446178 h 1.78472 v 0.892357 h -0.44618 v 0.669268 h 0.44618 v 0.446179 h 1.33853 v 3.792519 h 0.44618 v 0.446179 h 0.44617 v 0.892358 h 0.44618 v 0.446178 h 0.44618 v 0.446179 h 0.44618 v 1.784715 h 0.44618 v -0.446179 h 0.44618 V 55.99543 h 0.44618 v -0.892357 h 0.44617 v -0.892357 h 2.00781 v -0.446179 h 0.89236 v -1.784715 h -0.44618 v -2.007804 h 0.44618 v -0.446179 h 0.44618 V 49.07966 h -2.23089 v -0.446179 h -0.44618 v -1.561625 h -0.66928 v -0.892358 h 0.66928 v -1.784714 h -0.66928 v -1.338537 h 0.66928 v -0.446179 h -0.66928 v -0.446179 h 1.11546 v -0.446177 h 0.44618 v -0.446179 h 0.44617 v -0.446179 h 0.89236 v -0.446179 h 0.44618 v -0.669269 h 0.44618 v -0.446178 h 0.44618 V 38.81755 h 0.44618 v -0.446179 h 0.44618 v -0.446179 h 0.44618 v -0.892358 h 0.44617 v -0.892357 h 0.44618 V 35.24812 h 0.89236 v -1.338537 h 0.44618 v -0.892357 h 0.44618 v -0.892358 h 0.44618 v -1.561625 h 0.66926 v -0.892358 h 0.44618 v -0.446179 h 1.33854 v 0.446179 h 0.44618 v 0.446179 h 0.44617 v 0.446179 h 0.44618 v 0.446179 h 0.44618 v 1.115446 h 0.44618 v 0.446179 h 0.44618 v 0.446179 h 0.44618 v 0.446179 h 0.44618 v 0.892357 h 0.44618 v 0.446179 h 0.44618 v 0.892357 h 0.44617 v 0.446179 h 0.44618 v 0.446178 h 0.44618 v 0.892358 h 0.66927 v 0.446179 h 0.44617 v 0.892358 h 0.44618 v 0.446178 h 0.44618 v 1.115447 h 0.44618 v 0.892358 h 0.44618 v 0.446179 h 0.44618 v 0.892356 h 0.44618 v 0.892358 h 0.44618 v 0.892358 h 0.44618 v 0.892357 h 0.44618 v 0.892357 h 0.44617 v 0.892358 h 0.44618 v 0.892357 h 0.44618 v 1.115447 h 0.44618 v 1.338536 h 0.44618 v 0.892358 h 0.44618 v 1.561625 h 0.44618 v 0.892358 h 0.66926 v 1.338536 h 0.44618 v 1.338536 h 0.44618 v 1.338537 h 0.44618 v 1.784714 h 0.44618 v 2.007804 h 0.44618 v 1.784716 h 0.44617 v 2.230893 h 0.44618 v 2.230894 h 0.44618 v 22.978204 h -0.89236 v 0.446179 h 0.44618 v 2.453983 h -0.44618 v 2.230894 h -0.44617 v 1.784715 h -0.44618 v 1.784713 h -0.44618 v 1.784705 h -0.44618 v 1.11546 h -0.44618 v 0.44617 h -0.44618 v 0.89236 h -0.66926 v 0.89236 h 0.66926 v 0.89236 h -0.66926 v 0.89236 h -0.44618 v 1.33853 h -0.44618 v 0.89235 h -0.44618 v 1.56163 h -0.44618 v 0.89236 h -0.44618 v 0.89236 h -0.44618 v 0.89235 h -0.44617 v 0.89236 h -0.44618 v 0.89236 h -0.44618 v 0.89236 h -0.44618 v 0.89236 h -0.44618 v 0.89235 h -0.44618 v 0.44618 H 144.785 v 1.11544 h -0.44618 v 0.89236 h -0.44618 v 0.44618 h -0.44618 v 0.89236 h -0.44617 v 0.44618 h -0.66927 v 0.89236 h -0.44618 v 0.44617 h -0.44618 v 0.44618 h -0.44617 v 0.89236 h -0.44618 v 0.44618 h -0.44618 v 0.89236 h -2.67708 v 0.66926 h -2.23089 v -0.66926 h -1.11544 v -2.2309 h -0.44618 v -0.89235 h -0.44618 v -0.44618 h -0.44618 V 121.5837 H 132.292 v -1.78472 h -0.44618 v -0.89236 h -0.44618 V 117.345 h -0.44617 v -1.33853 h -0.44618 v -1.33854 h -0.44618 v -0.89236 h -0.44618 v -0.89236 h -0.44618 v -1.33853 h 0.44618 v -2.00781 h 0.89236 v -0.89236 h -0.44618 v -0.44617 h 0.44618 v -0.44618 h 0.44618 v -1.33853 h -0.44618 v -0.89236 h -0.44618 v -0.44618 h -0.44618 v -1.78472 h -0.44618 v -0.44618 h -0.44618 v -1.56163 h -0.89236 v -0.44618 h -0.44618 v -1.784705 h 0.44618 v -0.892354 h 0.44618 v -1.338537 h -0.44618 v -0.446179 h -2.90016 v -0.446178 h -0.89236 v -0.446179 h -2.23089 v 0.446179 h -1.78471 v 0.446178 h -0.44618 v -0.446178 h -3.34635 v 0.446178 h -2.67707 v -0.446178 h -0.44618 v -0.446179 h -0.44618 v -0.446179 h -0.44618 V 94.58989 h -0.89236 v -0.892357 h -0.44617 v -1.115447 h -0.44618 v -0.446179 h -0.44618 v -0.446178 h -1.11544 V 91.24355 h -0.44618 v -0.446179 h -0.44618 v -0.446178 h -0.44618 v -0.446179 h -0.44618 v -2.677072 h 0.44618 v -0.446179 h 0.44618 v -0.892358 h -0.44618 v -2.007804 h -0.44618 v -0.446179 h 0.44618 v -0.892357 h 0.44618 v -0.446179 h 0.89236 v -2.230893 h 1.56162 v -0.892358 h 0.44618 v -0.446179 h 0.44617 v -0.446179 h 0.89236 v -0.446179 h 0.44618 V 77.18892 h 0.44618 v -0.446178 h 0.44618 v -1.115448 h 0.44618 v -0.892357 h 0.44618 v -0.446178 h 0.44618 V 73.84258 h 0.44617 v -1.338537 h 0.44618 v -0.446179 h -0.44618 v -0.892357 h -0.89235 v -6.469591 h 0.89235 v -0.446179 h 0.89236 v 0.446179 h 4.23871 v -2.677073 h -0.44618 v -0.446179 h -0.44618 v -0.446179 h -0.44618 v -0.446178 h -0.89236 v -1.561626 h 0.89236 v -0.446179 h 1.33854 v -0.446178 h -1.78472 v 0.446178 h -2.00781 v -0.892356 h 0.44618 v -0.446179 h 0.66927 v -0.446179 h 0.89236 v -0.446179 h -0.89236 V 55.99543 h -0.66927 v 0.446179 h -1.33854 v 0.446179 h -1.78471 v -2.677072 h -0.89236 v -0.892358 h 0.44618 v -0.446179 h 0.89236 v 0.446179 h 0.44618 v -1.338536 h 2.90016 v -1.115447 h -0.66927 V 49.07966 m 13.38537,-2.900162 v 0.446179 h -0.44618 v 0.446179 h -0.44618 v 0.892357 h -0.44618 v 0.669268 h -0.44618 v 0.446179 h 0.89236 v -0.446179 h 0.44618 v 1.338537 h 0.44618 v 0.892357 h -0.44618 v 2.007804 h 2.23089 v 0.446179 h 1.78472 v -0.446179 h 0.66926 v -0.446178 h 0.89236 v 0.446178 h 0.44618 v -0.446178 h 0.89236 v -1.115447 h 0.44617 v -1.338536 h 0.44618 v -0.446179 h 0.44618 V 49.07966 h 0.44618 v -0.446179 h 0.44618 v 0.446179 h 0.44618 v 0.446179 h 0.44618 v -0.892358 h -0.44618 v -2.007804 h 0.44618 v -0.446179 h -0.44618 V 45.73332 h -0.89236 v -0.446179 h -0.44618 v -4.461787 h -0.44618 v 0.446179 h -0.89235 v 0.446179 h -0.44618 v 0.446177 h -0.44618 v 2.677073 h 0.89236 v 1.784715 h -0.44618 v 0.446179 h -0.44618 v 0.892357 h -0.44618 v 1.115447 h -0.44618 v 1.338536 h -0.44618 v 0.892358 h -1.11544 v 0.669268 h -1.78472 v -0.669268 h -0.44618 v -0.892358 h -0.44617 V 49.07966 h -0.44618 v -1.115447 h 0.44618 v -1.784715 h -0.44618 m 10.4852,-8.700485 h -1.33854 v 0.446179 h -0.44618 v 0.446179 h -0.44618 v 2.007804 h 0.44618 v -0.669269 h 0.44618 v -0.446178 h 0.44618 V 38.81755 h 0.44618 v -0.446179 h 0.44618 v -0.892358 m 2.0078,8.700485 V 45.73332 h 0.44617 v -0.446179 h -1.11544 v 0.446179 h -1.33853 v 0.446178 h 2.0078 m -9.81593,18.962596 v 0.892358 h 0.89236 v 0.446178 h 0.66926 v 0.446179 h 0.89236 v 0.892358 h 0.44618 v 2.007804 h -0.44618 v 0.446179 h -0.89236 v 0.446179 h -1.11544 v 0.892357 h -0.44618 v -0.446179 h -1.78472 v -0.446178 h -0.44617 v -0.892358 h 1.33853 v -2.007804 h -0.89236 v -0.446179 h -0.44617 V 66.48063 h -0.89236 v -0.446178 h -0.44618 v 3.34634 h -0.44618 v 0.446179 h -1.33854 v -2.900162 h 0.44618 v -1.338536 h -0.89236 v 0.446179 h -2.00781 v -0.446179 h -0.44617 v 1.338536 h -0.44618 v 0.446179 h -1.33854 v 0.446179 h -0.89236 v 1.561625 h -0.44617 v 0.446179 h -0.44618 v 1.784715 h 0.89235 v -0.446179 h 3.12325 v -0.446178 h 4.23871 v 0.446178 h 0.44618 v 2.677073 h 0.44618 v 0.446179 h 1.33853 v 0.446178 h 1.33854 v 0.446179 h 0.44618 v 0.892357 h 0.44618 v 0.669269 h 1.11544 v 0.446178 h 1.33854 v -0.446178 h -0.44618 v -1.115448 h 0.44618 v -0.446178 h 3.12325 v 0.446178 h 2.23089 v 0.446179 h 5.13106 v -0.446179 h 0.44618 v -0.446178 h 0.44617 v -0.892357 h 0.44618 V 73.84258 h 0.44618 v -0.892358 h -0.44618 v -0.446179 h -2.23089 v -0.446179 h -0.44618 v 0.446179 h -1.78472 v -0.446179 h -0.89235 v -0.446178 h -0.66927 v -0.892357 h -0.44618 V 70.27315 h -0.44618 v -1.784715 h -0.44617 v 0.446179 h -0.44618 v 1.784715 h -0.44618 v 0.446178 h -0.44618 v 0.892357 h -1.33854 v -0.446178 h -0.44618 v -0.446179 h -0.44618 V 70.27315 h -0.44617 v -1.784715 h -0.44618 v -1.561626 h -0.44618 V 66.48063 h -0.89236 v -0.446178 h -0.44618 v -0.446179 h -0.66926 v -0.446179 h -0.89236 m 11.15446,14.27772 v 0.446179 h 0.89236 V 78.973635 H 144.785 v -0.446179 h -0.44618 v -0.446179 h -0.44618 v -0.446179 h -0.44618 v 1.784716 h 0.89236 m -11.60064,-3.79252 v 0.446179 h 0.44618 v -0.446179 h -0.44618 m 15.17007,5.131056 h 0.44618 v 0.892357 h 0.44618 v 0.892358 h 0.44618 v 0.892357 h 0.44618 v 0.892358 h 0.44618 v 1.115446 h 0.44618 v 1.784716 h 1.11544 v 0.892356 h 0.44618 v 0.446179 h 0.44618 v 0.446179 h 0.89236 v 0.446179 h 0.44617 v -0.892358 h -0.44617 v -1.338535 h -0.44618 v -0.446179 h -0.44618 v -1.338537 h -0.44618 v -0.446178 h -0.44618 V 84.32778 h -0.44618 v -0.892358 h -0.66926 v -0.892357 h -0.44618 v -0.892358 h -0.44618 v -0.446178 h -0.44618 v -0.892358 h -0.44618 v -0.446178 h -0.44618 v -0.446179 h -0.89235 v 0.446179 h 0.44617 V 80.75835 M 118.23737,53.318358 v 0.446179 h -0.44618 v 0.446179 h 1.33854 v -0.892358 h -0.89236 m 1.33854,6.246502 v 1.115447 h 0.44618 v 0.446178 h 0.44618 V 59.56486 h -0.89236 m 4.0156,-1.784714 v 0.446178 h -0.89236 v 0.446178 h -0.89235 v 0.446179 h 3.12325 v -0.446179 h -0.44618 v -0.892356 h -0.89236 m -6.91577,14.277718 h 1.11545 v 0.446179 h 1.78472 v -0.446179 h 0.89236 v -0.892357 h -1.78472 v 0.446179 h -2.00781 v 0.446178" /><path
       inkscape:connector-curvature="0"
       style="fill:url(#gradient12);fill-rule:evenodd;stroke:none"
       id="path4022"
       d="m 124.48387,69.380792 h -1.33854 v -0.892357 h 1.33854 v 0.892357" /><path
       inkscape:connector-curvature="0"
       style="fill:url(#gradient13);fill-rule:evenodd;stroke:none"
       id="path4024"
       d="m 103.06729,83.435422 h -0.44618 v 0.892358 h -0.44618 v 0.669268 h -0.89236 v -1.561626 h 0.44618 v -0.892357 h 1.33854 v 0.892357" /><path
       inkscape:connector-curvature="0"
       style="fill:url(#gradient14);fill-rule:evenodd;stroke:none"
       id="path4026"
       d="M 74.06567,83.881601 V 84.32778 H 73.619491 V 83.881601 H 74.06567" /><path
       inkscape:connector-curvature="0"
       style="fill:url(#gradient15);fill-rule:evenodd;stroke:none"
       id="path4028"
       d="m 71.611687,84.997048 h -1.784715 v -1.561626 h 3.34634 v 0.892358 h -1.561625 v 0.669268" /><path
       inkscape:connector-curvature="0"
       style="fill:url(#gradient16);fill-rule:evenodd;stroke:none"
       id="path4030"
       d="m 74.06567,87.674121 v -2.230895 h 0.446178 v -0.446178 h 0.892358 v 3.12325 H 74.511848 V 87.674121 H 74.06567" /><path
       inkscape:connector-curvature="0"
       style="fill:url(#gradient17);fill-rule:evenodd;stroke:none"
       id="path4032"
       d="m 74.958027,83.881601 v 0.446179 h -0.446179 v -0.446179 h 0.446179" /><path
       inkscape:connector-curvature="0"
       style="fill:url(#gradient18);fill-rule:evenodd;stroke:none"
       id="path4034"
       d="m 64.919006,78.527456 v 0.446179 H 64.249737 V 77.18892 h 1.115448 v 1.338536 h -0.446179" /><path
       inkscape:connector-curvature="0"
       style="fill:url(#gradient19);fill-rule:evenodd;stroke:none"
       id="path4036"
       d="M 63.803559,77.635098 H 62.018844 V 77.18892 h 1.784715 v 0.446178" /><path
       inkscape:connector-curvature="0"
       style="fill:url(#gradient20);fill-rule:evenodd;stroke:none"
       id="path4038"
       d="m 63.803559,81.204529 v -0.892358 h -0.446178 v -0.892357 h 1.561625 v 1.784715 h -1.115447" /><path
       inkscape:connector-curvature="0"
       style="fill:url(#gradient21);fill-rule:evenodd;stroke:none"
       id="path4040"
       d="m 63.803559,81.204529 v 0.446178 h 1.115447 v 0.446179 h 0.892358 v -0.446179 h 1.784714 v 0.892358 h 0.892358 v 0.446178 h 0.892357 v 1.338537 h -1.338536 v 0.669268 H 66.257542 V 84.32778 h -1.338536 v -0.892358 h -1.115447 v 0.446179 h 0.446178 v 1.115447 h -0.892356 v -2.007805 h -1.338537 v -0.446178 h -0.892358 v -0.446179 h -0.446178 v -0.446179 h -1.338536 v -0.446178 h -0.446179 v 0.446178 h -1.338536 v -1.338536 h 0.892357 v -0.446178 h 1.784715 v 0.446178 h 1.338536 v 0.446179 h 1.338537 v 0.446179 h 0.892357" /><path
       inkscape:connector-curvature="0"
       style="fill:url(#gradient22);fill-rule:evenodd;stroke:none"
       id="path4042"
       d="m 67.149899,79.419814 v 0.892357 h -1.784714 v -0.892357 h 1.784714" /><path
       inkscape:connector-curvature="0"
       style="fill:url(#gradient23);fill-rule:evenodd;stroke:none"
       id="path4044"
       d="m 58.895593,38.371371 h -1.338536 v -0.892358 h -0.892358 v -1.338536 h 0.446179 V 35.24812 h 0.892358 v -0.446179 h 0.446178 v -0.446179 h 0.446179 v 0.892358 h 0.892357 v 0.446178 h 0.446179 v 0.446179 h 0.892357 v 0.892357 h 0.446179 v 0.446179 h 0.446179 v 0.446179 h 0.892358 v -0.446179 h 0.446179 v -0.446179 h 0.892356 v 1.784716 h -1.338535 v 0.446178 h 0.446179 v 0.446178 h 2.900161 v 0.669269 h 0.446178 v 0.446179 h 0.446179 v 0.446179 h 0.892358 v 3.123251 h 0.446179 v 0.446178 h 1.338536 v -0.446178 h 0.892357 v -1.338537 h 0.446179 v -0.446179 h 0.892357 v 0.892358 h 0.446179 v 0.892358 h 0.669268 v 0.892357 h 0.446179 v 1.338536 h 0.446179 v 0.892357 h 0.446178 v 0.446179 h 0.446179 v 1.561626 h 0.446179 v 0.446179 h 1.784714 v 0.446178 h 0.446179 v 0.446179 h 0.446179 v 1.115447 h 0.446179 v 1.784715 h -0.446179 v 0.446179 H 77.18892 v 0.446178 h -0.446178 v 0.446179 h -0.446178 v 0.446178 H 75.850385 V 55.99543 H 74.958027 V 55.549251 H 73.619491 V 55.99543 H 70.27315 v 0.446179 h 1.338537 v 1.784715 h -0.446179 v 1.338536 h 0.446179 v 0.669269 h 0.892357 v 0.446178 h 0.669268 v 0.446178 h 0.446179 v 0.892358 h -1.115447 v 0.446179 h -0.892357 v 0.446179 h -1.784715 v -0.446179 h -0.892357 v 0.446179 h -0.446179 v 0.446179 h -0.446179 v 0.446178 h 0.446179 v 0.446179 h 0.446179 v 0.446179 h -0.446179 v 0.446178 h -3.123251 v 2.677073 h -1.115448 v 1.115447 h -0.892356 v 0.446178 h 0.446178 v 0.892358 h -0.446178 v 0.446179 h -0.446179 v 0.446178 h -0.892358 v 0.892357 h -0.446179 v 0.446179 h -0.446179 v 0.446179 H 60.234129 V 73.84258 H 59.78795 v 1.784714 h 0.446179 v 1.115448 h 0.446179 v 0.892356 h 0.446178 v 1.338537 h -0.446178 v 0.446179 H 59.341772 V 78.973635 H 58.895593 V 78.527456 H 58.449414 V 78.081277 H 58.003236 V 77.18892 H 57.557057 V 75.627294 H 57.110878 V 75.181116 H 52.87218 v 0.446178 h -4.015608 v 0.446179 h -0.892358 v 0.669269 h -0.669268 v 0.446178 h -0.446178 v 1.784715 h 0.446178 v 1.338536 h 0.669268 v 0.892358 h 0.446179 v 1.338536 h 0.446179 v 0.446178 h 1.338535 v 0.446179 h 1.338537 v -0.446179 h 0.892358 v -0.446178 h 0.446178 v -0.892358 h 1.338536 v -0.446178 h 2.453983 v 1.338536 h -0.669268 v 2.900161 h 2.900162 v 3.123251 h -0.446179 v 0.446179 h 0.446179 v 0.892358 h 0.446179 v 0.446179 h 0.892357 v 0.446178 h 0.892357 v -0.446178 h 1.784716 v 0.446178 h 0.446179 v -0.446178 h 0.446178 v -0.892358 h 0.446178 v -0.446179 h 1.561627 v -0.446179 h 0.892356 v -0.446179 h 2.230895 v 0.892358 h 0.892357 v 0.446179 h 0.446178 v 0.446179 h 0.446179 v -0.446179 h 2.900162 v 0.446179 h 0.892357 v 0.446179 h 0.446179 v 0.446178 h 0.446179 v 0.446179 h 0.446179 v 0.446179 h 0.446179 v 0.446178 h 0.446178 v 0.446179 h 0.892357 v 0.446179 h 1.784716 v 0.669268 h 0.446179 v 0.446178 h 0.892356 v 0.446179 h 0.669269 v 0.446179 h 0.446179 v 0.446179 h 0.446179 v 2.230894 h 4.015608 v 1.338533 h 1.338536 v 0.44618 h 1.784715 v 0.44618 h 1.561625 v 0.446165 h 0.446179 v 0.44618 h 1.115447 v 0.44618 h 0.892357 v 3.79253 h -0.446178 v 0.44618 h -0.446179 v 0.89236 h -0.669268 v 0.44617 H 91.46664 v 0.89236 h -0.446179 v 0.89235 h -0.446178 v 2.00781 h -0.446179 v 2.23089 h -0.669268 v 0.89236 h -0.446179 v 0.44618 h -0.446179 v 0.44618 h -0.446179 v 0.44618 h -0.446178 v 0.44618 h -0.892357 v 0.44618 h -1.784715 v 0.89235 h -0.892358 v 0.44618 h -0.446179 v 0.44618 h -0.446179 v 1.56162 h -0.446179 v 0.89236 h -0.446177 v 0.89236 h -0.446179 v 0.44618 h -0.446179 v 1.33853 H 80.75835 v 0.89236 h -0.446178 v 0.89236 h -0.446178 v 0.89236 h -0.446179 v 0.66926 h -2.677073 v 0.44618 h 0.446178 v 2.90017 h -0.446178 v 0.44618 h -0.892357 v 0.44618 h -0.892358 v -0.44618 h -1.338536 v 1.33853 h -0.446179 v 0.89236 h -1.561625 v 0.44618 h 0.446178 v 1.33854 h -0.446178 v 0.89235 h -0.446179 v 1.33853 h -0.446179 v 0.44618 h -0.892357 v 1.56163 h 0.892357 v 2.2309 H 70.27315 v 0.44617 h -0.446178 v 0.44618 h -0.446179 v 0.89236 h -0.446178 v 0.44618 h -0.446179 v 0.89236 h 0.446179 v 1.78471 h 0.446178 v 0.44618 h 0.446179 v 0.66927 h 1.338536 v 0.44617 h 0.446179 v 0.44618 h 0.446178 v 1.33854 h -0.446178 v 0.89236 h -0.892358 v -0.44618 h -0.892357 v 0.44618 h -0.892357 v -0.44618 h -1.784716 v -0.89236 h -0.892357 v -1.33854 h 0.892357 v -1.11544 H 66.70372 v -0.44618 h -0.892356 v 0.44618 h -0.892358 v -0.44618 h -0.669269 v -0.44618 h -0.446178 v -0.44617 h -0.446178 v -5.35415 h 0.446178 v -2.00781 h 0.446178 v -0.44618 h 0.669269 v -3.56942 h -0.669269 v -0.89236 h 0.669269 v -0.89236 h 0.446179 v -0.44618 h -0.446179 v -3.34634 h 0.446179 v -1.33854 h 0.446179 v -2.45398 h 0.446178 v -3.12325 h 0.446178 v -1.33854 h 0.446179 v -7.36194 H 66.70372 v -0.44618 h -0.446178 v -0.44618 h -0.446178 v -0.44618 h -0.892358 v -0.44618 h -1.115447 v -0.66927 h -0.446178 v -0.44618 h -0.446179 v -0.44618 h -0.446179 v -0.44617 h -0.446179 v -2.23089 h -0.446179 v -0.89236 h -0.446179 v -0.89236 h -0.446178 v -0.44618 h -0.446179 v -0.44618 H 59.78795 v -1.33853 h -0.446178 v -1.11546 h 0.446178 v -1.784705 h 0.446179 v -0.446176 h 0.892357 v -0.892357 h 0.446179 v -1.338537 h 0.446179 v -0.892357 h 0.446179 V 94.58989 h 0.446179 V 92.582086 H 62.465023 V 92.135907 H 60.680308 V 91.689729 H 57.557057 V 91.24355 H 56.664699 V 89.905014 H 55.995431 V 89.012656 H 55.549252 V 88.566477 H 54.656895 V 88.120298 H 53.318359 V 87.674121 H 52.87218 V 87.227942 H 52.426002 V 86.781763 H 51.979823 V 86.335584 H 46.848768 V 85.443226 H 44.617874 V 84.997048 H 43.725516 V 84.32778 H 41.940802 V 83.881601 H 41.048444 V 82.543065 H 40.602265 V 80.75835 h -0.446179 v -0.446179 h -0.446179 v -0.446178 h -1.115446 v -0.892358 h -0.892358 v -0.446179 h -0.446179 v -0.892358 h -0.892356 v 0.892358 h 0.446177 v 0.446179 h 0.446179 v 0.892358 h 0.446179 v 0.446178 h 0.446179 v 0.892358 H 36.809745 V 80.75835 H 35.917389 V 79.865993 H 35.47121 V 79.419814 H 35.025031 V 78.527456 H 34.578852 V 78.081277 H 34.132673 V 77.635098 H 33.240316 V 76.742742 H 32.794137 V 75.627294 H 32.347959 V 75.181116 H 31.90178 V 74.288759 H 31.455601 V 73.84258 H 30.786333 V 72.504043 H 30.340154 V 72.057864 H 29.001618 V 71.611686 H 28.555439 V 71.165507 H 28.109261 V 70.27315 h -0.892358 v -0.892358 h -0.446179 v -0.446178 h -0.446179 v -1.115447 h -0.446178 v -0.892358 h -0.446178 v -4.461787 h 0.446178 v -2.230893 h 0.446178 V 56.887788 H 25.878367 V 56.441609 H 25.432189 V 55.99543 H 24.539831 V 55.549251 H 24.093652 V 55.103073 H 23.201294 V 54.656894 H 22.532027 V 53.764537 H 22.085848 V 53.318358 H 21.639669 V 52.872179 H 21.19349 V 51.310554 H 20.747311 V 49.972018 H 21.19349 V 49.525839 H 20.301133 V 49.07966 H 19.854954 V 47.518034 H 18.962597 V 46.625677 H 18.516418 V 46.179498 H 18.070239 V 45.73332 H 16.731703 V 45.287141 H 14.723899 V 44.840962 H 14.27772 v -0.446178 h -0.446179 v -0.892358 h 0.446179 v -0.892358 h 0.446179 v -0.892356 h 0.446178 v -0.446179 h 0.446179 v -0.892358 h 0.446179 v -1.115447 h 0.669268 V 38.81755 h 0.446179 v -0.892358 h 0.446178 v -0.446179 h 0.446179 v -0.892358 h 0.446179 v -0.446178 h 0.446179 v -0.446179 h 0.446179 v -0.892357 h 0.446178 v -0.446179 h 0.446179 v -0.892357 h 0.446178 v -0.446179 h 0.446179 v -0.446179 h 0.446179 v -0.446179 h 0.446179 v -1.115446 h 0.446179 v -0.446179 h 0.669267 v -0.446179 h 0.446179 v -0.446179 h 0.446179 v -0.446179 h 0.446179 V 28.778528 H 24.98601 V 28.33235 h 0.446179 v -0.446179 h 0.446178 v -0.446179 h 0.446178 v -0.446179 h 0.446179 v -0.446179 h 2.230894 v 0.446179 h 0.892358 v 0.446179 h 0.892357 v 0.446179 h 0.669268 v 0.446179 h 0.446179 v 0.446178 h 0.446179 v -0.892357 h 0.892357 v 0.446179 h 0.446179 v 0.446178 h 0.446178 v 1.338536 h -0.446178 v 0.446179 h 2.230894 v -0.446179 h 0.892356 v 0.446179 h 0.446179 V 31.4556 h 0.446179 v -0.446178 h 0.446179 v -0.446179 h -0.446179 v -1.338537 h 0.446179 v -0.446178 h 2.007804 V 28.33235 h 0.446179 v 0.446178 h 0.446179 v 0.892357 h 1.338536 v 0.446179 h 0.446179 v 0.446179 h 0.446178 v 0.446179 h 0.446179 v -0.446179 h 1.784715 v -1.338537 h 2.900162 v 0.892358 h -0.446179 v 0.446179 h 1.338536 v -0.446179 h 0.446179 V 29.224706 H 49.30275 v -0.446178 h -0.446178 v -0.892357 h -0.446179 v -0.446179 h -1.115447 v 0.446179 h -0.892357 v -0.446179 h -0.892358 v -1.338537 h -0.446179 v 0.892358 h -0.446178 v 0.446179 H 42.38698 v -0.446179 h -1.338536 v 0.446179 h -2.453983 v 0.446179 h -2.230893 v -0.446179 h -0.446179 v -0.446179 h -1.338537 v -0.446179 h -0.446179 v -1.338536 h 3.56943 V 24.76292 h -0.892358 v -0.446179 h -0.892356 v 0.446179 h -1.784716 v -0.446179 h -0.892357 v -1.561625 h -0.446179 v -0.892358 h -0.446178 v 0.446179 h -0.892358 v -0.446179 h 0.446179 v -0.446179 h 0.892357 V 20.9704 h 0.446179 v -0.446179 h 0.446179 v -0.446178 h 0.446178 v -0.446179 h 0.446179 v 0.446179 h 0.446179 v -0.892358 h 0.446179 v -0.446179 h 0.446179 v 0.446179 h 0.892356 v 1.338536 h 0.446179 v -0.892357 h 1.338537 v 0.446179 h 2.007804 v 0.446178 h 0.446179 v -0.446178 h 1.338536 v 0.446178 h 0.446179 v 2.677072 h 0.446178 v 1.115448 h 1.338537 v 0.446179 h 1.338536 v 1.338535 h 0.892358 v -0.892357 h 1.115446 v -0.892357 h 0.446179 v -0.446179 h 0.446179 v -1.115446 h -0.446179 v 0.446177 H 45.95641 V 22.755116 H 45.064052 V 21.862758 H 44.617874 V 21.416579 H 44.171695 V 20.9704 h -0.446179 v -1.338536 h 1.338536 v -1.784715 h 0.446179 v -0.446178 h 2.900162 v 0.446178 h 0.446179 v 4.015609 h 2.230893 v 2.007804 h 0.446179 v 1.784715 h 0.446179 v 2.230894 h 1.338536 v 0.446179 h 0.446178 v -0.446179 h 0.892358 v 1.784714 h 0.446179 v 0.446179 h 0.446178 v -1.338536 h 0.446179 V 28.33235 h 0.669268 v -0.446179 h -0.669268 v -1.338537 h 2.453983 v 1.338537 h 0.892358 v 1.338535 h -0.446179 v 0.446179 h -0.446179 v 0.446179 h 0.892358 v 2.453983 h -0.446179 v 0.446179 h -0.446179 v 0.892357 h -1.784715 v 0.446179 h -1.115447 v -0.446179 h -1.338536 v 0.446179 h 0.892358 v 1.338536 h -0.446179 v 0.446179 h -0.446179 v 0.892357 h -0.446179 v 2.230894 h -2.230893 v 0.446178 h -0.892358 v 1.115448 h -0.446179 v 0.446179 h -0.446178 v 0.446179 H 49.30275 v 0.446177 h -0.446178 v 1.338537 h -0.446179 v 0.892358 h 0.446179 v 0.446178 h 0.446178 v 0.446179 h 0.446179 v -0.446179 h 0.446178 v 0.892358 h 0.446179 v 0.446178 h 0.892358 v 0.892358 h 0.446179 v 1.561625 h 0.446179 v 0.446179 h 0.446178 v 0.446179 h 4.238698 v 0.446179 h 0.446179 v 1.338536 h 0.446179 v 1.561625 h 0.446178 v 0.446179 h 0.446179 v 0.892358 h 0.446179 v 0.446178 h 0.446178 v -0.446178 h 0.446179 V 53.318358 H 59.78795 v -3.34634 h 0.446179 v -0.446179 h 0.446179 V 49.07966 h 0.446178 v -0.446179 h 0.446179 v -0.669268 h -0.446179 v -1.784715 h -0.446178 v -2.677072 h 0.446178 v -1.338537 h -0.446178 v -1.784714 h 0.446178 v -2.453983 h -0.892357 v -0.446179 h -0.892357 v 0.446179 h -0.446179 v 0.446179 m 22.978205,59.78795 v -0.446179 h -0.446179 v 0.446179 h 0.446179 m -1.115448,0 v 0.446178 h 0.669269 V 98.159321 H 80.75835 M 69.380793,56.887788 h -0.446178 v 0.446179 h 0.446178 v -0.446179 m 0.892357,-0.446179 h -0.446178 v 0.446179 h 0.446178 v -0.446179 m -1.784714,1.338537 v -0.446179 h -0.446179 v 0.446179 h 0.446179 M 55.549252,58.672502 H 54.656895 V 58.226324 H 54.210716 V 57.780146 H 52.87218 v 0.446178 h -0.446178 v 0.446178 h -0.446179 v 0.446179 h 1.784714 v -0.446179 h 0.446179 v 0.446179 h 1.338536 v -0.446179 m 1.561626,1.561627 v 0.446178 h 0.892358 v 1.338536 h 0.446178 v -1.338536 h 0.446179 v -0.446178 h -1.784715 m 4.461787,1.784714 h 0.446179 v -0.446179 h -0.892358 v 1.338537 h 0.446179 v -0.892358 m 1.338537,0 h 0.446179 v -0.446179 h -0.446179 v 0.446179 M 60.234129,60.680307 H 59.78795 v 0.446178 h 0.446179 v -0.446178 m 0.446179,2.677073 h 0.446178 v -0.446179 h -1.784714 v 0.446179 h -0.446179 v 0.446178 h 1.784715 V 63.35738 m -1.784715,-2.677073 v 0.446178 h 0.446179 v -0.446178 h -0.446179 m -3.346341,0.892357 h -0.446178 v 0.446179 h -0.446179 v 1.338537 h -0.446179 v 0.446178 h 0.892358 v -1.338536 h 0.446178 v -0.892358 m -20.9704,13.608452 h -0.446179 v 0.446178 h 0.446179 v -0.446178" /></g><g
     id="rect1"
     style="display:inline"
     transform="matrix(1.035566,0,0,1.035566,-3.9637973,-4.0804285)"><g
       id="g4"
       style="display:inline"
       inkscape:label="shadow"><path
         style="color:#000000;display:inline;fill:#424242;fill-opacity:0.142162;stroke-width:1.04383;stroke-linecap:square;-inkscape-stroke:none"
         d="m 49.987349,102.15213 160.949361,-36.100794 34.23947,9.419067 c 3.38069,0.930007 4.30025,5.745283 4.30528,9.686336 l 0.12492,97.861601 c 0.005,3.77531 -2.03699,6.70819 -6.42318,8.19266 L 89.816052,243.11708 c -3.529603,1.19457 -6.470603,0.50703 -9.891124,-1.12293 L 51.963399,228.66981 c -1.386406,-0.66066 -1.303969,-2.45763 -1.314206,-4.34741 z"
         id="path3"
         inkscape:label="shadow"
         sodipodi:nodetypes="ccssssssssc" /><path
         style="color:#000000;display:inline;fill:#424242;fill-opacity:0.142162;stroke-width:1.03495;stroke-linecap:square;-inkscape-stroke:none"
         d="m 49.987349,101.84492 159.579731,-35.793584 33.9481,9.338914 c 3.35193,0.922093 4.26366,5.696392 4.26865,9.603908 l 0.12385,97.028832 c 0.005,3.74318 -2.01965,6.6511 -6.36852,8.12294 L 89.477122,241.61031 c -3.499567,1.1844 -6.41554,0.50271 -9.806953,-1.11338 L 51.946583,227.28598 c -1.374608,-0.65504 -1.292872,-2.43672 -1.303022,-4.31042 z"
         id="path27"
         inkscape:label="shadow"
         sodipodi:nodetypes="ccssssssssc" /><path
         style="color:#000000;display:inline;fill:#1f1f1f;fill-opacity:0.293087;stroke-width:1.0294;stroke-linecap:square;-inkscape-stroke:none"
         d="m 49.987349,101.65292 158.723711,-35.601584 33.766,9.288818 c 3.33395,0.917147 4.24079,5.665836 4.24575,9.552391 l 0.12319,96.508345 c 0.005,3.72311 -2.00882,6.61543 -6.33436,8.07937 L 89.265291,240.66858 c -3.480795,1.17804 -6.381126,0.50001 -9.754347,-1.10741 L 51.936073,226.42108 c -1.367234,-0.65152 -1.285937,-2.42364 -1.296032,-4.28729 z"
         id="path28"
         inkscape:label="shadow"
         sodipodi:nodetypes="ccssssssssc" /><path
         style="color:#000000;display:inline;fill:#161616;fill-opacity:0.274586;stroke-width:1.02274;stroke-linecap:square;-inkscape-stroke:none"
         d="m 49.987349,101.42252 157.696491,-35.371184 33.54747,9.228703 c 3.31238,0.911211 4.21335,5.629168 4.21828,9.49057 l 0.12239,95.883771 c 0.005,3.69901 -1.99582,6.57261 -6.29337,8.02708 L 89.011094,239.5385 c -3.458268,1.17042 -6.339829,0.49677 -9.69122,-1.10024 L 51.923461,225.38321 c -1.358385,-0.64731 -1.277614,-2.40796 -1.287644,-4.25955 z"
         id="path29"
         inkscape:label="shadow"
         sodipodi:nodetypes="ccssssssssc" /><path
         style="color:#000000;display:inline;fill:#171717;fill-opacity:0.355404;stroke-width:1.01682;stroke-linecap:square;-inkscape-stroke:none"
         d="m 49.987349,101.21784 156.783991,-35.166504 33.35335,9.175302 c 3.29322,0.905939 4.18898,5.596595 4.19388,9.435654 l 0.12167,95.328948 c 0.005,3.67761 -1.98426,6.53458 -6.25695,7.98063 L 88.785287,238.53464 c -3.438257,1.16364 -6.303144,0.49389 -9.635142,-1.09388 L 51.912257,224.46125 c -1.350524,-0.64356 -1.27022,-2.39403 -1.280192,-4.2349 z"
         id="path30"
         inkscape:label="shadow"
         sodipodi:nodetypes="ccssssssssc" /><path
         style="color:#000000;display:inline;fill:#101010;fill-opacity:0.30185;stroke-width:1.00942;stroke-linecap:square;-inkscape-stroke:none"
         d="M 49.987349,100.96171 205.6294,66.051336 l 33.11041,9.108473 c 3.26924,0.89934 4.15847,5.555832 4.16333,9.366929 l 0.12079,94.634612 c 0.005,3.65082 -0.46328,5.33727 -4.69948,6.78858 L 88.502699,237.27834 c -3.408888,1.16787 -6.257234,0.4903 -9.564964,-1.08591 L 51.898237,223.30746 c -1.340688,-0.63888 -1.260969,-2.37659 -1.270868,-4.20406 z"
         id="path31"
         inkscape:label="shadow"
         sodipodi:nodetypes="ccssssssssc" /></g><path
       id="rect4"
       style="fill:url(#linearGradient5);stroke-width:3.96499;stroke-linecap:square"
       d="M 50.948249,101.32857 203.92664,66.550121 241.34438,77.775442 82.653097,114.19091 Z"
       sodipodi:nodetypes="ccccc" /><path
       id="path7"
       style="display:inline;fill:url(#linearGradient7);stroke-width:3.96499;stroke-linecap:square"
       d="M 50.948249,101.32857 50.7812,220.76464 84.189897,238.13716 82.653097,114.19091 Z"
       sodipodi:nodetypes="ccccc" /><path
       id="path11"
       style="display:inline;fill:url(#linearGradient12);stroke-width:3.96499;stroke-linecap:square"
       d="M 241.51142,77.007043 240.80983,180.67421 83.150462,238.56238 82.719914,114.12409 Z"
       sodipodi:nodetypes="ccccc" /><g
       id="g22"><path
         id="rect16"
         style="display:inline;fill:#841505;stroke-width:3.96499;stroke-linecap:square"
         d="m 117.17262,135.3391 0.51972,-29.22228 5.28078,-1.29049 -0.46969,29.26715 75.31019,-20.51365 0.0381,-26.259236 5.45026,-1.336348 0.27192,26.225824 36.08604,-9.75534 0.10023,7.03551 -71.09051,17.97904 0.42106,33.19144 70.44705,-20.69369 0.2997,8.34974 -35.39029,10.1368 -0.31173,33.63751 -5.63027,2.09647 -0.19503,-33.93721 -75.1222,22.04163 0.79716,39.28862 -6.07357,2.15019 -0.14674,-40.58975 -34.686229,9.57445 -32.336852,-11.7228 -0.490551,-7.31819 33.085373,11.67139 77.898179,-22.69846 -0.0991,-32.62313 -78.264636,19.44167 -31.013548,-10.69797 -0.06207,-4.70067 30.957499,9.77625 z"
         sodipodi:nodetypes="ccccccccccccccccccccccccccccccccc"
         inkscape:label="rost" /><g
         id="g16"><path
           id="path16"
           style="display:inline;fill:#ffce5e;fill-opacity:1;stroke-width:3.96499;stroke-linecap:square"
           d="m 122.05029,139.08087 0.3008,-34.06555 -33.464289,-12.142875 5.579355,-1.274484 33.393144,11.940249 -0.68063,34.23358 75.73762,-20.36495 0.0803,-31.456002 -35.55194,-10.372313 6.34254,-1.418784 33.63235,10.859995 -0.0187,31.111834 31.88105,-8.33793 0.053,4.67316 -68.52713,17.70858 -0.1107,35.68251 69.57564,-20.34502 -0.16802,4.3407 -33.45259,9.7359 0.156,32.23434 -4.02666,1.69557 -0.0614,-33.06859 -76.39173,22.50935 0.0622,37.41774 -4.00224,2.41746 0.25417,-38.58523 -39.469405,11.1512 -31.963624,-11.06117 -0.02856,-4.14945 32.013921,11.14832 83.709558,-24.21037 0.21142,-36.06209 -84.386535,22.26642 -30.871807,-10.74522 -0.06207,-4.03921 31.004746,10.5322 z"
           sodipodi:nodetypes="ccccccccccccccccccccccccccccccccccccc"
           inkscape:label="yellow" /><path
           id="rect18"
           style="fill:url(#linearGradient34);stroke-width:3.96499;stroke-linecap:square"
           d="m 50.51394,133.3675 32.874151,10.55714 -1.069078,9.48807 -30.602361,-10.69079 z"
           sodipodi:nodetypes="ccccc" /><path
           id="path19"
           style="fill:url(#linearGradient19);stroke-width:3.96499;stroke-linecap:square"
           d="m 50.914844,173.99247 32.072343,11.39236 -0.133635,9.78874 -31.738256,-10.89124 z"
           sodipodi:nodetypes="ccccc" /><path
           id="rect19"
           style="fill:url(#linearGradient21);stroke-width:3.96499;stroke-linecap:square"
           d="m 94.613418,91.673448 33.475512,11.693042 c -1.5299,1.34399 -3.13934,2.49711 -5.54584,1.73725 L 88.198949,92.876161 Z"
           sodipodi:nodetypes="ccccc" /><path
           id="path21"
           style="fill:url(#linearGradient22);stroke-width:3.96499;stroke-linecap:square"
           d="m 174.03022,74.0728 33.36955,11.088328 c -1.66724,1.069313 -2.32232,1.029472 -4.38227,0.96271 l -35.449,-10.564843 z"
           sodipodi:nodetypes="ccccc" /></g></g><path
       style="color:#000000;fill:#000000;stroke-linecap:square;-inkscape-stroke:none"
       d="M 204.23437,64.007812 47.990234,99.052734 49.103516,222.63867 82.898437,238.92383 242.81445,181.84766 242.83008,74.917969 Z m -0.11328,4.087891 34.74414,9.820313 -0.0156,101.136714 L 83.126953,234.63281 53.044922,220.13672 51.984375,102.21875 Z"
       id="path4" /></g><g
     id="g35"
     transform="matrix(0.71753979,0,0,0.71753979,92.014693,40.454552)"
     style="display:none"><g
       id="path1"
       transform="matrix(-1.4010926,-0.02374733,-0.02374733,1.4010926,438.23678,130.1425)"
       style="display:inline"><path
         style="color:#000000;display:inline;fill:#dbdbdb;stroke-linecap:round;stroke-linejoin:round;-inkscape-stroke:none"
         d="m 264.5874,-60.74299 c -0.76977,10.605051 -3.64161,16.322836 -11.54946,22.718542 -3.95393,3.197852 -11.3281,6.70664 -11.3281,6.70664 l -0.21011,12.808222 -38.483,-2.622435 0.25061,-9.758188 c 0,0 -7.00842,-2.682325 -10.65888,-5.603322 -7.30092,-5.841994 -12.58669,-14.946236 -12.58669,-25.540322 0,-10.594088 5.78965,-21.909935 13.08039,-30.244045 6.89007,-7.876092 14.72821,-11.899102 14.72821,-11.899102 l -0.0868,38.074188 29.29047,0.213427 -0.80269,-37.682525 c 0,0 9.00103,4.238952 14.68689,10.186588 7.32575,7.663022 14.87117,16.082435 13.84357,30.239516 z"
         id="path3-3" /><path
         id="rect20"
         style="display:inline;fill:#b5b5b5;fill-opacity:0;stroke:#6f6f6f;stroke-width:3;stroke-linecap:square;stroke-linejoin:miter"
         d="m 174.5948,127.83073 11.67724,11.7393 -7.72789,7.90067 -11.76797,-11.63097 z"
         sodipodi:nodetypes="ccccc"
         transform="rotate(-44.028979)" /><path
         style="color:#000000;display:inline;fill:url(#linearGradient20-6);stroke-linecap:round;stroke-linejoin:round;-inkscape-stroke:none"
         d="m 231.25027,141.69057 c -7.92422,7.08988 -12.76029,8.13585 -22.8911,7.23816 -5.0654,-0.44885 -12.80603,-3.05128 -12.80603,-3.05128 l -9.05307,9.06293 -21.83713,-23.15301 6.96234,-6.84184 c 0,0 1.81261,-2.6874 0.40968,-5.64989 -1.2791,-2.70097 -2.41164,-5.47286 -2.70888,-7.79151 -1.18896,-9.27463 -0.26534,-17.890586 7.09778,-25.507611 7.36313,-7.617026 18.72241,-12.664496 29.75676,-13.589399 10.42794,-0.874065 13.24689,0.478405 13.24689,0.478405 l -24.78756,24.909146 22.14863,21.681259 c 2.1188,1.92295 4.76634,1.60511 6.64699,-0.36848 l 21.06948,-22.03852 c 0,0 2.0555,5.02736 2.00983,13.25544 -0.0588,10.60118 -2.89085,20.29528 -13.4692,29.75983 z"
         id="path5"
         sodipodi:nodetypes="ssccccsssscccccsss"
         transform="rotate(-44.028979)" /><g
         id="g20"
         transform="rotate(-44.028979)"><path
           id="rect5"
           style="fill:#ebebeb;fill-opacity:0.616088;stroke-width:3;stroke-linecap:round;stroke-linejoin:round"
           d="m 178.00151,75.102737 9.08716,-4.409947 0.40091,82.98719 -9.48807,-10.82441 z"
           sodipodi:nodetypes="ccccc" /><path
           id="path6"
           style="fill:#ffffff;fill-opacity:0.665448;stroke-width:3;stroke-linecap:round;stroke-linejoin:round"
           d="m 209.40582,66.683785 -12.42818,1.470194 -0.26717,76.037741 c 3.31741,3.72303 7.41798,5.0962 12.1605,4.5439 l 0.25632,-39.32886 -10.01128,-10.250022 c -1.55083,-1.09135 -2.46242,-3.117646 -1.13636,-4.676717 l 11.3223,-11.828735 z" /></g><path
         style="color:#000000;display:inline;fill:#6f6f6f;stroke-linecap:round;stroke-linejoin:round;-inkscape-stroke:none"
         d="m 208.14062,-105.64453 a 1.50015,1.50015 0 0 0 -0.99609,0.13281 c 0,0 -8.07729,4.13622 -15.17187,12.246095 -7.47465,8.544339 -13.45118,20.091847 -13.45118,31.232422 0,11.093011 5.53165,20.61463 13.15039,26.710937 3.53596,2.829377 8.68696,4.876032 10.07032,5.41211 l -0.22461,8.740234 a 1.50015,1.50015 0 0 0 1.39648,1.535156 l 38.48438,2.621094 A 1.50015,1.50015 0 0 0 243,-18.484375 l 0.19336,-11.908203 c 1.2284,-0.588837 6.96353,-3.372416 10.78711,-6.464844 8.10965,-6.558919 11.31706,-12.942458 12.10351,-23.777344 l 0.17383,-2.402343 c 1.06909,-14.728689 -6.90639,-23.69694 -14.25586,-31.384766 -5.98626,-6.261865 -15.13086,-10.507815 -15.13086,-10.507815 a 1.50015,1.50015 0 0 0 -2.13867,1.39063 l 0.76953,36.138669 -26.25586,-0.191406 0.084,-36.582033 a 1.50015,1.50015 0 0 0 -1.18946,-1.4707 z m -1.8164,4.17969 -0.0801,35.359371 a 1.50015,1.50015 0 0 0 1.48828,1.501953 l 29.29102,0.214844 a 1.50015,1.50015 0 0 0 1.50976,-1.533203 l -0.74804,-35.080075 c 2.54201,1.325906 7.82116,4.230033 12.04882,8.652341 7.30203,7.638202 14.41775,15.510258 13.43164,29.095703 l -0.17382,2.402344 c -0.75309,10.375195 -3.29202,15.427676 -10.99805,21.660156 -3.66204,2.961774 -11.0293,6.519531 -11.0293,6.519531 a 1.50015,1.50015 0 0 0 -0.85351,1.330078 l -0.18555,11.228516 -35.47266,-2.417969 0.21485,-8.320312 a 1.50015,1.50015 0 0 0 -0.96485,-1.439454 c 0,0 -6.98885,-2.757318 -10.25781,-5.373046 -6.98308,-5.587669 -12.02344,-14.274001 -12.02344,-24.369141 0,-10.04758 5.60217,-21.133948 12.70899,-29.257813 5.1047,-5.83522 9.71334,-8.769564 12.09375,-10.173824 z"
         id="path4-6" /><g
         id="rect21"
         transform="rotate(-44.028979)"><path
           style="color:#000000;fill:url(#linearGradient42);stroke-linecap:round;stroke-linejoin:round;-inkscape-stroke:none"
           d="m 156.86012,125.67709 c 2.83583,-2.99736 5.32678,-0.3467 7.17078,1.61508 l 23.41811,23.72701 c 1.17209,1.17589 4.02961,3.05303 1.751,5.33458 0,0 -54.86837,55.03464 -81.85477,81.96024 -8.687173,8.6676 -19.467859,14.11319 -32.41146,1.13393 -12.943601,-12.97926 -4.808961,-25.66778 -1.984372,-28.53721 28.824762,-29.28237 83.910712,-85.23363 83.910712,-85.23363 z"
           id="path29-0" /><path
           id="rect29"
           style="fill:url(#linearGradient31);stroke-width:4;stroke-linecap:round;stroke-linejoin:round"
           d="m 159.88392,123.22024 30.99404,30.99405 -56.88541,57.0744 -35.529761,-26.83631 z"
           sodipodi:nodetypes="ccccc" /><path
           id="rect31"
           style="display:inline;fill:#dc390e;stroke:url(#linearGradient33);stroke-width:4.8;stroke-linecap:round;stroke-linejoin:round;stroke-dasharray:none"
           d="m 169.14435,132.10267 13.04017,13.22917 -78.24107,79.56399 c -1.30344,-8.77722 -6.445104,-13.46034 -15.308032,-14.17411 z"
           sodipodi:nodetypes="ccccc" /><path
           id="rect35"
           style="display:inline;fill:#f6e1a5;fill-opacity:0;stroke:url(#radialGradient37);stroke-width:4.8;stroke-linecap:round;stroke-linejoin:round;stroke-dasharray:none"
           d="m 163.28571,127 18.86639,18.31088 c 0,0 -67.60535,68.95559 -84.989295,85.57722 -14.125294,17.10475 -29.503035,-6.04294 -16.70923,-19.13365 z"
           sodipodi:nodetypes="cccsc" /><circle
           style="display:inline;fill:url(#radialGradient49);fill-opacity:1;stroke:#b43a18;stroke-width:1.778;stroke-linecap:round;stroke-linejoin:round;stroke-dasharray:none;stroke-opacity:1"
           id="path45"
           cx="90.336311"
           cy="224.51785"
           r="8.7544317" /><path
           style="color:#000000;fill:url(#radialGradient22);stroke-linecap:round;stroke-linejoin:round;-inkscape-stroke:none"
           d="m 160.43387,121.90448 c -0.5299,-0.0717 -1.08978,-0.0649 -1.6543,0.0566 -1.12903,0.2431 -2.46081,1.37919 -3.37137,2.34161 -0.0369,0.0375 -52.89618,53.66454 -81.7114,82.93722 -4.178143,4.24448 -13.441558,20.32056 -0.179222,33.61942 15.911004,15.95485 33.518932,0.5924 35.240232,-1.1289 26.96042,-26.96042 81.85481,-81.96027 81.85742,-81.96289 l 0.002,-0.002 c 0.81316,-0.81499 1.69192,-1.75516 1.76237,-2.81566 0.0705,-1.06136 -0.0493,-2.5937 -0.48428,-3.27437 -0.86724,-1.3571 -1.8514,-1.99984 -2.43164,-2.58008 l -0.008,-0.008 -23.68406,-23.63829 -0.0332,-0.0352 c -0.91729,-0.97831 -2.07088,-2.3151 -3.83008,-3.0918 -0.44448,-0.19624 -0.94471,-0.34627 -1.47461,-0.41797 z m -1.99802,4.97381 c 0.19322,-0.0416 0.35312,-0.0294 0.67188,0.11133 0.63751,0.28147 1.64238,1.22607 2.56445,2.20703 0.0109,0.0119 0.022,0.0236 0.0332,0.0352 l 24.32001,23.19202 0.008,0.008 c 0.7841,0.78663 1.52371,1.12202 1.8059,1.56362 0.1411,0.2208 0.12099,0.2712 0.12305,0.24023 0.002,-0.031 0.14809,0.38045 -0.17699,0.70592 h -0.002 c 0,0 -54.86831,55.03652 -81.84961,81.95703 -7.637208,7.62 -20.619231,10.12616 -29.583981,1.13672 -7.196736,-7.17979 -6.971485,-20.05813 0.198754,-27.98857 28.824587,-29.28219 80.834757,-82.43197 80.834757,-82.43197 0.009,-0.01 -0.31578,0.31469 0.0273,-0.0293 0.50736,-0.53626 0.83217,-0.66543 1.02539,-0.70703 z"
           id="path30-6"
           inkscape:label="frame"
           sodipodi:nodetypes="cccsssssssscccscccsccccscccssscccc" /></g></g><g
       id="g3"
       style="display:inline;overflow:visible"
       transform="matrix(-3.0528362,3.0352652,-3.0352652,-3.0528362,573.6283,108.27709)"><path
         d="m 93.239533,33.942749 c -2.4444,-2.4444 -5.84528,-3.0436 -8.29024,-0.5992 L 66.887499,51.495935 c -1.35576,1.35576 -1.75112,2.99656 -1.42296,4.6032 l -2.06192,2.06192 -4.6984,0.43008 c -0.8372,0.21392 -1.022,0.88928 -0.41104,1.50024 l 8.88944,8.88832 c 0.61096,0.61096 1.28576,0.42616 1.5008,-0.41104 l 0.42952,-4.69784 v 0 l 2.06192,-2.06192 c 1.60608,0.3276 3.250297,-0.06435 4.60264,-1.42352 L 93.839293,42.232429 c 2.44328,-2.44496 1.84408,-5.84584 -0.59976,-8.28968 z"
         id="path133"
         style="opacity:0.2;fill:#333333"
         sodipodi:nodetypes="scccccccccccscs" /><path
         d="M 83.937373,33.003629 65.875579,51.156015 c -1.11328,1.11328 -1.69568,2.48584 -1.69568,3.95136 0,0.27552 0.0448,0.55664 0.08624,0.83776 -0.28392,0.28448 -1.50864,1.50864 -1.73264,1.73264 -0.3696,0.03416 -4.4968,0.41104 -4.4968,0.41104 -0.02968,0.0028 -0.0588,0.0078 -0.08792,0.01512 -0.5992,0.15288 -1.01808,0.51632 -1.14968,0.99568 -0.02856,0.10472 -0.04256,0.21112 -0.04256,0.31808 0,0.38584 0.18144,0.78232 0.52416,1.12448 l 8.88944,8.88832 c 0.43736,0.43736 0.9632,0.6132 1.44256,0.4816 0.47936,-0.1316 0.84336,-0.55048 0.99624,-1.15024 0.0078,-0.02912 0.01288,-0.05824 0.01512,-0.08792 0,0 0.37744,-4.12608 0.41048,-4.49568 0.224,-0.224 1.44872,-1.44816 1.7332,-1.73208 1.77576,0.26264 3.46864,-0.28616 4.78856,-1.61 L 93.618093,42.683229 c 1.125557,-1.131237 1.7248,-2.51552 1.7248,-4.01184 0,-1.77072 -0.826,-3.57056 -2.324,-5.06912 -2.84984,-2.84928 -6.58448,-3.09568 -9.08152,-0.59864 z"
         id="path135"
         style="opacity:1;fill:#662a26;fill-opacity:1;stroke:#662a26;stroke-opacity:1"
         sodipodi:nodetypes="ccscccccsccscccccsscc" /><path
         d="m 60.533739,62.891375 c 0,0 -14.783272,15.02602 -15.007272,15.25002 -0.27776,0.0644 -2.71264,0.4928 -2.71264,0.4928 -0.1372,0.03192 -0.25704,0.11424 -0.33656,0.23072 l -4.382,6.72672 c -0.06496,0.0952 -0.09688,0.20496 -0.09688,0.31472 0,0.14448 0.056,0.28784 0.16408,0.39592 l 2.60232,2.60232 c 0.1932,0.19376 0.4984,0.21896 0.72128,0.05992 l 6.72728,-4.60656 c 0.11592,-0.08288 0.196,-0.20664 0.224,-0.34608 0,0 0.32536,-2.29824 0.38416,-2.59 0.23688,-0.23744 15.000552,-15.2433 15.000552,-15.2433 0.10528,-0.10528 0.16408,-0.24696 0.16408,-0.39592 v 0 c 0,-0.14896 -0.0588,-0.2912 -0.16408,-0.39592 l -2.49592,-2.49592 c -0.21952,-0.2184 -0.574,-0.2184 -0.7924,5.6e-4 z"
         id="path139"
         style="opacity:1;fill:#6f6f6f;fill-opacity:1;stroke:#6f6f6f;stroke-opacity:1"
         sodipodi:nodetypes="cccccssccccccssccc" /><g
         id="g19"><path
           id="polygon152"
           style="fill:url(#linearGradient3031)"
           transform="matrix(0.56,0,0,0.56,28.103019,26.890095)"
           d="M 83.059,55.208 72.862,45.013 56.494,61.381 66.688,71.577 Z"
           sodipodi:nodetypes="ccccc" /><path
           d="m 66.622059,68.979135 c 0.61096,0.61096 1.28576,0.42616 1.5008,-0.41104 l 0.42952,-4.69784 -5.70976,-5.7092 -4.6984,0.43008 c -0.8372,0.21392 -1.022,0.88928 -0.41104,1.50024 z"
           id="path154"
           style="fill:#0ef300;fill-opacity:1"
           sodipodi:nodetypes="ccccccc" /><path
           d="M 75.216379,60.385375 93.278173,42.232429 c 2.43824,-2.450545 1.8452,-5.84528 -0.59864,-8.28912 -2.4444,-2.4444 -5.84528,-3.0436 -8.29024,-0.5992 L 66.327499,51.495935 c -2.44384,2.4444 -1.77744,5.81504 0.64848,8.2404 2.42536,2.42592 5.80216,3.099585 8.2404,0.64904 z"
           id="path156"
           style="fill:url(#linearGradient20-1);fill-opacity:1"
           sodipodi:nodetypes="ssscccs" /><path
           d="m 92.299853,34.861149 c 0.8904,0.8904 0.728,2.50936 -0.36176,3.59856 L 71.364139,59.124815 c -1.08864,1.0892 -2.70816,1.2516 -3.598,0.3612 -0.8904,-0.8904 -0.728,-2.50936 0.36176,-3.59856 L 88.701853,35.222349 c 1.08864,-1.0892 2.70816,-1.2516 3.598,-0.3612 z"
           id="path190"
           style="overflow:visible;fill:url(#linearGradient3072)"
           sodipodi:nodetypes="ccccccc" /><path
           d="m 65.768619,61.483535 c 0.75824,0.75824 0.65968,2.09832 -0.22008,2.97696 -0.87864,0.8792 -2.21816,0.97776 -2.9764,0.21952 -0.75824,-0.75824 -0.65968,-2.09776 0.21952,-2.97696 0.8792,-0.8792 2.21816,-0.97776 2.97696,-0.21952 z"
           id="path201"
           style="overflow:visible;fill:url(#linearGradient3069)"
           sodipodi:nodetypes="ccssc" /><path
           d="m 71.381499,61.265135 c -0.74704,-0.39592 -0.4676,-1.61056 0.62104,-2.69976 L 91.578013,38.899309 c 1.0892,-1.0892 2.33072,-1.39552 2.75968,-0.68096 0.4284,0.714 -0.11144,2.1896 -1.2012,3.27824 L 74.720219,60.004575 c -1.08864,1.0892 -2.59168,1.65592 -3.33872,1.26056 z"
           id="path216"
           style="overflow:visible;fill:url(#linearGradient3066)"
           sodipodi:nodetypes="ccccccc" /><path
           d="m 65.406299,67.240335 c -0.56168,-0.58128 -0.364,-1.64248 0.43904,-2.3576 0.8036,-0.71568 1.58648,-1.13904 1.74048,-0.94192 0.15344,0.19824 0.27944,0.93576 0.27944,1.63912 0,0.70336 0.338009,2.839647 -0.05735,3.235007 -0.39536,0.39536 -1.840489,-0.993327 -2.401609,-1.574607 z"
           id="path231"
           style="overflow:visible;fill:url(#linearGradient3063)"
           sodipodi:nodetypes="cccssc" /><path
           d="m 88.724253,32.723629 c 0.8568,0.50568 0.66752,1.80992 -0.42168,2.89912 L 68.727099,55.288815 c -1.08864,1.0892 -2.42032,1.30592 -2.95848,0.4816 -0.53872,-0.82432 -0.08848,-2.38952 1.00072,-3.47816 L 85.186173,33.784269 c 1.08595,-1.091324 2.68128,-1.56576 3.53808,-1.06064 z"
           id="path240"
           style="overflow:visible;fill:url(#linearGradient3060)"
           sodipodi:nodetypes="cccccsc" /><path
           d="m 59.759259,61.591615 c 0.64232,0.61992 1.7024,0.59304 2.35536,-0.06048 l 0.48776,-0.48776 c 0.65352,-0.65352 0.91168,-1.46384 0.57512,-1.8004 -0.33712,-0.33712 -1.16424,-0.54152 -1.83792,-0.45472 -0.67368,0.08736 -2.712766,0.102093 -3.131646,0.519293 -0.41888,0.4172 0.909006,1.663587 1.551326,2.284067 z"
           id="path249"
           style="overflow:visible;fill:url(#linearGradient3057)"
           sodipodi:nodetypes="ccsscsc" /></g><path
         id="polygon165"
         style="fill:url(#linearGradient3033)"
         transform="matrix(0.56,0,0,0.56,28.103019,26.890095)"
         d="m 62.648,69.88 -4.457,-4.457 -26.6787,27.113178 4.455,4.457 z"
         sodipodi:nodetypes="ccccc" /><path
         id="polygon172"
         style="fill:url(#linearGradient3035)"
         transform="matrix(0.56,0,0,0.56,28.103019,26.890095)"
         d="m 31.6183,92.430178 4.457,4.456 -0.745,4.922002 -12.013,8.225 -4.647,-4.647 7.825,-12.012002 z"
         sodipodi:nodetypes="ccccccc" /><path
         id="polygon179"
         style="fill:url(#linearGradient3037)"
         transform="matrix(0.56,0,0,0.56,28.103019,26.890095)"
         d="m 32.0293,92.841178 3.747,3.746 -1.045,4.621002 -11.743,8.496 -3.908,-3.908 8.127,-11.710002 z"
         sodipodi:nodetypes="ccccccc" /><path
         id="rect1-2"
         style="fill:#b3b3b3;stroke-width:2.6;stroke-linecap:round;stroke-linejoin:round"
         d="m 192.52183,133.43431 h 2.20498 l -0.75595,46.80558 h -2.20498 z"
         sodipodi:nodetypes="ccccc"
         transform="matrix(0.31529177,0.32547229,0.32547229,-0.31529177,-57.480214,58.895956)" /></g></g></svg>
