<?xml version="1.0" encoding="UTF-8" standalone="no"?>
<svg
   width="256"
   height="256"
   viewBox="-0.492 0.439 256 256"
   overflow="visible"
   enable-background="new -0.492 0.439 95 116"
   xml:space="preserve"
   version="1.1"
   id="svg76"
   sodipodi:docname="kcalk.svg"
   inkscape:version="1.3.2 (091e20ef0f, 2023-11-25)"
   inkscape:export-filename="../kcalc.png"
   inkscape:export-xdpi="96"
   inkscape:export-ydpi="96"
   xmlns:inkscape="http://www.inkscape.org/namespaces/inkscape"
   xmlns:sodipodi="http://sodipodi.sourceforge.net/DTD/sodipodi-0.dtd"
   xmlns="http://www.w3.org/2000/svg"
   xmlns:svg="http://www.w3.org/2000/svg"
   xmlns:rdf="http://www.w3.org/1999/02/22-rdf-syntax-ns#"
   xmlns:cc="http://creativecommons.org/ns#"
   xmlns:a="http://ns.adobe.com/AdobeSVGViewerExtensions/3.0/"
   xmlns:i="http://ns.adobe.com/AdobeIllustrator/10.0/"><defs
   id="defs76"><linearGradient
     id="XMLID_27_-3"
     gradientUnits="userSpaceOnUse"
     x1="17.856899"
     y1="-44.930698"
     x2="165.97391"
     y2="136.72211"
     gradientTransform="matrix(1.0868233,0,0,1.0868233,-21.219633,69.588987)"><stop
       offset="0"
       style="stop-color:#FFFFFF"
       id="stop5696" /><stop
       offset="1"
       style="stop-color:#545477"
       id="stop5698" /><a:midPointStop
       offset="0"
       style="stop-color:#FFFFFF"
       id="midPointStop5700" /><a:midPointStop
       offset="0.5"
       style="stop-color:#FFFFFF"
       id="midPointStop5702" /><a:midPointStop
       offset="1"
       style="stop-color:#545477"
       id="midPointStop5704" /></linearGradient></defs><sodipodi:namedview
   id="namedview76"
   pagecolor="#ffffff"
   bordercolor="#000000"
   borderopacity="0.25"
   inkscape:showpageshadow="2"
   inkscape:pageopacity="0.0"
   inkscape:pagecheckerboard="0"
   inkscape:deskcolor="#d1d1d1"
   inkscape:zoom="4.3980823"
   inkscape:cx="105.84158"
   inkscape:cy="144.72217"
   inkscape:current-layer="svg76" />
	<g
   id="Layer_1_2_"
   transform="matrix(1.8421067,0,0,1.8421067,75.978301,1.439)">
		<path
   d="m 84.935,82.871 -15.747,8.173 2.423,5.678 16.72,-8.627 z"
   style="clip-rule:evenodd;fill:#ffffff;fill-rule:evenodd"
   id="path1" />
		<g
   id="g76"
   transform="translate(2.1714268,1.0857134)">
			<linearGradient
   id="XMLID_1_"
   gradientUnits="userSpaceOnUse"
   x1="1002.94"
   y1="-304.49799"
   x2="1058.09"
   y2="-217.944"
   gradientTransform="translate(-1010.52,276.668)">
				<stop
   offset="0"
   style="stop-color:rgb(131,121,205)"
   id="stop1" />
				<stop
   offset="1"
   style="stop-color:rgb(84,84,162)"
   id="stop2" />
				<a:midPointStop
   offset="0"
   style="stop-color:#8379CD" />
				<a:midPointStop
   offset="0.5"
   style="stop-color:#8379CD" />
				<a:midPointStop
   offset="1"
   style="stop-color:#5454A2" />
			</linearGradient>
			<path
   d="M 13.529,0 C 6.069,0.001 0,6.07 0,13.53 v 89.568 c 0,7.461 6.069,13.531 13.53,13.531 l 67.552,-0.001 c 7.46,0.001 13.529,-6.068 13.529,-13.529 V 13.529 C 94.612,6.069 88.543,0 81.082,0 Z M 3.832,103.099 3.831,13.53 C 3.83,8.181 8.183,3.831 13.529,3.831 h 67.554 c 5.349,0 9.7,4.351 9.7,9.698 V 103.1 c 0.001,5.349 -4.352,9.699 -9.701,9.699 H 13.529 c -5.345,0 -9.699,-4.35 -9.697,-9.7 z"
   style="fill:url(#XMLID_1_)"
   id="path2" />
			<linearGradient
   id="XMLID_2_"
   gradientUnits="userSpaceOnUse"
   x1="1057.83"
   y1="-154.64999"
   x2="1057.83"
   y2="-221.048"
   gradientTransform="translate(-1010.52,276.668)">
				<stop
   offset="0"
   style="stop-color:rgb(255,255,255)"
   id="stop3" />
				<stop
   offset="1"
   style="stop-color:rgb(194,205,255)"
   id="stop4" />
				<a:midPointStop
   offset="0"
   style="stop-color:#FFFFFF" />
				<a:midPointStop
   offset="0.5"
   style="stop-color:#FFFFFF" />
				<a:midPointStop
   offset="1"
   style="stop-color:#C2CDFF" />
			</linearGradient>
			<path
   d="m 92.296,102.702 c -0.002,6.358 -5.156,11.513 -11.514,11.513 H 13.828 c -6.355,0 -11.512,-5.154 -11.51,-11.513 V 13.927 C 2.318,7.57 7.472,2.416 13.828,2.415 h 66.954 c 6.357,0 11.513,5.154 11.514,11.512 z"
   style="fill:url(#XMLID_2_)"
   id="path4" />
			<linearGradient
   id="XMLID_3_"
   gradientUnits="userSpaceOnUse"
   x1="1057.8199"
   y1="-256.06299"
   x2="1057.8199"
   y2="-183.496"
   gradientTransform="translate(-1010.52,276.668)">
				<stop
   offset="0"
   style="stop-color:rgb(255,255,255)"
   id="stop5" />
				<stop
   offset="1"
   style="stop-color:rgb(194,205,255)"
   id="stop6" />
				<a:midPointStop
   offset="0"
   style="stop-color:#FFFFFF" />
				<a:midPointStop
   offset="0.5"
   style="stop-color:#FFFFFF" />
				<a:midPointStop
   offset="1"
   style="stop-color:#C2CDFF" />
			</linearGradient>
			<path
   d="m 90.122,20.146 c 0,0 -34.563,7.445 -44.939,38.577 C 30.355,93.564 4.49,86.125 4.49,83.331 V 15.584 C 4.492,9.532 9.396,4.629 15.446,4.628 h 63.721 c 6.05,0 10.955,4.903 10.955,10.954 z"
   style="fill:url(#XMLID_3_)"
   id="path6" />
			<g
   id="g75">
				<g
   id="g65">
					<g
   id="g28">
						<g
   id="g12">
							<linearGradient
   id="XMLID_4_"
   gradientUnits="userSpaceOnUse"
   x1="1057.24"
   y1="-214.04401"
   x2="1057.24"
   y2="-226.978"
   gradientTransform="translate(-1010.52,276.668)">
								<stop
   offset="0"
   style="stop-color:rgb(255,255,255)"
   id="stop7" />
								<stop
   offset="1"
   style="stop-color:rgb(194,205,255)"
   id="stop8" />
								<a:midPointStop
   offset="0"
   style="stop-color:#FFFFFF" />
								<a:midPointStop
   offset="0.5"
   style="stop-color:#FFFFFF" />
								<a:midPointStop
   offset="1"
   style="stop-color:#C2CDFF" />
							</linearGradient>
							<path
   d="m 57.61,50.214 c 0,6.014 -4.875,10.891 -10.889,10.89 -6.015,0 -10.89,-4.876 -10.889,-10.889 -10e-4,-6.015 4.873,-10.89 10.89,-10.89 6.013,10e-4 10.888,4.876 10.888,10.889 z"
   style="fill:url(#XMLID_4_)"
   id="path8" />
							<linearGradient
   id="XMLID_5_"
   gradientUnits="userSpaceOnUse"
   x1="1034.09"
   y1="-244.373"
   x2="1068.73"
   y2="-217.561"
   gradientTransform="translate(-1010.52,276.668)">
								<stop
   offset="0"
   style="stop-color:rgb(255,255,255)"
   id="stop9" />
								<stop
   offset="1"
   style="stop-color:rgb(84,84,162)"
   id="stop10" />
								<a:midPointStop
   offset="0"
   style="stop-color:#FFFFFF" />
								<a:midPointStop
   offset="0.5"
   style="stop-color:#FFFFFF" />
								<a:midPointStop
   offset="1"
   style="stop-color:#5454A2" />
							</linearGradient>
							<path
   d="m 35.313,50.215 c 0,6.289 5.118,11.408 11.409,11.408 6.29,0 11.407,-5.119 11.408,-11.409 0,-6.29 -5.118,-11.409 -11.409,-11.409 -6.29,0.002 -11.407,5.121 -11.408,11.41 z m 1.038,0 c -10e-4,-5.718 4.651,-10.371 10.371,-10.371 5.718,0 10.37,4.653 10.37,10.371 0.001,5.718 -4.653,10.368 -10.371,10.368 -5.719,0.001 -10.37,-4.65 -10.37,-10.368 z"
   style="fill:url(#XMLID_5_)"
   id="path10" />
							<linearGradient
   id="XMLID_6_"
   gradientUnits="userSpaceOnUse"
   x1="1056.9399"
   y1="-233.562"
   x2="1056.9399"
   y2="-222.66901"
   gradientTransform="translate(-1010.52,276.668)">
								<stop
   offset="0"
   style="stop-color:rgb(255,255,255)"
   id="stop11" />
								<stop
   offset="1"
   style="stop-color:rgb(194,205,255)"
   id="stop12" />
								<a:midPointStop
   offset="0"
   style="stop-color:#FFFFFF" />
								<a:midPointStop
   offset="0.5"
   style="stop-color:#FFFFFF" />
								<a:midPointStop
   offset="1"
   style="stop-color:#C2CDFF" />
							</linearGradient>
							<path
   d="m 46.768,50.517 c 3.792,-2.799 7.356,-3.749 8.918,-4.051 -1.505,-3.391 -4.9,-5.757 -8.85,-5.758 -5.345,0 -9.68,4.333 -9.678,9.678 0,0.842 0.106,1.655 0.307,2.433 1.568,0.289 5.404,0.58 9.303,-2.302 z"
   style="fill:url(#XMLID_6_)"
   id="path12" />
						</g>
						<g
   id="g18">
							<linearGradient
   id="XMLID_7_"
   gradientUnits="userSpaceOnUse"
   x1="1029.89"
   y1="-214.04401"
   x2="1029.89"
   y2="-226.97701"
   gradientTransform="translate(-1010.52,276.668)">
								<stop
   offset="0"
   style="stop-color:rgb(255,255,255)"
   id="stop13" />
								<stop
   offset="1"
   style="stop-color:rgb(194,205,255)"
   id="stop14" />
								<a:midPointStop
   offset="0"
   style="stop-color:#FFFFFF" />
								<a:midPointStop
   offset="0.5"
   style="stop-color:#FFFFFF" />
								<a:midPointStop
   offset="1"
   style="stop-color:#C2CDFF" />
							</linearGradient>
							<path
   d="m 30.262,50.215 c 0,6.012 -4.875,10.89 -10.889,10.889 -6.016,10e-4 -10.889,-4.877 -10.889,-10.889 0,-6.015 4.873,-10.89 10.889,-10.889 6.014,0 10.889,4.875 10.889,10.889 z"
   style="fill:url(#XMLID_7_)"
   id="path14" />
							<linearGradient
   id="XMLID_8_"
   gradientUnits="userSpaceOnUse"
   x1="1006.74"
   y1="-244.373"
   x2="1041.38"
   y2="-217.561"
   gradientTransform="translate(-1010.52,276.668)">
								<stop
   offset="0"
   style="stop-color:rgb(255,255,255)"
   id="stop15" />
								<stop
   offset="1"
   style="stop-color:rgb(84,84,162)"
   id="stop16" />
								<a:midPointStop
   offset="0"
   style="stop-color:#FFFFFF" />
								<a:midPointStop
   offset="0.5"
   style="stop-color:#FFFFFF" />
								<a:midPointStop
   offset="1"
   style="stop-color:#5454A2" />
							</linearGradient>
							<path
   d="m 7.963,50.215 c 0.002,6.29 5.118,11.409 11.41,11.408 6.289,0.001 11.407,-5.118 11.408,-11.407 0,-6.29 -5.119,-11.409 -11.408,-11.409 -6.29,0 -11.408,5.119 -11.41,11.408 z m 1.039,0 c 0,-5.718 4.652,-10.372 10.371,-10.371 5.717,0 10.371,4.653 10.371,10.372 0,5.717 -4.652,10.369 -10.371,10.369 C 13.654,60.583 9.002,55.932 9.002,50.215 Z"
   style="fill:url(#XMLID_8_)"
   id="path16" />
							<linearGradient
   id="XMLID_9_"
   gradientUnits="userSpaceOnUse"
   x1="1029.59"
   y1="-233.561"
   x2="1029.59"
   y2="-222.66901"
   gradientTransform="translate(-1010.52,276.668)">
								<stop
   offset="0"
   style="stop-color:rgb(255,255,255)"
   id="stop17" />
								<stop
   offset="1"
   style="stop-color:rgb(194,205,255)"
   id="stop18" />
								<a:midPointStop
   offset="0"
   style="stop-color:#FFFFFF" />
								<a:midPointStop
   offset="0.5"
   style="stop-color:#FFFFFF" />
								<a:midPointStop
   offset="1"
   style="stop-color:#C2CDFF" />
							</linearGradient>
							<path
   d="m 19.419,50.518 c 3.792,-2.8 7.354,-3.75 8.918,-4.051 -1.506,-3.392 -4.899,-5.758 -8.85,-5.758 -5.345,-0.001 -9.679,4.333 -9.679,9.679 0,0.841 0.107,1.655 0.308,2.432 1.568,0.287 5.404,0.579 9.303,-2.302 z"
   style="fill:url(#XMLID_9_)"
   id="path18" />
						</g>
						<g
   id="g27">
							<linearGradient
   id="XMLID_10_"
   gradientUnits="userSpaceOnUse"
   x1="1084.59"
   y1="-205.37199"
   x2="1084.59"
   y2="-225.69501"
   gradientTransform="translate(-1010.52,276.668)">
								<stop
   offset="0"
   style="stop-color:rgb(255,255,255)"
   id="stop19" />
								<stop
   offset="0.8539"
   style="stop-color:rgb(255,0,0)"
   id="stop20" />
								<stop
   offset="1"
   style="stop-color:rgb(242,0,0)"
   id="stop21" />
								<a:midPointStop
   offset="0"
   style="stop-color:#FFFFFF" />
								<a:midPointStop
   offset="0.5"
   style="stop-color:#FFFFFF" />
								<a:midPointStop
   offset="0.8539"
   style="stop-color:#FF0000" />
								<a:midPointStop
   offset="0.5"
   style="stop-color:#FF0000" />
								<a:midPointStop
   offset="1"
   style="stop-color:#F20000" />
							</linearGradient>
							<path
   d="m 84.958,50.215 c 0.002,6.013 -4.874,10.89 -10.888,10.889 -6.015,0 -10.891,-4.877 -10.891,-10.889 10e-4,-6.013 4.876,-10.888 10.891,-10.888 6.014,-10e-4 10.888,4.874 10.888,10.888 z"
   style="fill:url(#XMLID_10_)"
   id="path21" />
							<linearGradient
   id="XMLID_11_"
   gradientUnits="userSpaceOnUse"
   x1="1061.4399"
   y1="-244.37399"
   x2="1096.0699"
   y2="-217.561"
   gradientTransform="translate(-1010.52,276.668)">
								<stop
   offset="0"
   style="stop-color:rgb(255,255,255)"
   id="stop22" />
								<stop
   offset="1"
   style="stop-color:rgb(84,84,162)"
   id="stop23" />
								<a:midPointStop
   offset="0"
   style="stop-color:#FFFFFF" />
								<a:midPointStop
   offset="0.5"
   style="stop-color:#FFFFFF" />
								<a:midPointStop
   offset="1"
   style="stop-color:#5454A2" />
							</linearGradient>
							<path
   d="m 62.662,50.214 c 0,6.291 5.117,11.409 11.408,11.409 C 80.36,61.621 85.476,56.504 85.477,50.215 85.478,43.924 80.361,38.806 74.07,38.807 67.778,38.806 62.662,43.925 62.662,50.214 Z m 1.038,0.001 c -0.001,-5.718 4.65,-10.371 10.37,-10.372 5.718,0 10.37,4.653 10.371,10.371 C 84.44,55.932 79.788,60.583 74.07,60.584 68.351,60.583 63.699,55.932 63.7,50.215 Z"
   style="fill:url(#XMLID_11_)"
   id="path23" />
							<linearGradient
   id="XMLID_12_"
   gradientUnits="userSpaceOnUse"
   x1="1084.29"
   y1="-236.41499"
   x2="1084.29"
   y2="-224.767"
   gradientTransform="translate(-1010.52,276.668)">
								<stop
   offset="0"
   style="stop-color:rgb(255,255,255)"
   id="stop24" />
								<stop
   offset="0.1663"
   style="stop-color:rgb(255,218,218)"
   id="stop25" />
								<stop
   offset="0.5383"
   style="stop-color:rgb(255,124,124)"
   id="stop26" />
								<stop
   offset="1"
   style="stop-color:rgb(255,0,0)"
   id="stop27" />
								<a:midPointStop
   offset="0"
   style="stop-color:#FFFFFF" />
								<a:midPointStop
   offset="0.5254"
   style="stop-color:#FFFFFF" />
								<a:midPointStop
   offset="1"
   style="stop-color:#FF0000" />
							</linearGradient>
							<path
   d="m 74.116,50.518 c 3.791,-2.801 7.356,-3.75 8.919,-4.051 -1.507,-3.392 -4.899,-5.758 -8.851,-5.759 -5.345,0.001 -9.679,4.335 -9.679,9.679 0,0.842 0.106,1.655 0.31,2.433 1.568,0.288 5.402,0.579 9.301,-2.302 z"
   style="fill:url(#XMLID_12_)"
   id="path27" />
						</g>
					</g>
					<g
   id="g46">
						<g
   id="g33">
							<linearGradient
   id="XMLID_13_"
   gradientUnits="userSpaceOnUse"
   x1="1057.24"
   y1="-189.48399"
   x2="1057.24"
   y2="-202.41901"
   gradientTransform="translate(-1010.52,276.668)">
								<stop
   offset="0"
   style="stop-color:rgb(255,255,255)"
   id="stop28" />
								<stop
   offset="1"
   style="stop-color:rgb(194,205,255)"
   id="stop29" />
								<a:midPointStop
   offset="0"
   style="stop-color:#FFFFFF" />
								<a:midPointStop
   offset="0.5"
   style="stop-color:#FFFFFF" />
								<a:midPointStop
   offset="1"
   style="stop-color:#C2CDFF" />
							</linearGradient>
							<path
   d="m 57.609,74.774 c 10e-4,6.015 -4.874,10.89 -10.889,10.89 -6.014,-0.001 -10.888,-4.876 -10.889,-10.89 0,-6.014 4.874,-10.89 10.89,-10.89 6.013,0 10.888,4.876 10.888,10.89 z"
   style="fill:url(#XMLID_13_)"
   id="path29" />
							<linearGradient
   id="XMLID_14_"
   gradientUnits="userSpaceOnUse"
   x1="1034.09"
   y1="-219.814"
   x2="1068.73"
   y2="-193.002"
   gradientTransform="translate(-1010.52,276.668)">
								<stop
   offset="0"
   style="stop-color:rgb(255,255,255)"
   id="stop30" />
								<stop
   offset="1"
   style="stop-color:rgb(84,84,162)"
   id="stop31" />
								<a:midPointStop
   offset="0"
   style="stop-color:#FFFFFF" />
								<a:midPointStop
   offset="0.5"
   style="stop-color:#FFFFFF" />
								<a:midPointStop
   offset="1"
   style="stop-color:#5454A2" />
							</linearGradient>
							<path
   d="m 35.313,74.774 c 0.002,6.29 5.118,11.407 11.409,11.407 6.289,0.001 11.408,-5.117 11.408,-11.407 -0.002,-6.29 -5.119,-11.408 -11.408,-11.409 -6.29,0.002 -11.409,5.12 -11.409,11.409 z m 1.037,0 c 0,-5.716 4.652,-10.371 10.371,-10.371 5.718,0 10.372,4.654 10.372,10.371 0,5.718 -4.654,10.37 -10.372,10.37 -5.719,0 -10.371,-4.652 -10.371,-10.37 z"
   style="fill:url(#XMLID_14_)"
   id="path31" />
							<linearGradient
   id="XMLID_15_"
   gradientUnits="userSpaceOnUse"
   x1="1056.9399"
   y1="-209.002"
   x2="1056.9399"
   y2="-198.11"
   gradientTransform="translate(-1010.52,276.668)">
								<stop
   offset="0"
   style="stop-color:rgb(255,255,255)"
   id="stop32" />
								<stop
   offset="1"
   style="stop-color:rgb(194,205,255)"
   id="stop33" />
								<a:midPointStop
   offset="0"
   style="stop-color:#FFFFFF" />
								<a:midPointStop
   offset="0.5"
   style="stop-color:#FFFFFF" />
								<a:midPointStop
   offset="1"
   style="stop-color:#C2CDFF" />
							</linearGradient>
							<path
   d="m 46.768,75.078 c 3.793,-2.802 7.355,-3.75 8.918,-4.052 -1.505,-3.392 -4.9,-5.759 -8.85,-5.759 -5.345,0.001 -9.678,4.335 -9.68,9.68 0.002,0.842 0.108,1.656 0.308,2.433 1.569,0.287 5.405,0.578 9.304,-2.302 z"
   style="fill:url(#XMLID_15_)"
   id="path33" />
						</g>
						<g
   id="g39">
							<linearGradient
   id="XMLID_16_"
   gradientUnits="userSpaceOnUse"
   x1="1029.89"
   y1="-189.48399"
   x2="1029.89"
   y2="-202.41901"
   gradientTransform="translate(-1010.52,276.668)">
								<stop
   offset="0"
   style="stop-color:rgb(255,255,255)"
   id="stop34" />
								<stop
   offset="1"
   style="stop-color:rgb(194,205,255)"
   id="stop35" />
								<a:midPointStop
   offset="0"
   style="stop-color:#FFFFFF" />
								<a:midPointStop
   offset="0.5"
   style="stop-color:#FFFFFF" />
								<a:midPointStop
   offset="1"
   style="stop-color:#C2CDFF" />
							</linearGradient>
							<path
   d="m 30.263,74.774 c -0.001,6.014 -4.878,10.889 -10.89,10.89 -6.015,-0.001 -10.889,-4.876 -10.89,-10.89 0,-6.013 4.876,-10.89 10.89,-10.89 6.014,10e-4 10.889,4.877 10.89,10.89 z"
   style="fill:url(#XMLID_16_)"
   id="path35" />
							<linearGradient
   id="XMLID_17_"
   gradientUnits="userSpaceOnUse"
   x1="1006.74"
   y1="-219.815"
   x2="1041.38"
   y2="-193.00101"
   gradientTransform="translate(-1010.52,276.668)">
								<stop
   offset="0"
   style="stop-color:rgb(255,255,255)"
   id="stop36" />
								<stop
   offset="1"
   style="stop-color:rgb(84,84,162)"
   id="stop37" />
								<a:midPointStop
   offset="0"
   style="stop-color:#FFFFFF" />
								<a:midPointStop
   offset="0.5"
   style="stop-color:#FFFFFF" />
								<a:midPointStop
   offset="1"
   style="stop-color:#5454A2" />
							</linearGradient>
							<path
   d="m 7.965,74.774 c 0,6.29 5.116,11.408 11.408,11.407 6.291,0.001 11.408,-5.117 11.408,-11.407 0,-6.29 -5.117,-11.407 -11.408,-11.408 -6.292,10e-4 -11.408,5.119 -11.408,11.408 z m 1.037,0 c 0,-5.716 4.652,-10.37 10.371,-10.37 5.717,-10e-4 10.369,4.653 10.369,10.37 0,5.718 -4.652,10.369 -10.369,10.37 -5.719,0 -10.371,-4.652 -10.371,-10.37 z"
   style="fill:url(#XMLID_17_)"
   id="path37" />
							<linearGradient
   id="XMLID_18_"
   gradientUnits="userSpaceOnUse"
   x1="1029.59"
   y1="-209.002"
   x2="1029.59"
   y2="-198.11"
   gradientTransform="translate(-1010.52,276.668)">
								<stop
   offset="0"
   style="stop-color:rgb(255,255,255)"
   id="stop38" />
								<stop
   offset="1"
   style="stop-color:rgb(194,205,255)"
   id="stop39" />
								<a:midPointStop
   offset="0"
   style="stop-color:#FFFFFF" />
								<a:midPointStop
   offset="0.5"
   style="stop-color:#FFFFFF" />
								<a:midPointStop
   offset="1"
   style="stop-color:#C2CDFF" />
							</linearGradient>
							<path
   d="m 19.42,75.078 c 3.791,-2.802 7.354,-3.75 8.916,-4.052 -1.505,-3.391 -4.898,-5.759 -8.849,-5.758 -5.345,0 -9.679,4.334 -9.679,9.679 0,0.842 0.107,1.656 0.308,2.431 1.567,0.289 5.404,0.58 9.304,-2.3 z"
   style="fill:url(#XMLID_18_)"
   id="path39" />
						</g>
						<g
   id="g45">
							<linearGradient
   id="XMLID_19_"
   gradientUnits="userSpaceOnUse"
   x1="1084.59"
   y1="-189.485"
   x2="1084.59"
   y2="-202.41901"
   gradientTransform="translate(-1010.52,276.668)">
								<stop
   offset="0"
   style="stop-color:rgb(255,255,255)"
   id="stop40" />
								<stop
   offset="1"
   style="stop-color:rgb(194,205,255)"
   id="stop41" />
								<a:midPointStop
   offset="0"
   style="stop-color:#FFFFFF" />
								<a:midPointStop
   offset="0.5"
   style="stop-color:#FFFFFF" />
								<a:midPointStop
   offset="1"
   style="stop-color:#C2CDFF" />
							</linearGradient>
							<path
   d="m 84.958,74.774 c 0,6.014 -4.875,10.89 -10.888,10.889 -6.014,0.001 -10.891,-4.875 -10.89,-10.889 -10e-4,-6.013 4.875,-10.89 10.89,-10.889 6.013,-10e-4 10.888,4.876 10.888,10.889 z"
   style="fill:url(#XMLID_19_)"
   id="path41" />
							<linearGradient
   id="XMLID_20_"
   gradientUnits="userSpaceOnUse"
   x1="1061.4399"
   y1="-219.815"
   x2="1096.0699"
   y2="-193.00101"
   gradientTransform="translate(-1010.52,276.668)">
								<stop
   offset="0"
   style="stop-color:rgb(255,255,255)"
   id="stop42" />
								<stop
   offset="1"
   style="stop-color:rgb(84,84,162)"
   id="stop43" />
								<a:midPointStop
   offset="0"
   style="stop-color:#FFFFFF" />
								<a:midPointStop
   offset="0.5"
   style="stop-color:#FFFFFF" />
								<a:midPointStop
   offset="1"
   style="stop-color:#5454A2" />
							</linearGradient>
							<path
   d="m 62.662,74.774 c 0,6.29 5.117,11.408 11.408,11.407 6.29,0 11.408,-5.117 11.408,-11.407 C 85.477,68.485 80.36,63.366 74.07,63.365 c -6.291,0 -11.408,5.119 -11.408,11.409 z m 1.036,0 c 10e-4,-5.716 4.652,-10.37 10.372,-10.37 5.718,0 10.37,4.654 10.37,10.37 0,5.719 -4.652,10.37 -10.37,10.371 C 68.351,85.144 63.699,80.493 63.698,74.774 Z"
   style="fill:url(#XMLID_20_)"
   id="path43" />
							<linearGradient
   id="XMLID_21_"
   gradientUnits="userSpaceOnUse"
   x1="1084.29"
   y1="-209.00101"
   x2="1084.29"
   y2="-198.10899"
   gradientTransform="translate(-1010.52,276.668)">
								<stop
   offset="0"
   style="stop-color:rgb(255,255,255)"
   id="stop44" />
								<stop
   offset="1"
   style="stop-color:rgb(194,205,255)"
   id="stop45" />
								<a:midPointStop
   offset="0"
   style="stop-color:#FFFFFF" />
								<a:midPointStop
   offset="0.5"
   style="stop-color:#FFFFFF" />
								<a:midPointStop
   offset="1"
   style="stop-color:#C2CDFF" />
							</linearGradient>
							<path
   d="m 74.117,75.078 c 3.791,-2.802 7.355,-3.75 8.917,-4.052 -1.506,-3.392 -4.9,-5.759 -8.848,-5.758 -5.347,0 -9.681,4.334 -9.682,9.679 0,0.841 0.107,1.656 0.311,2.431 1.566,0.289 5.404,0.58 9.302,-2.3 z"
   style="fill:url(#XMLID_21_)"
   id="path45" />
						</g>
					</g>
					<g
   id="g64">
						<g
   id="g51">
							<linearGradient
   id="XMLID_22_"
   gradientUnits="userSpaceOnUse"
   x1="1057.24"
   y1="-164.925"
   x2="1057.24"
   y2="-177.85899"
   gradientTransform="translate(-1010.52,276.668)">
								<stop
   offset="0"
   style="stop-color:rgb(255,255,255)"
   id="stop46" />
								<stop
   offset="1"
   style="stop-color:rgb(194,205,255)"
   id="stop47" />
								<a:midPointStop
   offset="0"
   style="stop-color:#FFFFFF" />
								<a:midPointStop
   offset="0.5"
   style="stop-color:#FFFFFF" />
								<a:midPointStop
   offset="1"
   style="stop-color:#C2CDFF" />
							</linearGradient>
							<path
   d="m 57.61,99.333 c -10e-4,6.015 -4.875,10.89 -10.889,10.89 -6.015,0 -10.89,-4.876 -10.89,-10.889 0,-6.014 4.874,-10.89 10.891,-10.89 6.013,0 10.888,4.878 10.888,10.889 z"
   style="fill:url(#XMLID_22_)"
   id="path47" />
							<linearGradient
   id="XMLID_23_"
   gradientUnits="userSpaceOnUse"
   x1="1034.09"
   y1="-195.256"
   x2="1068.72"
   y2="-168.442"
   gradientTransform="translate(-1010.52,276.668)">
								<stop
   offset="0"
   style="stop-color:rgb(255,255,255)"
   id="stop48" />
								<stop
   offset="1"
   style="stop-color:rgb(84,84,162)"
   id="stop49" />
								<a:midPointStop
   offset="0"
   style="stop-color:#FFFFFF" />
								<a:midPointStop
   offset="0.5"
   style="stop-color:#FFFFFF" />
								<a:midPointStop
   offset="1"
   style="stop-color:#5454A2" />
							</linearGradient>
							<path
   d="m 35.313,99.333 c 0,6.29 5.118,11.408 11.409,11.409 6.288,-0.001 11.406,-5.12 11.408,-11.409 -0.001,-6.29 -5.118,-11.408 -11.409,-11.409 -6.291,0 -11.408,5.119 -11.408,11.409 z m 1.038,0 c 0,-5.718 4.651,-10.37 10.371,-10.37 5.718,0.001 10.37,4.65 10.371,10.37 0,5.719 -4.653,10.369 -10.372,10.369 -5.719,0 -10.37,-4.65 -10.37,-10.369 z"
   style="fill:url(#XMLID_23_)"
   id="path49" />
							<linearGradient
   id="XMLID_24_"
   gradientUnits="userSpaceOnUse"
   x1="1056.9399"
   y1="-184.442"
   x2="1056.9399"
   y2="-173.55099"
   gradientTransform="translate(-1010.52,276.668)">
								<stop
   offset="0"
   style="stop-color:rgb(255,255,255)"
   id="stop50" />
								<stop
   offset="1"
   style="stop-color:rgb(194,205,255)"
   id="stop51" />
								<a:midPointStop
   offset="0"
   style="stop-color:#FFFFFF" />
								<a:midPointStop
   offset="0.5"
   style="stop-color:#FFFFFF" />
								<a:midPointStop
   offset="1"
   style="stop-color:#C2CDFF" />
							</linearGradient>
							<path
   d="m 46.768,99.637 c 3.791,-2.802 7.356,-3.75 8.917,-4.051 -1.504,-3.393 -4.898,-5.759 -8.848,-5.759 -5.346,-0.001 -9.681,4.333 -9.681,9.679 0.002,0.842 0.107,1.654 0.309,2.432 1.566,0.288 5.404,0.579 9.303,-2.301 z"
   style="fill:url(#XMLID_24_)"
   id="path51" />
						</g>
						<g
   id="g57">
							<linearGradient
   id="XMLID_25_"
   gradientUnits="userSpaceOnUse"
   x1="1029.89"
   y1="-164.92599"
   x2="1029.89"
   y2="-177.86"
   gradientTransform="translate(-1010.52,276.668)">
								<stop
   offset="0"
   style="stop-color:rgb(255,255,255)"
   id="stop52" />
								<stop
   offset="1"
   style="stop-color:rgb(194,205,255)"
   id="stop53" />
								<a:midPointStop
   offset="0"
   style="stop-color:#FFFFFF" />
								<a:midPointStop
   offset="0.5"
   style="stop-color:#FFFFFF" />
								<a:midPointStop
   offset="1"
   style="stop-color:#C2CDFF" />
							</linearGradient>
							<path
   d="m 30.262,99.333 c 0,6.014 -4.875,10.89 -10.889,10.889 -6.015,0.001 -10.89,-4.875 -10.889,-10.888 -10e-4,-6.014 4.873,-10.891 10.889,-10.891 6.014,0.001 10.889,4.877 10.889,10.89 z"
   style="fill:url(#XMLID_25_)"
   id="path53" />
							<linearGradient
   id="XMLID_26_"
   gradientUnits="userSpaceOnUse"
   x1="1006.74"
   y1="-195.255"
   x2="1041.38"
   y2="-168.44099"
   gradientTransform="translate(-1010.52,276.668)">
								<stop
   offset="0"
   style="stop-color:rgb(255,255,255)"
   id="stop54" />
								<stop
   offset="1"
   style="stop-color:rgb(84,84,162)"
   id="stop55" />
								<a:midPointStop
   offset="0"
   style="stop-color:#FFFFFF" />
								<a:midPointStop
   offset="0.5"
   style="stop-color:#FFFFFF" />
								<a:midPointStop
   offset="1"
   style="stop-color:#5454A2" />
							</linearGradient>
							<path
   d="m 7.965,99.334 c 0,6.289 5.116,11.408 11.408,11.408 6.291,0 11.407,-5.119 11.408,-11.408 C 30.78,93.043 25.664,87.925 19.373,87.925 13.081,87.924 7.966,93.044 7.965,99.334 Z m 1.037,0 c 0,-5.721 4.652,-10.37 10.371,-10.372 5.717,10e-4 10.371,4.652 10.369,10.371 0,5.719 -4.652,10.369 -10.369,10.369 -5.719,0.001 -10.371,-4.65 -10.371,-10.368 z"
   style="fill:url(#XMLID_26_)"
   id="path55" />
							<linearGradient
   id="XMLID_27_"
   gradientUnits="userSpaceOnUse"
   x1="1029.59"
   y1="-184.442"
   x2="1029.59"
   y2="-173.55099"
   gradientTransform="translate(-1010.52,276.668)">
								<stop
   offset="0"
   style="stop-color:rgb(255,255,255)"
   id="stop56" />
								<stop
   offset="1"
   style="stop-color:rgb(194,205,255)"
   id="stop57" />
								<a:midPointStop
   offset="0"
   style="stop-color:#FFFFFF" />
								<a:midPointStop
   offset="0.5"
   style="stop-color:#FFFFFF" />
								<a:midPointStop
   offset="1"
   style="stop-color:#C2CDFF" />
							</linearGradient>
							<path
   d="m 19.419,99.637 c 3.791,-2.802 7.356,-3.75 8.918,-4.051 -1.507,-3.393 -4.899,-5.759 -8.85,-5.759 -5.345,0 -9.679,4.334 -9.679,9.68 0,0.841 0.107,1.654 0.309,2.43 1.567,0.289 5.403,0.58 9.302,-2.3 z"
   style="fill:url(#XMLID_27_)"
   id="path57" />
						</g>
						<g
   id="g63">
							<linearGradient
   id="XMLID_28_"
   gradientUnits="userSpaceOnUse"
   x1="1084.59"
   y1="-164.925"
   x2="1084.59"
   y2="-177.86"
   gradientTransform="translate(-1010.52,276.668)">
								<stop
   offset="0"
   style="stop-color:rgb(255,255,255)"
   id="stop58" />
								<stop
   offset="1"
   style="stop-color:rgb(194,205,255)"
   id="stop59" />
								<a:midPointStop
   offset="0"
   style="stop-color:#FFFFFF" />
								<a:midPointStop
   offset="0.5"
   style="stop-color:#FFFFFF" />
								<a:midPointStop
   offset="1"
   style="stop-color:#C2CDFF" />
							</linearGradient>
							<path
   d="m 84.958,99.333 c 0,6.014 -4.875,10.889 -10.888,10.89 -6.015,-0.001 -10.891,-4.876 -10.891,-10.89 10e-4,-6.013 4.875,-10.89 10.891,-10.89 6.014,0.001 10.888,4.877 10.888,10.89 z"
   style="fill:url(#XMLID_28_)"
   id="path59" />
							<linearGradient
   id="XMLID_29_"
   gradientUnits="userSpaceOnUse"
   x1="1061.4399"
   y1="-195.255"
   x2="1096.0699"
   y2="-168.44299"
   gradientTransform="translate(-1010.52,276.668)">
								<stop
   offset="0"
   style="stop-color:rgb(255,255,255)"
   id="stop60" />
								<stop
   offset="1"
   style="stop-color:rgb(84,84,162)"
   id="stop61" />
								<a:midPointStop
   offset="0"
   style="stop-color:#FFFFFF" />
								<a:midPointStop
   offset="0.5"
   style="stop-color:#FFFFFF" />
								<a:midPointStop
   offset="1"
   style="stop-color:#5454A2" />
							</linearGradient>
							<path
   d="m 62.662,99.333 c 0,6.289 5.118,11.409 11.408,11.408 6.29,0.001 11.407,-5.118 11.408,-11.408 0,-6.289 -5.118,-11.409 -11.408,-11.409 -6.292,0 -11.408,5.12 -11.408,11.409 z m 1.037,0 c 0,-5.719 4.651,-10.37 10.37,-10.37 5.718,0 10.371,4.651 10.371,10.371 0.001,5.718 -4.652,10.368 -10.37,10.368 -5.718,0.001 -10.371,-4.65 -10.371,-10.369 z"
   style="fill:url(#XMLID_29_)"
   id="path61" />
							<linearGradient
   id="XMLID_30_"
   gradientUnits="userSpaceOnUse"
   x1="1084.29"
   y1="-184.442"
   x2="1084.29"
   y2="-173.55099"
   gradientTransform="translate(-1010.52,276.668)">
								<stop
   offset="0"
   style="stop-color:rgb(255,255,255)"
   id="stop62" />
								<stop
   offset="1"
   style="stop-color:rgb(194,205,255)"
   id="stop63" />
								<a:midPointStop
   offset="0"
   style="stop-color:#FFFFFF" />
								<a:midPointStop
   offset="0.5"
   style="stop-color:#FFFFFF" />
								<a:midPointStop
   offset="1"
   style="stop-color:#C2CDFF" />
							</linearGradient>
							<path
   d="m 74.117,99.636 c 3.79,-2.801 7.355,-3.749 8.916,-4.05 -1.505,-3.393 -4.899,-5.759 -8.849,-5.759 -5.346,0 -9.68,4.333 -9.68,9.679 10e-4,0.842 0.107,1.653 0.311,2.433 1.567,0.287 5.402,0.578 9.302,-2.303 z"
   style="fill:url(#XMLID_30_)"
   id="path63" />
						</g>
					</g>
				</g>
				<g
   id="g74">
					<linearGradient
   id="XMLID_31_"
   gradientUnits="userSpaceOnUse"
   x1="1057.24"
   y1="-231.41901"
   x2="1057.24"
   y2="-253.334"
   gradientTransform="translate(-1010.52,276.668)">
						<stop
   offset="0"
   style="stop-color:rgb(255,255,255)"
   id="stop65" />
						<stop
   offset="1"
   style="stop-color:rgb(0,189,0)"
   id="stop66" />
						<a:midPointStop
   offset="0"
   style="stop-color:#FFFFFF" />
						<a:midPointStop
   offset="0.5"
   style="stop-color:#FFFFFF" />
						<a:midPointStop
   offset="1"
   style="stop-color:#00BD00" />
					</linearGradient>
					<path
   d="m 84.932,30.488 c 0.001,2.083 -1.689,3.77 -3.771,3.771 H 12.281 C 10.199,34.259 8.51,32.57 8.51,30.487 L 8.512,14.548 C 8.51,12.465 10.2,10.776 12.282,10.776 h 68.88 c 2.081,0 3.771,1.689 3.771,3.771 z"
   style="fill:url(#XMLID_31_)"
   id="path66" />
					<linearGradient
   id="XMLID_32_"
   gradientUnits="userSpaceOnUse"
   x1="1057.24"
   y1="-267.965"
   x2="1057.24"
   y2="-243.81"
   gradientTransform="translate(-1010.52,276.668)">
						<stop
   offset="0"
   style="stop-color:rgb(255,255,255)"
   id="stop67" />
						<stop
   offset="0.1147"
   style="stop-color:rgb(233,250,233)"
   id="stop68" />
						<stop
   offset="0.3539"
   style="stop-color:rgb(176,237,176)"
   id="stop69" />
						<stop
   offset="0.6936"
   style="stop-color:rgb(87,217,87)"
   id="stop70" />
						<stop
   offset="1"
   style="stop-color:rgb(0,197,0)"
   id="stop71" />
						<a:midPointStop
   offset="0"
   style="stop-color:#FFFFFF" />
						<a:midPointStop
   offset="0.5424"
   style="stop-color:#FFFFFF" />
						<a:midPointStop
   offset="1"
   style="stop-color:#00C500" />
					</linearGradient>
					<path
   d="m 83.284,25.169 c 0,0 -73.126,0.396 -73.126,-0.459 v -8.936 c 0,-1.851 1.5,-3.351 3.351,-3.351 l 66.426,10e-4 c 1.85,-10e-4 3.35,1.499 3.351,3.35 z"
   style="fill:url(#XMLID_32_)"
   id="path71" />
					<linearGradient
   id="XMLID_33_"
   gradientUnits="userSpaceOnUse"
   x1="1021.29"
   y1="-308.06699"
   x2="1043.15"
   y2="-275.28299"
   gradientTransform="translate(-1010.52,276.668)">
						<stop
   offset="0.0112"
   style="stop-color:rgb(0,149,0)"
   id="stop72" />
						<stop
   offset="0.2978"
   style="stop-color:rgb(0,144,0)"
   id="stop73" />
						<stop
   offset="1"
   style="stop-color:rgb(0,91,0)"
   id="stop74" />
						<a:midPointStop
   offset="0.0112"
   style="stop-color:#009500" />
						<a:midPointStop
   offset="0.5"
   style="stop-color:#009500" />
						<a:midPointStop
   offset="0.2978"
   style="stop-color:#009000" />
						<a:midPointStop
   offset="0.5"
   style="stop-color:#009000" />
						<a:midPointStop
   offset="1"
   style="stop-color:#005B00" />
					</linearGradient>
					<path
   d="m 12.281,10.154 c -2.422,0 -4.393,1.972 -4.395,4.394 v 15.939 c 0,2.422 1.974,4.395 4.395,4.395 l 68.88,-10e-4 c 2.423,0 4.394,-1.971 4.393,-4.393 v -15.94 c 0,-2.421 -1.97,-4.393 -4.393,-4.393 z M 9.131,30.487 V 14.548 c 0.002,-1.737 1.414,-3.15 3.15,-3.15 h 68.88 c 1.736,0 3.148,1.414 3.148,3.151 l 0.001,15.939 c -0.001,1.736 -1.413,3.149 -3.149,3.149 L 12.28,33.636 C 10.545,33.637 9.131,32.224 9.131,30.487 Z"
   style="fill:url(#XMLID_33_)"
   id="path74" />
				</g>
			</g>
		</g>
	<g
   id="g116"
   transform="matrix(0.77635816,0,0,0.77635816,-73.424563,-4.6739221)"><path
     d="m 69.686591,70.591555 -26.11133,2.499657 V 180.60991 L 69.41045,176.72036 V 130.8793 l 34.72753,50.84379 27.22501,-8.61437 L 95.802799,124.21189 131.64156,78.092759 103.86184,71.705795 69.411062,117.823 Z"
     style="display:inline;overflow:visible;fill:#126bff;fill-opacity:1;stroke-width:4.36832"
     id="path1-3"
     inkscape:label="kmodern" /><path
     i:knockout="Off"
     d="m 68.894321,69.588987 -26.414154,2.529038 c -0.383648,0.03695 -0.676004,0.358652 -0.676004,0.743387 V 181.61221 c 0,0.21737 0.09455,0.42495 0.258664,0.56624 0.165197,0.14237 0.384736,0.20541 0.59884,0.1728 l 26.13484,-3.9343 c 0.366259,-0.0554 0.635791,-0.36952 0.635791,-0.74121 0,0 0,-39.60167 0,-43.94679 2.519257,3.68977 33.761082,49.42764 33.761082,49.42764 0.18693,0.2717 0.52819,0.39017 0.84229,0.29127 l 27.5401,-8.71089 c 0.22932,-0.0707 0.40864,-0.24997 0.48363,-0.4782 0.0239,-0.0761 0.0359,-0.15542 0.0359,-0.23367 0,-0.15542 -0.0489,-0.30975 -0.14237,-0.43908 0,0 -34.990281,-48.11367 -35.639114,-49.00486 0.676004,-0.87055 35.906464,-46.20412 35.906464,-46.20412 0.10434,-0.133679 0.15759,-0.294529 0.15759,-0.458639 0,-0.08586 -0.0152,-0.169545 -0.0424,-0.24997 -0.087,-0.241274 -0.2891,-0.421687 -0.53689,-0.478202 l -28.10199,-6.462251 c -0.28801,-0.0663 -0.58797,0.04347 -0.76513,0.281487 0,0 -30.975548,41.468825 -33.487196,44.830375 0.025,-4.12123 0.267358,-45.505292 0.267358,-45.505292 0,-0.210844 -0.08803,-0.411906 -0.242362,-0.553193 -0.155415,-0.143461 -0.362999,-0.213018 -0.574929,-0.192368 z m -0.680351,1.565026 c -0.0076,1.596543 -0.27388,46.948597 -0.27388,46.948597 0,0.32278 0.204323,0.60862 0.508633,0.71078 0.306485,0.10216 0.645573,-0.001 0.836854,-0.26193 0,0 33.980613,-45.491159 34.553373,-46.25737 0.88033,0.201063 24.42418,5.615616 26.48697,6.089471 -1.38135,1.775869 -35.533687,45.724829 -35.533687,45.724829 -0.104335,0.13477 -0.157589,0.29562 -0.157589,0.45755 0,0.15433 0.04673,0.30866 0.142374,0.43908 0,0 34.180592,46.99859 35.360882,48.62013 -1.80195,0.56949 -25.04041,7.91968 -26.02072,8.22942 -0.61406,-0.89989 -34.81204,-50.96658 -34.81204,-50.96658 -0.18476,-0.27061 -0.523849,-0.38908 -0.837941,-0.29126 -0.311918,0.0956 -0.524935,0.38473 -0.524935,0.71187 0,0 0,44.4728 0,45.72374 -1.169422,0.17715 -23.074346,3.47349 -24.641545,3.70933 0,-1.69762 0,-105.873982 0,-107.204254 1.240065,-0.11629 23.409087,-2.238856 24.913251,-2.383403 z"
     id="path5707"
     style="overflow:visible;fill:url(#XMLID_27_-3);stroke-width:1.08682"
     inkscape:connector-curvature="0" /></g></g>
<metadata
   id="metadata1"><rdf:RDF><cc:Work
       rdf:about=""><cc:license
         rdf:resource="http://creativecommons.org/publicdomain/zero/1.0/" /></cc:Work><cc:License
       rdf:about="http://creativecommons.org/publicdomain/zero/1.0/"><cc:permits
         rdf:resource="http://creativecommons.org/ns#Reproduction" /><cc:permits
         rdf:resource="http://creativecommons.org/ns#Distribution" /><cc:permits
         rdf:resource="http://creativecommons.org/ns#DerivativeWorks" /></cc:License></rdf:RDF></metadata></svg>
