<?xml version="1.0" encoding="UTF-8" standalone="no"?>
<!-- Created with Inkscape (http://www.inkscape.org/) -->

<svg
   width="256mm"
   height="256mm"
   viewBox="0 0 256 256"
   version="1.1"
   id="svg1"
   inkscape:version="1.3.2 (091e20ef0f, 2023-11-25)"
   xml:space="preserve"
   sodipodi:docname="fax.svg"
   xmlns:inkscape="http://www.inkscape.org/namespaces/inkscape"
   xmlns:sodipodi="http://sodipodi.sourceforge.net/DTD/sodipodi-0.dtd"
   xmlns:xlink="http://www.w3.org/1999/xlink"
   xmlns="http://www.w3.org/2000/svg"
   xmlns:svg="http://www.w3.org/2000/svg"
   xmlns:rdf="http://www.w3.org/1999/02/22-rdf-syntax-ns#"
   xmlns:cc="http://creativecommons.org/ns#"
   xmlns:dc="http://purl.org/dc/elements/1.1/"><defs
     id="defs1"><inkscape:path-effect
       effect="perspective-envelope"
       up_left_point="70.183461,106.09695"
       up_right_point="182.16876,107.62901"
       down_left_point="65.052538,186.69148"
       down_right_point="185.0382,182.02558"
       id="path-effect42"
       is_visible="true"
       lpeversion="1"
       deform_type="perspective"
       horizontal_mirror="false"
       vertical_mirror="false"
       overflow_perspective="false" /><linearGradient
       id="linearGradient37"
       inkscape:collect="always"><stop
         style="stop-color:#ffffff;stop-opacity:1;"
         offset="0"
         id="stop37" /><stop
         style="stop-color:#ffffff;stop-opacity:1;"
         offset="0.56279975"
         id="stop39" /><stop
         style="stop-color:#e0deff;stop-opacity:1;"
         offset="1"
         id="stop38" /></linearGradient><inkscape:path-effect
       effect="perspective-envelope"
       up_left_point="73.719725,112.4077"
       up_right_point="185.42812,103.87523"
       down_left_point="71.228135,179.54431"
       down_right_point="182.81708,185.92232"
       id="path-effect37"
       is_visible="true"
       lpeversion="1"
       deform_type="perspective"
       horizontal_mirror="false"
       vertical_mirror="false"
       overflow_perspective="false" /><inkscape:path-effect
       effect="lattice2"
       gridpoint0="79.300035,108.11775"
       gridpoint1="187.30053,108.11775"
       gridpoint2="79.300035,178.45961"
       gridpoint3="187.30053,178.45961"
       gridpoint4="106.30016,108.11775"
       gridpoint5="160.30041,108.11775"
       gridpoint6="103.06858,184.8626"
       gridpoint7="160.30041,178.45961"
       gridpoint8x9="133.30028,108.11775"
       gridpoint10x11="133.30028,178.45961"
       gridpoint12="70.080591,125.28065"
       gridpoint13="187.30053,125.70321"
       gridpoint14="75.463631,163.3783"
       gridpoint15="187.30053,160.87414"
       gridpoint16="106.30016,125.70321"
       gridpoint17="160.30041,125.70321"
       gridpoint18="106.30016,160.87414"
       gridpoint19="160.30041,160.87414"
       gridpoint20x21="133.30028,125.70321"
       gridpoint22x23="133.30028,160.87414"
       gridpoint24x26="79.300035,143.28868"
       gridpoint25x27="187.30053,143.28868"
       gridpoint28x30="106.30016,143.28868"
       gridpoint29x31="160.30041,143.28868"
       gridpoint32x33x34x35="133.30028,143.28868"
       id="path-effect36"
       is_visible="true"
       lpeversion="1"
       horizontal_mirror="false"
       vertical_mirror="false"
       perimetral="false"
       live_update="true" /><linearGradient
       id="linearGradient33"
       inkscape:collect="always"><stop
         style="stop-color:#020304;stop-opacity:0.16393442;"
         offset="0"
         id="stop33" /><stop
         style="stop-color:#020304;stop-opacity:0.46311477;"
         offset="1"
         id="stop34" /></linearGradient><inkscape:path-effect
       effect="perspective-envelope"
       up_left_point="78.116485,103.9058"
       up_right_point="189.89302,111.21286"
       down_left_point="81.968574,179.98639"
       down_right_point="186.0724,176.74695"
       id="path-effect33"
       is_visible="true"
       lpeversion="1"
       deform_type="perspective"
       horizontal_mirror="false"
       vertical_mirror="false"
       overflow_perspective="false" /><inkscape:path-effect
       effect="perspective-envelope"
       up_left_point="75.276698,111.73222"
       up_right_point="190.50703,107.41938"
       down_left_point="77.656627,182.51571"
       down_right_point="196.30824,181.49356"
       id="path-effect32"
       is_visible="true"
       lpeversion="1"
       deform_type="perspective"
       horizontal_mirror="false"
       vertical_mirror="false"
       overflow_perspective="false" /><inkscape:path-effect
       effect="perspective-envelope"
       up_left_point="74.490109,124.41006"
       up_right_point="147.63531,105.70356"
       down_left_point="121.95232,181.72746"
       down_right_point="194.48698,158.54135"
       id="path-effect31"
       is_visible="true"
       lpeversion="1"
       deform_type="perspective"
       horizontal_mirror="false"
       vertical_mirror="false"
       overflow_perspective="false" /><linearGradient
       id="linearGradient30"
       inkscape:collect="always"><stop
         style="stop-color:#b5edff;stop-opacity:1"
         offset="0"
         id="stop30" /><stop
         style="stop-color:#6cabff;stop-opacity:1"
         offset="1"
         id="stop31" /></linearGradient><linearGradient
       id="linearGradient28"
       inkscape:collect="always"><stop
         style="stop-color:#b5edff;stop-opacity:1"
         offset="0"
         id="stop28" /><stop
         style="stop-color:#6eacff;stop-opacity:1"
         offset="1"
         id="stop29" /></linearGradient><linearGradient
       id="linearGradient26"
       inkscape:collect="always"><stop
         style="stop-color:#b4ecff;stop-opacity:1"
         offset="0"
         id="stop26" /><stop
         style="stop-color:#6fafff;stop-opacity:1"
         offset="1"
         id="stop27" /></linearGradient><linearGradient
       id="linearGradient16"
       inkscape:collect="always"><stop
         style="stop-color:#626eba;stop-opacity:0.53106213;"
         offset="0"
         id="stop15" /><stop
         style="stop-color:#2e3f98;stop-opacity:0.48697394;"
         offset="1"
         id="stop16" /></linearGradient><linearGradient
       id="linearGradient12"
       inkscape:collect="always"><stop
         style="stop-color:#c9deff;stop-opacity:0;"
         offset="0"
         id="stop13" /><stop
         style="stop-color:#c9deff;stop-opacity:0.67622954;"
         offset="1"
         id="stop14" /></linearGradient><linearGradient
       id="linearGradient3"
       inkscape:collect="always"><stop
         style="stop-color:#fdffff;stop-opacity:1"
         offset="0"
         id="stop3" /><stop
         style="stop-color:#e2eeff;stop-opacity:1"
         offset="0.5"
         id="stop11" /><stop
         style="stop-color:#d0daf7;stop-opacity:1;"
         offset="0.75"
         id="stop12" /><stop
         style="stop-color:#bdd0ef;stop-opacity:1;"
         offset="1"
         id="stop4" /></linearGradient><linearGradient
       id="linearGradient7"
       inkscape:collect="always"><stop
         style="stop-color:#feffff;stop-opacity:1"
         offset="0"
         id="stop7" /><stop
         style="stop-color:#f2f6fe;stop-opacity:1"
         offset="0.5"
         id="stop9" /><stop
         style="stop-color:#cfd9fa;stop-opacity:1"
         offset="0.75"
         id="stop10" /><stop
         style="stop-color:#afbef7;stop-opacity:1"
         offset="1"
         id="stop8" /></linearGradient><linearGradient
       id="linearGradient5"
       inkscape:collect="always"><stop
         style="stop-color:#ced3ff;stop-opacity:1"
         offset="0"
         id="stop5" /><stop
         style="stop-color:#6c6fda;stop-opacity:1"
         offset="1"
         id="stop6" /></linearGradient><linearGradient
       inkscape:collect="always"
       xlink:href="#linearGradient5"
       id="linearGradient6"
       x1="19.692354"
       y1="71.128143"
       x2="108.19724"
       y2="51.567875"
       gradientUnits="userSpaceOnUse" /><linearGradient
       inkscape:collect="always"
       xlink:href="#linearGradient7"
       id="linearGradient8"
       x1="61.236244"
       y1="102.16377"
       x2="150.97577"
       y2="77.441338"
       gradientUnits="userSpaceOnUse" /><linearGradient
       inkscape:collect="always"
       xlink:href="#linearGradient3"
       id="linearGradient4"
       x1="115.95557"
       y1="131.15773"
       x2="227.43579"
       y2="126.24404"
       gradientUnits="userSpaceOnUse" /><linearGradient
       inkscape:collect="always"
       xlink:href="#linearGradient12"
       id="linearGradient14"
       x1="14.833458"
       y1="157.22129"
       x2="82.987183"
       y2="193.30267"
       gradientUnits="userSpaceOnUse" /><linearGradient
       inkscape:collect="always"
       xlink:href="#linearGradient16"
       id="linearGradient15"
       gradientUnits="userSpaceOnUse"
       x1="106.11471"
       y1="188.21533"
       x2="235.1226"
       y2="141.51993" /><linearGradient
       inkscape:collect="always"
       xlink:href="#linearGradient26"
       id="linearGradient27"
       x1="96.86274"
       y1="156.22916"
       x2="106.84898"
       y2="147.69022"
       gradientUnits="userSpaceOnUse" /><linearGradient
       inkscape:collect="always"
       xlink:href="#linearGradient28"
       id="linearGradient29"
       x1="121.50849"
       y1="144.64407"
       x2="132.47232"
       y2="135.22568"
       gradientUnits="userSpaceOnUse" /><linearGradient
       inkscape:collect="always"
       xlink:href="#linearGradient30"
       id="linearGradient31"
       x1="155.22194"
       y1="140.26695"
       x2="163.4294"
       y2="133.37198"
       gradientUnits="userSpaceOnUse" /><linearGradient
       inkscape:collect="always"
       xlink:href="#linearGradient33"
       id="linearGradient34"
       x1="43.564934"
       y1="149.50389"
       x2="48.509418"
       y2="137.07585"
       gradientUnits="userSpaceOnUse" /><linearGradient
       inkscape:collect="always"
       xlink:href="#linearGradient37"
       id="linearGradient38"
       x1="22.851545"
       y1="111.18684"
       x2="126.36357"
       y2="140.58649"
       gradientUnits="userSpaceOnUse" /></defs><sodipodi:namedview
     id="base"
     pagecolor="#ffffff"
     bordercolor="#000000"
     borderopacity="0.3"
     inkscape:pageopacity="0.0"
     inkscape:pageshadow="2"
     inkscape:zoom="0.98994949"
     inkscape:cx="505.07627"
     inkscape:cy="476.792"
     inkscape:document-units="mm"
     inkscape:showpageshadow="2"
     inkscape:pagecheckerboard="0"
     inkscape:deskcolor="#d1d1d1"
     inkscape:current-layer="svg1" /><metadata
     id="metadata1"><rdf:RDF><cc:Work
         rdf:about=""><dc:format>image/svg+xml</dc:format><dc:type
           rdf:resource="http://purl.org/dc/dcmitype/StillImage" /><cc:license
           rdf:resource="http://creativecommons.org/publicdomain/zero/1.0/" /></cc:Work><cc:License
         rdf:about="http://creativecommons.org/publicdomain/zero/1.0/"><cc:permits
           rdf:resource="http://creativecommons.org/ns#Reproduction" /><cc:permits
           rdf:resource="http://creativecommons.org/ns#Distribution" /><cc:permits
           rdf:resource="http://creativecommons.org/ns#DerivativeWorks" /></cc:License></rdf:RDF></metadata><g
     id="g1"
     style="display:inline"><g
       id="g42"><path
         id="rect39"
         style="fill:#6c6c6c;fill-opacity:0.21558;stroke-width:3.946;stroke-linecap:square"
         d="M 8.0583777,175.09953 C 3.9423007,171.95553 2.6584478,166.1498 2.7413591,163.26811 2.8242705,160.38642 2.3365774,146.04095 3.6254303,132.414 4.6861041,121.19957 35.078454,115.05699 35.078454,115.05699 L 12.142128,77.788413 c -2.863566,-6.578135 0.570038,-9.377967 4.726071,-11.744342 l 29.684192,-18.00217 c 13.307594,-8.070476 51.80197,-8.709962 66.810419,-1.887675 l 22.37509,20.64695 c 1.91657,-0.159714 12.56388,-0.31252 18.45359,1.417411 7.30882,2.146753 20.15448,10.772322 20.15448,10.772322 10.05338,-1.045039 13.41577,-3.213275 20.62417,2.191543 l 51.17777,38.372788 c 5.14336,3.85646 6.34118,6.84319 6.54091,10.66833 l 1.46435,28.04389 c -0.66893,5.14939 -3.68441,11.55795 -12.34106,14.65593 l -134.83667,48.25443 c -7.95617,2.8473 -14.918004,1.87593 -22.183369,-2.27179 z"
         sodipodi:nodetypes="czscccsccscssscsssc" /><path
         id="path39"
         style="fill:#4e4e4e;fill-opacity:0.21558;stroke-width:3.946;stroke-linecap:square"
         d="m 9.1274558,173.76318 c -4.116077,-3.144 -4.8830596,-4.84075 -5.3170185,-8.49055 C 3.3764783,161.62284 3.4056555,146.30822 4.6945084,132.68127 5.7551822,121.46684 36.637606,114.49003 36.637606,114.49003 L 13.606786,77.126955 C 10.74322,70.54882 12.712166,68.410446 16.868199,66.044071 L 51.764146,47.106458 C 65.443211,39.682993 99.189578,42.305313 111.99306,46.8224 l 22.67576,21.181489 c 1.91657,-0.159714 14.41426,-0.681605 19.99039,1.885133 6.8411,3.149013 18.95177,10.638687 18.95177,10.638687 6.24479,-0.710952 15.70495,-0.484004 17.6842,0.98883 l 52.35953,38.962681 c 5.15733,3.83776 7.06492,5.02924 7.03909,8.85951 -0.0666,9.87949 1.26681,20.98354 0.65501,29.91755 -0.35477,5.18053 -4.72424,8.82396 -9.82887,10.5963 -45.47207,15.78798 -137.70194,49.15581 -137.70194,49.15581 -7.945196,2.87779 -13.535766,0.56077 -20.821315,-3.55139 z"
         sodipodi:nodetypes="czscccsccscsssssssc" /><path
         id="path40"
         style="fill:#030303;fill-opacity:0.21558;stroke-width:3.946;stroke-linecap:square"
         d="M 13.946652,171.21184 C 28.567627,111.47213 130.64307,105.51734 188.6197,85.15595 l 55.03501,35.32327 c 5.4101,3.47238 5.55302,5.5962 5.52719,9.42647 -0.0666,9.87949 1.17231,20.32209 0.56051,29.2561 -0.35477,5.18053 -3.49582,7.02857 -8.60045,8.80091 -45.47207,15.78798 -137.32396,48.68334 -137.32396,48.68334 -7.945196,2.87779 -11.872858,1.8738 -19.025928,-2.46471 z"
         sodipodi:nodetypes="ccssssssc" /><path
         id="path41"
         style="fill:#323232;fill-opacity:0.21558;stroke-width:3.946;stroke-linecap:square"
         d="M 13.946652,171.21184 C 28.567627,111.47213 130.64307,105.51734 188.6197,85.15595 l 54.75153,36.40995 c 5.353,3.55977 4.51358,5.35997 4.48775,9.19024 -0.0666,9.87949 0.69984,19.42439 0.088,28.3584 -0.35477,5.18053 -2.22015,5.0442 -7.32478,6.81654 -45.47207,15.78798 -136.06925,48.5768 -136.06925,48.5768 -7.945195,2.87779 -10.795666,3.21777 -18.023666,-0.99472 z"
         sodipodi:nodetypes="ccssssssc" /><path
         id="path42"
         style="fill:#2a2a2a;fill-opacity:0.21558;stroke-width:3.946;stroke-linecap:square"
         d="M 13.946652,171.21184 C 28.567627,111.47213 130.64307,105.51734 188.6197,85.15595 l 54.28381,37.47903 c 5.29017,3.65248 3.77859,4.75861 3.75276,8.58888 -0.0666,9.87949 0.49938,18.75622 -0.11246,27.69023 -0.35477,5.18053 -1.35152,3.9083 -6.45615,5.68064 -45.47207,15.78798 -136.19617,48.02327 -136.19617,48.02327 -7.945193,2.87779 -9.526749,4.42318 -16.795242,0.28095 z"
         sodipodi:nodetypes="ccssssssc" /></g><g
       id="path3"
       style="display:inline"><path
         style="color:#000000;display:inline;fill:#bcc1f3;stroke-linecap:square;-inkscape-stroke:none"
         d="M 13.347283,69.878343 C 34.357934,44.503185 76.410881,41.105555 110.36905,48.995158 L 142.9695,80.225436 38.742559,110.74701 Z"
         id="path4" /><path
         id="rect1"
         style="fill:url(#linearGradient6);stroke:#5c5c9d;stroke-width:3.946;stroke-linecap:square;stroke-dasharray:none;stroke-opacity:1"
         d="M 13.347283,69.878343 C 34.357934,44.503185 76.410881,41.105555 110.36905,48.995158 l 9.35491,9.307659 C 80.38597,49.640955 38.937168,61.772903 21.450148,82.398796 Z"
         sodipodi:nodetypes="ccccc" /><path
         style="color:#000000;display:inline;fill:#5c5c9d;stroke-linecap:square;-inkscape-stroke:none"
         d="M 83.886719,43.367187 C 56.309476,42.13718 28.163287,48.890703 11.828125,68.619141 l -0.90625,1.09375 0.75,1.207031 L 37.857422,113.0625 146.79687,81.160156 111.34375,47.195312 110.81641,47.074219 C 102.20903,45.074441 93.079133,43.77719 83.886719,43.367187 Z m -0.09766,3.988282 c 8.728215,0.371612 17.408081,1.588076 25.636721,3.46875 L 139.14258,79.291016 39.626953,108.43164 15.816406,70.115234 C 31.150929,52.590619 57.613051,46.240999 83.789062,47.355469 Z"
         id="path5" /></g><path
       id="rect6"
       style="display:inline;fill:url(#linearGradient8);stroke:#7e7e7a;stroke-width:3.946;stroke-linecap:square"
       d="M 34.076866,110.78322 C 55.992335,77.804327 106.04674,66.332011 151.67546,72.229586 L 186.62095,91.406174 67.218287,129.75935 Z"
       sodipodi:nodetypes="ccccc" /><g
       id="rect2"><path
         style="color:#000000;fill:url(#linearGradient4);stroke-linecap:square;-inkscape-stroke:none"
         d="m 38.175592,117.73957 26.860872,3.96875 C 95.359552,96.059495 150.07016,79.05469 189.83759,84.526825 l 53.81567,40.329045 -0.0668,34.84192 -151.777443,52.78168 -84.9730034,-46.24824 0.099243,-40.01962 z"
         id="path16" /><path
         id="rect12"
         style="fill:url(#linearGradient14);stroke-width:3.946;stroke-linecap:square"
         d="M 7.8844503,127.75483 91.807079,166.77618 92.274801,211.81109 6.9490069,166.37527 Z"
         sodipodi:nodetypes="ccccc" /><path
         id="path14"
         style="fill:url(#linearGradient15);stroke-width:3.946;stroke-linecap:square"
         d="M 244.30856,125.29798 91.807079,166.8525 92.274801,211.81109 243.18413,160.51664 Z"
         sodipodi:nodetypes="ccccc" /><path
         style="color:#000000;fill:#7e7e7a;stroke-linecap:square;-inkscape-stroke:none"
         d="m 64.523437,119.63672 -26.466796,-3.9082 -33.0898441,8.97265 -0.1074219,42.70117 86.773437,47.22657 153.923828,-53.52735 0.0723,-37.23047 -55.01758,-41.4175 -0.50391,-0.07031 C 185.03791,81.685693 181.87939,82.080182 176.43897,81.916531 134.96093,80.668851 77.655833,102.50394 64.523437,119.63672 Z M 188.51747,86.409275 241.67778,125.8418 241.61528,158.29492 91.986328,210.33008 8.8125,165.06055 l 0.091797,-37.33789 29.390625,-7.97071 27.335937,4.03907 0.679688,-0.57618 C 91.52076,95.226895 165.55961,81.6556 188.51747,86.409275 Z"
         id="path17"
         sodipodi:nodetypes="cccccccccsccccccccccc" /></g><g
       id="g25"
       transform="matrix(0.81162723,0.04196212,0.05676416,0.67023673,44.715417,15.335786)"
       style="display:inline"><path
         id="path18"
         style="fill:url(#linearGradient27);stroke:none;stroke-width:3.946;stroke-linecap:square;stroke-opacity:1"
         d="m 74.367024,125.35782 c -5.128025,1.31002 -5.712114,5.37568 -4.620464,9.61517 1.09165,4.23949 8.089934,6.58499 13.017998,5.15377 4.907188,-1.42504 7.56347,-5.97006 4.991709,-9.99209 -2.562785,-4.00812 -8.353887,-6.06329 -13.389243,-4.77685 z m 19.036657,21.064 c -3.820643,1.8934 -7.039736,4.44295 -4.788389,9.65399 2.251347,5.21104 7.607356,6.99638 12.733648,5.71173 5.08148,-1.27341 7.8239,-6.55761 5.89976,-10.67152 -1.91543,-4.09533 -10.055542,-6.57217 -13.845019,-4.6942 z m 18.740159,22.17216 c -3.37591,2.10863 -4.94055,6.70174 -2.82572,10.83246 2.12379,4.14823 10.80168,7.04316 14.58402,3.66266 3.74267,-3.34506 4.96086,-7.01125 2.40288,-11.13296 -2.54854,-4.1065 -10.81194,-5.45413 -14.16118,-3.36216 z"
         sodipodi:nodetypes="czccczzzzzzzzzz" /><path
         id="circle18"
         style="fill:url(#linearGradient29);stroke:none;stroke-width:3.946;stroke-linecap:square;stroke-opacity:1"
         d="m 103.15128,115.77734 c -4.71999,1.90619 -5.974873,6.44296 -2.43432,11.04463 3.54054,4.60168 10.14082,6.18637 13.75438,4.09825 3.58304,-2.07048 4.75584,-7.36977 2.15026,-11.01003 -2.59797,-3.62965 -8.75032,-6.03904 -13.47032,-4.13285 z m 18.84659,18.72965 c -4.86137,1.65903 -6.18915,6.17635 -2.74049,10.08323 3.45923,3.91899 10.274,5.53324 15.08721,3.70197 4.77912,-1.81819 5.74662,-6.26029 2.34116,-9.99039 -3.37383,-3.69559 -9.87806,-5.43631 -14.68788,-3.79481 z m 18.82817,22.12629 c -4.80781,1.916 -5.6588,6.56808 -1.91342,10.31683 3.77151,3.77462 10.65333,5.1273 15.38518,3.13735 4.69035,-1.97241 5.49723,-6.50176 1.78919,-10.19587 -3.66979,-3.65565 -10.49794,-5.15655 -15.26095,-3.25831 z"
         sodipodi:nodetypes="zzzzzcccccccccc" /><path
         id="circle19"
         style="fill:url(#linearGradient31);stroke:none;stroke-width:3.946;stroke-linecap:square;stroke-opacity:1"
         d="m 135.10804,107.462 c -4.54237,1.32337 -6.68235,5.3514 -4.15489,8.99732 2.54761,3.67514 8.7259,5.38526 13.36405,3.91639 4.62593,-1.4652 5.8445,-5.44289 3.23076,-8.9514 -2.59763,-3.48704 -7.92183,-5.27848 -12.43992,-3.96231 z m 14.94447,19.61902 c -4.65483,1.53963 -5.89167,5.7822 -2.5024,9.41483 3.41355,3.65876 10.08132,5.17923 14.7138,3.53845 4.60736,-1.63214 5.47117,-5.76051 2.07517,-9.30224 -3.36333,-3.5078 -9.68213,-5.17381 -14.28657,-3.65104 z m 18.55583,19.38171 c -4.61923,1.6751 -6.21823,5.39502 -3.28918,8.94033 3.64207,3.66411 9.24794,6.65693 13.75,4.99735 4.47165,-1.6486 5.2604,-6.59664 2.69139,-10.13233 -2.56901,-3.53569 -8.55286,-5.47301 -13.15221,-3.80535 z"
         sodipodi:nodetypes="ccccccccccccczc" /></g><g
       id="rect34"
       style="display:inline"><path
         id="rect33"
         style="display:inline;fill:url(#linearGradient34);stroke-width:3.946;stroke-linecap:square"
         d="M 15.635267,130.29389 24.388343,110.44913 107.04144,159.159 78.623095,175.29244 C 64.848367,163.71505 54.072005,148.02187 36.081386,140.98467 19.175017,143.1396 15.736208,133.66866 15.635267,130.29389 Z"
         sodipodi:nodetypes="cccccc" /><path
         style="color:#000000;fill:url(#linearGradient38);stroke-linecap:square;-inkscape-stroke:none"
         d="m 11.626225,105.97237 33.208239,-5.61266 c 34.505711,9.08867 76.051736,45.96601 80.849036,57.59658 1.34171,3.69723 0.52265,9.19547 -0.93545,12.62848 -2.87309,6.76458 -40.595219,16.02064 -45.034912,5.4122 -8.405488,-20.08452 -35.667477,-44.86811 -38.55363,-41.89449 0,0 -2.451942,1.79497 -3.708365,2.37201 -8.084606,3.71306 -25.901593,-3.76176 -25.691283,-11.05827 z"
         id="path35" /><path
         id="rect36"
         style="display:inline;fill:#6c6c6c;fill-opacity:0.21558;stroke-width:3.946;stroke-linecap:square"
         d="m 11.433781,106.77827 c 50.49026,24.30101 67.20207,41.49792 74.267671,54.18256 2.640694,4.74075 4.47551,8.243 10.063497,7.64567 12.227001,-1.30699 21.273071,-3.64822 30.208291,-10.87838 l -0.59009,12.10196 c -9.475,8.46843 -21.93837,13.68482 -43.45681,9.04715 -7.272087,-14.60171 -22.761419,-36.21711 -41.246652,-46.77456 l -0.236234,0.85045 c -16.360477,8.83747 -24.560831,-1.81049 -28.631697,-6.3311 z"
         sodipodi:nodetypes="cssccccccc" /><path
         style="color:#000000;fill:#7e7e7a;stroke-linecap:square;-inkscape-stroke:none"
         d="m 44.925781,98.34375 -35.2832029,5.96289 0.1445313,21.05274 c -0.075972,2.63578 1.4043516,4.92974 3.4062496,6.82031 2.001899,1.89057 4.638849,3.47775 7.529297,4.70898 5.780897,2.46247 12.583976,3.7374 17.552735,1.37891 2.651725,-1.25868 2.447735,-3.15545 2.745785,-3.38312 1.979536,0.95065 3.39144,2.14593 5.047183,3.28741 2.951742,2.11777 6.841566,5.51112 10.894532,9.61719 8.105931,8.21216 16.908639,19.36065 20.929687,28.96875 1.533504,3.66424 5.567239,5.2226 10.083984,5.7793 4.516746,0.5567 9.879328,0.15144 15.185548,-0.78906 5.30622,-0.9405 10.53387,-2.42542 14.71289,-4.14844 2.08951,-0.86151 3.91669,-1.77829 5.39258,-2.76563 1.47589,-0.98733 2.66573,-1.99252 3.29687,-3.47851 1.65049,-3.88599 2.61813,-9.54338 0.97461,-14.07227 l -0.0156,-0.0391 -0.0156,-0.041 C 126.0659,153.70722 122.479,149.26714 117.29107,143.95115 112.10308,138.63519 105.32305,132.5996 97.605469,126.64258 82.170305,114.72853 63.037713,103.11324 45.337891,98.451172 Z m -0.222656,4.03906 c 16.713564,4.49421 35.436817,15.76538 50.490234,27.38477 7.581781,5.8522 14.243951,11.78583 19.273441,16.93945 5.01137,5.13507 8.39833,9.63992 9.36914,11.9668 1.02029,2.87456 0.35582,8.1718 -0.9043,11.13867 -0.0871,0.20515 -0.70507,0.96999 -1.85937,1.74219 -1.15431,0.7722 -2.78084,1.60473 -4.70118,2.39648 -3.84066,1.58352 -8.85808,3.01908 -13.89648,3.91211 -5.038401,0.89303 -10.11908,1.23588 -14.013673,0.75586 -3.894592,-0.48002 -6.241393,-1.74479 -6.927734,-3.38477 -4.384431,-10.47639 -13.413762,-21.75944 -21.761719,-30.21679 -4.173978,-4.22868 -8.168066,-7.73031 -11.402343,-10.05078 -1.617139,-1.16024 -2.391632,-1.35953 -3.408512,-2.09478 -0.563632,-0.40753 -2.055995,-0.92716 -3.226563,-1.61421 -4.377802,-2.79179 -1.760817,1.53858 -5.107113,3.42383 -3.086438,1.41753 -9.263215,0.74697 -14.359375,-1.42383 -2.54808,-1.0854 -4.832957,-2.5002 -6.365234,-3.94726 -1.532277,-1.44707 -2.199105,-2.82543 -2.169922,-3.83789 v -0.0352 l -0.121094,-17.79883 z"
         id="path36"
         sodipodi:nodetypes="cccssscssssssssccccscccsscsssssssssccsscccc" /></g></g></svg>
