<?xml version="1.0" encoding="UTF-8" standalone="no"?>
<!-- Created with Inkscape (http://www.inkscape.org/) -->

<svg
   width="256mm"
   height="256mm"
   viewBox="0 0 256 256"
   version="1.1"
   id="svg1"
   inkscape:version="1.3.2 (091e20ef0f, 2023-11-25)"
   xml:space="preserve"
   sodipodi:docname="kmix-01.svg"
   xmlns:inkscape="http://www.inkscape.org/namespaces/inkscape"
   xmlns:sodipodi="http://sodipodi.sourceforge.net/DTD/sodipodi-0.dtd"
   xmlns:xlink="http://www.w3.org/1999/xlink"
   xmlns="http://www.w3.org/2000/svg"
   xmlns:svg="http://www.w3.org/2000/svg"
   xmlns:rdf="http://www.w3.org/1999/02/22-rdf-syntax-ns#"
   xmlns:cc="http://creativecommons.org/ns#"
   xmlns:dc="http://purl.org/dc/elements/1.1/"
   xmlns:a="http://ns.adobe.com/AdobeSVGViewerExtensions/3.0/"
   xmlns:i="http://ns.adobe.com/AdobeIllustrator/10.0/"><defs
     id="defs1"><linearGradient
       id="linearGradient43"
       inkscape:collect="always"><stop
         style="stop-color:#f3f2fb;stop-opacity:1"
         offset="0"
         id="stop42" /><stop
         style="stop-color:#c6c6e7;stop-opacity:1"
         offset="1"
         id="stop43" /></linearGradient><linearGradient
       id="linearGradient39"
       inkscape:collect="always"><stop
         style="stop-color:#716ebd;stop-opacity:1;"
         offset="0"
         id="stop40" /><stop
         style="stop-color:#817fbe;stop-opacity:1"
         offset="1"
         id="stop41" /></linearGradient><linearGradient
       id="linearGradient35"
       inkscape:collect="always"><stop
         style="stop-color:#8483bd;stop-opacity:1;"
         offset="0"
         id="stop35" /><stop
         style="stop-color:#a7a6b6;stop-opacity:1;"
         offset="0.59804183"
         id="stop39" /><stop
         style="stop-color:#acacb6;stop-opacity:1"
         offset="1"
         id="stop36" /></linearGradient><linearGradient
       id="linearGradient33"
       inkscape:collect="always"><stop
         style="stop-color:#8a8a8a;stop-opacity:1;"
         offset="0"
         id="stop33" /><stop
         style="stop-color:#696969;stop-opacity:1;"
         offset="1"
         id="stop34" /></linearGradient><linearGradient
       id="linearGradient7"
       inkscape:collect="always"><stop
         style="stop-color:#a1a1af;stop-opacity:1"
         offset="0"
         id="stop7" /><stop
         style="stop-color:#d7d7f3;stop-opacity:1"
         offset="1"
         id="stop8" /></linearGradient><linearGradient
       id="linearGradient4"
       inkscape:collect="always"><stop
         style="stop-color:#2f2d65;stop-opacity:1;"
         offset="0"
         id="stop5" /><stop
         style="stop-color:#4a4795;stop-opacity:1"
         offset="1"
         id="stop6" /></linearGradient><linearGradient
       id="linearGradient1"
       inkscape:collect="always"><stop
         style="stop-color:#1d1b53;stop-opacity:1"
         offset="0"
         id="stop1" /><stop
         style="stop-color:#1d1b53;stop-opacity:1"
         offset="0.08136427"
         id="stop3" /><stop
         style="stop-color:#4f4f50;stop-opacity:1"
         offset="0.08297082"
         id="stop4" /><stop
         style="stop-color:#515152;stop-opacity:1"
         offset="1"
         id="stop2" /></linearGradient><linearGradient
       inkscape:collect="always"
       xlink:href="#linearGradient1"
       id="linearGradient2"
       x1="36.884098"
       y1="120.27129"
       x2="197.71173"
       y2="122.67671"
       gradientUnits="userSpaceOnUse" /><linearGradient
       inkscape:collect="always"
       xlink:href="#linearGradient4"
       id="linearGradient6"
       x1="39.021351"
       y1="55.525244"
       x2="50.914845"
       y2="55.257977"
       gradientUnits="userSpaceOnUse" /><linearGradient
       inkscape:collect="always"
       xlink:href="#linearGradient7"
       id="linearGradient8"
       x1="68.867889"
       y1="97.826485"
       x2="177.16124"
       y2="94.472023"
       gradientUnits="userSpaceOnUse" /><linearGradient
       inkscape:collect="always"
       xlink:href="#linearGradient33"
       id="linearGradient34"
       x1="87.135063"
       y1="183.47404"
       x2="182.98926"
       y2="90.464256"
       gradientUnits="userSpaceOnUse" /><linearGradient
       inkscape:collect="always"
       xlink:href="#linearGradient35"
       id="linearGradient36"
       x1="129.9807"
       y1="70.525749"
       x2="131.07483"
       y2="90.103241"
       gradientUnits="userSpaceOnUse" /><linearGradient
       inkscape:collect="always"
       xlink:href="#linearGradient39"
       id="linearGradient41"
       x1="111.98593"
       y1="71.661644"
       x2="112.2532"
       y2="87.02964"
       gradientUnits="userSpaceOnUse" /><linearGradient
       inkscape:collect="always"
       xlink:href="#linearGradient43"
       id="linearGradient42"
       gradientUnits="userSpaceOnUse"
       x1="114.99271"
       y1="71.995728"
       x2="148.53503"
       y2="70.325294" /><linearGradient
       id="XMLID_27_"
       gradientUnits="userSpaceOnUse"
       x1="17.856899"
       y1="-44.930698"
       x2="165.97391"
       y2="136.72211"
       gradientTransform="matrix(1.0868233,0,0,1.0868233,-21.219633,69.588987)"><stop
         offset="0"
         style="stop-color:#FFFFFF"
         id="stop5696" /><stop
         offset="1"
         style="stop-color:#545477"
         id="stop5698" /><a:midPointStop
         offset="0"
         style="stop-color:#FFFFFF"
         id="midPointStop5700" /><a:midPointStop
         offset="0.5"
         style="stop-color:#FFFFFF"
         id="midPointStop5702" /><a:midPointStop
         offset="1"
         style="stop-color:#545477"
         id="midPointStop5704" /></linearGradient></defs><sodipodi:namedview
     id="base"
     pagecolor="#ffffff"
     bordercolor="#000000"
     borderopacity="0.3"
     inkscape:pageopacity="0.0"
     inkscape:pageshadow="2"
     inkscape:zoom="0.98994949"
     inkscape:cx="505.07627"
     inkscape:cy="476.792"
     inkscape:document-units="mm"
     inkscape:showpageshadow="2"
     inkscape:pagecheckerboard="0"
     inkscape:deskcolor="#d1d1d1"
     inkscape:current-layer="svg1"
     showguides="true" /><metadata
     id="metadata1"><rdf:RDF><cc:Work
         rdf:about=""><dc:format>image/svg+xml</dc:format><dc:type
           rdf:resource="http://purl.org/dc/dcmitype/StillImage" /><cc:license
           rdf:resource="http://creativecommons.org/publicdomain/zero/1.0/" /></cc:Work><cc:License
         rdf:about="http://creativecommons.org/publicdomain/zero/1.0/"><cc:permits
           rdf:resource="http://creativecommons.org/ns#Reproduction" /><cc:permits
           rdf:resource="http://creativecommons.org/ns#Distribution" /><cc:permits
           rdf:resource="http://creativecommons.org/ns#DerivativeWorks" /></cc:License></rdf:RDF></metadata><g
     id="rect1"
     style="display:inline"
     transform="matrix(1.1089334,0,0,1.1089334,23.592154,-12.175978)"><g
       id="g44"><path
         id="rect44"
         style="fill:#07070b;fill-opacity:0.0956284;stroke-width:3.70001;stroke-linecap:round;stroke-linejoin:round"
         d="m 70.935782,54.807895 54.146358,-28.348214 74.16729,-9.020347 c 4.77539,0.120162 6.86932,3.271208 6.81537,9.554883 l 2.40543,181.208733 c -0.0481,8.19938 -4.93696,11.02417 -11.75986,12.2944 L 54.255714,240.00803 c -13.728855,1.41234 -12.551751,-7.54467 -15.501633,-13.63075 z"
         sodipodi:nodetypes="ccccccccc" /><path
         id="path45"
         style="fill:#07070b;fill-opacity:0.0956284;stroke-width:3.70001;stroke-linecap:round;stroke-linejoin:round"
         d="m 70.935782,54.807895 54.146358,-28.348214 72.4664,-8.453383 c 4.77539,0.120162 6.86932,3.271208 6.81537,9.554883 l 1.64947,178.940879 c -0.48238,8.29961 -4.87014,11.82598 -11.75986,12.2944 L 55.200654,237.74017 C 41.471799,239.15251 42.648903,230.1955 39.699021,224.10942 Z"
         sodipodi:nodetypes="ccccccccc" /><path
         id="path46"
         style="fill:#424255;fill-opacity:0.228142;stroke-width:3.70001;stroke-linecap:round;stroke-linejoin:round"
         d="m 70.935782,54.807895 54.146358,-28.348214 71.23798,-8.075407 c 4.77539,0.120162 6.86932,3.271208 6.81537,9.554883 l 1.27149,177.523473 c -0.48238,8.29961 -4.91695,11.36585 -11.75986,12.2944 L 56.523571,236.22827 C 42.794716,237.64061 43.97182,228.6836 41.021938,222.59752 Z"
         sodipodi:nodetypes="cccccsccc" /><path
         id="path47"
         style="fill:#2b2b35;fill-opacity:0.334699;stroke-width:3.70001;stroke-linecap:round;stroke-linejoin:round"
         d="m 70.935782,54.807895 54.146358,-28.348214 70.10208,-7.674503 c 4.77539,0.120162 6.86932,3.271208 6.81537,9.554883 l 0.5365,175.919859 c -0.48238,8.29961 -2.47506,11.03992 -11.75986,12.2944 L 57.751994,234.52738 c -13.728855,1.41234 -12.551751,-7.54467 -15.501633,-13.63075 z"
         sodipodi:nodetypes="cccccsccc" /><path
         id="path48"
         style="fill:#363654;fill-opacity:0.323771;stroke-width:3.70001;stroke-linecap:round;stroke-linejoin:round"
         d="m 70.935782,54.807895 54.146358,-28.348214 69.23345,-7.540868 c 4.77539,0.120162 6.86932,3.271208 6.81537,9.554883 l -0.19849,176.187124 c 0.22633,6.78771 -0.81442,9.11889 -9.55488,9.9558 L 58.754255,232.85695 C 45.0254,234.26929 46.202504,225.31228 43.252622,219.2262 Z"
         sodipodi:nodetypes="ccccccccc" /><path
         id="path49"
         style="fill:#151522;fill-opacity:0.236339;stroke-width:3.70001;stroke-linecap:round;stroke-linejoin:round"
         d="m 70.935782,54.807895 54.146358,-28.348214 68.76098,-7.162892 c 4.77539,0.120162 6.86932,3.271208 6.81537,9.554883 l -0.57647,175.809148 c -0.48238,8.29961 -1.51403,6.38037 -8.27012,7.78424 L 58.754255,232.85695 C 45.0254,234.26929 46.202504,225.31228 43.252622,219.2262 Z"
         sodipodi:nodetypes="ccccccccc" /></g><path
       style="color:#000000;fill:url(#linearGradient8);stroke-linecap:round;stroke-linejoin:round;-inkscape-stroke:none"
       d="M 39.793516,21.945743 51.85029,20.446117 195.90857,16.570709 197.31173,206.73298 48.643055,228.78271 38.67056,224.85719 Z"
       id="path8" /><path
       id="rect4"
       style="display:inline;fill:url(#linearGradient6);stroke-width:3.90001;stroke-linecap:round;stroke-linejoin:round"
       d="M 39.021351,21.916101 51.315749,21.247927 48.213658,227.82872 38.643375,224.04895 Z"
       sodipodi:nodetypes="ccccc" /><path
       style="color:#000000;display:inline;fill:url(#linearGradient2);stroke-linecap:round;stroke-linejoin:round;-inkscape-stroke:none"
       d="m 195.85547,14.621094 -144.058595,3.875 a 1.950195,1.950195 0 0 0 -0.1875,0.01563 L 39.552734,20.009766 A 1.950195,1.950195 0 0 0 37.84375,21.935547 L 36.720703,224.8457 a 1.950195,1.950195 0 0 0 1.236328,1.82617 l 9.972656,3.92579 a 1.950195,1.950195 0 0 0 1,0.11328 L 197.59766,208.66211 a 1.950195,1.950195 0 0 0 1.66406,-1.94336 L 197.85937,16.556641 a 1.950195,1.950195 0 0 0 -2.0039,-1.935547 z m -1.88086,3.951172 1.375,186.480464 -146.476563,21.72461 -8.246094,-3.24609 1.107422,-199.861328 10.263672,-1.277344 z"
       id="path9" /><g
       id="g32"><path
         id="rect10"
         style="display:inline;fill:#f3f3f6;stroke-width:3.90001;stroke-linecap:round;stroke-linejoin:round"
         d="m 188.5363,43.906364 -42.11681,3.020487 v 6.815605 l 42.11681,-3.020487 z m -80.15015,6.019271 -45.04583,3.351216 v 6.815605 l 45.04583,-3.351217 z m 80.15015,23.651786 -42.11681,3.021004 v 6.815088 l 42.11681,-3.020487 z m -80.15015,6.019271 -45.04583,3.351733 v 6.815088 l 45.04583,-3.351216 z m 80.15015,22.329388 -42.11681,3.02049 v 6.81508 l 42.11681,-3.02048 z m -80.15015,6.77478 -45.04583,4.10724 v 6.81561 l 45.04583,-4.10725 z m 80.15015,17.89968 -42.11681,3.64991 v 6.81509 l 42.11681,-3.64939 z m -80.15015,7.97264 -45.04583,4.78007 v 6.81509 l 45.04583,-4.78007 z m 80.15015,21.29379 -42.11681,3.91914 v 6.81561 l 42.11681,-3.91914 z m -80.15015,8.48527 -45.04583,5.06843 v 6.8156 l 45.04583,-5.06842 z m 80.15015,18.37562 -42.11681,4.1889 v 6.8156 l 42.11681,-4.18889 z m -80.15015,8.99842 -45.04583,5.35678 v 6.81561 l 45.04583,-5.35678 z" /><path
         id="rect9"
         style="display:inline;fill:url(#linearGradient34);stroke-width:3.90001;stroke-linecap:round;stroke-linejoin:round"
         d="m 188.60192,40.224935 -42.17468,2.931087 v 6.725171 l 42.10802,-3.284554 z m -80.15014,6.019271 -45.103709,3.261816 v 6.725171 L 108.38512,52.61591 Z m 80.15014,23.651786 -42.17468,2.931087 v 6.725688 l 42.10802,-3.285071 z m -80.15014,6.019271 -45.103709,3.261816 v 6.725688 l 45.037049,-3.6158 z m 80.15014,22.329386 -42.17468,2.930571 v 6.72569 l 42.10802,-3.28507 z m -80.15014,6.774781 -45.103709,4.01784 v 6.72517 l 45.037049,-4.37131 z m 80.15014,17.89865 -42.17468,3.56102 v 6.72517 l 42.10802,-3.91345 z m -80.15014,7.97264 -45.103709,4.69119 v 6.72517 l 45.037049,-5.04362 z m 80.15014,21.29379 -42.17468,3.83077 v 6.72517 l 42.10802,-4.1832 z m -80.15014,8.48527 -45.103709,4.98006 v 6.72517 l 45.037049,-5.33249 z m 80.15014,18.37511 -42.17468,4.10104 v 6.72517 l 42.10802,-4.45296 z m -80.15014,8.99841 -45.103709,5.26893 v 6.72517 l 45.037049,-5.62084 z" /></g><path
       style="color:#000000;fill:#7775b6;stroke-linecap:round;stroke-linejoin:round;-inkscape-stroke:none"
       d="m 126.75195,27.220771 a 3.7187034,3.985932 44.006175 0 0 -3.84961,4.11681 V 191.03094 a 3.7187034,3.985932 44.006175 0 0 3.84961,3.58241 3.7187034,3.985932 44.006175 0 0 3.85157,-4.11695 V 30.803043 a 3.7187034,3.985932 44.006175 0 0 -3.85157,-3.582272 z"
       id="path32" /><path
       style="color:#000000;display:inline;fill:#363638;fill-opacity:1;stroke-linecap:round;stroke-linejoin:round;-inkscape-stroke:none"
       d="m 130.76099,28.824456 a 3.5920343,4.1264915 43.014734 0 0 -3.84961,4.384012 V 192.90183 a 3.5920343,4.1264915 43.014734 0 0 3.84961,3.3152 3.5920343,4.1264915 43.014734 0 0 3.85157,-4.38428 V 32.13939 a 3.5920343,4.1264915 43.014734 0 0 -3.85157,-3.314934 z"
       id="path33" /><g
       id="rect34"><path
         style="color:#000000;display:inline;fill:url(#linearGradient36);stroke-linecap:round;stroke-linejoin:round;-inkscape-stroke:none"
         d="m 109.1796,70.225071 39.99021,-2.472243 5.84652,3.340868 -0.33408,18.575233 -38.75409,3.80859 c 0,0 -4.16495,-2.484906 -6.34765,-3.374277 z"
         id="path43" /><path
         id="rect39"
         style="fill:url(#linearGradient41);stroke-width:3.70001;stroke-linecap:round;stroke-linejoin:round"
         d="m 109.91459,70.960059 6.21402,3.274051 -0.26727,19.377041 -5.81311,-4.142678 z"
         sodipodi:nodetypes="ccccc" /><path
         id="path41"
         style="fill:url(#linearGradient42);stroke-width:3.70001;stroke-linecap:round;stroke-linejoin:round"
         d="m 148.80231,67.552373 6.28083,4.409946 -38.75408,2.405426 -6.48128,-3.274052 z"
         sodipodi:nodetypes="ccccc" /><path
         style="color:#000000;display:inline;fill:#5a58b0;stroke-linecap:round;stroke-linejoin:round;-inkscape-stroke:none"
         d="m 149.05469,65.90625 -39.98828,2.472656 a 1.850185,1.850185 0 0 0 -1.73633,1.882813 l 0.40039,19.878906 a 1.850185,1.850185 0 0 0 1.15234,1.675781 c 1.82914,0.745308 6.09766,3.25 6.09766,3.25 a 1.850185,1.850185 0 0 0 1.12891,0.251953 l 38.7539,-3.808593 a 1.850185,1.850185 0 0 0 1.66797,-1.806641 l 0.33398,-18.576172 a 1.850185,1.850185 0 0 0 -0.93164,-1.638672 l -5.8457,-3.341797 a 1.850185,1.850185 0 0 0 -1.0332,-0.240234 z m -0.32227,3.726562 4.41406,2.523438 -0.28515,15.832031 -36.5625,3.59375 c -0.49586,-0.298131 -2.7449,-1.549038 -4.89063,-2.59375 l -0.34375,-17.02539 z"
         id="path44" /></g></g><g
     id="g116"
     transform="matrix(1.3600178,0,0,1.3600178,-55.531491,5.6774814)"
     style="display:inline"><path
       d="m 69.686591,70.591555 -26.11133,2.499657 V 180.60991 L 69.41045,176.72036 V 130.8793 l 34.72753,50.84379 27.22501,-8.61437 L 95.802799,124.21189 131.64156,78.092759 103.86184,71.705795 69.411062,117.823 Z"
       style="display:inline;overflow:visible;fill:#126bff;fill-opacity:1;stroke-width:4.36832"
       id="path1-3"
       inkscape:label="kmodern" /><path
       i:knockout="Off"
       d="m 68.894321,69.588987 -26.414154,2.529038 c -0.383648,0.03695 -0.676004,0.358652 -0.676004,0.743387 V 181.61221 c 0,0.21737 0.09455,0.42495 0.258664,0.56624 0.165197,0.14237 0.384736,0.20541 0.59884,0.1728 l 26.13484,-3.9343 c 0.366259,-0.0554 0.635791,-0.36952 0.635791,-0.74121 0,0 0,-39.60167 0,-43.94679 2.519257,3.68977 33.761082,49.42764 33.761082,49.42764 0.18693,0.2717 0.52819,0.39017 0.84229,0.29127 l 27.5401,-8.71089 c 0.22932,-0.0707 0.40864,-0.24997 0.48363,-0.4782 0.0239,-0.0761 0.0359,-0.15542 0.0359,-0.23367 0,-0.15542 -0.0489,-0.30975 -0.14237,-0.43908 0,0 -34.990281,-48.11367 -35.639114,-49.00486 0.676004,-0.87055 35.906464,-46.20412 35.906464,-46.20412 0.10434,-0.133679 0.15759,-0.294529 0.15759,-0.458639 0,-0.08586 -0.0152,-0.169545 -0.0424,-0.24997 -0.087,-0.241274 -0.2891,-0.421687 -0.53689,-0.478202 l -28.10199,-6.462251 c -0.28801,-0.0663 -0.58797,0.04347 -0.76513,0.281487 0,0 -30.975548,41.468825 -33.487196,44.830375 0.025,-4.12123 0.267358,-45.505292 0.267358,-45.505292 0,-0.210844 -0.08803,-0.411906 -0.242362,-0.553193 -0.155415,-0.143461 -0.362999,-0.213018 -0.574929,-0.192368 z m -0.680351,1.565026 c -0.0076,1.596543 -0.27388,46.948597 -0.27388,46.948597 0,0.32278 0.204323,0.60862 0.508633,0.71078 0.306485,0.10216 0.645573,-0.001 0.836854,-0.26193 0,0 33.980613,-45.491159 34.553373,-46.25737 0.88033,0.201063 24.42418,5.615616 26.48697,6.089471 -1.38135,1.775869 -35.533687,45.724829 -35.533687,45.724829 -0.104335,0.13477 -0.157589,0.29562 -0.157589,0.45755 0,0.15433 0.04673,0.30866 0.142374,0.43908 0,0 34.180592,46.99859 35.360882,48.62013 -1.80195,0.56949 -25.04041,7.91968 -26.02072,8.22942 -0.61406,-0.89989 -34.81204,-50.96658 -34.81204,-50.96658 -0.18476,-0.27061 -0.523849,-0.38908 -0.837941,-0.29126 -0.311918,0.0956 -0.524935,0.38473 -0.524935,0.71187 0,0 0,44.4728 0,45.72374 -1.169422,0.17715 -23.074346,3.47349 -24.641545,3.70933 0,-1.69762 0,-105.873982 0,-107.204254 1.240065,-0.11629 23.409087,-2.238856 24.913251,-2.383403 z"
       id="path5707"
       style="overflow:visible;fill:url(#XMLID_27_);stroke-width:1.08682"
       inkscape:connector-curvature="0" /></g></svg>
