<?xml version="1.0" encoding="UTF-8" standalone="no"?>
<!-- Created with Inkscape (http://www.inkscape.org/) -->

<svg
   width="256mm"
   height="256mm"
   viewBox="0 0 256 256"
   version="1.1"
   id="svg1"
   inkscape:version="1.3.2 (091e20ef0f, 2023-11-25)"
   sodipodi:docname="kmix-03.svg"
   xml:space="preserve"
   xmlns:inkscape="http://www.inkscape.org/namespaces/inkscape"
   xmlns:sodipodi="http://sodipodi.sourceforge.net/DTD/sodipodi-0.dtd"
   xmlns="http://www.w3.org/2000/svg"
   xmlns:svg="http://www.w3.org/2000/svg"
   xmlns:rdf="http://www.w3.org/1999/02/22-rdf-syntax-ns#"
   xmlns:cc="http://creativecommons.org/ns#"
   xmlns:dc="http://purl.org/dc/elements/1.1/"
   xmlns:a="http://ns.adobe.com/AdobeSVGViewerExtensions/3.0/"><defs
     id="defs1"><linearGradient
       id="XMLID_27_"
       gradientUnits="userSpaceOnUse"
       x1="17.856899"
       y1="-44.930698"
       x2="165.97391"
       y2="136.72211"
       gradientTransform="matrix(1.0868233,0,0,1.0868233,-21.219633,69.588987)"><stop
         offset="0"
         style="stop-color:#FFFFFF"
         id="stop5696" /><stop
         offset="1"
         style="stop-color:#545477"
         id="stop5698" /><a:midPointStop
         offset="0"
         style="stop-color:#FFFFFF"
         id="midPointStop5700" /><a:midPointStop
         offset="0.5"
         style="stop-color:#FFFFFF"
         id="midPointStop5702" /><a:midPointStop
         offset="1"
         style="stop-color:#545477"
         id="midPointStop5704" /></linearGradient><linearGradient
       gradientTransform="matrix(0.0041,-0.0118,-0.008,-0.0028,35.731034,29.05)"
       gradientUnits="userSpaceOnUse"
       id="gradient4"
       spreadMethod="pad"
       x1="-819.20001"
       x2="819.20001"><stop
         offset="0.0"
         stop-color="#9999cc"
         id="stop127" /><stop
         offset="0.20392156862745098"
         stop-color="#ff9933"
         id="stop129" /><stop
         offset="0.4823529411764706"
         stop-color="#ffff99"
         id="stop131" /><stop
         offset="1.0"
         stop-color="#ffcc66"
         id="stop133" /></linearGradient><linearGradient
       gradientTransform="matrix(0.0157,0.0157,0.0181,-0.0181,51.131034,36.15)"
       gradientUnits="userSpaceOnUse"
       id="gradient5"
       spreadMethod="pad"
       x1="-819.20001"
       x2="819.20001"><stop
         offset="0.0"
         stop-color="#333333"
         id="stop136" /><stop
         offset="0.3686274509803922"
         stop-color="#666666"
         id="stop138" /><stop
         offset="0.7215686274509804"
         stop-color="#cccccc"
         id="stop140" /><stop
         offset="1.0"
         stop-color="#cccccc"
         id="stop142" /></linearGradient><radialGradient
       cx="0"
       cy="0"
       gradientTransform="matrix(0.0218,0,0,0.0218,43.381034,29.3)"
       gradientUnits="userSpaceOnUse"
       id="gradient6"
       r="819.20001"
       spreadMethod="pad"><stop
         offset="0.0"
         stop-color="#dddddd"
         id="stop145" /><stop
         offset="0.5137254901960784"
         stop-color="#666666"
         id="stop147" /><stop
         offset="1.0"
         stop-color="#9999ff"
         id="stop149" /></radialGradient><linearGradient
       gradientTransform="matrix(0.0188,0.0142,0.0131,-0.0174,20.781034,24.85)"
       gradientUnits="userSpaceOnUse"
       id="gradient7"
       spreadMethod="pad"
       x1="-819.20001"
       x2="819.20001"><stop
         offset="0.0"
         stop-color="#6666cc"
         id="stop152" /><stop
         offset="0.20784313725490197"
         stop-color="#333366"
         id="stop154" /><stop
         offset="0.4470588235294118"
         stop-color="#6666cc"
         id="stop156" /><stop
         offset="0.7098039215686275"
         stop-color="#333366"
         id="stop158" /><stop
         offset="1.0"
         stop-color="#333366"
         id="stop160" /></linearGradient><linearGradient
       gradientTransform="matrix(-0.0126,-0.0095,-0.0105,0.014,13.831034,49.35)"
       gradientUnits="userSpaceOnUse"
       id="gradient8"
       spreadMethod="pad"
       x1="-819.20001"
       x2="819.20001"><stop
         offset="0.0"
         stop-color="#333366"
         id="stop163" /><stop
         offset="1.0"
         stop-color="#6666cc"
         id="stop165" /></linearGradient><linearGradient
       gradientTransform="matrix(-0.0053,-0.0273,-0.0016,3e-4,20.381034,24.55)"
       gradientUnits="userSpaceOnUse"
       id="gradient9"
       spreadMethod="pad"
       x1="-819.20001"
       x2="819.20001"><stop
         offset="0.0"
         stop-color="#9999ff"
         id="stop168" /><stop
         offset="1.0"
         stop-color="#ccccff"
         id="stop170" /></linearGradient><radialGradient
       cx="0"
       cy="0"
       gradientTransform="matrix(0.0258,0,0,0.0257,8.6310345,42.8)"
       gradientUnits="userSpaceOnUse"
       id="gradient10"
       r="819.20001"
       spreadMethod="pad"><stop
         offset="0.0"
         stop-color="#ccccff"
         id="stop173" /><stop
         offset="0.28627450980392155"
         stop-color="#9999ff"
         id="stop175" /><stop
         offset="0.596078431372549"
         stop-color="#333366"
         id="stop177" /><stop
         offset="0.8274509803921568"
         stop-color="#9999ff"
         id="stop179" /><stop
         offset="1.0"
         stop-color="#ccccff"
         id="stop181" /></radialGradient><radialGradient
       cx="0"
       cy="0"
       gradientTransform="matrix(0.0071,0,0,0.0071,6.1310345,42.7)"
       gradientUnits="userSpaceOnUse"
       id="gradient11"
       r="819.20001"
       spreadMethod="pad"><stop
         offset="0.0"
         stop-color="#ffffff"
         id="stop184" /><stop
         offset="0.8509803921568627"
         stop-color="#ccccff"
         id="stop186" /><stop
         offset="1.0"
         stop-color="#ccccff"
         id="stop188" /></radialGradient></defs><sodipodi:namedview
     id="base"
     pagecolor="#ffffff"
     bordercolor="#000000"
     borderopacity="0.3"
     inkscape:pageopacity="0.0"
     inkscape:pageshadow="2"
     inkscape:zoom="0.98994949"
     inkscape:cx="505.07627"
     inkscape:cy="476.792"
     inkscape:document-units="mm"
     inkscape:showpageshadow="2"
     inkscape:pagecheckerboard="0"
     inkscape:deskcolor="#d1d1d1"
     inkscape:current-layer="svg1"
     showguides="true" /><metadata
     id="metadata1"><rdf:RDF><cc:Work
         rdf:about=""><dc:format>image/svg+xml</dc:format><dc:type
           rdf:resource="http://purl.org/dc/dcmitype/StillImage" /><cc:license
           rdf:resource="http://creativecommons.org/publicdomain/zero/1.0/" /></cc:Work><cc:License
         rdf:about="http://creativecommons.org/publicdomain/zero/1.0/"><cc:permits
           rdf:resource="http://creativecommons.org/ns#Reproduction" /><cc:permits
           rdf:resource="http://creativecommons.org/ns#Distribution" /><cc:permits
           rdf:resource="http://creativecommons.org/ns#DerivativeWorks" /></cc:License></rdf:RDF></metadata><g
     id="g4"
     transform="matrix(3.6218765,0,0,3.6218765,2.7051241,9.8273818)"><g
       id="g3"><path
         inkscape:connector-curvature="0"
         style="fill:url(#gradient4);fill-rule:evenodd;stroke:none"
         id="path64"
         d="m 27.281034,27.2 q -1.3,4 -0.45,7.4 0.85,3.45 3.5,4.5 l 6.85,2.35 6.65,-19.4 -6.65,-2.2 -0.2,-0.15 q -2.7,-0.75 -5.5,1.4 -2.8,2.2 -4.2,6.1" /><path
         style="fill:none;stroke:#996600;stroke-width:1.25;stroke-linecap:round;stroke-linejoin:round"
         inkscape:connector-curvature="0"
         id="path66"
         d="m 27.281034,27.2 q 1.4,-3.9 4.2,-6.1 2.8,-2.15 5.5,-1.4 l 0.2,0.15 6.65,2.2 -6.65,19.4 -6.85,-2.35 q -2.65,-1.05 -3.5,-4.5 -0.85,-3.4 0.45,-7.4 z" /><path
         style="fill:#666666;fill-rule:evenodd;stroke:none"
         inkscape:connector-curvature="0"
         id="path68"
         d="m 38.681034,23.9 q -2.9,2.2 -4.25,6.2 -1.4,4 -0.45,7.5 0.95,3.55 3.65,4.45 2.7,0.9 5.6,-1.25 2.9,-2.2 4.25,-6.2 1.4,-4.05 0.45,-7.5 -0.95,-3.55 -3.65,-4.45 -2.65,-0.9 -5.6,1.25" /><path
         style="fill:none;stroke:#333333;stroke-width:1.25;stroke-linecap:round;stroke-linejoin:round"
         inkscape:connector-curvature="0"
         id="path70"
         d="m 38.681034,23.9 q 2.95,-2.15 5.6,-1.25 2.7,0.9 3.65,4.45 0.95,3.45 -0.45,7.5 -1.35,4 -4.25,6.2 -2.9,2.15 -5.6,1.25 -2.7,-0.9 -3.65,-4.45 -0.95,-3.5 0.45,-7.5 1.35,-4 4.25,-6.2 z" /><path
         inkscape:connector-curvature="0"
         style="fill:url(#gradient5);fill-rule:evenodd;stroke:none"
         id="path72"
         d="m 34.931034,30.55 q -2.9,8.55 -0.25,16.2 2.6,7.65 9.35,9.9 6.8,2.3 13.6,-2.1 6.8,-4.35 9.75,-12.85 2.9,-8.45 0.25,-16.15 -2.7,-7.65 -9.4,-10 -6.75,-2.3 -13.55,2.1 -6.8,4.35 -9.75,12.9" /><path
         style="fill:none;stroke:#333333;stroke-width:1.25;stroke-linecap:round;stroke-linejoin:round"
         inkscape:connector-curvature="0"
         id="path74"
         d="m 34.931034,30.55 q 2.95,-8.55 9.75,-12.9 6.8,-4.4 13.55,-2.1 6.7,2.35 9.4,10 2.65,7.7 -0.25,16.15 -2.95,8.5 -9.75,12.85 -6.8,4.4 -13.6,2.1 -6.75,-2.25 -9.35,-9.9 -2.65,-7.65 0.25,-16.2 z" /><path
         inkscape:connector-curvature="0"
         style="fill:url(#gradient6);fill-rule:evenodd;stroke:none"
         id="path76"
         d="m 39.281034,32.05 q -1.45,4.25 -0.2,8.05 1.3,3.85 4.55,4.95 3.3,1.1 6.65,-1.1 3.35,-2.25 4.8,-6.5 1.45,-4.2 0.2,-8.05 -1.25,-3.8 -4.5,-4.9 -3.3,-1.15 -6.7,1.1 -3.3,2.2 -4.8,6.45" /><path
         style="fill:none;stroke:#333333;stroke-width:1.25;stroke-linecap:round;stroke-linejoin:round"
         inkscape:connector-curvature="0"
         id="path78"
         d="m 39.281034,32.05 q 1.5,-4.25 4.8,-6.45 3.4,-2.25 6.7,-1.1 3.25,1.1 4.5,4.9 1.25,3.85 -0.2,8.05 -1.45,4.25 -4.8,6.5 -3.35,2.2 -6.65,1.1 -3.25,-1.1 -4.55,-4.95 -1.25,-3.8 0.2,-8.05 z" /><path
         style="fill:none;stroke:#999999;stroke-width:1.25;stroke-linecap:round;stroke-linejoin:round"
         inkscape:connector-curvature="0"
         id="path80"
         d="m 41.731034,49.85 q 3.15,2.45 7.2,1.9 5.15,-0.65 9.55,-6.25 4.55,-5.85 4.35,-13.75" /><path
         style="fill:none;stroke:#ffffff;stroke-width:1.25;stroke-linecap:round;stroke-linejoin:round"
         inkscape:connector-curvature="0"
         id="path82"
         d="m 51.531034,47.4 q 4.4,-1.9 6.1,-6.75" /><path
         style="fill:none;stroke:#ffffff;stroke-width:1.25;stroke-linecap:round;stroke-linejoin:round"
         inkscape:connector-curvature="0"
         id="path84"
         d="m 54.481034,52.8 q 6.95,-3.7 9.6,-10.65" /></g><g
       id="g2"><path
         inkscape:connector-curvature="0"
         style="display:inline;fill:url(#gradient7);fill-rule:evenodd;stroke:none"
         id="path86"
         d="m 23.131034,47.35 4.35,-1.4 -7.1,-32.25 q 11.95,4.7 10.4,11.45 5.15,-8.5 1.3,-14.45 -3.15,-4.95 -14.7,-10.7 l -4.45,1.25 10.2,46.1" /><path
         inkscape:connector-curvature="0"
         style="display:inline;fill:url(#gradient8);fill-rule:evenodd;stroke:none"
         id="path88"
         d="m 0.33103448,53.6 q 1.25000002,5.35 6.05000002,7.85 4.8499995,2.45 10.4499995,0.65 5.55,-1.85 8.6,-6.8 3.05,-4.95 1.85,-10.2 -1.1,-5.2 -5.85,-7.75 -4.8,-2.55 -10.35,-0.85 -5.5999995,1.7 -8.7999995,6.7 -3.15000002,5.05 -1.95000002,10.4" /><path
         inkscape:connector-curvature="0"
         style="display:inline;fill:url(#gradient9);fill-rule:evenodd;stroke:none"
         id="path90"
         d="m 24.581034,46.85 1.5,-0.45 -9.8,-44.25 -1.5,0.4 9.8,44.3" /><path
         inkscape:connector-curvature="0"
         style="display:inline;fill:url(#gradient10);fill-rule:evenodd;stroke:none"
         id="path92"
         d="m 1.8810345,53.15 q 1.05,4.6 5.3,6.7 4.2999995,2.15 9.2999995,0.55 4.9,-1.65 7.6,-5.95 2.75,-4.3 1.8,-8.9 -1.05,-4.55 -5.25,-6.7 -4.15,-2.15 -9.15,-0.65 -4.9999995,1.5 -7.8499995,5.85 -2.80000002,4.45 -1.75,9.1" /><path
         inkscape:connector-curvature="0"
         style="display:inline;fill:url(#gradient11);fill-rule:evenodd;stroke:none"
         id="path94"
         d="m 4.7810345,43 q -0.8,1.25 -0.55,2.5 0.35,1.25 1.5,1.75 l 2.65,0.15 q 1.35,-0.45 2.1499995,-1.65 0.75,-1.15 0.5,-2.4 -0.25,-1.25 -1.4499995,-1.75 l -2.6,-0.2 q -1.45,0.45 -2.2,1.6" /></g></g></svg>
