<?xml version="1.0" encoding="UTF-8" standalone="no"?>
<!-- Created with Inkscape (http://www.inkscape.org/) -->

<svg
   width="256mm"
   height="256mm"
   viewBox="0 0 256 256"
   version="1.1"
   id="svg1"
   inkscape:version="1.3.2 (091e20ef0f, 2023-11-25)"
   sodipodi:docname="kwrite-win2000.svg"
   xml:space="preserve"
   xmlns:inkscape="http://www.inkscape.org/namespaces/inkscape"
   xmlns:sodipodi="http://sodipodi.sourceforge.net/DTD/sodipodi-0.dtd"
   xmlns="http://www.w3.org/2000/svg"
   xmlns:svg="http://www.w3.org/2000/svg"
   xmlns:rdf="http://www.w3.org/1999/02/22-rdf-syntax-ns#"
   xmlns:cc="http://creativecommons.org/ns#"
   xmlns:dc="http://purl.org/dc/elements/1.1/"><defs
     id="defs1" /><sodipodi:namedview
     id="base"
     pagecolor="#ffffff"
     bordercolor="#000000"
     borderopacity="0.3"
     inkscape:pageopacity="0.0"
     inkscape:pageshadow="2"
     inkscape:zoom="0.98994949"
     inkscape:cx="505.07627"
     inkscape:cy="476.792"
     inkscape:document-units="mm"
     inkscape:showpageshadow="2"
     inkscape:pagecheckerboard="0"
     inkscape:deskcolor="#d1d1d1"
     inkscape:current-layer="svg1"
     showguides="true" /><metadata
     id="metadata1"><rdf:RDF><cc:Work
         rdf:about=""><dc:format>image/svg+xml</dc:format><dc:type
           rdf:resource="http://purl.org/dc/dcmitype/StillImage" /><cc:license
           rdf:resource="http://creativecommons.org/publicdomain/zero/1.0/" /></cc:Work><cc:License
         rdf:about="http://creativecommons.org/publicdomain/zero/1.0/"><cc:permits
           rdf:resource="http://creativecommons.org/ns#Reproduction" /><cc:permits
           rdf:resource="http://creativecommons.org/ns#Distribution" /><cc:permits
           rdf:resource="http://creativecommons.org/ns#DerivativeWorks" /></cc:License></rdf:RDF></metadata><g
     id="g25"
     transform="matrix(7.9380029,0,0,7.9380029,1.430418,9.6796745)"><path
       stroke="#868686"
       d="m 11,0 h 2 m 1,0 h 2 m 1,0 h 2 m 1,0 h 2 m 1,0 h 2 m 1,0 h 2 m 0,1 h 2 m 0,2 h 1 m -1,1 h 1 m -1,1 h 1 m -1,1 h 1 m -1,1 h 1 m -1,1 h 1 m -1,1 h 1 m -1,1 h 1 m -1,1 h 1 m -1,1 h 1 m -1,1 h 1 m -1,1 h 1 m -1,1 h 1 m -1,1 h 1 m -1,1 h 1 m -1,1 h 1 m -1,1 h 1 m -1,1 h 1 m -1,1 h 1 m -1,1 h 1 m -1,1 h 1 m -1,1 h 1 m -21,1 h 1 m 19,0 h 1 m -21,1 h 1 m 19,0 h 1 m -20,1 h 1 m 18,0 h 1 m -19,1 h 18"
       id="path1" /><path
       stroke="#008080"
       d="m 10,1 h 1 m 1,0 h 2 m 1,0 h 2 m 1,0 h 2 m 1,0 h 2 m 1,0 h 2 m 1,0 h 1 M 9,2 h 1 m 16,0 h 1 m 1,0 h 1 M 9,3 h 1 M 8,4 h 1 m 18,0 h 1 M 8,5 H 9 M 7,6 h 1 m 18,0 h 1 M 7,7 H 8 M 6,8 h 1 m 18,0 h 1 M 6,9 h 1 m -2,1 h 1 m 18,0 h 1 M 5,11 h 1 m -2,1 h 1 m 18,0 h 1 M 4,13 h 1 m -2,1 h 1 m 18,0 h 1 M 3,15 h 1 m -2,1 h 1 m 18,0 h 1 M 2,17 h 1 m -2,1 h 1 m 18,0 h 1 M 1,19 h 1 m -2,1 h 1 m 18,0 h 1 M 0,21 h 1 m -1,1 h 1 m 17,0 h 1 M 1,23 h 17"
       id="path2" /><path
       stroke="#f8f8f8"
       d="m 11,1 h 1 m 2,0 h 1 m 2,0 h 1 m 2,0 h 1 m 2,0 h 1 m 2,0 h 1 M 10,3 h 7 m -7,1 h 5 m 1,0 h 1 m -7,1 h 3 m 1,0 h 1 M 9,6 h 3 m 16,4 h 1 m -1,1 h 1 m -2,2 h 2 m -2,1 h 2 m -3,2 h 3 m -3,1 h 3 m -4,2 h 4 m -4,1 h 4 m -5,2 h 5 m -5,1 h 5 m -6,2 h 6 m -7,1 h 7"
       id="path3" /><path
       stroke="#66ffff"
       d="m 10,2 h 1 m 7,13 h 1 m -4,1 h 1 m -4,1 h 1 m -4,1 h 1 m -7,2 h 1"
       id="path4" /><path
       stroke="#99cccc"
       d="m 11,2 h 1 m 2,0 h 1 m 2,0 h 1 m 2,0 h 1 m 2,0 h 1 m 1,4 h 1 m -2,2 h 1 m -3,1 h 1 m -4,2 h 1 m 2,0 h 1 m -3,1 h 1 m -8,1 h 1 m 2,0 h 1 m 1,0 h 2 m 1,0 h 1 m -7,1 h 1 m 2,0 h 1 m 2,0 h 1 m -11,1 h 1 m 1,0 h 1 m 5,0 h 1 M 4,16 h 1 m 7,0 h 1 m 1,0 h 1 m -4,1 h 1 m 1,0 h 1 m 1,0 h 1 M 5,18 h 1 m 4,0 h 1 m 1,0 h 1 m -4,1 h 1 m -8,1 h 1 m 1,0 h 2 m -3,1 h 1 m -3,1 h 2"
       id="path5" /><path
       stroke="#99ffff"
       d="m 12,2 h 2 m 1,0 h 2 m 1,0 h 2 m 1,0 h 2 m 1,0 h 2 M 9,4 h 1 M 9,5 h 1 M 8,6 H 9 M 8,7 H 9 M 7,8 H 8 M 7,9 h 1 m 13,0 h 1 m 1,0 h 1 M 6,10 h 1 m 9,0 h 1 m 2,0 h 1 M 6,11 h 1 m 14,0 h 1 M 5,12 h 1 m 12,0 h 2 m 2,0 h 1 M 5,13 h 1 m 5,0 h 1 m 2,0 h 1 m 2,0 h 1 m 2,0 h 1 M 4,14 h 1 m 8,0 h 1 m 2,0 h 1 M 4,15 h 1 m 2,0 h 1 m 2,0 h 1 m 3,0 h 1 M 3,16 h 1 m 1,0 h 1 m 5,0 h 1 m -9,1 h 2 m -3,1 h 1 m -1,1 h 1 m -2,1 h 1 m -1,1 h 1"
       id="path6" /><path
       stroke="#c0c0c0"
       d="m 27,2 h 1 m 1,1 h 1 m -1,1 h 1 m -2,1 h 2 m -2,1 h 1 m -2,1 h 2 m -2,1 h 1 m -2,2 h 2 m -3,1 h 2 m -3,2 h 2 m -2,1 h 2 m -3,2 h 3 m -4,1 h 3 m -4,2 h 4 m -4,1 h 3 m -4,2 h 1 m 1,0 h 2 m -5,1 h 4 m 6,4 h 1"
       id="path7" /><path
       stroke="#000000"
       d="m 29,2 h 2 m -3,1 h 1 m 2,0 h 1 m -4,1 h 1 m 2,0 h 1 m -5,1 h 1 m 3,0 h 1 m -5,1 h 1 m 3,0 h 1 M 11,7 h 9 m 6,0 h 1 m 4,0 h 1 m -6,1 h 1 m 4,0 h 1 M 10,9 h 9 m 6,0 h 1 m 5,0 h 1 m -7,1 h 1 m 5,0 h 1 m -8,1 h 1 m 6,0 h 1 m -8,1 h 1 m 6,0 h 1 m -9,1 h 1 m 7,0 h 1 m -9,1 h 1 m 7,0 h 1 m -10,1 h 1 m 8,0 h 1 m -10,1 h 1 m 8,0 h 1 m -11,1 h 1 m 9,0 h 1 m -11,1 h 1 m 9,0 h 1 m -12,1 h 1 m 10,0 h 1 m -12,1 h 1 m 10,0 h 1 m -13,1 h 1 m 11,0 h 1 m -13,1 h 1 m 11,0 h 1 m -14,1 h 1 m 12,0 h 1 M 2,24 h 16 m 13,0 h 1 m -1,1 h 1 m -1,1 h 1 m -1,1 h 1 m -2,1 h 1 m -18,1 h 17"
       id="path8" /><path
       stroke="#ccffff"
       d="m 17,3 h 1 m 1,0 h 1 m -5,1 h 1 m 2,0 h 1 m 1,0 h 1 m 1,0 h 1 M 13,5 h 1 m 2,0 h 1 m 8,0 h 1 M 12,6 h 1 m 1,0 h 1 m 2,0 h 1 M 9,7 h 1 m 0,1 h 1 m -4,2 h 1 m 0,3 h 1"
       id="path9" /><path
       stroke="#f1f1f1"
       d="m 18,3 h 1 m 1,0 h 1 m 2,0 h 1 m -7,1 h 1 m 1,0 h 1 m 1,0 h 1 m -7,1 h 1 m 2,0 h 1 m -6,1 h 1 m 2,0 h 1 m -7,1 h 1 M 8,8 h 1 m 2,0 h 1 M 9,9 h 1"
       id="path10" /><path
       stroke="#ccecff"
       d="m 21,3 h 2 m 1,0 h 2 m -3,1 h 3 m -9,1 h 1 m 1,0 h 1 m 1,0 h 3 m -9,1 h 1 m 2,0 h 3 m 1,0 h 3 m -5,1 h 2 M 9,8 h 1 m 2,0 h 8 m 2,0 h 2 M 8,9 h 1 m 11,0 h 1 M 8,10 h 8 m -9,1 h 2 m 1,0 h 2 m 4,0 h 1 M 6,12 h 1 m 2,0 h 1 m 2,0 h 2 m -8,1 h 2 m 2,0 h 1 m -6,2 h 1"
       id="path11" /><path
       stroke="#eaeaea"
       d="m 26,3 h 1 m -7,2 h 1"
       id="path12" /><path
       stroke="#66cccc"
       d="m 27,3 h 1 m -2,2 h 1 m -2,2 h 1 m -2,2 h 1 m 3,0 h 2 m -7,2 h 1 m 3,1 h 3 m -8,1 h 1 m -8,2 h 1 m 1,0 h 1 m 3,0 h 1 m 4,0 h 4 m -14,1 h 1 m 1,0 h 1 m -9,1 h 1 m 5,0 h 1 m 1,0 h 3 M 8,18 h 1 m 5,0 h 2 m 1,0 h 3 m 5,0 h 5 m -19,1 h 4 m 1,0 h 2 m 1,0 h 1 M 7,20 h 1 m 1,0 h 2 m 1,0 h 1 m 1,0 h 5 M 7,21 h 2 m 1,0 h 5 m 3,0 h 1 m 5,0 h 6 M 3,22 h 2 m 1,0 h 2 m 1,0 h 3 m 1,0 h 1 m 1,0 h 1 m 1,0 h 1 m 5,2 h 7"
       id="path13" /><path
       stroke="#a6caf0"
       d="m 26,4 h 1 m -5,3 h 1 m 1,0 h 1 m -4,1 h 1 m -3,1 h 1 m -3,1 h 1 m 2,0 h 1 m 1,0 h 2 m -11,1 h 1 m 1,0 h 1 m 2,0 h 1 m 1,0 h 1 M 8,12 h 1 m 2,0 h 1 m 2,0 h 1 m 1,0 h 2 m 3,0 h 1 M 9,13 h 1 m 2,0 h 1 m 2,0 h 1 M 5,14 h 1 m 1,0 h 1 m 1,0 h 1 m 1,0 h 1 m 2,0 h 1 m 2,0 h 1 m 2,0 h 1 M 6,15 h 1 m 1,0 h 2 m 2,0 h 1 m 3,0 h 1 M 6,16 h 1 m 1,0 h 1 m 1,0 h 1 m 6,0 h 1 M 5,17 h 1 m 1,0 h 3 m -7,1 h 1 m 2,0 h 2 m -5,1 h 2 m 1,1 h 1"
       id="path14" /><path
       stroke="#ccffcc"
       d="m 24,5 h 1 m -4,1 h 1 M 9,11 h 1 m -3,1 h 1"
       id="path15" /><path
       stroke="#dddddd"
       d="m 29,6 h 1 m -2,2 h 1 m -2,3 h 1 m -2,3 h 1 m -2,3 h 1 m -2,3 h 1 m -2,3 h 1 m -12,2 h 1 m -1,1 h 1 m 1,0 h 3 m 1,0 h 1"
       id="path16" /><path
       stroke="#99ffcc"
       d="m 23,7 h 1 m -4,1 h 1 m 0,2 h 1 m -10,1 h 1 m 1,0 h 1 m 2,0 h 1 m -8,1 h 1 m 4,0 h 1 M 6,14 h 1 m 1,0 h 1 m 1,0 h 1 m 1,0 h 1 m -6,2 h 1 m 1,0 h 1 m -4,1 h 1 m -3,1 h 1 m 3,1 h 1"
       id="path17" /><path
       stroke="#e3e3e3"
       d="m 29,7 h 1 m -1,1 h 1 m -12,2 h 1 m 10,0 h 1 m -1,1 h 1 m -1,2 h 1 m -1,1 h 1 m -1,2 h 1 m -1,1 h 1 m -1,2 h 1 m -1,1 h 1 m -1,2 h 1 m -1,1 h 1 m -19,2 h 1 m 17,0 h 1 m -19,1 h 1 m 1,0 h 1 m 15,0 h 1 m -18,1 h 17"
       id="path18" /><path
       stroke="#339999"
       d="m 26,9 h 2 m -3,3 h 2 m -4,3 h 3 m -4,3 h 3 m -5,3 h 4 m -6,3 h 5"
       id="path19" /><path
       stroke="#cccccc"
       d="m 26,13 h 1 m -6,9 h 1 m -5,3 h 2 m 1,0 h 1 m 1,0 h 1"
       id="path20" /><path
       stroke="#66ccff"
       d="m 19,14 h 1 m -7,2 h 1 m 5,0 h 2 m -7,1 h 1 m 2,0 h 1 m -7,1 h 1 m 1,0 h 1 m 2,0 h 1 M 5,19 h 1 m 1,0 h 1 m 2,0 h 1 m 4,0 h 1 m 2,0 h 1 M 8,20 h 1 m 2,0 h 1 m 1,0 h 1 M 2,21 h 1 m 1,0 h 1 m 1,0 h 1 m 2,0 h 1 m 6,0 h 1 M 5,22 h 1 m 2,0 h 1 m 3,0 h 1"
       id="path21" /><path
       stroke="#66ffcc"
       d="m 20,15 h 1 M 6,19 h 1 m -2,2 h 1"
       id="path22" /><path
       stroke="#33cccc"
       d="m 15,21 h 1 m 1,0 h 1 m -2,1 h 1"
       id="path23" /><path
       stroke="#33ccff"
       d="m 14,22 h 1"
       id="path24" /><path
       stroke="#d7d7d7"
       d="m 13,25 h 4 m 2,0 h 1 m 1,0 h 1 m -5,1 h 1 m 1,0 h 3"
       id="path25" /></g></svg>
