<?xml version="1.0" encoding="UTF-8" standalone="no"?>
<!-- Created with Inkscape (http://www.inkscape.org/) -->

<svg
   width="256mm"
   height="256mm"
   viewBox="0 0 256 256"
   version="1.1"
   id="svg1"
   inkscape:version="1.3.2 (091e20ef0f, 2023-11-25)"
   xml:space="preserve"
   sodipodi:docname="dolphin.svg"
   xmlns:inkscape="http://www.inkscape.org/namespaces/inkscape"
   xmlns:sodipodi="http://sodipodi.sourceforge.net/DTD/sodipodi-0.dtd"
   xmlns:xlink="http://www.w3.org/1999/xlink"
   xmlns="http://www.w3.org/2000/svg"
   xmlns:svg="http://www.w3.org/2000/svg"
   xmlns:rdf="http://www.w3.org/1999/02/22-rdf-syntax-ns#"
   xmlns:cc="http://creativecommons.org/ns#"
   xmlns:dc="http://purl.org/dc/elements/1.1/"><defs
     id="defs1"><linearGradient
       id="linearGradient4"
       inkscape:collect="always"><stop
         style="stop-color:#4193f5;stop-opacity:1;"
         offset="0"
         id="stop4" /><stop
         style="stop-color:#0b57b4;stop-opacity:1;"
         offset="1"
         id="stop5" /></linearGradient><linearGradient
       id="linearGradient2"
       inkscape:collect="always"><stop
         style="stop-color:#f1f1f1;stop-opacity:1;"
         offset="0"
         id="stop2" /><stop
         style="stop-color:#bdbdbd;stop-opacity:1;"
         offset="1"
         id="stop3" /></linearGradient><linearGradient
       inkscape:collect="always"
       xlink:href="#linearGradient2"
       id="linearGradient3"
       x1="108.82922"
       y1="97.787415"
       x2="128.02209"
       y2="126.41547"
       gradientUnits="userSpaceOnUse" /><linearGradient
       inkscape:collect="always"
       xlink:href="#linearGradient4"
       id="linearGradient5"
       x1="121.11849"
       y1="139.31429"
       x2="172.06238"
       y2="205.08214"
       gradientUnits="userSpaceOnUse" /><linearGradient
       id="d"><stop
         offset="0"
         stop-color="#fff"
         stop-opacity="0"
         id="stop1" /><stop
         offset=".25"
         stop-color="#fff"
         stop-opacity="0"
         id="stop2-3" /><stop
         offset="1"
         stop-color="#fff"
         id="stop3-5" /></linearGradient><linearGradient
       id="e"><stop
         offset="0"
         stop-color="#3d3d3d"
         stop-opacity="0"
         id="stop4-6"
         style="stop-color:#587fab;stop-opacity:0.7975831;" /><stop
         offset="0.25"
         stop-color="#626262"
         id="stop5-2"
         style="stop-color:#3c639c;stop-opacity:1;" /><stop
         offset="0.67310077"
         stop-color="#575757"
         id="stop6"
         style="stop-color:#3a68db;stop-opacity:1;" /><stop
         offset="1"
         stop-color="#222"
         id="stop7" /></linearGradient><linearGradient
       id="c"><stop
         offset="0"
         stop-opacity="0"
         id="stop8" /><stop
         offset="1"
         stop-opacity=".6875"
         id="stop9" /></linearGradient><linearGradient
       id="b"><stop
         offset="0"
         stop-color="#fff"
         stop-opacity="0"
         id="stop10" /><stop
         offset="1"
         stop-color="#fff"
         stop-opacity=".625"
         id="stop11" /></linearGradient><linearGradient
       id="a"><stop
         offset="0"
         id="stop12"
         style="stop-color:#00589f;stop-opacity:1;" /><stop
         offset="0.29868218"
         stop-color="#656565"
         id="stop13"
         style="stop-color:#578fc3;stop-opacity:1;" /><stop
         offset="1"
         id="stop14"
         style="stop-color:#000408;stop-opacity:1;" /></linearGradient><linearGradient
       xlink:href="#a"
       id="f"
       x1="59.754773"
       x2="73.763006"
       y1="-42.001188"
       y2="285.71638"
       gradientTransform="scale(1.2799655,0.78127108)"
       gradientUnits="userSpaceOnUse" /><linearGradient
       xlink:href="#b"
       id="g"
       x1="45.620881"
       x2="-62.600244"
       y1="175.91933"
       y2="157.71582"
       gradientTransform="scale(1.8462657,0.54163386)"
       gradientUnits="userSpaceOnUse" /><linearGradient
       xlink:href="#b"
       id="h"
       x1="21.579629"
       x2="105.9315"
       y1="55.661336"
       y2="117.69579"
       gradientTransform="scale(1.1450546,0.87332083)"
       gradientUnits="userSpaceOnUse" /><linearGradient
       xlink:href="#c"
       id="j"
       x1="4.3352042"
       x2="6.6167291"
       y1="55.991254"
       y2="58.473469"
       gradientTransform="scale(0.96477607,1.03651)"
       gradientUnits="userSpaceOnUse" /><linearGradient
       xlink:href="#b"
       id="k"
       x1="14.340255"
       x2="-3.1220761"
       y1="53.410857"
       y2="62.753026"
       gradientTransform="scale(0.94531765,1.0578455)"
       gradientUnits="userSpaceOnUse" /><linearGradient
       xlink:href="#b"
       id="q"
       x1="-3.0423021"
       x2="-5.8153644"
       y1="90.654838"
       y2="122.25315"
       gradientTransform="scale(0.98698435,1.0131873)"
       gradientUnits="userSpaceOnUse" /><linearGradient
       xlink:href="#b"
       id="r"
       x1="-10.310557"
       x2="-29.788541"
       y1="88.203247"
       y2="133.70347"
       gradientTransform="scale(0.97326687,1.0274674)"
       gradientUnits="userSpaceOnUse" /><linearGradient
       xlink:href="#b"
       id="p"
       x1="18.03383"
       x2="9.1930194"
       y1="71.331644"
       y2="79.115537"
       gradientTransform="scale(0.94096477,1.062739)"
       gradientUnits="userSpaceOnUse" /><linearGradient
       xlink:href="#c"
       id="o"
       gradientTransform="scale(0.92198159,1.0846204)"
       x1="10.113566"
       y1="66.612052"
       x2="17.602586"
       y2="66.612052"
       gradientUnits="userSpaceOnUse" /><linearGradient
       xlink:href="#d"
       id="i"
       x1="70.492431"
       x2="86.036767"
       y1="23.057989"
       y2="-19.962604"
       gradientTransform="scale(0.86577456,1.1550351)"
       gradientUnits="userSpaceOnUse" /><linearGradient
       xlink:href="#b"
       id="n"
       x1="149.60842"
       x2="168.17224"
       y1="134.58373"
       y2="134.58373"
       gradientTransform="scale(1.3284338,0.75276613)"
       gradientUnits="userSpaceOnUse" /><linearGradient
       xlink:href="#e"
       id="l"
       x1="27.579662"
       x2="52.236469"
       y1="123.57487"
       y2="134.44313"
       gradientTransform="scale(1.6991598,0.58852616)"
       gradientUnits="userSpaceOnUse" /><linearGradient
       xlink:href="#d"
       id="s"
       x1="85.117318"
       x2="115.2844"
       y1="61.419954"
       y2="35.042331"
       gradientTransform="scale(1.2892894,0.77562107)"
       gradientUnits="userSpaceOnUse" /><linearGradient
       id="SVGID_n_11"
       gradientUnits="userSpaceOnUse"
       gradientTransform="matrix(0.82362896,0.06642169,-0.03763831,0.466715,-63.7941,-47.1062)"
       x1="149.60841"
       y1="134.58372"
       x2="168.17224"
       y2="134.58372">
<stop
   offset="0%"
   style="stop-color:rgb(255,255,255);stop-opacity: 0"
   id="stop25" />
<stop
   offset="100%"
   style="stop-color:rgb(255,255,255);stop-opacity: 0.625"
   id="stop26" />
</linearGradient><linearGradient
       id="SVGID_r_15"
       gradientUnits="userSpaceOnUse"
       gradientTransform="matrix(0.60342546,0.04866334,-0.05137337,0.63702979,-64.3617,-46.1525)"
       x1="-10.310557"
       y1="88.203247"
       x2="-29.788542"
       y2="133.70348">
<stop
   offset="0%"
   style="stop-color:rgb(255,255,255);stop-opacity: 0"
   id="stop33" />
<stop
   offset="100%"
   style="stop-color:rgb(255,255,255);stop-opacity: 0.625"
   id="stop34" />
</linearGradient><linearGradient
       id="SVGID_l_9"
       gradientUnits="userSpaceOnUse"
       gradientTransform="matrix(1.0534791,0.08495799,-0.02942631,0.36488622,-64.3149,-46.4794)"
       x1="29.219717"
       y1="115.71651"
       x2="47.011742"
       y2="126.09015">
<stop
   offset="0"
   style="stop-color:#293d51;stop-opacity:0.25075528;"
   id="stop19" />
<stop
   offset="0.1927087"
   style="stop-color:#374b71;stop-opacity:1;"
   id="stop20" />
<stop
   offset="0.67310077"
   style="stop-color:#3e5070;stop-opacity:1;"
   id="stop21" />
<stop
   offset="1"
   style="stop-color:#4b6d98;stop-opacity:1;"
   id="stop22" />
</linearGradient><linearGradient
       id="SVGID_m_10"
       gradientUnits="userSpaceOnUse"
       gradientTransform="matrix(1.3175215,0.10625173,-0.02352903,0.29175995,-64.303,-46.485)"
       x1="18.033285"
       y1="160.44141"
       x2="39.280598"
       y2="160.44141">
<stop
   offset="0%"
   style="stop-color:rgb(255,255,255);stop-opacity: 0"
   id="stop23" />
<stop
   offset="100%"
   style="stop-color:rgb(255,255,255);stop-opacity: 0.625"
   id="stop24" />
</linearGradient><linearGradient
       id="SVGID_p_13"
       gradientUnits="userSpaceOnUse"
       gradientTransform="matrix(0.58339816,0.04704824,-0.05313695,0.65889818,-64.4083,-46.2709)"
       x1="18.033831"
       y1="71.331642"
       x2="9.1930199"
       y2="79.11554">
<stop
   offset="0%"
   style="stop-color:rgb(255,255,255);stop-opacity: 0"
   id="stop29" />
<stop
   offset="100%"
   style="stop-color:rgb(255,255,255);stop-opacity: 0.625"
   id="stop30" />
</linearGradient><linearGradient
       id="SVGID_s_16"
       gradientUnits="userSpaceOnUse"
       gradientTransform="matrix(0.79935943,0.06446447,-0.03878105,0.48088506,-64.2989,-46.8684)"
       x1="85.117317"
       y1="61.419952"
       x2="115.2844"
       y2="35.042332">
<stop
   offset="0%"
   style="stop-color:rgb(255,255,255);stop-opacity: 0"
   id="stop35" />
<stop
   offset="25%"
   style="stop-color:rgb(255,255,255);stop-opacity: 0"
   id="stop36" />
<stop
   offset="100%"
   style="stop-color:rgb(255,255,255);stop-opacity: 1"
   id="stop37" />
</linearGradient><linearGradient
       id="SVGID_k_8"
       gradientUnits="userSpaceOnUse"
       gradientTransform="matrix(0.58609694,0.04726588,-0.05289228,0.65586421,-64.5165,-46.2716)"
       x1="14.340255"
       y1="53.410858"
       x2="-3.122076"
       y2="62.753025">
<stop
   offset="0%"
   style="stop-color:rgb(255,255,255);stop-opacity: 0"
   id="stop17" />
<stop
   offset="100%"
   style="stop-color:rgb(255,255,255);stop-opacity: 0.625"
   id="stop18" />
</linearGradient><linearGradient
       id="SVGID_f_3"
       gradientUnits="userSpaceOnUse"
       gradientTransform="matrix(0.79357861,0.06399828,-0.03906355,0.48438807,-64.2341,-46.7362)"
       x1="59.754772"
       y1="-42.001186"
       x2="73.763008"
       y2="285.71637">
<stop
   offset="0"
   style="stop-color:#0035b4;stop-opacity:1;"
   id="stop5-6" />
<stop
   offset="0.29868218"
   style="stop-color:#2464a6;stop-opacity:1;"
   id="stop6-7" />
<stop
   offset="1"
   style="stop-color:#001040;stop-opacity:1;"
   id="stop7-5" />
</linearGradient><linearGradient
       id="SVGID_j_7"
       gradientUnits="userSpaceOnUse"
       gradientTransform="matrix(0.59816116,0.0482388,-0.0518255,0.6426362,-64.5146,-46.2703)"
       x1="4.3352041"
       y1="55.991253"
       x2="6.6167293"
       y2="58.473469">
<stop
   offset="0%"
   style="stop-color:rgb(0,0,0);stop-opacity: 0"
   id="stop15" />
<stop
   offset="100%"
   style="stop-color:rgb(0,0,0);stop-opacity: 0.6875"
   id="stop16" />
</linearGradient><linearGradient
       id="SVGID_i_6"
       gradientUnits="userSpaceOnUse"
       gradientTransform="matrix(0.53678023,0.04328873,-0.05775176,0.71612176,-64.6062,-46.7166)"
       x1="70.492432"
       y1="23.057989"
       x2="86.036766"
       y2="-19.962605">
<stop
   offset="0%"
   style="stop-color:rgb(255,255,255);stop-opacity: 0"
   id="stop12-3" />
<stop
   offset="25%"
   style="stop-color:rgb(255,255,255);stop-opacity: 0"
   id="stop13-5" />
<stop
   offset="100%"
   style="stop-color:rgb(255,255,255);stop-opacity: 1"
   id="stop14-6" />
</linearGradient><linearGradient
       id="SVGID_q_14"
       gradientUnits="userSpaceOnUse"
       gradientTransform="matrix(0.6119303,0.04934922,-0.05065936,0.62817613,-64.3641,-46.1415)"
       x1="-3.0423021"
       y1="90.654839"
       x2="-5.8153644"
       y2="122.25315">
<stop
   offset="0%"
   style="stop-color:rgb(255,255,255);stop-opacity: 0"
   id="stop31" />
<stop
   offset="100%"
   style="stop-color:rgb(255,255,255);stop-opacity: 0.625"
   id="stop32" />
</linearGradient><linearGradient
       id="SVGID_h_5"
       gradientUnits="userSpaceOnUse"
       gradientTransform="matrix(0.70993385,0.05725273,-0.04366604,0.54145891,-64.4526,-46.4325)"
       x1="21.57963"
       y1="55.661335"
       x2="105.9315"
       y2="117.69579">
<stop
   offset="0%"
   style="stop-color:rgb(255,255,255);stop-opacity: 0"
   id="stop10-2" />
<stop
   offset="100%"
   style="stop-color:rgb(255,255,255);stop-opacity: 0.625"
   id="stop11-9" />
</linearGradient><linearGradient
       id="SVGID_g_4"
       gradientUnits="userSpaceOnUse"
       gradientTransform="matrix(1.1446847,0.09231329,-0.02708169,0.33581299,-64.2787,-46.586)"
       x1="45.62088"
       y1="175.91933"
       x2="-62.600243"
       y2="157.71582">
<stop
   offset="0%"
   style="stop-color:rgb(255,255,255);stop-opacity: 0"
   id="stop8-1" />
<stop
   offset="100%"
   style="stop-color:rgb(255,255,255);stop-opacity: 0.625"
   id="stop9-2" />
</linearGradient><linearGradient
       id="SVGID_o_12"
       gradientUnits="userSpaceOnUse"
       gradientTransform="matrix(0.57162859,0.04609908,-0.05423102,0.67246465,-64.4181,-46.2612)"
       x1="10.113566"
       y1="66.612053"
       x2="17.602587"
       y2="66.612053">
<stop
   offset="0%"
   style="stop-color:rgb(0,0,0);stop-opacity: 0"
   id="stop27" />
<stop
   offset="100%"
   style="stop-color:rgb(0,0,0);stop-opacity: 0.6875"
   id="stop28" />
</linearGradient></defs><sodipodi:namedview
     id="base"
     pagecolor="#ffffff"
     bordercolor="#000000"
     borderopacity="0.3"
     inkscape:pageopacity="0.0"
     inkscape:pageshadow="2"
     inkscape:zoom="0.98994949"
     inkscape:cx="505.07627"
     inkscape:cy="476.792"
     inkscape:document-units="mm"
     inkscape:showpageshadow="2"
     inkscape:pagecheckerboard="0"
     inkscape:deskcolor="#d1d1d1"
     inkscape:current-layer="g5" /><metadata
     id="metadata1"><rdf:RDF><cc:Work
         rdf:about=""><dc:format>image/svg+xml</dc:format><dc:type
           rdf:resource="http://purl.org/dc/dcmitype/StillImage" /><cc:license
           rdf:resource="http://creativecommons.org/publicdomain/zero/1.0/" /></cc:Work><cc:License
         rdf:about="http://creativecommons.org/publicdomain/zero/1.0/"><cc:permits
           rdf:resource="http://creativecommons.org/ns#Reproduction" /><cc:permits
           rdf:resource="http://creativecommons.org/ns#Distribution" /><cc:permits
           rdf:resource="http://creativecommons.org/ns#DerivativeWorks" /></cc:License></rdf:RDF></metadata><g
     id="g5"
     transform="matrix(1.247063,0,0,1.247063,-45.061689,-6.453936)"><path
       id="rect1"
       style="display:inline;fill:#2d3ee2;fill-opacity:1;stroke-width:1.71847;stroke-linecap:round;stroke-linejoin:round;stroke-miterlimit:2.1"
       d="m 43.832203,81.517206 c 0.619304,-7.4805 7.37112,-11.383703 16.503891,-13.898015 L 111.0839,67.485556 c 10.35192,1.70572 15.3359,7.803395 17.87365,15.902537 l 48.8435,0.801809 c 17.66717,0.673836 21.95388,6.816454 22.38382,17.639788 l -0.53454,93.00979 -155.818127,1.60362 z"
       sodipodi:nodetypes="ccccccccc" /><path
       id="rect2"
       style="display:inline;fill:url(#linearGradient3);stroke-width:1.71847;stroke-linecap:round;stroke-linejoin:round;stroke-miterlimit:2.1"
       d="m 59.868374,106.37327 c 0.09096,-3.95635 2.585726,-6.15154 6.280833,-6.1472 H 175.46244 c 6.39333,-0.14572 8.84113,2.36174 8.95353,6.1472 v 29.66691 H 59.868374 Z"
       sodipodi:nodetypes="ccccccc" /><g
       transform="matrix(1.2283344,0.68740694,-0.68740694,1.2283344,167.06732,78.579338)"
       id="g39">
<g
   id="g1"><path
     style="fill:#000000;fill-opacity:0.06;fill-rule:evenodd;stroke:none;stroke-width:0.605227;stroke-linecap:butt;stroke-linejoin:miter;stroke-miterlimit:4;stroke-dasharray:none;stroke-dashoffset:0"
     vector-effect="non-scaling-stroke"
     d="m -14.766694,-44.455256 c -6.890418,1.55223 -9.832663,8.867951 -13.436721,14.01138 -6.257481,3.088897 -13.720229,5.349449 -20.068555,8.808303 -11.051891,4.136263 -18.297621,13.8761368 -21.533603,24.5808928 -0.864182,6.3344135 -8.390065,15.6777312 -4.756225,18.4973962 3.618194,2.952369 15.077954,-10.543004 24.728964,-11.198614 5.465419,0.380622 12.727123,5.044834 17.126397,1.882094 -6.461875,-2.6047867 -2.441828,-3.952991 2.037272,-2.6652115 7.095103,0.03002 14.403447,-2.7207745 18.673408,-7.923741 21.0397697,-3.2784432 45.707605,3.7219592 59.482147,21.2052255 0.804586,5.609185 -7.552374,10.553121 -3.774524,17.434821 -0.470201,3.525057 5.542631,12.074524 5.71276,4.429992 1.517862,-4.907469 4.905066,-14.136183 12.238577,-9.648922 4.841563,-1.784753 14.541053,10.468946 12.820411,1.294964 C 71.292638,28.510493 62.96691,23.147262 54.587051,22.323181 45.448665,11.38958 36.875584,0.02384835 27.851855,-10.96413 17.181022,-21.491633 3.0506807,-29.865584 -12.195982,-30.080414 c -7.864396,-0.936092 -3.362775,-11.102334 -1.64112,-14.220749 -0.309864,-0.05134 -0.929592,-0.154093 -0.929592,-0.154093 z"
     stroke-linecap="round"
     id="path1" /><path
     style="fill:#000000;fill-opacity:0.06;fill-rule:evenodd;stroke:none;stroke-width:0.605227;stroke-linecap:butt;stroke-linejoin:miter;stroke-miterlimit:4;stroke-dasharray:none;stroke-dashoffset:0"
     vector-effect="non-scaling-stroke"
     d="m -15.215925,-45.432113 c -7.013374,2.006009 -10.068027,8.774807 -13.724062,14.161875 -9.625611,4.304181 -19.871489,7.742808 -28.434091,13.723644 -7.575226,5.653038 -11.904629,14.2888 -14.296007,23.1732745 -1.659522,4.9254205 -5.004971,9.4140815 -4.74959,14.8652695 1.02454,2.895318 5.066383,2.64246 6.928438,1.020312 6.339657,-3.50316 11.917694,-8.590085 19.377187,-10.013437 5.581234,0.117871 11.202292,3.950276 16.655371,2.103939 1.061248,-0.172728 3.327457,-1.497406 1.502266,-2.325828 -3.184673,-1.070411 -1.074739,-1.2813306 1.107988,-0.919986 5.053509,-0.06569 10.029809,-1.1816659 14.189456,-3.7268055 2.906183,-1.5233328 4.874046,-4.815641 8.707419,-4.470382 16.9569059,-1.56309665 35.370047,3.4089864 48.658205,14.9342585 1.900556,2.084056 4.749188,3.948339 5.597307,6.560146 -0.69894,5.282037 -5.889346,9.511666 -4.185777,15.237023 0.807688,3.154539 1.475841,6.79141 4.278018,9.002171 1.692962,1.272183 4.127116,0.269976 3.974311,-1.780163 0.920591,-4.270726 2.583038,-8.933404 6.679186,-11.128123 2.177359,-0.247731 4.282506,1.106895 6.476822,1.056484 3.82811,0.877689 6.853201,4.344025 10.754428,4.505703 2.858696,-1.98405 0.707122,-6.005026 -0.93509,-8.372341 C 69.265873,26.283801 62.311404,22.3563 55.184075,21.4307 45.896141,9.9717641 36.778143,-1.6420066 27.224026,-12.890695 17.048885,-22.541434 3.7626344,-30.022796 -10.394813,-30.925757 c -2.644695,0.161367 -5.647371,-1.815587 -5.045491,-4.580315 -0.0068,-3.503736 1.919575,-6.473377 3.148441,-9.597916 -0.96879,-0.09053 -1.974712,-0.285417 -2.924062,-0.328125 z"
     stroke-linecap="round"
     id="path2" /><path
     style="fill:#000000;fill-opacity:0.06;fill-rule:evenodd;stroke:none;stroke-width:0.605227;stroke-linecap:butt;stroke-linejoin:miter;stroke-miterlimit:4;stroke-dasharray:none;stroke-dashoffset:0"
     vector-effect="non-scaling-stroke"
     d="m -10.758275,-46.208125 c -2.634112,-0.149058 -5.422813,-0.903175 -7.63625,0.676562 -5.606237,2.910217 -8.300794,8.752952 -11.909672,13.382262 -10.701211,4.891637 -22.308416,8.747721 -31.140292,16.417227 -6.988863,6.7220591 -9.956886,16.1791774 -13.296883,24.9564048 -1.647806,3.7700742 -3.166985,7.7793942 -2.950341,12.0050442 1.865605,3.587102 6.906216,3.158161 9.561,1.197191 6.02194,-3.497736 11.690458,-7.982794 18.883063,-9.297816 5.876388,0.809965 12.234856,3.645465 17.82875,1.21625 1.635899,-0.40329 0.391213,-3.085528 2.374669,-2.723031 6.561612,-0.350188 12.571191,-2.9998382 17.460644,-6.8472815 5.2371569,-2.0964751 11.22943818,-1.3353822 16.896021,-0.929085 14.249036,1.4486606 28.56002,7.8181635 38.394222,18.4304415 1.869647,3.101307 -1.127491,6.014574 -1.892841,8.840206 -1.877156,3.863046 -1.592237,8.440154 0.236488,12.490381 0.909325,2.766932 3.172035,6.408988 6.590008,6.122508 3.7715,-0.880219 3.16475,-5.564819 4.801004,-8.192951 1.153941,-2.803782 3.838369,-5.945476 7.481522,-4.497137 4.636619,0.753337 8.481493,4.258914 13.125138,4.754074 3.282095,-0.523504 3.19623,-4.727523 1.938877,-7.145753 C 73.70795,29.300408 68.626311,25.174692 63.251144,22.748031 60.423095,21.117849 56.765599,21.388545 54.621231,18.683162 46.187669,8.4843933 38.054799,-1.9675328 29.277964,-11.927247 24.778955,-17.553382 18.552352,-21.700271 12.247087,-25.190383 5.0502605,-29.1482 -2.9468127,-31.462969 -10.995035,-32.300587 c -3.040127,-0.265968 -3.545536,-3.763648 -2.432703,-5.81586 0.791064,-2.800647 2.0162,-5.423697 3.1929,-8.067928 -0.118992,-0.0055 -0.467951,-0.02125 -0.523437,-0.02378 z"
     stroke-linecap="round"
     id="path3" /><path
     style="fill:#000000;fill-opacity:0.06;fill-rule:evenodd;stroke:none;stroke-width:0.605227;stroke-linecap:butt;stroke-linejoin:miter;stroke-miterlimit:4;stroke-dasharray:none;stroke-dashoffset:0"
     vector-effect="non-scaling-stroke"
     d="m -8.661625,-47.406313 c -4.395752,-0.07618 -9.737669,-1.033523 -12.823797,2.460727 -4.552897,3.341146 -6.884077,8.65105 -11.038723,12.306701 -10.665946,5.071617 -22.272128,9.082433 -30.899808,17.057475 -7.063743,8.1055154 -10.390867,18.536107 -14.081193,28.439169 -0.784985,3.080813 -2.285301,6.539847 -0.881616,9.71209 2.725042,3.690489 8.126714,2.813856 11.348472,0.871302 6.068564,-3.296889 11.793195,-7.986744 19.088654,-8.659536 5.796085,0.915476 12.208576,2.983261 17.620199,0.554855 0.876145,-1.765274 2.377118,-2.74184 4.467201,-2.805991 5.549544,-0.838205 10.544953,-3.3459573 14.935924,-6.4483835 C -2.5957549,4.181886 6.3379506,4.947206 14.815436,7.1086584 25.211711,9.7870044 34.947111,15.284443 42.43275,22.958375 c 0.837968,4.632054 -3.466136,8.115076 -2.915763,12.775066 -0.53805,4.776384 1.494663,9.715559 4.543888,13.647121 2.541541,2.184053 7.394279,2.072148 8.401875,-1.205625 1.630862,-3.411675 2.18811,-8.016878 6.06375,-9.77625 5.892494,-0.438203 10.82353,5.253306 16.708437,4.356875 3.643423,-1.569301 3.258453,-6.422905 1.479126,-9.500598 C 73.397448,26.899459 66.826885,22.634219 60.072013,20.212851 54.630422,18.361011 52.051633,12.957841 48.407629,9.0526237 41.030877,-0.1192611 33.254003,-9.0184808 25.375024,-17.797724 15.226876,-26.404931 2.4095415,-32.009214 -10.719125,-33.614438 c -2.863226,-1.348374 -1.054043,-4.747789 -0.267756,-6.69998 0.950248,-2.355759 1.8952578,-4.713736 2.8486935,-7.068145 -0.1189928,-0.0055 -0.4679518,-0.02125 -0.523437,-0.02378 z"
     stroke-linecap="round"
     id="path4" /><path
     style="fill:#000000;fill-opacity:0.06;fill-rule:evenodd;stroke:none;stroke-width:0.605227;stroke-linecap:butt;stroke-linejoin:miter;stroke-miterlimit:4;stroke-dasharray:none;stroke-dashoffset:0"
     vector-effect="non-scaling-stroke"
     d="m -6.0717375,-48.955725 c -5.9133535,-0.131456 -13.1112235,-1.215197 -17.3053795,3.332777 -5.116313,4.704026 -8.499197,11.371918 -15.425775,14.042476 -9.312819,4.574041 -19.409755,8.498949 -26.68513,15.788644 -6.496407,8.7704216 -10.510496,19.0063243 -13.976086,29.286951 -0.795455,3.489398 -2.276074,8.035385 0.883933,11.109777 3.323493,2.860955 8.159545,2.264744 11.581147,0.477955 6.2183,-2.505374 11.428322,-7.261024 18.351978,-8.29233 6.312319,-0.315454 13.087837,2.696571 18.994375,-0.01906 3.595783,-3.580969 9.55833,-2.999427 13.707775,-5.782953 C -11.923894,8.8232849 -7.670797,6.4864435 -2.7079421,6.9970895 12.035867,6.418892 27.41352,11.979256 38.670138,21.89365 c 2.583441,1.678316 1.681447,4.548523 0.780498,6.701936 -3.02224,6.915486 -1.64239,15.747245 3.682002,21.905877 3.507154,3.056523 10.027215,2.257859 11.162638,-2.206526 1.417381,-2.871808 2.043289,-6.825912 5.464862,-8.120974 5.586537,0.999315 10.861207,5.068567 16.598437,3.97875 4.146767,-2.357209 3.739595,-7.962521 1.58804,-11.816078 C 74.410629,26.453684 68.550083,22.110976 62.188415,19.346546 54.643313,15.849145 50.527347,8.3878445 45.153947,2.5797031 38.519847,-5.2300524 31.782925,-13.001314 24.696188,-20.430546 14.752909,-28.21058 2.6863175,-33.370401 -9.740175,-35.1276 c -1.243341,-3.278448 1.430171,-6.191339 2.2754959,-9.162956 0.1360412,-1.254276 2.5040222,-4.239249 1.3929416,-4.665169 z"
     stroke-linecap="round"
     id="path5" /></g><g
   id="g2"
   inkscape:label="headcolor"><path
     style="fill:url(#SVGID_f_3);fill-rule:evenodd;stroke:none;stroke-width:0.622013;stroke-linecap:butt;stroke-linejoin:miter;stroke-miterlimit:4;stroke-dasharray:none;stroke-dashoffset:0"
     vector-effect="non-scaling-stroke"
     d="m -76.634851,20.21113 c -3.537174,0.810875 2.265839,-8.206677 2.265839,-8.206677 0,0 4.295654,-25.697581 21.859993,-34.762227 17.56434,-9.064644 25.025749,-11.003796 25.025749,-11.003796 0,0 9.529967,-16.231559 14.869,-15.483382 3.3020457,0.24703 -0.489709,1.915701 -1.620671,4.800233 -1.079673,2.944814 -1.440755,9.094494 1.032809,9.929195 2.473564,0.8347 6.4923534,-0.134215 16.3533888,2.90687 10.7355672,3.336197 24.1757782,15.289271 27.8199592,21.300132 3.644181,6.0108637 21.641142,30.965358 21.641142,30.965358 15.937353,1.920492 20.645727,16.099909 19.213379,17.747563 -1.445071,1.805431 -0.251087,1.14432 -1.94424,0.478427 -1.693152,-0.665892 -4.201924,-4.017847 -8.214674,-4.473794 -4.170534,-0.468672 -6.534245,-2.009132 -8.41826,-1.949328 -1.962903,0.05344 -2.108806,4.488211 -5.482812,6.942261 -3.295112,2.460412 -0.534853,7.288359 -3.362977,8.224854 -2.664003,0.870328 -4.511121,-9.045131 -4.321107,-13.370476 0.190015,-4.325345 5.080314,-9.17152 5.990509,-11.268449 0.910196,-2.096931 -19.325361,-30.1433801 -59.533493,-23.85767897 -2.641524,5.18633807 -23.581562,7.86475907 -23.581562,7.86475907 -4.652599,0.3704216 5.865734,3.6317629 1.765359,4.0467129 -9.417182,1.643636 -11.585533,-3.8726667 -18.775371,-2.4035324 -7.189838,1.4691344 -19.044785,10.7621004 -22.58196,11.5729754 z"
     stroke-linecap="round"
     id="path7" /></g><path
   style="fill:url(#SVGID_g_4);fill-rule:evenodd;stroke:none;stroke-width:0.622013;stroke-linecap:butt;stroke-linejoin:miter;stroke-miterlimit:4;stroke-dasharray:none;stroke-dashoffset:0"
   vector-effect="non-scaling-stroke"
   d="m -61.610242,6.6552373 c 0,0 27.754852,-21.1184463 42.186509,-19.0562653 14.4316574,2.062175 33.469932,2.6991882 43.007064,9.7566661 9.537126,7.0574712 -18.8403334,-3.091475 -28.6509792,-1.187648 -9.8106528,1.9038326 -43.9571808,10.3792788 -50.1977028,12.571019 -6.240523,2.1917399 -10.685186,1.6087169 -6.344891,-2.0837718 z"
   stroke-linecap="round"
   id="path9" /><path
   style="fill:url(#SVGID_h_5);fill-rule:evenodd;stroke:none;stroke-width:0.622013;stroke-linecap:butt;stroke-linejoin:miter;stroke-miterlimit:4;stroke-dasharray:none;stroke-dashoffset:0"
   vector-effect="non-scaling-stroke"
   d="m -71.494021,4.6781785 c 0,0 -1.734919,3.201599 0.255282,3.586682 1.990202,0.3850831 4.840784,-2.726543 7.154888,-6.3578509 2.332099,-3.8544397 11.53453,-17.7102696 24.541017,-20.2547056 13.006488,-2.544435 21.557512,-2.753172 24.004778,-5.25082 2.447265,-2.497649 2.083771,-6.344892 -9.591116,-6.388079 -11.451754,-0.02519 -25.282392,7.169044 -31.06945,12.09236 -5.769065,4.700186 -10.512438,10.6060104 -15.295399,22.5724135 z"
   stroke-linecap="round"
   id="path11" /><path
   style="fill:url(#SVGID_i_6);fill-rule:evenodd;stroke:none;stroke-width:0.622013;stroke-linecap:butt;stroke-linejoin:miter;stroke-miterlimit:4;stroke-dasharray:none;stroke-dashoffset:0"
   vector-effect="non-scaling-stroke"
   d="m -27.420689,-32.879934 c 1.176163,1.115586 11.137576,-16.099273 13.949492,-15.783746 -3.243746,-1.770505 -15.087303,14.760011 -13.949492,15.783746 z"
   stroke-linecap="round"
   id="path14" /><path
   style="fill:url(#SVGID_j_7);fill-rule:evenodd;stroke:none;stroke-width:0.622013;stroke-linecap:butt;stroke-linejoin:miter;stroke-miterlimit:4;stroke-dasharray:none;stroke-dashoffset:0"
   vector-effect="non-scaling-stroke"
   d="m -61.686204,-11.416592 c -0.626026,-0.606305 -3.146669,0.619663 -4.657019,3.5945586 -1.51035,2.974889 5.204154,-2.9946156 4.657019,-3.5945586 z"
   stroke-linecap="round"
   id="path16" /><path
   style="fill:url(#SVGID_l_9);fill-rule:evenodd;stroke:none;stroke-width:0.622013;stroke-linecap:butt;stroke-linejoin:miter;stroke-miterlimit:4;stroke-dasharray:none;stroke-dashoffset:0"
   vector-effect="non-scaling-stroke"
   d="m -48.283984,4.8431016 c 5.158938,-3.2690738 7.218342,-7.64072 17.564339,-9.0646421 0,0 0.824525,3.56020103 4.466159,3.69507743 3.641633,0.1348764 13.678401,-2.23180643 13.367934,-0.3511868 C -13.196018,1.0029697 -23.848631,9.0369655 -34.211137,7.5660584 -44.573639,6.0951516 -48.283984,4.8431016 -48.283984,4.8431016 Z"
   stroke-linecap="round"
   id="path22"
   sodipodi:nodetypes="ccsssc" /><path
   style="fill:url(#SVGID_k_8);fill-rule:evenodd;stroke:none;stroke-width:0.622013;stroke-linecap:butt;stroke-linejoin:miter;stroke-miterlimit:4;stroke-dasharray:none;stroke-dashoffset:0"
   vector-effect="non-scaling-stroke"
   d="m -66.323492,-7.106966 c 0,0 4.424957,-2.8056255 4.47967,-4.468665 0.914862,0.470795 0.38157,2.2801212 -0.900383,3.4074731 -1.288314,1.2062469 -3.103406,2.052398 -3.579287,1.0611919 z"
   stroke-linecap="round"
   id="path18" /><path
   style="fill:url(#SVGID_m_10);fill-rule:evenodd;stroke:none;stroke-width:0.622013;stroke-linecap:butt;stroke-linejoin:miter;stroke-miterlimit:4;stroke-dasharray:none;stroke-dashoffset:0"
   vector-effect="non-scaling-stroke"
   d="m -42.326116,3.967171 c -0.8347,-0.8084028 -3.043603,0.6544463 -1.824635,0.9644906 0.605667,0.3664578 19.222289,3.8528573 28.075715,-3.5322093 -9.563429,2.4048553 -10.745497,5.2474212 -26.25108,2.5677187 z"
   stroke-linecap="round"
   id="path24" /><path
   style="fill:url(#SVGID_n_11);fill-rule:evenodd;stroke:none;stroke-width:0.622013;stroke-linecap:butt;stroke-linejoin:miter;stroke-miterlimit:4;stroke-dasharray:none;stroke-dashoffset:0"
   vector-effect="non-scaling-stroke"
   d="m 55.579362,21.443455 c -0.660153,-0.342383 -1.235653,0.40362 -0.701099,0.816887 0.592585,0.389871 8.762996,1.850107 14.424306,8.947994 C 65.741161,24.25984 56.341185,21.569455 55.579362,21.443455 Z"
   stroke-linecap="round"
   id="path26" /><path
   style="fill:url(#SVGID_o_12);fill-rule:evenodd;stroke:none;stroke-width:0.622013;stroke-linecap:butt;stroke-linejoin:miter;stroke-miterlimit:4;stroke-dasharray:none;stroke-dashoffset:0"
   vector-effect="non-scaling-stroke"
   d="m -58.030776,-0.40114862 c 0,0 -1.185885,-1.04846458 -2.745859,0.5725846 -1.481085,1.62741122 -2.220355,2.91763682 -1.573971,3.76378322 0.652746,0.7672638 4.557771,-1.3792913 4.31983,-4.33636782 z"
   stroke-linecap="round"
   id="path28" /><path
   style="fill:url(#SVGID_p_13);fill-rule:evenodd;stroke:none;stroke-width:0.622013;stroke-linecap:butt;stroke-linejoin:miter;stroke-miterlimit:4;stroke-dasharray:none;stroke-dashoffset:0"
   vector-effect="non-scaling-stroke"
   d="m -57.901597,-0.24369682 c 0,0 0.154753,2.25832222 -2.19354,3.52874242 -2.348294,1.2704139 0.838548,0.7413737 0.838548,0.7413737 0,0 2.906125,-1.2254275 2.670396,-2.4796535 -0.235729,-1.25421992 -0.824152,-2.31230607 -1.315404,-1.79046262 z"
   stroke-linecap="round"
   id="path30" /><path
   style="fill:url(#SVGID_q_14);fill-rule:evenodd;stroke:none;stroke-width:0.622013;stroke-linecap:butt;stroke-linejoin:miter;stroke-miterlimit:4;stroke-dasharray:none;stroke-dashoffset:0"
   vector-effect="non-scaling-stroke"
   d="m -76.503056,17.757496 c -0.741814,0.337186 -1.023017,0.870327 -0.404627,1.079001 0.618392,0.208674 13.362844,-7.180205 13.356482,-12.0242628 -4.509419,4.7180878 -11.389337,10.2772468 -12.951855,10.9452618 z"
   stroke-linecap="round"
   id="path32" /><path
   style="fill:url(#SVGID_r_15);fill-rule:evenodd;stroke:none;stroke-width:0.622013;stroke-linecap:butt;stroke-linejoin:miter;stroke-miterlimit:4;stroke-dasharray:none;stroke-dashoffset:0"
   vector-effect="non-scaling-stroke"
   d="m -76.209707,19.097364 c -1.082821,0.627299 -1.502716,0.91105 -0.600578,1.539616 0.428803,0.590394 15.588288,-8.191768 17.079551,-15.8529439 -4.179864,7.5237489 -15.165847,13.7840099 -16.478973,14.3133279 z"
   stroke-linecap="round"
   id="path34" /><path
   style="fill:url(#SVGID_s_16);fill-rule:evenodd;stroke:none;stroke-width:0.622013;stroke-linecap:butt;stroke-linejoin:miter;stroke-miterlimit:4;stroke-dasharray:none;stroke-dashoffset:0"
   vector-effect="non-scaling-stroke"
   d="m -11.130435,-32.225552 c 0,0 24.688573,0.194342 42.488817,24.5374169 17.800243,24.3430791 -42.711948,-10.6311999 -43.546903,-16.9868879 -0.834948,-6.355689 1.058086,-7.550529 1.058086,-7.550529 z"
   stroke-linecap="round"
   id="path37" />
</g><path
       id="rect3"
       style="display:inline;fill:url(#linearGradient5);stroke-width:1.71847;stroke-linecap:round;stroke-linejoin:round;stroke-miterlimit:2.1"
       d="M 52.652096,119.20221 H 193.7704 c 12.38327,-0.78377 13.85771,7.25846 13.36347,12.82894 l -5.34539,63.07561 c -3.30633,8.06 -8.69599,12.25317 -16.30344,13.89801 H 52.652096 c -5.4226,-0.32031 -9.55546,-6.39219 -10.156242,-13.89801 l -5.078121,-64.14469 c -2.076928,-8.58629 0.972154,-13.82953 15.234363,-11.75986 z"
       sodipodi:nodetypes="ccccccccc" /></g></svg>
