<?xml version="1.0" encoding="UTF-8" standalone="no"?>
<svg
   width="256"
   height="256"
   viewBox="0 0.055 256 256"
   overflow="visible"
   enable-background="new 0 0.055 121 119"
   xml:space="preserve"
   version="1.1"
   id="svg26"
   sodipodi:docname="quicktime.svg"
   inkscape:version="1.3 (0e150ed6c4, 2023-07-21)"
   xmlns:inkscape="http://www.inkscape.org/namespaces/inkscape"
   xmlns:sodipodi="http://sodipodi.sourceforge.net/DTD/sodipodi-0.dtd"
   xmlns="http://www.w3.org/2000/svg"
   xmlns:svg="http://www.w3.org/2000/svg"
   xmlns:rdf="http://www.w3.org/1999/02/22-rdf-syntax-ns#"
   xmlns:cc="http://creativecommons.org/ns#"
   xmlns:a="http://ns.adobe.com/AdobeSVGViewerExtensions/3.0/"><defs
   id="defs26" /><sodipodi:namedview
   id="namedview26"
   pagecolor="#ffffff"
   bordercolor="#000000"
   borderopacity="0.25"
   inkscape:showpageshadow="2"
   inkscape:pageopacity="0.0"
   inkscape:pagecheckerboard="0"
   inkscape:deskcolor="#d1d1d1"
   inkscape:zoom="2.6260504"
   inkscape:cx="224.1008"
   inkscape:cy="213.8192"
   inkscape:current-layer="g26" />&#10;	<g
   id="g26"
   inkscape:label="quicktime"
   transform="matrix(2.0936116,0,0,2.0936116,1,3.055)">&#10;			<path
   d="m 121.027,100.849 c 0,0 -9.771,-9.77 -10.281,-10.284 5.6,-9.274 8.568,-19.906 8.568,-30.787 C 119.314,26.882 92.552,0.119 59.658,0.119 26.763,0.119 0,26.881 0,59.778 c 0,32.895 26.763,59.657 59.658,59.657 11.84,0 23.262,-3.47 33.066,-10.016 0.531,0.535 9.867,9.869 9.867,9.869 0.096,0.094 0.221,0.146 0.355,0.146 h 17.727 c 0.279,0 0.502,-0.227 0.502,-0.502 v -17.73 c 0.001,-0.132 -0.052,-0.259 -0.148,-0.353 z M 59.686,95.333 c -19.637,0 -35.557,-15.92 -35.557,-35.555 0,-19.639 15.92,-35.559 35.557,-35.559 19.638,0 35.556,15.92 35.556,35.559 0,19.635 -15.918,35.555 -35.556,35.555 z"
   style="opacity:0.15"
   id="path1" />&#10;			<radialGradient
   id="XMLID_1_"
   cx="59.538101"
   cy="120.85"
   r="121.974"
   fx="59.538101"
   fy="120.85"
   gradientUnits="userSpaceOnUse">&#10;				<stop
   offset="0"
   style="stop-color:rgb(255,255,255)"
   id="stop1" />&#10;				<stop
   offset="0.0626"
   style="stop-color:rgb(230,249,255)"
   id="stop2" />&#10;				<stop
   offset="0.1386"
   style="stop-color:rgb(206,242,255)"
   id="stop3" />&#10;				<stop
   offset="0.1854"
   style="stop-color:rgb(197,240,255)"
   id="stop4" />&#10;				<stop
   offset="1"
   style="stop-color:rgb(29,116,217)"
   id="stop5" />&#10;				<a:midPointStop
   offset="0"
   style="stop-color:#FFFFFF" />&#10;				<a:midPointStop
   offset="0.4"
   style="stop-color:#FFFFFF" />&#10;				<a:midPointStop
   offset="0.1854"
   style="stop-color:#C5F0FF" />&#10;				<a:midPointStop
   offset="0.5"
   style="stop-color:#C5F0FF" />&#10;				<a:midPointStop
   offset="1"
   style="stop-color:#1D74D9" />&#10;			</radialGradient>&#10;			<path
   d="m 108.609,87.765 c 5.34,-8.713 8.424,-18.964 8.424,-29.929 0,-31.674 -25.674,-57.351 -57.347,-57.351 -31.673,0 -57.349,25.677 -57.349,57.351 0,31.671 25.676,57.348 57.349,57.348 11.904,0 22.964,-3.628 32.126,-9.841 l 9.84,9.841 h 17.184 V 97.995 Z m -48.923,5.627 c -19.637,0 -35.557,-15.92 -35.557,-35.556 0,-19.639 15.92,-35.559 35.557,-35.559 19.638,0 35.556,15.919 35.556,35.559 0,19.636 -15.918,35.556 -35.556,35.556 z"
   style="clip-rule:evenodd;fill:url(#XMLID_1_);fill-rule:evenodd"
   id="path5" />&#10;			<linearGradient
   id="XMLID_2_"
   gradientUnits="userSpaceOnUse"
   x1="59.686001"
   y1="-14.3481"
   x2="59.686001"
   y2="77.424103">&#10;				<stop
   offset="2.87356%"
   style="stop-color:rgb(255,255,255)"
   id="stop6" />&#10;				<stop
   offset="100%"
   style="stop-opacity:0;stop-color:rgb(255,255,255)"
   id="stop7" />&#10;			</linearGradient>&#10;			<path
   a:adobe-blending-mode="screen"
   d="m 20.244,57.836 c 0,-21.75 17.694,-39.443 39.442,-39.443 21.75,0 39.441,17.693 39.441,39.443 0,5.69 -1.221,11.097 -3.398,15.989 6.166,-2.301 11.852,-5.188 16.906,-8.582 0.342,-2.444 0.516,-4.919 0.516,-7.407 0,-29.483 -23.984,-53.466 -53.464,-53.466 -29.48,0 -53.465,23.983 -53.465,53.466 0,1.594 0.083,3.168 0.222,4.729 4.858,3.738 10.411,6.98 16.514,9.616 -1.745,-4.449 -2.714,-9.287 -2.714,-14.345 z"
   style="fill:url(#XMLID_2_)"
   id="path7" />&#10;			<path
   d="m 91.813,100.167 c -9.162,6.208 -20.223,9.837 -32.126,9.837 -30.804,0 -55.928,-24.289 -57.283,-54.757 -0.039,0.858 -0.066,1.72 -0.066,2.59 0,31.671 25.676,57.348 57.349,57.348 11.904,0 22.964,-3.628 32.126,-9.841 l 9.84,9.841 h 17.184 v -5.181 h -17.184 z"
   style="clip-rule:evenodd;opacity:0.7;fill:#ffffff;fill-rule:evenodd"
   id="path8" />&#10;			<radialGradient
   id="XMLID_3_"
   cx="70.373001"
   cy="147.838"
   r="96.144897"
   fx="70.373001"
   fy="147.838"
   gradientUnits="userSpaceOnUse">&#10;				<stop
   offset="0"
   style="stop-color:rgb(139,187,255)"
   id="stop8" />&#10;				<stop
   offset="1"
   style="stop-color:rgb(13,86,172)"
   id="stop9" />&#10;				<a:midPointStop
   offset="0"
   style="stop-color:#8BBBFF" />&#10;				<a:midPointStop
   offset="0.5"
   style="stop-color:#8BBBFF" />&#10;				<a:midPointStop
   offset="1"
   style="stop-color:#0D56AC" />&#10;			</radialGradient>&#10;			<path
   d="m 1.852,57.836 c 0,31.889 25.945,57.834 57.834,57.834 11.478,0 22.552,-3.363 32.056,-9.708 0.516,0.516 9.566,9.564 9.566,9.564 0.092,0.093 0.215,0.144 0.344,0.144 h 17.184 c 0.273,0 0.488,-0.219 0.488,-0.486 V 97.995 c 0,-0.128 -0.051,-0.253 -0.143,-0.343 0,0 -9.475,-9.472 -9.967,-9.968 5.428,-8.991 8.305,-19.299 8.305,-29.848 C 117.52,25.945 91.576,0 59.686,0 27.796,0 1.852,25.945 1.852,57.836 Z m 0.969,0 C 2.821,26.479 28.332,0.97 59.686,0.97 c 31.355,0 56.863,25.509 56.863,56.866 0,10.498 -2.889,20.76 -8.354,29.676 -0.047,0.077 -0.072,0.167 -0.072,0.253 0,0.127 0.047,0.25 0.141,0.343 0,0 9.813,9.812 10.09,10.09 0,0.381 0,15.595 0,16.499 -0.908,0 -16.119,0 -16.5,0 -0.277,-0.272 -9.697,-9.696 -9.697,-9.696 -0.164,-0.164 -0.426,-0.188 -0.613,-0.057 -9.42,6.381 -20.438,9.753 -31.857,9.753 -31.355,0 -56.866,-25.507 -56.866,-56.861 z"
   style="fill:url(#XMLID_3_)"
   id="path9" />&#10;			<radialGradient
   id="XMLID_4_"
   cx="70.377899"
   cy="147.832"
   r="96.1362"
   fx="70.377899"
   fy="147.832"
   gradientUnits="userSpaceOnUse">&#10;				<stop
   offset="0"
   style="stop-color:rgb(139,187,255)"
   id="stop10" />&#10;				<stop
   offset="1"
   style="stop-color:rgb(13,86,172)"
   id="stop11" />&#10;				<a:midPointStop
   offset="0"
   style="stop-color:#8BBBFF" />&#10;				<a:midPointStop
   offset="0.5"
   style="stop-color:#8BBBFF" />&#10;				<a:midPointStop
   offset="1"
   style="stop-color:#0D56AC" />&#10;			</radialGradient>&#10;			<path
   d="m 23.644,57.836 c 0,19.872 16.168,36.04 36.042,36.04 19.875,0 36.044,-16.168 36.044,-36.04 0,-19.875 -16.17,-36.044 -36.044,-36.044 -19.874,0 -36.042,16.169 -36.042,36.044 z m 0.971,0 c 0,-19.341 15.732,-35.073 35.071,-35.073 19.337,0 35.074,15.732 35.074,35.073 0,19.337 -15.736,35.069 -35.074,35.069 C 40.347,92.906 24.615,77.173 24.615,57.836 Z"
   style="fill:url(#XMLID_4_)"
   id="path11"
   inkscape:label="path7" />&#10;			<path
   d="m 98.711,28.344 c 0,-0.128 -0.051,-0.251 -0.141,-0.343 l -7.213,-7.21 c -0.189,-0.189 -0.498,-0.189 -0.686,0 0,0 -28.187,28.184 -28.506,28.503 -0.599,-0.109 -1.204,-0.192 -1.8,-0.192 -5.453,0 -9.891,4.438 -9.892,9.891 0,5.454 4.439,9.892 9.892,9.892 5.453,0 9.891,-4.438 9.891,-9.893 0,-0.596 -0.08,-1.201 -0.193,-1.8 0.32,-0.32 28.508,-28.505 28.508,-28.505 0.089,-0.09 0.14,-0.212 0.14,-0.343 z M 60.365,62.085 c -1.704,0 -3.09,-1.389 -3.09,-3.093 0,-1.703 1.387,-3.091 3.09,-3.091 1.706,0 3.092,1.388 3.092,3.091 0,1.705 -1.386,3.093 -3.092,3.093 z"
   style="opacity:0.15"
   id="path12"
   inkscape:label="path6" />&#10;			<g
   id="g24"
   inkscape:label="g2">&#10;				<linearGradient
   id="XMLID_5_"
   gradientUnits="userSpaceOnUse"
   x1="73.940399"
   y1="41.6572"
   x2="73.940399"
   y2="15.8137">&#10;					<stop
   offset="0"
   style="stop-color:rgb(255,255,255)"
   id="stop12" />&#10;					<stop
   offset="1"
   style="stop-color:rgb(178,178,178)"
   id="stop13" />&#10;				</linearGradient>&#10;				<path
   d="m 97.572,27.088 -7.209,-7.21 -9.389,9.388 -19.277,19.277 c -0.64,-0.136 -1.303,-0.213 -1.983,-0.213 -5.195,0 -9.404,4.211 -9.405,9.408 0,5.192 4.21,9.403 9.405,9.403 5.195,0 9.407,-4.211 9.407,-9.405 0,-0.681 -0.076,-1.345 -0.213,-1.984 L 88.185,36.476 Z M 59.714,61.315 c -1.975,0 -3.578,-1.604 -3.578,-3.576 0,-1.977 1.603,-3.579 3.578,-3.579 1.975,0 3.578,1.602 3.578,3.579 0,1.973 -1.601,3.576 -3.578,3.576 z"
   style="fill:url(#XMLID_5_)"
   id="path13"
   inkscape:label="path4" />&#10;				<linearGradient
   id="XMLID_6_"
   gradientUnits="userSpaceOnUse"
   x1="78.230499"
   y1="59.991699"
   x2="60.264599"
   y2="37.412998">&#10;					<stop
   offset="0"
   style="stop-color:rgb(255,255,255)"
   id="stop14" />&#10;					<stop
   offset="0.0626"
   style="stop-color:rgb(230,249,255)"
   id="stop15" />&#10;					<stop
   offset="0.1386"
   style="stop-color:rgb(206,242,255)"
   id="stop16" />&#10;					<stop
   offset="0.1854"
   style="stop-color:rgb(197,240,255)"
   id="stop17" />&#10;					<stop
   offset="1"
   style="stop-color:rgb(29,116,217)"
   id="stop18" />&#10;				</linearGradient>&#10;				<path
   d="m 59.714,48.331 c -5.195,0 -9.404,4.211 -9.405,9.408 0,5.192 4.21,9.403 9.405,9.403 5.195,0 9.407,-4.211 9.407,-9.405 0,-0.681 -0.076,-1.345 -0.213,-1.984 L 88.185,36.477 80.974,29.267 61.697,48.543 c -0.64,-0.135 -1.302,-0.212 -1.983,-0.212 z m 3.578,9.408 c 0,1.974 -1.601,3.576 -3.578,3.576 -1.975,0 -3.578,-1.604 -3.578,-3.576 0,-1.977 1.603,-3.579 3.578,-3.579 1.975,0 3.578,1.602 3.578,3.579 z"
   style="clip-rule:evenodd;fill:url(#XMLID_6_);fill-rule:evenodd"
   id="path18"
   inkscape:label="path8" />&#10;				<path
   d="M 97.572,27.088 96.1,25.614 86.707,35.003 67.432,54.278 c 0.135,0.642 0.213,1.302 0.213,1.986 0,5.193 -4.21,9.405 -9.406,9.405 -2.222,0 -4.258,-0.776 -5.867,-2.063 1.723,2.154 4.371,3.536 7.342,3.536 5.195,0 9.407,-4.211 9.407,-9.405 0,-0.681 -0.076,-1.345 -0.213,-1.984 L 88.185,36.477 Z"
   style="fill:#ffffff"
   id="path19"
   inkscape:label="path1" />&#10;				<radialGradient
   id="XMLID_7_"
   cx="58.377399"
   cy="62.6353"
   r="6.2993002"
   fx="58.377399"
   fy="62.6353"
   gradientUnits="userSpaceOnUse">&#10;					<stop
   offset="0"
   style="stop-color:rgb(139,187,255)"
   id="stop19" />&#10;					<stop
   offset="1"
   style="stop-color:rgb(13,86,172)"
   id="stop20" />&#10;					<a:midPointStop
   offset="0"
   style="stop-color:#8BBBFF" />&#10;					<a:midPointStop
   offset="0.5"
   style="stop-color:#8BBBFF" />&#10;					<a:midPointStop
   offset="1"
   style="stop-color:#0D56AC" />&#10;				</radialGradient>&#10;				<path
   d="m 55.652,57.739 c 0,2.238 1.822,4.061 4.062,4.061 2.24,0 4.063,-1.822 4.063,-4.061 0,-2.243 -1.824,-4.065 -4.063,-4.065 -2.24,0 -4.062,1.822 -4.062,4.065 z m 0.971,0 c 0,-1.705 1.387,-3.093 3.091,-3.093 1.705,0 3.092,1.388 3.092,3.093 0,1.703 -1.387,3.088 -3.092,3.088 -1.704,0 -3.091,-1.385 -3.091,-3.088 z"
   style="fill:url(#XMLID_7_)"
   id="path20"
   inkscape:label="path0" />&#10;				<radialGradient
   id="XMLID_8_"
   cx="66.000999"
   cy="72.5737"
   r="37.390598"
   fx="66.000999"
   fy="72.5737"
   gradientUnits="userSpaceOnUse">&#10;					<stop
   offset="0"
   style="stop-color:rgb(139,187,255)"
   id="stop21" />&#10;					<stop
   offset="1"
   style="stop-color:rgb(13,86,172)"
   id="stop22" />&#10;					<a:midPointStop
   offset="0"
   style="stop-color:#8BBBFF" />&#10;					<a:midPointStop
   offset="0.5"
   style="stop-color:#8BBBFF" />&#10;					<a:midPointStop
   offset="1"
   style="stop-color:#0D56AC" />&#10;				</radialGradient>&#10;				<path
   d="m 90.02,19.535 c 0,0 -28.184,28.183 -28.506,28.503 -0.599,-0.109 -1.201,-0.192 -1.799,-0.193 -5.453,10e-4 -9.891,4.438 -9.892,9.894 0,5.452 4.439,9.891 9.892,9.891 5.456,0 9.893,-4.438 9.893,-9.893 0,-0.598 -0.086,-1.204 -0.195,-1.802 0.322,-0.318 28.504,-28.502 28.504,-28.502 0.092,-0.091 0.143,-0.214 0.143,-0.344 0,-0.128 -0.051,-0.251 -0.143,-0.343 l -7.211,-7.211 c -0.19,-0.19 -0.497,-0.19 -0.686,0 z M 62.039,48.886 c 0,0 27.654,-27.651 28.324,-28.321 0.59,0.591 5.934,5.932 6.525,6.523 -0.671,0.671 -28.325,28.322 -28.325,28.322 -0.09,0.092 -0.141,0.219 -0.141,0.343 0,0.035 0.004,0.069 0.008,0.104 0.137,0.624 0.205,1.256 0.205,1.879 0,4.921 -4.001,8.919 -8.92,8.919 -4.917,0 -8.92,-3.998 -8.92,-8.917 0,-4.919 4.003,-8.922 8.92,-8.923 0.623,0.001 1.255,0.071 1.88,0.204 0.161,0.034 0.327,-0.015 0.444,-0.133 z"
   style="fill:url(#XMLID_8_)"
   id="path22"
   inkscape:label="path3" />&#10;				<linearGradient
   id="XMLID_9_"
   gradientUnits="userSpaceOnUse"
   x1="43.1147"
   y1="-187.511"
   x2="43.1147"
   y2="-118.847"
   gradientTransform="matrix(0.5775,0.5775,-0.5573,0.5573,-28.8492,96.0047)">&#10;					<stop
   offset="1.72414%"
   style="stop-color:rgb(255,255,255)"
   id="stop23" />&#10;					<stop
   offset="100%"
   style="stop-opacity:0;stop-color:rgb(255,255,255)"
   id="stop24" />&#10;				</linearGradient>&#10;				<path
   a:adobe-blending-mode="screen"
   d="m 94.385,25.849 -3.279,-3.279 -28.96,28.959 3.279,3.282 z"
   style="fill:url(#XMLID_9_)"
   id="path24"
   inkscape:label="path2" />&#10;			</g>&#10;			<linearGradient
   id="XMLID_10_"
   gradientUnits="userSpaceOnUse"
   x1="118.172"
   y1="89.243698"
   x2="107.247"
   y2="99.075203">&#10;				<stop
   offset="2.29885%"
   style="stop-color:rgb(255,255,255)"
   id="stop25" />&#10;				<stop
   offset="100%"
   style="stop-opacity:0;stop-color:rgb(255,255,255)"
   id="stop26" />&#10;			</linearGradient>&#10;			<path
   a:adobe-blending-mode="screen"
   d="m 115.564,97.741 -0.09,9.524 -16.161,-16.162 4.805,-4.808 z"
   style="fill:url(#XMLID_10_)"
   id="path26"
   inkscape:label="path2" />&#10;		</g>&#10;<metadata
   id="metadata1"><rdf:RDF><cc:License
       rdf:about="http://creativecommons.org/publicdomain/zero/1.0/"><cc:permits
         rdf:resource="http://creativecommons.org/ns#Reproduction" /><cc:permits
         rdf:resource="http://creativecommons.org/ns#Distribution" /><cc:permits
         rdf:resource="http://creativecommons.org/ns#DerivativeWorks" /></cc:License><cc:Work
       rdf:about=""><cc:license
         rdf:resource="http://creativecommons.org/publicdomain/zero/1.0/" /></cc:Work></rdf:RDF></metadata></svg>
