<?xml version="1.0" encoding="UTF-8"?>
<svg version="1.1" xmlns="http://www.w3.org/2000/svg" width="64" height="64">
<path d="M0 0 C3.96 0 7.92 0 12 0 C12 0.66 12 1.32 12 2 C13.32 2 14.64 2 16 2 C16 2.66 16 3.32 16 4 C16.66 4 17.32 4 18 4 C18 4.66 18 5.32 18 6 C20.64 6 23.28 6 26 6 C26 6.66 26 7.32 26 8 C27.32 8 28.64 8 30 8 C30 8.66 30 9.32 30 10 C30.66 10 31.32 10 32 10 C32 10.66 32 11.32 32 12 C32.66 12 33.32 12 34 12 C34 12.66 34 13.32 34 14 C34.66 14 35.32 14 36 14 C36 15.32 36 16.64 36 18 C36.66 18 37.32 18 38 18 C38 27.9 38 37.8 38 48 C37.34 48 36.68 48 36 48 C36 49.32 36 50.64 36 52 C35.34 52 34.68 52 34 52 C34 53.32 34 54.64 34 56 C33.34 56 32.68 56 32 56 C32 56.66 32 57.32 32 58 C31.34 58 30.68 58 30 58 C30 58.66 30 59.32 30 60 C28.68 60 27.36 60 26 60 C26 59.34 26 58.68 26 58 C25.34 58 24.68 58 24 58 C24 57.34 24 56.68 24 56 C23.34 56 22.68 56 22 56 C22 54.68 22 53.36 22 52 C21.34 52 20.68 52 20 52 C20 50.68 20 49.36 20 48 C19.34 48 18.68 48 18 48 C18 47.34 18 46.68 18 46 C17.34 46 16.68 46 16 46 C16 45.34 16 44.68 16 44 C9.4 44 2.8 44 -4 44 C-4 44.66 -4 45.32 -4 46 C-4.66 46 -5.32 46 -6 46 C-6 46.66 -6 47.32 -6 48 C-6.66 48 -7.32 48 -8 48 C-8 49.32 -8 50.64 -8 52 C-8.66 52 -9.32 52 -10 52 C-10 53.32 -10 54.64 -10 56 C-10.66 56 -11.32 56 -12 56 C-12 56.66 -12 57.32 -12 58 C-12.66 58 -13.32 58 -14 58 C-14 58.66 -14 59.32 -14 60 C-15.32 60 -16.64 60 -18 60 C-18 59.34 -18 58.68 -18 58 C-18.66 58 -19.32 58 -20 58 C-20 57.34 -20 56.68 -20 56 C-20.66 56 -21.32 56 -22 56 C-22 54.68 -22 53.36 -22 52 C-22.66 52 -23.32 52 -24 52 C-24 50.68 -24 49.36 -24 48 C-24.66 48 -25.32 48 -26 48 C-26 38.1 -26 28.2 -26 18 C-25.34 18 -24.68 18 -24 18 C-24 16.68 -24 15.36 -24 14 C-23.34 14 -22.68 14 -22 14 C-22 13.34 -22 12.68 -22 12 C-21.34 12 -20.68 12 -20 12 C-20 11.34 -20 10.68 -20 10 C-19.34 10 -18.68 10 -18 10 C-18 9.34 -18 8.68 -18 8 C-16.68 8 -15.36 8 -14 8 C-14 7.34 -14 6.68 -14 6 C-11.36 6 -8.72 6 -6 6 C-6 5.34 -6 4.68 -6 4 C-5.34 4 -4.68 4 -4 4 C-4 3.34 -4 2.68 -4 2 C-2.68 2 -1.36 2 0 2 C0 1.34 0 0.68 0 0 Z " fill="#EBB9E3" transform="translate(26,2)"/>
<path d="M0 0 C0.66 0 1.32 0 2 0 C2 9.9 2 19.8 2 30 C2.66 30 3.32 30 4 30 C4 31.98 4 33.96 4 36 C4.66 36 5.32 36 6 36 C6 36.66 6 37.32 6 38 C7.32 38 8.64 38 10 38 C10 37.34 10 36.68 10 36 C10.66 36 11.32 36 12 36 C12 35.34 12 34.68 12 34 C12.66 34 13.32 34 14 34 C14 32.68 14 31.36 14 30 C14.66 30 15.32 30 16 30 C16 28.02 16 26.04 16 24 C16.66 24 17.32 24 18 24 C18 21.36 18 18.72 18 16 C18.66 16 19.32 16 20 16 C20 16.66 20 17.32 20 18 C20.66 18 21.32 18 22 18 C22 18.66 22 19.32 22 20 C21.34 20 20.68 20 20 20 C20 21.32 20 22.64 20 24 C21.98 24 23.96 24 26 24 C26 22.68 26 21.36 26 20 C26.66 20 27.32 20 28 20 C28 19.34 28 18.68 28 18 C29.32 18 30.64 18 32 18 C32 18.66 32 19.32 32 20 C32.66 20 33.32 20 34 20 C34 21.32 34 22.64 34 24 C35.98 24 37.96 24 40 24 C40 22.68 40 21.36 40 20 C39.34 20 38.68 20 38 20 C38 19.34 38 18.68 38 18 C38.66 18 39.32 18 40 18 C40 17.34 40 16.68 40 16 C40.66 16 41.32 16 42 16 C42 18.64 42 21.28 42 24 C42.66 24 43.32 24 44 24 C44 25.98 44 27.96 44 30 C44.66 30 45.32 30 46 30 C46 31.32 46 32.64 46 34 C46.66 34 47.32 34 48 34 C48 34.66 48 35.32 48 36 C48.66 36 49.32 36 50 36 C50 36.66 50 37.32 50 38 C51.32 38 52.64 38 54 38 C54 37.34 54 36.68 54 36 C54.66 36 55.32 36 56 36 C56 34.02 56 32.04 56 30 C56.66 30 57.32 30 58 30 C58 20.1 58 10.2 58 0 C58.66 0 59.32 0 60 0 C60 1.32 60 2.64 60 4 C60.66 4 61.32 4 62 4 C62 13.9 62 23.8 62 34 C61.34 34 60.68 34 60 34 C60 35.32 60 36.64 60 38 C59.34 38 58.68 38 58 38 C58 39.32 58 40.64 58 42 C57.34 42 56.68 42 56 42 C56 42.66 56 43.32 56 44 C55.34 44 54.68 44 54 44 C54 44.66 54 45.32 54 46 C52.68 46 51.36 46 50 46 C50 45.34 50 44.68 50 44 C49.34 44 48.68 44 48 44 C48 43.34 48 42.68 48 42 C47.34 42 46.68 42 46 42 C46 40.68 46 39.36 46 38 C45.34 38 44.68 38 44 38 C44 36.68 44 35.36 44 34 C43.34 34 42.68 34 42 34 C42 33.34 42 32.68 42 32 C41.34 32 40.68 32 40 32 C40 31.34 40 30.68 40 30 C33.4 30 26.8 30 20 30 C20 30.66 20 31.32 20 32 C19.34 32 18.68 32 18 32 C18 32.66 18 33.32 18 34 C17.34 34 16.68 34 16 34 C16 35.32 16 36.64 16 38 C15.34 38 14.68 38 14 38 C14 39.32 14 40.64 14 42 C13.34 42 12.68 42 12 42 C12 42.66 12 43.32 12 44 C11.34 44 10.68 44 10 44 C10 44.66 10 45.32 10 46 C8.68 46 7.36 46 6 46 C6 45.34 6 44.68 6 44 C5.34 44 4.68 44 4 44 C4 43.34 4 42.68 4 42 C3.34 42 2.68 42 2 42 C2 40.68 2 39.36 2 38 C1.34 38 0.68 38 0 38 C0 36.68 0 35.36 0 34 C-0.66 34 -1.32 34 -2 34 C-2 24.1 -2 14.2 -2 4 C-1.34 4 -0.68 4 0 4 C0 2.68 0 1.36 0 0 Z " fill="#C87CE6" transform="translate(2,16)"/>
<path d="M0 0 C2.64 0 5.28 0 8 0 C8 0.66 8 1.32 8 2 C7.34 2 6.68 2 6 2 C6 3.32 6 4.64 6 6 C5.34 6 4.68 6 4 6 C4 7.32 4 8.64 4 10 C4.66 10 5.32 10 6 10 C6 13.96 6 17.92 6 22 C6.66 22 7.32 22 8 22 C8 25.3 8 28.6 8 32 C7.34 32 6.68 32 6 32 C6 33.98 6 35.96 6 38 C5.34 38 4.68 38 4 38 C4 39.32 4 40.64 4 42 C3.34 42 2.68 42 2 42 C2 42.66 2 43.32 2 44 C1.34 44 0.68 44 0 44 C0 44.66 0 45.32 0 46 C-1.32 46 -2.64 46 -4 46 C-4 45.34 -4 44.68 -4 44 C-4.66 44 -5.32 44 -6 44 C-6 42.02 -6 40.04 -6 38 C-6.66 38 -7.32 38 -8 38 C-8 27.44 -8 16.88 -8 6 C-7.34 6 -6.68 6 -6 6 C-6 5.34 -6 4.68 -6 4 C-5.34 4 -4.68 4 -4 4 C-4 3.34 -4 2.68 -4 2 C-2.68 2 -1.36 2 0 2 C0 1.34 0 0.68 0 0 Z " fill="#F7C5E4" transform="translate(12,8)"/>
<path d="M0 0 C3.96 0 7.92 0 12 0 C12 0.66 12 1.32 12 2 C13.32 2 14.64 2 16 2 C16 2.66 16 3.32 16 4 C16.66 4 17.32 4 18 4 C18 4.66 18 5.32 18 6 C17.34 6 16.68 6 16 6 C16 11.28 16 16.56 16 22 C15.34 22 14.68 22 14 22 C14 22.66 14 23.32 14 24 C13.34 24 12.68 24 12 24 C12 24.66 12 25.32 12 26 C8.04 26 4.08 26 0 26 C0 25.34 0 24.68 0 24 C-0.66 24 -1.32 24 -2 24 C-2 23.34 -2 22.68 -2 22 C-2.66 22 -3.32 22 -4 22 C-4 16.72 -4 11.44 -4 6 C-4.66 6 -5.32 6 -6 6 C-6 5.34 -6 4.68 -6 4 C-5.34 4 -4.68 4 -4 4 C-4 3.34 -4 2.68 -4 2 C-2.68 2 -1.36 2 0 2 C0 1.34 0 0.68 0 0 Z " fill="#C09DC6" transform="translate(26,2)"/>
<path d="M0 0 C0.66 0 1.32 0 2 0 C2 5.28 2 10.56 2 16 C2.66 16 3.32 16 4 16 C4 16.66 4 17.32 4 18 C4.66 18 5.32 18 6 18 C6 18.66 6 19.32 6 20 C9.96 20 13.92 20 18 20 C18 19.34 18 18.68 18 18 C18.66 18 19.32 18 20 18 C20 17.34 20 16.68 20 16 C20.66 16 21.32 16 22 16 C22 10.72 22 5.44 22 0 C22.66 0 23.32 0 24 0 C24 0.66 24 1.32 24 2 C24.66 2 25.32 2 26 2 C26 3.32 26 4.64 26 6 C26.66 6 27.32 6 28 6 C28 7.98 28 9.96 28 12 C26.68 12 25.36 12 24 12 C24 13.98 24 15.96 24 18 C25.32 18 26.64 18 28 18 C28 18.66 28 19.32 28 20 C27.34 20 26.68 20 26 20 C26 20.66 26 21.32 26 22 C25.34 22 24.68 22 24 22 C24 22.66 24 23.32 24 24 C23.34 24 22.68 24 22 24 C22 24.66 22 25.32 22 26 C21.34 26 20.68 26 20 26 C20 26.66 20 27.32 20 28 C20.66 28 21.32 28 22 28 C22 29.32 22 30.64 22 32 C20.02 32 18.04 32 16 32 C16 30.68 16 29.36 16 28 C15.34 28 14.68 28 14 28 C14 27.34 14 26.68 14 26 C12.68 26 11.36 26 10 26 C10 26.66 10 27.32 10 28 C9.34 28 8.68 28 8 28 C8 29.32 8 30.64 8 32 C6.02 32 4.04 32 2 32 C2 30.68 2 29.36 2 28 C2.66 28 3.32 28 4 28 C4 27.34 4 26.68 4 26 C3.34 26 2.68 26 2 26 C2 25.34 2 24.68 2 24 C1.34 24 0.68 24 0 24 C0 23.34 0 22.68 0 22 C-0.66 22 -1.32 22 -2 22 C-2 18.04 -2 14.08 -2 10 C-2.66 10 -3.32 10 -4 10 C-4 8.68 -4 7.36 -4 6 C-3.34 6 -2.68 6 -2 6 C-2 4.68 -2 3.36 -2 2 C-1.34 2 -0.68 2 0 2 C0 1.34 0 0.68 0 0 Z " fill="#F8CBE5" transform="translate(20,8)"/>
<path d="M0 0 C0.66 0 1.32 0 2 0 C2 1.32 2 2.64 2 4 C2.66 4 3.32 4 4 4 C4 13.9 4 23.8 4 34 C3.34 34 2.68 34 2 34 C2 35.32 2 36.64 2 38 C1.34 38 0.68 38 0 38 C0 39.32 0 40.64 0 42 C-0.66 42 -1.32 42 -2 42 C-2 42.66 -2 43.32 -2 44 C-2.66 44 -3.32 44 -4 44 C-4 44.66 -4 45.32 -4 46 C-5.32 46 -6.64 46 -8 46 C-8 45.34 -8 44.68 -8 44 C-8.66 44 -9.32 44 -10 44 C-10 43.34 -10 42.68 -10 42 C-10.66 42 -11.32 42 -12 42 C-12 40.68 -12 39.36 -12 38 C-12.66 38 -13.32 38 -14 38 C-14 36.68 -14 35.36 -14 34 C-12.68 34 -11.36 34 -10 34 C-10 34.66 -10 35.32 -10 36 C-9.34 36 -8.68 36 -8 36 C-8 36.66 -8 37.32 -8 38 C-6.68 38 -5.36 38 -4 38 C-4 37.34 -4 36.68 -4 36 C-3.34 36 -2.68 36 -2 36 C-2 34.02 -2 32.04 -2 30 C-1.34 30 -0.68 30 0 30 C0 20.1 0 10.2 0 0 Z " fill="#A261DF" transform="translate(60,16)"/>
<path d="M0 0 C0.66 0 1.32 0 2 0 C2 9.9 2 19.8 2 30 C2.66 30 3.32 30 4 30 C4 31.98 4 33.96 4 36 C4.66 36 5.32 36 6 36 C6 36.66 6 37.32 6 38 C7.32 38 8.64 38 10 38 C10 37.34 10 36.68 10 36 C10.66 36 11.32 36 12 36 C12 35.34 12 34.68 12 34 C13.32 34 14.64 34 16 34 C16 35.32 16 36.64 16 38 C15.34 38 14.68 38 14 38 C14 39.32 14 40.64 14 42 C13.34 42 12.68 42 12 42 C12 42.66 12 43.32 12 44 C11.34 44 10.68 44 10 44 C10 44.66 10 45.32 10 46 C8.68 46 7.36 46 6 46 C6 45.34 6 44.68 6 44 C5.34 44 4.68 44 4 44 C4 43.34 4 42.68 4 42 C3.34 42 2.68 42 2 42 C2 40.68 2 39.36 2 38 C1.34 38 0.68 38 0 38 C0 36.68 0 35.36 0 34 C-0.66 34 -1.32 34 -2 34 C-2 24.1 -2 14.2 -2 4 C-1.34 4 -0.68 4 0 4 C0 2.68 0 1.36 0 0 Z " fill="#A261DF" transform="translate(2,16)"/>
<path d="M0 0 C3.96 0 7.92 0 12 0 C12 0.66 12 1.32 12 2 C13.32 2 14.64 2 16 2 C16 2.66 16 3.32 16 4 C16.66 4 17.32 4 18 4 C18 4.66 18 5.32 18 6 C17.34 6 16.68 6 16 6 C16 11.28 16 16.56 16 22 C15.34 22 14.68 22 14 22 C14 16.06 14 10.12 14 4 C12.02 4 10.04 4 8 4 C8 4.66 8 5.32 8 6 C7.34 6 6.68 6 6 6 C6 5.34 6 4.68 6 4 C3.36 4 0.72 4 -2 4 C-2 9.94 -2 15.88 -2 22 C-2.66 22 -3.32 22 -4 22 C-4 16.72 -4 11.44 -4 6 C-4.66 6 -5.32 6 -6 6 C-6 5.34 -6 4.68 -6 4 C-5.34 4 -4.68 4 -4 4 C-4 3.34 -4 2.68 -4 2 C-2.68 2 -1.36 2 0 2 C0 1.34 0 0.68 0 0 Z " fill="#A98AE2" transform="translate(26,2)"/>
<path d="M0 0 C1.98 0 3.96 0 6 0 C6 1.32 6 2.64 6 4 C7.32 4 8.64 4 10 4 C10 5.98 10 7.96 10 10 C8.68 10 7.36 10 6 10 C6 11.32 6 12.64 6 14 C4.02 14 2.04 14 0 14 C0 12.68 0 11.36 0 10 C-1.32 10 -2.64 10 -4 10 C-4 8.02 -4 6.04 -4 4 C-2.68 4 -1.36 4 0 4 C0 2.68 0 1.36 0 0 Z " fill="#5A32C5" transform="translate(48,16)"/>
<path d="M0 0 C2.64 0 5.28 0 8 0 C8 0.66 8 1.32 8 2 C8.66 2 9.32 2 10 2 C10 4.64 10 7.28 10 10 C9.34 10 8.68 10 8 10 C8 10.66 8 11.32 8 12 C5.36 12 2.72 12 0 12 C0 11.34 0 10.68 0 10 C-0.66 10 -1.32 10 -2 10 C-2 7.36 -2 4.72 -2 2 C-1.34 2 -0.68 2 0 2 C0 1.34 0 0.68 0 0 Z " fill="#575567" transform="translate(8,16)"/>
<path d="M0 0 C3.96 0 7.92 0 12 0 C12 2.64 12 5.28 12 8 C8.04 8 4.08 8 0 8 C0 5.36 0 2.72 0 0 Z " fill="#7E9D83" transform="translate(26,14)"/>
<path d="M0 0 C1.98 0 3.96 0 6 0 C6 0.66 6 1.32 6 2 C6.66 2 7.32 2 8 2 C8 3.98 8 5.96 8 8 C7.34 8 6.68 8 6 8 C6 8.66 6 9.32 6 10 C4.02 10 2.04 10 0 10 C0 9.34 0 8.68 0 8 C-0.66 8 -1.32 8 -2 8 C-2 6.02 -2 4.04 -2 2 C-1.34 2 -0.68 2 0 2 C0 1.34 0 0.68 0 0 Z " fill="#575567" transform="translate(10,30)"/>
<path d="M0 0 C2.64 0 5.28 0 8 0 C8 0.66 8 1.32 8 2 C7.34 2 6.68 2 6 2 C6 3.32 6 4.64 6 6 C5.34 6 4.68 6 4 6 C4 6.66 4 7.32 4 8 C0.04 8 -3.92 8 -8 8 C-8 7.34 -8 6.68 -8 6 C-7.34 6 -6.68 6 -6 6 C-6 5.34 -6 4.68 -6 4 C-5.34 4 -4.68 4 -4 4 C-4 3.34 -4 2.68 -4 2 C-2.68 2 -1.36 2 0 2 C0 1.34 0 0.68 0 0 Z " fill="#C997E3" transform="translate(12,8)"/>
<path d="M0 0 C1.32 0 2.64 0 4 0 C4 0.66 4 1.32 4 2 C4.66 2 5.32 2 6 2 C6 3.32 6 4.64 6 6 C5.34 6 4.68 6 4 6 C4 6.66 4 7.32 4 8 C2.68 8 1.36 8 0 8 C0 7.34 0 6.68 0 6 C-0.66 6 -1.32 6 -2 6 C-2 4.68 -2 3.36 -2 2 C-1.34 2 -0.68 2 0 2 C0 1.34 0 0.68 0 0 Z " fill="#7B51CE" transform="translate(30,34)"/>
<path d="M0 0 C1.32 0 2.64 0 4 0 C4 0.66 4 1.32 4 2 C4.66 2 5.32 2 6 2 C6 3.32 6 4.64 6 6 C5.34 6 4.68 6 4 6 C4 6.66 4 7.32 4 8 C2.68 8 1.36 8 0 8 C0 7.34 0 6.68 0 6 C-0.66 6 -1.32 6 -2 6 C-2 4.68 -2 3.36 -2 2 C-1.34 2 -0.68 2 0 2 C0 1.34 0 0.68 0 0 Z " fill="#C4A1C0" transform="translate(10,18)"/>
<path d="M0 0 C3.96 0 7.92 0 12 0 C12 2.64 12 5.28 12 8 C11.34 8 10.68 8 10 8 C10 6.02 10 4.04 10 2 C7.36 2 4.72 2 2 2 C2 3.98 2 5.96 2 8 C1.34 8 0.68 8 0 8 C0 5.36 0 2.72 0 0 Z " fill="#575567" transform="translate(26,14)"/>
<path d="M0 0 C1.32 0 2.64 0 4 0 C4 0.66 4 1.32 4 2 C4.66 2 5.32 2 6 2 C6 2.66 6 3.32 6 4 C5.34 4 4.68 4 4 4 C4 9.28 4 14.56 4 20 C3.34 20 2.68 20 2 20 C2 14.06 2 8.12 2 2 C1.34 2 0.68 2 0 2 C0 1.34 0 0.68 0 0 Z " fill="#544881" transform="translate(38,4)"/>
<path d="M0 0 C1.32 0 2.64 0 4 0 C4 0.66 4 1.32 4 2 C3.34 2 2.68 2 2 2 C2 7.94 2 13.88 2 20 C1.34 20 0.68 20 0 20 C0 14.72 0 9.44 0 4 C-0.66 4 -1.32 4 -2 4 C-2 3.34 -2 2.68 -2 2 C-1.34 2 -0.68 2 0 2 C0 1.34 0 0.68 0 0 Z " fill="#544881" transform="translate(22,4)"/>
<path d="M0 0 C1.98 0 3.96 0 6 0 C6 1.32 6 2.64 6 4 C4.02 4 2.04 4 0 4 C0 2.68 0 1.36 0 0 Z " fill="#F4B8E7" transform="translate(36,36)"/>
<path d="M0 0 C1.98 0 3.96 0 6 0 C6 1.32 6 2.64 6 4 C4.02 4 2.04 4 0 4 C0 2.68 0 1.36 0 0 Z " fill="#F4B8E7" transform="translate(22,36)"/>
<path d="M0 0 C1.32 0 2.64 0 4 0 C4 0.66 4 1.32 4 2 C3.34 2 2.68 2 2 2 C2 2.66 2 3.32 2 4 C1.34 4 0.68 4 0 4 C0 4.66 0 5.32 0 6 C-1.32 6 -2.64 6 -4 6 C-4 5.34 -4 4.68 -4 4 C-3.34 4 -2.68 4 -2 4 C-2 3.34 -2 2.68 -2 2 C-1.34 2 -0.68 2 0 2 C0 1.34 0 0.68 0 0 Z " fill="#824AD9" transform="translate(8,10)"/>
<path d="M0 0 C0.66 0 1.32 0 2 0 C2 0.66 2 1.32 2 2 C2.66 2 3.32 2 4 2 C4 2.66 4 3.32 4 4 C3.34 4 2.68 4 2 4 C2 4.66 2 5.32 2 6 C1.34 6 0.68 6 0 6 C0 5.34 0 4.68 0 4 C-0.66 4 -1.32 4 -2 4 C-2 3.34 -2 2.68 -2 2 C-1.34 2 -0.68 2 0 2 C0 1.34 0 0.68 0 0 Z " fill="#B597B6" transform="translate(12,32)"/>
</svg>
