<?xml version="1.0" encoding="UTF-8"?>
<svg version="1.1" xmlns="http://www.w3.org/2000/svg" width="24" height="24">
<path d="M0 0 C7.92 0 15.84 0 24 0 C24 7.92 24 15.84 24 24 C16.08 24 8.16 24 0 24 C0 16.08 0 8.16 0 0 Z " fill="#696990" transform="translate(0,0)"/>
<path d="M0 0 C7.92 0 15.84 0 24 0 C24 7.92 24 15.84 24 24 C16.08 24 8.16 24 0 24 C0 16.08 0 8.16 0 0 Z M2 2 C2 7.28 2 12.56 2 18 C8.6 18 15.2 18 22 18 C22 12.72 22 7.44 22 2 C15.4 2 8.8 2 2 2 Z " fill="#494759" transform="translate(0,0)"/>
<path d="M0 0 C6.6 0 13.2 0 20 0 C20 5.28 20 10.56 20 16 C13.4 16 6.8 16 0 16 C0 10.72 0 5.44 0 0 Z M2 2 C2 5.96 2 9.92 2 14 C7.28 14 12.56 14 18 14 C18 10.04 18 6.08 18 2 C12.72 2 7.44 2 2 2 Z " fill="#E0DAE2" transform="translate(2,2)"/>
<path d="M0 0 C3.96 0 7.92 0 12 0 C12 0.66 12 1.32 12 2 C10.68 2 9.36 2 8 2 C8 2.66 8 3.32 8 4 C9.32 4 10.64 4 12 4 C12 5.32 12 6.64 12 8 C8.04 8 4.08 8 0 8 C0 6.68 0 5.36 0 4 C1.98 4 3.96 4 6 4 C6 3.34 6 2.68 6 2 C4.02 2 2.04 2 0 2 C0 1.34 0 0.68 0 0 Z " fill="#56ACDB" transform="translate(6,6)"/>
<path d="M0 0 C3.96 0 7.92 0 12 0 C12 0.66 12 1.32 12 2 C10.68 2 9.36 2 8 2 C8 2.66 8 3.32 8 4 C7.34 4 6.68 4 6 4 C6 3.34 6 2.68 6 2 C4.02 2 2.04 2 0 2 C0 1.34 0 0.68 0 0 Z " fill="#BDAAC7" transform="translate(6,6)"/>
</svg>
